<svg version="1.1" baseProfile="full" xmlns="http://www.w3.org/2000/svg">
<polygon points="0,0 0,500 750,500 750,0" transform="rotate(0 0 0)" fill="red" stroke="black" stroke-width="0.5" />
<polygon points="0,0 0,110 15,110 15,0" transform="rotate(0 0 0)" fill="green" stroke="black" stroke-width="0.5" />
<polygon points="15,0 15,110 30,110 30,0" transform="rotate(0 0 0)" fill="green" stroke="black" stroke-width="0.5" />
<polygon points="30,0 30,110 45,110 45,0" transform="rotate(0 0 0)" fill="green" stroke="black" stroke-width="0.5" />
<polygon points="45,0 45,110 60,110 60,0" transform="rotate(0 0 0)" fill="green" stroke="black" stroke-width="0.5" />
<polygon points="60,0 60,110 75,110 75,0" transform="rotate(0 0 0)" fill="green" stroke="black" stroke-width="0.5" />
<polygon points="75,0 75,110 90,110 90,0" transform="rotate(0 0 0)" fill="green" stroke="black" stroke-width="0.5" />
<polygon points="90,0 90,110 105,110 105,0" transform="rotate(0 0 0)" fill="green" stroke="black" stroke-width="0.5" />
<polygon points="105,0 105,110 120,110 120,0" transform="rotate(0 0 0)" fill="green" stroke="black" stroke-width="0.5" />
<polygon points="120,0 120,110 135,110 135,0" transform="rotate(0 0 0)" fill="green" stroke="black" stroke-width="0.5" />
<polygon points="135,0 135,110 150,110 150,0" transform="rotate(0 0 0)" fill="green" stroke="black" stroke-width="0.5" />
<polygon points="150,0 150,110 165,110 165,0" transform="rotate(0 0 0)" fill="green" stroke="black" stroke-width="0.5" />
<polygon points="165,0 165,110 180,110 180,0" transform="rotate(0 0 0)" fill="green" stroke="black" stroke-width="0.5" />
<polygon points="180,0 180,110 195,110 195,0" transform="rotate(0 0 0)" fill="green" stroke="black" stroke-width="0.5" />
<polygon points="195,0 195,110 210,110 210,0" transform="rotate(0 0 0)" fill="green" stroke="black" stroke-width="0.5" />
<polygon points="210,0 210,110 225,110 225,0" transform="rotate(0 0 0)" fill="green" stroke="black" stroke-width="0.5" />
<polygon points="225,0 225,110 240,110 240,0" transform="rotate(0 0 0)" fill="green" stroke="black" stroke-width="0.5" />
<polygon points="240,0 240,110 255,110 255,0" transform="rotate(0 0 0)" fill="green" stroke="black" stroke-width="0.5" />
<polygon points="255,0 255,110 270,110 270,0" transform="rotate(0 0 0)" fill="green" stroke="black" stroke-width="0.5" />
<polygon points="270,0 270,110 285,110 285,0" transform="rotate(0 0 0)" fill="green" stroke="black" stroke-width="0.5" />
<polygon points="285,0 285,110 300,110 300,0" transform="rotate(0 0 0)" fill="green" stroke="black" stroke-width="0.5" />
<polygon points="300,0 300,110 315,110 315,0" transform="rotate(0 0 0)" fill="green" stroke="black" stroke-width="0.5" />
<polygon points="315,0 315,110 330,110 330,0" transform="rotate(0 0 0)" fill="green" stroke="black" stroke-width="0.5" />
<polygon points="330,0 330,110 345,110 345,0" transform="rotate(0 0 0)" fill="green" stroke="black" stroke-width="0.5" />
<polygon points="345,0 345,110 360,110 360,0" transform="rotate(0 0 0)" fill="green" stroke="black" stroke-width="0.5" />
<polygon points="360,0 360,110 375,110 375,0" transform="rotate(0 0 0)" fill="green" stroke="black" stroke-width="0.5" />
<polygon points="375,0 375,110 390,110 390,0" transform="rotate(0 0 0)" fill="green" stroke="black" stroke-width="0.5" />
<polygon points="390,0 390,110 405,110 405,0" transform="rotate(0 0 0)" fill="green" stroke="black" stroke-width="0.5" />
<polygon points="405,0 405,110 420,110 420,0" transform="rotate(0 0 0)" fill="green" stroke="black" stroke-width="0.5" />
<polygon points="420,0 420,110 435,110 435,0" transform="rotate(0 0 0)" fill="green" stroke="black" stroke-width="0.5" />
<polygon points="435,0 435,110 450,110 450,0" transform="rotate(0 0 0)" fill="green" stroke="black" stroke-width="0.5" />
<polygon points="450,0 450,110 465,110 465,0" transform="rotate(0 0 0)" fill="green" stroke="black" stroke-width="0.5" />
<polygon points="465,0 465,110 480,110 480,0" transform="rotate(0 0 0)" fill="green" stroke="black" stroke-width="0.5" />
<polygon points="480,0 480,110 495,110 495,0" transform="rotate(0 0 0)" fill="green" stroke="black" stroke-width="0.5" />
<polygon points="495,0 495,110 510,110 510,0" transform="rotate(0 0 0)" fill="green" stroke="black" stroke-width="0.5" />
<polygon points="510,0 510,110 525,110 525,0" transform="rotate(0 0 0)" fill="green" stroke="black" stroke-width="0.5" />
<polygon points="525,0 525,110 540,110 540,0" transform="rotate(0 0 0)" fill="green" stroke="black" stroke-width="0.5" />
<polygon points="540,0 540,110 555,110 555,0" transform="rotate(0 0 0)" fill="green" stroke="black" stroke-width="0.5" />
<polygon points="555,0 555,110 570,110 570,0" transform="rotate(0 0 0)" fill="green" stroke="black" stroke-width="0.5" />
<polygon points="570,0 570,110 585,110 585,0" transform="rotate(0 0 0)" fill="green" stroke="black" stroke-width="0.5" />
<polygon points="585,0 585,110 600,110 600,0" transform="rotate(0 0 0)" fill="green" stroke="black" stroke-width="0.5" />
<polygon points="600,0 600,110 615,110 615,0" transform="rotate(0 0 0)" fill="green" stroke="black" stroke-width="0.5" />
<polygon points="615,0 615,110 630,110 630,0" transform="rotate(0 0 0)" fill="green" stroke="black" stroke-width="0.5" />
<polygon points="630,0 630,110 645,110 645,0" transform="rotate(0 0 0)" fill="green" stroke="black" stroke-width="0.5" />
<polygon points="645,0 645,110 660,110 660,0" transform="rotate(0 0 0)" fill="green" stroke="black" stroke-width="0.5" />
<polygon points="660,0 660,110 675,110 675,0" transform="rotate(0 0 0)" fill="green" stroke="black" stroke-width="0.5" />
<polygon points="675,0 675,110 690,110 690,0" transform="rotate(0 0 0)" fill="green" stroke="black" stroke-width="0.5" />
<polygon points="690,0 690,110 705,110 705,0" transform="rotate(0 0 0)" fill="green" stroke="black" stroke-width="0.5" />
<polygon points="705,0 705,110 720,110 720,0" transform="rotate(0 0 0)" fill="green" stroke="black" stroke-width="0.5" />
<polygon points="720,0 720,110 735,110 735,0" transform="rotate(0 0 0)" fill="green" stroke="black" stroke-width="0.5" />
<polygon points="735,0 735,110 750,110 750,0" transform="rotate(0 0 0)" fill="green" stroke="black" stroke-width="0.5" />
<polygon points="0,110 0,220 15,220 15,110" transform="rotate(0 0 0)" fill="green" stroke="black" stroke-width="0.5" />
<polygon points="15,110 15,220 30,220 30,110" transform="rotate(0 0 0)" fill="green" stroke="black" stroke-width="0.5" />
<polygon points="30,110 30,220 45,220 45,110" transform="rotate(0 0 0)" fill="green" stroke="black" stroke-width="0.5" />
<polygon points="45,110 45,220 60,220 60,110" transform="rotate(0 0 0)" fill="green" stroke="black" stroke-width="0.5" />
<polygon points="60,110 60,220 75,220 75,110" transform="rotate(0 0 0)" fill="green" stroke="black" stroke-width="0.5" />
<polygon points="75,110 75,220 90,220 90,110" transform="rotate(0 0 0)" fill="green" stroke="black" stroke-width="0.5" />
<polygon points="90,110 90,220 105,220 105,110" transform="rotate(0 0 0)" fill="green" stroke="black" stroke-width="0.5" />
<polygon points="105,110 105,220 120,220 120,110" transform="rotate(0 0 0)" fill="green" stroke="black" stroke-width="0.5" />
<polygon points="120,110 120,220 135,220 135,110" transform="rotate(0 0 0)" fill="green" stroke="black" stroke-width="0.5" />
<polygon points="135,110 135,220 150,220 150,110" transform="rotate(0 0 0)" fill="green" stroke="black" stroke-width="0.5" />
<polygon points="150,110 150,220 165,220 165,110" transform="rotate(0 0 0)" fill="green" stroke="black" stroke-width="0.5" />
<polygon points="165,110 165,220 180,220 180,110" transform="rotate(0 0 0)" fill="green" stroke="black" stroke-width="0.5" />
<polygon points="180,110 180,220 195,220 195,110" transform="rotate(0 0 0)" fill="green" stroke="black" stroke-width="0.5" />
<polygon points="195,110 195,220 210,220 210,110" transform="rotate(0 0 0)" fill="green" stroke="black" stroke-width="0.5" />
<polygon points="210,110 210,220 225,220 225,110" transform="rotate(0 0 0)" fill="green" stroke="black" stroke-width="0.5" />
<polygon points="225,110 225,220 240,220 240,110" transform="rotate(0 0 0)" fill="green" stroke="black" stroke-width="0.5" />
<polygon points="240,110 240,220 255,220 255,110" transform="rotate(0 0 0)" fill="green" stroke="black" stroke-width="0.5" />
<polygon points="255,110 255,220 270,220 270,110" transform="rotate(0 0 0)" fill="green" stroke="black" stroke-width="0.5" />
<polygon points="270,110 270,220 285,220 285,110" transform="rotate(0 0 0)" fill="green" stroke="black" stroke-width="0.5" />
<polygon points="285,110 285,220 300,220 300,110" transform="rotate(0 0 0)" fill="green" stroke="black" stroke-width="0.5" />
<polygon points="300,110 300,220 315,220 315,110" transform="rotate(0 0 0)" fill="green" stroke="black" stroke-width="0.5" />
<polygon points="315,110 315,220 330,220 330,110" transform="rotate(0 0 0)" fill="green" stroke="black" stroke-width="0.5" />
<polygon points="330,110 330,220 345,220 345,110" transform="rotate(0 0 0)" fill="green" stroke="black" stroke-width="0.5" />
<polygon points="345,110 345,220 360,220 360,110" transform="rotate(0 0 0)" fill="green" stroke="black" stroke-width="0.5" />
<polygon points="360,110 360,220 375,220 375,110" transform="rotate(0 0 0)" fill="green" stroke="black" stroke-width="0.5" />
<polygon points="375,110 375,220 390,220 390,110" transform="rotate(0 0 0)" fill="green" stroke="black" stroke-width="0.5" />
<polygon points="390,110 390,220 405,220 405,110" transform="rotate(0 0 0)" fill="green" stroke="black" stroke-width="0.5" />
<polygon points="405,110 405,220 420,220 420,110" transform="rotate(0 0 0)" fill="green" stroke="black" stroke-width="0.5" />
<polygon points="420,110 420,220 435,220 435,110" transform="rotate(0 0 0)" fill="green" stroke="black" stroke-width="0.5" />
<polygon points="435,110 435,220 450,220 450,110" transform="rotate(0 0 0)" fill="green" stroke="black" stroke-width="0.5" />
<polygon points="450,110 450,220 465,220 465,110" transform="rotate(0 0 0)" fill="green" stroke="black" stroke-width="0.5" />
<polygon points="465,110 465,220 480,220 480,110" transform="rotate(0 0 0)" fill="green" stroke="black" stroke-width="0.5" />
<polygon points="480,110 480,220 495,220 495,110" transform="rotate(0 0 0)" fill="green" stroke="black" stroke-width="0.5" />
<polygon points="495,110 495,220 510,220 510,110" transform="rotate(0 0 0)" fill="green" stroke="black" stroke-width="0.5" />
<polygon points="510,110 510,220 525,220 525,110" transform="rotate(0 0 0)" fill="green" stroke="black" stroke-width="0.5" />
<polygon points="525,110 525,220 540,220 540,110" transform="rotate(0 0 0)" fill="green" stroke="black" stroke-width="0.5" />
<polygon points="540,110 540,220 555,220 555,110" transform="rotate(0 0 0)" fill="green" stroke="black" stroke-width="0.5" />
<polygon points="555,110 555,220 570,220 570,110" transform="rotate(0 0 0)" fill="green" stroke="black" stroke-width="0.5" />
<polygon points="570,110 570,220 585,220 585,110" transform="rotate(0 0 0)" fill="green" stroke="black" stroke-width="0.5" />
<polygon points="585,110 585,220 600,220 600,110" transform="rotate(0 0 0)" fill="green" stroke="black" stroke-width="0.5" />
<polygon points="600,110 600,220 615,220 615,110" transform="rotate(0 0 0)" fill="green" stroke="black" stroke-width="0.5" />
<polygon points="615,110 615,220 630,220 630,110" transform="rotate(0 0 0)" fill="green" stroke="black" stroke-width="0.5" />
<polygon points="630,110 630,220 645,220 645,110" transform="rotate(0 0 0)" fill="green" stroke="black" stroke-width="0.5" />
<polygon points="645,110 645,220 660,220 660,110" transform="rotate(0 0 0)" fill="green" stroke="black" stroke-width="0.5" />
<polygon points="660,110 660,220 675,220 675,110" transform="rotate(0 0 0)" fill="green" stroke="black" stroke-width="0.5" />
<polygon points="675,110 675,220 690,220 690,110" transform="rotate(0 0 0)" fill="green" stroke="black" stroke-width="0.5" />
<polygon points="690,110 690,220 705,220 705,110" transform="rotate(0 0 0)" fill="green" stroke="black" stroke-width="0.5" />
<polygon points="705,110 705,220 720,220 720,110" transform="rotate(0 0 0)" fill="green" stroke="black" stroke-width="0.5" />
<polygon points="720,110 720,220 735,220 735,110" transform="rotate(0 0 0)" fill="green" stroke="black" stroke-width="0.5" />
<polygon points="735,110 735,220 750,220 750,110" transform="rotate(0 0 0)" fill="green" stroke="black" stroke-width="0.5" />
<polygon points="0,220 0,330 15,330 15,220" transform="rotate(0 0 0)" fill="green" stroke="black" stroke-width="0.5" />
<polygon points="15,220 15,330 30,330 30,220" transform="rotate(0 0 0)" fill="green" stroke="black" stroke-width="0.5" />
<polygon points="30,220 30,330 45,330 45,220" transform="rotate(0 0 0)" fill="green" stroke="black" stroke-width="0.5" />
<polygon points="45,220 45,330 60,330 60,220" transform="rotate(0 0 0)" fill="green" stroke="black" stroke-width="0.5" />
<polygon points="60,220 60,330 75,330 75,220" transform="rotate(0 0 0)" fill="green" stroke="black" stroke-width="0.5" />
<polygon points="75,220 75,330 90,330 90,220" transform="rotate(0 0 0)" fill="green" stroke="black" stroke-width="0.5" />
<polygon points="90,220 90,330 105,330 105,220" transform="rotate(0 0 0)" fill="green" stroke="black" stroke-width="0.5" />
<polygon points="105,220 105,330 120,330 120,220" transform="rotate(0 0 0)" fill="green" stroke="black" stroke-width="0.5" />
<polygon points="120,220 120,330 135,330 135,220" transform="rotate(0 0 0)" fill="green" stroke="black" stroke-width="0.5" />
<polygon points="135,220 135,330 150,330 150,220" transform="rotate(0 0 0)" fill="green" stroke="black" stroke-width="0.5" />
<polygon points="150,220 150,330 165,330 165,220" transform="rotate(0 0 0)" fill="green" stroke="black" stroke-width="0.5" />
<polygon points="165,220 165,330 180,330 180,220" transform="rotate(0 0 0)" fill="green" stroke="black" stroke-width="0.5" />
<polygon points="180,220 180,330 195,330 195,220" transform="rotate(0 0 0)" fill="green" stroke="black" stroke-width="0.5" />
<polygon points="195,220 195,330 210,330 210,220" transform="rotate(0 0 0)" fill="green" stroke="black" stroke-width="0.5" />
<polygon points="210,220 210,330 225,330 225,220" transform="rotate(0 0 0)" fill="green" stroke="black" stroke-width="0.5" />
<polygon points="225,220 225,330 240,330 240,220" transform="rotate(0 0 0)" fill="green" stroke="black" stroke-width="0.5" />
<polygon points="240,220 240,330 255,330 255,220" transform="rotate(0 0 0)" fill="green" stroke="black" stroke-width="0.5" />
<polygon points="255,220 255,330 270,330 270,220" transform="rotate(0 0 0)" fill="green" stroke="black" stroke-width="0.5" />
<polygon points="270,220 270,330 285,330 285,220" transform="rotate(0 0 0)" fill="green" stroke="black" stroke-width="0.5" />
<polygon points="285,220 285,330 300,330 300,220" transform="rotate(0 0 0)" fill="green" stroke="black" stroke-width="0.5" />
<polygon points="300,220 300,330 315,330 315,220" transform="rotate(0 0 0)" fill="green" stroke="black" stroke-width="0.5" />
<polygon points="315,220 315,330 330,330 330,220" transform="rotate(0 0 0)" fill="green" stroke="black" stroke-width="0.5" />
<polygon points="330,220 330,330 345,330 345,220" transform="rotate(0 0 0)" fill="green" stroke="black" stroke-width="0.5" />
<polygon points="345,220 345,330 360,330 360,220" transform="rotate(0 0 0)" fill="green" stroke="black" stroke-width="0.5" />
<polygon points="360,220 360,330 375,330 375,220" transform="rotate(0 0 0)" fill="green" stroke="black" stroke-width="0.5" />
<polygon points="375,220 375,330 390,330 390,220" transform="rotate(0 0 0)" fill="green" stroke="black" stroke-width="0.5" />
<polygon points="390,220 390,330 405,330 405,220" transform="rotate(0 0 0)" fill="green" stroke="black" stroke-width="0.5" />
<polygon points="405,220 405,330 420,330 420,220" transform="rotate(0 0 0)" fill="green" stroke="black" stroke-width="0.5" />
<polygon points="420,220 420,330 435,330 435,220" transform="rotate(0 0 0)" fill="green" stroke="black" stroke-width="0.5" />
<polygon points="435,220 435,330 450,330 450,220" transform="rotate(0 0 0)" fill="green" stroke="black" stroke-width="0.5" />
<polygon points="450,220 450,330 465,330 465,220" transform="rotate(0 0 0)" fill="green" stroke="black" stroke-width="0.5" />
<polygon points="465,220 465,330 480,330 480,220" transform="rotate(0 0 0)" fill="green" stroke="black" stroke-width="0.5" />
<polygon points="480,220 480,330 495,330 495,220" transform="rotate(0 0 0)" fill="green" stroke="black" stroke-width="0.5" />
<polygon points="495,220 495,330 510,330 510,220" transform="rotate(0 0 0)" fill="green" stroke="black" stroke-width="0.5" />
<polygon points="510,220 510,330 525,330 525,220" transform="rotate(0 0 0)" fill="green" stroke="black" stroke-width="0.5" />
<polygon points="525,220 525,330 540,330 540,220" transform="rotate(0 0 0)" fill="green" stroke="black" stroke-width="0.5" />
<polygon points="540,220 540,330 555,330 555,220" transform="rotate(0 0 0)" fill="green" stroke="black" stroke-width="0.5" />
<polygon points="555,220 555,330 570,330 570,220" transform="rotate(0 0 0)" fill="green" stroke="black" stroke-width="0.5" />
<polygon points="570,220 570,330 585,330 585,220" transform="rotate(0 0 0)" fill="green" stroke="black" stroke-width="0.5" />
<polygon points="585,220 585,330 600,330 600,220" transform="rotate(0 0 0)" fill="green" stroke="black" stroke-width="0.5" />
<polygon points="600,220 600,330 615,330 615,220" transform="rotate(0 0 0)" fill="green" stroke="black" stroke-width="0.5" />
<polygon points="615,220 615,330 630,330 630,220" transform="rotate(0 0 0)" fill="green" stroke="black" stroke-width="0.5" />
<polygon points="630,220 630,330 645,330 645,220" transform="rotate(0 0 0)" fill="green" stroke="black" stroke-width="0.5" />
<polygon points="645,220 645,330 660,330 660,220" transform="rotate(0 0 0)" fill="green" stroke="black" stroke-width="0.5" />
<polygon points="660,220 660,330 675,330 675,220" transform="rotate(0 0 0)" fill="green" stroke="black" stroke-width="0.5" />
<polygon points="675,220 675,330 690,330 690,220" transform="rotate(0 0 0)" fill="green" stroke="black" stroke-width="0.5" />
<polygon points="690,220 690,330 705,330 705,220" transform="rotate(0 0 0)" fill="green" stroke="black" stroke-width="0.5" />
<polygon points="705,220 705,330 720,330 720,220" transform="rotate(0 0 0)" fill="green" stroke="black" stroke-width="0.5" />
<polygon points="720,220 720,330 735,330 735,220" transform="rotate(0 0 0)" fill="green" stroke="black" stroke-width="0.5" />
<polygon points="735,220 735,330 750,330 750,220" transform="rotate(0 0 0)" fill="green" stroke="black" stroke-width="0.5" />
<polygon points="0,330 0,440 15,440 15,330" transform="rotate(0 0 0)" fill="green" stroke="black" stroke-width="0.5" />
<polygon points="15,330 15,440 30,440 30,330" transform="rotate(0 0 0)" fill="green" stroke="black" stroke-width="0.5" />
<polygon points="30,330 30,440 45,440 45,330" transform="rotate(0 0 0)" fill="green" stroke="black" stroke-width="0.5" />
<polygon points="45,330 45,440 60,440 60,330" transform="rotate(0 0 0)" fill="green" stroke="black" stroke-width="0.5" />
<polygon points="60,330 60,440 75,440 75,330" transform="rotate(0 0 0)" fill="green" stroke="black" stroke-width="0.5" />
<polygon points="75,330 75,440 90,440 90,330" transform="rotate(0 0 0)" fill="green" stroke="black" stroke-width="0.5" />
<polygon points="90,330 90,440 105,440 105,330" transform="rotate(0 0 0)" fill="green" stroke="black" stroke-width="0.5" />
<polygon points="105,330 105,440 120,440 120,330" transform="rotate(0 0 0)" fill="green" stroke="black" stroke-width="0.5" />
<polygon points="120,330 120,440 135,440 135,330" transform="rotate(0 0 0)" fill="green" stroke="black" stroke-width="0.5" />
<polygon points="135,330 135,440 150,440 150,330" transform="rotate(0 0 0)" fill="green" stroke="black" stroke-width="0.5" />
<polygon points="150,330 150,440 165,440 165,330" transform="rotate(0 0 0)" fill="green" stroke="black" stroke-width="0.5" />
<polygon points="165,330 165,440 180,440 180,330" transform="rotate(0 0 0)" fill="green" stroke="black" stroke-width="0.5" />
<polygon points="180,330 180,440 195,440 195,330" transform="rotate(0 0 0)" fill="green" stroke="black" stroke-width="0.5" />
<polygon points="195,330 195,440 210,440 210,330" transform="rotate(0 0 0)" fill="green" stroke="black" stroke-width="0.5" />
<polygon points="210,330 210,440 225,440 225,330" transform="rotate(0 0 0)" fill="green" stroke="black" stroke-width="0.5" />
<polygon points="225,330 225,440 240,440 240,330" transform="rotate(0 0 0)" fill="green" stroke="black" stroke-width="0.5" />
<polygon points="240,330 240,440 255,440 255,330" transform="rotate(0 0 0)" fill="green" stroke="black" stroke-width="0.5" />
<polygon points="255,330 255,440 270,440 270,330" transform="rotate(0 0 0)" fill="green" stroke="black" stroke-width="0.5" />
<polygon points="270,330 270,440 285,440 285,330" transform="rotate(0 0 0)" fill="green" stroke="black" stroke-width="0.5" />
<polygon points="285,330 285,440 300,440 300,330" transform="rotate(0 0 0)" fill="green" stroke="black" stroke-width="0.5" />
<polygon points="300,330 300,440 315,440 315,330" transform="rotate(0 0 0)" fill="green" stroke="black" stroke-width="0.5" />
<polygon points="315,330 315,440 330,440 330,330" transform="rotate(0 0 0)" fill="green" stroke="black" stroke-width="0.5" />
<polygon points="330,330 330,440 345,440 345,330" transform="rotate(0 0 0)" fill="green" stroke="black" stroke-width="0.5" />
<polygon points="345,330 345,440 360,440 360,330" transform="rotate(0 0 0)" fill="green" stroke="black" stroke-width="0.5" />
<polygon points="360,330 360,440 375,440 375,330" transform="rotate(0 0 0)" fill="green" stroke="black" stroke-width="0.5" />
<polygon points="375,330 375,440 390,440 390,330" transform="rotate(0 0 0)" fill="green" stroke="black" stroke-width="0.5" />
<polygon points="390,330 390,440 405,440 405,330" transform="rotate(0 0 0)" fill="green" stroke="black" stroke-width="0.5" />
<polygon points="405,330 405,440 420,440 420,330" transform="rotate(0 0 0)" fill="green" stroke="black" stroke-width="0.5" />
<polygon points="420,330 420,440 435,440 435,330" transform="rotate(0 0 0)" fill="green" stroke="black" stroke-width="0.5" />
<polygon points="435,330 435,440 450,440 450,330" transform="rotate(0 0 0)" fill="green" stroke="black" stroke-width="0.5" />
<polygon points="450,330 450,440 465,440 465,330" transform="rotate(0 0 0)" fill="green" stroke="black" stroke-width="0.5" />
<polygon points="465,330 465,440 480,440 480,330" transform="rotate(0 0 0)" fill="green" stroke="black" stroke-width="0.5" />
<polygon points="480,330 480,440 495,440 495,330" transform="rotate(0 0 0)" fill="green" stroke="black" stroke-width="0.5" />
<polygon points="495,330 495,440 510,440 510,330" transform="rotate(0 0 0)" fill="green" stroke="black" stroke-width="0.5" />
<polygon points="510,330 510,440 525,440 525,330" transform="rotate(0 0 0)" fill="green" stroke="black" stroke-width="0.5" />
<polygon points="525,330 525,440 540,440 540,330" transform="rotate(0 0 0)" fill="green" stroke="black" stroke-width="0.5" />
<polygon points="540,330 540,440 555,440 555,330" transform="rotate(0 0 0)" fill="green" stroke="black" stroke-width="0.5" />
<polygon points="555,330 555,440 570,440 570,330" transform="rotate(0 0 0)" fill="green" stroke="black" stroke-width="0.5" />
<polygon points="570,330 570,440 585,440 585,330" transform="rotate(0 0 0)" fill="green" stroke="black" stroke-width="0.5" />
<polygon points="585,330 585,440 600,440 600,330" transform="rotate(0 0 0)" fill="green" stroke="black" stroke-width="0.5" />
<polygon points="600,330 600,440 615,440 615,330" transform="rotate(0 0 0)" fill="green" stroke="black" stroke-width="0.5" />
<polygon points="615,330 615,440 630,440 630,330" transform="rotate(0 0 0)" fill="green" stroke="black" stroke-width="0.5" />
<polygon points="630,330 630,440 645,440 645,330" transform="rotate(0 0 0)" fill="green" stroke="black" stroke-width="0.5" />
<polygon points="645,330 645,440 660,440 660,330" transform="rotate(0 0 0)" fill="green" stroke="black" stroke-width="0.5" />
<polygon points="660,330 660,440 675,440 675,330" transform="rotate(0 0 0)" fill="green" stroke="black" stroke-width="0.5" />
<polygon points="675,330 675,440 690,440 690,330" transform="rotate(0 0 0)" fill="green" stroke="black" stroke-width="0.5" />
<polygon points="690,330 690,440 705,440 705,330" transform="rotate(0 0 0)" fill="green" stroke="black" stroke-width="0.5" />
<polygon points="705,330 705,440 720,440 720,330" transform="rotate(0 0 0)" fill="green" stroke="black" stroke-width="0.5" />
<polygon points="720,330 720,440 735,440 735,330" transform="rotate(0 0 0)" fill="green" stroke="black" stroke-width="0.5" />
<polygon points="735,330 735,440 750,440 750,330" transform="rotate(0 0 0)" fill="green" stroke="black" stroke-width="0.5" />
<polygon points="0,440 0,455 110,455 110,440" transform="rotate(0 0 0)" fill="green" stroke="black" stroke-width="0.5" />
<polygon points="110,440 110,455 220,455 220,440" transform="rotate(0 0 0)" fill="green" stroke="black" stroke-width="0.5" />
<polygon points="220,440 220,455 330,455 330,440" transform="rotate(0 0 0)" fill="green" stroke="black" stroke-width="0.5" />
<polygon points="330,440 330,455 440,455 440,440" transform="rotate(0 0 0)" fill="green" stroke="black" stroke-width="0.5" />
<polygon points="440,440 440,455 550,455 550,440" transform="rotate(0 0 0)" fill="green" stroke="black" stroke-width="0.5" />
<polygon points="550,440 550,455 660,455 660,440" transform="rotate(0 0 0)" fill="green" stroke="black" stroke-width="0.5" />
<polygon points="0,455 0,470 110,470 110,455" transform="rotate(0 0 0)" fill="green" stroke="black" stroke-width="0.5" />
<polygon points="110,455 110,470 220,470 220,455" transform="rotate(0 0 0)" fill="green" stroke="black" stroke-width="0.5" />
<polygon points="220,455 220,470 330,470 330,455" transform="rotate(0 0 0)" fill="green" stroke="black" stroke-width="0.5" />
<polygon points="330,455 330,470 440,470 440,455" transform="rotate(0 0 0)" fill="green" stroke="black" stroke-width="0.5" />
<polygon points="440,455 440,470 550,470 550,455" transform="rotate(0 0 0)" fill="green" stroke="black" stroke-width="0.5" />
<polygon points="550,455 550,470 660,470 660,455" transform="rotate(0 0 0)" fill="green" stroke="black" stroke-width="0.5" />
<polygon points="0,470 0,485 110,485 110,470" transform="rotate(0 0 0)" fill="green" stroke="black" stroke-width="0.5" />
<polygon points="110,470 110,485 220,485 220,470" transform="rotate(0 0 0)" fill="green" stroke="black" stroke-width="0.5" />
<polygon points="220,470 220,485 330,485 330,470" transform="rotate(0 0 0)" fill="green" stroke="black" stroke-width="0.5" />
<polygon points="330,470 330,485 440,485 440,470" transform="rotate(0 0 0)" fill="green" stroke="black" stroke-width="0.5" />
<polygon points="440,470 440,485 550,485 550,470" transform="rotate(0 0 0)" fill="green" stroke="black" stroke-width="0.5" />
<polygon points="550,470 550,485 660,485 660,470" transform="rotate(0 0 0)" fill="green" stroke="black" stroke-width="0.5" />
</svg>
