<svg version="1.1" baseProfile="full" xmlns="http://www.w3.org/2000/svg">
<polygon points="260,10 10,443.013 510,443.013" transform="rotate(0 0 0)" fill="dimgrey" stroke="black" stroke-width="0.5" />
<polygon points="290,70 289.941,68.1163 289.763,66.24 289.469,64.3786 289.057,62.5393 288.532,60.7295 287.893,58.9563 287.145,57.2266 286.289,55.5474 285.33,53.9252 284.271,52.3664 283.115,50.8773 281.869,49.4636 280.536,48.1309 279.123,46.8846 277.634,45.7295 276.075,44.6702 274.453,43.7108 272.773,42.8552 271.044,42.1067 269.271,41.4683 267.461,40.9425 265.621,40.5314 263.76,40.2366 261.884,40.0592 260,40 258.116,40.0592 256.24,40.2366 254.379,40.5314 252.539,40.9425 250.729,41.4683 248.956,42.1067 247.227,42.8552 245.547,43.7108 243.925,44.6702 242.366,45.7295 240.877,46.8846 239.464,48.1309 238.131,49.4636 236.885,50.8773 235.729,52.3664 234.67,53.9252 233.711,55.5474 232.855,57.2266 232.107,58.9563 231.468,60.7295 230.943,62.5393 230.531,64.3786 230.237,66.24 230.059,68.1163 230,70 230.059,71.8837 230.237,73.76 230.531,75.6214 230.943,77.4607 231.468,79.2705 232.107,81.0437 232.855,82.7734 233.711,84.4526 234.67,86.0748 235.729,87.6336 236.885,89.1227 238.131,90.5364 239.464,91.8691 240.877,93.1154 242.366,94.2705 243.925,95.3298 245.547,96.2892 247.227,97.1448 248.956,97.8933 250.729,98.5317 252.539,99.0575 254.379,99.4686 256.24,99.7634 258.116,99.9408 260,100 261.884,99.9408 263.76,99.7634 265.621,99.4686 267.461,99.0575 269.271,98.5317 271.044,97.8933 272.773,97.1448 274.453,96.2892 276.075,95.3298 277.634,94.2705 279.123,93.1154 280.536,91.8691 281.869,90.5364 283.115,89.1227 284.271,87.6336 285.33,86.0748 286.289,84.4526 287.145,82.7734 287.893,81.0437 288.532,79.2705 289.057,77.4607 289.469,75.6214 289.763,73.76 289.941,71.8837" transform="rotate(0 0 0)" fill="cyan" stroke="black" stroke-width="0.5" />
<polygon points="260,121.962 259.941,120.078 259.763,118.202 259.469,116.34 259.057,114.501 258.532,112.691 257.893,110.918 257.145,109.188 256.289,107.509 255.33,105.887 254.271,104.328 253.115,102.839 251.869,101.425 250.536,100.092 249.123,98.8461 247.634,97.691 246.075,96.6317 244.453,95.6723 242.773,94.8167 241.044,94.0682 239.271,93.4298 237.461,92.904 235.621,92.4929 233.76,92.1981 231.884,92.0207 230,91.9615 228.116,92.0207 226.24,92.1981 224.379,92.4929 222.539,92.904 220.729,93.4298 218.956,94.0682 217.227,94.8167 215.547,95.6723 213.925,96.6317 212.366,97.691 210.877,98.8461 209.464,100.092 208.131,101.425 206.885,102.839 205.729,104.328 204.67,105.887 203.711,107.509 202.855,109.188 202.107,110.918 201.468,112.691 200.943,114.501 200.531,116.34 200.237,118.202 200.059,120.078 200,121.962 200.059,123.845 200.237,125.722 200.531,127.583 200.943,129.422 201.468,131.232 202.107,133.005 202.855,134.735 203.711,136.414 204.67,138.036 205.729,139.595 206.885,141.084 208.131,142.498 209.464,143.831 210.877,145.077 212.366,146.232 213.925,147.291 215.547,148.251 217.227,149.106 218.956,149.855 220.729,150.493 222.539,151.019 224.379,151.43 226.24,151.725 228.116,151.902 230,151.962 231.884,151.902 233.76,151.725 235.621,151.43 237.461,151.019 239.271,150.493 241.044,149.855 242.773,149.106 244.453,148.251 246.075,147.291 247.634,146.232 249.123,145.077 250.536,143.831 251.869,142.498 253.115,141.084 254.271,139.595 255.33,138.036 256.289,136.414 257.145,134.735 257.893,133.005 258.532,131.232 259.057,129.422 259.469,127.583 259.763,125.722 259.941,123.845" transform="rotate(0 0 0)" fill="cyan" stroke="black" stroke-width="0.5" />
<polygon points="320,121.962 319.941,120.078 319.763,118.202 319.469,116.34 319.057,114.501 318.532,112.691 317.893,110.918 317.145,109.188 316.289,107.509 315.33,105.887 314.271,104.328 313.115,102.839 311.869,101.425 310.536,100.092 309.123,98.8461 307.634,97.691 306.075,96.6317 304.453,95.6723 302.773,94.8167 301.044,94.0682 299.271,93.4298 297.461,92.904 295.621,92.4929 293.76,92.1981 291.884,92.0207 290,91.9615 288.116,92.0207 286.24,92.1981 284.379,92.4929 282.539,92.904 280.729,93.4298 278.956,94.0682 277.227,94.8167 275.547,95.6723 273.925,96.6317 272.366,97.691 270.877,98.8461 269.464,100.092 268.131,101.425 266.885,102.839 265.729,104.328 264.67,105.887 263.711,107.509 262.855,109.188 262.107,110.918 261.468,112.691 260.943,114.501 260.531,116.34 260.237,118.202 260.059,120.078 260,121.962 260.059,123.845 260.237,125.722 260.531,127.583 260.943,129.422 261.468,131.232 262.107,133.005 262.855,134.735 263.711,136.414 264.67,138.036 265.729,139.595 266.885,141.084 268.131,142.498 269.464,143.831 270.877,145.077 272.366,146.232 273.925,147.291 275.547,148.251 277.227,149.106 278.956,149.855 280.729,150.493 282.539,151.019 284.379,151.43 286.24,151.725 288.116,151.902 290,151.962 291.884,151.902 293.76,151.725 295.621,151.43 297.461,151.019 299.271,150.493 301.044,149.855 302.773,149.106 304.453,148.251 306.075,147.291 307.634,146.232 309.123,145.077 310.536,143.831 311.869,142.498 313.115,141.084 314.271,139.595 315.33,138.036 316.289,136.414 317.145,134.735 317.893,133.005 318.532,131.232 319.057,129.422 319.469,127.583 319.763,125.722 319.941,123.845" transform="rotate(0 0 0)" fill="cyan" stroke="black" stroke-width="0.5" />
<polygon points="290,173.923 289.941,172.039 289.763,170.163 289.469,168.302 289.057,166.462 288.532,164.653 287.893,162.879 287.145,161.15 286.289,159.47 285.33,157.848 284.271,156.289 283.115,154.8 281.869,153.387 280.536,152.054 279.123,150.808 277.634,149.653 276.075,148.593 274.453,147.634 272.773,146.778 271.044,146.03 269.271,145.391 267.461,144.866 265.621,144.454 263.76,144.16 261.884,143.982 260,143.923 258.116,143.982 256.24,144.16 254.379,144.454 252.539,144.866 250.729,145.391 248.956,146.03 247.227,146.778 245.547,147.634 243.925,148.593 242.366,149.653 240.877,150.808 239.464,152.054 238.131,153.387 236.885,154.8 235.729,156.289 234.67,157.848 233.711,159.47 232.855,161.15 232.107,162.879 231.468,164.653 230.943,166.462 230.531,168.302 230.237,170.163 230.059,172.039 230,173.923 230.059,175.807 230.237,177.683 230.531,179.544 230.943,181.384 231.468,183.194 232.107,184.967 232.855,186.696 233.711,188.376 234.67,189.998 235.729,191.557 236.885,193.046 238.131,194.459 239.464,195.792 240.877,197.038 242.366,198.194 243.925,199.253 245.547,200.212 247.227,201.068 248.956,201.816 250.729,202.455 252.539,202.981 254.379,203.392 256.24,203.686 258.116,203.864 260,203.923 261.884,203.864 263.76,203.686 265.621,203.392 267.461,202.981 269.271,202.455 271.044,201.816 272.773,201.068 274.453,200.212 276.075,199.253 277.634,198.194 279.123,197.038 280.536,195.792 281.869,194.459 283.115,193.046 284.271,191.557 285.33,189.998 286.289,188.376 287.145,186.696 287.893,184.967 288.532,183.194 289.057,181.384 289.469,179.544 289.763,177.683 289.941,175.807" transform="rotate(0 0 0)" fill="cyan" stroke="black" stroke-width="0.5" />
<polygon points="230,173.923 229.941,172.039 229.763,170.163 229.469,168.302 229.057,166.462 228.532,164.653 227.893,162.879 227.145,161.15 226.289,159.47 225.33,157.848 224.271,156.289 223.115,154.8 221.869,153.387 220.536,152.054 219.123,150.808 217.634,149.653 216.075,148.593 214.453,147.634 212.773,146.778 211.044,146.03 209.271,145.391 207.461,144.866 205.621,144.454 203.76,144.16 201.884,143.982 200,143.923 198.116,143.982 196.24,144.16 194.379,144.454 192.539,144.866 190.729,145.391 188.956,146.03 187.227,146.778 185.547,147.634 183.925,148.593 182.366,149.653 180.877,150.808 179.464,152.054 178.131,153.387 176.885,154.8 175.729,156.289 174.67,157.848 173.711,159.47 172.855,161.15 172.107,162.879 171.468,164.653 170.943,166.462 170.531,168.302 170.237,170.163 170.059,172.039 170,173.923 170.059,175.807 170.237,177.683 170.531,179.544 170.943,181.384 171.468,183.194 172.107,184.967 172.855,186.696 173.711,188.376 174.67,189.998 175.729,191.557 176.885,193.046 178.131,194.459 179.464,195.792 180.877,197.038 182.366,198.194 183.925,199.253 185.547,200.212 187.227,201.068 188.956,201.816 190.729,202.455 192.539,202.981 194.379,203.392 196.24,203.686 198.116,203.864 200,203.923 201.884,203.864 203.76,203.686 205.621,203.392 207.461,202.981 209.271,202.455 211.044,201.816 212.773,201.068 214.453,200.212 216.075,199.253 217.634,198.194 219.123,197.038 220.536,195.792 221.869,194.459 223.115,193.046 224.271,191.557 225.33,189.998 226.289,188.376 227.145,186.696 227.893,184.967 228.532,183.194 229.057,181.384 229.469,179.544 229.763,177.683 229.941,175.807" transform="rotate(0 0 0)" fill="cyan" stroke="black" stroke-width="0.5" />
<polygon points="350,173.923 349.941,172.039 349.763,170.163 349.469,168.302 349.057,166.462 348.532,164.653 347.893,162.879 347.145,161.15 346.289,159.47 345.33,157.848 344.271,156.289 343.115,154.8 341.869,153.387 340.536,152.054 339.123,150.808 337.634,149.653 336.075,148.593 334.453,147.634 332.773,146.778 331.044,146.03 329.271,145.391 327.461,144.866 325.621,144.454 323.76,144.16 321.884,143.982 320,143.923 318.116,143.982 316.24,144.16 314.379,144.454 312.539,144.866 310.729,145.391 308.956,146.03 307.227,146.778 305.547,147.634 303.925,148.593 302.366,149.653 300.877,150.808 299.464,152.054 298.131,153.387 296.885,154.8 295.729,156.289 294.67,157.848 293.711,159.47 292.855,161.15 292.107,162.879 291.468,164.653 290.943,166.462 290.531,168.302 290.237,170.163 290.059,172.039 290,173.923 290.059,175.807 290.237,177.683 290.531,179.544 290.943,181.384 291.468,183.194 292.107,184.967 292.855,186.696 293.711,188.376 294.67,189.998 295.729,191.557 296.885,193.046 298.131,194.459 299.464,195.792 300.877,197.038 302.366,198.194 303.925,199.253 305.547,200.212 307.227,201.068 308.956,201.816 310.729,202.455 312.539,202.981 314.379,203.392 316.24,203.686 318.116,203.864 320,203.923 321.884,203.864 323.76,203.686 325.621,203.392 327.461,202.981 329.271,202.455 331.044,201.816 332.773,201.068 334.453,200.212 336.075,199.253 337.634,198.194 339.123,197.038 340.536,195.792 341.869,194.459 343.115,193.046 344.271,191.557 345.33,189.998 346.289,188.376 347.145,186.696 347.893,184.967 348.532,183.194 349.057,181.384 349.469,179.544 349.763,177.683 349.941,175.807" transform="rotate(0 0 0)" fill="cyan" stroke="black" stroke-width="0.5" />
<polygon points="260,225.885 259.941,224.001 259.763,222.125 259.469,220.263 259.057,218.424 258.532,216.614 257.893,214.841 257.145,213.111 256.289,211.432 255.33,209.81 254.271,208.251 253.115,206.762 251.869,205.348 250.536,204.016 249.123,202.769 247.634,201.614 246.075,200.555 244.453,199.595 242.773,198.74 241.044,197.991 239.271,197.353 237.461,196.827 235.621,196.416 233.76,196.121 231.884,195.944 230,195.885 228.116,195.944 226.24,196.121 224.379,196.416 222.539,196.827 220.729,197.353 218.956,197.991 217.227,198.74 215.547,199.595 213.925,200.555 212.366,201.614 210.877,202.769 209.464,204.016 208.131,205.348 206.885,206.762 205.729,208.251 204.67,209.81 203.711,211.432 202.855,213.111 202.107,214.841 201.468,216.614 200.943,218.424 200.531,220.263 200.237,222.125 200.059,224.001 200,225.885 200.059,227.768 200.237,229.645 200.531,231.506 200.943,233.345 201.468,235.155 202.107,236.928 202.855,238.658 203.711,240.337 204.67,241.959 205.729,243.518 206.885,245.007 208.131,246.421 209.464,247.754 210.877,249 212.366,250.155 213.925,251.214 215.547,252.174 217.227,253.029 218.956,253.778 220.729,254.416 222.539,254.942 224.379,255.353 226.24,255.648 228.116,255.825 230,255.885 231.884,255.825 233.76,255.648 235.621,255.353 237.461,254.942 239.271,254.416 241.044,253.778 242.773,253.029 244.453,252.174 246.075,251.214 247.634,250.155 249.123,249 250.536,247.754 251.869,246.421 253.115,245.007 254.271,243.518 255.33,241.959 256.289,240.337 257.145,238.658 257.893,236.928 258.532,235.155 259.057,233.345 259.469,231.506 259.763,229.645 259.941,227.768" transform="rotate(0 0 0)" fill="cyan" stroke="black" stroke-width="0.5" />
<polygon points="320,225.885 319.941,224.001 319.763,222.125 319.469,220.263 319.057,218.424 318.532,216.614 317.893,214.841 317.145,213.111 316.289,211.432 315.33,209.81 314.271,208.251 313.115,206.762 311.869,205.348 310.536,204.016 309.123,202.769 307.634,201.614 306.075,200.555 304.453,199.595 302.773,198.74 301.044,197.991 299.271,197.353 297.461,196.827 295.621,196.416 293.76,196.121 291.884,195.944 290,195.885 288.116,195.944 286.24,196.121 284.379,196.416 282.539,196.827 280.729,197.353 278.956,197.991 277.227,198.74 275.547,199.595 273.925,200.555 272.366,201.614 270.877,202.769 269.464,204.016 268.131,205.348 266.885,206.762 265.729,208.251 264.67,209.81 263.711,211.432 262.855,213.111 262.107,214.841 261.468,216.614 260.943,218.424 260.531,220.263 260.237,222.125 260.059,224.001 260,225.885 260.059,227.768 260.237,229.645 260.531,231.506 260.943,233.345 261.468,235.155 262.107,236.928 262.855,238.658 263.711,240.337 264.67,241.959 265.729,243.518 266.885,245.007 268.131,246.421 269.464,247.754 270.877,249 272.366,250.155 273.925,251.214 275.547,252.174 277.227,253.029 278.956,253.778 280.729,254.416 282.539,254.942 284.379,255.353 286.24,255.648 288.116,255.825 290,255.885 291.884,255.825 293.76,255.648 295.621,255.353 297.461,254.942 299.271,254.416 301.044,253.778 302.773,253.029 304.453,252.174 306.075,251.214 307.634,250.155 309.123,249 310.536,247.754 311.869,246.421 313.115,245.007 314.271,243.518 315.33,241.959 316.289,240.337 317.145,238.658 317.893,236.928 318.532,235.155 319.057,233.345 319.469,231.506 319.763,229.645 319.941,227.768" transform="rotate(0 0 0)" fill="cyan" stroke="black" stroke-width="0.5" />
<polygon points="200,225.885 199.941,224.001 199.763,222.125 199.469,220.263 199.057,218.424 198.532,216.614 197.893,214.841 197.145,213.111 196.289,211.432 195.33,209.81 194.271,208.251 193.115,206.762 191.869,205.348 190.536,204.016 189.123,202.769 187.634,201.614 186.075,200.555 184.453,199.595 182.773,198.74 181.044,197.991 179.271,197.353 177.461,196.827 175.621,196.416 173.76,196.121 171.884,195.944 170,195.885 168.116,195.944 166.24,196.121 164.379,196.416 162.539,196.827 160.729,197.353 158.956,197.991 157.227,198.74 155.547,199.595 153.925,200.555 152.366,201.614 150.877,202.769 149.464,204.016 148.131,205.348 146.885,206.762 145.729,208.251 144.67,209.81 143.711,211.432 142.855,213.111 142.107,214.841 141.468,216.614 140.943,218.424 140.531,220.263 140.237,222.125 140.059,224.001 140,225.885 140.059,227.768 140.237,229.645 140.531,231.506 140.943,233.345 141.468,235.155 142.107,236.928 142.855,238.658 143.711,240.337 144.67,241.959 145.729,243.518 146.885,245.007 148.131,246.421 149.464,247.754 150.877,249 152.366,250.155 153.925,251.214 155.547,252.174 157.227,253.029 158.956,253.778 160.729,254.416 162.539,254.942 164.379,255.353 166.24,255.648 168.116,255.825 170,255.885 171.884,255.825 173.76,255.648 175.621,255.353 177.461,254.942 179.271,254.416 181.044,253.778 182.773,253.029 184.453,252.174 186.075,251.214 187.634,250.155 189.123,249 190.536,247.754 191.869,246.421 193.115,245.007 194.271,243.518 195.33,241.959 196.289,240.337 197.145,238.658 197.893,236.928 198.532,235.155 199.057,233.345 199.469,231.506 199.763,229.645 199.941,227.768" transform="rotate(0 0 0)" fill="cyan" stroke="black" stroke-width="0.5" />
<polygon points="380,225.885 379.941,224.001 379.763,222.125 379.469,220.263 379.057,218.424 378.532,216.614 377.893,214.841 377.145,213.111 376.289,211.432 375.33,209.81 374.271,208.251 373.115,206.762 371.869,205.348 370.536,204.016 369.123,202.769 367.634,201.614 366.075,200.555 364.453,199.595 362.773,198.74 361.044,197.991 359.271,197.353 357.461,196.827 355.621,196.416 353.76,196.121 351.884,195.944 350,195.885 348.116,195.944 346.24,196.121 344.379,196.416 342.539,196.827 340.729,197.353 338.956,197.991 337.227,198.74 335.547,199.595 333.925,200.555 332.366,201.614 330.877,202.769 329.464,204.016 328.131,205.348 326.885,206.762 325.729,208.251 324.67,209.81 323.711,211.432 322.855,213.111 322.107,214.841 321.468,216.614 320.943,218.424 320.531,220.263 320.237,222.125 320.059,224.001 320,225.885 320.059,227.768 320.237,229.645 320.531,231.506 320.943,233.345 321.468,235.155 322.107,236.928 322.855,238.658 323.711,240.337 324.67,241.959 325.729,243.518 326.885,245.007 328.131,246.421 329.464,247.754 330.877,249 332.366,250.155 333.925,251.214 335.547,252.174 337.227,253.029 338.956,253.778 340.729,254.416 342.539,254.942 344.379,255.353 346.24,255.648 348.116,255.825 350,255.885 351.884,255.825 353.76,255.648 355.621,255.353 357.461,254.942 359.271,254.416 361.044,253.778 362.773,253.029 364.453,252.174 366.075,251.214 367.634,250.155 369.123,249 370.536,247.754 371.869,246.421 373.115,245.007 374.271,243.518 375.33,241.959 376.289,240.337 377.145,238.658 377.893,236.928 378.532,235.155 379.057,233.345 379.469,231.506 379.763,229.645 379.941,227.768" transform="rotate(0 0 0)" fill="cyan" stroke="black" stroke-width="0.5" />
<polygon points="290,277.846 289.941,275.962 289.763,274.086 289.469,272.225 289.057,270.385 288.532,268.576 287.893,266.802 287.145,265.073 286.289,263.393 285.33,261.771 284.271,260.213 283.115,258.723 281.869,257.31 280.536,255.977 279.123,254.731 277.634,253.576 276.075,252.516 274.453,251.557 272.773,250.701 271.044,249.953 269.271,249.314 267.461,248.789 265.621,248.377 263.76,248.083 261.884,247.905 260,247.846 258.116,247.905 256.24,248.083 254.379,248.377 252.539,248.789 250.729,249.314 248.956,249.953 247.227,250.701 245.547,251.557 243.925,252.516 242.366,253.576 240.877,254.731 239.464,255.977 238.131,257.31 236.885,258.723 235.729,260.213 234.67,261.771 233.711,263.393 232.855,265.073 232.107,266.802 231.468,268.576 230.943,270.385 230.531,272.225 230.237,274.086 230.059,275.962 230,277.846 230.059,279.73 230.237,281.606 230.531,283.468 230.943,285.307 231.468,287.117 232.107,288.89 232.855,290.619 233.711,292.299 234.67,293.921 235.729,295.48 236.885,296.969 238.131,298.383 239.464,299.715 240.877,300.961 242.366,302.117 243.925,303.176 245.547,304.135 247.227,304.991 248.956,305.739 250.729,306.378 252.539,306.904 254.379,307.315 256.24,307.61 258.116,307.787 260,307.846 261.884,307.787 263.76,307.61 265.621,307.315 267.461,306.904 269.271,306.378 271.044,305.739 272.773,304.991 274.453,304.135 276.075,303.176 277.634,302.117 279.123,300.961 280.536,299.715 281.869,298.383 283.115,296.969 284.271,295.48 285.33,293.921 286.289,292.299 287.145,290.619 287.893,288.89 288.532,287.117 289.057,285.307 289.469,283.468 289.763,281.606 289.941,279.73" transform="rotate(0 0 0)" fill="cyan" stroke="black" stroke-width="0.5" />
<polygon points="230,277.846 229.941,275.962 229.763,274.086 229.469,272.225 229.057,270.385 228.532,268.576 227.893,266.802 227.145,265.073 226.289,263.393 225.33,261.771 224.271,260.213 223.115,258.723 221.869,257.31 220.536,255.977 219.123,254.731 217.634,253.576 216.075,252.516 214.453,251.557 212.773,250.701 211.044,249.953 209.271,249.314 207.461,248.789 205.621,248.377 203.76,248.083 201.884,247.905 200,247.846 198.116,247.905 196.24,248.083 194.379,248.377 192.539,248.789 190.729,249.314 188.956,249.953 187.227,250.701 185.547,251.557 183.925,252.516 182.366,253.576 180.877,254.731 179.464,255.977 178.131,257.31 176.885,258.723 175.729,260.213 174.67,261.771 173.711,263.393 172.855,265.073 172.107,266.802 171.468,268.576 170.943,270.385 170.531,272.225 170.237,274.086 170.059,275.962 170,277.846 170.059,279.73 170.237,281.606 170.531,283.468 170.943,285.307 171.468,287.117 172.107,288.89 172.855,290.619 173.711,292.299 174.67,293.921 175.729,295.48 176.885,296.969 178.131,298.383 179.464,299.715 180.877,300.961 182.366,302.117 183.925,303.176 185.547,304.135 187.227,304.991 188.956,305.739 190.729,306.378 192.539,306.904 194.379,307.315 196.24,307.61 198.116,307.787 200,307.846 201.884,307.787 203.76,307.61 205.621,307.315 207.461,306.904 209.271,306.378 211.044,305.739 212.773,304.991 214.453,304.135 216.075,303.176 217.634,302.117 219.123,300.961 220.536,299.715 221.869,298.383 223.115,296.969 224.271,295.48 225.33,293.921 226.289,292.299 227.145,290.619 227.893,288.89 228.532,287.117 229.057,285.307 229.469,283.468 229.763,281.606 229.941,279.73" transform="rotate(0 0 0)" fill="cyan" stroke="black" stroke-width="0.5" />
<polygon points="170,277.846 169.941,275.962 169.763,274.086 169.469,272.225 169.057,270.385 168.532,268.576 167.893,266.802 167.145,265.073 166.289,263.393 165.33,261.771 164.271,260.213 163.115,258.723 161.869,257.31 160.536,255.977 159.123,254.731 157.634,253.576 156.075,252.516 154.453,251.557 152.773,250.701 151.044,249.953 149.271,249.314 147.461,248.789 145.621,248.377 143.76,248.083 141.884,247.905 140,247.846 138.116,247.905 136.24,248.083 134.379,248.377 132.539,248.789 130.729,249.314 128.956,249.953 127.227,250.701 125.547,251.557 123.925,252.516 122.366,253.576 120.877,254.731 119.464,255.977 118.131,257.31 116.885,258.723 115.729,260.213 114.67,261.771 113.711,263.393 112.855,265.073 112.107,266.802 111.468,268.576 110.943,270.385 110.531,272.225 110.237,274.086 110.059,275.962 110,277.846 110.059,279.73 110.237,281.606 110.531,283.468 110.943,285.307 111.468,287.117 112.107,288.89 112.855,290.619 113.711,292.299 114.67,293.921 115.729,295.48 116.885,296.969 118.131,298.383 119.464,299.715 120.877,300.961 122.366,302.117 123.925,303.176 125.547,304.135 127.227,304.991 128.956,305.739 130.729,306.378 132.539,306.904 134.379,307.315 136.24,307.61 138.116,307.787 140,307.846 141.884,307.787 143.76,307.61 145.621,307.315 147.461,306.904 149.271,306.378 151.044,305.739 152.773,304.991 154.453,304.135 156.075,303.176 157.634,302.117 159.123,300.961 160.536,299.715 161.869,298.383 163.115,296.969 164.271,295.48 165.33,293.921 166.289,292.299 167.145,290.619 167.893,288.89 168.532,287.117 169.057,285.307 169.469,283.468 169.763,281.606 169.941,279.73" transform="rotate(0 0 0)" fill="cyan" stroke="black" stroke-width="0.5" />
<polygon points="350,277.846 349.941,275.962 349.763,274.086 349.469,272.225 349.057,270.385 348.532,268.576 347.893,266.802 347.145,265.073 346.289,263.393 345.33,261.771 344.271,260.213 343.115,258.723 341.869,257.31 340.536,255.977 339.123,254.731 337.634,253.576 336.075,252.516 334.453,251.557 332.773,250.701 331.044,249.953 329.271,249.314 327.461,248.789 325.621,248.377 323.76,248.083 321.884,247.905 320,247.846 318.116,247.905 316.24,248.083 314.379,248.377 312.539,248.789 310.729,249.314 308.956,249.953 307.227,250.701 305.547,251.557 303.925,252.516 302.366,253.576 300.877,254.731 299.464,255.977 298.131,257.31 296.885,258.723 295.729,260.213 294.67,261.771 293.711,263.393 292.855,265.073 292.107,266.802 291.468,268.576 290.943,270.385 290.531,272.225 290.237,274.086 290.059,275.962 290,277.846 290.059,279.73 290.237,281.606 290.531,283.468 290.943,285.307 291.468,287.117 292.107,288.89 292.855,290.619 293.711,292.299 294.67,293.921 295.729,295.48 296.885,296.969 298.131,298.383 299.464,299.715 300.877,300.961 302.366,302.117 303.925,303.176 305.547,304.135 307.227,304.991 308.956,305.739 310.729,306.378 312.539,306.904 314.379,307.315 316.24,307.61 318.116,307.787 320,307.846 321.884,307.787 323.76,307.61 325.621,307.315 327.461,306.904 329.271,306.378 331.044,305.739 332.773,304.991 334.453,304.135 336.075,303.176 337.634,302.117 339.123,300.961 340.536,299.715 341.869,298.383 343.115,296.969 344.271,295.48 345.33,293.921 346.289,292.299 347.145,290.619 347.893,288.89 348.532,287.117 349.057,285.307 349.469,283.468 349.763,281.606 349.941,279.73" transform="rotate(0 0 0)" fill="cyan" stroke="black" stroke-width="0.5" />
<polygon points="410,277.846 409.941,275.962 409.763,274.086 409.469,272.225 409.057,270.385 408.532,268.576 407.893,266.802 407.145,265.073 406.289,263.393 405.33,261.771 404.271,260.213 403.115,258.723 401.869,257.31 400.536,255.977 399.123,254.731 397.634,253.576 396.075,252.516 394.453,251.557 392.773,250.701 391.044,249.953 389.271,249.314 387.461,248.789 385.621,248.377 383.76,248.083 381.884,247.905 380,247.846 378.116,247.905 376.24,248.083 374.379,248.377 372.539,248.789 370.729,249.314 368.956,249.953 367.227,250.701 365.547,251.557 363.925,252.516 362.366,253.576 360.877,254.731 359.464,255.977 358.131,257.31 356.885,258.723 355.729,260.213 354.67,261.771 353.711,263.393 352.855,265.073 352.107,266.802 351.468,268.576 350.943,270.385 350.531,272.225 350.237,274.086 350.059,275.962 350,277.846 350.059,279.73 350.237,281.606 350.531,283.468 350.943,285.307 351.468,287.117 352.107,288.89 352.855,290.619 353.711,292.299 354.67,293.921 355.729,295.48 356.885,296.969 358.131,298.383 359.464,299.715 360.877,300.961 362.366,302.117 363.925,303.176 365.547,304.135 367.227,304.991 368.956,305.739 370.729,306.378 372.539,306.904 374.379,307.315 376.24,307.61 378.116,307.787 380,307.846 381.884,307.787 383.76,307.61 385.621,307.315 387.461,306.904 389.271,306.378 391.044,305.739 392.773,304.991 394.453,304.135 396.075,303.176 397.634,302.117 399.123,300.961 400.536,299.715 401.869,298.383 403.115,296.969 404.271,295.48 405.33,293.921 406.289,292.299 407.145,290.619 407.893,288.89 408.532,287.117 409.057,285.307 409.469,283.468 409.763,281.606 409.941,279.73" transform="rotate(0 0 0)" fill="cyan" stroke="black" stroke-width="0.5" />
<polygon points="260,329.808 259.941,327.924 259.763,326.048 259.469,324.186 259.057,322.347 258.532,320.537 257.893,318.764 257.145,317.034 256.289,315.355 255.33,313.733 254.271,312.174 253.115,310.685 251.869,309.271 250.536,307.939 249.123,306.692 247.634,305.537 246.075,304.478 244.453,303.518 242.773,302.663 241.044,301.914 239.271,301.276 237.461,300.75 235.621,300.339 233.76,300.044 231.884,299.867 230,299.808 228.116,299.867 226.24,300.044 224.379,300.339 222.539,300.75 220.729,301.276 218.956,301.914 217.227,302.663 215.547,303.518 213.925,304.478 212.366,305.537 210.877,306.692 209.464,307.939 208.131,309.271 206.885,310.685 205.729,312.174 204.67,313.733 203.711,315.355 202.855,317.034 202.107,318.764 201.468,320.537 200.943,322.347 200.531,324.186 200.237,326.048 200.059,327.924 200,329.808 200.059,331.691 200.237,333.568 200.531,335.429 200.943,337.268 201.468,339.078 202.107,340.851 202.855,342.581 203.711,344.26 204.67,345.882 205.729,347.441 206.885,348.93 208.131,350.344 209.464,351.677 210.877,352.923 212.366,354.078 213.925,355.137 215.547,356.097 217.227,356.952 218.956,357.701 220.729,358.339 222.539,358.865 224.379,359.276 226.24,359.571 228.116,359.748 230,359.808 231.884,359.748 233.76,359.571 235.621,359.276 237.461,358.865 239.271,358.339 241.044,357.701 242.773,356.952 244.453,356.097 246.075,355.137 247.634,354.078 249.123,352.923 250.536,351.677 251.869,350.344 253.115,348.93 254.271,347.441 255.33,345.882 256.289,344.26 257.145,342.581 257.893,340.851 258.532,339.078 259.057,337.268 259.469,335.429 259.763,333.568 259.941,331.691" transform="rotate(0 0 0)" fill="cyan" stroke="black" stroke-width="0.5" />
<polygon points="320,329.808 319.941,327.924 319.763,326.048 319.469,324.186 319.057,322.347 318.532,320.537 317.893,318.764 317.145,317.034 316.289,315.355 315.33,313.733 314.271,312.174 313.115,310.685 311.869,309.271 310.536,307.939 309.123,306.692 307.634,305.537 306.075,304.478 304.453,303.518 302.773,302.663 301.044,301.914 299.271,301.276 297.461,300.75 295.621,300.339 293.76,300.044 291.884,299.867 290,299.808 288.116,299.867 286.24,300.044 284.379,300.339 282.539,300.75 280.729,301.276 278.956,301.914 277.227,302.663 275.547,303.518 273.925,304.478 272.366,305.537 270.877,306.692 269.464,307.939 268.131,309.271 266.885,310.685 265.729,312.174 264.67,313.733 263.711,315.355 262.855,317.034 262.107,318.764 261.468,320.537 260.943,322.347 260.531,324.186 260.237,326.048 260.059,327.924 260,329.808 260.059,331.691 260.237,333.568 260.531,335.429 260.943,337.268 261.468,339.078 262.107,340.851 262.855,342.581 263.711,344.26 264.67,345.882 265.729,347.441 266.885,348.93 268.131,350.344 269.464,351.677 270.877,352.923 272.366,354.078 273.925,355.137 275.547,356.097 277.227,356.952 278.956,357.701 280.729,358.339 282.539,358.865 284.379,359.276 286.24,359.571 288.116,359.748 290,359.808 291.884,359.748 293.76,359.571 295.621,359.276 297.461,358.865 299.271,358.339 301.044,357.701 302.773,356.952 304.453,356.097 306.075,355.137 307.634,354.078 309.123,352.923 310.536,351.677 311.869,350.344 313.115,348.93 314.271,347.441 315.33,345.882 316.289,344.26 317.145,342.581 317.893,340.851 318.532,339.078 319.057,337.268 319.469,335.429 319.763,333.568 319.941,331.691" transform="rotate(0 0 0)" fill="cyan" stroke="black" stroke-width="0.5" />
<polygon points="200,329.808 199.941,327.924 199.763,326.048 199.469,324.186 199.057,322.347 198.532,320.537 197.893,318.764 197.145,317.034 196.289,315.355 195.33,313.733 194.271,312.174 193.115,310.685 191.869,309.271 190.536,307.939 189.123,306.692 187.634,305.537 186.075,304.478 184.453,303.518 182.773,302.663 181.044,301.914 179.271,301.276 177.461,300.75 175.621,300.339 173.76,300.044 171.884,299.867 170,299.808 168.116,299.867 166.24,300.044 164.379,300.339 162.539,300.75 160.729,301.276 158.956,301.914 157.227,302.663 155.547,303.518 153.925,304.478 152.366,305.537 150.877,306.692 149.464,307.939 148.131,309.271 146.885,310.685 145.729,312.174 144.67,313.733 143.711,315.355 142.855,317.034 142.107,318.764 141.468,320.537 140.943,322.347 140.531,324.186 140.237,326.048 140.059,327.924 140,329.808 140.059,331.691 140.237,333.568 140.531,335.429 140.943,337.268 141.468,339.078 142.107,340.851 142.855,342.581 143.711,344.26 144.67,345.882 145.729,347.441 146.885,348.93 148.131,350.344 149.464,351.677 150.877,352.923 152.366,354.078 153.925,355.137 155.547,356.097 157.227,356.952 158.956,357.701 160.729,358.339 162.539,358.865 164.379,359.276 166.24,359.571 168.116,359.748 170,359.808 171.884,359.748 173.76,359.571 175.621,359.276 177.461,358.865 179.271,358.339 181.044,357.701 182.773,356.952 184.453,356.097 186.075,355.137 187.634,354.078 189.123,352.923 190.536,351.677 191.869,350.344 193.115,348.93 194.271,347.441 195.33,345.882 196.289,344.26 197.145,342.581 197.893,340.851 198.532,339.078 199.057,337.268 199.469,335.429 199.763,333.568 199.941,331.691" transform="rotate(0 0 0)" fill="cyan" stroke="black" stroke-width="0.5" />
<polygon points="380,329.808 379.941,327.924 379.763,326.048 379.469,324.186 379.057,322.347 378.532,320.537 377.893,318.764 377.145,317.034 376.289,315.355 375.33,313.733 374.271,312.174 373.115,310.685 371.869,309.271 370.536,307.939 369.123,306.692 367.634,305.537 366.075,304.478 364.453,303.518 362.773,302.663 361.044,301.914 359.271,301.276 357.461,300.75 355.621,300.339 353.76,300.044 351.884,299.867 350,299.808 348.116,299.867 346.24,300.044 344.379,300.339 342.539,300.75 340.729,301.276 338.956,301.914 337.227,302.663 335.547,303.518 333.925,304.478 332.366,305.537 330.877,306.692 329.464,307.939 328.131,309.271 326.885,310.685 325.729,312.174 324.67,313.733 323.711,315.355 322.855,317.034 322.107,318.764 321.468,320.537 320.943,322.347 320.531,324.186 320.237,326.048 320.059,327.924 320,329.808 320.059,331.691 320.237,333.568 320.531,335.429 320.943,337.268 321.468,339.078 322.107,340.851 322.855,342.581 323.711,344.26 324.67,345.882 325.729,347.441 326.885,348.93 328.131,350.344 329.464,351.677 330.877,352.923 332.366,354.078 333.925,355.137 335.547,356.097 337.227,356.952 338.956,357.701 340.729,358.339 342.539,358.865 344.379,359.276 346.24,359.571 348.116,359.748 350,359.808 351.884,359.748 353.76,359.571 355.621,359.276 357.461,358.865 359.271,358.339 361.044,357.701 362.773,356.952 364.453,356.097 366.075,355.137 367.634,354.078 369.123,352.923 370.536,351.677 371.869,350.344 373.115,348.93 374.271,347.441 375.33,345.882 376.289,344.26 377.145,342.581 377.893,340.851 378.532,339.078 379.057,337.268 379.469,335.429 379.763,333.568 379.941,331.691" transform="rotate(0 0 0)" fill="cyan" stroke="black" stroke-width="0.5" />
<polygon points="140,329.808 139.941,327.924 139.763,326.048 139.469,324.186 139.057,322.347 138.532,320.537 137.893,318.764 137.145,317.034 136.289,315.355 135.33,313.733 134.271,312.174 133.115,310.685 131.869,309.271 130.536,307.939 129.123,306.692 127.634,305.537 126.075,304.478 124.453,303.518 122.773,302.663 121.044,301.914 119.271,301.276 117.461,300.75 115.621,300.339 113.76,300.044 111.884,299.867 110,299.808 108.116,299.867 106.24,300.044 104.379,300.339 102.539,300.75 100.729,301.276 98.9563,301.914 97.2266,302.663 95.5474,303.518 93.9252,304.478 92.3664,305.537 90.8773,306.692 89.4636,307.939 88.1309,309.271 86.8846,310.685 85.7295,312.174 84.6702,313.733 83.7108,315.355 82.8552,317.034 82.1067,318.764 81.4683,320.537 80.9425,322.347 80.5314,324.186 80.2366,326.048 80.0592,327.924 80,329.808 80.0592,331.691 80.2366,333.568 80.5314,335.429 80.9425,337.268 81.4683,339.078 82.1067,340.851 82.8552,342.581 83.7108,344.26 84.6702,345.882 85.7295,347.441 86.8846,348.93 88.1309,350.344 89.4636,351.677 90.8773,352.923 92.3664,354.078 93.9252,355.137 95.5474,356.097 97.2266,356.952 98.9563,357.701 100.729,358.339 102.539,358.865 104.379,359.276 106.24,359.571 108.116,359.748 110,359.808 111.884,359.748 113.76,359.571 115.621,359.276 117.461,358.865 119.271,358.339 121.044,357.701 122.773,356.952 124.453,356.097 126.075,355.137 127.634,354.078 129.123,352.923 130.536,351.677 131.869,350.344 133.115,348.93 134.271,347.441 135.33,345.882 136.289,344.26 137.145,342.581 137.893,340.851 138.532,339.078 139.057,337.268 139.469,335.429 139.763,333.568 139.941,331.691" transform="rotate(0 0 0)" fill="cyan" stroke="black" stroke-width="0.5" />
<polygon points="440,329.808 439.941,327.924 439.763,326.048 439.469,324.186 439.057,322.347 438.532,320.537 437.893,318.764 437.145,317.034 436.289,315.355 435.33,313.733 434.271,312.174 433.115,310.685 431.869,309.271 430.536,307.939 429.123,306.692 427.634,305.537 426.075,304.478 424.453,303.518 422.773,302.663 421.044,301.914 419.271,301.276 417.461,300.75 415.621,300.339 413.76,300.044 411.884,299.867 410,299.808 408.116,299.867 406.24,300.044 404.379,300.339 402.539,300.75 400.729,301.276 398.956,301.914 397.227,302.663 395.547,303.518 393.925,304.478 392.366,305.537 390.877,306.692 389.464,307.939 388.131,309.271 386.885,310.685 385.729,312.174 384.67,313.733 383.711,315.355 382.855,317.034 382.107,318.764 381.468,320.537 380.943,322.347 380.531,324.186 380.237,326.048 380.059,327.924 380,329.808 380.059,331.691 380.237,333.568 380.531,335.429 380.943,337.268 381.468,339.078 382.107,340.851 382.855,342.581 383.711,344.26 384.67,345.882 385.729,347.441 386.885,348.93 388.131,350.344 389.464,351.677 390.877,352.923 392.366,354.078 393.925,355.137 395.547,356.097 397.227,356.952 398.956,357.701 400.729,358.339 402.539,358.865 404.379,359.276 406.24,359.571 408.116,359.748 410,359.808 411.884,359.748 413.76,359.571 415.621,359.276 417.461,358.865 419.271,358.339 421.044,357.701 422.773,356.952 424.453,356.097 426.075,355.137 427.634,354.078 429.123,352.923 430.536,351.677 431.869,350.344 433.115,348.93 434.271,347.441 435.33,345.882 436.289,344.26 437.145,342.581 437.893,340.851 438.532,339.078 439.057,337.268 439.469,335.429 439.763,333.568 439.941,331.691" transform="rotate(0 0 0)" fill="cyan" stroke="black" stroke-width="0.5" />
<polygon points="290,381.769 289.941,379.885 289.763,378.009 289.469,376.148 289.057,374.308 288.532,372.499 287.893,370.725 287.145,368.996 286.289,367.317 285.33,365.694 284.271,364.136 283.115,362.646 281.869,361.233 280.536,359.9 279.123,358.654 277.634,357.499 276.075,356.439 274.453,355.48 272.773,354.624 271.044,353.876 269.271,353.237 267.461,352.712 265.621,352.301 263.76,352.006 261.884,351.828 260,351.769 258.116,351.828 256.24,352.006 254.379,352.301 252.539,352.712 250.729,353.237 248.956,353.876 247.227,354.624 245.547,355.48 243.925,356.439 242.366,357.499 240.877,358.654 239.464,359.9 238.131,361.233 236.885,362.646 235.729,364.136 234.67,365.694 233.711,367.317 232.855,368.996 232.107,370.725 231.468,372.499 230.943,374.308 230.531,376.148 230.237,378.009 230.059,379.885 230,381.769 230.059,383.653 230.237,385.529 230.531,387.391 230.943,389.23 231.468,391.04 232.107,392.813 232.855,394.543 233.711,396.222 234.67,397.844 235.729,399.403 236.885,400.892 238.131,402.306 239.464,403.638 240.877,404.885 242.366,406.04 243.925,407.099 245.547,408.058 247.227,408.914 248.956,409.662 250.729,410.301 252.539,410.827 254.379,411.238 256.24,411.533 258.116,411.71 260,411.769 261.884,411.71 263.76,411.533 265.621,411.238 267.461,410.827 269.271,410.301 271.044,409.662 272.773,408.914 274.453,408.058 276.075,407.099 277.634,406.04 279.123,404.885 280.536,403.638 281.869,402.306 283.115,400.892 284.271,399.403 285.33,397.844 286.289,396.222 287.145,394.543 287.893,392.813 288.532,391.04 289.057,389.23 289.469,387.391 289.763,385.529 289.941,383.653" transform="rotate(0 0 0)" fill="cyan" stroke="black" stroke-width="0.5" />
<polygon points="230,381.769 229.941,379.885 229.763,378.009 229.469,376.148 229.057,374.308 228.532,372.499 227.893,370.725 227.145,368.996 226.289,367.317 225.33,365.694 224.271,364.136 223.115,362.646 221.869,361.233 220.536,359.9 219.123,358.654 217.634,357.499 216.075,356.439 214.453,355.48 212.773,354.624 211.044,353.876 209.271,353.237 207.461,352.712 205.621,352.301 203.76,352.006 201.884,351.828 200,351.769 198.116,351.828 196.24,352.006 194.379,352.301 192.539,352.712 190.729,353.237 188.956,353.876 187.227,354.624 185.547,355.48 183.925,356.439 182.366,357.499 180.877,358.654 179.464,359.9 178.131,361.233 176.885,362.646 175.729,364.136 174.67,365.694 173.711,367.317 172.855,368.996 172.107,370.725 171.468,372.499 170.943,374.308 170.531,376.148 170.237,378.009 170.059,379.885 170,381.769 170.059,383.653 170.237,385.529 170.531,387.391 170.943,389.23 171.468,391.04 172.107,392.813 172.855,394.543 173.711,396.222 174.67,397.844 175.729,399.403 176.885,400.892 178.131,402.306 179.464,403.638 180.877,404.885 182.366,406.04 183.925,407.099 185.547,408.058 187.227,408.914 188.956,409.662 190.729,410.301 192.539,410.827 194.379,411.238 196.24,411.533 198.116,411.71 200,411.769 201.884,411.71 203.76,411.533 205.621,411.238 207.461,410.827 209.271,410.301 211.044,409.662 212.773,408.914 214.453,408.058 216.075,407.099 217.634,406.04 219.123,404.885 220.536,403.638 221.869,402.306 223.115,400.892 224.271,399.403 225.33,397.844 226.289,396.222 227.145,394.543 227.893,392.813 228.532,391.04 229.057,389.23 229.469,387.391 229.763,385.529 229.941,383.653" transform="rotate(0 0 0)" fill="cyan" stroke="black" stroke-width="0.5" />
<polygon points="170,381.769 169.941,379.885 169.763,378.009 169.469,376.148 169.057,374.308 168.532,372.499 167.893,370.725 167.145,368.996 166.289,367.317 165.33,365.694 164.271,364.136 163.115,362.646 161.869,361.233 160.536,359.9 159.123,358.654 157.634,357.499 156.075,356.439 154.453,355.48 152.773,354.624 151.044,353.876 149.271,353.237 147.461,352.712 145.621,352.301 143.76,352.006 141.884,351.828 140,351.769 138.116,351.828 136.24,352.006 134.379,352.301 132.539,352.712 130.729,353.237 128.956,353.876 127.227,354.624 125.547,355.48 123.925,356.439 122.366,357.499 120.877,358.654 119.464,359.9 118.131,361.233 116.885,362.646 115.729,364.136 114.67,365.694 113.711,367.317 112.855,368.996 112.107,370.725 111.468,372.499 110.943,374.308 110.531,376.148 110.237,378.009 110.059,379.885 110,381.769 110.059,383.653 110.237,385.529 110.531,387.391 110.943,389.23 111.468,391.04 112.107,392.813 112.855,394.543 113.711,396.222 114.67,397.844 115.729,399.403 116.885,400.892 118.131,402.306 119.464,403.638 120.877,404.885 122.366,406.04 123.925,407.099 125.547,408.058 127.227,408.914 128.956,409.662 130.729,410.301 132.539,410.827 134.379,411.238 136.24,411.533 138.116,411.71 140,411.769 141.884,411.71 143.76,411.533 145.621,411.238 147.461,410.827 149.271,410.301 151.044,409.662 152.773,408.914 154.453,408.058 156.075,407.099 157.634,406.04 159.123,404.885 160.536,403.638 161.869,402.306 163.115,400.892 164.271,399.403 165.33,397.844 166.289,396.222 167.145,394.543 167.893,392.813 168.532,391.04 169.057,389.23 169.469,387.391 169.763,385.529 169.941,383.653" transform="rotate(0 0 0)" fill="cyan" stroke="black" stroke-width="0.5" />
<polygon points="110,381.769 109.941,379.885 109.763,378.009 109.469,376.148 109.057,374.308 108.532,372.499 107.893,370.725 107.145,368.996 106.289,367.317 105.33,365.694 104.271,364.136 103.115,362.646 101.869,361.233 100.536,359.9 99.1227,358.654 97.6336,357.499 96.0748,356.439 94.4526,355.48 92.7734,354.624 91.0437,353.876 89.2705,353.237 87.4607,352.712 85.6214,352.301 83.76,352.006 81.8837,351.828 80,351.769 78.1163,351.828 76.24,352.006 74.3786,352.301 72.5393,352.712 70.7295,353.237 68.9563,353.876 67.2266,354.624 65.5474,355.48 63.9252,356.439 62.3664,357.499 60.8773,358.654 59.4636,359.9 58.1309,361.233 56.8846,362.646 55.7295,364.136 54.6702,365.694 53.7108,367.317 52.8552,368.996 52.1067,370.725 51.4683,372.499 50.9425,374.308 50.5314,376.148 50.2366,378.009 50.0592,379.885 50,381.769 50.0592,383.653 50.2366,385.529 50.5314,387.391 50.9425,389.23 51.4683,391.04 52.1067,392.813 52.8552,394.543 53.7108,396.222 54.6702,397.844 55.7295,399.403 56.8846,400.892 58.1309,402.306 59.4636,403.638 60.8773,404.885 62.3664,406.04 63.9252,407.099 65.5474,408.058 67.2266,408.914 68.9563,409.662 70.7295,410.301 72.5393,410.827 74.3786,411.238 76.24,411.533 78.1163,411.71 80,411.769 81.8837,411.71 83.76,411.533 85.6214,411.238 87.4607,410.827 89.2705,410.301 91.0437,409.662 92.7734,408.914 94.4526,408.058 96.0748,407.099 97.6336,406.04 99.1227,404.885 100.536,403.638 101.869,402.306 103.115,400.892 104.271,399.403 105.33,397.844 106.289,396.222 107.145,394.543 107.893,392.813 108.532,391.04 109.057,389.23 109.469,387.391 109.763,385.529 109.941,383.653" transform="rotate(0 0 0)" fill="cyan" stroke="black" stroke-width="0.5" />
<polygon points="350,381.769 349.941,379.885 349.763,378.009 349.469,376.148 349.057,374.308 348.532,372.499 347.893,370.725 347.145,368.996 346.289,367.317 345.33,365.694 344.271,364.136 343.115,362.646 341.869,361.233 340.536,359.9 339.123,358.654 337.634,357.499 336.075,356.439 334.453,355.48 332.773,354.624 331.044,353.876 329.271,353.237 327.461,352.712 325.621,352.301 323.76,352.006 321.884,351.828 320,351.769 318.116,351.828 316.24,352.006 314.379,352.301 312.539,352.712 310.729,353.237 308.956,353.876 307.227,354.624 305.547,355.48 303.925,356.439 302.366,357.499 300.877,358.654 299.464,359.9 298.131,361.233 296.885,362.646 295.729,364.136 294.67,365.694 293.711,367.317 292.855,368.996 292.107,370.725 291.468,372.499 290.943,374.308 290.531,376.148 290.237,378.009 290.059,379.885 290,381.769 290.059,383.653 290.237,385.529 290.531,387.391 290.943,389.23 291.468,391.04 292.107,392.813 292.855,394.543 293.711,396.222 294.67,397.844 295.729,399.403 296.885,400.892 298.131,402.306 299.464,403.638 300.877,404.885 302.366,406.04 303.925,407.099 305.547,408.058 307.227,408.914 308.956,409.662 310.729,410.301 312.539,410.827 314.379,411.238 316.24,411.533 318.116,411.71 320,411.769 321.884,411.71 323.76,411.533 325.621,411.238 327.461,410.827 329.271,410.301 331.044,409.662 332.773,408.914 334.453,408.058 336.075,407.099 337.634,406.04 339.123,404.885 340.536,403.638 341.869,402.306 343.115,400.892 344.271,399.403 345.33,397.844 346.289,396.222 347.145,394.543 347.893,392.813 348.532,391.04 349.057,389.23 349.469,387.391 349.763,385.529 349.941,383.653" transform="rotate(0 0 0)" fill="cyan" stroke="black" stroke-width="0.5" />
<polygon points="410,381.769 409.941,379.885 409.763,378.009 409.469,376.148 409.057,374.308 408.532,372.499 407.893,370.725 407.145,368.996 406.289,367.317 405.33,365.694 404.271,364.136 403.115,362.646 401.869,361.233 400.536,359.9 399.123,358.654 397.634,357.499 396.075,356.439 394.453,355.48 392.773,354.624 391.044,353.876 389.271,353.237 387.461,352.712 385.621,352.301 383.76,352.006 381.884,351.828 380,351.769 378.116,351.828 376.24,352.006 374.379,352.301 372.539,352.712 370.729,353.237 368.956,353.876 367.227,354.624 365.547,355.48 363.925,356.439 362.366,357.499 360.877,358.654 359.464,359.9 358.131,361.233 356.885,362.646 355.729,364.136 354.67,365.694 353.711,367.317 352.855,368.996 352.107,370.725 351.468,372.499 350.943,374.308 350.531,376.148 350.237,378.009 350.059,379.885 350,381.769 350.059,383.653 350.237,385.529 350.531,387.391 350.943,389.23 351.468,391.04 352.107,392.813 352.855,394.543 353.711,396.222 354.67,397.844 355.729,399.403 356.885,400.892 358.131,402.306 359.464,403.638 360.877,404.885 362.366,406.04 363.925,407.099 365.547,408.058 367.227,408.914 368.956,409.662 370.729,410.301 372.539,410.827 374.379,411.238 376.24,411.533 378.116,411.71 380,411.769 381.884,411.71 383.76,411.533 385.621,411.238 387.461,410.827 389.271,410.301 391.044,409.662 392.773,408.914 394.453,408.058 396.075,407.099 397.634,406.04 399.123,404.885 400.536,403.638 401.869,402.306 403.115,400.892 404.271,399.403 405.33,397.844 406.289,396.222 407.145,394.543 407.893,392.813 408.532,391.04 409.057,389.23 409.469,387.391 409.763,385.529 409.941,383.653" transform="rotate(0 0 0)" fill="cyan" stroke="black" stroke-width="0.5" />
<polygon points="470,381.769 469.941,379.885 469.763,378.009 469.469,376.148 469.057,374.308 468.532,372.499 467.893,370.725 467.145,368.996 466.289,367.317 465.33,365.694 464.271,364.136 463.115,362.646 461.869,361.233 460.536,359.9 459.123,358.654 457.634,357.499 456.075,356.439 454.453,355.48 452.773,354.624 451.044,353.876 449.271,353.237 447.461,352.712 445.621,352.301 443.76,352.006 441.884,351.828 440,351.769 438.116,351.828 436.24,352.006 434.379,352.301 432.539,352.712 430.729,353.237 428.956,353.876 427.227,354.624 425.547,355.48 423.925,356.439 422.366,357.499 420.877,358.654 419.464,359.9 418.131,361.233 416.885,362.646 415.729,364.136 414.67,365.694 413.711,367.317 412.855,368.996 412.107,370.725 411.468,372.499 410.943,374.308 410.531,376.148 410.237,378.009 410.059,379.885 410,381.769 410.059,383.653 410.237,385.529 410.531,387.391 410.943,389.23 411.468,391.04 412.107,392.813 412.855,394.543 413.711,396.222 414.67,397.844 415.729,399.403 416.885,400.892 418.131,402.306 419.464,403.638 420.877,404.885 422.366,406.04 423.925,407.099 425.547,408.058 427.227,408.914 428.956,409.662 430.729,410.301 432.539,410.827 434.379,411.238 436.24,411.533 438.116,411.71 440,411.769 441.884,411.71 443.76,411.533 445.621,411.238 447.461,410.827 449.271,410.301 451.044,409.662 452.773,408.914 454.453,408.058 456.075,407.099 457.634,406.04 459.123,404.885 460.536,403.638 461.869,402.306 463.115,400.892 464.271,399.403 465.33,397.844 466.289,396.222 467.145,394.543 467.893,392.813 468.532,391.04 469.057,389.23 469.469,387.391 469.763,385.529 469.941,383.653" transform="rotate(0 0 0)" fill="cyan" stroke="black" stroke-width="0.5" />
</svg>
