<svg version="1.1" baseProfile="full" xmlns="http://www.w3.org/2000/svg">
<polygon points="1000,500 999.013,468.605 996.057,437.333 991.144,406.309 984.292,375.655 975.528,345.492 964.888,315.938 952.414,287.11 938.153,259.123 922.164,232.087 904.508,206.107 885.257,181.288 864.484,157.726 842.274,135.516 818.712,114.743 793.893,95.4915 767.913,77.836 740.877,61.8467 712.89,47.5865 684.062,35.1118 654.508,24.4717 624.345,15.7084 593.691,8.85637 562.667,3.94265 531.395,0.986636 500,0 468.605,0.986636 437.333,3.94265 406.309,8.85637 375.655,15.7084 345.492,24.4717 315.938,35.1118 287.11,47.5865 259.123,61.8467 232.087,77.836 206.107,95.4915 181.288,114.743 157.726,135.516 135.516,157.726 114.743,181.288 95.4915,206.107 77.836,232.087 61.8467,259.123 47.5865,287.11 35.1118,315.938 24.4717,345.492 15.7084,375.655 8.85637,406.309 3.94265,437.333 0.986636,468.605 0,500 0.986636,531.395 3.94265,562.667 8.85637,593.691 15.7084,624.345 24.4717,654.508 35.1118,684.062 47.5865,712.89 61.8467,740.877 77.836,767.913 95.4915,793.893 114.743,818.712 135.516,842.274 157.726,864.484 181.288,885.257 206.107,904.508 232.087,922.164 259.123,938.153 287.11,952.414 315.938,964.888 345.492,975.528 375.655,984.292 406.309,991.144 437.333,996.057 468.605,999.013 500,1000 531.395,999.013 562.667,996.057 593.691,991.144 624.345,984.292 654.508,975.528 684.062,964.888 712.89,952.414 740.877,938.153 767.913,922.164 793.893,904.508 818.712,885.257 842.274,864.484 864.484,842.274 885.257,818.712 904.508,793.893 922.164,767.913 938.153,740.877 952.414,712.89 964.888,684.062 975.528,654.508 984.292,624.345 991.144,593.691 996.057,562.667 999.013,531.395" transform="rotate(0 0 0)" fill="pink" stroke="black" stroke-width="0.5" />
<polygon points="146.447,146.447 146.447,161.447 256.447,161.447 256.447,146.447" transform="rotate(0 0 0)" fill="green" stroke="black" stroke-width="0.5" />
<polygon points="256.447,146.447 256.447,161.447 366.447,161.447 366.447,146.447" transform="rotate(0 0 0)" fill="green" stroke="black" stroke-width="0.5" />
<polygon points="366.447,146.447 366.447,161.447 476.447,161.447 476.447,146.447" transform="rotate(0 0 0)" fill="green" stroke="black" stroke-width="0.5" />
<polygon points="476.447,146.447 476.447,161.447 586.447,161.447 586.447,146.447" transform="rotate(0 0 0)" fill="green" stroke="black" stroke-width="0.5" />
<polygon points="586.447,146.447 586.447,161.447 696.447,161.447 696.447,146.447" transform="rotate(0 0 0)" fill="green" stroke="black" stroke-width="0.5" />
<polygon points="696.447,146.447 696.447,161.447 806.447,161.447 806.447,146.447" transform="rotate(0 0 0)" fill="green" stroke="black" stroke-width="0.5" />
<polygon points="146.447,161.447 146.447,176.447 256.447,176.447 256.447,161.447" transform="rotate(0 0 0)" fill="green" stroke="black" stroke-width="0.5" />
<polygon points="256.447,161.447 256.447,176.447 366.447,176.447 366.447,161.447" transform="rotate(0 0 0)" fill="green" stroke="black" stroke-width="0.5" />
<polygon points="366.447,161.447 366.447,176.447 476.447,176.447 476.447,161.447" transform="rotate(0 0 0)" fill="green" stroke="black" stroke-width="0.5" />
<polygon points="476.447,161.447 476.447,176.447 586.447,176.447 586.447,161.447" transform="rotate(0 0 0)" fill="green" stroke="black" stroke-width="0.5" />
<polygon points="586.447,161.447 586.447,176.447 696.447,176.447 696.447,161.447" transform="rotate(0 0 0)" fill="green" stroke="black" stroke-width="0.5" />
<polygon points="696.447,161.447 696.447,176.447 806.447,176.447 806.447,161.447" transform="rotate(0 0 0)" fill="green" stroke="black" stroke-width="0.5" />
<polygon points="146.447,176.447 146.447,191.447 256.447,191.447 256.447,176.447" transform="rotate(0 0 0)" fill="green" stroke="black" stroke-width="0.5" />
<polygon points="256.447,176.447 256.447,191.447 366.447,191.447 366.447,176.447" transform="rotate(0 0 0)" fill="green" stroke="black" stroke-width="0.5" />
<polygon points="366.447,176.447 366.447,191.447 476.447,191.447 476.447,176.447" transform="rotate(0 0 0)" fill="green" stroke="black" stroke-width="0.5" />
<polygon points="476.447,176.447 476.447,191.447 586.447,191.447 586.447,176.447" transform="rotate(0 0 0)" fill="green" stroke="black" stroke-width="0.5" />
<polygon points="586.447,176.447 586.447,191.447 696.447,191.447 696.447,176.447" transform="rotate(0 0 0)" fill="green" stroke="black" stroke-width="0.5" />
<polygon points="696.447,176.447 696.447,191.447 806.447,191.447 806.447,176.447" transform="rotate(0 0 0)" fill="green" stroke="black" stroke-width="0.5" />
<polygon points="146.447,191.447 146.447,206.447 256.447,206.447 256.447,191.447" transform="rotate(0 0 0)" fill="green" stroke="black" stroke-width="0.5" />
<polygon points="256.447,191.447 256.447,206.447 366.447,206.447 366.447,191.447" transform="rotate(0 0 0)" fill="green" stroke="black" stroke-width="0.5" />
<polygon points="366.447,191.447 366.447,206.447 476.447,206.447 476.447,191.447" transform="rotate(0 0 0)" fill="green" stroke="black" stroke-width="0.5" />
<polygon points="476.447,191.447 476.447,206.447 586.447,206.447 586.447,191.447" transform="rotate(0 0 0)" fill="green" stroke="black" stroke-width="0.5" />
<polygon points="586.447,191.447 586.447,206.447 696.447,206.447 696.447,191.447" transform="rotate(0 0 0)" fill="green" stroke="black" stroke-width="0.5" />
<polygon points="696.447,191.447 696.447,206.447 806.447,206.447 806.447,191.447" transform="rotate(0 0 0)" fill="green" stroke="black" stroke-width="0.5" />
<polygon points="146.447,206.447 146.447,221.447 256.447,221.447 256.447,206.447" transform="rotate(0 0 0)" fill="green" stroke="black" stroke-width="0.5" />
<polygon points="256.447,206.447 256.447,221.447 366.447,221.447 366.447,206.447" transform="rotate(0 0 0)" fill="green" stroke="black" stroke-width="0.5" />
<polygon points="366.447,206.447 366.447,221.447 476.447,221.447 476.447,206.447" transform="rotate(0 0 0)" fill="green" stroke="black" stroke-width="0.5" />
<polygon points="476.447,206.447 476.447,221.447 586.447,221.447 586.447,206.447" transform="rotate(0 0 0)" fill="green" stroke="black" stroke-width="0.5" />
<polygon points="586.447,206.447 586.447,221.447 696.447,221.447 696.447,206.447" transform="rotate(0 0 0)" fill="green" stroke="black" stroke-width="0.5" />
<polygon points="696.447,206.447 696.447,221.447 806.447,221.447 806.447,206.447" transform="rotate(0 0 0)" fill="green" stroke="black" stroke-width="0.5" />
<polygon points="146.447,221.447 146.447,236.447 256.447,236.447 256.447,221.447" transform="rotate(0 0 0)" fill="green" stroke="black" stroke-width="0.5" />
<polygon points="256.447,221.447 256.447,236.447 366.447,236.447 366.447,221.447" transform="rotate(0 0 0)" fill="green" stroke="black" stroke-width="0.5" />
<polygon points="366.447,221.447 366.447,236.447 476.447,236.447 476.447,221.447" transform="rotate(0 0 0)" fill="green" stroke="black" stroke-width="0.5" />
<polygon points="476.447,221.447 476.447,236.447 586.447,236.447 586.447,221.447" transform="rotate(0 0 0)" fill="green" stroke="black" stroke-width="0.5" />
<polygon points="586.447,221.447 586.447,236.447 696.447,236.447 696.447,221.447" transform="rotate(0 0 0)" fill="green" stroke="black" stroke-width="0.5" />
<polygon points="696.447,221.447 696.447,236.447 806.447,236.447 806.447,221.447" transform="rotate(0 0 0)" fill="green" stroke="black" stroke-width="0.5" />
<polygon points="146.447,236.447 146.447,251.447 256.447,251.447 256.447,236.447" transform="rotate(0 0 0)" fill="green" stroke="black" stroke-width="0.5" />
<polygon points="256.447,236.447 256.447,251.447 366.447,251.447 366.447,236.447" transform="rotate(0 0 0)" fill="green" stroke="black" stroke-width="0.5" />
<polygon points="366.447,236.447 366.447,251.447 476.447,251.447 476.447,236.447" transform="rotate(0 0 0)" fill="green" stroke="black" stroke-width="0.5" />
<polygon points="476.447,236.447 476.447,251.447 586.447,251.447 586.447,236.447" transform="rotate(0 0 0)" fill="green" stroke="black" stroke-width="0.5" />
<polygon points="586.447,236.447 586.447,251.447 696.447,251.447 696.447,236.447" transform="rotate(0 0 0)" fill="green" stroke="black" stroke-width="0.5" />
<polygon points="696.447,236.447 696.447,251.447 806.447,251.447 806.447,236.447" transform="rotate(0 0 0)" fill="green" stroke="black" stroke-width="0.5" />
<polygon points="146.447,251.447 146.447,266.447 256.447,266.447 256.447,251.447" transform="rotate(0 0 0)" fill="green" stroke="black" stroke-width="0.5" />
<polygon points="256.447,251.447 256.447,266.447 366.447,266.447 366.447,251.447" transform="rotate(0 0 0)" fill="green" stroke="black" stroke-width="0.5" />
<polygon points="366.447,251.447 366.447,266.447 476.447,266.447 476.447,251.447" transform="rotate(0 0 0)" fill="green" stroke="black" stroke-width="0.5" />
<polygon points="476.447,251.447 476.447,266.447 586.447,266.447 586.447,251.447" transform="rotate(0 0 0)" fill="green" stroke="black" stroke-width="0.5" />
<polygon points="586.447,251.447 586.447,266.447 696.447,266.447 696.447,251.447" transform="rotate(0 0 0)" fill="green" stroke="black" stroke-width="0.5" />
<polygon points="696.447,251.447 696.447,266.447 806.447,266.447 806.447,251.447" transform="rotate(0 0 0)" fill="green" stroke="black" stroke-width="0.5" />
<polygon points="146.447,266.447 146.447,281.447 256.447,281.447 256.447,266.447" transform="rotate(0 0 0)" fill="green" stroke="black" stroke-width="0.5" />
<polygon points="256.447,266.447 256.447,281.447 366.447,281.447 366.447,266.447" transform="rotate(0 0 0)" fill="green" stroke="black" stroke-width="0.5" />
<polygon points="366.447,266.447 366.447,281.447 476.447,281.447 476.447,266.447" transform="rotate(0 0 0)" fill="green" stroke="black" stroke-width="0.5" />
<polygon points="476.447,266.447 476.447,281.447 586.447,281.447 586.447,266.447" transform="rotate(0 0 0)" fill="green" stroke="black" stroke-width="0.5" />
<polygon points="586.447,266.447 586.447,281.447 696.447,281.447 696.447,266.447" transform="rotate(0 0 0)" fill="green" stroke="black" stroke-width="0.5" />
<polygon points="696.447,266.447 696.447,281.447 806.447,281.447 806.447,266.447" transform="rotate(0 0 0)" fill="green" stroke="black" stroke-width="0.5" />
<polygon points="146.447,281.447 146.447,296.447 256.447,296.447 256.447,281.447" transform="rotate(0 0 0)" fill="green" stroke="black" stroke-width="0.5" />
<polygon points="256.447,281.447 256.447,296.447 366.447,296.447 366.447,281.447" transform="rotate(0 0 0)" fill="green" stroke="black" stroke-width="0.5" />
<polygon points="366.447,281.447 366.447,296.447 476.447,296.447 476.447,281.447" transform="rotate(0 0 0)" fill="green" stroke="black" stroke-width="0.5" />
<polygon points="476.447,281.447 476.447,296.447 586.447,296.447 586.447,281.447" transform="rotate(0 0 0)" fill="green" stroke="black" stroke-width="0.5" />
<polygon points="586.447,281.447 586.447,296.447 696.447,296.447 696.447,281.447" transform="rotate(0 0 0)" fill="green" stroke="black" stroke-width="0.5" />
<polygon points="696.447,281.447 696.447,296.447 806.447,296.447 806.447,281.447" transform="rotate(0 0 0)" fill="green" stroke="black" stroke-width="0.5" />
<polygon points="146.447,296.447 146.447,311.447 256.447,311.447 256.447,296.447" transform="rotate(0 0 0)" fill="green" stroke="black" stroke-width="0.5" />
<polygon points="256.447,296.447 256.447,311.447 366.447,311.447 366.447,296.447" transform="rotate(0 0 0)" fill="green" stroke="black" stroke-width="0.5" />
<polygon points="366.447,296.447 366.447,311.447 476.447,311.447 476.447,296.447" transform="rotate(0 0 0)" fill="green" stroke="black" stroke-width="0.5" />
<polygon points="476.447,296.447 476.447,311.447 586.447,311.447 586.447,296.447" transform="rotate(0 0 0)" fill="green" stroke="black" stroke-width="0.5" />
<polygon points="586.447,296.447 586.447,311.447 696.447,311.447 696.447,296.447" transform="rotate(0 0 0)" fill="green" stroke="black" stroke-width="0.5" />
<polygon points="696.447,296.447 696.447,311.447 806.447,311.447 806.447,296.447" transform="rotate(0 0 0)" fill="green" stroke="black" stroke-width="0.5" />
<polygon points="146.447,311.447 146.447,326.447 256.447,326.447 256.447,311.447" transform="rotate(0 0 0)" fill="green" stroke="black" stroke-width="0.5" />
<polygon points="256.447,311.447 256.447,326.447 366.447,326.447 366.447,311.447" transform="rotate(0 0 0)" fill="green" stroke="black" stroke-width="0.5" />
<polygon points="366.447,311.447 366.447,326.447 476.447,326.447 476.447,311.447" transform="rotate(0 0 0)" fill="green" stroke="black" stroke-width="0.5" />
<polygon points="476.447,311.447 476.447,326.447 586.447,326.447 586.447,311.447" transform="rotate(0 0 0)" fill="green" stroke="black" stroke-width="0.5" />
<polygon points="586.447,311.447 586.447,326.447 696.447,326.447 696.447,311.447" transform="rotate(0 0 0)" fill="green" stroke="black" stroke-width="0.5" />
<polygon points="696.447,311.447 696.447,326.447 806.447,326.447 806.447,311.447" transform="rotate(0 0 0)" fill="green" stroke="black" stroke-width="0.5" />
<polygon points="146.447,326.447 146.447,341.447 256.447,341.447 256.447,326.447" transform="rotate(0 0 0)" fill="green" stroke="black" stroke-width="0.5" />
<polygon points="256.447,326.447 256.447,341.447 366.447,341.447 366.447,326.447" transform="rotate(0 0 0)" fill="green" stroke="black" stroke-width="0.5" />
<polygon points="366.447,326.447 366.447,341.447 476.447,341.447 476.447,326.447" transform="rotate(0 0 0)" fill="green" stroke="black" stroke-width="0.5" />
<polygon points="476.447,326.447 476.447,341.447 586.447,341.447 586.447,326.447" transform="rotate(0 0 0)" fill="green" stroke="black" stroke-width="0.5" />
<polygon points="586.447,326.447 586.447,341.447 696.447,341.447 696.447,326.447" transform="rotate(0 0 0)" fill="green" stroke="black" stroke-width="0.5" />
<polygon points="696.447,326.447 696.447,341.447 806.447,341.447 806.447,326.447" transform="rotate(0 0 0)" fill="green" stroke="black" stroke-width="0.5" />
<polygon points="146.447,341.447 146.447,356.447 256.447,356.447 256.447,341.447" transform="rotate(0 0 0)" fill="green" stroke="black" stroke-width="0.5" />
<polygon points="256.447,341.447 256.447,356.447 366.447,356.447 366.447,341.447" transform="rotate(0 0 0)" fill="green" stroke="black" stroke-width="0.5" />
<polygon points="366.447,341.447 366.447,356.447 476.447,356.447 476.447,341.447" transform="rotate(0 0 0)" fill="green" stroke="black" stroke-width="0.5" />
<polygon points="476.447,341.447 476.447,356.447 586.447,356.447 586.447,341.447" transform="rotate(0 0 0)" fill="green" stroke="black" stroke-width="0.5" />
<polygon points="586.447,341.447 586.447,356.447 696.447,356.447 696.447,341.447" transform="rotate(0 0 0)" fill="green" stroke="black" stroke-width="0.5" />
<polygon points="696.447,341.447 696.447,356.447 806.447,356.447 806.447,341.447" transform="rotate(0 0 0)" fill="green" stroke="black" stroke-width="0.5" />
<polygon points="146.447,356.447 146.447,371.447 256.447,371.447 256.447,356.447" transform="rotate(0 0 0)" fill="green" stroke="black" stroke-width="0.5" />
<polygon points="256.447,356.447 256.447,371.447 366.447,371.447 366.447,356.447" transform="rotate(0 0 0)" fill="green" stroke="black" stroke-width="0.5" />
<polygon points="366.447,356.447 366.447,371.447 476.447,371.447 476.447,356.447" transform="rotate(0 0 0)" fill="green" stroke="black" stroke-width="0.5" />
<polygon points="476.447,356.447 476.447,371.447 586.447,371.447 586.447,356.447" transform="rotate(0 0 0)" fill="green" stroke="black" stroke-width="0.5" />
<polygon points="586.447,356.447 586.447,371.447 696.447,371.447 696.447,356.447" transform="rotate(0 0 0)" fill="green" stroke="black" stroke-width="0.5" />
<polygon points="696.447,356.447 696.447,371.447 806.447,371.447 806.447,356.447" transform="rotate(0 0 0)" fill="green" stroke="black" stroke-width="0.5" />
<polygon points="146.447,371.447 146.447,386.447 256.447,386.447 256.447,371.447" transform="rotate(0 0 0)" fill="green" stroke="black" stroke-width="0.5" />
<polygon points="256.447,371.447 256.447,386.447 366.447,386.447 366.447,371.447" transform="rotate(0 0 0)" fill="green" stroke="black" stroke-width="0.5" />
<polygon points="366.447,371.447 366.447,386.447 476.447,386.447 476.447,371.447" transform="rotate(0 0 0)" fill="green" stroke="black" stroke-width="0.5" />
<polygon points="476.447,371.447 476.447,386.447 586.447,386.447 586.447,371.447" transform="rotate(0 0 0)" fill="green" stroke="black" stroke-width="0.5" />
<polygon points="586.447,371.447 586.447,386.447 696.447,386.447 696.447,371.447" transform="rotate(0 0 0)" fill="green" stroke="black" stroke-width="0.5" />
<polygon points="696.447,371.447 696.447,386.447 806.447,386.447 806.447,371.447" transform="rotate(0 0 0)" fill="green" stroke="black" stroke-width="0.5" />
<polygon points="146.447,386.447 146.447,401.447 256.447,401.447 256.447,386.447" transform="rotate(0 0 0)" fill="green" stroke="black" stroke-width="0.5" />
<polygon points="256.447,386.447 256.447,401.447 366.447,401.447 366.447,386.447" transform="rotate(0 0 0)" fill="green" stroke="black" stroke-width="0.5" />
<polygon points="366.447,386.447 366.447,401.447 476.447,401.447 476.447,386.447" transform="rotate(0 0 0)" fill="green" stroke="black" stroke-width="0.5" />
<polygon points="476.447,386.447 476.447,401.447 586.447,401.447 586.447,386.447" transform="rotate(0 0 0)" fill="green" stroke="black" stroke-width="0.5" />
<polygon points="586.447,386.447 586.447,401.447 696.447,401.447 696.447,386.447" transform="rotate(0 0 0)" fill="green" stroke="black" stroke-width="0.5" />
<polygon points="696.447,386.447 696.447,401.447 806.447,401.447 806.447,386.447" transform="rotate(0 0 0)" fill="green" stroke="black" stroke-width="0.5" />
<polygon points="146.447,401.447 146.447,416.447 256.447,416.447 256.447,401.447" transform="rotate(0 0 0)" fill="green" stroke="black" stroke-width="0.5" />
<polygon points="256.447,401.447 256.447,416.447 366.447,416.447 366.447,401.447" transform="rotate(0 0 0)" fill="green" stroke="black" stroke-width="0.5" />
<polygon points="366.447,401.447 366.447,416.447 476.447,416.447 476.447,401.447" transform="rotate(0 0 0)" fill="green" stroke="black" stroke-width="0.5" />
<polygon points="476.447,401.447 476.447,416.447 586.447,416.447 586.447,401.447" transform="rotate(0 0 0)" fill="green" stroke="black" stroke-width="0.5" />
<polygon points="586.447,401.447 586.447,416.447 696.447,416.447 696.447,401.447" transform="rotate(0 0 0)" fill="green" stroke="black" stroke-width="0.5" />
<polygon points="696.447,401.447 696.447,416.447 806.447,416.447 806.447,401.447" transform="rotate(0 0 0)" fill="green" stroke="black" stroke-width="0.5" />
<polygon points="146.447,416.447 146.447,431.447 256.447,431.447 256.447,416.447" transform="rotate(0 0 0)" fill="green" stroke="black" stroke-width="0.5" />
<polygon points="256.447,416.447 256.447,431.447 366.447,431.447 366.447,416.447" transform="rotate(0 0 0)" fill="green" stroke="black" stroke-width="0.5" />
<polygon points="366.447,416.447 366.447,431.447 476.447,431.447 476.447,416.447" transform="rotate(0 0 0)" fill="green" stroke="black" stroke-width="0.5" />
<polygon points="476.447,416.447 476.447,431.447 586.447,431.447 586.447,416.447" transform="rotate(0 0 0)" fill="green" stroke="black" stroke-width="0.5" />
<polygon points="586.447,416.447 586.447,431.447 696.447,431.447 696.447,416.447" transform="rotate(0 0 0)" fill="green" stroke="black" stroke-width="0.5" />
<polygon points="696.447,416.447 696.447,431.447 806.447,431.447 806.447,416.447" transform="rotate(0 0 0)" fill="green" stroke="black" stroke-width="0.5" />
<polygon points="146.447,431.447 146.447,446.447 256.447,446.447 256.447,431.447" transform="rotate(0 0 0)" fill="green" stroke="black" stroke-width="0.5" />
<polygon points="256.447,431.447 256.447,446.447 366.447,446.447 366.447,431.447" transform="rotate(0 0 0)" fill="green" stroke="black" stroke-width="0.5" />
<polygon points="366.447,431.447 366.447,446.447 476.447,446.447 476.447,431.447" transform="rotate(0 0 0)" fill="green" stroke="black" stroke-width="0.5" />
<polygon points="476.447,431.447 476.447,446.447 586.447,446.447 586.447,431.447" transform="rotate(0 0 0)" fill="green" stroke="black" stroke-width="0.5" />
<polygon points="586.447,431.447 586.447,446.447 696.447,446.447 696.447,431.447" transform="rotate(0 0 0)" fill="green" stroke="black" stroke-width="0.5" />
<polygon points="696.447,431.447 696.447,446.447 806.447,446.447 806.447,431.447" transform="rotate(0 0 0)" fill="green" stroke="black" stroke-width="0.5" />
<polygon points="146.447,446.447 146.447,461.447 256.447,461.447 256.447,446.447" transform="rotate(0 0 0)" fill="green" stroke="black" stroke-width="0.5" />
<polygon points="256.447,446.447 256.447,461.447 366.447,461.447 366.447,446.447" transform="rotate(0 0 0)" fill="green" stroke="black" stroke-width="0.5" />
<polygon points="366.447,446.447 366.447,461.447 476.447,461.447 476.447,446.447" transform="rotate(0 0 0)" fill="green" stroke="black" stroke-width="0.5" />
<polygon points="476.447,446.447 476.447,461.447 586.447,461.447 586.447,446.447" transform="rotate(0 0 0)" fill="green" stroke="black" stroke-width="0.5" />
<polygon points="586.447,446.447 586.447,461.447 696.447,461.447 696.447,446.447" transform="rotate(0 0 0)" fill="green" stroke="black" stroke-width="0.5" />
<polygon points="696.447,446.447 696.447,461.447 806.447,461.447 806.447,446.447" transform="rotate(0 0 0)" fill="green" stroke="black" stroke-width="0.5" />
<polygon points="146.447,461.447 146.447,476.447 256.447,476.447 256.447,461.447" transform="rotate(0 0 0)" fill="green" stroke="black" stroke-width="0.5" />
<polygon points="256.447,461.447 256.447,476.447 366.447,476.447 366.447,461.447" transform="rotate(0 0 0)" fill="green" stroke="black" stroke-width="0.5" />
<polygon points="366.447,461.447 366.447,476.447 476.447,476.447 476.447,461.447" transform="rotate(0 0 0)" fill="green" stroke="black" stroke-width="0.5" />
<polygon points="476.447,461.447 476.447,476.447 586.447,476.447 586.447,461.447" transform="rotate(0 0 0)" fill="green" stroke="black" stroke-width="0.5" />
<polygon points="586.447,461.447 586.447,476.447 696.447,476.447 696.447,461.447" transform="rotate(0 0 0)" fill="green" stroke="black" stroke-width="0.5" />
<polygon points="696.447,461.447 696.447,476.447 806.447,476.447 806.447,461.447" transform="rotate(0 0 0)" fill="green" stroke="black" stroke-width="0.5" />
<polygon points="146.447,476.447 146.447,491.447 256.447,491.447 256.447,476.447" transform="rotate(0 0 0)" fill="green" stroke="black" stroke-width="0.5" />
<polygon points="256.447,476.447 256.447,491.447 366.447,491.447 366.447,476.447" transform="rotate(0 0 0)" fill="green" stroke="black" stroke-width="0.5" />
<polygon points="366.447,476.447 366.447,491.447 476.447,491.447 476.447,476.447" transform="rotate(0 0 0)" fill="green" stroke="black" stroke-width="0.5" />
<polygon points="476.447,476.447 476.447,491.447 586.447,491.447 586.447,476.447" transform="rotate(0 0 0)" fill="green" stroke="black" stroke-width="0.5" />
<polygon points="586.447,476.447 586.447,491.447 696.447,491.447 696.447,476.447" transform="rotate(0 0 0)" fill="green" stroke="black" stroke-width="0.5" />
<polygon points="696.447,476.447 696.447,491.447 806.447,491.447 806.447,476.447" transform="rotate(0 0 0)" fill="green" stroke="black" stroke-width="0.5" />
<polygon points="146.447,491.447 146.447,506.447 256.447,506.447 256.447,491.447" transform="rotate(0 0 0)" fill="green" stroke="black" stroke-width="0.5" />
<polygon points="256.447,491.447 256.447,506.447 366.447,506.447 366.447,491.447" transform="rotate(0 0 0)" fill="green" stroke="black" stroke-width="0.5" />
<polygon points="366.447,491.447 366.447,506.447 476.447,506.447 476.447,491.447" transform="rotate(0 0 0)" fill="green" stroke="black" stroke-width="0.5" />
<polygon points="476.447,491.447 476.447,506.447 586.447,506.447 586.447,491.447" transform="rotate(0 0 0)" fill="green" stroke="black" stroke-width="0.5" />
<polygon points="586.447,491.447 586.447,506.447 696.447,506.447 696.447,491.447" transform="rotate(0 0 0)" fill="green" stroke="black" stroke-width="0.5" />
<polygon points="696.447,491.447 696.447,506.447 806.447,506.447 806.447,491.447" transform="rotate(0 0 0)" fill="green" stroke="black" stroke-width="0.5" />
<polygon points="146.447,506.447 146.447,521.447 256.447,521.447 256.447,506.447" transform="rotate(0 0 0)" fill="green" stroke="black" stroke-width="0.5" />
<polygon points="256.447,506.447 256.447,521.447 366.447,521.447 366.447,506.447" transform="rotate(0 0 0)" fill="green" stroke="black" stroke-width="0.5" />
<polygon points="366.447,506.447 366.447,521.447 476.447,521.447 476.447,506.447" transform="rotate(0 0 0)" fill="green" stroke="black" stroke-width="0.5" />
<polygon points="476.447,506.447 476.447,521.447 586.447,521.447 586.447,506.447" transform="rotate(0 0 0)" fill="green" stroke="black" stroke-width="0.5" />
<polygon points="586.447,506.447 586.447,521.447 696.447,521.447 696.447,506.447" transform="rotate(0 0 0)" fill="green" stroke="black" stroke-width="0.5" />
<polygon points="696.447,506.447 696.447,521.447 806.447,521.447 806.447,506.447" transform="rotate(0 0 0)" fill="green" stroke="black" stroke-width="0.5" />
<polygon points="146.447,521.447 146.447,536.447 256.447,536.447 256.447,521.447" transform="rotate(0 0 0)" fill="green" stroke="black" stroke-width="0.5" />
<polygon points="256.447,521.447 256.447,536.447 366.447,536.447 366.447,521.447" transform="rotate(0 0 0)" fill="green" stroke="black" stroke-width="0.5" />
<polygon points="366.447,521.447 366.447,536.447 476.447,536.447 476.447,521.447" transform="rotate(0 0 0)" fill="green" stroke="black" stroke-width="0.5" />
<polygon points="476.447,521.447 476.447,536.447 586.447,536.447 586.447,521.447" transform="rotate(0 0 0)" fill="green" stroke="black" stroke-width="0.5" />
<polygon points="586.447,521.447 586.447,536.447 696.447,536.447 696.447,521.447" transform="rotate(0 0 0)" fill="green" stroke="black" stroke-width="0.5" />
<polygon points="696.447,521.447 696.447,536.447 806.447,536.447 806.447,521.447" transform="rotate(0 0 0)" fill="green" stroke="black" stroke-width="0.5" />
<polygon points="146.447,536.447 146.447,551.447 256.447,551.447 256.447,536.447" transform="rotate(0 0 0)" fill="green" stroke="black" stroke-width="0.5" />
<polygon points="256.447,536.447 256.447,551.447 366.447,551.447 366.447,536.447" transform="rotate(0 0 0)" fill="green" stroke="black" stroke-width="0.5" />
<polygon points="366.447,536.447 366.447,551.447 476.447,551.447 476.447,536.447" transform="rotate(0 0 0)" fill="green" stroke="black" stroke-width="0.5" />
<polygon points="476.447,536.447 476.447,551.447 586.447,551.447 586.447,536.447" transform="rotate(0 0 0)" fill="green" stroke="black" stroke-width="0.5" />
<polygon points="586.447,536.447 586.447,551.447 696.447,551.447 696.447,536.447" transform="rotate(0 0 0)" fill="green" stroke="black" stroke-width="0.5" />
<polygon points="696.447,536.447 696.447,551.447 806.447,551.447 806.447,536.447" transform="rotate(0 0 0)" fill="green" stroke="black" stroke-width="0.5" />
<polygon points="146.447,551.447 146.447,566.447 256.447,566.447 256.447,551.447" transform="rotate(0 0 0)" fill="green" stroke="black" stroke-width="0.5" />
<polygon points="256.447,551.447 256.447,566.447 366.447,566.447 366.447,551.447" transform="rotate(0 0 0)" fill="green" stroke="black" stroke-width="0.5" />
<polygon points="366.447,551.447 366.447,566.447 476.447,566.447 476.447,551.447" transform="rotate(0 0 0)" fill="green" stroke="black" stroke-width="0.5" />
<polygon points="476.447,551.447 476.447,566.447 586.447,566.447 586.447,551.447" transform="rotate(0 0 0)" fill="green" stroke="black" stroke-width="0.5" />
<polygon points="586.447,551.447 586.447,566.447 696.447,566.447 696.447,551.447" transform="rotate(0 0 0)" fill="green" stroke="black" stroke-width="0.5" />
<polygon points="696.447,551.447 696.447,566.447 806.447,566.447 806.447,551.447" transform="rotate(0 0 0)" fill="green" stroke="black" stroke-width="0.5" />
<polygon points="146.447,566.447 146.447,581.447 256.447,581.447 256.447,566.447" transform="rotate(0 0 0)" fill="green" stroke="black" stroke-width="0.5" />
<polygon points="256.447,566.447 256.447,581.447 366.447,581.447 366.447,566.447" transform="rotate(0 0 0)" fill="green" stroke="black" stroke-width="0.5" />
<polygon points="366.447,566.447 366.447,581.447 476.447,581.447 476.447,566.447" transform="rotate(0 0 0)" fill="green" stroke="black" stroke-width="0.5" />
<polygon points="476.447,566.447 476.447,581.447 586.447,581.447 586.447,566.447" transform="rotate(0 0 0)" fill="green" stroke="black" stroke-width="0.5" />
<polygon points="586.447,566.447 586.447,581.447 696.447,581.447 696.447,566.447" transform="rotate(0 0 0)" fill="green" stroke="black" stroke-width="0.5" />
<polygon points="696.447,566.447 696.447,581.447 806.447,581.447 806.447,566.447" transform="rotate(0 0 0)" fill="green" stroke="black" stroke-width="0.5" />
<polygon points="146.447,581.447 146.447,596.447 256.447,596.447 256.447,581.447" transform="rotate(0 0 0)" fill="green" stroke="black" stroke-width="0.5" />
<polygon points="256.447,581.447 256.447,596.447 366.447,596.447 366.447,581.447" transform="rotate(0 0 0)" fill="green" stroke="black" stroke-width="0.5" />
<polygon points="366.447,581.447 366.447,596.447 476.447,596.447 476.447,581.447" transform="rotate(0 0 0)" fill="green" stroke="black" stroke-width="0.5" />
<polygon points="476.447,581.447 476.447,596.447 586.447,596.447 586.447,581.447" transform="rotate(0 0 0)" fill="green" stroke="black" stroke-width="0.5" />
<polygon points="586.447,581.447 586.447,596.447 696.447,596.447 696.447,581.447" transform="rotate(0 0 0)" fill="green" stroke="black" stroke-width="0.5" />
<polygon points="696.447,581.447 696.447,596.447 806.447,596.447 806.447,581.447" transform="rotate(0 0 0)" fill="green" stroke="black" stroke-width="0.5" />
<polygon points="146.447,596.447 146.447,611.447 256.447,611.447 256.447,596.447" transform="rotate(0 0 0)" fill="green" stroke="black" stroke-width="0.5" />
<polygon points="256.447,596.447 256.447,611.447 366.447,611.447 366.447,596.447" transform="rotate(0 0 0)" fill="green" stroke="black" stroke-width="0.5" />
<polygon points="366.447,596.447 366.447,611.447 476.447,611.447 476.447,596.447" transform="rotate(0 0 0)" fill="green" stroke="black" stroke-width="0.5" />
<polygon points="476.447,596.447 476.447,611.447 586.447,611.447 586.447,596.447" transform="rotate(0 0 0)" fill="green" stroke="black" stroke-width="0.5" />
<polygon points="586.447,596.447 586.447,611.447 696.447,611.447 696.447,596.447" transform="rotate(0 0 0)" fill="green" stroke="black" stroke-width="0.5" />
<polygon points="696.447,596.447 696.447,611.447 806.447,611.447 806.447,596.447" transform="rotate(0 0 0)" fill="green" stroke="black" stroke-width="0.5" />
<polygon points="146.447,611.447 146.447,626.447 256.447,626.447 256.447,611.447" transform="rotate(0 0 0)" fill="green" stroke="black" stroke-width="0.5" />
<polygon points="256.447,611.447 256.447,626.447 366.447,626.447 366.447,611.447" transform="rotate(0 0 0)" fill="green" stroke="black" stroke-width="0.5" />
<polygon points="366.447,611.447 366.447,626.447 476.447,626.447 476.447,611.447" transform="rotate(0 0 0)" fill="green" stroke="black" stroke-width="0.5" />
<polygon points="476.447,611.447 476.447,626.447 586.447,626.447 586.447,611.447" transform="rotate(0 0 0)" fill="green" stroke="black" stroke-width="0.5" />
<polygon points="586.447,611.447 586.447,626.447 696.447,626.447 696.447,611.447" transform="rotate(0 0 0)" fill="green" stroke="black" stroke-width="0.5" />
<polygon points="696.447,611.447 696.447,626.447 806.447,626.447 806.447,611.447" transform="rotate(0 0 0)" fill="green" stroke="black" stroke-width="0.5" />
<polygon points="146.447,626.447 146.447,641.447 256.447,641.447 256.447,626.447" transform="rotate(0 0 0)" fill="green" stroke="black" stroke-width="0.5" />
<polygon points="256.447,626.447 256.447,641.447 366.447,641.447 366.447,626.447" transform="rotate(0 0 0)" fill="green" stroke="black" stroke-width="0.5" />
<polygon points="366.447,626.447 366.447,641.447 476.447,641.447 476.447,626.447" transform="rotate(0 0 0)" fill="green" stroke="black" stroke-width="0.5" />
<polygon points="476.447,626.447 476.447,641.447 586.447,641.447 586.447,626.447" transform="rotate(0 0 0)" fill="green" stroke="black" stroke-width="0.5" />
<polygon points="586.447,626.447 586.447,641.447 696.447,641.447 696.447,626.447" transform="rotate(0 0 0)" fill="green" stroke="black" stroke-width="0.5" />
<polygon points="696.447,626.447 696.447,641.447 806.447,641.447 806.447,626.447" transform="rotate(0 0 0)" fill="green" stroke="black" stroke-width="0.5" />
<polygon points="146.447,641.447 146.447,656.447 256.447,656.447 256.447,641.447" transform="rotate(0 0 0)" fill="green" stroke="black" stroke-width="0.5" />
<polygon points="256.447,641.447 256.447,656.447 366.447,656.447 366.447,641.447" transform="rotate(0 0 0)" fill="green" stroke="black" stroke-width="0.5" />
<polygon points="366.447,641.447 366.447,656.447 476.447,656.447 476.447,641.447" transform="rotate(0 0 0)" fill="green" stroke="black" stroke-width="0.5" />
<polygon points="476.447,641.447 476.447,656.447 586.447,656.447 586.447,641.447" transform="rotate(0 0 0)" fill="green" stroke="black" stroke-width="0.5" />
<polygon points="586.447,641.447 586.447,656.447 696.447,656.447 696.447,641.447" transform="rotate(0 0 0)" fill="green" stroke="black" stroke-width="0.5" />
<polygon points="696.447,641.447 696.447,656.447 806.447,656.447 806.447,641.447" transform="rotate(0 0 0)" fill="green" stroke="black" stroke-width="0.5" />
<polygon points="146.447,656.447 146.447,671.447 256.447,671.447 256.447,656.447" transform="rotate(0 0 0)" fill="green" stroke="black" stroke-width="0.5" />
<polygon points="256.447,656.447 256.447,671.447 366.447,671.447 366.447,656.447" transform="rotate(0 0 0)" fill="green" stroke="black" stroke-width="0.5" />
<polygon points="366.447,656.447 366.447,671.447 476.447,671.447 476.447,656.447" transform="rotate(0 0 0)" fill="green" stroke="black" stroke-width="0.5" />
<polygon points="476.447,656.447 476.447,671.447 586.447,671.447 586.447,656.447" transform="rotate(0 0 0)" fill="green" stroke="black" stroke-width="0.5" />
<polygon points="586.447,656.447 586.447,671.447 696.447,671.447 696.447,656.447" transform="rotate(0 0 0)" fill="green" stroke="black" stroke-width="0.5" />
<polygon points="696.447,656.447 696.447,671.447 806.447,671.447 806.447,656.447" transform="rotate(0 0 0)" fill="green" stroke="black" stroke-width="0.5" />
<polygon points="146.447,671.447 146.447,686.447 256.447,686.447 256.447,671.447" transform="rotate(0 0 0)" fill="green" stroke="black" stroke-width="0.5" />
<polygon points="256.447,671.447 256.447,686.447 366.447,686.447 366.447,671.447" transform="rotate(0 0 0)" fill="green" stroke="black" stroke-width="0.5" />
<polygon points="366.447,671.447 366.447,686.447 476.447,686.447 476.447,671.447" transform="rotate(0 0 0)" fill="green" stroke="black" stroke-width="0.5" />
<polygon points="476.447,671.447 476.447,686.447 586.447,686.447 586.447,671.447" transform="rotate(0 0 0)" fill="green" stroke="black" stroke-width="0.5" />
<polygon points="586.447,671.447 586.447,686.447 696.447,686.447 696.447,671.447" transform="rotate(0 0 0)" fill="green" stroke="black" stroke-width="0.5" />
<polygon points="696.447,671.447 696.447,686.447 806.447,686.447 806.447,671.447" transform="rotate(0 0 0)" fill="green" stroke="black" stroke-width="0.5" />
<polygon points="146.447,686.447 146.447,701.447 256.447,701.447 256.447,686.447" transform="rotate(0 0 0)" fill="green" stroke="black" stroke-width="0.5" />
<polygon points="256.447,686.447 256.447,701.447 366.447,701.447 366.447,686.447" transform="rotate(0 0 0)" fill="green" stroke="black" stroke-width="0.5" />
<polygon points="366.447,686.447 366.447,701.447 476.447,701.447 476.447,686.447" transform="rotate(0 0 0)" fill="green" stroke="black" stroke-width="0.5" />
<polygon points="476.447,686.447 476.447,701.447 586.447,701.447 586.447,686.447" transform="rotate(0 0 0)" fill="green" stroke="black" stroke-width="0.5" />
<polygon points="586.447,686.447 586.447,701.447 696.447,701.447 696.447,686.447" transform="rotate(0 0 0)" fill="green" stroke="black" stroke-width="0.5" />
<polygon points="696.447,686.447 696.447,701.447 806.447,701.447 806.447,686.447" transform="rotate(0 0 0)" fill="green" stroke="black" stroke-width="0.5" />
<polygon points="146.447,701.447 146.447,716.447 256.447,716.447 256.447,701.447" transform="rotate(0 0 0)" fill="green" stroke="black" stroke-width="0.5" />
<polygon points="256.447,701.447 256.447,716.447 366.447,716.447 366.447,701.447" transform="rotate(0 0 0)" fill="green" stroke="black" stroke-width="0.5" />
<polygon points="366.447,701.447 366.447,716.447 476.447,716.447 476.447,701.447" transform="rotate(0 0 0)" fill="green" stroke="black" stroke-width="0.5" />
<polygon points="476.447,701.447 476.447,716.447 586.447,716.447 586.447,701.447" transform="rotate(0 0 0)" fill="green" stroke="black" stroke-width="0.5" />
<polygon points="586.447,701.447 586.447,716.447 696.447,716.447 696.447,701.447" transform="rotate(0 0 0)" fill="green" stroke="black" stroke-width="0.5" />
<polygon points="696.447,701.447 696.447,716.447 806.447,716.447 806.447,701.447" transform="rotate(0 0 0)" fill="green" stroke="black" stroke-width="0.5" />
<polygon points="146.447,716.447 146.447,731.447 256.447,731.447 256.447,716.447" transform="rotate(0 0 0)" fill="green" stroke="black" stroke-width="0.5" />
<polygon points="256.447,716.447 256.447,731.447 366.447,731.447 366.447,716.447" transform="rotate(0 0 0)" fill="green" stroke="black" stroke-width="0.5" />
<polygon points="366.447,716.447 366.447,731.447 476.447,731.447 476.447,716.447" transform="rotate(0 0 0)" fill="green" stroke="black" stroke-width="0.5" />
<polygon points="476.447,716.447 476.447,731.447 586.447,731.447 586.447,716.447" transform="rotate(0 0 0)" fill="green" stroke="black" stroke-width="0.5" />
<polygon points="586.447,716.447 586.447,731.447 696.447,731.447 696.447,716.447" transform="rotate(0 0 0)" fill="green" stroke="black" stroke-width="0.5" />
<polygon points="696.447,716.447 696.447,731.447 806.447,731.447 806.447,716.447" transform="rotate(0 0 0)" fill="green" stroke="black" stroke-width="0.5" />
<polygon points="146.447,731.447 146.447,746.447 256.447,746.447 256.447,731.447" transform="rotate(0 0 0)" fill="green" stroke="black" stroke-width="0.5" />
<polygon points="256.447,731.447 256.447,746.447 366.447,746.447 366.447,731.447" transform="rotate(0 0 0)" fill="green" stroke="black" stroke-width="0.5" />
<polygon points="366.447,731.447 366.447,746.447 476.447,746.447 476.447,731.447" transform="rotate(0 0 0)" fill="green" stroke="black" stroke-width="0.5" />
<polygon points="476.447,731.447 476.447,746.447 586.447,746.447 586.447,731.447" transform="rotate(0 0 0)" fill="green" stroke="black" stroke-width="0.5" />
<polygon points="586.447,731.447 586.447,746.447 696.447,746.447 696.447,731.447" transform="rotate(0 0 0)" fill="green" stroke="black" stroke-width="0.5" />
<polygon points="696.447,731.447 696.447,746.447 806.447,746.447 806.447,731.447" transform="rotate(0 0 0)" fill="green" stroke="black" stroke-width="0.5" />
<polygon points="146.447,746.447 146.447,761.447 256.447,761.447 256.447,746.447" transform="rotate(0 0 0)" fill="green" stroke="black" stroke-width="0.5" />
<polygon points="256.447,746.447 256.447,761.447 366.447,761.447 366.447,746.447" transform="rotate(0 0 0)" fill="green" stroke="black" stroke-width="0.5" />
<polygon points="366.447,746.447 366.447,761.447 476.447,761.447 476.447,746.447" transform="rotate(0 0 0)" fill="green" stroke="black" stroke-width="0.5" />
<polygon points="476.447,746.447 476.447,761.447 586.447,761.447 586.447,746.447" transform="rotate(0 0 0)" fill="green" stroke="black" stroke-width="0.5" />
<polygon points="586.447,746.447 586.447,761.447 696.447,761.447 696.447,746.447" transform="rotate(0 0 0)" fill="green" stroke="black" stroke-width="0.5" />
<polygon points="696.447,746.447 696.447,761.447 806.447,761.447 806.447,746.447" transform="rotate(0 0 0)" fill="green" stroke="black" stroke-width="0.5" />
<polygon points="146.447,761.447 146.447,776.447 256.447,776.447 256.447,761.447" transform="rotate(0 0 0)" fill="green" stroke="black" stroke-width="0.5" />
<polygon points="256.447,761.447 256.447,776.447 366.447,776.447 366.447,761.447" transform="rotate(0 0 0)" fill="green" stroke="black" stroke-width="0.5" />
<polygon points="366.447,761.447 366.447,776.447 476.447,776.447 476.447,761.447" transform="rotate(0 0 0)" fill="green" stroke="black" stroke-width="0.5" />
<polygon points="476.447,761.447 476.447,776.447 586.447,776.447 586.447,761.447" transform="rotate(0 0 0)" fill="green" stroke="black" stroke-width="0.5" />
<polygon points="586.447,761.447 586.447,776.447 696.447,776.447 696.447,761.447" transform="rotate(0 0 0)" fill="green" stroke="black" stroke-width="0.5" />
<polygon points="696.447,761.447 696.447,776.447 806.447,776.447 806.447,761.447" transform="rotate(0 0 0)" fill="green" stroke="black" stroke-width="0.5" />
<polygon points="146.447,776.447 146.447,791.447 256.447,791.447 256.447,776.447" transform="rotate(0 0 0)" fill="green" stroke="black" stroke-width="0.5" />
<polygon points="256.447,776.447 256.447,791.447 366.447,791.447 366.447,776.447" transform="rotate(0 0 0)" fill="green" stroke="black" stroke-width="0.5" />
<polygon points="366.447,776.447 366.447,791.447 476.447,791.447 476.447,776.447" transform="rotate(0 0 0)" fill="green" stroke="black" stroke-width="0.5" />
<polygon points="476.447,776.447 476.447,791.447 586.447,791.447 586.447,776.447" transform="rotate(0 0 0)" fill="green" stroke="black" stroke-width="0.5" />
<polygon points="586.447,776.447 586.447,791.447 696.447,791.447 696.447,776.447" transform="rotate(0 0 0)" fill="green" stroke="black" stroke-width="0.5" />
<polygon points="696.447,776.447 696.447,791.447 806.447,791.447 806.447,776.447" transform="rotate(0 0 0)" fill="green" stroke="black" stroke-width="0.5" />
<polygon points="146.447,791.447 146.447,806.447 256.447,806.447 256.447,791.447" transform="rotate(0 0 0)" fill="green" stroke="black" stroke-width="0.5" />
<polygon points="256.447,791.447 256.447,806.447 366.447,806.447 366.447,791.447" transform="rotate(0 0 0)" fill="green" stroke="black" stroke-width="0.5" />
<polygon points="366.447,791.447 366.447,806.447 476.447,806.447 476.447,791.447" transform="rotate(0 0 0)" fill="green" stroke="black" stroke-width="0.5" />
<polygon points="476.447,791.447 476.447,806.447 586.447,806.447 586.447,791.447" transform="rotate(0 0 0)" fill="green" stroke="black" stroke-width="0.5" />
<polygon points="586.447,791.447 586.447,806.447 696.447,806.447 696.447,791.447" transform="rotate(0 0 0)" fill="green" stroke="black" stroke-width="0.5" />
<polygon points="696.447,791.447 696.447,806.447 806.447,806.447 806.447,791.447" transform="rotate(0 0 0)" fill="green" stroke="black" stroke-width="0.5" />
<polygon points="146.447,806.447 146.447,821.447 256.447,821.447 256.447,806.447" transform="rotate(0 0 0)" fill="green" stroke="black" stroke-width="0.5" />
<polygon points="256.447,806.447 256.447,821.447 366.447,821.447 366.447,806.447" transform="rotate(0 0 0)" fill="green" stroke="black" stroke-width="0.5" />
<polygon points="366.447,806.447 366.447,821.447 476.447,821.447 476.447,806.447" transform="rotate(0 0 0)" fill="green" stroke="black" stroke-width="0.5" />
<polygon points="476.447,806.447 476.447,821.447 586.447,821.447 586.447,806.447" transform="rotate(0 0 0)" fill="green" stroke="black" stroke-width="0.5" />
<polygon points="586.447,806.447 586.447,821.447 696.447,821.447 696.447,806.447" transform="rotate(0 0 0)" fill="green" stroke="black" stroke-width="0.5" />
<polygon points="696.447,806.447 696.447,821.447 806.447,821.447 806.447,806.447" transform="rotate(0 0 0)" fill="green" stroke="black" stroke-width="0.5" />
<polygon points="146.447,821.447 146.447,836.447 256.447,836.447 256.447,821.447" transform="rotate(0 0 0)" fill="green" stroke="black" stroke-width="0.5" />
<polygon points="256.447,821.447 256.447,836.447 366.447,836.447 366.447,821.447" transform="rotate(0 0 0)" fill="green" stroke="black" stroke-width="0.5" />
<polygon points="366.447,821.447 366.447,836.447 476.447,836.447 476.447,821.447" transform="rotate(0 0 0)" fill="green" stroke="black" stroke-width="0.5" />
<polygon points="476.447,821.447 476.447,836.447 586.447,836.447 586.447,821.447" transform="rotate(0 0 0)" fill="green" stroke="black" stroke-width="0.5" />
<polygon points="586.447,821.447 586.447,836.447 696.447,836.447 696.447,821.447" transform="rotate(0 0 0)" fill="green" stroke="black" stroke-width="0.5" />
<polygon points="696.447,821.447 696.447,836.447 806.447,836.447 806.447,821.447" transform="rotate(0 0 0)" fill="green" stroke="black" stroke-width="0.5" />
<polygon points="146.447,836.447 146.447,851.447 256.447,851.447 256.447,836.447" transform="rotate(0 0 0)" fill="green" stroke="black" stroke-width="0.5" />
<polygon points="256.447,836.447 256.447,851.447 366.447,851.447 366.447,836.447" transform="rotate(0 0 0)" fill="green" stroke="black" stroke-width="0.5" />
<polygon points="366.447,836.447 366.447,851.447 476.447,851.447 476.447,836.447" transform="rotate(0 0 0)" fill="green" stroke="black" stroke-width="0.5" />
<polygon points="476.447,836.447 476.447,851.447 586.447,851.447 586.447,836.447" transform="rotate(0 0 0)" fill="green" stroke="black" stroke-width="0.5" />
<polygon points="586.447,836.447 586.447,851.447 696.447,851.447 696.447,836.447" transform="rotate(0 0 0)" fill="green" stroke="black" stroke-width="0.5" />
<polygon points="696.447,836.447 696.447,851.447 806.447,851.447 806.447,836.447" transform="rotate(0 0 0)" fill="green" stroke="black" stroke-width="0.5" />
<polygon points="806.447,146.447 806.447,256.447 821.447,256.447 821.447,146.447" transform="rotate(0 0 0)" fill="green" stroke="black" stroke-width="0.5" />
<polygon points="806.447,256.447 806.447,366.447 821.447,366.447 821.447,256.447" transform="rotate(0 0 0)" fill="green" stroke="black" stroke-width="0.5" />
<polygon points="806.447,366.447 806.447,476.447 821.447,476.447 821.447,366.447" transform="rotate(0 0 0)" fill="green" stroke="black" stroke-width="0.5" />
<polygon points="806.447,476.447 806.447,586.447 821.447,586.447 821.447,476.447" transform="rotate(0 0 0)" fill="green" stroke="black" stroke-width="0.5" />
<polygon points="806.447,586.447 806.447,696.447 821.447,696.447 821.447,586.447" transform="rotate(0 0 0)" fill="green" stroke="black" stroke-width="0.5" />
<polygon points="806.447,696.447 806.447,806.447 821.447,806.447 821.447,696.447" transform="rotate(0 0 0)" fill="green" stroke="black" stroke-width="0.5" />
<polygon points="821.447,146.447 821.447,256.447 836.447,256.447 836.447,146.447" transform="rotate(0 0 0)" fill="green" stroke="black" stroke-width="0.5" />
<polygon points="821.447,256.447 821.447,366.447 836.447,366.447 836.447,256.447" transform="rotate(0 0 0)" fill="green" stroke="black" stroke-width="0.5" />
<polygon points="821.447,366.447 821.447,476.447 836.447,476.447 836.447,366.447" transform="rotate(0 0 0)" fill="green" stroke="black" stroke-width="0.5" />
<polygon points="821.447,476.447 821.447,586.447 836.447,586.447 836.447,476.447" transform="rotate(0 0 0)" fill="green" stroke="black" stroke-width="0.5" />
<polygon points="821.447,586.447 821.447,696.447 836.447,696.447 836.447,586.447" transform="rotate(0 0 0)" fill="green" stroke="black" stroke-width="0.5" />
<polygon points="821.447,696.447 821.447,806.447 836.447,806.447 836.447,696.447" transform="rotate(0 0 0)" fill="green" stroke="black" stroke-width="0.5" />
<polygon points="836.447,146.447 836.447,256.447 851.447,256.447 851.447,146.447" transform="rotate(0 0 0)" fill="green" stroke="black" stroke-width="0.5" />
<polygon points="836.447,256.447 836.447,366.447 851.447,366.447 851.447,256.447" transform="rotate(0 0 0)" fill="green" stroke="black" stroke-width="0.5" />
<polygon points="836.447,366.447 836.447,476.447 851.447,476.447 851.447,366.447" transform="rotate(0 0 0)" fill="green" stroke="black" stroke-width="0.5" />
<polygon points="836.447,476.447 836.447,586.447 851.447,586.447 851.447,476.447" transform="rotate(0 0 0)" fill="green" stroke="black" stroke-width="0.5" />
<polygon points="836.447,586.447 836.447,696.447 851.447,696.447 851.447,586.447" transform="rotate(0 0 0)" fill="green" stroke="black" stroke-width="0.5" />
<polygon points="836.447,696.447 836.447,806.447 851.447,806.447 851.447,696.447" transform="rotate(0 0 0)" fill="green" stroke="black" stroke-width="0.5" />
<polygon points="500,853.553 500,868.553 610,868.553 610,853.553" transform="rotate(0 500 500)" fill="green" stroke="black" stroke-width="0.5" />
<polygon points="390,853.553 390,868.553 500,868.553 500,853.553" transform="rotate(0 500 500)" fill="green" stroke="black" stroke-width="0.5" />
<polygon points="610,853.553 610,868.553 720,868.553 720,853.553" transform="rotate(0 500 500)" fill="green" stroke="black" stroke-width="0.5" />
<polygon points="280,853.553 280,868.553 390,868.553 390,853.553" transform="rotate(0 500 500)" fill="green" stroke="black" stroke-width="0.5" />
<polygon points="720,853.553 720,868.553 830,868.553 830,853.553" transform="rotate(0 500 500)" fill="green" stroke="black" stroke-width="0.5" />
<polygon points="170,853.553 170,868.553 280,868.553 280,853.553" transform="rotate(0 500 500)" fill="green" stroke="black" stroke-width="0.5" />
<polygon points="500,868.553 500,883.553 610,883.553 610,868.553" transform="rotate(0 500 500)" fill="green" stroke="black" stroke-width="0.5" />
<polygon points="390,868.553 390,883.553 500,883.553 500,868.553" transform="rotate(0 500 500)" fill="green" stroke="black" stroke-width="0.5" />
<polygon points="610,868.553 610,883.553 720,883.553 720,868.553" transform="rotate(0 500 500)" fill="green" stroke="black" stroke-width="0.5" />
<polygon points="280,868.553 280,883.553 390,883.553 390,868.553" transform="rotate(0 500 500)" fill="green" stroke="black" stroke-width="0.5" />
<polygon points="500,883.553 500,898.553 610,898.553 610,883.553" transform="rotate(0 500 500)" fill="green" stroke="black" stroke-width="0.5" />
<polygon points="390,883.553 390,898.553 500,898.553 500,883.553" transform="rotate(0 500 500)" fill="green" stroke="black" stroke-width="0.5" />
<polygon points="610,883.553 610,898.553 720,898.553 720,883.553" transform="rotate(0 500 500)" fill="green" stroke="black" stroke-width="0.5" />
<polygon points="280,883.553 280,898.553 390,898.553 390,883.553" transform="rotate(0 500 500)" fill="green" stroke="black" stroke-width="0.5" />
<polygon points="500,898.553 500,913.553 610,913.553 610,898.553" transform="rotate(0 500 500)" fill="green" stroke="black" stroke-width="0.5" />
<polygon points="390,898.553 390,913.553 500,913.553 500,898.553" transform="rotate(0 500 500)" fill="green" stroke="black" stroke-width="0.5" />
<polygon points="610,898.553 610,913.553 720,913.553 720,898.553" transform="rotate(0 500 500)" fill="green" stroke="black" stroke-width="0.5" />
<polygon points="280,898.553 280,913.553 390,913.553 390,898.553" transform="rotate(0 500 500)" fill="green" stroke="black" stroke-width="0.5" />
<polygon points="500,913.553 500,928.553 610,928.553 610,913.553" transform="rotate(0 500 500)" fill="green" stroke="black" stroke-width="0.5" />
<polygon points="390,913.553 390,928.553 500,928.553 500,913.553" transform="rotate(0 500 500)" fill="green" stroke="black" stroke-width="0.5" />
<polygon points="610,913.553 610,928.553 720,928.553 720,913.553" transform="rotate(0 500 500)" fill="green" stroke="black" stroke-width="0.5" />
<polygon points="280,913.553 280,928.553 390,928.553 390,913.553" transform="rotate(0 500 500)" fill="green" stroke="black" stroke-width="0.5" />
<polygon points="500,928.553 500,943.553 610,943.553 610,928.553" transform="rotate(0 500 500)" fill="green" stroke="black" stroke-width="0.5" />
<polygon points="390,928.553 390,943.553 500,943.553 500,928.553" transform="rotate(0 500 500)" fill="green" stroke="black" stroke-width="0.5" />
<polygon points="610,928.553 610,943.553 720,943.553 720,928.553" transform="rotate(0 500 500)" fill="green" stroke="black" stroke-width="0.5" />
<polygon points="280,928.553 280,943.553 390,943.553 390,928.553" transform="rotate(0 500 500)" fill="green" stroke="black" stroke-width="0.5" />
<polygon points="500,943.553 500,958.553 610,958.553 610,943.553" transform="rotate(0 500 500)" fill="green" stroke="black" stroke-width="0.5" />
<polygon points="390,943.553 390,958.553 500,958.553 500,943.553" transform="rotate(0 500 500)" fill="green" stroke="black" stroke-width="0.5" />
<polygon points="500,958.553 500,973.553 610,973.553 610,958.553" transform="rotate(0 500 500)" fill="green" stroke="black" stroke-width="0.5" />
<polygon points="390,958.553 390,973.553 500,973.553 500,958.553" transform="rotate(0 500 500)" fill="green" stroke="black" stroke-width="0.5" />
<polygon points="500,853.553 500,868.553 610,868.553 610,853.553" transform="rotate(90 500 500)" fill="green" stroke="black" stroke-width="0.5" />
<polygon points="390,853.553 390,868.553 500,868.553 500,853.553" transform="rotate(90 500 500)" fill="green" stroke="black" stroke-width="0.5" />
<polygon points="610,853.553 610,868.553 720,868.553 720,853.553" transform="rotate(90 500 500)" fill="green" stroke="black" stroke-width="0.5" />
<polygon points="280,853.553 280,868.553 390,868.553 390,853.553" transform="rotate(90 500 500)" fill="green" stroke="black" stroke-width="0.5" />
<polygon points="720,853.553 720,868.553 830,868.553 830,853.553" transform="rotate(90 500 500)" fill="green" stroke="black" stroke-width="0.5" />
<polygon points="170,853.553 170,868.553 280,868.553 280,853.553" transform="rotate(90 500 500)" fill="green" stroke="black" stroke-width="0.5" />
<polygon points="500,868.553 500,883.553 610,883.553 610,868.553" transform="rotate(90 500 500)" fill="green" stroke="black" stroke-width="0.5" />
<polygon points="390,868.553 390,883.553 500,883.553 500,868.553" transform="rotate(90 500 500)" fill="green" stroke="black" stroke-width="0.5" />
<polygon points="610,868.553 610,883.553 720,883.553 720,868.553" transform="rotate(90 500 500)" fill="green" stroke="black" stroke-width="0.5" />
<polygon points="280,868.553 280,883.553 390,883.553 390,868.553" transform="rotate(90 500 500)" fill="green" stroke="black" stroke-width="0.5" />
<polygon points="500,883.553 500,898.553 610,898.553 610,883.553" transform="rotate(90 500 500)" fill="green" stroke="black" stroke-width="0.5" />
<polygon points="390,883.553 390,898.553 500,898.553 500,883.553" transform="rotate(90 500 500)" fill="green" stroke="black" stroke-width="0.5" />
<polygon points="610,883.553 610,898.553 720,898.553 720,883.553" transform="rotate(90 500 500)" fill="green" stroke="black" stroke-width="0.5" />
<polygon points="280,883.553 280,898.553 390,898.553 390,883.553" transform="rotate(90 500 500)" fill="green" stroke="black" stroke-width="0.5" />
<polygon points="500,898.553 500,913.553 610,913.553 610,898.553" transform="rotate(90 500 500)" fill="green" stroke="black" stroke-width="0.5" />
<polygon points="390,898.553 390,913.553 500,913.553 500,898.553" transform="rotate(90 500 500)" fill="green" stroke="black" stroke-width="0.5" />
<polygon points="610,898.553 610,913.553 720,913.553 720,898.553" transform="rotate(90 500 500)" fill="green" stroke="black" stroke-width="0.5" />
<polygon points="280,898.553 280,913.553 390,913.553 390,898.553" transform="rotate(90 500 500)" fill="green" stroke="black" stroke-width="0.5" />
<polygon points="500,913.553 500,928.553 610,928.553 610,913.553" transform="rotate(90 500 500)" fill="green" stroke="black" stroke-width="0.5" />
<polygon points="390,913.553 390,928.553 500,928.553 500,913.553" transform="rotate(90 500 500)" fill="green" stroke="black" stroke-width="0.5" />
<polygon points="610,913.553 610,928.553 720,928.553 720,913.553" transform="rotate(90 500 500)" fill="green" stroke="black" stroke-width="0.5" />
<polygon points="280,913.553 280,928.553 390,928.553 390,913.553" transform="rotate(90 500 500)" fill="green" stroke="black" stroke-width="0.5" />
<polygon points="500,928.553 500,943.553 610,943.553 610,928.553" transform="rotate(90 500 500)" fill="green" stroke="black" stroke-width="0.5" />
<polygon points="390,928.553 390,943.553 500,943.553 500,928.553" transform="rotate(90 500 500)" fill="green" stroke="black" stroke-width="0.5" />
<polygon points="610,928.553 610,943.553 720,943.553 720,928.553" transform="rotate(90 500 500)" fill="green" stroke="black" stroke-width="0.5" />
<polygon points="280,928.553 280,943.553 390,943.553 390,928.553" transform="rotate(90 500 500)" fill="green" stroke="black" stroke-width="0.5" />
<polygon points="500,943.553 500,958.553 610,958.553 610,943.553" transform="rotate(90 500 500)" fill="green" stroke="black" stroke-width="0.5" />
<polygon points="390,943.553 390,958.553 500,958.553 500,943.553" transform="rotate(90 500 500)" fill="green" stroke="black" stroke-width="0.5" />
<polygon points="500,958.553 500,973.553 610,973.553 610,958.553" transform="rotate(90 500 500)" fill="green" stroke="black" stroke-width="0.5" />
<polygon points="390,958.553 390,973.553 500,973.553 500,958.553" transform="rotate(90 500 500)" fill="green" stroke="black" stroke-width="0.5" />
<polygon points="500,853.553 500,868.553 610,868.553 610,853.553" transform="rotate(180 500 500)" fill="green" stroke="black" stroke-width="0.5" />
<polygon points="390,853.553 390,868.553 500,868.553 500,853.553" transform="rotate(180 500 500)" fill="green" stroke="black" stroke-width="0.5" />
<polygon points="610,853.553 610,868.553 720,868.553 720,853.553" transform="rotate(180 500 500)" fill="green" stroke="black" stroke-width="0.5" />
<polygon points="280,853.553 280,868.553 390,868.553 390,853.553" transform="rotate(180 500 500)" fill="green" stroke="black" stroke-width="0.5" />
<polygon points="720,853.553 720,868.553 830,868.553 830,853.553" transform="rotate(180 500 500)" fill="green" stroke="black" stroke-width="0.5" />
<polygon points="170,853.553 170,868.553 280,868.553 280,853.553" transform="rotate(180 500 500)" fill="green" stroke="black" stroke-width="0.5" />
<polygon points="500,868.553 500,883.553 610,883.553 610,868.553" transform="rotate(180 500 500)" fill="green" stroke="black" stroke-width="0.5" />
<polygon points="390,868.553 390,883.553 500,883.553 500,868.553" transform="rotate(180 500 500)" fill="green" stroke="black" stroke-width="0.5" />
<polygon points="610,868.553 610,883.553 720,883.553 720,868.553" transform="rotate(180 500 500)" fill="green" stroke="black" stroke-width="0.5" />
<polygon points="280,868.553 280,883.553 390,883.553 390,868.553" transform="rotate(180 500 500)" fill="green" stroke="black" stroke-width="0.5" />
<polygon points="500,883.553 500,898.553 610,898.553 610,883.553" transform="rotate(180 500 500)" fill="green" stroke="black" stroke-width="0.5" />
<polygon points="390,883.553 390,898.553 500,898.553 500,883.553" transform="rotate(180 500 500)" fill="green" stroke="black" stroke-width="0.5" />
<polygon points="610,883.553 610,898.553 720,898.553 720,883.553" transform="rotate(180 500 500)" fill="green" stroke="black" stroke-width="0.5" />
<polygon points="280,883.553 280,898.553 390,898.553 390,883.553" transform="rotate(180 500 500)" fill="green" stroke="black" stroke-width="0.5" />
<polygon points="500,898.553 500,913.553 610,913.553 610,898.553" transform="rotate(180 500 500)" fill="green" stroke="black" stroke-width="0.5" />
<polygon points="390,898.553 390,913.553 500,913.553 500,898.553" transform="rotate(180 500 500)" fill="green" stroke="black" stroke-width="0.5" />
<polygon points="610,898.553 610,913.553 720,913.553 720,898.553" transform="rotate(180 500 500)" fill="green" stroke="black" stroke-width="0.5" />
<polygon points="280,898.553 280,913.553 390,913.553 390,898.553" transform="rotate(180 500 500)" fill="green" stroke="black" stroke-width="0.5" />
<polygon points="500,913.553 500,928.553 610,928.553 610,913.553" transform="rotate(180 500 500)" fill="green" stroke="black" stroke-width="0.5" />
<polygon points="390,913.553 390,928.553 500,928.553 500,913.553" transform="rotate(180 500 500)" fill="green" stroke="black" stroke-width="0.5" />
<polygon points="610,913.553 610,928.553 720,928.553 720,913.553" transform="rotate(180 500 500)" fill="green" stroke="black" stroke-width="0.5" />
<polygon points="280,913.553 280,928.553 390,928.553 390,913.553" transform="rotate(180 500 500)" fill="green" stroke="black" stroke-width="0.5" />
<polygon points="500,928.553 500,943.553 610,943.553 610,928.553" transform="rotate(180 500 500)" fill="green" stroke="black" stroke-width="0.5" />
<polygon points="390,928.553 390,943.553 500,943.553 500,928.553" transform="rotate(180 500 500)" fill="green" stroke="black" stroke-width="0.5" />
<polygon points="610,928.553 610,943.553 720,943.553 720,928.553" transform="rotate(180 500 500)" fill="green" stroke="black" stroke-width="0.5" />
<polygon points="280,928.553 280,943.553 390,943.553 390,928.553" transform="rotate(180 500 500)" fill="green" stroke="black" stroke-width="0.5" />
<polygon points="500,943.553 500,958.553 610,958.553 610,943.553" transform="rotate(180 500 500)" fill="green" stroke="black" stroke-width="0.5" />
<polygon points="390,943.553 390,958.553 500,958.553 500,943.553" transform="rotate(180 500 500)" fill="green" stroke="black" stroke-width="0.5" />
<polygon points="500,958.553 500,973.553 610,973.553 610,958.553" transform="rotate(180 500 500)" fill="green" stroke="black" stroke-width="0.5" />
<polygon points="390,958.553 390,973.553 500,973.553 500,958.553" transform="rotate(180 500 500)" fill="green" stroke="black" stroke-width="0.5" />
<polygon points="500,853.553 500,868.553 610,868.553 610,853.553" transform="rotate(270 500 500)" fill="green" stroke="black" stroke-width="0.5" />
<polygon points="390,853.553 390,868.553 500,868.553 500,853.553" transform="rotate(270 500 500)" fill="green" stroke="black" stroke-width="0.5" />
<polygon points="610,853.553 610,868.553 720,868.553 720,853.553" transform="rotate(270 500 500)" fill="green" stroke="black" stroke-width="0.5" />
<polygon points="280,853.553 280,868.553 390,868.553 390,853.553" transform="rotate(270 500 500)" fill="green" stroke="black" stroke-width="0.5" />
<polygon points="720,853.553 720,868.553 830,868.553 830,853.553" transform="rotate(270 500 500)" fill="green" stroke="black" stroke-width="0.5" />
<polygon points="170,853.553 170,868.553 280,868.553 280,853.553" transform="rotate(270 500 500)" fill="green" stroke="black" stroke-width="0.5" />
<polygon points="500,868.553 500,883.553 610,883.553 610,868.553" transform="rotate(270 500 500)" fill="green" stroke="black" stroke-width="0.5" />
<polygon points="390,868.553 390,883.553 500,883.553 500,868.553" transform="rotate(270 500 500)" fill="green" stroke="black" stroke-width="0.5" />
<polygon points="610,868.553 610,883.553 720,883.553 720,868.553" transform="rotate(270 500 500)" fill="green" stroke="black" stroke-width="0.5" />
<polygon points="280,868.553 280,883.553 390,883.553 390,868.553" transform="rotate(270 500 500)" fill="green" stroke="black" stroke-width="0.5" />
<polygon points="500,883.553 500,898.553 610,898.553 610,883.553" transform="rotate(270 500 500)" fill="green" stroke="black" stroke-width="0.5" />
<polygon points="390,883.553 390,898.553 500,898.553 500,883.553" transform="rotate(270 500 500)" fill="green" stroke="black" stroke-width="0.5" />
<polygon points="610,883.553 610,898.553 720,898.553 720,883.553" transform="rotate(270 500 500)" fill="green" stroke="black" stroke-width="0.5" />
<polygon points="280,883.553 280,898.553 390,898.553 390,883.553" transform="rotate(270 500 500)" fill="green" stroke="black" stroke-width="0.5" />
<polygon points="500,898.553 500,913.553 610,913.553 610,898.553" transform="rotate(270 500 500)" fill="green" stroke="black" stroke-width="0.5" />
<polygon points="390,898.553 390,913.553 500,913.553 500,898.553" transform="rotate(270 500 500)" fill="green" stroke="black" stroke-width="0.5" />
<polygon points="610,898.553 610,913.553 720,913.553 720,898.553" transform="rotate(270 500 500)" fill="green" stroke="black" stroke-width="0.5" />
<polygon points="280,898.553 280,913.553 390,913.553 390,898.553" transform="rotate(270 500 500)" fill="green" stroke="black" stroke-width="0.5" />
<polygon points="500,913.553 500,928.553 610,928.553 610,913.553" transform="rotate(270 500 500)" fill="green" stroke="black" stroke-width="0.5" />
<polygon points="390,913.553 390,928.553 500,928.553 500,913.553" transform="rotate(270 500 500)" fill="green" stroke="black" stroke-width="0.5" />
<polygon points="610,913.553 610,928.553 720,928.553 720,913.553" transform="rotate(270 500 500)" fill="green" stroke="black" stroke-width="0.5" />
<polygon points="280,913.553 280,928.553 390,928.553 390,913.553" transform="rotate(270 500 500)" fill="green" stroke="black" stroke-width="0.5" />
<polygon points="500,928.553 500,943.553 610,943.553 610,928.553" transform="rotate(270 500 500)" fill="green" stroke="black" stroke-width="0.5" />
<polygon points="390,928.553 390,943.553 500,943.553 500,928.553" transform="rotate(270 500 500)" fill="green" stroke="black" stroke-width="0.5" />
<polygon points="610,928.553 610,943.553 720,943.553 720,928.553" transform="rotate(270 500 500)" fill="green" stroke="black" stroke-width="0.5" />
<polygon points="280,928.553 280,943.553 390,943.553 390,928.553" transform="rotate(270 500 500)" fill="green" stroke="black" stroke-width="0.5" />
<polygon points="500,943.553 500,958.553 610,958.553 610,943.553" transform="rotate(270 500 500)" fill="green" stroke="black" stroke-width="0.5" />
<polygon points="390,943.553 390,958.553 500,958.553 500,943.553" transform="rotate(270 500 500)" fill="green" stroke="black" stroke-width="0.5" />
<polygon points="500,958.553 500,973.553 610,973.553 610,958.553" transform="rotate(270 500 500)" fill="green" stroke="black" stroke-width="0.5" />
<polygon points="390,958.553 390,973.553 500,973.553 500,958.553" transform="rotate(270 500 500)" fill="green" stroke="black" stroke-width="0.5" />
</svg>
