<svg version="1.1" baseProfile="full" xmlns="http://www.w3.org/2000/svg">
<polygon points="300,0 0,519.615 600,519.615" transform="rotate(0 0 0)" fill="blue" stroke="black" stroke-width="0.5" />
<polygon points="25,504.615 25,519.615 135,519.615 135,504.615" transform="rotate(0 0 0)" fill="green" stroke="black" stroke-width="0.5" />
<polygon points="135,504.615 135,519.615 245,519.615 245,504.615" transform="rotate(0 0 0)" fill="green" stroke="black" stroke-width="0.5" />
<polygon points="245,504.615 245,519.615 355,519.615 355,504.615" transform="rotate(0 0 0)" fill="green" stroke="black" stroke-width="0.5" />
<polygon points="355,504.615 355,519.615 465,519.615 465,504.615" transform="rotate(0 0 0)" fill="green" stroke="black" stroke-width="0.5" />
<polygon points="465,504.615 465,519.615 575,519.615 575,504.615" transform="rotate(0 0 0)" fill="green" stroke="black" stroke-width="0.5" />
<polygon points="25,489.615 25,504.615 135,504.615 135,489.615" transform="rotate(0 0 0)" fill="green" stroke="black" stroke-width="0.5" />
<polygon points="135,489.615 135,504.615 245,504.615 245,489.615" transform="rotate(0 0 0)" fill="green" stroke="black" stroke-width="0.5" />
<polygon points="245,489.615 245,504.615 355,504.615 355,489.615" transform="rotate(0 0 0)" fill="green" stroke="black" stroke-width="0.5" />
<polygon points="355,489.615 355,504.615 465,504.615 465,489.615" transform="rotate(0 0 0)" fill="green" stroke="black" stroke-width="0.5" />
<polygon points="465,489.615 465,504.615 575,504.615 575,489.615" transform="rotate(0 0 0)" fill="green" stroke="black" stroke-width="0.5" />
<polygon points="80,474.615 80,489.615 190,489.615 190,474.615" transform="rotate(0 0 0)" fill="green" stroke="black" stroke-width="0.5" />
<polygon points="190,474.615 190,489.615 300,489.615 300,474.615" transform="rotate(0 0 0)" fill="green" stroke="black" stroke-width="0.5" />
<polygon points="300,474.615 300,489.615 410,489.615 410,474.615" transform="rotate(0 0 0)" fill="green" stroke="black" stroke-width="0.5" />
<polygon points="410,474.615 410,489.615 520,489.615 520,474.615" transform="rotate(0 0 0)" fill="green" stroke="black" stroke-width="0.5" />
<polygon points="80,459.615 80,474.615 190,474.615 190,459.615" transform="rotate(0 0 0)" fill="green" stroke="black" stroke-width="0.5" />
<polygon points="190,459.615 190,474.615 300,474.615 300,459.615" transform="rotate(0 0 0)" fill="green" stroke="black" stroke-width="0.5" />
<polygon points="300,459.615 300,474.615 410,474.615 410,459.615" transform="rotate(0 0 0)" fill="green" stroke="black" stroke-width="0.5" />
<polygon points="410,459.615 410,474.615 520,474.615 520,459.615" transform="rotate(0 0 0)" fill="green" stroke="black" stroke-width="0.5" />
<polygon points="80,444.615 80,459.615 190,459.615 190,444.615" transform="rotate(0 0 0)" fill="green" stroke="black" stroke-width="0.5" />
<polygon points="190,444.615 190,459.615 300,459.615 300,444.615" transform="rotate(0 0 0)" fill="green" stroke="black" stroke-width="0.5" />
<polygon points="300,444.615 300,459.615 410,459.615 410,444.615" transform="rotate(0 0 0)" fill="green" stroke="black" stroke-width="0.5" />
<polygon points="410,444.615 410,459.615 520,459.615 520,444.615" transform="rotate(0 0 0)" fill="green" stroke="black" stroke-width="0.5" />
<polygon points="80,429.615 80,444.615 190,444.615 190,429.615" transform="rotate(0 0 0)" fill="green" stroke="black" stroke-width="0.5" />
<polygon points="190,429.615 190,444.615 300,444.615 300,429.615" transform="rotate(0 0 0)" fill="green" stroke="black" stroke-width="0.5" />
<polygon points="300,429.615 300,444.615 410,444.615 410,429.615" transform="rotate(0 0 0)" fill="green" stroke="black" stroke-width="0.5" />
<polygon points="410,429.615 410,444.615 520,444.615 520,429.615" transform="rotate(0 0 0)" fill="green" stroke="black" stroke-width="0.5" />
<polygon points="80,414.615 80,429.615 190,429.615 190,414.615" transform="rotate(0 0 0)" fill="green" stroke="black" stroke-width="0.5" />
<polygon points="190,414.615 190,429.615 300,429.615 300,414.615" transform="rotate(0 0 0)" fill="green" stroke="black" stroke-width="0.5" />
<polygon points="300,414.615 300,429.615 410,429.615 410,414.615" transform="rotate(0 0 0)" fill="green" stroke="black" stroke-width="0.5" />
<polygon points="410,414.615 410,429.615 520,429.615 520,414.615" transform="rotate(0 0 0)" fill="green" stroke="black" stroke-width="0.5" />
<polygon points="80,399.615 80,414.615 190,414.615 190,399.615" transform="rotate(0 0 0)" fill="green" stroke="black" stroke-width="0.5" />
<polygon points="190,399.615 190,414.615 300,414.615 300,399.615" transform="rotate(0 0 0)" fill="green" stroke="black" stroke-width="0.5" />
<polygon points="300,399.615 300,414.615 410,414.615 410,399.615" transform="rotate(0 0 0)" fill="green" stroke="black" stroke-width="0.5" />
<polygon points="410,399.615 410,414.615 520,414.615 520,399.615" transform="rotate(0 0 0)" fill="green" stroke="black" stroke-width="0.5" />
<polygon points="80,384.615 80,399.615 190,399.615 190,384.615" transform="rotate(0 0 0)" fill="green" stroke="black" stroke-width="0.5" />
<polygon points="190,384.615 190,399.615 300,399.615 300,384.615" transform="rotate(0 0 0)" fill="green" stroke="black" stroke-width="0.5" />
<polygon points="300,384.615 300,399.615 410,399.615 410,384.615" transform="rotate(0 0 0)" fill="green" stroke="black" stroke-width="0.5" />
<polygon points="410,384.615 410,399.615 520,399.615 520,384.615" transform="rotate(0 0 0)" fill="green" stroke="black" stroke-width="0.5" />
<polygon points="135,369.615 135,384.615 245,384.615 245,369.615" transform="rotate(0 0 0)" fill="green" stroke="black" stroke-width="0.5" />
<polygon points="245,369.615 245,384.615 355,384.615 355,369.615" transform="rotate(0 0 0)" fill="green" stroke="black" stroke-width="0.5" />
<polygon points="355,369.615 355,384.615 465,384.615 465,369.615" transform="rotate(0 0 0)" fill="green" stroke="black" stroke-width="0.5" />
<polygon points="135,354.615 135,369.615 245,369.615 245,354.615" transform="rotate(0 0 0)" fill="green" stroke="black" stroke-width="0.5" />
<polygon points="245,354.615 245,369.615 355,369.615 355,354.615" transform="rotate(0 0 0)" fill="green" stroke="black" stroke-width="0.5" />
<polygon points="355,354.615 355,369.615 465,369.615 465,354.615" transform="rotate(0 0 0)" fill="green" stroke="black" stroke-width="0.5" />
<polygon points="135,339.615 135,354.615 245,354.615 245,339.615" transform="rotate(0 0 0)" fill="green" stroke="black" stroke-width="0.5" />
<polygon points="245,339.615 245,354.615 355,354.615 355,339.615" transform="rotate(0 0 0)" fill="green" stroke="black" stroke-width="0.5" />
<polygon points="355,339.615 355,354.615 465,354.615 465,339.615" transform="rotate(0 0 0)" fill="green" stroke="black" stroke-width="0.5" />
<polygon points="135,324.615 135,339.615 245,339.615 245,324.615" transform="rotate(0 0 0)" fill="green" stroke="black" stroke-width="0.5" />
<polygon points="245,324.615 245,339.615 355,339.615 355,324.615" transform="rotate(0 0 0)" fill="green" stroke="black" stroke-width="0.5" />
<polygon points="355,324.615 355,339.615 465,339.615 465,324.615" transform="rotate(0 0 0)" fill="green" stroke="black" stroke-width="0.5" />
<polygon points="135,309.615 135,324.615 245,324.615 245,309.615" transform="rotate(0 0 0)" fill="green" stroke="black" stroke-width="0.5" />
<polygon points="245,309.615 245,324.615 355,324.615 355,309.615" transform="rotate(0 0 0)" fill="green" stroke="black" stroke-width="0.5" />
<polygon points="355,309.615 355,324.615 465,324.615 465,309.615" transform="rotate(0 0 0)" fill="green" stroke="black" stroke-width="0.5" />
<polygon points="135,294.615 135,309.615 245,309.615 245,294.615" transform="rotate(0 0 0)" fill="green" stroke="black" stroke-width="0.5" />
<polygon points="245,294.615 245,309.615 355,309.615 355,294.615" transform="rotate(0 0 0)" fill="green" stroke="black" stroke-width="0.5" />
<polygon points="355,294.615 355,309.615 465,309.615 465,294.615" transform="rotate(0 0 0)" fill="green" stroke="black" stroke-width="0.5" />
<polygon points="190,279.615 190,294.615 300,294.615 300,279.615" transform="rotate(0 0 0)" fill="green" stroke="black" stroke-width="0.5" />
<polygon points="300,279.615 300,294.615 410,294.615 410,279.615" transform="rotate(0 0 0)" fill="green" stroke="black" stroke-width="0.5" />
<polygon points="190,264.615 190,279.615 300,279.615 300,264.615" transform="rotate(0 0 0)" fill="green" stroke="black" stroke-width="0.5" />
<polygon points="300,264.615 300,279.615 410,279.615 410,264.615" transform="rotate(0 0 0)" fill="green" stroke="black" stroke-width="0.5" />
<polygon points="190,249.615 190,264.615 300,264.615 300,249.615" transform="rotate(0 0 0)" fill="green" stroke="black" stroke-width="0.5" />
<polygon points="300,249.615 300,264.615 410,264.615 410,249.615" transform="rotate(0 0 0)" fill="green" stroke="black" stroke-width="0.5" />
<polygon points="190,234.615 190,249.615 300,249.615 300,234.615" transform="rotate(0 0 0)" fill="green" stroke="black" stroke-width="0.5" />
<polygon points="300,234.615 300,249.615 410,249.615 410,234.615" transform="rotate(0 0 0)" fill="green" stroke="black" stroke-width="0.5" />
<polygon points="190,219.615 190,234.615 300,234.615 300,219.615" transform="rotate(0 0 0)" fill="green" stroke="black" stroke-width="0.5" />
<polygon points="300,219.615 300,234.615 410,234.615 410,219.615" transform="rotate(0 0 0)" fill="green" stroke="black" stroke-width="0.5" />
<polygon points="190,204.615 190,219.615 300,219.615 300,204.615" transform="rotate(0 0 0)" fill="green" stroke="black" stroke-width="0.5" />
<polygon points="300,204.615 300,219.615 410,219.615 410,204.615" transform="rotate(0 0 0)" fill="green" stroke="black" stroke-width="0.5" />
<polygon points="245,189.615 245,204.615 355,204.615 355,189.615" transform="rotate(0 0 0)" fill="green" stroke="black" stroke-width="0.5" />
<polygon points="245,174.615 245,189.615 355,189.615 355,174.615" transform="rotate(0 0 0)" fill="green" stroke="black" stroke-width="0.5" />
<polygon points="245,159.615 245,174.615 355,174.615 355,159.615" transform="rotate(0 0 0)" fill="green" stroke="black" stroke-width="0.5" />
<polygon points="245,144.615 245,159.615 355,159.615 355,144.615" transform="rotate(0 0 0)" fill="green" stroke="black" stroke-width="0.5" />
<polygon points="245,129.615 245,144.615 355,144.615 355,129.615" transform="rotate(0 0 0)" fill="green" stroke="black" stroke-width="0.5" />
<polygon points="245,114.615 245,129.615 355,129.615 355,114.615" transform="rotate(0 0 0)" fill="green" stroke="black" stroke-width="0.5" />
<polygon points="245,99.6152 245,114.615 355,114.615 355,99.6152" transform="rotate(0 0 0)" fill="green" stroke="black" stroke-width="0.5" />
</svg>
