<svg version="1.1" baseProfile="full" xmlns="http://www.w3.org/2000/svg">
<polygon points="255,5 5,438.013 505,438.013" transform="rotate(0 0 0)" fill="purple" stroke="black" stroke-width="0.5" />
<polygon points="45,418.013 45,438.013 105,438.013 105,418.013" transform="rotate(0 0 0)" fill="yellow" stroke="black" stroke-width="0.5" />
<polygon points="105,418.013 105,438.013 165,438.013 165,418.013" transform="rotate(0 0 0)" fill="yellow" stroke="black" stroke-width="0.5" />
<polygon points="165,418.013 165,438.013 225,438.013 225,418.013" transform="rotate(0 0 0)" fill="yellow" stroke="black" stroke-width="0.5" />
<polygon points="225,418.013 225,438.013 285,438.013 285,418.013" transform="rotate(0 0 0)" fill="yellow" stroke="black" stroke-width="0.5" />
<polygon points="285,418.013 285,438.013 345,438.013 345,418.013" transform="rotate(0 0 0)" fill="yellow" stroke="black" stroke-width="0.5" />
<polygon points="345,418.013 345,438.013 405,438.013 405,418.013" transform="rotate(0 0 0)" fill="yellow" stroke="black" stroke-width="0.5" />
<polygon points="405,418.013 405,438.013 465,438.013 465,418.013" transform="rotate(0 0 0)" fill="yellow" stroke="black" stroke-width="0.5" />
<polygon points="45,398.013 45,418.013 105,418.013 105,398.013" transform="rotate(0 0 0)" fill="yellow" stroke="black" stroke-width="0.5" />
<polygon points="105,398.013 105,418.013 165,418.013 165,398.013" transform="rotate(0 0 0)" fill="yellow" stroke="black" stroke-width="0.5" />
<polygon points="165,398.013 165,418.013 225,418.013 225,398.013" transform="rotate(0 0 0)" fill="yellow" stroke="black" stroke-width="0.5" />
<polygon points="225,398.013 225,418.013 285,418.013 285,398.013" transform="rotate(0 0 0)" fill="yellow" stroke="black" stroke-width="0.5" />
<polygon points="285,398.013 285,418.013 345,418.013 345,398.013" transform="rotate(0 0 0)" fill="yellow" stroke="black" stroke-width="0.5" />
<polygon points="345,398.013 345,418.013 405,418.013 405,398.013" transform="rotate(0 0 0)" fill="yellow" stroke="black" stroke-width="0.5" />
<polygon points="405,398.013 405,418.013 465,418.013 465,398.013" transform="rotate(0 0 0)" fill="yellow" stroke="black" stroke-width="0.5" />
<polygon points="45,378.013 45,398.013 105,398.013 105,378.013" transform="rotate(0 0 0)" fill="yellow" stroke="black" stroke-width="0.5" />
<polygon points="105,378.013 105,398.013 165,398.013 165,378.013" transform="rotate(0 0 0)" fill="yellow" stroke="black" stroke-width="0.5" />
<polygon points="165,378.013 165,398.013 225,398.013 225,378.013" transform="rotate(0 0 0)" fill="yellow" stroke="black" stroke-width="0.5" />
<polygon points="225,378.013 225,398.013 285,398.013 285,378.013" transform="rotate(0 0 0)" fill="yellow" stroke="black" stroke-width="0.5" />
<polygon points="285,378.013 285,398.013 345,398.013 345,378.013" transform="rotate(0 0 0)" fill="yellow" stroke="black" stroke-width="0.5" />
<polygon points="345,378.013 345,398.013 405,398.013 405,378.013" transform="rotate(0 0 0)" fill="yellow" stroke="black" stroke-width="0.5" />
<polygon points="405,378.013 405,398.013 465,398.013 465,378.013" transform="rotate(0 0 0)" fill="yellow" stroke="black" stroke-width="0.5" />
<polygon points="75,358.013 75,378.013 135,378.013 135,358.013" transform="rotate(0 0 0)" fill="yellow" stroke="black" stroke-width="0.5" />
<polygon points="135,358.013 135,378.013 195,378.013 195,358.013" transform="rotate(0 0 0)" fill="yellow" stroke="black" stroke-width="0.5" />
<polygon points="195,358.013 195,378.013 255,378.013 255,358.013" transform="rotate(0 0 0)" fill="yellow" stroke="black" stroke-width="0.5" />
<polygon points="255,358.013 255,378.013 315,378.013 315,358.013" transform="rotate(0 0 0)" fill="yellow" stroke="black" stroke-width="0.5" />
<polygon points="315,358.013 315,378.013 375,378.013 375,358.013" transform="rotate(0 0 0)" fill="yellow" stroke="black" stroke-width="0.5" />
<polygon points="375,358.013 375,378.013 435,378.013 435,358.013" transform="rotate(0 0 0)" fill="yellow" stroke="black" stroke-width="0.5" />
<polygon points="75,338.013 75,358.013 135,358.013 135,338.013" transform="rotate(0 0 0)" fill="yellow" stroke="black" stroke-width="0.5" />
<polygon points="135,338.013 135,358.013 195,358.013 195,338.013" transform="rotate(0 0 0)" fill="yellow" stroke="black" stroke-width="0.5" />
<polygon points="195,338.013 195,358.013 255,358.013 255,338.013" transform="rotate(0 0 0)" fill="yellow" stroke="black" stroke-width="0.5" />
<polygon points="255,338.013 255,358.013 315,358.013 315,338.013" transform="rotate(0 0 0)" fill="yellow" stroke="black" stroke-width="0.5" />
<polygon points="315,338.013 315,358.013 375,358.013 375,338.013" transform="rotate(0 0 0)" fill="yellow" stroke="black" stroke-width="0.5" />
<polygon points="375,338.013 375,358.013 435,358.013 435,338.013" transform="rotate(0 0 0)" fill="yellow" stroke="black" stroke-width="0.5" />
<polygon points="75,318.013 75,338.013 135,338.013 135,318.013" transform="rotate(0 0 0)" fill="yellow" stroke="black" stroke-width="0.5" />
<polygon points="135,318.013 135,338.013 195,338.013 195,318.013" transform="rotate(0 0 0)" fill="yellow" stroke="black" stroke-width="0.5" />
<polygon points="195,318.013 195,338.013 255,338.013 255,318.013" transform="rotate(0 0 0)" fill="yellow" stroke="black" stroke-width="0.5" />
<polygon points="255,318.013 255,338.013 315,338.013 315,318.013" transform="rotate(0 0 0)" fill="yellow" stroke="black" stroke-width="0.5" />
<polygon points="315,318.013 315,338.013 375,338.013 375,318.013" transform="rotate(0 0 0)" fill="yellow" stroke="black" stroke-width="0.5" />
<polygon points="375,318.013 375,338.013 435,338.013 435,318.013" transform="rotate(0 0 0)" fill="yellow" stroke="black" stroke-width="0.5" />
<polygon points="105,298.013 105,318.013 165,318.013 165,298.013" transform="rotate(0 0 0)" fill="yellow" stroke="black" stroke-width="0.5" />
<polygon points="165,298.013 165,318.013 225,318.013 225,298.013" transform="rotate(0 0 0)" fill="yellow" stroke="black" stroke-width="0.5" />
<polygon points="225,298.013 225,318.013 285,318.013 285,298.013" transform="rotate(0 0 0)" fill="yellow" stroke="black" stroke-width="0.5" />
<polygon points="285,298.013 285,318.013 345,318.013 345,298.013" transform="rotate(0 0 0)" fill="yellow" stroke="black" stroke-width="0.5" />
<polygon points="345,298.013 345,318.013 405,318.013 405,298.013" transform="rotate(0 0 0)" fill="yellow" stroke="black" stroke-width="0.5" />
<polygon points="105,278.013 105,298.013 165,298.013 165,278.013" transform="rotate(0 0 0)" fill="yellow" stroke="black" stroke-width="0.5" />
<polygon points="165,278.013 165,298.013 225,298.013 225,278.013" transform="rotate(0 0 0)" fill="yellow" stroke="black" stroke-width="0.5" />
<polygon points="225,278.013 225,298.013 285,298.013 285,278.013" transform="rotate(0 0 0)" fill="yellow" stroke="black" stroke-width="0.5" />
<polygon points="285,278.013 285,298.013 345,298.013 345,278.013" transform="rotate(0 0 0)" fill="yellow" stroke="black" stroke-width="0.5" />
<polygon points="345,278.013 345,298.013 405,298.013 405,278.013" transform="rotate(0 0 0)" fill="yellow" stroke="black" stroke-width="0.5" />
<polygon points="135,258.013 135,278.013 195,278.013 195,258.013" transform="rotate(0 0 0)" fill="yellow" stroke="black" stroke-width="0.5" />
<polygon points="195,258.013 195,278.013 255,278.013 255,258.013" transform="rotate(0 0 0)" fill="yellow" stroke="black" stroke-width="0.5" />
<polygon points="255,258.013 255,278.013 315,278.013 315,258.013" transform="rotate(0 0 0)" fill="yellow" stroke="black" stroke-width="0.5" />
<polygon points="315,258.013 315,278.013 375,278.013 375,258.013" transform="rotate(0 0 0)" fill="yellow" stroke="black" stroke-width="0.5" />
<polygon points="135,238.013 135,258.013 195,258.013 195,238.013" transform="rotate(0 0 0)" fill="yellow" stroke="black" stroke-width="0.5" />
<polygon points="195,238.013 195,258.013 255,258.013 255,238.013" transform="rotate(0 0 0)" fill="yellow" stroke="black" stroke-width="0.5" />
<polygon points="255,238.013 255,258.013 315,258.013 315,238.013" transform="rotate(0 0 0)" fill="yellow" stroke="black" stroke-width="0.5" />
<polygon points="315,238.013 315,258.013 375,258.013 375,238.013" transform="rotate(0 0 0)" fill="yellow" stroke="black" stroke-width="0.5" />
<polygon points="135,218.013 135,238.013 195,238.013 195,218.013" transform="rotate(0 0 0)" fill="yellow" stroke="black" stroke-width="0.5" />
<polygon points="195,218.013 195,238.013 255,238.013 255,218.013" transform="rotate(0 0 0)" fill="yellow" stroke="black" stroke-width="0.5" />
<polygon points="255,218.013 255,238.013 315,238.013 315,218.013" transform="rotate(0 0 0)" fill="yellow" stroke="black" stroke-width="0.5" />
<polygon points="315,218.013 315,238.013 375,238.013 375,218.013" transform="rotate(0 0 0)" fill="yellow" stroke="black" stroke-width="0.5" />
<polygon points="165,198.013 165,218.013 225,218.013 225,198.013" transform="rotate(0 0 0)" fill="yellow" stroke="black" stroke-width="0.5" />
<polygon points="225,198.013 225,218.013 285,218.013 285,198.013" transform="rotate(0 0 0)" fill="yellow" stroke="black" stroke-width="0.5" />
<polygon points="285,198.013 285,218.013 345,218.013 345,198.013" transform="rotate(0 0 0)" fill="yellow" stroke="black" stroke-width="0.5" />
<polygon points="165,178.013 165,198.013 225,198.013 225,178.013" transform="rotate(0 0 0)" fill="yellow" stroke="black" stroke-width="0.5" />
<polygon points="225,178.013 225,198.013 285,198.013 285,178.013" transform="rotate(0 0 0)" fill="yellow" stroke="black" stroke-width="0.5" />
<polygon points="285,178.013 285,198.013 345,198.013 345,178.013" transform="rotate(0 0 0)" fill="yellow" stroke="black" stroke-width="0.5" />
<polygon points="195,158.013 195,178.013 255,178.013 255,158.013" transform="rotate(0 0 0)" fill="yellow" stroke="black" stroke-width="0.5" />
<polygon points="255,158.013 255,178.013 315,178.013 315,158.013" transform="rotate(0 0 0)" fill="yellow" stroke="black" stroke-width="0.5" />
<polygon points="195,138.013 195,158.013 255,158.013 255,138.013" transform="rotate(0 0 0)" fill="yellow" stroke="black" stroke-width="0.5" />
<polygon points="255,138.013 255,158.013 315,158.013 315,138.013" transform="rotate(0 0 0)" fill="yellow" stroke="black" stroke-width="0.5" />
<polygon points="195,118.013 195,138.013 255,138.013 255,118.013" transform="rotate(0 0 0)" fill="yellow" stroke="black" stroke-width="0.5" />
<polygon points="255,118.013 255,138.013 315,138.013 315,118.013" transform="rotate(0 0 0)" fill="yellow" stroke="black" stroke-width="0.5" />
<polygon points="225,98.0127 225,118.013 285,118.013 285,98.0127" transform="rotate(0 0 0)" fill="yellow" stroke="black" stroke-width="0.5" />
<polygon points="225,78.0127 225,98.0127 285,98.0127 285,78.0127" transform="rotate(0 0 0)" fill="yellow" stroke="black" stroke-width="0.5" />
<polygon points="225,58.0127 225,78.0127 285,78.0127 285,58.0127" transform="rotate(0 0 0)" fill="yellow" stroke="black" stroke-width="0.5" />
</svg>
