<svg version="1.1" baseProfile="full" xmlns="http://www.w3.org/2000/svg">
<polygon points="255,5 5,438.013 505,438.013" transform="rotate(0 0 0)" fill="purple" stroke="black" stroke-width="0.5" />
<polygon points="305,105 304.901,101.86 304.606,98.7333 304.114,95.6309 303.429,92.5655 302.553,89.5492 301.489,86.5938 300.241,83.711 298.815,80.9123 297.216,78.2087 295.451,75.6107 293.526,73.1288 291.448,70.7726 289.227,68.5516 286.871,66.4743 284.389,64.5492 281.791,62.7836 279.088,61.1847 276.289,59.7586 273.406,58.5112 270.451,57.4472 267.434,56.5708 264.369,55.8856 261.267,55.3943 258.14,55.0987 255,55 251.86,55.0987 248.733,55.3943 245.631,55.8856 242.566,56.5708 239.549,57.4472 236.594,58.5112 233.711,59.7586 230.912,61.1847 228.209,62.7836 225.611,64.5492 223.129,66.4743 220.773,68.5516 218.552,70.7726 216.474,73.1288 214.549,75.6107 212.784,78.2087 211.185,80.9123 209.759,83.711 208.511,86.5938 207.447,89.5492 206.571,92.5655 205.886,95.6309 205.394,98.7333 205.099,101.86 205,105 205.099,108.14 205.394,111.267 205.886,114.369 206.571,117.434 207.447,120.451 208.511,123.406 209.759,126.289 211.185,129.088 212.784,131.791 214.549,134.389 216.474,136.871 218.552,139.227 220.773,141.448 223.129,143.526 225.611,145.451 228.209,147.216 230.912,148.815 233.711,150.241 236.594,151.489 239.549,152.553 242.566,153.429 245.631,154.114 248.733,154.606 251.86,154.901 255,155 258.14,154.901 261.267,154.606 264.369,154.114 267.434,153.429 270.451,152.553 273.406,151.489 276.289,150.241 279.088,148.815 281.791,147.216 284.389,145.451 286.871,143.526 289.227,141.448 291.448,139.227 293.526,136.871 295.451,134.389 297.216,131.791 298.815,129.088 300.241,126.289 301.489,123.406 302.553,120.451 303.429,117.434 304.114,114.369 304.606,111.267 304.901,108.14" transform="rotate(0 0 0)" fill="green" stroke="black" stroke-width="0.5" />
<polygon points="255,191.603 254.901,188.463 254.606,185.336 254.114,182.233 253.429,179.168 252.553,176.152 251.489,173.196 250.241,170.314 248.815,167.515 247.216,164.811 245.451,162.213 243.526,159.731 241.448,157.375 239.227,155.154 236.871,153.077 234.389,151.152 231.791,149.386 229.088,147.787 226.289,146.361 223.406,145.114 220.451,144.05 217.434,143.173 214.369,142.488 211.267,141.997 208.14,141.701 205,141.603 201.86,141.701 198.733,141.997 195.631,142.488 192.566,143.173 189.549,144.05 186.594,145.114 183.711,146.361 180.912,147.787 178.209,149.386 175.611,151.152 173.129,153.077 170.773,155.154 168.552,157.375 166.474,159.731 164.549,162.213 162.784,164.811 161.185,167.515 159.759,170.314 158.511,173.196 157.447,176.152 156.571,179.168 155.886,182.233 155.394,185.336 155.099,188.463 155,191.603 155.099,194.742 155.394,197.869 155.886,200.972 156.571,204.037 157.447,207.053 158.511,210.009 159.759,212.892 161.185,215.69 162.784,218.394 164.549,220.992 166.474,223.474 168.552,225.83 170.773,228.051 173.129,230.128 175.611,232.053 178.209,233.819 180.912,235.418 183.711,236.844 186.594,238.091 189.549,239.155 192.566,240.032 195.631,240.717 198.733,241.208 201.86,241.504 205,241.603 208.14,241.504 211.267,241.208 214.369,240.717 217.434,240.032 220.451,239.155 223.406,238.091 226.289,236.844 229.088,235.418 231.791,233.819 234.389,232.053 236.871,230.128 239.227,228.051 241.448,225.83 243.526,223.474 245.451,220.992 247.216,218.394 248.815,215.69 250.241,212.892 251.489,210.009 252.553,207.053 253.429,204.037 254.114,200.972 254.606,197.869 254.901,194.742" transform="rotate(0 0 0)" fill="green" stroke="black" stroke-width="0.5" />
<polygon points="355,191.603 354.901,188.463 354.606,185.336 354.114,182.233 353.429,179.168 352.553,176.152 351.489,173.196 350.241,170.314 348.815,167.515 347.216,164.811 345.451,162.213 343.526,159.731 341.448,157.375 339.227,155.154 336.871,153.077 334.389,151.152 331.791,149.386 329.088,147.787 326.289,146.361 323.406,145.114 320.451,144.05 317.434,143.173 314.369,142.488 311.267,141.997 308.14,141.701 305,141.603 301.86,141.701 298.733,141.997 295.631,142.488 292.566,143.173 289.549,144.05 286.594,145.114 283.711,146.361 280.912,147.787 278.209,149.386 275.611,151.152 273.129,153.077 270.773,155.154 268.552,157.375 266.474,159.731 264.549,162.213 262.784,164.811 261.185,167.515 259.759,170.314 258.511,173.196 257.447,176.152 256.571,179.168 255.886,182.233 255.394,185.336 255.099,188.463 255,191.603 255.099,194.742 255.394,197.869 255.886,200.972 256.571,204.037 257.447,207.053 258.511,210.009 259.759,212.892 261.185,215.69 262.784,218.394 264.549,220.992 266.474,223.474 268.552,225.83 270.773,228.051 273.129,230.128 275.611,232.053 278.209,233.819 280.912,235.418 283.711,236.844 286.594,238.091 289.549,239.155 292.566,240.032 295.631,240.717 298.733,241.208 301.86,241.504 305,241.603 308.14,241.504 311.267,241.208 314.369,240.717 317.434,240.032 320.451,239.155 323.406,238.091 326.289,236.844 329.088,235.418 331.791,233.819 334.389,232.053 336.871,230.128 339.227,228.051 341.448,225.83 343.526,223.474 345.451,220.992 347.216,218.394 348.815,215.69 350.241,212.892 351.489,210.009 352.553,207.053 353.429,204.037 354.114,200.972 354.606,197.869 354.901,194.742" transform="rotate(0 0 0)" fill="green" stroke="black" stroke-width="0.5" />
<polygon points="305,278.205 304.901,275.066 304.606,271.938 304.114,268.836 303.429,265.771 302.553,262.754 301.489,259.799 300.241,256.916 298.815,254.117 297.216,251.414 295.451,248.816 293.526,246.334 291.448,243.978 289.227,241.757 286.871,239.679 284.389,237.754 281.791,235.989 279.088,234.39 276.289,232.964 273.406,231.716 270.451,230.652 267.434,229.776 264.369,229.091 261.267,228.599 258.14,228.304 255,228.205 251.86,228.304 248.733,228.599 245.631,229.091 242.566,229.776 239.549,230.652 236.594,231.716 233.711,232.964 230.912,234.39 228.209,235.989 225.611,237.754 223.129,239.679 220.773,241.757 218.552,243.978 216.474,246.334 214.549,248.816 212.784,251.414 211.185,254.117 209.759,256.916 208.511,259.799 207.447,262.754 206.571,265.771 205.886,268.836 205.394,271.938 205.099,275.066 205,278.205 205.099,281.345 205.394,284.472 205.886,287.574 206.571,290.64 207.447,293.656 208.511,296.611 209.759,299.494 211.185,302.293 212.784,304.996 214.549,307.594 216.474,310.076 218.552,312.432 220.773,314.654 223.129,316.731 225.611,318.656 228.209,320.421 230.912,322.02 233.711,323.446 236.594,324.694 239.549,325.758 242.566,326.634 245.631,327.319 248.733,327.811 251.86,328.106 255,328.205 258.14,328.106 261.267,327.811 264.369,327.319 267.434,326.634 270.451,325.758 273.406,324.694 276.289,323.446 279.088,322.02 281.791,320.421 284.389,318.656 286.871,316.731 289.227,314.654 291.448,312.432 293.526,310.076 295.451,307.594 297.216,304.996 298.815,302.293 300.241,299.494 301.489,296.611 302.553,293.656 303.429,290.64 304.114,287.574 304.606,284.472 304.901,281.345" transform="rotate(0 0 0)" fill="green" stroke="black" stroke-width="0.5" />
<polygon points="205,278.205 204.901,275.066 204.606,271.938 204.114,268.836 203.429,265.771 202.553,262.754 201.489,259.799 200.241,256.916 198.815,254.117 197.216,251.414 195.451,248.816 193.526,246.334 191.448,243.978 189.227,241.757 186.871,239.679 184.389,237.754 181.791,235.989 179.088,234.39 176.289,232.964 173.406,231.716 170.451,230.652 167.434,229.776 164.369,229.091 161.267,228.599 158.14,228.304 155,228.205 151.86,228.304 148.733,228.599 145.631,229.091 142.566,229.776 139.549,230.652 136.594,231.716 133.711,232.964 130.912,234.39 128.209,235.989 125.611,237.754 123.129,239.679 120.773,241.757 118.552,243.978 116.474,246.334 114.549,248.816 112.784,251.414 111.185,254.117 109.759,256.916 108.511,259.799 107.447,262.754 106.571,265.771 105.886,268.836 105.394,271.938 105.099,275.066 105,278.205 105.099,281.345 105.394,284.472 105.886,287.574 106.571,290.64 107.447,293.656 108.511,296.611 109.759,299.494 111.185,302.293 112.784,304.996 114.549,307.594 116.474,310.076 118.552,312.432 120.773,314.654 123.129,316.731 125.611,318.656 128.209,320.421 130.912,322.02 133.711,323.446 136.594,324.694 139.549,325.758 142.566,326.634 145.631,327.319 148.733,327.811 151.86,328.106 155,328.205 158.14,328.106 161.267,327.811 164.369,327.319 167.434,326.634 170.451,325.758 173.406,324.694 176.289,323.446 179.088,322.02 181.791,320.421 184.389,318.656 186.871,316.731 189.227,314.654 191.448,312.432 193.526,310.076 195.451,307.594 197.216,304.996 198.815,302.293 200.241,299.494 201.489,296.611 202.553,293.656 203.429,290.64 204.114,287.574 204.606,284.472 204.901,281.345" transform="rotate(0 0 0)" fill="green" stroke="black" stroke-width="0.5" />
<polygon points="405,278.205 404.901,275.066 404.606,271.938 404.114,268.836 403.429,265.771 402.553,262.754 401.489,259.799 400.241,256.916 398.815,254.117 397.216,251.414 395.451,248.816 393.526,246.334 391.448,243.978 389.227,241.757 386.871,239.679 384.389,237.754 381.791,235.989 379.088,234.39 376.289,232.964 373.406,231.716 370.451,230.652 367.434,229.776 364.369,229.091 361.267,228.599 358.14,228.304 355,228.205 351.86,228.304 348.733,228.599 345.631,229.091 342.566,229.776 339.549,230.652 336.594,231.716 333.711,232.964 330.912,234.39 328.209,235.989 325.611,237.754 323.129,239.679 320.773,241.757 318.552,243.978 316.474,246.334 314.549,248.816 312.784,251.414 311.185,254.117 309.759,256.916 308.511,259.799 307.447,262.754 306.571,265.771 305.886,268.836 305.394,271.938 305.099,275.066 305,278.205 305.099,281.345 305.394,284.472 305.886,287.574 306.571,290.64 307.447,293.656 308.511,296.611 309.759,299.494 311.185,302.293 312.784,304.996 314.549,307.594 316.474,310.076 318.552,312.432 320.773,314.654 323.129,316.731 325.611,318.656 328.209,320.421 330.912,322.02 333.711,323.446 336.594,324.694 339.549,325.758 342.566,326.634 345.631,327.319 348.733,327.811 351.86,328.106 355,328.205 358.14,328.106 361.267,327.811 364.369,327.319 367.434,326.634 370.451,325.758 373.406,324.694 376.289,323.446 379.088,322.02 381.791,320.421 384.389,318.656 386.871,316.731 389.227,314.654 391.448,312.432 393.526,310.076 395.451,307.594 397.216,304.996 398.815,302.293 400.241,299.494 401.489,296.611 402.553,293.656 403.429,290.64 404.114,287.574 404.606,284.472 404.901,281.345" transform="rotate(0 0 0)" fill="green" stroke="black" stroke-width="0.5" />
<polygon points="255,364.808 254.901,361.668 254.606,358.541 254.114,355.439 253.429,352.373 252.553,349.357 251.489,346.401 250.241,343.519 248.815,340.72 247.216,338.016 245.451,335.418 243.526,332.936 241.448,330.58 239.227,328.359 236.871,326.282 234.389,324.357 231.791,322.591 229.088,320.992 226.289,319.566 223.406,318.319 220.451,317.255 217.434,316.378 214.369,315.693 211.267,315.202 208.14,314.906 205,314.808 201.86,314.906 198.733,315.202 195.631,315.693 192.566,316.378 189.549,317.255 186.594,318.319 183.711,319.566 180.912,320.992 178.209,322.591 175.611,324.357 173.129,326.282 170.773,328.359 168.552,330.58 166.474,332.936 164.549,335.418 162.784,338.016 161.185,340.72 159.759,343.519 158.511,346.401 157.447,349.357 156.571,352.373 155.886,355.439 155.394,358.541 155.099,361.668 155,364.808 155.099,367.947 155.394,371.074 155.886,374.177 156.571,377.242 157.447,380.258 158.511,383.214 159.759,386.097 161.185,388.895 162.784,391.599 164.549,394.197 166.474,396.679 168.552,399.035 170.773,401.256 173.129,403.333 175.611,405.258 178.209,407.024 180.912,408.623 183.711,410.049 186.594,411.296 189.549,412.36 192.566,413.237 195.631,413.922 198.733,414.413 201.86,414.709 205,414.808 208.14,414.709 211.267,414.413 214.369,413.922 217.434,413.237 220.451,412.36 223.406,411.296 226.289,410.049 229.088,408.623 231.791,407.024 234.389,405.258 236.871,403.333 239.227,401.256 241.448,399.035 243.526,396.679 245.451,394.197 247.216,391.599 248.815,388.895 250.241,386.097 251.489,383.214 252.553,380.258 253.429,377.242 254.114,374.177 254.606,371.074 254.901,367.947" transform="rotate(0 0 0)" fill="green" stroke="black" stroke-width="0.5" />
<polygon points="355,364.808 354.901,361.668 354.606,358.541 354.114,355.439 353.429,352.373 352.553,349.357 351.489,346.401 350.241,343.519 348.815,340.72 347.216,338.016 345.451,335.418 343.526,332.936 341.448,330.58 339.227,328.359 336.871,326.282 334.389,324.357 331.791,322.591 329.088,320.992 326.289,319.566 323.406,318.319 320.451,317.255 317.434,316.378 314.369,315.693 311.267,315.202 308.14,314.906 305,314.808 301.86,314.906 298.733,315.202 295.631,315.693 292.566,316.378 289.549,317.255 286.594,318.319 283.711,319.566 280.912,320.992 278.209,322.591 275.611,324.357 273.129,326.282 270.773,328.359 268.552,330.58 266.474,332.936 264.549,335.418 262.784,338.016 261.185,340.72 259.759,343.519 258.511,346.401 257.447,349.357 256.571,352.373 255.886,355.439 255.394,358.541 255.099,361.668 255,364.808 255.099,367.947 255.394,371.074 255.886,374.177 256.571,377.242 257.447,380.258 258.511,383.214 259.759,386.097 261.185,388.895 262.784,391.599 264.549,394.197 266.474,396.679 268.552,399.035 270.773,401.256 273.129,403.333 275.611,405.258 278.209,407.024 280.912,408.623 283.711,410.049 286.594,411.296 289.549,412.36 292.566,413.237 295.631,413.922 298.733,414.413 301.86,414.709 305,414.808 308.14,414.709 311.267,414.413 314.369,413.922 317.434,413.237 320.451,412.36 323.406,411.296 326.289,410.049 329.088,408.623 331.791,407.024 334.389,405.258 336.871,403.333 339.227,401.256 341.448,399.035 343.526,396.679 345.451,394.197 347.216,391.599 348.815,388.895 350.241,386.097 351.489,383.214 352.553,380.258 353.429,377.242 354.114,374.177 354.606,371.074 354.901,367.947" transform="rotate(0 0 0)" fill="green" stroke="black" stroke-width="0.5" />
<polygon points="155,364.808 154.901,361.668 154.606,358.541 154.114,355.439 153.429,352.373 152.553,349.357 151.489,346.401 150.241,343.519 148.815,340.72 147.216,338.016 145.451,335.418 143.526,332.936 141.448,330.58 139.227,328.359 136.871,326.282 134.389,324.357 131.791,322.591 129.088,320.992 126.289,319.566 123.406,318.319 120.451,317.255 117.434,316.378 114.369,315.693 111.267,315.202 108.14,314.906 105,314.808 101.86,314.906 98.7333,315.202 95.6309,315.693 92.5655,316.378 89.5492,317.255 86.5938,318.319 83.711,319.566 80.9123,320.992 78.2087,322.591 75.6107,324.357 73.1288,326.282 70.7726,328.359 68.5516,330.58 66.4743,332.936 64.5492,335.418 62.7836,338.016 61.1847,340.72 59.7586,343.519 58.5112,346.401 57.4472,349.357 56.5708,352.373 55.8856,355.439 55.3943,358.541 55.0987,361.668 55,364.808 55.0987,367.947 55.3943,371.074 55.8856,374.177 56.5708,377.242 57.4472,380.258 58.5112,383.214 59.7586,386.097 61.1847,388.895 62.7836,391.599 64.5492,394.197 66.4743,396.679 68.5516,399.035 70.7726,401.256 73.1288,403.333 75.6107,405.258 78.2087,407.024 80.9123,408.623 83.711,410.049 86.5938,411.296 89.5492,412.36 92.5655,413.237 95.6309,413.922 98.7333,414.413 101.86,414.709 105,414.808 108.14,414.709 111.267,414.413 114.369,413.922 117.434,413.237 120.451,412.36 123.406,411.296 126.289,410.049 129.088,408.623 131.791,407.024 134.389,405.258 136.871,403.333 139.227,401.256 141.448,399.035 143.526,396.679 145.451,394.197 147.216,391.599 148.815,388.895 150.241,386.097 151.489,383.214 152.553,380.258 153.429,377.242 154.114,374.177 154.606,371.074 154.901,367.947" transform="rotate(0 0 0)" fill="green" stroke="black" stroke-width="0.5" />
<polygon points="455,364.808 454.901,361.668 454.606,358.541 454.114,355.439 453.429,352.373 452.553,349.357 451.489,346.401 450.241,343.519 448.815,340.72 447.216,338.016 445.451,335.418 443.526,332.936 441.448,330.58 439.227,328.359 436.871,326.282 434.389,324.357 431.791,322.591 429.088,320.992 426.289,319.566 423.406,318.319 420.451,317.255 417.434,316.378 414.369,315.693 411.267,315.202 408.14,314.906 405,314.808 401.86,314.906 398.733,315.202 395.631,315.693 392.566,316.378 389.549,317.255 386.594,318.319 383.711,319.566 380.912,320.992 378.209,322.591 375.611,324.357 373.129,326.282 370.773,328.359 368.552,330.58 366.474,332.936 364.549,335.418 362.784,338.016 361.185,340.72 359.759,343.519 358.511,346.401 357.447,349.357 356.571,352.373 355.886,355.439 355.394,358.541 355.099,361.668 355,364.808 355.099,367.947 355.394,371.074 355.886,374.177 356.571,377.242 357.447,380.258 358.511,383.214 359.759,386.097 361.185,388.895 362.784,391.599 364.549,394.197 366.474,396.679 368.552,399.035 370.773,401.256 373.129,403.333 375.611,405.258 378.209,407.024 380.912,408.623 383.711,410.049 386.594,411.296 389.549,412.36 392.566,413.237 395.631,413.922 398.733,414.413 401.86,414.709 405,414.808 408.14,414.709 411.267,414.413 414.369,413.922 417.434,413.237 420.451,412.36 423.406,411.296 426.289,410.049 429.088,408.623 431.791,407.024 434.389,405.258 436.871,403.333 439.227,401.256 441.448,399.035 443.526,396.679 445.451,394.197 447.216,391.599 448.815,388.895 450.241,386.097 451.489,383.214 452.553,380.258 453.429,377.242 454.114,374.177 454.606,371.074 454.901,367.947" transform="rotate(0 0 0)" fill="green" stroke="black" stroke-width="0.5" />
</svg>
