<svg version="1.1" baseProfile="full" xmlns="http://www.w3.org/2000/svg">
<polygon points="250,0 0,433.013 500,433.013" transform="rotate(0 0 0)" fill="pink" stroke="black" stroke-width="0.5" />
<polygon points="280,60 279.941,58.1163 279.763,56.24 279.469,54.3786 279.057,52.5393 278.532,50.7295 277.893,48.9563 277.145,47.2266 276.289,45.5474 275.33,43.9252 274.271,42.3664 273.115,40.8773 271.869,39.4636 270.536,38.1309 269.123,36.8846 267.634,35.7295 266.075,34.6702 264.453,33.7108 262.773,32.8552 261.044,32.1067 259.271,31.4683 257.461,30.9425 255.621,30.5314 253.76,30.2366 251.884,30.0592 250,30 248.116,30.0592 246.24,30.2366 244.379,30.5314 242.539,30.9425 240.729,31.4683 238.956,32.1067 237.227,32.8552 235.547,33.7108 233.925,34.6702 232.366,35.7295 230.877,36.8846 229.464,38.1309 228.131,39.4636 226.885,40.8773 225.729,42.3664 224.67,43.9252 223.711,45.5474 222.855,47.2266 222.107,48.9563 221.468,50.7295 220.943,52.5393 220.531,54.3786 220.237,56.24 220.059,58.1163 220,60 220.059,61.8837 220.237,63.76 220.531,65.6214 220.943,67.4607 221.468,69.2705 222.107,71.0437 222.855,72.7734 223.711,74.4526 224.67,76.0748 225.729,77.6336 226.885,79.1227 228.131,80.5364 229.464,81.8691 230.877,83.1154 232.366,84.2705 233.925,85.3298 235.547,86.2892 237.227,87.1448 238.956,87.8933 240.729,88.5317 242.539,89.0575 244.379,89.4686 246.24,89.7634 248.116,89.9408 250,90 251.884,89.9408 253.76,89.7634 255.621,89.4686 257.461,89.0575 259.271,88.5317 261.044,87.8933 262.773,87.1448 264.453,86.2892 266.075,85.3298 267.634,84.2705 269.123,83.1154 270.536,81.8691 271.869,80.5364 273.115,79.1227 274.271,77.6336 275.33,76.0748 276.289,74.4526 277.145,72.7734 277.893,71.0437 278.532,69.2705 279.057,67.4607 279.469,65.6214 279.763,63.76 279.941,61.8837" transform="rotate(0 0 0)" fill="cyan" stroke="black" stroke-width="0.5" />
<polygon points="250,111.962 249.941,110.078 249.763,108.202 249.469,106.34 249.057,104.501 248.532,102.691 247.893,100.918 247.145,99.1881 246.289,97.5089 245.33,95.8867 244.271,94.328 243.115,92.8388 241.869,91.4251 240.536,90.0925 239.123,88.8461 237.634,87.691 236.075,86.6317 234.453,85.6723 232.773,84.8167 231.044,84.0682 229.271,83.4298 227.461,82.904 225.621,82.4929 223.76,82.1981 221.884,82.0207 220,81.9615 218.116,82.0207 216.24,82.1981 214.379,82.4929 212.539,82.904 210.729,83.4298 208.956,84.0682 207.227,84.8167 205.547,85.6723 203.925,86.6317 202.366,87.691 200.877,88.8461 199.464,90.0925 198.131,91.4251 196.885,92.8388 195.729,94.328 194.67,95.8867 193.711,97.5089 192.855,99.1881 192.107,100.918 191.468,102.691 190.943,104.501 190.531,106.34 190.237,108.202 190.059,110.078 190,111.962 190.059,113.845 190.237,115.722 190.531,117.583 190.943,119.422 191.468,121.232 192.107,123.005 192.855,124.735 193.711,126.414 194.67,128.036 195.729,129.595 196.885,131.084 198.131,132.498 199.464,133.831 200.877,135.077 202.366,136.232 203.925,137.291 205.547,138.251 207.227,139.106 208.956,139.855 210.729,140.493 212.539,141.019 214.379,141.43 216.24,141.725 218.116,141.902 220,141.962 221.884,141.902 223.76,141.725 225.621,141.43 227.461,141.019 229.271,140.493 231.044,139.855 232.773,139.106 234.453,138.251 236.075,137.291 237.634,136.232 239.123,135.077 240.536,133.831 241.869,132.498 243.115,131.084 244.271,129.595 245.33,128.036 246.289,126.414 247.145,124.735 247.893,123.005 248.532,121.232 249.057,119.422 249.469,117.583 249.763,115.722 249.941,113.845" transform="rotate(0 0 0)" fill="cyan" stroke="black" stroke-width="0.5" />
<polygon points="310,111.962 309.941,110.078 309.763,108.202 309.469,106.34 309.057,104.501 308.532,102.691 307.893,100.918 307.145,99.1881 306.289,97.5089 305.33,95.8867 304.271,94.328 303.115,92.8388 301.869,91.4251 300.536,90.0925 299.123,88.8461 297.634,87.691 296.075,86.6317 294.453,85.6723 292.773,84.8167 291.044,84.0682 289.271,83.4298 287.461,82.904 285.621,82.4929 283.76,82.1981 281.884,82.0207 280,81.9615 278.116,82.0207 276.24,82.1981 274.379,82.4929 272.539,82.904 270.729,83.4298 268.956,84.0682 267.227,84.8167 265.547,85.6723 263.925,86.6317 262.366,87.691 260.877,88.8461 259.464,90.0925 258.131,91.4251 256.885,92.8388 255.729,94.328 254.67,95.8867 253.711,97.5089 252.855,99.1881 252.107,100.918 251.468,102.691 250.943,104.501 250.531,106.34 250.237,108.202 250.059,110.078 250,111.962 250.059,113.845 250.237,115.722 250.531,117.583 250.943,119.422 251.468,121.232 252.107,123.005 252.855,124.735 253.711,126.414 254.67,128.036 255.729,129.595 256.885,131.084 258.131,132.498 259.464,133.831 260.877,135.077 262.366,136.232 263.925,137.291 265.547,138.251 267.227,139.106 268.956,139.855 270.729,140.493 272.539,141.019 274.379,141.43 276.24,141.725 278.116,141.902 280,141.962 281.884,141.902 283.76,141.725 285.621,141.43 287.461,141.019 289.271,140.493 291.044,139.855 292.773,139.106 294.453,138.251 296.075,137.291 297.634,136.232 299.123,135.077 300.536,133.831 301.869,132.498 303.115,131.084 304.271,129.595 305.33,128.036 306.289,126.414 307.145,124.735 307.893,123.005 308.532,121.232 309.057,119.422 309.469,117.583 309.763,115.722 309.941,113.845" transform="rotate(0 0 0)" fill="cyan" stroke="black" stroke-width="0.5" />
<polygon points="280,163.923 279.941,162.039 279.763,160.163 279.469,158.302 279.057,156.462 278.532,154.653 277.893,152.879 277.145,151.15 276.289,149.47 275.33,147.848 274.271,146.289 273.115,144.8 271.869,143.387 270.536,142.054 269.123,140.808 267.634,139.653 266.075,138.593 264.453,137.634 262.773,136.778 261.044,136.03 259.271,135.391 257.461,134.866 255.621,134.454 253.76,134.16 251.884,133.982 250,133.923 248.116,133.982 246.24,134.16 244.379,134.454 242.539,134.866 240.729,135.391 238.956,136.03 237.227,136.778 235.547,137.634 233.925,138.593 232.366,139.653 230.877,140.808 229.464,142.054 228.131,143.387 226.885,144.8 225.729,146.289 224.67,147.848 223.711,149.47 222.855,151.15 222.107,152.879 221.468,154.653 220.943,156.462 220.531,158.302 220.237,160.163 220.059,162.039 220,163.923 220.059,165.807 220.237,167.683 220.531,169.544 220.943,171.384 221.468,173.194 222.107,174.967 222.855,176.696 223.711,178.376 224.67,179.998 225.729,181.557 226.885,183.046 228.131,184.459 229.464,185.792 230.877,187.038 232.366,188.194 233.925,189.253 235.547,190.212 237.227,191.068 238.956,191.816 240.729,192.455 242.539,192.981 244.379,193.392 246.24,193.686 248.116,193.864 250,193.923 251.884,193.864 253.76,193.686 255.621,193.392 257.461,192.981 259.271,192.455 261.044,191.816 262.773,191.068 264.453,190.212 266.075,189.253 267.634,188.194 269.123,187.038 270.536,185.792 271.869,184.459 273.115,183.046 274.271,181.557 275.33,179.998 276.289,178.376 277.145,176.696 277.893,174.967 278.532,173.194 279.057,171.384 279.469,169.544 279.763,167.683 279.941,165.807" transform="rotate(0 0 0)" fill="cyan" stroke="black" stroke-width="0.5" />
<polygon points="220,163.923 219.941,162.039 219.763,160.163 219.469,158.302 219.057,156.462 218.532,154.653 217.893,152.879 217.145,151.15 216.289,149.47 215.33,147.848 214.271,146.289 213.115,144.8 211.869,143.387 210.536,142.054 209.123,140.808 207.634,139.653 206.075,138.593 204.453,137.634 202.773,136.778 201.044,136.03 199.271,135.391 197.461,134.866 195.621,134.454 193.76,134.16 191.884,133.982 190,133.923 188.116,133.982 186.24,134.16 184.379,134.454 182.539,134.866 180.729,135.391 178.956,136.03 177.227,136.778 175.547,137.634 173.925,138.593 172.366,139.653 170.877,140.808 169.464,142.054 168.131,143.387 166.885,144.8 165.729,146.289 164.67,147.848 163.711,149.47 162.855,151.15 162.107,152.879 161.468,154.653 160.943,156.462 160.531,158.302 160.237,160.163 160.059,162.039 160,163.923 160.059,165.807 160.237,167.683 160.531,169.544 160.943,171.384 161.468,173.194 162.107,174.967 162.855,176.696 163.711,178.376 164.67,179.998 165.729,181.557 166.885,183.046 168.131,184.459 169.464,185.792 170.877,187.038 172.366,188.194 173.925,189.253 175.547,190.212 177.227,191.068 178.956,191.816 180.729,192.455 182.539,192.981 184.379,193.392 186.24,193.686 188.116,193.864 190,193.923 191.884,193.864 193.76,193.686 195.621,193.392 197.461,192.981 199.271,192.455 201.044,191.816 202.773,191.068 204.453,190.212 206.075,189.253 207.634,188.194 209.123,187.038 210.536,185.792 211.869,184.459 213.115,183.046 214.271,181.557 215.33,179.998 216.289,178.376 217.145,176.696 217.893,174.967 218.532,173.194 219.057,171.384 219.469,169.544 219.763,167.683 219.941,165.807" transform="rotate(0 0 0)" fill="cyan" stroke="black" stroke-width="0.5" />
<polygon points="340,163.923 339.941,162.039 339.763,160.163 339.469,158.302 339.057,156.462 338.532,154.653 337.893,152.879 337.145,151.15 336.289,149.47 335.33,147.848 334.271,146.289 333.115,144.8 331.869,143.387 330.536,142.054 329.123,140.808 327.634,139.653 326.075,138.593 324.453,137.634 322.773,136.778 321.044,136.03 319.271,135.391 317.461,134.866 315.621,134.454 313.76,134.16 311.884,133.982 310,133.923 308.116,133.982 306.24,134.16 304.379,134.454 302.539,134.866 300.729,135.391 298.956,136.03 297.227,136.778 295.547,137.634 293.925,138.593 292.366,139.653 290.877,140.808 289.464,142.054 288.131,143.387 286.885,144.8 285.729,146.289 284.67,147.848 283.711,149.47 282.855,151.15 282.107,152.879 281.468,154.653 280.943,156.462 280.531,158.302 280.237,160.163 280.059,162.039 280,163.923 280.059,165.807 280.237,167.683 280.531,169.544 280.943,171.384 281.468,173.194 282.107,174.967 282.855,176.696 283.711,178.376 284.67,179.998 285.729,181.557 286.885,183.046 288.131,184.459 289.464,185.792 290.877,187.038 292.366,188.194 293.925,189.253 295.547,190.212 297.227,191.068 298.956,191.816 300.729,192.455 302.539,192.981 304.379,193.392 306.24,193.686 308.116,193.864 310,193.923 311.884,193.864 313.76,193.686 315.621,193.392 317.461,192.981 319.271,192.455 321.044,191.816 322.773,191.068 324.453,190.212 326.075,189.253 327.634,188.194 329.123,187.038 330.536,185.792 331.869,184.459 333.115,183.046 334.271,181.557 335.33,179.998 336.289,178.376 337.145,176.696 337.893,174.967 338.532,173.194 339.057,171.384 339.469,169.544 339.763,167.683 339.941,165.807" transform="rotate(0 0 0)" fill="cyan" stroke="black" stroke-width="0.5" />
<polygon points="250,215.885 249.941,214.001 249.763,212.125 249.469,210.263 249.057,208.424 248.532,206.614 247.893,204.841 247.145,203.111 246.289,201.432 245.33,199.81 244.271,198.251 243.115,196.762 241.869,195.348 240.536,194.016 239.123,192.769 237.634,191.614 236.075,190.555 234.453,189.595 232.773,188.74 231.044,187.991 229.271,187.353 227.461,186.827 225.621,186.416 223.76,186.121 221.884,185.944 220,185.885 218.116,185.944 216.24,186.121 214.379,186.416 212.539,186.827 210.729,187.353 208.956,187.991 207.227,188.74 205.547,189.595 203.925,190.555 202.366,191.614 200.877,192.769 199.464,194.016 198.131,195.348 196.885,196.762 195.729,198.251 194.67,199.81 193.711,201.432 192.855,203.111 192.107,204.841 191.468,206.614 190.943,208.424 190.531,210.263 190.237,212.125 190.059,214.001 190,215.885 190.059,217.768 190.237,219.645 190.531,221.506 190.943,223.345 191.468,225.155 192.107,226.928 192.855,228.658 193.711,230.337 194.67,231.959 195.729,233.518 196.885,235.007 198.131,236.421 199.464,237.754 200.877,239 202.366,240.155 203.925,241.214 205.547,242.174 207.227,243.029 208.956,243.778 210.729,244.416 212.539,244.942 214.379,245.353 216.24,245.648 218.116,245.825 220,245.885 221.884,245.825 223.76,245.648 225.621,245.353 227.461,244.942 229.271,244.416 231.044,243.778 232.773,243.029 234.453,242.174 236.075,241.214 237.634,240.155 239.123,239 240.536,237.754 241.869,236.421 243.115,235.007 244.271,233.518 245.33,231.959 246.289,230.337 247.145,228.658 247.893,226.928 248.532,225.155 249.057,223.345 249.469,221.506 249.763,219.645 249.941,217.768" transform="rotate(0 0 0)" fill="cyan" stroke="black" stroke-width="0.5" />
<polygon points="310,215.885 309.941,214.001 309.763,212.125 309.469,210.263 309.057,208.424 308.532,206.614 307.893,204.841 307.145,203.111 306.289,201.432 305.33,199.81 304.271,198.251 303.115,196.762 301.869,195.348 300.536,194.016 299.123,192.769 297.634,191.614 296.075,190.555 294.453,189.595 292.773,188.74 291.044,187.991 289.271,187.353 287.461,186.827 285.621,186.416 283.76,186.121 281.884,185.944 280,185.885 278.116,185.944 276.24,186.121 274.379,186.416 272.539,186.827 270.729,187.353 268.956,187.991 267.227,188.74 265.547,189.595 263.925,190.555 262.366,191.614 260.877,192.769 259.464,194.016 258.131,195.348 256.885,196.762 255.729,198.251 254.67,199.81 253.711,201.432 252.855,203.111 252.107,204.841 251.468,206.614 250.943,208.424 250.531,210.263 250.237,212.125 250.059,214.001 250,215.885 250.059,217.768 250.237,219.645 250.531,221.506 250.943,223.345 251.468,225.155 252.107,226.928 252.855,228.658 253.711,230.337 254.67,231.959 255.729,233.518 256.885,235.007 258.131,236.421 259.464,237.754 260.877,239 262.366,240.155 263.925,241.214 265.547,242.174 267.227,243.029 268.956,243.778 270.729,244.416 272.539,244.942 274.379,245.353 276.24,245.648 278.116,245.825 280,245.885 281.884,245.825 283.76,245.648 285.621,245.353 287.461,244.942 289.271,244.416 291.044,243.778 292.773,243.029 294.453,242.174 296.075,241.214 297.634,240.155 299.123,239 300.536,237.754 301.869,236.421 303.115,235.007 304.271,233.518 305.33,231.959 306.289,230.337 307.145,228.658 307.893,226.928 308.532,225.155 309.057,223.345 309.469,221.506 309.763,219.645 309.941,217.768" transform="rotate(0 0 0)" fill="cyan" stroke="black" stroke-width="0.5" />
<polygon points="190,215.885 189.941,214.001 189.763,212.125 189.469,210.263 189.057,208.424 188.532,206.614 187.893,204.841 187.145,203.111 186.289,201.432 185.33,199.81 184.271,198.251 183.115,196.762 181.869,195.348 180.536,194.016 179.123,192.769 177.634,191.614 176.075,190.555 174.453,189.595 172.773,188.74 171.044,187.991 169.271,187.353 167.461,186.827 165.621,186.416 163.76,186.121 161.884,185.944 160,185.885 158.116,185.944 156.24,186.121 154.379,186.416 152.539,186.827 150.729,187.353 148.956,187.991 147.227,188.74 145.547,189.595 143.925,190.555 142.366,191.614 140.877,192.769 139.464,194.016 138.131,195.348 136.885,196.762 135.729,198.251 134.67,199.81 133.711,201.432 132.855,203.111 132.107,204.841 131.468,206.614 130.943,208.424 130.531,210.263 130.237,212.125 130.059,214.001 130,215.885 130.059,217.768 130.237,219.645 130.531,221.506 130.943,223.345 131.468,225.155 132.107,226.928 132.855,228.658 133.711,230.337 134.67,231.959 135.729,233.518 136.885,235.007 138.131,236.421 139.464,237.754 140.877,239 142.366,240.155 143.925,241.214 145.547,242.174 147.227,243.029 148.956,243.778 150.729,244.416 152.539,244.942 154.379,245.353 156.24,245.648 158.116,245.825 160,245.885 161.884,245.825 163.76,245.648 165.621,245.353 167.461,244.942 169.271,244.416 171.044,243.778 172.773,243.029 174.453,242.174 176.075,241.214 177.634,240.155 179.123,239 180.536,237.754 181.869,236.421 183.115,235.007 184.271,233.518 185.33,231.959 186.289,230.337 187.145,228.658 187.893,226.928 188.532,225.155 189.057,223.345 189.469,221.506 189.763,219.645 189.941,217.768" transform="rotate(0 0 0)" fill="cyan" stroke="black" stroke-width="0.5" />
<polygon points="370,215.885 369.941,214.001 369.763,212.125 369.469,210.263 369.057,208.424 368.532,206.614 367.893,204.841 367.145,203.111 366.289,201.432 365.33,199.81 364.271,198.251 363.115,196.762 361.869,195.348 360.536,194.016 359.123,192.769 357.634,191.614 356.075,190.555 354.453,189.595 352.773,188.74 351.044,187.991 349.271,187.353 347.461,186.827 345.621,186.416 343.76,186.121 341.884,185.944 340,185.885 338.116,185.944 336.24,186.121 334.379,186.416 332.539,186.827 330.729,187.353 328.956,187.991 327.227,188.74 325.547,189.595 323.925,190.555 322.366,191.614 320.877,192.769 319.464,194.016 318.131,195.348 316.885,196.762 315.729,198.251 314.67,199.81 313.711,201.432 312.855,203.111 312.107,204.841 311.468,206.614 310.943,208.424 310.531,210.263 310.237,212.125 310.059,214.001 310,215.885 310.059,217.768 310.237,219.645 310.531,221.506 310.943,223.345 311.468,225.155 312.107,226.928 312.855,228.658 313.711,230.337 314.67,231.959 315.729,233.518 316.885,235.007 318.131,236.421 319.464,237.754 320.877,239 322.366,240.155 323.925,241.214 325.547,242.174 327.227,243.029 328.956,243.778 330.729,244.416 332.539,244.942 334.379,245.353 336.24,245.648 338.116,245.825 340,245.885 341.884,245.825 343.76,245.648 345.621,245.353 347.461,244.942 349.271,244.416 351.044,243.778 352.773,243.029 354.453,242.174 356.075,241.214 357.634,240.155 359.123,239 360.536,237.754 361.869,236.421 363.115,235.007 364.271,233.518 365.33,231.959 366.289,230.337 367.145,228.658 367.893,226.928 368.532,225.155 369.057,223.345 369.469,221.506 369.763,219.645 369.941,217.768" transform="rotate(0 0 0)" fill="cyan" stroke="black" stroke-width="0.5" />
<polygon points="280,267.846 279.941,265.962 279.763,264.086 279.469,262.225 279.057,260.385 278.532,258.576 277.893,256.802 277.145,255.073 276.289,253.393 275.33,251.771 274.271,250.213 273.115,248.723 271.869,247.31 270.536,245.977 269.123,244.731 267.634,243.576 266.075,242.516 264.453,241.557 262.773,240.701 261.044,239.953 259.271,239.314 257.461,238.789 255.621,238.377 253.76,238.083 251.884,237.905 250,237.846 248.116,237.905 246.24,238.083 244.379,238.377 242.539,238.789 240.729,239.314 238.956,239.953 237.227,240.701 235.547,241.557 233.925,242.516 232.366,243.576 230.877,244.731 229.464,245.977 228.131,247.31 226.885,248.723 225.729,250.213 224.67,251.771 223.711,253.393 222.855,255.073 222.107,256.802 221.468,258.576 220.943,260.385 220.531,262.225 220.237,264.086 220.059,265.962 220,267.846 220.059,269.73 220.237,271.606 220.531,273.468 220.943,275.307 221.468,277.117 222.107,278.89 222.855,280.619 223.711,282.299 224.67,283.921 225.729,285.48 226.885,286.969 228.131,288.383 229.464,289.715 230.877,290.961 232.366,292.117 233.925,293.176 235.547,294.135 237.227,294.991 238.956,295.739 240.729,296.378 242.539,296.904 244.379,297.315 246.24,297.61 248.116,297.787 250,297.846 251.884,297.787 253.76,297.61 255.621,297.315 257.461,296.904 259.271,296.378 261.044,295.739 262.773,294.991 264.453,294.135 266.075,293.176 267.634,292.117 269.123,290.961 270.536,289.715 271.869,288.383 273.115,286.969 274.271,285.48 275.33,283.921 276.289,282.299 277.145,280.619 277.893,278.89 278.532,277.117 279.057,275.307 279.469,273.468 279.763,271.606 279.941,269.73" transform="rotate(0 0 0)" fill="cyan" stroke="black" stroke-width="0.5" />
<polygon points="220,267.846 219.941,265.962 219.763,264.086 219.469,262.225 219.057,260.385 218.532,258.576 217.893,256.802 217.145,255.073 216.289,253.393 215.33,251.771 214.271,250.213 213.115,248.723 211.869,247.31 210.536,245.977 209.123,244.731 207.634,243.576 206.075,242.516 204.453,241.557 202.773,240.701 201.044,239.953 199.271,239.314 197.461,238.789 195.621,238.377 193.76,238.083 191.884,237.905 190,237.846 188.116,237.905 186.24,238.083 184.379,238.377 182.539,238.789 180.729,239.314 178.956,239.953 177.227,240.701 175.547,241.557 173.925,242.516 172.366,243.576 170.877,244.731 169.464,245.977 168.131,247.31 166.885,248.723 165.729,250.213 164.67,251.771 163.711,253.393 162.855,255.073 162.107,256.802 161.468,258.576 160.943,260.385 160.531,262.225 160.237,264.086 160.059,265.962 160,267.846 160.059,269.73 160.237,271.606 160.531,273.468 160.943,275.307 161.468,277.117 162.107,278.89 162.855,280.619 163.711,282.299 164.67,283.921 165.729,285.48 166.885,286.969 168.131,288.383 169.464,289.715 170.877,290.961 172.366,292.117 173.925,293.176 175.547,294.135 177.227,294.991 178.956,295.739 180.729,296.378 182.539,296.904 184.379,297.315 186.24,297.61 188.116,297.787 190,297.846 191.884,297.787 193.76,297.61 195.621,297.315 197.461,296.904 199.271,296.378 201.044,295.739 202.773,294.991 204.453,294.135 206.075,293.176 207.634,292.117 209.123,290.961 210.536,289.715 211.869,288.383 213.115,286.969 214.271,285.48 215.33,283.921 216.289,282.299 217.145,280.619 217.893,278.89 218.532,277.117 219.057,275.307 219.469,273.468 219.763,271.606 219.941,269.73" transform="rotate(0 0 0)" fill="cyan" stroke="black" stroke-width="0.5" />
<polygon points="160,267.846 159.941,265.962 159.763,264.086 159.469,262.225 159.057,260.385 158.532,258.576 157.893,256.802 157.145,255.073 156.289,253.393 155.33,251.771 154.271,250.213 153.115,248.723 151.869,247.31 150.536,245.977 149.123,244.731 147.634,243.576 146.075,242.516 144.453,241.557 142.773,240.701 141.044,239.953 139.271,239.314 137.461,238.789 135.621,238.377 133.76,238.083 131.884,237.905 130,237.846 128.116,237.905 126.24,238.083 124.379,238.377 122.539,238.789 120.729,239.314 118.956,239.953 117.227,240.701 115.547,241.557 113.925,242.516 112.366,243.576 110.877,244.731 109.464,245.977 108.131,247.31 106.885,248.723 105.729,250.213 104.67,251.771 103.711,253.393 102.855,255.073 102.107,256.802 101.468,258.576 100.943,260.385 100.531,262.225 100.237,264.086 100.059,265.962 100,267.846 100.059,269.73 100.237,271.606 100.531,273.468 100.943,275.307 101.468,277.117 102.107,278.89 102.855,280.619 103.711,282.299 104.67,283.921 105.729,285.48 106.885,286.969 108.131,288.383 109.464,289.715 110.877,290.961 112.366,292.117 113.925,293.176 115.547,294.135 117.227,294.991 118.956,295.739 120.729,296.378 122.539,296.904 124.379,297.315 126.24,297.61 128.116,297.787 130,297.846 131.884,297.787 133.76,297.61 135.621,297.315 137.461,296.904 139.271,296.378 141.044,295.739 142.773,294.991 144.453,294.135 146.075,293.176 147.634,292.117 149.123,290.961 150.536,289.715 151.869,288.383 153.115,286.969 154.271,285.48 155.33,283.921 156.289,282.299 157.145,280.619 157.893,278.89 158.532,277.117 159.057,275.307 159.469,273.468 159.763,271.606 159.941,269.73" transform="rotate(0 0 0)" fill="cyan" stroke="black" stroke-width="0.5" />
<polygon points="340,267.846 339.941,265.962 339.763,264.086 339.469,262.225 339.057,260.385 338.532,258.576 337.893,256.802 337.145,255.073 336.289,253.393 335.33,251.771 334.271,250.213 333.115,248.723 331.869,247.31 330.536,245.977 329.123,244.731 327.634,243.576 326.075,242.516 324.453,241.557 322.773,240.701 321.044,239.953 319.271,239.314 317.461,238.789 315.621,238.377 313.76,238.083 311.884,237.905 310,237.846 308.116,237.905 306.24,238.083 304.379,238.377 302.539,238.789 300.729,239.314 298.956,239.953 297.227,240.701 295.547,241.557 293.925,242.516 292.366,243.576 290.877,244.731 289.464,245.977 288.131,247.31 286.885,248.723 285.729,250.213 284.67,251.771 283.711,253.393 282.855,255.073 282.107,256.802 281.468,258.576 280.943,260.385 280.531,262.225 280.237,264.086 280.059,265.962 280,267.846 280.059,269.73 280.237,271.606 280.531,273.468 280.943,275.307 281.468,277.117 282.107,278.89 282.855,280.619 283.711,282.299 284.67,283.921 285.729,285.48 286.885,286.969 288.131,288.383 289.464,289.715 290.877,290.961 292.366,292.117 293.925,293.176 295.547,294.135 297.227,294.991 298.956,295.739 300.729,296.378 302.539,296.904 304.379,297.315 306.24,297.61 308.116,297.787 310,297.846 311.884,297.787 313.76,297.61 315.621,297.315 317.461,296.904 319.271,296.378 321.044,295.739 322.773,294.991 324.453,294.135 326.075,293.176 327.634,292.117 329.123,290.961 330.536,289.715 331.869,288.383 333.115,286.969 334.271,285.48 335.33,283.921 336.289,282.299 337.145,280.619 337.893,278.89 338.532,277.117 339.057,275.307 339.469,273.468 339.763,271.606 339.941,269.73" transform="rotate(0 0 0)" fill="cyan" stroke="black" stroke-width="0.5" />
<polygon points="400,267.846 399.941,265.962 399.763,264.086 399.469,262.225 399.057,260.385 398.532,258.576 397.893,256.802 397.145,255.073 396.289,253.393 395.33,251.771 394.271,250.213 393.115,248.723 391.869,247.31 390.536,245.977 389.123,244.731 387.634,243.576 386.075,242.516 384.453,241.557 382.773,240.701 381.044,239.953 379.271,239.314 377.461,238.789 375.621,238.377 373.76,238.083 371.884,237.905 370,237.846 368.116,237.905 366.24,238.083 364.379,238.377 362.539,238.789 360.729,239.314 358.956,239.953 357.227,240.701 355.547,241.557 353.925,242.516 352.366,243.576 350.877,244.731 349.464,245.977 348.131,247.31 346.885,248.723 345.729,250.213 344.67,251.771 343.711,253.393 342.855,255.073 342.107,256.802 341.468,258.576 340.943,260.385 340.531,262.225 340.237,264.086 340.059,265.962 340,267.846 340.059,269.73 340.237,271.606 340.531,273.468 340.943,275.307 341.468,277.117 342.107,278.89 342.855,280.619 343.711,282.299 344.67,283.921 345.729,285.48 346.885,286.969 348.131,288.383 349.464,289.715 350.877,290.961 352.366,292.117 353.925,293.176 355.547,294.135 357.227,294.991 358.956,295.739 360.729,296.378 362.539,296.904 364.379,297.315 366.24,297.61 368.116,297.787 370,297.846 371.884,297.787 373.76,297.61 375.621,297.315 377.461,296.904 379.271,296.378 381.044,295.739 382.773,294.991 384.453,294.135 386.075,293.176 387.634,292.117 389.123,290.961 390.536,289.715 391.869,288.383 393.115,286.969 394.271,285.48 395.33,283.921 396.289,282.299 397.145,280.619 397.893,278.89 398.532,277.117 399.057,275.307 399.469,273.468 399.763,271.606 399.941,269.73" transform="rotate(0 0 0)" fill="cyan" stroke="black" stroke-width="0.5" />
<polygon points="250,319.808 249.941,317.924 249.763,316.048 249.469,314.186 249.057,312.347 248.532,310.537 247.893,308.764 247.145,307.034 246.289,305.355 245.33,303.733 244.271,302.174 243.115,300.685 241.869,299.271 240.536,297.939 239.123,296.692 237.634,295.537 236.075,294.478 234.453,293.518 232.773,292.663 231.044,291.914 229.271,291.276 227.461,290.75 225.621,290.339 223.76,290.044 221.884,289.867 220,289.808 218.116,289.867 216.24,290.044 214.379,290.339 212.539,290.75 210.729,291.276 208.956,291.914 207.227,292.663 205.547,293.518 203.925,294.478 202.366,295.537 200.877,296.692 199.464,297.939 198.131,299.271 196.885,300.685 195.729,302.174 194.67,303.733 193.711,305.355 192.855,307.034 192.107,308.764 191.468,310.537 190.943,312.347 190.531,314.186 190.237,316.048 190.059,317.924 190,319.808 190.059,321.691 190.237,323.568 190.531,325.429 190.943,327.268 191.468,329.078 192.107,330.851 192.855,332.581 193.711,334.26 194.67,335.882 195.729,337.441 196.885,338.93 198.131,340.344 199.464,341.677 200.877,342.923 202.366,344.078 203.925,345.137 205.547,346.097 207.227,346.952 208.956,347.701 210.729,348.339 212.539,348.865 214.379,349.276 216.24,349.571 218.116,349.748 220,349.808 221.884,349.748 223.76,349.571 225.621,349.276 227.461,348.865 229.271,348.339 231.044,347.701 232.773,346.952 234.453,346.097 236.075,345.137 237.634,344.078 239.123,342.923 240.536,341.677 241.869,340.344 243.115,338.93 244.271,337.441 245.33,335.882 246.289,334.26 247.145,332.581 247.893,330.851 248.532,329.078 249.057,327.268 249.469,325.429 249.763,323.568 249.941,321.691" transform="rotate(0 0 0)" fill="cyan" stroke="black" stroke-width="0.5" />
<polygon points="310,319.808 309.941,317.924 309.763,316.048 309.469,314.186 309.057,312.347 308.532,310.537 307.893,308.764 307.145,307.034 306.289,305.355 305.33,303.733 304.271,302.174 303.115,300.685 301.869,299.271 300.536,297.939 299.123,296.692 297.634,295.537 296.075,294.478 294.453,293.518 292.773,292.663 291.044,291.914 289.271,291.276 287.461,290.75 285.621,290.339 283.76,290.044 281.884,289.867 280,289.808 278.116,289.867 276.24,290.044 274.379,290.339 272.539,290.75 270.729,291.276 268.956,291.914 267.227,292.663 265.547,293.518 263.925,294.478 262.366,295.537 260.877,296.692 259.464,297.939 258.131,299.271 256.885,300.685 255.729,302.174 254.67,303.733 253.711,305.355 252.855,307.034 252.107,308.764 251.468,310.537 250.943,312.347 250.531,314.186 250.237,316.048 250.059,317.924 250,319.808 250.059,321.691 250.237,323.568 250.531,325.429 250.943,327.268 251.468,329.078 252.107,330.851 252.855,332.581 253.711,334.26 254.67,335.882 255.729,337.441 256.885,338.93 258.131,340.344 259.464,341.677 260.877,342.923 262.366,344.078 263.925,345.137 265.547,346.097 267.227,346.952 268.956,347.701 270.729,348.339 272.539,348.865 274.379,349.276 276.24,349.571 278.116,349.748 280,349.808 281.884,349.748 283.76,349.571 285.621,349.276 287.461,348.865 289.271,348.339 291.044,347.701 292.773,346.952 294.453,346.097 296.075,345.137 297.634,344.078 299.123,342.923 300.536,341.677 301.869,340.344 303.115,338.93 304.271,337.441 305.33,335.882 306.289,334.26 307.145,332.581 307.893,330.851 308.532,329.078 309.057,327.268 309.469,325.429 309.763,323.568 309.941,321.691" transform="rotate(0 0 0)" fill="cyan" stroke="black" stroke-width="0.5" />
<polygon points="190,319.808 189.941,317.924 189.763,316.048 189.469,314.186 189.057,312.347 188.532,310.537 187.893,308.764 187.145,307.034 186.289,305.355 185.33,303.733 184.271,302.174 183.115,300.685 181.869,299.271 180.536,297.939 179.123,296.692 177.634,295.537 176.075,294.478 174.453,293.518 172.773,292.663 171.044,291.914 169.271,291.276 167.461,290.75 165.621,290.339 163.76,290.044 161.884,289.867 160,289.808 158.116,289.867 156.24,290.044 154.379,290.339 152.539,290.75 150.729,291.276 148.956,291.914 147.227,292.663 145.547,293.518 143.925,294.478 142.366,295.537 140.877,296.692 139.464,297.939 138.131,299.271 136.885,300.685 135.729,302.174 134.67,303.733 133.711,305.355 132.855,307.034 132.107,308.764 131.468,310.537 130.943,312.347 130.531,314.186 130.237,316.048 130.059,317.924 130,319.808 130.059,321.691 130.237,323.568 130.531,325.429 130.943,327.268 131.468,329.078 132.107,330.851 132.855,332.581 133.711,334.26 134.67,335.882 135.729,337.441 136.885,338.93 138.131,340.344 139.464,341.677 140.877,342.923 142.366,344.078 143.925,345.137 145.547,346.097 147.227,346.952 148.956,347.701 150.729,348.339 152.539,348.865 154.379,349.276 156.24,349.571 158.116,349.748 160,349.808 161.884,349.748 163.76,349.571 165.621,349.276 167.461,348.865 169.271,348.339 171.044,347.701 172.773,346.952 174.453,346.097 176.075,345.137 177.634,344.078 179.123,342.923 180.536,341.677 181.869,340.344 183.115,338.93 184.271,337.441 185.33,335.882 186.289,334.26 187.145,332.581 187.893,330.851 188.532,329.078 189.057,327.268 189.469,325.429 189.763,323.568 189.941,321.691" transform="rotate(0 0 0)" fill="cyan" stroke="black" stroke-width="0.5" />
<polygon points="370,319.808 369.941,317.924 369.763,316.048 369.469,314.186 369.057,312.347 368.532,310.537 367.893,308.764 367.145,307.034 366.289,305.355 365.33,303.733 364.271,302.174 363.115,300.685 361.869,299.271 360.536,297.939 359.123,296.692 357.634,295.537 356.075,294.478 354.453,293.518 352.773,292.663 351.044,291.914 349.271,291.276 347.461,290.75 345.621,290.339 343.76,290.044 341.884,289.867 340,289.808 338.116,289.867 336.24,290.044 334.379,290.339 332.539,290.75 330.729,291.276 328.956,291.914 327.227,292.663 325.547,293.518 323.925,294.478 322.366,295.537 320.877,296.692 319.464,297.939 318.131,299.271 316.885,300.685 315.729,302.174 314.67,303.733 313.711,305.355 312.855,307.034 312.107,308.764 311.468,310.537 310.943,312.347 310.531,314.186 310.237,316.048 310.059,317.924 310,319.808 310.059,321.691 310.237,323.568 310.531,325.429 310.943,327.268 311.468,329.078 312.107,330.851 312.855,332.581 313.711,334.26 314.67,335.882 315.729,337.441 316.885,338.93 318.131,340.344 319.464,341.677 320.877,342.923 322.366,344.078 323.925,345.137 325.547,346.097 327.227,346.952 328.956,347.701 330.729,348.339 332.539,348.865 334.379,349.276 336.24,349.571 338.116,349.748 340,349.808 341.884,349.748 343.76,349.571 345.621,349.276 347.461,348.865 349.271,348.339 351.044,347.701 352.773,346.952 354.453,346.097 356.075,345.137 357.634,344.078 359.123,342.923 360.536,341.677 361.869,340.344 363.115,338.93 364.271,337.441 365.33,335.882 366.289,334.26 367.145,332.581 367.893,330.851 368.532,329.078 369.057,327.268 369.469,325.429 369.763,323.568 369.941,321.691" transform="rotate(0 0 0)" fill="cyan" stroke="black" stroke-width="0.5" />
<polygon points="130,319.808 129.941,317.924 129.763,316.048 129.469,314.186 129.057,312.347 128.532,310.537 127.893,308.764 127.145,307.034 126.289,305.355 125.33,303.733 124.271,302.174 123.115,300.685 121.869,299.271 120.536,297.939 119.123,296.692 117.634,295.537 116.075,294.478 114.453,293.518 112.773,292.663 111.044,291.914 109.271,291.276 107.461,290.75 105.621,290.339 103.76,290.044 101.884,289.867 100,289.808 98.1163,289.867 96.24,290.044 94.3786,290.339 92.5393,290.75 90.7295,291.276 88.9563,291.914 87.2266,292.663 85.5474,293.518 83.9252,294.478 82.3664,295.537 80.8773,296.692 79.4636,297.939 78.1309,299.271 76.8846,300.685 75.7295,302.174 74.6702,303.733 73.7108,305.355 72.8552,307.034 72.1067,308.764 71.4683,310.537 70.9425,312.347 70.5314,314.186 70.2366,316.048 70.0592,317.924 70,319.808 70.0592,321.691 70.2366,323.568 70.5314,325.429 70.9425,327.268 71.4683,329.078 72.1067,330.851 72.8552,332.581 73.7108,334.26 74.6702,335.882 75.7295,337.441 76.8846,338.93 78.1309,340.344 79.4636,341.677 80.8773,342.923 82.3664,344.078 83.9252,345.137 85.5474,346.097 87.2266,346.952 88.9563,347.701 90.7295,348.339 92.5393,348.865 94.3786,349.276 96.24,349.571 98.1163,349.748 100,349.808 101.884,349.748 103.76,349.571 105.621,349.276 107.461,348.865 109.271,348.339 111.044,347.701 112.773,346.952 114.453,346.097 116.075,345.137 117.634,344.078 119.123,342.923 120.536,341.677 121.869,340.344 123.115,338.93 124.271,337.441 125.33,335.882 126.289,334.26 127.145,332.581 127.893,330.851 128.532,329.078 129.057,327.268 129.469,325.429 129.763,323.568 129.941,321.691" transform="rotate(0 0 0)" fill="cyan" stroke="black" stroke-width="0.5" />
<polygon points="430,319.808 429.941,317.924 429.763,316.048 429.469,314.186 429.057,312.347 428.532,310.537 427.893,308.764 427.145,307.034 426.289,305.355 425.33,303.733 424.271,302.174 423.115,300.685 421.869,299.271 420.536,297.939 419.123,296.692 417.634,295.537 416.075,294.478 414.453,293.518 412.773,292.663 411.044,291.914 409.271,291.276 407.461,290.75 405.621,290.339 403.76,290.044 401.884,289.867 400,289.808 398.116,289.867 396.24,290.044 394.379,290.339 392.539,290.75 390.729,291.276 388.956,291.914 387.227,292.663 385.547,293.518 383.925,294.478 382.366,295.537 380.877,296.692 379.464,297.939 378.131,299.271 376.885,300.685 375.729,302.174 374.67,303.733 373.711,305.355 372.855,307.034 372.107,308.764 371.468,310.537 370.943,312.347 370.531,314.186 370.237,316.048 370.059,317.924 370,319.808 370.059,321.691 370.237,323.568 370.531,325.429 370.943,327.268 371.468,329.078 372.107,330.851 372.855,332.581 373.711,334.26 374.67,335.882 375.729,337.441 376.885,338.93 378.131,340.344 379.464,341.677 380.877,342.923 382.366,344.078 383.925,345.137 385.547,346.097 387.227,346.952 388.956,347.701 390.729,348.339 392.539,348.865 394.379,349.276 396.24,349.571 398.116,349.748 400,349.808 401.884,349.748 403.76,349.571 405.621,349.276 407.461,348.865 409.271,348.339 411.044,347.701 412.773,346.952 414.453,346.097 416.075,345.137 417.634,344.078 419.123,342.923 420.536,341.677 421.869,340.344 423.115,338.93 424.271,337.441 425.33,335.882 426.289,334.26 427.145,332.581 427.893,330.851 428.532,329.078 429.057,327.268 429.469,325.429 429.763,323.568 429.941,321.691" transform="rotate(0 0 0)" fill="cyan" stroke="black" stroke-width="0.5" />
<polygon points="280,371.769 279.941,369.885 279.763,368.009 279.469,366.148 279.057,364.308 278.532,362.499 277.893,360.725 277.145,358.996 276.289,357.317 275.33,355.694 274.271,354.136 273.115,352.646 271.869,351.233 270.536,349.9 269.123,348.654 267.634,347.499 266.075,346.439 264.453,345.48 262.773,344.624 261.044,343.876 259.271,343.237 257.461,342.712 255.621,342.301 253.76,342.006 251.884,341.828 250,341.769 248.116,341.828 246.24,342.006 244.379,342.301 242.539,342.712 240.729,343.237 238.956,343.876 237.227,344.624 235.547,345.48 233.925,346.439 232.366,347.499 230.877,348.654 229.464,349.9 228.131,351.233 226.885,352.646 225.729,354.136 224.67,355.694 223.711,357.317 222.855,358.996 222.107,360.725 221.468,362.499 220.943,364.308 220.531,366.148 220.237,368.009 220.059,369.885 220,371.769 220.059,373.653 220.237,375.529 220.531,377.391 220.943,379.23 221.468,381.04 222.107,382.813 222.855,384.543 223.711,386.222 224.67,387.844 225.729,389.403 226.885,390.892 228.131,392.306 229.464,393.638 230.877,394.885 232.366,396.04 233.925,397.099 235.547,398.058 237.227,398.914 238.956,399.662 240.729,400.301 242.539,400.827 244.379,401.238 246.24,401.533 248.116,401.71 250,401.769 251.884,401.71 253.76,401.533 255.621,401.238 257.461,400.827 259.271,400.301 261.044,399.662 262.773,398.914 264.453,398.058 266.075,397.099 267.634,396.04 269.123,394.885 270.536,393.638 271.869,392.306 273.115,390.892 274.271,389.403 275.33,387.844 276.289,386.222 277.145,384.543 277.893,382.813 278.532,381.04 279.057,379.23 279.469,377.391 279.763,375.529 279.941,373.653" transform="rotate(0 0 0)" fill="cyan" stroke="black" stroke-width="0.5" />
<polygon points="220,371.769 219.941,369.885 219.763,368.009 219.469,366.148 219.057,364.308 218.532,362.499 217.893,360.725 217.145,358.996 216.289,357.317 215.33,355.694 214.271,354.136 213.115,352.646 211.869,351.233 210.536,349.9 209.123,348.654 207.634,347.499 206.075,346.439 204.453,345.48 202.773,344.624 201.044,343.876 199.271,343.237 197.461,342.712 195.621,342.301 193.76,342.006 191.884,341.828 190,341.769 188.116,341.828 186.24,342.006 184.379,342.301 182.539,342.712 180.729,343.237 178.956,343.876 177.227,344.624 175.547,345.48 173.925,346.439 172.366,347.499 170.877,348.654 169.464,349.9 168.131,351.233 166.885,352.646 165.729,354.136 164.67,355.694 163.711,357.317 162.855,358.996 162.107,360.725 161.468,362.499 160.943,364.308 160.531,366.148 160.237,368.009 160.059,369.885 160,371.769 160.059,373.653 160.237,375.529 160.531,377.391 160.943,379.23 161.468,381.04 162.107,382.813 162.855,384.543 163.711,386.222 164.67,387.844 165.729,389.403 166.885,390.892 168.131,392.306 169.464,393.638 170.877,394.885 172.366,396.04 173.925,397.099 175.547,398.058 177.227,398.914 178.956,399.662 180.729,400.301 182.539,400.827 184.379,401.238 186.24,401.533 188.116,401.71 190,401.769 191.884,401.71 193.76,401.533 195.621,401.238 197.461,400.827 199.271,400.301 201.044,399.662 202.773,398.914 204.453,398.058 206.075,397.099 207.634,396.04 209.123,394.885 210.536,393.638 211.869,392.306 213.115,390.892 214.271,389.403 215.33,387.844 216.289,386.222 217.145,384.543 217.893,382.813 218.532,381.04 219.057,379.23 219.469,377.391 219.763,375.529 219.941,373.653" transform="rotate(0 0 0)" fill="cyan" stroke="black" stroke-width="0.5" />
<polygon points="160,371.769 159.941,369.885 159.763,368.009 159.469,366.148 159.057,364.308 158.532,362.499 157.893,360.725 157.145,358.996 156.289,357.317 155.33,355.694 154.271,354.136 153.115,352.646 151.869,351.233 150.536,349.9 149.123,348.654 147.634,347.499 146.075,346.439 144.453,345.48 142.773,344.624 141.044,343.876 139.271,343.237 137.461,342.712 135.621,342.301 133.76,342.006 131.884,341.828 130,341.769 128.116,341.828 126.24,342.006 124.379,342.301 122.539,342.712 120.729,343.237 118.956,343.876 117.227,344.624 115.547,345.48 113.925,346.439 112.366,347.499 110.877,348.654 109.464,349.9 108.131,351.233 106.885,352.646 105.729,354.136 104.67,355.694 103.711,357.317 102.855,358.996 102.107,360.725 101.468,362.499 100.943,364.308 100.531,366.148 100.237,368.009 100.059,369.885 100,371.769 100.059,373.653 100.237,375.529 100.531,377.391 100.943,379.23 101.468,381.04 102.107,382.813 102.855,384.543 103.711,386.222 104.67,387.844 105.729,389.403 106.885,390.892 108.131,392.306 109.464,393.638 110.877,394.885 112.366,396.04 113.925,397.099 115.547,398.058 117.227,398.914 118.956,399.662 120.729,400.301 122.539,400.827 124.379,401.238 126.24,401.533 128.116,401.71 130,401.769 131.884,401.71 133.76,401.533 135.621,401.238 137.461,400.827 139.271,400.301 141.044,399.662 142.773,398.914 144.453,398.058 146.075,397.099 147.634,396.04 149.123,394.885 150.536,393.638 151.869,392.306 153.115,390.892 154.271,389.403 155.33,387.844 156.289,386.222 157.145,384.543 157.893,382.813 158.532,381.04 159.057,379.23 159.469,377.391 159.763,375.529 159.941,373.653" transform="rotate(0 0 0)" fill="cyan" stroke="black" stroke-width="0.5" />
<polygon points="100,371.769 99.9408,369.885 99.7634,368.009 99.4686,366.148 99.0575,364.308 98.5317,362.499 97.8933,360.725 97.1448,358.996 96.2892,357.317 95.3298,355.694 94.2705,354.136 93.1154,352.646 91.8691,351.233 90.5364,349.9 89.1227,348.654 87.6336,347.499 86.0748,346.439 84.4526,345.48 82.7734,344.624 81.0437,343.876 79.2705,343.237 77.4607,342.712 75.6214,342.301 73.76,342.006 71.8837,341.828 70,341.769 68.1163,341.828 66.24,342.006 64.3786,342.301 62.5393,342.712 60.7295,343.237 58.9563,343.876 57.2266,344.624 55.5474,345.48 53.9252,346.439 52.3664,347.499 50.8773,348.654 49.4636,349.9 48.1309,351.233 46.8846,352.646 45.7295,354.136 44.6702,355.694 43.7108,357.317 42.8552,358.996 42.1067,360.725 41.4683,362.499 40.9425,364.308 40.5314,366.148 40.2366,368.009 40.0592,369.885 40,371.769 40.0592,373.653 40.2366,375.529 40.5314,377.391 40.9425,379.23 41.4683,381.04 42.1067,382.813 42.8552,384.543 43.7108,386.222 44.6702,387.844 45.7295,389.403 46.8846,390.892 48.1309,392.306 49.4636,393.638 50.8773,394.885 52.3664,396.04 53.9252,397.099 55.5474,398.058 57.2266,398.914 58.9563,399.662 60.7295,400.301 62.5393,400.827 64.3786,401.238 66.24,401.533 68.1163,401.71 70,401.769 71.8837,401.71 73.76,401.533 75.6214,401.238 77.4607,400.827 79.2705,400.301 81.0437,399.662 82.7734,398.914 84.4526,398.058 86.0748,397.099 87.6336,396.04 89.1227,394.885 90.5364,393.638 91.8691,392.306 93.1154,390.892 94.2705,389.403 95.3298,387.844 96.2892,386.222 97.1448,384.543 97.8933,382.813 98.5317,381.04 99.0575,379.23 99.4686,377.391 99.7634,375.529 99.9408,373.653" transform="rotate(0 0 0)" fill="cyan" stroke="black" stroke-width="0.5" />
<polygon points="340,371.769 339.941,369.885 339.763,368.009 339.469,366.148 339.057,364.308 338.532,362.499 337.893,360.725 337.145,358.996 336.289,357.317 335.33,355.694 334.271,354.136 333.115,352.646 331.869,351.233 330.536,349.9 329.123,348.654 327.634,347.499 326.075,346.439 324.453,345.48 322.773,344.624 321.044,343.876 319.271,343.237 317.461,342.712 315.621,342.301 313.76,342.006 311.884,341.828 310,341.769 308.116,341.828 306.24,342.006 304.379,342.301 302.539,342.712 300.729,343.237 298.956,343.876 297.227,344.624 295.547,345.48 293.925,346.439 292.366,347.499 290.877,348.654 289.464,349.9 288.131,351.233 286.885,352.646 285.729,354.136 284.67,355.694 283.711,357.317 282.855,358.996 282.107,360.725 281.468,362.499 280.943,364.308 280.531,366.148 280.237,368.009 280.059,369.885 280,371.769 280.059,373.653 280.237,375.529 280.531,377.391 280.943,379.23 281.468,381.04 282.107,382.813 282.855,384.543 283.711,386.222 284.67,387.844 285.729,389.403 286.885,390.892 288.131,392.306 289.464,393.638 290.877,394.885 292.366,396.04 293.925,397.099 295.547,398.058 297.227,398.914 298.956,399.662 300.729,400.301 302.539,400.827 304.379,401.238 306.24,401.533 308.116,401.71 310,401.769 311.884,401.71 313.76,401.533 315.621,401.238 317.461,400.827 319.271,400.301 321.044,399.662 322.773,398.914 324.453,398.058 326.075,397.099 327.634,396.04 329.123,394.885 330.536,393.638 331.869,392.306 333.115,390.892 334.271,389.403 335.33,387.844 336.289,386.222 337.145,384.543 337.893,382.813 338.532,381.04 339.057,379.23 339.469,377.391 339.763,375.529 339.941,373.653" transform="rotate(0 0 0)" fill="cyan" stroke="black" stroke-width="0.5" />
<polygon points="400,371.769 399.941,369.885 399.763,368.009 399.469,366.148 399.057,364.308 398.532,362.499 397.893,360.725 397.145,358.996 396.289,357.317 395.33,355.694 394.271,354.136 393.115,352.646 391.869,351.233 390.536,349.9 389.123,348.654 387.634,347.499 386.075,346.439 384.453,345.48 382.773,344.624 381.044,343.876 379.271,343.237 377.461,342.712 375.621,342.301 373.76,342.006 371.884,341.828 370,341.769 368.116,341.828 366.24,342.006 364.379,342.301 362.539,342.712 360.729,343.237 358.956,343.876 357.227,344.624 355.547,345.48 353.925,346.439 352.366,347.499 350.877,348.654 349.464,349.9 348.131,351.233 346.885,352.646 345.729,354.136 344.67,355.694 343.711,357.317 342.855,358.996 342.107,360.725 341.468,362.499 340.943,364.308 340.531,366.148 340.237,368.009 340.059,369.885 340,371.769 340.059,373.653 340.237,375.529 340.531,377.391 340.943,379.23 341.468,381.04 342.107,382.813 342.855,384.543 343.711,386.222 344.67,387.844 345.729,389.403 346.885,390.892 348.131,392.306 349.464,393.638 350.877,394.885 352.366,396.04 353.925,397.099 355.547,398.058 357.227,398.914 358.956,399.662 360.729,400.301 362.539,400.827 364.379,401.238 366.24,401.533 368.116,401.71 370,401.769 371.884,401.71 373.76,401.533 375.621,401.238 377.461,400.827 379.271,400.301 381.044,399.662 382.773,398.914 384.453,398.058 386.075,397.099 387.634,396.04 389.123,394.885 390.536,393.638 391.869,392.306 393.115,390.892 394.271,389.403 395.33,387.844 396.289,386.222 397.145,384.543 397.893,382.813 398.532,381.04 399.057,379.23 399.469,377.391 399.763,375.529 399.941,373.653" transform="rotate(0 0 0)" fill="cyan" stroke="black" stroke-width="0.5" />
<polygon points="460,371.769 459.941,369.885 459.763,368.009 459.469,366.148 459.057,364.308 458.532,362.499 457.893,360.725 457.145,358.996 456.289,357.317 455.33,355.694 454.271,354.136 453.115,352.646 451.869,351.233 450.536,349.9 449.123,348.654 447.634,347.499 446.075,346.439 444.453,345.48 442.773,344.624 441.044,343.876 439.271,343.237 437.461,342.712 435.621,342.301 433.76,342.006 431.884,341.828 430,341.769 428.116,341.828 426.24,342.006 424.379,342.301 422.539,342.712 420.729,343.237 418.956,343.876 417.227,344.624 415.547,345.48 413.925,346.439 412.366,347.499 410.877,348.654 409.464,349.9 408.131,351.233 406.885,352.646 405.729,354.136 404.67,355.694 403.711,357.317 402.855,358.996 402.107,360.725 401.468,362.499 400.943,364.308 400.531,366.148 400.237,368.009 400.059,369.885 400,371.769 400.059,373.653 400.237,375.529 400.531,377.391 400.943,379.23 401.468,381.04 402.107,382.813 402.855,384.543 403.711,386.222 404.67,387.844 405.729,389.403 406.885,390.892 408.131,392.306 409.464,393.638 410.877,394.885 412.366,396.04 413.925,397.099 415.547,398.058 417.227,398.914 418.956,399.662 420.729,400.301 422.539,400.827 424.379,401.238 426.24,401.533 428.116,401.71 430,401.769 431.884,401.71 433.76,401.533 435.621,401.238 437.461,400.827 439.271,400.301 441.044,399.662 442.773,398.914 444.453,398.058 446.075,397.099 447.634,396.04 449.123,394.885 450.536,393.638 451.869,392.306 453.115,390.892 454.271,389.403 455.33,387.844 456.289,386.222 457.145,384.543 457.893,382.813 458.532,381.04 459.057,379.23 459.469,377.391 459.763,375.529 459.941,373.653" transform="rotate(0 0 0)" fill="cyan" stroke="black" stroke-width="0.5" />
</svg>
