<svg version="1.1" baseProfile="full" xmlns="http://www.w3.org/2000/svg">
<polygon points="0,0 0,500 750,500 750,0" transform="rotate(0 0 0)" fill="red" stroke="black" stroke-width="0.5" />
<polygon points="100,50 99.9013,46.8605 99.6057,43.7333 99.1144,40.6309 98.4292,37.5655 97.5528,34.5492 96.4888,31.5938 95.2414,28.711 93.8153,25.9123 92.2164,23.2087 90.4508,20.6107 88.5257,18.1288 86.4484,15.7726 84.2274,13.5516 81.8712,11.4743 79.3893,9.54915 76.7913,7.7836 74.0877,6.18467 71.289,4.75865 68.4062,3.51118 65.4508,2.44717 62.4345,1.57084 59.3691,0.885637 56.2667,0.394265 53.1395,0.0986636 50,0 46.8605,0.0986636 43.7333,0.394265 40.6309,0.885637 37.5655,1.57084 34.5492,2.44717 31.5938,3.51118 28.711,4.75865 25.9123,6.18467 23.2087,7.7836 20.6107,9.54915 18.1288,11.4743 15.7726,13.5516 13.5516,15.7726 11.4743,18.1288 9.54915,20.6107 7.7836,23.2087 6.18467,25.9123 4.75865,28.711 3.51118,31.5938 2.44717,34.5492 1.57084,37.5655 0.885637,40.6309 0.394265,43.7333 0.0986636,46.8605 0,50 0.0986636,53.1395 0.394265,56.2667 0.885637,59.3691 1.57084,62.4345 2.44717,65.4508 3.51118,68.4062 4.75865,71.289 6.18467,74.0877 7.7836,76.7913 9.54915,79.3893 11.4743,81.8712 13.5516,84.2274 15.7726,86.4484 18.1288,88.5257 20.6107,90.4508 23.2087,92.2164 25.9123,93.8153 28.711,95.2414 31.5938,96.4888 34.5492,97.5528 37.5655,98.4292 40.6309,99.1144 43.7333,99.6057 46.8605,99.9013 50,100 53.1395,99.9013 56.2667,99.6057 59.3691,99.1144 62.4345,98.4292 65.4508,97.5528 68.4062,96.4888 71.289,95.2414 74.0877,93.8153 76.7913,92.2164 79.3893,90.4508 81.8712,88.5257 84.2274,86.4484 86.4484,84.2274 88.5257,81.8712 90.4508,79.3893 92.2164,76.7913 93.8153,74.0877 95.2414,71.289 96.4888,68.4062 97.5528,65.4508 98.4292,62.4345 99.1144,59.3691 99.6057,56.2667 99.9013,53.1395" transform="rotate(0 0 0)" fill="green" stroke="black" stroke-width="0.5" />
<polygon points="200,50 199.901,46.8605 199.606,43.7333 199.114,40.6309 198.429,37.5655 197.553,34.5492 196.489,31.5938 195.241,28.711 193.815,25.9123 192.216,23.2087 190.451,20.6107 188.526,18.1288 186.448,15.7726 184.227,13.5516 181.871,11.4743 179.389,9.54915 176.791,7.7836 174.088,6.18467 171.289,4.75865 168.406,3.51118 165.451,2.44717 162.434,1.57084 159.369,0.885637 156.267,0.394265 153.14,0.0986636 150,0 146.86,0.0986636 143.733,0.394265 140.631,0.885637 137.566,1.57084 134.549,2.44717 131.594,3.51118 128.711,4.75865 125.912,6.18467 123.209,7.7836 120.611,9.54915 118.129,11.4743 115.773,13.5516 113.552,15.7726 111.474,18.1288 109.549,20.6107 107.784,23.2087 106.185,25.9123 104.759,28.711 103.511,31.5938 102.447,34.5492 101.571,37.5655 100.886,40.6309 100.394,43.7333 100.099,46.8605 100,50 100.099,53.1395 100.394,56.2667 100.886,59.3691 101.571,62.4345 102.447,65.4508 103.511,68.4062 104.759,71.289 106.185,74.0877 107.784,76.7913 109.549,79.3893 111.474,81.8712 113.552,84.2274 115.773,86.4484 118.129,88.5257 120.611,90.4508 123.209,92.2164 125.912,93.8153 128.711,95.2414 131.594,96.4888 134.549,97.5528 137.566,98.4292 140.631,99.1144 143.733,99.6057 146.86,99.9013 150,100 153.14,99.9013 156.267,99.6057 159.369,99.1144 162.434,98.4292 165.451,97.5528 168.406,96.4888 171.289,95.2414 174.088,93.8153 176.791,92.2164 179.389,90.4508 181.871,88.5257 184.227,86.4484 186.448,84.2274 188.526,81.8712 190.451,79.3893 192.216,76.7913 193.815,74.0877 195.241,71.289 196.489,68.4062 197.553,65.4508 198.429,62.4345 199.114,59.3691 199.606,56.2667 199.901,53.1395" transform="rotate(0 0 0)" fill="green" stroke="black" stroke-width="0.5" />
<polygon points="300,50 299.901,46.8605 299.606,43.7333 299.114,40.6309 298.429,37.5655 297.553,34.5492 296.489,31.5938 295.241,28.711 293.815,25.9123 292.216,23.2087 290.451,20.6107 288.526,18.1288 286.448,15.7726 284.227,13.5516 281.871,11.4743 279.389,9.54915 276.791,7.7836 274.088,6.18467 271.289,4.75865 268.406,3.51118 265.451,2.44717 262.434,1.57084 259.369,0.885637 256.267,0.394265 253.14,0.0986636 250,0 246.86,0.0986636 243.733,0.394265 240.631,0.885637 237.566,1.57084 234.549,2.44717 231.594,3.51118 228.711,4.75865 225.912,6.18467 223.209,7.7836 220.611,9.54915 218.129,11.4743 215.773,13.5516 213.552,15.7726 211.474,18.1288 209.549,20.6107 207.784,23.2087 206.185,25.9123 204.759,28.711 203.511,31.5938 202.447,34.5492 201.571,37.5655 200.886,40.6309 200.394,43.7333 200.099,46.8605 200,50 200.099,53.1395 200.394,56.2667 200.886,59.3691 201.571,62.4345 202.447,65.4508 203.511,68.4062 204.759,71.289 206.185,74.0877 207.784,76.7913 209.549,79.3893 211.474,81.8712 213.552,84.2274 215.773,86.4484 218.129,88.5257 220.611,90.4508 223.209,92.2164 225.912,93.8153 228.711,95.2414 231.594,96.4888 234.549,97.5528 237.566,98.4292 240.631,99.1144 243.733,99.6057 246.86,99.9013 250,100 253.14,99.9013 256.267,99.6057 259.369,99.1144 262.434,98.4292 265.451,97.5528 268.406,96.4888 271.289,95.2414 274.088,93.8153 276.791,92.2164 279.389,90.4508 281.871,88.5257 284.227,86.4484 286.448,84.2274 288.526,81.8712 290.451,79.3893 292.216,76.7913 293.815,74.0877 295.241,71.289 296.489,68.4062 297.553,65.4508 298.429,62.4345 299.114,59.3691 299.606,56.2667 299.901,53.1395" transform="rotate(0 0 0)" fill="green" stroke="black" stroke-width="0.5" />
<polygon points="400,50 399.901,46.8605 399.606,43.7333 399.114,40.6309 398.429,37.5655 397.553,34.5492 396.489,31.5938 395.241,28.711 393.815,25.9123 392.216,23.2087 390.451,20.6107 388.526,18.1288 386.448,15.7726 384.227,13.5516 381.871,11.4743 379.389,9.54915 376.791,7.7836 374.088,6.18467 371.289,4.75865 368.406,3.51118 365.451,2.44717 362.434,1.57084 359.369,0.885637 356.267,0.394265 353.14,0.0986636 350,0 346.86,0.0986636 343.733,0.394265 340.631,0.885637 337.566,1.57084 334.549,2.44717 331.594,3.51118 328.711,4.75865 325.912,6.18467 323.209,7.7836 320.611,9.54915 318.129,11.4743 315.773,13.5516 313.552,15.7726 311.474,18.1288 309.549,20.6107 307.784,23.2087 306.185,25.9123 304.759,28.711 303.511,31.5938 302.447,34.5492 301.571,37.5655 300.886,40.6309 300.394,43.7333 300.099,46.8605 300,50 300.099,53.1395 300.394,56.2667 300.886,59.3691 301.571,62.4345 302.447,65.4508 303.511,68.4062 304.759,71.289 306.185,74.0877 307.784,76.7913 309.549,79.3893 311.474,81.8712 313.552,84.2274 315.773,86.4484 318.129,88.5257 320.611,90.4508 323.209,92.2164 325.912,93.8153 328.711,95.2414 331.594,96.4888 334.549,97.5528 337.566,98.4292 340.631,99.1144 343.733,99.6057 346.86,99.9013 350,100 353.14,99.9013 356.267,99.6057 359.369,99.1144 362.434,98.4292 365.451,97.5528 368.406,96.4888 371.289,95.2414 374.088,93.8153 376.791,92.2164 379.389,90.4508 381.871,88.5257 384.227,86.4484 386.448,84.2274 388.526,81.8712 390.451,79.3893 392.216,76.7913 393.815,74.0877 395.241,71.289 396.489,68.4062 397.553,65.4508 398.429,62.4345 399.114,59.3691 399.606,56.2667 399.901,53.1395" transform="rotate(0 0 0)" fill="green" stroke="black" stroke-width="0.5" />
<polygon points="500,50 499.901,46.8605 499.606,43.7333 499.114,40.6309 498.429,37.5655 497.553,34.5492 496.489,31.5938 495.241,28.711 493.815,25.9123 492.216,23.2087 490.451,20.6107 488.526,18.1288 486.448,15.7726 484.227,13.5516 481.871,11.4743 479.389,9.54915 476.791,7.7836 474.088,6.18467 471.289,4.75865 468.406,3.51118 465.451,2.44717 462.434,1.57084 459.369,0.885637 456.267,0.394265 453.14,0.0986636 450,0 446.86,0.0986636 443.733,0.394265 440.631,0.885637 437.566,1.57084 434.549,2.44717 431.594,3.51118 428.711,4.75865 425.912,6.18467 423.209,7.7836 420.611,9.54915 418.129,11.4743 415.773,13.5516 413.552,15.7726 411.474,18.1288 409.549,20.6107 407.784,23.2087 406.185,25.9123 404.759,28.711 403.511,31.5938 402.447,34.5492 401.571,37.5655 400.886,40.6309 400.394,43.7333 400.099,46.8605 400,50 400.099,53.1395 400.394,56.2667 400.886,59.3691 401.571,62.4345 402.447,65.4508 403.511,68.4062 404.759,71.289 406.185,74.0877 407.784,76.7913 409.549,79.3893 411.474,81.8712 413.552,84.2274 415.773,86.4484 418.129,88.5257 420.611,90.4508 423.209,92.2164 425.912,93.8153 428.711,95.2414 431.594,96.4888 434.549,97.5528 437.566,98.4292 440.631,99.1144 443.733,99.6057 446.86,99.9013 450,100 453.14,99.9013 456.267,99.6057 459.369,99.1144 462.434,98.4292 465.451,97.5528 468.406,96.4888 471.289,95.2414 474.088,93.8153 476.791,92.2164 479.389,90.4508 481.871,88.5257 484.227,86.4484 486.448,84.2274 488.526,81.8712 490.451,79.3893 492.216,76.7913 493.815,74.0877 495.241,71.289 496.489,68.4062 497.553,65.4508 498.429,62.4345 499.114,59.3691 499.606,56.2667 499.901,53.1395" transform="rotate(0 0 0)" fill="green" stroke="black" stroke-width="0.5" />
<polygon points="600,50 599.901,46.8605 599.606,43.7333 599.114,40.6309 598.429,37.5655 597.553,34.5492 596.489,31.5938 595.241,28.711 593.815,25.9123 592.216,23.2087 590.451,20.6107 588.526,18.1288 586.448,15.7726 584.227,13.5516 581.871,11.4743 579.389,9.54915 576.791,7.7836 574.088,6.18467 571.289,4.75865 568.406,3.51118 565.451,2.44717 562.434,1.57084 559.369,0.885637 556.267,0.394265 553.14,0.0986636 550,0 546.86,0.0986636 543.733,0.394265 540.631,0.885637 537.566,1.57084 534.549,2.44717 531.594,3.51118 528.711,4.75865 525.912,6.18467 523.209,7.7836 520.611,9.54915 518.129,11.4743 515.773,13.5516 513.552,15.7726 511.474,18.1288 509.549,20.6107 507.784,23.2087 506.185,25.9123 504.759,28.711 503.511,31.5938 502.447,34.5492 501.571,37.5655 500.886,40.6309 500.394,43.7333 500.099,46.8605 500,50 500.099,53.1395 500.394,56.2667 500.886,59.3691 501.571,62.4345 502.447,65.4508 503.511,68.4062 504.759,71.289 506.185,74.0877 507.784,76.7913 509.549,79.3893 511.474,81.8712 513.552,84.2274 515.773,86.4484 518.129,88.5257 520.611,90.4508 523.209,92.2164 525.912,93.8153 528.711,95.2414 531.594,96.4888 534.549,97.5528 537.566,98.4292 540.631,99.1144 543.733,99.6057 546.86,99.9013 550,100 553.14,99.9013 556.267,99.6057 559.369,99.1144 562.434,98.4292 565.451,97.5528 568.406,96.4888 571.289,95.2414 574.088,93.8153 576.791,92.2164 579.389,90.4508 581.871,88.5257 584.227,86.4484 586.448,84.2274 588.526,81.8712 590.451,79.3893 592.216,76.7913 593.815,74.0877 595.241,71.289 596.489,68.4062 597.553,65.4508 598.429,62.4345 599.114,59.3691 599.606,56.2667 599.901,53.1395" transform="rotate(0 0 0)" fill="green" stroke="black" stroke-width="0.5" />
<polygon points="700,50 699.901,46.8605 699.606,43.7333 699.114,40.6309 698.429,37.5655 697.553,34.5492 696.489,31.5938 695.241,28.711 693.815,25.9123 692.216,23.2087 690.451,20.6107 688.526,18.1288 686.448,15.7726 684.227,13.5516 681.871,11.4743 679.389,9.54915 676.791,7.7836 674.088,6.18467 671.289,4.75865 668.406,3.51118 665.451,2.44717 662.434,1.57084 659.369,0.885637 656.267,0.394265 653.14,0.0986636 650,0 646.86,0.0986636 643.733,0.394265 640.631,0.885637 637.566,1.57084 634.549,2.44717 631.594,3.51118 628.711,4.75865 625.912,6.18467 623.209,7.7836 620.611,9.54915 618.129,11.4743 615.773,13.5516 613.552,15.7726 611.474,18.1288 609.549,20.6107 607.784,23.2087 606.185,25.9123 604.759,28.711 603.511,31.5938 602.447,34.5492 601.571,37.5655 600.886,40.6309 600.394,43.7333 600.099,46.8605 600,50 600.099,53.1395 600.394,56.2667 600.886,59.3691 601.571,62.4345 602.447,65.4508 603.511,68.4062 604.759,71.289 606.185,74.0877 607.784,76.7913 609.549,79.3893 611.474,81.8712 613.552,84.2274 615.773,86.4484 618.129,88.5257 620.611,90.4508 623.209,92.2164 625.912,93.8153 628.711,95.2414 631.594,96.4888 634.549,97.5528 637.566,98.4292 640.631,99.1144 643.733,99.6057 646.86,99.9013 650,100 653.14,99.9013 656.267,99.6057 659.369,99.1144 662.434,98.4292 665.451,97.5528 668.406,96.4888 671.289,95.2414 674.088,93.8153 676.791,92.2164 679.389,90.4508 681.871,88.5257 684.227,86.4484 686.448,84.2274 688.526,81.8712 690.451,79.3893 692.216,76.7913 693.815,74.0877 695.241,71.289 696.489,68.4062 697.553,65.4508 698.429,62.4345 699.114,59.3691 699.606,56.2667 699.901,53.1395" transform="rotate(0 0 0)" fill="green" stroke="black" stroke-width="0.5" />
<polygon points="100,150 99.9013,146.86 99.6057,143.733 99.1144,140.631 98.4292,137.566 97.5528,134.549 96.4888,131.594 95.2414,128.711 93.8153,125.912 92.2164,123.209 90.4508,120.611 88.5257,118.129 86.4484,115.773 84.2274,113.552 81.8712,111.474 79.3893,109.549 76.7913,107.784 74.0877,106.185 71.289,104.759 68.4062,103.511 65.4508,102.447 62.4345,101.571 59.3691,100.886 56.2667,100.394 53.1395,100.099 50,100 46.8605,100.099 43.7333,100.394 40.6309,100.886 37.5655,101.571 34.5492,102.447 31.5938,103.511 28.711,104.759 25.9123,106.185 23.2087,107.784 20.6107,109.549 18.1288,111.474 15.7726,113.552 13.5516,115.773 11.4743,118.129 9.54915,120.611 7.7836,123.209 6.18467,125.912 4.75865,128.711 3.51118,131.594 2.44717,134.549 1.57084,137.566 0.885637,140.631 0.394265,143.733 0.0986636,146.86 0,150 0.0986636,153.14 0.394265,156.267 0.885637,159.369 1.57084,162.434 2.44717,165.451 3.51118,168.406 4.75865,171.289 6.18467,174.088 7.7836,176.791 9.54915,179.389 11.4743,181.871 13.5516,184.227 15.7726,186.448 18.1288,188.526 20.6107,190.451 23.2087,192.216 25.9123,193.815 28.711,195.241 31.5938,196.489 34.5492,197.553 37.5655,198.429 40.6309,199.114 43.7333,199.606 46.8605,199.901 50,200 53.1395,199.901 56.2667,199.606 59.3691,199.114 62.4345,198.429 65.4508,197.553 68.4062,196.489 71.289,195.241 74.0877,193.815 76.7913,192.216 79.3893,190.451 81.8712,188.526 84.2274,186.448 86.4484,184.227 88.5257,181.871 90.4508,179.389 92.2164,176.791 93.8153,174.088 95.2414,171.289 96.4888,168.406 97.5528,165.451 98.4292,162.434 99.1144,159.369 99.6057,156.267 99.9013,153.14" transform="rotate(0 0 0)" fill="green" stroke="black" stroke-width="0.5" />
<polygon points="200,150 199.901,146.86 199.606,143.733 199.114,140.631 198.429,137.566 197.553,134.549 196.489,131.594 195.241,128.711 193.815,125.912 192.216,123.209 190.451,120.611 188.526,118.129 186.448,115.773 184.227,113.552 181.871,111.474 179.389,109.549 176.791,107.784 174.088,106.185 171.289,104.759 168.406,103.511 165.451,102.447 162.434,101.571 159.369,100.886 156.267,100.394 153.14,100.099 150,100 146.86,100.099 143.733,100.394 140.631,100.886 137.566,101.571 134.549,102.447 131.594,103.511 128.711,104.759 125.912,106.185 123.209,107.784 120.611,109.549 118.129,111.474 115.773,113.552 113.552,115.773 111.474,118.129 109.549,120.611 107.784,123.209 106.185,125.912 104.759,128.711 103.511,131.594 102.447,134.549 101.571,137.566 100.886,140.631 100.394,143.733 100.099,146.86 100,150 100.099,153.14 100.394,156.267 100.886,159.369 101.571,162.434 102.447,165.451 103.511,168.406 104.759,171.289 106.185,174.088 107.784,176.791 109.549,179.389 111.474,181.871 113.552,184.227 115.773,186.448 118.129,188.526 120.611,190.451 123.209,192.216 125.912,193.815 128.711,195.241 131.594,196.489 134.549,197.553 137.566,198.429 140.631,199.114 143.733,199.606 146.86,199.901 150,200 153.14,199.901 156.267,199.606 159.369,199.114 162.434,198.429 165.451,197.553 168.406,196.489 171.289,195.241 174.088,193.815 176.791,192.216 179.389,190.451 181.871,188.526 184.227,186.448 186.448,184.227 188.526,181.871 190.451,179.389 192.216,176.791 193.815,174.088 195.241,171.289 196.489,168.406 197.553,165.451 198.429,162.434 199.114,159.369 199.606,156.267 199.901,153.14" transform="rotate(0 0 0)" fill="green" stroke="black" stroke-width="0.5" />
<polygon points="300,150 299.901,146.86 299.606,143.733 299.114,140.631 298.429,137.566 297.553,134.549 296.489,131.594 295.241,128.711 293.815,125.912 292.216,123.209 290.451,120.611 288.526,118.129 286.448,115.773 284.227,113.552 281.871,111.474 279.389,109.549 276.791,107.784 274.088,106.185 271.289,104.759 268.406,103.511 265.451,102.447 262.434,101.571 259.369,100.886 256.267,100.394 253.14,100.099 250,100 246.86,100.099 243.733,100.394 240.631,100.886 237.566,101.571 234.549,102.447 231.594,103.511 228.711,104.759 225.912,106.185 223.209,107.784 220.611,109.549 218.129,111.474 215.773,113.552 213.552,115.773 211.474,118.129 209.549,120.611 207.784,123.209 206.185,125.912 204.759,128.711 203.511,131.594 202.447,134.549 201.571,137.566 200.886,140.631 200.394,143.733 200.099,146.86 200,150 200.099,153.14 200.394,156.267 200.886,159.369 201.571,162.434 202.447,165.451 203.511,168.406 204.759,171.289 206.185,174.088 207.784,176.791 209.549,179.389 211.474,181.871 213.552,184.227 215.773,186.448 218.129,188.526 220.611,190.451 223.209,192.216 225.912,193.815 228.711,195.241 231.594,196.489 234.549,197.553 237.566,198.429 240.631,199.114 243.733,199.606 246.86,199.901 250,200 253.14,199.901 256.267,199.606 259.369,199.114 262.434,198.429 265.451,197.553 268.406,196.489 271.289,195.241 274.088,193.815 276.791,192.216 279.389,190.451 281.871,188.526 284.227,186.448 286.448,184.227 288.526,181.871 290.451,179.389 292.216,176.791 293.815,174.088 295.241,171.289 296.489,168.406 297.553,165.451 298.429,162.434 299.114,159.369 299.606,156.267 299.901,153.14" transform="rotate(0 0 0)" fill="green" stroke="black" stroke-width="0.5" />
<polygon points="400,150 399.901,146.86 399.606,143.733 399.114,140.631 398.429,137.566 397.553,134.549 396.489,131.594 395.241,128.711 393.815,125.912 392.216,123.209 390.451,120.611 388.526,118.129 386.448,115.773 384.227,113.552 381.871,111.474 379.389,109.549 376.791,107.784 374.088,106.185 371.289,104.759 368.406,103.511 365.451,102.447 362.434,101.571 359.369,100.886 356.267,100.394 353.14,100.099 350,100 346.86,100.099 343.733,100.394 340.631,100.886 337.566,101.571 334.549,102.447 331.594,103.511 328.711,104.759 325.912,106.185 323.209,107.784 320.611,109.549 318.129,111.474 315.773,113.552 313.552,115.773 311.474,118.129 309.549,120.611 307.784,123.209 306.185,125.912 304.759,128.711 303.511,131.594 302.447,134.549 301.571,137.566 300.886,140.631 300.394,143.733 300.099,146.86 300,150 300.099,153.14 300.394,156.267 300.886,159.369 301.571,162.434 302.447,165.451 303.511,168.406 304.759,171.289 306.185,174.088 307.784,176.791 309.549,179.389 311.474,181.871 313.552,184.227 315.773,186.448 318.129,188.526 320.611,190.451 323.209,192.216 325.912,193.815 328.711,195.241 331.594,196.489 334.549,197.553 337.566,198.429 340.631,199.114 343.733,199.606 346.86,199.901 350,200 353.14,199.901 356.267,199.606 359.369,199.114 362.434,198.429 365.451,197.553 368.406,196.489 371.289,195.241 374.088,193.815 376.791,192.216 379.389,190.451 381.871,188.526 384.227,186.448 386.448,184.227 388.526,181.871 390.451,179.389 392.216,176.791 393.815,174.088 395.241,171.289 396.489,168.406 397.553,165.451 398.429,162.434 399.114,159.369 399.606,156.267 399.901,153.14" transform="rotate(0 0 0)" fill="green" stroke="black" stroke-width="0.5" />
<polygon points="500,150 499.901,146.86 499.606,143.733 499.114,140.631 498.429,137.566 497.553,134.549 496.489,131.594 495.241,128.711 493.815,125.912 492.216,123.209 490.451,120.611 488.526,118.129 486.448,115.773 484.227,113.552 481.871,111.474 479.389,109.549 476.791,107.784 474.088,106.185 471.289,104.759 468.406,103.511 465.451,102.447 462.434,101.571 459.369,100.886 456.267,100.394 453.14,100.099 450,100 446.86,100.099 443.733,100.394 440.631,100.886 437.566,101.571 434.549,102.447 431.594,103.511 428.711,104.759 425.912,106.185 423.209,107.784 420.611,109.549 418.129,111.474 415.773,113.552 413.552,115.773 411.474,118.129 409.549,120.611 407.784,123.209 406.185,125.912 404.759,128.711 403.511,131.594 402.447,134.549 401.571,137.566 400.886,140.631 400.394,143.733 400.099,146.86 400,150 400.099,153.14 400.394,156.267 400.886,159.369 401.571,162.434 402.447,165.451 403.511,168.406 404.759,171.289 406.185,174.088 407.784,176.791 409.549,179.389 411.474,181.871 413.552,184.227 415.773,186.448 418.129,188.526 420.611,190.451 423.209,192.216 425.912,193.815 428.711,195.241 431.594,196.489 434.549,197.553 437.566,198.429 440.631,199.114 443.733,199.606 446.86,199.901 450,200 453.14,199.901 456.267,199.606 459.369,199.114 462.434,198.429 465.451,197.553 468.406,196.489 471.289,195.241 474.088,193.815 476.791,192.216 479.389,190.451 481.871,188.526 484.227,186.448 486.448,184.227 488.526,181.871 490.451,179.389 492.216,176.791 493.815,174.088 495.241,171.289 496.489,168.406 497.553,165.451 498.429,162.434 499.114,159.369 499.606,156.267 499.901,153.14" transform="rotate(0 0 0)" fill="green" stroke="black" stroke-width="0.5" />
<polygon points="600,150 599.901,146.86 599.606,143.733 599.114,140.631 598.429,137.566 597.553,134.549 596.489,131.594 595.241,128.711 593.815,125.912 592.216,123.209 590.451,120.611 588.526,118.129 586.448,115.773 584.227,113.552 581.871,111.474 579.389,109.549 576.791,107.784 574.088,106.185 571.289,104.759 568.406,103.511 565.451,102.447 562.434,101.571 559.369,100.886 556.267,100.394 553.14,100.099 550,100 546.86,100.099 543.733,100.394 540.631,100.886 537.566,101.571 534.549,102.447 531.594,103.511 528.711,104.759 525.912,106.185 523.209,107.784 520.611,109.549 518.129,111.474 515.773,113.552 513.552,115.773 511.474,118.129 509.549,120.611 507.784,123.209 506.185,125.912 504.759,128.711 503.511,131.594 502.447,134.549 501.571,137.566 500.886,140.631 500.394,143.733 500.099,146.86 500,150 500.099,153.14 500.394,156.267 500.886,159.369 501.571,162.434 502.447,165.451 503.511,168.406 504.759,171.289 506.185,174.088 507.784,176.791 509.549,179.389 511.474,181.871 513.552,184.227 515.773,186.448 518.129,188.526 520.611,190.451 523.209,192.216 525.912,193.815 528.711,195.241 531.594,196.489 534.549,197.553 537.566,198.429 540.631,199.114 543.733,199.606 546.86,199.901 550,200 553.14,199.901 556.267,199.606 559.369,199.114 562.434,198.429 565.451,197.553 568.406,196.489 571.289,195.241 574.088,193.815 576.791,192.216 579.389,190.451 581.871,188.526 584.227,186.448 586.448,184.227 588.526,181.871 590.451,179.389 592.216,176.791 593.815,174.088 595.241,171.289 596.489,168.406 597.553,165.451 598.429,162.434 599.114,159.369 599.606,156.267 599.901,153.14" transform="rotate(0 0 0)" fill="green" stroke="black" stroke-width="0.5" />
<polygon points="700,150 699.901,146.86 699.606,143.733 699.114,140.631 698.429,137.566 697.553,134.549 696.489,131.594 695.241,128.711 693.815,125.912 692.216,123.209 690.451,120.611 688.526,118.129 686.448,115.773 684.227,113.552 681.871,111.474 679.389,109.549 676.791,107.784 674.088,106.185 671.289,104.759 668.406,103.511 665.451,102.447 662.434,101.571 659.369,100.886 656.267,100.394 653.14,100.099 650,100 646.86,100.099 643.733,100.394 640.631,100.886 637.566,101.571 634.549,102.447 631.594,103.511 628.711,104.759 625.912,106.185 623.209,107.784 620.611,109.549 618.129,111.474 615.773,113.552 613.552,115.773 611.474,118.129 609.549,120.611 607.784,123.209 606.185,125.912 604.759,128.711 603.511,131.594 602.447,134.549 601.571,137.566 600.886,140.631 600.394,143.733 600.099,146.86 600,150 600.099,153.14 600.394,156.267 600.886,159.369 601.571,162.434 602.447,165.451 603.511,168.406 604.759,171.289 606.185,174.088 607.784,176.791 609.549,179.389 611.474,181.871 613.552,184.227 615.773,186.448 618.129,188.526 620.611,190.451 623.209,192.216 625.912,193.815 628.711,195.241 631.594,196.489 634.549,197.553 637.566,198.429 640.631,199.114 643.733,199.606 646.86,199.901 650,200 653.14,199.901 656.267,199.606 659.369,199.114 662.434,198.429 665.451,197.553 668.406,196.489 671.289,195.241 674.088,193.815 676.791,192.216 679.389,190.451 681.871,188.526 684.227,186.448 686.448,184.227 688.526,181.871 690.451,179.389 692.216,176.791 693.815,174.088 695.241,171.289 696.489,168.406 697.553,165.451 698.429,162.434 699.114,159.369 699.606,156.267 699.901,153.14" transform="rotate(0 0 0)" fill="green" stroke="black" stroke-width="0.5" />
<polygon points="100,250 99.9013,246.86 99.6057,243.733 99.1144,240.631 98.4292,237.566 97.5528,234.549 96.4888,231.594 95.2414,228.711 93.8153,225.912 92.2164,223.209 90.4508,220.611 88.5257,218.129 86.4484,215.773 84.2274,213.552 81.8712,211.474 79.3893,209.549 76.7913,207.784 74.0877,206.185 71.289,204.759 68.4062,203.511 65.4508,202.447 62.4345,201.571 59.3691,200.886 56.2667,200.394 53.1395,200.099 50,200 46.8605,200.099 43.7333,200.394 40.6309,200.886 37.5655,201.571 34.5492,202.447 31.5938,203.511 28.711,204.759 25.9123,206.185 23.2087,207.784 20.6107,209.549 18.1288,211.474 15.7726,213.552 13.5516,215.773 11.4743,218.129 9.54915,220.611 7.7836,223.209 6.18467,225.912 4.75865,228.711 3.51118,231.594 2.44717,234.549 1.57084,237.566 0.885637,240.631 0.394265,243.733 0.0986636,246.86 0,250 0.0986636,253.14 0.394265,256.267 0.885637,259.369 1.57084,262.434 2.44717,265.451 3.51118,268.406 4.75865,271.289 6.18467,274.088 7.7836,276.791 9.54915,279.389 11.4743,281.871 13.5516,284.227 15.7726,286.448 18.1288,288.526 20.6107,290.451 23.2087,292.216 25.9123,293.815 28.711,295.241 31.5938,296.489 34.5492,297.553 37.5655,298.429 40.6309,299.114 43.7333,299.606 46.8605,299.901 50,300 53.1395,299.901 56.2667,299.606 59.3691,299.114 62.4345,298.429 65.4508,297.553 68.4062,296.489 71.289,295.241 74.0877,293.815 76.7913,292.216 79.3893,290.451 81.8712,288.526 84.2274,286.448 86.4484,284.227 88.5257,281.871 90.4508,279.389 92.2164,276.791 93.8153,274.088 95.2414,271.289 96.4888,268.406 97.5528,265.451 98.4292,262.434 99.1144,259.369 99.6057,256.267 99.9013,253.14" transform="rotate(0 0 0)" fill="green" stroke="black" stroke-width="0.5" />
<polygon points="200,250 199.901,246.86 199.606,243.733 199.114,240.631 198.429,237.566 197.553,234.549 196.489,231.594 195.241,228.711 193.815,225.912 192.216,223.209 190.451,220.611 188.526,218.129 186.448,215.773 184.227,213.552 181.871,211.474 179.389,209.549 176.791,207.784 174.088,206.185 171.289,204.759 168.406,203.511 165.451,202.447 162.434,201.571 159.369,200.886 156.267,200.394 153.14,200.099 150,200 146.86,200.099 143.733,200.394 140.631,200.886 137.566,201.571 134.549,202.447 131.594,203.511 128.711,204.759 125.912,206.185 123.209,207.784 120.611,209.549 118.129,211.474 115.773,213.552 113.552,215.773 111.474,218.129 109.549,220.611 107.784,223.209 106.185,225.912 104.759,228.711 103.511,231.594 102.447,234.549 101.571,237.566 100.886,240.631 100.394,243.733 100.099,246.86 100,250 100.099,253.14 100.394,256.267 100.886,259.369 101.571,262.434 102.447,265.451 103.511,268.406 104.759,271.289 106.185,274.088 107.784,276.791 109.549,279.389 111.474,281.871 113.552,284.227 115.773,286.448 118.129,288.526 120.611,290.451 123.209,292.216 125.912,293.815 128.711,295.241 131.594,296.489 134.549,297.553 137.566,298.429 140.631,299.114 143.733,299.606 146.86,299.901 150,300 153.14,299.901 156.267,299.606 159.369,299.114 162.434,298.429 165.451,297.553 168.406,296.489 171.289,295.241 174.088,293.815 176.791,292.216 179.389,290.451 181.871,288.526 184.227,286.448 186.448,284.227 188.526,281.871 190.451,279.389 192.216,276.791 193.815,274.088 195.241,271.289 196.489,268.406 197.553,265.451 198.429,262.434 199.114,259.369 199.606,256.267 199.901,253.14" transform="rotate(0 0 0)" fill="green" stroke="black" stroke-width="0.5" />
<polygon points="300,250 299.901,246.86 299.606,243.733 299.114,240.631 298.429,237.566 297.553,234.549 296.489,231.594 295.241,228.711 293.815,225.912 292.216,223.209 290.451,220.611 288.526,218.129 286.448,215.773 284.227,213.552 281.871,211.474 279.389,209.549 276.791,207.784 274.088,206.185 271.289,204.759 268.406,203.511 265.451,202.447 262.434,201.571 259.369,200.886 256.267,200.394 253.14,200.099 250,200 246.86,200.099 243.733,200.394 240.631,200.886 237.566,201.571 234.549,202.447 231.594,203.511 228.711,204.759 225.912,206.185 223.209,207.784 220.611,209.549 218.129,211.474 215.773,213.552 213.552,215.773 211.474,218.129 209.549,220.611 207.784,223.209 206.185,225.912 204.759,228.711 203.511,231.594 202.447,234.549 201.571,237.566 200.886,240.631 200.394,243.733 200.099,246.86 200,250 200.099,253.14 200.394,256.267 200.886,259.369 201.571,262.434 202.447,265.451 203.511,268.406 204.759,271.289 206.185,274.088 207.784,276.791 209.549,279.389 211.474,281.871 213.552,284.227 215.773,286.448 218.129,288.526 220.611,290.451 223.209,292.216 225.912,293.815 228.711,295.241 231.594,296.489 234.549,297.553 237.566,298.429 240.631,299.114 243.733,299.606 246.86,299.901 250,300 253.14,299.901 256.267,299.606 259.369,299.114 262.434,298.429 265.451,297.553 268.406,296.489 271.289,295.241 274.088,293.815 276.791,292.216 279.389,290.451 281.871,288.526 284.227,286.448 286.448,284.227 288.526,281.871 290.451,279.389 292.216,276.791 293.815,274.088 295.241,271.289 296.489,268.406 297.553,265.451 298.429,262.434 299.114,259.369 299.606,256.267 299.901,253.14" transform="rotate(0 0 0)" fill="green" stroke="black" stroke-width="0.5" />
<polygon points="400,250 399.901,246.86 399.606,243.733 399.114,240.631 398.429,237.566 397.553,234.549 396.489,231.594 395.241,228.711 393.815,225.912 392.216,223.209 390.451,220.611 388.526,218.129 386.448,215.773 384.227,213.552 381.871,211.474 379.389,209.549 376.791,207.784 374.088,206.185 371.289,204.759 368.406,203.511 365.451,202.447 362.434,201.571 359.369,200.886 356.267,200.394 353.14,200.099 350,200 346.86,200.099 343.733,200.394 340.631,200.886 337.566,201.571 334.549,202.447 331.594,203.511 328.711,204.759 325.912,206.185 323.209,207.784 320.611,209.549 318.129,211.474 315.773,213.552 313.552,215.773 311.474,218.129 309.549,220.611 307.784,223.209 306.185,225.912 304.759,228.711 303.511,231.594 302.447,234.549 301.571,237.566 300.886,240.631 300.394,243.733 300.099,246.86 300,250 300.099,253.14 300.394,256.267 300.886,259.369 301.571,262.434 302.447,265.451 303.511,268.406 304.759,271.289 306.185,274.088 307.784,276.791 309.549,279.389 311.474,281.871 313.552,284.227 315.773,286.448 318.129,288.526 320.611,290.451 323.209,292.216 325.912,293.815 328.711,295.241 331.594,296.489 334.549,297.553 337.566,298.429 340.631,299.114 343.733,299.606 346.86,299.901 350,300 353.14,299.901 356.267,299.606 359.369,299.114 362.434,298.429 365.451,297.553 368.406,296.489 371.289,295.241 374.088,293.815 376.791,292.216 379.389,290.451 381.871,288.526 384.227,286.448 386.448,284.227 388.526,281.871 390.451,279.389 392.216,276.791 393.815,274.088 395.241,271.289 396.489,268.406 397.553,265.451 398.429,262.434 399.114,259.369 399.606,256.267 399.901,253.14" transform="rotate(0 0 0)" fill="green" stroke="black" stroke-width="0.5" />
<polygon points="500,250 499.901,246.86 499.606,243.733 499.114,240.631 498.429,237.566 497.553,234.549 496.489,231.594 495.241,228.711 493.815,225.912 492.216,223.209 490.451,220.611 488.526,218.129 486.448,215.773 484.227,213.552 481.871,211.474 479.389,209.549 476.791,207.784 474.088,206.185 471.289,204.759 468.406,203.511 465.451,202.447 462.434,201.571 459.369,200.886 456.267,200.394 453.14,200.099 450,200 446.86,200.099 443.733,200.394 440.631,200.886 437.566,201.571 434.549,202.447 431.594,203.511 428.711,204.759 425.912,206.185 423.209,207.784 420.611,209.549 418.129,211.474 415.773,213.552 413.552,215.773 411.474,218.129 409.549,220.611 407.784,223.209 406.185,225.912 404.759,228.711 403.511,231.594 402.447,234.549 401.571,237.566 400.886,240.631 400.394,243.733 400.099,246.86 400,250 400.099,253.14 400.394,256.267 400.886,259.369 401.571,262.434 402.447,265.451 403.511,268.406 404.759,271.289 406.185,274.088 407.784,276.791 409.549,279.389 411.474,281.871 413.552,284.227 415.773,286.448 418.129,288.526 420.611,290.451 423.209,292.216 425.912,293.815 428.711,295.241 431.594,296.489 434.549,297.553 437.566,298.429 440.631,299.114 443.733,299.606 446.86,299.901 450,300 453.14,299.901 456.267,299.606 459.369,299.114 462.434,298.429 465.451,297.553 468.406,296.489 471.289,295.241 474.088,293.815 476.791,292.216 479.389,290.451 481.871,288.526 484.227,286.448 486.448,284.227 488.526,281.871 490.451,279.389 492.216,276.791 493.815,274.088 495.241,271.289 496.489,268.406 497.553,265.451 498.429,262.434 499.114,259.369 499.606,256.267 499.901,253.14" transform="rotate(0 0 0)" fill="green" stroke="black" stroke-width="0.5" />
<polygon points="600,250 599.901,246.86 599.606,243.733 599.114,240.631 598.429,237.566 597.553,234.549 596.489,231.594 595.241,228.711 593.815,225.912 592.216,223.209 590.451,220.611 588.526,218.129 586.448,215.773 584.227,213.552 581.871,211.474 579.389,209.549 576.791,207.784 574.088,206.185 571.289,204.759 568.406,203.511 565.451,202.447 562.434,201.571 559.369,200.886 556.267,200.394 553.14,200.099 550,200 546.86,200.099 543.733,200.394 540.631,200.886 537.566,201.571 534.549,202.447 531.594,203.511 528.711,204.759 525.912,206.185 523.209,207.784 520.611,209.549 518.129,211.474 515.773,213.552 513.552,215.773 511.474,218.129 509.549,220.611 507.784,223.209 506.185,225.912 504.759,228.711 503.511,231.594 502.447,234.549 501.571,237.566 500.886,240.631 500.394,243.733 500.099,246.86 500,250 500.099,253.14 500.394,256.267 500.886,259.369 501.571,262.434 502.447,265.451 503.511,268.406 504.759,271.289 506.185,274.088 507.784,276.791 509.549,279.389 511.474,281.871 513.552,284.227 515.773,286.448 518.129,288.526 520.611,290.451 523.209,292.216 525.912,293.815 528.711,295.241 531.594,296.489 534.549,297.553 537.566,298.429 540.631,299.114 543.733,299.606 546.86,299.901 550,300 553.14,299.901 556.267,299.606 559.369,299.114 562.434,298.429 565.451,297.553 568.406,296.489 571.289,295.241 574.088,293.815 576.791,292.216 579.389,290.451 581.871,288.526 584.227,286.448 586.448,284.227 588.526,281.871 590.451,279.389 592.216,276.791 593.815,274.088 595.241,271.289 596.489,268.406 597.553,265.451 598.429,262.434 599.114,259.369 599.606,256.267 599.901,253.14" transform="rotate(0 0 0)" fill="green" stroke="black" stroke-width="0.5" />
<polygon points="700,250 699.901,246.86 699.606,243.733 699.114,240.631 698.429,237.566 697.553,234.549 696.489,231.594 695.241,228.711 693.815,225.912 692.216,223.209 690.451,220.611 688.526,218.129 686.448,215.773 684.227,213.552 681.871,211.474 679.389,209.549 676.791,207.784 674.088,206.185 671.289,204.759 668.406,203.511 665.451,202.447 662.434,201.571 659.369,200.886 656.267,200.394 653.14,200.099 650,200 646.86,200.099 643.733,200.394 640.631,200.886 637.566,201.571 634.549,202.447 631.594,203.511 628.711,204.759 625.912,206.185 623.209,207.784 620.611,209.549 618.129,211.474 615.773,213.552 613.552,215.773 611.474,218.129 609.549,220.611 607.784,223.209 606.185,225.912 604.759,228.711 603.511,231.594 602.447,234.549 601.571,237.566 600.886,240.631 600.394,243.733 600.099,246.86 600,250 600.099,253.14 600.394,256.267 600.886,259.369 601.571,262.434 602.447,265.451 603.511,268.406 604.759,271.289 606.185,274.088 607.784,276.791 609.549,279.389 611.474,281.871 613.552,284.227 615.773,286.448 618.129,288.526 620.611,290.451 623.209,292.216 625.912,293.815 628.711,295.241 631.594,296.489 634.549,297.553 637.566,298.429 640.631,299.114 643.733,299.606 646.86,299.901 650,300 653.14,299.901 656.267,299.606 659.369,299.114 662.434,298.429 665.451,297.553 668.406,296.489 671.289,295.241 674.088,293.815 676.791,292.216 679.389,290.451 681.871,288.526 684.227,286.448 686.448,284.227 688.526,281.871 690.451,279.389 692.216,276.791 693.815,274.088 695.241,271.289 696.489,268.406 697.553,265.451 698.429,262.434 699.114,259.369 699.606,256.267 699.901,253.14" transform="rotate(0 0 0)" fill="green" stroke="black" stroke-width="0.5" />
<polygon points="100,350 99.9013,346.86 99.6057,343.733 99.1144,340.631 98.4292,337.566 97.5528,334.549 96.4888,331.594 95.2414,328.711 93.8153,325.912 92.2164,323.209 90.4508,320.611 88.5257,318.129 86.4484,315.773 84.2274,313.552 81.8712,311.474 79.3893,309.549 76.7913,307.784 74.0877,306.185 71.289,304.759 68.4062,303.511 65.4508,302.447 62.4345,301.571 59.3691,300.886 56.2667,300.394 53.1395,300.099 50,300 46.8605,300.099 43.7333,300.394 40.6309,300.886 37.5655,301.571 34.5492,302.447 31.5938,303.511 28.711,304.759 25.9123,306.185 23.2087,307.784 20.6107,309.549 18.1288,311.474 15.7726,313.552 13.5516,315.773 11.4743,318.129 9.54915,320.611 7.7836,323.209 6.18467,325.912 4.75865,328.711 3.51118,331.594 2.44717,334.549 1.57084,337.566 0.885637,340.631 0.394265,343.733 0.0986636,346.86 0,350 0.0986636,353.14 0.394265,356.267 0.885637,359.369 1.57084,362.434 2.44717,365.451 3.51118,368.406 4.75865,371.289 6.18467,374.088 7.7836,376.791 9.54915,379.389 11.4743,381.871 13.5516,384.227 15.7726,386.448 18.1288,388.526 20.6107,390.451 23.2087,392.216 25.9123,393.815 28.711,395.241 31.5938,396.489 34.5492,397.553 37.5655,398.429 40.6309,399.114 43.7333,399.606 46.8605,399.901 50,400 53.1395,399.901 56.2667,399.606 59.3691,399.114 62.4345,398.429 65.4508,397.553 68.4062,396.489 71.289,395.241 74.0877,393.815 76.7913,392.216 79.3893,390.451 81.8712,388.526 84.2274,386.448 86.4484,384.227 88.5257,381.871 90.4508,379.389 92.2164,376.791 93.8153,374.088 95.2414,371.289 96.4888,368.406 97.5528,365.451 98.4292,362.434 99.1144,359.369 99.6057,356.267 99.9013,353.14" transform="rotate(0 0 0)" fill="green" stroke="black" stroke-width="0.5" />
<polygon points="200,350 199.901,346.86 199.606,343.733 199.114,340.631 198.429,337.566 197.553,334.549 196.489,331.594 195.241,328.711 193.815,325.912 192.216,323.209 190.451,320.611 188.526,318.129 186.448,315.773 184.227,313.552 181.871,311.474 179.389,309.549 176.791,307.784 174.088,306.185 171.289,304.759 168.406,303.511 165.451,302.447 162.434,301.571 159.369,300.886 156.267,300.394 153.14,300.099 150,300 146.86,300.099 143.733,300.394 140.631,300.886 137.566,301.571 134.549,302.447 131.594,303.511 128.711,304.759 125.912,306.185 123.209,307.784 120.611,309.549 118.129,311.474 115.773,313.552 113.552,315.773 111.474,318.129 109.549,320.611 107.784,323.209 106.185,325.912 104.759,328.711 103.511,331.594 102.447,334.549 101.571,337.566 100.886,340.631 100.394,343.733 100.099,346.86 100,350 100.099,353.14 100.394,356.267 100.886,359.369 101.571,362.434 102.447,365.451 103.511,368.406 104.759,371.289 106.185,374.088 107.784,376.791 109.549,379.389 111.474,381.871 113.552,384.227 115.773,386.448 118.129,388.526 120.611,390.451 123.209,392.216 125.912,393.815 128.711,395.241 131.594,396.489 134.549,397.553 137.566,398.429 140.631,399.114 143.733,399.606 146.86,399.901 150,400 153.14,399.901 156.267,399.606 159.369,399.114 162.434,398.429 165.451,397.553 168.406,396.489 171.289,395.241 174.088,393.815 176.791,392.216 179.389,390.451 181.871,388.526 184.227,386.448 186.448,384.227 188.526,381.871 190.451,379.389 192.216,376.791 193.815,374.088 195.241,371.289 196.489,368.406 197.553,365.451 198.429,362.434 199.114,359.369 199.606,356.267 199.901,353.14" transform="rotate(0 0 0)" fill="green" stroke="black" stroke-width="0.5" />
<polygon points="300,350 299.901,346.86 299.606,343.733 299.114,340.631 298.429,337.566 297.553,334.549 296.489,331.594 295.241,328.711 293.815,325.912 292.216,323.209 290.451,320.611 288.526,318.129 286.448,315.773 284.227,313.552 281.871,311.474 279.389,309.549 276.791,307.784 274.088,306.185 271.289,304.759 268.406,303.511 265.451,302.447 262.434,301.571 259.369,300.886 256.267,300.394 253.14,300.099 250,300 246.86,300.099 243.733,300.394 240.631,300.886 237.566,301.571 234.549,302.447 231.594,303.511 228.711,304.759 225.912,306.185 223.209,307.784 220.611,309.549 218.129,311.474 215.773,313.552 213.552,315.773 211.474,318.129 209.549,320.611 207.784,323.209 206.185,325.912 204.759,328.711 203.511,331.594 202.447,334.549 201.571,337.566 200.886,340.631 200.394,343.733 200.099,346.86 200,350 200.099,353.14 200.394,356.267 200.886,359.369 201.571,362.434 202.447,365.451 203.511,368.406 204.759,371.289 206.185,374.088 207.784,376.791 209.549,379.389 211.474,381.871 213.552,384.227 215.773,386.448 218.129,388.526 220.611,390.451 223.209,392.216 225.912,393.815 228.711,395.241 231.594,396.489 234.549,397.553 237.566,398.429 240.631,399.114 243.733,399.606 246.86,399.901 250,400 253.14,399.901 256.267,399.606 259.369,399.114 262.434,398.429 265.451,397.553 268.406,396.489 271.289,395.241 274.088,393.815 276.791,392.216 279.389,390.451 281.871,388.526 284.227,386.448 286.448,384.227 288.526,381.871 290.451,379.389 292.216,376.791 293.815,374.088 295.241,371.289 296.489,368.406 297.553,365.451 298.429,362.434 299.114,359.369 299.606,356.267 299.901,353.14" transform="rotate(0 0 0)" fill="green" stroke="black" stroke-width="0.5" />
<polygon points="400,350 399.901,346.86 399.606,343.733 399.114,340.631 398.429,337.566 397.553,334.549 396.489,331.594 395.241,328.711 393.815,325.912 392.216,323.209 390.451,320.611 388.526,318.129 386.448,315.773 384.227,313.552 381.871,311.474 379.389,309.549 376.791,307.784 374.088,306.185 371.289,304.759 368.406,303.511 365.451,302.447 362.434,301.571 359.369,300.886 356.267,300.394 353.14,300.099 350,300 346.86,300.099 343.733,300.394 340.631,300.886 337.566,301.571 334.549,302.447 331.594,303.511 328.711,304.759 325.912,306.185 323.209,307.784 320.611,309.549 318.129,311.474 315.773,313.552 313.552,315.773 311.474,318.129 309.549,320.611 307.784,323.209 306.185,325.912 304.759,328.711 303.511,331.594 302.447,334.549 301.571,337.566 300.886,340.631 300.394,343.733 300.099,346.86 300,350 300.099,353.14 300.394,356.267 300.886,359.369 301.571,362.434 302.447,365.451 303.511,368.406 304.759,371.289 306.185,374.088 307.784,376.791 309.549,379.389 311.474,381.871 313.552,384.227 315.773,386.448 318.129,388.526 320.611,390.451 323.209,392.216 325.912,393.815 328.711,395.241 331.594,396.489 334.549,397.553 337.566,398.429 340.631,399.114 343.733,399.606 346.86,399.901 350,400 353.14,399.901 356.267,399.606 359.369,399.114 362.434,398.429 365.451,397.553 368.406,396.489 371.289,395.241 374.088,393.815 376.791,392.216 379.389,390.451 381.871,388.526 384.227,386.448 386.448,384.227 388.526,381.871 390.451,379.389 392.216,376.791 393.815,374.088 395.241,371.289 396.489,368.406 397.553,365.451 398.429,362.434 399.114,359.369 399.606,356.267 399.901,353.14" transform="rotate(0 0 0)" fill="green" stroke="black" stroke-width="0.5" />
<polygon points="500,350 499.901,346.86 499.606,343.733 499.114,340.631 498.429,337.566 497.553,334.549 496.489,331.594 495.241,328.711 493.815,325.912 492.216,323.209 490.451,320.611 488.526,318.129 486.448,315.773 484.227,313.552 481.871,311.474 479.389,309.549 476.791,307.784 474.088,306.185 471.289,304.759 468.406,303.511 465.451,302.447 462.434,301.571 459.369,300.886 456.267,300.394 453.14,300.099 450,300 446.86,300.099 443.733,300.394 440.631,300.886 437.566,301.571 434.549,302.447 431.594,303.511 428.711,304.759 425.912,306.185 423.209,307.784 420.611,309.549 418.129,311.474 415.773,313.552 413.552,315.773 411.474,318.129 409.549,320.611 407.784,323.209 406.185,325.912 404.759,328.711 403.511,331.594 402.447,334.549 401.571,337.566 400.886,340.631 400.394,343.733 400.099,346.86 400,350 400.099,353.14 400.394,356.267 400.886,359.369 401.571,362.434 402.447,365.451 403.511,368.406 404.759,371.289 406.185,374.088 407.784,376.791 409.549,379.389 411.474,381.871 413.552,384.227 415.773,386.448 418.129,388.526 420.611,390.451 423.209,392.216 425.912,393.815 428.711,395.241 431.594,396.489 434.549,397.553 437.566,398.429 440.631,399.114 443.733,399.606 446.86,399.901 450,400 453.14,399.901 456.267,399.606 459.369,399.114 462.434,398.429 465.451,397.553 468.406,396.489 471.289,395.241 474.088,393.815 476.791,392.216 479.389,390.451 481.871,388.526 484.227,386.448 486.448,384.227 488.526,381.871 490.451,379.389 492.216,376.791 493.815,374.088 495.241,371.289 496.489,368.406 497.553,365.451 498.429,362.434 499.114,359.369 499.606,356.267 499.901,353.14" transform="rotate(0 0 0)" fill="green" stroke="black" stroke-width="0.5" />
<polygon points="600,350 599.901,346.86 599.606,343.733 599.114,340.631 598.429,337.566 597.553,334.549 596.489,331.594 595.241,328.711 593.815,325.912 592.216,323.209 590.451,320.611 588.526,318.129 586.448,315.773 584.227,313.552 581.871,311.474 579.389,309.549 576.791,307.784 574.088,306.185 571.289,304.759 568.406,303.511 565.451,302.447 562.434,301.571 559.369,300.886 556.267,300.394 553.14,300.099 550,300 546.86,300.099 543.733,300.394 540.631,300.886 537.566,301.571 534.549,302.447 531.594,303.511 528.711,304.759 525.912,306.185 523.209,307.784 520.611,309.549 518.129,311.474 515.773,313.552 513.552,315.773 511.474,318.129 509.549,320.611 507.784,323.209 506.185,325.912 504.759,328.711 503.511,331.594 502.447,334.549 501.571,337.566 500.886,340.631 500.394,343.733 500.099,346.86 500,350 500.099,353.14 500.394,356.267 500.886,359.369 501.571,362.434 502.447,365.451 503.511,368.406 504.759,371.289 506.185,374.088 507.784,376.791 509.549,379.389 511.474,381.871 513.552,384.227 515.773,386.448 518.129,388.526 520.611,390.451 523.209,392.216 525.912,393.815 528.711,395.241 531.594,396.489 534.549,397.553 537.566,398.429 540.631,399.114 543.733,399.606 546.86,399.901 550,400 553.14,399.901 556.267,399.606 559.369,399.114 562.434,398.429 565.451,397.553 568.406,396.489 571.289,395.241 574.088,393.815 576.791,392.216 579.389,390.451 581.871,388.526 584.227,386.448 586.448,384.227 588.526,381.871 590.451,379.389 592.216,376.791 593.815,374.088 595.241,371.289 596.489,368.406 597.553,365.451 598.429,362.434 599.114,359.369 599.606,356.267 599.901,353.14" transform="rotate(0 0 0)" fill="green" stroke="black" stroke-width="0.5" />
<polygon points="700,350 699.901,346.86 699.606,343.733 699.114,340.631 698.429,337.566 697.553,334.549 696.489,331.594 695.241,328.711 693.815,325.912 692.216,323.209 690.451,320.611 688.526,318.129 686.448,315.773 684.227,313.552 681.871,311.474 679.389,309.549 676.791,307.784 674.088,306.185 671.289,304.759 668.406,303.511 665.451,302.447 662.434,301.571 659.369,300.886 656.267,300.394 653.14,300.099 650,300 646.86,300.099 643.733,300.394 640.631,300.886 637.566,301.571 634.549,302.447 631.594,303.511 628.711,304.759 625.912,306.185 623.209,307.784 620.611,309.549 618.129,311.474 615.773,313.552 613.552,315.773 611.474,318.129 609.549,320.611 607.784,323.209 606.185,325.912 604.759,328.711 603.511,331.594 602.447,334.549 601.571,337.566 600.886,340.631 600.394,343.733 600.099,346.86 600,350 600.099,353.14 600.394,356.267 600.886,359.369 601.571,362.434 602.447,365.451 603.511,368.406 604.759,371.289 606.185,374.088 607.784,376.791 609.549,379.389 611.474,381.871 613.552,384.227 615.773,386.448 618.129,388.526 620.611,390.451 623.209,392.216 625.912,393.815 628.711,395.241 631.594,396.489 634.549,397.553 637.566,398.429 640.631,399.114 643.733,399.606 646.86,399.901 650,400 653.14,399.901 656.267,399.606 659.369,399.114 662.434,398.429 665.451,397.553 668.406,396.489 671.289,395.241 674.088,393.815 676.791,392.216 679.389,390.451 681.871,388.526 684.227,386.448 686.448,384.227 688.526,381.871 690.451,379.389 692.216,376.791 693.815,374.088 695.241,371.289 696.489,368.406 697.553,365.451 698.429,362.434 699.114,359.369 699.606,356.267 699.901,353.14" transform="rotate(0 0 0)" fill="green" stroke="black" stroke-width="0.5" />
<polygon points="100,450 99.9013,446.86 99.6057,443.733 99.1144,440.631 98.4292,437.566 97.5528,434.549 96.4888,431.594 95.2414,428.711 93.8153,425.912 92.2164,423.209 90.4508,420.611 88.5257,418.129 86.4484,415.773 84.2274,413.552 81.8712,411.474 79.3893,409.549 76.7913,407.784 74.0877,406.185 71.289,404.759 68.4062,403.511 65.4508,402.447 62.4345,401.571 59.3691,400.886 56.2667,400.394 53.1395,400.099 50,400 46.8605,400.099 43.7333,400.394 40.6309,400.886 37.5655,401.571 34.5492,402.447 31.5938,403.511 28.711,404.759 25.9123,406.185 23.2087,407.784 20.6107,409.549 18.1288,411.474 15.7726,413.552 13.5516,415.773 11.4743,418.129 9.54915,420.611 7.7836,423.209 6.18467,425.912 4.75865,428.711 3.51118,431.594 2.44717,434.549 1.57084,437.566 0.885637,440.631 0.394265,443.733 0.0986636,446.86 0,450 0.0986636,453.14 0.394265,456.267 0.885637,459.369 1.57084,462.434 2.44717,465.451 3.51118,468.406 4.75865,471.289 6.18467,474.088 7.7836,476.791 9.54915,479.389 11.4743,481.871 13.5516,484.227 15.7726,486.448 18.1288,488.526 20.6107,490.451 23.2087,492.216 25.9123,493.815 28.711,495.241 31.5938,496.489 34.5492,497.553 37.5655,498.429 40.6309,499.114 43.7333,499.606 46.8605,499.901 50,500 53.1395,499.901 56.2667,499.606 59.3691,499.114 62.4345,498.429 65.4508,497.553 68.4062,496.489 71.289,495.241 74.0877,493.815 76.7913,492.216 79.3893,490.451 81.8712,488.526 84.2274,486.448 86.4484,484.227 88.5257,481.871 90.4508,479.389 92.2164,476.791 93.8153,474.088 95.2414,471.289 96.4888,468.406 97.5528,465.451 98.4292,462.434 99.1144,459.369 99.6057,456.267 99.9013,453.14" transform="rotate(0 0 0)" fill="green" stroke="black" stroke-width="0.5" />
<polygon points="200,450 199.901,446.86 199.606,443.733 199.114,440.631 198.429,437.566 197.553,434.549 196.489,431.594 195.241,428.711 193.815,425.912 192.216,423.209 190.451,420.611 188.526,418.129 186.448,415.773 184.227,413.552 181.871,411.474 179.389,409.549 176.791,407.784 174.088,406.185 171.289,404.759 168.406,403.511 165.451,402.447 162.434,401.571 159.369,400.886 156.267,400.394 153.14,400.099 150,400 146.86,400.099 143.733,400.394 140.631,400.886 137.566,401.571 134.549,402.447 131.594,403.511 128.711,404.759 125.912,406.185 123.209,407.784 120.611,409.549 118.129,411.474 115.773,413.552 113.552,415.773 111.474,418.129 109.549,420.611 107.784,423.209 106.185,425.912 104.759,428.711 103.511,431.594 102.447,434.549 101.571,437.566 100.886,440.631 100.394,443.733 100.099,446.86 100,450 100.099,453.14 100.394,456.267 100.886,459.369 101.571,462.434 102.447,465.451 103.511,468.406 104.759,471.289 106.185,474.088 107.784,476.791 109.549,479.389 111.474,481.871 113.552,484.227 115.773,486.448 118.129,488.526 120.611,490.451 123.209,492.216 125.912,493.815 128.711,495.241 131.594,496.489 134.549,497.553 137.566,498.429 140.631,499.114 143.733,499.606 146.86,499.901 150,500 153.14,499.901 156.267,499.606 159.369,499.114 162.434,498.429 165.451,497.553 168.406,496.489 171.289,495.241 174.088,493.815 176.791,492.216 179.389,490.451 181.871,488.526 184.227,486.448 186.448,484.227 188.526,481.871 190.451,479.389 192.216,476.791 193.815,474.088 195.241,471.289 196.489,468.406 197.553,465.451 198.429,462.434 199.114,459.369 199.606,456.267 199.901,453.14" transform="rotate(0 0 0)" fill="green" stroke="black" stroke-width="0.5" />
<polygon points="300,450 299.901,446.86 299.606,443.733 299.114,440.631 298.429,437.566 297.553,434.549 296.489,431.594 295.241,428.711 293.815,425.912 292.216,423.209 290.451,420.611 288.526,418.129 286.448,415.773 284.227,413.552 281.871,411.474 279.389,409.549 276.791,407.784 274.088,406.185 271.289,404.759 268.406,403.511 265.451,402.447 262.434,401.571 259.369,400.886 256.267,400.394 253.14,400.099 250,400 246.86,400.099 243.733,400.394 240.631,400.886 237.566,401.571 234.549,402.447 231.594,403.511 228.711,404.759 225.912,406.185 223.209,407.784 220.611,409.549 218.129,411.474 215.773,413.552 213.552,415.773 211.474,418.129 209.549,420.611 207.784,423.209 206.185,425.912 204.759,428.711 203.511,431.594 202.447,434.549 201.571,437.566 200.886,440.631 200.394,443.733 200.099,446.86 200,450 200.099,453.14 200.394,456.267 200.886,459.369 201.571,462.434 202.447,465.451 203.511,468.406 204.759,471.289 206.185,474.088 207.784,476.791 209.549,479.389 211.474,481.871 213.552,484.227 215.773,486.448 218.129,488.526 220.611,490.451 223.209,492.216 225.912,493.815 228.711,495.241 231.594,496.489 234.549,497.553 237.566,498.429 240.631,499.114 243.733,499.606 246.86,499.901 250,500 253.14,499.901 256.267,499.606 259.369,499.114 262.434,498.429 265.451,497.553 268.406,496.489 271.289,495.241 274.088,493.815 276.791,492.216 279.389,490.451 281.871,488.526 284.227,486.448 286.448,484.227 288.526,481.871 290.451,479.389 292.216,476.791 293.815,474.088 295.241,471.289 296.489,468.406 297.553,465.451 298.429,462.434 299.114,459.369 299.606,456.267 299.901,453.14" transform="rotate(0 0 0)" fill="green" stroke="black" stroke-width="0.5" />
<polygon points="400,450 399.901,446.86 399.606,443.733 399.114,440.631 398.429,437.566 397.553,434.549 396.489,431.594 395.241,428.711 393.815,425.912 392.216,423.209 390.451,420.611 388.526,418.129 386.448,415.773 384.227,413.552 381.871,411.474 379.389,409.549 376.791,407.784 374.088,406.185 371.289,404.759 368.406,403.511 365.451,402.447 362.434,401.571 359.369,400.886 356.267,400.394 353.14,400.099 350,400 346.86,400.099 343.733,400.394 340.631,400.886 337.566,401.571 334.549,402.447 331.594,403.511 328.711,404.759 325.912,406.185 323.209,407.784 320.611,409.549 318.129,411.474 315.773,413.552 313.552,415.773 311.474,418.129 309.549,420.611 307.784,423.209 306.185,425.912 304.759,428.711 303.511,431.594 302.447,434.549 301.571,437.566 300.886,440.631 300.394,443.733 300.099,446.86 300,450 300.099,453.14 300.394,456.267 300.886,459.369 301.571,462.434 302.447,465.451 303.511,468.406 304.759,471.289 306.185,474.088 307.784,476.791 309.549,479.389 311.474,481.871 313.552,484.227 315.773,486.448 318.129,488.526 320.611,490.451 323.209,492.216 325.912,493.815 328.711,495.241 331.594,496.489 334.549,497.553 337.566,498.429 340.631,499.114 343.733,499.606 346.86,499.901 350,500 353.14,499.901 356.267,499.606 359.369,499.114 362.434,498.429 365.451,497.553 368.406,496.489 371.289,495.241 374.088,493.815 376.791,492.216 379.389,490.451 381.871,488.526 384.227,486.448 386.448,484.227 388.526,481.871 390.451,479.389 392.216,476.791 393.815,474.088 395.241,471.289 396.489,468.406 397.553,465.451 398.429,462.434 399.114,459.369 399.606,456.267 399.901,453.14" transform="rotate(0 0 0)" fill="green" stroke="black" stroke-width="0.5" />
<polygon points="500,450 499.901,446.86 499.606,443.733 499.114,440.631 498.429,437.566 497.553,434.549 496.489,431.594 495.241,428.711 493.815,425.912 492.216,423.209 490.451,420.611 488.526,418.129 486.448,415.773 484.227,413.552 481.871,411.474 479.389,409.549 476.791,407.784 474.088,406.185 471.289,404.759 468.406,403.511 465.451,402.447 462.434,401.571 459.369,400.886 456.267,400.394 453.14,400.099 450,400 446.86,400.099 443.733,400.394 440.631,400.886 437.566,401.571 434.549,402.447 431.594,403.511 428.711,404.759 425.912,406.185 423.209,407.784 420.611,409.549 418.129,411.474 415.773,413.552 413.552,415.773 411.474,418.129 409.549,420.611 407.784,423.209 406.185,425.912 404.759,428.711 403.511,431.594 402.447,434.549 401.571,437.566 400.886,440.631 400.394,443.733 400.099,446.86 400,450 400.099,453.14 400.394,456.267 400.886,459.369 401.571,462.434 402.447,465.451 403.511,468.406 404.759,471.289 406.185,474.088 407.784,476.791 409.549,479.389 411.474,481.871 413.552,484.227 415.773,486.448 418.129,488.526 420.611,490.451 423.209,492.216 425.912,493.815 428.711,495.241 431.594,496.489 434.549,497.553 437.566,498.429 440.631,499.114 443.733,499.606 446.86,499.901 450,500 453.14,499.901 456.267,499.606 459.369,499.114 462.434,498.429 465.451,497.553 468.406,496.489 471.289,495.241 474.088,493.815 476.791,492.216 479.389,490.451 481.871,488.526 484.227,486.448 486.448,484.227 488.526,481.871 490.451,479.389 492.216,476.791 493.815,474.088 495.241,471.289 496.489,468.406 497.553,465.451 498.429,462.434 499.114,459.369 499.606,456.267 499.901,453.14" transform="rotate(0 0 0)" fill="green" stroke="black" stroke-width="0.5" />
<polygon points="600,450 599.901,446.86 599.606,443.733 599.114,440.631 598.429,437.566 597.553,434.549 596.489,431.594 595.241,428.711 593.815,425.912 592.216,423.209 590.451,420.611 588.526,418.129 586.448,415.773 584.227,413.552 581.871,411.474 579.389,409.549 576.791,407.784 574.088,406.185 571.289,404.759 568.406,403.511 565.451,402.447 562.434,401.571 559.369,400.886 556.267,400.394 553.14,400.099 550,400 546.86,400.099 543.733,400.394 540.631,400.886 537.566,401.571 534.549,402.447 531.594,403.511 528.711,404.759 525.912,406.185 523.209,407.784 520.611,409.549 518.129,411.474 515.773,413.552 513.552,415.773 511.474,418.129 509.549,420.611 507.784,423.209 506.185,425.912 504.759,428.711 503.511,431.594 502.447,434.549 501.571,437.566 500.886,440.631 500.394,443.733 500.099,446.86 500,450 500.099,453.14 500.394,456.267 500.886,459.369 501.571,462.434 502.447,465.451 503.511,468.406 504.759,471.289 506.185,474.088 507.784,476.791 509.549,479.389 511.474,481.871 513.552,484.227 515.773,486.448 518.129,488.526 520.611,490.451 523.209,492.216 525.912,493.815 528.711,495.241 531.594,496.489 534.549,497.553 537.566,498.429 540.631,499.114 543.733,499.606 546.86,499.901 550,500 553.14,499.901 556.267,499.606 559.369,499.114 562.434,498.429 565.451,497.553 568.406,496.489 571.289,495.241 574.088,493.815 576.791,492.216 579.389,490.451 581.871,488.526 584.227,486.448 586.448,484.227 588.526,481.871 590.451,479.389 592.216,476.791 593.815,474.088 595.241,471.289 596.489,468.406 597.553,465.451 598.429,462.434 599.114,459.369 599.606,456.267 599.901,453.14" transform="rotate(0 0 0)" fill="green" stroke="black" stroke-width="0.5" />
<polygon points="700,450 699.901,446.86 699.606,443.733 699.114,440.631 698.429,437.566 697.553,434.549 696.489,431.594 695.241,428.711 693.815,425.912 692.216,423.209 690.451,420.611 688.526,418.129 686.448,415.773 684.227,413.552 681.871,411.474 679.389,409.549 676.791,407.784 674.088,406.185 671.289,404.759 668.406,403.511 665.451,402.447 662.434,401.571 659.369,400.886 656.267,400.394 653.14,400.099 650,400 646.86,400.099 643.733,400.394 640.631,400.886 637.566,401.571 634.549,402.447 631.594,403.511 628.711,404.759 625.912,406.185 623.209,407.784 620.611,409.549 618.129,411.474 615.773,413.552 613.552,415.773 611.474,418.129 609.549,420.611 607.784,423.209 606.185,425.912 604.759,428.711 603.511,431.594 602.447,434.549 601.571,437.566 600.886,440.631 600.394,443.733 600.099,446.86 600,450 600.099,453.14 600.394,456.267 600.886,459.369 601.571,462.434 602.447,465.451 603.511,468.406 604.759,471.289 606.185,474.088 607.784,476.791 609.549,479.389 611.474,481.871 613.552,484.227 615.773,486.448 618.129,488.526 620.611,490.451 623.209,492.216 625.912,493.815 628.711,495.241 631.594,496.489 634.549,497.553 637.566,498.429 640.631,499.114 643.733,499.606 646.86,499.901 650,500 653.14,499.901 656.267,499.606 659.369,499.114 662.434,498.429 665.451,497.553 668.406,496.489 671.289,495.241 674.088,493.815 676.791,492.216 679.389,490.451 681.871,488.526 684.227,486.448 686.448,484.227 688.526,481.871 690.451,479.389 692.216,476.791 693.815,474.088 695.241,471.289 696.489,468.406 697.553,465.451 698.429,462.434 699.114,459.369 699.606,456.267 699.901,453.14" transform="rotate(0 0 0)" fill="green" stroke="black" stroke-width="0.5" />
</svg>
