<svg version="1.1" baseProfile="full" xmlns="http://www.w3.org/2000/svg">
<polygon points="600,300 599.408,281.163 597.634,262.4 594.686,243.786 590.575,225.393 585.317,207.295 578.933,189.563 571.448,172.266 562.892,155.474 553.298,139.252 542.705,123.664 531.154,108.773 518.691,94.6359 505.364,81.3094 491.227,68.846 476.336,57.2949 460.748,46.7016 444.526,37.108 427.734,28.5519 410.437,21.0671 392.705,14.683 374.607,9.42505 356.214,5.31382 337.6,2.36559 318.837,0.591981 300,0 281.163,0.591981 262.4,2.36559 243.786,5.31382 225.393,9.42505 207.295,14.683 189.563,21.0671 172.266,28.5519 155.474,37.108 139.252,46.7016 123.664,57.2949 108.773,68.846 94.6359,81.3094 81.3094,94.6359 68.846,108.773 57.2949,123.664 46.7016,139.252 37.108,155.474 28.5519,172.266 21.0671,189.563 14.683,207.295 9.42505,225.393 5.31382,243.786 2.36559,262.4 0.591981,281.163 0,300 0.591981,318.837 2.36559,337.6 5.31382,356.214 9.42505,374.607 14.683,392.705 21.0671,410.437 28.5519,427.734 37.108,444.526 46.7016,460.748 57.2949,476.336 68.846,491.227 81.3094,505.364 94.6359,518.691 108.773,531.154 123.664,542.705 139.252,553.298 155.474,562.892 172.266,571.448 189.563,578.933 207.295,585.317 225.393,590.575 243.786,594.686 262.4,597.634 281.163,599.408 300,600 318.837,599.408 337.6,597.634 356.214,594.686 374.607,590.575 392.705,585.317 410.437,578.933 427.734,571.448 444.526,562.892 460.748,553.298 476.336,542.705 491.227,531.154 505.364,518.691 518.691,505.364 531.154,491.227 542.705,476.336 553.298,460.748 562.892,444.526 571.448,427.734 578.933,410.437 585.317,392.705 590.575,374.607 594.686,356.214 597.634,337.6 599.408,318.837" transform="rotate(0 0 0)" fill="brown" stroke="black" stroke-width="0.5" />
<polygon points="300,300 280,334.641 320,334.641" transform="rotate(0 300 300)" fill="green" stroke="black" stroke-width="0.5" />
<polygon points="300,369.282 280,334.641 320,334.641" transform="rotate(0 300 300)" fill="green" stroke="black" stroke-width="0.5" />
<polygon points="280,334.641 260,369.282 300,369.282" transform="rotate(0 300 300)" fill="green" stroke="black" stroke-width="0.5" />
<polygon points="280,403.923 260,369.282 300,369.282" transform="rotate(0 300 300)" fill="green" stroke="black" stroke-width="0.5" />
<polygon points="320,334.641 300,369.282 340,369.282" transform="rotate(0 300 300)" fill="green" stroke="black" stroke-width="0.5" />
<polygon points="320,403.923 300,369.282 340,369.282" transform="rotate(0 300 300)" fill="green" stroke="black" stroke-width="0.5" />
<polygon points="260,369.282 240,403.923 280,403.923" transform="rotate(0 300 300)" fill="green" stroke="black" stroke-width="0.5" />
<polygon points="260,438.564 240,403.923 280,403.923" transform="rotate(0 300 300)" fill="green" stroke="black" stroke-width="0.5" />
<polygon points="300,369.282 280,403.923 320,403.923" transform="rotate(0 300 300)" fill="green" stroke="black" stroke-width="0.5" />
<polygon points="300,438.564 280,403.923 320,403.923" transform="rotate(0 300 300)" fill="green" stroke="black" stroke-width="0.5" />
<polygon points="340,369.282 320,403.923 360,403.923" transform="rotate(0 300 300)" fill="green" stroke="black" stroke-width="0.5" />
<polygon points="340,438.564 320,403.923 360,403.923" transform="rotate(0 300 300)" fill="green" stroke="black" stroke-width="0.5" />
<polygon points="240,403.923 220,438.564 260,438.564" transform="rotate(0 300 300)" fill="green" stroke="black" stroke-width="0.5" />
<polygon points="240,473.205 220,438.564 260,438.564" transform="rotate(0 300 300)" fill="green" stroke="black" stroke-width="0.5" />
<polygon points="280,403.923 260,438.564 300,438.564" transform="rotate(0 300 300)" fill="green" stroke="black" stroke-width="0.5" />
<polygon points="280,473.205 260,438.564 300,438.564" transform="rotate(0 300 300)" fill="green" stroke="black" stroke-width="0.5" />
<polygon points="320,403.923 300,438.564 340,438.564" transform="rotate(0 300 300)" fill="green" stroke="black" stroke-width="0.5" />
<polygon points="320,473.205 300,438.564 340,438.564" transform="rotate(0 300 300)" fill="green" stroke="black" stroke-width="0.5" />
<polygon points="360,403.923 340,438.564 380,438.564" transform="rotate(0 300 300)" fill="green" stroke="black" stroke-width="0.5" />
<polygon points="360,473.205 340,438.564 380,438.564" transform="rotate(0 300 300)" fill="green" stroke="black" stroke-width="0.5" />
<polygon points="220,438.564 200,473.205 240,473.205" transform="rotate(0 300 300)" fill="green" stroke="black" stroke-width="0.5" />
<polygon points="220,507.846 200,473.205 240,473.205" transform="rotate(0 300 300)" fill="green" stroke="black" stroke-width="0.5" />
<polygon points="260,438.564 240,473.205 280,473.205" transform="rotate(0 300 300)" fill="green" stroke="black" stroke-width="0.5" />
<polygon points="260,507.846 240,473.205 280,473.205" transform="rotate(0 300 300)" fill="green" stroke="black" stroke-width="0.5" />
<polygon points="300,438.564 280,473.205 320,473.205" transform="rotate(0 300 300)" fill="green" stroke="black" stroke-width="0.5" />
<polygon points="300,507.846 280,473.205 320,473.205" transform="rotate(0 300 300)" fill="green" stroke="black" stroke-width="0.5" />
<polygon points="340,438.564 320,473.205 360,473.205" transform="rotate(0 300 300)" fill="green" stroke="black" stroke-width="0.5" />
<polygon points="340,507.846 320,473.205 360,473.205" transform="rotate(0 300 300)" fill="green" stroke="black" stroke-width="0.5" />
<polygon points="380,438.564 360,473.205 400,473.205" transform="rotate(0 300 300)" fill="green" stroke="black" stroke-width="0.5" />
<polygon points="380,507.846 360,473.205 400,473.205" transform="rotate(0 300 300)" fill="green" stroke="black" stroke-width="0.5" />
<polygon points="200,473.205 180,507.846 220,507.846" transform="rotate(0 300 300)" fill="green" stroke="black" stroke-width="0.5" />
<polygon points="200,542.487 180,507.846 220,507.846" transform="rotate(0 300 300)" fill="green" stroke="black" stroke-width="0.5" />
<polygon points="240,473.205 220,507.846 260,507.846" transform="rotate(0 300 300)" fill="green" stroke="black" stroke-width="0.5" />
<polygon points="240,542.487 220,507.846 260,507.846" transform="rotate(0 300 300)" fill="green" stroke="black" stroke-width="0.5" />
<polygon points="280,473.205 260,507.846 300,507.846" transform="rotate(0 300 300)" fill="green" stroke="black" stroke-width="0.5" />
<polygon points="280,542.487 260,507.846 300,507.846" transform="rotate(0 300 300)" fill="green" stroke="black" stroke-width="0.5" />
<polygon points="320,473.205 300,507.846 340,507.846" transform="rotate(0 300 300)" fill="green" stroke="black" stroke-width="0.5" />
<polygon points="320,542.487 300,507.846 340,507.846" transform="rotate(0 300 300)" fill="green" stroke="black" stroke-width="0.5" />
<polygon points="360,473.205 340,507.846 380,507.846" transform="rotate(0 300 300)" fill="green" stroke="black" stroke-width="0.5" />
<polygon points="360,542.487 340,507.846 380,507.846" transform="rotate(0 300 300)" fill="green" stroke="black" stroke-width="0.5" />
<polygon points="400,473.205 380,507.846 420,507.846" transform="rotate(0 300 300)" fill="green" stroke="black" stroke-width="0.5" />
<polygon points="400,542.487 380,507.846 420,507.846" transform="rotate(0 300 300)" fill="green" stroke="black" stroke-width="0.5" />
<polygon points="180,507.846 160,542.487 200,542.487" transform="rotate(0 300 300)" fill="green" stroke="black" stroke-width="0.5" />
<polygon points="220,507.846 200,542.487 240,542.487" transform="rotate(0 300 300)" fill="green" stroke="black" stroke-width="0.5" />
<polygon points="260,507.846 240,542.487 280,542.487" transform="rotate(0 300 300)" fill="green" stroke="black" stroke-width="0.5" />
<polygon points="300,507.846 280,542.487 320,542.487" transform="rotate(0 300 300)" fill="green" stroke="black" stroke-width="0.5" />
<polygon points="340,507.846 320,542.487 360,542.487" transform="rotate(0 300 300)" fill="green" stroke="black" stroke-width="0.5" />
<polygon points="380,507.846 360,542.487 400,542.487" transform="rotate(0 300 300)" fill="green" stroke="black" stroke-width="0.5" />
<polygon points="420,507.846 400,542.487 440,542.487" transform="rotate(0 300 300)" fill="green" stroke="black" stroke-width="0.5" />
<polygon points="330,542.487 310,577.128 350,577.128" transform="rotate(0 300 300)" fill="green" stroke="black" stroke-width="0.5" />
<polygon points="290,542.487 270,577.128 310,577.128" transform="rotate(0 300 300)" fill="green" stroke="black" stroke-width="0.5" />
<polygon points="250,542.487 230,577.128 270,577.128" transform="rotate(0 300 300)" fill="green" stroke="black" stroke-width="0.5" />
<polygon points="370,542.487 350,577.128 330,542.487" transform="rotate(0 300 300)" fill="green" stroke="black" stroke-width="0.5" />
<polygon points="330,542.487 310,577.128 290,542.487" transform="rotate(0 300 300)" fill="green" stroke="black" stroke-width="0.5" />
<polygon points="290,542.487 270,577.128 250,542.487" transform="rotate(0 300 300)" fill="green" stroke="black" stroke-width="0.5" />
<polygon points="250,542.487 230,577.128 210,542.487" transform="rotate(0 300 300)" fill="green" stroke="black" stroke-width="0.5" />
<polygon points="300,300 280,334.641 320,334.641" transform="rotate(60 300 300)" fill="green" stroke="black" stroke-width="0.5" />
<polygon points="300,369.282 280,334.641 320,334.641" transform="rotate(60 300 300)" fill="green" stroke="black" stroke-width="0.5" />
<polygon points="280,334.641 260,369.282 300,369.282" transform="rotate(60 300 300)" fill="green" stroke="black" stroke-width="0.5" />
<polygon points="280,403.923 260,369.282 300,369.282" transform="rotate(60 300 300)" fill="green" stroke="black" stroke-width="0.5" />
<polygon points="320,334.641 300,369.282 340,369.282" transform="rotate(60 300 300)" fill="green" stroke="black" stroke-width="0.5" />
<polygon points="320,403.923 300,369.282 340,369.282" transform="rotate(60 300 300)" fill="green" stroke="black" stroke-width="0.5" />
<polygon points="260,369.282 240,403.923 280,403.923" transform="rotate(60 300 300)" fill="green" stroke="black" stroke-width="0.5" />
<polygon points="260,438.564 240,403.923 280,403.923" transform="rotate(60 300 300)" fill="green" stroke="black" stroke-width="0.5" />
<polygon points="300,369.282 280,403.923 320,403.923" transform="rotate(60 300 300)" fill="green" stroke="black" stroke-width="0.5" />
<polygon points="300,438.564 280,403.923 320,403.923" transform="rotate(60 300 300)" fill="green" stroke="black" stroke-width="0.5" />
<polygon points="340,369.282 320,403.923 360,403.923" transform="rotate(60 300 300)" fill="green" stroke="black" stroke-width="0.5" />
<polygon points="340,438.564 320,403.923 360,403.923" transform="rotate(60 300 300)" fill="green" stroke="black" stroke-width="0.5" />
<polygon points="240,403.923 220,438.564 260,438.564" transform="rotate(60 300 300)" fill="green" stroke="black" stroke-width="0.5" />
<polygon points="240,473.205 220,438.564 260,438.564" transform="rotate(60 300 300)" fill="green" stroke="black" stroke-width="0.5" />
<polygon points="280,403.923 260,438.564 300,438.564" transform="rotate(60 300 300)" fill="green" stroke="black" stroke-width="0.5" />
<polygon points="280,473.205 260,438.564 300,438.564" transform="rotate(60 300 300)" fill="green" stroke="black" stroke-width="0.5" />
<polygon points="320,403.923 300,438.564 340,438.564" transform="rotate(60 300 300)" fill="green" stroke="black" stroke-width="0.5" />
<polygon points="320,473.205 300,438.564 340,438.564" transform="rotate(60 300 300)" fill="green" stroke="black" stroke-width="0.5" />
<polygon points="360,403.923 340,438.564 380,438.564" transform="rotate(60 300 300)" fill="green" stroke="black" stroke-width="0.5" />
<polygon points="360,473.205 340,438.564 380,438.564" transform="rotate(60 300 300)" fill="green" stroke="black" stroke-width="0.5" />
<polygon points="220,438.564 200,473.205 240,473.205" transform="rotate(60 300 300)" fill="green" stroke="black" stroke-width="0.5" />
<polygon points="220,507.846 200,473.205 240,473.205" transform="rotate(60 300 300)" fill="green" stroke="black" stroke-width="0.5" />
<polygon points="260,438.564 240,473.205 280,473.205" transform="rotate(60 300 300)" fill="green" stroke="black" stroke-width="0.5" />
<polygon points="260,507.846 240,473.205 280,473.205" transform="rotate(60 300 300)" fill="green" stroke="black" stroke-width="0.5" />
<polygon points="300,438.564 280,473.205 320,473.205" transform="rotate(60 300 300)" fill="green" stroke="black" stroke-width="0.5" />
<polygon points="300,507.846 280,473.205 320,473.205" transform="rotate(60 300 300)" fill="green" stroke="black" stroke-width="0.5" />
<polygon points="340,438.564 320,473.205 360,473.205" transform="rotate(60 300 300)" fill="green" stroke="black" stroke-width="0.5" />
<polygon points="340,507.846 320,473.205 360,473.205" transform="rotate(60 300 300)" fill="green" stroke="black" stroke-width="0.5" />
<polygon points="380,438.564 360,473.205 400,473.205" transform="rotate(60 300 300)" fill="green" stroke="black" stroke-width="0.5" />
<polygon points="380,507.846 360,473.205 400,473.205" transform="rotate(60 300 300)" fill="green" stroke="black" stroke-width="0.5" />
<polygon points="200,473.205 180,507.846 220,507.846" transform="rotate(60 300 300)" fill="green" stroke="black" stroke-width="0.5" />
<polygon points="200,542.487 180,507.846 220,507.846" transform="rotate(60 300 300)" fill="green" stroke="black" stroke-width="0.5" />
<polygon points="240,473.205 220,507.846 260,507.846" transform="rotate(60 300 300)" fill="green" stroke="black" stroke-width="0.5" />
<polygon points="240,542.487 220,507.846 260,507.846" transform="rotate(60 300 300)" fill="green" stroke="black" stroke-width="0.5" />
<polygon points="280,473.205 260,507.846 300,507.846" transform="rotate(60 300 300)" fill="green" stroke="black" stroke-width="0.5" />
<polygon points="280,542.487 260,507.846 300,507.846" transform="rotate(60 300 300)" fill="green" stroke="black" stroke-width="0.5" />
<polygon points="320,473.205 300,507.846 340,507.846" transform="rotate(60 300 300)" fill="green" stroke="black" stroke-width="0.5" />
<polygon points="320,542.487 300,507.846 340,507.846" transform="rotate(60 300 300)" fill="green" stroke="black" stroke-width="0.5" />
<polygon points="360,473.205 340,507.846 380,507.846" transform="rotate(60 300 300)" fill="green" stroke="black" stroke-width="0.5" />
<polygon points="360,542.487 340,507.846 380,507.846" transform="rotate(60 300 300)" fill="green" stroke="black" stroke-width="0.5" />
<polygon points="400,473.205 380,507.846 420,507.846" transform="rotate(60 300 300)" fill="green" stroke="black" stroke-width="0.5" />
<polygon points="400,542.487 380,507.846 420,507.846" transform="rotate(60 300 300)" fill="green" stroke="black" stroke-width="0.5" />
<polygon points="180,507.846 160,542.487 200,542.487" transform="rotate(60 300 300)" fill="green" stroke="black" stroke-width="0.5" />
<polygon points="220,507.846 200,542.487 240,542.487" transform="rotate(60 300 300)" fill="green" stroke="black" stroke-width="0.5" />
<polygon points="260,507.846 240,542.487 280,542.487" transform="rotate(60 300 300)" fill="green" stroke="black" stroke-width="0.5" />
<polygon points="300,507.846 280,542.487 320,542.487" transform="rotate(60 300 300)" fill="green" stroke="black" stroke-width="0.5" />
<polygon points="340,507.846 320,542.487 360,542.487" transform="rotate(60 300 300)" fill="green" stroke="black" stroke-width="0.5" />
<polygon points="380,507.846 360,542.487 400,542.487" transform="rotate(60 300 300)" fill="green" stroke="black" stroke-width="0.5" />
<polygon points="420,507.846 400,542.487 440,542.487" transform="rotate(60 300 300)" fill="green" stroke="black" stroke-width="0.5" />
<polygon points="330,542.487 310,577.128 350,577.128" transform="rotate(60 300 300)" fill="green" stroke="black" stroke-width="0.5" />
<polygon points="290,542.487 270,577.128 310,577.128" transform="rotate(60 300 300)" fill="green" stroke="black" stroke-width="0.5" />
<polygon points="250,542.487 230,577.128 270,577.128" transform="rotate(60 300 300)" fill="green" stroke="black" stroke-width="0.5" />
<polygon points="370,542.487 350,577.128 330,542.487" transform="rotate(60 300 300)" fill="green" stroke="black" stroke-width="0.5" />
<polygon points="330,542.487 310,577.128 290,542.487" transform="rotate(60 300 300)" fill="green" stroke="black" stroke-width="0.5" />
<polygon points="290,542.487 270,577.128 250,542.487" transform="rotate(60 300 300)" fill="green" stroke="black" stroke-width="0.5" />
<polygon points="250,542.487 230,577.128 210,542.487" transform="rotate(60 300 300)" fill="green" stroke="black" stroke-width="0.5" />
<polygon points="300,300 280,334.641 320,334.641" transform="rotate(120 300 300)" fill="green" stroke="black" stroke-width="0.5" />
<polygon points="300,369.282 280,334.641 320,334.641" transform="rotate(120 300 300)" fill="green" stroke="black" stroke-width="0.5" />
<polygon points="280,334.641 260,369.282 300,369.282" transform="rotate(120 300 300)" fill="green" stroke="black" stroke-width="0.5" />
<polygon points="280,403.923 260,369.282 300,369.282" transform="rotate(120 300 300)" fill="green" stroke="black" stroke-width="0.5" />
<polygon points="320,334.641 300,369.282 340,369.282" transform="rotate(120 300 300)" fill="green" stroke="black" stroke-width="0.5" />
<polygon points="320,403.923 300,369.282 340,369.282" transform="rotate(120 300 300)" fill="green" stroke="black" stroke-width="0.5" />
<polygon points="260,369.282 240,403.923 280,403.923" transform="rotate(120 300 300)" fill="green" stroke="black" stroke-width="0.5" />
<polygon points="260,438.564 240,403.923 280,403.923" transform="rotate(120 300 300)" fill="green" stroke="black" stroke-width="0.5" />
<polygon points="300,369.282 280,403.923 320,403.923" transform="rotate(120 300 300)" fill="green" stroke="black" stroke-width="0.5" />
<polygon points="300,438.564 280,403.923 320,403.923" transform="rotate(120 300 300)" fill="green" stroke="black" stroke-width="0.5" />
<polygon points="340,369.282 320,403.923 360,403.923" transform="rotate(120 300 300)" fill="green" stroke="black" stroke-width="0.5" />
<polygon points="340,438.564 320,403.923 360,403.923" transform="rotate(120 300 300)" fill="green" stroke="black" stroke-width="0.5" />
<polygon points="240,403.923 220,438.564 260,438.564" transform="rotate(120 300 300)" fill="green" stroke="black" stroke-width="0.5" />
<polygon points="240,473.205 220,438.564 260,438.564" transform="rotate(120 300 300)" fill="green" stroke="black" stroke-width="0.5" />
<polygon points="280,403.923 260,438.564 300,438.564" transform="rotate(120 300 300)" fill="green" stroke="black" stroke-width="0.5" />
<polygon points="280,473.205 260,438.564 300,438.564" transform="rotate(120 300 300)" fill="green" stroke="black" stroke-width="0.5" />
<polygon points="320,403.923 300,438.564 340,438.564" transform="rotate(120 300 300)" fill="green" stroke="black" stroke-width="0.5" />
<polygon points="320,473.205 300,438.564 340,438.564" transform="rotate(120 300 300)" fill="green" stroke="black" stroke-width="0.5" />
<polygon points="360,403.923 340,438.564 380,438.564" transform="rotate(120 300 300)" fill="green" stroke="black" stroke-width="0.5" />
<polygon points="360,473.205 340,438.564 380,438.564" transform="rotate(120 300 300)" fill="green" stroke="black" stroke-width="0.5" />
<polygon points="220,438.564 200,473.205 240,473.205" transform="rotate(120 300 300)" fill="green" stroke="black" stroke-width="0.5" />
<polygon points="220,507.846 200,473.205 240,473.205" transform="rotate(120 300 300)" fill="green" stroke="black" stroke-width="0.5" />
<polygon points="260,438.564 240,473.205 280,473.205" transform="rotate(120 300 300)" fill="green" stroke="black" stroke-width="0.5" />
<polygon points="260,507.846 240,473.205 280,473.205" transform="rotate(120 300 300)" fill="green" stroke="black" stroke-width="0.5" />
<polygon points="300,438.564 280,473.205 320,473.205" transform="rotate(120 300 300)" fill="green" stroke="black" stroke-width="0.5" />
<polygon points="300,507.846 280,473.205 320,473.205" transform="rotate(120 300 300)" fill="green" stroke="black" stroke-width="0.5" />
<polygon points="340,438.564 320,473.205 360,473.205" transform="rotate(120 300 300)" fill="green" stroke="black" stroke-width="0.5" />
<polygon points="340,507.846 320,473.205 360,473.205" transform="rotate(120 300 300)" fill="green" stroke="black" stroke-width="0.5" />
<polygon points="380,438.564 360,473.205 400,473.205" transform="rotate(120 300 300)" fill="green" stroke="black" stroke-width="0.5" />
<polygon points="380,507.846 360,473.205 400,473.205" transform="rotate(120 300 300)" fill="green" stroke="black" stroke-width="0.5" />
<polygon points="200,473.205 180,507.846 220,507.846" transform="rotate(120 300 300)" fill="green" stroke="black" stroke-width="0.5" />
<polygon points="200,542.487 180,507.846 220,507.846" transform="rotate(120 300 300)" fill="green" stroke="black" stroke-width="0.5" />
<polygon points="240,473.205 220,507.846 260,507.846" transform="rotate(120 300 300)" fill="green" stroke="black" stroke-width="0.5" />
<polygon points="240,542.487 220,507.846 260,507.846" transform="rotate(120 300 300)" fill="green" stroke="black" stroke-width="0.5" />
<polygon points="280,473.205 260,507.846 300,507.846" transform="rotate(120 300 300)" fill="green" stroke="black" stroke-width="0.5" />
<polygon points="280,542.487 260,507.846 300,507.846" transform="rotate(120 300 300)" fill="green" stroke="black" stroke-width="0.5" />
<polygon points="320,473.205 300,507.846 340,507.846" transform="rotate(120 300 300)" fill="green" stroke="black" stroke-width="0.5" />
<polygon points="320,542.487 300,507.846 340,507.846" transform="rotate(120 300 300)" fill="green" stroke="black" stroke-width="0.5" />
<polygon points="360,473.205 340,507.846 380,507.846" transform="rotate(120 300 300)" fill="green" stroke="black" stroke-width="0.5" />
<polygon points="360,542.487 340,507.846 380,507.846" transform="rotate(120 300 300)" fill="green" stroke="black" stroke-width="0.5" />
<polygon points="400,473.205 380,507.846 420,507.846" transform="rotate(120 300 300)" fill="green" stroke="black" stroke-width="0.5" />
<polygon points="400,542.487 380,507.846 420,507.846" transform="rotate(120 300 300)" fill="green" stroke="black" stroke-width="0.5" />
<polygon points="180,507.846 160,542.487 200,542.487" transform="rotate(120 300 300)" fill="green" stroke="black" stroke-width="0.5" />
<polygon points="220,507.846 200,542.487 240,542.487" transform="rotate(120 300 300)" fill="green" stroke="black" stroke-width="0.5" />
<polygon points="260,507.846 240,542.487 280,542.487" transform="rotate(120 300 300)" fill="green" stroke="black" stroke-width="0.5" />
<polygon points="300,507.846 280,542.487 320,542.487" transform="rotate(120 300 300)" fill="green" stroke="black" stroke-width="0.5" />
<polygon points="340,507.846 320,542.487 360,542.487" transform="rotate(120 300 300)" fill="green" stroke="black" stroke-width="0.5" />
<polygon points="380,507.846 360,542.487 400,542.487" transform="rotate(120 300 300)" fill="green" stroke="black" stroke-width="0.5" />
<polygon points="420,507.846 400,542.487 440,542.487" transform="rotate(120 300 300)" fill="green" stroke="black" stroke-width="0.5" />
<polygon points="330,542.487 310,577.128 350,577.128" transform="rotate(120 300 300)" fill="green" stroke="black" stroke-width="0.5" />
<polygon points="290,542.487 270,577.128 310,577.128" transform="rotate(120 300 300)" fill="green" stroke="black" stroke-width="0.5" />
<polygon points="250,542.487 230,577.128 270,577.128" transform="rotate(120 300 300)" fill="green" stroke="black" stroke-width="0.5" />
<polygon points="370,542.487 350,577.128 330,542.487" transform="rotate(120 300 300)" fill="green" stroke="black" stroke-width="0.5" />
<polygon points="330,542.487 310,577.128 290,542.487" transform="rotate(120 300 300)" fill="green" stroke="black" stroke-width="0.5" />
<polygon points="290,542.487 270,577.128 250,542.487" transform="rotate(120 300 300)" fill="green" stroke="black" stroke-width="0.5" />
<polygon points="250,542.487 230,577.128 210,542.487" transform="rotate(120 300 300)" fill="green" stroke="black" stroke-width="0.5" />
<polygon points="300,300 280,334.641 320,334.641" transform="rotate(180 300 300)" fill="green" stroke="black" stroke-width="0.5" />
<polygon points="300,369.282 280,334.641 320,334.641" transform="rotate(180 300 300)" fill="green" stroke="black" stroke-width="0.5" />
<polygon points="280,334.641 260,369.282 300,369.282" transform="rotate(180 300 300)" fill="green" stroke="black" stroke-width="0.5" />
<polygon points="280,403.923 260,369.282 300,369.282" transform="rotate(180 300 300)" fill="green" stroke="black" stroke-width="0.5" />
<polygon points="320,334.641 300,369.282 340,369.282" transform="rotate(180 300 300)" fill="green" stroke="black" stroke-width="0.5" />
<polygon points="320,403.923 300,369.282 340,369.282" transform="rotate(180 300 300)" fill="green" stroke="black" stroke-width="0.5" />
<polygon points="260,369.282 240,403.923 280,403.923" transform="rotate(180 300 300)" fill="green" stroke="black" stroke-width="0.5" />
<polygon points="260,438.564 240,403.923 280,403.923" transform="rotate(180 300 300)" fill="green" stroke="black" stroke-width="0.5" />
<polygon points="300,369.282 280,403.923 320,403.923" transform="rotate(180 300 300)" fill="green" stroke="black" stroke-width="0.5" />
<polygon points="300,438.564 280,403.923 320,403.923" transform="rotate(180 300 300)" fill="green" stroke="black" stroke-width="0.5" />
<polygon points="340,369.282 320,403.923 360,403.923" transform="rotate(180 300 300)" fill="green" stroke="black" stroke-width="0.5" />
<polygon points="340,438.564 320,403.923 360,403.923" transform="rotate(180 300 300)" fill="green" stroke="black" stroke-width="0.5" />
<polygon points="240,403.923 220,438.564 260,438.564" transform="rotate(180 300 300)" fill="green" stroke="black" stroke-width="0.5" />
<polygon points="240,473.205 220,438.564 260,438.564" transform="rotate(180 300 300)" fill="green" stroke="black" stroke-width="0.5" />
<polygon points="280,403.923 260,438.564 300,438.564" transform="rotate(180 300 300)" fill="green" stroke="black" stroke-width="0.5" />
<polygon points="280,473.205 260,438.564 300,438.564" transform="rotate(180 300 300)" fill="green" stroke="black" stroke-width="0.5" />
<polygon points="320,403.923 300,438.564 340,438.564" transform="rotate(180 300 300)" fill="green" stroke="black" stroke-width="0.5" />
<polygon points="320,473.205 300,438.564 340,438.564" transform="rotate(180 300 300)" fill="green" stroke="black" stroke-width="0.5" />
<polygon points="360,403.923 340,438.564 380,438.564" transform="rotate(180 300 300)" fill="green" stroke="black" stroke-width="0.5" />
<polygon points="360,473.205 340,438.564 380,438.564" transform="rotate(180 300 300)" fill="green" stroke="black" stroke-width="0.5" />
<polygon points="220,438.564 200,473.205 240,473.205" transform="rotate(180 300 300)" fill="green" stroke="black" stroke-width="0.5" />
<polygon points="220,507.846 200,473.205 240,473.205" transform="rotate(180 300 300)" fill="green" stroke="black" stroke-width="0.5" />
<polygon points="260,438.564 240,473.205 280,473.205" transform="rotate(180 300 300)" fill="green" stroke="black" stroke-width="0.5" />
<polygon points="260,507.846 240,473.205 280,473.205" transform="rotate(180 300 300)" fill="green" stroke="black" stroke-width="0.5" />
<polygon points="300,438.564 280,473.205 320,473.205" transform="rotate(180 300 300)" fill="green" stroke="black" stroke-width="0.5" />
<polygon points="300,507.846 280,473.205 320,473.205" transform="rotate(180 300 300)" fill="green" stroke="black" stroke-width="0.5" />
<polygon points="340,438.564 320,473.205 360,473.205" transform="rotate(180 300 300)" fill="green" stroke="black" stroke-width="0.5" />
<polygon points="340,507.846 320,473.205 360,473.205" transform="rotate(180 300 300)" fill="green" stroke="black" stroke-width="0.5" />
<polygon points="380,438.564 360,473.205 400,473.205" transform="rotate(180 300 300)" fill="green" stroke="black" stroke-width="0.5" />
<polygon points="380,507.846 360,473.205 400,473.205" transform="rotate(180 300 300)" fill="green" stroke="black" stroke-width="0.5" />
<polygon points="200,473.205 180,507.846 220,507.846" transform="rotate(180 300 300)" fill="green" stroke="black" stroke-width="0.5" />
<polygon points="200,542.487 180,507.846 220,507.846" transform="rotate(180 300 300)" fill="green" stroke="black" stroke-width="0.5" />
<polygon points="240,473.205 220,507.846 260,507.846" transform="rotate(180 300 300)" fill="green" stroke="black" stroke-width="0.5" />
<polygon points="240,542.487 220,507.846 260,507.846" transform="rotate(180 300 300)" fill="green" stroke="black" stroke-width="0.5" />
<polygon points="280,473.205 260,507.846 300,507.846" transform="rotate(180 300 300)" fill="green" stroke="black" stroke-width="0.5" />
<polygon points="280,542.487 260,507.846 300,507.846" transform="rotate(180 300 300)" fill="green" stroke="black" stroke-width="0.5" />
<polygon points="320,473.205 300,507.846 340,507.846" transform="rotate(180 300 300)" fill="green" stroke="black" stroke-width="0.5" />
<polygon points="320,542.487 300,507.846 340,507.846" transform="rotate(180 300 300)" fill="green" stroke="black" stroke-width="0.5" />
<polygon points="360,473.205 340,507.846 380,507.846" transform="rotate(180 300 300)" fill="green" stroke="black" stroke-width="0.5" />
<polygon points="360,542.487 340,507.846 380,507.846" transform="rotate(180 300 300)" fill="green" stroke="black" stroke-width="0.5" />
<polygon points="400,473.205 380,507.846 420,507.846" transform="rotate(180 300 300)" fill="green" stroke="black" stroke-width="0.5" />
<polygon points="400,542.487 380,507.846 420,507.846" transform="rotate(180 300 300)" fill="green" stroke="black" stroke-width="0.5" />
<polygon points="180,507.846 160,542.487 200,542.487" transform="rotate(180 300 300)" fill="green" stroke="black" stroke-width="0.5" />
<polygon points="220,507.846 200,542.487 240,542.487" transform="rotate(180 300 300)" fill="green" stroke="black" stroke-width="0.5" />
<polygon points="260,507.846 240,542.487 280,542.487" transform="rotate(180 300 300)" fill="green" stroke="black" stroke-width="0.5" />
<polygon points="300,507.846 280,542.487 320,542.487" transform="rotate(180 300 300)" fill="green" stroke="black" stroke-width="0.5" />
<polygon points="340,507.846 320,542.487 360,542.487" transform="rotate(180 300 300)" fill="green" stroke="black" stroke-width="0.5" />
<polygon points="380,507.846 360,542.487 400,542.487" transform="rotate(180 300 300)" fill="green" stroke="black" stroke-width="0.5" />
<polygon points="420,507.846 400,542.487 440,542.487" transform="rotate(180 300 300)" fill="green" stroke="black" stroke-width="0.5" />
<polygon points="330,542.487 310,577.128 350,577.128" transform="rotate(180 300 300)" fill="green" stroke="black" stroke-width="0.5" />
<polygon points="290,542.487 270,577.128 310,577.128" transform="rotate(180 300 300)" fill="green" stroke="black" stroke-width="0.5" />
<polygon points="250,542.487 230,577.128 270,577.128" transform="rotate(180 300 300)" fill="green" stroke="black" stroke-width="0.5" />
<polygon points="370,542.487 350,577.128 330,542.487" transform="rotate(180 300 300)" fill="green" stroke="black" stroke-width="0.5" />
<polygon points="330,542.487 310,577.128 290,542.487" transform="rotate(180 300 300)" fill="green" stroke="black" stroke-width="0.5" />
<polygon points="290,542.487 270,577.128 250,542.487" transform="rotate(180 300 300)" fill="green" stroke="black" stroke-width="0.5" />
<polygon points="250,542.487 230,577.128 210,542.487" transform="rotate(180 300 300)" fill="green" stroke="black" stroke-width="0.5" />
<polygon points="300,300 280,334.641 320,334.641" transform="rotate(240 300 300)" fill="green" stroke="black" stroke-width="0.5" />
<polygon points="300,369.282 280,334.641 320,334.641" transform="rotate(240 300 300)" fill="green" stroke="black" stroke-width="0.5" />
<polygon points="280,334.641 260,369.282 300,369.282" transform="rotate(240 300 300)" fill="green" stroke="black" stroke-width="0.5" />
<polygon points="280,403.923 260,369.282 300,369.282" transform="rotate(240 300 300)" fill="green" stroke="black" stroke-width="0.5" />
<polygon points="320,334.641 300,369.282 340,369.282" transform="rotate(240 300 300)" fill="green" stroke="black" stroke-width="0.5" />
<polygon points="320,403.923 300,369.282 340,369.282" transform="rotate(240 300 300)" fill="green" stroke="black" stroke-width="0.5" />
<polygon points="260,369.282 240,403.923 280,403.923" transform="rotate(240 300 300)" fill="green" stroke="black" stroke-width="0.5" />
<polygon points="260,438.564 240,403.923 280,403.923" transform="rotate(240 300 300)" fill="green" stroke="black" stroke-width="0.5" />
<polygon points="300,369.282 280,403.923 320,403.923" transform="rotate(240 300 300)" fill="green" stroke="black" stroke-width="0.5" />
<polygon points="300,438.564 280,403.923 320,403.923" transform="rotate(240 300 300)" fill="green" stroke="black" stroke-width="0.5" />
<polygon points="340,369.282 320,403.923 360,403.923" transform="rotate(240 300 300)" fill="green" stroke="black" stroke-width="0.5" />
<polygon points="340,438.564 320,403.923 360,403.923" transform="rotate(240 300 300)" fill="green" stroke="black" stroke-width="0.5" />
<polygon points="240,403.923 220,438.564 260,438.564" transform="rotate(240 300 300)" fill="green" stroke="black" stroke-width="0.5" />
<polygon points="240,473.205 220,438.564 260,438.564" transform="rotate(240 300 300)" fill="green" stroke="black" stroke-width="0.5" />
<polygon points="280,403.923 260,438.564 300,438.564" transform="rotate(240 300 300)" fill="green" stroke="black" stroke-width="0.5" />
<polygon points="280,473.205 260,438.564 300,438.564" transform="rotate(240 300 300)" fill="green" stroke="black" stroke-width="0.5" />
<polygon points="320,403.923 300,438.564 340,438.564" transform="rotate(240 300 300)" fill="green" stroke="black" stroke-width="0.5" />
<polygon points="320,473.205 300,438.564 340,438.564" transform="rotate(240 300 300)" fill="green" stroke="black" stroke-width="0.5" />
<polygon points="360,403.923 340,438.564 380,438.564" transform="rotate(240 300 300)" fill="green" stroke="black" stroke-width="0.5" />
<polygon points="360,473.205 340,438.564 380,438.564" transform="rotate(240 300 300)" fill="green" stroke="black" stroke-width="0.5" />
<polygon points="220,438.564 200,473.205 240,473.205" transform="rotate(240 300 300)" fill="green" stroke="black" stroke-width="0.5" />
<polygon points="220,507.846 200,473.205 240,473.205" transform="rotate(240 300 300)" fill="green" stroke="black" stroke-width="0.5" />
<polygon points="260,438.564 240,473.205 280,473.205" transform="rotate(240 300 300)" fill="green" stroke="black" stroke-width="0.5" />
<polygon points="260,507.846 240,473.205 280,473.205" transform="rotate(240 300 300)" fill="green" stroke="black" stroke-width="0.5" />
<polygon points="300,438.564 280,473.205 320,473.205" transform="rotate(240 300 300)" fill="green" stroke="black" stroke-width="0.5" />
<polygon points="300,507.846 280,473.205 320,473.205" transform="rotate(240 300 300)" fill="green" stroke="black" stroke-width="0.5" />
<polygon points="340,438.564 320,473.205 360,473.205" transform="rotate(240 300 300)" fill="green" stroke="black" stroke-width="0.5" />
<polygon points="340,507.846 320,473.205 360,473.205" transform="rotate(240 300 300)" fill="green" stroke="black" stroke-width="0.5" />
<polygon points="380,438.564 360,473.205 400,473.205" transform="rotate(240 300 300)" fill="green" stroke="black" stroke-width="0.5" />
<polygon points="380,507.846 360,473.205 400,473.205" transform="rotate(240 300 300)" fill="green" stroke="black" stroke-width="0.5" />
<polygon points="200,473.205 180,507.846 220,507.846" transform="rotate(240 300 300)" fill="green" stroke="black" stroke-width="0.5" />
<polygon points="200,542.487 180,507.846 220,507.846" transform="rotate(240 300 300)" fill="green" stroke="black" stroke-width="0.5" />
<polygon points="240,473.205 220,507.846 260,507.846" transform="rotate(240 300 300)" fill="green" stroke="black" stroke-width="0.5" />
<polygon points="240,542.487 220,507.846 260,507.846" transform="rotate(240 300 300)" fill="green" stroke="black" stroke-width="0.5" />
<polygon points="280,473.205 260,507.846 300,507.846" transform="rotate(240 300 300)" fill="green" stroke="black" stroke-width="0.5" />
<polygon points="280,542.487 260,507.846 300,507.846" transform="rotate(240 300 300)" fill="green" stroke="black" stroke-width="0.5" />
<polygon points="320,473.205 300,507.846 340,507.846" transform="rotate(240 300 300)" fill="green" stroke="black" stroke-width="0.5" />
<polygon points="320,542.487 300,507.846 340,507.846" transform="rotate(240 300 300)" fill="green" stroke="black" stroke-width="0.5" />
<polygon points="360,473.205 340,507.846 380,507.846" transform="rotate(240 300 300)" fill="green" stroke="black" stroke-width="0.5" />
<polygon points="360,542.487 340,507.846 380,507.846" transform="rotate(240 300 300)" fill="green" stroke="black" stroke-width="0.5" />
<polygon points="400,473.205 380,507.846 420,507.846" transform="rotate(240 300 300)" fill="green" stroke="black" stroke-width="0.5" />
<polygon points="400,542.487 380,507.846 420,507.846" transform="rotate(240 300 300)" fill="green" stroke="black" stroke-width="0.5" />
<polygon points="180,507.846 160,542.487 200,542.487" transform="rotate(240 300 300)" fill="green" stroke="black" stroke-width="0.5" />
<polygon points="220,507.846 200,542.487 240,542.487" transform="rotate(240 300 300)" fill="green" stroke="black" stroke-width="0.5" />
<polygon points="260,507.846 240,542.487 280,542.487" transform="rotate(240 300 300)" fill="green" stroke="black" stroke-width="0.5" />
<polygon points="300,507.846 280,542.487 320,542.487" transform="rotate(240 300 300)" fill="green" stroke="black" stroke-width="0.5" />
<polygon points="340,507.846 320,542.487 360,542.487" transform="rotate(240 300 300)" fill="green" stroke="black" stroke-width="0.5" />
<polygon points="380,507.846 360,542.487 400,542.487" transform="rotate(240 300 300)" fill="green" stroke="black" stroke-width="0.5" />
<polygon points="420,507.846 400,542.487 440,542.487" transform="rotate(240 300 300)" fill="green" stroke="black" stroke-width="0.5" />
<polygon points="330,542.487 310,577.128 350,577.128" transform="rotate(240 300 300)" fill="green" stroke="black" stroke-width="0.5" />
<polygon points="290,542.487 270,577.128 310,577.128" transform="rotate(240 300 300)" fill="green" stroke="black" stroke-width="0.5" />
<polygon points="250,542.487 230,577.128 270,577.128" transform="rotate(240 300 300)" fill="green" stroke="black" stroke-width="0.5" />
<polygon points="370,542.487 350,577.128 330,542.487" transform="rotate(240 300 300)" fill="green" stroke="black" stroke-width="0.5" />
<polygon points="330,542.487 310,577.128 290,542.487" transform="rotate(240 300 300)" fill="green" stroke="black" stroke-width="0.5" />
<polygon points="290,542.487 270,577.128 250,542.487" transform="rotate(240 300 300)" fill="green" stroke="black" stroke-width="0.5" />
<polygon points="250,542.487 230,577.128 210,542.487" transform="rotate(240 300 300)" fill="green" stroke="black" stroke-width="0.5" />
<polygon points="300,300 280,334.641 320,334.641" transform="rotate(300 300 300)" fill="green" stroke="black" stroke-width="0.5" />
<polygon points="300,369.282 280,334.641 320,334.641" transform="rotate(300 300 300)" fill="green" stroke="black" stroke-width="0.5" />
<polygon points="280,334.641 260,369.282 300,369.282" transform="rotate(300 300 300)" fill="green" stroke="black" stroke-width="0.5" />
<polygon points="280,403.923 260,369.282 300,369.282" transform="rotate(300 300 300)" fill="green" stroke="black" stroke-width="0.5" />
<polygon points="320,334.641 300,369.282 340,369.282" transform="rotate(300 300 300)" fill="green" stroke="black" stroke-width="0.5" />
<polygon points="320,403.923 300,369.282 340,369.282" transform="rotate(300 300 300)" fill="green" stroke="black" stroke-width="0.5" />
<polygon points="260,369.282 240,403.923 280,403.923" transform="rotate(300 300 300)" fill="green" stroke="black" stroke-width="0.5" />
<polygon points="260,438.564 240,403.923 280,403.923" transform="rotate(300 300 300)" fill="green" stroke="black" stroke-width="0.5" />
<polygon points="300,369.282 280,403.923 320,403.923" transform="rotate(300 300 300)" fill="green" stroke="black" stroke-width="0.5" />
<polygon points="300,438.564 280,403.923 320,403.923" transform="rotate(300 300 300)" fill="green" stroke="black" stroke-width="0.5" />
<polygon points="340,369.282 320,403.923 360,403.923" transform="rotate(300 300 300)" fill="green" stroke="black" stroke-width="0.5" />
<polygon points="340,438.564 320,403.923 360,403.923" transform="rotate(300 300 300)" fill="green" stroke="black" stroke-width="0.5" />
<polygon points="240,403.923 220,438.564 260,438.564" transform="rotate(300 300 300)" fill="green" stroke="black" stroke-width="0.5" />
<polygon points="240,473.205 220,438.564 260,438.564" transform="rotate(300 300 300)" fill="green" stroke="black" stroke-width="0.5" />
<polygon points="280,403.923 260,438.564 300,438.564" transform="rotate(300 300 300)" fill="green" stroke="black" stroke-width="0.5" />
<polygon points="280,473.205 260,438.564 300,438.564" transform="rotate(300 300 300)" fill="green" stroke="black" stroke-width="0.5" />
<polygon points="320,403.923 300,438.564 340,438.564" transform="rotate(300 300 300)" fill="green" stroke="black" stroke-width="0.5" />
<polygon points="320,473.205 300,438.564 340,438.564" transform="rotate(300 300 300)" fill="green" stroke="black" stroke-width="0.5" />
<polygon points="360,403.923 340,438.564 380,438.564" transform="rotate(300 300 300)" fill="green" stroke="black" stroke-width="0.5" />
<polygon points="360,473.205 340,438.564 380,438.564" transform="rotate(300 300 300)" fill="green" stroke="black" stroke-width="0.5" />
<polygon points="220,438.564 200,473.205 240,473.205" transform="rotate(300 300 300)" fill="green" stroke="black" stroke-width="0.5" />
<polygon points="220,507.846 200,473.205 240,473.205" transform="rotate(300 300 300)" fill="green" stroke="black" stroke-width="0.5" />
<polygon points="260,438.564 240,473.205 280,473.205" transform="rotate(300 300 300)" fill="green" stroke="black" stroke-width="0.5" />
<polygon points="260,507.846 240,473.205 280,473.205" transform="rotate(300 300 300)" fill="green" stroke="black" stroke-width="0.5" />
<polygon points="300,438.564 280,473.205 320,473.205" transform="rotate(300 300 300)" fill="green" stroke="black" stroke-width="0.5" />
<polygon points="300,507.846 280,473.205 320,473.205" transform="rotate(300 300 300)" fill="green" stroke="black" stroke-width="0.5" />
<polygon points="340,438.564 320,473.205 360,473.205" transform="rotate(300 300 300)" fill="green" stroke="black" stroke-width="0.5" />
<polygon points="340,507.846 320,473.205 360,473.205" transform="rotate(300 300 300)" fill="green" stroke="black" stroke-width="0.5" />
<polygon points="380,438.564 360,473.205 400,473.205" transform="rotate(300 300 300)" fill="green" stroke="black" stroke-width="0.5" />
<polygon points="380,507.846 360,473.205 400,473.205" transform="rotate(300 300 300)" fill="green" stroke="black" stroke-width="0.5" />
<polygon points="200,473.205 180,507.846 220,507.846" transform="rotate(300 300 300)" fill="green" stroke="black" stroke-width="0.5" />
<polygon points="200,542.487 180,507.846 220,507.846" transform="rotate(300 300 300)" fill="green" stroke="black" stroke-width="0.5" />
<polygon points="240,473.205 220,507.846 260,507.846" transform="rotate(300 300 300)" fill="green" stroke="black" stroke-width="0.5" />
<polygon points="240,542.487 220,507.846 260,507.846" transform="rotate(300 300 300)" fill="green" stroke="black" stroke-width="0.5" />
<polygon points="280,473.205 260,507.846 300,507.846" transform="rotate(300 300 300)" fill="green" stroke="black" stroke-width="0.5" />
<polygon points="280,542.487 260,507.846 300,507.846" transform="rotate(300 300 300)" fill="green" stroke="black" stroke-width="0.5" />
<polygon points="320,473.205 300,507.846 340,507.846" transform="rotate(300 300 300)" fill="green" stroke="black" stroke-width="0.5" />
<polygon points="320,542.487 300,507.846 340,507.846" transform="rotate(300 300 300)" fill="green" stroke="black" stroke-width="0.5" />
<polygon points="360,473.205 340,507.846 380,507.846" transform="rotate(300 300 300)" fill="green" stroke="black" stroke-width="0.5" />
<polygon points="360,542.487 340,507.846 380,507.846" transform="rotate(300 300 300)" fill="green" stroke="black" stroke-width="0.5" />
<polygon points="400,473.205 380,507.846 420,507.846" transform="rotate(300 300 300)" fill="green" stroke="black" stroke-width="0.5" />
<polygon points="400,542.487 380,507.846 420,507.846" transform="rotate(300 300 300)" fill="green" stroke="black" stroke-width="0.5" />
<polygon points="180,507.846 160,542.487 200,542.487" transform="rotate(300 300 300)" fill="green" stroke="black" stroke-width="0.5" />
<polygon points="220,507.846 200,542.487 240,542.487" transform="rotate(300 300 300)" fill="green" stroke="black" stroke-width="0.5" />
<polygon points="260,507.846 240,542.487 280,542.487" transform="rotate(300 300 300)" fill="green" stroke="black" stroke-width="0.5" />
<polygon points="300,507.846 280,542.487 320,542.487" transform="rotate(300 300 300)" fill="green" stroke="black" stroke-width="0.5" />
<polygon points="340,507.846 320,542.487 360,542.487" transform="rotate(300 300 300)" fill="green" stroke="black" stroke-width="0.5" />
<polygon points="380,507.846 360,542.487 400,542.487" transform="rotate(300 300 300)" fill="green" stroke="black" stroke-width="0.5" />
<polygon points="420,507.846 400,542.487 440,542.487" transform="rotate(300 300 300)" fill="green" stroke="black" stroke-width="0.5" />
<polygon points="330,542.487 310,577.128 350,577.128" transform="rotate(300 300 300)" fill="green" stroke="black" stroke-width="0.5" />
<polygon points="290,542.487 270,577.128 310,577.128" transform="rotate(300 300 300)" fill="green" stroke="black" stroke-width="0.5" />
<polygon points="250,542.487 230,577.128 270,577.128" transform="rotate(300 300 300)" fill="green" stroke="black" stroke-width="0.5" />
<polygon points="370,542.487 350,577.128 330,542.487" transform="rotate(300 300 300)" fill="green" stroke="black" stroke-width="0.5" />
<polygon points="330,542.487 310,577.128 290,542.487" transform="rotate(300 300 300)" fill="green" stroke="black" stroke-width="0.5" />
<polygon points="290,542.487 270,577.128 250,542.487" transform="rotate(300 300 300)" fill="green" stroke="black" stroke-width="0.5" />
<polygon points="250,542.487 230,577.128 210,542.487" transform="rotate(300 300 300)" fill="green" stroke="black" stroke-width="0.5" />
</svg>
