<svg version="1.1" baseProfile="full" xmlns="http://www.w3.org/2000/svg">
<polygon points="300,0 0,519.615 600,519.615" transform="rotate(0 0 0)" fill="blue" stroke="black" stroke-width="0.5" />
<polygon points="350,100 349.901,96.8605 349.606,93.7333 349.114,90.6309 348.429,87.5655 347.553,84.5492 346.489,81.5938 345.241,78.711 343.815,75.9123 342.216,73.2087 340.451,70.6107 338.526,68.1288 336.448,65.7726 334.227,63.5516 331.871,61.4743 329.389,59.5492 326.791,57.7836 324.088,56.1847 321.289,54.7586 318.406,53.5112 315.451,52.4472 312.434,51.5708 309.369,50.8856 306.267,50.3943 303.14,50.0987 300,50 296.86,50.0987 293.733,50.3943 290.631,50.8856 287.566,51.5708 284.549,52.4472 281.594,53.5112 278.711,54.7586 275.912,56.1847 273.209,57.7836 270.611,59.5492 268.129,61.4743 265.773,63.5516 263.552,65.7726 261.474,68.1288 259.549,70.6107 257.784,73.2087 256.185,75.9123 254.759,78.711 253.511,81.5938 252.447,84.5492 251.571,87.5655 250.886,90.6309 250.394,93.7333 250.099,96.8605 250,100 250.099,103.14 250.394,106.267 250.886,109.369 251.571,112.434 252.447,115.451 253.511,118.406 254.759,121.289 256.185,124.088 257.784,126.791 259.549,129.389 261.474,131.871 263.552,134.227 265.773,136.448 268.129,138.526 270.611,140.451 273.209,142.216 275.912,143.815 278.711,145.241 281.594,146.489 284.549,147.553 287.566,148.429 290.631,149.114 293.733,149.606 296.86,149.901 300,150 303.14,149.901 306.267,149.606 309.369,149.114 312.434,148.429 315.451,147.553 318.406,146.489 321.289,145.241 324.088,143.815 326.791,142.216 329.389,140.451 331.871,138.526 334.227,136.448 336.448,134.227 338.526,131.871 340.451,129.389 342.216,126.791 343.815,124.088 345.241,121.289 346.489,118.406 347.553,115.451 348.429,112.434 349.114,109.369 349.606,106.267 349.901,103.14" transform="rotate(0 0 0)" fill="green" stroke="black" stroke-width="0.5" />
<polygon points="300,186.603 299.901,183.463 299.606,180.336 299.114,177.233 298.429,174.168 297.553,171.152 296.489,168.196 295.241,165.314 293.815,162.515 292.216,159.811 290.451,157.213 288.526,154.731 286.448,152.375 284.227,150.154 281.871,148.077 279.389,146.152 276.791,144.386 274.088,142.787 271.289,141.361 268.406,140.114 265.451,139.05 262.434,138.173 259.369,137.488 256.267,136.997 253.14,136.701 250,136.603 246.86,136.701 243.733,136.997 240.631,137.488 237.566,138.173 234.549,139.05 231.594,140.114 228.711,141.361 225.912,142.787 223.209,144.386 220.611,146.152 218.129,148.077 215.773,150.154 213.552,152.375 211.474,154.731 209.549,157.213 207.784,159.811 206.185,162.515 204.759,165.314 203.511,168.196 202.447,171.152 201.571,174.168 200.886,177.233 200.394,180.336 200.099,183.463 200,186.603 200.099,189.742 200.394,192.869 200.886,195.972 201.571,199.037 202.447,202.053 203.511,205.009 204.759,207.892 206.185,210.69 207.784,213.394 209.549,215.992 211.474,218.474 213.552,220.83 215.773,223.051 218.129,225.128 220.611,227.053 223.209,228.819 225.912,230.418 228.711,231.844 231.594,233.091 234.549,234.155 237.566,235.032 240.631,235.717 243.733,236.208 246.86,236.504 250,236.603 253.14,236.504 256.267,236.208 259.369,235.717 262.434,235.032 265.451,234.155 268.406,233.091 271.289,231.844 274.088,230.418 276.791,228.819 279.389,227.053 281.871,225.128 284.227,223.051 286.448,220.83 288.526,218.474 290.451,215.992 292.216,213.394 293.815,210.69 295.241,207.892 296.489,205.009 297.553,202.053 298.429,199.037 299.114,195.972 299.606,192.869 299.901,189.742" transform="rotate(0 0 0)" fill="green" stroke="black" stroke-width="0.5" />
<polygon points="400,186.603 399.901,183.463 399.606,180.336 399.114,177.233 398.429,174.168 397.553,171.152 396.489,168.196 395.241,165.314 393.815,162.515 392.216,159.811 390.451,157.213 388.526,154.731 386.448,152.375 384.227,150.154 381.871,148.077 379.389,146.152 376.791,144.386 374.088,142.787 371.289,141.361 368.406,140.114 365.451,139.05 362.434,138.173 359.369,137.488 356.267,136.997 353.14,136.701 350,136.603 346.86,136.701 343.733,136.997 340.631,137.488 337.566,138.173 334.549,139.05 331.594,140.114 328.711,141.361 325.912,142.787 323.209,144.386 320.611,146.152 318.129,148.077 315.773,150.154 313.552,152.375 311.474,154.731 309.549,157.213 307.784,159.811 306.185,162.515 304.759,165.314 303.511,168.196 302.447,171.152 301.571,174.168 300.886,177.233 300.394,180.336 300.099,183.463 300,186.603 300.099,189.742 300.394,192.869 300.886,195.972 301.571,199.037 302.447,202.053 303.511,205.009 304.759,207.892 306.185,210.69 307.784,213.394 309.549,215.992 311.474,218.474 313.552,220.83 315.773,223.051 318.129,225.128 320.611,227.053 323.209,228.819 325.912,230.418 328.711,231.844 331.594,233.091 334.549,234.155 337.566,235.032 340.631,235.717 343.733,236.208 346.86,236.504 350,236.603 353.14,236.504 356.267,236.208 359.369,235.717 362.434,235.032 365.451,234.155 368.406,233.091 371.289,231.844 374.088,230.418 376.791,228.819 379.389,227.053 381.871,225.128 384.227,223.051 386.448,220.83 388.526,218.474 390.451,215.992 392.216,213.394 393.815,210.69 395.241,207.892 396.489,205.009 397.553,202.053 398.429,199.037 399.114,195.972 399.606,192.869 399.901,189.742" transform="rotate(0 0 0)" fill="green" stroke="black" stroke-width="0.5" />
<polygon points="350,273.205 349.901,270.066 349.606,266.938 349.114,263.836 348.429,260.771 347.553,257.754 346.489,254.799 345.241,251.916 343.815,249.117 342.216,246.414 340.451,243.816 338.526,241.334 336.448,238.978 334.227,236.757 331.871,234.679 329.389,232.754 326.791,230.989 324.088,229.39 321.289,227.964 318.406,226.716 315.451,225.652 312.434,224.776 309.369,224.091 306.267,223.599 303.14,223.304 300,223.205 296.86,223.304 293.733,223.599 290.631,224.091 287.566,224.776 284.549,225.652 281.594,226.716 278.711,227.964 275.912,229.39 273.209,230.989 270.611,232.754 268.129,234.679 265.773,236.757 263.552,238.978 261.474,241.334 259.549,243.816 257.784,246.414 256.185,249.117 254.759,251.916 253.511,254.799 252.447,257.754 251.571,260.771 250.886,263.836 250.394,266.938 250.099,270.066 250,273.205 250.099,276.345 250.394,279.472 250.886,282.574 251.571,285.64 252.447,288.656 253.511,291.611 254.759,294.494 256.185,297.293 257.784,299.996 259.549,302.594 261.474,305.076 263.552,307.432 265.773,309.654 268.129,311.731 270.611,313.656 273.209,315.421 275.912,317.02 278.711,318.446 281.594,319.694 284.549,320.758 287.566,321.634 290.631,322.319 293.733,322.811 296.86,323.106 300,323.205 303.14,323.106 306.267,322.811 309.369,322.319 312.434,321.634 315.451,320.758 318.406,319.694 321.289,318.446 324.088,317.02 326.791,315.421 329.389,313.656 331.871,311.731 334.227,309.654 336.448,307.432 338.526,305.076 340.451,302.594 342.216,299.996 343.815,297.293 345.241,294.494 346.489,291.611 347.553,288.656 348.429,285.64 349.114,282.574 349.606,279.472 349.901,276.345" transform="rotate(0 0 0)" fill="green" stroke="black" stroke-width="0.5" />
<polygon points="250,273.205 249.901,270.066 249.606,266.938 249.114,263.836 248.429,260.771 247.553,257.754 246.489,254.799 245.241,251.916 243.815,249.117 242.216,246.414 240.451,243.816 238.526,241.334 236.448,238.978 234.227,236.757 231.871,234.679 229.389,232.754 226.791,230.989 224.088,229.39 221.289,227.964 218.406,226.716 215.451,225.652 212.434,224.776 209.369,224.091 206.267,223.599 203.14,223.304 200,223.205 196.86,223.304 193.733,223.599 190.631,224.091 187.566,224.776 184.549,225.652 181.594,226.716 178.711,227.964 175.912,229.39 173.209,230.989 170.611,232.754 168.129,234.679 165.773,236.757 163.552,238.978 161.474,241.334 159.549,243.816 157.784,246.414 156.185,249.117 154.759,251.916 153.511,254.799 152.447,257.754 151.571,260.771 150.886,263.836 150.394,266.938 150.099,270.066 150,273.205 150.099,276.345 150.394,279.472 150.886,282.574 151.571,285.64 152.447,288.656 153.511,291.611 154.759,294.494 156.185,297.293 157.784,299.996 159.549,302.594 161.474,305.076 163.552,307.432 165.773,309.654 168.129,311.731 170.611,313.656 173.209,315.421 175.912,317.02 178.711,318.446 181.594,319.694 184.549,320.758 187.566,321.634 190.631,322.319 193.733,322.811 196.86,323.106 200,323.205 203.14,323.106 206.267,322.811 209.369,322.319 212.434,321.634 215.451,320.758 218.406,319.694 221.289,318.446 224.088,317.02 226.791,315.421 229.389,313.656 231.871,311.731 234.227,309.654 236.448,307.432 238.526,305.076 240.451,302.594 242.216,299.996 243.815,297.293 245.241,294.494 246.489,291.611 247.553,288.656 248.429,285.64 249.114,282.574 249.606,279.472 249.901,276.345" transform="rotate(0 0 0)" fill="green" stroke="black" stroke-width="0.5" />
<polygon points="450,273.205 449.901,270.066 449.606,266.938 449.114,263.836 448.429,260.771 447.553,257.754 446.489,254.799 445.241,251.916 443.815,249.117 442.216,246.414 440.451,243.816 438.526,241.334 436.448,238.978 434.227,236.757 431.871,234.679 429.389,232.754 426.791,230.989 424.088,229.39 421.289,227.964 418.406,226.716 415.451,225.652 412.434,224.776 409.369,224.091 406.267,223.599 403.14,223.304 400,223.205 396.86,223.304 393.733,223.599 390.631,224.091 387.566,224.776 384.549,225.652 381.594,226.716 378.711,227.964 375.912,229.39 373.209,230.989 370.611,232.754 368.129,234.679 365.773,236.757 363.552,238.978 361.474,241.334 359.549,243.816 357.784,246.414 356.185,249.117 354.759,251.916 353.511,254.799 352.447,257.754 351.571,260.771 350.886,263.836 350.394,266.938 350.099,270.066 350,273.205 350.099,276.345 350.394,279.472 350.886,282.574 351.571,285.64 352.447,288.656 353.511,291.611 354.759,294.494 356.185,297.293 357.784,299.996 359.549,302.594 361.474,305.076 363.552,307.432 365.773,309.654 368.129,311.731 370.611,313.656 373.209,315.421 375.912,317.02 378.711,318.446 381.594,319.694 384.549,320.758 387.566,321.634 390.631,322.319 393.733,322.811 396.86,323.106 400,323.205 403.14,323.106 406.267,322.811 409.369,322.319 412.434,321.634 415.451,320.758 418.406,319.694 421.289,318.446 424.088,317.02 426.791,315.421 429.389,313.656 431.871,311.731 434.227,309.654 436.448,307.432 438.526,305.076 440.451,302.594 442.216,299.996 443.815,297.293 445.241,294.494 446.489,291.611 447.553,288.656 448.429,285.64 449.114,282.574 449.606,279.472 449.901,276.345" transform="rotate(0 0 0)" fill="green" stroke="black" stroke-width="0.5" />
<polygon points="300,359.808 299.901,356.668 299.606,353.541 299.114,350.439 298.429,347.373 297.553,344.357 296.489,341.401 295.241,338.519 293.815,335.72 292.216,333.016 290.451,330.418 288.526,327.936 286.448,325.58 284.227,323.359 281.871,321.282 279.389,319.357 276.791,317.591 274.088,315.992 271.289,314.566 268.406,313.319 265.451,312.255 262.434,311.378 259.369,310.693 256.267,310.202 253.14,309.906 250,309.808 246.86,309.906 243.733,310.202 240.631,310.693 237.566,311.378 234.549,312.255 231.594,313.319 228.711,314.566 225.912,315.992 223.209,317.591 220.611,319.357 218.129,321.282 215.773,323.359 213.552,325.58 211.474,327.936 209.549,330.418 207.784,333.016 206.185,335.72 204.759,338.519 203.511,341.401 202.447,344.357 201.571,347.373 200.886,350.439 200.394,353.541 200.099,356.668 200,359.808 200.099,362.947 200.394,366.074 200.886,369.177 201.571,372.242 202.447,375.258 203.511,378.214 204.759,381.097 206.185,383.895 207.784,386.599 209.549,389.197 211.474,391.679 213.552,394.035 215.773,396.256 218.129,398.333 220.611,400.258 223.209,402.024 225.912,403.623 228.711,405.049 231.594,406.296 234.549,407.36 237.566,408.237 240.631,408.922 243.733,409.413 246.86,409.709 250,409.808 253.14,409.709 256.267,409.413 259.369,408.922 262.434,408.237 265.451,407.36 268.406,406.296 271.289,405.049 274.088,403.623 276.791,402.024 279.389,400.258 281.871,398.333 284.227,396.256 286.448,394.035 288.526,391.679 290.451,389.197 292.216,386.599 293.815,383.895 295.241,381.097 296.489,378.214 297.553,375.258 298.429,372.242 299.114,369.177 299.606,366.074 299.901,362.947" transform="rotate(0 0 0)" fill="green" stroke="black" stroke-width="0.5" />
<polygon points="400,359.808 399.901,356.668 399.606,353.541 399.114,350.439 398.429,347.373 397.553,344.357 396.489,341.401 395.241,338.519 393.815,335.72 392.216,333.016 390.451,330.418 388.526,327.936 386.448,325.58 384.227,323.359 381.871,321.282 379.389,319.357 376.791,317.591 374.088,315.992 371.289,314.566 368.406,313.319 365.451,312.255 362.434,311.378 359.369,310.693 356.267,310.202 353.14,309.906 350,309.808 346.86,309.906 343.733,310.202 340.631,310.693 337.566,311.378 334.549,312.255 331.594,313.319 328.711,314.566 325.912,315.992 323.209,317.591 320.611,319.357 318.129,321.282 315.773,323.359 313.552,325.58 311.474,327.936 309.549,330.418 307.784,333.016 306.185,335.72 304.759,338.519 303.511,341.401 302.447,344.357 301.571,347.373 300.886,350.439 300.394,353.541 300.099,356.668 300,359.808 300.099,362.947 300.394,366.074 300.886,369.177 301.571,372.242 302.447,375.258 303.511,378.214 304.759,381.097 306.185,383.895 307.784,386.599 309.549,389.197 311.474,391.679 313.552,394.035 315.773,396.256 318.129,398.333 320.611,400.258 323.209,402.024 325.912,403.623 328.711,405.049 331.594,406.296 334.549,407.36 337.566,408.237 340.631,408.922 343.733,409.413 346.86,409.709 350,409.808 353.14,409.709 356.267,409.413 359.369,408.922 362.434,408.237 365.451,407.36 368.406,406.296 371.289,405.049 374.088,403.623 376.791,402.024 379.389,400.258 381.871,398.333 384.227,396.256 386.448,394.035 388.526,391.679 390.451,389.197 392.216,386.599 393.815,383.895 395.241,381.097 396.489,378.214 397.553,375.258 398.429,372.242 399.114,369.177 399.606,366.074 399.901,362.947" transform="rotate(0 0 0)" fill="green" stroke="black" stroke-width="0.5" />
<polygon points="200,359.808 199.901,356.668 199.606,353.541 199.114,350.439 198.429,347.373 197.553,344.357 196.489,341.401 195.241,338.519 193.815,335.72 192.216,333.016 190.451,330.418 188.526,327.936 186.448,325.58 184.227,323.359 181.871,321.282 179.389,319.357 176.791,317.591 174.088,315.992 171.289,314.566 168.406,313.319 165.451,312.255 162.434,311.378 159.369,310.693 156.267,310.202 153.14,309.906 150,309.808 146.86,309.906 143.733,310.202 140.631,310.693 137.566,311.378 134.549,312.255 131.594,313.319 128.711,314.566 125.912,315.992 123.209,317.591 120.611,319.357 118.129,321.282 115.773,323.359 113.552,325.58 111.474,327.936 109.549,330.418 107.784,333.016 106.185,335.72 104.759,338.519 103.511,341.401 102.447,344.357 101.571,347.373 100.886,350.439 100.394,353.541 100.099,356.668 100,359.808 100.099,362.947 100.394,366.074 100.886,369.177 101.571,372.242 102.447,375.258 103.511,378.214 104.759,381.097 106.185,383.895 107.784,386.599 109.549,389.197 111.474,391.679 113.552,394.035 115.773,396.256 118.129,398.333 120.611,400.258 123.209,402.024 125.912,403.623 128.711,405.049 131.594,406.296 134.549,407.36 137.566,408.237 140.631,408.922 143.733,409.413 146.86,409.709 150,409.808 153.14,409.709 156.267,409.413 159.369,408.922 162.434,408.237 165.451,407.36 168.406,406.296 171.289,405.049 174.088,403.623 176.791,402.024 179.389,400.258 181.871,398.333 184.227,396.256 186.448,394.035 188.526,391.679 190.451,389.197 192.216,386.599 193.815,383.895 195.241,381.097 196.489,378.214 197.553,375.258 198.429,372.242 199.114,369.177 199.606,366.074 199.901,362.947" transform="rotate(0 0 0)" fill="green" stroke="black" stroke-width="0.5" />
<polygon points="500,359.808 499.901,356.668 499.606,353.541 499.114,350.439 498.429,347.373 497.553,344.357 496.489,341.401 495.241,338.519 493.815,335.72 492.216,333.016 490.451,330.418 488.526,327.936 486.448,325.58 484.227,323.359 481.871,321.282 479.389,319.357 476.791,317.591 474.088,315.992 471.289,314.566 468.406,313.319 465.451,312.255 462.434,311.378 459.369,310.693 456.267,310.202 453.14,309.906 450,309.808 446.86,309.906 443.733,310.202 440.631,310.693 437.566,311.378 434.549,312.255 431.594,313.319 428.711,314.566 425.912,315.992 423.209,317.591 420.611,319.357 418.129,321.282 415.773,323.359 413.552,325.58 411.474,327.936 409.549,330.418 407.784,333.016 406.185,335.72 404.759,338.519 403.511,341.401 402.447,344.357 401.571,347.373 400.886,350.439 400.394,353.541 400.099,356.668 400,359.808 400.099,362.947 400.394,366.074 400.886,369.177 401.571,372.242 402.447,375.258 403.511,378.214 404.759,381.097 406.185,383.895 407.784,386.599 409.549,389.197 411.474,391.679 413.552,394.035 415.773,396.256 418.129,398.333 420.611,400.258 423.209,402.024 425.912,403.623 428.711,405.049 431.594,406.296 434.549,407.36 437.566,408.237 440.631,408.922 443.733,409.413 446.86,409.709 450,409.808 453.14,409.709 456.267,409.413 459.369,408.922 462.434,408.237 465.451,407.36 468.406,406.296 471.289,405.049 474.088,403.623 476.791,402.024 479.389,400.258 481.871,398.333 484.227,396.256 486.448,394.035 488.526,391.679 490.451,389.197 492.216,386.599 493.815,383.895 495.241,381.097 496.489,378.214 497.553,375.258 498.429,372.242 499.114,369.177 499.606,366.074 499.901,362.947" transform="rotate(0 0 0)" fill="green" stroke="black" stroke-width="0.5" />
<polygon points="350,446.41 349.901,443.271 349.606,440.143 349.114,437.041 348.429,433.976 347.553,430.959 346.489,428.004 345.241,425.121 343.815,422.322 342.216,419.619 340.451,417.021 338.526,414.539 336.448,412.183 334.227,409.962 331.871,407.884 329.389,405.959 326.791,404.194 324.088,402.595 321.289,401.169 318.406,399.921 315.451,398.857 312.434,397.981 309.369,397.296 306.267,396.804 303.14,396.509 300,396.41 296.86,396.509 293.733,396.804 290.631,397.296 287.566,397.981 284.549,398.857 281.594,399.921 278.711,401.169 275.912,402.595 273.209,404.194 270.611,405.959 268.129,407.884 265.773,409.962 263.552,412.183 261.474,414.539 259.549,417.021 257.784,419.619 256.185,422.322 254.759,425.121 253.511,428.004 252.447,430.959 251.571,433.976 250.886,437.041 250.394,440.143 250.099,443.271 250,446.41 250.099,449.55 250.394,452.677 250.886,455.779 251.571,458.845 252.447,461.861 253.511,464.816 254.759,467.699 256.185,470.498 257.784,473.202 259.549,475.799 261.474,478.281 263.552,480.638 265.773,482.859 268.129,484.936 270.611,486.861 273.209,488.627 275.912,490.225 278.711,491.652 281.594,492.899 284.549,493.963 287.566,494.839 290.631,495.525 293.733,496.016 296.86,496.311 300,496.41 303.14,496.311 306.267,496.016 309.369,495.525 312.434,494.839 315.451,493.963 318.406,492.899 321.289,491.652 324.088,490.225 326.791,488.627 329.389,486.861 331.871,484.936 334.227,482.859 336.448,480.638 338.526,478.281 340.451,475.799 342.216,473.202 343.815,470.498 345.241,467.699 346.489,464.816 347.553,461.861 348.429,458.845 349.114,455.779 349.606,452.677 349.901,449.55" transform="rotate(0 0 0)" fill="green" stroke="black" stroke-width="0.5" />
<polygon points="250,446.41 249.901,443.271 249.606,440.143 249.114,437.041 248.429,433.976 247.553,430.959 246.489,428.004 245.241,425.121 243.815,422.322 242.216,419.619 240.451,417.021 238.526,414.539 236.448,412.183 234.227,409.962 231.871,407.884 229.389,405.959 226.791,404.194 224.088,402.595 221.289,401.169 218.406,399.921 215.451,398.857 212.434,397.981 209.369,397.296 206.267,396.804 203.14,396.509 200,396.41 196.86,396.509 193.733,396.804 190.631,397.296 187.566,397.981 184.549,398.857 181.594,399.921 178.711,401.169 175.912,402.595 173.209,404.194 170.611,405.959 168.129,407.884 165.773,409.962 163.552,412.183 161.474,414.539 159.549,417.021 157.784,419.619 156.185,422.322 154.759,425.121 153.511,428.004 152.447,430.959 151.571,433.976 150.886,437.041 150.394,440.143 150.099,443.271 150,446.41 150.099,449.55 150.394,452.677 150.886,455.779 151.571,458.845 152.447,461.861 153.511,464.816 154.759,467.699 156.185,470.498 157.784,473.202 159.549,475.799 161.474,478.281 163.552,480.638 165.773,482.859 168.129,484.936 170.611,486.861 173.209,488.627 175.912,490.225 178.711,491.652 181.594,492.899 184.549,493.963 187.566,494.839 190.631,495.525 193.733,496.016 196.86,496.311 200,496.41 203.14,496.311 206.267,496.016 209.369,495.525 212.434,494.839 215.451,493.963 218.406,492.899 221.289,491.652 224.088,490.225 226.791,488.627 229.389,486.861 231.871,484.936 234.227,482.859 236.448,480.638 238.526,478.281 240.451,475.799 242.216,473.202 243.815,470.498 245.241,467.699 246.489,464.816 247.553,461.861 248.429,458.845 249.114,455.779 249.606,452.677 249.901,449.55" transform="rotate(0 0 0)" fill="green" stroke="black" stroke-width="0.5" />
<polygon points="150,446.41 149.901,443.271 149.606,440.143 149.114,437.041 148.429,433.976 147.553,430.959 146.489,428.004 145.241,425.121 143.815,422.322 142.216,419.619 140.451,417.021 138.526,414.539 136.448,412.183 134.227,409.962 131.871,407.884 129.389,405.959 126.791,404.194 124.088,402.595 121.289,401.169 118.406,399.921 115.451,398.857 112.434,397.981 109.369,397.296 106.267,396.804 103.14,396.509 100,396.41 96.8605,396.509 93.7333,396.804 90.6309,397.296 87.5655,397.981 84.5492,398.857 81.5938,399.921 78.711,401.169 75.9123,402.595 73.2087,404.194 70.6107,405.959 68.1288,407.884 65.7726,409.962 63.5516,412.183 61.4743,414.539 59.5492,417.021 57.7836,419.619 56.1847,422.322 54.7586,425.121 53.5112,428.004 52.4472,430.959 51.5708,433.976 50.8856,437.041 50.3943,440.143 50.0987,443.271 50,446.41 50.0987,449.55 50.3943,452.677 50.8856,455.779 51.5708,458.845 52.4472,461.861 53.5112,464.816 54.7586,467.699 56.1847,470.498 57.7836,473.202 59.5492,475.799 61.4743,478.281 63.5516,480.638 65.7726,482.859 68.1288,484.936 70.6107,486.861 73.2087,488.627 75.9123,490.225 78.711,491.652 81.5938,492.899 84.5492,493.963 87.5655,494.839 90.6309,495.525 93.7333,496.016 96.8605,496.311 100,496.41 103.14,496.311 106.267,496.016 109.369,495.525 112.434,494.839 115.451,493.963 118.406,492.899 121.289,491.652 124.088,490.225 126.791,488.627 129.389,486.861 131.871,484.936 134.227,482.859 136.448,480.638 138.526,478.281 140.451,475.799 142.216,473.202 143.815,470.498 145.241,467.699 146.489,464.816 147.553,461.861 148.429,458.845 149.114,455.779 149.606,452.677 149.901,449.55" transform="rotate(0 0 0)" fill="green" stroke="black" stroke-width="0.5" />
<polygon points="450,446.41 449.901,443.271 449.606,440.143 449.114,437.041 448.429,433.976 447.553,430.959 446.489,428.004 445.241,425.121 443.815,422.322 442.216,419.619 440.451,417.021 438.526,414.539 436.448,412.183 434.227,409.962 431.871,407.884 429.389,405.959 426.791,404.194 424.088,402.595 421.289,401.169 418.406,399.921 415.451,398.857 412.434,397.981 409.369,397.296 406.267,396.804 403.14,396.509 400,396.41 396.86,396.509 393.733,396.804 390.631,397.296 387.566,397.981 384.549,398.857 381.594,399.921 378.711,401.169 375.912,402.595 373.209,404.194 370.611,405.959 368.129,407.884 365.773,409.962 363.552,412.183 361.474,414.539 359.549,417.021 357.784,419.619 356.185,422.322 354.759,425.121 353.511,428.004 352.447,430.959 351.571,433.976 350.886,437.041 350.394,440.143 350.099,443.271 350,446.41 350.099,449.55 350.394,452.677 350.886,455.779 351.571,458.845 352.447,461.861 353.511,464.816 354.759,467.699 356.185,470.498 357.784,473.202 359.549,475.799 361.474,478.281 363.552,480.638 365.773,482.859 368.129,484.936 370.611,486.861 373.209,488.627 375.912,490.225 378.711,491.652 381.594,492.899 384.549,493.963 387.566,494.839 390.631,495.525 393.733,496.016 396.86,496.311 400,496.41 403.14,496.311 406.267,496.016 409.369,495.525 412.434,494.839 415.451,493.963 418.406,492.899 421.289,491.652 424.088,490.225 426.791,488.627 429.389,486.861 431.871,484.936 434.227,482.859 436.448,480.638 438.526,478.281 440.451,475.799 442.216,473.202 443.815,470.498 445.241,467.699 446.489,464.816 447.553,461.861 448.429,458.845 449.114,455.779 449.606,452.677 449.901,449.55" transform="rotate(0 0 0)" fill="green" stroke="black" stroke-width="0.5" />
<polygon points="550,446.41 549.901,443.271 549.606,440.143 549.114,437.041 548.429,433.976 547.553,430.959 546.489,428.004 545.241,425.121 543.815,422.322 542.216,419.619 540.451,417.021 538.526,414.539 536.448,412.183 534.227,409.962 531.871,407.884 529.389,405.959 526.791,404.194 524.088,402.595 521.289,401.169 518.406,399.921 515.451,398.857 512.434,397.981 509.369,397.296 506.267,396.804 503.14,396.509 500,396.41 496.86,396.509 493.733,396.804 490.631,397.296 487.566,397.981 484.549,398.857 481.594,399.921 478.711,401.169 475.912,402.595 473.209,404.194 470.611,405.959 468.129,407.884 465.773,409.962 463.552,412.183 461.474,414.539 459.549,417.021 457.784,419.619 456.185,422.322 454.759,425.121 453.511,428.004 452.447,430.959 451.571,433.976 450.886,437.041 450.394,440.143 450.099,443.271 450,446.41 450.099,449.55 450.394,452.677 450.886,455.779 451.571,458.845 452.447,461.861 453.511,464.816 454.759,467.699 456.185,470.498 457.784,473.202 459.549,475.799 461.474,478.281 463.552,480.638 465.773,482.859 468.129,484.936 470.611,486.861 473.209,488.627 475.912,490.225 478.711,491.652 481.594,492.899 484.549,493.963 487.566,494.839 490.631,495.525 493.733,496.016 496.86,496.311 500,496.41 503.14,496.311 506.267,496.016 509.369,495.525 512.434,494.839 515.451,493.963 518.406,492.899 521.289,491.652 524.088,490.225 526.791,488.627 529.389,486.861 531.871,484.936 534.227,482.859 536.448,480.638 538.526,478.281 540.451,475.799 542.216,473.202 543.815,470.498 545.241,467.699 546.489,464.816 547.553,461.861 548.429,458.845 549.114,455.779 549.606,452.677 549.901,449.55" transform="rotate(0 0 0)" fill="green" stroke="black" stroke-width="0.5" />
</svg>
