<svg version="1.1" baseProfile="full" xmlns="http://www.w3.org/2000/svg">
<polygon points="0,0 0,750 500,750 500,0" transform="rotate(0 0 0)" fill="pink" stroke="black" stroke-width="0.5" />
<polygon points="100,50 99.9013,46.8605 99.6057,43.7333 99.1144,40.6309 98.4292,37.5655 97.5528,34.5492 96.4888,31.5938 95.2414,28.711 93.8153,25.9123 92.2164,23.2087 90.4508,20.6107 88.5257,18.1288 86.4484,15.7726 84.2274,13.5516 81.8712,11.4743 79.3893,9.54915 76.7913,7.7836 74.0877,6.18467 71.289,4.75865 68.4062,3.51118 65.4508,2.44717 62.4345,1.57084 59.3691,0.885637 56.2667,0.394265 53.1395,0.0986636 50,0 46.8605,0.0986636 43.7333,0.394265 40.6309,0.885637 37.5655,1.57084 34.5492,2.44717 31.5938,3.51118 28.711,4.75865 25.9123,6.18467 23.2087,7.7836 20.6107,9.54915 18.1288,11.4743 15.7726,13.5516 13.5516,15.7726 11.4743,18.1288 9.54915,20.6107 7.7836,23.2087 6.18467,25.9123 4.75865,28.711 3.51118,31.5938 2.44717,34.5492 1.57084,37.5655 0.885637,40.6309 0.394265,43.7333 0.0986636,46.8605 0,50 0.0986636,53.1395 0.394265,56.2667 0.885637,59.3691 1.57084,62.4345 2.44717,65.4508 3.51118,68.4062 4.75865,71.289 6.18467,74.0877 7.7836,76.7913 9.54915,79.3893 11.4743,81.8712 13.5516,84.2274 15.7726,86.4484 18.1288,88.5257 20.6107,90.4508 23.2087,92.2164 25.9123,93.8153 28.711,95.2414 31.5938,96.4888 34.5492,97.5528 37.5655,98.4292 40.6309,99.1144 43.7333,99.6057 46.8605,99.9013 50,100 53.1395,99.9013 56.2667,99.6057 59.3691,99.1144 62.4345,98.4292 65.4508,97.5528 68.4062,96.4888 71.289,95.2414 74.0877,93.8153 76.7913,92.2164 79.3893,90.4508 81.8712,88.5257 84.2274,86.4484 86.4484,84.2274 88.5257,81.8712 90.4508,79.3893 92.2164,76.7913 93.8153,74.0877 95.2414,71.289 96.4888,68.4062 97.5528,65.4508 98.4292,62.4345 99.1144,59.3691 99.6057,56.2667 99.9013,53.1395" transform="rotate(0 0 0)" fill="green" stroke="black" stroke-width="0.5" />
<polygon points="200,50 199.901,46.8605 199.606,43.7333 199.114,40.6309 198.429,37.5655 197.553,34.5492 196.489,31.5938 195.241,28.711 193.815,25.9123 192.216,23.2087 190.451,20.6107 188.526,18.1288 186.448,15.7726 184.227,13.5516 181.871,11.4743 179.389,9.54915 176.791,7.7836 174.088,6.18467 171.289,4.75865 168.406,3.51118 165.451,2.44717 162.434,1.57084 159.369,0.885637 156.267,0.394265 153.14,0.0986636 150,0 146.86,0.0986636 143.733,0.394265 140.631,0.885637 137.566,1.57084 134.549,2.44717 131.594,3.51118 128.711,4.75865 125.912,6.18467 123.209,7.7836 120.611,9.54915 118.129,11.4743 115.773,13.5516 113.552,15.7726 111.474,18.1288 109.549,20.6107 107.784,23.2087 106.185,25.9123 104.759,28.711 103.511,31.5938 102.447,34.5492 101.571,37.5655 100.886,40.6309 100.394,43.7333 100.099,46.8605 100,50 100.099,53.1395 100.394,56.2667 100.886,59.3691 101.571,62.4345 102.447,65.4508 103.511,68.4062 104.759,71.289 106.185,74.0877 107.784,76.7913 109.549,79.3893 111.474,81.8712 113.552,84.2274 115.773,86.4484 118.129,88.5257 120.611,90.4508 123.209,92.2164 125.912,93.8153 128.711,95.2414 131.594,96.4888 134.549,97.5528 137.566,98.4292 140.631,99.1144 143.733,99.6057 146.86,99.9013 150,100 153.14,99.9013 156.267,99.6057 159.369,99.1144 162.434,98.4292 165.451,97.5528 168.406,96.4888 171.289,95.2414 174.088,93.8153 176.791,92.2164 179.389,90.4508 181.871,88.5257 184.227,86.4484 186.448,84.2274 188.526,81.8712 190.451,79.3893 192.216,76.7913 193.815,74.0877 195.241,71.289 196.489,68.4062 197.553,65.4508 198.429,62.4345 199.114,59.3691 199.606,56.2667 199.901,53.1395" transform="rotate(0 0 0)" fill="green" stroke="black" stroke-width="0.5" />
<polygon points="300,50 299.901,46.8605 299.606,43.7333 299.114,40.6309 298.429,37.5655 297.553,34.5492 296.489,31.5938 295.241,28.711 293.815,25.9123 292.216,23.2087 290.451,20.6107 288.526,18.1288 286.448,15.7726 284.227,13.5516 281.871,11.4743 279.389,9.54915 276.791,7.7836 274.088,6.18467 271.289,4.75865 268.406,3.51118 265.451,2.44717 262.434,1.57084 259.369,0.885637 256.267,0.394265 253.14,0.0986636 250,0 246.86,0.0986636 243.733,0.394265 240.631,0.885637 237.566,1.57084 234.549,2.44717 231.594,3.51118 228.711,4.75865 225.912,6.18467 223.209,7.7836 220.611,9.54915 218.129,11.4743 215.773,13.5516 213.552,15.7726 211.474,18.1288 209.549,20.6107 207.784,23.2087 206.185,25.9123 204.759,28.711 203.511,31.5938 202.447,34.5492 201.571,37.5655 200.886,40.6309 200.394,43.7333 200.099,46.8605 200,50 200.099,53.1395 200.394,56.2667 200.886,59.3691 201.571,62.4345 202.447,65.4508 203.511,68.4062 204.759,71.289 206.185,74.0877 207.784,76.7913 209.549,79.3893 211.474,81.8712 213.552,84.2274 215.773,86.4484 218.129,88.5257 220.611,90.4508 223.209,92.2164 225.912,93.8153 228.711,95.2414 231.594,96.4888 234.549,97.5528 237.566,98.4292 240.631,99.1144 243.733,99.6057 246.86,99.9013 250,100 253.14,99.9013 256.267,99.6057 259.369,99.1144 262.434,98.4292 265.451,97.5528 268.406,96.4888 271.289,95.2414 274.088,93.8153 276.791,92.2164 279.389,90.4508 281.871,88.5257 284.227,86.4484 286.448,84.2274 288.526,81.8712 290.451,79.3893 292.216,76.7913 293.815,74.0877 295.241,71.289 296.489,68.4062 297.553,65.4508 298.429,62.4345 299.114,59.3691 299.606,56.2667 299.901,53.1395" transform="rotate(0 0 0)" fill="green" stroke="black" stroke-width="0.5" />
<polygon points="400,50 399.901,46.8605 399.606,43.7333 399.114,40.6309 398.429,37.5655 397.553,34.5492 396.489,31.5938 395.241,28.711 393.815,25.9123 392.216,23.2087 390.451,20.6107 388.526,18.1288 386.448,15.7726 384.227,13.5516 381.871,11.4743 379.389,9.54915 376.791,7.7836 374.088,6.18467 371.289,4.75865 368.406,3.51118 365.451,2.44717 362.434,1.57084 359.369,0.885637 356.267,0.394265 353.14,0.0986636 350,0 346.86,0.0986636 343.733,0.394265 340.631,0.885637 337.566,1.57084 334.549,2.44717 331.594,3.51118 328.711,4.75865 325.912,6.18467 323.209,7.7836 320.611,9.54915 318.129,11.4743 315.773,13.5516 313.552,15.7726 311.474,18.1288 309.549,20.6107 307.784,23.2087 306.185,25.9123 304.759,28.711 303.511,31.5938 302.447,34.5492 301.571,37.5655 300.886,40.6309 300.394,43.7333 300.099,46.8605 300,50 300.099,53.1395 300.394,56.2667 300.886,59.3691 301.571,62.4345 302.447,65.4508 303.511,68.4062 304.759,71.289 306.185,74.0877 307.784,76.7913 309.549,79.3893 311.474,81.8712 313.552,84.2274 315.773,86.4484 318.129,88.5257 320.611,90.4508 323.209,92.2164 325.912,93.8153 328.711,95.2414 331.594,96.4888 334.549,97.5528 337.566,98.4292 340.631,99.1144 343.733,99.6057 346.86,99.9013 350,100 353.14,99.9013 356.267,99.6057 359.369,99.1144 362.434,98.4292 365.451,97.5528 368.406,96.4888 371.289,95.2414 374.088,93.8153 376.791,92.2164 379.389,90.4508 381.871,88.5257 384.227,86.4484 386.448,84.2274 388.526,81.8712 390.451,79.3893 392.216,76.7913 393.815,74.0877 395.241,71.289 396.489,68.4062 397.553,65.4508 398.429,62.4345 399.114,59.3691 399.606,56.2667 399.901,53.1395" transform="rotate(0 0 0)" fill="green" stroke="black" stroke-width="0.5" />
<polygon points="500,50 499.901,46.8605 499.606,43.7333 499.114,40.6309 498.429,37.5655 497.553,34.5492 496.489,31.5938 495.241,28.711 493.815,25.9123 492.216,23.2087 490.451,20.6107 488.526,18.1288 486.448,15.7726 484.227,13.5516 481.871,11.4743 479.389,9.54915 476.791,7.7836 474.088,6.18467 471.289,4.75865 468.406,3.51118 465.451,2.44717 462.434,1.57084 459.369,0.885637 456.267,0.394265 453.14,0.0986636 450,0 446.86,0.0986636 443.733,0.394265 440.631,0.885637 437.566,1.57084 434.549,2.44717 431.594,3.51118 428.711,4.75865 425.912,6.18467 423.209,7.7836 420.611,9.54915 418.129,11.4743 415.773,13.5516 413.552,15.7726 411.474,18.1288 409.549,20.6107 407.784,23.2087 406.185,25.9123 404.759,28.711 403.511,31.5938 402.447,34.5492 401.571,37.5655 400.886,40.6309 400.394,43.7333 400.099,46.8605 400,50 400.099,53.1395 400.394,56.2667 400.886,59.3691 401.571,62.4345 402.447,65.4508 403.511,68.4062 404.759,71.289 406.185,74.0877 407.784,76.7913 409.549,79.3893 411.474,81.8712 413.552,84.2274 415.773,86.4484 418.129,88.5257 420.611,90.4508 423.209,92.2164 425.912,93.8153 428.711,95.2414 431.594,96.4888 434.549,97.5528 437.566,98.4292 440.631,99.1144 443.733,99.6057 446.86,99.9013 450,100 453.14,99.9013 456.267,99.6057 459.369,99.1144 462.434,98.4292 465.451,97.5528 468.406,96.4888 471.289,95.2414 474.088,93.8153 476.791,92.2164 479.389,90.4508 481.871,88.5257 484.227,86.4484 486.448,84.2274 488.526,81.8712 490.451,79.3893 492.216,76.7913 493.815,74.0877 495.241,71.289 496.489,68.4062 497.553,65.4508 498.429,62.4345 499.114,59.3691 499.606,56.2667 499.901,53.1395" transform="rotate(0 0 0)" fill="green" stroke="black" stroke-width="0.5" />
<polygon points="150,136.603 149.901,133.463 149.606,130.336 149.114,127.233 148.429,124.168 147.553,121.152 146.489,118.196 145.241,115.314 143.815,112.515 142.216,109.811 140.451,107.213 138.526,104.731 136.448,102.375 134.227,100.154 131.871,98.0769 129.389,96.1517 126.791,94.3861 124.088,92.7872 121.289,91.3612 118.406,90.1137 115.451,89.0497 112.434,88.1734 109.369,87.4882 106.267,86.9968 103.14,86.7012 100,86.6025 96.8605,86.7012 93.7333,86.9968 90.6309,87.4882 87.5655,88.1734 84.5492,89.0497 81.5938,90.1137 78.711,91.3612 75.9123,92.7872 73.2087,94.3861 70.6107,96.1517 68.1288,98.0769 65.7726,100.154 63.5516,102.375 61.4743,104.731 59.5492,107.213 57.7836,109.811 56.1847,112.515 54.7586,115.314 53.5112,118.196 52.4472,121.152 51.5708,124.168 50.8856,127.233 50.3943,130.336 50.0987,133.463 50,136.603 50.0987,139.742 50.3943,142.869 50.8856,145.972 51.5708,149.037 52.4472,152.053 53.5112,155.009 54.7586,157.892 56.1847,160.69 57.7836,163.394 59.5492,165.992 61.4743,168.474 63.5516,170.83 65.7726,173.051 68.1288,175.128 70.6107,177.053 73.2087,178.819 75.9123,180.418 78.711,181.844 81.5938,183.091 84.5492,184.155 87.5655,185.032 90.6309,185.717 93.7333,186.208 96.8605,186.504 100,186.603 103.14,186.504 106.267,186.208 109.369,185.717 112.434,185.032 115.451,184.155 118.406,183.091 121.289,181.844 124.088,180.418 126.791,178.819 129.389,177.053 131.871,175.128 134.227,173.051 136.448,170.83 138.526,168.474 140.451,165.992 142.216,163.394 143.815,160.69 145.241,157.892 146.489,155.009 147.553,152.053 148.429,149.037 149.114,145.972 149.606,142.869 149.901,139.742" transform="rotate(0 0 0)" fill="green" stroke="black" stroke-width="0.5" />
<polygon points="250,136.603 249.901,133.463 249.606,130.336 249.114,127.233 248.429,124.168 247.553,121.152 246.489,118.196 245.241,115.314 243.815,112.515 242.216,109.811 240.451,107.213 238.526,104.731 236.448,102.375 234.227,100.154 231.871,98.0769 229.389,96.1517 226.791,94.3861 224.088,92.7872 221.289,91.3612 218.406,90.1137 215.451,89.0497 212.434,88.1734 209.369,87.4882 206.267,86.9968 203.14,86.7012 200,86.6025 196.86,86.7012 193.733,86.9968 190.631,87.4882 187.566,88.1734 184.549,89.0497 181.594,90.1137 178.711,91.3612 175.912,92.7872 173.209,94.3861 170.611,96.1517 168.129,98.0769 165.773,100.154 163.552,102.375 161.474,104.731 159.549,107.213 157.784,109.811 156.185,112.515 154.759,115.314 153.511,118.196 152.447,121.152 151.571,124.168 150.886,127.233 150.394,130.336 150.099,133.463 150,136.603 150.099,139.742 150.394,142.869 150.886,145.972 151.571,149.037 152.447,152.053 153.511,155.009 154.759,157.892 156.185,160.69 157.784,163.394 159.549,165.992 161.474,168.474 163.552,170.83 165.773,173.051 168.129,175.128 170.611,177.053 173.209,178.819 175.912,180.418 178.711,181.844 181.594,183.091 184.549,184.155 187.566,185.032 190.631,185.717 193.733,186.208 196.86,186.504 200,186.603 203.14,186.504 206.267,186.208 209.369,185.717 212.434,185.032 215.451,184.155 218.406,183.091 221.289,181.844 224.088,180.418 226.791,178.819 229.389,177.053 231.871,175.128 234.227,173.051 236.448,170.83 238.526,168.474 240.451,165.992 242.216,163.394 243.815,160.69 245.241,157.892 246.489,155.009 247.553,152.053 248.429,149.037 249.114,145.972 249.606,142.869 249.901,139.742" transform="rotate(0 0 0)" fill="green" stroke="black" stroke-width="0.5" />
<polygon points="350,136.603 349.901,133.463 349.606,130.336 349.114,127.233 348.429,124.168 347.553,121.152 346.489,118.196 345.241,115.314 343.815,112.515 342.216,109.811 340.451,107.213 338.526,104.731 336.448,102.375 334.227,100.154 331.871,98.0769 329.389,96.1517 326.791,94.3861 324.088,92.7872 321.289,91.3612 318.406,90.1137 315.451,89.0497 312.434,88.1734 309.369,87.4882 306.267,86.9968 303.14,86.7012 300,86.6025 296.86,86.7012 293.733,86.9968 290.631,87.4882 287.566,88.1734 284.549,89.0497 281.594,90.1137 278.711,91.3612 275.912,92.7872 273.209,94.3861 270.611,96.1517 268.129,98.0769 265.773,100.154 263.552,102.375 261.474,104.731 259.549,107.213 257.784,109.811 256.185,112.515 254.759,115.314 253.511,118.196 252.447,121.152 251.571,124.168 250.886,127.233 250.394,130.336 250.099,133.463 250,136.603 250.099,139.742 250.394,142.869 250.886,145.972 251.571,149.037 252.447,152.053 253.511,155.009 254.759,157.892 256.185,160.69 257.784,163.394 259.549,165.992 261.474,168.474 263.552,170.83 265.773,173.051 268.129,175.128 270.611,177.053 273.209,178.819 275.912,180.418 278.711,181.844 281.594,183.091 284.549,184.155 287.566,185.032 290.631,185.717 293.733,186.208 296.86,186.504 300,186.603 303.14,186.504 306.267,186.208 309.369,185.717 312.434,185.032 315.451,184.155 318.406,183.091 321.289,181.844 324.088,180.418 326.791,178.819 329.389,177.053 331.871,175.128 334.227,173.051 336.448,170.83 338.526,168.474 340.451,165.992 342.216,163.394 343.815,160.69 345.241,157.892 346.489,155.009 347.553,152.053 348.429,149.037 349.114,145.972 349.606,142.869 349.901,139.742" transform="rotate(0 0 0)" fill="green" stroke="black" stroke-width="0.5" />
<polygon points="450,136.603 449.901,133.463 449.606,130.336 449.114,127.233 448.429,124.168 447.553,121.152 446.489,118.196 445.241,115.314 443.815,112.515 442.216,109.811 440.451,107.213 438.526,104.731 436.448,102.375 434.227,100.154 431.871,98.0769 429.389,96.1517 426.791,94.3861 424.088,92.7872 421.289,91.3612 418.406,90.1137 415.451,89.0497 412.434,88.1734 409.369,87.4882 406.267,86.9968 403.14,86.7012 400,86.6025 396.86,86.7012 393.733,86.9968 390.631,87.4882 387.566,88.1734 384.549,89.0497 381.594,90.1137 378.711,91.3612 375.912,92.7872 373.209,94.3861 370.611,96.1517 368.129,98.0769 365.773,100.154 363.552,102.375 361.474,104.731 359.549,107.213 357.784,109.811 356.185,112.515 354.759,115.314 353.511,118.196 352.447,121.152 351.571,124.168 350.886,127.233 350.394,130.336 350.099,133.463 350,136.603 350.099,139.742 350.394,142.869 350.886,145.972 351.571,149.037 352.447,152.053 353.511,155.009 354.759,157.892 356.185,160.69 357.784,163.394 359.549,165.992 361.474,168.474 363.552,170.83 365.773,173.051 368.129,175.128 370.611,177.053 373.209,178.819 375.912,180.418 378.711,181.844 381.594,183.091 384.549,184.155 387.566,185.032 390.631,185.717 393.733,186.208 396.86,186.504 400,186.603 403.14,186.504 406.267,186.208 409.369,185.717 412.434,185.032 415.451,184.155 418.406,183.091 421.289,181.844 424.088,180.418 426.791,178.819 429.389,177.053 431.871,175.128 434.227,173.051 436.448,170.83 438.526,168.474 440.451,165.992 442.216,163.394 443.815,160.69 445.241,157.892 446.489,155.009 447.553,152.053 448.429,149.037 449.114,145.972 449.606,142.869 449.901,139.742" transform="rotate(0 0 0)" fill="green" stroke="black" stroke-width="0.5" />
<polygon points="100,223.205 99.9013,220.066 99.6057,216.938 99.1144,213.836 98.4292,210.771 97.5528,207.754 96.4888,204.799 95.2414,201.916 93.8153,199.117 92.2164,196.414 90.4508,193.816 88.5257,191.334 86.4484,188.978 84.2274,186.757 81.8712,184.679 79.3893,182.754 76.7913,180.989 74.0877,179.39 71.289,177.964 68.4062,176.716 65.4508,175.652 62.4345,174.776 59.3691,174.091 56.2667,173.599 53.1395,173.304 50,173.205 46.8605,173.304 43.7333,173.599 40.6309,174.091 37.5655,174.776 34.5492,175.652 31.5938,176.716 28.711,177.964 25.9123,179.39 23.2087,180.989 20.6107,182.754 18.1288,184.679 15.7726,186.757 13.5516,188.978 11.4743,191.334 9.54915,193.816 7.7836,196.414 6.18467,199.117 4.75865,201.916 3.51118,204.799 2.44717,207.754 1.57084,210.771 0.885637,213.836 0.394265,216.938 0.0986636,220.066 0,223.205 0.0986636,226.345 0.394265,229.472 0.885637,232.574 1.57084,235.64 2.44717,238.656 3.51118,241.611 4.75865,244.494 6.18467,247.293 7.7836,249.996 9.54915,252.594 11.4743,255.076 13.5516,257.432 15.7726,259.654 18.1288,261.731 20.6107,263.656 23.2087,265.421 25.9123,267.02 28.711,268.446 31.5938,269.694 34.5492,270.758 37.5655,271.634 40.6309,272.319 43.7333,272.811 46.8605,273.106 50,273.205 53.1395,273.106 56.2667,272.811 59.3691,272.319 62.4345,271.634 65.4508,270.758 68.4062,269.694 71.289,268.446 74.0877,267.02 76.7913,265.421 79.3893,263.656 81.8712,261.731 84.2274,259.654 86.4484,257.432 88.5257,255.076 90.4508,252.594 92.2164,249.996 93.8153,247.293 95.2414,244.494 96.4888,241.611 97.5528,238.656 98.4292,235.64 99.1144,232.574 99.6057,229.472 99.9013,226.345" transform="rotate(0 0 0)" fill="green" stroke="black" stroke-width="0.5" />
<polygon points="200,223.205 199.901,220.066 199.606,216.938 199.114,213.836 198.429,210.771 197.553,207.754 196.489,204.799 195.241,201.916 193.815,199.117 192.216,196.414 190.451,193.816 188.526,191.334 186.448,188.978 184.227,186.757 181.871,184.679 179.389,182.754 176.791,180.989 174.088,179.39 171.289,177.964 168.406,176.716 165.451,175.652 162.434,174.776 159.369,174.091 156.267,173.599 153.14,173.304 150,173.205 146.86,173.304 143.733,173.599 140.631,174.091 137.566,174.776 134.549,175.652 131.594,176.716 128.711,177.964 125.912,179.39 123.209,180.989 120.611,182.754 118.129,184.679 115.773,186.757 113.552,188.978 111.474,191.334 109.549,193.816 107.784,196.414 106.185,199.117 104.759,201.916 103.511,204.799 102.447,207.754 101.571,210.771 100.886,213.836 100.394,216.938 100.099,220.066 100,223.205 100.099,226.345 100.394,229.472 100.886,232.574 101.571,235.64 102.447,238.656 103.511,241.611 104.759,244.494 106.185,247.293 107.784,249.996 109.549,252.594 111.474,255.076 113.552,257.432 115.773,259.654 118.129,261.731 120.611,263.656 123.209,265.421 125.912,267.02 128.711,268.446 131.594,269.694 134.549,270.758 137.566,271.634 140.631,272.319 143.733,272.811 146.86,273.106 150,273.205 153.14,273.106 156.267,272.811 159.369,272.319 162.434,271.634 165.451,270.758 168.406,269.694 171.289,268.446 174.088,267.02 176.791,265.421 179.389,263.656 181.871,261.731 184.227,259.654 186.448,257.432 188.526,255.076 190.451,252.594 192.216,249.996 193.815,247.293 195.241,244.494 196.489,241.611 197.553,238.656 198.429,235.64 199.114,232.574 199.606,229.472 199.901,226.345" transform="rotate(0 0 0)" fill="green" stroke="black" stroke-width="0.5" />
<polygon points="300,223.205 299.901,220.066 299.606,216.938 299.114,213.836 298.429,210.771 297.553,207.754 296.489,204.799 295.241,201.916 293.815,199.117 292.216,196.414 290.451,193.816 288.526,191.334 286.448,188.978 284.227,186.757 281.871,184.679 279.389,182.754 276.791,180.989 274.088,179.39 271.289,177.964 268.406,176.716 265.451,175.652 262.434,174.776 259.369,174.091 256.267,173.599 253.14,173.304 250,173.205 246.86,173.304 243.733,173.599 240.631,174.091 237.566,174.776 234.549,175.652 231.594,176.716 228.711,177.964 225.912,179.39 223.209,180.989 220.611,182.754 218.129,184.679 215.773,186.757 213.552,188.978 211.474,191.334 209.549,193.816 207.784,196.414 206.185,199.117 204.759,201.916 203.511,204.799 202.447,207.754 201.571,210.771 200.886,213.836 200.394,216.938 200.099,220.066 200,223.205 200.099,226.345 200.394,229.472 200.886,232.574 201.571,235.64 202.447,238.656 203.511,241.611 204.759,244.494 206.185,247.293 207.784,249.996 209.549,252.594 211.474,255.076 213.552,257.432 215.773,259.654 218.129,261.731 220.611,263.656 223.209,265.421 225.912,267.02 228.711,268.446 231.594,269.694 234.549,270.758 237.566,271.634 240.631,272.319 243.733,272.811 246.86,273.106 250,273.205 253.14,273.106 256.267,272.811 259.369,272.319 262.434,271.634 265.451,270.758 268.406,269.694 271.289,268.446 274.088,267.02 276.791,265.421 279.389,263.656 281.871,261.731 284.227,259.654 286.448,257.432 288.526,255.076 290.451,252.594 292.216,249.996 293.815,247.293 295.241,244.494 296.489,241.611 297.553,238.656 298.429,235.64 299.114,232.574 299.606,229.472 299.901,226.345" transform="rotate(0 0 0)" fill="green" stroke="black" stroke-width="0.5" />
<polygon points="400,223.205 399.901,220.066 399.606,216.938 399.114,213.836 398.429,210.771 397.553,207.754 396.489,204.799 395.241,201.916 393.815,199.117 392.216,196.414 390.451,193.816 388.526,191.334 386.448,188.978 384.227,186.757 381.871,184.679 379.389,182.754 376.791,180.989 374.088,179.39 371.289,177.964 368.406,176.716 365.451,175.652 362.434,174.776 359.369,174.091 356.267,173.599 353.14,173.304 350,173.205 346.86,173.304 343.733,173.599 340.631,174.091 337.566,174.776 334.549,175.652 331.594,176.716 328.711,177.964 325.912,179.39 323.209,180.989 320.611,182.754 318.129,184.679 315.773,186.757 313.552,188.978 311.474,191.334 309.549,193.816 307.784,196.414 306.185,199.117 304.759,201.916 303.511,204.799 302.447,207.754 301.571,210.771 300.886,213.836 300.394,216.938 300.099,220.066 300,223.205 300.099,226.345 300.394,229.472 300.886,232.574 301.571,235.64 302.447,238.656 303.511,241.611 304.759,244.494 306.185,247.293 307.784,249.996 309.549,252.594 311.474,255.076 313.552,257.432 315.773,259.654 318.129,261.731 320.611,263.656 323.209,265.421 325.912,267.02 328.711,268.446 331.594,269.694 334.549,270.758 337.566,271.634 340.631,272.319 343.733,272.811 346.86,273.106 350,273.205 353.14,273.106 356.267,272.811 359.369,272.319 362.434,271.634 365.451,270.758 368.406,269.694 371.289,268.446 374.088,267.02 376.791,265.421 379.389,263.656 381.871,261.731 384.227,259.654 386.448,257.432 388.526,255.076 390.451,252.594 392.216,249.996 393.815,247.293 395.241,244.494 396.489,241.611 397.553,238.656 398.429,235.64 399.114,232.574 399.606,229.472 399.901,226.345" transform="rotate(0 0 0)" fill="green" stroke="black" stroke-width="0.5" />
<polygon points="500,223.205 499.901,220.066 499.606,216.938 499.114,213.836 498.429,210.771 497.553,207.754 496.489,204.799 495.241,201.916 493.815,199.117 492.216,196.414 490.451,193.816 488.526,191.334 486.448,188.978 484.227,186.757 481.871,184.679 479.389,182.754 476.791,180.989 474.088,179.39 471.289,177.964 468.406,176.716 465.451,175.652 462.434,174.776 459.369,174.091 456.267,173.599 453.14,173.304 450,173.205 446.86,173.304 443.733,173.599 440.631,174.091 437.566,174.776 434.549,175.652 431.594,176.716 428.711,177.964 425.912,179.39 423.209,180.989 420.611,182.754 418.129,184.679 415.773,186.757 413.552,188.978 411.474,191.334 409.549,193.816 407.784,196.414 406.185,199.117 404.759,201.916 403.511,204.799 402.447,207.754 401.571,210.771 400.886,213.836 400.394,216.938 400.099,220.066 400,223.205 400.099,226.345 400.394,229.472 400.886,232.574 401.571,235.64 402.447,238.656 403.511,241.611 404.759,244.494 406.185,247.293 407.784,249.996 409.549,252.594 411.474,255.076 413.552,257.432 415.773,259.654 418.129,261.731 420.611,263.656 423.209,265.421 425.912,267.02 428.711,268.446 431.594,269.694 434.549,270.758 437.566,271.634 440.631,272.319 443.733,272.811 446.86,273.106 450,273.205 453.14,273.106 456.267,272.811 459.369,272.319 462.434,271.634 465.451,270.758 468.406,269.694 471.289,268.446 474.088,267.02 476.791,265.421 479.389,263.656 481.871,261.731 484.227,259.654 486.448,257.432 488.526,255.076 490.451,252.594 492.216,249.996 493.815,247.293 495.241,244.494 496.489,241.611 497.553,238.656 498.429,235.64 499.114,232.574 499.606,229.472 499.901,226.345" transform="rotate(0 0 0)" fill="green" stroke="black" stroke-width="0.5" />
<polygon points="150,309.808 149.901,306.668 149.606,303.541 149.114,300.439 148.429,297.373 147.553,294.357 146.489,291.401 145.241,288.519 143.815,285.72 142.216,283.016 140.451,280.418 138.526,277.936 136.448,275.58 134.227,273.359 131.871,271.282 129.389,269.357 126.791,267.591 124.088,265.992 121.289,264.566 118.406,263.319 115.451,262.255 112.434,261.378 109.369,260.693 106.267,260.202 103.14,259.906 100,259.808 96.8605,259.906 93.7333,260.202 90.6309,260.693 87.5655,261.378 84.5492,262.255 81.5938,263.319 78.711,264.566 75.9123,265.992 73.2087,267.591 70.6107,269.357 68.1288,271.282 65.7726,273.359 63.5516,275.58 61.4743,277.936 59.5492,280.418 57.7836,283.016 56.1847,285.72 54.7586,288.519 53.5112,291.401 52.4472,294.357 51.5708,297.373 50.8856,300.439 50.3943,303.541 50.0987,306.668 50,309.808 50.0987,312.947 50.3943,316.074 50.8856,319.177 51.5708,322.242 52.4472,325.258 53.5112,328.214 54.7586,331.097 56.1847,333.895 57.7836,336.599 59.5492,339.197 61.4743,341.679 63.5516,344.035 65.7726,346.256 68.1288,348.333 70.6107,350.258 73.2087,352.024 75.9123,353.623 78.711,355.049 81.5938,356.296 84.5492,357.36 87.5655,358.237 90.6309,358.922 93.7333,359.413 96.8605,359.709 100,359.808 103.14,359.709 106.267,359.413 109.369,358.922 112.434,358.237 115.451,357.36 118.406,356.296 121.289,355.049 124.088,353.623 126.791,352.024 129.389,350.258 131.871,348.333 134.227,346.256 136.448,344.035 138.526,341.679 140.451,339.197 142.216,336.599 143.815,333.895 145.241,331.097 146.489,328.214 147.553,325.258 148.429,322.242 149.114,319.177 149.606,316.074 149.901,312.947" transform="rotate(0 0 0)" fill="green" stroke="black" stroke-width="0.5" />
<polygon points="250,309.808 249.901,306.668 249.606,303.541 249.114,300.439 248.429,297.373 247.553,294.357 246.489,291.401 245.241,288.519 243.815,285.72 242.216,283.016 240.451,280.418 238.526,277.936 236.448,275.58 234.227,273.359 231.871,271.282 229.389,269.357 226.791,267.591 224.088,265.992 221.289,264.566 218.406,263.319 215.451,262.255 212.434,261.378 209.369,260.693 206.267,260.202 203.14,259.906 200,259.808 196.86,259.906 193.733,260.202 190.631,260.693 187.566,261.378 184.549,262.255 181.594,263.319 178.711,264.566 175.912,265.992 173.209,267.591 170.611,269.357 168.129,271.282 165.773,273.359 163.552,275.58 161.474,277.936 159.549,280.418 157.784,283.016 156.185,285.72 154.759,288.519 153.511,291.401 152.447,294.357 151.571,297.373 150.886,300.439 150.394,303.541 150.099,306.668 150,309.808 150.099,312.947 150.394,316.074 150.886,319.177 151.571,322.242 152.447,325.258 153.511,328.214 154.759,331.097 156.185,333.895 157.784,336.599 159.549,339.197 161.474,341.679 163.552,344.035 165.773,346.256 168.129,348.333 170.611,350.258 173.209,352.024 175.912,353.623 178.711,355.049 181.594,356.296 184.549,357.36 187.566,358.237 190.631,358.922 193.733,359.413 196.86,359.709 200,359.808 203.14,359.709 206.267,359.413 209.369,358.922 212.434,358.237 215.451,357.36 218.406,356.296 221.289,355.049 224.088,353.623 226.791,352.024 229.389,350.258 231.871,348.333 234.227,346.256 236.448,344.035 238.526,341.679 240.451,339.197 242.216,336.599 243.815,333.895 245.241,331.097 246.489,328.214 247.553,325.258 248.429,322.242 249.114,319.177 249.606,316.074 249.901,312.947" transform="rotate(0 0 0)" fill="green" stroke="black" stroke-width="0.5" />
<polygon points="350,309.808 349.901,306.668 349.606,303.541 349.114,300.439 348.429,297.373 347.553,294.357 346.489,291.401 345.241,288.519 343.815,285.72 342.216,283.016 340.451,280.418 338.526,277.936 336.448,275.58 334.227,273.359 331.871,271.282 329.389,269.357 326.791,267.591 324.088,265.992 321.289,264.566 318.406,263.319 315.451,262.255 312.434,261.378 309.369,260.693 306.267,260.202 303.14,259.906 300,259.808 296.86,259.906 293.733,260.202 290.631,260.693 287.566,261.378 284.549,262.255 281.594,263.319 278.711,264.566 275.912,265.992 273.209,267.591 270.611,269.357 268.129,271.282 265.773,273.359 263.552,275.58 261.474,277.936 259.549,280.418 257.784,283.016 256.185,285.72 254.759,288.519 253.511,291.401 252.447,294.357 251.571,297.373 250.886,300.439 250.394,303.541 250.099,306.668 250,309.808 250.099,312.947 250.394,316.074 250.886,319.177 251.571,322.242 252.447,325.258 253.511,328.214 254.759,331.097 256.185,333.895 257.784,336.599 259.549,339.197 261.474,341.679 263.552,344.035 265.773,346.256 268.129,348.333 270.611,350.258 273.209,352.024 275.912,353.623 278.711,355.049 281.594,356.296 284.549,357.36 287.566,358.237 290.631,358.922 293.733,359.413 296.86,359.709 300,359.808 303.14,359.709 306.267,359.413 309.369,358.922 312.434,358.237 315.451,357.36 318.406,356.296 321.289,355.049 324.088,353.623 326.791,352.024 329.389,350.258 331.871,348.333 334.227,346.256 336.448,344.035 338.526,341.679 340.451,339.197 342.216,336.599 343.815,333.895 345.241,331.097 346.489,328.214 347.553,325.258 348.429,322.242 349.114,319.177 349.606,316.074 349.901,312.947" transform="rotate(0 0 0)" fill="green" stroke="black" stroke-width="0.5" />
<polygon points="450,309.808 449.901,306.668 449.606,303.541 449.114,300.439 448.429,297.373 447.553,294.357 446.489,291.401 445.241,288.519 443.815,285.72 442.216,283.016 440.451,280.418 438.526,277.936 436.448,275.58 434.227,273.359 431.871,271.282 429.389,269.357 426.791,267.591 424.088,265.992 421.289,264.566 418.406,263.319 415.451,262.255 412.434,261.378 409.369,260.693 406.267,260.202 403.14,259.906 400,259.808 396.86,259.906 393.733,260.202 390.631,260.693 387.566,261.378 384.549,262.255 381.594,263.319 378.711,264.566 375.912,265.992 373.209,267.591 370.611,269.357 368.129,271.282 365.773,273.359 363.552,275.58 361.474,277.936 359.549,280.418 357.784,283.016 356.185,285.72 354.759,288.519 353.511,291.401 352.447,294.357 351.571,297.373 350.886,300.439 350.394,303.541 350.099,306.668 350,309.808 350.099,312.947 350.394,316.074 350.886,319.177 351.571,322.242 352.447,325.258 353.511,328.214 354.759,331.097 356.185,333.895 357.784,336.599 359.549,339.197 361.474,341.679 363.552,344.035 365.773,346.256 368.129,348.333 370.611,350.258 373.209,352.024 375.912,353.623 378.711,355.049 381.594,356.296 384.549,357.36 387.566,358.237 390.631,358.922 393.733,359.413 396.86,359.709 400,359.808 403.14,359.709 406.267,359.413 409.369,358.922 412.434,358.237 415.451,357.36 418.406,356.296 421.289,355.049 424.088,353.623 426.791,352.024 429.389,350.258 431.871,348.333 434.227,346.256 436.448,344.035 438.526,341.679 440.451,339.197 442.216,336.599 443.815,333.895 445.241,331.097 446.489,328.214 447.553,325.258 448.429,322.242 449.114,319.177 449.606,316.074 449.901,312.947" transform="rotate(0 0 0)" fill="green" stroke="black" stroke-width="0.5" />
<polygon points="100,396.41 99.9013,393.271 99.6057,390.143 99.1144,387.041 98.4292,383.976 97.5528,380.959 96.4888,378.004 95.2414,375.121 93.8153,372.322 92.2164,369.619 90.4508,367.021 88.5257,364.539 86.4484,362.183 84.2274,359.962 81.8712,357.884 79.3893,355.959 76.7913,354.194 74.0877,352.595 71.289,351.169 68.4062,349.921 65.4508,348.857 62.4345,347.981 59.3691,347.296 56.2667,346.804 53.1395,346.509 50,346.41 46.8605,346.509 43.7333,346.804 40.6309,347.296 37.5655,347.981 34.5492,348.857 31.5938,349.921 28.711,351.169 25.9123,352.595 23.2087,354.194 20.6107,355.959 18.1288,357.884 15.7726,359.962 13.5516,362.183 11.4743,364.539 9.54915,367.021 7.7836,369.619 6.18467,372.322 4.75865,375.121 3.51118,378.004 2.44717,380.959 1.57084,383.976 0.885637,387.041 0.394265,390.143 0.0986636,393.271 0,396.41 0.0986636,399.55 0.394265,402.677 0.885637,405.779 1.57084,408.845 2.44717,411.861 3.51118,414.816 4.75865,417.699 6.18467,420.498 7.7836,423.202 9.54915,425.799 11.4743,428.281 13.5516,430.638 15.7726,432.859 18.1288,434.936 20.6107,436.861 23.2087,438.627 25.9123,440.225 28.711,441.652 31.5938,442.899 34.5492,443.963 37.5655,444.839 40.6309,445.525 43.7333,446.016 46.8605,446.311 50,446.41 53.1395,446.311 56.2667,446.016 59.3691,445.525 62.4345,444.839 65.4508,443.963 68.4062,442.899 71.289,441.652 74.0877,440.225 76.7913,438.627 79.3893,436.861 81.8712,434.936 84.2274,432.859 86.4484,430.638 88.5257,428.281 90.4508,425.799 92.2164,423.202 93.8153,420.498 95.2414,417.699 96.4888,414.816 97.5528,411.861 98.4292,408.845 99.1144,405.779 99.6057,402.677 99.9013,399.55" transform="rotate(0 0 0)" fill="green" stroke="black" stroke-width="0.5" />
<polygon points="200,396.41 199.901,393.271 199.606,390.143 199.114,387.041 198.429,383.976 197.553,380.959 196.489,378.004 195.241,375.121 193.815,372.322 192.216,369.619 190.451,367.021 188.526,364.539 186.448,362.183 184.227,359.962 181.871,357.884 179.389,355.959 176.791,354.194 174.088,352.595 171.289,351.169 168.406,349.921 165.451,348.857 162.434,347.981 159.369,347.296 156.267,346.804 153.14,346.509 150,346.41 146.86,346.509 143.733,346.804 140.631,347.296 137.566,347.981 134.549,348.857 131.594,349.921 128.711,351.169 125.912,352.595 123.209,354.194 120.611,355.959 118.129,357.884 115.773,359.962 113.552,362.183 111.474,364.539 109.549,367.021 107.784,369.619 106.185,372.322 104.759,375.121 103.511,378.004 102.447,380.959 101.571,383.976 100.886,387.041 100.394,390.143 100.099,393.271 100,396.41 100.099,399.55 100.394,402.677 100.886,405.779 101.571,408.845 102.447,411.861 103.511,414.816 104.759,417.699 106.185,420.498 107.784,423.202 109.549,425.799 111.474,428.281 113.552,430.638 115.773,432.859 118.129,434.936 120.611,436.861 123.209,438.627 125.912,440.225 128.711,441.652 131.594,442.899 134.549,443.963 137.566,444.839 140.631,445.525 143.733,446.016 146.86,446.311 150,446.41 153.14,446.311 156.267,446.016 159.369,445.525 162.434,444.839 165.451,443.963 168.406,442.899 171.289,441.652 174.088,440.225 176.791,438.627 179.389,436.861 181.871,434.936 184.227,432.859 186.448,430.638 188.526,428.281 190.451,425.799 192.216,423.202 193.815,420.498 195.241,417.699 196.489,414.816 197.553,411.861 198.429,408.845 199.114,405.779 199.606,402.677 199.901,399.55" transform="rotate(0 0 0)" fill="green" stroke="black" stroke-width="0.5" />
<polygon points="300,396.41 299.901,393.271 299.606,390.143 299.114,387.041 298.429,383.976 297.553,380.959 296.489,378.004 295.241,375.121 293.815,372.322 292.216,369.619 290.451,367.021 288.526,364.539 286.448,362.183 284.227,359.962 281.871,357.884 279.389,355.959 276.791,354.194 274.088,352.595 271.289,351.169 268.406,349.921 265.451,348.857 262.434,347.981 259.369,347.296 256.267,346.804 253.14,346.509 250,346.41 246.86,346.509 243.733,346.804 240.631,347.296 237.566,347.981 234.549,348.857 231.594,349.921 228.711,351.169 225.912,352.595 223.209,354.194 220.611,355.959 218.129,357.884 215.773,359.962 213.552,362.183 211.474,364.539 209.549,367.021 207.784,369.619 206.185,372.322 204.759,375.121 203.511,378.004 202.447,380.959 201.571,383.976 200.886,387.041 200.394,390.143 200.099,393.271 200,396.41 200.099,399.55 200.394,402.677 200.886,405.779 201.571,408.845 202.447,411.861 203.511,414.816 204.759,417.699 206.185,420.498 207.784,423.202 209.549,425.799 211.474,428.281 213.552,430.638 215.773,432.859 218.129,434.936 220.611,436.861 223.209,438.627 225.912,440.225 228.711,441.652 231.594,442.899 234.549,443.963 237.566,444.839 240.631,445.525 243.733,446.016 246.86,446.311 250,446.41 253.14,446.311 256.267,446.016 259.369,445.525 262.434,444.839 265.451,443.963 268.406,442.899 271.289,441.652 274.088,440.225 276.791,438.627 279.389,436.861 281.871,434.936 284.227,432.859 286.448,430.638 288.526,428.281 290.451,425.799 292.216,423.202 293.815,420.498 295.241,417.699 296.489,414.816 297.553,411.861 298.429,408.845 299.114,405.779 299.606,402.677 299.901,399.55" transform="rotate(0 0 0)" fill="green" stroke="black" stroke-width="0.5" />
<polygon points="400,396.41 399.901,393.271 399.606,390.143 399.114,387.041 398.429,383.976 397.553,380.959 396.489,378.004 395.241,375.121 393.815,372.322 392.216,369.619 390.451,367.021 388.526,364.539 386.448,362.183 384.227,359.962 381.871,357.884 379.389,355.959 376.791,354.194 374.088,352.595 371.289,351.169 368.406,349.921 365.451,348.857 362.434,347.981 359.369,347.296 356.267,346.804 353.14,346.509 350,346.41 346.86,346.509 343.733,346.804 340.631,347.296 337.566,347.981 334.549,348.857 331.594,349.921 328.711,351.169 325.912,352.595 323.209,354.194 320.611,355.959 318.129,357.884 315.773,359.962 313.552,362.183 311.474,364.539 309.549,367.021 307.784,369.619 306.185,372.322 304.759,375.121 303.511,378.004 302.447,380.959 301.571,383.976 300.886,387.041 300.394,390.143 300.099,393.271 300,396.41 300.099,399.55 300.394,402.677 300.886,405.779 301.571,408.845 302.447,411.861 303.511,414.816 304.759,417.699 306.185,420.498 307.784,423.202 309.549,425.799 311.474,428.281 313.552,430.638 315.773,432.859 318.129,434.936 320.611,436.861 323.209,438.627 325.912,440.225 328.711,441.652 331.594,442.899 334.549,443.963 337.566,444.839 340.631,445.525 343.733,446.016 346.86,446.311 350,446.41 353.14,446.311 356.267,446.016 359.369,445.525 362.434,444.839 365.451,443.963 368.406,442.899 371.289,441.652 374.088,440.225 376.791,438.627 379.389,436.861 381.871,434.936 384.227,432.859 386.448,430.638 388.526,428.281 390.451,425.799 392.216,423.202 393.815,420.498 395.241,417.699 396.489,414.816 397.553,411.861 398.429,408.845 399.114,405.779 399.606,402.677 399.901,399.55" transform="rotate(0 0 0)" fill="green" stroke="black" stroke-width="0.5" />
<polygon points="500,396.41 499.901,393.271 499.606,390.143 499.114,387.041 498.429,383.976 497.553,380.959 496.489,378.004 495.241,375.121 493.815,372.322 492.216,369.619 490.451,367.021 488.526,364.539 486.448,362.183 484.227,359.962 481.871,357.884 479.389,355.959 476.791,354.194 474.088,352.595 471.289,351.169 468.406,349.921 465.451,348.857 462.434,347.981 459.369,347.296 456.267,346.804 453.14,346.509 450,346.41 446.86,346.509 443.733,346.804 440.631,347.296 437.566,347.981 434.549,348.857 431.594,349.921 428.711,351.169 425.912,352.595 423.209,354.194 420.611,355.959 418.129,357.884 415.773,359.962 413.552,362.183 411.474,364.539 409.549,367.021 407.784,369.619 406.185,372.322 404.759,375.121 403.511,378.004 402.447,380.959 401.571,383.976 400.886,387.041 400.394,390.143 400.099,393.271 400,396.41 400.099,399.55 400.394,402.677 400.886,405.779 401.571,408.845 402.447,411.861 403.511,414.816 404.759,417.699 406.185,420.498 407.784,423.202 409.549,425.799 411.474,428.281 413.552,430.638 415.773,432.859 418.129,434.936 420.611,436.861 423.209,438.627 425.912,440.225 428.711,441.652 431.594,442.899 434.549,443.963 437.566,444.839 440.631,445.525 443.733,446.016 446.86,446.311 450,446.41 453.14,446.311 456.267,446.016 459.369,445.525 462.434,444.839 465.451,443.963 468.406,442.899 471.289,441.652 474.088,440.225 476.791,438.627 479.389,436.861 481.871,434.936 484.227,432.859 486.448,430.638 488.526,428.281 490.451,425.799 492.216,423.202 493.815,420.498 495.241,417.699 496.489,414.816 497.553,411.861 498.429,408.845 499.114,405.779 499.606,402.677 499.901,399.55" transform="rotate(0 0 0)" fill="green" stroke="black" stroke-width="0.5" />
<polygon points="150,483.013 149.901,479.873 149.606,476.746 149.114,473.644 148.429,470.578 147.553,467.562 146.489,464.606 145.241,461.724 143.815,458.925 142.216,456.221 140.451,453.623 138.526,451.142 136.448,448.785 134.227,446.564 131.871,444.487 129.389,442.562 126.791,440.796 124.088,439.197 121.289,437.771 118.406,436.524 115.451,435.46 112.434,434.584 109.369,433.898 106.267,433.407 103.14,433.111 100,433.013 96.8605,433.111 93.7333,433.407 90.6309,433.898 87.5655,434.584 84.5492,435.46 81.5938,436.524 78.711,437.771 75.9123,439.197 73.2087,440.796 70.6107,442.562 68.1288,444.487 65.7726,446.564 63.5516,448.785 61.4743,451.142 59.5492,453.623 57.7836,456.221 56.1847,458.925 54.7586,461.724 53.5112,464.606 52.4472,467.562 51.5708,470.578 50.8856,473.644 50.3943,476.746 50.0987,479.873 50,483.013 50.0987,486.152 50.3943,489.279 50.8856,492.382 51.5708,495.447 52.4472,498.464 53.5112,501.419 54.7586,504.302 56.1847,507.1 57.7836,509.804 59.5492,512.402 61.4743,514.884 63.5516,517.24 65.7726,519.461 68.1288,521.538 70.6107,523.464 73.2087,525.229 75.9123,526.828 78.711,528.254 81.5938,529.502 84.5492,530.566 87.5655,531.442 90.6309,532.127 93.7333,532.618 96.8605,532.914 100,533.013 103.14,532.914 106.267,532.618 109.369,532.127 112.434,531.442 115.451,530.566 118.406,529.502 121.289,528.254 124.088,526.828 126.791,525.229 129.389,523.464 131.871,521.538 134.227,519.461 136.448,517.24 138.526,514.884 140.451,512.402 142.216,509.804 143.815,507.1 145.241,504.302 146.489,501.419 147.553,498.464 148.429,495.447 149.114,492.382 149.606,489.279 149.901,486.152" transform="rotate(0 0 0)" fill="green" stroke="black" stroke-width="0.5" />
<polygon points="250,483.013 249.901,479.873 249.606,476.746 249.114,473.644 248.429,470.578 247.553,467.562 246.489,464.606 245.241,461.724 243.815,458.925 242.216,456.221 240.451,453.623 238.526,451.142 236.448,448.785 234.227,446.564 231.871,444.487 229.389,442.562 226.791,440.796 224.088,439.197 221.289,437.771 218.406,436.524 215.451,435.46 212.434,434.584 209.369,433.898 206.267,433.407 203.14,433.111 200,433.013 196.86,433.111 193.733,433.407 190.631,433.898 187.566,434.584 184.549,435.46 181.594,436.524 178.711,437.771 175.912,439.197 173.209,440.796 170.611,442.562 168.129,444.487 165.773,446.564 163.552,448.785 161.474,451.142 159.549,453.623 157.784,456.221 156.185,458.925 154.759,461.724 153.511,464.606 152.447,467.562 151.571,470.578 150.886,473.644 150.394,476.746 150.099,479.873 150,483.013 150.099,486.152 150.394,489.279 150.886,492.382 151.571,495.447 152.447,498.464 153.511,501.419 154.759,504.302 156.185,507.1 157.784,509.804 159.549,512.402 161.474,514.884 163.552,517.24 165.773,519.461 168.129,521.538 170.611,523.464 173.209,525.229 175.912,526.828 178.711,528.254 181.594,529.502 184.549,530.566 187.566,531.442 190.631,532.127 193.733,532.618 196.86,532.914 200,533.013 203.14,532.914 206.267,532.618 209.369,532.127 212.434,531.442 215.451,530.566 218.406,529.502 221.289,528.254 224.088,526.828 226.791,525.229 229.389,523.464 231.871,521.538 234.227,519.461 236.448,517.24 238.526,514.884 240.451,512.402 242.216,509.804 243.815,507.1 245.241,504.302 246.489,501.419 247.553,498.464 248.429,495.447 249.114,492.382 249.606,489.279 249.901,486.152" transform="rotate(0 0 0)" fill="green" stroke="black" stroke-width="0.5" />
<polygon points="350,483.013 349.901,479.873 349.606,476.746 349.114,473.644 348.429,470.578 347.553,467.562 346.489,464.606 345.241,461.724 343.815,458.925 342.216,456.221 340.451,453.623 338.526,451.142 336.448,448.785 334.227,446.564 331.871,444.487 329.389,442.562 326.791,440.796 324.088,439.197 321.289,437.771 318.406,436.524 315.451,435.46 312.434,434.584 309.369,433.898 306.267,433.407 303.14,433.111 300,433.013 296.86,433.111 293.733,433.407 290.631,433.898 287.566,434.584 284.549,435.46 281.594,436.524 278.711,437.771 275.912,439.197 273.209,440.796 270.611,442.562 268.129,444.487 265.773,446.564 263.552,448.785 261.474,451.142 259.549,453.623 257.784,456.221 256.185,458.925 254.759,461.724 253.511,464.606 252.447,467.562 251.571,470.578 250.886,473.644 250.394,476.746 250.099,479.873 250,483.013 250.099,486.152 250.394,489.279 250.886,492.382 251.571,495.447 252.447,498.464 253.511,501.419 254.759,504.302 256.185,507.1 257.784,509.804 259.549,512.402 261.474,514.884 263.552,517.24 265.773,519.461 268.129,521.538 270.611,523.464 273.209,525.229 275.912,526.828 278.711,528.254 281.594,529.502 284.549,530.566 287.566,531.442 290.631,532.127 293.733,532.618 296.86,532.914 300,533.013 303.14,532.914 306.267,532.618 309.369,532.127 312.434,531.442 315.451,530.566 318.406,529.502 321.289,528.254 324.088,526.828 326.791,525.229 329.389,523.464 331.871,521.538 334.227,519.461 336.448,517.24 338.526,514.884 340.451,512.402 342.216,509.804 343.815,507.1 345.241,504.302 346.489,501.419 347.553,498.464 348.429,495.447 349.114,492.382 349.606,489.279 349.901,486.152" transform="rotate(0 0 0)" fill="green" stroke="black" stroke-width="0.5" />
<polygon points="450,483.013 449.901,479.873 449.606,476.746 449.114,473.644 448.429,470.578 447.553,467.562 446.489,464.606 445.241,461.724 443.815,458.925 442.216,456.221 440.451,453.623 438.526,451.142 436.448,448.785 434.227,446.564 431.871,444.487 429.389,442.562 426.791,440.796 424.088,439.197 421.289,437.771 418.406,436.524 415.451,435.46 412.434,434.584 409.369,433.898 406.267,433.407 403.14,433.111 400,433.013 396.86,433.111 393.733,433.407 390.631,433.898 387.566,434.584 384.549,435.46 381.594,436.524 378.711,437.771 375.912,439.197 373.209,440.796 370.611,442.562 368.129,444.487 365.773,446.564 363.552,448.785 361.474,451.142 359.549,453.623 357.784,456.221 356.185,458.925 354.759,461.724 353.511,464.606 352.447,467.562 351.571,470.578 350.886,473.644 350.394,476.746 350.099,479.873 350,483.013 350.099,486.152 350.394,489.279 350.886,492.382 351.571,495.447 352.447,498.464 353.511,501.419 354.759,504.302 356.185,507.1 357.784,509.804 359.549,512.402 361.474,514.884 363.552,517.24 365.773,519.461 368.129,521.538 370.611,523.464 373.209,525.229 375.912,526.828 378.711,528.254 381.594,529.502 384.549,530.566 387.566,531.442 390.631,532.127 393.733,532.618 396.86,532.914 400,533.013 403.14,532.914 406.267,532.618 409.369,532.127 412.434,531.442 415.451,530.566 418.406,529.502 421.289,528.254 424.088,526.828 426.791,525.229 429.389,523.464 431.871,521.538 434.227,519.461 436.448,517.24 438.526,514.884 440.451,512.402 442.216,509.804 443.815,507.1 445.241,504.302 446.489,501.419 447.553,498.464 448.429,495.447 449.114,492.382 449.606,489.279 449.901,486.152" transform="rotate(0 0 0)" fill="green" stroke="black" stroke-width="0.5" />
<polygon points="100,569.615 99.9013,566.476 99.6057,563.349 99.1144,560.246 98.4292,557.181 97.5528,554.164 96.4888,551.209 95.2414,548.326 93.8153,545.528 92.2164,542.824 90.4508,540.226 88.5257,537.744 86.4484,535.388 84.2274,533.167 81.8712,531.09 79.3893,529.164 76.7913,527.399 74.0877,525.8 71.289,524.374 68.4062,523.126 65.4508,522.062 62.4345,521.186 59.3691,520.501 56.2667,520.01 53.1395,519.714 50,519.615 46.8605,519.714 43.7333,520.01 40.6309,520.501 37.5655,521.186 34.5492,522.062 31.5938,523.126 28.711,524.374 25.9123,525.8 23.2087,527.399 20.6107,529.164 18.1288,531.09 15.7726,533.167 13.5516,535.388 11.4743,537.744 9.54915,540.226 7.7836,542.824 6.18467,545.528 4.75865,548.326 3.51118,551.209 2.44717,554.164 1.57084,557.181 0.885637,560.246 0.394265,563.349 0.0986636,566.476 0,569.615 0.0986636,572.755 0.394265,575.882 0.885637,578.984 1.57084,582.05 2.44717,585.066 3.51118,588.021 4.75865,590.904 6.18467,593.703 7.7836,596.407 9.54915,599.005 11.4743,601.486 13.5516,603.843 15.7726,606.064 18.1288,608.141 20.6107,610.066 23.2087,611.832 25.9123,613.431 28.711,614.857 31.5938,616.104 34.5492,617.168 37.5655,618.044 40.6309,618.73 43.7333,619.221 46.8605,619.517 50,619.615 53.1395,619.517 56.2667,619.221 59.3691,618.73 62.4345,618.044 65.4508,617.168 68.4062,616.104 71.289,614.857 74.0877,613.431 76.7913,611.832 79.3893,610.066 81.8712,608.141 84.2274,606.064 86.4484,603.843 88.5257,601.486 90.4508,599.005 92.2164,596.407 93.8153,593.703 95.2414,590.904 96.4888,588.021 97.5528,585.066 98.4292,582.05 99.1144,578.984 99.6057,575.882 99.9013,572.755" transform="rotate(0 0 0)" fill="green" stroke="black" stroke-width="0.5" />
<polygon points="200,569.615 199.901,566.476 199.606,563.349 199.114,560.246 198.429,557.181 197.553,554.164 196.489,551.209 195.241,548.326 193.815,545.528 192.216,542.824 190.451,540.226 188.526,537.744 186.448,535.388 184.227,533.167 181.871,531.09 179.389,529.164 176.791,527.399 174.088,525.8 171.289,524.374 168.406,523.126 165.451,522.062 162.434,521.186 159.369,520.501 156.267,520.01 153.14,519.714 150,519.615 146.86,519.714 143.733,520.01 140.631,520.501 137.566,521.186 134.549,522.062 131.594,523.126 128.711,524.374 125.912,525.8 123.209,527.399 120.611,529.164 118.129,531.09 115.773,533.167 113.552,535.388 111.474,537.744 109.549,540.226 107.784,542.824 106.185,545.528 104.759,548.326 103.511,551.209 102.447,554.164 101.571,557.181 100.886,560.246 100.394,563.349 100.099,566.476 100,569.615 100.099,572.755 100.394,575.882 100.886,578.984 101.571,582.05 102.447,585.066 103.511,588.021 104.759,590.904 106.185,593.703 107.784,596.407 109.549,599.005 111.474,601.486 113.552,603.843 115.773,606.064 118.129,608.141 120.611,610.066 123.209,611.832 125.912,613.431 128.711,614.857 131.594,616.104 134.549,617.168 137.566,618.044 140.631,618.73 143.733,619.221 146.86,619.517 150,619.615 153.14,619.517 156.267,619.221 159.369,618.73 162.434,618.044 165.451,617.168 168.406,616.104 171.289,614.857 174.088,613.431 176.791,611.832 179.389,610.066 181.871,608.141 184.227,606.064 186.448,603.843 188.526,601.486 190.451,599.005 192.216,596.407 193.815,593.703 195.241,590.904 196.489,588.021 197.553,585.066 198.429,582.05 199.114,578.984 199.606,575.882 199.901,572.755" transform="rotate(0 0 0)" fill="green" stroke="black" stroke-width="0.5" />
<polygon points="300,569.615 299.901,566.476 299.606,563.349 299.114,560.246 298.429,557.181 297.553,554.164 296.489,551.209 295.241,548.326 293.815,545.528 292.216,542.824 290.451,540.226 288.526,537.744 286.448,535.388 284.227,533.167 281.871,531.09 279.389,529.164 276.791,527.399 274.088,525.8 271.289,524.374 268.406,523.126 265.451,522.062 262.434,521.186 259.369,520.501 256.267,520.01 253.14,519.714 250,519.615 246.86,519.714 243.733,520.01 240.631,520.501 237.566,521.186 234.549,522.062 231.594,523.126 228.711,524.374 225.912,525.8 223.209,527.399 220.611,529.164 218.129,531.09 215.773,533.167 213.552,535.388 211.474,537.744 209.549,540.226 207.784,542.824 206.185,545.528 204.759,548.326 203.511,551.209 202.447,554.164 201.571,557.181 200.886,560.246 200.394,563.349 200.099,566.476 200,569.615 200.099,572.755 200.394,575.882 200.886,578.984 201.571,582.05 202.447,585.066 203.511,588.021 204.759,590.904 206.185,593.703 207.784,596.407 209.549,599.005 211.474,601.486 213.552,603.843 215.773,606.064 218.129,608.141 220.611,610.066 223.209,611.832 225.912,613.431 228.711,614.857 231.594,616.104 234.549,617.168 237.566,618.044 240.631,618.73 243.733,619.221 246.86,619.517 250,619.615 253.14,619.517 256.267,619.221 259.369,618.73 262.434,618.044 265.451,617.168 268.406,616.104 271.289,614.857 274.088,613.431 276.791,611.832 279.389,610.066 281.871,608.141 284.227,606.064 286.448,603.843 288.526,601.486 290.451,599.005 292.216,596.407 293.815,593.703 295.241,590.904 296.489,588.021 297.553,585.066 298.429,582.05 299.114,578.984 299.606,575.882 299.901,572.755" transform="rotate(0 0 0)" fill="green" stroke="black" stroke-width="0.5" />
<polygon points="400,569.615 399.901,566.476 399.606,563.349 399.114,560.246 398.429,557.181 397.553,554.164 396.489,551.209 395.241,548.326 393.815,545.528 392.216,542.824 390.451,540.226 388.526,537.744 386.448,535.388 384.227,533.167 381.871,531.09 379.389,529.164 376.791,527.399 374.088,525.8 371.289,524.374 368.406,523.126 365.451,522.062 362.434,521.186 359.369,520.501 356.267,520.01 353.14,519.714 350,519.615 346.86,519.714 343.733,520.01 340.631,520.501 337.566,521.186 334.549,522.062 331.594,523.126 328.711,524.374 325.912,525.8 323.209,527.399 320.611,529.164 318.129,531.09 315.773,533.167 313.552,535.388 311.474,537.744 309.549,540.226 307.784,542.824 306.185,545.528 304.759,548.326 303.511,551.209 302.447,554.164 301.571,557.181 300.886,560.246 300.394,563.349 300.099,566.476 300,569.615 300.099,572.755 300.394,575.882 300.886,578.984 301.571,582.05 302.447,585.066 303.511,588.021 304.759,590.904 306.185,593.703 307.784,596.407 309.549,599.005 311.474,601.486 313.552,603.843 315.773,606.064 318.129,608.141 320.611,610.066 323.209,611.832 325.912,613.431 328.711,614.857 331.594,616.104 334.549,617.168 337.566,618.044 340.631,618.73 343.733,619.221 346.86,619.517 350,619.615 353.14,619.517 356.267,619.221 359.369,618.73 362.434,618.044 365.451,617.168 368.406,616.104 371.289,614.857 374.088,613.431 376.791,611.832 379.389,610.066 381.871,608.141 384.227,606.064 386.448,603.843 388.526,601.486 390.451,599.005 392.216,596.407 393.815,593.703 395.241,590.904 396.489,588.021 397.553,585.066 398.429,582.05 399.114,578.984 399.606,575.882 399.901,572.755" transform="rotate(0 0 0)" fill="green" stroke="black" stroke-width="0.5" />
<polygon points="500,569.615 499.901,566.476 499.606,563.349 499.114,560.246 498.429,557.181 497.553,554.164 496.489,551.209 495.241,548.326 493.815,545.528 492.216,542.824 490.451,540.226 488.526,537.744 486.448,535.388 484.227,533.167 481.871,531.09 479.389,529.164 476.791,527.399 474.088,525.8 471.289,524.374 468.406,523.126 465.451,522.062 462.434,521.186 459.369,520.501 456.267,520.01 453.14,519.714 450,519.615 446.86,519.714 443.733,520.01 440.631,520.501 437.566,521.186 434.549,522.062 431.594,523.126 428.711,524.374 425.912,525.8 423.209,527.399 420.611,529.164 418.129,531.09 415.773,533.167 413.552,535.388 411.474,537.744 409.549,540.226 407.784,542.824 406.185,545.528 404.759,548.326 403.511,551.209 402.447,554.164 401.571,557.181 400.886,560.246 400.394,563.349 400.099,566.476 400,569.615 400.099,572.755 400.394,575.882 400.886,578.984 401.571,582.05 402.447,585.066 403.511,588.021 404.759,590.904 406.185,593.703 407.784,596.407 409.549,599.005 411.474,601.486 413.552,603.843 415.773,606.064 418.129,608.141 420.611,610.066 423.209,611.832 425.912,613.431 428.711,614.857 431.594,616.104 434.549,617.168 437.566,618.044 440.631,618.73 443.733,619.221 446.86,619.517 450,619.615 453.14,619.517 456.267,619.221 459.369,618.73 462.434,618.044 465.451,617.168 468.406,616.104 471.289,614.857 474.088,613.431 476.791,611.832 479.389,610.066 481.871,608.141 484.227,606.064 486.448,603.843 488.526,601.486 490.451,599.005 492.216,596.407 493.815,593.703 495.241,590.904 496.489,588.021 497.553,585.066 498.429,582.05 499.114,578.984 499.606,575.882 499.901,572.755" transform="rotate(0 0 0)" fill="green" stroke="black" stroke-width="0.5" />
<polygon points="150,656.218 149.901,653.078 149.606,649.951 149.114,646.849 148.429,643.783 147.553,640.767 146.489,637.812 145.241,634.929 143.815,632.13 142.216,629.426 140.451,626.829 138.526,624.347 136.448,621.99 134.227,619.769 131.871,617.692 129.389,615.767 126.791,614.001 124.088,612.402 121.289,610.976 118.406,609.729 115.451,608.665 112.434,607.789 109.369,607.103 106.267,606.612 103.14,606.316 100,606.218 96.8605,606.316 93.7333,606.612 90.6309,607.103 87.5655,607.789 84.5492,608.665 81.5938,609.729 78.711,610.976 75.9123,612.402 73.2087,614.001 70.6107,615.767 68.1288,617.692 65.7726,619.769 63.5516,621.99 61.4743,624.347 59.5492,626.829 57.7836,629.426 56.1847,632.13 54.7586,634.929 53.5112,637.812 52.4472,640.767 51.5708,643.783 50.8856,646.849 50.3943,649.951 50.0987,653.078 50,656.218 50.0987,659.357 50.3943,662.484 50.8856,665.587 51.5708,668.652 52.4472,671.669 53.5112,674.624 54.7586,677.507 56.1847,680.305 57.7836,683.009 59.5492,685.607 61.4743,688.089 63.5516,690.445 65.7726,692.666 68.1288,694.743 70.6107,696.669 73.2087,698.434 75.9123,700.033 78.711,701.459 81.5938,702.707 84.5492,703.771 87.5655,704.647 90.6309,705.332 93.7333,705.824 96.8605,706.119 100,706.218 103.14,706.119 106.267,705.824 109.369,705.332 112.434,704.647 115.451,703.771 118.406,702.707 121.289,701.459 124.088,700.033 126.791,698.434 129.389,696.669 131.871,694.743 134.227,692.666 136.448,690.445 138.526,688.089 140.451,685.607 142.216,683.009 143.815,680.305 145.241,677.507 146.489,674.624 147.553,671.669 148.429,668.652 149.114,665.587 149.606,662.484 149.901,659.357" transform="rotate(0 0 0)" fill="green" stroke="black" stroke-width="0.5" />
<polygon points="250,656.218 249.901,653.078 249.606,649.951 249.114,646.849 248.429,643.783 247.553,640.767 246.489,637.812 245.241,634.929 243.815,632.13 242.216,629.426 240.451,626.829 238.526,624.347 236.448,621.99 234.227,619.769 231.871,617.692 229.389,615.767 226.791,614.001 224.088,612.402 221.289,610.976 218.406,609.729 215.451,608.665 212.434,607.789 209.369,607.103 206.267,606.612 203.14,606.316 200,606.218 196.86,606.316 193.733,606.612 190.631,607.103 187.566,607.789 184.549,608.665 181.594,609.729 178.711,610.976 175.912,612.402 173.209,614.001 170.611,615.767 168.129,617.692 165.773,619.769 163.552,621.99 161.474,624.347 159.549,626.829 157.784,629.426 156.185,632.13 154.759,634.929 153.511,637.812 152.447,640.767 151.571,643.783 150.886,646.849 150.394,649.951 150.099,653.078 150,656.218 150.099,659.357 150.394,662.484 150.886,665.587 151.571,668.652 152.447,671.669 153.511,674.624 154.759,677.507 156.185,680.305 157.784,683.009 159.549,685.607 161.474,688.089 163.552,690.445 165.773,692.666 168.129,694.743 170.611,696.669 173.209,698.434 175.912,700.033 178.711,701.459 181.594,702.707 184.549,703.771 187.566,704.647 190.631,705.332 193.733,705.824 196.86,706.119 200,706.218 203.14,706.119 206.267,705.824 209.369,705.332 212.434,704.647 215.451,703.771 218.406,702.707 221.289,701.459 224.088,700.033 226.791,698.434 229.389,696.669 231.871,694.743 234.227,692.666 236.448,690.445 238.526,688.089 240.451,685.607 242.216,683.009 243.815,680.305 245.241,677.507 246.489,674.624 247.553,671.669 248.429,668.652 249.114,665.587 249.606,662.484 249.901,659.357" transform="rotate(0 0 0)" fill="green" stroke="black" stroke-width="0.5" />
<polygon points="350,656.218 349.901,653.078 349.606,649.951 349.114,646.849 348.429,643.783 347.553,640.767 346.489,637.812 345.241,634.929 343.815,632.13 342.216,629.426 340.451,626.829 338.526,624.347 336.448,621.99 334.227,619.769 331.871,617.692 329.389,615.767 326.791,614.001 324.088,612.402 321.289,610.976 318.406,609.729 315.451,608.665 312.434,607.789 309.369,607.103 306.267,606.612 303.14,606.316 300,606.218 296.86,606.316 293.733,606.612 290.631,607.103 287.566,607.789 284.549,608.665 281.594,609.729 278.711,610.976 275.912,612.402 273.209,614.001 270.611,615.767 268.129,617.692 265.773,619.769 263.552,621.99 261.474,624.347 259.549,626.829 257.784,629.426 256.185,632.13 254.759,634.929 253.511,637.812 252.447,640.767 251.571,643.783 250.886,646.849 250.394,649.951 250.099,653.078 250,656.218 250.099,659.357 250.394,662.484 250.886,665.587 251.571,668.652 252.447,671.669 253.511,674.624 254.759,677.507 256.185,680.305 257.784,683.009 259.549,685.607 261.474,688.089 263.552,690.445 265.773,692.666 268.129,694.743 270.611,696.669 273.209,698.434 275.912,700.033 278.711,701.459 281.594,702.707 284.549,703.771 287.566,704.647 290.631,705.332 293.733,705.824 296.86,706.119 300,706.218 303.14,706.119 306.267,705.824 309.369,705.332 312.434,704.647 315.451,703.771 318.406,702.707 321.289,701.459 324.088,700.033 326.791,698.434 329.389,696.669 331.871,694.743 334.227,692.666 336.448,690.445 338.526,688.089 340.451,685.607 342.216,683.009 343.815,680.305 345.241,677.507 346.489,674.624 347.553,671.669 348.429,668.652 349.114,665.587 349.606,662.484 349.901,659.357" transform="rotate(0 0 0)" fill="green" stroke="black" stroke-width="0.5" />
<polygon points="450,656.218 449.901,653.078 449.606,649.951 449.114,646.849 448.429,643.783 447.553,640.767 446.489,637.812 445.241,634.929 443.815,632.13 442.216,629.426 440.451,626.829 438.526,624.347 436.448,621.99 434.227,619.769 431.871,617.692 429.389,615.767 426.791,614.001 424.088,612.402 421.289,610.976 418.406,609.729 415.451,608.665 412.434,607.789 409.369,607.103 406.267,606.612 403.14,606.316 400,606.218 396.86,606.316 393.733,606.612 390.631,607.103 387.566,607.789 384.549,608.665 381.594,609.729 378.711,610.976 375.912,612.402 373.209,614.001 370.611,615.767 368.129,617.692 365.773,619.769 363.552,621.99 361.474,624.347 359.549,626.829 357.784,629.426 356.185,632.13 354.759,634.929 353.511,637.812 352.447,640.767 351.571,643.783 350.886,646.849 350.394,649.951 350.099,653.078 350,656.218 350.099,659.357 350.394,662.484 350.886,665.587 351.571,668.652 352.447,671.669 353.511,674.624 354.759,677.507 356.185,680.305 357.784,683.009 359.549,685.607 361.474,688.089 363.552,690.445 365.773,692.666 368.129,694.743 370.611,696.669 373.209,698.434 375.912,700.033 378.711,701.459 381.594,702.707 384.549,703.771 387.566,704.647 390.631,705.332 393.733,705.824 396.86,706.119 400,706.218 403.14,706.119 406.267,705.824 409.369,705.332 412.434,704.647 415.451,703.771 418.406,702.707 421.289,701.459 424.088,700.033 426.791,698.434 429.389,696.669 431.871,694.743 434.227,692.666 436.448,690.445 438.526,688.089 440.451,685.607 442.216,683.009 443.815,680.305 445.241,677.507 446.489,674.624 447.553,671.669 448.429,668.652 449.114,665.587 449.606,662.484 449.901,659.357" transform="rotate(0 0 0)" fill="green" stroke="black" stroke-width="0.5" />
</svg>
