<svg version="1.1" baseProfile="full" xmlns="http://www.w3.org/2000/svg">
<polygon points="1005,505 1004.01,473.605 1001.06,442.333 996.144,411.309 989.292,380.655 980.528,350.492 969.888,320.938 957.414,292.11 943.153,264.123 927.164,237.087 909.508,211.107 890.257,186.288 869.484,162.726 847.274,140.516 823.712,119.743 798.893,100.492 772.913,82.836 745.877,66.8467 717.89,52.5865 689.062,40.1118 659.508,29.4717 629.345,20.7084 598.691,13.8564 567.667,8.94265 536.395,5.98664 505,5 473.605,5.98664 442.333,8.94265 411.309,13.8564 380.655,20.7084 350.492,29.4717 320.938,40.1118 292.11,52.5865 264.123,66.8467 237.087,82.836 211.107,100.492 186.288,119.743 162.726,140.516 140.516,162.726 119.743,186.288 100.492,211.107 82.836,237.087 66.8467,264.123 52.5865,292.11 40.1118,320.938 29.4717,350.492 20.7084,380.655 13.8564,411.309 8.94265,442.333 5.98664,473.605 5,505 5.98664,536.395 8.94265,567.667 13.8564,598.691 20.7084,629.345 29.4717,659.508 40.1118,689.062 52.5865,717.89 66.8467,745.877 82.836,772.913 100.492,798.893 119.743,823.712 140.516,847.274 162.726,869.484 186.288,890.257 211.107,909.508 237.087,927.164 264.123,943.153 292.11,957.414 320.938,969.888 350.492,980.528 380.655,989.292 411.309,996.144 442.333,1001.06 473.605,1004.01 505,1005 536.395,1004.01 567.667,1001.06 598.691,996.144 629.345,989.292 659.508,980.528 689.062,969.888 717.89,957.414 745.877,943.153 772.913,927.164 798.893,909.508 823.712,890.257 847.274,869.484 869.484,847.274 890.257,823.712 909.508,798.893 927.164,772.913 943.153,745.877 957.414,717.89 969.888,689.062 980.528,659.508 989.292,629.345 996.144,598.691 1001.06,567.667 1004.01,536.395" transform="rotate(0 0 0)" fill="purple" stroke="black" stroke-width="0.5" />
<polygon points="151.447,151.447 151.447,171.447 211.447,171.447 211.447,151.447" transform="rotate(0 0 0)" fill="yellow" stroke="black" stroke-width="0.5" />
<polygon points="211.447,151.447 211.447,171.447 271.447,171.447 271.447,151.447" transform="rotate(0 0 0)" fill="yellow" stroke="black" stroke-width="0.5" />
<polygon points="271.447,151.447 271.447,171.447 331.447,171.447 331.447,151.447" transform="rotate(0 0 0)" fill="yellow" stroke="black" stroke-width="0.5" />
<polygon points="331.447,151.447 331.447,171.447 391.447,171.447 391.447,151.447" transform="rotate(0 0 0)" fill="yellow" stroke="black" stroke-width="0.5" />
<polygon points="391.447,151.447 391.447,171.447 451.447,171.447 451.447,151.447" transform="rotate(0 0 0)" fill="yellow" stroke="black" stroke-width="0.5" />
<polygon points="451.447,151.447 451.447,171.447 511.447,171.447 511.447,151.447" transform="rotate(0 0 0)" fill="yellow" stroke="black" stroke-width="0.5" />
<polygon points="511.447,151.447 511.447,171.447 571.447,171.447 571.447,151.447" transform="rotate(0 0 0)" fill="yellow" stroke="black" stroke-width="0.5" />
<polygon points="571.447,151.447 571.447,171.447 631.447,171.447 631.447,151.447" transform="rotate(0 0 0)" fill="yellow" stroke="black" stroke-width="0.5" />
<polygon points="631.447,151.447 631.447,171.447 691.447,171.447 691.447,151.447" transform="rotate(0 0 0)" fill="yellow" stroke="black" stroke-width="0.5" />
<polygon points="691.447,151.447 691.447,171.447 751.447,171.447 751.447,151.447" transform="rotate(0 0 0)" fill="yellow" stroke="black" stroke-width="0.5" />
<polygon points="751.447,151.447 751.447,171.447 811.447,171.447 811.447,151.447" transform="rotate(0 0 0)" fill="yellow" stroke="black" stroke-width="0.5" />
<polygon points="151.447,171.447 151.447,191.447 211.447,191.447 211.447,171.447" transform="rotate(0 0 0)" fill="yellow" stroke="black" stroke-width="0.5" />
<polygon points="211.447,171.447 211.447,191.447 271.447,191.447 271.447,171.447" transform="rotate(0 0 0)" fill="yellow" stroke="black" stroke-width="0.5" />
<polygon points="271.447,171.447 271.447,191.447 331.447,191.447 331.447,171.447" transform="rotate(0 0 0)" fill="yellow" stroke="black" stroke-width="0.5" />
<polygon points="331.447,171.447 331.447,191.447 391.447,191.447 391.447,171.447" transform="rotate(0 0 0)" fill="yellow" stroke="black" stroke-width="0.5" />
<polygon points="391.447,171.447 391.447,191.447 451.447,191.447 451.447,171.447" transform="rotate(0 0 0)" fill="yellow" stroke="black" stroke-width="0.5" />
<polygon points="451.447,171.447 451.447,191.447 511.447,191.447 511.447,171.447" transform="rotate(0 0 0)" fill="yellow" stroke="black" stroke-width="0.5" />
<polygon points="511.447,171.447 511.447,191.447 571.447,191.447 571.447,171.447" transform="rotate(0 0 0)" fill="yellow" stroke="black" stroke-width="0.5" />
<polygon points="571.447,171.447 571.447,191.447 631.447,191.447 631.447,171.447" transform="rotate(0 0 0)" fill="yellow" stroke="black" stroke-width="0.5" />
<polygon points="631.447,171.447 631.447,191.447 691.447,191.447 691.447,171.447" transform="rotate(0 0 0)" fill="yellow" stroke="black" stroke-width="0.5" />
<polygon points="691.447,171.447 691.447,191.447 751.447,191.447 751.447,171.447" transform="rotate(0 0 0)" fill="yellow" stroke="black" stroke-width="0.5" />
<polygon points="751.447,171.447 751.447,191.447 811.447,191.447 811.447,171.447" transform="rotate(0 0 0)" fill="yellow" stroke="black" stroke-width="0.5" />
<polygon points="151.447,191.447 151.447,211.447 211.447,211.447 211.447,191.447" transform="rotate(0 0 0)" fill="yellow" stroke="black" stroke-width="0.5" />
<polygon points="211.447,191.447 211.447,211.447 271.447,211.447 271.447,191.447" transform="rotate(0 0 0)" fill="yellow" stroke="black" stroke-width="0.5" />
<polygon points="271.447,191.447 271.447,211.447 331.447,211.447 331.447,191.447" transform="rotate(0 0 0)" fill="yellow" stroke="black" stroke-width="0.5" />
<polygon points="331.447,191.447 331.447,211.447 391.447,211.447 391.447,191.447" transform="rotate(0 0 0)" fill="yellow" stroke="black" stroke-width="0.5" />
<polygon points="391.447,191.447 391.447,211.447 451.447,211.447 451.447,191.447" transform="rotate(0 0 0)" fill="yellow" stroke="black" stroke-width="0.5" />
<polygon points="451.447,191.447 451.447,211.447 511.447,211.447 511.447,191.447" transform="rotate(0 0 0)" fill="yellow" stroke="black" stroke-width="0.5" />
<polygon points="511.447,191.447 511.447,211.447 571.447,211.447 571.447,191.447" transform="rotate(0 0 0)" fill="yellow" stroke="black" stroke-width="0.5" />
<polygon points="571.447,191.447 571.447,211.447 631.447,211.447 631.447,191.447" transform="rotate(0 0 0)" fill="yellow" stroke="black" stroke-width="0.5" />
<polygon points="631.447,191.447 631.447,211.447 691.447,211.447 691.447,191.447" transform="rotate(0 0 0)" fill="yellow" stroke="black" stroke-width="0.5" />
<polygon points="691.447,191.447 691.447,211.447 751.447,211.447 751.447,191.447" transform="rotate(0 0 0)" fill="yellow" stroke="black" stroke-width="0.5" />
<polygon points="751.447,191.447 751.447,211.447 811.447,211.447 811.447,191.447" transform="rotate(0 0 0)" fill="yellow" stroke="black" stroke-width="0.5" />
<polygon points="151.447,211.447 151.447,231.447 211.447,231.447 211.447,211.447" transform="rotate(0 0 0)" fill="yellow" stroke="black" stroke-width="0.5" />
<polygon points="211.447,211.447 211.447,231.447 271.447,231.447 271.447,211.447" transform="rotate(0 0 0)" fill="yellow" stroke="black" stroke-width="0.5" />
<polygon points="271.447,211.447 271.447,231.447 331.447,231.447 331.447,211.447" transform="rotate(0 0 0)" fill="yellow" stroke="black" stroke-width="0.5" />
<polygon points="331.447,211.447 331.447,231.447 391.447,231.447 391.447,211.447" transform="rotate(0 0 0)" fill="yellow" stroke="black" stroke-width="0.5" />
<polygon points="391.447,211.447 391.447,231.447 451.447,231.447 451.447,211.447" transform="rotate(0 0 0)" fill="yellow" stroke="black" stroke-width="0.5" />
<polygon points="451.447,211.447 451.447,231.447 511.447,231.447 511.447,211.447" transform="rotate(0 0 0)" fill="yellow" stroke="black" stroke-width="0.5" />
<polygon points="511.447,211.447 511.447,231.447 571.447,231.447 571.447,211.447" transform="rotate(0 0 0)" fill="yellow" stroke="black" stroke-width="0.5" />
<polygon points="571.447,211.447 571.447,231.447 631.447,231.447 631.447,211.447" transform="rotate(0 0 0)" fill="yellow" stroke="black" stroke-width="0.5" />
<polygon points="631.447,211.447 631.447,231.447 691.447,231.447 691.447,211.447" transform="rotate(0 0 0)" fill="yellow" stroke="black" stroke-width="0.5" />
<polygon points="691.447,211.447 691.447,231.447 751.447,231.447 751.447,211.447" transform="rotate(0 0 0)" fill="yellow" stroke="black" stroke-width="0.5" />
<polygon points="751.447,211.447 751.447,231.447 811.447,231.447 811.447,211.447" transform="rotate(0 0 0)" fill="yellow" stroke="black" stroke-width="0.5" />
<polygon points="151.447,231.447 151.447,251.447 211.447,251.447 211.447,231.447" transform="rotate(0 0 0)" fill="yellow" stroke="black" stroke-width="0.5" />
<polygon points="211.447,231.447 211.447,251.447 271.447,251.447 271.447,231.447" transform="rotate(0 0 0)" fill="yellow" stroke="black" stroke-width="0.5" />
<polygon points="271.447,231.447 271.447,251.447 331.447,251.447 331.447,231.447" transform="rotate(0 0 0)" fill="yellow" stroke="black" stroke-width="0.5" />
<polygon points="331.447,231.447 331.447,251.447 391.447,251.447 391.447,231.447" transform="rotate(0 0 0)" fill="yellow" stroke="black" stroke-width="0.5" />
<polygon points="391.447,231.447 391.447,251.447 451.447,251.447 451.447,231.447" transform="rotate(0 0 0)" fill="yellow" stroke="black" stroke-width="0.5" />
<polygon points="451.447,231.447 451.447,251.447 511.447,251.447 511.447,231.447" transform="rotate(0 0 0)" fill="yellow" stroke="black" stroke-width="0.5" />
<polygon points="511.447,231.447 511.447,251.447 571.447,251.447 571.447,231.447" transform="rotate(0 0 0)" fill="yellow" stroke="black" stroke-width="0.5" />
<polygon points="571.447,231.447 571.447,251.447 631.447,251.447 631.447,231.447" transform="rotate(0 0 0)" fill="yellow" stroke="black" stroke-width="0.5" />
<polygon points="631.447,231.447 631.447,251.447 691.447,251.447 691.447,231.447" transform="rotate(0 0 0)" fill="yellow" stroke="black" stroke-width="0.5" />
<polygon points="691.447,231.447 691.447,251.447 751.447,251.447 751.447,231.447" transform="rotate(0 0 0)" fill="yellow" stroke="black" stroke-width="0.5" />
<polygon points="751.447,231.447 751.447,251.447 811.447,251.447 811.447,231.447" transform="rotate(0 0 0)" fill="yellow" stroke="black" stroke-width="0.5" />
<polygon points="151.447,251.447 151.447,271.447 211.447,271.447 211.447,251.447" transform="rotate(0 0 0)" fill="yellow" stroke="black" stroke-width="0.5" />
<polygon points="211.447,251.447 211.447,271.447 271.447,271.447 271.447,251.447" transform="rotate(0 0 0)" fill="yellow" stroke="black" stroke-width="0.5" />
<polygon points="271.447,251.447 271.447,271.447 331.447,271.447 331.447,251.447" transform="rotate(0 0 0)" fill="yellow" stroke="black" stroke-width="0.5" />
<polygon points="331.447,251.447 331.447,271.447 391.447,271.447 391.447,251.447" transform="rotate(0 0 0)" fill="yellow" stroke="black" stroke-width="0.5" />
<polygon points="391.447,251.447 391.447,271.447 451.447,271.447 451.447,251.447" transform="rotate(0 0 0)" fill="yellow" stroke="black" stroke-width="0.5" />
<polygon points="451.447,251.447 451.447,271.447 511.447,271.447 511.447,251.447" transform="rotate(0 0 0)" fill="yellow" stroke="black" stroke-width="0.5" />
<polygon points="511.447,251.447 511.447,271.447 571.447,271.447 571.447,251.447" transform="rotate(0 0 0)" fill="yellow" stroke="black" stroke-width="0.5" />
<polygon points="571.447,251.447 571.447,271.447 631.447,271.447 631.447,251.447" transform="rotate(0 0 0)" fill="yellow" stroke="black" stroke-width="0.5" />
<polygon points="631.447,251.447 631.447,271.447 691.447,271.447 691.447,251.447" transform="rotate(0 0 0)" fill="yellow" stroke="black" stroke-width="0.5" />
<polygon points="691.447,251.447 691.447,271.447 751.447,271.447 751.447,251.447" transform="rotate(0 0 0)" fill="yellow" stroke="black" stroke-width="0.5" />
<polygon points="751.447,251.447 751.447,271.447 811.447,271.447 811.447,251.447" transform="rotate(0 0 0)" fill="yellow" stroke="black" stroke-width="0.5" />
<polygon points="151.447,271.447 151.447,291.447 211.447,291.447 211.447,271.447" transform="rotate(0 0 0)" fill="yellow" stroke="black" stroke-width="0.5" />
<polygon points="211.447,271.447 211.447,291.447 271.447,291.447 271.447,271.447" transform="rotate(0 0 0)" fill="yellow" stroke="black" stroke-width="0.5" />
<polygon points="271.447,271.447 271.447,291.447 331.447,291.447 331.447,271.447" transform="rotate(0 0 0)" fill="yellow" stroke="black" stroke-width="0.5" />
<polygon points="331.447,271.447 331.447,291.447 391.447,291.447 391.447,271.447" transform="rotate(0 0 0)" fill="yellow" stroke="black" stroke-width="0.5" />
<polygon points="391.447,271.447 391.447,291.447 451.447,291.447 451.447,271.447" transform="rotate(0 0 0)" fill="yellow" stroke="black" stroke-width="0.5" />
<polygon points="451.447,271.447 451.447,291.447 511.447,291.447 511.447,271.447" transform="rotate(0 0 0)" fill="yellow" stroke="black" stroke-width="0.5" />
<polygon points="511.447,271.447 511.447,291.447 571.447,291.447 571.447,271.447" transform="rotate(0 0 0)" fill="yellow" stroke="black" stroke-width="0.5" />
<polygon points="571.447,271.447 571.447,291.447 631.447,291.447 631.447,271.447" transform="rotate(0 0 0)" fill="yellow" stroke="black" stroke-width="0.5" />
<polygon points="631.447,271.447 631.447,291.447 691.447,291.447 691.447,271.447" transform="rotate(0 0 0)" fill="yellow" stroke="black" stroke-width="0.5" />
<polygon points="691.447,271.447 691.447,291.447 751.447,291.447 751.447,271.447" transform="rotate(0 0 0)" fill="yellow" stroke="black" stroke-width="0.5" />
<polygon points="751.447,271.447 751.447,291.447 811.447,291.447 811.447,271.447" transform="rotate(0 0 0)" fill="yellow" stroke="black" stroke-width="0.5" />
<polygon points="151.447,291.447 151.447,311.447 211.447,311.447 211.447,291.447" transform="rotate(0 0 0)" fill="yellow" stroke="black" stroke-width="0.5" />
<polygon points="211.447,291.447 211.447,311.447 271.447,311.447 271.447,291.447" transform="rotate(0 0 0)" fill="yellow" stroke="black" stroke-width="0.5" />
<polygon points="271.447,291.447 271.447,311.447 331.447,311.447 331.447,291.447" transform="rotate(0 0 0)" fill="yellow" stroke="black" stroke-width="0.5" />
<polygon points="331.447,291.447 331.447,311.447 391.447,311.447 391.447,291.447" transform="rotate(0 0 0)" fill="yellow" stroke="black" stroke-width="0.5" />
<polygon points="391.447,291.447 391.447,311.447 451.447,311.447 451.447,291.447" transform="rotate(0 0 0)" fill="yellow" stroke="black" stroke-width="0.5" />
<polygon points="451.447,291.447 451.447,311.447 511.447,311.447 511.447,291.447" transform="rotate(0 0 0)" fill="yellow" stroke="black" stroke-width="0.5" />
<polygon points="511.447,291.447 511.447,311.447 571.447,311.447 571.447,291.447" transform="rotate(0 0 0)" fill="yellow" stroke="black" stroke-width="0.5" />
<polygon points="571.447,291.447 571.447,311.447 631.447,311.447 631.447,291.447" transform="rotate(0 0 0)" fill="yellow" stroke="black" stroke-width="0.5" />
<polygon points="631.447,291.447 631.447,311.447 691.447,311.447 691.447,291.447" transform="rotate(0 0 0)" fill="yellow" stroke="black" stroke-width="0.5" />
<polygon points="691.447,291.447 691.447,311.447 751.447,311.447 751.447,291.447" transform="rotate(0 0 0)" fill="yellow" stroke="black" stroke-width="0.5" />
<polygon points="751.447,291.447 751.447,311.447 811.447,311.447 811.447,291.447" transform="rotate(0 0 0)" fill="yellow" stroke="black" stroke-width="0.5" />
<polygon points="151.447,311.447 151.447,331.447 211.447,331.447 211.447,311.447" transform="rotate(0 0 0)" fill="yellow" stroke="black" stroke-width="0.5" />
<polygon points="211.447,311.447 211.447,331.447 271.447,331.447 271.447,311.447" transform="rotate(0 0 0)" fill="yellow" stroke="black" stroke-width="0.5" />
<polygon points="271.447,311.447 271.447,331.447 331.447,331.447 331.447,311.447" transform="rotate(0 0 0)" fill="yellow" stroke="black" stroke-width="0.5" />
<polygon points="331.447,311.447 331.447,331.447 391.447,331.447 391.447,311.447" transform="rotate(0 0 0)" fill="yellow" stroke="black" stroke-width="0.5" />
<polygon points="391.447,311.447 391.447,331.447 451.447,331.447 451.447,311.447" transform="rotate(0 0 0)" fill="yellow" stroke="black" stroke-width="0.5" />
<polygon points="451.447,311.447 451.447,331.447 511.447,331.447 511.447,311.447" transform="rotate(0 0 0)" fill="yellow" stroke="black" stroke-width="0.5" />
<polygon points="511.447,311.447 511.447,331.447 571.447,331.447 571.447,311.447" transform="rotate(0 0 0)" fill="yellow" stroke="black" stroke-width="0.5" />
<polygon points="571.447,311.447 571.447,331.447 631.447,331.447 631.447,311.447" transform="rotate(0 0 0)" fill="yellow" stroke="black" stroke-width="0.5" />
<polygon points="631.447,311.447 631.447,331.447 691.447,331.447 691.447,311.447" transform="rotate(0 0 0)" fill="yellow" stroke="black" stroke-width="0.5" />
<polygon points="691.447,311.447 691.447,331.447 751.447,331.447 751.447,311.447" transform="rotate(0 0 0)" fill="yellow" stroke="black" stroke-width="0.5" />
<polygon points="751.447,311.447 751.447,331.447 811.447,331.447 811.447,311.447" transform="rotate(0 0 0)" fill="yellow" stroke="black" stroke-width="0.5" />
<polygon points="151.447,331.447 151.447,351.447 211.447,351.447 211.447,331.447" transform="rotate(0 0 0)" fill="yellow" stroke="black" stroke-width="0.5" />
<polygon points="211.447,331.447 211.447,351.447 271.447,351.447 271.447,331.447" transform="rotate(0 0 0)" fill="yellow" stroke="black" stroke-width="0.5" />
<polygon points="271.447,331.447 271.447,351.447 331.447,351.447 331.447,331.447" transform="rotate(0 0 0)" fill="yellow" stroke="black" stroke-width="0.5" />
<polygon points="331.447,331.447 331.447,351.447 391.447,351.447 391.447,331.447" transform="rotate(0 0 0)" fill="yellow" stroke="black" stroke-width="0.5" />
<polygon points="391.447,331.447 391.447,351.447 451.447,351.447 451.447,331.447" transform="rotate(0 0 0)" fill="yellow" stroke="black" stroke-width="0.5" />
<polygon points="451.447,331.447 451.447,351.447 511.447,351.447 511.447,331.447" transform="rotate(0 0 0)" fill="yellow" stroke="black" stroke-width="0.5" />
<polygon points="511.447,331.447 511.447,351.447 571.447,351.447 571.447,331.447" transform="rotate(0 0 0)" fill="yellow" stroke="black" stroke-width="0.5" />
<polygon points="571.447,331.447 571.447,351.447 631.447,351.447 631.447,331.447" transform="rotate(0 0 0)" fill="yellow" stroke="black" stroke-width="0.5" />
<polygon points="631.447,331.447 631.447,351.447 691.447,351.447 691.447,331.447" transform="rotate(0 0 0)" fill="yellow" stroke="black" stroke-width="0.5" />
<polygon points="691.447,331.447 691.447,351.447 751.447,351.447 751.447,331.447" transform="rotate(0 0 0)" fill="yellow" stroke="black" stroke-width="0.5" />
<polygon points="751.447,331.447 751.447,351.447 811.447,351.447 811.447,331.447" transform="rotate(0 0 0)" fill="yellow" stroke="black" stroke-width="0.5" />
<polygon points="151.447,351.447 151.447,371.447 211.447,371.447 211.447,351.447" transform="rotate(0 0 0)" fill="yellow" stroke="black" stroke-width="0.5" />
<polygon points="211.447,351.447 211.447,371.447 271.447,371.447 271.447,351.447" transform="rotate(0 0 0)" fill="yellow" stroke="black" stroke-width="0.5" />
<polygon points="271.447,351.447 271.447,371.447 331.447,371.447 331.447,351.447" transform="rotate(0 0 0)" fill="yellow" stroke="black" stroke-width="0.5" />
<polygon points="331.447,351.447 331.447,371.447 391.447,371.447 391.447,351.447" transform="rotate(0 0 0)" fill="yellow" stroke="black" stroke-width="0.5" />
<polygon points="391.447,351.447 391.447,371.447 451.447,371.447 451.447,351.447" transform="rotate(0 0 0)" fill="yellow" stroke="black" stroke-width="0.5" />
<polygon points="451.447,351.447 451.447,371.447 511.447,371.447 511.447,351.447" transform="rotate(0 0 0)" fill="yellow" stroke="black" stroke-width="0.5" />
<polygon points="511.447,351.447 511.447,371.447 571.447,371.447 571.447,351.447" transform="rotate(0 0 0)" fill="yellow" stroke="black" stroke-width="0.5" />
<polygon points="571.447,351.447 571.447,371.447 631.447,371.447 631.447,351.447" transform="rotate(0 0 0)" fill="yellow" stroke="black" stroke-width="0.5" />
<polygon points="631.447,351.447 631.447,371.447 691.447,371.447 691.447,351.447" transform="rotate(0 0 0)" fill="yellow" stroke="black" stroke-width="0.5" />
<polygon points="691.447,351.447 691.447,371.447 751.447,371.447 751.447,351.447" transform="rotate(0 0 0)" fill="yellow" stroke="black" stroke-width="0.5" />
<polygon points="751.447,351.447 751.447,371.447 811.447,371.447 811.447,351.447" transform="rotate(0 0 0)" fill="yellow" stroke="black" stroke-width="0.5" />
<polygon points="151.447,371.447 151.447,391.447 211.447,391.447 211.447,371.447" transform="rotate(0 0 0)" fill="yellow" stroke="black" stroke-width="0.5" />
<polygon points="211.447,371.447 211.447,391.447 271.447,391.447 271.447,371.447" transform="rotate(0 0 0)" fill="yellow" stroke="black" stroke-width="0.5" />
<polygon points="271.447,371.447 271.447,391.447 331.447,391.447 331.447,371.447" transform="rotate(0 0 0)" fill="yellow" stroke="black" stroke-width="0.5" />
<polygon points="331.447,371.447 331.447,391.447 391.447,391.447 391.447,371.447" transform="rotate(0 0 0)" fill="yellow" stroke="black" stroke-width="0.5" />
<polygon points="391.447,371.447 391.447,391.447 451.447,391.447 451.447,371.447" transform="rotate(0 0 0)" fill="yellow" stroke="black" stroke-width="0.5" />
<polygon points="451.447,371.447 451.447,391.447 511.447,391.447 511.447,371.447" transform="rotate(0 0 0)" fill="yellow" stroke="black" stroke-width="0.5" />
<polygon points="511.447,371.447 511.447,391.447 571.447,391.447 571.447,371.447" transform="rotate(0 0 0)" fill="yellow" stroke="black" stroke-width="0.5" />
<polygon points="571.447,371.447 571.447,391.447 631.447,391.447 631.447,371.447" transform="rotate(0 0 0)" fill="yellow" stroke="black" stroke-width="0.5" />
<polygon points="631.447,371.447 631.447,391.447 691.447,391.447 691.447,371.447" transform="rotate(0 0 0)" fill="yellow" stroke="black" stroke-width="0.5" />
<polygon points="691.447,371.447 691.447,391.447 751.447,391.447 751.447,371.447" transform="rotate(0 0 0)" fill="yellow" stroke="black" stroke-width="0.5" />
<polygon points="751.447,371.447 751.447,391.447 811.447,391.447 811.447,371.447" transform="rotate(0 0 0)" fill="yellow" stroke="black" stroke-width="0.5" />
<polygon points="151.447,391.447 151.447,411.447 211.447,411.447 211.447,391.447" transform="rotate(0 0 0)" fill="yellow" stroke="black" stroke-width="0.5" />
<polygon points="211.447,391.447 211.447,411.447 271.447,411.447 271.447,391.447" transform="rotate(0 0 0)" fill="yellow" stroke="black" stroke-width="0.5" />
<polygon points="271.447,391.447 271.447,411.447 331.447,411.447 331.447,391.447" transform="rotate(0 0 0)" fill="yellow" stroke="black" stroke-width="0.5" />
<polygon points="331.447,391.447 331.447,411.447 391.447,411.447 391.447,391.447" transform="rotate(0 0 0)" fill="yellow" stroke="black" stroke-width="0.5" />
<polygon points="391.447,391.447 391.447,411.447 451.447,411.447 451.447,391.447" transform="rotate(0 0 0)" fill="yellow" stroke="black" stroke-width="0.5" />
<polygon points="451.447,391.447 451.447,411.447 511.447,411.447 511.447,391.447" transform="rotate(0 0 0)" fill="yellow" stroke="black" stroke-width="0.5" />
<polygon points="511.447,391.447 511.447,411.447 571.447,411.447 571.447,391.447" transform="rotate(0 0 0)" fill="yellow" stroke="black" stroke-width="0.5" />
<polygon points="571.447,391.447 571.447,411.447 631.447,411.447 631.447,391.447" transform="rotate(0 0 0)" fill="yellow" stroke="black" stroke-width="0.5" />
<polygon points="631.447,391.447 631.447,411.447 691.447,411.447 691.447,391.447" transform="rotate(0 0 0)" fill="yellow" stroke="black" stroke-width="0.5" />
<polygon points="691.447,391.447 691.447,411.447 751.447,411.447 751.447,391.447" transform="rotate(0 0 0)" fill="yellow" stroke="black" stroke-width="0.5" />
<polygon points="751.447,391.447 751.447,411.447 811.447,411.447 811.447,391.447" transform="rotate(0 0 0)" fill="yellow" stroke="black" stroke-width="0.5" />
<polygon points="151.447,411.447 151.447,431.447 211.447,431.447 211.447,411.447" transform="rotate(0 0 0)" fill="yellow" stroke="black" stroke-width="0.5" />
<polygon points="211.447,411.447 211.447,431.447 271.447,431.447 271.447,411.447" transform="rotate(0 0 0)" fill="yellow" stroke="black" stroke-width="0.5" />
<polygon points="271.447,411.447 271.447,431.447 331.447,431.447 331.447,411.447" transform="rotate(0 0 0)" fill="yellow" stroke="black" stroke-width="0.5" />
<polygon points="331.447,411.447 331.447,431.447 391.447,431.447 391.447,411.447" transform="rotate(0 0 0)" fill="yellow" stroke="black" stroke-width="0.5" />
<polygon points="391.447,411.447 391.447,431.447 451.447,431.447 451.447,411.447" transform="rotate(0 0 0)" fill="yellow" stroke="black" stroke-width="0.5" />
<polygon points="451.447,411.447 451.447,431.447 511.447,431.447 511.447,411.447" transform="rotate(0 0 0)" fill="yellow" stroke="black" stroke-width="0.5" />
<polygon points="511.447,411.447 511.447,431.447 571.447,431.447 571.447,411.447" transform="rotate(0 0 0)" fill="yellow" stroke="black" stroke-width="0.5" />
<polygon points="571.447,411.447 571.447,431.447 631.447,431.447 631.447,411.447" transform="rotate(0 0 0)" fill="yellow" stroke="black" stroke-width="0.5" />
<polygon points="631.447,411.447 631.447,431.447 691.447,431.447 691.447,411.447" transform="rotate(0 0 0)" fill="yellow" stroke="black" stroke-width="0.5" />
<polygon points="691.447,411.447 691.447,431.447 751.447,431.447 751.447,411.447" transform="rotate(0 0 0)" fill="yellow" stroke="black" stroke-width="0.5" />
<polygon points="751.447,411.447 751.447,431.447 811.447,431.447 811.447,411.447" transform="rotate(0 0 0)" fill="yellow" stroke="black" stroke-width="0.5" />
<polygon points="151.447,431.447 151.447,451.447 211.447,451.447 211.447,431.447" transform="rotate(0 0 0)" fill="yellow" stroke="black" stroke-width="0.5" />
<polygon points="211.447,431.447 211.447,451.447 271.447,451.447 271.447,431.447" transform="rotate(0 0 0)" fill="yellow" stroke="black" stroke-width="0.5" />
<polygon points="271.447,431.447 271.447,451.447 331.447,451.447 331.447,431.447" transform="rotate(0 0 0)" fill="yellow" stroke="black" stroke-width="0.5" />
<polygon points="331.447,431.447 331.447,451.447 391.447,451.447 391.447,431.447" transform="rotate(0 0 0)" fill="yellow" stroke="black" stroke-width="0.5" />
<polygon points="391.447,431.447 391.447,451.447 451.447,451.447 451.447,431.447" transform="rotate(0 0 0)" fill="yellow" stroke="black" stroke-width="0.5" />
<polygon points="451.447,431.447 451.447,451.447 511.447,451.447 511.447,431.447" transform="rotate(0 0 0)" fill="yellow" stroke="black" stroke-width="0.5" />
<polygon points="511.447,431.447 511.447,451.447 571.447,451.447 571.447,431.447" transform="rotate(0 0 0)" fill="yellow" stroke="black" stroke-width="0.5" />
<polygon points="571.447,431.447 571.447,451.447 631.447,451.447 631.447,431.447" transform="rotate(0 0 0)" fill="yellow" stroke="black" stroke-width="0.5" />
<polygon points="631.447,431.447 631.447,451.447 691.447,451.447 691.447,431.447" transform="rotate(0 0 0)" fill="yellow" stroke="black" stroke-width="0.5" />
<polygon points="691.447,431.447 691.447,451.447 751.447,451.447 751.447,431.447" transform="rotate(0 0 0)" fill="yellow" stroke="black" stroke-width="0.5" />
<polygon points="751.447,431.447 751.447,451.447 811.447,451.447 811.447,431.447" transform="rotate(0 0 0)" fill="yellow" stroke="black" stroke-width="0.5" />
<polygon points="151.447,451.447 151.447,471.447 211.447,471.447 211.447,451.447" transform="rotate(0 0 0)" fill="yellow" stroke="black" stroke-width="0.5" />
<polygon points="211.447,451.447 211.447,471.447 271.447,471.447 271.447,451.447" transform="rotate(0 0 0)" fill="yellow" stroke="black" stroke-width="0.5" />
<polygon points="271.447,451.447 271.447,471.447 331.447,471.447 331.447,451.447" transform="rotate(0 0 0)" fill="yellow" stroke="black" stroke-width="0.5" />
<polygon points="331.447,451.447 331.447,471.447 391.447,471.447 391.447,451.447" transform="rotate(0 0 0)" fill="yellow" stroke="black" stroke-width="0.5" />
<polygon points="391.447,451.447 391.447,471.447 451.447,471.447 451.447,451.447" transform="rotate(0 0 0)" fill="yellow" stroke="black" stroke-width="0.5" />
<polygon points="451.447,451.447 451.447,471.447 511.447,471.447 511.447,451.447" transform="rotate(0 0 0)" fill="yellow" stroke="black" stroke-width="0.5" />
<polygon points="511.447,451.447 511.447,471.447 571.447,471.447 571.447,451.447" transform="rotate(0 0 0)" fill="yellow" stroke="black" stroke-width="0.5" />
<polygon points="571.447,451.447 571.447,471.447 631.447,471.447 631.447,451.447" transform="rotate(0 0 0)" fill="yellow" stroke="black" stroke-width="0.5" />
<polygon points="631.447,451.447 631.447,471.447 691.447,471.447 691.447,451.447" transform="rotate(0 0 0)" fill="yellow" stroke="black" stroke-width="0.5" />
<polygon points="691.447,451.447 691.447,471.447 751.447,471.447 751.447,451.447" transform="rotate(0 0 0)" fill="yellow" stroke="black" stroke-width="0.5" />
<polygon points="751.447,451.447 751.447,471.447 811.447,471.447 811.447,451.447" transform="rotate(0 0 0)" fill="yellow" stroke="black" stroke-width="0.5" />
<polygon points="151.447,471.447 151.447,491.447 211.447,491.447 211.447,471.447" transform="rotate(0 0 0)" fill="yellow" stroke="black" stroke-width="0.5" />
<polygon points="211.447,471.447 211.447,491.447 271.447,491.447 271.447,471.447" transform="rotate(0 0 0)" fill="yellow" stroke="black" stroke-width="0.5" />
<polygon points="271.447,471.447 271.447,491.447 331.447,491.447 331.447,471.447" transform="rotate(0 0 0)" fill="yellow" stroke="black" stroke-width="0.5" />
<polygon points="331.447,471.447 331.447,491.447 391.447,491.447 391.447,471.447" transform="rotate(0 0 0)" fill="yellow" stroke="black" stroke-width="0.5" />
<polygon points="391.447,471.447 391.447,491.447 451.447,491.447 451.447,471.447" transform="rotate(0 0 0)" fill="yellow" stroke="black" stroke-width="0.5" />
<polygon points="451.447,471.447 451.447,491.447 511.447,491.447 511.447,471.447" transform="rotate(0 0 0)" fill="yellow" stroke="black" stroke-width="0.5" />
<polygon points="511.447,471.447 511.447,491.447 571.447,491.447 571.447,471.447" transform="rotate(0 0 0)" fill="yellow" stroke="black" stroke-width="0.5" />
<polygon points="571.447,471.447 571.447,491.447 631.447,491.447 631.447,471.447" transform="rotate(0 0 0)" fill="yellow" stroke="black" stroke-width="0.5" />
<polygon points="631.447,471.447 631.447,491.447 691.447,491.447 691.447,471.447" transform="rotate(0 0 0)" fill="yellow" stroke="black" stroke-width="0.5" />
<polygon points="691.447,471.447 691.447,491.447 751.447,491.447 751.447,471.447" transform="rotate(0 0 0)" fill="yellow" stroke="black" stroke-width="0.5" />
<polygon points="751.447,471.447 751.447,491.447 811.447,491.447 811.447,471.447" transform="rotate(0 0 0)" fill="yellow" stroke="black" stroke-width="0.5" />
<polygon points="151.447,491.447 151.447,511.447 211.447,511.447 211.447,491.447" transform="rotate(0 0 0)" fill="yellow" stroke="black" stroke-width="0.5" />
<polygon points="211.447,491.447 211.447,511.447 271.447,511.447 271.447,491.447" transform="rotate(0 0 0)" fill="yellow" stroke="black" stroke-width="0.5" />
<polygon points="271.447,491.447 271.447,511.447 331.447,511.447 331.447,491.447" transform="rotate(0 0 0)" fill="yellow" stroke="black" stroke-width="0.5" />
<polygon points="331.447,491.447 331.447,511.447 391.447,511.447 391.447,491.447" transform="rotate(0 0 0)" fill="yellow" stroke="black" stroke-width="0.5" />
<polygon points="391.447,491.447 391.447,511.447 451.447,511.447 451.447,491.447" transform="rotate(0 0 0)" fill="yellow" stroke="black" stroke-width="0.5" />
<polygon points="451.447,491.447 451.447,511.447 511.447,511.447 511.447,491.447" transform="rotate(0 0 0)" fill="yellow" stroke="black" stroke-width="0.5" />
<polygon points="511.447,491.447 511.447,511.447 571.447,511.447 571.447,491.447" transform="rotate(0 0 0)" fill="yellow" stroke="black" stroke-width="0.5" />
<polygon points="571.447,491.447 571.447,511.447 631.447,511.447 631.447,491.447" transform="rotate(0 0 0)" fill="yellow" stroke="black" stroke-width="0.5" />
<polygon points="631.447,491.447 631.447,511.447 691.447,511.447 691.447,491.447" transform="rotate(0 0 0)" fill="yellow" stroke="black" stroke-width="0.5" />
<polygon points="691.447,491.447 691.447,511.447 751.447,511.447 751.447,491.447" transform="rotate(0 0 0)" fill="yellow" stroke="black" stroke-width="0.5" />
<polygon points="751.447,491.447 751.447,511.447 811.447,511.447 811.447,491.447" transform="rotate(0 0 0)" fill="yellow" stroke="black" stroke-width="0.5" />
<polygon points="151.447,511.447 151.447,531.447 211.447,531.447 211.447,511.447" transform="rotate(0 0 0)" fill="yellow" stroke="black" stroke-width="0.5" />
<polygon points="211.447,511.447 211.447,531.447 271.447,531.447 271.447,511.447" transform="rotate(0 0 0)" fill="yellow" stroke="black" stroke-width="0.5" />
<polygon points="271.447,511.447 271.447,531.447 331.447,531.447 331.447,511.447" transform="rotate(0 0 0)" fill="yellow" stroke="black" stroke-width="0.5" />
<polygon points="331.447,511.447 331.447,531.447 391.447,531.447 391.447,511.447" transform="rotate(0 0 0)" fill="yellow" stroke="black" stroke-width="0.5" />
<polygon points="391.447,511.447 391.447,531.447 451.447,531.447 451.447,511.447" transform="rotate(0 0 0)" fill="yellow" stroke="black" stroke-width="0.5" />
<polygon points="451.447,511.447 451.447,531.447 511.447,531.447 511.447,511.447" transform="rotate(0 0 0)" fill="yellow" stroke="black" stroke-width="0.5" />
<polygon points="511.447,511.447 511.447,531.447 571.447,531.447 571.447,511.447" transform="rotate(0 0 0)" fill="yellow" stroke="black" stroke-width="0.5" />
<polygon points="571.447,511.447 571.447,531.447 631.447,531.447 631.447,511.447" transform="rotate(0 0 0)" fill="yellow" stroke="black" stroke-width="0.5" />
<polygon points="631.447,511.447 631.447,531.447 691.447,531.447 691.447,511.447" transform="rotate(0 0 0)" fill="yellow" stroke="black" stroke-width="0.5" />
<polygon points="691.447,511.447 691.447,531.447 751.447,531.447 751.447,511.447" transform="rotate(0 0 0)" fill="yellow" stroke="black" stroke-width="0.5" />
<polygon points="751.447,511.447 751.447,531.447 811.447,531.447 811.447,511.447" transform="rotate(0 0 0)" fill="yellow" stroke="black" stroke-width="0.5" />
<polygon points="151.447,531.447 151.447,551.447 211.447,551.447 211.447,531.447" transform="rotate(0 0 0)" fill="yellow" stroke="black" stroke-width="0.5" />
<polygon points="211.447,531.447 211.447,551.447 271.447,551.447 271.447,531.447" transform="rotate(0 0 0)" fill="yellow" stroke="black" stroke-width="0.5" />
<polygon points="271.447,531.447 271.447,551.447 331.447,551.447 331.447,531.447" transform="rotate(0 0 0)" fill="yellow" stroke="black" stroke-width="0.5" />
<polygon points="331.447,531.447 331.447,551.447 391.447,551.447 391.447,531.447" transform="rotate(0 0 0)" fill="yellow" stroke="black" stroke-width="0.5" />
<polygon points="391.447,531.447 391.447,551.447 451.447,551.447 451.447,531.447" transform="rotate(0 0 0)" fill="yellow" stroke="black" stroke-width="0.5" />
<polygon points="451.447,531.447 451.447,551.447 511.447,551.447 511.447,531.447" transform="rotate(0 0 0)" fill="yellow" stroke="black" stroke-width="0.5" />
<polygon points="511.447,531.447 511.447,551.447 571.447,551.447 571.447,531.447" transform="rotate(0 0 0)" fill="yellow" stroke="black" stroke-width="0.5" />
<polygon points="571.447,531.447 571.447,551.447 631.447,551.447 631.447,531.447" transform="rotate(0 0 0)" fill="yellow" stroke="black" stroke-width="0.5" />
<polygon points="631.447,531.447 631.447,551.447 691.447,551.447 691.447,531.447" transform="rotate(0 0 0)" fill="yellow" stroke="black" stroke-width="0.5" />
<polygon points="691.447,531.447 691.447,551.447 751.447,551.447 751.447,531.447" transform="rotate(0 0 0)" fill="yellow" stroke="black" stroke-width="0.5" />
<polygon points="751.447,531.447 751.447,551.447 811.447,551.447 811.447,531.447" transform="rotate(0 0 0)" fill="yellow" stroke="black" stroke-width="0.5" />
<polygon points="151.447,551.447 151.447,571.447 211.447,571.447 211.447,551.447" transform="rotate(0 0 0)" fill="yellow" stroke="black" stroke-width="0.5" />
<polygon points="211.447,551.447 211.447,571.447 271.447,571.447 271.447,551.447" transform="rotate(0 0 0)" fill="yellow" stroke="black" stroke-width="0.5" />
<polygon points="271.447,551.447 271.447,571.447 331.447,571.447 331.447,551.447" transform="rotate(0 0 0)" fill="yellow" stroke="black" stroke-width="0.5" />
<polygon points="331.447,551.447 331.447,571.447 391.447,571.447 391.447,551.447" transform="rotate(0 0 0)" fill="yellow" stroke="black" stroke-width="0.5" />
<polygon points="391.447,551.447 391.447,571.447 451.447,571.447 451.447,551.447" transform="rotate(0 0 0)" fill="yellow" stroke="black" stroke-width="0.5" />
<polygon points="451.447,551.447 451.447,571.447 511.447,571.447 511.447,551.447" transform="rotate(0 0 0)" fill="yellow" stroke="black" stroke-width="0.5" />
<polygon points="511.447,551.447 511.447,571.447 571.447,571.447 571.447,551.447" transform="rotate(0 0 0)" fill="yellow" stroke="black" stroke-width="0.5" />
<polygon points="571.447,551.447 571.447,571.447 631.447,571.447 631.447,551.447" transform="rotate(0 0 0)" fill="yellow" stroke="black" stroke-width="0.5" />
<polygon points="631.447,551.447 631.447,571.447 691.447,571.447 691.447,551.447" transform="rotate(0 0 0)" fill="yellow" stroke="black" stroke-width="0.5" />
<polygon points="691.447,551.447 691.447,571.447 751.447,571.447 751.447,551.447" transform="rotate(0 0 0)" fill="yellow" stroke="black" stroke-width="0.5" />
<polygon points="751.447,551.447 751.447,571.447 811.447,571.447 811.447,551.447" transform="rotate(0 0 0)" fill="yellow" stroke="black" stroke-width="0.5" />
<polygon points="151.447,571.447 151.447,591.447 211.447,591.447 211.447,571.447" transform="rotate(0 0 0)" fill="yellow" stroke="black" stroke-width="0.5" />
<polygon points="211.447,571.447 211.447,591.447 271.447,591.447 271.447,571.447" transform="rotate(0 0 0)" fill="yellow" stroke="black" stroke-width="0.5" />
<polygon points="271.447,571.447 271.447,591.447 331.447,591.447 331.447,571.447" transform="rotate(0 0 0)" fill="yellow" stroke="black" stroke-width="0.5" />
<polygon points="331.447,571.447 331.447,591.447 391.447,591.447 391.447,571.447" transform="rotate(0 0 0)" fill="yellow" stroke="black" stroke-width="0.5" />
<polygon points="391.447,571.447 391.447,591.447 451.447,591.447 451.447,571.447" transform="rotate(0 0 0)" fill="yellow" stroke="black" stroke-width="0.5" />
<polygon points="451.447,571.447 451.447,591.447 511.447,591.447 511.447,571.447" transform="rotate(0 0 0)" fill="yellow" stroke="black" stroke-width="0.5" />
<polygon points="511.447,571.447 511.447,591.447 571.447,591.447 571.447,571.447" transform="rotate(0 0 0)" fill="yellow" stroke="black" stroke-width="0.5" />
<polygon points="571.447,571.447 571.447,591.447 631.447,591.447 631.447,571.447" transform="rotate(0 0 0)" fill="yellow" stroke="black" stroke-width="0.5" />
<polygon points="631.447,571.447 631.447,591.447 691.447,591.447 691.447,571.447" transform="rotate(0 0 0)" fill="yellow" stroke="black" stroke-width="0.5" />
<polygon points="691.447,571.447 691.447,591.447 751.447,591.447 751.447,571.447" transform="rotate(0 0 0)" fill="yellow" stroke="black" stroke-width="0.5" />
<polygon points="751.447,571.447 751.447,591.447 811.447,591.447 811.447,571.447" transform="rotate(0 0 0)" fill="yellow" stroke="black" stroke-width="0.5" />
<polygon points="151.447,591.447 151.447,611.447 211.447,611.447 211.447,591.447" transform="rotate(0 0 0)" fill="yellow" stroke="black" stroke-width="0.5" />
<polygon points="211.447,591.447 211.447,611.447 271.447,611.447 271.447,591.447" transform="rotate(0 0 0)" fill="yellow" stroke="black" stroke-width="0.5" />
<polygon points="271.447,591.447 271.447,611.447 331.447,611.447 331.447,591.447" transform="rotate(0 0 0)" fill="yellow" stroke="black" stroke-width="0.5" />
<polygon points="331.447,591.447 331.447,611.447 391.447,611.447 391.447,591.447" transform="rotate(0 0 0)" fill="yellow" stroke="black" stroke-width="0.5" />
<polygon points="391.447,591.447 391.447,611.447 451.447,611.447 451.447,591.447" transform="rotate(0 0 0)" fill="yellow" stroke="black" stroke-width="0.5" />
<polygon points="451.447,591.447 451.447,611.447 511.447,611.447 511.447,591.447" transform="rotate(0 0 0)" fill="yellow" stroke="black" stroke-width="0.5" />
<polygon points="511.447,591.447 511.447,611.447 571.447,611.447 571.447,591.447" transform="rotate(0 0 0)" fill="yellow" stroke="black" stroke-width="0.5" />
<polygon points="571.447,591.447 571.447,611.447 631.447,611.447 631.447,591.447" transform="rotate(0 0 0)" fill="yellow" stroke="black" stroke-width="0.5" />
<polygon points="631.447,591.447 631.447,611.447 691.447,611.447 691.447,591.447" transform="rotate(0 0 0)" fill="yellow" stroke="black" stroke-width="0.5" />
<polygon points="691.447,591.447 691.447,611.447 751.447,611.447 751.447,591.447" transform="rotate(0 0 0)" fill="yellow" stroke="black" stroke-width="0.5" />
<polygon points="751.447,591.447 751.447,611.447 811.447,611.447 811.447,591.447" transform="rotate(0 0 0)" fill="yellow" stroke="black" stroke-width="0.5" />
<polygon points="151.447,611.447 151.447,631.447 211.447,631.447 211.447,611.447" transform="rotate(0 0 0)" fill="yellow" stroke="black" stroke-width="0.5" />
<polygon points="211.447,611.447 211.447,631.447 271.447,631.447 271.447,611.447" transform="rotate(0 0 0)" fill="yellow" stroke="black" stroke-width="0.5" />
<polygon points="271.447,611.447 271.447,631.447 331.447,631.447 331.447,611.447" transform="rotate(0 0 0)" fill="yellow" stroke="black" stroke-width="0.5" />
<polygon points="331.447,611.447 331.447,631.447 391.447,631.447 391.447,611.447" transform="rotate(0 0 0)" fill="yellow" stroke="black" stroke-width="0.5" />
<polygon points="391.447,611.447 391.447,631.447 451.447,631.447 451.447,611.447" transform="rotate(0 0 0)" fill="yellow" stroke="black" stroke-width="0.5" />
<polygon points="451.447,611.447 451.447,631.447 511.447,631.447 511.447,611.447" transform="rotate(0 0 0)" fill="yellow" stroke="black" stroke-width="0.5" />
<polygon points="511.447,611.447 511.447,631.447 571.447,631.447 571.447,611.447" transform="rotate(0 0 0)" fill="yellow" stroke="black" stroke-width="0.5" />
<polygon points="571.447,611.447 571.447,631.447 631.447,631.447 631.447,611.447" transform="rotate(0 0 0)" fill="yellow" stroke="black" stroke-width="0.5" />
<polygon points="631.447,611.447 631.447,631.447 691.447,631.447 691.447,611.447" transform="rotate(0 0 0)" fill="yellow" stroke="black" stroke-width="0.5" />
<polygon points="691.447,611.447 691.447,631.447 751.447,631.447 751.447,611.447" transform="rotate(0 0 0)" fill="yellow" stroke="black" stroke-width="0.5" />
<polygon points="751.447,611.447 751.447,631.447 811.447,631.447 811.447,611.447" transform="rotate(0 0 0)" fill="yellow" stroke="black" stroke-width="0.5" />
<polygon points="151.447,631.447 151.447,651.447 211.447,651.447 211.447,631.447" transform="rotate(0 0 0)" fill="yellow" stroke="black" stroke-width="0.5" />
<polygon points="211.447,631.447 211.447,651.447 271.447,651.447 271.447,631.447" transform="rotate(0 0 0)" fill="yellow" stroke="black" stroke-width="0.5" />
<polygon points="271.447,631.447 271.447,651.447 331.447,651.447 331.447,631.447" transform="rotate(0 0 0)" fill="yellow" stroke="black" stroke-width="0.5" />
<polygon points="331.447,631.447 331.447,651.447 391.447,651.447 391.447,631.447" transform="rotate(0 0 0)" fill="yellow" stroke="black" stroke-width="0.5" />
<polygon points="391.447,631.447 391.447,651.447 451.447,651.447 451.447,631.447" transform="rotate(0 0 0)" fill="yellow" stroke="black" stroke-width="0.5" />
<polygon points="451.447,631.447 451.447,651.447 511.447,651.447 511.447,631.447" transform="rotate(0 0 0)" fill="yellow" stroke="black" stroke-width="0.5" />
<polygon points="511.447,631.447 511.447,651.447 571.447,651.447 571.447,631.447" transform="rotate(0 0 0)" fill="yellow" stroke="black" stroke-width="0.5" />
<polygon points="571.447,631.447 571.447,651.447 631.447,651.447 631.447,631.447" transform="rotate(0 0 0)" fill="yellow" stroke="black" stroke-width="0.5" />
<polygon points="631.447,631.447 631.447,651.447 691.447,651.447 691.447,631.447" transform="rotate(0 0 0)" fill="yellow" stroke="black" stroke-width="0.5" />
<polygon points="691.447,631.447 691.447,651.447 751.447,651.447 751.447,631.447" transform="rotate(0 0 0)" fill="yellow" stroke="black" stroke-width="0.5" />
<polygon points="751.447,631.447 751.447,651.447 811.447,651.447 811.447,631.447" transform="rotate(0 0 0)" fill="yellow" stroke="black" stroke-width="0.5" />
<polygon points="151.447,651.447 151.447,671.447 211.447,671.447 211.447,651.447" transform="rotate(0 0 0)" fill="yellow" stroke="black" stroke-width="0.5" />
<polygon points="211.447,651.447 211.447,671.447 271.447,671.447 271.447,651.447" transform="rotate(0 0 0)" fill="yellow" stroke="black" stroke-width="0.5" />
<polygon points="271.447,651.447 271.447,671.447 331.447,671.447 331.447,651.447" transform="rotate(0 0 0)" fill="yellow" stroke="black" stroke-width="0.5" />
<polygon points="331.447,651.447 331.447,671.447 391.447,671.447 391.447,651.447" transform="rotate(0 0 0)" fill="yellow" stroke="black" stroke-width="0.5" />
<polygon points="391.447,651.447 391.447,671.447 451.447,671.447 451.447,651.447" transform="rotate(0 0 0)" fill="yellow" stroke="black" stroke-width="0.5" />
<polygon points="451.447,651.447 451.447,671.447 511.447,671.447 511.447,651.447" transform="rotate(0 0 0)" fill="yellow" stroke="black" stroke-width="0.5" />
<polygon points="511.447,651.447 511.447,671.447 571.447,671.447 571.447,651.447" transform="rotate(0 0 0)" fill="yellow" stroke="black" stroke-width="0.5" />
<polygon points="571.447,651.447 571.447,671.447 631.447,671.447 631.447,651.447" transform="rotate(0 0 0)" fill="yellow" stroke="black" stroke-width="0.5" />
<polygon points="631.447,651.447 631.447,671.447 691.447,671.447 691.447,651.447" transform="rotate(0 0 0)" fill="yellow" stroke="black" stroke-width="0.5" />
<polygon points="691.447,651.447 691.447,671.447 751.447,671.447 751.447,651.447" transform="rotate(0 0 0)" fill="yellow" stroke="black" stroke-width="0.5" />
<polygon points="751.447,651.447 751.447,671.447 811.447,671.447 811.447,651.447" transform="rotate(0 0 0)" fill="yellow" stroke="black" stroke-width="0.5" />
<polygon points="151.447,671.447 151.447,691.447 211.447,691.447 211.447,671.447" transform="rotate(0 0 0)" fill="yellow" stroke="black" stroke-width="0.5" />
<polygon points="211.447,671.447 211.447,691.447 271.447,691.447 271.447,671.447" transform="rotate(0 0 0)" fill="yellow" stroke="black" stroke-width="0.5" />
<polygon points="271.447,671.447 271.447,691.447 331.447,691.447 331.447,671.447" transform="rotate(0 0 0)" fill="yellow" stroke="black" stroke-width="0.5" />
<polygon points="331.447,671.447 331.447,691.447 391.447,691.447 391.447,671.447" transform="rotate(0 0 0)" fill="yellow" stroke="black" stroke-width="0.5" />
<polygon points="391.447,671.447 391.447,691.447 451.447,691.447 451.447,671.447" transform="rotate(0 0 0)" fill="yellow" stroke="black" stroke-width="0.5" />
<polygon points="451.447,671.447 451.447,691.447 511.447,691.447 511.447,671.447" transform="rotate(0 0 0)" fill="yellow" stroke="black" stroke-width="0.5" />
<polygon points="511.447,671.447 511.447,691.447 571.447,691.447 571.447,671.447" transform="rotate(0 0 0)" fill="yellow" stroke="black" stroke-width="0.5" />
<polygon points="571.447,671.447 571.447,691.447 631.447,691.447 631.447,671.447" transform="rotate(0 0 0)" fill="yellow" stroke="black" stroke-width="0.5" />
<polygon points="631.447,671.447 631.447,691.447 691.447,691.447 691.447,671.447" transform="rotate(0 0 0)" fill="yellow" stroke="black" stroke-width="0.5" />
<polygon points="691.447,671.447 691.447,691.447 751.447,691.447 751.447,671.447" transform="rotate(0 0 0)" fill="yellow" stroke="black" stroke-width="0.5" />
<polygon points="751.447,671.447 751.447,691.447 811.447,691.447 811.447,671.447" transform="rotate(0 0 0)" fill="yellow" stroke="black" stroke-width="0.5" />
<polygon points="151.447,691.447 151.447,711.447 211.447,711.447 211.447,691.447" transform="rotate(0 0 0)" fill="yellow" stroke="black" stroke-width="0.5" />
<polygon points="211.447,691.447 211.447,711.447 271.447,711.447 271.447,691.447" transform="rotate(0 0 0)" fill="yellow" stroke="black" stroke-width="0.5" />
<polygon points="271.447,691.447 271.447,711.447 331.447,711.447 331.447,691.447" transform="rotate(0 0 0)" fill="yellow" stroke="black" stroke-width="0.5" />
<polygon points="331.447,691.447 331.447,711.447 391.447,711.447 391.447,691.447" transform="rotate(0 0 0)" fill="yellow" stroke="black" stroke-width="0.5" />
<polygon points="391.447,691.447 391.447,711.447 451.447,711.447 451.447,691.447" transform="rotate(0 0 0)" fill="yellow" stroke="black" stroke-width="0.5" />
<polygon points="451.447,691.447 451.447,711.447 511.447,711.447 511.447,691.447" transform="rotate(0 0 0)" fill="yellow" stroke="black" stroke-width="0.5" />
<polygon points="511.447,691.447 511.447,711.447 571.447,711.447 571.447,691.447" transform="rotate(0 0 0)" fill="yellow" stroke="black" stroke-width="0.5" />
<polygon points="571.447,691.447 571.447,711.447 631.447,711.447 631.447,691.447" transform="rotate(0 0 0)" fill="yellow" stroke="black" stroke-width="0.5" />
<polygon points="631.447,691.447 631.447,711.447 691.447,711.447 691.447,691.447" transform="rotate(0 0 0)" fill="yellow" stroke="black" stroke-width="0.5" />
<polygon points="691.447,691.447 691.447,711.447 751.447,711.447 751.447,691.447" transform="rotate(0 0 0)" fill="yellow" stroke="black" stroke-width="0.5" />
<polygon points="751.447,691.447 751.447,711.447 811.447,711.447 811.447,691.447" transform="rotate(0 0 0)" fill="yellow" stroke="black" stroke-width="0.5" />
<polygon points="151.447,711.447 151.447,731.447 211.447,731.447 211.447,711.447" transform="rotate(0 0 0)" fill="yellow" stroke="black" stroke-width="0.5" />
<polygon points="211.447,711.447 211.447,731.447 271.447,731.447 271.447,711.447" transform="rotate(0 0 0)" fill="yellow" stroke="black" stroke-width="0.5" />
<polygon points="271.447,711.447 271.447,731.447 331.447,731.447 331.447,711.447" transform="rotate(0 0 0)" fill="yellow" stroke="black" stroke-width="0.5" />
<polygon points="331.447,711.447 331.447,731.447 391.447,731.447 391.447,711.447" transform="rotate(0 0 0)" fill="yellow" stroke="black" stroke-width="0.5" />
<polygon points="391.447,711.447 391.447,731.447 451.447,731.447 451.447,711.447" transform="rotate(0 0 0)" fill="yellow" stroke="black" stroke-width="0.5" />
<polygon points="451.447,711.447 451.447,731.447 511.447,731.447 511.447,711.447" transform="rotate(0 0 0)" fill="yellow" stroke="black" stroke-width="0.5" />
<polygon points="511.447,711.447 511.447,731.447 571.447,731.447 571.447,711.447" transform="rotate(0 0 0)" fill="yellow" stroke="black" stroke-width="0.5" />
<polygon points="571.447,711.447 571.447,731.447 631.447,731.447 631.447,711.447" transform="rotate(0 0 0)" fill="yellow" stroke="black" stroke-width="0.5" />
<polygon points="631.447,711.447 631.447,731.447 691.447,731.447 691.447,711.447" transform="rotate(0 0 0)" fill="yellow" stroke="black" stroke-width="0.5" />
<polygon points="691.447,711.447 691.447,731.447 751.447,731.447 751.447,711.447" transform="rotate(0 0 0)" fill="yellow" stroke="black" stroke-width="0.5" />
<polygon points="751.447,711.447 751.447,731.447 811.447,731.447 811.447,711.447" transform="rotate(0 0 0)" fill="yellow" stroke="black" stroke-width="0.5" />
<polygon points="151.447,731.447 151.447,751.447 211.447,751.447 211.447,731.447" transform="rotate(0 0 0)" fill="yellow" stroke="black" stroke-width="0.5" />
<polygon points="211.447,731.447 211.447,751.447 271.447,751.447 271.447,731.447" transform="rotate(0 0 0)" fill="yellow" stroke="black" stroke-width="0.5" />
<polygon points="271.447,731.447 271.447,751.447 331.447,751.447 331.447,731.447" transform="rotate(0 0 0)" fill="yellow" stroke="black" stroke-width="0.5" />
<polygon points="331.447,731.447 331.447,751.447 391.447,751.447 391.447,731.447" transform="rotate(0 0 0)" fill="yellow" stroke="black" stroke-width="0.5" />
<polygon points="391.447,731.447 391.447,751.447 451.447,751.447 451.447,731.447" transform="rotate(0 0 0)" fill="yellow" stroke="black" stroke-width="0.5" />
<polygon points="451.447,731.447 451.447,751.447 511.447,751.447 511.447,731.447" transform="rotate(0 0 0)" fill="yellow" stroke="black" stroke-width="0.5" />
<polygon points="511.447,731.447 511.447,751.447 571.447,751.447 571.447,731.447" transform="rotate(0 0 0)" fill="yellow" stroke="black" stroke-width="0.5" />
<polygon points="571.447,731.447 571.447,751.447 631.447,751.447 631.447,731.447" transform="rotate(0 0 0)" fill="yellow" stroke="black" stroke-width="0.5" />
<polygon points="631.447,731.447 631.447,751.447 691.447,751.447 691.447,731.447" transform="rotate(0 0 0)" fill="yellow" stroke="black" stroke-width="0.5" />
<polygon points="691.447,731.447 691.447,751.447 751.447,751.447 751.447,731.447" transform="rotate(0 0 0)" fill="yellow" stroke="black" stroke-width="0.5" />
<polygon points="751.447,731.447 751.447,751.447 811.447,751.447 811.447,731.447" transform="rotate(0 0 0)" fill="yellow" stroke="black" stroke-width="0.5" />
<polygon points="151.447,751.447 151.447,771.447 211.447,771.447 211.447,751.447" transform="rotate(0 0 0)" fill="yellow" stroke="black" stroke-width="0.5" />
<polygon points="211.447,751.447 211.447,771.447 271.447,771.447 271.447,751.447" transform="rotate(0 0 0)" fill="yellow" stroke="black" stroke-width="0.5" />
<polygon points="271.447,751.447 271.447,771.447 331.447,771.447 331.447,751.447" transform="rotate(0 0 0)" fill="yellow" stroke="black" stroke-width="0.5" />
<polygon points="331.447,751.447 331.447,771.447 391.447,771.447 391.447,751.447" transform="rotate(0 0 0)" fill="yellow" stroke="black" stroke-width="0.5" />
<polygon points="391.447,751.447 391.447,771.447 451.447,771.447 451.447,751.447" transform="rotate(0 0 0)" fill="yellow" stroke="black" stroke-width="0.5" />
<polygon points="451.447,751.447 451.447,771.447 511.447,771.447 511.447,751.447" transform="rotate(0 0 0)" fill="yellow" stroke="black" stroke-width="0.5" />
<polygon points="511.447,751.447 511.447,771.447 571.447,771.447 571.447,751.447" transform="rotate(0 0 0)" fill="yellow" stroke="black" stroke-width="0.5" />
<polygon points="571.447,751.447 571.447,771.447 631.447,771.447 631.447,751.447" transform="rotate(0 0 0)" fill="yellow" stroke="black" stroke-width="0.5" />
<polygon points="631.447,751.447 631.447,771.447 691.447,771.447 691.447,751.447" transform="rotate(0 0 0)" fill="yellow" stroke="black" stroke-width="0.5" />
<polygon points="691.447,751.447 691.447,771.447 751.447,771.447 751.447,751.447" transform="rotate(0 0 0)" fill="yellow" stroke="black" stroke-width="0.5" />
<polygon points="751.447,751.447 751.447,771.447 811.447,771.447 811.447,751.447" transform="rotate(0 0 0)" fill="yellow" stroke="black" stroke-width="0.5" />
<polygon points="151.447,771.447 151.447,791.447 211.447,791.447 211.447,771.447" transform="rotate(0 0 0)" fill="yellow" stroke="black" stroke-width="0.5" />
<polygon points="211.447,771.447 211.447,791.447 271.447,791.447 271.447,771.447" transform="rotate(0 0 0)" fill="yellow" stroke="black" stroke-width="0.5" />
<polygon points="271.447,771.447 271.447,791.447 331.447,791.447 331.447,771.447" transform="rotate(0 0 0)" fill="yellow" stroke="black" stroke-width="0.5" />
<polygon points="331.447,771.447 331.447,791.447 391.447,791.447 391.447,771.447" transform="rotate(0 0 0)" fill="yellow" stroke="black" stroke-width="0.5" />
<polygon points="391.447,771.447 391.447,791.447 451.447,791.447 451.447,771.447" transform="rotate(0 0 0)" fill="yellow" stroke="black" stroke-width="0.5" />
<polygon points="451.447,771.447 451.447,791.447 511.447,791.447 511.447,771.447" transform="rotate(0 0 0)" fill="yellow" stroke="black" stroke-width="0.5" />
<polygon points="511.447,771.447 511.447,791.447 571.447,791.447 571.447,771.447" transform="rotate(0 0 0)" fill="yellow" stroke="black" stroke-width="0.5" />
<polygon points="571.447,771.447 571.447,791.447 631.447,791.447 631.447,771.447" transform="rotate(0 0 0)" fill="yellow" stroke="black" stroke-width="0.5" />
<polygon points="631.447,771.447 631.447,791.447 691.447,791.447 691.447,771.447" transform="rotate(0 0 0)" fill="yellow" stroke="black" stroke-width="0.5" />
<polygon points="691.447,771.447 691.447,791.447 751.447,791.447 751.447,771.447" transform="rotate(0 0 0)" fill="yellow" stroke="black" stroke-width="0.5" />
<polygon points="751.447,771.447 751.447,791.447 811.447,791.447 811.447,771.447" transform="rotate(0 0 0)" fill="yellow" stroke="black" stroke-width="0.5" />
<polygon points="151.447,791.447 151.447,811.447 211.447,811.447 211.447,791.447" transform="rotate(0 0 0)" fill="yellow" stroke="black" stroke-width="0.5" />
<polygon points="211.447,791.447 211.447,811.447 271.447,811.447 271.447,791.447" transform="rotate(0 0 0)" fill="yellow" stroke="black" stroke-width="0.5" />
<polygon points="271.447,791.447 271.447,811.447 331.447,811.447 331.447,791.447" transform="rotate(0 0 0)" fill="yellow" stroke="black" stroke-width="0.5" />
<polygon points="331.447,791.447 331.447,811.447 391.447,811.447 391.447,791.447" transform="rotate(0 0 0)" fill="yellow" stroke="black" stroke-width="0.5" />
<polygon points="391.447,791.447 391.447,811.447 451.447,811.447 451.447,791.447" transform="rotate(0 0 0)" fill="yellow" stroke="black" stroke-width="0.5" />
<polygon points="451.447,791.447 451.447,811.447 511.447,811.447 511.447,791.447" transform="rotate(0 0 0)" fill="yellow" stroke="black" stroke-width="0.5" />
<polygon points="511.447,791.447 511.447,811.447 571.447,811.447 571.447,791.447" transform="rotate(0 0 0)" fill="yellow" stroke="black" stroke-width="0.5" />
<polygon points="571.447,791.447 571.447,811.447 631.447,811.447 631.447,791.447" transform="rotate(0 0 0)" fill="yellow" stroke="black" stroke-width="0.5" />
<polygon points="631.447,791.447 631.447,811.447 691.447,811.447 691.447,791.447" transform="rotate(0 0 0)" fill="yellow" stroke="black" stroke-width="0.5" />
<polygon points="691.447,791.447 691.447,811.447 751.447,811.447 751.447,791.447" transform="rotate(0 0 0)" fill="yellow" stroke="black" stroke-width="0.5" />
<polygon points="751.447,791.447 751.447,811.447 811.447,811.447 811.447,791.447" transform="rotate(0 0 0)" fill="yellow" stroke="black" stroke-width="0.5" />
<polygon points="151.447,811.447 151.447,831.447 211.447,831.447 211.447,811.447" transform="rotate(0 0 0)" fill="yellow" stroke="black" stroke-width="0.5" />
<polygon points="211.447,811.447 211.447,831.447 271.447,831.447 271.447,811.447" transform="rotate(0 0 0)" fill="yellow" stroke="black" stroke-width="0.5" />
<polygon points="271.447,811.447 271.447,831.447 331.447,831.447 331.447,811.447" transform="rotate(0 0 0)" fill="yellow" stroke="black" stroke-width="0.5" />
<polygon points="331.447,811.447 331.447,831.447 391.447,831.447 391.447,811.447" transform="rotate(0 0 0)" fill="yellow" stroke="black" stroke-width="0.5" />
<polygon points="391.447,811.447 391.447,831.447 451.447,831.447 451.447,811.447" transform="rotate(0 0 0)" fill="yellow" stroke="black" stroke-width="0.5" />
<polygon points="451.447,811.447 451.447,831.447 511.447,831.447 511.447,811.447" transform="rotate(0 0 0)" fill="yellow" stroke="black" stroke-width="0.5" />
<polygon points="511.447,811.447 511.447,831.447 571.447,831.447 571.447,811.447" transform="rotate(0 0 0)" fill="yellow" stroke="black" stroke-width="0.5" />
<polygon points="571.447,811.447 571.447,831.447 631.447,831.447 631.447,811.447" transform="rotate(0 0 0)" fill="yellow" stroke="black" stroke-width="0.5" />
<polygon points="631.447,811.447 631.447,831.447 691.447,831.447 691.447,811.447" transform="rotate(0 0 0)" fill="yellow" stroke="black" stroke-width="0.5" />
<polygon points="691.447,811.447 691.447,831.447 751.447,831.447 751.447,811.447" transform="rotate(0 0 0)" fill="yellow" stroke="black" stroke-width="0.5" />
<polygon points="751.447,811.447 751.447,831.447 811.447,831.447 811.447,811.447" transform="rotate(0 0 0)" fill="yellow" stroke="black" stroke-width="0.5" />
<polygon points="151.447,831.447 151.447,851.447 211.447,851.447 211.447,831.447" transform="rotate(0 0 0)" fill="yellow" stroke="black" stroke-width="0.5" />
<polygon points="211.447,831.447 211.447,851.447 271.447,851.447 271.447,831.447" transform="rotate(0 0 0)" fill="yellow" stroke="black" stroke-width="0.5" />
<polygon points="271.447,831.447 271.447,851.447 331.447,851.447 331.447,831.447" transform="rotate(0 0 0)" fill="yellow" stroke="black" stroke-width="0.5" />
<polygon points="331.447,831.447 331.447,851.447 391.447,851.447 391.447,831.447" transform="rotate(0 0 0)" fill="yellow" stroke="black" stroke-width="0.5" />
<polygon points="391.447,831.447 391.447,851.447 451.447,851.447 451.447,831.447" transform="rotate(0 0 0)" fill="yellow" stroke="black" stroke-width="0.5" />
<polygon points="451.447,831.447 451.447,851.447 511.447,851.447 511.447,831.447" transform="rotate(0 0 0)" fill="yellow" stroke="black" stroke-width="0.5" />
<polygon points="511.447,831.447 511.447,851.447 571.447,851.447 571.447,831.447" transform="rotate(0 0 0)" fill="yellow" stroke="black" stroke-width="0.5" />
<polygon points="571.447,831.447 571.447,851.447 631.447,851.447 631.447,831.447" transform="rotate(0 0 0)" fill="yellow" stroke="black" stroke-width="0.5" />
<polygon points="631.447,831.447 631.447,851.447 691.447,851.447 691.447,831.447" transform="rotate(0 0 0)" fill="yellow" stroke="black" stroke-width="0.5" />
<polygon points="691.447,831.447 691.447,851.447 751.447,851.447 751.447,831.447" transform="rotate(0 0 0)" fill="yellow" stroke="black" stroke-width="0.5" />
<polygon points="751.447,831.447 751.447,851.447 811.447,851.447 811.447,831.447" transform="rotate(0 0 0)" fill="yellow" stroke="black" stroke-width="0.5" />
<polygon points="811.447,151.447 811.447,211.447 831.447,211.447 831.447,151.447" transform="rotate(0 0 0)" fill="yellow" stroke="black" stroke-width="0.5" />
<polygon points="811.447,211.447 811.447,271.447 831.447,271.447 831.447,211.447" transform="rotate(0 0 0)" fill="yellow" stroke="black" stroke-width="0.5" />
<polygon points="811.447,271.447 811.447,331.447 831.447,331.447 831.447,271.447" transform="rotate(0 0 0)" fill="yellow" stroke="black" stroke-width="0.5" />
<polygon points="811.447,331.447 811.447,391.447 831.447,391.447 831.447,331.447" transform="rotate(0 0 0)" fill="yellow" stroke="black" stroke-width="0.5" />
<polygon points="811.447,391.447 811.447,451.447 831.447,451.447 831.447,391.447" transform="rotate(0 0 0)" fill="yellow" stroke="black" stroke-width="0.5" />
<polygon points="811.447,451.447 811.447,511.447 831.447,511.447 831.447,451.447" transform="rotate(0 0 0)" fill="yellow" stroke="black" stroke-width="0.5" />
<polygon points="811.447,511.447 811.447,571.447 831.447,571.447 831.447,511.447" transform="rotate(0 0 0)" fill="yellow" stroke="black" stroke-width="0.5" />
<polygon points="811.447,571.447 811.447,631.447 831.447,631.447 831.447,571.447" transform="rotate(0 0 0)" fill="yellow" stroke="black" stroke-width="0.5" />
<polygon points="811.447,631.447 811.447,691.447 831.447,691.447 831.447,631.447" transform="rotate(0 0 0)" fill="yellow" stroke="black" stroke-width="0.5" />
<polygon points="811.447,691.447 811.447,751.447 831.447,751.447 831.447,691.447" transform="rotate(0 0 0)" fill="yellow" stroke="black" stroke-width="0.5" />
<polygon points="811.447,751.447 811.447,811.447 831.447,811.447 831.447,751.447" transform="rotate(0 0 0)" fill="yellow" stroke="black" stroke-width="0.5" />
<polygon points="831.447,151.447 831.447,211.447 851.447,211.447 851.447,151.447" transform="rotate(0 0 0)" fill="yellow" stroke="black" stroke-width="0.5" />
<polygon points="831.447,211.447 831.447,271.447 851.447,271.447 851.447,211.447" transform="rotate(0 0 0)" fill="yellow" stroke="black" stroke-width="0.5" />
<polygon points="831.447,271.447 831.447,331.447 851.447,331.447 851.447,271.447" transform="rotate(0 0 0)" fill="yellow" stroke="black" stroke-width="0.5" />
<polygon points="831.447,331.447 831.447,391.447 851.447,391.447 851.447,331.447" transform="rotate(0 0 0)" fill="yellow" stroke="black" stroke-width="0.5" />
<polygon points="831.447,391.447 831.447,451.447 851.447,451.447 851.447,391.447" transform="rotate(0 0 0)" fill="yellow" stroke="black" stroke-width="0.5" />
<polygon points="831.447,451.447 831.447,511.447 851.447,511.447 851.447,451.447" transform="rotate(0 0 0)" fill="yellow" stroke="black" stroke-width="0.5" />
<polygon points="831.447,511.447 831.447,571.447 851.447,571.447 851.447,511.447" transform="rotate(0 0 0)" fill="yellow" stroke="black" stroke-width="0.5" />
<polygon points="831.447,571.447 831.447,631.447 851.447,631.447 851.447,571.447" transform="rotate(0 0 0)" fill="yellow" stroke="black" stroke-width="0.5" />
<polygon points="831.447,631.447 831.447,691.447 851.447,691.447 851.447,631.447" transform="rotate(0 0 0)" fill="yellow" stroke="black" stroke-width="0.5" />
<polygon points="831.447,691.447 831.447,751.447 851.447,751.447 851.447,691.447" transform="rotate(0 0 0)" fill="yellow" stroke="black" stroke-width="0.5" />
<polygon points="831.447,751.447 831.447,811.447 851.447,811.447 851.447,751.447" transform="rotate(0 0 0)" fill="yellow" stroke="black" stroke-width="0.5" />
<polygon points="505,858.553 505,878.553 565,878.553 565,858.553" transform="rotate(0 505 505)" fill="yellow" stroke="black" stroke-width="0.5" />
<polygon points="445,858.553 445,878.553 505,878.553 505,858.553" transform="rotate(0 505 505)" fill="yellow" stroke="black" stroke-width="0.5" />
<polygon points="565,858.553 565,878.553 625,878.553 625,858.553" transform="rotate(0 505 505)" fill="yellow" stroke="black" stroke-width="0.5" />
<polygon points="385,858.553 385,878.553 445,878.553 445,858.553" transform="rotate(0 505 505)" fill="yellow" stroke="black" stroke-width="0.5" />
<polygon points="625,858.553 625,878.553 685,878.553 685,858.553" transform="rotate(0 505 505)" fill="yellow" stroke="black" stroke-width="0.5" />
<polygon points="325,858.553 325,878.553 385,878.553 385,858.553" transform="rotate(0 505 505)" fill="yellow" stroke="black" stroke-width="0.5" />
<polygon points="685,858.553 685,878.553 745,878.553 745,858.553" transform="rotate(0 505 505)" fill="yellow" stroke="black" stroke-width="0.5" />
<polygon points="265,858.553 265,878.553 325,878.553 325,858.553" transform="rotate(0 505 505)" fill="yellow" stroke="black" stroke-width="0.5" />
<polygon points="745,858.553 745,878.553 805,878.553 805,858.553" transform="rotate(0 505 505)" fill="yellow" stroke="black" stroke-width="0.5" />
<polygon points="205,858.553 205,878.553 265,878.553 265,858.553" transform="rotate(0 505 505)" fill="yellow" stroke="black" stroke-width="0.5" />
<polygon points="505,878.553 505,898.553 565,898.553 565,878.553" transform="rotate(0 505 505)" fill="yellow" stroke="black" stroke-width="0.5" />
<polygon points="445,878.553 445,898.553 505,898.553 505,878.553" transform="rotate(0 505 505)" fill="yellow" stroke="black" stroke-width="0.5" />
<polygon points="565,878.553 565,898.553 625,898.553 625,878.553" transform="rotate(0 505 505)" fill="yellow" stroke="black" stroke-width="0.5" />
<polygon points="385,878.553 385,898.553 445,898.553 445,878.553" transform="rotate(0 505 505)" fill="yellow" stroke="black" stroke-width="0.5" />
<polygon points="625,878.553 625,898.553 685,898.553 685,878.553" transform="rotate(0 505 505)" fill="yellow" stroke="black" stroke-width="0.5" />
<polygon points="325,878.553 325,898.553 385,898.553 385,878.553" transform="rotate(0 505 505)" fill="yellow" stroke="black" stroke-width="0.5" />
<polygon points="685,878.553 685,898.553 745,898.553 745,878.553" transform="rotate(0 505 505)" fill="yellow" stroke="black" stroke-width="0.5" />
<polygon points="265,878.553 265,898.553 325,898.553 325,878.553" transform="rotate(0 505 505)" fill="yellow" stroke="black" stroke-width="0.5" />
<polygon points="745,878.553 745,898.553 805,898.553 805,878.553" transform="rotate(0 505 505)" fill="yellow" stroke="black" stroke-width="0.5" />
<polygon points="205,878.553 205,898.553 265,898.553 265,878.553" transform="rotate(0 505 505)" fill="yellow" stroke="black" stroke-width="0.5" />
<polygon points="505,898.553 505,918.553 565,918.553 565,898.553" transform="rotate(0 505 505)" fill="yellow" stroke="black" stroke-width="0.5" />
<polygon points="445,898.553 445,918.553 505,918.553 505,898.553" transform="rotate(0 505 505)" fill="yellow" stroke="black" stroke-width="0.5" />
<polygon points="565,898.553 565,918.553 625,918.553 625,898.553" transform="rotate(0 505 505)" fill="yellow" stroke="black" stroke-width="0.5" />
<polygon points="385,898.553 385,918.553 445,918.553 445,898.553" transform="rotate(0 505 505)" fill="yellow" stroke="black" stroke-width="0.5" />
<polygon points="625,898.553 625,918.553 685,918.553 685,898.553" transform="rotate(0 505 505)" fill="yellow" stroke="black" stroke-width="0.5" />
<polygon points="325,898.553 325,918.553 385,918.553 385,898.553" transform="rotate(0 505 505)" fill="yellow" stroke="black" stroke-width="0.5" />
<polygon points="685,898.553 685,918.553 745,918.553 745,898.553" transform="rotate(0 505 505)" fill="yellow" stroke="black" stroke-width="0.5" />
<polygon points="265,898.553 265,918.553 325,918.553 325,898.553" transform="rotate(0 505 505)" fill="yellow" stroke="black" stroke-width="0.5" />
<polygon points="505,918.553 505,938.553 565,938.553 565,918.553" transform="rotate(0 505 505)" fill="yellow" stroke="black" stroke-width="0.5" />
<polygon points="445,918.553 445,938.553 505,938.553 505,918.553" transform="rotate(0 505 505)" fill="yellow" stroke="black" stroke-width="0.5" />
<polygon points="565,918.553 565,938.553 625,938.553 625,918.553" transform="rotate(0 505 505)" fill="yellow" stroke="black" stroke-width="0.5" />
<polygon points="385,918.553 385,938.553 445,938.553 445,918.553" transform="rotate(0 505 505)" fill="yellow" stroke="black" stroke-width="0.5" />
<polygon points="625,918.553 625,938.553 685,938.553 685,918.553" transform="rotate(0 505 505)" fill="yellow" stroke="black" stroke-width="0.5" />
<polygon points="325,918.553 325,938.553 385,938.553 385,918.553" transform="rotate(0 505 505)" fill="yellow" stroke="black" stroke-width="0.5" />
<polygon points="685,918.553 685,938.553 745,938.553 745,918.553" transform="rotate(0 505 505)" fill="yellow" stroke="black" stroke-width="0.5" />
<polygon points="265,918.553 265,938.553 325,938.553 325,918.553" transform="rotate(0 505 505)" fill="yellow" stroke="black" stroke-width="0.5" />
<polygon points="505,938.553 505,958.553 565,958.553 565,938.553" transform="rotate(0 505 505)" fill="yellow" stroke="black" stroke-width="0.5" />
<polygon points="445,938.553 445,958.553 505,958.553 505,938.553" transform="rotate(0 505 505)" fill="yellow" stroke="black" stroke-width="0.5" />
<polygon points="565,938.553 565,958.553 625,958.553 625,938.553" transform="rotate(0 505 505)" fill="yellow" stroke="black" stroke-width="0.5" />
<polygon points="385,938.553 385,958.553 445,958.553 445,938.553" transform="rotate(0 505 505)" fill="yellow" stroke="black" stroke-width="0.5" />
<polygon points="625,938.553 625,958.553 685,958.553 685,938.553" transform="rotate(0 505 505)" fill="yellow" stroke="black" stroke-width="0.5" />
<polygon points="325,938.553 325,958.553 385,958.553 385,938.553" transform="rotate(0 505 505)" fill="yellow" stroke="black" stroke-width="0.5" />
<polygon points="505,958.553 505,978.553 565,978.553 565,958.553" transform="rotate(0 505 505)" fill="yellow" stroke="black" stroke-width="0.5" />
<polygon points="445,958.553 445,978.553 505,978.553 505,958.553" transform="rotate(0 505 505)" fill="yellow" stroke="black" stroke-width="0.5" />
<polygon points="565,958.553 565,978.553 625,978.553 625,958.553" transform="rotate(0 505 505)" fill="yellow" stroke="black" stroke-width="0.5" />
<polygon points="385,958.553 385,978.553 445,978.553 445,958.553" transform="rotate(0 505 505)" fill="yellow" stroke="black" stroke-width="0.5" />
<polygon points="505,978.553 505,998.553 565,998.553 565,978.553" transform="rotate(0 505 505)" fill="yellow" stroke="black" stroke-width="0.5" />
<polygon points="445,978.553 445,998.553 505,998.553 505,978.553" transform="rotate(0 505 505)" fill="yellow" stroke="black" stroke-width="0.5" />
<polygon points="505,858.553 505,878.553 565,878.553 565,858.553" transform="rotate(90 505 505)" fill="yellow" stroke="black" stroke-width="0.5" />
<polygon points="445,858.553 445,878.553 505,878.553 505,858.553" transform="rotate(90 505 505)" fill="yellow" stroke="black" stroke-width="0.5" />
<polygon points="565,858.553 565,878.553 625,878.553 625,858.553" transform="rotate(90 505 505)" fill="yellow" stroke="black" stroke-width="0.5" />
<polygon points="385,858.553 385,878.553 445,878.553 445,858.553" transform="rotate(90 505 505)" fill="yellow" stroke="black" stroke-width="0.5" />
<polygon points="625,858.553 625,878.553 685,878.553 685,858.553" transform="rotate(90 505 505)" fill="yellow" stroke="black" stroke-width="0.5" />
<polygon points="325,858.553 325,878.553 385,878.553 385,858.553" transform="rotate(90 505 505)" fill="yellow" stroke="black" stroke-width="0.5" />
<polygon points="685,858.553 685,878.553 745,878.553 745,858.553" transform="rotate(90 505 505)" fill="yellow" stroke="black" stroke-width="0.5" />
<polygon points="265,858.553 265,878.553 325,878.553 325,858.553" transform="rotate(90 505 505)" fill="yellow" stroke="black" stroke-width="0.5" />
<polygon points="745,858.553 745,878.553 805,878.553 805,858.553" transform="rotate(90 505 505)" fill="yellow" stroke="black" stroke-width="0.5" />
<polygon points="205,858.553 205,878.553 265,878.553 265,858.553" transform="rotate(90 505 505)" fill="yellow" stroke="black" stroke-width="0.5" />
<polygon points="505,878.553 505,898.553 565,898.553 565,878.553" transform="rotate(90 505 505)" fill="yellow" stroke="black" stroke-width="0.5" />
<polygon points="445,878.553 445,898.553 505,898.553 505,878.553" transform="rotate(90 505 505)" fill="yellow" stroke="black" stroke-width="0.5" />
<polygon points="565,878.553 565,898.553 625,898.553 625,878.553" transform="rotate(90 505 505)" fill="yellow" stroke="black" stroke-width="0.5" />
<polygon points="385,878.553 385,898.553 445,898.553 445,878.553" transform="rotate(90 505 505)" fill="yellow" stroke="black" stroke-width="0.5" />
<polygon points="625,878.553 625,898.553 685,898.553 685,878.553" transform="rotate(90 505 505)" fill="yellow" stroke="black" stroke-width="0.5" />
<polygon points="325,878.553 325,898.553 385,898.553 385,878.553" transform="rotate(90 505 505)" fill="yellow" stroke="black" stroke-width="0.5" />
<polygon points="685,878.553 685,898.553 745,898.553 745,878.553" transform="rotate(90 505 505)" fill="yellow" stroke="black" stroke-width="0.5" />
<polygon points="265,878.553 265,898.553 325,898.553 325,878.553" transform="rotate(90 505 505)" fill="yellow" stroke="black" stroke-width="0.5" />
<polygon points="745,878.553 745,898.553 805,898.553 805,878.553" transform="rotate(90 505 505)" fill="yellow" stroke="black" stroke-width="0.5" />
<polygon points="205,878.553 205,898.553 265,898.553 265,878.553" transform="rotate(90 505 505)" fill="yellow" stroke="black" stroke-width="0.5" />
<polygon points="505,898.553 505,918.553 565,918.553 565,898.553" transform="rotate(90 505 505)" fill="yellow" stroke="black" stroke-width="0.5" />
<polygon points="445,898.553 445,918.553 505,918.553 505,898.553" transform="rotate(90 505 505)" fill="yellow" stroke="black" stroke-width="0.5" />
<polygon points="565,898.553 565,918.553 625,918.553 625,898.553" transform="rotate(90 505 505)" fill="yellow" stroke="black" stroke-width="0.5" />
<polygon points="385,898.553 385,918.553 445,918.553 445,898.553" transform="rotate(90 505 505)" fill="yellow" stroke="black" stroke-width="0.5" />
<polygon points="625,898.553 625,918.553 685,918.553 685,898.553" transform="rotate(90 505 505)" fill="yellow" stroke="black" stroke-width="0.5" />
<polygon points="325,898.553 325,918.553 385,918.553 385,898.553" transform="rotate(90 505 505)" fill="yellow" stroke="black" stroke-width="0.5" />
<polygon points="685,898.553 685,918.553 745,918.553 745,898.553" transform="rotate(90 505 505)" fill="yellow" stroke="black" stroke-width="0.5" />
<polygon points="265,898.553 265,918.553 325,918.553 325,898.553" transform="rotate(90 505 505)" fill="yellow" stroke="black" stroke-width="0.5" />
<polygon points="505,918.553 505,938.553 565,938.553 565,918.553" transform="rotate(90 505 505)" fill="yellow" stroke="black" stroke-width="0.5" />
<polygon points="445,918.553 445,938.553 505,938.553 505,918.553" transform="rotate(90 505 505)" fill="yellow" stroke="black" stroke-width="0.5" />
<polygon points="565,918.553 565,938.553 625,938.553 625,918.553" transform="rotate(90 505 505)" fill="yellow" stroke="black" stroke-width="0.5" />
<polygon points="385,918.553 385,938.553 445,938.553 445,918.553" transform="rotate(90 505 505)" fill="yellow" stroke="black" stroke-width="0.5" />
<polygon points="625,918.553 625,938.553 685,938.553 685,918.553" transform="rotate(90 505 505)" fill="yellow" stroke="black" stroke-width="0.5" />
<polygon points="325,918.553 325,938.553 385,938.553 385,918.553" transform="rotate(90 505 505)" fill="yellow" stroke="black" stroke-width="0.5" />
<polygon points="685,918.553 685,938.553 745,938.553 745,918.553" transform="rotate(90 505 505)" fill="yellow" stroke="black" stroke-width="0.5" />
<polygon points="265,918.553 265,938.553 325,938.553 325,918.553" transform="rotate(90 505 505)" fill="yellow" stroke="black" stroke-width="0.5" />
<polygon points="505,938.553 505,958.553 565,958.553 565,938.553" transform="rotate(90 505 505)" fill="yellow" stroke="black" stroke-width="0.5" />
<polygon points="445,938.553 445,958.553 505,958.553 505,938.553" transform="rotate(90 505 505)" fill="yellow" stroke="black" stroke-width="0.5" />
<polygon points="565,938.553 565,958.553 625,958.553 625,938.553" transform="rotate(90 505 505)" fill="yellow" stroke="black" stroke-width="0.5" />
<polygon points="385,938.553 385,958.553 445,958.553 445,938.553" transform="rotate(90 505 505)" fill="yellow" stroke="black" stroke-width="0.5" />
<polygon points="625,938.553 625,958.553 685,958.553 685,938.553" transform="rotate(90 505 505)" fill="yellow" stroke="black" stroke-width="0.5" />
<polygon points="325,938.553 325,958.553 385,958.553 385,938.553" transform="rotate(90 505 505)" fill="yellow" stroke="black" stroke-width="0.5" />
<polygon points="505,958.553 505,978.553 565,978.553 565,958.553" transform="rotate(90 505 505)" fill="yellow" stroke="black" stroke-width="0.5" />
<polygon points="445,958.553 445,978.553 505,978.553 505,958.553" transform="rotate(90 505 505)" fill="yellow" stroke="black" stroke-width="0.5" />
<polygon points="565,958.553 565,978.553 625,978.553 625,958.553" transform="rotate(90 505 505)" fill="yellow" stroke="black" stroke-width="0.5" />
<polygon points="385,958.553 385,978.553 445,978.553 445,958.553" transform="rotate(90 505 505)" fill="yellow" stroke="black" stroke-width="0.5" />
<polygon points="505,978.553 505,998.553 565,998.553 565,978.553" transform="rotate(90 505 505)" fill="yellow" stroke="black" stroke-width="0.5" />
<polygon points="445,978.553 445,998.553 505,998.553 505,978.553" transform="rotate(90 505 505)" fill="yellow" stroke="black" stroke-width="0.5" />
<polygon points="505,858.553 505,878.553 565,878.553 565,858.553" transform="rotate(180 505 505)" fill="yellow" stroke="black" stroke-width="0.5" />
<polygon points="445,858.553 445,878.553 505,878.553 505,858.553" transform="rotate(180 505 505)" fill="yellow" stroke="black" stroke-width="0.5" />
<polygon points="565,858.553 565,878.553 625,878.553 625,858.553" transform="rotate(180 505 505)" fill="yellow" stroke="black" stroke-width="0.5" />
<polygon points="385,858.553 385,878.553 445,878.553 445,858.553" transform="rotate(180 505 505)" fill="yellow" stroke="black" stroke-width="0.5" />
<polygon points="625,858.553 625,878.553 685,878.553 685,858.553" transform="rotate(180 505 505)" fill="yellow" stroke="black" stroke-width="0.5" />
<polygon points="325,858.553 325,878.553 385,878.553 385,858.553" transform="rotate(180 505 505)" fill="yellow" stroke="black" stroke-width="0.5" />
<polygon points="685,858.553 685,878.553 745,878.553 745,858.553" transform="rotate(180 505 505)" fill="yellow" stroke="black" stroke-width="0.5" />
<polygon points="265,858.553 265,878.553 325,878.553 325,858.553" transform="rotate(180 505 505)" fill="yellow" stroke="black" stroke-width="0.5" />
<polygon points="745,858.553 745,878.553 805,878.553 805,858.553" transform="rotate(180 505 505)" fill="yellow" stroke="black" stroke-width="0.5" />
<polygon points="205,858.553 205,878.553 265,878.553 265,858.553" transform="rotate(180 505 505)" fill="yellow" stroke="black" stroke-width="0.5" />
<polygon points="505,878.553 505,898.553 565,898.553 565,878.553" transform="rotate(180 505 505)" fill="yellow" stroke="black" stroke-width="0.5" />
<polygon points="445,878.553 445,898.553 505,898.553 505,878.553" transform="rotate(180 505 505)" fill="yellow" stroke="black" stroke-width="0.5" />
<polygon points="565,878.553 565,898.553 625,898.553 625,878.553" transform="rotate(180 505 505)" fill="yellow" stroke="black" stroke-width="0.5" />
<polygon points="385,878.553 385,898.553 445,898.553 445,878.553" transform="rotate(180 505 505)" fill="yellow" stroke="black" stroke-width="0.5" />
<polygon points="625,878.553 625,898.553 685,898.553 685,878.553" transform="rotate(180 505 505)" fill="yellow" stroke="black" stroke-width="0.5" />
<polygon points="325,878.553 325,898.553 385,898.553 385,878.553" transform="rotate(180 505 505)" fill="yellow" stroke="black" stroke-width="0.5" />
<polygon points="685,878.553 685,898.553 745,898.553 745,878.553" transform="rotate(180 505 505)" fill="yellow" stroke="black" stroke-width="0.5" />
<polygon points="265,878.553 265,898.553 325,898.553 325,878.553" transform="rotate(180 505 505)" fill="yellow" stroke="black" stroke-width="0.5" />
<polygon points="745,878.553 745,898.553 805,898.553 805,878.553" transform="rotate(180 505 505)" fill="yellow" stroke="black" stroke-width="0.5" />
<polygon points="205,878.553 205,898.553 265,898.553 265,878.553" transform="rotate(180 505 505)" fill="yellow" stroke="black" stroke-width="0.5" />
<polygon points="505,898.553 505,918.553 565,918.553 565,898.553" transform="rotate(180 505 505)" fill="yellow" stroke="black" stroke-width="0.5" />
<polygon points="445,898.553 445,918.553 505,918.553 505,898.553" transform="rotate(180 505 505)" fill="yellow" stroke="black" stroke-width="0.5" />
<polygon points="565,898.553 565,918.553 625,918.553 625,898.553" transform="rotate(180 505 505)" fill="yellow" stroke="black" stroke-width="0.5" />
<polygon points="385,898.553 385,918.553 445,918.553 445,898.553" transform="rotate(180 505 505)" fill="yellow" stroke="black" stroke-width="0.5" />
<polygon points="625,898.553 625,918.553 685,918.553 685,898.553" transform="rotate(180 505 505)" fill="yellow" stroke="black" stroke-width="0.5" />
<polygon points="325,898.553 325,918.553 385,918.553 385,898.553" transform="rotate(180 505 505)" fill="yellow" stroke="black" stroke-width="0.5" />
<polygon points="685,898.553 685,918.553 745,918.553 745,898.553" transform="rotate(180 505 505)" fill="yellow" stroke="black" stroke-width="0.5" />
<polygon points="265,898.553 265,918.553 325,918.553 325,898.553" transform="rotate(180 505 505)" fill="yellow" stroke="black" stroke-width="0.5" />
<polygon points="505,918.553 505,938.553 565,938.553 565,918.553" transform="rotate(180 505 505)" fill="yellow" stroke="black" stroke-width="0.5" />
<polygon points="445,918.553 445,938.553 505,938.553 505,918.553" transform="rotate(180 505 505)" fill="yellow" stroke="black" stroke-width="0.5" />
<polygon points="565,918.553 565,938.553 625,938.553 625,918.553" transform="rotate(180 505 505)" fill="yellow" stroke="black" stroke-width="0.5" />
<polygon points="385,918.553 385,938.553 445,938.553 445,918.553" transform="rotate(180 505 505)" fill="yellow" stroke="black" stroke-width="0.5" />
<polygon points="625,918.553 625,938.553 685,938.553 685,918.553" transform="rotate(180 505 505)" fill="yellow" stroke="black" stroke-width="0.5" />
<polygon points="325,918.553 325,938.553 385,938.553 385,918.553" transform="rotate(180 505 505)" fill="yellow" stroke="black" stroke-width="0.5" />
<polygon points="685,918.553 685,938.553 745,938.553 745,918.553" transform="rotate(180 505 505)" fill="yellow" stroke="black" stroke-width="0.5" />
<polygon points="265,918.553 265,938.553 325,938.553 325,918.553" transform="rotate(180 505 505)" fill="yellow" stroke="black" stroke-width="0.5" />
<polygon points="505,938.553 505,958.553 565,958.553 565,938.553" transform="rotate(180 505 505)" fill="yellow" stroke="black" stroke-width="0.5" />
<polygon points="445,938.553 445,958.553 505,958.553 505,938.553" transform="rotate(180 505 505)" fill="yellow" stroke="black" stroke-width="0.5" />
<polygon points="565,938.553 565,958.553 625,958.553 625,938.553" transform="rotate(180 505 505)" fill="yellow" stroke="black" stroke-width="0.5" />
<polygon points="385,938.553 385,958.553 445,958.553 445,938.553" transform="rotate(180 505 505)" fill="yellow" stroke="black" stroke-width="0.5" />
<polygon points="625,938.553 625,958.553 685,958.553 685,938.553" transform="rotate(180 505 505)" fill="yellow" stroke="black" stroke-width="0.5" />
<polygon points="325,938.553 325,958.553 385,958.553 385,938.553" transform="rotate(180 505 505)" fill="yellow" stroke="black" stroke-width="0.5" />
<polygon points="505,958.553 505,978.553 565,978.553 565,958.553" transform="rotate(180 505 505)" fill="yellow" stroke="black" stroke-width="0.5" />
<polygon points="445,958.553 445,978.553 505,978.553 505,958.553" transform="rotate(180 505 505)" fill="yellow" stroke="black" stroke-width="0.5" />
<polygon points="565,958.553 565,978.553 625,978.553 625,958.553" transform="rotate(180 505 505)" fill="yellow" stroke="black" stroke-width="0.5" />
<polygon points="385,958.553 385,978.553 445,978.553 445,958.553" transform="rotate(180 505 505)" fill="yellow" stroke="black" stroke-width="0.5" />
<polygon points="505,978.553 505,998.553 565,998.553 565,978.553" transform="rotate(180 505 505)" fill="yellow" stroke="black" stroke-width="0.5" />
<polygon points="445,978.553 445,998.553 505,998.553 505,978.553" transform="rotate(180 505 505)" fill="yellow" stroke="black" stroke-width="0.5" />
<polygon points="505,858.553 505,878.553 565,878.553 565,858.553" transform="rotate(270 505 505)" fill="yellow" stroke="black" stroke-width="0.5" />
<polygon points="445,858.553 445,878.553 505,878.553 505,858.553" transform="rotate(270 505 505)" fill="yellow" stroke="black" stroke-width="0.5" />
<polygon points="565,858.553 565,878.553 625,878.553 625,858.553" transform="rotate(270 505 505)" fill="yellow" stroke="black" stroke-width="0.5" />
<polygon points="385,858.553 385,878.553 445,878.553 445,858.553" transform="rotate(270 505 505)" fill="yellow" stroke="black" stroke-width="0.5" />
<polygon points="625,858.553 625,878.553 685,878.553 685,858.553" transform="rotate(270 505 505)" fill="yellow" stroke="black" stroke-width="0.5" />
<polygon points="325,858.553 325,878.553 385,878.553 385,858.553" transform="rotate(270 505 505)" fill="yellow" stroke="black" stroke-width="0.5" />
<polygon points="685,858.553 685,878.553 745,878.553 745,858.553" transform="rotate(270 505 505)" fill="yellow" stroke="black" stroke-width="0.5" />
<polygon points="265,858.553 265,878.553 325,878.553 325,858.553" transform="rotate(270 505 505)" fill="yellow" stroke="black" stroke-width="0.5" />
<polygon points="745,858.553 745,878.553 805,878.553 805,858.553" transform="rotate(270 505 505)" fill="yellow" stroke="black" stroke-width="0.5" />
<polygon points="205,858.553 205,878.553 265,878.553 265,858.553" transform="rotate(270 505 505)" fill="yellow" stroke="black" stroke-width="0.5" />
<polygon points="505,878.553 505,898.553 565,898.553 565,878.553" transform="rotate(270 505 505)" fill="yellow" stroke="black" stroke-width="0.5" />
<polygon points="445,878.553 445,898.553 505,898.553 505,878.553" transform="rotate(270 505 505)" fill="yellow" stroke="black" stroke-width="0.5" />
<polygon points="565,878.553 565,898.553 625,898.553 625,878.553" transform="rotate(270 505 505)" fill="yellow" stroke="black" stroke-width="0.5" />
<polygon points="385,878.553 385,898.553 445,898.553 445,878.553" transform="rotate(270 505 505)" fill="yellow" stroke="black" stroke-width="0.5" />
<polygon points="625,878.553 625,898.553 685,898.553 685,878.553" transform="rotate(270 505 505)" fill="yellow" stroke="black" stroke-width="0.5" />
<polygon points="325,878.553 325,898.553 385,898.553 385,878.553" transform="rotate(270 505 505)" fill="yellow" stroke="black" stroke-width="0.5" />
<polygon points="685,878.553 685,898.553 745,898.553 745,878.553" transform="rotate(270 505 505)" fill="yellow" stroke="black" stroke-width="0.5" />
<polygon points="265,878.553 265,898.553 325,898.553 325,878.553" transform="rotate(270 505 505)" fill="yellow" stroke="black" stroke-width="0.5" />
<polygon points="745,878.553 745,898.553 805,898.553 805,878.553" transform="rotate(270 505 505)" fill="yellow" stroke="black" stroke-width="0.5" />
<polygon points="205,878.553 205,898.553 265,898.553 265,878.553" transform="rotate(270 505 505)" fill="yellow" stroke="black" stroke-width="0.5" />
<polygon points="505,898.553 505,918.553 565,918.553 565,898.553" transform="rotate(270 505 505)" fill="yellow" stroke="black" stroke-width="0.5" />
<polygon points="445,898.553 445,918.553 505,918.553 505,898.553" transform="rotate(270 505 505)" fill="yellow" stroke="black" stroke-width="0.5" />
<polygon points="565,898.553 565,918.553 625,918.553 625,898.553" transform="rotate(270 505 505)" fill="yellow" stroke="black" stroke-width="0.5" />
<polygon points="385,898.553 385,918.553 445,918.553 445,898.553" transform="rotate(270 505 505)" fill="yellow" stroke="black" stroke-width="0.5" />
<polygon points="625,898.553 625,918.553 685,918.553 685,898.553" transform="rotate(270 505 505)" fill="yellow" stroke="black" stroke-width="0.5" />
<polygon points="325,898.553 325,918.553 385,918.553 385,898.553" transform="rotate(270 505 505)" fill="yellow" stroke="black" stroke-width="0.5" />
<polygon points="685,898.553 685,918.553 745,918.553 745,898.553" transform="rotate(270 505 505)" fill="yellow" stroke="black" stroke-width="0.5" />
<polygon points="265,898.553 265,918.553 325,918.553 325,898.553" transform="rotate(270 505 505)" fill="yellow" stroke="black" stroke-width="0.5" />
<polygon points="505,918.553 505,938.553 565,938.553 565,918.553" transform="rotate(270 505 505)" fill="yellow" stroke="black" stroke-width="0.5" />
<polygon points="445,918.553 445,938.553 505,938.553 505,918.553" transform="rotate(270 505 505)" fill="yellow" stroke="black" stroke-width="0.5" />
<polygon points="565,918.553 565,938.553 625,938.553 625,918.553" transform="rotate(270 505 505)" fill="yellow" stroke="black" stroke-width="0.5" />
<polygon points="385,918.553 385,938.553 445,938.553 445,918.553" transform="rotate(270 505 505)" fill="yellow" stroke="black" stroke-width="0.5" />
<polygon points="625,918.553 625,938.553 685,938.553 685,918.553" transform="rotate(270 505 505)" fill="yellow" stroke="black" stroke-width="0.5" />
<polygon points="325,918.553 325,938.553 385,938.553 385,918.553" transform="rotate(270 505 505)" fill="yellow" stroke="black" stroke-width="0.5" />
<polygon points="685,918.553 685,938.553 745,938.553 745,918.553" transform="rotate(270 505 505)" fill="yellow" stroke="black" stroke-width="0.5" />
<polygon points="265,918.553 265,938.553 325,938.553 325,918.553" transform="rotate(270 505 505)" fill="yellow" stroke="black" stroke-width="0.5" />
<polygon points="505,938.553 505,958.553 565,958.553 565,938.553" transform="rotate(270 505 505)" fill="yellow" stroke="black" stroke-width="0.5" />
<polygon points="445,938.553 445,958.553 505,958.553 505,938.553" transform="rotate(270 505 505)" fill="yellow" stroke="black" stroke-width="0.5" />
<polygon points="565,938.553 565,958.553 625,958.553 625,938.553" transform="rotate(270 505 505)" fill="yellow" stroke="black" stroke-width="0.5" />
<polygon points="385,938.553 385,958.553 445,958.553 445,938.553" transform="rotate(270 505 505)" fill="yellow" stroke="black" stroke-width="0.5" />
<polygon points="625,938.553 625,958.553 685,958.553 685,938.553" transform="rotate(270 505 505)" fill="yellow" stroke="black" stroke-width="0.5" />
<polygon points="325,938.553 325,958.553 385,958.553 385,938.553" transform="rotate(270 505 505)" fill="yellow" stroke="black" stroke-width="0.5" />
<polygon points="505,958.553 505,978.553 565,978.553 565,958.553" transform="rotate(270 505 505)" fill="yellow" stroke="black" stroke-width="0.5" />
<polygon points="445,958.553 445,978.553 505,978.553 505,958.553" transform="rotate(270 505 505)" fill="yellow" stroke="black" stroke-width="0.5" />
<polygon points="565,958.553 565,978.553 625,978.553 625,958.553" transform="rotate(270 505 505)" fill="yellow" stroke="black" stroke-width="0.5" />
<polygon points="385,958.553 385,978.553 445,978.553 445,958.553" transform="rotate(270 505 505)" fill="yellow" stroke="black" stroke-width="0.5" />
<polygon points="505,978.553 505,998.553 565,998.553 565,978.553" transform="rotate(270 505 505)" fill="yellow" stroke="black" stroke-width="0.5" />
<polygon points="445,978.553 445,998.553 505,998.553 505,978.553" transform="rotate(270 505 505)" fill="yellow" stroke="black" stroke-width="0.5" />
</svg>
