<svg version="1.1" baseProfile="full" xmlns="http://www.w3.org/2000/svg">
<polygon points="260,10 10,443.013 510,443.013" transform="rotate(0 0 0)" fill="dimgrey" stroke="black" stroke-width="0.5" />
<polygon points="50,423.013 50,443.013 110,443.013 110,423.013" transform="rotate(0 0 0)" fill="yellow" stroke="black" stroke-width="0.5" />
<polygon points="110,423.013 110,443.013 170,443.013 170,423.013" transform="rotate(0 0 0)" fill="yellow" stroke="black" stroke-width="0.5" />
<polygon points="170,423.013 170,443.013 230,443.013 230,423.013" transform="rotate(0 0 0)" fill="yellow" stroke="black" stroke-width="0.5" />
<polygon points="230,423.013 230,443.013 290,443.013 290,423.013" transform="rotate(0 0 0)" fill="yellow" stroke="black" stroke-width="0.5" />
<polygon points="290,423.013 290,443.013 350,443.013 350,423.013" transform="rotate(0 0 0)" fill="yellow" stroke="black" stroke-width="0.5" />
<polygon points="350,423.013 350,443.013 410,443.013 410,423.013" transform="rotate(0 0 0)" fill="yellow" stroke="black" stroke-width="0.5" />
<polygon points="410,423.013 410,443.013 470,443.013 470,423.013" transform="rotate(0 0 0)" fill="yellow" stroke="black" stroke-width="0.5" />
<polygon points="50,403.013 50,423.013 110,423.013 110,403.013" transform="rotate(0 0 0)" fill="yellow" stroke="black" stroke-width="0.5" />
<polygon points="110,403.013 110,423.013 170,423.013 170,403.013" transform="rotate(0 0 0)" fill="yellow" stroke="black" stroke-width="0.5" />
<polygon points="170,403.013 170,423.013 230,423.013 230,403.013" transform="rotate(0 0 0)" fill="yellow" stroke="black" stroke-width="0.5" />
<polygon points="230,403.013 230,423.013 290,423.013 290,403.013" transform="rotate(0 0 0)" fill="yellow" stroke="black" stroke-width="0.5" />
<polygon points="290,403.013 290,423.013 350,423.013 350,403.013" transform="rotate(0 0 0)" fill="yellow" stroke="black" stroke-width="0.5" />
<polygon points="350,403.013 350,423.013 410,423.013 410,403.013" transform="rotate(0 0 0)" fill="yellow" stroke="black" stroke-width="0.5" />
<polygon points="410,403.013 410,423.013 470,423.013 470,403.013" transform="rotate(0 0 0)" fill="yellow" stroke="black" stroke-width="0.5" />
<polygon points="50,383.013 50,403.013 110,403.013 110,383.013" transform="rotate(0 0 0)" fill="yellow" stroke="black" stroke-width="0.5" />
<polygon points="110,383.013 110,403.013 170,403.013 170,383.013" transform="rotate(0 0 0)" fill="yellow" stroke="black" stroke-width="0.5" />
<polygon points="170,383.013 170,403.013 230,403.013 230,383.013" transform="rotate(0 0 0)" fill="yellow" stroke="black" stroke-width="0.5" />
<polygon points="230,383.013 230,403.013 290,403.013 290,383.013" transform="rotate(0 0 0)" fill="yellow" stroke="black" stroke-width="0.5" />
<polygon points="290,383.013 290,403.013 350,403.013 350,383.013" transform="rotate(0 0 0)" fill="yellow" stroke="black" stroke-width="0.5" />
<polygon points="350,383.013 350,403.013 410,403.013 410,383.013" transform="rotate(0 0 0)" fill="yellow" stroke="black" stroke-width="0.5" />
<polygon points="410,383.013 410,403.013 470,403.013 470,383.013" transform="rotate(0 0 0)" fill="yellow" stroke="black" stroke-width="0.5" />
<polygon points="80,363.013 80,383.013 140,383.013 140,363.013" transform="rotate(0 0 0)" fill="yellow" stroke="black" stroke-width="0.5" />
<polygon points="140,363.013 140,383.013 200,383.013 200,363.013" transform="rotate(0 0 0)" fill="yellow" stroke="black" stroke-width="0.5" />
<polygon points="200,363.013 200,383.013 260,383.013 260,363.013" transform="rotate(0 0 0)" fill="yellow" stroke="black" stroke-width="0.5" />
<polygon points="260,363.013 260,383.013 320,383.013 320,363.013" transform="rotate(0 0 0)" fill="yellow" stroke="black" stroke-width="0.5" />
<polygon points="320,363.013 320,383.013 380,383.013 380,363.013" transform="rotate(0 0 0)" fill="yellow" stroke="black" stroke-width="0.5" />
<polygon points="380,363.013 380,383.013 440,383.013 440,363.013" transform="rotate(0 0 0)" fill="yellow" stroke="black" stroke-width="0.5" />
<polygon points="80,343.013 80,363.013 140,363.013 140,343.013" transform="rotate(0 0 0)" fill="yellow" stroke="black" stroke-width="0.5" />
<polygon points="140,343.013 140,363.013 200,363.013 200,343.013" transform="rotate(0 0 0)" fill="yellow" stroke="black" stroke-width="0.5" />
<polygon points="200,343.013 200,363.013 260,363.013 260,343.013" transform="rotate(0 0 0)" fill="yellow" stroke="black" stroke-width="0.5" />
<polygon points="260,343.013 260,363.013 320,363.013 320,343.013" transform="rotate(0 0 0)" fill="yellow" stroke="black" stroke-width="0.5" />
<polygon points="320,343.013 320,363.013 380,363.013 380,343.013" transform="rotate(0 0 0)" fill="yellow" stroke="black" stroke-width="0.5" />
<polygon points="380,343.013 380,363.013 440,363.013 440,343.013" transform="rotate(0 0 0)" fill="yellow" stroke="black" stroke-width="0.5" />
<polygon points="80,323.013 80,343.013 140,343.013 140,323.013" transform="rotate(0 0 0)" fill="yellow" stroke="black" stroke-width="0.5" />
<polygon points="140,323.013 140,343.013 200,343.013 200,323.013" transform="rotate(0 0 0)" fill="yellow" stroke="black" stroke-width="0.5" />
<polygon points="200,323.013 200,343.013 260,343.013 260,323.013" transform="rotate(0 0 0)" fill="yellow" stroke="black" stroke-width="0.5" />
<polygon points="260,323.013 260,343.013 320,343.013 320,323.013" transform="rotate(0 0 0)" fill="yellow" stroke="black" stroke-width="0.5" />
<polygon points="320,323.013 320,343.013 380,343.013 380,323.013" transform="rotate(0 0 0)" fill="yellow" stroke="black" stroke-width="0.5" />
<polygon points="380,323.013 380,343.013 440,343.013 440,323.013" transform="rotate(0 0 0)" fill="yellow" stroke="black" stroke-width="0.5" />
<polygon points="110,303.013 110,323.013 170,323.013 170,303.013" transform="rotate(0 0 0)" fill="yellow" stroke="black" stroke-width="0.5" />
<polygon points="170,303.013 170,323.013 230,323.013 230,303.013" transform="rotate(0 0 0)" fill="yellow" stroke="black" stroke-width="0.5" />
<polygon points="230,303.013 230,323.013 290,323.013 290,303.013" transform="rotate(0 0 0)" fill="yellow" stroke="black" stroke-width="0.5" />
<polygon points="290,303.013 290,323.013 350,323.013 350,303.013" transform="rotate(0 0 0)" fill="yellow" stroke="black" stroke-width="0.5" />
<polygon points="350,303.013 350,323.013 410,323.013 410,303.013" transform="rotate(0 0 0)" fill="yellow" stroke="black" stroke-width="0.5" />
<polygon points="110,283.013 110,303.013 170,303.013 170,283.013" transform="rotate(0 0 0)" fill="yellow" stroke="black" stroke-width="0.5" />
<polygon points="170,283.013 170,303.013 230,303.013 230,283.013" transform="rotate(0 0 0)" fill="yellow" stroke="black" stroke-width="0.5" />
<polygon points="230,283.013 230,303.013 290,303.013 290,283.013" transform="rotate(0 0 0)" fill="yellow" stroke="black" stroke-width="0.5" />
<polygon points="290,283.013 290,303.013 350,303.013 350,283.013" transform="rotate(0 0 0)" fill="yellow" stroke="black" stroke-width="0.5" />
<polygon points="350,283.013 350,303.013 410,303.013 410,283.013" transform="rotate(0 0 0)" fill="yellow" stroke="black" stroke-width="0.5" />
<polygon points="140,263.013 140,283.013 200,283.013 200,263.013" transform="rotate(0 0 0)" fill="yellow" stroke="black" stroke-width="0.5" />
<polygon points="200,263.013 200,283.013 260,283.013 260,263.013" transform="rotate(0 0 0)" fill="yellow" stroke="black" stroke-width="0.5" />
<polygon points="260,263.013 260,283.013 320,283.013 320,263.013" transform="rotate(0 0 0)" fill="yellow" stroke="black" stroke-width="0.5" />
<polygon points="320,263.013 320,283.013 380,283.013 380,263.013" transform="rotate(0 0 0)" fill="yellow" stroke="black" stroke-width="0.5" />
<polygon points="140,243.013 140,263.013 200,263.013 200,243.013" transform="rotate(0 0 0)" fill="yellow" stroke="black" stroke-width="0.5" />
<polygon points="200,243.013 200,263.013 260,263.013 260,243.013" transform="rotate(0 0 0)" fill="yellow" stroke="black" stroke-width="0.5" />
<polygon points="260,243.013 260,263.013 320,263.013 320,243.013" transform="rotate(0 0 0)" fill="yellow" stroke="black" stroke-width="0.5" />
<polygon points="320,243.013 320,263.013 380,263.013 380,243.013" transform="rotate(0 0 0)" fill="yellow" stroke="black" stroke-width="0.5" />
<polygon points="140,223.013 140,243.013 200,243.013 200,223.013" transform="rotate(0 0 0)" fill="yellow" stroke="black" stroke-width="0.5" />
<polygon points="200,223.013 200,243.013 260,243.013 260,223.013" transform="rotate(0 0 0)" fill="yellow" stroke="black" stroke-width="0.5" />
<polygon points="260,223.013 260,243.013 320,243.013 320,223.013" transform="rotate(0 0 0)" fill="yellow" stroke="black" stroke-width="0.5" />
<polygon points="320,223.013 320,243.013 380,243.013 380,223.013" transform="rotate(0 0 0)" fill="yellow" stroke="black" stroke-width="0.5" />
<polygon points="170,203.013 170,223.013 230,223.013 230,203.013" transform="rotate(0 0 0)" fill="yellow" stroke="black" stroke-width="0.5" />
<polygon points="230,203.013 230,223.013 290,223.013 290,203.013" transform="rotate(0 0 0)" fill="yellow" stroke="black" stroke-width="0.5" />
<polygon points="290,203.013 290,223.013 350,223.013 350,203.013" transform="rotate(0 0 0)" fill="yellow" stroke="black" stroke-width="0.5" />
<polygon points="170,183.013 170,203.013 230,203.013 230,183.013" transform="rotate(0 0 0)" fill="yellow" stroke="black" stroke-width="0.5" />
<polygon points="230,183.013 230,203.013 290,203.013 290,183.013" transform="rotate(0 0 0)" fill="yellow" stroke="black" stroke-width="0.5" />
<polygon points="290,183.013 290,203.013 350,203.013 350,183.013" transform="rotate(0 0 0)" fill="yellow" stroke="black" stroke-width="0.5" />
<polygon points="200,163.013 200,183.013 260,183.013 260,163.013" transform="rotate(0 0 0)" fill="yellow" stroke="black" stroke-width="0.5" />
<polygon points="260,163.013 260,183.013 320,183.013 320,163.013" transform="rotate(0 0 0)" fill="yellow" stroke="black" stroke-width="0.5" />
<polygon points="200,143.013 200,163.013 260,163.013 260,143.013" transform="rotate(0 0 0)" fill="yellow" stroke="black" stroke-width="0.5" />
<polygon points="260,143.013 260,163.013 320,163.013 320,143.013" transform="rotate(0 0 0)" fill="yellow" stroke="black" stroke-width="0.5" />
<polygon points="200,123.013 200,143.013 260,143.013 260,123.013" transform="rotate(0 0 0)" fill="yellow" stroke="black" stroke-width="0.5" />
<polygon points="260,123.013 260,143.013 320,143.013 320,123.013" transform="rotate(0 0 0)" fill="yellow" stroke="black" stroke-width="0.5" />
<polygon points="230,103.013 230,123.013 290,123.013 290,103.013" transform="rotate(0 0 0)" fill="yellow" stroke="black" stroke-width="0.5" />
<polygon points="230,83.0127 230,103.013 290,103.013 290,83.0127" transform="rotate(0 0 0)" fill="yellow" stroke="black" stroke-width="0.5" />
<polygon points="230,63.0127 230,83.0127 290,83.0127 290,63.0127" transform="rotate(0 0 0)" fill="yellow" stroke="black" stroke-width="0.5" />
</svg>
