<svg version="1.1" baseProfile="full" xmlns="http://www.w3.org/2000/svg">
<polygon points="600,300 599.408,281.163 597.634,262.4 594.686,243.786 590.575,225.393 585.317,207.295 578.933,189.563 571.448,172.266 562.892,155.474 553.298,139.252 542.705,123.664 531.154,108.773 518.691,94.6359 505.364,81.3094 491.227,68.846 476.336,57.2949 460.748,46.7016 444.526,37.108 427.734,28.5519 410.437,21.0671 392.705,14.683 374.607,9.42505 356.214,5.31382 337.6,2.36559 318.837,0.591981 300,0 281.163,0.591981 262.4,2.36559 243.786,5.31382 225.393,9.42505 207.295,14.683 189.563,21.0671 172.266,28.5519 155.474,37.108 139.252,46.7016 123.664,57.2949 108.773,68.846 94.6359,81.3094 81.3094,94.6359 68.846,108.773 57.2949,123.664 46.7016,139.252 37.108,155.474 28.5519,172.266 21.0671,189.563 14.683,207.295 9.42505,225.393 5.31382,243.786 2.36559,262.4 0.591981,281.163 0,300 0.591981,318.837 2.36559,337.6 5.31382,356.214 9.42505,374.607 14.683,392.705 21.0671,410.437 28.5519,427.734 37.108,444.526 46.7016,460.748 57.2949,476.336 68.846,491.227 81.3094,505.364 94.6359,518.691 108.773,531.154 123.664,542.705 139.252,553.298 155.474,562.892 172.266,571.448 189.563,578.933 207.295,585.317 225.393,590.575 243.786,594.686 262.4,597.634 281.163,599.408 300,600 318.837,599.408 337.6,597.634 356.214,594.686 374.607,590.575 392.705,585.317 410.437,578.933 427.734,571.448 444.526,562.892 460.748,553.298 476.336,542.705 491.227,531.154 505.364,518.691 518.691,505.364 531.154,491.227 542.705,476.336 553.298,460.748 562.892,444.526 571.448,427.734 578.933,410.437 585.317,392.705 590.575,374.607 594.686,356.214 597.634,337.6 599.408,318.837" transform="rotate(0 0 0)" fill="brown" stroke="black" stroke-width="0.5" />
<polygon points="87.868,87.868 87.868,147.868 107.868,147.868 107.868,87.868" transform="rotate(0 0 0)" fill="yellow" stroke="black" stroke-width="0.5" />
<polygon points="107.868,87.868 107.868,147.868 127.868,147.868 127.868,87.868" transform="rotate(0 0 0)" fill="yellow" stroke="black" stroke-width="0.5" />
<polygon points="127.868,87.868 127.868,147.868 147.868,147.868 147.868,87.868" transform="rotate(0 0 0)" fill="yellow" stroke="black" stroke-width="0.5" />
<polygon points="147.868,87.868 147.868,147.868 167.868,147.868 167.868,87.868" transform="rotate(0 0 0)" fill="yellow" stroke="black" stroke-width="0.5" />
<polygon points="167.868,87.868 167.868,147.868 187.868,147.868 187.868,87.868" transform="rotate(0 0 0)" fill="yellow" stroke="black" stroke-width="0.5" />
<polygon points="187.868,87.868 187.868,147.868 207.868,147.868 207.868,87.868" transform="rotate(0 0 0)" fill="yellow" stroke="black" stroke-width="0.5" />
<polygon points="207.868,87.868 207.868,147.868 227.868,147.868 227.868,87.868" transform="rotate(0 0 0)" fill="yellow" stroke="black" stroke-width="0.5" />
<polygon points="227.868,87.868 227.868,147.868 247.868,147.868 247.868,87.868" transform="rotate(0 0 0)" fill="yellow" stroke="black" stroke-width="0.5" />
<polygon points="247.868,87.868 247.868,147.868 267.868,147.868 267.868,87.868" transform="rotate(0 0 0)" fill="yellow" stroke="black" stroke-width="0.5" />
<polygon points="267.868,87.868 267.868,147.868 287.868,147.868 287.868,87.868" transform="rotate(0 0 0)" fill="yellow" stroke="black" stroke-width="0.5" />
<polygon points="287.868,87.868 287.868,147.868 307.868,147.868 307.868,87.868" transform="rotate(0 0 0)" fill="yellow" stroke="black" stroke-width="0.5" />
<polygon points="307.868,87.868 307.868,147.868 327.868,147.868 327.868,87.868" transform="rotate(0 0 0)" fill="yellow" stroke="black" stroke-width="0.5" />
<polygon points="327.868,87.868 327.868,147.868 347.868,147.868 347.868,87.868" transform="rotate(0 0 0)" fill="yellow" stroke="black" stroke-width="0.5" />
<polygon points="347.868,87.868 347.868,147.868 367.868,147.868 367.868,87.868" transform="rotate(0 0 0)" fill="yellow" stroke="black" stroke-width="0.5" />
<polygon points="367.868,87.868 367.868,147.868 387.868,147.868 387.868,87.868" transform="rotate(0 0 0)" fill="yellow" stroke="black" stroke-width="0.5" />
<polygon points="387.868,87.868 387.868,147.868 407.868,147.868 407.868,87.868" transform="rotate(0 0 0)" fill="yellow" stroke="black" stroke-width="0.5" />
<polygon points="407.868,87.868 407.868,147.868 427.868,147.868 427.868,87.868" transform="rotate(0 0 0)" fill="yellow" stroke="black" stroke-width="0.5" />
<polygon points="427.868,87.868 427.868,147.868 447.868,147.868 447.868,87.868" transform="rotate(0 0 0)" fill="yellow" stroke="black" stroke-width="0.5" />
<polygon points="447.868,87.868 447.868,147.868 467.868,147.868 467.868,87.868" transform="rotate(0 0 0)" fill="yellow" stroke="black" stroke-width="0.5" />
<polygon points="467.868,87.868 467.868,147.868 487.868,147.868 487.868,87.868" transform="rotate(0 0 0)" fill="yellow" stroke="black" stroke-width="0.5" />
<polygon points="487.868,87.868 487.868,147.868 507.868,147.868 507.868,87.868" transform="rotate(0 0 0)" fill="yellow" stroke="black" stroke-width="0.5" />
<polygon points="87.868,147.868 87.868,207.868 107.868,207.868 107.868,147.868" transform="rotate(0 0 0)" fill="yellow" stroke="black" stroke-width="0.5" />
<polygon points="107.868,147.868 107.868,207.868 127.868,207.868 127.868,147.868" transform="rotate(0 0 0)" fill="yellow" stroke="black" stroke-width="0.5" />
<polygon points="127.868,147.868 127.868,207.868 147.868,207.868 147.868,147.868" transform="rotate(0 0 0)" fill="yellow" stroke="black" stroke-width="0.5" />
<polygon points="147.868,147.868 147.868,207.868 167.868,207.868 167.868,147.868" transform="rotate(0 0 0)" fill="yellow" stroke="black" stroke-width="0.5" />
<polygon points="167.868,147.868 167.868,207.868 187.868,207.868 187.868,147.868" transform="rotate(0 0 0)" fill="yellow" stroke="black" stroke-width="0.5" />
<polygon points="187.868,147.868 187.868,207.868 207.868,207.868 207.868,147.868" transform="rotate(0 0 0)" fill="yellow" stroke="black" stroke-width="0.5" />
<polygon points="207.868,147.868 207.868,207.868 227.868,207.868 227.868,147.868" transform="rotate(0 0 0)" fill="yellow" stroke="black" stroke-width="0.5" />
<polygon points="227.868,147.868 227.868,207.868 247.868,207.868 247.868,147.868" transform="rotate(0 0 0)" fill="yellow" stroke="black" stroke-width="0.5" />
<polygon points="247.868,147.868 247.868,207.868 267.868,207.868 267.868,147.868" transform="rotate(0 0 0)" fill="yellow" stroke="black" stroke-width="0.5" />
<polygon points="267.868,147.868 267.868,207.868 287.868,207.868 287.868,147.868" transform="rotate(0 0 0)" fill="yellow" stroke="black" stroke-width="0.5" />
<polygon points="287.868,147.868 287.868,207.868 307.868,207.868 307.868,147.868" transform="rotate(0 0 0)" fill="yellow" stroke="black" stroke-width="0.5" />
<polygon points="307.868,147.868 307.868,207.868 327.868,207.868 327.868,147.868" transform="rotate(0 0 0)" fill="yellow" stroke="black" stroke-width="0.5" />
<polygon points="327.868,147.868 327.868,207.868 347.868,207.868 347.868,147.868" transform="rotate(0 0 0)" fill="yellow" stroke="black" stroke-width="0.5" />
<polygon points="347.868,147.868 347.868,207.868 367.868,207.868 367.868,147.868" transform="rotate(0 0 0)" fill="yellow" stroke="black" stroke-width="0.5" />
<polygon points="367.868,147.868 367.868,207.868 387.868,207.868 387.868,147.868" transform="rotate(0 0 0)" fill="yellow" stroke="black" stroke-width="0.5" />
<polygon points="387.868,147.868 387.868,207.868 407.868,207.868 407.868,147.868" transform="rotate(0 0 0)" fill="yellow" stroke="black" stroke-width="0.5" />
<polygon points="407.868,147.868 407.868,207.868 427.868,207.868 427.868,147.868" transform="rotate(0 0 0)" fill="yellow" stroke="black" stroke-width="0.5" />
<polygon points="427.868,147.868 427.868,207.868 447.868,207.868 447.868,147.868" transform="rotate(0 0 0)" fill="yellow" stroke="black" stroke-width="0.5" />
<polygon points="447.868,147.868 447.868,207.868 467.868,207.868 467.868,147.868" transform="rotate(0 0 0)" fill="yellow" stroke="black" stroke-width="0.5" />
<polygon points="467.868,147.868 467.868,207.868 487.868,207.868 487.868,147.868" transform="rotate(0 0 0)" fill="yellow" stroke="black" stroke-width="0.5" />
<polygon points="487.868,147.868 487.868,207.868 507.868,207.868 507.868,147.868" transform="rotate(0 0 0)" fill="yellow" stroke="black" stroke-width="0.5" />
<polygon points="87.868,207.868 87.868,267.868 107.868,267.868 107.868,207.868" transform="rotate(0 0 0)" fill="yellow" stroke="black" stroke-width="0.5" />
<polygon points="107.868,207.868 107.868,267.868 127.868,267.868 127.868,207.868" transform="rotate(0 0 0)" fill="yellow" stroke="black" stroke-width="0.5" />
<polygon points="127.868,207.868 127.868,267.868 147.868,267.868 147.868,207.868" transform="rotate(0 0 0)" fill="yellow" stroke="black" stroke-width="0.5" />
<polygon points="147.868,207.868 147.868,267.868 167.868,267.868 167.868,207.868" transform="rotate(0 0 0)" fill="yellow" stroke="black" stroke-width="0.5" />
<polygon points="167.868,207.868 167.868,267.868 187.868,267.868 187.868,207.868" transform="rotate(0 0 0)" fill="yellow" stroke="black" stroke-width="0.5" />
<polygon points="187.868,207.868 187.868,267.868 207.868,267.868 207.868,207.868" transform="rotate(0 0 0)" fill="yellow" stroke="black" stroke-width="0.5" />
<polygon points="207.868,207.868 207.868,267.868 227.868,267.868 227.868,207.868" transform="rotate(0 0 0)" fill="yellow" stroke="black" stroke-width="0.5" />
<polygon points="227.868,207.868 227.868,267.868 247.868,267.868 247.868,207.868" transform="rotate(0 0 0)" fill="yellow" stroke="black" stroke-width="0.5" />
<polygon points="247.868,207.868 247.868,267.868 267.868,267.868 267.868,207.868" transform="rotate(0 0 0)" fill="yellow" stroke="black" stroke-width="0.5" />
<polygon points="267.868,207.868 267.868,267.868 287.868,267.868 287.868,207.868" transform="rotate(0 0 0)" fill="yellow" stroke="black" stroke-width="0.5" />
<polygon points="287.868,207.868 287.868,267.868 307.868,267.868 307.868,207.868" transform="rotate(0 0 0)" fill="yellow" stroke="black" stroke-width="0.5" />
<polygon points="307.868,207.868 307.868,267.868 327.868,267.868 327.868,207.868" transform="rotate(0 0 0)" fill="yellow" stroke="black" stroke-width="0.5" />
<polygon points="327.868,207.868 327.868,267.868 347.868,267.868 347.868,207.868" transform="rotate(0 0 0)" fill="yellow" stroke="black" stroke-width="0.5" />
<polygon points="347.868,207.868 347.868,267.868 367.868,267.868 367.868,207.868" transform="rotate(0 0 0)" fill="yellow" stroke="black" stroke-width="0.5" />
<polygon points="367.868,207.868 367.868,267.868 387.868,267.868 387.868,207.868" transform="rotate(0 0 0)" fill="yellow" stroke="black" stroke-width="0.5" />
<polygon points="387.868,207.868 387.868,267.868 407.868,267.868 407.868,207.868" transform="rotate(0 0 0)" fill="yellow" stroke="black" stroke-width="0.5" />
<polygon points="407.868,207.868 407.868,267.868 427.868,267.868 427.868,207.868" transform="rotate(0 0 0)" fill="yellow" stroke="black" stroke-width="0.5" />
<polygon points="427.868,207.868 427.868,267.868 447.868,267.868 447.868,207.868" transform="rotate(0 0 0)" fill="yellow" stroke="black" stroke-width="0.5" />
<polygon points="447.868,207.868 447.868,267.868 467.868,267.868 467.868,207.868" transform="rotate(0 0 0)" fill="yellow" stroke="black" stroke-width="0.5" />
<polygon points="467.868,207.868 467.868,267.868 487.868,267.868 487.868,207.868" transform="rotate(0 0 0)" fill="yellow" stroke="black" stroke-width="0.5" />
<polygon points="487.868,207.868 487.868,267.868 507.868,267.868 507.868,207.868" transform="rotate(0 0 0)" fill="yellow" stroke="black" stroke-width="0.5" />
<polygon points="87.868,267.868 87.868,327.868 107.868,327.868 107.868,267.868" transform="rotate(0 0 0)" fill="yellow" stroke="black" stroke-width="0.5" />
<polygon points="107.868,267.868 107.868,327.868 127.868,327.868 127.868,267.868" transform="rotate(0 0 0)" fill="yellow" stroke="black" stroke-width="0.5" />
<polygon points="127.868,267.868 127.868,327.868 147.868,327.868 147.868,267.868" transform="rotate(0 0 0)" fill="yellow" stroke="black" stroke-width="0.5" />
<polygon points="147.868,267.868 147.868,327.868 167.868,327.868 167.868,267.868" transform="rotate(0 0 0)" fill="yellow" stroke="black" stroke-width="0.5" />
<polygon points="167.868,267.868 167.868,327.868 187.868,327.868 187.868,267.868" transform="rotate(0 0 0)" fill="yellow" stroke="black" stroke-width="0.5" />
<polygon points="187.868,267.868 187.868,327.868 207.868,327.868 207.868,267.868" transform="rotate(0 0 0)" fill="yellow" stroke="black" stroke-width="0.5" />
<polygon points="207.868,267.868 207.868,327.868 227.868,327.868 227.868,267.868" transform="rotate(0 0 0)" fill="yellow" stroke="black" stroke-width="0.5" />
<polygon points="227.868,267.868 227.868,327.868 247.868,327.868 247.868,267.868" transform="rotate(0 0 0)" fill="yellow" stroke="black" stroke-width="0.5" />
<polygon points="247.868,267.868 247.868,327.868 267.868,327.868 267.868,267.868" transform="rotate(0 0 0)" fill="yellow" stroke="black" stroke-width="0.5" />
<polygon points="267.868,267.868 267.868,327.868 287.868,327.868 287.868,267.868" transform="rotate(0 0 0)" fill="yellow" stroke="black" stroke-width="0.5" />
<polygon points="287.868,267.868 287.868,327.868 307.868,327.868 307.868,267.868" transform="rotate(0 0 0)" fill="yellow" stroke="black" stroke-width="0.5" />
<polygon points="307.868,267.868 307.868,327.868 327.868,327.868 327.868,267.868" transform="rotate(0 0 0)" fill="yellow" stroke="black" stroke-width="0.5" />
<polygon points="327.868,267.868 327.868,327.868 347.868,327.868 347.868,267.868" transform="rotate(0 0 0)" fill="yellow" stroke="black" stroke-width="0.5" />
<polygon points="347.868,267.868 347.868,327.868 367.868,327.868 367.868,267.868" transform="rotate(0 0 0)" fill="yellow" stroke="black" stroke-width="0.5" />
<polygon points="367.868,267.868 367.868,327.868 387.868,327.868 387.868,267.868" transform="rotate(0 0 0)" fill="yellow" stroke="black" stroke-width="0.5" />
<polygon points="387.868,267.868 387.868,327.868 407.868,327.868 407.868,267.868" transform="rotate(0 0 0)" fill="yellow" stroke="black" stroke-width="0.5" />
<polygon points="407.868,267.868 407.868,327.868 427.868,327.868 427.868,267.868" transform="rotate(0 0 0)" fill="yellow" stroke="black" stroke-width="0.5" />
<polygon points="427.868,267.868 427.868,327.868 447.868,327.868 447.868,267.868" transform="rotate(0 0 0)" fill="yellow" stroke="black" stroke-width="0.5" />
<polygon points="447.868,267.868 447.868,327.868 467.868,327.868 467.868,267.868" transform="rotate(0 0 0)" fill="yellow" stroke="black" stroke-width="0.5" />
<polygon points="467.868,267.868 467.868,327.868 487.868,327.868 487.868,267.868" transform="rotate(0 0 0)" fill="yellow" stroke="black" stroke-width="0.5" />
<polygon points="487.868,267.868 487.868,327.868 507.868,327.868 507.868,267.868" transform="rotate(0 0 0)" fill="yellow" stroke="black" stroke-width="0.5" />
<polygon points="87.868,327.868 87.868,387.868 107.868,387.868 107.868,327.868" transform="rotate(0 0 0)" fill="yellow" stroke="black" stroke-width="0.5" />
<polygon points="107.868,327.868 107.868,387.868 127.868,387.868 127.868,327.868" transform="rotate(0 0 0)" fill="yellow" stroke="black" stroke-width="0.5" />
<polygon points="127.868,327.868 127.868,387.868 147.868,387.868 147.868,327.868" transform="rotate(0 0 0)" fill="yellow" stroke="black" stroke-width="0.5" />
<polygon points="147.868,327.868 147.868,387.868 167.868,387.868 167.868,327.868" transform="rotate(0 0 0)" fill="yellow" stroke="black" stroke-width="0.5" />
<polygon points="167.868,327.868 167.868,387.868 187.868,387.868 187.868,327.868" transform="rotate(0 0 0)" fill="yellow" stroke="black" stroke-width="0.5" />
<polygon points="187.868,327.868 187.868,387.868 207.868,387.868 207.868,327.868" transform="rotate(0 0 0)" fill="yellow" stroke="black" stroke-width="0.5" />
<polygon points="207.868,327.868 207.868,387.868 227.868,387.868 227.868,327.868" transform="rotate(0 0 0)" fill="yellow" stroke="black" stroke-width="0.5" />
<polygon points="227.868,327.868 227.868,387.868 247.868,387.868 247.868,327.868" transform="rotate(0 0 0)" fill="yellow" stroke="black" stroke-width="0.5" />
<polygon points="247.868,327.868 247.868,387.868 267.868,387.868 267.868,327.868" transform="rotate(0 0 0)" fill="yellow" stroke="black" stroke-width="0.5" />
<polygon points="267.868,327.868 267.868,387.868 287.868,387.868 287.868,327.868" transform="rotate(0 0 0)" fill="yellow" stroke="black" stroke-width="0.5" />
<polygon points="287.868,327.868 287.868,387.868 307.868,387.868 307.868,327.868" transform="rotate(0 0 0)" fill="yellow" stroke="black" stroke-width="0.5" />
<polygon points="307.868,327.868 307.868,387.868 327.868,387.868 327.868,327.868" transform="rotate(0 0 0)" fill="yellow" stroke="black" stroke-width="0.5" />
<polygon points="327.868,327.868 327.868,387.868 347.868,387.868 347.868,327.868" transform="rotate(0 0 0)" fill="yellow" stroke="black" stroke-width="0.5" />
<polygon points="347.868,327.868 347.868,387.868 367.868,387.868 367.868,327.868" transform="rotate(0 0 0)" fill="yellow" stroke="black" stroke-width="0.5" />
<polygon points="367.868,327.868 367.868,387.868 387.868,387.868 387.868,327.868" transform="rotate(0 0 0)" fill="yellow" stroke="black" stroke-width="0.5" />
<polygon points="387.868,327.868 387.868,387.868 407.868,387.868 407.868,327.868" transform="rotate(0 0 0)" fill="yellow" stroke="black" stroke-width="0.5" />
<polygon points="407.868,327.868 407.868,387.868 427.868,387.868 427.868,327.868" transform="rotate(0 0 0)" fill="yellow" stroke="black" stroke-width="0.5" />
<polygon points="427.868,327.868 427.868,387.868 447.868,387.868 447.868,327.868" transform="rotate(0 0 0)" fill="yellow" stroke="black" stroke-width="0.5" />
<polygon points="447.868,327.868 447.868,387.868 467.868,387.868 467.868,327.868" transform="rotate(0 0 0)" fill="yellow" stroke="black" stroke-width="0.5" />
<polygon points="467.868,327.868 467.868,387.868 487.868,387.868 487.868,327.868" transform="rotate(0 0 0)" fill="yellow" stroke="black" stroke-width="0.5" />
<polygon points="487.868,327.868 487.868,387.868 507.868,387.868 507.868,327.868" transform="rotate(0 0 0)" fill="yellow" stroke="black" stroke-width="0.5" />
<polygon points="87.868,387.868 87.868,447.868 107.868,447.868 107.868,387.868" transform="rotate(0 0 0)" fill="yellow" stroke="black" stroke-width="0.5" />
<polygon points="107.868,387.868 107.868,447.868 127.868,447.868 127.868,387.868" transform="rotate(0 0 0)" fill="yellow" stroke="black" stroke-width="0.5" />
<polygon points="127.868,387.868 127.868,447.868 147.868,447.868 147.868,387.868" transform="rotate(0 0 0)" fill="yellow" stroke="black" stroke-width="0.5" />
<polygon points="147.868,387.868 147.868,447.868 167.868,447.868 167.868,387.868" transform="rotate(0 0 0)" fill="yellow" stroke="black" stroke-width="0.5" />
<polygon points="167.868,387.868 167.868,447.868 187.868,447.868 187.868,387.868" transform="rotate(0 0 0)" fill="yellow" stroke="black" stroke-width="0.5" />
<polygon points="187.868,387.868 187.868,447.868 207.868,447.868 207.868,387.868" transform="rotate(0 0 0)" fill="yellow" stroke="black" stroke-width="0.5" />
<polygon points="207.868,387.868 207.868,447.868 227.868,447.868 227.868,387.868" transform="rotate(0 0 0)" fill="yellow" stroke="black" stroke-width="0.5" />
<polygon points="227.868,387.868 227.868,447.868 247.868,447.868 247.868,387.868" transform="rotate(0 0 0)" fill="yellow" stroke="black" stroke-width="0.5" />
<polygon points="247.868,387.868 247.868,447.868 267.868,447.868 267.868,387.868" transform="rotate(0 0 0)" fill="yellow" stroke="black" stroke-width="0.5" />
<polygon points="267.868,387.868 267.868,447.868 287.868,447.868 287.868,387.868" transform="rotate(0 0 0)" fill="yellow" stroke="black" stroke-width="0.5" />
<polygon points="287.868,387.868 287.868,447.868 307.868,447.868 307.868,387.868" transform="rotate(0 0 0)" fill="yellow" stroke="black" stroke-width="0.5" />
<polygon points="307.868,387.868 307.868,447.868 327.868,447.868 327.868,387.868" transform="rotate(0 0 0)" fill="yellow" stroke="black" stroke-width="0.5" />
<polygon points="327.868,387.868 327.868,447.868 347.868,447.868 347.868,387.868" transform="rotate(0 0 0)" fill="yellow" stroke="black" stroke-width="0.5" />
<polygon points="347.868,387.868 347.868,447.868 367.868,447.868 367.868,387.868" transform="rotate(0 0 0)" fill="yellow" stroke="black" stroke-width="0.5" />
<polygon points="367.868,387.868 367.868,447.868 387.868,447.868 387.868,387.868" transform="rotate(0 0 0)" fill="yellow" stroke="black" stroke-width="0.5" />
<polygon points="387.868,387.868 387.868,447.868 407.868,447.868 407.868,387.868" transform="rotate(0 0 0)" fill="yellow" stroke="black" stroke-width="0.5" />
<polygon points="407.868,387.868 407.868,447.868 427.868,447.868 427.868,387.868" transform="rotate(0 0 0)" fill="yellow" stroke="black" stroke-width="0.5" />
<polygon points="427.868,387.868 427.868,447.868 447.868,447.868 447.868,387.868" transform="rotate(0 0 0)" fill="yellow" stroke="black" stroke-width="0.5" />
<polygon points="447.868,387.868 447.868,447.868 467.868,447.868 467.868,387.868" transform="rotate(0 0 0)" fill="yellow" stroke="black" stroke-width="0.5" />
<polygon points="467.868,387.868 467.868,447.868 487.868,447.868 487.868,387.868" transform="rotate(0 0 0)" fill="yellow" stroke="black" stroke-width="0.5" />
<polygon points="487.868,387.868 487.868,447.868 507.868,447.868 507.868,387.868" transform="rotate(0 0 0)" fill="yellow" stroke="black" stroke-width="0.5" />
<polygon points="87.868,447.868 87.868,507.868 107.868,507.868 107.868,447.868" transform="rotate(0 0 0)" fill="yellow" stroke="black" stroke-width="0.5" />
<polygon points="107.868,447.868 107.868,507.868 127.868,507.868 127.868,447.868" transform="rotate(0 0 0)" fill="yellow" stroke="black" stroke-width="0.5" />
<polygon points="127.868,447.868 127.868,507.868 147.868,507.868 147.868,447.868" transform="rotate(0 0 0)" fill="yellow" stroke="black" stroke-width="0.5" />
<polygon points="147.868,447.868 147.868,507.868 167.868,507.868 167.868,447.868" transform="rotate(0 0 0)" fill="yellow" stroke="black" stroke-width="0.5" />
<polygon points="167.868,447.868 167.868,507.868 187.868,507.868 187.868,447.868" transform="rotate(0 0 0)" fill="yellow" stroke="black" stroke-width="0.5" />
<polygon points="187.868,447.868 187.868,507.868 207.868,507.868 207.868,447.868" transform="rotate(0 0 0)" fill="yellow" stroke="black" stroke-width="0.5" />
<polygon points="207.868,447.868 207.868,507.868 227.868,507.868 227.868,447.868" transform="rotate(0 0 0)" fill="yellow" stroke="black" stroke-width="0.5" />
<polygon points="227.868,447.868 227.868,507.868 247.868,507.868 247.868,447.868" transform="rotate(0 0 0)" fill="yellow" stroke="black" stroke-width="0.5" />
<polygon points="247.868,447.868 247.868,507.868 267.868,507.868 267.868,447.868" transform="rotate(0 0 0)" fill="yellow" stroke="black" stroke-width="0.5" />
<polygon points="267.868,447.868 267.868,507.868 287.868,507.868 287.868,447.868" transform="rotate(0 0 0)" fill="yellow" stroke="black" stroke-width="0.5" />
<polygon points="287.868,447.868 287.868,507.868 307.868,507.868 307.868,447.868" transform="rotate(0 0 0)" fill="yellow" stroke="black" stroke-width="0.5" />
<polygon points="307.868,447.868 307.868,507.868 327.868,507.868 327.868,447.868" transform="rotate(0 0 0)" fill="yellow" stroke="black" stroke-width="0.5" />
<polygon points="327.868,447.868 327.868,507.868 347.868,507.868 347.868,447.868" transform="rotate(0 0 0)" fill="yellow" stroke="black" stroke-width="0.5" />
<polygon points="347.868,447.868 347.868,507.868 367.868,507.868 367.868,447.868" transform="rotate(0 0 0)" fill="yellow" stroke="black" stroke-width="0.5" />
<polygon points="367.868,447.868 367.868,507.868 387.868,507.868 387.868,447.868" transform="rotate(0 0 0)" fill="yellow" stroke="black" stroke-width="0.5" />
<polygon points="387.868,447.868 387.868,507.868 407.868,507.868 407.868,447.868" transform="rotate(0 0 0)" fill="yellow" stroke="black" stroke-width="0.5" />
<polygon points="407.868,447.868 407.868,507.868 427.868,507.868 427.868,447.868" transform="rotate(0 0 0)" fill="yellow" stroke="black" stroke-width="0.5" />
<polygon points="427.868,447.868 427.868,507.868 447.868,507.868 447.868,447.868" transform="rotate(0 0 0)" fill="yellow" stroke="black" stroke-width="0.5" />
<polygon points="447.868,447.868 447.868,507.868 467.868,507.868 467.868,447.868" transform="rotate(0 0 0)" fill="yellow" stroke="black" stroke-width="0.5" />
<polygon points="467.868,447.868 467.868,507.868 487.868,507.868 487.868,447.868" transform="rotate(0 0 0)" fill="yellow" stroke="black" stroke-width="0.5" />
<polygon points="487.868,447.868 487.868,507.868 507.868,507.868 507.868,447.868" transform="rotate(0 0 0)" fill="yellow" stroke="black" stroke-width="0.5" />
<polygon points="300,512.132 300,532.132 360,532.132 360,512.132" transform="rotate(0 300 300)" fill="yellow" stroke="black" stroke-width="0.5" />
<polygon points="240,512.132 240,532.132 300,532.132 300,512.132" transform="rotate(0 300 300)" fill="yellow" stroke="black" stroke-width="0.5" />
<polygon points="360,512.132 360,532.132 420,532.132 420,512.132" transform="rotate(0 300 300)" fill="yellow" stroke="black" stroke-width="0.5" />
<polygon points="180,512.132 180,532.132 240,532.132 240,512.132" transform="rotate(0 300 300)" fill="yellow" stroke="black" stroke-width="0.5" />
<polygon points="420,512.132 420,532.132 480,532.132 480,512.132" transform="rotate(0 300 300)" fill="yellow" stroke="black" stroke-width="0.5" />
<polygon points="120,512.132 120,532.132 180,532.132 180,512.132" transform="rotate(0 300 300)" fill="yellow" stroke="black" stroke-width="0.5" />
<polygon points="300,532.132 300,552.132 360,552.132 360,532.132" transform="rotate(0 300 300)" fill="yellow" stroke="black" stroke-width="0.5" />
<polygon points="240,532.132 240,552.132 300,552.132 300,532.132" transform="rotate(0 300 300)" fill="yellow" stroke="black" stroke-width="0.5" />
<polygon points="360,532.132 360,552.132 420,552.132 420,532.132" transform="rotate(0 300 300)" fill="yellow" stroke="black" stroke-width="0.5" />
<polygon points="180,532.132 180,552.132 240,552.132 240,532.132" transform="rotate(0 300 300)" fill="yellow" stroke="black" stroke-width="0.5" />
<polygon points="300,552.132 300,572.132 360,572.132 360,552.132" transform="rotate(0 300 300)" fill="yellow" stroke="black" stroke-width="0.5" />
<polygon points="240,552.132 240,572.132 300,572.132 300,552.132" transform="rotate(0 300 300)" fill="yellow" stroke="black" stroke-width="0.5" />
<polygon points="360,552.132 360,572.132 420,572.132 420,552.132" transform="rotate(0 300 300)" fill="yellow" stroke="black" stroke-width="0.5" />
<polygon points="180,552.132 180,572.132 240,572.132 240,552.132" transform="rotate(0 300 300)" fill="yellow" stroke="black" stroke-width="0.5" />
<polygon points="300,572.132 300,592.132 360,592.132 360,572.132" transform="rotate(0 300 300)" fill="yellow" stroke="black" stroke-width="0.5" />
<polygon points="240,572.132 240,592.132 300,592.132 300,572.132" transform="rotate(0 300 300)" fill="yellow" stroke="black" stroke-width="0.5" />
<polygon points="300,512.132 300,532.132 360,532.132 360,512.132" transform="rotate(90 300 300)" fill="yellow" stroke="black" stroke-width="0.5" />
<polygon points="240,512.132 240,532.132 300,532.132 300,512.132" transform="rotate(90 300 300)" fill="yellow" stroke="black" stroke-width="0.5" />
<polygon points="360,512.132 360,532.132 420,532.132 420,512.132" transform="rotate(90 300 300)" fill="yellow" stroke="black" stroke-width="0.5" />
<polygon points="180,512.132 180,532.132 240,532.132 240,512.132" transform="rotate(90 300 300)" fill="yellow" stroke="black" stroke-width="0.5" />
<polygon points="420,512.132 420,532.132 480,532.132 480,512.132" transform="rotate(90 300 300)" fill="yellow" stroke="black" stroke-width="0.5" />
<polygon points="120,512.132 120,532.132 180,532.132 180,512.132" transform="rotate(90 300 300)" fill="yellow" stroke="black" stroke-width="0.5" />
<polygon points="300,532.132 300,552.132 360,552.132 360,532.132" transform="rotate(90 300 300)" fill="yellow" stroke="black" stroke-width="0.5" />
<polygon points="240,532.132 240,552.132 300,552.132 300,532.132" transform="rotate(90 300 300)" fill="yellow" stroke="black" stroke-width="0.5" />
<polygon points="360,532.132 360,552.132 420,552.132 420,532.132" transform="rotate(90 300 300)" fill="yellow" stroke="black" stroke-width="0.5" />
<polygon points="180,532.132 180,552.132 240,552.132 240,532.132" transform="rotate(90 300 300)" fill="yellow" stroke="black" stroke-width="0.5" />
<polygon points="300,552.132 300,572.132 360,572.132 360,552.132" transform="rotate(90 300 300)" fill="yellow" stroke="black" stroke-width="0.5" />
<polygon points="240,552.132 240,572.132 300,572.132 300,552.132" transform="rotate(90 300 300)" fill="yellow" stroke="black" stroke-width="0.5" />
<polygon points="360,552.132 360,572.132 420,572.132 420,552.132" transform="rotate(90 300 300)" fill="yellow" stroke="black" stroke-width="0.5" />
<polygon points="180,552.132 180,572.132 240,572.132 240,552.132" transform="rotate(90 300 300)" fill="yellow" stroke="black" stroke-width="0.5" />
<polygon points="300,572.132 300,592.132 360,592.132 360,572.132" transform="rotate(90 300 300)" fill="yellow" stroke="black" stroke-width="0.5" />
<polygon points="240,572.132 240,592.132 300,592.132 300,572.132" transform="rotate(90 300 300)" fill="yellow" stroke="black" stroke-width="0.5" />
<polygon points="300,512.132 300,532.132 360,532.132 360,512.132" transform="rotate(180 300 300)" fill="yellow" stroke="black" stroke-width="0.5" />
<polygon points="240,512.132 240,532.132 300,532.132 300,512.132" transform="rotate(180 300 300)" fill="yellow" stroke="black" stroke-width="0.5" />
<polygon points="360,512.132 360,532.132 420,532.132 420,512.132" transform="rotate(180 300 300)" fill="yellow" stroke="black" stroke-width="0.5" />
<polygon points="180,512.132 180,532.132 240,532.132 240,512.132" transform="rotate(180 300 300)" fill="yellow" stroke="black" stroke-width="0.5" />
<polygon points="420,512.132 420,532.132 480,532.132 480,512.132" transform="rotate(180 300 300)" fill="yellow" stroke="black" stroke-width="0.5" />
<polygon points="120,512.132 120,532.132 180,532.132 180,512.132" transform="rotate(180 300 300)" fill="yellow" stroke="black" stroke-width="0.5" />
<polygon points="300,532.132 300,552.132 360,552.132 360,532.132" transform="rotate(180 300 300)" fill="yellow" stroke="black" stroke-width="0.5" />
<polygon points="240,532.132 240,552.132 300,552.132 300,532.132" transform="rotate(180 300 300)" fill="yellow" stroke="black" stroke-width="0.5" />
<polygon points="360,532.132 360,552.132 420,552.132 420,532.132" transform="rotate(180 300 300)" fill="yellow" stroke="black" stroke-width="0.5" />
<polygon points="180,532.132 180,552.132 240,552.132 240,532.132" transform="rotate(180 300 300)" fill="yellow" stroke="black" stroke-width="0.5" />
<polygon points="300,552.132 300,572.132 360,572.132 360,552.132" transform="rotate(180 300 300)" fill="yellow" stroke="black" stroke-width="0.5" />
<polygon points="240,552.132 240,572.132 300,572.132 300,552.132" transform="rotate(180 300 300)" fill="yellow" stroke="black" stroke-width="0.5" />
<polygon points="360,552.132 360,572.132 420,572.132 420,552.132" transform="rotate(180 300 300)" fill="yellow" stroke="black" stroke-width="0.5" />
<polygon points="180,552.132 180,572.132 240,572.132 240,552.132" transform="rotate(180 300 300)" fill="yellow" stroke="black" stroke-width="0.5" />
<polygon points="300,572.132 300,592.132 360,592.132 360,572.132" transform="rotate(180 300 300)" fill="yellow" stroke="black" stroke-width="0.5" />
<polygon points="240,572.132 240,592.132 300,592.132 300,572.132" transform="rotate(180 300 300)" fill="yellow" stroke="black" stroke-width="0.5" />
<polygon points="300,512.132 300,532.132 360,532.132 360,512.132" transform="rotate(270 300 300)" fill="yellow" stroke="black" stroke-width="0.5" />
<polygon points="240,512.132 240,532.132 300,532.132 300,512.132" transform="rotate(270 300 300)" fill="yellow" stroke="black" stroke-width="0.5" />
<polygon points="360,512.132 360,532.132 420,532.132 420,512.132" transform="rotate(270 300 300)" fill="yellow" stroke="black" stroke-width="0.5" />
<polygon points="180,512.132 180,532.132 240,532.132 240,512.132" transform="rotate(270 300 300)" fill="yellow" stroke="black" stroke-width="0.5" />
<polygon points="420,512.132 420,532.132 480,532.132 480,512.132" transform="rotate(270 300 300)" fill="yellow" stroke="black" stroke-width="0.5" />
<polygon points="120,512.132 120,532.132 180,532.132 180,512.132" transform="rotate(270 300 300)" fill="yellow" stroke="black" stroke-width="0.5" />
<polygon points="300,532.132 300,552.132 360,552.132 360,532.132" transform="rotate(270 300 300)" fill="yellow" stroke="black" stroke-width="0.5" />
<polygon points="240,532.132 240,552.132 300,552.132 300,532.132" transform="rotate(270 300 300)" fill="yellow" stroke="black" stroke-width="0.5" />
<polygon points="360,532.132 360,552.132 420,552.132 420,532.132" transform="rotate(270 300 300)" fill="yellow" stroke="black" stroke-width="0.5" />
<polygon points="180,532.132 180,552.132 240,552.132 240,532.132" transform="rotate(270 300 300)" fill="yellow" stroke="black" stroke-width="0.5" />
<polygon points="300,552.132 300,572.132 360,572.132 360,552.132" transform="rotate(270 300 300)" fill="yellow" stroke="black" stroke-width="0.5" />
<polygon points="240,552.132 240,572.132 300,572.132 300,552.132" transform="rotate(270 300 300)" fill="yellow" stroke="black" stroke-width="0.5" />
<polygon points="360,552.132 360,572.132 420,572.132 420,552.132" transform="rotate(270 300 300)" fill="yellow" stroke="black" stroke-width="0.5" />
<polygon points="180,552.132 180,572.132 240,572.132 240,552.132" transform="rotate(270 300 300)" fill="yellow" stroke="black" stroke-width="0.5" />
<polygon points="300,572.132 300,592.132 360,592.132 360,572.132" transform="rotate(270 300 300)" fill="yellow" stroke="black" stroke-width="0.5" />
<polygon points="240,572.132 240,592.132 300,592.132 300,572.132" transform="rotate(270 300 300)" fill="yellow" stroke="black" stroke-width="0.5" />
</svg>
