<svg version="1.1" baseProfile="full" xmlns="http://www.w3.org/2000/svg">
<polygon points="5,5 5,505 505,505 505,5" transform="rotate(0 0 0)" fill="dimgrey" stroke="black" stroke-width="0.5" />
<polygon points="105,55 104.901,51.8605 104.606,48.7333 104.114,45.6309 103.429,42.5655 102.553,39.5492 101.489,36.5938 100.241,33.711 98.8153,30.9123 97.2164,28.2087 95.4508,25.6107 93.5257,23.1288 91.4484,20.7726 89.2274,18.5516 86.8712,16.4743 84.3893,14.5492 81.7913,12.7836 79.0877,11.1847 76.289,9.75865 73.4062,8.51118 70.4508,7.44717 67.4345,6.57084 64.3691,5.88564 61.2667,5.39426 58.1395,5.09866 55,5 51.8605,5.09866 48.7333,5.39426 45.6309,5.88564 42.5655,6.57084 39.5492,7.44717 36.5938,8.51118 33.711,9.75865 30.9123,11.1847 28.2087,12.7836 25.6107,14.5492 23.1288,16.4743 20.7726,18.5516 18.5516,20.7726 16.4743,23.1288 14.5492,25.6107 12.7836,28.2087 11.1847,30.9123 9.75865,33.711 8.51118,36.5938 7.44717,39.5492 6.57084,42.5655 5.88564,45.6309 5.39426,48.7333 5.09866,51.8605 5,55 5.09866,58.1395 5.39426,61.2667 5.88564,64.3691 6.57084,67.4345 7.44717,70.4508 8.51118,73.4062 9.75865,76.289 11.1847,79.0877 12.7836,81.7913 14.5492,84.3893 16.4743,86.8712 18.5516,89.2274 20.7726,91.4484 23.1288,93.5257 25.6107,95.4508 28.2087,97.2164 30.9123,98.8153 33.711,100.241 36.5938,101.489 39.5492,102.553 42.5655,103.429 45.6309,104.114 48.7333,104.606 51.8605,104.901 55,105 58.1395,104.901 61.2667,104.606 64.3691,104.114 67.4345,103.429 70.4508,102.553 73.4062,101.489 76.289,100.241 79.0877,98.8153 81.7913,97.2164 84.3893,95.4508 86.8712,93.5257 89.2274,91.4484 91.4484,89.2274 93.5257,86.8712 95.4508,84.3893 97.2164,81.7913 98.8153,79.0877 100.241,76.289 101.489,73.4062 102.553,70.4508 103.429,67.4345 104.114,64.3691 104.606,61.2667 104.901,58.1395" transform="rotate(0 0 0)" fill="green" stroke="black" stroke-width="0.5" />
<polygon points="205,55 204.901,51.8605 204.606,48.7333 204.114,45.6309 203.429,42.5655 202.553,39.5492 201.489,36.5938 200.241,33.711 198.815,30.9123 197.216,28.2087 195.451,25.6107 193.526,23.1288 191.448,20.7726 189.227,18.5516 186.871,16.4743 184.389,14.5492 181.791,12.7836 179.088,11.1847 176.289,9.75865 173.406,8.51118 170.451,7.44717 167.434,6.57084 164.369,5.88564 161.267,5.39426 158.14,5.09866 155,5 151.86,5.09866 148.733,5.39426 145.631,5.88564 142.566,6.57084 139.549,7.44717 136.594,8.51118 133.711,9.75865 130.912,11.1847 128.209,12.7836 125.611,14.5492 123.129,16.4743 120.773,18.5516 118.552,20.7726 116.474,23.1288 114.549,25.6107 112.784,28.2087 111.185,30.9123 109.759,33.711 108.511,36.5938 107.447,39.5492 106.571,42.5655 105.886,45.6309 105.394,48.7333 105.099,51.8605 105,55 105.099,58.1395 105.394,61.2667 105.886,64.3691 106.571,67.4345 107.447,70.4508 108.511,73.4062 109.759,76.289 111.185,79.0877 112.784,81.7913 114.549,84.3893 116.474,86.8712 118.552,89.2274 120.773,91.4484 123.129,93.5257 125.611,95.4508 128.209,97.2164 130.912,98.8153 133.711,100.241 136.594,101.489 139.549,102.553 142.566,103.429 145.631,104.114 148.733,104.606 151.86,104.901 155,105 158.14,104.901 161.267,104.606 164.369,104.114 167.434,103.429 170.451,102.553 173.406,101.489 176.289,100.241 179.088,98.8153 181.791,97.2164 184.389,95.4508 186.871,93.5257 189.227,91.4484 191.448,89.2274 193.526,86.8712 195.451,84.3893 197.216,81.7913 198.815,79.0877 200.241,76.289 201.489,73.4062 202.553,70.4508 203.429,67.4345 204.114,64.3691 204.606,61.2667 204.901,58.1395" transform="rotate(0 0 0)" fill="green" stroke="black" stroke-width="0.5" />
<polygon points="305,55 304.901,51.8605 304.606,48.7333 304.114,45.6309 303.429,42.5655 302.553,39.5492 301.489,36.5938 300.241,33.711 298.815,30.9123 297.216,28.2087 295.451,25.6107 293.526,23.1288 291.448,20.7726 289.227,18.5516 286.871,16.4743 284.389,14.5492 281.791,12.7836 279.088,11.1847 276.289,9.75865 273.406,8.51118 270.451,7.44717 267.434,6.57084 264.369,5.88564 261.267,5.39426 258.14,5.09866 255,5 251.86,5.09866 248.733,5.39426 245.631,5.88564 242.566,6.57084 239.549,7.44717 236.594,8.51118 233.711,9.75865 230.912,11.1847 228.209,12.7836 225.611,14.5492 223.129,16.4743 220.773,18.5516 218.552,20.7726 216.474,23.1288 214.549,25.6107 212.784,28.2087 211.185,30.9123 209.759,33.711 208.511,36.5938 207.447,39.5492 206.571,42.5655 205.886,45.6309 205.394,48.7333 205.099,51.8605 205,55 205.099,58.1395 205.394,61.2667 205.886,64.3691 206.571,67.4345 207.447,70.4508 208.511,73.4062 209.759,76.289 211.185,79.0877 212.784,81.7913 214.549,84.3893 216.474,86.8712 218.552,89.2274 220.773,91.4484 223.129,93.5257 225.611,95.4508 228.209,97.2164 230.912,98.8153 233.711,100.241 236.594,101.489 239.549,102.553 242.566,103.429 245.631,104.114 248.733,104.606 251.86,104.901 255,105 258.14,104.901 261.267,104.606 264.369,104.114 267.434,103.429 270.451,102.553 273.406,101.489 276.289,100.241 279.088,98.8153 281.791,97.2164 284.389,95.4508 286.871,93.5257 289.227,91.4484 291.448,89.2274 293.526,86.8712 295.451,84.3893 297.216,81.7913 298.815,79.0877 300.241,76.289 301.489,73.4062 302.553,70.4508 303.429,67.4345 304.114,64.3691 304.606,61.2667 304.901,58.1395" transform="rotate(0 0 0)" fill="green" stroke="black" stroke-width="0.5" />
<polygon points="405,55 404.901,51.8605 404.606,48.7333 404.114,45.6309 403.429,42.5655 402.553,39.5492 401.489,36.5938 400.241,33.711 398.815,30.9123 397.216,28.2087 395.451,25.6107 393.526,23.1288 391.448,20.7726 389.227,18.5516 386.871,16.4743 384.389,14.5492 381.791,12.7836 379.088,11.1847 376.289,9.75865 373.406,8.51118 370.451,7.44717 367.434,6.57084 364.369,5.88564 361.267,5.39426 358.14,5.09866 355,5 351.86,5.09866 348.733,5.39426 345.631,5.88564 342.566,6.57084 339.549,7.44717 336.594,8.51118 333.711,9.75865 330.912,11.1847 328.209,12.7836 325.611,14.5492 323.129,16.4743 320.773,18.5516 318.552,20.7726 316.474,23.1288 314.549,25.6107 312.784,28.2087 311.185,30.9123 309.759,33.711 308.511,36.5938 307.447,39.5492 306.571,42.5655 305.886,45.6309 305.394,48.7333 305.099,51.8605 305,55 305.099,58.1395 305.394,61.2667 305.886,64.3691 306.571,67.4345 307.447,70.4508 308.511,73.4062 309.759,76.289 311.185,79.0877 312.784,81.7913 314.549,84.3893 316.474,86.8712 318.552,89.2274 320.773,91.4484 323.129,93.5257 325.611,95.4508 328.209,97.2164 330.912,98.8153 333.711,100.241 336.594,101.489 339.549,102.553 342.566,103.429 345.631,104.114 348.733,104.606 351.86,104.901 355,105 358.14,104.901 361.267,104.606 364.369,104.114 367.434,103.429 370.451,102.553 373.406,101.489 376.289,100.241 379.088,98.8153 381.791,97.2164 384.389,95.4508 386.871,93.5257 389.227,91.4484 391.448,89.2274 393.526,86.8712 395.451,84.3893 397.216,81.7913 398.815,79.0877 400.241,76.289 401.489,73.4062 402.553,70.4508 403.429,67.4345 404.114,64.3691 404.606,61.2667 404.901,58.1395" transform="rotate(0 0 0)" fill="green" stroke="black" stroke-width="0.5" />
<polygon points="505,55 504.901,51.8605 504.606,48.7333 504.114,45.6309 503.429,42.5655 502.553,39.5492 501.489,36.5938 500.241,33.711 498.815,30.9123 497.216,28.2087 495.451,25.6107 493.526,23.1288 491.448,20.7726 489.227,18.5516 486.871,16.4743 484.389,14.5492 481.791,12.7836 479.088,11.1847 476.289,9.75865 473.406,8.51118 470.451,7.44717 467.434,6.57084 464.369,5.88564 461.267,5.39426 458.14,5.09866 455,5 451.86,5.09866 448.733,5.39426 445.631,5.88564 442.566,6.57084 439.549,7.44717 436.594,8.51118 433.711,9.75865 430.912,11.1847 428.209,12.7836 425.611,14.5492 423.129,16.4743 420.773,18.5516 418.552,20.7726 416.474,23.1288 414.549,25.6107 412.784,28.2087 411.185,30.9123 409.759,33.711 408.511,36.5938 407.447,39.5492 406.571,42.5655 405.886,45.6309 405.394,48.7333 405.099,51.8605 405,55 405.099,58.1395 405.394,61.2667 405.886,64.3691 406.571,67.4345 407.447,70.4508 408.511,73.4062 409.759,76.289 411.185,79.0877 412.784,81.7913 414.549,84.3893 416.474,86.8712 418.552,89.2274 420.773,91.4484 423.129,93.5257 425.611,95.4508 428.209,97.2164 430.912,98.8153 433.711,100.241 436.594,101.489 439.549,102.553 442.566,103.429 445.631,104.114 448.733,104.606 451.86,104.901 455,105 458.14,104.901 461.267,104.606 464.369,104.114 467.434,103.429 470.451,102.553 473.406,101.489 476.289,100.241 479.088,98.8153 481.791,97.2164 484.389,95.4508 486.871,93.5257 489.227,91.4484 491.448,89.2274 493.526,86.8712 495.451,84.3893 497.216,81.7913 498.815,79.0877 500.241,76.289 501.489,73.4062 502.553,70.4508 503.429,67.4345 504.114,64.3691 504.606,61.2667 504.901,58.1395" transform="rotate(0 0 0)" fill="green" stroke="black" stroke-width="0.5" />
<polygon points="105,155 104.901,151.86 104.606,148.733 104.114,145.631 103.429,142.566 102.553,139.549 101.489,136.594 100.241,133.711 98.8153,130.912 97.2164,128.209 95.4508,125.611 93.5257,123.129 91.4484,120.773 89.2274,118.552 86.8712,116.474 84.3893,114.549 81.7913,112.784 79.0877,111.185 76.289,109.759 73.4062,108.511 70.4508,107.447 67.4345,106.571 64.3691,105.886 61.2667,105.394 58.1395,105.099 55,105 51.8605,105.099 48.7333,105.394 45.6309,105.886 42.5655,106.571 39.5492,107.447 36.5938,108.511 33.711,109.759 30.9123,111.185 28.2087,112.784 25.6107,114.549 23.1288,116.474 20.7726,118.552 18.5516,120.773 16.4743,123.129 14.5492,125.611 12.7836,128.209 11.1847,130.912 9.75865,133.711 8.51118,136.594 7.44717,139.549 6.57084,142.566 5.88564,145.631 5.39426,148.733 5.09866,151.86 5,155 5.09866,158.14 5.39426,161.267 5.88564,164.369 6.57084,167.434 7.44717,170.451 8.51118,173.406 9.75865,176.289 11.1847,179.088 12.7836,181.791 14.5492,184.389 16.4743,186.871 18.5516,189.227 20.7726,191.448 23.1288,193.526 25.6107,195.451 28.2087,197.216 30.9123,198.815 33.711,200.241 36.5938,201.489 39.5492,202.553 42.5655,203.429 45.6309,204.114 48.7333,204.606 51.8605,204.901 55,205 58.1395,204.901 61.2667,204.606 64.3691,204.114 67.4345,203.429 70.4508,202.553 73.4062,201.489 76.289,200.241 79.0877,198.815 81.7913,197.216 84.3893,195.451 86.8712,193.526 89.2274,191.448 91.4484,189.227 93.5257,186.871 95.4508,184.389 97.2164,181.791 98.8153,179.088 100.241,176.289 101.489,173.406 102.553,170.451 103.429,167.434 104.114,164.369 104.606,161.267 104.901,158.14" transform="rotate(0 0 0)" fill="green" stroke="black" stroke-width="0.5" />
<polygon points="205,155 204.901,151.86 204.606,148.733 204.114,145.631 203.429,142.566 202.553,139.549 201.489,136.594 200.241,133.711 198.815,130.912 197.216,128.209 195.451,125.611 193.526,123.129 191.448,120.773 189.227,118.552 186.871,116.474 184.389,114.549 181.791,112.784 179.088,111.185 176.289,109.759 173.406,108.511 170.451,107.447 167.434,106.571 164.369,105.886 161.267,105.394 158.14,105.099 155,105 151.86,105.099 148.733,105.394 145.631,105.886 142.566,106.571 139.549,107.447 136.594,108.511 133.711,109.759 130.912,111.185 128.209,112.784 125.611,114.549 123.129,116.474 120.773,118.552 118.552,120.773 116.474,123.129 114.549,125.611 112.784,128.209 111.185,130.912 109.759,133.711 108.511,136.594 107.447,139.549 106.571,142.566 105.886,145.631 105.394,148.733 105.099,151.86 105,155 105.099,158.14 105.394,161.267 105.886,164.369 106.571,167.434 107.447,170.451 108.511,173.406 109.759,176.289 111.185,179.088 112.784,181.791 114.549,184.389 116.474,186.871 118.552,189.227 120.773,191.448 123.129,193.526 125.611,195.451 128.209,197.216 130.912,198.815 133.711,200.241 136.594,201.489 139.549,202.553 142.566,203.429 145.631,204.114 148.733,204.606 151.86,204.901 155,205 158.14,204.901 161.267,204.606 164.369,204.114 167.434,203.429 170.451,202.553 173.406,201.489 176.289,200.241 179.088,198.815 181.791,197.216 184.389,195.451 186.871,193.526 189.227,191.448 191.448,189.227 193.526,186.871 195.451,184.389 197.216,181.791 198.815,179.088 200.241,176.289 201.489,173.406 202.553,170.451 203.429,167.434 204.114,164.369 204.606,161.267 204.901,158.14" transform="rotate(0 0 0)" fill="green" stroke="black" stroke-width="0.5" />
<polygon points="305,155 304.901,151.86 304.606,148.733 304.114,145.631 303.429,142.566 302.553,139.549 301.489,136.594 300.241,133.711 298.815,130.912 297.216,128.209 295.451,125.611 293.526,123.129 291.448,120.773 289.227,118.552 286.871,116.474 284.389,114.549 281.791,112.784 279.088,111.185 276.289,109.759 273.406,108.511 270.451,107.447 267.434,106.571 264.369,105.886 261.267,105.394 258.14,105.099 255,105 251.86,105.099 248.733,105.394 245.631,105.886 242.566,106.571 239.549,107.447 236.594,108.511 233.711,109.759 230.912,111.185 228.209,112.784 225.611,114.549 223.129,116.474 220.773,118.552 218.552,120.773 216.474,123.129 214.549,125.611 212.784,128.209 211.185,130.912 209.759,133.711 208.511,136.594 207.447,139.549 206.571,142.566 205.886,145.631 205.394,148.733 205.099,151.86 205,155 205.099,158.14 205.394,161.267 205.886,164.369 206.571,167.434 207.447,170.451 208.511,173.406 209.759,176.289 211.185,179.088 212.784,181.791 214.549,184.389 216.474,186.871 218.552,189.227 220.773,191.448 223.129,193.526 225.611,195.451 228.209,197.216 230.912,198.815 233.711,200.241 236.594,201.489 239.549,202.553 242.566,203.429 245.631,204.114 248.733,204.606 251.86,204.901 255,205 258.14,204.901 261.267,204.606 264.369,204.114 267.434,203.429 270.451,202.553 273.406,201.489 276.289,200.241 279.088,198.815 281.791,197.216 284.389,195.451 286.871,193.526 289.227,191.448 291.448,189.227 293.526,186.871 295.451,184.389 297.216,181.791 298.815,179.088 300.241,176.289 301.489,173.406 302.553,170.451 303.429,167.434 304.114,164.369 304.606,161.267 304.901,158.14" transform="rotate(0 0 0)" fill="green" stroke="black" stroke-width="0.5" />
<polygon points="405,155 404.901,151.86 404.606,148.733 404.114,145.631 403.429,142.566 402.553,139.549 401.489,136.594 400.241,133.711 398.815,130.912 397.216,128.209 395.451,125.611 393.526,123.129 391.448,120.773 389.227,118.552 386.871,116.474 384.389,114.549 381.791,112.784 379.088,111.185 376.289,109.759 373.406,108.511 370.451,107.447 367.434,106.571 364.369,105.886 361.267,105.394 358.14,105.099 355,105 351.86,105.099 348.733,105.394 345.631,105.886 342.566,106.571 339.549,107.447 336.594,108.511 333.711,109.759 330.912,111.185 328.209,112.784 325.611,114.549 323.129,116.474 320.773,118.552 318.552,120.773 316.474,123.129 314.549,125.611 312.784,128.209 311.185,130.912 309.759,133.711 308.511,136.594 307.447,139.549 306.571,142.566 305.886,145.631 305.394,148.733 305.099,151.86 305,155 305.099,158.14 305.394,161.267 305.886,164.369 306.571,167.434 307.447,170.451 308.511,173.406 309.759,176.289 311.185,179.088 312.784,181.791 314.549,184.389 316.474,186.871 318.552,189.227 320.773,191.448 323.129,193.526 325.611,195.451 328.209,197.216 330.912,198.815 333.711,200.241 336.594,201.489 339.549,202.553 342.566,203.429 345.631,204.114 348.733,204.606 351.86,204.901 355,205 358.14,204.901 361.267,204.606 364.369,204.114 367.434,203.429 370.451,202.553 373.406,201.489 376.289,200.241 379.088,198.815 381.791,197.216 384.389,195.451 386.871,193.526 389.227,191.448 391.448,189.227 393.526,186.871 395.451,184.389 397.216,181.791 398.815,179.088 400.241,176.289 401.489,173.406 402.553,170.451 403.429,167.434 404.114,164.369 404.606,161.267 404.901,158.14" transform="rotate(0 0 0)" fill="green" stroke="black" stroke-width="0.5" />
<polygon points="505,155 504.901,151.86 504.606,148.733 504.114,145.631 503.429,142.566 502.553,139.549 501.489,136.594 500.241,133.711 498.815,130.912 497.216,128.209 495.451,125.611 493.526,123.129 491.448,120.773 489.227,118.552 486.871,116.474 484.389,114.549 481.791,112.784 479.088,111.185 476.289,109.759 473.406,108.511 470.451,107.447 467.434,106.571 464.369,105.886 461.267,105.394 458.14,105.099 455,105 451.86,105.099 448.733,105.394 445.631,105.886 442.566,106.571 439.549,107.447 436.594,108.511 433.711,109.759 430.912,111.185 428.209,112.784 425.611,114.549 423.129,116.474 420.773,118.552 418.552,120.773 416.474,123.129 414.549,125.611 412.784,128.209 411.185,130.912 409.759,133.711 408.511,136.594 407.447,139.549 406.571,142.566 405.886,145.631 405.394,148.733 405.099,151.86 405,155 405.099,158.14 405.394,161.267 405.886,164.369 406.571,167.434 407.447,170.451 408.511,173.406 409.759,176.289 411.185,179.088 412.784,181.791 414.549,184.389 416.474,186.871 418.552,189.227 420.773,191.448 423.129,193.526 425.611,195.451 428.209,197.216 430.912,198.815 433.711,200.241 436.594,201.489 439.549,202.553 442.566,203.429 445.631,204.114 448.733,204.606 451.86,204.901 455,205 458.14,204.901 461.267,204.606 464.369,204.114 467.434,203.429 470.451,202.553 473.406,201.489 476.289,200.241 479.088,198.815 481.791,197.216 484.389,195.451 486.871,193.526 489.227,191.448 491.448,189.227 493.526,186.871 495.451,184.389 497.216,181.791 498.815,179.088 500.241,176.289 501.489,173.406 502.553,170.451 503.429,167.434 504.114,164.369 504.606,161.267 504.901,158.14" transform="rotate(0 0 0)" fill="green" stroke="black" stroke-width="0.5" />
<polygon points="105,255 104.901,251.86 104.606,248.733 104.114,245.631 103.429,242.566 102.553,239.549 101.489,236.594 100.241,233.711 98.8153,230.912 97.2164,228.209 95.4508,225.611 93.5257,223.129 91.4484,220.773 89.2274,218.552 86.8712,216.474 84.3893,214.549 81.7913,212.784 79.0877,211.185 76.289,209.759 73.4062,208.511 70.4508,207.447 67.4345,206.571 64.3691,205.886 61.2667,205.394 58.1395,205.099 55,205 51.8605,205.099 48.7333,205.394 45.6309,205.886 42.5655,206.571 39.5492,207.447 36.5938,208.511 33.711,209.759 30.9123,211.185 28.2087,212.784 25.6107,214.549 23.1288,216.474 20.7726,218.552 18.5516,220.773 16.4743,223.129 14.5492,225.611 12.7836,228.209 11.1847,230.912 9.75865,233.711 8.51118,236.594 7.44717,239.549 6.57084,242.566 5.88564,245.631 5.39426,248.733 5.09866,251.86 5,255 5.09866,258.14 5.39426,261.267 5.88564,264.369 6.57084,267.434 7.44717,270.451 8.51118,273.406 9.75865,276.289 11.1847,279.088 12.7836,281.791 14.5492,284.389 16.4743,286.871 18.5516,289.227 20.7726,291.448 23.1288,293.526 25.6107,295.451 28.2087,297.216 30.9123,298.815 33.711,300.241 36.5938,301.489 39.5492,302.553 42.5655,303.429 45.6309,304.114 48.7333,304.606 51.8605,304.901 55,305 58.1395,304.901 61.2667,304.606 64.3691,304.114 67.4345,303.429 70.4508,302.553 73.4062,301.489 76.289,300.241 79.0877,298.815 81.7913,297.216 84.3893,295.451 86.8712,293.526 89.2274,291.448 91.4484,289.227 93.5257,286.871 95.4508,284.389 97.2164,281.791 98.8153,279.088 100.241,276.289 101.489,273.406 102.553,270.451 103.429,267.434 104.114,264.369 104.606,261.267 104.901,258.14" transform="rotate(0 0 0)" fill="green" stroke="black" stroke-width="0.5" />
<polygon points="205,255 204.901,251.86 204.606,248.733 204.114,245.631 203.429,242.566 202.553,239.549 201.489,236.594 200.241,233.711 198.815,230.912 197.216,228.209 195.451,225.611 193.526,223.129 191.448,220.773 189.227,218.552 186.871,216.474 184.389,214.549 181.791,212.784 179.088,211.185 176.289,209.759 173.406,208.511 170.451,207.447 167.434,206.571 164.369,205.886 161.267,205.394 158.14,205.099 155,205 151.86,205.099 148.733,205.394 145.631,205.886 142.566,206.571 139.549,207.447 136.594,208.511 133.711,209.759 130.912,211.185 128.209,212.784 125.611,214.549 123.129,216.474 120.773,218.552 118.552,220.773 116.474,223.129 114.549,225.611 112.784,228.209 111.185,230.912 109.759,233.711 108.511,236.594 107.447,239.549 106.571,242.566 105.886,245.631 105.394,248.733 105.099,251.86 105,255 105.099,258.14 105.394,261.267 105.886,264.369 106.571,267.434 107.447,270.451 108.511,273.406 109.759,276.289 111.185,279.088 112.784,281.791 114.549,284.389 116.474,286.871 118.552,289.227 120.773,291.448 123.129,293.526 125.611,295.451 128.209,297.216 130.912,298.815 133.711,300.241 136.594,301.489 139.549,302.553 142.566,303.429 145.631,304.114 148.733,304.606 151.86,304.901 155,305 158.14,304.901 161.267,304.606 164.369,304.114 167.434,303.429 170.451,302.553 173.406,301.489 176.289,300.241 179.088,298.815 181.791,297.216 184.389,295.451 186.871,293.526 189.227,291.448 191.448,289.227 193.526,286.871 195.451,284.389 197.216,281.791 198.815,279.088 200.241,276.289 201.489,273.406 202.553,270.451 203.429,267.434 204.114,264.369 204.606,261.267 204.901,258.14" transform="rotate(0 0 0)" fill="green" stroke="black" stroke-width="0.5" />
<polygon points="305,255 304.901,251.86 304.606,248.733 304.114,245.631 303.429,242.566 302.553,239.549 301.489,236.594 300.241,233.711 298.815,230.912 297.216,228.209 295.451,225.611 293.526,223.129 291.448,220.773 289.227,218.552 286.871,216.474 284.389,214.549 281.791,212.784 279.088,211.185 276.289,209.759 273.406,208.511 270.451,207.447 267.434,206.571 264.369,205.886 261.267,205.394 258.14,205.099 255,205 251.86,205.099 248.733,205.394 245.631,205.886 242.566,206.571 239.549,207.447 236.594,208.511 233.711,209.759 230.912,211.185 228.209,212.784 225.611,214.549 223.129,216.474 220.773,218.552 218.552,220.773 216.474,223.129 214.549,225.611 212.784,228.209 211.185,230.912 209.759,233.711 208.511,236.594 207.447,239.549 206.571,242.566 205.886,245.631 205.394,248.733 205.099,251.86 205,255 205.099,258.14 205.394,261.267 205.886,264.369 206.571,267.434 207.447,270.451 208.511,273.406 209.759,276.289 211.185,279.088 212.784,281.791 214.549,284.389 216.474,286.871 218.552,289.227 220.773,291.448 223.129,293.526 225.611,295.451 228.209,297.216 230.912,298.815 233.711,300.241 236.594,301.489 239.549,302.553 242.566,303.429 245.631,304.114 248.733,304.606 251.86,304.901 255,305 258.14,304.901 261.267,304.606 264.369,304.114 267.434,303.429 270.451,302.553 273.406,301.489 276.289,300.241 279.088,298.815 281.791,297.216 284.389,295.451 286.871,293.526 289.227,291.448 291.448,289.227 293.526,286.871 295.451,284.389 297.216,281.791 298.815,279.088 300.241,276.289 301.489,273.406 302.553,270.451 303.429,267.434 304.114,264.369 304.606,261.267 304.901,258.14" transform="rotate(0 0 0)" fill="green" stroke="black" stroke-width="0.5" />
<polygon points="405,255 404.901,251.86 404.606,248.733 404.114,245.631 403.429,242.566 402.553,239.549 401.489,236.594 400.241,233.711 398.815,230.912 397.216,228.209 395.451,225.611 393.526,223.129 391.448,220.773 389.227,218.552 386.871,216.474 384.389,214.549 381.791,212.784 379.088,211.185 376.289,209.759 373.406,208.511 370.451,207.447 367.434,206.571 364.369,205.886 361.267,205.394 358.14,205.099 355,205 351.86,205.099 348.733,205.394 345.631,205.886 342.566,206.571 339.549,207.447 336.594,208.511 333.711,209.759 330.912,211.185 328.209,212.784 325.611,214.549 323.129,216.474 320.773,218.552 318.552,220.773 316.474,223.129 314.549,225.611 312.784,228.209 311.185,230.912 309.759,233.711 308.511,236.594 307.447,239.549 306.571,242.566 305.886,245.631 305.394,248.733 305.099,251.86 305,255 305.099,258.14 305.394,261.267 305.886,264.369 306.571,267.434 307.447,270.451 308.511,273.406 309.759,276.289 311.185,279.088 312.784,281.791 314.549,284.389 316.474,286.871 318.552,289.227 320.773,291.448 323.129,293.526 325.611,295.451 328.209,297.216 330.912,298.815 333.711,300.241 336.594,301.489 339.549,302.553 342.566,303.429 345.631,304.114 348.733,304.606 351.86,304.901 355,305 358.14,304.901 361.267,304.606 364.369,304.114 367.434,303.429 370.451,302.553 373.406,301.489 376.289,300.241 379.088,298.815 381.791,297.216 384.389,295.451 386.871,293.526 389.227,291.448 391.448,289.227 393.526,286.871 395.451,284.389 397.216,281.791 398.815,279.088 400.241,276.289 401.489,273.406 402.553,270.451 403.429,267.434 404.114,264.369 404.606,261.267 404.901,258.14" transform="rotate(0 0 0)" fill="green" stroke="black" stroke-width="0.5" />
<polygon points="505,255 504.901,251.86 504.606,248.733 504.114,245.631 503.429,242.566 502.553,239.549 501.489,236.594 500.241,233.711 498.815,230.912 497.216,228.209 495.451,225.611 493.526,223.129 491.448,220.773 489.227,218.552 486.871,216.474 484.389,214.549 481.791,212.784 479.088,211.185 476.289,209.759 473.406,208.511 470.451,207.447 467.434,206.571 464.369,205.886 461.267,205.394 458.14,205.099 455,205 451.86,205.099 448.733,205.394 445.631,205.886 442.566,206.571 439.549,207.447 436.594,208.511 433.711,209.759 430.912,211.185 428.209,212.784 425.611,214.549 423.129,216.474 420.773,218.552 418.552,220.773 416.474,223.129 414.549,225.611 412.784,228.209 411.185,230.912 409.759,233.711 408.511,236.594 407.447,239.549 406.571,242.566 405.886,245.631 405.394,248.733 405.099,251.86 405,255 405.099,258.14 405.394,261.267 405.886,264.369 406.571,267.434 407.447,270.451 408.511,273.406 409.759,276.289 411.185,279.088 412.784,281.791 414.549,284.389 416.474,286.871 418.552,289.227 420.773,291.448 423.129,293.526 425.611,295.451 428.209,297.216 430.912,298.815 433.711,300.241 436.594,301.489 439.549,302.553 442.566,303.429 445.631,304.114 448.733,304.606 451.86,304.901 455,305 458.14,304.901 461.267,304.606 464.369,304.114 467.434,303.429 470.451,302.553 473.406,301.489 476.289,300.241 479.088,298.815 481.791,297.216 484.389,295.451 486.871,293.526 489.227,291.448 491.448,289.227 493.526,286.871 495.451,284.389 497.216,281.791 498.815,279.088 500.241,276.289 501.489,273.406 502.553,270.451 503.429,267.434 504.114,264.369 504.606,261.267 504.901,258.14" transform="rotate(0 0 0)" fill="green" stroke="black" stroke-width="0.5" />
<polygon points="105,355 104.901,351.86 104.606,348.733 104.114,345.631 103.429,342.566 102.553,339.549 101.489,336.594 100.241,333.711 98.8153,330.912 97.2164,328.209 95.4508,325.611 93.5257,323.129 91.4484,320.773 89.2274,318.552 86.8712,316.474 84.3893,314.549 81.7913,312.784 79.0877,311.185 76.289,309.759 73.4062,308.511 70.4508,307.447 67.4345,306.571 64.3691,305.886 61.2667,305.394 58.1395,305.099 55,305 51.8605,305.099 48.7333,305.394 45.6309,305.886 42.5655,306.571 39.5492,307.447 36.5938,308.511 33.711,309.759 30.9123,311.185 28.2087,312.784 25.6107,314.549 23.1288,316.474 20.7726,318.552 18.5516,320.773 16.4743,323.129 14.5492,325.611 12.7836,328.209 11.1847,330.912 9.75865,333.711 8.51118,336.594 7.44717,339.549 6.57084,342.566 5.88564,345.631 5.39426,348.733 5.09866,351.86 5,355 5.09866,358.14 5.39426,361.267 5.88564,364.369 6.57084,367.434 7.44717,370.451 8.51118,373.406 9.75865,376.289 11.1847,379.088 12.7836,381.791 14.5492,384.389 16.4743,386.871 18.5516,389.227 20.7726,391.448 23.1288,393.526 25.6107,395.451 28.2087,397.216 30.9123,398.815 33.711,400.241 36.5938,401.489 39.5492,402.553 42.5655,403.429 45.6309,404.114 48.7333,404.606 51.8605,404.901 55,405 58.1395,404.901 61.2667,404.606 64.3691,404.114 67.4345,403.429 70.4508,402.553 73.4062,401.489 76.289,400.241 79.0877,398.815 81.7913,397.216 84.3893,395.451 86.8712,393.526 89.2274,391.448 91.4484,389.227 93.5257,386.871 95.4508,384.389 97.2164,381.791 98.8153,379.088 100.241,376.289 101.489,373.406 102.553,370.451 103.429,367.434 104.114,364.369 104.606,361.267 104.901,358.14" transform="rotate(0 0 0)" fill="green" stroke="black" stroke-width="0.5" />
<polygon points="205,355 204.901,351.86 204.606,348.733 204.114,345.631 203.429,342.566 202.553,339.549 201.489,336.594 200.241,333.711 198.815,330.912 197.216,328.209 195.451,325.611 193.526,323.129 191.448,320.773 189.227,318.552 186.871,316.474 184.389,314.549 181.791,312.784 179.088,311.185 176.289,309.759 173.406,308.511 170.451,307.447 167.434,306.571 164.369,305.886 161.267,305.394 158.14,305.099 155,305 151.86,305.099 148.733,305.394 145.631,305.886 142.566,306.571 139.549,307.447 136.594,308.511 133.711,309.759 130.912,311.185 128.209,312.784 125.611,314.549 123.129,316.474 120.773,318.552 118.552,320.773 116.474,323.129 114.549,325.611 112.784,328.209 111.185,330.912 109.759,333.711 108.511,336.594 107.447,339.549 106.571,342.566 105.886,345.631 105.394,348.733 105.099,351.86 105,355 105.099,358.14 105.394,361.267 105.886,364.369 106.571,367.434 107.447,370.451 108.511,373.406 109.759,376.289 111.185,379.088 112.784,381.791 114.549,384.389 116.474,386.871 118.552,389.227 120.773,391.448 123.129,393.526 125.611,395.451 128.209,397.216 130.912,398.815 133.711,400.241 136.594,401.489 139.549,402.553 142.566,403.429 145.631,404.114 148.733,404.606 151.86,404.901 155,405 158.14,404.901 161.267,404.606 164.369,404.114 167.434,403.429 170.451,402.553 173.406,401.489 176.289,400.241 179.088,398.815 181.791,397.216 184.389,395.451 186.871,393.526 189.227,391.448 191.448,389.227 193.526,386.871 195.451,384.389 197.216,381.791 198.815,379.088 200.241,376.289 201.489,373.406 202.553,370.451 203.429,367.434 204.114,364.369 204.606,361.267 204.901,358.14" transform="rotate(0 0 0)" fill="green" stroke="black" stroke-width="0.5" />
<polygon points="305,355 304.901,351.86 304.606,348.733 304.114,345.631 303.429,342.566 302.553,339.549 301.489,336.594 300.241,333.711 298.815,330.912 297.216,328.209 295.451,325.611 293.526,323.129 291.448,320.773 289.227,318.552 286.871,316.474 284.389,314.549 281.791,312.784 279.088,311.185 276.289,309.759 273.406,308.511 270.451,307.447 267.434,306.571 264.369,305.886 261.267,305.394 258.14,305.099 255,305 251.86,305.099 248.733,305.394 245.631,305.886 242.566,306.571 239.549,307.447 236.594,308.511 233.711,309.759 230.912,311.185 228.209,312.784 225.611,314.549 223.129,316.474 220.773,318.552 218.552,320.773 216.474,323.129 214.549,325.611 212.784,328.209 211.185,330.912 209.759,333.711 208.511,336.594 207.447,339.549 206.571,342.566 205.886,345.631 205.394,348.733 205.099,351.86 205,355 205.099,358.14 205.394,361.267 205.886,364.369 206.571,367.434 207.447,370.451 208.511,373.406 209.759,376.289 211.185,379.088 212.784,381.791 214.549,384.389 216.474,386.871 218.552,389.227 220.773,391.448 223.129,393.526 225.611,395.451 228.209,397.216 230.912,398.815 233.711,400.241 236.594,401.489 239.549,402.553 242.566,403.429 245.631,404.114 248.733,404.606 251.86,404.901 255,405 258.14,404.901 261.267,404.606 264.369,404.114 267.434,403.429 270.451,402.553 273.406,401.489 276.289,400.241 279.088,398.815 281.791,397.216 284.389,395.451 286.871,393.526 289.227,391.448 291.448,389.227 293.526,386.871 295.451,384.389 297.216,381.791 298.815,379.088 300.241,376.289 301.489,373.406 302.553,370.451 303.429,367.434 304.114,364.369 304.606,361.267 304.901,358.14" transform="rotate(0 0 0)" fill="green" stroke="black" stroke-width="0.5" />
<polygon points="405,355 404.901,351.86 404.606,348.733 404.114,345.631 403.429,342.566 402.553,339.549 401.489,336.594 400.241,333.711 398.815,330.912 397.216,328.209 395.451,325.611 393.526,323.129 391.448,320.773 389.227,318.552 386.871,316.474 384.389,314.549 381.791,312.784 379.088,311.185 376.289,309.759 373.406,308.511 370.451,307.447 367.434,306.571 364.369,305.886 361.267,305.394 358.14,305.099 355,305 351.86,305.099 348.733,305.394 345.631,305.886 342.566,306.571 339.549,307.447 336.594,308.511 333.711,309.759 330.912,311.185 328.209,312.784 325.611,314.549 323.129,316.474 320.773,318.552 318.552,320.773 316.474,323.129 314.549,325.611 312.784,328.209 311.185,330.912 309.759,333.711 308.511,336.594 307.447,339.549 306.571,342.566 305.886,345.631 305.394,348.733 305.099,351.86 305,355 305.099,358.14 305.394,361.267 305.886,364.369 306.571,367.434 307.447,370.451 308.511,373.406 309.759,376.289 311.185,379.088 312.784,381.791 314.549,384.389 316.474,386.871 318.552,389.227 320.773,391.448 323.129,393.526 325.611,395.451 328.209,397.216 330.912,398.815 333.711,400.241 336.594,401.489 339.549,402.553 342.566,403.429 345.631,404.114 348.733,404.606 351.86,404.901 355,405 358.14,404.901 361.267,404.606 364.369,404.114 367.434,403.429 370.451,402.553 373.406,401.489 376.289,400.241 379.088,398.815 381.791,397.216 384.389,395.451 386.871,393.526 389.227,391.448 391.448,389.227 393.526,386.871 395.451,384.389 397.216,381.791 398.815,379.088 400.241,376.289 401.489,373.406 402.553,370.451 403.429,367.434 404.114,364.369 404.606,361.267 404.901,358.14" transform="rotate(0 0 0)" fill="green" stroke="black" stroke-width="0.5" />
<polygon points="505,355 504.901,351.86 504.606,348.733 504.114,345.631 503.429,342.566 502.553,339.549 501.489,336.594 500.241,333.711 498.815,330.912 497.216,328.209 495.451,325.611 493.526,323.129 491.448,320.773 489.227,318.552 486.871,316.474 484.389,314.549 481.791,312.784 479.088,311.185 476.289,309.759 473.406,308.511 470.451,307.447 467.434,306.571 464.369,305.886 461.267,305.394 458.14,305.099 455,305 451.86,305.099 448.733,305.394 445.631,305.886 442.566,306.571 439.549,307.447 436.594,308.511 433.711,309.759 430.912,311.185 428.209,312.784 425.611,314.549 423.129,316.474 420.773,318.552 418.552,320.773 416.474,323.129 414.549,325.611 412.784,328.209 411.185,330.912 409.759,333.711 408.511,336.594 407.447,339.549 406.571,342.566 405.886,345.631 405.394,348.733 405.099,351.86 405,355 405.099,358.14 405.394,361.267 405.886,364.369 406.571,367.434 407.447,370.451 408.511,373.406 409.759,376.289 411.185,379.088 412.784,381.791 414.549,384.389 416.474,386.871 418.552,389.227 420.773,391.448 423.129,393.526 425.611,395.451 428.209,397.216 430.912,398.815 433.711,400.241 436.594,401.489 439.549,402.553 442.566,403.429 445.631,404.114 448.733,404.606 451.86,404.901 455,405 458.14,404.901 461.267,404.606 464.369,404.114 467.434,403.429 470.451,402.553 473.406,401.489 476.289,400.241 479.088,398.815 481.791,397.216 484.389,395.451 486.871,393.526 489.227,391.448 491.448,389.227 493.526,386.871 495.451,384.389 497.216,381.791 498.815,379.088 500.241,376.289 501.489,373.406 502.553,370.451 503.429,367.434 504.114,364.369 504.606,361.267 504.901,358.14" transform="rotate(0 0 0)" fill="green" stroke="black" stroke-width="0.5" />
<polygon points="105,455 104.901,451.86 104.606,448.733 104.114,445.631 103.429,442.566 102.553,439.549 101.489,436.594 100.241,433.711 98.8153,430.912 97.2164,428.209 95.4508,425.611 93.5257,423.129 91.4484,420.773 89.2274,418.552 86.8712,416.474 84.3893,414.549 81.7913,412.784 79.0877,411.185 76.289,409.759 73.4062,408.511 70.4508,407.447 67.4345,406.571 64.3691,405.886 61.2667,405.394 58.1395,405.099 55,405 51.8605,405.099 48.7333,405.394 45.6309,405.886 42.5655,406.571 39.5492,407.447 36.5938,408.511 33.711,409.759 30.9123,411.185 28.2087,412.784 25.6107,414.549 23.1288,416.474 20.7726,418.552 18.5516,420.773 16.4743,423.129 14.5492,425.611 12.7836,428.209 11.1847,430.912 9.75865,433.711 8.51118,436.594 7.44717,439.549 6.57084,442.566 5.88564,445.631 5.39426,448.733 5.09866,451.86 5,455 5.09866,458.14 5.39426,461.267 5.88564,464.369 6.57084,467.434 7.44717,470.451 8.51118,473.406 9.75865,476.289 11.1847,479.088 12.7836,481.791 14.5492,484.389 16.4743,486.871 18.5516,489.227 20.7726,491.448 23.1288,493.526 25.6107,495.451 28.2087,497.216 30.9123,498.815 33.711,500.241 36.5938,501.489 39.5492,502.553 42.5655,503.429 45.6309,504.114 48.7333,504.606 51.8605,504.901 55,505 58.1395,504.901 61.2667,504.606 64.3691,504.114 67.4345,503.429 70.4508,502.553 73.4062,501.489 76.289,500.241 79.0877,498.815 81.7913,497.216 84.3893,495.451 86.8712,493.526 89.2274,491.448 91.4484,489.227 93.5257,486.871 95.4508,484.389 97.2164,481.791 98.8153,479.088 100.241,476.289 101.489,473.406 102.553,470.451 103.429,467.434 104.114,464.369 104.606,461.267 104.901,458.14" transform="rotate(0 0 0)" fill="green" stroke="black" stroke-width="0.5" />
<polygon points="205,455 204.901,451.86 204.606,448.733 204.114,445.631 203.429,442.566 202.553,439.549 201.489,436.594 200.241,433.711 198.815,430.912 197.216,428.209 195.451,425.611 193.526,423.129 191.448,420.773 189.227,418.552 186.871,416.474 184.389,414.549 181.791,412.784 179.088,411.185 176.289,409.759 173.406,408.511 170.451,407.447 167.434,406.571 164.369,405.886 161.267,405.394 158.14,405.099 155,405 151.86,405.099 148.733,405.394 145.631,405.886 142.566,406.571 139.549,407.447 136.594,408.511 133.711,409.759 130.912,411.185 128.209,412.784 125.611,414.549 123.129,416.474 120.773,418.552 118.552,420.773 116.474,423.129 114.549,425.611 112.784,428.209 111.185,430.912 109.759,433.711 108.511,436.594 107.447,439.549 106.571,442.566 105.886,445.631 105.394,448.733 105.099,451.86 105,455 105.099,458.14 105.394,461.267 105.886,464.369 106.571,467.434 107.447,470.451 108.511,473.406 109.759,476.289 111.185,479.088 112.784,481.791 114.549,484.389 116.474,486.871 118.552,489.227 120.773,491.448 123.129,493.526 125.611,495.451 128.209,497.216 130.912,498.815 133.711,500.241 136.594,501.489 139.549,502.553 142.566,503.429 145.631,504.114 148.733,504.606 151.86,504.901 155,505 158.14,504.901 161.267,504.606 164.369,504.114 167.434,503.429 170.451,502.553 173.406,501.489 176.289,500.241 179.088,498.815 181.791,497.216 184.389,495.451 186.871,493.526 189.227,491.448 191.448,489.227 193.526,486.871 195.451,484.389 197.216,481.791 198.815,479.088 200.241,476.289 201.489,473.406 202.553,470.451 203.429,467.434 204.114,464.369 204.606,461.267 204.901,458.14" transform="rotate(0 0 0)" fill="green" stroke="black" stroke-width="0.5" />
<polygon points="305,455 304.901,451.86 304.606,448.733 304.114,445.631 303.429,442.566 302.553,439.549 301.489,436.594 300.241,433.711 298.815,430.912 297.216,428.209 295.451,425.611 293.526,423.129 291.448,420.773 289.227,418.552 286.871,416.474 284.389,414.549 281.791,412.784 279.088,411.185 276.289,409.759 273.406,408.511 270.451,407.447 267.434,406.571 264.369,405.886 261.267,405.394 258.14,405.099 255,405 251.86,405.099 248.733,405.394 245.631,405.886 242.566,406.571 239.549,407.447 236.594,408.511 233.711,409.759 230.912,411.185 228.209,412.784 225.611,414.549 223.129,416.474 220.773,418.552 218.552,420.773 216.474,423.129 214.549,425.611 212.784,428.209 211.185,430.912 209.759,433.711 208.511,436.594 207.447,439.549 206.571,442.566 205.886,445.631 205.394,448.733 205.099,451.86 205,455 205.099,458.14 205.394,461.267 205.886,464.369 206.571,467.434 207.447,470.451 208.511,473.406 209.759,476.289 211.185,479.088 212.784,481.791 214.549,484.389 216.474,486.871 218.552,489.227 220.773,491.448 223.129,493.526 225.611,495.451 228.209,497.216 230.912,498.815 233.711,500.241 236.594,501.489 239.549,502.553 242.566,503.429 245.631,504.114 248.733,504.606 251.86,504.901 255,505 258.14,504.901 261.267,504.606 264.369,504.114 267.434,503.429 270.451,502.553 273.406,501.489 276.289,500.241 279.088,498.815 281.791,497.216 284.389,495.451 286.871,493.526 289.227,491.448 291.448,489.227 293.526,486.871 295.451,484.389 297.216,481.791 298.815,479.088 300.241,476.289 301.489,473.406 302.553,470.451 303.429,467.434 304.114,464.369 304.606,461.267 304.901,458.14" transform="rotate(0 0 0)" fill="green" stroke="black" stroke-width="0.5" />
<polygon points="405,455 404.901,451.86 404.606,448.733 404.114,445.631 403.429,442.566 402.553,439.549 401.489,436.594 400.241,433.711 398.815,430.912 397.216,428.209 395.451,425.611 393.526,423.129 391.448,420.773 389.227,418.552 386.871,416.474 384.389,414.549 381.791,412.784 379.088,411.185 376.289,409.759 373.406,408.511 370.451,407.447 367.434,406.571 364.369,405.886 361.267,405.394 358.14,405.099 355,405 351.86,405.099 348.733,405.394 345.631,405.886 342.566,406.571 339.549,407.447 336.594,408.511 333.711,409.759 330.912,411.185 328.209,412.784 325.611,414.549 323.129,416.474 320.773,418.552 318.552,420.773 316.474,423.129 314.549,425.611 312.784,428.209 311.185,430.912 309.759,433.711 308.511,436.594 307.447,439.549 306.571,442.566 305.886,445.631 305.394,448.733 305.099,451.86 305,455 305.099,458.14 305.394,461.267 305.886,464.369 306.571,467.434 307.447,470.451 308.511,473.406 309.759,476.289 311.185,479.088 312.784,481.791 314.549,484.389 316.474,486.871 318.552,489.227 320.773,491.448 323.129,493.526 325.611,495.451 328.209,497.216 330.912,498.815 333.711,500.241 336.594,501.489 339.549,502.553 342.566,503.429 345.631,504.114 348.733,504.606 351.86,504.901 355,505 358.14,504.901 361.267,504.606 364.369,504.114 367.434,503.429 370.451,502.553 373.406,501.489 376.289,500.241 379.088,498.815 381.791,497.216 384.389,495.451 386.871,493.526 389.227,491.448 391.448,489.227 393.526,486.871 395.451,484.389 397.216,481.791 398.815,479.088 400.241,476.289 401.489,473.406 402.553,470.451 403.429,467.434 404.114,464.369 404.606,461.267 404.901,458.14" transform="rotate(0 0 0)" fill="green" stroke="black" stroke-width="0.5" />
<polygon points="505,455 504.901,451.86 504.606,448.733 504.114,445.631 503.429,442.566 502.553,439.549 501.489,436.594 500.241,433.711 498.815,430.912 497.216,428.209 495.451,425.611 493.526,423.129 491.448,420.773 489.227,418.552 486.871,416.474 484.389,414.549 481.791,412.784 479.088,411.185 476.289,409.759 473.406,408.511 470.451,407.447 467.434,406.571 464.369,405.886 461.267,405.394 458.14,405.099 455,405 451.86,405.099 448.733,405.394 445.631,405.886 442.566,406.571 439.549,407.447 436.594,408.511 433.711,409.759 430.912,411.185 428.209,412.784 425.611,414.549 423.129,416.474 420.773,418.552 418.552,420.773 416.474,423.129 414.549,425.611 412.784,428.209 411.185,430.912 409.759,433.711 408.511,436.594 407.447,439.549 406.571,442.566 405.886,445.631 405.394,448.733 405.099,451.86 405,455 405.099,458.14 405.394,461.267 405.886,464.369 406.571,467.434 407.447,470.451 408.511,473.406 409.759,476.289 411.185,479.088 412.784,481.791 414.549,484.389 416.474,486.871 418.552,489.227 420.773,491.448 423.129,493.526 425.611,495.451 428.209,497.216 430.912,498.815 433.711,500.241 436.594,501.489 439.549,502.553 442.566,503.429 445.631,504.114 448.733,504.606 451.86,504.901 455,505 458.14,504.901 461.267,504.606 464.369,504.114 467.434,503.429 470.451,502.553 473.406,501.489 476.289,500.241 479.088,498.815 481.791,497.216 484.389,495.451 486.871,493.526 489.227,491.448 491.448,489.227 493.526,486.871 495.451,484.389 497.216,481.791 498.815,479.088 500.241,476.289 501.489,473.406 502.553,470.451 503.429,467.434 504.114,464.369 504.606,461.267 504.901,458.14" transform="rotate(0 0 0)" fill="green" stroke="black" stroke-width="0.5" />
</svg>
