<svg version="1.1" baseProfile="full" xmlns="http://www.w3.org/2000/svg">
<polygon points="5,5 5,505 505,505 505,5" transform="rotate(0 0 0)" fill="dimgrey" stroke="black" stroke-width="0.5" />
<polygon points="5,5 5,20 115,20 115,5" transform="rotate(0 0 0)" fill="green" stroke="black" stroke-width="0.5" />
<polygon points="115,5 115,20 225,20 225,5" transform="rotate(0 0 0)" fill="green" stroke="black" stroke-width="0.5" />
<polygon points="225,5 225,20 335,20 335,5" transform="rotate(0 0 0)" fill="green" stroke="black" stroke-width="0.5" />
<polygon points="335,5 335,20 445,20 445,5" transform="rotate(0 0 0)" fill="green" stroke="black" stroke-width="0.5" />
<polygon points="5,20 5,35 115,35 115,20" transform="rotate(0 0 0)" fill="green" stroke="black" stroke-width="0.5" />
<polygon points="115,20 115,35 225,35 225,20" transform="rotate(0 0 0)" fill="green" stroke="black" stroke-width="0.5" />
<polygon points="225,20 225,35 335,35 335,20" transform="rotate(0 0 0)" fill="green" stroke="black" stroke-width="0.5" />
<polygon points="335,20 335,35 445,35 445,20" transform="rotate(0 0 0)" fill="green" stroke="black" stroke-width="0.5" />
<polygon points="5,35 5,50 115,50 115,35" transform="rotate(0 0 0)" fill="green" stroke="black" stroke-width="0.5" />
<polygon points="115,35 115,50 225,50 225,35" transform="rotate(0 0 0)" fill="green" stroke="black" stroke-width="0.5" />
<polygon points="225,35 225,50 335,50 335,35" transform="rotate(0 0 0)" fill="green" stroke="black" stroke-width="0.5" />
<polygon points="335,35 335,50 445,50 445,35" transform="rotate(0 0 0)" fill="green" stroke="black" stroke-width="0.5" />
<polygon points="5,50 5,65 115,65 115,50" transform="rotate(0 0 0)" fill="green" stroke="black" stroke-width="0.5" />
<polygon points="115,50 115,65 225,65 225,50" transform="rotate(0 0 0)" fill="green" stroke="black" stroke-width="0.5" />
<polygon points="225,50 225,65 335,65 335,50" transform="rotate(0 0 0)" fill="green" stroke="black" stroke-width="0.5" />
<polygon points="335,50 335,65 445,65 445,50" transform="rotate(0 0 0)" fill="green" stroke="black" stroke-width="0.5" />
<polygon points="5,65 5,80 115,80 115,65" transform="rotate(0 0 0)" fill="green" stroke="black" stroke-width="0.5" />
<polygon points="115,65 115,80 225,80 225,65" transform="rotate(0 0 0)" fill="green" stroke="black" stroke-width="0.5" />
<polygon points="225,65 225,80 335,80 335,65" transform="rotate(0 0 0)" fill="green" stroke="black" stroke-width="0.5" />
<polygon points="335,65 335,80 445,80 445,65" transform="rotate(0 0 0)" fill="green" stroke="black" stroke-width="0.5" />
<polygon points="5,80 5,95 115,95 115,80" transform="rotate(0 0 0)" fill="green" stroke="black" stroke-width="0.5" />
<polygon points="115,80 115,95 225,95 225,80" transform="rotate(0 0 0)" fill="green" stroke="black" stroke-width="0.5" />
<polygon points="225,80 225,95 335,95 335,80" transform="rotate(0 0 0)" fill="green" stroke="black" stroke-width="0.5" />
<polygon points="335,80 335,95 445,95 445,80" transform="rotate(0 0 0)" fill="green" stroke="black" stroke-width="0.5" />
<polygon points="5,95 5,110 115,110 115,95" transform="rotate(0 0 0)" fill="green" stroke="black" stroke-width="0.5" />
<polygon points="115,95 115,110 225,110 225,95" transform="rotate(0 0 0)" fill="green" stroke="black" stroke-width="0.5" />
<polygon points="225,95 225,110 335,110 335,95" transform="rotate(0 0 0)" fill="green" stroke="black" stroke-width="0.5" />
<polygon points="335,95 335,110 445,110 445,95" transform="rotate(0 0 0)" fill="green" stroke="black" stroke-width="0.5" />
<polygon points="5,110 5,125 115,125 115,110" transform="rotate(0 0 0)" fill="green" stroke="black" stroke-width="0.5" />
<polygon points="115,110 115,125 225,125 225,110" transform="rotate(0 0 0)" fill="green" stroke="black" stroke-width="0.5" />
<polygon points="225,110 225,125 335,125 335,110" transform="rotate(0 0 0)" fill="green" stroke="black" stroke-width="0.5" />
<polygon points="335,110 335,125 445,125 445,110" transform="rotate(0 0 0)" fill="green" stroke="black" stroke-width="0.5" />
<polygon points="5,125 5,140 115,140 115,125" transform="rotate(0 0 0)" fill="green" stroke="black" stroke-width="0.5" />
<polygon points="115,125 115,140 225,140 225,125" transform="rotate(0 0 0)" fill="green" stroke="black" stroke-width="0.5" />
<polygon points="225,125 225,140 335,140 335,125" transform="rotate(0 0 0)" fill="green" stroke="black" stroke-width="0.5" />
<polygon points="335,125 335,140 445,140 445,125" transform="rotate(0 0 0)" fill="green" stroke="black" stroke-width="0.5" />
<polygon points="5,140 5,155 115,155 115,140" transform="rotate(0 0 0)" fill="green" stroke="black" stroke-width="0.5" />
<polygon points="115,140 115,155 225,155 225,140" transform="rotate(0 0 0)" fill="green" stroke="black" stroke-width="0.5" />
<polygon points="225,140 225,155 335,155 335,140" transform="rotate(0 0 0)" fill="green" stroke="black" stroke-width="0.5" />
<polygon points="335,140 335,155 445,155 445,140" transform="rotate(0 0 0)" fill="green" stroke="black" stroke-width="0.5" />
<polygon points="5,155 5,170 115,170 115,155" transform="rotate(0 0 0)" fill="green" stroke="black" stroke-width="0.5" />
<polygon points="115,155 115,170 225,170 225,155" transform="rotate(0 0 0)" fill="green" stroke="black" stroke-width="0.5" />
<polygon points="225,155 225,170 335,170 335,155" transform="rotate(0 0 0)" fill="green" stroke="black" stroke-width="0.5" />
<polygon points="335,155 335,170 445,170 445,155" transform="rotate(0 0 0)" fill="green" stroke="black" stroke-width="0.5" />
<polygon points="5,170 5,185 115,185 115,170" transform="rotate(0 0 0)" fill="green" stroke="black" stroke-width="0.5" />
<polygon points="115,170 115,185 225,185 225,170" transform="rotate(0 0 0)" fill="green" stroke="black" stroke-width="0.5" />
<polygon points="225,170 225,185 335,185 335,170" transform="rotate(0 0 0)" fill="green" stroke="black" stroke-width="0.5" />
<polygon points="335,170 335,185 445,185 445,170" transform="rotate(0 0 0)" fill="green" stroke="black" stroke-width="0.5" />
<polygon points="5,185 5,200 115,200 115,185" transform="rotate(0 0 0)" fill="green" stroke="black" stroke-width="0.5" />
<polygon points="115,185 115,200 225,200 225,185" transform="rotate(0 0 0)" fill="green" stroke="black" stroke-width="0.5" />
<polygon points="225,185 225,200 335,200 335,185" transform="rotate(0 0 0)" fill="green" stroke="black" stroke-width="0.5" />
<polygon points="335,185 335,200 445,200 445,185" transform="rotate(0 0 0)" fill="green" stroke="black" stroke-width="0.5" />
<polygon points="5,200 5,215 115,215 115,200" transform="rotate(0 0 0)" fill="green" stroke="black" stroke-width="0.5" />
<polygon points="115,200 115,215 225,215 225,200" transform="rotate(0 0 0)" fill="green" stroke="black" stroke-width="0.5" />
<polygon points="225,200 225,215 335,215 335,200" transform="rotate(0 0 0)" fill="green" stroke="black" stroke-width="0.5" />
<polygon points="335,200 335,215 445,215 445,200" transform="rotate(0 0 0)" fill="green" stroke="black" stroke-width="0.5" />
<polygon points="5,215 5,230 115,230 115,215" transform="rotate(0 0 0)" fill="green" stroke="black" stroke-width="0.5" />
<polygon points="115,215 115,230 225,230 225,215" transform="rotate(0 0 0)" fill="green" stroke="black" stroke-width="0.5" />
<polygon points="225,215 225,230 335,230 335,215" transform="rotate(0 0 0)" fill="green" stroke="black" stroke-width="0.5" />
<polygon points="335,215 335,230 445,230 445,215" transform="rotate(0 0 0)" fill="green" stroke="black" stroke-width="0.5" />
<polygon points="5,230 5,245 115,245 115,230" transform="rotate(0 0 0)" fill="green" stroke="black" stroke-width="0.5" />
<polygon points="115,230 115,245 225,245 225,230" transform="rotate(0 0 0)" fill="green" stroke="black" stroke-width="0.5" />
<polygon points="225,230 225,245 335,245 335,230" transform="rotate(0 0 0)" fill="green" stroke="black" stroke-width="0.5" />
<polygon points="335,230 335,245 445,245 445,230" transform="rotate(0 0 0)" fill="green" stroke="black" stroke-width="0.5" />
<polygon points="5,245 5,260 115,260 115,245" transform="rotate(0 0 0)" fill="green" stroke="black" stroke-width="0.5" />
<polygon points="115,245 115,260 225,260 225,245" transform="rotate(0 0 0)" fill="green" stroke="black" stroke-width="0.5" />
<polygon points="225,245 225,260 335,260 335,245" transform="rotate(0 0 0)" fill="green" stroke="black" stroke-width="0.5" />
<polygon points="335,245 335,260 445,260 445,245" transform="rotate(0 0 0)" fill="green" stroke="black" stroke-width="0.5" />
<polygon points="5,260 5,275 115,275 115,260" transform="rotate(0 0 0)" fill="green" stroke="black" stroke-width="0.5" />
<polygon points="115,260 115,275 225,275 225,260" transform="rotate(0 0 0)" fill="green" stroke="black" stroke-width="0.5" />
<polygon points="225,260 225,275 335,275 335,260" transform="rotate(0 0 0)" fill="green" stroke="black" stroke-width="0.5" />
<polygon points="335,260 335,275 445,275 445,260" transform="rotate(0 0 0)" fill="green" stroke="black" stroke-width="0.5" />
<polygon points="5,275 5,290 115,290 115,275" transform="rotate(0 0 0)" fill="green" stroke="black" stroke-width="0.5" />
<polygon points="115,275 115,290 225,290 225,275" transform="rotate(0 0 0)" fill="green" stroke="black" stroke-width="0.5" />
<polygon points="225,275 225,290 335,290 335,275" transform="rotate(0 0 0)" fill="green" stroke="black" stroke-width="0.5" />
<polygon points="335,275 335,290 445,290 445,275" transform="rotate(0 0 0)" fill="green" stroke="black" stroke-width="0.5" />
<polygon points="5,290 5,305 115,305 115,290" transform="rotate(0 0 0)" fill="green" stroke="black" stroke-width="0.5" />
<polygon points="115,290 115,305 225,305 225,290" transform="rotate(0 0 0)" fill="green" stroke="black" stroke-width="0.5" />
<polygon points="225,290 225,305 335,305 335,290" transform="rotate(0 0 0)" fill="green" stroke="black" stroke-width="0.5" />
<polygon points="335,290 335,305 445,305 445,290" transform="rotate(0 0 0)" fill="green" stroke="black" stroke-width="0.5" />
<polygon points="5,305 5,320 115,320 115,305" transform="rotate(0 0 0)" fill="green" stroke="black" stroke-width="0.5" />
<polygon points="115,305 115,320 225,320 225,305" transform="rotate(0 0 0)" fill="green" stroke="black" stroke-width="0.5" />
<polygon points="225,305 225,320 335,320 335,305" transform="rotate(0 0 0)" fill="green" stroke="black" stroke-width="0.5" />
<polygon points="335,305 335,320 445,320 445,305" transform="rotate(0 0 0)" fill="green" stroke="black" stroke-width="0.5" />
<polygon points="5,320 5,335 115,335 115,320" transform="rotate(0 0 0)" fill="green" stroke="black" stroke-width="0.5" />
<polygon points="115,320 115,335 225,335 225,320" transform="rotate(0 0 0)" fill="green" stroke="black" stroke-width="0.5" />
<polygon points="225,320 225,335 335,335 335,320" transform="rotate(0 0 0)" fill="green" stroke="black" stroke-width="0.5" />
<polygon points="335,320 335,335 445,335 445,320" transform="rotate(0 0 0)" fill="green" stroke="black" stroke-width="0.5" />
<polygon points="5,335 5,350 115,350 115,335" transform="rotate(0 0 0)" fill="green" stroke="black" stroke-width="0.5" />
<polygon points="115,335 115,350 225,350 225,335" transform="rotate(0 0 0)" fill="green" stroke="black" stroke-width="0.5" />
<polygon points="225,335 225,350 335,350 335,335" transform="rotate(0 0 0)" fill="green" stroke="black" stroke-width="0.5" />
<polygon points="335,335 335,350 445,350 445,335" transform="rotate(0 0 0)" fill="green" stroke="black" stroke-width="0.5" />
<polygon points="5,350 5,365 115,365 115,350" transform="rotate(0 0 0)" fill="green" stroke="black" stroke-width="0.5" />
<polygon points="115,350 115,365 225,365 225,350" transform="rotate(0 0 0)" fill="green" stroke="black" stroke-width="0.5" />
<polygon points="225,350 225,365 335,365 335,350" transform="rotate(0 0 0)" fill="green" stroke="black" stroke-width="0.5" />
<polygon points="335,350 335,365 445,365 445,350" transform="rotate(0 0 0)" fill="green" stroke="black" stroke-width="0.5" />
<polygon points="5,365 5,380 115,380 115,365" transform="rotate(0 0 0)" fill="green" stroke="black" stroke-width="0.5" />
<polygon points="115,365 115,380 225,380 225,365" transform="rotate(0 0 0)" fill="green" stroke="black" stroke-width="0.5" />
<polygon points="225,365 225,380 335,380 335,365" transform="rotate(0 0 0)" fill="green" stroke="black" stroke-width="0.5" />
<polygon points="335,365 335,380 445,380 445,365" transform="rotate(0 0 0)" fill="green" stroke="black" stroke-width="0.5" />
<polygon points="5,380 5,395 115,395 115,380" transform="rotate(0 0 0)" fill="green" stroke="black" stroke-width="0.5" />
<polygon points="115,380 115,395 225,395 225,380" transform="rotate(0 0 0)" fill="green" stroke="black" stroke-width="0.5" />
<polygon points="225,380 225,395 335,395 335,380" transform="rotate(0 0 0)" fill="green" stroke="black" stroke-width="0.5" />
<polygon points="335,380 335,395 445,395 445,380" transform="rotate(0 0 0)" fill="green" stroke="black" stroke-width="0.5" />
<polygon points="5,395 5,410 115,410 115,395" transform="rotate(0 0 0)" fill="green" stroke="black" stroke-width="0.5" />
<polygon points="115,395 115,410 225,410 225,395" transform="rotate(0 0 0)" fill="green" stroke="black" stroke-width="0.5" />
<polygon points="225,395 225,410 335,410 335,395" transform="rotate(0 0 0)" fill="green" stroke="black" stroke-width="0.5" />
<polygon points="335,395 335,410 445,410 445,395" transform="rotate(0 0 0)" fill="green" stroke="black" stroke-width="0.5" />
<polygon points="5,410 5,425 115,425 115,410" transform="rotate(0 0 0)" fill="green" stroke="black" stroke-width="0.5" />
<polygon points="115,410 115,425 225,425 225,410" transform="rotate(0 0 0)" fill="green" stroke="black" stroke-width="0.5" />
<polygon points="225,410 225,425 335,425 335,410" transform="rotate(0 0 0)" fill="green" stroke="black" stroke-width="0.5" />
<polygon points="335,410 335,425 445,425 445,410" transform="rotate(0 0 0)" fill="green" stroke="black" stroke-width="0.5" />
<polygon points="5,425 5,440 115,440 115,425" transform="rotate(0 0 0)" fill="green" stroke="black" stroke-width="0.5" />
<polygon points="115,425 115,440 225,440 225,425" transform="rotate(0 0 0)" fill="green" stroke="black" stroke-width="0.5" />
<polygon points="225,425 225,440 335,440 335,425" transform="rotate(0 0 0)" fill="green" stroke="black" stroke-width="0.5" />
<polygon points="335,425 335,440 445,440 445,425" transform="rotate(0 0 0)" fill="green" stroke="black" stroke-width="0.5" />
<polygon points="5,440 5,455 115,455 115,440" transform="rotate(0 0 0)" fill="green" stroke="black" stroke-width="0.5" />
<polygon points="115,440 115,455 225,455 225,440" transform="rotate(0 0 0)" fill="green" stroke="black" stroke-width="0.5" />
<polygon points="225,440 225,455 335,455 335,440" transform="rotate(0 0 0)" fill="green" stroke="black" stroke-width="0.5" />
<polygon points="335,440 335,455 445,455 445,440" transform="rotate(0 0 0)" fill="green" stroke="black" stroke-width="0.5" />
<polygon points="5,455 5,470 115,470 115,455" transform="rotate(0 0 0)" fill="green" stroke="black" stroke-width="0.5" />
<polygon points="115,455 115,470 225,470 225,455" transform="rotate(0 0 0)" fill="green" stroke="black" stroke-width="0.5" />
<polygon points="225,455 225,470 335,470 335,455" transform="rotate(0 0 0)" fill="green" stroke="black" stroke-width="0.5" />
<polygon points="335,455 335,470 445,470 445,455" transform="rotate(0 0 0)" fill="green" stroke="black" stroke-width="0.5" />
<polygon points="5,470 5,485 115,485 115,470" transform="rotate(0 0 0)" fill="green" stroke="black" stroke-width="0.5" />
<polygon points="115,470 115,485 225,485 225,470" transform="rotate(0 0 0)" fill="green" stroke="black" stroke-width="0.5" />
<polygon points="225,470 225,485 335,485 335,470" transform="rotate(0 0 0)" fill="green" stroke="black" stroke-width="0.5" />
<polygon points="335,470 335,485 445,485 445,470" transform="rotate(0 0 0)" fill="green" stroke="black" stroke-width="0.5" />
<polygon points="5,485 5,500 115,500 115,485" transform="rotate(0 0 0)" fill="green" stroke="black" stroke-width="0.5" />
<polygon points="115,485 115,500 225,500 225,485" transform="rotate(0 0 0)" fill="green" stroke="black" stroke-width="0.5" />
<polygon points="225,485 225,500 335,500 335,485" transform="rotate(0 0 0)" fill="green" stroke="black" stroke-width="0.5" />
<polygon points="335,485 335,500 445,500 445,485" transform="rotate(0 0 0)" fill="green" stroke="black" stroke-width="0.5" />
<polygon points="445,5 445,115 460,115 460,5" transform="rotate(0 0 0)" fill="green" stroke="black" stroke-width="0.5" />
<polygon points="445,115 445,225 460,225 460,115" transform="rotate(0 0 0)" fill="green" stroke="black" stroke-width="0.5" />
<polygon points="445,225 445,335 460,335 460,225" transform="rotate(0 0 0)" fill="green" stroke="black" stroke-width="0.5" />
<polygon points="445,335 445,445 460,445 460,335" transform="rotate(0 0 0)" fill="green" stroke="black" stroke-width="0.5" />
<polygon points="460,5 460,115 475,115 475,5" transform="rotate(0 0 0)" fill="green" stroke="black" stroke-width="0.5" />
<polygon points="460,115 460,225 475,225 475,115" transform="rotate(0 0 0)" fill="green" stroke="black" stroke-width="0.5" />
<polygon points="460,225 460,335 475,335 475,225" transform="rotate(0 0 0)" fill="green" stroke="black" stroke-width="0.5" />
<polygon points="460,335 460,445 475,445 475,335" transform="rotate(0 0 0)" fill="green" stroke="black" stroke-width="0.5" />
<polygon points="475,5 475,115 490,115 490,5" transform="rotate(0 0 0)" fill="green" stroke="black" stroke-width="0.5" />
<polygon points="475,115 475,225 490,225 490,115" transform="rotate(0 0 0)" fill="green" stroke="black" stroke-width="0.5" />
<polygon points="475,225 475,335 490,335 490,225" transform="rotate(0 0 0)" fill="green" stroke="black" stroke-width="0.5" />
<polygon points="475,335 475,445 490,445 490,335" transform="rotate(0 0 0)" fill="green" stroke="black" stroke-width="0.5" />
</svg>
