<svg version="1.1" baseProfile="full" xmlns="http://www.w3.org/2000/svg">
<polygon points="0,0 0,750 500,750 500,0" transform="rotate(0 0 0)" fill="pink" stroke="black" stroke-width="0.5" />
<polygon points="0,0 0,60 20,60 20,0" transform="rotate(0 0 0)" fill="yellow" stroke="black" stroke-width="0.5" />
<polygon points="20,0 20,60 40,60 40,0" transform="rotate(0 0 0)" fill="yellow" stroke="black" stroke-width="0.5" />
<polygon points="40,0 40,60 60,60 60,0" transform="rotate(0 0 0)" fill="yellow" stroke="black" stroke-width="0.5" />
<polygon points="60,0 60,60 80,60 80,0" transform="rotate(0 0 0)" fill="yellow" stroke="black" stroke-width="0.5" />
<polygon points="80,0 80,60 100,60 100,0" transform="rotate(0 0 0)" fill="yellow" stroke="black" stroke-width="0.5" />
<polygon points="100,0 100,60 120,60 120,0" transform="rotate(0 0 0)" fill="yellow" stroke="black" stroke-width="0.5" />
<polygon points="120,0 120,60 140,60 140,0" transform="rotate(0 0 0)" fill="yellow" stroke="black" stroke-width="0.5" />
<polygon points="140,0 140,60 160,60 160,0" transform="rotate(0 0 0)" fill="yellow" stroke="black" stroke-width="0.5" />
<polygon points="160,0 160,60 180,60 180,0" transform="rotate(0 0 0)" fill="yellow" stroke="black" stroke-width="0.5" />
<polygon points="180,0 180,60 200,60 200,0" transform="rotate(0 0 0)" fill="yellow" stroke="black" stroke-width="0.5" />
<polygon points="200,0 200,60 220,60 220,0" transform="rotate(0 0 0)" fill="yellow" stroke="black" stroke-width="0.5" />
<polygon points="220,0 220,60 240,60 240,0" transform="rotate(0 0 0)" fill="yellow" stroke="black" stroke-width="0.5" />
<polygon points="240,0 240,60 260,60 260,0" transform="rotate(0 0 0)" fill="yellow" stroke="black" stroke-width="0.5" />
<polygon points="260,0 260,60 280,60 280,0" transform="rotate(0 0 0)" fill="yellow" stroke="black" stroke-width="0.5" />
<polygon points="280,0 280,60 300,60 300,0" transform="rotate(0 0 0)" fill="yellow" stroke="black" stroke-width="0.5" />
<polygon points="300,0 300,60 320,60 320,0" transform="rotate(0 0 0)" fill="yellow" stroke="black" stroke-width="0.5" />
<polygon points="320,0 320,60 340,60 340,0" transform="rotate(0 0 0)" fill="yellow" stroke="black" stroke-width="0.5" />
<polygon points="340,0 340,60 360,60 360,0" transform="rotate(0 0 0)" fill="yellow" stroke="black" stroke-width="0.5" />
<polygon points="360,0 360,60 380,60 380,0" transform="rotate(0 0 0)" fill="yellow" stroke="black" stroke-width="0.5" />
<polygon points="380,0 380,60 400,60 400,0" transform="rotate(0 0 0)" fill="yellow" stroke="black" stroke-width="0.5" />
<polygon points="400,0 400,60 420,60 420,0" transform="rotate(0 0 0)" fill="yellow" stroke="black" stroke-width="0.5" />
<polygon points="420,0 420,60 440,60 440,0" transform="rotate(0 0 0)" fill="yellow" stroke="black" stroke-width="0.5" />
<polygon points="440,0 440,60 460,60 460,0" transform="rotate(0 0 0)" fill="yellow" stroke="black" stroke-width="0.5" />
<polygon points="460,0 460,60 480,60 480,0" transform="rotate(0 0 0)" fill="yellow" stroke="black" stroke-width="0.5" />
<polygon points="480,0 480,60 500,60 500,0" transform="rotate(0 0 0)" fill="yellow" stroke="black" stroke-width="0.5" />
<polygon points="0,60 0,120 20,120 20,60" transform="rotate(0 0 0)" fill="yellow" stroke="black" stroke-width="0.5" />
<polygon points="20,60 20,120 40,120 40,60" transform="rotate(0 0 0)" fill="yellow" stroke="black" stroke-width="0.5" />
<polygon points="40,60 40,120 60,120 60,60" transform="rotate(0 0 0)" fill="yellow" stroke="black" stroke-width="0.5" />
<polygon points="60,60 60,120 80,120 80,60" transform="rotate(0 0 0)" fill="yellow" stroke="black" stroke-width="0.5" />
<polygon points="80,60 80,120 100,120 100,60" transform="rotate(0 0 0)" fill="yellow" stroke="black" stroke-width="0.5" />
<polygon points="100,60 100,120 120,120 120,60" transform="rotate(0 0 0)" fill="yellow" stroke="black" stroke-width="0.5" />
<polygon points="120,60 120,120 140,120 140,60" transform="rotate(0 0 0)" fill="yellow" stroke="black" stroke-width="0.5" />
<polygon points="140,60 140,120 160,120 160,60" transform="rotate(0 0 0)" fill="yellow" stroke="black" stroke-width="0.5" />
<polygon points="160,60 160,120 180,120 180,60" transform="rotate(0 0 0)" fill="yellow" stroke="black" stroke-width="0.5" />
<polygon points="180,60 180,120 200,120 200,60" transform="rotate(0 0 0)" fill="yellow" stroke="black" stroke-width="0.5" />
<polygon points="200,60 200,120 220,120 220,60" transform="rotate(0 0 0)" fill="yellow" stroke="black" stroke-width="0.5" />
<polygon points="220,60 220,120 240,120 240,60" transform="rotate(0 0 0)" fill="yellow" stroke="black" stroke-width="0.5" />
<polygon points="240,60 240,120 260,120 260,60" transform="rotate(0 0 0)" fill="yellow" stroke="black" stroke-width="0.5" />
<polygon points="260,60 260,120 280,120 280,60" transform="rotate(0 0 0)" fill="yellow" stroke="black" stroke-width="0.5" />
<polygon points="280,60 280,120 300,120 300,60" transform="rotate(0 0 0)" fill="yellow" stroke="black" stroke-width="0.5" />
<polygon points="300,60 300,120 320,120 320,60" transform="rotate(0 0 0)" fill="yellow" stroke="black" stroke-width="0.5" />
<polygon points="320,60 320,120 340,120 340,60" transform="rotate(0 0 0)" fill="yellow" stroke="black" stroke-width="0.5" />
<polygon points="340,60 340,120 360,120 360,60" transform="rotate(0 0 0)" fill="yellow" stroke="black" stroke-width="0.5" />
<polygon points="360,60 360,120 380,120 380,60" transform="rotate(0 0 0)" fill="yellow" stroke="black" stroke-width="0.5" />
<polygon points="380,60 380,120 400,120 400,60" transform="rotate(0 0 0)" fill="yellow" stroke="black" stroke-width="0.5" />
<polygon points="400,60 400,120 420,120 420,60" transform="rotate(0 0 0)" fill="yellow" stroke="black" stroke-width="0.5" />
<polygon points="420,60 420,120 440,120 440,60" transform="rotate(0 0 0)" fill="yellow" stroke="black" stroke-width="0.5" />
<polygon points="440,60 440,120 460,120 460,60" transform="rotate(0 0 0)" fill="yellow" stroke="black" stroke-width="0.5" />
<polygon points="460,60 460,120 480,120 480,60" transform="rotate(0 0 0)" fill="yellow" stroke="black" stroke-width="0.5" />
<polygon points="480,60 480,120 500,120 500,60" transform="rotate(0 0 0)" fill="yellow" stroke="black" stroke-width="0.5" />
<polygon points="0,120 0,180 20,180 20,120" transform="rotate(0 0 0)" fill="yellow" stroke="black" stroke-width="0.5" />
<polygon points="20,120 20,180 40,180 40,120" transform="rotate(0 0 0)" fill="yellow" stroke="black" stroke-width="0.5" />
<polygon points="40,120 40,180 60,180 60,120" transform="rotate(0 0 0)" fill="yellow" stroke="black" stroke-width="0.5" />
<polygon points="60,120 60,180 80,180 80,120" transform="rotate(0 0 0)" fill="yellow" stroke="black" stroke-width="0.5" />
<polygon points="80,120 80,180 100,180 100,120" transform="rotate(0 0 0)" fill="yellow" stroke="black" stroke-width="0.5" />
<polygon points="100,120 100,180 120,180 120,120" transform="rotate(0 0 0)" fill="yellow" stroke="black" stroke-width="0.5" />
<polygon points="120,120 120,180 140,180 140,120" transform="rotate(0 0 0)" fill="yellow" stroke="black" stroke-width="0.5" />
<polygon points="140,120 140,180 160,180 160,120" transform="rotate(0 0 0)" fill="yellow" stroke="black" stroke-width="0.5" />
<polygon points="160,120 160,180 180,180 180,120" transform="rotate(0 0 0)" fill="yellow" stroke="black" stroke-width="0.5" />
<polygon points="180,120 180,180 200,180 200,120" transform="rotate(0 0 0)" fill="yellow" stroke="black" stroke-width="0.5" />
<polygon points="200,120 200,180 220,180 220,120" transform="rotate(0 0 0)" fill="yellow" stroke="black" stroke-width="0.5" />
<polygon points="220,120 220,180 240,180 240,120" transform="rotate(0 0 0)" fill="yellow" stroke="black" stroke-width="0.5" />
<polygon points="240,120 240,180 260,180 260,120" transform="rotate(0 0 0)" fill="yellow" stroke="black" stroke-width="0.5" />
<polygon points="260,120 260,180 280,180 280,120" transform="rotate(0 0 0)" fill="yellow" stroke="black" stroke-width="0.5" />
<polygon points="280,120 280,180 300,180 300,120" transform="rotate(0 0 0)" fill="yellow" stroke="black" stroke-width="0.5" />
<polygon points="300,120 300,180 320,180 320,120" transform="rotate(0 0 0)" fill="yellow" stroke="black" stroke-width="0.5" />
<polygon points="320,120 320,180 340,180 340,120" transform="rotate(0 0 0)" fill="yellow" stroke="black" stroke-width="0.5" />
<polygon points="340,120 340,180 360,180 360,120" transform="rotate(0 0 0)" fill="yellow" stroke="black" stroke-width="0.5" />
<polygon points="360,120 360,180 380,180 380,120" transform="rotate(0 0 0)" fill="yellow" stroke="black" stroke-width="0.5" />
<polygon points="380,120 380,180 400,180 400,120" transform="rotate(0 0 0)" fill="yellow" stroke="black" stroke-width="0.5" />
<polygon points="400,120 400,180 420,180 420,120" transform="rotate(0 0 0)" fill="yellow" stroke="black" stroke-width="0.5" />
<polygon points="420,120 420,180 440,180 440,120" transform="rotate(0 0 0)" fill="yellow" stroke="black" stroke-width="0.5" />
<polygon points="440,120 440,180 460,180 460,120" transform="rotate(0 0 0)" fill="yellow" stroke="black" stroke-width="0.5" />
<polygon points="460,120 460,180 480,180 480,120" transform="rotate(0 0 0)" fill="yellow" stroke="black" stroke-width="0.5" />
<polygon points="480,120 480,180 500,180 500,120" transform="rotate(0 0 0)" fill="yellow" stroke="black" stroke-width="0.5" />
<polygon points="0,180 0,240 20,240 20,180" transform="rotate(0 0 0)" fill="yellow" stroke="black" stroke-width="0.5" />
<polygon points="20,180 20,240 40,240 40,180" transform="rotate(0 0 0)" fill="yellow" stroke="black" stroke-width="0.5" />
<polygon points="40,180 40,240 60,240 60,180" transform="rotate(0 0 0)" fill="yellow" stroke="black" stroke-width="0.5" />
<polygon points="60,180 60,240 80,240 80,180" transform="rotate(0 0 0)" fill="yellow" stroke="black" stroke-width="0.5" />
<polygon points="80,180 80,240 100,240 100,180" transform="rotate(0 0 0)" fill="yellow" stroke="black" stroke-width="0.5" />
<polygon points="100,180 100,240 120,240 120,180" transform="rotate(0 0 0)" fill="yellow" stroke="black" stroke-width="0.5" />
<polygon points="120,180 120,240 140,240 140,180" transform="rotate(0 0 0)" fill="yellow" stroke="black" stroke-width="0.5" />
<polygon points="140,180 140,240 160,240 160,180" transform="rotate(0 0 0)" fill="yellow" stroke="black" stroke-width="0.5" />
<polygon points="160,180 160,240 180,240 180,180" transform="rotate(0 0 0)" fill="yellow" stroke="black" stroke-width="0.5" />
<polygon points="180,180 180,240 200,240 200,180" transform="rotate(0 0 0)" fill="yellow" stroke="black" stroke-width="0.5" />
<polygon points="200,180 200,240 220,240 220,180" transform="rotate(0 0 0)" fill="yellow" stroke="black" stroke-width="0.5" />
<polygon points="220,180 220,240 240,240 240,180" transform="rotate(0 0 0)" fill="yellow" stroke="black" stroke-width="0.5" />
<polygon points="240,180 240,240 260,240 260,180" transform="rotate(0 0 0)" fill="yellow" stroke="black" stroke-width="0.5" />
<polygon points="260,180 260,240 280,240 280,180" transform="rotate(0 0 0)" fill="yellow" stroke="black" stroke-width="0.5" />
<polygon points="280,180 280,240 300,240 300,180" transform="rotate(0 0 0)" fill="yellow" stroke="black" stroke-width="0.5" />
<polygon points="300,180 300,240 320,240 320,180" transform="rotate(0 0 0)" fill="yellow" stroke="black" stroke-width="0.5" />
<polygon points="320,180 320,240 340,240 340,180" transform="rotate(0 0 0)" fill="yellow" stroke="black" stroke-width="0.5" />
<polygon points="340,180 340,240 360,240 360,180" transform="rotate(0 0 0)" fill="yellow" stroke="black" stroke-width="0.5" />
<polygon points="360,180 360,240 380,240 380,180" transform="rotate(0 0 0)" fill="yellow" stroke="black" stroke-width="0.5" />
<polygon points="380,180 380,240 400,240 400,180" transform="rotate(0 0 0)" fill="yellow" stroke="black" stroke-width="0.5" />
<polygon points="400,180 400,240 420,240 420,180" transform="rotate(0 0 0)" fill="yellow" stroke="black" stroke-width="0.5" />
<polygon points="420,180 420,240 440,240 440,180" transform="rotate(0 0 0)" fill="yellow" stroke="black" stroke-width="0.5" />
<polygon points="440,180 440,240 460,240 460,180" transform="rotate(0 0 0)" fill="yellow" stroke="black" stroke-width="0.5" />
<polygon points="460,180 460,240 480,240 480,180" transform="rotate(0 0 0)" fill="yellow" stroke="black" stroke-width="0.5" />
<polygon points="480,180 480,240 500,240 500,180" transform="rotate(0 0 0)" fill="yellow" stroke="black" stroke-width="0.5" />
<polygon points="0,240 0,300 20,300 20,240" transform="rotate(0 0 0)" fill="yellow" stroke="black" stroke-width="0.5" />
<polygon points="20,240 20,300 40,300 40,240" transform="rotate(0 0 0)" fill="yellow" stroke="black" stroke-width="0.5" />
<polygon points="40,240 40,300 60,300 60,240" transform="rotate(0 0 0)" fill="yellow" stroke="black" stroke-width="0.5" />
<polygon points="60,240 60,300 80,300 80,240" transform="rotate(0 0 0)" fill="yellow" stroke="black" stroke-width="0.5" />
<polygon points="80,240 80,300 100,300 100,240" transform="rotate(0 0 0)" fill="yellow" stroke="black" stroke-width="0.5" />
<polygon points="100,240 100,300 120,300 120,240" transform="rotate(0 0 0)" fill="yellow" stroke="black" stroke-width="0.5" />
<polygon points="120,240 120,300 140,300 140,240" transform="rotate(0 0 0)" fill="yellow" stroke="black" stroke-width="0.5" />
<polygon points="140,240 140,300 160,300 160,240" transform="rotate(0 0 0)" fill="yellow" stroke="black" stroke-width="0.5" />
<polygon points="160,240 160,300 180,300 180,240" transform="rotate(0 0 0)" fill="yellow" stroke="black" stroke-width="0.5" />
<polygon points="180,240 180,300 200,300 200,240" transform="rotate(0 0 0)" fill="yellow" stroke="black" stroke-width="0.5" />
<polygon points="200,240 200,300 220,300 220,240" transform="rotate(0 0 0)" fill="yellow" stroke="black" stroke-width="0.5" />
<polygon points="220,240 220,300 240,300 240,240" transform="rotate(0 0 0)" fill="yellow" stroke="black" stroke-width="0.5" />
<polygon points="240,240 240,300 260,300 260,240" transform="rotate(0 0 0)" fill="yellow" stroke="black" stroke-width="0.5" />
<polygon points="260,240 260,300 280,300 280,240" transform="rotate(0 0 0)" fill="yellow" stroke="black" stroke-width="0.5" />
<polygon points="280,240 280,300 300,300 300,240" transform="rotate(0 0 0)" fill="yellow" stroke="black" stroke-width="0.5" />
<polygon points="300,240 300,300 320,300 320,240" transform="rotate(0 0 0)" fill="yellow" stroke="black" stroke-width="0.5" />
<polygon points="320,240 320,300 340,300 340,240" transform="rotate(0 0 0)" fill="yellow" stroke="black" stroke-width="0.5" />
<polygon points="340,240 340,300 360,300 360,240" transform="rotate(0 0 0)" fill="yellow" stroke="black" stroke-width="0.5" />
<polygon points="360,240 360,300 380,300 380,240" transform="rotate(0 0 0)" fill="yellow" stroke="black" stroke-width="0.5" />
<polygon points="380,240 380,300 400,300 400,240" transform="rotate(0 0 0)" fill="yellow" stroke="black" stroke-width="0.5" />
<polygon points="400,240 400,300 420,300 420,240" transform="rotate(0 0 0)" fill="yellow" stroke="black" stroke-width="0.5" />
<polygon points="420,240 420,300 440,300 440,240" transform="rotate(0 0 0)" fill="yellow" stroke="black" stroke-width="0.5" />
<polygon points="440,240 440,300 460,300 460,240" transform="rotate(0 0 0)" fill="yellow" stroke="black" stroke-width="0.5" />
<polygon points="460,240 460,300 480,300 480,240" transform="rotate(0 0 0)" fill="yellow" stroke="black" stroke-width="0.5" />
<polygon points="480,240 480,300 500,300 500,240" transform="rotate(0 0 0)" fill="yellow" stroke="black" stroke-width="0.5" />
<polygon points="0,300 0,360 20,360 20,300" transform="rotate(0 0 0)" fill="yellow" stroke="black" stroke-width="0.5" />
<polygon points="20,300 20,360 40,360 40,300" transform="rotate(0 0 0)" fill="yellow" stroke="black" stroke-width="0.5" />
<polygon points="40,300 40,360 60,360 60,300" transform="rotate(0 0 0)" fill="yellow" stroke="black" stroke-width="0.5" />
<polygon points="60,300 60,360 80,360 80,300" transform="rotate(0 0 0)" fill="yellow" stroke="black" stroke-width="0.5" />
<polygon points="80,300 80,360 100,360 100,300" transform="rotate(0 0 0)" fill="yellow" stroke="black" stroke-width="0.5" />
<polygon points="100,300 100,360 120,360 120,300" transform="rotate(0 0 0)" fill="yellow" stroke="black" stroke-width="0.5" />
<polygon points="120,300 120,360 140,360 140,300" transform="rotate(0 0 0)" fill="yellow" stroke="black" stroke-width="0.5" />
<polygon points="140,300 140,360 160,360 160,300" transform="rotate(0 0 0)" fill="yellow" stroke="black" stroke-width="0.5" />
<polygon points="160,300 160,360 180,360 180,300" transform="rotate(0 0 0)" fill="yellow" stroke="black" stroke-width="0.5" />
<polygon points="180,300 180,360 200,360 200,300" transform="rotate(0 0 0)" fill="yellow" stroke="black" stroke-width="0.5" />
<polygon points="200,300 200,360 220,360 220,300" transform="rotate(0 0 0)" fill="yellow" stroke="black" stroke-width="0.5" />
<polygon points="220,300 220,360 240,360 240,300" transform="rotate(0 0 0)" fill="yellow" stroke="black" stroke-width="0.5" />
<polygon points="240,300 240,360 260,360 260,300" transform="rotate(0 0 0)" fill="yellow" stroke="black" stroke-width="0.5" />
<polygon points="260,300 260,360 280,360 280,300" transform="rotate(0 0 0)" fill="yellow" stroke="black" stroke-width="0.5" />
<polygon points="280,300 280,360 300,360 300,300" transform="rotate(0 0 0)" fill="yellow" stroke="black" stroke-width="0.5" />
<polygon points="300,300 300,360 320,360 320,300" transform="rotate(0 0 0)" fill="yellow" stroke="black" stroke-width="0.5" />
<polygon points="320,300 320,360 340,360 340,300" transform="rotate(0 0 0)" fill="yellow" stroke="black" stroke-width="0.5" />
<polygon points="340,300 340,360 360,360 360,300" transform="rotate(0 0 0)" fill="yellow" stroke="black" stroke-width="0.5" />
<polygon points="360,300 360,360 380,360 380,300" transform="rotate(0 0 0)" fill="yellow" stroke="black" stroke-width="0.5" />
<polygon points="380,300 380,360 400,360 400,300" transform="rotate(0 0 0)" fill="yellow" stroke="black" stroke-width="0.5" />
<polygon points="400,300 400,360 420,360 420,300" transform="rotate(0 0 0)" fill="yellow" stroke="black" stroke-width="0.5" />
<polygon points="420,300 420,360 440,360 440,300" transform="rotate(0 0 0)" fill="yellow" stroke="black" stroke-width="0.5" />
<polygon points="440,300 440,360 460,360 460,300" transform="rotate(0 0 0)" fill="yellow" stroke="black" stroke-width="0.5" />
<polygon points="460,300 460,360 480,360 480,300" transform="rotate(0 0 0)" fill="yellow" stroke="black" stroke-width="0.5" />
<polygon points="480,300 480,360 500,360 500,300" transform="rotate(0 0 0)" fill="yellow" stroke="black" stroke-width="0.5" />
<polygon points="0,360 0,420 20,420 20,360" transform="rotate(0 0 0)" fill="yellow" stroke="black" stroke-width="0.5" />
<polygon points="20,360 20,420 40,420 40,360" transform="rotate(0 0 0)" fill="yellow" stroke="black" stroke-width="0.5" />
<polygon points="40,360 40,420 60,420 60,360" transform="rotate(0 0 0)" fill="yellow" stroke="black" stroke-width="0.5" />
<polygon points="60,360 60,420 80,420 80,360" transform="rotate(0 0 0)" fill="yellow" stroke="black" stroke-width="0.5" />
<polygon points="80,360 80,420 100,420 100,360" transform="rotate(0 0 0)" fill="yellow" stroke="black" stroke-width="0.5" />
<polygon points="100,360 100,420 120,420 120,360" transform="rotate(0 0 0)" fill="yellow" stroke="black" stroke-width="0.5" />
<polygon points="120,360 120,420 140,420 140,360" transform="rotate(0 0 0)" fill="yellow" stroke="black" stroke-width="0.5" />
<polygon points="140,360 140,420 160,420 160,360" transform="rotate(0 0 0)" fill="yellow" stroke="black" stroke-width="0.5" />
<polygon points="160,360 160,420 180,420 180,360" transform="rotate(0 0 0)" fill="yellow" stroke="black" stroke-width="0.5" />
<polygon points="180,360 180,420 200,420 200,360" transform="rotate(0 0 0)" fill="yellow" stroke="black" stroke-width="0.5" />
<polygon points="200,360 200,420 220,420 220,360" transform="rotate(0 0 0)" fill="yellow" stroke="black" stroke-width="0.5" />
<polygon points="220,360 220,420 240,420 240,360" transform="rotate(0 0 0)" fill="yellow" stroke="black" stroke-width="0.5" />
<polygon points="240,360 240,420 260,420 260,360" transform="rotate(0 0 0)" fill="yellow" stroke="black" stroke-width="0.5" />
<polygon points="260,360 260,420 280,420 280,360" transform="rotate(0 0 0)" fill="yellow" stroke="black" stroke-width="0.5" />
<polygon points="280,360 280,420 300,420 300,360" transform="rotate(0 0 0)" fill="yellow" stroke="black" stroke-width="0.5" />
<polygon points="300,360 300,420 320,420 320,360" transform="rotate(0 0 0)" fill="yellow" stroke="black" stroke-width="0.5" />
<polygon points="320,360 320,420 340,420 340,360" transform="rotate(0 0 0)" fill="yellow" stroke="black" stroke-width="0.5" />
<polygon points="340,360 340,420 360,420 360,360" transform="rotate(0 0 0)" fill="yellow" stroke="black" stroke-width="0.5" />
<polygon points="360,360 360,420 380,420 380,360" transform="rotate(0 0 0)" fill="yellow" stroke="black" stroke-width="0.5" />
<polygon points="380,360 380,420 400,420 400,360" transform="rotate(0 0 0)" fill="yellow" stroke="black" stroke-width="0.5" />
<polygon points="400,360 400,420 420,420 420,360" transform="rotate(0 0 0)" fill="yellow" stroke="black" stroke-width="0.5" />
<polygon points="420,360 420,420 440,420 440,360" transform="rotate(0 0 0)" fill="yellow" stroke="black" stroke-width="0.5" />
<polygon points="440,360 440,420 460,420 460,360" transform="rotate(0 0 0)" fill="yellow" stroke="black" stroke-width="0.5" />
<polygon points="460,360 460,420 480,420 480,360" transform="rotate(0 0 0)" fill="yellow" stroke="black" stroke-width="0.5" />
<polygon points="480,360 480,420 500,420 500,360" transform="rotate(0 0 0)" fill="yellow" stroke="black" stroke-width="0.5" />
<polygon points="0,420 0,480 20,480 20,420" transform="rotate(0 0 0)" fill="yellow" stroke="black" stroke-width="0.5" />
<polygon points="20,420 20,480 40,480 40,420" transform="rotate(0 0 0)" fill="yellow" stroke="black" stroke-width="0.5" />
<polygon points="40,420 40,480 60,480 60,420" transform="rotate(0 0 0)" fill="yellow" stroke="black" stroke-width="0.5" />
<polygon points="60,420 60,480 80,480 80,420" transform="rotate(0 0 0)" fill="yellow" stroke="black" stroke-width="0.5" />
<polygon points="80,420 80,480 100,480 100,420" transform="rotate(0 0 0)" fill="yellow" stroke="black" stroke-width="0.5" />
<polygon points="100,420 100,480 120,480 120,420" transform="rotate(0 0 0)" fill="yellow" stroke="black" stroke-width="0.5" />
<polygon points="120,420 120,480 140,480 140,420" transform="rotate(0 0 0)" fill="yellow" stroke="black" stroke-width="0.5" />
<polygon points="140,420 140,480 160,480 160,420" transform="rotate(0 0 0)" fill="yellow" stroke="black" stroke-width="0.5" />
<polygon points="160,420 160,480 180,480 180,420" transform="rotate(0 0 0)" fill="yellow" stroke="black" stroke-width="0.5" />
<polygon points="180,420 180,480 200,480 200,420" transform="rotate(0 0 0)" fill="yellow" stroke="black" stroke-width="0.5" />
<polygon points="200,420 200,480 220,480 220,420" transform="rotate(0 0 0)" fill="yellow" stroke="black" stroke-width="0.5" />
<polygon points="220,420 220,480 240,480 240,420" transform="rotate(0 0 0)" fill="yellow" stroke="black" stroke-width="0.5" />
<polygon points="240,420 240,480 260,480 260,420" transform="rotate(0 0 0)" fill="yellow" stroke="black" stroke-width="0.5" />
<polygon points="260,420 260,480 280,480 280,420" transform="rotate(0 0 0)" fill="yellow" stroke="black" stroke-width="0.5" />
<polygon points="280,420 280,480 300,480 300,420" transform="rotate(0 0 0)" fill="yellow" stroke="black" stroke-width="0.5" />
<polygon points="300,420 300,480 320,480 320,420" transform="rotate(0 0 0)" fill="yellow" stroke="black" stroke-width="0.5" />
<polygon points="320,420 320,480 340,480 340,420" transform="rotate(0 0 0)" fill="yellow" stroke="black" stroke-width="0.5" />
<polygon points="340,420 340,480 360,480 360,420" transform="rotate(0 0 0)" fill="yellow" stroke="black" stroke-width="0.5" />
<polygon points="360,420 360,480 380,480 380,420" transform="rotate(0 0 0)" fill="yellow" stroke="black" stroke-width="0.5" />
<polygon points="380,420 380,480 400,480 400,420" transform="rotate(0 0 0)" fill="yellow" stroke="black" stroke-width="0.5" />
<polygon points="400,420 400,480 420,480 420,420" transform="rotate(0 0 0)" fill="yellow" stroke="black" stroke-width="0.5" />
<polygon points="420,420 420,480 440,480 440,420" transform="rotate(0 0 0)" fill="yellow" stroke="black" stroke-width="0.5" />
<polygon points="440,420 440,480 460,480 460,420" transform="rotate(0 0 0)" fill="yellow" stroke="black" stroke-width="0.5" />
<polygon points="460,420 460,480 480,480 480,420" transform="rotate(0 0 0)" fill="yellow" stroke="black" stroke-width="0.5" />
<polygon points="480,420 480,480 500,480 500,420" transform="rotate(0 0 0)" fill="yellow" stroke="black" stroke-width="0.5" />
<polygon points="0,480 0,540 20,540 20,480" transform="rotate(0 0 0)" fill="yellow" stroke="black" stroke-width="0.5" />
<polygon points="20,480 20,540 40,540 40,480" transform="rotate(0 0 0)" fill="yellow" stroke="black" stroke-width="0.5" />
<polygon points="40,480 40,540 60,540 60,480" transform="rotate(0 0 0)" fill="yellow" stroke="black" stroke-width="0.5" />
<polygon points="60,480 60,540 80,540 80,480" transform="rotate(0 0 0)" fill="yellow" stroke="black" stroke-width="0.5" />
<polygon points="80,480 80,540 100,540 100,480" transform="rotate(0 0 0)" fill="yellow" stroke="black" stroke-width="0.5" />
<polygon points="100,480 100,540 120,540 120,480" transform="rotate(0 0 0)" fill="yellow" stroke="black" stroke-width="0.5" />
<polygon points="120,480 120,540 140,540 140,480" transform="rotate(0 0 0)" fill="yellow" stroke="black" stroke-width="0.5" />
<polygon points="140,480 140,540 160,540 160,480" transform="rotate(0 0 0)" fill="yellow" stroke="black" stroke-width="0.5" />
<polygon points="160,480 160,540 180,540 180,480" transform="rotate(0 0 0)" fill="yellow" stroke="black" stroke-width="0.5" />
<polygon points="180,480 180,540 200,540 200,480" transform="rotate(0 0 0)" fill="yellow" stroke="black" stroke-width="0.5" />
<polygon points="200,480 200,540 220,540 220,480" transform="rotate(0 0 0)" fill="yellow" stroke="black" stroke-width="0.5" />
<polygon points="220,480 220,540 240,540 240,480" transform="rotate(0 0 0)" fill="yellow" stroke="black" stroke-width="0.5" />
<polygon points="240,480 240,540 260,540 260,480" transform="rotate(0 0 0)" fill="yellow" stroke="black" stroke-width="0.5" />
<polygon points="260,480 260,540 280,540 280,480" transform="rotate(0 0 0)" fill="yellow" stroke="black" stroke-width="0.5" />
<polygon points="280,480 280,540 300,540 300,480" transform="rotate(0 0 0)" fill="yellow" stroke="black" stroke-width="0.5" />
<polygon points="300,480 300,540 320,540 320,480" transform="rotate(0 0 0)" fill="yellow" stroke="black" stroke-width="0.5" />
<polygon points="320,480 320,540 340,540 340,480" transform="rotate(0 0 0)" fill="yellow" stroke="black" stroke-width="0.5" />
<polygon points="340,480 340,540 360,540 360,480" transform="rotate(0 0 0)" fill="yellow" stroke="black" stroke-width="0.5" />
<polygon points="360,480 360,540 380,540 380,480" transform="rotate(0 0 0)" fill="yellow" stroke="black" stroke-width="0.5" />
<polygon points="380,480 380,540 400,540 400,480" transform="rotate(0 0 0)" fill="yellow" stroke="black" stroke-width="0.5" />
<polygon points="400,480 400,540 420,540 420,480" transform="rotate(0 0 0)" fill="yellow" stroke="black" stroke-width="0.5" />
<polygon points="420,480 420,540 440,540 440,480" transform="rotate(0 0 0)" fill="yellow" stroke="black" stroke-width="0.5" />
<polygon points="440,480 440,540 460,540 460,480" transform="rotate(0 0 0)" fill="yellow" stroke="black" stroke-width="0.5" />
<polygon points="460,480 460,540 480,540 480,480" transform="rotate(0 0 0)" fill="yellow" stroke="black" stroke-width="0.5" />
<polygon points="480,480 480,540 500,540 500,480" transform="rotate(0 0 0)" fill="yellow" stroke="black" stroke-width="0.5" />
<polygon points="0,540 0,600 20,600 20,540" transform="rotate(0 0 0)" fill="yellow" stroke="black" stroke-width="0.5" />
<polygon points="20,540 20,600 40,600 40,540" transform="rotate(0 0 0)" fill="yellow" stroke="black" stroke-width="0.5" />
<polygon points="40,540 40,600 60,600 60,540" transform="rotate(0 0 0)" fill="yellow" stroke="black" stroke-width="0.5" />
<polygon points="60,540 60,600 80,600 80,540" transform="rotate(0 0 0)" fill="yellow" stroke="black" stroke-width="0.5" />
<polygon points="80,540 80,600 100,600 100,540" transform="rotate(0 0 0)" fill="yellow" stroke="black" stroke-width="0.5" />
<polygon points="100,540 100,600 120,600 120,540" transform="rotate(0 0 0)" fill="yellow" stroke="black" stroke-width="0.5" />
<polygon points="120,540 120,600 140,600 140,540" transform="rotate(0 0 0)" fill="yellow" stroke="black" stroke-width="0.5" />
<polygon points="140,540 140,600 160,600 160,540" transform="rotate(0 0 0)" fill="yellow" stroke="black" stroke-width="0.5" />
<polygon points="160,540 160,600 180,600 180,540" transform="rotate(0 0 0)" fill="yellow" stroke="black" stroke-width="0.5" />
<polygon points="180,540 180,600 200,600 200,540" transform="rotate(0 0 0)" fill="yellow" stroke="black" stroke-width="0.5" />
<polygon points="200,540 200,600 220,600 220,540" transform="rotate(0 0 0)" fill="yellow" stroke="black" stroke-width="0.5" />
<polygon points="220,540 220,600 240,600 240,540" transform="rotate(0 0 0)" fill="yellow" stroke="black" stroke-width="0.5" />
<polygon points="240,540 240,600 260,600 260,540" transform="rotate(0 0 0)" fill="yellow" stroke="black" stroke-width="0.5" />
<polygon points="260,540 260,600 280,600 280,540" transform="rotate(0 0 0)" fill="yellow" stroke="black" stroke-width="0.5" />
<polygon points="280,540 280,600 300,600 300,540" transform="rotate(0 0 0)" fill="yellow" stroke="black" stroke-width="0.5" />
<polygon points="300,540 300,600 320,600 320,540" transform="rotate(0 0 0)" fill="yellow" stroke="black" stroke-width="0.5" />
<polygon points="320,540 320,600 340,600 340,540" transform="rotate(0 0 0)" fill="yellow" stroke="black" stroke-width="0.5" />
<polygon points="340,540 340,600 360,600 360,540" transform="rotate(0 0 0)" fill="yellow" stroke="black" stroke-width="0.5" />
<polygon points="360,540 360,600 380,600 380,540" transform="rotate(0 0 0)" fill="yellow" stroke="black" stroke-width="0.5" />
<polygon points="380,540 380,600 400,600 400,540" transform="rotate(0 0 0)" fill="yellow" stroke="black" stroke-width="0.5" />
<polygon points="400,540 400,600 420,600 420,540" transform="rotate(0 0 0)" fill="yellow" stroke="black" stroke-width="0.5" />
<polygon points="420,540 420,600 440,600 440,540" transform="rotate(0 0 0)" fill="yellow" stroke="black" stroke-width="0.5" />
<polygon points="440,540 440,600 460,600 460,540" transform="rotate(0 0 0)" fill="yellow" stroke="black" stroke-width="0.5" />
<polygon points="460,540 460,600 480,600 480,540" transform="rotate(0 0 0)" fill="yellow" stroke="black" stroke-width="0.5" />
<polygon points="480,540 480,600 500,600 500,540" transform="rotate(0 0 0)" fill="yellow" stroke="black" stroke-width="0.5" />
<polygon points="0,600 0,660 20,660 20,600" transform="rotate(0 0 0)" fill="yellow" stroke="black" stroke-width="0.5" />
<polygon points="20,600 20,660 40,660 40,600" transform="rotate(0 0 0)" fill="yellow" stroke="black" stroke-width="0.5" />
<polygon points="40,600 40,660 60,660 60,600" transform="rotate(0 0 0)" fill="yellow" stroke="black" stroke-width="0.5" />
<polygon points="60,600 60,660 80,660 80,600" transform="rotate(0 0 0)" fill="yellow" stroke="black" stroke-width="0.5" />
<polygon points="80,600 80,660 100,660 100,600" transform="rotate(0 0 0)" fill="yellow" stroke="black" stroke-width="0.5" />
<polygon points="100,600 100,660 120,660 120,600" transform="rotate(0 0 0)" fill="yellow" stroke="black" stroke-width="0.5" />
<polygon points="120,600 120,660 140,660 140,600" transform="rotate(0 0 0)" fill="yellow" stroke="black" stroke-width="0.5" />
<polygon points="140,600 140,660 160,660 160,600" transform="rotate(0 0 0)" fill="yellow" stroke="black" stroke-width="0.5" />
<polygon points="160,600 160,660 180,660 180,600" transform="rotate(0 0 0)" fill="yellow" stroke="black" stroke-width="0.5" />
<polygon points="180,600 180,660 200,660 200,600" transform="rotate(0 0 0)" fill="yellow" stroke="black" stroke-width="0.5" />
<polygon points="200,600 200,660 220,660 220,600" transform="rotate(0 0 0)" fill="yellow" stroke="black" stroke-width="0.5" />
<polygon points="220,600 220,660 240,660 240,600" transform="rotate(0 0 0)" fill="yellow" stroke="black" stroke-width="0.5" />
<polygon points="240,600 240,660 260,660 260,600" transform="rotate(0 0 0)" fill="yellow" stroke="black" stroke-width="0.5" />
<polygon points="260,600 260,660 280,660 280,600" transform="rotate(0 0 0)" fill="yellow" stroke="black" stroke-width="0.5" />
<polygon points="280,600 280,660 300,660 300,600" transform="rotate(0 0 0)" fill="yellow" stroke="black" stroke-width="0.5" />
<polygon points="300,600 300,660 320,660 320,600" transform="rotate(0 0 0)" fill="yellow" stroke="black" stroke-width="0.5" />
<polygon points="320,600 320,660 340,660 340,600" transform="rotate(0 0 0)" fill="yellow" stroke="black" stroke-width="0.5" />
<polygon points="340,600 340,660 360,660 360,600" transform="rotate(0 0 0)" fill="yellow" stroke="black" stroke-width="0.5" />
<polygon points="360,600 360,660 380,660 380,600" transform="rotate(0 0 0)" fill="yellow" stroke="black" stroke-width="0.5" />
<polygon points="380,600 380,660 400,660 400,600" transform="rotate(0 0 0)" fill="yellow" stroke="black" stroke-width="0.5" />
<polygon points="400,600 400,660 420,660 420,600" transform="rotate(0 0 0)" fill="yellow" stroke="black" stroke-width="0.5" />
<polygon points="420,600 420,660 440,660 440,600" transform="rotate(0 0 0)" fill="yellow" stroke="black" stroke-width="0.5" />
<polygon points="440,600 440,660 460,660 460,600" transform="rotate(0 0 0)" fill="yellow" stroke="black" stroke-width="0.5" />
<polygon points="460,600 460,660 480,660 480,600" transform="rotate(0 0 0)" fill="yellow" stroke="black" stroke-width="0.5" />
<polygon points="480,600 480,660 500,660 500,600" transform="rotate(0 0 0)" fill="yellow" stroke="black" stroke-width="0.5" />
<polygon points="0,660 0,720 20,720 20,660" transform="rotate(0 0 0)" fill="yellow" stroke="black" stroke-width="0.5" />
<polygon points="20,660 20,720 40,720 40,660" transform="rotate(0 0 0)" fill="yellow" stroke="black" stroke-width="0.5" />
<polygon points="40,660 40,720 60,720 60,660" transform="rotate(0 0 0)" fill="yellow" stroke="black" stroke-width="0.5" />
<polygon points="60,660 60,720 80,720 80,660" transform="rotate(0 0 0)" fill="yellow" stroke="black" stroke-width="0.5" />
<polygon points="80,660 80,720 100,720 100,660" transform="rotate(0 0 0)" fill="yellow" stroke="black" stroke-width="0.5" />
<polygon points="100,660 100,720 120,720 120,660" transform="rotate(0 0 0)" fill="yellow" stroke="black" stroke-width="0.5" />
<polygon points="120,660 120,720 140,720 140,660" transform="rotate(0 0 0)" fill="yellow" stroke="black" stroke-width="0.5" />
<polygon points="140,660 140,720 160,720 160,660" transform="rotate(0 0 0)" fill="yellow" stroke="black" stroke-width="0.5" />
<polygon points="160,660 160,720 180,720 180,660" transform="rotate(0 0 0)" fill="yellow" stroke="black" stroke-width="0.5" />
<polygon points="180,660 180,720 200,720 200,660" transform="rotate(0 0 0)" fill="yellow" stroke="black" stroke-width="0.5" />
<polygon points="200,660 200,720 220,720 220,660" transform="rotate(0 0 0)" fill="yellow" stroke="black" stroke-width="0.5" />
<polygon points="220,660 220,720 240,720 240,660" transform="rotate(0 0 0)" fill="yellow" stroke="black" stroke-width="0.5" />
<polygon points="240,660 240,720 260,720 260,660" transform="rotate(0 0 0)" fill="yellow" stroke="black" stroke-width="0.5" />
<polygon points="260,660 260,720 280,720 280,660" transform="rotate(0 0 0)" fill="yellow" stroke="black" stroke-width="0.5" />
<polygon points="280,660 280,720 300,720 300,660" transform="rotate(0 0 0)" fill="yellow" stroke="black" stroke-width="0.5" />
<polygon points="300,660 300,720 320,720 320,660" transform="rotate(0 0 0)" fill="yellow" stroke="black" stroke-width="0.5" />
<polygon points="320,660 320,720 340,720 340,660" transform="rotate(0 0 0)" fill="yellow" stroke="black" stroke-width="0.5" />
<polygon points="340,660 340,720 360,720 360,660" transform="rotate(0 0 0)" fill="yellow" stroke="black" stroke-width="0.5" />
<polygon points="360,660 360,720 380,720 380,660" transform="rotate(0 0 0)" fill="yellow" stroke="black" stroke-width="0.5" />
<polygon points="380,660 380,720 400,720 400,660" transform="rotate(0 0 0)" fill="yellow" stroke="black" stroke-width="0.5" />
<polygon points="400,660 400,720 420,720 420,660" transform="rotate(0 0 0)" fill="yellow" stroke="black" stroke-width="0.5" />
<polygon points="420,660 420,720 440,720 440,660" transform="rotate(0 0 0)" fill="yellow" stroke="black" stroke-width="0.5" />
<polygon points="440,660 440,720 460,720 460,660" transform="rotate(0 0 0)" fill="yellow" stroke="black" stroke-width="0.5" />
<polygon points="460,660 460,720 480,720 480,660" transform="rotate(0 0 0)" fill="yellow" stroke="black" stroke-width="0.5" />
<polygon points="480,660 480,720 500,720 500,660" transform="rotate(0 0 0)" fill="yellow" stroke="black" stroke-width="0.5" />
<polygon points="0,720 0,740 60,740 60,720" transform="rotate(0 0 0)" fill="yellow" stroke="black" stroke-width="0.5" />
<polygon points="60,720 60,740 120,740 120,720" transform="rotate(0 0 0)" fill="yellow" stroke="black" stroke-width="0.5" />
<polygon points="120,720 120,740 180,740 180,720" transform="rotate(0 0 0)" fill="yellow" stroke="black" stroke-width="0.5" />
<polygon points="180,720 180,740 240,740 240,720" transform="rotate(0 0 0)" fill="yellow" stroke="black" stroke-width="0.5" />
<polygon points="240,720 240,740 300,740 300,720" transform="rotate(0 0 0)" fill="yellow" stroke="black" stroke-width="0.5" />
<polygon points="300,720 300,740 360,740 360,720" transform="rotate(0 0 0)" fill="yellow" stroke="black" stroke-width="0.5" />
<polygon points="360,720 360,740 420,740 420,720" transform="rotate(0 0 0)" fill="yellow" stroke="black" stroke-width="0.5" />
<polygon points="420,720 420,740 480,740 480,720" transform="rotate(0 0 0)" fill="yellow" stroke="black" stroke-width="0.5" />
</svg>
