<svg version="1.1" baseProfile="full" xmlns="http://www.w3.org/2000/svg">
<polygon points="1010,510 1009.01,478.605 1006.06,447.333 1001.14,416.309 994.292,385.655 985.528,355.492 974.888,325.938 962.414,297.11 948.153,269.123 932.164,242.087 914.508,216.107 895.257,191.288 874.484,167.726 852.274,145.516 828.712,124.743 803.893,105.492 777.913,87.836 750.877,71.8467 722.89,57.5865 694.062,45.1118 664.508,34.4717 634.345,25.7084 603.691,18.8564 572.667,13.9426 541.395,10.9866 510,10 478.605,10.9866 447.333,13.9426 416.309,18.8564 385.655,25.7084 355.492,34.4717 325.938,45.1118 297.11,57.5865 269.123,71.8467 242.087,87.836 216.107,105.492 191.288,124.743 167.726,145.516 145.516,167.726 124.743,191.288 105.492,216.107 87.836,242.087 71.8467,269.123 57.5865,297.11 45.1118,325.938 34.4717,355.492 25.7084,385.655 18.8564,416.309 13.9426,447.333 10.9866,478.605 10,510 10.9866,541.395 13.9426,572.667 18.8564,603.691 25.7084,634.345 34.4717,664.508 45.1118,694.062 57.5865,722.89 71.8467,750.877 87.836,777.913 105.492,803.893 124.743,828.712 145.516,852.274 167.726,874.484 191.288,895.257 216.107,914.508 242.087,932.164 269.123,948.153 297.11,962.414 325.938,974.888 355.492,985.528 385.655,994.292 416.309,1001.14 447.333,1006.06 478.605,1009.01 510,1010 541.395,1009.01 572.667,1006.06 603.691,1001.14 634.345,994.292 664.508,985.528 694.062,974.888 722.89,962.414 750.877,948.153 777.913,932.164 803.893,914.508 828.712,895.257 852.274,874.484 874.484,852.274 895.257,828.712 914.508,803.893 932.164,777.913 948.153,750.877 962.414,722.89 974.888,694.062 985.528,664.508 994.292,634.345 1001.14,603.691 1006.06,572.667 1009.01,541.395" transform="rotate(0 0 0)" fill="dimgrey" stroke="black" stroke-width="0.5" />
<polygon points="156.447,156.447 156.447,176.447 216.447,176.447 216.447,156.447" transform="rotate(0 0 0)" fill="yellow" stroke="black" stroke-width="0.5" />
<polygon points="216.447,156.447 216.447,176.447 276.447,176.447 276.447,156.447" transform="rotate(0 0 0)" fill="yellow" stroke="black" stroke-width="0.5" />
<polygon points="276.447,156.447 276.447,176.447 336.447,176.447 336.447,156.447" transform="rotate(0 0 0)" fill="yellow" stroke="black" stroke-width="0.5" />
<polygon points="336.447,156.447 336.447,176.447 396.447,176.447 396.447,156.447" transform="rotate(0 0 0)" fill="yellow" stroke="black" stroke-width="0.5" />
<polygon points="396.447,156.447 396.447,176.447 456.447,176.447 456.447,156.447" transform="rotate(0 0 0)" fill="yellow" stroke="black" stroke-width="0.5" />
<polygon points="456.447,156.447 456.447,176.447 516.447,176.447 516.447,156.447" transform="rotate(0 0 0)" fill="yellow" stroke="black" stroke-width="0.5" />
<polygon points="516.447,156.447 516.447,176.447 576.447,176.447 576.447,156.447" transform="rotate(0 0 0)" fill="yellow" stroke="black" stroke-width="0.5" />
<polygon points="576.447,156.447 576.447,176.447 636.447,176.447 636.447,156.447" transform="rotate(0 0 0)" fill="yellow" stroke="black" stroke-width="0.5" />
<polygon points="636.447,156.447 636.447,176.447 696.447,176.447 696.447,156.447" transform="rotate(0 0 0)" fill="yellow" stroke="black" stroke-width="0.5" />
<polygon points="696.447,156.447 696.447,176.447 756.447,176.447 756.447,156.447" transform="rotate(0 0 0)" fill="yellow" stroke="black" stroke-width="0.5" />
<polygon points="756.447,156.447 756.447,176.447 816.447,176.447 816.447,156.447" transform="rotate(0 0 0)" fill="yellow" stroke="black" stroke-width="0.5" />
<polygon points="156.447,176.447 156.447,196.447 216.447,196.447 216.447,176.447" transform="rotate(0 0 0)" fill="yellow" stroke="black" stroke-width="0.5" />
<polygon points="216.447,176.447 216.447,196.447 276.447,196.447 276.447,176.447" transform="rotate(0 0 0)" fill="yellow" stroke="black" stroke-width="0.5" />
<polygon points="276.447,176.447 276.447,196.447 336.447,196.447 336.447,176.447" transform="rotate(0 0 0)" fill="yellow" stroke="black" stroke-width="0.5" />
<polygon points="336.447,176.447 336.447,196.447 396.447,196.447 396.447,176.447" transform="rotate(0 0 0)" fill="yellow" stroke="black" stroke-width="0.5" />
<polygon points="396.447,176.447 396.447,196.447 456.447,196.447 456.447,176.447" transform="rotate(0 0 0)" fill="yellow" stroke="black" stroke-width="0.5" />
<polygon points="456.447,176.447 456.447,196.447 516.447,196.447 516.447,176.447" transform="rotate(0 0 0)" fill="yellow" stroke="black" stroke-width="0.5" />
<polygon points="516.447,176.447 516.447,196.447 576.447,196.447 576.447,176.447" transform="rotate(0 0 0)" fill="yellow" stroke="black" stroke-width="0.5" />
<polygon points="576.447,176.447 576.447,196.447 636.447,196.447 636.447,176.447" transform="rotate(0 0 0)" fill="yellow" stroke="black" stroke-width="0.5" />
<polygon points="636.447,176.447 636.447,196.447 696.447,196.447 696.447,176.447" transform="rotate(0 0 0)" fill="yellow" stroke="black" stroke-width="0.5" />
<polygon points="696.447,176.447 696.447,196.447 756.447,196.447 756.447,176.447" transform="rotate(0 0 0)" fill="yellow" stroke="black" stroke-width="0.5" />
<polygon points="756.447,176.447 756.447,196.447 816.447,196.447 816.447,176.447" transform="rotate(0 0 0)" fill="yellow" stroke="black" stroke-width="0.5" />
<polygon points="156.447,196.447 156.447,216.447 216.447,216.447 216.447,196.447" transform="rotate(0 0 0)" fill="yellow" stroke="black" stroke-width="0.5" />
<polygon points="216.447,196.447 216.447,216.447 276.447,216.447 276.447,196.447" transform="rotate(0 0 0)" fill="yellow" stroke="black" stroke-width="0.5" />
<polygon points="276.447,196.447 276.447,216.447 336.447,216.447 336.447,196.447" transform="rotate(0 0 0)" fill="yellow" stroke="black" stroke-width="0.5" />
<polygon points="336.447,196.447 336.447,216.447 396.447,216.447 396.447,196.447" transform="rotate(0 0 0)" fill="yellow" stroke="black" stroke-width="0.5" />
<polygon points="396.447,196.447 396.447,216.447 456.447,216.447 456.447,196.447" transform="rotate(0 0 0)" fill="yellow" stroke="black" stroke-width="0.5" />
<polygon points="456.447,196.447 456.447,216.447 516.447,216.447 516.447,196.447" transform="rotate(0 0 0)" fill="yellow" stroke="black" stroke-width="0.5" />
<polygon points="516.447,196.447 516.447,216.447 576.447,216.447 576.447,196.447" transform="rotate(0 0 0)" fill="yellow" stroke="black" stroke-width="0.5" />
<polygon points="576.447,196.447 576.447,216.447 636.447,216.447 636.447,196.447" transform="rotate(0 0 0)" fill="yellow" stroke="black" stroke-width="0.5" />
<polygon points="636.447,196.447 636.447,216.447 696.447,216.447 696.447,196.447" transform="rotate(0 0 0)" fill="yellow" stroke="black" stroke-width="0.5" />
<polygon points="696.447,196.447 696.447,216.447 756.447,216.447 756.447,196.447" transform="rotate(0 0 0)" fill="yellow" stroke="black" stroke-width="0.5" />
<polygon points="756.447,196.447 756.447,216.447 816.447,216.447 816.447,196.447" transform="rotate(0 0 0)" fill="yellow" stroke="black" stroke-width="0.5" />
<polygon points="156.447,216.447 156.447,236.447 216.447,236.447 216.447,216.447" transform="rotate(0 0 0)" fill="yellow" stroke="black" stroke-width="0.5" />
<polygon points="216.447,216.447 216.447,236.447 276.447,236.447 276.447,216.447" transform="rotate(0 0 0)" fill="yellow" stroke="black" stroke-width="0.5" />
<polygon points="276.447,216.447 276.447,236.447 336.447,236.447 336.447,216.447" transform="rotate(0 0 0)" fill="yellow" stroke="black" stroke-width="0.5" />
<polygon points="336.447,216.447 336.447,236.447 396.447,236.447 396.447,216.447" transform="rotate(0 0 0)" fill="yellow" stroke="black" stroke-width="0.5" />
<polygon points="396.447,216.447 396.447,236.447 456.447,236.447 456.447,216.447" transform="rotate(0 0 0)" fill="yellow" stroke="black" stroke-width="0.5" />
<polygon points="456.447,216.447 456.447,236.447 516.447,236.447 516.447,216.447" transform="rotate(0 0 0)" fill="yellow" stroke="black" stroke-width="0.5" />
<polygon points="516.447,216.447 516.447,236.447 576.447,236.447 576.447,216.447" transform="rotate(0 0 0)" fill="yellow" stroke="black" stroke-width="0.5" />
<polygon points="576.447,216.447 576.447,236.447 636.447,236.447 636.447,216.447" transform="rotate(0 0 0)" fill="yellow" stroke="black" stroke-width="0.5" />
<polygon points="636.447,216.447 636.447,236.447 696.447,236.447 696.447,216.447" transform="rotate(0 0 0)" fill="yellow" stroke="black" stroke-width="0.5" />
<polygon points="696.447,216.447 696.447,236.447 756.447,236.447 756.447,216.447" transform="rotate(0 0 0)" fill="yellow" stroke="black" stroke-width="0.5" />
<polygon points="756.447,216.447 756.447,236.447 816.447,236.447 816.447,216.447" transform="rotate(0 0 0)" fill="yellow" stroke="black" stroke-width="0.5" />
<polygon points="156.447,236.447 156.447,256.447 216.447,256.447 216.447,236.447" transform="rotate(0 0 0)" fill="yellow" stroke="black" stroke-width="0.5" />
<polygon points="216.447,236.447 216.447,256.447 276.447,256.447 276.447,236.447" transform="rotate(0 0 0)" fill="yellow" stroke="black" stroke-width="0.5" />
<polygon points="276.447,236.447 276.447,256.447 336.447,256.447 336.447,236.447" transform="rotate(0 0 0)" fill="yellow" stroke="black" stroke-width="0.5" />
<polygon points="336.447,236.447 336.447,256.447 396.447,256.447 396.447,236.447" transform="rotate(0 0 0)" fill="yellow" stroke="black" stroke-width="0.5" />
<polygon points="396.447,236.447 396.447,256.447 456.447,256.447 456.447,236.447" transform="rotate(0 0 0)" fill="yellow" stroke="black" stroke-width="0.5" />
<polygon points="456.447,236.447 456.447,256.447 516.447,256.447 516.447,236.447" transform="rotate(0 0 0)" fill="yellow" stroke="black" stroke-width="0.5" />
<polygon points="516.447,236.447 516.447,256.447 576.447,256.447 576.447,236.447" transform="rotate(0 0 0)" fill="yellow" stroke="black" stroke-width="0.5" />
<polygon points="576.447,236.447 576.447,256.447 636.447,256.447 636.447,236.447" transform="rotate(0 0 0)" fill="yellow" stroke="black" stroke-width="0.5" />
<polygon points="636.447,236.447 636.447,256.447 696.447,256.447 696.447,236.447" transform="rotate(0 0 0)" fill="yellow" stroke="black" stroke-width="0.5" />
<polygon points="696.447,236.447 696.447,256.447 756.447,256.447 756.447,236.447" transform="rotate(0 0 0)" fill="yellow" stroke="black" stroke-width="0.5" />
<polygon points="756.447,236.447 756.447,256.447 816.447,256.447 816.447,236.447" transform="rotate(0 0 0)" fill="yellow" stroke="black" stroke-width="0.5" />
<polygon points="156.447,256.447 156.447,276.447 216.447,276.447 216.447,256.447" transform="rotate(0 0 0)" fill="yellow" stroke="black" stroke-width="0.5" />
<polygon points="216.447,256.447 216.447,276.447 276.447,276.447 276.447,256.447" transform="rotate(0 0 0)" fill="yellow" stroke="black" stroke-width="0.5" />
<polygon points="276.447,256.447 276.447,276.447 336.447,276.447 336.447,256.447" transform="rotate(0 0 0)" fill="yellow" stroke="black" stroke-width="0.5" />
<polygon points="336.447,256.447 336.447,276.447 396.447,276.447 396.447,256.447" transform="rotate(0 0 0)" fill="yellow" stroke="black" stroke-width="0.5" />
<polygon points="396.447,256.447 396.447,276.447 456.447,276.447 456.447,256.447" transform="rotate(0 0 0)" fill="yellow" stroke="black" stroke-width="0.5" />
<polygon points="456.447,256.447 456.447,276.447 516.447,276.447 516.447,256.447" transform="rotate(0 0 0)" fill="yellow" stroke="black" stroke-width="0.5" />
<polygon points="516.447,256.447 516.447,276.447 576.447,276.447 576.447,256.447" transform="rotate(0 0 0)" fill="yellow" stroke="black" stroke-width="0.5" />
<polygon points="576.447,256.447 576.447,276.447 636.447,276.447 636.447,256.447" transform="rotate(0 0 0)" fill="yellow" stroke="black" stroke-width="0.5" />
<polygon points="636.447,256.447 636.447,276.447 696.447,276.447 696.447,256.447" transform="rotate(0 0 0)" fill="yellow" stroke="black" stroke-width="0.5" />
<polygon points="696.447,256.447 696.447,276.447 756.447,276.447 756.447,256.447" transform="rotate(0 0 0)" fill="yellow" stroke="black" stroke-width="0.5" />
<polygon points="756.447,256.447 756.447,276.447 816.447,276.447 816.447,256.447" transform="rotate(0 0 0)" fill="yellow" stroke="black" stroke-width="0.5" />
<polygon points="156.447,276.447 156.447,296.447 216.447,296.447 216.447,276.447" transform="rotate(0 0 0)" fill="yellow" stroke="black" stroke-width="0.5" />
<polygon points="216.447,276.447 216.447,296.447 276.447,296.447 276.447,276.447" transform="rotate(0 0 0)" fill="yellow" stroke="black" stroke-width="0.5" />
<polygon points="276.447,276.447 276.447,296.447 336.447,296.447 336.447,276.447" transform="rotate(0 0 0)" fill="yellow" stroke="black" stroke-width="0.5" />
<polygon points="336.447,276.447 336.447,296.447 396.447,296.447 396.447,276.447" transform="rotate(0 0 0)" fill="yellow" stroke="black" stroke-width="0.5" />
<polygon points="396.447,276.447 396.447,296.447 456.447,296.447 456.447,276.447" transform="rotate(0 0 0)" fill="yellow" stroke="black" stroke-width="0.5" />
<polygon points="456.447,276.447 456.447,296.447 516.447,296.447 516.447,276.447" transform="rotate(0 0 0)" fill="yellow" stroke="black" stroke-width="0.5" />
<polygon points="516.447,276.447 516.447,296.447 576.447,296.447 576.447,276.447" transform="rotate(0 0 0)" fill="yellow" stroke="black" stroke-width="0.5" />
<polygon points="576.447,276.447 576.447,296.447 636.447,296.447 636.447,276.447" transform="rotate(0 0 0)" fill="yellow" stroke="black" stroke-width="0.5" />
<polygon points="636.447,276.447 636.447,296.447 696.447,296.447 696.447,276.447" transform="rotate(0 0 0)" fill="yellow" stroke="black" stroke-width="0.5" />
<polygon points="696.447,276.447 696.447,296.447 756.447,296.447 756.447,276.447" transform="rotate(0 0 0)" fill="yellow" stroke="black" stroke-width="0.5" />
<polygon points="756.447,276.447 756.447,296.447 816.447,296.447 816.447,276.447" transform="rotate(0 0 0)" fill="yellow" stroke="black" stroke-width="0.5" />
<polygon points="156.447,296.447 156.447,316.447 216.447,316.447 216.447,296.447" transform="rotate(0 0 0)" fill="yellow" stroke="black" stroke-width="0.5" />
<polygon points="216.447,296.447 216.447,316.447 276.447,316.447 276.447,296.447" transform="rotate(0 0 0)" fill="yellow" stroke="black" stroke-width="0.5" />
<polygon points="276.447,296.447 276.447,316.447 336.447,316.447 336.447,296.447" transform="rotate(0 0 0)" fill="yellow" stroke="black" stroke-width="0.5" />
<polygon points="336.447,296.447 336.447,316.447 396.447,316.447 396.447,296.447" transform="rotate(0 0 0)" fill="yellow" stroke="black" stroke-width="0.5" />
<polygon points="396.447,296.447 396.447,316.447 456.447,316.447 456.447,296.447" transform="rotate(0 0 0)" fill="yellow" stroke="black" stroke-width="0.5" />
<polygon points="456.447,296.447 456.447,316.447 516.447,316.447 516.447,296.447" transform="rotate(0 0 0)" fill="yellow" stroke="black" stroke-width="0.5" />
<polygon points="516.447,296.447 516.447,316.447 576.447,316.447 576.447,296.447" transform="rotate(0 0 0)" fill="yellow" stroke="black" stroke-width="0.5" />
<polygon points="576.447,296.447 576.447,316.447 636.447,316.447 636.447,296.447" transform="rotate(0 0 0)" fill="yellow" stroke="black" stroke-width="0.5" />
<polygon points="636.447,296.447 636.447,316.447 696.447,316.447 696.447,296.447" transform="rotate(0 0 0)" fill="yellow" stroke="black" stroke-width="0.5" />
<polygon points="696.447,296.447 696.447,316.447 756.447,316.447 756.447,296.447" transform="rotate(0 0 0)" fill="yellow" stroke="black" stroke-width="0.5" />
<polygon points="756.447,296.447 756.447,316.447 816.447,316.447 816.447,296.447" transform="rotate(0 0 0)" fill="yellow" stroke="black" stroke-width="0.5" />
<polygon points="156.447,316.447 156.447,336.447 216.447,336.447 216.447,316.447" transform="rotate(0 0 0)" fill="yellow" stroke="black" stroke-width="0.5" />
<polygon points="216.447,316.447 216.447,336.447 276.447,336.447 276.447,316.447" transform="rotate(0 0 0)" fill="yellow" stroke="black" stroke-width="0.5" />
<polygon points="276.447,316.447 276.447,336.447 336.447,336.447 336.447,316.447" transform="rotate(0 0 0)" fill="yellow" stroke="black" stroke-width="0.5" />
<polygon points="336.447,316.447 336.447,336.447 396.447,336.447 396.447,316.447" transform="rotate(0 0 0)" fill="yellow" stroke="black" stroke-width="0.5" />
<polygon points="396.447,316.447 396.447,336.447 456.447,336.447 456.447,316.447" transform="rotate(0 0 0)" fill="yellow" stroke="black" stroke-width="0.5" />
<polygon points="456.447,316.447 456.447,336.447 516.447,336.447 516.447,316.447" transform="rotate(0 0 0)" fill="yellow" stroke="black" stroke-width="0.5" />
<polygon points="516.447,316.447 516.447,336.447 576.447,336.447 576.447,316.447" transform="rotate(0 0 0)" fill="yellow" stroke="black" stroke-width="0.5" />
<polygon points="576.447,316.447 576.447,336.447 636.447,336.447 636.447,316.447" transform="rotate(0 0 0)" fill="yellow" stroke="black" stroke-width="0.5" />
<polygon points="636.447,316.447 636.447,336.447 696.447,336.447 696.447,316.447" transform="rotate(0 0 0)" fill="yellow" stroke="black" stroke-width="0.5" />
<polygon points="696.447,316.447 696.447,336.447 756.447,336.447 756.447,316.447" transform="rotate(0 0 0)" fill="yellow" stroke="black" stroke-width="0.5" />
<polygon points="756.447,316.447 756.447,336.447 816.447,336.447 816.447,316.447" transform="rotate(0 0 0)" fill="yellow" stroke="black" stroke-width="0.5" />
<polygon points="156.447,336.447 156.447,356.447 216.447,356.447 216.447,336.447" transform="rotate(0 0 0)" fill="yellow" stroke="black" stroke-width="0.5" />
<polygon points="216.447,336.447 216.447,356.447 276.447,356.447 276.447,336.447" transform="rotate(0 0 0)" fill="yellow" stroke="black" stroke-width="0.5" />
<polygon points="276.447,336.447 276.447,356.447 336.447,356.447 336.447,336.447" transform="rotate(0 0 0)" fill="yellow" stroke="black" stroke-width="0.5" />
<polygon points="336.447,336.447 336.447,356.447 396.447,356.447 396.447,336.447" transform="rotate(0 0 0)" fill="yellow" stroke="black" stroke-width="0.5" />
<polygon points="396.447,336.447 396.447,356.447 456.447,356.447 456.447,336.447" transform="rotate(0 0 0)" fill="yellow" stroke="black" stroke-width="0.5" />
<polygon points="456.447,336.447 456.447,356.447 516.447,356.447 516.447,336.447" transform="rotate(0 0 0)" fill="yellow" stroke="black" stroke-width="0.5" />
<polygon points="516.447,336.447 516.447,356.447 576.447,356.447 576.447,336.447" transform="rotate(0 0 0)" fill="yellow" stroke="black" stroke-width="0.5" />
<polygon points="576.447,336.447 576.447,356.447 636.447,356.447 636.447,336.447" transform="rotate(0 0 0)" fill="yellow" stroke="black" stroke-width="0.5" />
<polygon points="636.447,336.447 636.447,356.447 696.447,356.447 696.447,336.447" transform="rotate(0 0 0)" fill="yellow" stroke="black" stroke-width="0.5" />
<polygon points="696.447,336.447 696.447,356.447 756.447,356.447 756.447,336.447" transform="rotate(0 0 0)" fill="yellow" stroke="black" stroke-width="0.5" />
<polygon points="756.447,336.447 756.447,356.447 816.447,356.447 816.447,336.447" transform="rotate(0 0 0)" fill="yellow" stroke="black" stroke-width="0.5" />
<polygon points="156.447,356.447 156.447,376.447 216.447,376.447 216.447,356.447" transform="rotate(0 0 0)" fill="yellow" stroke="black" stroke-width="0.5" />
<polygon points="216.447,356.447 216.447,376.447 276.447,376.447 276.447,356.447" transform="rotate(0 0 0)" fill="yellow" stroke="black" stroke-width="0.5" />
<polygon points="276.447,356.447 276.447,376.447 336.447,376.447 336.447,356.447" transform="rotate(0 0 0)" fill="yellow" stroke="black" stroke-width="0.5" />
<polygon points="336.447,356.447 336.447,376.447 396.447,376.447 396.447,356.447" transform="rotate(0 0 0)" fill="yellow" stroke="black" stroke-width="0.5" />
<polygon points="396.447,356.447 396.447,376.447 456.447,376.447 456.447,356.447" transform="rotate(0 0 0)" fill="yellow" stroke="black" stroke-width="0.5" />
<polygon points="456.447,356.447 456.447,376.447 516.447,376.447 516.447,356.447" transform="rotate(0 0 0)" fill="yellow" stroke="black" stroke-width="0.5" />
<polygon points="516.447,356.447 516.447,376.447 576.447,376.447 576.447,356.447" transform="rotate(0 0 0)" fill="yellow" stroke="black" stroke-width="0.5" />
<polygon points="576.447,356.447 576.447,376.447 636.447,376.447 636.447,356.447" transform="rotate(0 0 0)" fill="yellow" stroke="black" stroke-width="0.5" />
<polygon points="636.447,356.447 636.447,376.447 696.447,376.447 696.447,356.447" transform="rotate(0 0 0)" fill="yellow" stroke="black" stroke-width="0.5" />
<polygon points="696.447,356.447 696.447,376.447 756.447,376.447 756.447,356.447" transform="rotate(0 0 0)" fill="yellow" stroke="black" stroke-width="0.5" />
<polygon points="756.447,356.447 756.447,376.447 816.447,376.447 816.447,356.447" transform="rotate(0 0 0)" fill="yellow" stroke="black" stroke-width="0.5" />
<polygon points="156.447,376.447 156.447,396.447 216.447,396.447 216.447,376.447" transform="rotate(0 0 0)" fill="yellow" stroke="black" stroke-width="0.5" />
<polygon points="216.447,376.447 216.447,396.447 276.447,396.447 276.447,376.447" transform="rotate(0 0 0)" fill="yellow" stroke="black" stroke-width="0.5" />
<polygon points="276.447,376.447 276.447,396.447 336.447,396.447 336.447,376.447" transform="rotate(0 0 0)" fill="yellow" stroke="black" stroke-width="0.5" />
<polygon points="336.447,376.447 336.447,396.447 396.447,396.447 396.447,376.447" transform="rotate(0 0 0)" fill="yellow" stroke="black" stroke-width="0.5" />
<polygon points="396.447,376.447 396.447,396.447 456.447,396.447 456.447,376.447" transform="rotate(0 0 0)" fill="yellow" stroke="black" stroke-width="0.5" />
<polygon points="456.447,376.447 456.447,396.447 516.447,396.447 516.447,376.447" transform="rotate(0 0 0)" fill="yellow" stroke="black" stroke-width="0.5" />
<polygon points="516.447,376.447 516.447,396.447 576.447,396.447 576.447,376.447" transform="rotate(0 0 0)" fill="yellow" stroke="black" stroke-width="0.5" />
<polygon points="576.447,376.447 576.447,396.447 636.447,396.447 636.447,376.447" transform="rotate(0 0 0)" fill="yellow" stroke="black" stroke-width="0.5" />
<polygon points="636.447,376.447 636.447,396.447 696.447,396.447 696.447,376.447" transform="rotate(0 0 0)" fill="yellow" stroke="black" stroke-width="0.5" />
<polygon points="696.447,376.447 696.447,396.447 756.447,396.447 756.447,376.447" transform="rotate(0 0 0)" fill="yellow" stroke="black" stroke-width="0.5" />
<polygon points="756.447,376.447 756.447,396.447 816.447,396.447 816.447,376.447" transform="rotate(0 0 0)" fill="yellow" stroke="black" stroke-width="0.5" />
<polygon points="156.447,396.447 156.447,416.447 216.447,416.447 216.447,396.447" transform="rotate(0 0 0)" fill="yellow" stroke="black" stroke-width="0.5" />
<polygon points="216.447,396.447 216.447,416.447 276.447,416.447 276.447,396.447" transform="rotate(0 0 0)" fill="yellow" stroke="black" stroke-width="0.5" />
<polygon points="276.447,396.447 276.447,416.447 336.447,416.447 336.447,396.447" transform="rotate(0 0 0)" fill="yellow" stroke="black" stroke-width="0.5" />
<polygon points="336.447,396.447 336.447,416.447 396.447,416.447 396.447,396.447" transform="rotate(0 0 0)" fill="yellow" stroke="black" stroke-width="0.5" />
<polygon points="396.447,396.447 396.447,416.447 456.447,416.447 456.447,396.447" transform="rotate(0 0 0)" fill="yellow" stroke="black" stroke-width="0.5" />
<polygon points="456.447,396.447 456.447,416.447 516.447,416.447 516.447,396.447" transform="rotate(0 0 0)" fill="yellow" stroke="black" stroke-width="0.5" />
<polygon points="516.447,396.447 516.447,416.447 576.447,416.447 576.447,396.447" transform="rotate(0 0 0)" fill="yellow" stroke="black" stroke-width="0.5" />
<polygon points="576.447,396.447 576.447,416.447 636.447,416.447 636.447,396.447" transform="rotate(0 0 0)" fill="yellow" stroke="black" stroke-width="0.5" />
<polygon points="636.447,396.447 636.447,416.447 696.447,416.447 696.447,396.447" transform="rotate(0 0 0)" fill="yellow" stroke="black" stroke-width="0.5" />
<polygon points="696.447,396.447 696.447,416.447 756.447,416.447 756.447,396.447" transform="rotate(0 0 0)" fill="yellow" stroke="black" stroke-width="0.5" />
<polygon points="756.447,396.447 756.447,416.447 816.447,416.447 816.447,396.447" transform="rotate(0 0 0)" fill="yellow" stroke="black" stroke-width="0.5" />
<polygon points="156.447,416.447 156.447,436.447 216.447,436.447 216.447,416.447" transform="rotate(0 0 0)" fill="yellow" stroke="black" stroke-width="0.5" />
<polygon points="216.447,416.447 216.447,436.447 276.447,436.447 276.447,416.447" transform="rotate(0 0 0)" fill="yellow" stroke="black" stroke-width="0.5" />
<polygon points="276.447,416.447 276.447,436.447 336.447,436.447 336.447,416.447" transform="rotate(0 0 0)" fill="yellow" stroke="black" stroke-width="0.5" />
<polygon points="336.447,416.447 336.447,436.447 396.447,436.447 396.447,416.447" transform="rotate(0 0 0)" fill="yellow" stroke="black" stroke-width="0.5" />
<polygon points="396.447,416.447 396.447,436.447 456.447,436.447 456.447,416.447" transform="rotate(0 0 0)" fill="yellow" stroke="black" stroke-width="0.5" />
<polygon points="456.447,416.447 456.447,436.447 516.447,436.447 516.447,416.447" transform="rotate(0 0 0)" fill="yellow" stroke="black" stroke-width="0.5" />
<polygon points="516.447,416.447 516.447,436.447 576.447,436.447 576.447,416.447" transform="rotate(0 0 0)" fill="yellow" stroke="black" stroke-width="0.5" />
<polygon points="576.447,416.447 576.447,436.447 636.447,436.447 636.447,416.447" transform="rotate(0 0 0)" fill="yellow" stroke="black" stroke-width="0.5" />
<polygon points="636.447,416.447 636.447,436.447 696.447,436.447 696.447,416.447" transform="rotate(0 0 0)" fill="yellow" stroke="black" stroke-width="0.5" />
<polygon points="696.447,416.447 696.447,436.447 756.447,436.447 756.447,416.447" transform="rotate(0 0 0)" fill="yellow" stroke="black" stroke-width="0.5" />
<polygon points="756.447,416.447 756.447,436.447 816.447,436.447 816.447,416.447" transform="rotate(0 0 0)" fill="yellow" stroke="black" stroke-width="0.5" />
<polygon points="156.447,436.447 156.447,456.447 216.447,456.447 216.447,436.447" transform="rotate(0 0 0)" fill="yellow" stroke="black" stroke-width="0.5" />
<polygon points="216.447,436.447 216.447,456.447 276.447,456.447 276.447,436.447" transform="rotate(0 0 0)" fill="yellow" stroke="black" stroke-width="0.5" />
<polygon points="276.447,436.447 276.447,456.447 336.447,456.447 336.447,436.447" transform="rotate(0 0 0)" fill="yellow" stroke="black" stroke-width="0.5" />
<polygon points="336.447,436.447 336.447,456.447 396.447,456.447 396.447,436.447" transform="rotate(0 0 0)" fill="yellow" stroke="black" stroke-width="0.5" />
<polygon points="396.447,436.447 396.447,456.447 456.447,456.447 456.447,436.447" transform="rotate(0 0 0)" fill="yellow" stroke="black" stroke-width="0.5" />
<polygon points="456.447,436.447 456.447,456.447 516.447,456.447 516.447,436.447" transform="rotate(0 0 0)" fill="yellow" stroke="black" stroke-width="0.5" />
<polygon points="516.447,436.447 516.447,456.447 576.447,456.447 576.447,436.447" transform="rotate(0 0 0)" fill="yellow" stroke="black" stroke-width="0.5" />
<polygon points="576.447,436.447 576.447,456.447 636.447,456.447 636.447,436.447" transform="rotate(0 0 0)" fill="yellow" stroke="black" stroke-width="0.5" />
<polygon points="636.447,436.447 636.447,456.447 696.447,456.447 696.447,436.447" transform="rotate(0 0 0)" fill="yellow" stroke="black" stroke-width="0.5" />
<polygon points="696.447,436.447 696.447,456.447 756.447,456.447 756.447,436.447" transform="rotate(0 0 0)" fill="yellow" stroke="black" stroke-width="0.5" />
<polygon points="756.447,436.447 756.447,456.447 816.447,456.447 816.447,436.447" transform="rotate(0 0 0)" fill="yellow" stroke="black" stroke-width="0.5" />
<polygon points="156.447,456.447 156.447,476.447 216.447,476.447 216.447,456.447" transform="rotate(0 0 0)" fill="yellow" stroke="black" stroke-width="0.5" />
<polygon points="216.447,456.447 216.447,476.447 276.447,476.447 276.447,456.447" transform="rotate(0 0 0)" fill="yellow" stroke="black" stroke-width="0.5" />
<polygon points="276.447,456.447 276.447,476.447 336.447,476.447 336.447,456.447" transform="rotate(0 0 0)" fill="yellow" stroke="black" stroke-width="0.5" />
<polygon points="336.447,456.447 336.447,476.447 396.447,476.447 396.447,456.447" transform="rotate(0 0 0)" fill="yellow" stroke="black" stroke-width="0.5" />
<polygon points="396.447,456.447 396.447,476.447 456.447,476.447 456.447,456.447" transform="rotate(0 0 0)" fill="yellow" stroke="black" stroke-width="0.5" />
<polygon points="456.447,456.447 456.447,476.447 516.447,476.447 516.447,456.447" transform="rotate(0 0 0)" fill="yellow" stroke="black" stroke-width="0.5" />
<polygon points="516.447,456.447 516.447,476.447 576.447,476.447 576.447,456.447" transform="rotate(0 0 0)" fill="yellow" stroke="black" stroke-width="0.5" />
<polygon points="576.447,456.447 576.447,476.447 636.447,476.447 636.447,456.447" transform="rotate(0 0 0)" fill="yellow" stroke="black" stroke-width="0.5" />
<polygon points="636.447,456.447 636.447,476.447 696.447,476.447 696.447,456.447" transform="rotate(0 0 0)" fill="yellow" stroke="black" stroke-width="0.5" />
<polygon points="696.447,456.447 696.447,476.447 756.447,476.447 756.447,456.447" transform="rotate(0 0 0)" fill="yellow" stroke="black" stroke-width="0.5" />
<polygon points="756.447,456.447 756.447,476.447 816.447,476.447 816.447,456.447" transform="rotate(0 0 0)" fill="yellow" stroke="black" stroke-width="0.5" />
<polygon points="156.447,476.447 156.447,496.447 216.447,496.447 216.447,476.447" transform="rotate(0 0 0)" fill="yellow" stroke="black" stroke-width="0.5" />
<polygon points="216.447,476.447 216.447,496.447 276.447,496.447 276.447,476.447" transform="rotate(0 0 0)" fill="yellow" stroke="black" stroke-width="0.5" />
<polygon points="276.447,476.447 276.447,496.447 336.447,496.447 336.447,476.447" transform="rotate(0 0 0)" fill="yellow" stroke="black" stroke-width="0.5" />
<polygon points="336.447,476.447 336.447,496.447 396.447,496.447 396.447,476.447" transform="rotate(0 0 0)" fill="yellow" stroke="black" stroke-width="0.5" />
<polygon points="396.447,476.447 396.447,496.447 456.447,496.447 456.447,476.447" transform="rotate(0 0 0)" fill="yellow" stroke="black" stroke-width="0.5" />
<polygon points="456.447,476.447 456.447,496.447 516.447,496.447 516.447,476.447" transform="rotate(0 0 0)" fill="yellow" stroke="black" stroke-width="0.5" />
<polygon points="516.447,476.447 516.447,496.447 576.447,496.447 576.447,476.447" transform="rotate(0 0 0)" fill="yellow" stroke="black" stroke-width="0.5" />
<polygon points="576.447,476.447 576.447,496.447 636.447,496.447 636.447,476.447" transform="rotate(0 0 0)" fill="yellow" stroke="black" stroke-width="0.5" />
<polygon points="636.447,476.447 636.447,496.447 696.447,496.447 696.447,476.447" transform="rotate(0 0 0)" fill="yellow" stroke="black" stroke-width="0.5" />
<polygon points="696.447,476.447 696.447,496.447 756.447,496.447 756.447,476.447" transform="rotate(0 0 0)" fill="yellow" stroke="black" stroke-width="0.5" />
<polygon points="756.447,476.447 756.447,496.447 816.447,496.447 816.447,476.447" transform="rotate(0 0 0)" fill="yellow" stroke="black" stroke-width="0.5" />
<polygon points="156.447,496.447 156.447,516.447 216.447,516.447 216.447,496.447" transform="rotate(0 0 0)" fill="yellow" stroke="black" stroke-width="0.5" />
<polygon points="216.447,496.447 216.447,516.447 276.447,516.447 276.447,496.447" transform="rotate(0 0 0)" fill="yellow" stroke="black" stroke-width="0.5" />
<polygon points="276.447,496.447 276.447,516.447 336.447,516.447 336.447,496.447" transform="rotate(0 0 0)" fill="yellow" stroke="black" stroke-width="0.5" />
<polygon points="336.447,496.447 336.447,516.447 396.447,516.447 396.447,496.447" transform="rotate(0 0 0)" fill="yellow" stroke="black" stroke-width="0.5" />
<polygon points="396.447,496.447 396.447,516.447 456.447,516.447 456.447,496.447" transform="rotate(0 0 0)" fill="yellow" stroke="black" stroke-width="0.5" />
<polygon points="456.447,496.447 456.447,516.447 516.447,516.447 516.447,496.447" transform="rotate(0 0 0)" fill="yellow" stroke="black" stroke-width="0.5" />
<polygon points="516.447,496.447 516.447,516.447 576.447,516.447 576.447,496.447" transform="rotate(0 0 0)" fill="yellow" stroke="black" stroke-width="0.5" />
<polygon points="576.447,496.447 576.447,516.447 636.447,516.447 636.447,496.447" transform="rotate(0 0 0)" fill="yellow" stroke="black" stroke-width="0.5" />
<polygon points="636.447,496.447 636.447,516.447 696.447,516.447 696.447,496.447" transform="rotate(0 0 0)" fill="yellow" stroke="black" stroke-width="0.5" />
<polygon points="696.447,496.447 696.447,516.447 756.447,516.447 756.447,496.447" transform="rotate(0 0 0)" fill="yellow" stroke="black" stroke-width="0.5" />
<polygon points="756.447,496.447 756.447,516.447 816.447,516.447 816.447,496.447" transform="rotate(0 0 0)" fill="yellow" stroke="black" stroke-width="0.5" />
<polygon points="156.447,516.447 156.447,536.447 216.447,536.447 216.447,516.447" transform="rotate(0 0 0)" fill="yellow" stroke="black" stroke-width="0.5" />
<polygon points="216.447,516.447 216.447,536.447 276.447,536.447 276.447,516.447" transform="rotate(0 0 0)" fill="yellow" stroke="black" stroke-width="0.5" />
<polygon points="276.447,516.447 276.447,536.447 336.447,536.447 336.447,516.447" transform="rotate(0 0 0)" fill="yellow" stroke="black" stroke-width="0.5" />
<polygon points="336.447,516.447 336.447,536.447 396.447,536.447 396.447,516.447" transform="rotate(0 0 0)" fill="yellow" stroke="black" stroke-width="0.5" />
<polygon points="396.447,516.447 396.447,536.447 456.447,536.447 456.447,516.447" transform="rotate(0 0 0)" fill="yellow" stroke="black" stroke-width="0.5" />
<polygon points="456.447,516.447 456.447,536.447 516.447,536.447 516.447,516.447" transform="rotate(0 0 0)" fill="yellow" stroke="black" stroke-width="0.5" />
<polygon points="516.447,516.447 516.447,536.447 576.447,536.447 576.447,516.447" transform="rotate(0 0 0)" fill="yellow" stroke="black" stroke-width="0.5" />
<polygon points="576.447,516.447 576.447,536.447 636.447,536.447 636.447,516.447" transform="rotate(0 0 0)" fill="yellow" stroke="black" stroke-width="0.5" />
<polygon points="636.447,516.447 636.447,536.447 696.447,536.447 696.447,516.447" transform="rotate(0 0 0)" fill="yellow" stroke="black" stroke-width="0.5" />
<polygon points="696.447,516.447 696.447,536.447 756.447,536.447 756.447,516.447" transform="rotate(0 0 0)" fill="yellow" stroke="black" stroke-width="0.5" />
<polygon points="756.447,516.447 756.447,536.447 816.447,536.447 816.447,516.447" transform="rotate(0 0 0)" fill="yellow" stroke="black" stroke-width="0.5" />
<polygon points="156.447,536.447 156.447,556.447 216.447,556.447 216.447,536.447" transform="rotate(0 0 0)" fill="yellow" stroke="black" stroke-width="0.5" />
<polygon points="216.447,536.447 216.447,556.447 276.447,556.447 276.447,536.447" transform="rotate(0 0 0)" fill="yellow" stroke="black" stroke-width="0.5" />
<polygon points="276.447,536.447 276.447,556.447 336.447,556.447 336.447,536.447" transform="rotate(0 0 0)" fill="yellow" stroke="black" stroke-width="0.5" />
<polygon points="336.447,536.447 336.447,556.447 396.447,556.447 396.447,536.447" transform="rotate(0 0 0)" fill="yellow" stroke="black" stroke-width="0.5" />
<polygon points="396.447,536.447 396.447,556.447 456.447,556.447 456.447,536.447" transform="rotate(0 0 0)" fill="yellow" stroke="black" stroke-width="0.5" />
<polygon points="456.447,536.447 456.447,556.447 516.447,556.447 516.447,536.447" transform="rotate(0 0 0)" fill="yellow" stroke="black" stroke-width="0.5" />
<polygon points="516.447,536.447 516.447,556.447 576.447,556.447 576.447,536.447" transform="rotate(0 0 0)" fill="yellow" stroke="black" stroke-width="0.5" />
<polygon points="576.447,536.447 576.447,556.447 636.447,556.447 636.447,536.447" transform="rotate(0 0 0)" fill="yellow" stroke="black" stroke-width="0.5" />
<polygon points="636.447,536.447 636.447,556.447 696.447,556.447 696.447,536.447" transform="rotate(0 0 0)" fill="yellow" stroke="black" stroke-width="0.5" />
<polygon points="696.447,536.447 696.447,556.447 756.447,556.447 756.447,536.447" transform="rotate(0 0 0)" fill="yellow" stroke="black" stroke-width="0.5" />
<polygon points="756.447,536.447 756.447,556.447 816.447,556.447 816.447,536.447" transform="rotate(0 0 0)" fill="yellow" stroke="black" stroke-width="0.5" />
<polygon points="156.447,556.447 156.447,576.447 216.447,576.447 216.447,556.447" transform="rotate(0 0 0)" fill="yellow" stroke="black" stroke-width="0.5" />
<polygon points="216.447,556.447 216.447,576.447 276.447,576.447 276.447,556.447" transform="rotate(0 0 0)" fill="yellow" stroke="black" stroke-width="0.5" />
<polygon points="276.447,556.447 276.447,576.447 336.447,576.447 336.447,556.447" transform="rotate(0 0 0)" fill="yellow" stroke="black" stroke-width="0.5" />
<polygon points="336.447,556.447 336.447,576.447 396.447,576.447 396.447,556.447" transform="rotate(0 0 0)" fill="yellow" stroke="black" stroke-width="0.5" />
<polygon points="396.447,556.447 396.447,576.447 456.447,576.447 456.447,556.447" transform="rotate(0 0 0)" fill="yellow" stroke="black" stroke-width="0.5" />
<polygon points="456.447,556.447 456.447,576.447 516.447,576.447 516.447,556.447" transform="rotate(0 0 0)" fill="yellow" stroke="black" stroke-width="0.5" />
<polygon points="516.447,556.447 516.447,576.447 576.447,576.447 576.447,556.447" transform="rotate(0 0 0)" fill="yellow" stroke="black" stroke-width="0.5" />
<polygon points="576.447,556.447 576.447,576.447 636.447,576.447 636.447,556.447" transform="rotate(0 0 0)" fill="yellow" stroke="black" stroke-width="0.5" />
<polygon points="636.447,556.447 636.447,576.447 696.447,576.447 696.447,556.447" transform="rotate(0 0 0)" fill="yellow" stroke="black" stroke-width="0.5" />
<polygon points="696.447,556.447 696.447,576.447 756.447,576.447 756.447,556.447" transform="rotate(0 0 0)" fill="yellow" stroke="black" stroke-width="0.5" />
<polygon points="756.447,556.447 756.447,576.447 816.447,576.447 816.447,556.447" transform="rotate(0 0 0)" fill="yellow" stroke="black" stroke-width="0.5" />
<polygon points="156.447,576.447 156.447,596.447 216.447,596.447 216.447,576.447" transform="rotate(0 0 0)" fill="yellow" stroke="black" stroke-width="0.5" />
<polygon points="216.447,576.447 216.447,596.447 276.447,596.447 276.447,576.447" transform="rotate(0 0 0)" fill="yellow" stroke="black" stroke-width="0.5" />
<polygon points="276.447,576.447 276.447,596.447 336.447,596.447 336.447,576.447" transform="rotate(0 0 0)" fill="yellow" stroke="black" stroke-width="0.5" />
<polygon points="336.447,576.447 336.447,596.447 396.447,596.447 396.447,576.447" transform="rotate(0 0 0)" fill="yellow" stroke="black" stroke-width="0.5" />
<polygon points="396.447,576.447 396.447,596.447 456.447,596.447 456.447,576.447" transform="rotate(0 0 0)" fill="yellow" stroke="black" stroke-width="0.5" />
<polygon points="456.447,576.447 456.447,596.447 516.447,596.447 516.447,576.447" transform="rotate(0 0 0)" fill="yellow" stroke="black" stroke-width="0.5" />
<polygon points="516.447,576.447 516.447,596.447 576.447,596.447 576.447,576.447" transform="rotate(0 0 0)" fill="yellow" stroke="black" stroke-width="0.5" />
<polygon points="576.447,576.447 576.447,596.447 636.447,596.447 636.447,576.447" transform="rotate(0 0 0)" fill="yellow" stroke="black" stroke-width="0.5" />
<polygon points="636.447,576.447 636.447,596.447 696.447,596.447 696.447,576.447" transform="rotate(0 0 0)" fill="yellow" stroke="black" stroke-width="0.5" />
<polygon points="696.447,576.447 696.447,596.447 756.447,596.447 756.447,576.447" transform="rotate(0 0 0)" fill="yellow" stroke="black" stroke-width="0.5" />
<polygon points="756.447,576.447 756.447,596.447 816.447,596.447 816.447,576.447" transform="rotate(0 0 0)" fill="yellow" stroke="black" stroke-width="0.5" />
<polygon points="156.447,596.447 156.447,616.447 216.447,616.447 216.447,596.447" transform="rotate(0 0 0)" fill="yellow" stroke="black" stroke-width="0.5" />
<polygon points="216.447,596.447 216.447,616.447 276.447,616.447 276.447,596.447" transform="rotate(0 0 0)" fill="yellow" stroke="black" stroke-width="0.5" />
<polygon points="276.447,596.447 276.447,616.447 336.447,616.447 336.447,596.447" transform="rotate(0 0 0)" fill="yellow" stroke="black" stroke-width="0.5" />
<polygon points="336.447,596.447 336.447,616.447 396.447,616.447 396.447,596.447" transform="rotate(0 0 0)" fill="yellow" stroke="black" stroke-width="0.5" />
<polygon points="396.447,596.447 396.447,616.447 456.447,616.447 456.447,596.447" transform="rotate(0 0 0)" fill="yellow" stroke="black" stroke-width="0.5" />
<polygon points="456.447,596.447 456.447,616.447 516.447,616.447 516.447,596.447" transform="rotate(0 0 0)" fill="yellow" stroke="black" stroke-width="0.5" />
<polygon points="516.447,596.447 516.447,616.447 576.447,616.447 576.447,596.447" transform="rotate(0 0 0)" fill="yellow" stroke="black" stroke-width="0.5" />
<polygon points="576.447,596.447 576.447,616.447 636.447,616.447 636.447,596.447" transform="rotate(0 0 0)" fill="yellow" stroke="black" stroke-width="0.5" />
<polygon points="636.447,596.447 636.447,616.447 696.447,616.447 696.447,596.447" transform="rotate(0 0 0)" fill="yellow" stroke="black" stroke-width="0.5" />
<polygon points="696.447,596.447 696.447,616.447 756.447,616.447 756.447,596.447" transform="rotate(0 0 0)" fill="yellow" stroke="black" stroke-width="0.5" />
<polygon points="756.447,596.447 756.447,616.447 816.447,616.447 816.447,596.447" transform="rotate(0 0 0)" fill="yellow" stroke="black" stroke-width="0.5" />
<polygon points="156.447,616.447 156.447,636.447 216.447,636.447 216.447,616.447" transform="rotate(0 0 0)" fill="yellow" stroke="black" stroke-width="0.5" />
<polygon points="216.447,616.447 216.447,636.447 276.447,636.447 276.447,616.447" transform="rotate(0 0 0)" fill="yellow" stroke="black" stroke-width="0.5" />
<polygon points="276.447,616.447 276.447,636.447 336.447,636.447 336.447,616.447" transform="rotate(0 0 0)" fill="yellow" stroke="black" stroke-width="0.5" />
<polygon points="336.447,616.447 336.447,636.447 396.447,636.447 396.447,616.447" transform="rotate(0 0 0)" fill="yellow" stroke="black" stroke-width="0.5" />
<polygon points="396.447,616.447 396.447,636.447 456.447,636.447 456.447,616.447" transform="rotate(0 0 0)" fill="yellow" stroke="black" stroke-width="0.5" />
<polygon points="456.447,616.447 456.447,636.447 516.447,636.447 516.447,616.447" transform="rotate(0 0 0)" fill="yellow" stroke="black" stroke-width="0.5" />
<polygon points="516.447,616.447 516.447,636.447 576.447,636.447 576.447,616.447" transform="rotate(0 0 0)" fill="yellow" stroke="black" stroke-width="0.5" />
<polygon points="576.447,616.447 576.447,636.447 636.447,636.447 636.447,616.447" transform="rotate(0 0 0)" fill="yellow" stroke="black" stroke-width="0.5" />
<polygon points="636.447,616.447 636.447,636.447 696.447,636.447 696.447,616.447" transform="rotate(0 0 0)" fill="yellow" stroke="black" stroke-width="0.5" />
<polygon points="696.447,616.447 696.447,636.447 756.447,636.447 756.447,616.447" transform="rotate(0 0 0)" fill="yellow" stroke="black" stroke-width="0.5" />
<polygon points="756.447,616.447 756.447,636.447 816.447,636.447 816.447,616.447" transform="rotate(0 0 0)" fill="yellow" stroke="black" stroke-width="0.5" />
<polygon points="156.447,636.447 156.447,656.447 216.447,656.447 216.447,636.447" transform="rotate(0 0 0)" fill="yellow" stroke="black" stroke-width="0.5" />
<polygon points="216.447,636.447 216.447,656.447 276.447,656.447 276.447,636.447" transform="rotate(0 0 0)" fill="yellow" stroke="black" stroke-width="0.5" />
<polygon points="276.447,636.447 276.447,656.447 336.447,656.447 336.447,636.447" transform="rotate(0 0 0)" fill="yellow" stroke="black" stroke-width="0.5" />
<polygon points="336.447,636.447 336.447,656.447 396.447,656.447 396.447,636.447" transform="rotate(0 0 0)" fill="yellow" stroke="black" stroke-width="0.5" />
<polygon points="396.447,636.447 396.447,656.447 456.447,656.447 456.447,636.447" transform="rotate(0 0 0)" fill="yellow" stroke="black" stroke-width="0.5" />
<polygon points="456.447,636.447 456.447,656.447 516.447,656.447 516.447,636.447" transform="rotate(0 0 0)" fill="yellow" stroke="black" stroke-width="0.5" />
<polygon points="516.447,636.447 516.447,656.447 576.447,656.447 576.447,636.447" transform="rotate(0 0 0)" fill="yellow" stroke="black" stroke-width="0.5" />
<polygon points="576.447,636.447 576.447,656.447 636.447,656.447 636.447,636.447" transform="rotate(0 0 0)" fill="yellow" stroke="black" stroke-width="0.5" />
<polygon points="636.447,636.447 636.447,656.447 696.447,656.447 696.447,636.447" transform="rotate(0 0 0)" fill="yellow" stroke="black" stroke-width="0.5" />
<polygon points="696.447,636.447 696.447,656.447 756.447,656.447 756.447,636.447" transform="rotate(0 0 0)" fill="yellow" stroke="black" stroke-width="0.5" />
<polygon points="756.447,636.447 756.447,656.447 816.447,656.447 816.447,636.447" transform="rotate(0 0 0)" fill="yellow" stroke="black" stroke-width="0.5" />
<polygon points="156.447,656.447 156.447,676.447 216.447,676.447 216.447,656.447" transform="rotate(0 0 0)" fill="yellow" stroke="black" stroke-width="0.5" />
<polygon points="216.447,656.447 216.447,676.447 276.447,676.447 276.447,656.447" transform="rotate(0 0 0)" fill="yellow" stroke="black" stroke-width="0.5" />
<polygon points="276.447,656.447 276.447,676.447 336.447,676.447 336.447,656.447" transform="rotate(0 0 0)" fill="yellow" stroke="black" stroke-width="0.5" />
<polygon points="336.447,656.447 336.447,676.447 396.447,676.447 396.447,656.447" transform="rotate(0 0 0)" fill="yellow" stroke="black" stroke-width="0.5" />
<polygon points="396.447,656.447 396.447,676.447 456.447,676.447 456.447,656.447" transform="rotate(0 0 0)" fill="yellow" stroke="black" stroke-width="0.5" />
<polygon points="456.447,656.447 456.447,676.447 516.447,676.447 516.447,656.447" transform="rotate(0 0 0)" fill="yellow" stroke="black" stroke-width="0.5" />
<polygon points="516.447,656.447 516.447,676.447 576.447,676.447 576.447,656.447" transform="rotate(0 0 0)" fill="yellow" stroke="black" stroke-width="0.5" />
<polygon points="576.447,656.447 576.447,676.447 636.447,676.447 636.447,656.447" transform="rotate(0 0 0)" fill="yellow" stroke="black" stroke-width="0.5" />
<polygon points="636.447,656.447 636.447,676.447 696.447,676.447 696.447,656.447" transform="rotate(0 0 0)" fill="yellow" stroke="black" stroke-width="0.5" />
<polygon points="696.447,656.447 696.447,676.447 756.447,676.447 756.447,656.447" transform="rotate(0 0 0)" fill="yellow" stroke="black" stroke-width="0.5" />
<polygon points="756.447,656.447 756.447,676.447 816.447,676.447 816.447,656.447" transform="rotate(0 0 0)" fill="yellow" stroke="black" stroke-width="0.5" />
<polygon points="156.447,676.447 156.447,696.447 216.447,696.447 216.447,676.447" transform="rotate(0 0 0)" fill="yellow" stroke="black" stroke-width="0.5" />
<polygon points="216.447,676.447 216.447,696.447 276.447,696.447 276.447,676.447" transform="rotate(0 0 0)" fill="yellow" stroke="black" stroke-width="0.5" />
<polygon points="276.447,676.447 276.447,696.447 336.447,696.447 336.447,676.447" transform="rotate(0 0 0)" fill="yellow" stroke="black" stroke-width="0.5" />
<polygon points="336.447,676.447 336.447,696.447 396.447,696.447 396.447,676.447" transform="rotate(0 0 0)" fill="yellow" stroke="black" stroke-width="0.5" />
<polygon points="396.447,676.447 396.447,696.447 456.447,696.447 456.447,676.447" transform="rotate(0 0 0)" fill="yellow" stroke="black" stroke-width="0.5" />
<polygon points="456.447,676.447 456.447,696.447 516.447,696.447 516.447,676.447" transform="rotate(0 0 0)" fill="yellow" stroke="black" stroke-width="0.5" />
<polygon points="516.447,676.447 516.447,696.447 576.447,696.447 576.447,676.447" transform="rotate(0 0 0)" fill="yellow" stroke="black" stroke-width="0.5" />
<polygon points="576.447,676.447 576.447,696.447 636.447,696.447 636.447,676.447" transform="rotate(0 0 0)" fill="yellow" stroke="black" stroke-width="0.5" />
<polygon points="636.447,676.447 636.447,696.447 696.447,696.447 696.447,676.447" transform="rotate(0 0 0)" fill="yellow" stroke="black" stroke-width="0.5" />
<polygon points="696.447,676.447 696.447,696.447 756.447,696.447 756.447,676.447" transform="rotate(0 0 0)" fill="yellow" stroke="black" stroke-width="0.5" />
<polygon points="756.447,676.447 756.447,696.447 816.447,696.447 816.447,676.447" transform="rotate(0 0 0)" fill="yellow" stroke="black" stroke-width="0.5" />
<polygon points="156.447,696.447 156.447,716.447 216.447,716.447 216.447,696.447" transform="rotate(0 0 0)" fill="yellow" stroke="black" stroke-width="0.5" />
<polygon points="216.447,696.447 216.447,716.447 276.447,716.447 276.447,696.447" transform="rotate(0 0 0)" fill="yellow" stroke="black" stroke-width="0.5" />
<polygon points="276.447,696.447 276.447,716.447 336.447,716.447 336.447,696.447" transform="rotate(0 0 0)" fill="yellow" stroke="black" stroke-width="0.5" />
<polygon points="336.447,696.447 336.447,716.447 396.447,716.447 396.447,696.447" transform="rotate(0 0 0)" fill="yellow" stroke="black" stroke-width="0.5" />
<polygon points="396.447,696.447 396.447,716.447 456.447,716.447 456.447,696.447" transform="rotate(0 0 0)" fill="yellow" stroke="black" stroke-width="0.5" />
<polygon points="456.447,696.447 456.447,716.447 516.447,716.447 516.447,696.447" transform="rotate(0 0 0)" fill="yellow" stroke="black" stroke-width="0.5" />
<polygon points="516.447,696.447 516.447,716.447 576.447,716.447 576.447,696.447" transform="rotate(0 0 0)" fill="yellow" stroke="black" stroke-width="0.5" />
<polygon points="576.447,696.447 576.447,716.447 636.447,716.447 636.447,696.447" transform="rotate(0 0 0)" fill="yellow" stroke="black" stroke-width="0.5" />
<polygon points="636.447,696.447 636.447,716.447 696.447,716.447 696.447,696.447" transform="rotate(0 0 0)" fill="yellow" stroke="black" stroke-width="0.5" />
<polygon points="696.447,696.447 696.447,716.447 756.447,716.447 756.447,696.447" transform="rotate(0 0 0)" fill="yellow" stroke="black" stroke-width="0.5" />
<polygon points="756.447,696.447 756.447,716.447 816.447,716.447 816.447,696.447" transform="rotate(0 0 0)" fill="yellow" stroke="black" stroke-width="0.5" />
<polygon points="156.447,716.447 156.447,736.447 216.447,736.447 216.447,716.447" transform="rotate(0 0 0)" fill="yellow" stroke="black" stroke-width="0.5" />
<polygon points="216.447,716.447 216.447,736.447 276.447,736.447 276.447,716.447" transform="rotate(0 0 0)" fill="yellow" stroke="black" stroke-width="0.5" />
<polygon points="276.447,716.447 276.447,736.447 336.447,736.447 336.447,716.447" transform="rotate(0 0 0)" fill="yellow" stroke="black" stroke-width="0.5" />
<polygon points="336.447,716.447 336.447,736.447 396.447,736.447 396.447,716.447" transform="rotate(0 0 0)" fill="yellow" stroke="black" stroke-width="0.5" />
<polygon points="396.447,716.447 396.447,736.447 456.447,736.447 456.447,716.447" transform="rotate(0 0 0)" fill="yellow" stroke="black" stroke-width="0.5" />
<polygon points="456.447,716.447 456.447,736.447 516.447,736.447 516.447,716.447" transform="rotate(0 0 0)" fill="yellow" stroke="black" stroke-width="0.5" />
<polygon points="516.447,716.447 516.447,736.447 576.447,736.447 576.447,716.447" transform="rotate(0 0 0)" fill="yellow" stroke="black" stroke-width="0.5" />
<polygon points="576.447,716.447 576.447,736.447 636.447,736.447 636.447,716.447" transform="rotate(0 0 0)" fill="yellow" stroke="black" stroke-width="0.5" />
<polygon points="636.447,716.447 636.447,736.447 696.447,736.447 696.447,716.447" transform="rotate(0 0 0)" fill="yellow" stroke="black" stroke-width="0.5" />
<polygon points="696.447,716.447 696.447,736.447 756.447,736.447 756.447,716.447" transform="rotate(0 0 0)" fill="yellow" stroke="black" stroke-width="0.5" />
<polygon points="756.447,716.447 756.447,736.447 816.447,736.447 816.447,716.447" transform="rotate(0 0 0)" fill="yellow" stroke="black" stroke-width="0.5" />
<polygon points="156.447,736.447 156.447,756.447 216.447,756.447 216.447,736.447" transform="rotate(0 0 0)" fill="yellow" stroke="black" stroke-width="0.5" />
<polygon points="216.447,736.447 216.447,756.447 276.447,756.447 276.447,736.447" transform="rotate(0 0 0)" fill="yellow" stroke="black" stroke-width="0.5" />
<polygon points="276.447,736.447 276.447,756.447 336.447,756.447 336.447,736.447" transform="rotate(0 0 0)" fill="yellow" stroke="black" stroke-width="0.5" />
<polygon points="336.447,736.447 336.447,756.447 396.447,756.447 396.447,736.447" transform="rotate(0 0 0)" fill="yellow" stroke="black" stroke-width="0.5" />
<polygon points="396.447,736.447 396.447,756.447 456.447,756.447 456.447,736.447" transform="rotate(0 0 0)" fill="yellow" stroke="black" stroke-width="0.5" />
<polygon points="456.447,736.447 456.447,756.447 516.447,756.447 516.447,736.447" transform="rotate(0 0 0)" fill="yellow" stroke="black" stroke-width="0.5" />
<polygon points="516.447,736.447 516.447,756.447 576.447,756.447 576.447,736.447" transform="rotate(0 0 0)" fill="yellow" stroke="black" stroke-width="0.5" />
<polygon points="576.447,736.447 576.447,756.447 636.447,756.447 636.447,736.447" transform="rotate(0 0 0)" fill="yellow" stroke="black" stroke-width="0.5" />
<polygon points="636.447,736.447 636.447,756.447 696.447,756.447 696.447,736.447" transform="rotate(0 0 0)" fill="yellow" stroke="black" stroke-width="0.5" />
<polygon points="696.447,736.447 696.447,756.447 756.447,756.447 756.447,736.447" transform="rotate(0 0 0)" fill="yellow" stroke="black" stroke-width="0.5" />
<polygon points="756.447,736.447 756.447,756.447 816.447,756.447 816.447,736.447" transform="rotate(0 0 0)" fill="yellow" stroke="black" stroke-width="0.5" />
<polygon points="156.447,756.447 156.447,776.447 216.447,776.447 216.447,756.447" transform="rotate(0 0 0)" fill="yellow" stroke="black" stroke-width="0.5" />
<polygon points="216.447,756.447 216.447,776.447 276.447,776.447 276.447,756.447" transform="rotate(0 0 0)" fill="yellow" stroke="black" stroke-width="0.5" />
<polygon points="276.447,756.447 276.447,776.447 336.447,776.447 336.447,756.447" transform="rotate(0 0 0)" fill="yellow" stroke="black" stroke-width="0.5" />
<polygon points="336.447,756.447 336.447,776.447 396.447,776.447 396.447,756.447" transform="rotate(0 0 0)" fill="yellow" stroke="black" stroke-width="0.5" />
<polygon points="396.447,756.447 396.447,776.447 456.447,776.447 456.447,756.447" transform="rotate(0 0 0)" fill="yellow" stroke="black" stroke-width="0.5" />
<polygon points="456.447,756.447 456.447,776.447 516.447,776.447 516.447,756.447" transform="rotate(0 0 0)" fill="yellow" stroke="black" stroke-width="0.5" />
<polygon points="516.447,756.447 516.447,776.447 576.447,776.447 576.447,756.447" transform="rotate(0 0 0)" fill="yellow" stroke="black" stroke-width="0.5" />
<polygon points="576.447,756.447 576.447,776.447 636.447,776.447 636.447,756.447" transform="rotate(0 0 0)" fill="yellow" stroke="black" stroke-width="0.5" />
<polygon points="636.447,756.447 636.447,776.447 696.447,776.447 696.447,756.447" transform="rotate(0 0 0)" fill="yellow" stroke="black" stroke-width="0.5" />
<polygon points="696.447,756.447 696.447,776.447 756.447,776.447 756.447,756.447" transform="rotate(0 0 0)" fill="yellow" stroke="black" stroke-width="0.5" />
<polygon points="756.447,756.447 756.447,776.447 816.447,776.447 816.447,756.447" transform="rotate(0 0 0)" fill="yellow" stroke="black" stroke-width="0.5" />
<polygon points="156.447,776.447 156.447,796.447 216.447,796.447 216.447,776.447" transform="rotate(0 0 0)" fill="yellow" stroke="black" stroke-width="0.5" />
<polygon points="216.447,776.447 216.447,796.447 276.447,796.447 276.447,776.447" transform="rotate(0 0 0)" fill="yellow" stroke="black" stroke-width="0.5" />
<polygon points="276.447,776.447 276.447,796.447 336.447,796.447 336.447,776.447" transform="rotate(0 0 0)" fill="yellow" stroke="black" stroke-width="0.5" />
<polygon points="336.447,776.447 336.447,796.447 396.447,796.447 396.447,776.447" transform="rotate(0 0 0)" fill="yellow" stroke="black" stroke-width="0.5" />
<polygon points="396.447,776.447 396.447,796.447 456.447,796.447 456.447,776.447" transform="rotate(0 0 0)" fill="yellow" stroke="black" stroke-width="0.5" />
<polygon points="456.447,776.447 456.447,796.447 516.447,796.447 516.447,776.447" transform="rotate(0 0 0)" fill="yellow" stroke="black" stroke-width="0.5" />
<polygon points="516.447,776.447 516.447,796.447 576.447,796.447 576.447,776.447" transform="rotate(0 0 0)" fill="yellow" stroke="black" stroke-width="0.5" />
<polygon points="576.447,776.447 576.447,796.447 636.447,796.447 636.447,776.447" transform="rotate(0 0 0)" fill="yellow" stroke="black" stroke-width="0.5" />
<polygon points="636.447,776.447 636.447,796.447 696.447,796.447 696.447,776.447" transform="rotate(0 0 0)" fill="yellow" stroke="black" stroke-width="0.5" />
<polygon points="696.447,776.447 696.447,796.447 756.447,796.447 756.447,776.447" transform="rotate(0 0 0)" fill="yellow" stroke="black" stroke-width="0.5" />
<polygon points="756.447,776.447 756.447,796.447 816.447,796.447 816.447,776.447" transform="rotate(0 0 0)" fill="yellow" stroke="black" stroke-width="0.5" />
<polygon points="156.447,796.447 156.447,816.447 216.447,816.447 216.447,796.447" transform="rotate(0 0 0)" fill="yellow" stroke="black" stroke-width="0.5" />
<polygon points="216.447,796.447 216.447,816.447 276.447,816.447 276.447,796.447" transform="rotate(0 0 0)" fill="yellow" stroke="black" stroke-width="0.5" />
<polygon points="276.447,796.447 276.447,816.447 336.447,816.447 336.447,796.447" transform="rotate(0 0 0)" fill="yellow" stroke="black" stroke-width="0.5" />
<polygon points="336.447,796.447 336.447,816.447 396.447,816.447 396.447,796.447" transform="rotate(0 0 0)" fill="yellow" stroke="black" stroke-width="0.5" />
<polygon points="396.447,796.447 396.447,816.447 456.447,816.447 456.447,796.447" transform="rotate(0 0 0)" fill="yellow" stroke="black" stroke-width="0.5" />
<polygon points="456.447,796.447 456.447,816.447 516.447,816.447 516.447,796.447" transform="rotate(0 0 0)" fill="yellow" stroke="black" stroke-width="0.5" />
<polygon points="516.447,796.447 516.447,816.447 576.447,816.447 576.447,796.447" transform="rotate(0 0 0)" fill="yellow" stroke="black" stroke-width="0.5" />
<polygon points="576.447,796.447 576.447,816.447 636.447,816.447 636.447,796.447" transform="rotate(0 0 0)" fill="yellow" stroke="black" stroke-width="0.5" />
<polygon points="636.447,796.447 636.447,816.447 696.447,816.447 696.447,796.447" transform="rotate(0 0 0)" fill="yellow" stroke="black" stroke-width="0.5" />
<polygon points="696.447,796.447 696.447,816.447 756.447,816.447 756.447,796.447" transform="rotate(0 0 0)" fill="yellow" stroke="black" stroke-width="0.5" />
<polygon points="756.447,796.447 756.447,816.447 816.447,816.447 816.447,796.447" transform="rotate(0 0 0)" fill="yellow" stroke="black" stroke-width="0.5" />
<polygon points="156.447,816.447 156.447,836.447 216.447,836.447 216.447,816.447" transform="rotate(0 0 0)" fill="yellow" stroke="black" stroke-width="0.5" />
<polygon points="216.447,816.447 216.447,836.447 276.447,836.447 276.447,816.447" transform="rotate(0 0 0)" fill="yellow" stroke="black" stroke-width="0.5" />
<polygon points="276.447,816.447 276.447,836.447 336.447,836.447 336.447,816.447" transform="rotate(0 0 0)" fill="yellow" stroke="black" stroke-width="0.5" />
<polygon points="336.447,816.447 336.447,836.447 396.447,836.447 396.447,816.447" transform="rotate(0 0 0)" fill="yellow" stroke="black" stroke-width="0.5" />
<polygon points="396.447,816.447 396.447,836.447 456.447,836.447 456.447,816.447" transform="rotate(0 0 0)" fill="yellow" stroke="black" stroke-width="0.5" />
<polygon points="456.447,816.447 456.447,836.447 516.447,836.447 516.447,816.447" transform="rotate(0 0 0)" fill="yellow" stroke="black" stroke-width="0.5" />
<polygon points="516.447,816.447 516.447,836.447 576.447,836.447 576.447,816.447" transform="rotate(0 0 0)" fill="yellow" stroke="black" stroke-width="0.5" />
<polygon points="576.447,816.447 576.447,836.447 636.447,836.447 636.447,816.447" transform="rotate(0 0 0)" fill="yellow" stroke="black" stroke-width="0.5" />
<polygon points="636.447,816.447 636.447,836.447 696.447,836.447 696.447,816.447" transform="rotate(0 0 0)" fill="yellow" stroke="black" stroke-width="0.5" />
<polygon points="696.447,816.447 696.447,836.447 756.447,836.447 756.447,816.447" transform="rotate(0 0 0)" fill="yellow" stroke="black" stroke-width="0.5" />
<polygon points="756.447,816.447 756.447,836.447 816.447,836.447 816.447,816.447" transform="rotate(0 0 0)" fill="yellow" stroke="black" stroke-width="0.5" />
<polygon points="156.447,836.447 156.447,856.447 216.447,856.447 216.447,836.447" transform="rotate(0 0 0)" fill="yellow" stroke="black" stroke-width="0.5" />
<polygon points="216.447,836.447 216.447,856.447 276.447,856.447 276.447,836.447" transform="rotate(0 0 0)" fill="yellow" stroke="black" stroke-width="0.5" />
<polygon points="276.447,836.447 276.447,856.447 336.447,856.447 336.447,836.447" transform="rotate(0 0 0)" fill="yellow" stroke="black" stroke-width="0.5" />
<polygon points="336.447,836.447 336.447,856.447 396.447,856.447 396.447,836.447" transform="rotate(0 0 0)" fill="yellow" stroke="black" stroke-width="0.5" />
<polygon points="396.447,836.447 396.447,856.447 456.447,856.447 456.447,836.447" transform="rotate(0 0 0)" fill="yellow" stroke="black" stroke-width="0.5" />
<polygon points="456.447,836.447 456.447,856.447 516.447,856.447 516.447,836.447" transform="rotate(0 0 0)" fill="yellow" stroke="black" stroke-width="0.5" />
<polygon points="516.447,836.447 516.447,856.447 576.447,856.447 576.447,836.447" transform="rotate(0 0 0)" fill="yellow" stroke="black" stroke-width="0.5" />
<polygon points="576.447,836.447 576.447,856.447 636.447,856.447 636.447,836.447" transform="rotate(0 0 0)" fill="yellow" stroke="black" stroke-width="0.5" />
<polygon points="636.447,836.447 636.447,856.447 696.447,856.447 696.447,836.447" transform="rotate(0 0 0)" fill="yellow" stroke="black" stroke-width="0.5" />
<polygon points="696.447,836.447 696.447,856.447 756.447,856.447 756.447,836.447" transform="rotate(0 0 0)" fill="yellow" stroke="black" stroke-width="0.5" />
<polygon points="756.447,836.447 756.447,856.447 816.447,856.447 816.447,836.447" transform="rotate(0 0 0)" fill="yellow" stroke="black" stroke-width="0.5" />
<polygon points="816.447,156.447 816.447,216.447 836.447,216.447 836.447,156.447" transform="rotate(0 0 0)" fill="yellow" stroke="black" stroke-width="0.5" />
<polygon points="816.447,216.447 816.447,276.447 836.447,276.447 836.447,216.447" transform="rotate(0 0 0)" fill="yellow" stroke="black" stroke-width="0.5" />
<polygon points="816.447,276.447 816.447,336.447 836.447,336.447 836.447,276.447" transform="rotate(0 0 0)" fill="yellow" stroke="black" stroke-width="0.5" />
<polygon points="816.447,336.447 816.447,396.447 836.447,396.447 836.447,336.447" transform="rotate(0 0 0)" fill="yellow" stroke="black" stroke-width="0.5" />
<polygon points="816.447,396.447 816.447,456.447 836.447,456.447 836.447,396.447" transform="rotate(0 0 0)" fill="yellow" stroke="black" stroke-width="0.5" />
<polygon points="816.447,456.447 816.447,516.447 836.447,516.447 836.447,456.447" transform="rotate(0 0 0)" fill="yellow" stroke="black" stroke-width="0.5" />
<polygon points="816.447,516.447 816.447,576.447 836.447,576.447 836.447,516.447" transform="rotate(0 0 0)" fill="yellow" stroke="black" stroke-width="0.5" />
<polygon points="816.447,576.447 816.447,636.447 836.447,636.447 836.447,576.447" transform="rotate(0 0 0)" fill="yellow" stroke="black" stroke-width="0.5" />
<polygon points="816.447,636.447 816.447,696.447 836.447,696.447 836.447,636.447" transform="rotate(0 0 0)" fill="yellow" stroke="black" stroke-width="0.5" />
<polygon points="816.447,696.447 816.447,756.447 836.447,756.447 836.447,696.447" transform="rotate(0 0 0)" fill="yellow" stroke="black" stroke-width="0.5" />
<polygon points="816.447,756.447 816.447,816.447 836.447,816.447 836.447,756.447" transform="rotate(0 0 0)" fill="yellow" stroke="black" stroke-width="0.5" />
<polygon points="836.447,156.447 836.447,216.447 856.447,216.447 856.447,156.447" transform="rotate(0 0 0)" fill="yellow" stroke="black" stroke-width="0.5" />
<polygon points="836.447,216.447 836.447,276.447 856.447,276.447 856.447,216.447" transform="rotate(0 0 0)" fill="yellow" stroke="black" stroke-width="0.5" />
<polygon points="836.447,276.447 836.447,336.447 856.447,336.447 856.447,276.447" transform="rotate(0 0 0)" fill="yellow" stroke="black" stroke-width="0.5" />
<polygon points="836.447,336.447 836.447,396.447 856.447,396.447 856.447,336.447" transform="rotate(0 0 0)" fill="yellow" stroke="black" stroke-width="0.5" />
<polygon points="836.447,396.447 836.447,456.447 856.447,456.447 856.447,396.447" transform="rotate(0 0 0)" fill="yellow" stroke="black" stroke-width="0.5" />
<polygon points="836.447,456.447 836.447,516.447 856.447,516.447 856.447,456.447" transform="rotate(0 0 0)" fill="yellow" stroke="black" stroke-width="0.5" />
<polygon points="836.447,516.447 836.447,576.447 856.447,576.447 856.447,516.447" transform="rotate(0 0 0)" fill="yellow" stroke="black" stroke-width="0.5" />
<polygon points="836.447,576.447 836.447,636.447 856.447,636.447 856.447,576.447" transform="rotate(0 0 0)" fill="yellow" stroke="black" stroke-width="0.5" />
<polygon points="836.447,636.447 836.447,696.447 856.447,696.447 856.447,636.447" transform="rotate(0 0 0)" fill="yellow" stroke="black" stroke-width="0.5" />
<polygon points="836.447,696.447 836.447,756.447 856.447,756.447 856.447,696.447" transform="rotate(0 0 0)" fill="yellow" stroke="black" stroke-width="0.5" />
<polygon points="836.447,756.447 836.447,816.447 856.447,816.447 856.447,756.447" transform="rotate(0 0 0)" fill="yellow" stroke="black" stroke-width="0.5" />
<polygon points="510,863.553 510,883.553 570,883.553 570,863.553" transform="rotate(0 510 510)" fill="yellow" stroke="black" stroke-width="0.5" />
<polygon points="450,863.553 450,883.553 510,883.553 510,863.553" transform="rotate(0 510 510)" fill="yellow" stroke="black" stroke-width="0.5" />
<polygon points="570,863.553 570,883.553 630,883.553 630,863.553" transform="rotate(0 510 510)" fill="yellow" stroke="black" stroke-width="0.5" />
<polygon points="390,863.553 390,883.553 450,883.553 450,863.553" transform="rotate(0 510 510)" fill="yellow" stroke="black" stroke-width="0.5" />
<polygon points="630,863.553 630,883.553 690,883.553 690,863.553" transform="rotate(0 510 510)" fill="yellow" stroke="black" stroke-width="0.5" />
<polygon points="330,863.553 330,883.553 390,883.553 390,863.553" transform="rotate(0 510 510)" fill="yellow" stroke="black" stroke-width="0.5" />
<polygon points="690,863.553 690,883.553 750,883.553 750,863.553" transform="rotate(0 510 510)" fill="yellow" stroke="black" stroke-width="0.5" />
<polygon points="270,863.553 270,883.553 330,883.553 330,863.553" transform="rotate(0 510 510)" fill="yellow" stroke="black" stroke-width="0.5" />
<polygon points="750,863.553 750,883.553 810,883.553 810,863.553" transform="rotate(0 510 510)" fill="yellow" stroke="black" stroke-width="0.5" />
<polygon points="210,863.553 210,883.553 270,883.553 270,863.553" transform="rotate(0 510 510)" fill="yellow" stroke="black" stroke-width="0.5" />
<polygon points="510,883.553 510,903.553 570,903.553 570,883.553" transform="rotate(0 510 510)" fill="yellow" stroke="black" stroke-width="0.5" />
<polygon points="450,883.553 450,903.553 510,903.553 510,883.553" transform="rotate(0 510 510)" fill="yellow" stroke="black" stroke-width="0.5" />
<polygon points="570,883.553 570,903.553 630,903.553 630,883.553" transform="rotate(0 510 510)" fill="yellow" stroke="black" stroke-width="0.5" />
<polygon points="390,883.553 390,903.553 450,903.553 450,883.553" transform="rotate(0 510 510)" fill="yellow" stroke="black" stroke-width="0.5" />
<polygon points="630,883.553 630,903.553 690,903.553 690,883.553" transform="rotate(0 510 510)" fill="yellow" stroke="black" stroke-width="0.5" />
<polygon points="330,883.553 330,903.553 390,903.553 390,883.553" transform="rotate(0 510 510)" fill="yellow" stroke="black" stroke-width="0.5" />
<polygon points="690,883.553 690,903.553 750,903.553 750,883.553" transform="rotate(0 510 510)" fill="yellow" stroke="black" stroke-width="0.5" />
<polygon points="270,883.553 270,903.553 330,903.553 330,883.553" transform="rotate(0 510 510)" fill="yellow" stroke="black" stroke-width="0.5" />
<polygon points="750,883.553 750,903.553 810,903.553 810,883.553" transform="rotate(0 510 510)" fill="yellow" stroke="black" stroke-width="0.5" />
<polygon points="210,883.553 210,903.553 270,903.553 270,883.553" transform="rotate(0 510 510)" fill="yellow" stroke="black" stroke-width="0.5" />
<polygon points="510,903.553 510,923.553 570,923.553 570,903.553" transform="rotate(0 510 510)" fill="yellow" stroke="black" stroke-width="0.5" />
<polygon points="450,903.553 450,923.553 510,923.553 510,903.553" transform="rotate(0 510 510)" fill="yellow" stroke="black" stroke-width="0.5" />
<polygon points="570,903.553 570,923.553 630,923.553 630,903.553" transform="rotate(0 510 510)" fill="yellow" stroke="black" stroke-width="0.5" />
<polygon points="390,903.553 390,923.553 450,923.553 450,903.553" transform="rotate(0 510 510)" fill="yellow" stroke="black" stroke-width="0.5" />
<polygon points="630,903.553 630,923.553 690,923.553 690,903.553" transform="rotate(0 510 510)" fill="yellow" stroke="black" stroke-width="0.5" />
<polygon points="330,903.553 330,923.553 390,923.553 390,903.553" transform="rotate(0 510 510)" fill="yellow" stroke="black" stroke-width="0.5" />
<polygon points="690,903.553 690,923.553 750,923.553 750,903.553" transform="rotate(0 510 510)" fill="yellow" stroke="black" stroke-width="0.5" />
<polygon points="270,903.553 270,923.553 330,923.553 330,903.553" transform="rotate(0 510 510)" fill="yellow" stroke="black" stroke-width="0.5" />
<polygon points="510,923.553 510,943.553 570,943.553 570,923.553" transform="rotate(0 510 510)" fill="yellow" stroke="black" stroke-width="0.5" />
<polygon points="450,923.553 450,943.553 510,943.553 510,923.553" transform="rotate(0 510 510)" fill="yellow" stroke="black" stroke-width="0.5" />
<polygon points="570,923.553 570,943.553 630,943.553 630,923.553" transform="rotate(0 510 510)" fill="yellow" stroke="black" stroke-width="0.5" />
<polygon points="390,923.553 390,943.553 450,943.553 450,923.553" transform="rotate(0 510 510)" fill="yellow" stroke="black" stroke-width="0.5" />
<polygon points="630,923.553 630,943.553 690,943.553 690,923.553" transform="rotate(0 510 510)" fill="yellow" stroke="black" stroke-width="0.5" />
<polygon points="330,923.553 330,943.553 390,943.553 390,923.553" transform="rotate(0 510 510)" fill="yellow" stroke="black" stroke-width="0.5" />
<polygon points="690,923.553 690,943.553 750,943.553 750,923.553" transform="rotate(0 510 510)" fill="yellow" stroke="black" stroke-width="0.5" />
<polygon points="270,923.553 270,943.553 330,943.553 330,923.553" transform="rotate(0 510 510)" fill="yellow" stroke="black" stroke-width="0.5" />
<polygon points="510,943.553 510,963.553 570,963.553 570,943.553" transform="rotate(0 510 510)" fill="yellow" stroke="black" stroke-width="0.5" />
<polygon points="450,943.553 450,963.553 510,963.553 510,943.553" transform="rotate(0 510 510)" fill="yellow" stroke="black" stroke-width="0.5" />
<polygon points="570,943.553 570,963.553 630,963.553 630,943.553" transform="rotate(0 510 510)" fill="yellow" stroke="black" stroke-width="0.5" />
<polygon points="390,943.553 390,963.553 450,963.553 450,943.553" transform="rotate(0 510 510)" fill="yellow" stroke="black" stroke-width="0.5" />
<polygon points="630,943.553 630,963.553 690,963.553 690,943.553" transform="rotate(0 510 510)" fill="yellow" stroke="black" stroke-width="0.5" />
<polygon points="330,943.553 330,963.553 390,963.553 390,943.553" transform="rotate(0 510 510)" fill="yellow" stroke="black" stroke-width="0.5" />
<polygon points="510,963.553 510,983.553 570,983.553 570,963.553" transform="rotate(0 510 510)" fill="yellow" stroke="black" stroke-width="0.5" />
<polygon points="450,963.553 450,983.553 510,983.553 510,963.553" transform="rotate(0 510 510)" fill="yellow" stroke="black" stroke-width="0.5" />
<polygon points="570,963.553 570,983.553 630,983.553 630,963.553" transform="rotate(0 510 510)" fill="yellow" stroke="black" stroke-width="0.5" />
<polygon points="390,963.553 390,983.553 450,983.553 450,963.553" transform="rotate(0 510 510)" fill="yellow" stroke="black" stroke-width="0.5" />
<polygon points="510,983.553 510,1003.55 570,1003.55 570,983.553" transform="rotate(0 510 510)" fill="yellow" stroke="black" stroke-width="0.5" />
<polygon points="450,983.553 450,1003.55 510,1003.55 510,983.553" transform="rotate(0 510 510)" fill="yellow" stroke="black" stroke-width="0.5" />
<polygon points="510,863.553 510,883.553 570,883.553 570,863.553" transform="rotate(90 510 510)" fill="yellow" stroke="black" stroke-width="0.5" />
<polygon points="450,863.553 450,883.553 510,883.553 510,863.553" transform="rotate(90 510 510)" fill="yellow" stroke="black" stroke-width="0.5" />
<polygon points="570,863.553 570,883.553 630,883.553 630,863.553" transform="rotate(90 510 510)" fill="yellow" stroke="black" stroke-width="0.5" />
<polygon points="390,863.553 390,883.553 450,883.553 450,863.553" transform="rotate(90 510 510)" fill="yellow" stroke="black" stroke-width="0.5" />
<polygon points="630,863.553 630,883.553 690,883.553 690,863.553" transform="rotate(90 510 510)" fill="yellow" stroke="black" stroke-width="0.5" />
<polygon points="330,863.553 330,883.553 390,883.553 390,863.553" transform="rotate(90 510 510)" fill="yellow" stroke="black" stroke-width="0.5" />
<polygon points="690,863.553 690,883.553 750,883.553 750,863.553" transform="rotate(90 510 510)" fill="yellow" stroke="black" stroke-width="0.5" />
<polygon points="270,863.553 270,883.553 330,883.553 330,863.553" transform="rotate(90 510 510)" fill="yellow" stroke="black" stroke-width="0.5" />
<polygon points="750,863.553 750,883.553 810,883.553 810,863.553" transform="rotate(90 510 510)" fill="yellow" stroke="black" stroke-width="0.5" />
<polygon points="210,863.553 210,883.553 270,883.553 270,863.553" transform="rotate(90 510 510)" fill="yellow" stroke="black" stroke-width="0.5" />
<polygon points="510,883.553 510,903.553 570,903.553 570,883.553" transform="rotate(90 510 510)" fill="yellow" stroke="black" stroke-width="0.5" />
<polygon points="450,883.553 450,903.553 510,903.553 510,883.553" transform="rotate(90 510 510)" fill="yellow" stroke="black" stroke-width="0.5" />
<polygon points="570,883.553 570,903.553 630,903.553 630,883.553" transform="rotate(90 510 510)" fill="yellow" stroke="black" stroke-width="0.5" />
<polygon points="390,883.553 390,903.553 450,903.553 450,883.553" transform="rotate(90 510 510)" fill="yellow" stroke="black" stroke-width="0.5" />
<polygon points="630,883.553 630,903.553 690,903.553 690,883.553" transform="rotate(90 510 510)" fill="yellow" stroke="black" stroke-width="0.5" />
<polygon points="330,883.553 330,903.553 390,903.553 390,883.553" transform="rotate(90 510 510)" fill="yellow" stroke="black" stroke-width="0.5" />
<polygon points="690,883.553 690,903.553 750,903.553 750,883.553" transform="rotate(90 510 510)" fill="yellow" stroke="black" stroke-width="0.5" />
<polygon points="270,883.553 270,903.553 330,903.553 330,883.553" transform="rotate(90 510 510)" fill="yellow" stroke="black" stroke-width="0.5" />
<polygon points="750,883.553 750,903.553 810,903.553 810,883.553" transform="rotate(90 510 510)" fill="yellow" stroke="black" stroke-width="0.5" />
<polygon points="210,883.553 210,903.553 270,903.553 270,883.553" transform="rotate(90 510 510)" fill="yellow" stroke="black" stroke-width="0.5" />
<polygon points="510,903.553 510,923.553 570,923.553 570,903.553" transform="rotate(90 510 510)" fill="yellow" stroke="black" stroke-width="0.5" />
<polygon points="450,903.553 450,923.553 510,923.553 510,903.553" transform="rotate(90 510 510)" fill="yellow" stroke="black" stroke-width="0.5" />
<polygon points="570,903.553 570,923.553 630,923.553 630,903.553" transform="rotate(90 510 510)" fill="yellow" stroke="black" stroke-width="0.5" />
<polygon points="390,903.553 390,923.553 450,923.553 450,903.553" transform="rotate(90 510 510)" fill="yellow" stroke="black" stroke-width="0.5" />
<polygon points="630,903.553 630,923.553 690,923.553 690,903.553" transform="rotate(90 510 510)" fill="yellow" stroke="black" stroke-width="0.5" />
<polygon points="330,903.553 330,923.553 390,923.553 390,903.553" transform="rotate(90 510 510)" fill="yellow" stroke="black" stroke-width="0.5" />
<polygon points="690,903.553 690,923.553 750,923.553 750,903.553" transform="rotate(90 510 510)" fill="yellow" stroke="black" stroke-width="0.5" />
<polygon points="270,903.553 270,923.553 330,923.553 330,903.553" transform="rotate(90 510 510)" fill="yellow" stroke="black" stroke-width="0.5" />
<polygon points="510,923.553 510,943.553 570,943.553 570,923.553" transform="rotate(90 510 510)" fill="yellow" stroke="black" stroke-width="0.5" />
<polygon points="450,923.553 450,943.553 510,943.553 510,923.553" transform="rotate(90 510 510)" fill="yellow" stroke="black" stroke-width="0.5" />
<polygon points="570,923.553 570,943.553 630,943.553 630,923.553" transform="rotate(90 510 510)" fill="yellow" stroke="black" stroke-width="0.5" />
<polygon points="390,923.553 390,943.553 450,943.553 450,923.553" transform="rotate(90 510 510)" fill="yellow" stroke="black" stroke-width="0.5" />
<polygon points="630,923.553 630,943.553 690,943.553 690,923.553" transform="rotate(90 510 510)" fill="yellow" stroke="black" stroke-width="0.5" />
<polygon points="330,923.553 330,943.553 390,943.553 390,923.553" transform="rotate(90 510 510)" fill="yellow" stroke="black" stroke-width="0.5" />
<polygon points="690,923.553 690,943.553 750,943.553 750,923.553" transform="rotate(90 510 510)" fill="yellow" stroke="black" stroke-width="0.5" />
<polygon points="270,923.553 270,943.553 330,943.553 330,923.553" transform="rotate(90 510 510)" fill="yellow" stroke="black" stroke-width="0.5" />
<polygon points="510,943.553 510,963.553 570,963.553 570,943.553" transform="rotate(90 510 510)" fill="yellow" stroke="black" stroke-width="0.5" />
<polygon points="450,943.553 450,963.553 510,963.553 510,943.553" transform="rotate(90 510 510)" fill="yellow" stroke="black" stroke-width="0.5" />
<polygon points="570,943.553 570,963.553 630,963.553 630,943.553" transform="rotate(90 510 510)" fill="yellow" stroke="black" stroke-width="0.5" />
<polygon points="390,943.553 390,963.553 450,963.553 450,943.553" transform="rotate(90 510 510)" fill="yellow" stroke="black" stroke-width="0.5" />
<polygon points="630,943.553 630,963.553 690,963.553 690,943.553" transform="rotate(90 510 510)" fill="yellow" stroke="black" stroke-width="0.5" />
<polygon points="330,943.553 330,963.553 390,963.553 390,943.553" transform="rotate(90 510 510)" fill="yellow" stroke="black" stroke-width="0.5" />
<polygon points="510,963.553 510,983.553 570,983.553 570,963.553" transform="rotate(90 510 510)" fill="yellow" stroke="black" stroke-width="0.5" />
<polygon points="450,963.553 450,983.553 510,983.553 510,963.553" transform="rotate(90 510 510)" fill="yellow" stroke="black" stroke-width="0.5" />
<polygon points="570,963.553 570,983.553 630,983.553 630,963.553" transform="rotate(90 510 510)" fill="yellow" stroke="black" stroke-width="0.5" />
<polygon points="390,963.553 390,983.553 450,983.553 450,963.553" transform="rotate(90 510 510)" fill="yellow" stroke="black" stroke-width="0.5" />
<polygon points="510,983.553 510,1003.55 570,1003.55 570,983.553" transform="rotate(90 510 510)" fill="yellow" stroke="black" stroke-width="0.5" />
<polygon points="450,983.553 450,1003.55 510,1003.55 510,983.553" transform="rotate(90 510 510)" fill="yellow" stroke="black" stroke-width="0.5" />
<polygon points="510,863.553 510,883.553 570,883.553 570,863.553" transform="rotate(180 510 510)" fill="yellow" stroke="black" stroke-width="0.5" />
<polygon points="450,863.553 450,883.553 510,883.553 510,863.553" transform="rotate(180 510 510)" fill="yellow" stroke="black" stroke-width="0.5" />
<polygon points="570,863.553 570,883.553 630,883.553 630,863.553" transform="rotate(180 510 510)" fill="yellow" stroke="black" stroke-width="0.5" />
<polygon points="390,863.553 390,883.553 450,883.553 450,863.553" transform="rotate(180 510 510)" fill="yellow" stroke="black" stroke-width="0.5" />
<polygon points="630,863.553 630,883.553 690,883.553 690,863.553" transform="rotate(180 510 510)" fill="yellow" stroke="black" stroke-width="0.5" />
<polygon points="330,863.553 330,883.553 390,883.553 390,863.553" transform="rotate(180 510 510)" fill="yellow" stroke="black" stroke-width="0.5" />
<polygon points="690,863.553 690,883.553 750,883.553 750,863.553" transform="rotate(180 510 510)" fill="yellow" stroke="black" stroke-width="0.5" />
<polygon points="270,863.553 270,883.553 330,883.553 330,863.553" transform="rotate(180 510 510)" fill="yellow" stroke="black" stroke-width="0.5" />
<polygon points="750,863.553 750,883.553 810,883.553 810,863.553" transform="rotate(180 510 510)" fill="yellow" stroke="black" stroke-width="0.5" />
<polygon points="210,863.553 210,883.553 270,883.553 270,863.553" transform="rotate(180 510 510)" fill="yellow" stroke="black" stroke-width="0.5" />
<polygon points="510,883.553 510,903.553 570,903.553 570,883.553" transform="rotate(180 510 510)" fill="yellow" stroke="black" stroke-width="0.5" />
<polygon points="450,883.553 450,903.553 510,903.553 510,883.553" transform="rotate(180 510 510)" fill="yellow" stroke="black" stroke-width="0.5" />
<polygon points="570,883.553 570,903.553 630,903.553 630,883.553" transform="rotate(180 510 510)" fill="yellow" stroke="black" stroke-width="0.5" />
<polygon points="390,883.553 390,903.553 450,903.553 450,883.553" transform="rotate(180 510 510)" fill="yellow" stroke="black" stroke-width="0.5" />
<polygon points="630,883.553 630,903.553 690,903.553 690,883.553" transform="rotate(180 510 510)" fill="yellow" stroke="black" stroke-width="0.5" />
<polygon points="330,883.553 330,903.553 390,903.553 390,883.553" transform="rotate(180 510 510)" fill="yellow" stroke="black" stroke-width="0.5" />
<polygon points="690,883.553 690,903.553 750,903.553 750,883.553" transform="rotate(180 510 510)" fill="yellow" stroke="black" stroke-width="0.5" />
<polygon points="270,883.553 270,903.553 330,903.553 330,883.553" transform="rotate(180 510 510)" fill="yellow" stroke="black" stroke-width="0.5" />
<polygon points="750,883.553 750,903.553 810,903.553 810,883.553" transform="rotate(180 510 510)" fill="yellow" stroke="black" stroke-width="0.5" />
<polygon points="210,883.553 210,903.553 270,903.553 270,883.553" transform="rotate(180 510 510)" fill="yellow" stroke="black" stroke-width="0.5" />
<polygon points="510,903.553 510,923.553 570,923.553 570,903.553" transform="rotate(180 510 510)" fill="yellow" stroke="black" stroke-width="0.5" />
<polygon points="450,903.553 450,923.553 510,923.553 510,903.553" transform="rotate(180 510 510)" fill="yellow" stroke="black" stroke-width="0.5" />
<polygon points="570,903.553 570,923.553 630,923.553 630,903.553" transform="rotate(180 510 510)" fill="yellow" stroke="black" stroke-width="0.5" />
<polygon points="390,903.553 390,923.553 450,923.553 450,903.553" transform="rotate(180 510 510)" fill="yellow" stroke="black" stroke-width="0.5" />
<polygon points="630,903.553 630,923.553 690,923.553 690,903.553" transform="rotate(180 510 510)" fill="yellow" stroke="black" stroke-width="0.5" />
<polygon points="330,903.553 330,923.553 390,923.553 390,903.553" transform="rotate(180 510 510)" fill="yellow" stroke="black" stroke-width="0.5" />
<polygon points="690,903.553 690,923.553 750,923.553 750,903.553" transform="rotate(180 510 510)" fill="yellow" stroke="black" stroke-width="0.5" />
<polygon points="270,903.553 270,923.553 330,923.553 330,903.553" transform="rotate(180 510 510)" fill="yellow" stroke="black" stroke-width="0.5" />
<polygon points="510,923.553 510,943.553 570,943.553 570,923.553" transform="rotate(180 510 510)" fill="yellow" stroke="black" stroke-width="0.5" />
<polygon points="450,923.553 450,943.553 510,943.553 510,923.553" transform="rotate(180 510 510)" fill="yellow" stroke="black" stroke-width="0.5" />
<polygon points="570,923.553 570,943.553 630,943.553 630,923.553" transform="rotate(180 510 510)" fill="yellow" stroke="black" stroke-width="0.5" />
<polygon points="390,923.553 390,943.553 450,943.553 450,923.553" transform="rotate(180 510 510)" fill="yellow" stroke="black" stroke-width="0.5" />
<polygon points="630,923.553 630,943.553 690,943.553 690,923.553" transform="rotate(180 510 510)" fill="yellow" stroke="black" stroke-width="0.5" />
<polygon points="330,923.553 330,943.553 390,943.553 390,923.553" transform="rotate(180 510 510)" fill="yellow" stroke="black" stroke-width="0.5" />
<polygon points="690,923.553 690,943.553 750,943.553 750,923.553" transform="rotate(180 510 510)" fill="yellow" stroke="black" stroke-width="0.5" />
<polygon points="270,923.553 270,943.553 330,943.553 330,923.553" transform="rotate(180 510 510)" fill="yellow" stroke="black" stroke-width="0.5" />
<polygon points="510,943.553 510,963.553 570,963.553 570,943.553" transform="rotate(180 510 510)" fill="yellow" stroke="black" stroke-width="0.5" />
<polygon points="450,943.553 450,963.553 510,963.553 510,943.553" transform="rotate(180 510 510)" fill="yellow" stroke="black" stroke-width="0.5" />
<polygon points="570,943.553 570,963.553 630,963.553 630,943.553" transform="rotate(180 510 510)" fill="yellow" stroke="black" stroke-width="0.5" />
<polygon points="390,943.553 390,963.553 450,963.553 450,943.553" transform="rotate(180 510 510)" fill="yellow" stroke="black" stroke-width="0.5" />
<polygon points="630,943.553 630,963.553 690,963.553 690,943.553" transform="rotate(180 510 510)" fill="yellow" stroke="black" stroke-width="0.5" />
<polygon points="330,943.553 330,963.553 390,963.553 390,943.553" transform="rotate(180 510 510)" fill="yellow" stroke="black" stroke-width="0.5" />
<polygon points="510,963.553 510,983.553 570,983.553 570,963.553" transform="rotate(180 510 510)" fill="yellow" stroke="black" stroke-width="0.5" />
<polygon points="450,963.553 450,983.553 510,983.553 510,963.553" transform="rotate(180 510 510)" fill="yellow" stroke="black" stroke-width="0.5" />
<polygon points="570,963.553 570,983.553 630,983.553 630,963.553" transform="rotate(180 510 510)" fill="yellow" stroke="black" stroke-width="0.5" />
<polygon points="390,963.553 390,983.553 450,983.553 450,963.553" transform="rotate(180 510 510)" fill="yellow" stroke="black" stroke-width="0.5" />
<polygon points="510,983.553 510,1003.55 570,1003.55 570,983.553" transform="rotate(180 510 510)" fill="yellow" stroke="black" stroke-width="0.5" />
<polygon points="450,983.553 450,1003.55 510,1003.55 510,983.553" transform="rotate(180 510 510)" fill="yellow" stroke="black" stroke-width="0.5" />
<polygon points="510,863.553 510,883.553 570,883.553 570,863.553" transform="rotate(270 510 510)" fill="yellow" stroke="black" stroke-width="0.5" />
<polygon points="450,863.553 450,883.553 510,883.553 510,863.553" transform="rotate(270 510 510)" fill="yellow" stroke="black" stroke-width="0.5" />
<polygon points="570,863.553 570,883.553 630,883.553 630,863.553" transform="rotate(270 510 510)" fill="yellow" stroke="black" stroke-width="0.5" />
<polygon points="390,863.553 390,883.553 450,883.553 450,863.553" transform="rotate(270 510 510)" fill="yellow" stroke="black" stroke-width="0.5" />
<polygon points="630,863.553 630,883.553 690,883.553 690,863.553" transform="rotate(270 510 510)" fill="yellow" stroke="black" stroke-width="0.5" />
<polygon points="330,863.553 330,883.553 390,883.553 390,863.553" transform="rotate(270 510 510)" fill="yellow" stroke="black" stroke-width="0.5" />
<polygon points="690,863.553 690,883.553 750,883.553 750,863.553" transform="rotate(270 510 510)" fill="yellow" stroke="black" stroke-width="0.5" />
<polygon points="270,863.553 270,883.553 330,883.553 330,863.553" transform="rotate(270 510 510)" fill="yellow" stroke="black" stroke-width="0.5" />
<polygon points="750,863.553 750,883.553 810,883.553 810,863.553" transform="rotate(270 510 510)" fill="yellow" stroke="black" stroke-width="0.5" />
<polygon points="210,863.553 210,883.553 270,883.553 270,863.553" transform="rotate(270 510 510)" fill="yellow" stroke="black" stroke-width="0.5" />
<polygon points="510,883.553 510,903.553 570,903.553 570,883.553" transform="rotate(270 510 510)" fill="yellow" stroke="black" stroke-width="0.5" />
<polygon points="450,883.553 450,903.553 510,903.553 510,883.553" transform="rotate(270 510 510)" fill="yellow" stroke="black" stroke-width="0.5" />
<polygon points="570,883.553 570,903.553 630,903.553 630,883.553" transform="rotate(270 510 510)" fill="yellow" stroke="black" stroke-width="0.5" />
<polygon points="390,883.553 390,903.553 450,903.553 450,883.553" transform="rotate(270 510 510)" fill="yellow" stroke="black" stroke-width="0.5" />
<polygon points="630,883.553 630,903.553 690,903.553 690,883.553" transform="rotate(270 510 510)" fill="yellow" stroke="black" stroke-width="0.5" />
<polygon points="330,883.553 330,903.553 390,903.553 390,883.553" transform="rotate(270 510 510)" fill="yellow" stroke="black" stroke-width="0.5" />
<polygon points="690,883.553 690,903.553 750,903.553 750,883.553" transform="rotate(270 510 510)" fill="yellow" stroke="black" stroke-width="0.5" />
<polygon points="270,883.553 270,903.553 330,903.553 330,883.553" transform="rotate(270 510 510)" fill="yellow" stroke="black" stroke-width="0.5" />
<polygon points="750,883.553 750,903.553 810,903.553 810,883.553" transform="rotate(270 510 510)" fill="yellow" stroke="black" stroke-width="0.5" />
<polygon points="210,883.553 210,903.553 270,903.553 270,883.553" transform="rotate(270 510 510)" fill="yellow" stroke="black" stroke-width="0.5" />
<polygon points="510,903.553 510,923.553 570,923.553 570,903.553" transform="rotate(270 510 510)" fill="yellow" stroke="black" stroke-width="0.5" />
<polygon points="450,903.553 450,923.553 510,923.553 510,903.553" transform="rotate(270 510 510)" fill="yellow" stroke="black" stroke-width="0.5" />
<polygon points="570,903.553 570,923.553 630,923.553 630,903.553" transform="rotate(270 510 510)" fill="yellow" stroke="black" stroke-width="0.5" />
<polygon points="390,903.553 390,923.553 450,923.553 450,903.553" transform="rotate(270 510 510)" fill="yellow" stroke="black" stroke-width="0.5" />
<polygon points="630,903.553 630,923.553 690,923.553 690,903.553" transform="rotate(270 510 510)" fill="yellow" stroke="black" stroke-width="0.5" />
<polygon points="330,903.553 330,923.553 390,923.553 390,903.553" transform="rotate(270 510 510)" fill="yellow" stroke="black" stroke-width="0.5" />
<polygon points="690,903.553 690,923.553 750,923.553 750,903.553" transform="rotate(270 510 510)" fill="yellow" stroke="black" stroke-width="0.5" />
<polygon points="270,903.553 270,923.553 330,923.553 330,903.553" transform="rotate(270 510 510)" fill="yellow" stroke="black" stroke-width="0.5" />
<polygon points="510,923.553 510,943.553 570,943.553 570,923.553" transform="rotate(270 510 510)" fill="yellow" stroke="black" stroke-width="0.5" />
<polygon points="450,923.553 450,943.553 510,943.553 510,923.553" transform="rotate(270 510 510)" fill="yellow" stroke="black" stroke-width="0.5" />
<polygon points="570,923.553 570,943.553 630,943.553 630,923.553" transform="rotate(270 510 510)" fill="yellow" stroke="black" stroke-width="0.5" />
<polygon points="390,923.553 390,943.553 450,943.553 450,923.553" transform="rotate(270 510 510)" fill="yellow" stroke="black" stroke-width="0.5" />
<polygon points="630,923.553 630,943.553 690,943.553 690,923.553" transform="rotate(270 510 510)" fill="yellow" stroke="black" stroke-width="0.5" />
<polygon points="330,923.553 330,943.553 390,943.553 390,923.553" transform="rotate(270 510 510)" fill="yellow" stroke="black" stroke-width="0.5" />
<polygon points="690,923.553 690,943.553 750,943.553 750,923.553" transform="rotate(270 510 510)" fill="yellow" stroke="black" stroke-width="0.5" />
<polygon points="270,923.553 270,943.553 330,943.553 330,923.553" transform="rotate(270 510 510)" fill="yellow" stroke="black" stroke-width="0.5" />
<polygon points="510,943.553 510,963.553 570,963.553 570,943.553" transform="rotate(270 510 510)" fill="yellow" stroke="black" stroke-width="0.5" />
<polygon points="450,943.553 450,963.553 510,963.553 510,943.553" transform="rotate(270 510 510)" fill="yellow" stroke="black" stroke-width="0.5" />
<polygon points="570,943.553 570,963.553 630,963.553 630,943.553" transform="rotate(270 510 510)" fill="yellow" stroke="black" stroke-width="0.5" />
<polygon points="390,943.553 390,963.553 450,963.553 450,943.553" transform="rotate(270 510 510)" fill="yellow" stroke="black" stroke-width="0.5" />
<polygon points="630,943.553 630,963.553 690,963.553 690,943.553" transform="rotate(270 510 510)" fill="yellow" stroke="black" stroke-width="0.5" />
<polygon points="330,943.553 330,963.553 390,963.553 390,943.553" transform="rotate(270 510 510)" fill="yellow" stroke="black" stroke-width="0.5" />
<polygon points="510,963.553 510,983.553 570,983.553 570,963.553" transform="rotate(270 510 510)" fill="yellow" stroke="black" stroke-width="0.5" />
<polygon points="450,963.553 450,983.553 510,983.553 510,963.553" transform="rotate(270 510 510)" fill="yellow" stroke="black" stroke-width="0.5" />
<polygon points="570,963.553 570,983.553 630,983.553 630,963.553" transform="rotate(270 510 510)" fill="yellow" stroke="black" stroke-width="0.5" />
<polygon points="390,963.553 390,983.553 450,983.553 450,963.553" transform="rotate(270 510 510)" fill="yellow" stroke="black" stroke-width="0.5" />
<polygon points="510,983.553 510,1003.55 570,1003.55 570,983.553" transform="rotate(270 510 510)" fill="yellow" stroke="black" stroke-width="0.5" />
<polygon points="450,983.553 450,1003.55 510,1003.55 510,983.553" transform="rotate(270 510 510)" fill="yellow" stroke="black" stroke-width="0.5" />
</svg>
