<svg version="1.1" baseProfile="full" xmlns="http://www.w3.org/2000/svg">
<polygon points="255,5 5,438.013 505,438.013" transform="rotate(0 0 0)" fill="purple" stroke="black" stroke-width="0.5" />
<polygon points="285,65 284.941,63.1163 284.763,61.24 284.469,59.3786 284.057,57.5393 283.532,55.7295 282.893,53.9563 282.145,52.2266 281.289,50.5474 280.33,48.9252 279.271,47.3664 278.115,45.8773 276.869,44.4636 275.536,43.1309 274.123,41.8846 272.634,40.7295 271.075,39.6702 269.453,38.7108 267.773,37.8552 266.044,37.1067 264.271,36.4683 262.461,35.9425 260.621,35.5314 258.76,35.2366 256.884,35.0592 255,35 253.116,35.0592 251.24,35.2366 249.379,35.5314 247.539,35.9425 245.729,36.4683 243.956,37.1067 242.227,37.8552 240.547,38.7108 238.925,39.6702 237.366,40.7295 235.877,41.8846 234.464,43.1309 233.131,44.4636 231.885,45.8773 230.729,47.3664 229.67,48.9252 228.711,50.5474 227.855,52.2266 227.107,53.9563 226.468,55.7295 225.943,57.5393 225.531,59.3786 225.237,61.24 225.059,63.1163 225,65 225.059,66.8837 225.237,68.76 225.531,70.6214 225.943,72.4607 226.468,74.2705 227.107,76.0437 227.855,77.7734 228.711,79.4526 229.67,81.0748 230.729,82.6336 231.885,84.1227 233.131,85.5364 234.464,86.8691 235.877,88.1154 237.366,89.2705 238.925,90.3298 240.547,91.2892 242.227,92.1448 243.956,92.8933 245.729,93.5317 247.539,94.0575 249.379,94.4686 251.24,94.7634 253.116,94.9408 255,95 256.884,94.9408 258.76,94.7634 260.621,94.4686 262.461,94.0575 264.271,93.5317 266.044,92.8933 267.773,92.1448 269.453,91.2892 271.075,90.3298 272.634,89.2705 274.123,88.1154 275.536,86.8691 276.869,85.5364 278.115,84.1227 279.271,82.6336 280.33,81.0748 281.289,79.4526 282.145,77.7734 282.893,76.0437 283.532,74.2705 284.057,72.4607 284.469,70.6214 284.763,68.76 284.941,66.8837" transform="rotate(0 0 0)" fill="cyan" stroke="black" stroke-width="0.5" />
<polygon points="255,116.962 254.941,115.078 254.763,113.202 254.469,111.34 254.057,109.501 253.532,107.691 252.893,105.918 252.145,104.188 251.289,102.509 250.33,100.887 249.271,99.328 248.115,97.8388 246.869,96.4251 245.536,95.0925 244.123,93.8461 242.634,92.691 241.075,91.6317 239.453,90.6723 237.773,89.8167 236.044,89.0682 234.271,88.4298 232.461,87.904 230.621,87.4929 228.76,87.1981 226.884,87.0207 225,86.9615 223.116,87.0207 221.24,87.1981 219.379,87.4929 217.539,87.904 215.729,88.4298 213.956,89.0682 212.227,89.8167 210.547,90.6723 208.925,91.6317 207.366,92.691 205.877,93.8461 204.464,95.0925 203.131,96.4251 201.885,97.8388 200.729,99.328 199.67,100.887 198.711,102.509 197.855,104.188 197.107,105.918 196.468,107.691 195.943,109.501 195.531,111.34 195.237,113.202 195.059,115.078 195,116.962 195.059,118.845 195.237,120.722 195.531,122.583 195.943,124.422 196.468,126.232 197.107,128.005 197.855,129.735 198.711,131.414 199.67,133.036 200.729,134.595 201.885,136.084 203.131,137.498 204.464,138.831 205.877,140.077 207.366,141.232 208.925,142.291 210.547,143.251 212.227,144.106 213.956,144.855 215.729,145.493 217.539,146.019 219.379,146.43 221.24,146.725 223.116,146.902 225,146.962 226.884,146.902 228.76,146.725 230.621,146.43 232.461,146.019 234.271,145.493 236.044,144.855 237.773,144.106 239.453,143.251 241.075,142.291 242.634,141.232 244.123,140.077 245.536,138.831 246.869,137.498 248.115,136.084 249.271,134.595 250.33,133.036 251.289,131.414 252.145,129.735 252.893,128.005 253.532,126.232 254.057,124.422 254.469,122.583 254.763,120.722 254.941,118.845" transform="rotate(0 0 0)" fill="cyan" stroke="black" stroke-width="0.5" />
<polygon points="315,116.962 314.941,115.078 314.763,113.202 314.469,111.34 314.057,109.501 313.532,107.691 312.893,105.918 312.145,104.188 311.289,102.509 310.33,100.887 309.271,99.328 308.115,97.8388 306.869,96.4251 305.536,95.0925 304.123,93.8461 302.634,92.691 301.075,91.6317 299.453,90.6723 297.773,89.8167 296.044,89.0682 294.271,88.4298 292.461,87.904 290.621,87.4929 288.76,87.1981 286.884,87.0207 285,86.9615 283.116,87.0207 281.24,87.1981 279.379,87.4929 277.539,87.904 275.729,88.4298 273.956,89.0682 272.227,89.8167 270.547,90.6723 268.925,91.6317 267.366,92.691 265.877,93.8461 264.464,95.0925 263.131,96.4251 261.885,97.8388 260.729,99.328 259.67,100.887 258.711,102.509 257.855,104.188 257.107,105.918 256.468,107.691 255.943,109.501 255.531,111.34 255.237,113.202 255.059,115.078 255,116.962 255.059,118.845 255.237,120.722 255.531,122.583 255.943,124.422 256.468,126.232 257.107,128.005 257.855,129.735 258.711,131.414 259.67,133.036 260.729,134.595 261.885,136.084 263.131,137.498 264.464,138.831 265.877,140.077 267.366,141.232 268.925,142.291 270.547,143.251 272.227,144.106 273.956,144.855 275.729,145.493 277.539,146.019 279.379,146.43 281.24,146.725 283.116,146.902 285,146.962 286.884,146.902 288.76,146.725 290.621,146.43 292.461,146.019 294.271,145.493 296.044,144.855 297.773,144.106 299.453,143.251 301.075,142.291 302.634,141.232 304.123,140.077 305.536,138.831 306.869,137.498 308.115,136.084 309.271,134.595 310.33,133.036 311.289,131.414 312.145,129.735 312.893,128.005 313.532,126.232 314.057,124.422 314.469,122.583 314.763,120.722 314.941,118.845" transform="rotate(0 0 0)" fill="cyan" stroke="black" stroke-width="0.5" />
<polygon points="285,168.923 284.941,167.039 284.763,165.163 284.469,163.302 284.057,161.462 283.532,159.653 282.893,157.879 282.145,156.15 281.289,154.47 280.33,152.848 279.271,151.289 278.115,149.8 276.869,148.387 275.536,147.054 274.123,145.808 272.634,144.653 271.075,143.593 269.453,142.634 267.773,141.778 266.044,141.03 264.271,140.391 262.461,139.866 260.621,139.454 258.76,139.16 256.884,138.982 255,138.923 253.116,138.982 251.24,139.16 249.379,139.454 247.539,139.866 245.729,140.391 243.956,141.03 242.227,141.778 240.547,142.634 238.925,143.593 237.366,144.653 235.877,145.808 234.464,147.054 233.131,148.387 231.885,149.8 230.729,151.289 229.67,152.848 228.711,154.47 227.855,156.15 227.107,157.879 226.468,159.653 225.943,161.462 225.531,163.302 225.237,165.163 225.059,167.039 225,168.923 225.059,170.807 225.237,172.683 225.531,174.544 225.943,176.384 226.468,178.194 227.107,179.967 227.855,181.696 228.711,183.376 229.67,184.998 230.729,186.557 231.885,188.046 233.131,189.459 234.464,190.792 235.877,192.038 237.366,193.194 238.925,194.253 240.547,195.212 242.227,196.068 243.956,196.816 245.729,197.455 247.539,197.981 249.379,198.392 251.24,198.686 253.116,198.864 255,198.923 256.884,198.864 258.76,198.686 260.621,198.392 262.461,197.981 264.271,197.455 266.044,196.816 267.773,196.068 269.453,195.212 271.075,194.253 272.634,193.194 274.123,192.038 275.536,190.792 276.869,189.459 278.115,188.046 279.271,186.557 280.33,184.998 281.289,183.376 282.145,181.696 282.893,179.967 283.532,178.194 284.057,176.384 284.469,174.544 284.763,172.683 284.941,170.807" transform="rotate(0 0 0)" fill="cyan" stroke="black" stroke-width="0.5" />
<polygon points="225,168.923 224.941,167.039 224.763,165.163 224.469,163.302 224.057,161.462 223.532,159.653 222.893,157.879 222.145,156.15 221.289,154.47 220.33,152.848 219.271,151.289 218.115,149.8 216.869,148.387 215.536,147.054 214.123,145.808 212.634,144.653 211.075,143.593 209.453,142.634 207.773,141.778 206.044,141.03 204.271,140.391 202.461,139.866 200.621,139.454 198.76,139.16 196.884,138.982 195,138.923 193.116,138.982 191.24,139.16 189.379,139.454 187.539,139.866 185.729,140.391 183.956,141.03 182.227,141.778 180.547,142.634 178.925,143.593 177.366,144.653 175.877,145.808 174.464,147.054 173.131,148.387 171.885,149.8 170.729,151.289 169.67,152.848 168.711,154.47 167.855,156.15 167.107,157.879 166.468,159.653 165.943,161.462 165.531,163.302 165.237,165.163 165.059,167.039 165,168.923 165.059,170.807 165.237,172.683 165.531,174.544 165.943,176.384 166.468,178.194 167.107,179.967 167.855,181.696 168.711,183.376 169.67,184.998 170.729,186.557 171.885,188.046 173.131,189.459 174.464,190.792 175.877,192.038 177.366,193.194 178.925,194.253 180.547,195.212 182.227,196.068 183.956,196.816 185.729,197.455 187.539,197.981 189.379,198.392 191.24,198.686 193.116,198.864 195,198.923 196.884,198.864 198.76,198.686 200.621,198.392 202.461,197.981 204.271,197.455 206.044,196.816 207.773,196.068 209.453,195.212 211.075,194.253 212.634,193.194 214.123,192.038 215.536,190.792 216.869,189.459 218.115,188.046 219.271,186.557 220.33,184.998 221.289,183.376 222.145,181.696 222.893,179.967 223.532,178.194 224.057,176.384 224.469,174.544 224.763,172.683 224.941,170.807" transform="rotate(0 0 0)" fill="cyan" stroke="black" stroke-width="0.5" />
<polygon points="345,168.923 344.941,167.039 344.763,165.163 344.469,163.302 344.057,161.462 343.532,159.653 342.893,157.879 342.145,156.15 341.289,154.47 340.33,152.848 339.271,151.289 338.115,149.8 336.869,148.387 335.536,147.054 334.123,145.808 332.634,144.653 331.075,143.593 329.453,142.634 327.773,141.778 326.044,141.03 324.271,140.391 322.461,139.866 320.621,139.454 318.76,139.16 316.884,138.982 315,138.923 313.116,138.982 311.24,139.16 309.379,139.454 307.539,139.866 305.729,140.391 303.956,141.03 302.227,141.778 300.547,142.634 298.925,143.593 297.366,144.653 295.877,145.808 294.464,147.054 293.131,148.387 291.885,149.8 290.729,151.289 289.67,152.848 288.711,154.47 287.855,156.15 287.107,157.879 286.468,159.653 285.943,161.462 285.531,163.302 285.237,165.163 285.059,167.039 285,168.923 285.059,170.807 285.237,172.683 285.531,174.544 285.943,176.384 286.468,178.194 287.107,179.967 287.855,181.696 288.711,183.376 289.67,184.998 290.729,186.557 291.885,188.046 293.131,189.459 294.464,190.792 295.877,192.038 297.366,193.194 298.925,194.253 300.547,195.212 302.227,196.068 303.956,196.816 305.729,197.455 307.539,197.981 309.379,198.392 311.24,198.686 313.116,198.864 315,198.923 316.884,198.864 318.76,198.686 320.621,198.392 322.461,197.981 324.271,197.455 326.044,196.816 327.773,196.068 329.453,195.212 331.075,194.253 332.634,193.194 334.123,192.038 335.536,190.792 336.869,189.459 338.115,188.046 339.271,186.557 340.33,184.998 341.289,183.376 342.145,181.696 342.893,179.967 343.532,178.194 344.057,176.384 344.469,174.544 344.763,172.683 344.941,170.807" transform="rotate(0 0 0)" fill="cyan" stroke="black" stroke-width="0.5" />
<polygon points="255,220.885 254.941,219.001 254.763,217.125 254.469,215.263 254.057,213.424 253.532,211.614 252.893,209.841 252.145,208.111 251.289,206.432 250.33,204.81 249.271,203.251 248.115,201.762 246.869,200.348 245.536,199.016 244.123,197.769 242.634,196.614 241.075,195.555 239.453,194.595 237.773,193.74 236.044,192.991 234.271,192.353 232.461,191.827 230.621,191.416 228.76,191.121 226.884,190.944 225,190.885 223.116,190.944 221.24,191.121 219.379,191.416 217.539,191.827 215.729,192.353 213.956,192.991 212.227,193.74 210.547,194.595 208.925,195.555 207.366,196.614 205.877,197.769 204.464,199.016 203.131,200.348 201.885,201.762 200.729,203.251 199.67,204.81 198.711,206.432 197.855,208.111 197.107,209.841 196.468,211.614 195.943,213.424 195.531,215.263 195.237,217.125 195.059,219.001 195,220.885 195.059,222.768 195.237,224.645 195.531,226.506 195.943,228.345 196.468,230.155 197.107,231.928 197.855,233.658 198.711,235.337 199.67,236.959 200.729,238.518 201.885,240.007 203.131,241.421 204.464,242.754 205.877,244 207.366,245.155 208.925,246.214 210.547,247.174 212.227,248.029 213.956,248.778 215.729,249.416 217.539,249.942 219.379,250.353 221.24,250.648 223.116,250.825 225,250.885 226.884,250.825 228.76,250.648 230.621,250.353 232.461,249.942 234.271,249.416 236.044,248.778 237.773,248.029 239.453,247.174 241.075,246.214 242.634,245.155 244.123,244 245.536,242.754 246.869,241.421 248.115,240.007 249.271,238.518 250.33,236.959 251.289,235.337 252.145,233.658 252.893,231.928 253.532,230.155 254.057,228.345 254.469,226.506 254.763,224.645 254.941,222.768" transform="rotate(0 0 0)" fill="cyan" stroke="black" stroke-width="0.5" />
<polygon points="315,220.885 314.941,219.001 314.763,217.125 314.469,215.263 314.057,213.424 313.532,211.614 312.893,209.841 312.145,208.111 311.289,206.432 310.33,204.81 309.271,203.251 308.115,201.762 306.869,200.348 305.536,199.016 304.123,197.769 302.634,196.614 301.075,195.555 299.453,194.595 297.773,193.74 296.044,192.991 294.271,192.353 292.461,191.827 290.621,191.416 288.76,191.121 286.884,190.944 285,190.885 283.116,190.944 281.24,191.121 279.379,191.416 277.539,191.827 275.729,192.353 273.956,192.991 272.227,193.74 270.547,194.595 268.925,195.555 267.366,196.614 265.877,197.769 264.464,199.016 263.131,200.348 261.885,201.762 260.729,203.251 259.67,204.81 258.711,206.432 257.855,208.111 257.107,209.841 256.468,211.614 255.943,213.424 255.531,215.263 255.237,217.125 255.059,219.001 255,220.885 255.059,222.768 255.237,224.645 255.531,226.506 255.943,228.345 256.468,230.155 257.107,231.928 257.855,233.658 258.711,235.337 259.67,236.959 260.729,238.518 261.885,240.007 263.131,241.421 264.464,242.754 265.877,244 267.366,245.155 268.925,246.214 270.547,247.174 272.227,248.029 273.956,248.778 275.729,249.416 277.539,249.942 279.379,250.353 281.24,250.648 283.116,250.825 285,250.885 286.884,250.825 288.76,250.648 290.621,250.353 292.461,249.942 294.271,249.416 296.044,248.778 297.773,248.029 299.453,247.174 301.075,246.214 302.634,245.155 304.123,244 305.536,242.754 306.869,241.421 308.115,240.007 309.271,238.518 310.33,236.959 311.289,235.337 312.145,233.658 312.893,231.928 313.532,230.155 314.057,228.345 314.469,226.506 314.763,224.645 314.941,222.768" transform="rotate(0 0 0)" fill="cyan" stroke="black" stroke-width="0.5" />
<polygon points="195,220.885 194.941,219.001 194.763,217.125 194.469,215.263 194.057,213.424 193.532,211.614 192.893,209.841 192.145,208.111 191.289,206.432 190.33,204.81 189.271,203.251 188.115,201.762 186.869,200.348 185.536,199.016 184.123,197.769 182.634,196.614 181.075,195.555 179.453,194.595 177.773,193.74 176.044,192.991 174.271,192.353 172.461,191.827 170.621,191.416 168.76,191.121 166.884,190.944 165,190.885 163.116,190.944 161.24,191.121 159.379,191.416 157.539,191.827 155.729,192.353 153.956,192.991 152.227,193.74 150.547,194.595 148.925,195.555 147.366,196.614 145.877,197.769 144.464,199.016 143.131,200.348 141.885,201.762 140.729,203.251 139.67,204.81 138.711,206.432 137.855,208.111 137.107,209.841 136.468,211.614 135.943,213.424 135.531,215.263 135.237,217.125 135.059,219.001 135,220.885 135.059,222.768 135.237,224.645 135.531,226.506 135.943,228.345 136.468,230.155 137.107,231.928 137.855,233.658 138.711,235.337 139.67,236.959 140.729,238.518 141.885,240.007 143.131,241.421 144.464,242.754 145.877,244 147.366,245.155 148.925,246.214 150.547,247.174 152.227,248.029 153.956,248.778 155.729,249.416 157.539,249.942 159.379,250.353 161.24,250.648 163.116,250.825 165,250.885 166.884,250.825 168.76,250.648 170.621,250.353 172.461,249.942 174.271,249.416 176.044,248.778 177.773,248.029 179.453,247.174 181.075,246.214 182.634,245.155 184.123,244 185.536,242.754 186.869,241.421 188.115,240.007 189.271,238.518 190.33,236.959 191.289,235.337 192.145,233.658 192.893,231.928 193.532,230.155 194.057,228.345 194.469,226.506 194.763,224.645 194.941,222.768" transform="rotate(0 0 0)" fill="cyan" stroke="black" stroke-width="0.5" />
<polygon points="375,220.885 374.941,219.001 374.763,217.125 374.469,215.263 374.057,213.424 373.532,211.614 372.893,209.841 372.145,208.111 371.289,206.432 370.33,204.81 369.271,203.251 368.115,201.762 366.869,200.348 365.536,199.016 364.123,197.769 362.634,196.614 361.075,195.555 359.453,194.595 357.773,193.74 356.044,192.991 354.271,192.353 352.461,191.827 350.621,191.416 348.76,191.121 346.884,190.944 345,190.885 343.116,190.944 341.24,191.121 339.379,191.416 337.539,191.827 335.729,192.353 333.956,192.991 332.227,193.74 330.547,194.595 328.925,195.555 327.366,196.614 325.877,197.769 324.464,199.016 323.131,200.348 321.885,201.762 320.729,203.251 319.67,204.81 318.711,206.432 317.855,208.111 317.107,209.841 316.468,211.614 315.943,213.424 315.531,215.263 315.237,217.125 315.059,219.001 315,220.885 315.059,222.768 315.237,224.645 315.531,226.506 315.943,228.345 316.468,230.155 317.107,231.928 317.855,233.658 318.711,235.337 319.67,236.959 320.729,238.518 321.885,240.007 323.131,241.421 324.464,242.754 325.877,244 327.366,245.155 328.925,246.214 330.547,247.174 332.227,248.029 333.956,248.778 335.729,249.416 337.539,249.942 339.379,250.353 341.24,250.648 343.116,250.825 345,250.885 346.884,250.825 348.76,250.648 350.621,250.353 352.461,249.942 354.271,249.416 356.044,248.778 357.773,248.029 359.453,247.174 361.075,246.214 362.634,245.155 364.123,244 365.536,242.754 366.869,241.421 368.115,240.007 369.271,238.518 370.33,236.959 371.289,235.337 372.145,233.658 372.893,231.928 373.532,230.155 374.057,228.345 374.469,226.506 374.763,224.645 374.941,222.768" transform="rotate(0 0 0)" fill="cyan" stroke="black" stroke-width="0.5" />
<polygon points="285,272.846 284.941,270.962 284.763,269.086 284.469,267.225 284.057,265.385 283.532,263.576 282.893,261.802 282.145,260.073 281.289,258.393 280.33,256.771 279.271,255.213 278.115,253.723 276.869,252.31 275.536,250.977 274.123,249.731 272.634,248.576 271.075,247.516 269.453,246.557 267.773,245.701 266.044,244.953 264.271,244.314 262.461,243.789 260.621,243.377 258.76,243.083 256.884,242.905 255,242.846 253.116,242.905 251.24,243.083 249.379,243.377 247.539,243.789 245.729,244.314 243.956,244.953 242.227,245.701 240.547,246.557 238.925,247.516 237.366,248.576 235.877,249.731 234.464,250.977 233.131,252.31 231.885,253.723 230.729,255.213 229.67,256.771 228.711,258.393 227.855,260.073 227.107,261.802 226.468,263.576 225.943,265.385 225.531,267.225 225.237,269.086 225.059,270.962 225,272.846 225.059,274.73 225.237,276.606 225.531,278.468 225.943,280.307 226.468,282.117 227.107,283.89 227.855,285.619 228.711,287.299 229.67,288.921 230.729,290.48 231.885,291.969 233.131,293.383 234.464,294.715 235.877,295.961 237.366,297.117 238.925,298.176 240.547,299.135 242.227,299.991 243.956,300.739 245.729,301.378 247.539,301.904 249.379,302.315 251.24,302.61 253.116,302.787 255,302.846 256.884,302.787 258.76,302.61 260.621,302.315 262.461,301.904 264.271,301.378 266.044,300.739 267.773,299.991 269.453,299.135 271.075,298.176 272.634,297.117 274.123,295.961 275.536,294.715 276.869,293.383 278.115,291.969 279.271,290.48 280.33,288.921 281.289,287.299 282.145,285.619 282.893,283.89 283.532,282.117 284.057,280.307 284.469,278.468 284.763,276.606 284.941,274.73" transform="rotate(0 0 0)" fill="cyan" stroke="black" stroke-width="0.5" />
<polygon points="225,272.846 224.941,270.962 224.763,269.086 224.469,267.225 224.057,265.385 223.532,263.576 222.893,261.802 222.145,260.073 221.289,258.393 220.33,256.771 219.271,255.213 218.115,253.723 216.869,252.31 215.536,250.977 214.123,249.731 212.634,248.576 211.075,247.516 209.453,246.557 207.773,245.701 206.044,244.953 204.271,244.314 202.461,243.789 200.621,243.377 198.76,243.083 196.884,242.905 195,242.846 193.116,242.905 191.24,243.083 189.379,243.377 187.539,243.789 185.729,244.314 183.956,244.953 182.227,245.701 180.547,246.557 178.925,247.516 177.366,248.576 175.877,249.731 174.464,250.977 173.131,252.31 171.885,253.723 170.729,255.213 169.67,256.771 168.711,258.393 167.855,260.073 167.107,261.802 166.468,263.576 165.943,265.385 165.531,267.225 165.237,269.086 165.059,270.962 165,272.846 165.059,274.73 165.237,276.606 165.531,278.468 165.943,280.307 166.468,282.117 167.107,283.89 167.855,285.619 168.711,287.299 169.67,288.921 170.729,290.48 171.885,291.969 173.131,293.383 174.464,294.715 175.877,295.961 177.366,297.117 178.925,298.176 180.547,299.135 182.227,299.991 183.956,300.739 185.729,301.378 187.539,301.904 189.379,302.315 191.24,302.61 193.116,302.787 195,302.846 196.884,302.787 198.76,302.61 200.621,302.315 202.461,301.904 204.271,301.378 206.044,300.739 207.773,299.991 209.453,299.135 211.075,298.176 212.634,297.117 214.123,295.961 215.536,294.715 216.869,293.383 218.115,291.969 219.271,290.48 220.33,288.921 221.289,287.299 222.145,285.619 222.893,283.89 223.532,282.117 224.057,280.307 224.469,278.468 224.763,276.606 224.941,274.73" transform="rotate(0 0 0)" fill="cyan" stroke="black" stroke-width="0.5" />
<polygon points="165,272.846 164.941,270.962 164.763,269.086 164.469,267.225 164.057,265.385 163.532,263.576 162.893,261.802 162.145,260.073 161.289,258.393 160.33,256.771 159.271,255.213 158.115,253.723 156.869,252.31 155.536,250.977 154.123,249.731 152.634,248.576 151.075,247.516 149.453,246.557 147.773,245.701 146.044,244.953 144.271,244.314 142.461,243.789 140.621,243.377 138.76,243.083 136.884,242.905 135,242.846 133.116,242.905 131.24,243.083 129.379,243.377 127.539,243.789 125.729,244.314 123.956,244.953 122.227,245.701 120.547,246.557 118.925,247.516 117.366,248.576 115.877,249.731 114.464,250.977 113.131,252.31 111.885,253.723 110.729,255.213 109.67,256.771 108.711,258.393 107.855,260.073 107.107,261.802 106.468,263.576 105.943,265.385 105.531,267.225 105.237,269.086 105.059,270.962 105,272.846 105.059,274.73 105.237,276.606 105.531,278.468 105.943,280.307 106.468,282.117 107.107,283.89 107.855,285.619 108.711,287.299 109.67,288.921 110.729,290.48 111.885,291.969 113.131,293.383 114.464,294.715 115.877,295.961 117.366,297.117 118.925,298.176 120.547,299.135 122.227,299.991 123.956,300.739 125.729,301.378 127.539,301.904 129.379,302.315 131.24,302.61 133.116,302.787 135,302.846 136.884,302.787 138.76,302.61 140.621,302.315 142.461,301.904 144.271,301.378 146.044,300.739 147.773,299.991 149.453,299.135 151.075,298.176 152.634,297.117 154.123,295.961 155.536,294.715 156.869,293.383 158.115,291.969 159.271,290.48 160.33,288.921 161.289,287.299 162.145,285.619 162.893,283.89 163.532,282.117 164.057,280.307 164.469,278.468 164.763,276.606 164.941,274.73" transform="rotate(0 0 0)" fill="cyan" stroke="black" stroke-width="0.5" />
<polygon points="345,272.846 344.941,270.962 344.763,269.086 344.469,267.225 344.057,265.385 343.532,263.576 342.893,261.802 342.145,260.073 341.289,258.393 340.33,256.771 339.271,255.213 338.115,253.723 336.869,252.31 335.536,250.977 334.123,249.731 332.634,248.576 331.075,247.516 329.453,246.557 327.773,245.701 326.044,244.953 324.271,244.314 322.461,243.789 320.621,243.377 318.76,243.083 316.884,242.905 315,242.846 313.116,242.905 311.24,243.083 309.379,243.377 307.539,243.789 305.729,244.314 303.956,244.953 302.227,245.701 300.547,246.557 298.925,247.516 297.366,248.576 295.877,249.731 294.464,250.977 293.131,252.31 291.885,253.723 290.729,255.213 289.67,256.771 288.711,258.393 287.855,260.073 287.107,261.802 286.468,263.576 285.943,265.385 285.531,267.225 285.237,269.086 285.059,270.962 285,272.846 285.059,274.73 285.237,276.606 285.531,278.468 285.943,280.307 286.468,282.117 287.107,283.89 287.855,285.619 288.711,287.299 289.67,288.921 290.729,290.48 291.885,291.969 293.131,293.383 294.464,294.715 295.877,295.961 297.366,297.117 298.925,298.176 300.547,299.135 302.227,299.991 303.956,300.739 305.729,301.378 307.539,301.904 309.379,302.315 311.24,302.61 313.116,302.787 315,302.846 316.884,302.787 318.76,302.61 320.621,302.315 322.461,301.904 324.271,301.378 326.044,300.739 327.773,299.991 329.453,299.135 331.075,298.176 332.634,297.117 334.123,295.961 335.536,294.715 336.869,293.383 338.115,291.969 339.271,290.48 340.33,288.921 341.289,287.299 342.145,285.619 342.893,283.89 343.532,282.117 344.057,280.307 344.469,278.468 344.763,276.606 344.941,274.73" transform="rotate(0 0 0)" fill="cyan" stroke="black" stroke-width="0.5" />
<polygon points="405,272.846 404.941,270.962 404.763,269.086 404.469,267.225 404.057,265.385 403.532,263.576 402.893,261.802 402.145,260.073 401.289,258.393 400.33,256.771 399.271,255.213 398.115,253.723 396.869,252.31 395.536,250.977 394.123,249.731 392.634,248.576 391.075,247.516 389.453,246.557 387.773,245.701 386.044,244.953 384.271,244.314 382.461,243.789 380.621,243.377 378.76,243.083 376.884,242.905 375,242.846 373.116,242.905 371.24,243.083 369.379,243.377 367.539,243.789 365.729,244.314 363.956,244.953 362.227,245.701 360.547,246.557 358.925,247.516 357.366,248.576 355.877,249.731 354.464,250.977 353.131,252.31 351.885,253.723 350.729,255.213 349.67,256.771 348.711,258.393 347.855,260.073 347.107,261.802 346.468,263.576 345.943,265.385 345.531,267.225 345.237,269.086 345.059,270.962 345,272.846 345.059,274.73 345.237,276.606 345.531,278.468 345.943,280.307 346.468,282.117 347.107,283.89 347.855,285.619 348.711,287.299 349.67,288.921 350.729,290.48 351.885,291.969 353.131,293.383 354.464,294.715 355.877,295.961 357.366,297.117 358.925,298.176 360.547,299.135 362.227,299.991 363.956,300.739 365.729,301.378 367.539,301.904 369.379,302.315 371.24,302.61 373.116,302.787 375,302.846 376.884,302.787 378.76,302.61 380.621,302.315 382.461,301.904 384.271,301.378 386.044,300.739 387.773,299.991 389.453,299.135 391.075,298.176 392.634,297.117 394.123,295.961 395.536,294.715 396.869,293.383 398.115,291.969 399.271,290.48 400.33,288.921 401.289,287.299 402.145,285.619 402.893,283.89 403.532,282.117 404.057,280.307 404.469,278.468 404.763,276.606 404.941,274.73" transform="rotate(0 0 0)" fill="cyan" stroke="black" stroke-width="0.5" />
<polygon points="255,324.808 254.941,322.924 254.763,321.048 254.469,319.186 254.057,317.347 253.532,315.537 252.893,313.764 252.145,312.034 251.289,310.355 250.33,308.733 249.271,307.174 248.115,305.685 246.869,304.271 245.536,302.939 244.123,301.692 242.634,300.537 241.075,299.478 239.453,298.518 237.773,297.663 236.044,296.914 234.271,296.276 232.461,295.75 230.621,295.339 228.76,295.044 226.884,294.867 225,294.808 223.116,294.867 221.24,295.044 219.379,295.339 217.539,295.75 215.729,296.276 213.956,296.914 212.227,297.663 210.547,298.518 208.925,299.478 207.366,300.537 205.877,301.692 204.464,302.939 203.131,304.271 201.885,305.685 200.729,307.174 199.67,308.733 198.711,310.355 197.855,312.034 197.107,313.764 196.468,315.537 195.943,317.347 195.531,319.186 195.237,321.048 195.059,322.924 195,324.808 195.059,326.691 195.237,328.568 195.531,330.429 195.943,332.268 196.468,334.078 197.107,335.851 197.855,337.581 198.711,339.26 199.67,340.882 200.729,342.441 201.885,343.93 203.131,345.344 204.464,346.677 205.877,347.923 207.366,349.078 208.925,350.137 210.547,351.097 212.227,351.952 213.956,352.701 215.729,353.339 217.539,353.865 219.379,354.276 221.24,354.571 223.116,354.748 225,354.808 226.884,354.748 228.76,354.571 230.621,354.276 232.461,353.865 234.271,353.339 236.044,352.701 237.773,351.952 239.453,351.097 241.075,350.137 242.634,349.078 244.123,347.923 245.536,346.677 246.869,345.344 248.115,343.93 249.271,342.441 250.33,340.882 251.289,339.26 252.145,337.581 252.893,335.851 253.532,334.078 254.057,332.268 254.469,330.429 254.763,328.568 254.941,326.691" transform="rotate(0 0 0)" fill="cyan" stroke="black" stroke-width="0.5" />
<polygon points="315,324.808 314.941,322.924 314.763,321.048 314.469,319.186 314.057,317.347 313.532,315.537 312.893,313.764 312.145,312.034 311.289,310.355 310.33,308.733 309.271,307.174 308.115,305.685 306.869,304.271 305.536,302.939 304.123,301.692 302.634,300.537 301.075,299.478 299.453,298.518 297.773,297.663 296.044,296.914 294.271,296.276 292.461,295.75 290.621,295.339 288.76,295.044 286.884,294.867 285,294.808 283.116,294.867 281.24,295.044 279.379,295.339 277.539,295.75 275.729,296.276 273.956,296.914 272.227,297.663 270.547,298.518 268.925,299.478 267.366,300.537 265.877,301.692 264.464,302.939 263.131,304.271 261.885,305.685 260.729,307.174 259.67,308.733 258.711,310.355 257.855,312.034 257.107,313.764 256.468,315.537 255.943,317.347 255.531,319.186 255.237,321.048 255.059,322.924 255,324.808 255.059,326.691 255.237,328.568 255.531,330.429 255.943,332.268 256.468,334.078 257.107,335.851 257.855,337.581 258.711,339.26 259.67,340.882 260.729,342.441 261.885,343.93 263.131,345.344 264.464,346.677 265.877,347.923 267.366,349.078 268.925,350.137 270.547,351.097 272.227,351.952 273.956,352.701 275.729,353.339 277.539,353.865 279.379,354.276 281.24,354.571 283.116,354.748 285,354.808 286.884,354.748 288.76,354.571 290.621,354.276 292.461,353.865 294.271,353.339 296.044,352.701 297.773,351.952 299.453,351.097 301.075,350.137 302.634,349.078 304.123,347.923 305.536,346.677 306.869,345.344 308.115,343.93 309.271,342.441 310.33,340.882 311.289,339.26 312.145,337.581 312.893,335.851 313.532,334.078 314.057,332.268 314.469,330.429 314.763,328.568 314.941,326.691" transform="rotate(0 0 0)" fill="cyan" stroke="black" stroke-width="0.5" />
<polygon points="195,324.808 194.941,322.924 194.763,321.048 194.469,319.186 194.057,317.347 193.532,315.537 192.893,313.764 192.145,312.034 191.289,310.355 190.33,308.733 189.271,307.174 188.115,305.685 186.869,304.271 185.536,302.939 184.123,301.692 182.634,300.537 181.075,299.478 179.453,298.518 177.773,297.663 176.044,296.914 174.271,296.276 172.461,295.75 170.621,295.339 168.76,295.044 166.884,294.867 165,294.808 163.116,294.867 161.24,295.044 159.379,295.339 157.539,295.75 155.729,296.276 153.956,296.914 152.227,297.663 150.547,298.518 148.925,299.478 147.366,300.537 145.877,301.692 144.464,302.939 143.131,304.271 141.885,305.685 140.729,307.174 139.67,308.733 138.711,310.355 137.855,312.034 137.107,313.764 136.468,315.537 135.943,317.347 135.531,319.186 135.237,321.048 135.059,322.924 135,324.808 135.059,326.691 135.237,328.568 135.531,330.429 135.943,332.268 136.468,334.078 137.107,335.851 137.855,337.581 138.711,339.26 139.67,340.882 140.729,342.441 141.885,343.93 143.131,345.344 144.464,346.677 145.877,347.923 147.366,349.078 148.925,350.137 150.547,351.097 152.227,351.952 153.956,352.701 155.729,353.339 157.539,353.865 159.379,354.276 161.24,354.571 163.116,354.748 165,354.808 166.884,354.748 168.76,354.571 170.621,354.276 172.461,353.865 174.271,353.339 176.044,352.701 177.773,351.952 179.453,351.097 181.075,350.137 182.634,349.078 184.123,347.923 185.536,346.677 186.869,345.344 188.115,343.93 189.271,342.441 190.33,340.882 191.289,339.26 192.145,337.581 192.893,335.851 193.532,334.078 194.057,332.268 194.469,330.429 194.763,328.568 194.941,326.691" transform="rotate(0 0 0)" fill="cyan" stroke="black" stroke-width="0.5" />
<polygon points="375,324.808 374.941,322.924 374.763,321.048 374.469,319.186 374.057,317.347 373.532,315.537 372.893,313.764 372.145,312.034 371.289,310.355 370.33,308.733 369.271,307.174 368.115,305.685 366.869,304.271 365.536,302.939 364.123,301.692 362.634,300.537 361.075,299.478 359.453,298.518 357.773,297.663 356.044,296.914 354.271,296.276 352.461,295.75 350.621,295.339 348.76,295.044 346.884,294.867 345,294.808 343.116,294.867 341.24,295.044 339.379,295.339 337.539,295.75 335.729,296.276 333.956,296.914 332.227,297.663 330.547,298.518 328.925,299.478 327.366,300.537 325.877,301.692 324.464,302.939 323.131,304.271 321.885,305.685 320.729,307.174 319.67,308.733 318.711,310.355 317.855,312.034 317.107,313.764 316.468,315.537 315.943,317.347 315.531,319.186 315.237,321.048 315.059,322.924 315,324.808 315.059,326.691 315.237,328.568 315.531,330.429 315.943,332.268 316.468,334.078 317.107,335.851 317.855,337.581 318.711,339.26 319.67,340.882 320.729,342.441 321.885,343.93 323.131,345.344 324.464,346.677 325.877,347.923 327.366,349.078 328.925,350.137 330.547,351.097 332.227,351.952 333.956,352.701 335.729,353.339 337.539,353.865 339.379,354.276 341.24,354.571 343.116,354.748 345,354.808 346.884,354.748 348.76,354.571 350.621,354.276 352.461,353.865 354.271,353.339 356.044,352.701 357.773,351.952 359.453,351.097 361.075,350.137 362.634,349.078 364.123,347.923 365.536,346.677 366.869,345.344 368.115,343.93 369.271,342.441 370.33,340.882 371.289,339.26 372.145,337.581 372.893,335.851 373.532,334.078 374.057,332.268 374.469,330.429 374.763,328.568 374.941,326.691" transform="rotate(0 0 0)" fill="cyan" stroke="black" stroke-width="0.5" />
<polygon points="135,324.808 134.941,322.924 134.763,321.048 134.469,319.186 134.057,317.347 133.532,315.537 132.893,313.764 132.145,312.034 131.289,310.355 130.33,308.733 129.271,307.174 128.115,305.685 126.869,304.271 125.536,302.939 124.123,301.692 122.634,300.537 121.075,299.478 119.453,298.518 117.773,297.663 116.044,296.914 114.271,296.276 112.461,295.75 110.621,295.339 108.76,295.044 106.884,294.867 105,294.808 103.116,294.867 101.24,295.044 99.3786,295.339 97.5393,295.75 95.7295,296.276 93.9563,296.914 92.2266,297.663 90.5474,298.518 88.9252,299.478 87.3664,300.537 85.8773,301.692 84.4636,302.939 83.1309,304.271 81.8846,305.685 80.7295,307.174 79.6702,308.733 78.7108,310.355 77.8552,312.034 77.1067,313.764 76.4683,315.537 75.9425,317.347 75.5314,319.186 75.2366,321.048 75.0592,322.924 75,324.808 75.0592,326.691 75.2366,328.568 75.5314,330.429 75.9425,332.268 76.4683,334.078 77.1067,335.851 77.8552,337.581 78.7108,339.26 79.6702,340.882 80.7295,342.441 81.8846,343.93 83.1309,345.344 84.4636,346.677 85.8773,347.923 87.3664,349.078 88.9252,350.137 90.5474,351.097 92.2266,351.952 93.9563,352.701 95.7295,353.339 97.5393,353.865 99.3786,354.276 101.24,354.571 103.116,354.748 105,354.808 106.884,354.748 108.76,354.571 110.621,354.276 112.461,353.865 114.271,353.339 116.044,352.701 117.773,351.952 119.453,351.097 121.075,350.137 122.634,349.078 124.123,347.923 125.536,346.677 126.869,345.344 128.115,343.93 129.271,342.441 130.33,340.882 131.289,339.26 132.145,337.581 132.893,335.851 133.532,334.078 134.057,332.268 134.469,330.429 134.763,328.568 134.941,326.691" transform="rotate(0 0 0)" fill="cyan" stroke="black" stroke-width="0.5" />
<polygon points="435,324.808 434.941,322.924 434.763,321.048 434.469,319.186 434.057,317.347 433.532,315.537 432.893,313.764 432.145,312.034 431.289,310.355 430.33,308.733 429.271,307.174 428.115,305.685 426.869,304.271 425.536,302.939 424.123,301.692 422.634,300.537 421.075,299.478 419.453,298.518 417.773,297.663 416.044,296.914 414.271,296.276 412.461,295.75 410.621,295.339 408.76,295.044 406.884,294.867 405,294.808 403.116,294.867 401.24,295.044 399.379,295.339 397.539,295.75 395.729,296.276 393.956,296.914 392.227,297.663 390.547,298.518 388.925,299.478 387.366,300.537 385.877,301.692 384.464,302.939 383.131,304.271 381.885,305.685 380.729,307.174 379.67,308.733 378.711,310.355 377.855,312.034 377.107,313.764 376.468,315.537 375.943,317.347 375.531,319.186 375.237,321.048 375.059,322.924 375,324.808 375.059,326.691 375.237,328.568 375.531,330.429 375.943,332.268 376.468,334.078 377.107,335.851 377.855,337.581 378.711,339.26 379.67,340.882 380.729,342.441 381.885,343.93 383.131,345.344 384.464,346.677 385.877,347.923 387.366,349.078 388.925,350.137 390.547,351.097 392.227,351.952 393.956,352.701 395.729,353.339 397.539,353.865 399.379,354.276 401.24,354.571 403.116,354.748 405,354.808 406.884,354.748 408.76,354.571 410.621,354.276 412.461,353.865 414.271,353.339 416.044,352.701 417.773,351.952 419.453,351.097 421.075,350.137 422.634,349.078 424.123,347.923 425.536,346.677 426.869,345.344 428.115,343.93 429.271,342.441 430.33,340.882 431.289,339.26 432.145,337.581 432.893,335.851 433.532,334.078 434.057,332.268 434.469,330.429 434.763,328.568 434.941,326.691" transform="rotate(0 0 0)" fill="cyan" stroke="black" stroke-width="0.5" />
<polygon points="285,376.769 284.941,374.885 284.763,373.009 284.469,371.148 284.057,369.308 283.532,367.499 282.893,365.725 282.145,363.996 281.289,362.317 280.33,360.694 279.271,359.136 278.115,357.646 276.869,356.233 275.536,354.9 274.123,353.654 272.634,352.499 271.075,351.439 269.453,350.48 267.773,349.624 266.044,348.876 264.271,348.237 262.461,347.712 260.621,347.301 258.76,347.006 256.884,346.828 255,346.769 253.116,346.828 251.24,347.006 249.379,347.301 247.539,347.712 245.729,348.237 243.956,348.876 242.227,349.624 240.547,350.48 238.925,351.439 237.366,352.499 235.877,353.654 234.464,354.9 233.131,356.233 231.885,357.646 230.729,359.136 229.67,360.694 228.711,362.317 227.855,363.996 227.107,365.725 226.468,367.499 225.943,369.308 225.531,371.148 225.237,373.009 225.059,374.885 225,376.769 225.059,378.653 225.237,380.529 225.531,382.391 225.943,384.23 226.468,386.04 227.107,387.813 227.855,389.543 228.711,391.222 229.67,392.844 230.729,394.403 231.885,395.892 233.131,397.306 234.464,398.638 235.877,399.885 237.366,401.04 238.925,402.099 240.547,403.058 242.227,403.914 243.956,404.662 245.729,405.301 247.539,405.827 249.379,406.238 251.24,406.533 253.116,406.71 255,406.769 256.884,406.71 258.76,406.533 260.621,406.238 262.461,405.827 264.271,405.301 266.044,404.662 267.773,403.914 269.453,403.058 271.075,402.099 272.634,401.04 274.123,399.885 275.536,398.638 276.869,397.306 278.115,395.892 279.271,394.403 280.33,392.844 281.289,391.222 282.145,389.543 282.893,387.813 283.532,386.04 284.057,384.23 284.469,382.391 284.763,380.529 284.941,378.653" transform="rotate(0 0 0)" fill="cyan" stroke="black" stroke-width="0.5" />
<polygon points="225,376.769 224.941,374.885 224.763,373.009 224.469,371.148 224.057,369.308 223.532,367.499 222.893,365.725 222.145,363.996 221.289,362.317 220.33,360.694 219.271,359.136 218.115,357.646 216.869,356.233 215.536,354.9 214.123,353.654 212.634,352.499 211.075,351.439 209.453,350.48 207.773,349.624 206.044,348.876 204.271,348.237 202.461,347.712 200.621,347.301 198.76,347.006 196.884,346.828 195,346.769 193.116,346.828 191.24,347.006 189.379,347.301 187.539,347.712 185.729,348.237 183.956,348.876 182.227,349.624 180.547,350.48 178.925,351.439 177.366,352.499 175.877,353.654 174.464,354.9 173.131,356.233 171.885,357.646 170.729,359.136 169.67,360.694 168.711,362.317 167.855,363.996 167.107,365.725 166.468,367.499 165.943,369.308 165.531,371.148 165.237,373.009 165.059,374.885 165,376.769 165.059,378.653 165.237,380.529 165.531,382.391 165.943,384.23 166.468,386.04 167.107,387.813 167.855,389.543 168.711,391.222 169.67,392.844 170.729,394.403 171.885,395.892 173.131,397.306 174.464,398.638 175.877,399.885 177.366,401.04 178.925,402.099 180.547,403.058 182.227,403.914 183.956,404.662 185.729,405.301 187.539,405.827 189.379,406.238 191.24,406.533 193.116,406.71 195,406.769 196.884,406.71 198.76,406.533 200.621,406.238 202.461,405.827 204.271,405.301 206.044,404.662 207.773,403.914 209.453,403.058 211.075,402.099 212.634,401.04 214.123,399.885 215.536,398.638 216.869,397.306 218.115,395.892 219.271,394.403 220.33,392.844 221.289,391.222 222.145,389.543 222.893,387.813 223.532,386.04 224.057,384.23 224.469,382.391 224.763,380.529 224.941,378.653" transform="rotate(0 0 0)" fill="cyan" stroke="black" stroke-width="0.5" />
<polygon points="165,376.769 164.941,374.885 164.763,373.009 164.469,371.148 164.057,369.308 163.532,367.499 162.893,365.725 162.145,363.996 161.289,362.317 160.33,360.694 159.271,359.136 158.115,357.646 156.869,356.233 155.536,354.9 154.123,353.654 152.634,352.499 151.075,351.439 149.453,350.48 147.773,349.624 146.044,348.876 144.271,348.237 142.461,347.712 140.621,347.301 138.76,347.006 136.884,346.828 135,346.769 133.116,346.828 131.24,347.006 129.379,347.301 127.539,347.712 125.729,348.237 123.956,348.876 122.227,349.624 120.547,350.48 118.925,351.439 117.366,352.499 115.877,353.654 114.464,354.9 113.131,356.233 111.885,357.646 110.729,359.136 109.67,360.694 108.711,362.317 107.855,363.996 107.107,365.725 106.468,367.499 105.943,369.308 105.531,371.148 105.237,373.009 105.059,374.885 105,376.769 105.059,378.653 105.237,380.529 105.531,382.391 105.943,384.23 106.468,386.04 107.107,387.813 107.855,389.543 108.711,391.222 109.67,392.844 110.729,394.403 111.885,395.892 113.131,397.306 114.464,398.638 115.877,399.885 117.366,401.04 118.925,402.099 120.547,403.058 122.227,403.914 123.956,404.662 125.729,405.301 127.539,405.827 129.379,406.238 131.24,406.533 133.116,406.71 135,406.769 136.884,406.71 138.76,406.533 140.621,406.238 142.461,405.827 144.271,405.301 146.044,404.662 147.773,403.914 149.453,403.058 151.075,402.099 152.634,401.04 154.123,399.885 155.536,398.638 156.869,397.306 158.115,395.892 159.271,394.403 160.33,392.844 161.289,391.222 162.145,389.543 162.893,387.813 163.532,386.04 164.057,384.23 164.469,382.391 164.763,380.529 164.941,378.653" transform="rotate(0 0 0)" fill="cyan" stroke="black" stroke-width="0.5" />
<polygon points="105,376.769 104.941,374.885 104.763,373.009 104.469,371.148 104.057,369.308 103.532,367.499 102.893,365.725 102.145,363.996 101.289,362.317 100.33,360.694 99.2705,359.136 98.1154,357.646 96.8691,356.233 95.5364,354.9 94.1227,353.654 92.6336,352.499 91.0748,351.439 89.4526,350.48 87.7734,349.624 86.0437,348.876 84.2705,348.237 82.4607,347.712 80.6214,347.301 78.76,347.006 76.8837,346.828 75,346.769 73.1163,346.828 71.24,347.006 69.3786,347.301 67.5393,347.712 65.7295,348.237 63.9563,348.876 62.2266,349.624 60.5474,350.48 58.9252,351.439 57.3664,352.499 55.8773,353.654 54.4636,354.9 53.1309,356.233 51.8846,357.646 50.7295,359.136 49.6702,360.694 48.7108,362.317 47.8552,363.996 47.1067,365.725 46.4683,367.499 45.9425,369.308 45.5314,371.148 45.2366,373.009 45.0592,374.885 45,376.769 45.0592,378.653 45.2366,380.529 45.5314,382.391 45.9425,384.23 46.4683,386.04 47.1067,387.813 47.8552,389.543 48.7108,391.222 49.6702,392.844 50.7295,394.403 51.8846,395.892 53.1309,397.306 54.4636,398.638 55.8773,399.885 57.3664,401.04 58.9252,402.099 60.5474,403.058 62.2266,403.914 63.9563,404.662 65.7295,405.301 67.5393,405.827 69.3786,406.238 71.24,406.533 73.1163,406.71 75,406.769 76.8837,406.71 78.76,406.533 80.6214,406.238 82.4607,405.827 84.2705,405.301 86.0437,404.662 87.7734,403.914 89.4526,403.058 91.0748,402.099 92.6336,401.04 94.1227,399.885 95.5364,398.638 96.8691,397.306 98.1154,395.892 99.2705,394.403 100.33,392.844 101.289,391.222 102.145,389.543 102.893,387.813 103.532,386.04 104.057,384.23 104.469,382.391 104.763,380.529 104.941,378.653" transform="rotate(0 0 0)" fill="cyan" stroke="black" stroke-width="0.5" />
<polygon points="345,376.769 344.941,374.885 344.763,373.009 344.469,371.148 344.057,369.308 343.532,367.499 342.893,365.725 342.145,363.996 341.289,362.317 340.33,360.694 339.271,359.136 338.115,357.646 336.869,356.233 335.536,354.9 334.123,353.654 332.634,352.499 331.075,351.439 329.453,350.48 327.773,349.624 326.044,348.876 324.271,348.237 322.461,347.712 320.621,347.301 318.76,347.006 316.884,346.828 315,346.769 313.116,346.828 311.24,347.006 309.379,347.301 307.539,347.712 305.729,348.237 303.956,348.876 302.227,349.624 300.547,350.48 298.925,351.439 297.366,352.499 295.877,353.654 294.464,354.9 293.131,356.233 291.885,357.646 290.729,359.136 289.67,360.694 288.711,362.317 287.855,363.996 287.107,365.725 286.468,367.499 285.943,369.308 285.531,371.148 285.237,373.009 285.059,374.885 285,376.769 285.059,378.653 285.237,380.529 285.531,382.391 285.943,384.23 286.468,386.04 287.107,387.813 287.855,389.543 288.711,391.222 289.67,392.844 290.729,394.403 291.885,395.892 293.131,397.306 294.464,398.638 295.877,399.885 297.366,401.04 298.925,402.099 300.547,403.058 302.227,403.914 303.956,404.662 305.729,405.301 307.539,405.827 309.379,406.238 311.24,406.533 313.116,406.71 315,406.769 316.884,406.71 318.76,406.533 320.621,406.238 322.461,405.827 324.271,405.301 326.044,404.662 327.773,403.914 329.453,403.058 331.075,402.099 332.634,401.04 334.123,399.885 335.536,398.638 336.869,397.306 338.115,395.892 339.271,394.403 340.33,392.844 341.289,391.222 342.145,389.543 342.893,387.813 343.532,386.04 344.057,384.23 344.469,382.391 344.763,380.529 344.941,378.653" transform="rotate(0 0 0)" fill="cyan" stroke="black" stroke-width="0.5" />
<polygon points="405,376.769 404.941,374.885 404.763,373.009 404.469,371.148 404.057,369.308 403.532,367.499 402.893,365.725 402.145,363.996 401.289,362.317 400.33,360.694 399.271,359.136 398.115,357.646 396.869,356.233 395.536,354.9 394.123,353.654 392.634,352.499 391.075,351.439 389.453,350.48 387.773,349.624 386.044,348.876 384.271,348.237 382.461,347.712 380.621,347.301 378.76,347.006 376.884,346.828 375,346.769 373.116,346.828 371.24,347.006 369.379,347.301 367.539,347.712 365.729,348.237 363.956,348.876 362.227,349.624 360.547,350.48 358.925,351.439 357.366,352.499 355.877,353.654 354.464,354.9 353.131,356.233 351.885,357.646 350.729,359.136 349.67,360.694 348.711,362.317 347.855,363.996 347.107,365.725 346.468,367.499 345.943,369.308 345.531,371.148 345.237,373.009 345.059,374.885 345,376.769 345.059,378.653 345.237,380.529 345.531,382.391 345.943,384.23 346.468,386.04 347.107,387.813 347.855,389.543 348.711,391.222 349.67,392.844 350.729,394.403 351.885,395.892 353.131,397.306 354.464,398.638 355.877,399.885 357.366,401.04 358.925,402.099 360.547,403.058 362.227,403.914 363.956,404.662 365.729,405.301 367.539,405.827 369.379,406.238 371.24,406.533 373.116,406.71 375,406.769 376.884,406.71 378.76,406.533 380.621,406.238 382.461,405.827 384.271,405.301 386.044,404.662 387.773,403.914 389.453,403.058 391.075,402.099 392.634,401.04 394.123,399.885 395.536,398.638 396.869,397.306 398.115,395.892 399.271,394.403 400.33,392.844 401.289,391.222 402.145,389.543 402.893,387.813 403.532,386.04 404.057,384.23 404.469,382.391 404.763,380.529 404.941,378.653" transform="rotate(0 0 0)" fill="cyan" stroke="black" stroke-width="0.5" />
<polygon points="465,376.769 464.941,374.885 464.763,373.009 464.469,371.148 464.057,369.308 463.532,367.499 462.893,365.725 462.145,363.996 461.289,362.317 460.33,360.694 459.271,359.136 458.115,357.646 456.869,356.233 455.536,354.9 454.123,353.654 452.634,352.499 451.075,351.439 449.453,350.48 447.773,349.624 446.044,348.876 444.271,348.237 442.461,347.712 440.621,347.301 438.76,347.006 436.884,346.828 435,346.769 433.116,346.828 431.24,347.006 429.379,347.301 427.539,347.712 425.729,348.237 423.956,348.876 422.227,349.624 420.547,350.48 418.925,351.439 417.366,352.499 415.877,353.654 414.464,354.9 413.131,356.233 411.885,357.646 410.729,359.136 409.67,360.694 408.711,362.317 407.855,363.996 407.107,365.725 406.468,367.499 405.943,369.308 405.531,371.148 405.237,373.009 405.059,374.885 405,376.769 405.059,378.653 405.237,380.529 405.531,382.391 405.943,384.23 406.468,386.04 407.107,387.813 407.855,389.543 408.711,391.222 409.67,392.844 410.729,394.403 411.885,395.892 413.131,397.306 414.464,398.638 415.877,399.885 417.366,401.04 418.925,402.099 420.547,403.058 422.227,403.914 423.956,404.662 425.729,405.301 427.539,405.827 429.379,406.238 431.24,406.533 433.116,406.71 435,406.769 436.884,406.71 438.76,406.533 440.621,406.238 442.461,405.827 444.271,405.301 446.044,404.662 447.773,403.914 449.453,403.058 451.075,402.099 452.634,401.04 454.123,399.885 455.536,398.638 456.869,397.306 458.115,395.892 459.271,394.403 460.33,392.844 461.289,391.222 462.145,389.543 462.893,387.813 463.532,386.04 464.057,384.23 464.469,382.391 464.763,380.529 464.941,378.653" transform="rotate(0 0 0)" fill="cyan" stroke="black" stroke-width="0.5" />
</svg>
