<svg version="1.1" baseProfile="full" xmlns="http://www.w3.org/2000/svg">
<polygon points="255,5 5,438.013 505,438.013" transform="rotate(0 0 0)" fill="purple" stroke="black" stroke-width="0.5" />
<polygon points="35,423.013 35,438.013 145,438.013 145,423.013" transform="rotate(0 0 0)" fill="green" stroke="black" stroke-width="0.5" />
<polygon points="145,423.013 145,438.013 255,438.013 255,423.013" transform="rotate(0 0 0)" fill="green" stroke="black" stroke-width="0.5" />
<polygon points="255,423.013 255,438.013 365,438.013 365,423.013" transform="rotate(0 0 0)" fill="green" stroke="black" stroke-width="0.5" />
<polygon points="365,423.013 365,438.013 475,438.013 475,423.013" transform="rotate(0 0 0)" fill="green" stroke="black" stroke-width="0.5" />
<polygon points="35,408.013 35,423.013 145,423.013 145,408.013" transform="rotate(0 0 0)" fill="green" stroke="black" stroke-width="0.5" />
<polygon points="145,408.013 145,423.013 255,423.013 255,408.013" transform="rotate(0 0 0)" fill="green" stroke="black" stroke-width="0.5" />
<polygon points="255,408.013 255,423.013 365,423.013 365,408.013" transform="rotate(0 0 0)" fill="green" stroke="black" stroke-width="0.5" />
<polygon points="365,408.013 365,423.013 475,423.013 475,408.013" transform="rotate(0 0 0)" fill="green" stroke="black" stroke-width="0.5" />
<polygon points="35,393.013 35,408.013 145,408.013 145,393.013" transform="rotate(0 0 0)" fill="green" stroke="black" stroke-width="0.5" />
<polygon points="145,393.013 145,408.013 255,408.013 255,393.013" transform="rotate(0 0 0)" fill="green" stroke="black" stroke-width="0.5" />
<polygon points="255,393.013 255,408.013 365,408.013 365,393.013" transform="rotate(0 0 0)" fill="green" stroke="black" stroke-width="0.5" />
<polygon points="365,393.013 365,408.013 475,408.013 475,393.013" transform="rotate(0 0 0)" fill="green" stroke="black" stroke-width="0.5" />
<polygon points="90,378.013 90,393.013 200,393.013 200,378.013" transform="rotate(0 0 0)" fill="green" stroke="black" stroke-width="0.5" />
<polygon points="200,378.013 200,393.013 310,393.013 310,378.013" transform="rotate(0 0 0)" fill="green" stroke="black" stroke-width="0.5" />
<polygon points="310,378.013 310,393.013 420,393.013 420,378.013" transform="rotate(0 0 0)" fill="green" stroke="black" stroke-width="0.5" />
<polygon points="90,363.013 90,378.013 200,378.013 200,363.013" transform="rotate(0 0 0)" fill="green" stroke="black" stroke-width="0.5" />
<polygon points="200,363.013 200,378.013 310,378.013 310,363.013" transform="rotate(0 0 0)" fill="green" stroke="black" stroke-width="0.5" />
<polygon points="310,363.013 310,378.013 420,378.013 420,363.013" transform="rotate(0 0 0)" fill="green" stroke="black" stroke-width="0.5" />
<polygon points="90,348.013 90,363.013 200,363.013 200,348.013" transform="rotate(0 0 0)" fill="green" stroke="black" stroke-width="0.5" />
<polygon points="200,348.013 200,363.013 310,363.013 310,348.013" transform="rotate(0 0 0)" fill="green" stroke="black" stroke-width="0.5" />
<polygon points="310,348.013 310,363.013 420,363.013 420,348.013" transform="rotate(0 0 0)" fill="green" stroke="black" stroke-width="0.5" />
<polygon points="90,333.013 90,348.013 200,348.013 200,333.013" transform="rotate(0 0 0)" fill="green" stroke="black" stroke-width="0.5" />
<polygon points="200,333.013 200,348.013 310,348.013 310,333.013" transform="rotate(0 0 0)" fill="green" stroke="black" stroke-width="0.5" />
<polygon points="310,333.013 310,348.013 420,348.013 420,333.013" transform="rotate(0 0 0)" fill="green" stroke="black" stroke-width="0.5" />
<polygon points="90,318.013 90,333.013 200,333.013 200,318.013" transform="rotate(0 0 0)" fill="green" stroke="black" stroke-width="0.5" />
<polygon points="200,318.013 200,333.013 310,333.013 310,318.013" transform="rotate(0 0 0)" fill="green" stroke="black" stroke-width="0.5" />
<polygon points="310,318.013 310,333.013 420,333.013 420,318.013" transform="rotate(0 0 0)" fill="green" stroke="black" stroke-width="0.5" />
<polygon points="90,303.013 90,318.013 200,318.013 200,303.013" transform="rotate(0 0 0)" fill="green" stroke="black" stroke-width="0.5" />
<polygon points="200,303.013 200,318.013 310,318.013 310,303.013" transform="rotate(0 0 0)" fill="green" stroke="black" stroke-width="0.5" />
<polygon points="310,303.013 310,318.013 420,318.013 420,303.013" transform="rotate(0 0 0)" fill="green" stroke="black" stroke-width="0.5" />
<polygon points="145,288.013 145,303.013 255,303.013 255,288.013" transform="rotate(0 0 0)" fill="green" stroke="black" stroke-width="0.5" />
<polygon points="255,288.013 255,303.013 365,303.013 365,288.013" transform="rotate(0 0 0)" fill="green" stroke="black" stroke-width="0.5" />
<polygon points="145,273.013 145,288.013 255,288.013 255,273.013" transform="rotate(0 0 0)" fill="green" stroke="black" stroke-width="0.5" />
<polygon points="255,273.013 255,288.013 365,288.013 365,273.013" transform="rotate(0 0 0)" fill="green" stroke="black" stroke-width="0.5" />
<polygon points="145,258.013 145,273.013 255,273.013 255,258.013" transform="rotate(0 0 0)" fill="green" stroke="black" stroke-width="0.5" />
<polygon points="255,258.013 255,273.013 365,273.013 365,258.013" transform="rotate(0 0 0)" fill="green" stroke="black" stroke-width="0.5" />
<polygon points="145,243.013 145,258.013 255,258.013 255,243.013" transform="rotate(0 0 0)" fill="green" stroke="black" stroke-width="0.5" />
<polygon points="255,243.013 255,258.013 365,258.013 365,243.013" transform="rotate(0 0 0)" fill="green" stroke="black" stroke-width="0.5" />
<polygon points="145,228.013 145,243.013 255,243.013 255,228.013" transform="rotate(0 0 0)" fill="green" stroke="black" stroke-width="0.5" />
<polygon points="255,228.013 255,243.013 365,243.013 365,228.013" transform="rotate(0 0 0)" fill="green" stroke="black" stroke-width="0.5" />
<polygon points="145,213.013 145,228.013 255,228.013 255,213.013" transform="rotate(0 0 0)" fill="green" stroke="black" stroke-width="0.5" />
<polygon points="255,213.013 255,228.013 365,228.013 365,213.013" transform="rotate(0 0 0)" fill="green" stroke="black" stroke-width="0.5" />
<polygon points="145,198.013 145,213.013 255,213.013 255,198.013" transform="rotate(0 0 0)" fill="green" stroke="black" stroke-width="0.5" />
<polygon points="255,198.013 255,213.013 365,213.013 365,198.013" transform="rotate(0 0 0)" fill="green" stroke="black" stroke-width="0.5" />
<polygon points="200,183.013 200,198.013 310,198.013 310,183.013" transform="rotate(0 0 0)" fill="green" stroke="black" stroke-width="0.5" />
<polygon points="200,168.013 200,183.013 310,183.013 310,168.013" transform="rotate(0 0 0)" fill="green" stroke="black" stroke-width="0.5" />
<polygon points="200,153.013 200,168.013 310,168.013 310,153.013" transform="rotate(0 0 0)" fill="green" stroke="black" stroke-width="0.5" />
<polygon points="200,138.013 200,153.013 310,153.013 310,138.013" transform="rotate(0 0 0)" fill="green" stroke="black" stroke-width="0.5" />
<polygon points="200,123.013 200,138.013 310,138.013 310,123.013" transform="rotate(0 0 0)" fill="green" stroke="black" stroke-width="0.5" />
<polygon points="200,108.013 200,123.013 310,123.013 310,108.013" transform="rotate(0 0 0)" fill="green" stroke="black" stroke-width="0.5" />
</svg>
