<svg version="1.1" baseProfile="full" xmlns="http://www.w3.org/2000/svg">
<polygon points="10,10 10,510 510,510 510,10" transform="rotate(0 0 0)" fill="purple" stroke="black" stroke-width="0.5" />
<polygon points="110,60 109.901,56.8605 109.606,53.7333 109.114,50.6309 108.429,47.5655 107.553,44.5492 106.489,41.5938 105.241,38.711 103.815,35.9123 102.216,33.2087 100.451,30.6107 98.5257,28.1288 96.4484,25.7726 94.2274,23.5516 91.8712,21.4743 89.3893,19.5492 86.7913,17.7836 84.0877,16.1847 81.289,14.7586 78.4062,13.5112 75.4508,12.4472 72.4345,11.5708 69.3691,10.8856 66.2667,10.3943 63.1395,10.0987 60,10 56.8605,10.0987 53.7333,10.3943 50.6309,10.8856 47.5655,11.5708 44.5492,12.4472 41.5938,13.5112 38.711,14.7586 35.9123,16.1847 33.2087,17.7836 30.6107,19.5492 28.1288,21.4743 25.7726,23.5516 23.5516,25.7726 21.4743,28.1288 19.5492,30.6107 17.7836,33.2087 16.1847,35.9123 14.7586,38.711 13.5112,41.5938 12.4472,44.5492 11.5708,47.5655 10.8856,50.6309 10.3943,53.7333 10.0987,56.8605 10,60 10.0987,63.1395 10.3943,66.2667 10.8856,69.3691 11.5708,72.4345 12.4472,75.4508 13.5112,78.4062 14.7586,81.289 16.1847,84.0877 17.7836,86.7913 19.5492,89.3893 21.4743,91.8712 23.5516,94.2274 25.7726,96.4484 28.1288,98.5257 30.6107,100.451 33.2087,102.216 35.9123,103.815 38.711,105.241 41.5938,106.489 44.5492,107.553 47.5655,108.429 50.6309,109.114 53.7333,109.606 56.8605,109.901 60,110 63.1395,109.901 66.2667,109.606 69.3691,109.114 72.4345,108.429 75.4508,107.553 78.4062,106.489 81.289,105.241 84.0877,103.815 86.7913,102.216 89.3893,100.451 91.8712,98.5257 94.2274,96.4484 96.4484,94.2274 98.5257,91.8712 100.451,89.3893 102.216,86.7913 103.815,84.0877 105.241,81.289 106.489,78.4062 107.553,75.4508 108.429,72.4345 109.114,69.3691 109.606,66.2667 109.901,63.1395" transform="rotate(0 0 0)" fill="green" stroke="black" stroke-width="0.5" />
<polygon points="210,60 209.901,56.8605 209.606,53.7333 209.114,50.6309 208.429,47.5655 207.553,44.5492 206.489,41.5938 205.241,38.711 203.815,35.9123 202.216,33.2087 200.451,30.6107 198.526,28.1288 196.448,25.7726 194.227,23.5516 191.871,21.4743 189.389,19.5492 186.791,17.7836 184.088,16.1847 181.289,14.7586 178.406,13.5112 175.451,12.4472 172.434,11.5708 169.369,10.8856 166.267,10.3943 163.14,10.0987 160,10 156.86,10.0987 153.733,10.3943 150.631,10.8856 147.566,11.5708 144.549,12.4472 141.594,13.5112 138.711,14.7586 135.912,16.1847 133.209,17.7836 130.611,19.5492 128.129,21.4743 125.773,23.5516 123.552,25.7726 121.474,28.1288 119.549,30.6107 117.784,33.2087 116.185,35.9123 114.759,38.711 113.511,41.5938 112.447,44.5492 111.571,47.5655 110.886,50.6309 110.394,53.7333 110.099,56.8605 110,60 110.099,63.1395 110.394,66.2667 110.886,69.3691 111.571,72.4345 112.447,75.4508 113.511,78.4062 114.759,81.289 116.185,84.0877 117.784,86.7913 119.549,89.3893 121.474,91.8712 123.552,94.2274 125.773,96.4484 128.129,98.5257 130.611,100.451 133.209,102.216 135.912,103.815 138.711,105.241 141.594,106.489 144.549,107.553 147.566,108.429 150.631,109.114 153.733,109.606 156.86,109.901 160,110 163.14,109.901 166.267,109.606 169.369,109.114 172.434,108.429 175.451,107.553 178.406,106.489 181.289,105.241 184.088,103.815 186.791,102.216 189.389,100.451 191.871,98.5257 194.227,96.4484 196.448,94.2274 198.526,91.8712 200.451,89.3893 202.216,86.7913 203.815,84.0877 205.241,81.289 206.489,78.4062 207.553,75.4508 208.429,72.4345 209.114,69.3691 209.606,66.2667 209.901,63.1395" transform="rotate(0 0 0)" fill="green" stroke="black" stroke-width="0.5" />
<polygon points="310,60 309.901,56.8605 309.606,53.7333 309.114,50.6309 308.429,47.5655 307.553,44.5492 306.489,41.5938 305.241,38.711 303.815,35.9123 302.216,33.2087 300.451,30.6107 298.526,28.1288 296.448,25.7726 294.227,23.5516 291.871,21.4743 289.389,19.5492 286.791,17.7836 284.088,16.1847 281.289,14.7586 278.406,13.5112 275.451,12.4472 272.434,11.5708 269.369,10.8856 266.267,10.3943 263.14,10.0987 260,10 256.86,10.0987 253.733,10.3943 250.631,10.8856 247.566,11.5708 244.549,12.4472 241.594,13.5112 238.711,14.7586 235.912,16.1847 233.209,17.7836 230.611,19.5492 228.129,21.4743 225.773,23.5516 223.552,25.7726 221.474,28.1288 219.549,30.6107 217.784,33.2087 216.185,35.9123 214.759,38.711 213.511,41.5938 212.447,44.5492 211.571,47.5655 210.886,50.6309 210.394,53.7333 210.099,56.8605 210,60 210.099,63.1395 210.394,66.2667 210.886,69.3691 211.571,72.4345 212.447,75.4508 213.511,78.4062 214.759,81.289 216.185,84.0877 217.784,86.7913 219.549,89.3893 221.474,91.8712 223.552,94.2274 225.773,96.4484 228.129,98.5257 230.611,100.451 233.209,102.216 235.912,103.815 238.711,105.241 241.594,106.489 244.549,107.553 247.566,108.429 250.631,109.114 253.733,109.606 256.86,109.901 260,110 263.14,109.901 266.267,109.606 269.369,109.114 272.434,108.429 275.451,107.553 278.406,106.489 281.289,105.241 284.088,103.815 286.791,102.216 289.389,100.451 291.871,98.5257 294.227,96.4484 296.448,94.2274 298.526,91.8712 300.451,89.3893 302.216,86.7913 303.815,84.0877 305.241,81.289 306.489,78.4062 307.553,75.4508 308.429,72.4345 309.114,69.3691 309.606,66.2667 309.901,63.1395" transform="rotate(0 0 0)" fill="green" stroke="black" stroke-width="0.5" />
<polygon points="410,60 409.901,56.8605 409.606,53.7333 409.114,50.6309 408.429,47.5655 407.553,44.5492 406.489,41.5938 405.241,38.711 403.815,35.9123 402.216,33.2087 400.451,30.6107 398.526,28.1288 396.448,25.7726 394.227,23.5516 391.871,21.4743 389.389,19.5492 386.791,17.7836 384.088,16.1847 381.289,14.7586 378.406,13.5112 375.451,12.4472 372.434,11.5708 369.369,10.8856 366.267,10.3943 363.14,10.0987 360,10 356.86,10.0987 353.733,10.3943 350.631,10.8856 347.566,11.5708 344.549,12.4472 341.594,13.5112 338.711,14.7586 335.912,16.1847 333.209,17.7836 330.611,19.5492 328.129,21.4743 325.773,23.5516 323.552,25.7726 321.474,28.1288 319.549,30.6107 317.784,33.2087 316.185,35.9123 314.759,38.711 313.511,41.5938 312.447,44.5492 311.571,47.5655 310.886,50.6309 310.394,53.7333 310.099,56.8605 310,60 310.099,63.1395 310.394,66.2667 310.886,69.3691 311.571,72.4345 312.447,75.4508 313.511,78.4062 314.759,81.289 316.185,84.0877 317.784,86.7913 319.549,89.3893 321.474,91.8712 323.552,94.2274 325.773,96.4484 328.129,98.5257 330.611,100.451 333.209,102.216 335.912,103.815 338.711,105.241 341.594,106.489 344.549,107.553 347.566,108.429 350.631,109.114 353.733,109.606 356.86,109.901 360,110 363.14,109.901 366.267,109.606 369.369,109.114 372.434,108.429 375.451,107.553 378.406,106.489 381.289,105.241 384.088,103.815 386.791,102.216 389.389,100.451 391.871,98.5257 394.227,96.4484 396.448,94.2274 398.526,91.8712 400.451,89.3893 402.216,86.7913 403.815,84.0877 405.241,81.289 406.489,78.4062 407.553,75.4508 408.429,72.4345 409.114,69.3691 409.606,66.2667 409.901,63.1395" transform="rotate(0 0 0)" fill="green" stroke="black" stroke-width="0.5" />
<polygon points="510,60 509.901,56.8605 509.606,53.7333 509.114,50.6309 508.429,47.5655 507.553,44.5492 506.489,41.5938 505.241,38.711 503.815,35.9123 502.216,33.2087 500.451,30.6107 498.526,28.1288 496.448,25.7726 494.227,23.5516 491.871,21.4743 489.389,19.5492 486.791,17.7836 484.088,16.1847 481.289,14.7586 478.406,13.5112 475.451,12.4472 472.434,11.5708 469.369,10.8856 466.267,10.3943 463.14,10.0987 460,10 456.86,10.0987 453.733,10.3943 450.631,10.8856 447.566,11.5708 444.549,12.4472 441.594,13.5112 438.711,14.7586 435.912,16.1847 433.209,17.7836 430.611,19.5492 428.129,21.4743 425.773,23.5516 423.552,25.7726 421.474,28.1288 419.549,30.6107 417.784,33.2087 416.185,35.9123 414.759,38.711 413.511,41.5938 412.447,44.5492 411.571,47.5655 410.886,50.6309 410.394,53.7333 410.099,56.8605 410,60 410.099,63.1395 410.394,66.2667 410.886,69.3691 411.571,72.4345 412.447,75.4508 413.511,78.4062 414.759,81.289 416.185,84.0877 417.784,86.7913 419.549,89.3893 421.474,91.8712 423.552,94.2274 425.773,96.4484 428.129,98.5257 430.611,100.451 433.209,102.216 435.912,103.815 438.711,105.241 441.594,106.489 444.549,107.553 447.566,108.429 450.631,109.114 453.733,109.606 456.86,109.901 460,110 463.14,109.901 466.267,109.606 469.369,109.114 472.434,108.429 475.451,107.553 478.406,106.489 481.289,105.241 484.088,103.815 486.791,102.216 489.389,100.451 491.871,98.5257 494.227,96.4484 496.448,94.2274 498.526,91.8712 500.451,89.3893 502.216,86.7913 503.815,84.0877 505.241,81.289 506.489,78.4062 507.553,75.4508 508.429,72.4345 509.114,69.3691 509.606,66.2667 509.901,63.1395" transform="rotate(0 0 0)" fill="green" stroke="black" stroke-width="0.5" />
<polygon points="110,160 109.901,156.86 109.606,153.733 109.114,150.631 108.429,147.566 107.553,144.549 106.489,141.594 105.241,138.711 103.815,135.912 102.216,133.209 100.451,130.611 98.5257,128.129 96.4484,125.773 94.2274,123.552 91.8712,121.474 89.3893,119.549 86.7913,117.784 84.0877,116.185 81.289,114.759 78.4062,113.511 75.4508,112.447 72.4345,111.571 69.3691,110.886 66.2667,110.394 63.1395,110.099 60,110 56.8605,110.099 53.7333,110.394 50.6309,110.886 47.5655,111.571 44.5492,112.447 41.5938,113.511 38.711,114.759 35.9123,116.185 33.2087,117.784 30.6107,119.549 28.1288,121.474 25.7726,123.552 23.5516,125.773 21.4743,128.129 19.5492,130.611 17.7836,133.209 16.1847,135.912 14.7586,138.711 13.5112,141.594 12.4472,144.549 11.5708,147.566 10.8856,150.631 10.3943,153.733 10.0987,156.86 10,160 10.0987,163.14 10.3943,166.267 10.8856,169.369 11.5708,172.434 12.4472,175.451 13.5112,178.406 14.7586,181.289 16.1847,184.088 17.7836,186.791 19.5492,189.389 21.4743,191.871 23.5516,194.227 25.7726,196.448 28.1288,198.526 30.6107,200.451 33.2087,202.216 35.9123,203.815 38.711,205.241 41.5938,206.489 44.5492,207.553 47.5655,208.429 50.6309,209.114 53.7333,209.606 56.8605,209.901 60,210 63.1395,209.901 66.2667,209.606 69.3691,209.114 72.4345,208.429 75.4508,207.553 78.4062,206.489 81.289,205.241 84.0877,203.815 86.7913,202.216 89.3893,200.451 91.8712,198.526 94.2274,196.448 96.4484,194.227 98.5257,191.871 100.451,189.389 102.216,186.791 103.815,184.088 105.241,181.289 106.489,178.406 107.553,175.451 108.429,172.434 109.114,169.369 109.606,166.267 109.901,163.14" transform="rotate(0 0 0)" fill="green" stroke="black" stroke-width="0.5" />
<polygon points="210,160 209.901,156.86 209.606,153.733 209.114,150.631 208.429,147.566 207.553,144.549 206.489,141.594 205.241,138.711 203.815,135.912 202.216,133.209 200.451,130.611 198.526,128.129 196.448,125.773 194.227,123.552 191.871,121.474 189.389,119.549 186.791,117.784 184.088,116.185 181.289,114.759 178.406,113.511 175.451,112.447 172.434,111.571 169.369,110.886 166.267,110.394 163.14,110.099 160,110 156.86,110.099 153.733,110.394 150.631,110.886 147.566,111.571 144.549,112.447 141.594,113.511 138.711,114.759 135.912,116.185 133.209,117.784 130.611,119.549 128.129,121.474 125.773,123.552 123.552,125.773 121.474,128.129 119.549,130.611 117.784,133.209 116.185,135.912 114.759,138.711 113.511,141.594 112.447,144.549 111.571,147.566 110.886,150.631 110.394,153.733 110.099,156.86 110,160 110.099,163.14 110.394,166.267 110.886,169.369 111.571,172.434 112.447,175.451 113.511,178.406 114.759,181.289 116.185,184.088 117.784,186.791 119.549,189.389 121.474,191.871 123.552,194.227 125.773,196.448 128.129,198.526 130.611,200.451 133.209,202.216 135.912,203.815 138.711,205.241 141.594,206.489 144.549,207.553 147.566,208.429 150.631,209.114 153.733,209.606 156.86,209.901 160,210 163.14,209.901 166.267,209.606 169.369,209.114 172.434,208.429 175.451,207.553 178.406,206.489 181.289,205.241 184.088,203.815 186.791,202.216 189.389,200.451 191.871,198.526 194.227,196.448 196.448,194.227 198.526,191.871 200.451,189.389 202.216,186.791 203.815,184.088 205.241,181.289 206.489,178.406 207.553,175.451 208.429,172.434 209.114,169.369 209.606,166.267 209.901,163.14" transform="rotate(0 0 0)" fill="green" stroke="black" stroke-width="0.5" />
<polygon points="310,160 309.901,156.86 309.606,153.733 309.114,150.631 308.429,147.566 307.553,144.549 306.489,141.594 305.241,138.711 303.815,135.912 302.216,133.209 300.451,130.611 298.526,128.129 296.448,125.773 294.227,123.552 291.871,121.474 289.389,119.549 286.791,117.784 284.088,116.185 281.289,114.759 278.406,113.511 275.451,112.447 272.434,111.571 269.369,110.886 266.267,110.394 263.14,110.099 260,110 256.86,110.099 253.733,110.394 250.631,110.886 247.566,111.571 244.549,112.447 241.594,113.511 238.711,114.759 235.912,116.185 233.209,117.784 230.611,119.549 228.129,121.474 225.773,123.552 223.552,125.773 221.474,128.129 219.549,130.611 217.784,133.209 216.185,135.912 214.759,138.711 213.511,141.594 212.447,144.549 211.571,147.566 210.886,150.631 210.394,153.733 210.099,156.86 210,160 210.099,163.14 210.394,166.267 210.886,169.369 211.571,172.434 212.447,175.451 213.511,178.406 214.759,181.289 216.185,184.088 217.784,186.791 219.549,189.389 221.474,191.871 223.552,194.227 225.773,196.448 228.129,198.526 230.611,200.451 233.209,202.216 235.912,203.815 238.711,205.241 241.594,206.489 244.549,207.553 247.566,208.429 250.631,209.114 253.733,209.606 256.86,209.901 260,210 263.14,209.901 266.267,209.606 269.369,209.114 272.434,208.429 275.451,207.553 278.406,206.489 281.289,205.241 284.088,203.815 286.791,202.216 289.389,200.451 291.871,198.526 294.227,196.448 296.448,194.227 298.526,191.871 300.451,189.389 302.216,186.791 303.815,184.088 305.241,181.289 306.489,178.406 307.553,175.451 308.429,172.434 309.114,169.369 309.606,166.267 309.901,163.14" transform="rotate(0 0 0)" fill="green" stroke="black" stroke-width="0.5" />
<polygon points="410,160 409.901,156.86 409.606,153.733 409.114,150.631 408.429,147.566 407.553,144.549 406.489,141.594 405.241,138.711 403.815,135.912 402.216,133.209 400.451,130.611 398.526,128.129 396.448,125.773 394.227,123.552 391.871,121.474 389.389,119.549 386.791,117.784 384.088,116.185 381.289,114.759 378.406,113.511 375.451,112.447 372.434,111.571 369.369,110.886 366.267,110.394 363.14,110.099 360,110 356.86,110.099 353.733,110.394 350.631,110.886 347.566,111.571 344.549,112.447 341.594,113.511 338.711,114.759 335.912,116.185 333.209,117.784 330.611,119.549 328.129,121.474 325.773,123.552 323.552,125.773 321.474,128.129 319.549,130.611 317.784,133.209 316.185,135.912 314.759,138.711 313.511,141.594 312.447,144.549 311.571,147.566 310.886,150.631 310.394,153.733 310.099,156.86 310,160 310.099,163.14 310.394,166.267 310.886,169.369 311.571,172.434 312.447,175.451 313.511,178.406 314.759,181.289 316.185,184.088 317.784,186.791 319.549,189.389 321.474,191.871 323.552,194.227 325.773,196.448 328.129,198.526 330.611,200.451 333.209,202.216 335.912,203.815 338.711,205.241 341.594,206.489 344.549,207.553 347.566,208.429 350.631,209.114 353.733,209.606 356.86,209.901 360,210 363.14,209.901 366.267,209.606 369.369,209.114 372.434,208.429 375.451,207.553 378.406,206.489 381.289,205.241 384.088,203.815 386.791,202.216 389.389,200.451 391.871,198.526 394.227,196.448 396.448,194.227 398.526,191.871 400.451,189.389 402.216,186.791 403.815,184.088 405.241,181.289 406.489,178.406 407.553,175.451 408.429,172.434 409.114,169.369 409.606,166.267 409.901,163.14" transform="rotate(0 0 0)" fill="green" stroke="black" stroke-width="0.5" />
<polygon points="510,160 509.901,156.86 509.606,153.733 509.114,150.631 508.429,147.566 507.553,144.549 506.489,141.594 505.241,138.711 503.815,135.912 502.216,133.209 500.451,130.611 498.526,128.129 496.448,125.773 494.227,123.552 491.871,121.474 489.389,119.549 486.791,117.784 484.088,116.185 481.289,114.759 478.406,113.511 475.451,112.447 472.434,111.571 469.369,110.886 466.267,110.394 463.14,110.099 460,110 456.86,110.099 453.733,110.394 450.631,110.886 447.566,111.571 444.549,112.447 441.594,113.511 438.711,114.759 435.912,116.185 433.209,117.784 430.611,119.549 428.129,121.474 425.773,123.552 423.552,125.773 421.474,128.129 419.549,130.611 417.784,133.209 416.185,135.912 414.759,138.711 413.511,141.594 412.447,144.549 411.571,147.566 410.886,150.631 410.394,153.733 410.099,156.86 410,160 410.099,163.14 410.394,166.267 410.886,169.369 411.571,172.434 412.447,175.451 413.511,178.406 414.759,181.289 416.185,184.088 417.784,186.791 419.549,189.389 421.474,191.871 423.552,194.227 425.773,196.448 428.129,198.526 430.611,200.451 433.209,202.216 435.912,203.815 438.711,205.241 441.594,206.489 444.549,207.553 447.566,208.429 450.631,209.114 453.733,209.606 456.86,209.901 460,210 463.14,209.901 466.267,209.606 469.369,209.114 472.434,208.429 475.451,207.553 478.406,206.489 481.289,205.241 484.088,203.815 486.791,202.216 489.389,200.451 491.871,198.526 494.227,196.448 496.448,194.227 498.526,191.871 500.451,189.389 502.216,186.791 503.815,184.088 505.241,181.289 506.489,178.406 507.553,175.451 508.429,172.434 509.114,169.369 509.606,166.267 509.901,163.14" transform="rotate(0 0 0)" fill="green" stroke="black" stroke-width="0.5" />
<polygon points="110,260 109.901,256.86 109.606,253.733 109.114,250.631 108.429,247.566 107.553,244.549 106.489,241.594 105.241,238.711 103.815,235.912 102.216,233.209 100.451,230.611 98.5257,228.129 96.4484,225.773 94.2274,223.552 91.8712,221.474 89.3893,219.549 86.7913,217.784 84.0877,216.185 81.289,214.759 78.4062,213.511 75.4508,212.447 72.4345,211.571 69.3691,210.886 66.2667,210.394 63.1395,210.099 60,210 56.8605,210.099 53.7333,210.394 50.6309,210.886 47.5655,211.571 44.5492,212.447 41.5938,213.511 38.711,214.759 35.9123,216.185 33.2087,217.784 30.6107,219.549 28.1288,221.474 25.7726,223.552 23.5516,225.773 21.4743,228.129 19.5492,230.611 17.7836,233.209 16.1847,235.912 14.7586,238.711 13.5112,241.594 12.4472,244.549 11.5708,247.566 10.8856,250.631 10.3943,253.733 10.0987,256.86 10,260 10.0987,263.14 10.3943,266.267 10.8856,269.369 11.5708,272.434 12.4472,275.451 13.5112,278.406 14.7586,281.289 16.1847,284.088 17.7836,286.791 19.5492,289.389 21.4743,291.871 23.5516,294.227 25.7726,296.448 28.1288,298.526 30.6107,300.451 33.2087,302.216 35.9123,303.815 38.711,305.241 41.5938,306.489 44.5492,307.553 47.5655,308.429 50.6309,309.114 53.7333,309.606 56.8605,309.901 60,310 63.1395,309.901 66.2667,309.606 69.3691,309.114 72.4345,308.429 75.4508,307.553 78.4062,306.489 81.289,305.241 84.0877,303.815 86.7913,302.216 89.3893,300.451 91.8712,298.526 94.2274,296.448 96.4484,294.227 98.5257,291.871 100.451,289.389 102.216,286.791 103.815,284.088 105.241,281.289 106.489,278.406 107.553,275.451 108.429,272.434 109.114,269.369 109.606,266.267 109.901,263.14" transform="rotate(0 0 0)" fill="green" stroke="black" stroke-width="0.5" />
<polygon points="210,260 209.901,256.86 209.606,253.733 209.114,250.631 208.429,247.566 207.553,244.549 206.489,241.594 205.241,238.711 203.815,235.912 202.216,233.209 200.451,230.611 198.526,228.129 196.448,225.773 194.227,223.552 191.871,221.474 189.389,219.549 186.791,217.784 184.088,216.185 181.289,214.759 178.406,213.511 175.451,212.447 172.434,211.571 169.369,210.886 166.267,210.394 163.14,210.099 160,210 156.86,210.099 153.733,210.394 150.631,210.886 147.566,211.571 144.549,212.447 141.594,213.511 138.711,214.759 135.912,216.185 133.209,217.784 130.611,219.549 128.129,221.474 125.773,223.552 123.552,225.773 121.474,228.129 119.549,230.611 117.784,233.209 116.185,235.912 114.759,238.711 113.511,241.594 112.447,244.549 111.571,247.566 110.886,250.631 110.394,253.733 110.099,256.86 110,260 110.099,263.14 110.394,266.267 110.886,269.369 111.571,272.434 112.447,275.451 113.511,278.406 114.759,281.289 116.185,284.088 117.784,286.791 119.549,289.389 121.474,291.871 123.552,294.227 125.773,296.448 128.129,298.526 130.611,300.451 133.209,302.216 135.912,303.815 138.711,305.241 141.594,306.489 144.549,307.553 147.566,308.429 150.631,309.114 153.733,309.606 156.86,309.901 160,310 163.14,309.901 166.267,309.606 169.369,309.114 172.434,308.429 175.451,307.553 178.406,306.489 181.289,305.241 184.088,303.815 186.791,302.216 189.389,300.451 191.871,298.526 194.227,296.448 196.448,294.227 198.526,291.871 200.451,289.389 202.216,286.791 203.815,284.088 205.241,281.289 206.489,278.406 207.553,275.451 208.429,272.434 209.114,269.369 209.606,266.267 209.901,263.14" transform="rotate(0 0 0)" fill="green" stroke="black" stroke-width="0.5" />
<polygon points="310,260 309.901,256.86 309.606,253.733 309.114,250.631 308.429,247.566 307.553,244.549 306.489,241.594 305.241,238.711 303.815,235.912 302.216,233.209 300.451,230.611 298.526,228.129 296.448,225.773 294.227,223.552 291.871,221.474 289.389,219.549 286.791,217.784 284.088,216.185 281.289,214.759 278.406,213.511 275.451,212.447 272.434,211.571 269.369,210.886 266.267,210.394 263.14,210.099 260,210 256.86,210.099 253.733,210.394 250.631,210.886 247.566,211.571 244.549,212.447 241.594,213.511 238.711,214.759 235.912,216.185 233.209,217.784 230.611,219.549 228.129,221.474 225.773,223.552 223.552,225.773 221.474,228.129 219.549,230.611 217.784,233.209 216.185,235.912 214.759,238.711 213.511,241.594 212.447,244.549 211.571,247.566 210.886,250.631 210.394,253.733 210.099,256.86 210,260 210.099,263.14 210.394,266.267 210.886,269.369 211.571,272.434 212.447,275.451 213.511,278.406 214.759,281.289 216.185,284.088 217.784,286.791 219.549,289.389 221.474,291.871 223.552,294.227 225.773,296.448 228.129,298.526 230.611,300.451 233.209,302.216 235.912,303.815 238.711,305.241 241.594,306.489 244.549,307.553 247.566,308.429 250.631,309.114 253.733,309.606 256.86,309.901 260,310 263.14,309.901 266.267,309.606 269.369,309.114 272.434,308.429 275.451,307.553 278.406,306.489 281.289,305.241 284.088,303.815 286.791,302.216 289.389,300.451 291.871,298.526 294.227,296.448 296.448,294.227 298.526,291.871 300.451,289.389 302.216,286.791 303.815,284.088 305.241,281.289 306.489,278.406 307.553,275.451 308.429,272.434 309.114,269.369 309.606,266.267 309.901,263.14" transform="rotate(0 0 0)" fill="green" stroke="black" stroke-width="0.5" />
<polygon points="410,260 409.901,256.86 409.606,253.733 409.114,250.631 408.429,247.566 407.553,244.549 406.489,241.594 405.241,238.711 403.815,235.912 402.216,233.209 400.451,230.611 398.526,228.129 396.448,225.773 394.227,223.552 391.871,221.474 389.389,219.549 386.791,217.784 384.088,216.185 381.289,214.759 378.406,213.511 375.451,212.447 372.434,211.571 369.369,210.886 366.267,210.394 363.14,210.099 360,210 356.86,210.099 353.733,210.394 350.631,210.886 347.566,211.571 344.549,212.447 341.594,213.511 338.711,214.759 335.912,216.185 333.209,217.784 330.611,219.549 328.129,221.474 325.773,223.552 323.552,225.773 321.474,228.129 319.549,230.611 317.784,233.209 316.185,235.912 314.759,238.711 313.511,241.594 312.447,244.549 311.571,247.566 310.886,250.631 310.394,253.733 310.099,256.86 310,260 310.099,263.14 310.394,266.267 310.886,269.369 311.571,272.434 312.447,275.451 313.511,278.406 314.759,281.289 316.185,284.088 317.784,286.791 319.549,289.389 321.474,291.871 323.552,294.227 325.773,296.448 328.129,298.526 330.611,300.451 333.209,302.216 335.912,303.815 338.711,305.241 341.594,306.489 344.549,307.553 347.566,308.429 350.631,309.114 353.733,309.606 356.86,309.901 360,310 363.14,309.901 366.267,309.606 369.369,309.114 372.434,308.429 375.451,307.553 378.406,306.489 381.289,305.241 384.088,303.815 386.791,302.216 389.389,300.451 391.871,298.526 394.227,296.448 396.448,294.227 398.526,291.871 400.451,289.389 402.216,286.791 403.815,284.088 405.241,281.289 406.489,278.406 407.553,275.451 408.429,272.434 409.114,269.369 409.606,266.267 409.901,263.14" transform="rotate(0 0 0)" fill="green" stroke="black" stroke-width="0.5" />
<polygon points="510,260 509.901,256.86 509.606,253.733 509.114,250.631 508.429,247.566 507.553,244.549 506.489,241.594 505.241,238.711 503.815,235.912 502.216,233.209 500.451,230.611 498.526,228.129 496.448,225.773 494.227,223.552 491.871,221.474 489.389,219.549 486.791,217.784 484.088,216.185 481.289,214.759 478.406,213.511 475.451,212.447 472.434,211.571 469.369,210.886 466.267,210.394 463.14,210.099 460,210 456.86,210.099 453.733,210.394 450.631,210.886 447.566,211.571 444.549,212.447 441.594,213.511 438.711,214.759 435.912,216.185 433.209,217.784 430.611,219.549 428.129,221.474 425.773,223.552 423.552,225.773 421.474,228.129 419.549,230.611 417.784,233.209 416.185,235.912 414.759,238.711 413.511,241.594 412.447,244.549 411.571,247.566 410.886,250.631 410.394,253.733 410.099,256.86 410,260 410.099,263.14 410.394,266.267 410.886,269.369 411.571,272.434 412.447,275.451 413.511,278.406 414.759,281.289 416.185,284.088 417.784,286.791 419.549,289.389 421.474,291.871 423.552,294.227 425.773,296.448 428.129,298.526 430.611,300.451 433.209,302.216 435.912,303.815 438.711,305.241 441.594,306.489 444.549,307.553 447.566,308.429 450.631,309.114 453.733,309.606 456.86,309.901 460,310 463.14,309.901 466.267,309.606 469.369,309.114 472.434,308.429 475.451,307.553 478.406,306.489 481.289,305.241 484.088,303.815 486.791,302.216 489.389,300.451 491.871,298.526 494.227,296.448 496.448,294.227 498.526,291.871 500.451,289.389 502.216,286.791 503.815,284.088 505.241,281.289 506.489,278.406 507.553,275.451 508.429,272.434 509.114,269.369 509.606,266.267 509.901,263.14" transform="rotate(0 0 0)" fill="green" stroke="black" stroke-width="0.5" />
<polygon points="110,360 109.901,356.86 109.606,353.733 109.114,350.631 108.429,347.566 107.553,344.549 106.489,341.594 105.241,338.711 103.815,335.912 102.216,333.209 100.451,330.611 98.5257,328.129 96.4484,325.773 94.2274,323.552 91.8712,321.474 89.3893,319.549 86.7913,317.784 84.0877,316.185 81.289,314.759 78.4062,313.511 75.4508,312.447 72.4345,311.571 69.3691,310.886 66.2667,310.394 63.1395,310.099 60,310 56.8605,310.099 53.7333,310.394 50.6309,310.886 47.5655,311.571 44.5492,312.447 41.5938,313.511 38.711,314.759 35.9123,316.185 33.2087,317.784 30.6107,319.549 28.1288,321.474 25.7726,323.552 23.5516,325.773 21.4743,328.129 19.5492,330.611 17.7836,333.209 16.1847,335.912 14.7586,338.711 13.5112,341.594 12.4472,344.549 11.5708,347.566 10.8856,350.631 10.3943,353.733 10.0987,356.86 10,360 10.0987,363.14 10.3943,366.267 10.8856,369.369 11.5708,372.434 12.4472,375.451 13.5112,378.406 14.7586,381.289 16.1847,384.088 17.7836,386.791 19.5492,389.389 21.4743,391.871 23.5516,394.227 25.7726,396.448 28.1288,398.526 30.6107,400.451 33.2087,402.216 35.9123,403.815 38.711,405.241 41.5938,406.489 44.5492,407.553 47.5655,408.429 50.6309,409.114 53.7333,409.606 56.8605,409.901 60,410 63.1395,409.901 66.2667,409.606 69.3691,409.114 72.4345,408.429 75.4508,407.553 78.4062,406.489 81.289,405.241 84.0877,403.815 86.7913,402.216 89.3893,400.451 91.8712,398.526 94.2274,396.448 96.4484,394.227 98.5257,391.871 100.451,389.389 102.216,386.791 103.815,384.088 105.241,381.289 106.489,378.406 107.553,375.451 108.429,372.434 109.114,369.369 109.606,366.267 109.901,363.14" transform="rotate(0 0 0)" fill="green" stroke="black" stroke-width="0.5" />
<polygon points="210,360 209.901,356.86 209.606,353.733 209.114,350.631 208.429,347.566 207.553,344.549 206.489,341.594 205.241,338.711 203.815,335.912 202.216,333.209 200.451,330.611 198.526,328.129 196.448,325.773 194.227,323.552 191.871,321.474 189.389,319.549 186.791,317.784 184.088,316.185 181.289,314.759 178.406,313.511 175.451,312.447 172.434,311.571 169.369,310.886 166.267,310.394 163.14,310.099 160,310 156.86,310.099 153.733,310.394 150.631,310.886 147.566,311.571 144.549,312.447 141.594,313.511 138.711,314.759 135.912,316.185 133.209,317.784 130.611,319.549 128.129,321.474 125.773,323.552 123.552,325.773 121.474,328.129 119.549,330.611 117.784,333.209 116.185,335.912 114.759,338.711 113.511,341.594 112.447,344.549 111.571,347.566 110.886,350.631 110.394,353.733 110.099,356.86 110,360 110.099,363.14 110.394,366.267 110.886,369.369 111.571,372.434 112.447,375.451 113.511,378.406 114.759,381.289 116.185,384.088 117.784,386.791 119.549,389.389 121.474,391.871 123.552,394.227 125.773,396.448 128.129,398.526 130.611,400.451 133.209,402.216 135.912,403.815 138.711,405.241 141.594,406.489 144.549,407.553 147.566,408.429 150.631,409.114 153.733,409.606 156.86,409.901 160,410 163.14,409.901 166.267,409.606 169.369,409.114 172.434,408.429 175.451,407.553 178.406,406.489 181.289,405.241 184.088,403.815 186.791,402.216 189.389,400.451 191.871,398.526 194.227,396.448 196.448,394.227 198.526,391.871 200.451,389.389 202.216,386.791 203.815,384.088 205.241,381.289 206.489,378.406 207.553,375.451 208.429,372.434 209.114,369.369 209.606,366.267 209.901,363.14" transform="rotate(0 0 0)" fill="green" stroke="black" stroke-width="0.5" />
<polygon points="310,360 309.901,356.86 309.606,353.733 309.114,350.631 308.429,347.566 307.553,344.549 306.489,341.594 305.241,338.711 303.815,335.912 302.216,333.209 300.451,330.611 298.526,328.129 296.448,325.773 294.227,323.552 291.871,321.474 289.389,319.549 286.791,317.784 284.088,316.185 281.289,314.759 278.406,313.511 275.451,312.447 272.434,311.571 269.369,310.886 266.267,310.394 263.14,310.099 260,310 256.86,310.099 253.733,310.394 250.631,310.886 247.566,311.571 244.549,312.447 241.594,313.511 238.711,314.759 235.912,316.185 233.209,317.784 230.611,319.549 228.129,321.474 225.773,323.552 223.552,325.773 221.474,328.129 219.549,330.611 217.784,333.209 216.185,335.912 214.759,338.711 213.511,341.594 212.447,344.549 211.571,347.566 210.886,350.631 210.394,353.733 210.099,356.86 210,360 210.099,363.14 210.394,366.267 210.886,369.369 211.571,372.434 212.447,375.451 213.511,378.406 214.759,381.289 216.185,384.088 217.784,386.791 219.549,389.389 221.474,391.871 223.552,394.227 225.773,396.448 228.129,398.526 230.611,400.451 233.209,402.216 235.912,403.815 238.711,405.241 241.594,406.489 244.549,407.553 247.566,408.429 250.631,409.114 253.733,409.606 256.86,409.901 260,410 263.14,409.901 266.267,409.606 269.369,409.114 272.434,408.429 275.451,407.553 278.406,406.489 281.289,405.241 284.088,403.815 286.791,402.216 289.389,400.451 291.871,398.526 294.227,396.448 296.448,394.227 298.526,391.871 300.451,389.389 302.216,386.791 303.815,384.088 305.241,381.289 306.489,378.406 307.553,375.451 308.429,372.434 309.114,369.369 309.606,366.267 309.901,363.14" transform="rotate(0 0 0)" fill="green" stroke="black" stroke-width="0.5" />
<polygon points="410,360 409.901,356.86 409.606,353.733 409.114,350.631 408.429,347.566 407.553,344.549 406.489,341.594 405.241,338.711 403.815,335.912 402.216,333.209 400.451,330.611 398.526,328.129 396.448,325.773 394.227,323.552 391.871,321.474 389.389,319.549 386.791,317.784 384.088,316.185 381.289,314.759 378.406,313.511 375.451,312.447 372.434,311.571 369.369,310.886 366.267,310.394 363.14,310.099 360,310 356.86,310.099 353.733,310.394 350.631,310.886 347.566,311.571 344.549,312.447 341.594,313.511 338.711,314.759 335.912,316.185 333.209,317.784 330.611,319.549 328.129,321.474 325.773,323.552 323.552,325.773 321.474,328.129 319.549,330.611 317.784,333.209 316.185,335.912 314.759,338.711 313.511,341.594 312.447,344.549 311.571,347.566 310.886,350.631 310.394,353.733 310.099,356.86 310,360 310.099,363.14 310.394,366.267 310.886,369.369 311.571,372.434 312.447,375.451 313.511,378.406 314.759,381.289 316.185,384.088 317.784,386.791 319.549,389.389 321.474,391.871 323.552,394.227 325.773,396.448 328.129,398.526 330.611,400.451 333.209,402.216 335.912,403.815 338.711,405.241 341.594,406.489 344.549,407.553 347.566,408.429 350.631,409.114 353.733,409.606 356.86,409.901 360,410 363.14,409.901 366.267,409.606 369.369,409.114 372.434,408.429 375.451,407.553 378.406,406.489 381.289,405.241 384.088,403.815 386.791,402.216 389.389,400.451 391.871,398.526 394.227,396.448 396.448,394.227 398.526,391.871 400.451,389.389 402.216,386.791 403.815,384.088 405.241,381.289 406.489,378.406 407.553,375.451 408.429,372.434 409.114,369.369 409.606,366.267 409.901,363.14" transform="rotate(0 0 0)" fill="green" stroke="black" stroke-width="0.5" />
<polygon points="510,360 509.901,356.86 509.606,353.733 509.114,350.631 508.429,347.566 507.553,344.549 506.489,341.594 505.241,338.711 503.815,335.912 502.216,333.209 500.451,330.611 498.526,328.129 496.448,325.773 494.227,323.552 491.871,321.474 489.389,319.549 486.791,317.784 484.088,316.185 481.289,314.759 478.406,313.511 475.451,312.447 472.434,311.571 469.369,310.886 466.267,310.394 463.14,310.099 460,310 456.86,310.099 453.733,310.394 450.631,310.886 447.566,311.571 444.549,312.447 441.594,313.511 438.711,314.759 435.912,316.185 433.209,317.784 430.611,319.549 428.129,321.474 425.773,323.552 423.552,325.773 421.474,328.129 419.549,330.611 417.784,333.209 416.185,335.912 414.759,338.711 413.511,341.594 412.447,344.549 411.571,347.566 410.886,350.631 410.394,353.733 410.099,356.86 410,360 410.099,363.14 410.394,366.267 410.886,369.369 411.571,372.434 412.447,375.451 413.511,378.406 414.759,381.289 416.185,384.088 417.784,386.791 419.549,389.389 421.474,391.871 423.552,394.227 425.773,396.448 428.129,398.526 430.611,400.451 433.209,402.216 435.912,403.815 438.711,405.241 441.594,406.489 444.549,407.553 447.566,408.429 450.631,409.114 453.733,409.606 456.86,409.901 460,410 463.14,409.901 466.267,409.606 469.369,409.114 472.434,408.429 475.451,407.553 478.406,406.489 481.289,405.241 484.088,403.815 486.791,402.216 489.389,400.451 491.871,398.526 494.227,396.448 496.448,394.227 498.526,391.871 500.451,389.389 502.216,386.791 503.815,384.088 505.241,381.289 506.489,378.406 507.553,375.451 508.429,372.434 509.114,369.369 509.606,366.267 509.901,363.14" transform="rotate(0 0 0)" fill="green" stroke="black" stroke-width="0.5" />
<polygon points="110,460 109.901,456.86 109.606,453.733 109.114,450.631 108.429,447.566 107.553,444.549 106.489,441.594 105.241,438.711 103.815,435.912 102.216,433.209 100.451,430.611 98.5257,428.129 96.4484,425.773 94.2274,423.552 91.8712,421.474 89.3893,419.549 86.7913,417.784 84.0877,416.185 81.289,414.759 78.4062,413.511 75.4508,412.447 72.4345,411.571 69.3691,410.886 66.2667,410.394 63.1395,410.099 60,410 56.8605,410.099 53.7333,410.394 50.6309,410.886 47.5655,411.571 44.5492,412.447 41.5938,413.511 38.711,414.759 35.9123,416.185 33.2087,417.784 30.6107,419.549 28.1288,421.474 25.7726,423.552 23.5516,425.773 21.4743,428.129 19.5492,430.611 17.7836,433.209 16.1847,435.912 14.7586,438.711 13.5112,441.594 12.4472,444.549 11.5708,447.566 10.8856,450.631 10.3943,453.733 10.0987,456.86 10,460 10.0987,463.14 10.3943,466.267 10.8856,469.369 11.5708,472.434 12.4472,475.451 13.5112,478.406 14.7586,481.289 16.1847,484.088 17.7836,486.791 19.5492,489.389 21.4743,491.871 23.5516,494.227 25.7726,496.448 28.1288,498.526 30.6107,500.451 33.2087,502.216 35.9123,503.815 38.711,505.241 41.5938,506.489 44.5492,507.553 47.5655,508.429 50.6309,509.114 53.7333,509.606 56.8605,509.901 60,510 63.1395,509.901 66.2667,509.606 69.3691,509.114 72.4345,508.429 75.4508,507.553 78.4062,506.489 81.289,505.241 84.0877,503.815 86.7913,502.216 89.3893,500.451 91.8712,498.526 94.2274,496.448 96.4484,494.227 98.5257,491.871 100.451,489.389 102.216,486.791 103.815,484.088 105.241,481.289 106.489,478.406 107.553,475.451 108.429,472.434 109.114,469.369 109.606,466.267 109.901,463.14" transform="rotate(0 0 0)" fill="green" stroke="black" stroke-width="0.5" />
<polygon points="210,460 209.901,456.86 209.606,453.733 209.114,450.631 208.429,447.566 207.553,444.549 206.489,441.594 205.241,438.711 203.815,435.912 202.216,433.209 200.451,430.611 198.526,428.129 196.448,425.773 194.227,423.552 191.871,421.474 189.389,419.549 186.791,417.784 184.088,416.185 181.289,414.759 178.406,413.511 175.451,412.447 172.434,411.571 169.369,410.886 166.267,410.394 163.14,410.099 160,410 156.86,410.099 153.733,410.394 150.631,410.886 147.566,411.571 144.549,412.447 141.594,413.511 138.711,414.759 135.912,416.185 133.209,417.784 130.611,419.549 128.129,421.474 125.773,423.552 123.552,425.773 121.474,428.129 119.549,430.611 117.784,433.209 116.185,435.912 114.759,438.711 113.511,441.594 112.447,444.549 111.571,447.566 110.886,450.631 110.394,453.733 110.099,456.86 110,460 110.099,463.14 110.394,466.267 110.886,469.369 111.571,472.434 112.447,475.451 113.511,478.406 114.759,481.289 116.185,484.088 117.784,486.791 119.549,489.389 121.474,491.871 123.552,494.227 125.773,496.448 128.129,498.526 130.611,500.451 133.209,502.216 135.912,503.815 138.711,505.241 141.594,506.489 144.549,507.553 147.566,508.429 150.631,509.114 153.733,509.606 156.86,509.901 160,510 163.14,509.901 166.267,509.606 169.369,509.114 172.434,508.429 175.451,507.553 178.406,506.489 181.289,505.241 184.088,503.815 186.791,502.216 189.389,500.451 191.871,498.526 194.227,496.448 196.448,494.227 198.526,491.871 200.451,489.389 202.216,486.791 203.815,484.088 205.241,481.289 206.489,478.406 207.553,475.451 208.429,472.434 209.114,469.369 209.606,466.267 209.901,463.14" transform="rotate(0 0 0)" fill="green" stroke="black" stroke-width="0.5" />
<polygon points="310,460 309.901,456.86 309.606,453.733 309.114,450.631 308.429,447.566 307.553,444.549 306.489,441.594 305.241,438.711 303.815,435.912 302.216,433.209 300.451,430.611 298.526,428.129 296.448,425.773 294.227,423.552 291.871,421.474 289.389,419.549 286.791,417.784 284.088,416.185 281.289,414.759 278.406,413.511 275.451,412.447 272.434,411.571 269.369,410.886 266.267,410.394 263.14,410.099 260,410 256.86,410.099 253.733,410.394 250.631,410.886 247.566,411.571 244.549,412.447 241.594,413.511 238.711,414.759 235.912,416.185 233.209,417.784 230.611,419.549 228.129,421.474 225.773,423.552 223.552,425.773 221.474,428.129 219.549,430.611 217.784,433.209 216.185,435.912 214.759,438.711 213.511,441.594 212.447,444.549 211.571,447.566 210.886,450.631 210.394,453.733 210.099,456.86 210,460 210.099,463.14 210.394,466.267 210.886,469.369 211.571,472.434 212.447,475.451 213.511,478.406 214.759,481.289 216.185,484.088 217.784,486.791 219.549,489.389 221.474,491.871 223.552,494.227 225.773,496.448 228.129,498.526 230.611,500.451 233.209,502.216 235.912,503.815 238.711,505.241 241.594,506.489 244.549,507.553 247.566,508.429 250.631,509.114 253.733,509.606 256.86,509.901 260,510 263.14,509.901 266.267,509.606 269.369,509.114 272.434,508.429 275.451,507.553 278.406,506.489 281.289,505.241 284.088,503.815 286.791,502.216 289.389,500.451 291.871,498.526 294.227,496.448 296.448,494.227 298.526,491.871 300.451,489.389 302.216,486.791 303.815,484.088 305.241,481.289 306.489,478.406 307.553,475.451 308.429,472.434 309.114,469.369 309.606,466.267 309.901,463.14" transform="rotate(0 0 0)" fill="green" stroke="black" stroke-width="0.5" />
<polygon points="410,460 409.901,456.86 409.606,453.733 409.114,450.631 408.429,447.566 407.553,444.549 406.489,441.594 405.241,438.711 403.815,435.912 402.216,433.209 400.451,430.611 398.526,428.129 396.448,425.773 394.227,423.552 391.871,421.474 389.389,419.549 386.791,417.784 384.088,416.185 381.289,414.759 378.406,413.511 375.451,412.447 372.434,411.571 369.369,410.886 366.267,410.394 363.14,410.099 360,410 356.86,410.099 353.733,410.394 350.631,410.886 347.566,411.571 344.549,412.447 341.594,413.511 338.711,414.759 335.912,416.185 333.209,417.784 330.611,419.549 328.129,421.474 325.773,423.552 323.552,425.773 321.474,428.129 319.549,430.611 317.784,433.209 316.185,435.912 314.759,438.711 313.511,441.594 312.447,444.549 311.571,447.566 310.886,450.631 310.394,453.733 310.099,456.86 310,460 310.099,463.14 310.394,466.267 310.886,469.369 311.571,472.434 312.447,475.451 313.511,478.406 314.759,481.289 316.185,484.088 317.784,486.791 319.549,489.389 321.474,491.871 323.552,494.227 325.773,496.448 328.129,498.526 330.611,500.451 333.209,502.216 335.912,503.815 338.711,505.241 341.594,506.489 344.549,507.553 347.566,508.429 350.631,509.114 353.733,509.606 356.86,509.901 360,510 363.14,509.901 366.267,509.606 369.369,509.114 372.434,508.429 375.451,507.553 378.406,506.489 381.289,505.241 384.088,503.815 386.791,502.216 389.389,500.451 391.871,498.526 394.227,496.448 396.448,494.227 398.526,491.871 400.451,489.389 402.216,486.791 403.815,484.088 405.241,481.289 406.489,478.406 407.553,475.451 408.429,472.434 409.114,469.369 409.606,466.267 409.901,463.14" transform="rotate(0 0 0)" fill="green" stroke="black" stroke-width="0.5" />
<polygon points="510,460 509.901,456.86 509.606,453.733 509.114,450.631 508.429,447.566 507.553,444.549 506.489,441.594 505.241,438.711 503.815,435.912 502.216,433.209 500.451,430.611 498.526,428.129 496.448,425.773 494.227,423.552 491.871,421.474 489.389,419.549 486.791,417.784 484.088,416.185 481.289,414.759 478.406,413.511 475.451,412.447 472.434,411.571 469.369,410.886 466.267,410.394 463.14,410.099 460,410 456.86,410.099 453.733,410.394 450.631,410.886 447.566,411.571 444.549,412.447 441.594,413.511 438.711,414.759 435.912,416.185 433.209,417.784 430.611,419.549 428.129,421.474 425.773,423.552 423.552,425.773 421.474,428.129 419.549,430.611 417.784,433.209 416.185,435.912 414.759,438.711 413.511,441.594 412.447,444.549 411.571,447.566 410.886,450.631 410.394,453.733 410.099,456.86 410,460 410.099,463.14 410.394,466.267 410.886,469.369 411.571,472.434 412.447,475.451 413.511,478.406 414.759,481.289 416.185,484.088 417.784,486.791 419.549,489.389 421.474,491.871 423.552,494.227 425.773,496.448 428.129,498.526 430.611,500.451 433.209,502.216 435.912,503.815 438.711,505.241 441.594,506.489 444.549,507.553 447.566,508.429 450.631,509.114 453.733,509.606 456.86,509.901 460,510 463.14,509.901 466.267,509.606 469.369,509.114 472.434,508.429 475.451,507.553 478.406,506.489 481.289,505.241 484.088,503.815 486.791,502.216 489.389,500.451 491.871,498.526 494.227,496.448 496.448,494.227 498.526,491.871 500.451,489.389 502.216,486.791 503.815,484.088 505.241,481.289 506.489,478.406 507.553,475.451 508.429,472.434 509.114,469.369 509.606,466.267 509.901,463.14" transform="rotate(0 0 0)" fill="green" stroke="black" stroke-width="0.5" />
</svg>
