<svg version="1.1" baseProfile="full" xmlns="http://www.w3.org/2000/svg">
<polygon points="0,0 0,750 500,750 500,0" transform="rotate(0 0 0)" fill="pink" stroke="black" stroke-width="0.5" />
<polygon points="0,0 0,15 110,15 110,0" transform="rotate(0 0 0)" fill="green" stroke="black" stroke-width="0.5" />
<polygon points="110,0 110,15 220,15 220,0" transform="rotate(0 0 0)" fill="green" stroke="black" stroke-width="0.5" />
<polygon points="220,0 220,15 330,15 330,0" transform="rotate(0 0 0)" fill="green" stroke="black" stroke-width="0.5" />
<polygon points="330,0 330,15 440,15 440,0" transform="rotate(0 0 0)" fill="green" stroke="black" stroke-width="0.5" />
<polygon points="0,15 0,30 110,30 110,15" transform="rotate(0 0 0)" fill="green" stroke="black" stroke-width="0.5" />
<polygon points="110,15 110,30 220,30 220,15" transform="rotate(0 0 0)" fill="green" stroke="black" stroke-width="0.5" />
<polygon points="220,15 220,30 330,30 330,15" transform="rotate(0 0 0)" fill="green" stroke="black" stroke-width="0.5" />
<polygon points="330,15 330,30 440,30 440,15" transform="rotate(0 0 0)" fill="green" stroke="black" stroke-width="0.5" />
<polygon points="0,30 0,45 110,45 110,30" transform="rotate(0 0 0)" fill="green" stroke="black" stroke-width="0.5" />
<polygon points="110,30 110,45 220,45 220,30" transform="rotate(0 0 0)" fill="green" stroke="black" stroke-width="0.5" />
<polygon points="220,30 220,45 330,45 330,30" transform="rotate(0 0 0)" fill="green" stroke="black" stroke-width="0.5" />
<polygon points="330,30 330,45 440,45 440,30" transform="rotate(0 0 0)" fill="green" stroke="black" stroke-width="0.5" />
<polygon points="0,45 0,60 110,60 110,45" transform="rotate(0 0 0)" fill="green" stroke="black" stroke-width="0.5" />
<polygon points="110,45 110,60 220,60 220,45" transform="rotate(0 0 0)" fill="green" stroke="black" stroke-width="0.5" />
<polygon points="220,45 220,60 330,60 330,45" transform="rotate(0 0 0)" fill="green" stroke="black" stroke-width="0.5" />
<polygon points="330,45 330,60 440,60 440,45" transform="rotate(0 0 0)" fill="green" stroke="black" stroke-width="0.5" />
<polygon points="0,60 0,75 110,75 110,60" transform="rotate(0 0 0)" fill="green" stroke="black" stroke-width="0.5" />
<polygon points="110,60 110,75 220,75 220,60" transform="rotate(0 0 0)" fill="green" stroke="black" stroke-width="0.5" />
<polygon points="220,60 220,75 330,75 330,60" transform="rotate(0 0 0)" fill="green" stroke="black" stroke-width="0.5" />
<polygon points="330,60 330,75 440,75 440,60" transform="rotate(0 0 0)" fill="green" stroke="black" stroke-width="0.5" />
<polygon points="0,75 0,90 110,90 110,75" transform="rotate(0 0 0)" fill="green" stroke="black" stroke-width="0.5" />
<polygon points="110,75 110,90 220,90 220,75" transform="rotate(0 0 0)" fill="green" stroke="black" stroke-width="0.5" />
<polygon points="220,75 220,90 330,90 330,75" transform="rotate(0 0 0)" fill="green" stroke="black" stroke-width="0.5" />
<polygon points="330,75 330,90 440,90 440,75" transform="rotate(0 0 0)" fill="green" stroke="black" stroke-width="0.5" />
<polygon points="0,90 0,105 110,105 110,90" transform="rotate(0 0 0)" fill="green" stroke="black" stroke-width="0.5" />
<polygon points="110,90 110,105 220,105 220,90" transform="rotate(0 0 0)" fill="green" stroke="black" stroke-width="0.5" />
<polygon points="220,90 220,105 330,105 330,90" transform="rotate(0 0 0)" fill="green" stroke="black" stroke-width="0.5" />
<polygon points="330,90 330,105 440,105 440,90" transform="rotate(0 0 0)" fill="green" stroke="black" stroke-width="0.5" />
<polygon points="0,105 0,120 110,120 110,105" transform="rotate(0 0 0)" fill="green" stroke="black" stroke-width="0.5" />
<polygon points="110,105 110,120 220,120 220,105" transform="rotate(0 0 0)" fill="green" stroke="black" stroke-width="0.5" />
<polygon points="220,105 220,120 330,120 330,105" transform="rotate(0 0 0)" fill="green" stroke="black" stroke-width="0.5" />
<polygon points="330,105 330,120 440,120 440,105" transform="rotate(0 0 0)" fill="green" stroke="black" stroke-width="0.5" />
<polygon points="0,120 0,135 110,135 110,120" transform="rotate(0 0 0)" fill="green" stroke="black" stroke-width="0.5" />
<polygon points="110,120 110,135 220,135 220,120" transform="rotate(0 0 0)" fill="green" stroke="black" stroke-width="0.5" />
<polygon points="220,120 220,135 330,135 330,120" transform="rotate(0 0 0)" fill="green" stroke="black" stroke-width="0.5" />
<polygon points="330,120 330,135 440,135 440,120" transform="rotate(0 0 0)" fill="green" stroke="black" stroke-width="0.5" />
<polygon points="0,135 0,150 110,150 110,135" transform="rotate(0 0 0)" fill="green" stroke="black" stroke-width="0.5" />
<polygon points="110,135 110,150 220,150 220,135" transform="rotate(0 0 0)" fill="green" stroke="black" stroke-width="0.5" />
<polygon points="220,135 220,150 330,150 330,135" transform="rotate(0 0 0)" fill="green" stroke="black" stroke-width="0.5" />
<polygon points="330,135 330,150 440,150 440,135" transform="rotate(0 0 0)" fill="green" stroke="black" stroke-width="0.5" />
<polygon points="0,150 0,165 110,165 110,150" transform="rotate(0 0 0)" fill="green" stroke="black" stroke-width="0.5" />
<polygon points="110,150 110,165 220,165 220,150" transform="rotate(0 0 0)" fill="green" stroke="black" stroke-width="0.5" />
<polygon points="220,150 220,165 330,165 330,150" transform="rotate(0 0 0)" fill="green" stroke="black" stroke-width="0.5" />
<polygon points="330,150 330,165 440,165 440,150" transform="rotate(0 0 0)" fill="green" stroke="black" stroke-width="0.5" />
<polygon points="0,165 0,180 110,180 110,165" transform="rotate(0 0 0)" fill="green" stroke="black" stroke-width="0.5" />
<polygon points="110,165 110,180 220,180 220,165" transform="rotate(0 0 0)" fill="green" stroke="black" stroke-width="0.5" />
<polygon points="220,165 220,180 330,180 330,165" transform="rotate(0 0 0)" fill="green" stroke="black" stroke-width="0.5" />
<polygon points="330,165 330,180 440,180 440,165" transform="rotate(0 0 0)" fill="green" stroke="black" stroke-width="0.5" />
<polygon points="0,180 0,195 110,195 110,180" transform="rotate(0 0 0)" fill="green" stroke="black" stroke-width="0.5" />
<polygon points="110,180 110,195 220,195 220,180" transform="rotate(0 0 0)" fill="green" stroke="black" stroke-width="0.5" />
<polygon points="220,180 220,195 330,195 330,180" transform="rotate(0 0 0)" fill="green" stroke="black" stroke-width="0.5" />
<polygon points="330,180 330,195 440,195 440,180" transform="rotate(0 0 0)" fill="green" stroke="black" stroke-width="0.5" />
<polygon points="0,195 0,210 110,210 110,195" transform="rotate(0 0 0)" fill="green" stroke="black" stroke-width="0.5" />
<polygon points="110,195 110,210 220,210 220,195" transform="rotate(0 0 0)" fill="green" stroke="black" stroke-width="0.5" />
<polygon points="220,195 220,210 330,210 330,195" transform="rotate(0 0 0)" fill="green" stroke="black" stroke-width="0.5" />
<polygon points="330,195 330,210 440,210 440,195" transform="rotate(0 0 0)" fill="green" stroke="black" stroke-width="0.5" />
<polygon points="0,210 0,225 110,225 110,210" transform="rotate(0 0 0)" fill="green" stroke="black" stroke-width="0.5" />
<polygon points="110,210 110,225 220,225 220,210" transform="rotate(0 0 0)" fill="green" stroke="black" stroke-width="0.5" />
<polygon points="220,210 220,225 330,225 330,210" transform="rotate(0 0 0)" fill="green" stroke="black" stroke-width="0.5" />
<polygon points="330,210 330,225 440,225 440,210" transform="rotate(0 0 0)" fill="green" stroke="black" stroke-width="0.5" />
<polygon points="0,225 0,240 110,240 110,225" transform="rotate(0 0 0)" fill="green" stroke="black" stroke-width="0.5" />
<polygon points="110,225 110,240 220,240 220,225" transform="rotate(0 0 0)" fill="green" stroke="black" stroke-width="0.5" />
<polygon points="220,225 220,240 330,240 330,225" transform="rotate(0 0 0)" fill="green" stroke="black" stroke-width="0.5" />
<polygon points="330,225 330,240 440,240 440,225" transform="rotate(0 0 0)" fill="green" stroke="black" stroke-width="0.5" />
<polygon points="0,240 0,255 110,255 110,240" transform="rotate(0 0 0)" fill="green" stroke="black" stroke-width="0.5" />
<polygon points="110,240 110,255 220,255 220,240" transform="rotate(0 0 0)" fill="green" stroke="black" stroke-width="0.5" />
<polygon points="220,240 220,255 330,255 330,240" transform="rotate(0 0 0)" fill="green" stroke="black" stroke-width="0.5" />
<polygon points="330,240 330,255 440,255 440,240" transform="rotate(0 0 0)" fill="green" stroke="black" stroke-width="0.5" />
<polygon points="0,255 0,270 110,270 110,255" transform="rotate(0 0 0)" fill="green" stroke="black" stroke-width="0.5" />
<polygon points="110,255 110,270 220,270 220,255" transform="rotate(0 0 0)" fill="green" stroke="black" stroke-width="0.5" />
<polygon points="220,255 220,270 330,270 330,255" transform="rotate(0 0 0)" fill="green" stroke="black" stroke-width="0.5" />
<polygon points="330,255 330,270 440,270 440,255" transform="rotate(0 0 0)" fill="green" stroke="black" stroke-width="0.5" />
<polygon points="0,270 0,285 110,285 110,270" transform="rotate(0 0 0)" fill="green" stroke="black" stroke-width="0.5" />
<polygon points="110,270 110,285 220,285 220,270" transform="rotate(0 0 0)" fill="green" stroke="black" stroke-width="0.5" />
<polygon points="220,270 220,285 330,285 330,270" transform="rotate(0 0 0)" fill="green" stroke="black" stroke-width="0.5" />
<polygon points="330,270 330,285 440,285 440,270" transform="rotate(0 0 0)" fill="green" stroke="black" stroke-width="0.5" />
<polygon points="0,285 0,300 110,300 110,285" transform="rotate(0 0 0)" fill="green" stroke="black" stroke-width="0.5" />
<polygon points="110,285 110,300 220,300 220,285" transform="rotate(0 0 0)" fill="green" stroke="black" stroke-width="0.5" />
<polygon points="220,285 220,300 330,300 330,285" transform="rotate(0 0 0)" fill="green" stroke="black" stroke-width="0.5" />
<polygon points="330,285 330,300 440,300 440,285" transform="rotate(0 0 0)" fill="green" stroke="black" stroke-width="0.5" />
<polygon points="0,300 0,315 110,315 110,300" transform="rotate(0 0 0)" fill="green" stroke="black" stroke-width="0.5" />
<polygon points="110,300 110,315 220,315 220,300" transform="rotate(0 0 0)" fill="green" stroke="black" stroke-width="0.5" />
<polygon points="220,300 220,315 330,315 330,300" transform="rotate(0 0 0)" fill="green" stroke="black" stroke-width="0.5" />
<polygon points="330,300 330,315 440,315 440,300" transform="rotate(0 0 0)" fill="green" stroke="black" stroke-width="0.5" />
<polygon points="0,315 0,330 110,330 110,315" transform="rotate(0 0 0)" fill="green" stroke="black" stroke-width="0.5" />
<polygon points="110,315 110,330 220,330 220,315" transform="rotate(0 0 0)" fill="green" stroke="black" stroke-width="0.5" />
<polygon points="220,315 220,330 330,330 330,315" transform="rotate(0 0 0)" fill="green" stroke="black" stroke-width="0.5" />
<polygon points="330,315 330,330 440,330 440,315" transform="rotate(0 0 0)" fill="green" stroke="black" stroke-width="0.5" />
<polygon points="0,330 0,345 110,345 110,330" transform="rotate(0 0 0)" fill="green" stroke="black" stroke-width="0.5" />
<polygon points="110,330 110,345 220,345 220,330" transform="rotate(0 0 0)" fill="green" stroke="black" stroke-width="0.5" />
<polygon points="220,330 220,345 330,345 330,330" transform="rotate(0 0 0)" fill="green" stroke="black" stroke-width="0.5" />
<polygon points="330,330 330,345 440,345 440,330" transform="rotate(0 0 0)" fill="green" stroke="black" stroke-width="0.5" />
<polygon points="0,345 0,360 110,360 110,345" transform="rotate(0 0 0)" fill="green" stroke="black" stroke-width="0.5" />
<polygon points="110,345 110,360 220,360 220,345" transform="rotate(0 0 0)" fill="green" stroke="black" stroke-width="0.5" />
<polygon points="220,345 220,360 330,360 330,345" transform="rotate(0 0 0)" fill="green" stroke="black" stroke-width="0.5" />
<polygon points="330,345 330,360 440,360 440,345" transform="rotate(0 0 0)" fill="green" stroke="black" stroke-width="0.5" />
<polygon points="0,360 0,375 110,375 110,360" transform="rotate(0 0 0)" fill="green" stroke="black" stroke-width="0.5" />
<polygon points="110,360 110,375 220,375 220,360" transform="rotate(0 0 0)" fill="green" stroke="black" stroke-width="0.5" />
<polygon points="220,360 220,375 330,375 330,360" transform="rotate(0 0 0)" fill="green" stroke="black" stroke-width="0.5" />
<polygon points="330,360 330,375 440,375 440,360" transform="rotate(0 0 0)" fill="green" stroke="black" stroke-width="0.5" />
<polygon points="0,375 0,390 110,390 110,375" transform="rotate(0 0 0)" fill="green" stroke="black" stroke-width="0.5" />
<polygon points="110,375 110,390 220,390 220,375" transform="rotate(0 0 0)" fill="green" stroke="black" stroke-width="0.5" />
<polygon points="220,375 220,390 330,390 330,375" transform="rotate(0 0 0)" fill="green" stroke="black" stroke-width="0.5" />
<polygon points="330,375 330,390 440,390 440,375" transform="rotate(0 0 0)" fill="green" stroke="black" stroke-width="0.5" />
<polygon points="0,390 0,405 110,405 110,390" transform="rotate(0 0 0)" fill="green" stroke="black" stroke-width="0.5" />
<polygon points="110,390 110,405 220,405 220,390" transform="rotate(0 0 0)" fill="green" stroke="black" stroke-width="0.5" />
<polygon points="220,390 220,405 330,405 330,390" transform="rotate(0 0 0)" fill="green" stroke="black" stroke-width="0.5" />
<polygon points="330,390 330,405 440,405 440,390" transform="rotate(0 0 0)" fill="green" stroke="black" stroke-width="0.5" />
<polygon points="0,405 0,420 110,420 110,405" transform="rotate(0 0 0)" fill="green" stroke="black" stroke-width="0.5" />
<polygon points="110,405 110,420 220,420 220,405" transform="rotate(0 0 0)" fill="green" stroke="black" stroke-width="0.5" />
<polygon points="220,405 220,420 330,420 330,405" transform="rotate(0 0 0)" fill="green" stroke="black" stroke-width="0.5" />
<polygon points="330,405 330,420 440,420 440,405" transform="rotate(0 0 0)" fill="green" stroke="black" stroke-width="0.5" />
<polygon points="0,420 0,435 110,435 110,420" transform="rotate(0 0 0)" fill="green" stroke="black" stroke-width="0.5" />
<polygon points="110,420 110,435 220,435 220,420" transform="rotate(0 0 0)" fill="green" stroke="black" stroke-width="0.5" />
<polygon points="220,420 220,435 330,435 330,420" transform="rotate(0 0 0)" fill="green" stroke="black" stroke-width="0.5" />
<polygon points="330,420 330,435 440,435 440,420" transform="rotate(0 0 0)" fill="green" stroke="black" stroke-width="0.5" />
<polygon points="0,435 0,450 110,450 110,435" transform="rotate(0 0 0)" fill="green" stroke="black" stroke-width="0.5" />
<polygon points="110,435 110,450 220,450 220,435" transform="rotate(0 0 0)" fill="green" stroke="black" stroke-width="0.5" />
<polygon points="220,435 220,450 330,450 330,435" transform="rotate(0 0 0)" fill="green" stroke="black" stroke-width="0.5" />
<polygon points="330,435 330,450 440,450 440,435" transform="rotate(0 0 0)" fill="green" stroke="black" stroke-width="0.5" />
<polygon points="0,450 0,465 110,465 110,450" transform="rotate(0 0 0)" fill="green" stroke="black" stroke-width="0.5" />
<polygon points="110,450 110,465 220,465 220,450" transform="rotate(0 0 0)" fill="green" stroke="black" stroke-width="0.5" />
<polygon points="220,450 220,465 330,465 330,450" transform="rotate(0 0 0)" fill="green" stroke="black" stroke-width="0.5" />
<polygon points="330,450 330,465 440,465 440,450" transform="rotate(0 0 0)" fill="green" stroke="black" stroke-width="0.5" />
<polygon points="0,465 0,480 110,480 110,465" transform="rotate(0 0 0)" fill="green" stroke="black" stroke-width="0.5" />
<polygon points="110,465 110,480 220,480 220,465" transform="rotate(0 0 0)" fill="green" stroke="black" stroke-width="0.5" />
<polygon points="220,465 220,480 330,480 330,465" transform="rotate(0 0 0)" fill="green" stroke="black" stroke-width="0.5" />
<polygon points="330,465 330,480 440,480 440,465" transform="rotate(0 0 0)" fill="green" stroke="black" stroke-width="0.5" />
<polygon points="0,480 0,495 110,495 110,480" transform="rotate(0 0 0)" fill="green" stroke="black" stroke-width="0.5" />
<polygon points="110,480 110,495 220,495 220,480" transform="rotate(0 0 0)" fill="green" stroke="black" stroke-width="0.5" />
<polygon points="220,480 220,495 330,495 330,480" transform="rotate(0 0 0)" fill="green" stroke="black" stroke-width="0.5" />
<polygon points="330,480 330,495 440,495 440,480" transform="rotate(0 0 0)" fill="green" stroke="black" stroke-width="0.5" />
<polygon points="0,495 0,510 110,510 110,495" transform="rotate(0 0 0)" fill="green" stroke="black" stroke-width="0.5" />
<polygon points="110,495 110,510 220,510 220,495" transform="rotate(0 0 0)" fill="green" stroke="black" stroke-width="0.5" />
<polygon points="220,495 220,510 330,510 330,495" transform="rotate(0 0 0)" fill="green" stroke="black" stroke-width="0.5" />
<polygon points="330,495 330,510 440,510 440,495" transform="rotate(0 0 0)" fill="green" stroke="black" stroke-width="0.5" />
<polygon points="0,510 0,525 110,525 110,510" transform="rotate(0 0 0)" fill="green" stroke="black" stroke-width="0.5" />
<polygon points="110,510 110,525 220,525 220,510" transform="rotate(0 0 0)" fill="green" stroke="black" stroke-width="0.5" />
<polygon points="220,510 220,525 330,525 330,510" transform="rotate(0 0 0)" fill="green" stroke="black" stroke-width="0.5" />
<polygon points="330,510 330,525 440,525 440,510" transform="rotate(0 0 0)" fill="green" stroke="black" stroke-width="0.5" />
<polygon points="0,525 0,540 110,540 110,525" transform="rotate(0 0 0)" fill="green" stroke="black" stroke-width="0.5" />
<polygon points="110,525 110,540 220,540 220,525" transform="rotate(0 0 0)" fill="green" stroke="black" stroke-width="0.5" />
<polygon points="220,525 220,540 330,540 330,525" transform="rotate(0 0 0)" fill="green" stroke="black" stroke-width="0.5" />
<polygon points="330,525 330,540 440,540 440,525" transform="rotate(0 0 0)" fill="green" stroke="black" stroke-width="0.5" />
<polygon points="0,540 0,555 110,555 110,540" transform="rotate(0 0 0)" fill="green" stroke="black" stroke-width="0.5" />
<polygon points="110,540 110,555 220,555 220,540" transform="rotate(0 0 0)" fill="green" stroke="black" stroke-width="0.5" />
<polygon points="220,540 220,555 330,555 330,540" transform="rotate(0 0 0)" fill="green" stroke="black" stroke-width="0.5" />
<polygon points="330,540 330,555 440,555 440,540" transform="rotate(0 0 0)" fill="green" stroke="black" stroke-width="0.5" />
<polygon points="0,555 0,570 110,570 110,555" transform="rotate(0 0 0)" fill="green" stroke="black" stroke-width="0.5" />
<polygon points="110,555 110,570 220,570 220,555" transform="rotate(0 0 0)" fill="green" stroke="black" stroke-width="0.5" />
<polygon points="220,555 220,570 330,570 330,555" transform="rotate(0 0 0)" fill="green" stroke="black" stroke-width="0.5" />
<polygon points="330,555 330,570 440,570 440,555" transform="rotate(0 0 0)" fill="green" stroke="black" stroke-width="0.5" />
<polygon points="0,570 0,585 110,585 110,570" transform="rotate(0 0 0)" fill="green" stroke="black" stroke-width="0.5" />
<polygon points="110,570 110,585 220,585 220,570" transform="rotate(0 0 0)" fill="green" stroke="black" stroke-width="0.5" />
<polygon points="220,570 220,585 330,585 330,570" transform="rotate(0 0 0)" fill="green" stroke="black" stroke-width="0.5" />
<polygon points="330,570 330,585 440,585 440,570" transform="rotate(0 0 0)" fill="green" stroke="black" stroke-width="0.5" />
<polygon points="0,585 0,600 110,600 110,585" transform="rotate(0 0 0)" fill="green" stroke="black" stroke-width="0.5" />
<polygon points="110,585 110,600 220,600 220,585" transform="rotate(0 0 0)" fill="green" stroke="black" stroke-width="0.5" />
<polygon points="220,585 220,600 330,600 330,585" transform="rotate(0 0 0)" fill="green" stroke="black" stroke-width="0.5" />
<polygon points="330,585 330,600 440,600 440,585" transform="rotate(0 0 0)" fill="green" stroke="black" stroke-width="0.5" />
<polygon points="0,600 0,615 110,615 110,600" transform="rotate(0 0 0)" fill="green" stroke="black" stroke-width="0.5" />
<polygon points="110,600 110,615 220,615 220,600" transform="rotate(0 0 0)" fill="green" stroke="black" stroke-width="0.5" />
<polygon points="220,600 220,615 330,615 330,600" transform="rotate(0 0 0)" fill="green" stroke="black" stroke-width="0.5" />
<polygon points="330,600 330,615 440,615 440,600" transform="rotate(0 0 0)" fill="green" stroke="black" stroke-width="0.5" />
<polygon points="0,615 0,630 110,630 110,615" transform="rotate(0 0 0)" fill="green" stroke="black" stroke-width="0.5" />
<polygon points="110,615 110,630 220,630 220,615" transform="rotate(0 0 0)" fill="green" stroke="black" stroke-width="0.5" />
<polygon points="220,615 220,630 330,630 330,615" transform="rotate(0 0 0)" fill="green" stroke="black" stroke-width="0.5" />
<polygon points="330,615 330,630 440,630 440,615" transform="rotate(0 0 0)" fill="green" stroke="black" stroke-width="0.5" />
<polygon points="0,630 0,645 110,645 110,630" transform="rotate(0 0 0)" fill="green" stroke="black" stroke-width="0.5" />
<polygon points="110,630 110,645 220,645 220,630" transform="rotate(0 0 0)" fill="green" stroke="black" stroke-width="0.5" />
<polygon points="220,630 220,645 330,645 330,630" transform="rotate(0 0 0)" fill="green" stroke="black" stroke-width="0.5" />
<polygon points="330,630 330,645 440,645 440,630" transform="rotate(0 0 0)" fill="green" stroke="black" stroke-width="0.5" />
<polygon points="0,645 0,660 110,660 110,645" transform="rotate(0 0 0)" fill="green" stroke="black" stroke-width="0.5" />
<polygon points="110,645 110,660 220,660 220,645" transform="rotate(0 0 0)" fill="green" stroke="black" stroke-width="0.5" />
<polygon points="220,645 220,660 330,660 330,645" transform="rotate(0 0 0)" fill="green" stroke="black" stroke-width="0.5" />
<polygon points="330,645 330,660 440,660 440,645" transform="rotate(0 0 0)" fill="green" stroke="black" stroke-width="0.5" />
<polygon points="0,660 0,675 110,675 110,660" transform="rotate(0 0 0)" fill="green" stroke="black" stroke-width="0.5" />
<polygon points="110,660 110,675 220,675 220,660" transform="rotate(0 0 0)" fill="green" stroke="black" stroke-width="0.5" />
<polygon points="220,660 220,675 330,675 330,660" transform="rotate(0 0 0)" fill="green" stroke="black" stroke-width="0.5" />
<polygon points="330,660 330,675 440,675 440,660" transform="rotate(0 0 0)" fill="green" stroke="black" stroke-width="0.5" />
<polygon points="0,675 0,690 110,690 110,675" transform="rotate(0 0 0)" fill="green" stroke="black" stroke-width="0.5" />
<polygon points="110,675 110,690 220,690 220,675" transform="rotate(0 0 0)" fill="green" stroke="black" stroke-width="0.5" />
<polygon points="220,675 220,690 330,690 330,675" transform="rotate(0 0 0)" fill="green" stroke="black" stroke-width="0.5" />
<polygon points="330,675 330,690 440,690 440,675" transform="rotate(0 0 0)" fill="green" stroke="black" stroke-width="0.5" />
<polygon points="0,690 0,705 110,705 110,690" transform="rotate(0 0 0)" fill="green" stroke="black" stroke-width="0.5" />
<polygon points="110,690 110,705 220,705 220,690" transform="rotate(0 0 0)" fill="green" stroke="black" stroke-width="0.5" />
<polygon points="220,690 220,705 330,705 330,690" transform="rotate(0 0 0)" fill="green" stroke="black" stroke-width="0.5" />
<polygon points="330,690 330,705 440,705 440,690" transform="rotate(0 0 0)" fill="green" stroke="black" stroke-width="0.5" />
<polygon points="0,705 0,720 110,720 110,705" transform="rotate(0 0 0)" fill="green" stroke="black" stroke-width="0.5" />
<polygon points="110,705 110,720 220,720 220,705" transform="rotate(0 0 0)" fill="green" stroke="black" stroke-width="0.5" />
<polygon points="220,705 220,720 330,720 330,705" transform="rotate(0 0 0)" fill="green" stroke="black" stroke-width="0.5" />
<polygon points="330,705 330,720 440,720 440,705" transform="rotate(0 0 0)" fill="green" stroke="black" stroke-width="0.5" />
<polygon points="0,720 0,735 110,735 110,720" transform="rotate(0 0 0)" fill="green" stroke="black" stroke-width="0.5" />
<polygon points="110,720 110,735 220,735 220,720" transform="rotate(0 0 0)" fill="green" stroke="black" stroke-width="0.5" />
<polygon points="220,720 220,735 330,735 330,720" transform="rotate(0 0 0)" fill="green" stroke="black" stroke-width="0.5" />
<polygon points="330,720 330,735 440,735 440,720" transform="rotate(0 0 0)" fill="green" stroke="black" stroke-width="0.5" />
<polygon points="0,735 0,750 110,750 110,735" transform="rotate(0 0 0)" fill="green" stroke="black" stroke-width="0.5" />
<polygon points="110,735 110,750 220,750 220,735" transform="rotate(0 0 0)" fill="green" stroke="black" stroke-width="0.5" />
<polygon points="220,735 220,750 330,750 330,735" transform="rotate(0 0 0)" fill="green" stroke="black" stroke-width="0.5" />
<polygon points="330,735 330,750 440,750 440,735" transform="rotate(0 0 0)" fill="green" stroke="black" stroke-width="0.5" />
<polygon points="440,0 440,110 455,110 455,0" transform="rotate(0 0 0)" fill="green" stroke="black" stroke-width="0.5" />
<polygon points="440,110 440,220 455,220 455,110" transform="rotate(0 0 0)" fill="green" stroke="black" stroke-width="0.5" />
<polygon points="440,220 440,330 455,330 455,220" transform="rotate(0 0 0)" fill="green" stroke="black" stroke-width="0.5" />
<polygon points="440,330 440,440 455,440 455,330" transform="rotate(0 0 0)" fill="green" stroke="black" stroke-width="0.5" />
<polygon points="440,440 440,550 455,550 455,440" transform="rotate(0 0 0)" fill="green" stroke="black" stroke-width="0.5" />
<polygon points="440,550 440,660 455,660 455,550" transform="rotate(0 0 0)" fill="green" stroke="black" stroke-width="0.5" />
<polygon points="455,0 455,110 470,110 470,0" transform="rotate(0 0 0)" fill="green" stroke="black" stroke-width="0.5" />
<polygon points="455,110 455,220 470,220 470,110" transform="rotate(0 0 0)" fill="green" stroke="black" stroke-width="0.5" />
<polygon points="455,220 455,330 470,330 470,220" transform="rotate(0 0 0)" fill="green" stroke="black" stroke-width="0.5" />
<polygon points="455,330 455,440 470,440 470,330" transform="rotate(0 0 0)" fill="green" stroke="black" stroke-width="0.5" />
<polygon points="455,440 455,550 470,550 470,440" transform="rotate(0 0 0)" fill="green" stroke="black" stroke-width="0.5" />
<polygon points="455,550 455,660 470,660 470,550" transform="rotate(0 0 0)" fill="green" stroke="black" stroke-width="0.5" />
<polygon points="470,0 470,110 485,110 485,0" transform="rotate(0 0 0)" fill="green" stroke="black" stroke-width="0.5" />
<polygon points="470,110 470,220 485,220 485,110" transform="rotate(0 0 0)" fill="green" stroke="black" stroke-width="0.5" />
<polygon points="470,220 470,330 485,330 485,220" transform="rotate(0 0 0)" fill="green" stroke="black" stroke-width="0.5" />
<polygon points="470,330 470,440 485,440 485,330" transform="rotate(0 0 0)" fill="green" stroke="black" stroke-width="0.5" />
<polygon points="470,440 470,550 485,550 485,440" transform="rotate(0 0 0)" fill="green" stroke="black" stroke-width="0.5" />
<polygon points="470,550 470,660 485,660 485,550" transform="rotate(0 0 0)" fill="green" stroke="black" stroke-width="0.5" />
</svg>
