<svg version="1.1" baseProfile="full" xmlns="http://www.w3.org/2000/svg">
<polygon points="250,0 0,433.013 500,433.013" transform="rotate(0 0 0)" fill="pink" stroke="black" stroke-width="0.5" />
<polygon points="250,0 230,34.641 270,34.641" transform="rotate(0 0 0)" fill="green" stroke="black" stroke-width="0.5" />
<polygon points="250,69.282 230,34.641 270,34.641" transform="rotate(0 0 0)" fill="green" stroke="black" stroke-width="0.5" />
<polygon points="230,34.641 210,69.282 250,69.282" transform="rotate(0 0 0)" fill="green" stroke="black" stroke-width="0.5" />
<polygon points="230,103.923 210,69.282 250,69.282" transform="rotate(0 0 0)" fill="green" stroke="black" stroke-width="0.5" />
<polygon points="270,34.641 250,69.282 290,69.282" transform="rotate(0 0 0)" fill="green" stroke="black" stroke-width="0.5" />
<polygon points="270,103.923 250,69.282 290,69.282" transform="rotate(0 0 0)" fill="green" stroke="black" stroke-width="0.5" />
<polygon points="210,69.282 190,103.923 230,103.923" transform="rotate(0 0 0)" fill="green" stroke="black" stroke-width="0.5" />
<polygon points="210,138.564 190,103.923 230,103.923" transform="rotate(0 0 0)" fill="green" stroke="black" stroke-width="0.5" />
<polygon points="250,69.282 230,103.923 270,103.923" transform="rotate(0 0 0)" fill="green" stroke="black" stroke-width="0.5" />
<polygon points="250,138.564 230,103.923 270,103.923" transform="rotate(0 0 0)" fill="green" stroke="black" stroke-width="0.5" />
<polygon points="290,69.282 270,103.923 310,103.923" transform="rotate(0 0 0)" fill="green" stroke="black" stroke-width="0.5" />
<polygon points="290,138.564 270,103.923 310,103.923" transform="rotate(0 0 0)" fill="green" stroke="black" stroke-width="0.5" />
<polygon points="190,103.923 170,138.564 210,138.564" transform="rotate(0 0 0)" fill="green" stroke="black" stroke-width="0.5" />
<polygon points="190,173.205 170,138.564 210,138.564" transform="rotate(0 0 0)" fill="green" stroke="black" stroke-width="0.5" />
<polygon points="230,103.923 210,138.564 250,138.564" transform="rotate(0 0 0)" fill="green" stroke="black" stroke-width="0.5" />
<polygon points="230,173.205 210,138.564 250,138.564" transform="rotate(0 0 0)" fill="green" stroke="black" stroke-width="0.5" />
<polygon points="270,103.923 250,138.564 290,138.564" transform="rotate(0 0 0)" fill="green" stroke="black" stroke-width="0.5" />
<polygon points="270,173.205 250,138.564 290,138.564" transform="rotate(0 0 0)" fill="green" stroke="black" stroke-width="0.5" />
<polygon points="310,103.923 290,138.564 330,138.564" transform="rotate(0 0 0)" fill="green" stroke="black" stroke-width="0.5" />
<polygon points="310,173.205 290,138.564 330,138.564" transform="rotate(0 0 0)" fill="green" stroke="black" stroke-width="0.5" />
<polygon points="170,138.564 150,173.205 190,173.205" transform="rotate(0 0 0)" fill="green" stroke="black" stroke-width="0.5" />
<polygon points="170,207.846 150,173.205 190,173.205" transform="rotate(0 0 0)" fill="green" stroke="black" stroke-width="0.5" />
<polygon points="210,138.564 190,173.205 230,173.205" transform="rotate(0 0 0)" fill="green" stroke="black" stroke-width="0.5" />
<polygon points="210,207.846 190,173.205 230,173.205" transform="rotate(0 0 0)" fill="green" stroke="black" stroke-width="0.5" />
<polygon points="250,138.564 230,173.205 270,173.205" transform="rotate(0 0 0)" fill="green" stroke="black" stroke-width="0.5" />
<polygon points="250,207.846 230,173.205 270,173.205" transform="rotate(0 0 0)" fill="green" stroke="black" stroke-width="0.5" />
<polygon points="290,138.564 270,173.205 310,173.205" transform="rotate(0 0 0)" fill="green" stroke="black" stroke-width="0.5" />
<polygon points="290,207.846 270,173.205 310,173.205" transform="rotate(0 0 0)" fill="green" stroke="black" stroke-width="0.5" />
<polygon points="330,138.564 310,173.205 350,173.205" transform="rotate(0 0 0)" fill="green" stroke="black" stroke-width="0.5" />
<polygon points="330,207.846 310,173.205 350,173.205" transform="rotate(0 0 0)" fill="green" stroke="black" stroke-width="0.5" />
<polygon points="150,173.205 130,207.846 170,207.846" transform="rotate(0 0 0)" fill="green" stroke="black" stroke-width="0.5" />
<polygon points="150,242.487 130,207.846 170,207.846" transform="rotate(0 0 0)" fill="green" stroke="black" stroke-width="0.5" />
<polygon points="190,173.205 170,207.846 210,207.846" transform="rotate(0 0 0)" fill="green" stroke="black" stroke-width="0.5" />
<polygon points="190,242.487 170,207.846 210,207.846" transform="rotate(0 0 0)" fill="green" stroke="black" stroke-width="0.5" />
<polygon points="230,173.205 210,207.846 250,207.846" transform="rotate(0 0 0)" fill="green" stroke="black" stroke-width="0.5" />
<polygon points="230,242.487 210,207.846 250,207.846" transform="rotate(0 0 0)" fill="green" stroke="black" stroke-width="0.5" />
<polygon points="270,173.205 250,207.846 290,207.846" transform="rotate(0 0 0)" fill="green" stroke="black" stroke-width="0.5" />
<polygon points="270,242.487 250,207.846 290,207.846" transform="rotate(0 0 0)" fill="green" stroke="black" stroke-width="0.5" />
<polygon points="310,173.205 290,207.846 330,207.846" transform="rotate(0 0 0)" fill="green" stroke="black" stroke-width="0.5" />
<polygon points="310,242.487 290,207.846 330,207.846" transform="rotate(0 0 0)" fill="green" stroke="black" stroke-width="0.5" />
<polygon points="350,173.205 330,207.846 370,207.846" transform="rotate(0 0 0)" fill="green" stroke="black" stroke-width="0.5" />
<polygon points="350,242.487 330,207.846 370,207.846" transform="rotate(0 0 0)" fill="green" stroke="black" stroke-width="0.5" />
<polygon points="130,207.846 110,242.487 150,242.487" transform="rotate(0 0 0)" fill="green" stroke="black" stroke-width="0.5" />
<polygon points="130,277.128 110,242.487 150,242.487" transform="rotate(0 0 0)" fill="green" stroke="black" stroke-width="0.5" />
<polygon points="170,207.846 150,242.487 190,242.487" transform="rotate(0 0 0)" fill="green" stroke="black" stroke-width="0.5" />
<polygon points="170,277.128 150,242.487 190,242.487" transform="rotate(0 0 0)" fill="green" stroke="black" stroke-width="0.5" />
<polygon points="210,207.846 190,242.487 230,242.487" transform="rotate(0 0 0)" fill="green" stroke="black" stroke-width="0.5" />
<polygon points="210,277.128 190,242.487 230,242.487" transform="rotate(0 0 0)" fill="green" stroke="black" stroke-width="0.5" />
<polygon points="250,207.846 230,242.487 270,242.487" transform="rotate(0 0 0)" fill="green" stroke="black" stroke-width="0.5" />
<polygon points="250,277.128 230,242.487 270,242.487" transform="rotate(0 0 0)" fill="green" stroke="black" stroke-width="0.5" />
<polygon points="290,207.846 270,242.487 310,242.487" transform="rotate(0 0 0)" fill="green" stroke="black" stroke-width="0.5" />
<polygon points="290,277.128 270,242.487 310,242.487" transform="rotate(0 0 0)" fill="green" stroke="black" stroke-width="0.5" />
<polygon points="330,207.846 310,242.487 350,242.487" transform="rotate(0 0 0)" fill="green" stroke="black" stroke-width="0.5" />
<polygon points="330,277.128 310,242.487 350,242.487" transform="rotate(0 0 0)" fill="green" stroke="black" stroke-width="0.5" />
<polygon points="370,207.846 350,242.487 390,242.487" transform="rotate(0 0 0)" fill="green" stroke="black" stroke-width="0.5" />
<polygon points="370,277.128 350,242.487 390,242.487" transform="rotate(0 0 0)" fill="green" stroke="black" stroke-width="0.5" />
<polygon points="110,242.487 90,277.128 130,277.128" transform="rotate(0 0 0)" fill="green" stroke="black" stroke-width="0.5" />
<polygon points="110,311.769 90,277.128 130,277.128" transform="rotate(0 0 0)" fill="green" stroke="black" stroke-width="0.5" />
<polygon points="150,242.487 130,277.128 170,277.128" transform="rotate(0 0 0)" fill="green" stroke="black" stroke-width="0.5" />
<polygon points="150,311.769 130,277.128 170,277.128" transform="rotate(0 0 0)" fill="green" stroke="black" stroke-width="0.5" />
<polygon points="190,242.487 170,277.128 210,277.128" transform="rotate(0 0 0)" fill="green" stroke="black" stroke-width="0.5" />
<polygon points="190,311.769 170,277.128 210,277.128" transform="rotate(0 0 0)" fill="green" stroke="black" stroke-width="0.5" />
<polygon points="230,242.487 210,277.128 250,277.128" transform="rotate(0 0 0)" fill="green" stroke="black" stroke-width="0.5" />
<polygon points="230,311.769 210,277.128 250,277.128" transform="rotate(0 0 0)" fill="green" stroke="black" stroke-width="0.5" />
<polygon points="270,242.487 250,277.128 290,277.128" transform="rotate(0 0 0)" fill="green" stroke="black" stroke-width="0.5" />
<polygon points="270,311.769 250,277.128 290,277.128" transform="rotate(0 0 0)" fill="green" stroke="black" stroke-width="0.5" />
<polygon points="310,242.487 290,277.128 330,277.128" transform="rotate(0 0 0)" fill="green" stroke="black" stroke-width="0.5" />
<polygon points="310,311.769 290,277.128 330,277.128" transform="rotate(0 0 0)" fill="green" stroke="black" stroke-width="0.5" />
<polygon points="350,242.487 330,277.128 370,277.128" transform="rotate(0 0 0)" fill="green" stroke="black" stroke-width="0.5" />
<polygon points="350,311.769 330,277.128 370,277.128" transform="rotate(0 0 0)" fill="green" stroke="black" stroke-width="0.5" />
<polygon points="390,242.487 370,277.128 410,277.128" transform="rotate(0 0 0)" fill="green" stroke="black" stroke-width="0.5" />
<polygon points="390,311.769 370,277.128 410,277.128" transform="rotate(0 0 0)" fill="green" stroke="black" stroke-width="0.5" />
<polygon points="90,277.128 70,311.769 110,311.769" transform="rotate(0 0 0)" fill="green" stroke="black" stroke-width="0.5" />
<polygon points="90,346.41 70,311.769 110,311.769" transform="rotate(0 0 0)" fill="green" stroke="black" stroke-width="0.5" />
<polygon points="130,277.128 110,311.769 150,311.769" transform="rotate(0 0 0)" fill="green" stroke="black" stroke-width="0.5" />
<polygon points="130,346.41 110,311.769 150,311.769" transform="rotate(0 0 0)" fill="green" stroke="black" stroke-width="0.5" />
<polygon points="170,277.128 150,311.769 190,311.769" transform="rotate(0 0 0)" fill="green" stroke="black" stroke-width="0.5" />
<polygon points="170,346.41 150,311.769 190,311.769" transform="rotate(0 0 0)" fill="green" stroke="black" stroke-width="0.5" />
<polygon points="210,277.128 190,311.769 230,311.769" transform="rotate(0 0 0)" fill="green" stroke="black" stroke-width="0.5" />
<polygon points="210,346.41 190,311.769 230,311.769" transform="rotate(0 0 0)" fill="green" stroke="black" stroke-width="0.5" />
<polygon points="250,277.128 230,311.769 270,311.769" transform="rotate(0 0 0)" fill="green" stroke="black" stroke-width="0.5" />
<polygon points="250,346.41 230,311.769 270,311.769" transform="rotate(0 0 0)" fill="green" stroke="black" stroke-width="0.5" />
<polygon points="290,277.128 270,311.769 310,311.769" transform="rotate(0 0 0)" fill="green" stroke="black" stroke-width="0.5" />
<polygon points="290,346.41 270,311.769 310,311.769" transform="rotate(0 0 0)" fill="green" stroke="black" stroke-width="0.5" />
<polygon points="330,277.128 310,311.769 350,311.769" transform="rotate(0 0 0)" fill="green" stroke="black" stroke-width="0.5" />
<polygon points="330,346.41 310,311.769 350,311.769" transform="rotate(0 0 0)" fill="green" stroke="black" stroke-width="0.5" />
<polygon points="370,277.128 350,311.769 390,311.769" transform="rotate(0 0 0)" fill="green" stroke="black" stroke-width="0.5" />
<polygon points="370,346.41 350,311.769 390,311.769" transform="rotate(0 0 0)" fill="green" stroke="black" stroke-width="0.5" />
<polygon points="410,277.128 390,311.769 430,311.769" transform="rotate(0 0 0)" fill="green" stroke="black" stroke-width="0.5" />
<polygon points="410,346.41 390,311.769 430,311.769" transform="rotate(0 0 0)" fill="green" stroke="black" stroke-width="0.5" />
<polygon points="70,311.769 50,346.41 90,346.41" transform="rotate(0 0 0)" fill="green" stroke="black" stroke-width="0.5" />
<polygon points="70,381.051 50,346.41 90,346.41" transform="rotate(0 0 0)" fill="green" stroke="black" stroke-width="0.5" />
<polygon points="110,311.769 90,346.41 130,346.41" transform="rotate(0 0 0)" fill="green" stroke="black" stroke-width="0.5" />
<polygon points="110,381.051 90,346.41 130,346.41" transform="rotate(0 0 0)" fill="green" stroke="black" stroke-width="0.5" />
<polygon points="150,311.769 130,346.41 170,346.41" transform="rotate(0 0 0)" fill="green" stroke="black" stroke-width="0.5" />
<polygon points="150,381.051 130,346.41 170,346.41" transform="rotate(0 0 0)" fill="green" stroke="black" stroke-width="0.5" />
<polygon points="190,311.769 170,346.41 210,346.41" transform="rotate(0 0 0)" fill="green" stroke="black" stroke-width="0.5" />
<polygon points="190,381.051 170,346.41 210,346.41" transform="rotate(0 0 0)" fill="green" stroke="black" stroke-width="0.5" />
<polygon points="230,311.769 210,346.41 250,346.41" transform="rotate(0 0 0)" fill="green" stroke="black" stroke-width="0.5" />
<polygon points="230,381.051 210,346.41 250,346.41" transform="rotate(0 0 0)" fill="green" stroke="black" stroke-width="0.5" />
<polygon points="270,311.769 250,346.41 290,346.41" transform="rotate(0 0 0)" fill="green" stroke="black" stroke-width="0.5" />
<polygon points="270,381.051 250,346.41 290,346.41" transform="rotate(0 0 0)" fill="green" stroke="black" stroke-width="0.5" />
<polygon points="310,311.769 290,346.41 330,346.41" transform="rotate(0 0 0)" fill="green" stroke="black" stroke-width="0.5" />
<polygon points="310,381.051 290,346.41 330,346.41" transform="rotate(0 0 0)" fill="green" stroke="black" stroke-width="0.5" />
<polygon points="350,311.769 330,346.41 370,346.41" transform="rotate(0 0 0)" fill="green" stroke="black" stroke-width="0.5" />
<polygon points="350,381.051 330,346.41 370,346.41" transform="rotate(0 0 0)" fill="green" stroke="black" stroke-width="0.5" />
<polygon points="390,311.769 370,346.41 410,346.41" transform="rotate(0 0 0)" fill="green" stroke="black" stroke-width="0.5" />
<polygon points="390,381.051 370,346.41 410,346.41" transform="rotate(0 0 0)" fill="green" stroke="black" stroke-width="0.5" />
<polygon points="430,311.769 410,346.41 450,346.41" transform="rotate(0 0 0)" fill="green" stroke="black" stroke-width="0.5" />
<polygon points="430,381.051 410,346.41 450,346.41" transform="rotate(0 0 0)" fill="green" stroke="black" stroke-width="0.5" />
<polygon points="50,346.41 30,381.051 70,381.051" transform="rotate(0 0 0)" fill="green" stroke="black" stroke-width="0.5" />
<polygon points="50,415.692 30,381.051 70,381.051" transform="rotate(0 0 0)" fill="green" stroke="black" stroke-width="0.5" />
<polygon points="90,346.41 70,381.051 110,381.051" transform="rotate(0 0 0)" fill="green" stroke="black" stroke-width="0.5" />
<polygon points="90,415.692 70,381.051 110,381.051" transform="rotate(0 0 0)" fill="green" stroke="black" stroke-width="0.5" />
<polygon points="130,346.41 110,381.051 150,381.051" transform="rotate(0 0 0)" fill="green" stroke="black" stroke-width="0.5" />
<polygon points="130,415.692 110,381.051 150,381.051" transform="rotate(0 0 0)" fill="green" stroke="black" stroke-width="0.5" />
<polygon points="170,346.41 150,381.051 190,381.051" transform="rotate(0 0 0)" fill="green" stroke="black" stroke-width="0.5" />
<polygon points="170,415.692 150,381.051 190,381.051" transform="rotate(0 0 0)" fill="green" stroke="black" stroke-width="0.5" />
<polygon points="210,346.41 190,381.051 230,381.051" transform="rotate(0 0 0)" fill="green" stroke="black" stroke-width="0.5" />
<polygon points="210,415.692 190,381.051 230,381.051" transform="rotate(0 0 0)" fill="green" stroke="black" stroke-width="0.5" />
<polygon points="250,346.41 230,381.051 270,381.051" transform="rotate(0 0 0)" fill="green" stroke="black" stroke-width="0.5" />
<polygon points="250,415.692 230,381.051 270,381.051" transform="rotate(0 0 0)" fill="green" stroke="black" stroke-width="0.5" />
<polygon points="290,346.41 270,381.051 310,381.051" transform="rotate(0 0 0)" fill="green" stroke="black" stroke-width="0.5" />
<polygon points="290,415.692 270,381.051 310,381.051" transform="rotate(0 0 0)" fill="green" stroke="black" stroke-width="0.5" />
<polygon points="330,346.41 310,381.051 350,381.051" transform="rotate(0 0 0)" fill="green" stroke="black" stroke-width="0.5" />
<polygon points="330,415.692 310,381.051 350,381.051" transform="rotate(0 0 0)" fill="green" stroke="black" stroke-width="0.5" />
<polygon points="370,346.41 350,381.051 390,381.051" transform="rotate(0 0 0)" fill="green" stroke="black" stroke-width="0.5" />
<polygon points="370,415.692 350,381.051 390,381.051" transform="rotate(0 0 0)" fill="green" stroke="black" stroke-width="0.5" />
<polygon points="410,346.41 390,381.051 430,381.051" transform="rotate(0 0 0)" fill="green" stroke="black" stroke-width="0.5" />
<polygon points="410,415.692 390,381.051 430,381.051" transform="rotate(0 0 0)" fill="green" stroke="black" stroke-width="0.5" />
<polygon points="450,346.41 430,381.051 470,381.051" transform="rotate(0 0 0)" fill="green" stroke="black" stroke-width="0.5" />
<polygon points="450,415.692 430,381.051 470,381.051" transform="rotate(0 0 0)" fill="green" stroke="black" stroke-width="0.5" />
<polygon points="30,381.051 10,415.692 50,415.692" transform="rotate(0 0 0)" fill="green" stroke="black" stroke-width="0.5" />
<polygon points="70,381.051 50,415.692 90,415.692" transform="rotate(0 0 0)" fill="green" stroke="black" stroke-width="0.5" />
<polygon points="110,381.051 90,415.692 130,415.692" transform="rotate(0 0 0)" fill="green" stroke="black" stroke-width="0.5" />
<polygon points="150,381.051 130,415.692 170,415.692" transform="rotate(0 0 0)" fill="green" stroke="black" stroke-width="0.5" />
<polygon points="190,381.051 170,415.692 210,415.692" transform="rotate(0 0 0)" fill="green" stroke="black" stroke-width="0.5" />
<polygon points="230,381.051 210,415.692 250,415.692" transform="rotate(0 0 0)" fill="green" stroke="black" stroke-width="0.5" />
<polygon points="270,381.051 250,415.692 290,415.692" transform="rotate(0 0 0)" fill="green" stroke="black" stroke-width="0.5" />
<polygon points="310,381.051 290,415.692 330,415.692" transform="rotate(0 0 0)" fill="green" stroke="black" stroke-width="0.5" />
<polygon points="350,381.051 330,415.692 370,415.692" transform="rotate(0 0 0)" fill="green" stroke="black" stroke-width="0.5" />
<polygon points="390,381.051 370,415.692 410,415.692" transform="rotate(0 0 0)" fill="green" stroke="black" stroke-width="0.5" />
<polygon points="430,381.051 410,415.692 450,415.692" transform="rotate(0 0 0)" fill="green" stroke="black" stroke-width="0.5" />
<polygon points="470,381.051 450,415.692 490,415.692" transform="rotate(0 0 0)" fill="green" stroke="black" stroke-width="0.5" />
</svg>
