<svg version="1.1" baseProfile="full" xmlns="http://www.w3.org/2000/svg">
<polygon points="260,10 10,443.013 510,443.013" transform="rotate(0 0 0)" fill="dimgrey" stroke="black" stroke-width="0.5" />
<polygon points="40,428.013 40,443.013 150,443.013 150,428.013" transform="rotate(0 0 0)" fill="green" stroke="black" stroke-width="0.5" />
<polygon points="150,428.013 150,443.013 260,443.013 260,428.013" transform="rotate(0 0 0)" fill="green" stroke="black" stroke-width="0.5" />
<polygon points="260,428.013 260,443.013 370,443.013 370,428.013" transform="rotate(0 0 0)" fill="green" stroke="black" stroke-width="0.5" />
<polygon points="370,428.013 370,443.013 480,443.013 480,428.013" transform="rotate(0 0 0)" fill="green" stroke="black" stroke-width="0.5" />
<polygon points="40,413.013 40,428.013 150,428.013 150,413.013" transform="rotate(0 0 0)" fill="green" stroke="black" stroke-width="0.5" />
<polygon points="150,413.013 150,428.013 260,428.013 260,413.013" transform="rotate(0 0 0)" fill="green" stroke="black" stroke-width="0.5" />
<polygon points="260,413.013 260,428.013 370,428.013 370,413.013" transform="rotate(0 0 0)" fill="green" stroke="black" stroke-width="0.5" />
<polygon points="370,413.013 370,428.013 480,428.013 480,413.013" transform="rotate(0 0 0)" fill="green" stroke="black" stroke-width="0.5" />
<polygon points="40,398.013 40,413.013 150,413.013 150,398.013" transform="rotate(0 0 0)" fill="green" stroke="black" stroke-width="0.5" />
<polygon points="150,398.013 150,413.013 260,413.013 260,398.013" transform="rotate(0 0 0)" fill="green" stroke="black" stroke-width="0.5" />
<polygon points="260,398.013 260,413.013 370,413.013 370,398.013" transform="rotate(0 0 0)" fill="green" stroke="black" stroke-width="0.5" />
<polygon points="370,398.013 370,413.013 480,413.013 480,398.013" transform="rotate(0 0 0)" fill="green" stroke="black" stroke-width="0.5" />
<polygon points="95,383.013 95,398.013 205,398.013 205,383.013" transform="rotate(0 0 0)" fill="green" stroke="black" stroke-width="0.5" />
<polygon points="205,383.013 205,398.013 315,398.013 315,383.013" transform="rotate(0 0 0)" fill="green" stroke="black" stroke-width="0.5" />
<polygon points="315,383.013 315,398.013 425,398.013 425,383.013" transform="rotate(0 0 0)" fill="green" stroke="black" stroke-width="0.5" />
<polygon points="95,368.013 95,383.013 205,383.013 205,368.013" transform="rotate(0 0 0)" fill="green" stroke="black" stroke-width="0.5" />
<polygon points="205,368.013 205,383.013 315,383.013 315,368.013" transform="rotate(0 0 0)" fill="green" stroke="black" stroke-width="0.5" />
<polygon points="315,368.013 315,383.013 425,383.013 425,368.013" transform="rotate(0 0 0)" fill="green" stroke="black" stroke-width="0.5" />
<polygon points="95,353.013 95,368.013 205,368.013 205,353.013" transform="rotate(0 0 0)" fill="green" stroke="black" stroke-width="0.5" />
<polygon points="205,353.013 205,368.013 315,368.013 315,353.013" transform="rotate(0 0 0)" fill="green" stroke="black" stroke-width="0.5" />
<polygon points="315,353.013 315,368.013 425,368.013 425,353.013" transform="rotate(0 0 0)" fill="green" stroke="black" stroke-width="0.5" />
<polygon points="95,338.013 95,353.013 205,353.013 205,338.013" transform="rotate(0 0 0)" fill="green" stroke="black" stroke-width="0.5" />
<polygon points="205,338.013 205,353.013 315,353.013 315,338.013" transform="rotate(0 0 0)" fill="green" stroke="black" stroke-width="0.5" />
<polygon points="315,338.013 315,353.013 425,353.013 425,338.013" transform="rotate(0 0 0)" fill="green" stroke="black" stroke-width="0.5" />
<polygon points="95,323.013 95,338.013 205,338.013 205,323.013" transform="rotate(0 0 0)" fill="green" stroke="black" stroke-width="0.5" />
<polygon points="205,323.013 205,338.013 315,338.013 315,323.013" transform="rotate(0 0 0)" fill="green" stroke="black" stroke-width="0.5" />
<polygon points="315,323.013 315,338.013 425,338.013 425,323.013" transform="rotate(0 0 0)" fill="green" stroke="black" stroke-width="0.5" />
<polygon points="95,308.013 95,323.013 205,323.013 205,308.013" transform="rotate(0 0 0)" fill="green" stroke="black" stroke-width="0.5" />
<polygon points="205,308.013 205,323.013 315,323.013 315,308.013" transform="rotate(0 0 0)" fill="green" stroke="black" stroke-width="0.5" />
<polygon points="315,308.013 315,323.013 425,323.013 425,308.013" transform="rotate(0 0 0)" fill="green" stroke="black" stroke-width="0.5" />
<polygon points="150,293.013 150,308.013 260,308.013 260,293.013" transform="rotate(0 0 0)" fill="green" stroke="black" stroke-width="0.5" />
<polygon points="260,293.013 260,308.013 370,308.013 370,293.013" transform="rotate(0 0 0)" fill="green" stroke="black" stroke-width="0.5" />
<polygon points="150,278.013 150,293.013 260,293.013 260,278.013" transform="rotate(0 0 0)" fill="green" stroke="black" stroke-width="0.5" />
<polygon points="260,278.013 260,293.013 370,293.013 370,278.013" transform="rotate(0 0 0)" fill="green" stroke="black" stroke-width="0.5" />
<polygon points="150,263.013 150,278.013 260,278.013 260,263.013" transform="rotate(0 0 0)" fill="green" stroke="black" stroke-width="0.5" />
<polygon points="260,263.013 260,278.013 370,278.013 370,263.013" transform="rotate(0 0 0)" fill="green" stroke="black" stroke-width="0.5" />
<polygon points="150,248.013 150,263.013 260,263.013 260,248.013" transform="rotate(0 0 0)" fill="green" stroke="black" stroke-width="0.5" />
<polygon points="260,248.013 260,263.013 370,263.013 370,248.013" transform="rotate(0 0 0)" fill="green" stroke="black" stroke-width="0.5" />
<polygon points="150,233.013 150,248.013 260,248.013 260,233.013" transform="rotate(0 0 0)" fill="green" stroke="black" stroke-width="0.5" />
<polygon points="260,233.013 260,248.013 370,248.013 370,233.013" transform="rotate(0 0 0)" fill="green" stroke="black" stroke-width="0.5" />
<polygon points="150,218.013 150,233.013 260,233.013 260,218.013" transform="rotate(0 0 0)" fill="green" stroke="black" stroke-width="0.5" />
<polygon points="260,218.013 260,233.013 370,233.013 370,218.013" transform="rotate(0 0 0)" fill="green" stroke="black" stroke-width="0.5" />
<polygon points="150,203.013 150,218.013 260,218.013 260,203.013" transform="rotate(0 0 0)" fill="green" stroke="black" stroke-width="0.5" />
<polygon points="260,203.013 260,218.013 370,218.013 370,203.013" transform="rotate(0 0 0)" fill="green" stroke="black" stroke-width="0.5" />
<polygon points="205,188.013 205,203.013 315,203.013 315,188.013" transform="rotate(0 0 0)" fill="green" stroke="black" stroke-width="0.5" />
<polygon points="205,173.013 205,188.013 315,188.013 315,173.013" transform="rotate(0 0 0)" fill="green" stroke="black" stroke-width="0.5" />
<polygon points="205,158.013 205,173.013 315,173.013 315,158.013" transform="rotate(0 0 0)" fill="green" stroke="black" stroke-width="0.5" />
<polygon points="205,143.013 205,158.013 315,158.013 315,143.013" transform="rotate(0 0 0)" fill="green" stroke="black" stroke-width="0.5" />
<polygon points="205,128.013 205,143.013 315,143.013 315,128.013" transform="rotate(0 0 0)" fill="green" stroke="black" stroke-width="0.5" />
<polygon points="205,113.013 205,128.013 315,128.013 315,113.013" transform="rotate(0 0 0)" fill="green" stroke="black" stroke-width="0.5" />
</svg>
