<svg version="1.1" baseProfile="full" xmlns="http://www.w3.org/2000/svg">
<polygon points="1000,500 999.013,468.605 996.057,437.333 991.144,406.309 984.292,375.655 975.528,345.492 964.888,315.938 952.414,287.11 938.153,259.123 922.164,232.087 904.508,206.107 885.257,181.288 864.484,157.726 842.274,135.516 818.712,114.743 793.893,95.4915 767.913,77.836 740.877,61.8467 712.89,47.5865 684.062,35.1118 654.508,24.4717 624.345,15.7084 593.691,8.85637 562.667,3.94265 531.395,0.986636 500,0 468.605,0.986636 437.333,3.94265 406.309,8.85637 375.655,15.7084 345.492,24.4717 315.938,35.1118 287.11,47.5865 259.123,61.8467 232.087,77.836 206.107,95.4915 181.288,114.743 157.726,135.516 135.516,157.726 114.743,181.288 95.4915,206.107 77.836,232.087 61.8467,259.123 47.5865,287.11 35.1118,315.938 24.4717,345.492 15.7084,375.655 8.85637,406.309 3.94265,437.333 0.986636,468.605 0,500 0.986636,531.395 3.94265,562.667 8.85637,593.691 15.7084,624.345 24.4717,654.508 35.1118,684.062 47.5865,712.89 61.8467,740.877 77.836,767.913 95.4915,793.893 114.743,818.712 135.516,842.274 157.726,864.484 181.288,885.257 206.107,904.508 232.087,922.164 259.123,938.153 287.11,952.414 315.938,964.888 345.492,975.528 375.655,984.292 406.309,991.144 437.333,996.057 468.605,999.013 500,1000 531.395,999.013 562.667,996.057 593.691,991.144 624.345,984.292 654.508,975.528 684.062,964.888 712.89,952.414 740.877,938.153 767.913,922.164 793.893,904.508 818.712,885.257 842.274,864.484 864.484,842.274 885.257,818.712 904.508,793.893 922.164,767.913 938.153,740.877 952.414,712.89 964.888,684.062 975.528,654.508 984.292,624.345 991.144,593.691 996.057,562.667 999.013,531.395" transform="rotate(0 0 0)" fill="pink" stroke="black" stroke-width="0.5" />
<polygon points="146.447,146.447 146.447,166.447 206.447,166.447 206.447,146.447" transform="rotate(0 0 0)" fill="yellow" stroke="black" stroke-width="0.5" />
<polygon points="206.447,146.447 206.447,166.447 266.447,166.447 266.447,146.447" transform="rotate(0 0 0)" fill="yellow" stroke="black" stroke-width="0.5" />
<polygon points="266.447,146.447 266.447,166.447 326.447,166.447 326.447,146.447" transform="rotate(0 0 0)" fill="yellow" stroke="black" stroke-width="0.5" />
<polygon points="326.447,146.447 326.447,166.447 386.447,166.447 386.447,146.447" transform="rotate(0 0 0)" fill="yellow" stroke="black" stroke-width="0.5" />
<polygon points="386.447,146.447 386.447,166.447 446.447,166.447 446.447,146.447" transform="rotate(0 0 0)" fill="yellow" stroke="black" stroke-width="0.5" />
<polygon points="446.447,146.447 446.447,166.447 506.447,166.447 506.447,146.447" transform="rotate(0 0 0)" fill="yellow" stroke="black" stroke-width="0.5" />
<polygon points="506.447,146.447 506.447,166.447 566.447,166.447 566.447,146.447" transform="rotate(0 0 0)" fill="yellow" stroke="black" stroke-width="0.5" />
<polygon points="566.447,146.447 566.447,166.447 626.447,166.447 626.447,146.447" transform="rotate(0 0 0)" fill="yellow" stroke="black" stroke-width="0.5" />
<polygon points="626.447,146.447 626.447,166.447 686.447,166.447 686.447,146.447" transform="rotate(0 0 0)" fill="yellow" stroke="black" stroke-width="0.5" />
<polygon points="686.447,146.447 686.447,166.447 746.447,166.447 746.447,146.447" transform="rotate(0 0 0)" fill="yellow" stroke="black" stroke-width="0.5" />
<polygon points="746.447,146.447 746.447,166.447 806.447,166.447 806.447,146.447" transform="rotate(0 0 0)" fill="yellow" stroke="black" stroke-width="0.5" />
<polygon points="146.447,166.447 146.447,186.447 206.447,186.447 206.447,166.447" transform="rotate(0 0 0)" fill="yellow" stroke="black" stroke-width="0.5" />
<polygon points="206.447,166.447 206.447,186.447 266.447,186.447 266.447,166.447" transform="rotate(0 0 0)" fill="yellow" stroke="black" stroke-width="0.5" />
<polygon points="266.447,166.447 266.447,186.447 326.447,186.447 326.447,166.447" transform="rotate(0 0 0)" fill="yellow" stroke="black" stroke-width="0.5" />
<polygon points="326.447,166.447 326.447,186.447 386.447,186.447 386.447,166.447" transform="rotate(0 0 0)" fill="yellow" stroke="black" stroke-width="0.5" />
<polygon points="386.447,166.447 386.447,186.447 446.447,186.447 446.447,166.447" transform="rotate(0 0 0)" fill="yellow" stroke="black" stroke-width="0.5" />
<polygon points="446.447,166.447 446.447,186.447 506.447,186.447 506.447,166.447" transform="rotate(0 0 0)" fill="yellow" stroke="black" stroke-width="0.5" />
<polygon points="506.447,166.447 506.447,186.447 566.447,186.447 566.447,166.447" transform="rotate(0 0 0)" fill="yellow" stroke="black" stroke-width="0.5" />
<polygon points="566.447,166.447 566.447,186.447 626.447,186.447 626.447,166.447" transform="rotate(0 0 0)" fill="yellow" stroke="black" stroke-width="0.5" />
<polygon points="626.447,166.447 626.447,186.447 686.447,186.447 686.447,166.447" transform="rotate(0 0 0)" fill="yellow" stroke="black" stroke-width="0.5" />
<polygon points="686.447,166.447 686.447,186.447 746.447,186.447 746.447,166.447" transform="rotate(0 0 0)" fill="yellow" stroke="black" stroke-width="0.5" />
<polygon points="746.447,166.447 746.447,186.447 806.447,186.447 806.447,166.447" transform="rotate(0 0 0)" fill="yellow" stroke="black" stroke-width="0.5" />
<polygon points="146.447,186.447 146.447,206.447 206.447,206.447 206.447,186.447" transform="rotate(0 0 0)" fill="yellow" stroke="black" stroke-width="0.5" />
<polygon points="206.447,186.447 206.447,206.447 266.447,206.447 266.447,186.447" transform="rotate(0 0 0)" fill="yellow" stroke="black" stroke-width="0.5" />
<polygon points="266.447,186.447 266.447,206.447 326.447,206.447 326.447,186.447" transform="rotate(0 0 0)" fill="yellow" stroke="black" stroke-width="0.5" />
<polygon points="326.447,186.447 326.447,206.447 386.447,206.447 386.447,186.447" transform="rotate(0 0 0)" fill="yellow" stroke="black" stroke-width="0.5" />
<polygon points="386.447,186.447 386.447,206.447 446.447,206.447 446.447,186.447" transform="rotate(0 0 0)" fill="yellow" stroke="black" stroke-width="0.5" />
<polygon points="446.447,186.447 446.447,206.447 506.447,206.447 506.447,186.447" transform="rotate(0 0 0)" fill="yellow" stroke="black" stroke-width="0.5" />
<polygon points="506.447,186.447 506.447,206.447 566.447,206.447 566.447,186.447" transform="rotate(0 0 0)" fill="yellow" stroke="black" stroke-width="0.5" />
<polygon points="566.447,186.447 566.447,206.447 626.447,206.447 626.447,186.447" transform="rotate(0 0 0)" fill="yellow" stroke="black" stroke-width="0.5" />
<polygon points="626.447,186.447 626.447,206.447 686.447,206.447 686.447,186.447" transform="rotate(0 0 0)" fill="yellow" stroke="black" stroke-width="0.5" />
<polygon points="686.447,186.447 686.447,206.447 746.447,206.447 746.447,186.447" transform="rotate(0 0 0)" fill="yellow" stroke="black" stroke-width="0.5" />
<polygon points="746.447,186.447 746.447,206.447 806.447,206.447 806.447,186.447" transform="rotate(0 0 0)" fill="yellow" stroke="black" stroke-width="0.5" />
<polygon points="146.447,206.447 146.447,226.447 206.447,226.447 206.447,206.447" transform="rotate(0 0 0)" fill="yellow" stroke="black" stroke-width="0.5" />
<polygon points="206.447,206.447 206.447,226.447 266.447,226.447 266.447,206.447" transform="rotate(0 0 0)" fill="yellow" stroke="black" stroke-width="0.5" />
<polygon points="266.447,206.447 266.447,226.447 326.447,226.447 326.447,206.447" transform="rotate(0 0 0)" fill="yellow" stroke="black" stroke-width="0.5" />
<polygon points="326.447,206.447 326.447,226.447 386.447,226.447 386.447,206.447" transform="rotate(0 0 0)" fill="yellow" stroke="black" stroke-width="0.5" />
<polygon points="386.447,206.447 386.447,226.447 446.447,226.447 446.447,206.447" transform="rotate(0 0 0)" fill="yellow" stroke="black" stroke-width="0.5" />
<polygon points="446.447,206.447 446.447,226.447 506.447,226.447 506.447,206.447" transform="rotate(0 0 0)" fill="yellow" stroke="black" stroke-width="0.5" />
<polygon points="506.447,206.447 506.447,226.447 566.447,226.447 566.447,206.447" transform="rotate(0 0 0)" fill="yellow" stroke="black" stroke-width="0.5" />
<polygon points="566.447,206.447 566.447,226.447 626.447,226.447 626.447,206.447" transform="rotate(0 0 0)" fill="yellow" stroke="black" stroke-width="0.5" />
<polygon points="626.447,206.447 626.447,226.447 686.447,226.447 686.447,206.447" transform="rotate(0 0 0)" fill="yellow" stroke="black" stroke-width="0.5" />
<polygon points="686.447,206.447 686.447,226.447 746.447,226.447 746.447,206.447" transform="rotate(0 0 0)" fill="yellow" stroke="black" stroke-width="0.5" />
<polygon points="746.447,206.447 746.447,226.447 806.447,226.447 806.447,206.447" transform="rotate(0 0 0)" fill="yellow" stroke="black" stroke-width="0.5" />
<polygon points="146.447,226.447 146.447,246.447 206.447,246.447 206.447,226.447" transform="rotate(0 0 0)" fill="yellow" stroke="black" stroke-width="0.5" />
<polygon points="206.447,226.447 206.447,246.447 266.447,246.447 266.447,226.447" transform="rotate(0 0 0)" fill="yellow" stroke="black" stroke-width="0.5" />
<polygon points="266.447,226.447 266.447,246.447 326.447,246.447 326.447,226.447" transform="rotate(0 0 0)" fill="yellow" stroke="black" stroke-width="0.5" />
<polygon points="326.447,226.447 326.447,246.447 386.447,246.447 386.447,226.447" transform="rotate(0 0 0)" fill="yellow" stroke="black" stroke-width="0.5" />
<polygon points="386.447,226.447 386.447,246.447 446.447,246.447 446.447,226.447" transform="rotate(0 0 0)" fill="yellow" stroke="black" stroke-width="0.5" />
<polygon points="446.447,226.447 446.447,246.447 506.447,246.447 506.447,226.447" transform="rotate(0 0 0)" fill="yellow" stroke="black" stroke-width="0.5" />
<polygon points="506.447,226.447 506.447,246.447 566.447,246.447 566.447,226.447" transform="rotate(0 0 0)" fill="yellow" stroke="black" stroke-width="0.5" />
<polygon points="566.447,226.447 566.447,246.447 626.447,246.447 626.447,226.447" transform="rotate(0 0 0)" fill="yellow" stroke="black" stroke-width="0.5" />
<polygon points="626.447,226.447 626.447,246.447 686.447,246.447 686.447,226.447" transform="rotate(0 0 0)" fill="yellow" stroke="black" stroke-width="0.5" />
<polygon points="686.447,226.447 686.447,246.447 746.447,246.447 746.447,226.447" transform="rotate(0 0 0)" fill="yellow" stroke="black" stroke-width="0.5" />
<polygon points="746.447,226.447 746.447,246.447 806.447,246.447 806.447,226.447" transform="rotate(0 0 0)" fill="yellow" stroke="black" stroke-width="0.5" />
<polygon points="146.447,246.447 146.447,266.447 206.447,266.447 206.447,246.447" transform="rotate(0 0 0)" fill="yellow" stroke="black" stroke-width="0.5" />
<polygon points="206.447,246.447 206.447,266.447 266.447,266.447 266.447,246.447" transform="rotate(0 0 0)" fill="yellow" stroke="black" stroke-width="0.5" />
<polygon points="266.447,246.447 266.447,266.447 326.447,266.447 326.447,246.447" transform="rotate(0 0 0)" fill="yellow" stroke="black" stroke-width="0.5" />
<polygon points="326.447,246.447 326.447,266.447 386.447,266.447 386.447,246.447" transform="rotate(0 0 0)" fill="yellow" stroke="black" stroke-width="0.5" />
<polygon points="386.447,246.447 386.447,266.447 446.447,266.447 446.447,246.447" transform="rotate(0 0 0)" fill="yellow" stroke="black" stroke-width="0.5" />
<polygon points="446.447,246.447 446.447,266.447 506.447,266.447 506.447,246.447" transform="rotate(0 0 0)" fill="yellow" stroke="black" stroke-width="0.5" />
<polygon points="506.447,246.447 506.447,266.447 566.447,266.447 566.447,246.447" transform="rotate(0 0 0)" fill="yellow" stroke="black" stroke-width="0.5" />
<polygon points="566.447,246.447 566.447,266.447 626.447,266.447 626.447,246.447" transform="rotate(0 0 0)" fill="yellow" stroke="black" stroke-width="0.5" />
<polygon points="626.447,246.447 626.447,266.447 686.447,266.447 686.447,246.447" transform="rotate(0 0 0)" fill="yellow" stroke="black" stroke-width="0.5" />
<polygon points="686.447,246.447 686.447,266.447 746.447,266.447 746.447,246.447" transform="rotate(0 0 0)" fill="yellow" stroke="black" stroke-width="0.5" />
<polygon points="746.447,246.447 746.447,266.447 806.447,266.447 806.447,246.447" transform="rotate(0 0 0)" fill="yellow" stroke="black" stroke-width="0.5" />
<polygon points="146.447,266.447 146.447,286.447 206.447,286.447 206.447,266.447" transform="rotate(0 0 0)" fill="yellow" stroke="black" stroke-width="0.5" />
<polygon points="206.447,266.447 206.447,286.447 266.447,286.447 266.447,266.447" transform="rotate(0 0 0)" fill="yellow" stroke="black" stroke-width="0.5" />
<polygon points="266.447,266.447 266.447,286.447 326.447,286.447 326.447,266.447" transform="rotate(0 0 0)" fill="yellow" stroke="black" stroke-width="0.5" />
<polygon points="326.447,266.447 326.447,286.447 386.447,286.447 386.447,266.447" transform="rotate(0 0 0)" fill="yellow" stroke="black" stroke-width="0.5" />
<polygon points="386.447,266.447 386.447,286.447 446.447,286.447 446.447,266.447" transform="rotate(0 0 0)" fill="yellow" stroke="black" stroke-width="0.5" />
<polygon points="446.447,266.447 446.447,286.447 506.447,286.447 506.447,266.447" transform="rotate(0 0 0)" fill="yellow" stroke="black" stroke-width="0.5" />
<polygon points="506.447,266.447 506.447,286.447 566.447,286.447 566.447,266.447" transform="rotate(0 0 0)" fill="yellow" stroke="black" stroke-width="0.5" />
<polygon points="566.447,266.447 566.447,286.447 626.447,286.447 626.447,266.447" transform="rotate(0 0 0)" fill="yellow" stroke="black" stroke-width="0.5" />
<polygon points="626.447,266.447 626.447,286.447 686.447,286.447 686.447,266.447" transform="rotate(0 0 0)" fill="yellow" stroke="black" stroke-width="0.5" />
<polygon points="686.447,266.447 686.447,286.447 746.447,286.447 746.447,266.447" transform="rotate(0 0 0)" fill="yellow" stroke="black" stroke-width="0.5" />
<polygon points="746.447,266.447 746.447,286.447 806.447,286.447 806.447,266.447" transform="rotate(0 0 0)" fill="yellow" stroke="black" stroke-width="0.5" />
<polygon points="146.447,286.447 146.447,306.447 206.447,306.447 206.447,286.447" transform="rotate(0 0 0)" fill="yellow" stroke="black" stroke-width="0.5" />
<polygon points="206.447,286.447 206.447,306.447 266.447,306.447 266.447,286.447" transform="rotate(0 0 0)" fill="yellow" stroke="black" stroke-width="0.5" />
<polygon points="266.447,286.447 266.447,306.447 326.447,306.447 326.447,286.447" transform="rotate(0 0 0)" fill="yellow" stroke="black" stroke-width="0.5" />
<polygon points="326.447,286.447 326.447,306.447 386.447,306.447 386.447,286.447" transform="rotate(0 0 0)" fill="yellow" stroke="black" stroke-width="0.5" />
<polygon points="386.447,286.447 386.447,306.447 446.447,306.447 446.447,286.447" transform="rotate(0 0 0)" fill="yellow" stroke="black" stroke-width="0.5" />
<polygon points="446.447,286.447 446.447,306.447 506.447,306.447 506.447,286.447" transform="rotate(0 0 0)" fill="yellow" stroke="black" stroke-width="0.5" />
<polygon points="506.447,286.447 506.447,306.447 566.447,306.447 566.447,286.447" transform="rotate(0 0 0)" fill="yellow" stroke="black" stroke-width="0.5" />
<polygon points="566.447,286.447 566.447,306.447 626.447,306.447 626.447,286.447" transform="rotate(0 0 0)" fill="yellow" stroke="black" stroke-width="0.5" />
<polygon points="626.447,286.447 626.447,306.447 686.447,306.447 686.447,286.447" transform="rotate(0 0 0)" fill="yellow" stroke="black" stroke-width="0.5" />
<polygon points="686.447,286.447 686.447,306.447 746.447,306.447 746.447,286.447" transform="rotate(0 0 0)" fill="yellow" stroke="black" stroke-width="0.5" />
<polygon points="746.447,286.447 746.447,306.447 806.447,306.447 806.447,286.447" transform="rotate(0 0 0)" fill="yellow" stroke="black" stroke-width="0.5" />
<polygon points="146.447,306.447 146.447,326.447 206.447,326.447 206.447,306.447" transform="rotate(0 0 0)" fill="yellow" stroke="black" stroke-width="0.5" />
<polygon points="206.447,306.447 206.447,326.447 266.447,326.447 266.447,306.447" transform="rotate(0 0 0)" fill="yellow" stroke="black" stroke-width="0.5" />
<polygon points="266.447,306.447 266.447,326.447 326.447,326.447 326.447,306.447" transform="rotate(0 0 0)" fill="yellow" stroke="black" stroke-width="0.5" />
<polygon points="326.447,306.447 326.447,326.447 386.447,326.447 386.447,306.447" transform="rotate(0 0 0)" fill="yellow" stroke="black" stroke-width="0.5" />
<polygon points="386.447,306.447 386.447,326.447 446.447,326.447 446.447,306.447" transform="rotate(0 0 0)" fill="yellow" stroke="black" stroke-width="0.5" />
<polygon points="446.447,306.447 446.447,326.447 506.447,326.447 506.447,306.447" transform="rotate(0 0 0)" fill="yellow" stroke="black" stroke-width="0.5" />
<polygon points="506.447,306.447 506.447,326.447 566.447,326.447 566.447,306.447" transform="rotate(0 0 0)" fill="yellow" stroke="black" stroke-width="0.5" />
<polygon points="566.447,306.447 566.447,326.447 626.447,326.447 626.447,306.447" transform="rotate(0 0 0)" fill="yellow" stroke="black" stroke-width="0.5" />
<polygon points="626.447,306.447 626.447,326.447 686.447,326.447 686.447,306.447" transform="rotate(0 0 0)" fill="yellow" stroke="black" stroke-width="0.5" />
<polygon points="686.447,306.447 686.447,326.447 746.447,326.447 746.447,306.447" transform="rotate(0 0 0)" fill="yellow" stroke="black" stroke-width="0.5" />
<polygon points="746.447,306.447 746.447,326.447 806.447,326.447 806.447,306.447" transform="rotate(0 0 0)" fill="yellow" stroke="black" stroke-width="0.5" />
<polygon points="146.447,326.447 146.447,346.447 206.447,346.447 206.447,326.447" transform="rotate(0 0 0)" fill="yellow" stroke="black" stroke-width="0.5" />
<polygon points="206.447,326.447 206.447,346.447 266.447,346.447 266.447,326.447" transform="rotate(0 0 0)" fill="yellow" stroke="black" stroke-width="0.5" />
<polygon points="266.447,326.447 266.447,346.447 326.447,346.447 326.447,326.447" transform="rotate(0 0 0)" fill="yellow" stroke="black" stroke-width="0.5" />
<polygon points="326.447,326.447 326.447,346.447 386.447,346.447 386.447,326.447" transform="rotate(0 0 0)" fill="yellow" stroke="black" stroke-width="0.5" />
<polygon points="386.447,326.447 386.447,346.447 446.447,346.447 446.447,326.447" transform="rotate(0 0 0)" fill="yellow" stroke="black" stroke-width="0.5" />
<polygon points="446.447,326.447 446.447,346.447 506.447,346.447 506.447,326.447" transform="rotate(0 0 0)" fill="yellow" stroke="black" stroke-width="0.5" />
<polygon points="506.447,326.447 506.447,346.447 566.447,346.447 566.447,326.447" transform="rotate(0 0 0)" fill="yellow" stroke="black" stroke-width="0.5" />
<polygon points="566.447,326.447 566.447,346.447 626.447,346.447 626.447,326.447" transform="rotate(0 0 0)" fill="yellow" stroke="black" stroke-width="0.5" />
<polygon points="626.447,326.447 626.447,346.447 686.447,346.447 686.447,326.447" transform="rotate(0 0 0)" fill="yellow" stroke="black" stroke-width="0.5" />
<polygon points="686.447,326.447 686.447,346.447 746.447,346.447 746.447,326.447" transform="rotate(0 0 0)" fill="yellow" stroke="black" stroke-width="0.5" />
<polygon points="746.447,326.447 746.447,346.447 806.447,346.447 806.447,326.447" transform="rotate(0 0 0)" fill="yellow" stroke="black" stroke-width="0.5" />
<polygon points="146.447,346.447 146.447,366.447 206.447,366.447 206.447,346.447" transform="rotate(0 0 0)" fill="yellow" stroke="black" stroke-width="0.5" />
<polygon points="206.447,346.447 206.447,366.447 266.447,366.447 266.447,346.447" transform="rotate(0 0 0)" fill="yellow" stroke="black" stroke-width="0.5" />
<polygon points="266.447,346.447 266.447,366.447 326.447,366.447 326.447,346.447" transform="rotate(0 0 0)" fill="yellow" stroke="black" stroke-width="0.5" />
<polygon points="326.447,346.447 326.447,366.447 386.447,366.447 386.447,346.447" transform="rotate(0 0 0)" fill="yellow" stroke="black" stroke-width="0.5" />
<polygon points="386.447,346.447 386.447,366.447 446.447,366.447 446.447,346.447" transform="rotate(0 0 0)" fill="yellow" stroke="black" stroke-width="0.5" />
<polygon points="446.447,346.447 446.447,366.447 506.447,366.447 506.447,346.447" transform="rotate(0 0 0)" fill="yellow" stroke="black" stroke-width="0.5" />
<polygon points="506.447,346.447 506.447,366.447 566.447,366.447 566.447,346.447" transform="rotate(0 0 0)" fill="yellow" stroke="black" stroke-width="0.5" />
<polygon points="566.447,346.447 566.447,366.447 626.447,366.447 626.447,346.447" transform="rotate(0 0 0)" fill="yellow" stroke="black" stroke-width="0.5" />
<polygon points="626.447,346.447 626.447,366.447 686.447,366.447 686.447,346.447" transform="rotate(0 0 0)" fill="yellow" stroke="black" stroke-width="0.5" />
<polygon points="686.447,346.447 686.447,366.447 746.447,366.447 746.447,346.447" transform="rotate(0 0 0)" fill="yellow" stroke="black" stroke-width="0.5" />
<polygon points="746.447,346.447 746.447,366.447 806.447,366.447 806.447,346.447" transform="rotate(0 0 0)" fill="yellow" stroke="black" stroke-width="0.5" />
<polygon points="146.447,366.447 146.447,386.447 206.447,386.447 206.447,366.447" transform="rotate(0 0 0)" fill="yellow" stroke="black" stroke-width="0.5" />
<polygon points="206.447,366.447 206.447,386.447 266.447,386.447 266.447,366.447" transform="rotate(0 0 0)" fill="yellow" stroke="black" stroke-width="0.5" />
<polygon points="266.447,366.447 266.447,386.447 326.447,386.447 326.447,366.447" transform="rotate(0 0 0)" fill="yellow" stroke="black" stroke-width="0.5" />
<polygon points="326.447,366.447 326.447,386.447 386.447,386.447 386.447,366.447" transform="rotate(0 0 0)" fill="yellow" stroke="black" stroke-width="0.5" />
<polygon points="386.447,366.447 386.447,386.447 446.447,386.447 446.447,366.447" transform="rotate(0 0 0)" fill="yellow" stroke="black" stroke-width="0.5" />
<polygon points="446.447,366.447 446.447,386.447 506.447,386.447 506.447,366.447" transform="rotate(0 0 0)" fill="yellow" stroke="black" stroke-width="0.5" />
<polygon points="506.447,366.447 506.447,386.447 566.447,386.447 566.447,366.447" transform="rotate(0 0 0)" fill="yellow" stroke="black" stroke-width="0.5" />
<polygon points="566.447,366.447 566.447,386.447 626.447,386.447 626.447,366.447" transform="rotate(0 0 0)" fill="yellow" stroke="black" stroke-width="0.5" />
<polygon points="626.447,366.447 626.447,386.447 686.447,386.447 686.447,366.447" transform="rotate(0 0 0)" fill="yellow" stroke="black" stroke-width="0.5" />
<polygon points="686.447,366.447 686.447,386.447 746.447,386.447 746.447,366.447" transform="rotate(0 0 0)" fill="yellow" stroke="black" stroke-width="0.5" />
<polygon points="746.447,366.447 746.447,386.447 806.447,386.447 806.447,366.447" transform="rotate(0 0 0)" fill="yellow" stroke="black" stroke-width="0.5" />
<polygon points="146.447,386.447 146.447,406.447 206.447,406.447 206.447,386.447" transform="rotate(0 0 0)" fill="yellow" stroke="black" stroke-width="0.5" />
<polygon points="206.447,386.447 206.447,406.447 266.447,406.447 266.447,386.447" transform="rotate(0 0 0)" fill="yellow" stroke="black" stroke-width="0.5" />
<polygon points="266.447,386.447 266.447,406.447 326.447,406.447 326.447,386.447" transform="rotate(0 0 0)" fill="yellow" stroke="black" stroke-width="0.5" />
<polygon points="326.447,386.447 326.447,406.447 386.447,406.447 386.447,386.447" transform="rotate(0 0 0)" fill="yellow" stroke="black" stroke-width="0.5" />
<polygon points="386.447,386.447 386.447,406.447 446.447,406.447 446.447,386.447" transform="rotate(0 0 0)" fill="yellow" stroke="black" stroke-width="0.5" />
<polygon points="446.447,386.447 446.447,406.447 506.447,406.447 506.447,386.447" transform="rotate(0 0 0)" fill="yellow" stroke="black" stroke-width="0.5" />
<polygon points="506.447,386.447 506.447,406.447 566.447,406.447 566.447,386.447" transform="rotate(0 0 0)" fill="yellow" stroke="black" stroke-width="0.5" />
<polygon points="566.447,386.447 566.447,406.447 626.447,406.447 626.447,386.447" transform="rotate(0 0 0)" fill="yellow" stroke="black" stroke-width="0.5" />
<polygon points="626.447,386.447 626.447,406.447 686.447,406.447 686.447,386.447" transform="rotate(0 0 0)" fill="yellow" stroke="black" stroke-width="0.5" />
<polygon points="686.447,386.447 686.447,406.447 746.447,406.447 746.447,386.447" transform="rotate(0 0 0)" fill="yellow" stroke="black" stroke-width="0.5" />
<polygon points="746.447,386.447 746.447,406.447 806.447,406.447 806.447,386.447" transform="rotate(0 0 0)" fill="yellow" stroke="black" stroke-width="0.5" />
<polygon points="146.447,406.447 146.447,426.447 206.447,426.447 206.447,406.447" transform="rotate(0 0 0)" fill="yellow" stroke="black" stroke-width="0.5" />
<polygon points="206.447,406.447 206.447,426.447 266.447,426.447 266.447,406.447" transform="rotate(0 0 0)" fill="yellow" stroke="black" stroke-width="0.5" />
<polygon points="266.447,406.447 266.447,426.447 326.447,426.447 326.447,406.447" transform="rotate(0 0 0)" fill="yellow" stroke="black" stroke-width="0.5" />
<polygon points="326.447,406.447 326.447,426.447 386.447,426.447 386.447,406.447" transform="rotate(0 0 0)" fill="yellow" stroke="black" stroke-width="0.5" />
<polygon points="386.447,406.447 386.447,426.447 446.447,426.447 446.447,406.447" transform="rotate(0 0 0)" fill="yellow" stroke="black" stroke-width="0.5" />
<polygon points="446.447,406.447 446.447,426.447 506.447,426.447 506.447,406.447" transform="rotate(0 0 0)" fill="yellow" stroke="black" stroke-width="0.5" />
<polygon points="506.447,406.447 506.447,426.447 566.447,426.447 566.447,406.447" transform="rotate(0 0 0)" fill="yellow" stroke="black" stroke-width="0.5" />
<polygon points="566.447,406.447 566.447,426.447 626.447,426.447 626.447,406.447" transform="rotate(0 0 0)" fill="yellow" stroke="black" stroke-width="0.5" />
<polygon points="626.447,406.447 626.447,426.447 686.447,426.447 686.447,406.447" transform="rotate(0 0 0)" fill="yellow" stroke="black" stroke-width="0.5" />
<polygon points="686.447,406.447 686.447,426.447 746.447,426.447 746.447,406.447" transform="rotate(0 0 0)" fill="yellow" stroke="black" stroke-width="0.5" />
<polygon points="746.447,406.447 746.447,426.447 806.447,426.447 806.447,406.447" transform="rotate(0 0 0)" fill="yellow" stroke="black" stroke-width="0.5" />
<polygon points="146.447,426.447 146.447,446.447 206.447,446.447 206.447,426.447" transform="rotate(0 0 0)" fill="yellow" stroke="black" stroke-width="0.5" />
<polygon points="206.447,426.447 206.447,446.447 266.447,446.447 266.447,426.447" transform="rotate(0 0 0)" fill="yellow" stroke="black" stroke-width="0.5" />
<polygon points="266.447,426.447 266.447,446.447 326.447,446.447 326.447,426.447" transform="rotate(0 0 0)" fill="yellow" stroke="black" stroke-width="0.5" />
<polygon points="326.447,426.447 326.447,446.447 386.447,446.447 386.447,426.447" transform="rotate(0 0 0)" fill="yellow" stroke="black" stroke-width="0.5" />
<polygon points="386.447,426.447 386.447,446.447 446.447,446.447 446.447,426.447" transform="rotate(0 0 0)" fill="yellow" stroke="black" stroke-width="0.5" />
<polygon points="446.447,426.447 446.447,446.447 506.447,446.447 506.447,426.447" transform="rotate(0 0 0)" fill="yellow" stroke="black" stroke-width="0.5" />
<polygon points="506.447,426.447 506.447,446.447 566.447,446.447 566.447,426.447" transform="rotate(0 0 0)" fill="yellow" stroke="black" stroke-width="0.5" />
<polygon points="566.447,426.447 566.447,446.447 626.447,446.447 626.447,426.447" transform="rotate(0 0 0)" fill="yellow" stroke="black" stroke-width="0.5" />
<polygon points="626.447,426.447 626.447,446.447 686.447,446.447 686.447,426.447" transform="rotate(0 0 0)" fill="yellow" stroke="black" stroke-width="0.5" />
<polygon points="686.447,426.447 686.447,446.447 746.447,446.447 746.447,426.447" transform="rotate(0 0 0)" fill="yellow" stroke="black" stroke-width="0.5" />
<polygon points="746.447,426.447 746.447,446.447 806.447,446.447 806.447,426.447" transform="rotate(0 0 0)" fill="yellow" stroke="black" stroke-width="0.5" />
<polygon points="146.447,446.447 146.447,466.447 206.447,466.447 206.447,446.447" transform="rotate(0 0 0)" fill="yellow" stroke="black" stroke-width="0.5" />
<polygon points="206.447,446.447 206.447,466.447 266.447,466.447 266.447,446.447" transform="rotate(0 0 0)" fill="yellow" stroke="black" stroke-width="0.5" />
<polygon points="266.447,446.447 266.447,466.447 326.447,466.447 326.447,446.447" transform="rotate(0 0 0)" fill="yellow" stroke="black" stroke-width="0.5" />
<polygon points="326.447,446.447 326.447,466.447 386.447,466.447 386.447,446.447" transform="rotate(0 0 0)" fill="yellow" stroke="black" stroke-width="0.5" />
<polygon points="386.447,446.447 386.447,466.447 446.447,466.447 446.447,446.447" transform="rotate(0 0 0)" fill="yellow" stroke="black" stroke-width="0.5" />
<polygon points="446.447,446.447 446.447,466.447 506.447,466.447 506.447,446.447" transform="rotate(0 0 0)" fill="yellow" stroke="black" stroke-width="0.5" />
<polygon points="506.447,446.447 506.447,466.447 566.447,466.447 566.447,446.447" transform="rotate(0 0 0)" fill="yellow" stroke="black" stroke-width="0.5" />
<polygon points="566.447,446.447 566.447,466.447 626.447,466.447 626.447,446.447" transform="rotate(0 0 0)" fill="yellow" stroke="black" stroke-width="0.5" />
<polygon points="626.447,446.447 626.447,466.447 686.447,466.447 686.447,446.447" transform="rotate(0 0 0)" fill="yellow" stroke="black" stroke-width="0.5" />
<polygon points="686.447,446.447 686.447,466.447 746.447,466.447 746.447,446.447" transform="rotate(0 0 0)" fill="yellow" stroke="black" stroke-width="0.5" />
<polygon points="746.447,446.447 746.447,466.447 806.447,466.447 806.447,446.447" transform="rotate(0 0 0)" fill="yellow" stroke="black" stroke-width="0.5" />
<polygon points="146.447,466.447 146.447,486.447 206.447,486.447 206.447,466.447" transform="rotate(0 0 0)" fill="yellow" stroke="black" stroke-width="0.5" />
<polygon points="206.447,466.447 206.447,486.447 266.447,486.447 266.447,466.447" transform="rotate(0 0 0)" fill="yellow" stroke="black" stroke-width="0.5" />
<polygon points="266.447,466.447 266.447,486.447 326.447,486.447 326.447,466.447" transform="rotate(0 0 0)" fill="yellow" stroke="black" stroke-width="0.5" />
<polygon points="326.447,466.447 326.447,486.447 386.447,486.447 386.447,466.447" transform="rotate(0 0 0)" fill="yellow" stroke="black" stroke-width="0.5" />
<polygon points="386.447,466.447 386.447,486.447 446.447,486.447 446.447,466.447" transform="rotate(0 0 0)" fill="yellow" stroke="black" stroke-width="0.5" />
<polygon points="446.447,466.447 446.447,486.447 506.447,486.447 506.447,466.447" transform="rotate(0 0 0)" fill="yellow" stroke="black" stroke-width="0.5" />
<polygon points="506.447,466.447 506.447,486.447 566.447,486.447 566.447,466.447" transform="rotate(0 0 0)" fill="yellow" stroke="black" stroke-width="0.5" />
<polygon points="566.447,466.447 566.447,486.447 626.447,486.447 626.447,466.447" transform="rotate(0 0 0)" fill="yellow" stroke="black" stroke-width="0.5" />
<polygon points="626.447,466.447 626.447,486.447 686.447,486.447 686.447,466.447" transform="rotate(0 0 0)" fill="yellow" stroke="black" stroke-width="0.5" />
<polygon points="686.447,466.447 686.447,486.447 746.447,486.447 746.447,466.447" transform="rotate(0 0 0)" fill="yellow" stroke="black" stroke-width="0.5" />
<polygon points="746.447,466.447 746.447,486.447 806.447,486.447 806.447,466.447" transform="rotate(0 0 0)" fill="yellow" stroke="black" stroke-width="0.5" />
<polygon points="146.447,486.447 146.447,506.447 206.447,506.447 206.447,486.447" transform="rotate(0 0 0)" fill="yellow" stroke="black" stroke-width="0.5" />
<polygon points="206.447,486.447 206.447,506.447 266.447,506.447 266.447,486.447" transform="rotate(0 0 0)" fill="yellow" stroke="black" stroke-width="0.5" />
<polygon points="266.447,486.447 266.447,506.447 326.447,506.447 326.447,486.447" transform="rotate(0 0 0)" fill="yellow" stroke="black" stroke-width="0.5" />
<polygon points="326.447,486.447 326.447,506.447 386.447,506.447 386.447,486.447" transform="rotate(0 0 0)" fill="yellow" stroke="black" stroke-width="0.5" />
<polygon points="386.447,486.447 386.447,506.447 446.447,506.447 446.447,486.447" transform="rotate(0 0 0)" fill="yellow" stroke="black" stroke-width="0.5" />
<polygon points="446.447,486.447 446.447,506.447 506.447,506.447 506.447,486.447" transform="rotate(0 0 0)" fill="yellow" stroke="black" stroke-width="0.5" />
<polygon points="506.447,486.447 506.447,506.447 566.447,506.447 566.447,486.447" transform="rotate(0 0 0)" fill="yellow" stroke="black" stroke-width="0.5" />
<polygon points="566.447,486.447 566.447,506.447 626.447,506.447 626.447,486.447" transform="rotate(0 0 0)" fill="yellow" stroke="black" stroke-width="0.5" />
<polygon points="626.447,486.447 626.447,506.447 686.447,506.447 686.447,486.447" transform="rotate(0 0 0)" fill="yellow" stroke="black" stroke-width="0.5" />
<polygon points="686.447,486.447 686.447,506.447 746.447,506.447 746.447,486.447" transform="rotate(0 0 0)" fill="yellow" stroke="black" stroke-width="0.5" />
<polygon points="746.447,486.447 746.447,506.447 806.447,506.447 806.447,486.447" transform="rotate(0 0 0)" fill="yellow" stroke="black" stroke-width="0.5" />
<polygon points="146.447,506.447 146.447,526.447 206.447,526.447 206.447,506.447" transform="rotate(0 0 0)" fill="yellow" stroke="black" stroke-width="0.5" />
<polygon points="206.447,506.447 206.447,526.447 266.447,526.447 266.447,506.447" transform="rotate(0 0 0)" fill="yellow" stroke="black" stroke-width="0.5" />
<polygon points="266.447,506.447 266.447,526.447 326.447,526.447 326.447,506.447" transform="rotate(0 0 0)" fill="yellow" stroke="black" stroke-width="0.5" />
<polygon points="326.447,506.447 326.447,526.447 386.447,526.447 386.447,506.447" transform="rotate(0 0 0)" fill="yellow" stroke="black" stroke-width="0.5" />
<polygon points="386.447,506.447 386.447,526.447 446.447,526.447 446.447,506.447" transform="rotate(0 0 0)" fill="yellow" stroke="black" stroke-width="0.5" />
<polygon points="446.447,506.447 446.447,526.447 506.447,526.447 506.447,506.447" transform="rotate(0 0 0)" fill="yellow" stroke="black" stroke-width="0.5" />
<polygon points="506.447,506.447 506.447,526.447 566.447,526.447 566.447,506.447" transform="rotate(0 0 0)" fill="yellow" stroke="black" stroke-width="0.5" />
<polygon points="566.447,506.447 566.447,526.447 626.447,526.447 626.447,506.447" transform="rotate(0 0 0)" fill="yellow" stroke="black" stroke-width="0.5" />
<polygon points="626.447,506.447 626.447,526.447 686.447,526.447 686.447,506.447" transform="rotate(0 0 0)" fill="yellow" stroke="black" stroke-width="0.5" />
<polygon points="686.447,506.447 686.447,526.447 746.447,526.447 746.447,506.447" transform="rotate(0 0 0)" fill="yellow" stroke="black" stroke-width="0.5" />
<polygon points="746.447,506.447 746.447,526.447 806.447,526.447 806.447,506.447" transform="rotate(0 0 0)" fill="yellow" stroke="black" stroke-width="0.5" />
<polygon points="146.447,526.447 146.447,546.447 206.447,546.447 206.447,526.447" transform="rotate(0 0 0)" fill="yellow" stroke="black" stroke-width="0.5" />
<polygon points="206.447,526.447 206.447,546.447 266.447,546.447 266.447,526.447" transform="rotate(0 0 0)" fill="yellow" stroke="black" stroke-width="0.5" />
<polygon points="266.447,526.447 266.447,546.447 326.447,546.447 326.447,526.447" transform="rotate(0 0 0)" fill="yellow" stroke="black" stroke-width="0.5" />
<polygon points="326.447,526.447 326.447,546.447 386.447,546.447 386.447,526.447" transform="rotate(0 0 0)" fill="yellow" stroke="black" stroke-width="0.5" />
<polygon points="386.447,526.447 386.447,546.447 446.447,546.447 446.447,526.447" transform="rotate(0 0 0)" fill="yellow" stroke="black" stroke-width="0.5" />
<polygon points="446.447,526.447 446.447,546.447 506.447,546.447 506.447,526.447" transform="rotate(0 0 0)" fill="yellow" stroke="black" stroke-width="0.5" />
<polygon points="506.447,526.447 506.447,546.447 566.447,546.447 566.447,526.447" transform="rotate(0 0 0)" fill="yellow" stroke="black" stroke-width="0.5" />
<polygon points="566.447,526.447 566.447,546.447 626.447,546.447 626.447,526.447" transform="rotate(0 0 0)" fill="yellow" stroke="black" stroke-width="0.5" />
<polygon points="626.447,526.447 626.447,546.447 686.447,546.447 686.447,526.447" transform="rotate(0 0 0)" fill="yellow" stroke="black" stroke-width="0.5" />
<polygon points="686.447,526.447 686.447,546.447 746.447,546.447 746.447,526.447" transform="rotate(0 0 0)" fill="yellow" stroke="black" stroke-width="0.5" />
<polygon points="746.447,526.447 746.447,546.447 806.447,546.447 806.447,526.447" transform="rotate(0 0 0)" fill="yellow" stroke="black" stroke-width="0.5" />
<polygon points="146.447,546.447 146.447,566.447 206.447,566.447 206.447,546.447" transform="rotate(0 0 0)" fill="yellow" stroke="black" stroke-width="0.5" />
<polygon points="206.447,546.447 206.447,566.447 266.447,566.447 266.447,546.447" transform="rotate(0 0 0)" fill="yellow" stroke="black" stroke-width="0.5" />
<polygon points="266.447,546.447 266.447,566.447 326.447,566.447 326.447,546.447" transform="rotate(0 0 0)" fill="yellow" stroke="black" stroke-width="0.5" />
<polygon points="326.447,546.447 326.447,566.447 386.447,566.447 386.447,546.447" transform="rotate(0 0 0)" fill="yellow" stroke="black" stroke-width="0.5" />
<polygon points="386.447,546.447 386.447,566.447 446.447,566.447 446.447,546.447" transform="rotate(0 0 0)" fill="yellow" stroke="black" stroke-width="0.5" />
<polygon points="446.447,546.447 446.447,566.447 506.447,566.447 506.447,546.447" transform="rotate(0 0 0)" fill="yellow" stroke="black" stroke-width="0.5" />
<polygon points="506.447,546.447 506.447,566.447 566.447,566.447 566.447,546.447" transform="rotate(0 0 0)" fill="yellow" stroke="black" stroke-width="0.5" />
<polygon points="566.447,546.447 566.447,566.447 626.447,566.447 626.447,546.447" transform="rotate(0 0 0)" fill="yellow" stroke="black" stroke-width="0.5" />
<polygon points="626.447,546.447 626.447,566.447 686.447,566.447 686.447,546.447" transform="rotate(0 0 0)" fill="yellow" stroke="black" stroke-width="0.5" />
<polygon points="686.447,546.447 686.447,566.447 746.447,566.447 746.447,546.447" transform="rotate(0 0 0)" fill="yellow" stroke="black" stroke-width="0.5" />
<polygon points="746.447,546.447 746.447,566.447 806.447,566.447 806.447,546.447" transform="rotate(0 0 0)" fill="yellow" stroke="black" stroke-width="0.5" />
<polygon points="146.447,566.447 146.447,586.447 206.447,586.447 206.447,566.447" transform="rotate(0 0 0)" fill="yellow" stroke="black" stroke-width="0.5" />
<polygon points="206.447,566.447 206.447,586.447 266.447,586.447 266.447,566.447" transform="rotate(0 0 0)" fill="yellow" stroke="black" stroke-width="0.5" />
<polygon points="266.447,566.447 266.447,586.447 326.447,586.447 326.447,566.447" transform="rotate(0 0 0)" fill="yellow" stroke="black" stroke-width="0.5" />
<polygon points="326.447,566.447 326.447,586.447 386.447,586.447 386.447,566.447" transform="rotate(0 0 0)" fill="yellow" stroke="black" stroke-width="0.5" />
<polygon points="386.447,566.447 386.447,586.447 446.447,586.447 446.447,566.447" transform="rotate(0 0 0)" fill="yellow" stroke="black" stroke-width="0.5" />
<polygon points="446.447,566.447 446.447,586.447 506.447,586.447 506.447,566.447" transform="rotate(0 0 0)" fill="yellow" stroke="black" stroke-width="0.5" />
<polygon points="506.447,566.447 506.447,586.447 566.447,586.447 566.447,566.447" transform="rotate(0 0 0)" fill="yellow" stroke="black" stroke-width="0.5" />
<polygon points="566.447,566.447 566.447,586.447 626.447,586.447 626.447,566.447" transform="rotate(0 0 0)" fill="yellow" stroke="black" stroke-width="0.5" />
<polygon points="626.447,566.447 626.447,586.447 686.447,586.447 686.447,566.447" transform="rotate(0 0 0)" fill="yellow" stroke="black" stroke-width="0.5" />
<polygon points="686.447,566.447 686.447,586.447 746.447,586.447 746.447,566.447" transform="rotate(0 0 0)" fill="yellow" stroke="black" stroke-width="0.5" />
<polygon points="746.447,566.447 746.447,586.447 806.447,586.447 806.447,566.447" transform="rotate(0 0 0)" fill="yellow" stroke="black" stroke-width="0.5" />
<polygon points="146.447,586.447 146.447,606.447 206.447,606.447 206.447,586.447" transform="rotate(0 0 0)" fill="yellow" stroke="black" stroke-width="0.5" />
<polygon points="206.447,586.447 206.447,606.447 266.447,606.447 266.447,586.447" transform="rotate(0 0 0)" fill="yellow" stroke="black" stroke-width="0.5" />
<polygon points="266.447,586.447 266.447,606.447 326.447,606.447 326.447,586.447" transform="rotate(0 0 0)" fill="yellow" stroke="black" stroke-width="0.5" />
<polygon points="326.447,586.447 326.447,606.447 386.447,606.447 386.447,586.447" transform="rotate(0 0 0)" fill="yellow" stroke="black" stroke-width="0.5" />
<polygon points="386.447,586.447 386.447,606.447 446.447,606.447 446.447,586.447" transform="rotate(0 0 0)" fill="yellow" stroke="black" stroke-width="0.5" />
<polygon points="446.447,586.447 446.447,606.447 506.447,606.447 506.447,586.447" transform="rotate(0 0 0)" fill="yellow" stroke="black" stroke-width="0.5" />
<polygon points="506.447,586.447 506.447,606.447 566.447,606.447 566.447,586.447" transform="rotate(0 0 0)" fill="yellow" stroke="black" stroke-width="0.5" />
<polygon points="566.447,586.447 566.447,606.447 626.447,606.447 626.447,586.447" transform="rotate(0 0 0)" fill="yellow" stroke="black" stroke-width="0.5" />
<polygon points="626.447,586.447 626.447,606.447 686.447,606.447 686.447,586.447" transform="rotate(0 0 0)" fill="yellow" stroke="black" stroke-width="0.5" />
<polygon points="686.447,586.447 686.447,606.447 746.447,606.447 746.447,586.447" transform="rotate(0 0 0)" fill="yellow" stroke="black" stroke-width="0.5" />
<polygon points="746.447,586.447 746.447,606.447 806.447,606.447 806.447,586.447" transform="rotate(0 0 0)" fill="yellow" stroke="black" stroke-width="0.5" />
<polygon points="146.447,606.447 146.447,626.447 206.447,626.447 206.447,606.447" transform="rotate(0 0 0)" fill="yellow" stroke="black" stroke-width="0.5" />
<polygon points="206.447,606.447 206.447,626.447 266.447,626.447 266.447,606.447" transform="rotate(0 0 0)" fill="yellow" stroke="black" stroke-width="0.5" />
<polygon points="266.447,606.447 266.447,626.447 326.447,626.447 326.447,606.447" transform="rotate(0 0 0)" fill="yellow" stroke="black" stroke-width="0.5" />
<polygon points="326.447,606.447 326.447,626.447 386.447,626.447 386.447,606.447" transform="rotate(0 0 0)" fill="yellow" stroke="black" stroke-width="0.5" />
<polygon points="386.447,606.447 386.447,626.447 446.447,626.447 446.447,606.447" transform="rotate(0 0 0)" fill="yellow" stroke="black" stroke-width="0.5" />
<polygon points="446.447,606.447 446.447,626.447 506.447,626.447 506.447,606.447" transform="rotate(0 0 0)" fill="yellow" stroke="black" stroke-width="0.5" />
<polygon points="506.447,606.447 506.447,626.447 566.447,626.447 566.447,606.447" transform="rotate(0 0 0)" fill="yellow" stroke="black" stroke-width="0.5" />
<polygon points="566.447,606.447 566.447,626.447 626.447,626.447 626.447,606.447" transform="rotate(0 0 0)" fill="yellow" stroke="black" stroke-width="0.5" />
<polygon points="626.447,606.447 626.447,626.447 686.447,626.447 686.447,606.447" transform="rotate(0 0 0)" fill="yellow" stroke="black" stroke-width="0.5" />
<polygon points="686.447,606.447 686.447,626.447 746.447,626.447 746.447,606.447" transform="rotate(0 0 0)" fill="yellow" stroke="black" stroke-width="0.5" />
<polygon points="746.447,606.447 746.447,626.447 806.447,626.447 806.447,606.447" transform="rotate(0 0 0)" fill="yellow" stroke="black" stroke-width="0.5" />
<polygon points="146.447,626.447 146.447,646.447 206.447,646.447 206.447,626.447" transform="rotate(0 0 0)" fill="yellow" stroke="black" stroke-width="0.5" />
<polygon points="206.447,626.447 206.447,646.447 266.447,646.447 266.447,626.447" transform="rotate(0 0 0)" fill="yellow" stroke="black" stroke-width="0.5" />
<polygon points="266.447,626.447 266.447,646.447 326.447,646.447 326.447,626.447" transform="rotate(0 0 0)" fill="yellow" stroke="black" stroke-width="0.5" />
<polygon points="326.447,626.447 326.447,646.447 386.447,646.447 386.447,626.447" transform="rotate(0 0 0)" fill="yellow" stroke="black" stroke-width="0.5" />
<polygon points="386.447,626.447 386.447,646.447 446.447,646.447 446.447,626.447" transform="rotate(0 0 0)" fill="yellow" stroke="black" stroke-width="0.5" />
<polygon points="446.447,626.447 446.447,646.447 506.447,646.447 506.447,626.447" transform="rotate(0 0 0)" fill="yellow" stroke="black" stroke-width="0.5" />
<polygon points="506.447,626.447 506.447,646.447 566.447,646.447 566.447,626.447" transform="rotate(0 0 0)" fill="yellow" stroke="black" stroke-width="0.5" />
<polygon points="566.447,626.447 566.447,646.447 626.447,646.447 626.447,626.447" transform="rotate(0 0 0)" fill="yellow" stroke="black" stroke-width="0.5" />
<polygon points="626.447,626.447 626.447,646.447 686.447,646.447 686.447,626.447" transform="rotate(0 0 0)" fill="yellow" stroke="black" stroke-width="0.5" />
<polygon points="686.447,626.447 686.447,646.447 746.447,646.447 746.447,626.447" transform="rotate(0 0 0)" fill="yellow" stroke="black" stroke-width="0.5" />
<polygon points="746.447,626.447 746.447,646.447 806.447,646.447 806.447,626.447" transform="rotate(0 0 0)" fill="yellow" stroke="black" stroke-width="0.5" />
<polygon points="146.447,646.447 146.447,666.447 206.447,666.447 206.447,646.447" transform="rotate(0 0 0)" fill="yellow" stroke="black" stroke-width="0.5" />
<polygon points="206.447,646.447 206.447,666.447 266.447,666.447 266.447,646.447" transform="rotate(0 0 0)" fill="yellow" stroke="black" stroke-width="0.5" />
<polygon points="266.447,646.447 266.447,666.447 326.447,666.447 326.447,646.447" transform="rotate(0 0 0)" fill="yellow" stroke="black" stroke-width="0.5" />
<polygon points="326.447,646.447 326.447,666.447 386.447,666.447 386.447,646.447" transform="rotate(0 0 0)" fill="yellow" stroke="black" stroke-width="0.5" />
<polygon points="386.447,646.447 386.447,666.447 446.447,666.447 446.447,646.447" transform="rotate(0 0 0)" fill="yellow" stroke="black" stroke-width="0.5" />
<polygon points="446.447,646.447 446.447,666.447 506.447,666.447 506.447,646.447" transform="rotate(0 0 0)" fill="yellow" stroke="black" stroke-width="0.5" />
<polygon points="506.447,646.447 506.447,666.447 566.447,666.447 566.447,646.447" transform="rotate(0 0 0)" fill="yellow" stroke="black" stroke-width="0.5" />
<polygon points="566.447,646.447 566.447,666.447 626.447,666.447 626.447,646.447" transform="rotate(0 0 0)" fill="yellow" stroke="black" stroke-width="0.5" />
<polygon points="626.447,646.447 626.447,666.447 686.447,666.447 686.447,646.447" transform="rotate(0 0 0)" fill="yellow" stroke="black" stroke-width="0.5" />
<polygon points="686.447,646.447 686.447,666.447 746.447,666.447 746.447,646.447" transform="rotate(0 0 0)" fill="yellow" stroke="black" stroke-width="0.5" />
<polygon points="746.447,646.447 746.447,666.447 806.447,666.447 806.447,646.447" transform="rotate(0 0 0)" fill="yellow" stroke="black" stroke-width="0.5" />
<polygon points="146.447,666.447 146.447,686.447 206.447,686.447 206.447,666.447" transform="rotate(0 0 0)" fill="yellow" stroke="black" stroke-width="0.5" />
<polygon points="206.447,666.447 206.447,686.447 266.447,686.447 266.447,666.447" transform="rotate(0 0 0)" fill="yellow" stroke="black" stroke-width="0.5" />
<polygon points="266.447,666.447 266.447,686.447 326.447,686.447 326.447,666.447" transform="rotate(0 0 0)" fill="yellow" stroke="black" stroke-width="0.5" />
<polygon points="326.447,666.447 326.447,686.447 386.447,686.447 386.447,666.447" transform="rotate(0 0 0)" fill="yellow" stroke="black" stroke-width="0.5" />
<polygon points="386.447,666.447 386.447,686.447 446.447,686.447 446.447,666.447" transform="rotate(0 0 0)" fill="yellow" stroke="black" stroke-width="0.5" />
<polygon points="446.447,666.447 446.447,686.447 506.447,686.447 506.447,666.447" transform="rotate(0 0 0)" fill="yellow" stroke="black" stroke-width="0.5" />
<polygon points="506.447,666.447 506.447,686.447 566.447,686.447 566.447,666.447" transform="rotate(0 0 0)" fill="yellow" stroke="black" stroke-width="0.5" />
<polygon points="566.447,666.447 566.447,686.447 626.447,686.447 626.447,666.447" transform="rotate(0 0 0)" fill="yellow" stroke="black" stroke-width="0.5" />
<polygon points="626.447,666.447 626.447,686.447 686.447,686.447 686.447,666.447" transform="rotate(0 0 0)" fill="yellow" stroke="black" stroke-width="0.5" />
<polygon points="686.447,666.447 686.447,686.447 746.447,686.447 746.447,666.447" transform="rotate(0 0 0)" fill="yellow" stroke="black" stroke-width="0.5" />
<polygon points="746.447,666.447 746.447,686.447 806.447,686.447 806.447,666.447" transform="rotate(0 0 0)" fill="yellow" stroke="black" stroke-width="0.5" />
<polygon points="146.447,686.447 146.447,706.447 206.447,706.447 206.447,686.447" transform="rotate(0 0 0)" fill="yellow" stroke="black" stroke-width="0.5" />
<polygon points="206.447,686.447 206.447,706.447 266.447,706.447 266.447,686.447" transform="rotate(0 0 0)" fill="yellow" stroke="black" stroke-width="0.5" />
<polygon points="266.447,686.447 266.447,706.447 326.447,706.447 326.447,686.447" transform="rotate(0 0 0)" fill="yellow" stroke="black" stroke-width="0.5" />
<polygon points="326.447,686.447 326.447,706.447 386.447,706.447 386.447,686.447" transform="rotate(0 0 0)" fill="yellow" stroke="black" stroke-width="0.5" />
<polygon points="386.447,686.447 386.447,706.447 446.447,706.447 446.447,686.447" transform="rotate(0 0 0)" fill="yellow" stroke="black" stroke-width="0.5" />
<polygon points="446.447,686.447 446.447,706.447 506.447,706.447 506.447,686.447" transform="rotate(0 0 0)" fill="yellow" stroke="black" stroke-width="0.5" />
<polygon points="506.447,686.447 506.447,706.447 566.447,706.447 566.447,686.447" transform="rotate(0 0 0)" fill="yellow" stroke="black" stroke-width="0.5" />
<polygon points="566.447,686.447 566.447,706.447 626.447,706.447 626.447,686.447" transform="rotate(0 0 0)" fill="yellow" stroke="black" stroke-width="0.5" />
<polygon points="626.447,686.447 626.447,706.447 686.447,706.447 686.447,686.447" transform="rotate(0 0 0)" fill="yellow" stroke="black" stroke-width="0.5" />
<polygon points="686.447,686.447 686.447,706.447 746.447,706.447 746.447,686.447" transform="rotate(0 0 0)" fill="yellow" stroke="black" stroke-width="0.5" />
<polygon points="746.447,686.447 746.447,706.447 806.447,706.447 806.447,686.447" transform="rotate(0 0 0)" fill="yellow" stroke="black" stroke-width="0.5" />
<polygon points="146.447,706.447 146.447,726.447 206.447,726.447 206.447,706.447" transform="rotate(0 0 0)" fill="yellow" stroke="black" stroke-width="0.5" />
<polygon points="206.447,706.447 206.447,726.447 266.447,726.447 266.447,706.447" transform="rotate(0 0 0)" fill="yellow" stroke="black" stroke-width="0.5" />
<polygon points="266.447,706.447 266.447,726.447 326.447,726.447 326.447,706.447" transform="rotate(0 0 0)" fill="yellow" stroke="black" stroke-width="0.5" />
<polygon points="326.447,706.447 326.447,726.447 386.447,726.447 386.447,706.447" transform="rotate(0 0 0)" fill="yellow" stroke="black" stroke-width="0.5" />
<polygon points="386.447,706.447 386.447,726.447 446.447,726.447 446.447,706.447" transform="rotate(0 0 0)" fill="yellow" stroke="black" stroke-width="0.5" />
<polygon points="446.447,706.447 446.447,726.447 506.447,726.447 506.447,706.447" transform="rotate(0 0 0)" fill="yellow" stroke="black" stroke-width="0.5" />
<polygon points="506.447,706.447 506.447,726.447 566.447,726.447 566.447,706.447" transform="rotate(0 0 0)" fill="yellow" stroke="black" stroke-width="0.5" />
<polygon points="566.447,706.447 566.447,726.447 626.447,726.447 626.447,706.447" transform="rotate(0 0 0)" fill="yellow" stroke="black" stroke-width="0.5" />
<polygon points="626.447,706.447 626.447,726.447 686.447,726.447 686.447,706.447" transform="rotate(0 0 0)" fill="yellow" stroke="black" stroke-width="0.5" />
<polygon points="686.447,706.447 686.447,726.447 746.447,726.447 746.447,706.447" transform="rotate(0 0 0)" fill="yellow" stroke="black" stroke-width="0.5" />
<polygon points="746.447,706.447 746.447,726.447 806.447,726.447 806.447,706.447" transform="rotate(0 0 0)" fill="yellow" stroke="black" stroke-width="0.5" />
<polygon points="146.447,726.447 146.447,746.447 206.447,746.447 206.447,726.447" transform="rotate(0 0 0)" fill="yellow" stroke="black" stroke-width="0.5" />
<polygon points="206.447,726.447 206.447,746.447 266.447,746.447 266.447,726.447" transform="rotate(0 0 0)" fill="yellow" stroke="black" stroke-width="0.5" />
<polygon points="266.447,726.447 266.447,746.447 326.447,746.447 326.447,726.447" transform="rotate(0 0 0)" fill="yellow" stroke="black" stroke-width="0.5" />
<polygon points="326.447,726.447 326.447,746.447 386.447,746.447 386.447,726.447" transform="rotate(0 0 0)" fill="yellow" stroke="black" stroke-width="0.5" />
<polygon points="386.447,726.447 386.447,746.447 446.447,746.447 446.447,726.447" transform="rotate(0 0 0)" fill="yellow" stroke="black" stroke-width="0.5" />
<polygon points="446.447,726.447 446.447,746.447 506.447,746.447 506.447,726.447" transform="rotate(0 0 0)" fill="yellow" stroke="black" stroke-width="0.5" />
<polygon points="506.447,726.447 506.447,746.447 566.447,746.447 566.447,726.447" transform="rotate(0 0 0)" fill="yellow" stroke="black" stroke-width="0.5" />
<polygon points="566.447,726.447 566.447,746.447 626.447,746.447 626.447,726.447" transform="rotate(0 0 0)" fill="yellow" stroke="black" stroke-width="0.5" />
<polygon points="626.447,726.447 626.447,746.447 686.447,746.447 686.447,726.447" transform="rotate(0 0 0)" fill="yellow" stroke="black" stroke-width="0.5" />
<polygon points="686.447,726.447 686.447,746.447 746.447,746.447 746.447,726.447" transform="rotate(0 0 0)" fill="yellow" stroke="black" stroke-width="0.5" />
<polygon points="746.447,726.447 746.447,746.447 806.447,746.447 806.447,726.447" transform="rotate(0 0 0)" fill="yellow" stroke="black" stroke-width="0.5" />
<polygon points="146.447,746.447 146.447,766.447 206.447,766.447 206.447,746.447" transform="rotate(0 0 0)" fill="yellow" stroke="black" stroke-width="0.5" />
<polygon points="206.447,746.447 206.447,766.447 266.447,766.447 266.447,746.447" transform="rotate(0 0 0)" fill="yellow" stroke="black" stroke-width="0.5" />
<polygon points="266.447,746.447 266.447,766.447 326.447,766.447 326.447,746.447" transform="rotate(0 0 0)" fill="yellow" stroke="black" stroke-width="0.5" />
<polygon points="326.447,746.447 326.447,766.447 386.447,766.447 386.447,746.447" transform="rotate(0 0 0)" fill="yellow" stroke="black" stroke-width="0.5" />
<polygon points="386.447,746.447 386.447,766.447 446.447,766.447 446.447,746.447" transform="rotate(0 0 0)" fill="yellow" stroke="black" stroke-width="0.5" />
<polygon points="446.447,746.447 446.447,766.447 506.447,766.447 506.447,746.447" transform="rotate(0 0 0)" fill="yellow" stroke="black" stroke-width="0.5" />
<polygon points="506.447,746.447 506.447,766.447 566.447,766.447 566.447,746.447" transform="rotate(0 0 0)" fill="yellow" stroke="black" stroke-width="0.5" />
<polygon points="566.447,746.447 566.447,766.447 626.447,766.447 626.447,746.447" transform="rotate(0 0 0)" fill="yellow" stroke="black" stroke-width="0.5" />
<polygon points="626.447,746.447 626.447,766.447 686.447,766.447 686.447,746.447" transform="rotate(0 0 0)" fill="yellow" stroke="black" stroke-width="0.5" />
<polygon points="686.447,746.447 686.447,766.447 746.447,766.447 746.447,746.447" transform="rotate(0 0 0)" fill="yellow" stroke="black" stroke-width="0.5" />
<polygon points="746.447,746.447 746.447,766.447 806.447,766.447 806.447,746.447" transform="rotate(0 0 0)" fill="yellow" stroke="black" stroke-width="0.5" />
<polygon points="146.447,766.447 146.447,786.447 206.447,786.447 206.447,766.447" transform="rotate(0 0 0)" fill="yellow" stroke="black" stroke-width="0.5" />
<polygon points="206.447,766.447 206.447,786.447 266.447,786.447 266.447,766.447" transform="rotate(0 0 0)" fill="yellow" stroke="black" stroke-width="0.5" />
<polygon points="266.447,766.447 266.447,786.447 326.447,786.447 326.447,766.447" transform="rotate(0 0 0)" fill="yellow" stroke="black" stroke-width="0.5" />
<polygon points="326.447,766.447 326.447,786.447 386.447,786.447 386.447,766.447" transform="rotate(0 0 0)" fill="yellow" stroke="black" stroke-width="0.5" />
<polygon points="386.447,766.447 386.447,786.447 446.447,786.447 446.447,766.447" transform="rotate(0 0 0)" fill="yellow" stroke="black" stroke-width="0.5" />
<polygon points="446.447,766.447 446.447,786.447 506.447,786.447 506.447,766.447" transform="rotate(0 0 0)" fill="yellow" stroke="black" stroke-width="0.5" />
<polygon points="506.447,766.447 506.447,786.447 566.447,786.447 566.447,766.447" transform="rotate(0 0 0)" fill="yellow" stroke="black" stroke-width="0.5" />
<polygon points="566.447,766.447 566.447,786.447 626.447,786.447 626.447,766.447" transform="rotate(0 0 0)" fill="yellow" stroke="black" stroke-width="0.5" />
<polygon points="626.447,766.447 626.447,786.447 686.447,786.447 686.447,766.447" transform="rotate(0 0 0)" fill="yellow" stroke="black" stroke-width="0.5" />
<polygon points="686.447,766.447 686.447,786.447 746.447,786.447 746.447,766.447" transform="rotate(0 0 0)" fill="yellow" stroke="black" stroke-width="0.5" />
<polygon points="746.447,766.447 746.447,786.447 806.447,786.447 806.447,766.447" transform="rotate(0 0 0)" fill="yellow" stroke="black" stroke-width="0.5" />
<polygon points="146.447,786.447 146.447,806.447 206.447,806.447 206.447,786.447" transform="rotate(0 0 0)" fill="yellow" stroke="black" stroke-width="0.5" />
<polygon points="206.447,786.447 206.447,806.447 266.447,806.447 266.447,786.447" transform="rotate(0 0 0)" fill="yellow" stroke="black" stroke-width="0.5" />
<polygon points="266.447,786.447 266.447,806.447 326.447,806.447 326.447,786.447" transform="rotate(0 0 0)" fill="yellow" stroke="black" stroke-width="0.5" />
<polygon points="326.447,786.447 326.447,806.447 386.447,806.447 386.447,786.447" transform="rotate(0 0 0)" fill="yellow" stroke="black" stroke-width="0.5" />
<polygon points="386.447,786.447 386.447,806.447 446.447,806.447 446.447,786.447" transform="rotate(0 0 0)" fill="yellow" stroke="black" stroke-width="0.5" />
<polygon points="446.447,786.447 446.447,806.447 506.447,806.447 506.447,786.447" transform="rotate(0 0 0)" fill="yellow" stroke="black" stroke-width="0.5" />
<polygon points="506.447,786.447 506.447,806.447 566.447,806.447 566.447,786.447" transform="rotate(0 0 0)" fill="yellow" stroke="black" stroke-width="0.5" />
<polygon points="566.447,786.447 566.447,806.447 626.447,806.447 626.447,786.447" transform="rotate(0 0 0)" fill="yellow" stroke="black" stroke-width="0.5" />
<polygon points="626.447,786.447 626.447,806.447 686.447,806.447 686.447,786.447" transform="rotate(0 0 0)" fill="yellow" stroke="black" stroke-width="0.5" />
<polygon points="686.447,786.447 686.447,806.447 746.447,806.447 746.447,786.447" transform="rotate(0 0 0)" fill="yellow" stroke="black" stroke-width="0.5" />
<polygon points="746.447,786.447 746.447,806.447 806.447,806.447 806.447,786.447" transform="rotate(0 0 0)" fill="yellow" stroke="black" stroke-width="0.5" />
<polygon points="146.447,806.447 146.447,826.447 206.447,826.447 206.447,806.447" transform="rotate(0 0 0)" fill="yellow" stroke="black" stroke-width="0.5" />
<polygon points="206.447,806.447 206.447,826.447 266.447,826.447 266.447,806.447" transform="rotate(0 0 0)" fill="yellow" stroke="black" stroke-width="0.5" />
<polygon points="266.447,806.447 266.447,826.447 326.447,826.447 326.447,806.447" transform="rotate(0 0 0)" fill="yellow" stroke="black" stroke-width="0.5" />
<polygon points="326.447,806.447 326.447,826.447 386.447,826.447 386.447,806.447" transform="rotate(0 0 0)" fill="yellow" stroke="black" stroke-width="0.5" />
<polygon points="386.447,806.447 386.447,826.447 446.447,826.447 446.447,806.447" transform="rotate(0 0 0)" fill="yellow" stroke="black" stroke-width="0.5" />
<polygon points="446.447,806.447 446.447,826.447 506.447,826.447 506.447,806.447" transform="rotate(0 0 0)" fill="yellow" stroke="black" stroke-width="0.5" />
<polygon points="506.447,806.447 506.447,826.447 566.447,826.447 566.447,806.447" transform="rotate(0 0 0)" fill="yellow" stroke="black" stroke-width="0.5" />
<polygon points="566.447,806.447 566.447,826.447 626.447,826.447 626.447,806.447" transform="rotate(0 0 0)" fill="yellow" stroke="black" stroke-width="0.5" />
<polygon points="626.447,806.447 626.447,826.447 686.447,826.447 686.447,806.447" transform="rotate(0 0 0)" fill="yellow" stroke="black" stroke-width="0.5" />
<polygon points="686.447,806.447 686.447,826.447 746.447,826.447 746.447,806.447" transform="rotate(0 0 0)" fill="yellow" stroke="black" stroke-width="0.5" />
<polygon points="746.447,806.447 746.447,826.447 806.447,826.447 806.447,806.447" transform="rotate(0 0 0)" fill="yellow" stroke="black" stroke-width="0.5" />
<polygon points="146.447,826.447 146.447,846.447 206.447,846.447 206.447,826.447" transform="rotate(0 0 0)" fill="yellow" stroke="black" stroke-width="0.5" />
<polygon points="206.447,826.447 206.447,846.447 266.447,846.447 266.447,826.447" transform="rotate(0 0 0)" fill="yellow" stroke="black" stroke-width="0.5" />
<polygon points="266.447,826.447 266.447,846.447 326.447,846.447 326.447,826.447" transform="rotate(0 0 0)" fill="yellow" stroke="black" stroke-width="0.5" />
<polygon points="326.447,826.447 326.447,846.447 386.447,846.447 386.447,826.447" transform="rotate(0 0 0)" fill="yellow" stroke="black" stroke-width="0.5" />
<polygon points="386.447,826.447 386.447,846.447 446.447,846.447 446.447,826.447" transform="rotate(0 0 0)" fill="yellow" stroke="black" stroke-width="0.5" />
<polygon points="446.447,826.447 446.447,846.447 506.447,846.447 506.447,826.447" transform="rotate(0 0 0)" fill="yellow" stroke="black" stroke-width="0.5" />
<polygon points="506.447,826.447 506.447,846.447 566.447,846.447 566.447,826.447" transform="rotate(0 0 0)" fill="yellow" stroke="black" stroke-width="0.5" />
<polygon points="566.447,826.447 566.447,846.447 626.447,846.447 626.447,826.447" transform="rotate(0 0 0)" fill="yellow" stroke="black" stroke-width="0.5" />
<polygon points="626.447,826.447 626.447,846.447 686.447,846.447 686.447,826.447" transform="rotate(0 0 0)" fill="yellow" stroke="black" stroke-width="0.5" />
<polygon points="686.447,826.447 686.447,846.447 746.447,846.447 746.447,826.447" transform="rotate(0 0 0)" fill="yellow" stroke="black" stroke-width="0.5" />
<polygon points="746.447,826.447 746.447,846.447 806.447,846.447 806.447,826.447" transform="rotate(0 0 0)" fill="yellow" stroke="black" stroke-width="0.5" />
<polygon points="806.447,146.447 806.447,206.447 826.447,206.447 826.447,146.447" transform="rotate(0 0 0)" fill="yellow" stroke="black" stroke-width="0.5" />
<polygon points="806.447,206.447 806.447,266.447 826.447,266.447 826.447,206.447" transform="rotate(0 0 0)" fill="yellow" stroke="black" stroke-width="0.5" />
<polygon points="806.447,266.447 806.447,326.447 826.447,326.447 826.447,266.447" transform="rotate(0 0 0)" fill="yellow" stroke="black" stroke-width="0.5" />
<polygon points="806.447,326.447 806.447,386.447 826.447,386.447 826.447,326.447" transform="rotate(0 0 0)" fill="yellow" stroke="black" stroke-width="0.5" />
<polygon points="806.447,386.447 806.447,446.447 826.447,446.447 826.447,386.447" transform="rotate(0 0 0)" fill="yellow" stroke="black" stroke-width="0.5" />
<polygon points="806.447,446.447 806.447,506.447 826.447,506.447 826.447,446.447" transform="rotate(0 0 0)" fill="yellow" stroke="black" stroke-width="0.5" />
<polygon points="806.447,506.447 806.447,566.447 826.447,566.447 826.447,506.447" transform="rotate(0 0 0)" fill="yellow" stroke="black" stroke-width="0.5" />
<polygon points="806.447,566.447 806.447,626.447 826.447,626.447 826.447,566.447" transform="rotate(0 0 0)" fill="yellow" stroke="black" stroke-width="0.5" />
<polygon points="806.447,626.447 806.447,686.447 826.447,686.447 826.447,626.447" transform="rotate(0 0 0)" fill="yellow" stroke="black" stroke-width="0.5" />
<polygon points="806.447,686.447 806.447,746.447 826.447,746.447 826.447,686.447" transform="rotate(0 0 0)" fill="yellow" stroke="black" stroke-width="0.5" />
<polygon points="806.447,746.447 806.447,806.447 826.447,806.447 826.447,746.447" transform="rotate(0 0 0)" fill="yellow" stroke="black" stroke-width="0.5" />
<polygon points="826.447,146.447 826.447,206.447 846.447,206.447 846.447,146.447" transform="rotate(0 0 0)" fill="yellow" stroke="black" stroke-width="0.5" />
<polygon points="826.447,206.447 826.447,266.447 846.447,266.447 846.447,206.447" transform="rotate(0 0 0)" fill="yellow" stroke="black" stroke-width="0.5" />
<polygon points="826.447,266.447 826.447,326.447 846.447,326.447 846.447,266.447" transform="rotate(0 0 0)" fill="yellow" stroke="black" stroke-width="0.5" />
<polygon points="826.447,326.447 826.447,386.447 846.447,386.447 846.447,326.447" transform="rotate(0 0 0)" fill="yellow" stroke="black" stroke-width="0.5" />
<polygon points="826.447,386.447 826.447,446.447 846.447,446.447 846.447,386.447" transform="rotate(0 0 0)" fill="yellow" stroke="black" stroke-width="0.5" />
<polygon points="826.447,446.447 826.447,506.447 846.447,506.447 846.447,446.447" transform="rotate(0 0 0)" fill="yellow" stroke="black" stroke-width="0.5" />
<polygon points="826.447,506.447 826.447,566.447 846.447,566.447 846.447,506.447" transform="rotate(0 0 0)" fill="yellow" stroke="black" stroke-width="0.5" />
<polygon points="826.447,566.447 826.447,626.447 846.447,626.447 846.447,566.447" transform="rotate(0 0 0)" fill="yellow" stroke="black" stroke-width="0.5" />
<polygon points="826.447,626.447 826.447,686.447 846.447,686.447 846.447,626.447" transform="rotate(0 0 0)" fill="yellow" stroke="black" stroke-width="0.5" />
<polygon points="826.447,686.447 826.447,746.447 846.447,746.447 846.447,686.447" transform="rotate(0 0 0)" fill="yellow" stroke="black" stroke-width="0.5" />
<polygon points="826.447,746.447 826.447,806.447 846.447,806.447 846.447,746.447" transform="rotate(0 0 0)" fill="yellow" stroke="black" stroke-width="0.5" />
<polygon points="500,853.553 500,873.553 560,873.553 560,853.553" transform="rotate(0 500 500)" fill="yellow" stroke="black" stroke-width="0.5" />
<polygon points="440,853.553 440,873.553 500,873.553 500,853.553" transform="rotate(0 500 500)" fill="yellow" stroke="black" stroke-width="0.5" />
<polygon points="560,853.553 560,873.553 620,873.553 620,853.553" transform="rotate(0 500 500)" fill="yellow" stroke="black" stroke-width="0.5" />
<polygon points="380,853.553 380,873.553 440,873.553 440,853.553" transform="rotate(0 500 500)" fill="yellow" stroke="black" stroke-width="0.5" />
<polygon points="620,853.553 620,873.553 680,873.553 680,853.553" transform="rotate(0 500 500)" fill="yellow" stroke="black" stroke-width="0.5" />
<polygon points="320,853.553 320,873.553 380,873.553 380,853.553" transform="rotate(0 500 500)" fill="yellow" stroke="black" stroke-width="0.5" />
<polygon points="680,853.553 680,873.553 740,873.553 740,853.553" transform="rotate(0 500 500)" fill="yellow" stroke="black" stroke-width="0.5" />
<polygon points="260,853.553 260,873.553 320,873.553 320,853.553" transform="rotate(0 500 500)" fill="yellow" stroke="black" stroke-width="0.5" />
<polygon points="740,853.553 740,873.553 800,873.553 800,853.553" transform="rotate(0 500 500)" fill="yellow" stroke="black" stroke-width="0.5" />
<polygon points="200,853.553 200,873.553 260,873.553 260,853.553" transform="rotate(0 500 500)" fill="yellow" stroke="black" stroke-width="0.5" />
<polygon points="500,873.553 500,893.553 560,893.553 560,873.553" transform="rotate(0 500 500)" fill="yellow" stroke="black" stroke-width="0.5" />
<polygon points="440,873.553 440,893.553 500,893.553 500,873.553" transform="rotate(0 500 500)" fill="yellow" stroke="black" stroke-width="0.5" />
<polygon points="560,873.553 560,893.553 620,893.553 620,873.553" transform="rotate(0 500 500)" fill="yellow" stroke="black" stroke-width="0.5" />
<polygon points="380,873.553 380,893.553 440,893.553 440,873.553" transform="rotate(0 500 500)" fill="yellow" stroke="black" stroke-width="0.5" />
<polygon points="620,873.553 620,893.553 680,893.553 680,873.553" transform="rotate(0 500 500)" fill="yellow" stroke="black" stroke-width="0.5" />
<polygon points="320,873.553 320,893.553 380,893.553 380,873.553" transform="rotate(0 500 500)" fill="yellow" stroke="black" stroke-width="0.5" />
<polygon points="680,873.553 680,893.553 740,893.553 740,873.553" transform="rotate(0 500 500)" fill="yellow" stroke="black" stroke-width="0.5" />
<polygon points="260,873.553 260,893.553 320,893.553 320,873.553" transform="rotate(0 500 500)" fill="yellow" stroke="black" stroke-width="0.5" />
<polygon points="740,873.553 740,893.553 800,893.553 800,873.553" transform="rotate(0 500 500)" fill="yellow" stroke="black" stroke-width="0.5" />
<polygon points="200,873.553 200,893.553 260,893.553 260,873.553" transform="rotate(0 500 500)" fill="yellow" stroke="black" stroke-width="0.5" />
<polygon points="500,893.553 500,913.553 560,913.553 560,893.553" transform="rotate(0 500 500)" fill="yellow" stroke="black" stroke-width="0.5" />
<polygon points="440,893.553 440,913.553 500,913.553 500,893.553" transform="rotate(0 500 500)" fill="yellow" stroke="black" stroke-width="0.5" />
<polygon points="560,893.553 560,913.553 620,913.553 620,893.553" transform="rotate(0 500 500)" fill="yellow" stroke="black" stroke-width="0.5" />
<polygon points="380,893.553 380,913.553 440,913.553 440,893.553" transform="rotate(0 500 500)" fill="yellow" stroke="black" stroke-width="0.5" />
<polygon points="620,893.553 620,913.553 680,913.553 680,893.553" transform="rotate(0 500 500)" fill="yellow" stroke="black" stroke-width="0.5" />
<polygon points="320,893.553 320,913.553 380,913.553 380,893.553" transform="rotate(0 500 500)" fill="yellow" stroke="black" stroke-width="0.5" />
<polygon points="680,893.553 680,913.553 740,913.553 740,893.553" transform="rotate(0 500 500)" fill="yellow" stroke="black" stroke-width="0.5" />
<polygon points="260,893.553 260,913.553 320,913.553 320,893.553" transform="rotate(0 500 500)" fill="yellow" stroke="black" stroke-width="0.5" />
<polygon points="500,913.553 500,933.553 560,933.553 560,913.553" transform="rotate(0 500 500)" fill="yellow" stroke="black" stroke-width="0.5" />
<polygon points="440,913.553 440,933.553 500,933.553 500,913.553" transform="rotate(0 500 500)" fill="yellow" stroke="black" stroke-width="0.5" />
<polygon points="560,913.553 560,933.553 620,933.553 620,913.553" transform="rotate(0 500 500)" fill="yellow" stroke="black" stroke-width="0.5" />
<polygon points="380,913.553 380,933.553 440,933.553 440,913.553" transform="rotate(0 500 500)" fill="yellow" stroke="black" stroke-width="0.5" />
<polygon points="620,913.553 620,933.553 680,933.553 680,913.553" transform="rotate(0 500 500)" fill="yellow" stroke="black" stroke-width="0.5" />
<polygon points="320,913.553 320,933.553 380,933.553 380,913.553" transform="rotate(0 500 500)" fill="yellow" stroke="black" stroke-width="0.5" />
<polygon points="680,913.553 680,933.553 740,933.553 740,913.553" transform="rotate(0 500 500)" fill="yellow" stroke="black" stroke-width="0.5" />
<polygon points="260,913.553 260,933.553 320,933.553 320,913.553" transform="rotate(0 500 500)" fill="yellow" stroke="black" stroke-width="0.5" />
<polygon points="500,933.553 500,953.553 560,953.553 560,933.553" transform="rotate(0 500 500)" fill="yellow" stroke="black" stroke-width="0.5" />
<polygon points="440,933.553 440,953.553 500,953.553 500,933.553" transform="rotate(0 500 500)" fill="yellow" stroke="black" stroke-width="0.5" />
<polygon points="560,933.553 560,953.553 620,953.553 620,933.553" transform="rotate(0 500 500)" fill="yellow" stroke="black" stroke-width="0.5" />
<polygon points="380,933.553 380,953.553 440,953.553 440,933.553" transform="rotate(0 500 500)" fill="yellow" stroke="black" stroke-width="0.5" />
<polygon points="620,933.553 620,953.553 680,953.553 680,933.553" transform="rotate(0 500 500)" fill="yellow" stroke="black" stroke-width="0.5" />
<polygon points="320,933.553 320,953.553 380,953.553 380,933.553" transform="rotate(0 500 500)" fill="yellow" stroke="black" stroke-width="0.5" />
<polygon points="500,953.553 500,973.553 560,973.553 560,953.553" transform="rotate(0 500 500)" fill="yellow" stroke="black" stroke-width="0.5" />
<polygon points="440,953.553 440,973.553 500,973.553 500,953.553" transform="rotate(0 500 500)" fill="yellow" stroke="black" stroke-width="0.5" />
<polygon points="560,953.553 560,973.553 620,973.553 620,953.553" transform="rotate(0 500 500)" fill="yellow" stroke="black" stroke-width="0.5" />
<polygon points="380,953.553 380,973.553 440,973.553 440,953.553" transform="rotate(0 500 500)" fill="yellow" stroke="black" stroke-width="0.5" />
<polygon points="500,973.553 500,993.553 560,993.553 560,973.553" transform="rotate(0 500 500)" fill="yellow" stroke="black" stroke-width="0.5" />
<polygon points="440,973.553 440,993.553 500,993.553 500,973.553" transform="rotate(0 500 500)" fill="yellow" stroke="black" stroke-width="0.5" />
<polygon points="500,853.553 500,873.553 560,873.553 560,853.553" transform="rotate(90 500 500)" fill="yellow" stroke="black" stroke-width="0.5" />
<polygon points="440,853.553 440,873.553 500,873.553 500,853.553" transform="rotate(90 500 500)" fill="yellow" stroke="black" stroke-width="0.5" />
<polygon points="560,853.553 560,873.553 620,873.553 620,853.553" transform="rotate(90 500 500)" fill="yellow" stroke="black" stroke-width="0.5" />
<polygon points="380,853.553 380,873.553 440,873.553 440,853.553" transform="rotate(90 500 500)" fill="yellow" stroke="black" stroke-width="0.5" />
<polygon points="620,853.553 620,873.553 680,873.553 680,853.553" transform="rotate(90 500 500)" fill="yellow" stroke="black" stroke-width="0.5" />
<polygon points="320,853.553 320,873.553 380,873.553 380,853.553" transform="rotate(90 500 500)" fill="yellow" stroke="black" stroke-width="0.5" />
<polygon points="680,853.553 680,873.553 740,873.553 740,853.553" transform="rotate(90 500 500)" fill="yellow" stroke="black" stroke-width="0.5" />
<polygon points="260,853.553 260,873.553 320,873.553 320,853.553" transform="rotate(90 500 500)" fill="yellow" stroke="black" stroke-width="0.5" />
<polygon points="740,853.553 740,873.553 800,873.553 800,853.553" transform="rotate(90 500 500)" fill="yellow" stroke="black" stroke-width="0.5" />
<polygon points="200,853.553 200,873.553 260,873.553 260,853.553" transform="rotate(90 500 500)" fill="yellow" stroke="black" stroke-width="0.5" />
<polygon points="500,873.553 500,893.553 560,893.553 560,873.553" transform="rotate(90 500 500)" fill="yellow" stroke="black" stroke-width="0.5" />
<polygon points="440,873.553 440,893.553 500,893.553 500,873.553" transform="rotate(90 500 500)" fill="yellow" stroke="black" stroke-width="0.5" />
<polygon points="560,873.553 560,893.553 620,893.553 620,873.553" transform="rotate(90 500 500)" fill="yellow" stroke="black" stroke-width="0.5" />
<polygon points="380,873.553 380,893.553 440,893.553 440,873.553" transform="rotate(90 500 500)" fill="yellow" stroke="black" stroke-width="0.5" />
<polygon points="620,873.553 620,893.553 680,893.553 680,873.553" transform="rotate(90 500 500)" fill="yellow" stroke="black" stroke-width="0.5" />
<polygon points="320,873.553 320,893.553 380,893.553 380,873.553" transform="rotate(90 500 500)" fill="yellow" stroke="black" stroke-width="0.5" />
<polygon points="680,873.553 680,893.553 740,893.553 740,873.553" transform="rotate(90 500 500)" fill="yellow" stroke="black" stroke-width="0.5" />
<polygon points="260,873.553 260,893.553 320,893.553 320,873.553" transform="rotate(90 500 500)" fill="yellow" stroke="black" stroke-width="0.5" />
<polygon points="740,873.553 740,893.553 800,893.553 800,873.553" transform="rotate(90 500 500)" fill="yellow" stroke="black" stroke-width="0.5" />
<polygon points="200,873.553 200,893.553 260,893.553 260,873.553" transform="rotate(90 500 500)" fill="yellow" stroke="black" stroke-width="0.5" />
<polygon points="500,893.553 500,913.553 560,913.553 560,893.553" transform="rotate(90 500 500)" fill="yellow" stroke="black" stroke-width="0.5" />
<polygon points="440,893.553 440,913.553 500,913.553 500,893.553" transform="rotate(90 500 500)" fill="yellow" stroke="black" stroke-width="0.5" />
<polygon points="560,893.553 560,913.553 620,913.553 620,893.553" transform="rotate(90 500 500)" fill="yellow" stroke="black" stroke-width="0.5" />
<polygon points="380,893.553 380,913.553 440,913.553 440,893.553" transform="rotate(90 500 500)" fill="yellow" stroke="black" stroke-width="0.5" />
<polygon points="620,893.553 620,913.553 680,913.553 680,893.553" transform="rotate(90 500 500)" fill="yellow" stroke="black" stroke-width="0.5" />
<polygon points="320,893.553 320,913.553 380,913.553 380,893.553" transform="rotate(90 500 500)" fill="yellow" stroke="black" stroke-width="0.5" />
<polygon points="680,893.553 680,913.553 740,913.553 740,893.553" transform="rotate(90 500 500)" fill="yellow" stroke="black" stroke-width="0.5" />
<polygon points="260,893.553 260,913.553 320,913.553 320,893.553" transform="rotate(90 500 500)" fill="yellow" stroke="black" stroke-width="0.5" />
<polygon points="500,913.553 500,933.553 560,933.553 560,913.553" transform="rotate(90 500 500)" fill="yellow" stroke="black" stroke-width="0.5" />
<polygon points="440,913.553 440,933.553 500,933.553 500,913.553" transform="rotate(90 500 500)" fill="yellow" stroke="black" stroke-width="0.5" />
<polygon points="560,913.553 560,933.553 620,933.553 620,913.553" transform="rotate(90 500 500)" fill="yellow" stroke="black" stroke-width="0.5" />
<polygon points="380,913.553 380,933.553 440,933.553 440,913.553" transform="rotate(90 500 500)" fill="yellow" stroke="black" stroke-width="0.5" />
<polygon points="620,913.553 620,933.553 680,933.553 680,913.553" transform="rotate(90 500 500)" fill="yellow" stroke="black" stroke-width="0.5" />
<polygon points="320,913.553 320,933.553 380,933.553 380,913.553" transform="rotate(90 500 500)" fill="yellow" stroke="black" stroke-width="0.5" />
<polygon points="680,913.553 680,933.553 740,933.553 740,913.553" transform="rotate(90 500 500)" fill="yellow" stroke="black" stroke-width="0.5" />
<polygon points="260,913.553 260,933.553 320,933.553 320,913.553" transform="rotate(90 500 500)" fill="yellow" stroke="black" stroke-width="0.5" />
<polygon points="500,933.553 500,953.553 560,953.553 560,933.553" transform="rotate(90 500 500)" fill="yellow" stroke="black" stroke-width="0.5" />
<polygon points="440,933.553 440,953.553 500,953.553 500,933.553" transform="rotate(90 500 500)" fill="yellow" stroke="black" stroke-width="0.5" />
<polygon points="560,933.553 560,953.553 620,953.553 620,933.553" transform="rotate(90 500 500)" fill="yellow" stroke="black" stroke-width="0.5" />
<polygon points="380,933.553 380,953.553 440,953.553 440,933.553" transform="rotate(90 500 500)" fill="yellow" stroke="black" stroke-width="0.5" />
<polygon points="620,933.553 620,953.553 680,953.553 680,933.553" transform="rotate(90 500 500)" fill="yellow" stroke="black" stroke-width="0.5" />
<polygon points="320,933.553 320,953.553 380,953.553 380,933.553" transform="rotate(90 500 500)" fill="yellow" stroke="black" stroke-width="0.5" />
<polygon points="500,953.553 500,973.553 560,973.553 560,953.553" transform="rotate(90 500 500)" fill="yellow" stroke="black" stroke-width="0.5" />
<polygon points="440,953.553 440,973.553 500,973.553 500,953.553" transform="rotate(90 500 500)" fill="yellow" stroke="black" stroke-width="0.5" />
<polygon points="560,953.553 560,973.553 620,973.553 620,953.553" transform="rotate(90 500 500)" fill="yellow" stroke="black" stroke-width="0.5" />
<polygon points="380,953.553 380,973.553 440,973.553 440,953.553" transform="rotate(90 500 500)" fill="yellow" stroke="black" stroke-width="0.5" />
<polygon points="500,973.553 500,993.553 560,993.553 560,973.553" transform="rotate(90 500 500)" fill="yellow" stroke="black" stroke-width="0.5" />
<polygon points="440,973.553 440,993.553 500,993.553 500,973.553" transform="rotate(90 500 500)" fill="yellow" stroke="black" stroke-width="0.5" />
<polygon points="500,853.553 500,873.553 560,873.553 560,853.553" transform="rotate(180 500 500)" fill="yellow" stroke="black" stroke-width="0.5" />
<polygon points="440,853.553 440,873.553 500,873.553 500,853.553" transform="rotate(180 500 500)" fill="yellow" stroke="black" stroke-width="0.5" />
<polygon points="560,853.553 560,873.553 620,873.553 620,853.553" transform="rotate(180 500 500)" fill="yellow" stroke="black" stroke-width="0.5" />
<polygon points="380,853.553 380,873.553 440,873.553 440,853.553" transform="rotate(180 500 500)" fill="yellow" stroke="black" stroke-width="0.5" />
<polygon points="620,853.553 620,873.553 680,873.553 680,853.553" transform="rotate(180 500 500)" fill="yellow" stroke="black" stroke-width="0.5" />
<polygon points="320,853.553 320,873.553 380,873.553 380,853.553" transform="rotate(180 500 500)" fill="yellow" stroke="black" stroke-width="0.5" />
<polygon points="680,853.553 680,873.553 740,873.553 740,853.553" transform="rotate(180 500 500)" fill="yellow" stroke="black" stroke-width="0.5" />
<polygon points="260,853.553 260,873.553 320,873.553 320,853.553" transform="rotate(180 500 500)" fill="yellow" stroke="black" stroke-width="0.5" />
<polygon points="740,853.553 740,873.553 800,873.553 800,853.553" transform="rotate(180 500 500)" fill="yellow" stroke="black" stroke-width="0.5" />
<polygon points="200,853.553 200,873.553 260,873.553 260,853.553" transform="rotate(180 500 500)" fill="yellow" stroke="black" stroke-width="0.5" />
<polygon points="500,873.553 500,893.553 560,893.553 560,873.553" transform="rotate(180 500 500)" fill="yellow" stroke="black" stroke-width="0.5" />
<polygon points="440,873.553 440,893.553 500,893.553 500,873.553" transform="rotate(180 500 500)" fill="yellow" stroke="black" stroke-width="0.5" />
<polygon points="560,873.553 560,893.553 620,893.553 620,873.553" transform="rotate(180 500 500)" fill="yellow" stroke="black" stroke-width="0.5" />
<polygon points="380,873.553 380,893.553 440,893.553 440,873.553" transform="rotate(180 500 500)" fill="yellow" stroke="black" stroke-width="0.5" />
<polygon points="620,873.553 620,893.553 680,893.553 680,873.553" transform="rotate(180 500 500)" fill="yellow" stroke="black" stroke-width="0.5" />
<polygon points="320,873.553 320,893.553 380,893.553 380,873.553" transform="rotate(180 500 500)" fill="yellow" stroke="black" stroke-width="0.5" />
<polygon points="680,873.553 680,893.553 740,893.553 740,873.553" transform="rotate(180 500 500)" fill="yellow" stroke="black" stroke-width="0.5" />
<polygon points="260,873.553 260,893.553 320,893.553 320,873.553" transform="rotate(180 500 500)" fill="yellow" stroke="black" stroke-width="0.5" />
<polygon points="740,873.553 740,893.553 800,893.553 800,873.553" transform="rotate(180 500 500)" fill="yellow" stroke="black" stroke-width="0.5" />
<polygon points="200,873.553 200,893.553 260,893.553 260,873.553" transform="rotate(180 500 500)" fill="yellow" stroke="black" stroke-width="0.5" />
<polygon points="500,893.553 500,913.553 560,913.553 560,893.553" transform="rotate(180 500 500)" fill="yellow" stroke="black" stroke-width="0.5" />
<polygon points="440,893.553 440,913.553 500,913.553 500,893.553" transform="rotate(180 500 500)" fill="yellow" stroke="black" stroke-width="0.5" />
<polygon points="560,893.553 560,913.553 620,913.553 620,893.553" transform="rotate(180 500 500)" fill="yellow" stroke="black" stroke-width="0.5" />
<polygon points="380,893.553 380,913.553 440,913.553 440,893.553" transform="rotate(180 500 500)" fill="yellow" stroke="black" stroke-width="0.5" />
<polygon points="620,893.553 620,913.553 680,913.553 680,893.553" transform="rotate(180 500 500)" fill="yellow" stroke="black" stroke-width="0.5" />
<polygon points="320,893.553 320,913.553 380,913.553 380,893.553" transform="rotate(180 500 500)" fill="yellow" stroke="black" stroke-width="0.5" />
<polygon points="680,893.553 680,913.553 740,913.553 740,893.553" transform="rotate(180 500 500)" fill="yellow" stroke="black" stroke-width="0.5" />
<polygon points="260,893.553 260,913.553 320,913.553 320,893.553" transform="rotate(180 500 500)" fill="yellow" stroke="black" stroke-width="0.5" />
<polygon points="500,913.553 500,933.553 560,933.553 560,913.553" transform="rotate(180 500 500)" fill="yellow" stroke="black" stroke-width="0.5" />
<polygon points="440,913.553 440,933.553 500,933.553 500,913.553" transform="rotate(180 500 500)" fill="yellow" stroke="black" stroke-width="0.5" />
<polygon points="560,913.553 560,933.553 620,933.553 620,913.553" transform="rotate(180 500 500)" fill="yellow" stroke="black" stroke-width="0.5" />
<polygon points="380,913.553 380,933.553 440,933.553 440,913.553" transform="rotate(180 500 500)" fill="yellow" stroke="black" stroke-width="0.5" />
<polygon points="620,913.553 620,933.553 680,933.553 680,913.553" transform="rotate(180 500 500)" fill="yellow" stroke="black" stroke-width="0.5" />
<polygon points="320,913.553 320,933.553 380,933.553 380,913.553" transform="rotate(180 500 500)" fill="yellow" stroke="black" stroke-width="0.5" />
<polygon points="680,913.553 680,933.553 740,933.553 740,913.553" transform="rotate(180 500 500)" fill="yellow" stroke="black" stroke-width="0.5" />
<polygon points="260,913.553 260,933.553 320,933.553 320,913.553" transform="rotate(180 500 500)" fill="yellow" stroke="black" stroke-width="0.5" />
<polygon points="500,933.553 500,953.553 560,953.553 560,933.553" transform="rotate(180 500 500)" fill="yellow" stroke="black" stroke-width="0.5" />
<polygon points="440,933.553 440,953.553 500,953.553 500,933.553" transform="rotate(180 500 500)" fill="yellow" stroke="black" stroke-width="0.5" />
<polygon points="560,933.553 560,953.553 620,953.553 620,933.553" transform="rotate(180 500 500)" fill="yellow" stroke="black" stroke-width="0.5" />
<polygon points="380,933.553 380,953.553 440,953.553 440,933.553" transform="rotate(180 500 500)" fill="yellow" stroke="black" stroke-width="0.5" />
<polygon points="620,933.553 620,953.553 680,953.553 680,933.553" transform="rotate(180 500 500)" fill="yellow" stroke="black" stroke-width="0.5" />
<polygon points="320,933.553 320,953.553 380,953.553 380,933.553" transform="rotate(180 500 500)" fill="yellow" stroke="black" stroke-width="0.5" />
<polygon points="500,953.553 500,973.553 560,973.553 560,953.553" transform="rotate(180 500 500)" fill="yellow" stroke="black" stroke-width="0.5" />
<polygon points="440,953.553 440,973.553 500,973.553 500,953.553" transform="rotate(180 500 500)" fill="yellow" stroke="black" stroke-width="0.5" />
<polygon points="560,953.553 560,973.553 620,973.553 620,953.553" transform="rotate(180 500 500)" fill="yellow" stroke="black" stroke-width="0.5" />
<polygon points="380,953.553 380,973.553 440,973.553 440,953.553" transform="rotate(180 500 500)" fill="yellow" stroke="black" stroke-width="0.5" />
<polygon points="500,973.553 500,993.553 560,993.553 560,973.553" transform="rotate(180 500 500)" fill="yellow" stroke="black" stroke-width="0.5" />
<polygon points="440,973.553 440,993.553 500,993.553 500,973.553" transform="rotate(180 500 500)" fill="yellow" stroke="black" stroke-width="0.5" />
<polygon points="500,853.553 500,873.553 560,873.553 560,853.553" transform="rotate(270 500 500)" fill="yellow" stroke="black" stroke-width="0.5" />
<polygon points="440,853.553 440,873.553 500,873.553 500,853.553" transform="rotate(270 500 500)" fill="yellow" stroke="black" stroke-width="0.5" />
<polygon points="560,853.553 560,873.553 620,873.553 620,853.553" transform="rotate(270 500 500)" fill="yellow" stroke="black" stroke-width="0.5" />
<polygon points="380,853.553 380,873.553 440,873.553 440,853.553" transform="rotate(270 500 500)" fill="yellow" stroke="black" stroke-width="0.5" />
<polygon points="620,853.553 620,873.553 680,873.553 680,853.553" transform="rotate(270 500 500)" fill="yellow" stroke="black" stroke-width="0.5" />
<polygon points="320,853.553 320,873.553 380,873.553 380,853.553" transform="rotate(270 500 500)" fill="yellow" stroke="black" stroke-width="0.5" />
<polygon points="680,853.553 680,873.553 740,873.553 740,853.553" transform="rotate(270 500 500)" fill="yellow" stroke="black" stroke-width="0.5" />
<polygon points="260,853.553 260,873.553 320,873.553 320,853.553" transform="rotate(270 500 500)" fill="yellow" stroke="black" stroke-width="0.5" />
<polygon points="740,853.553 740,873.553 800,873.553 800,853.553" transform="rotate(270 500 500)" fill="yellow" stroke="black" stroke-width="0.5" />
<polygon points="200,853.553 200,873.553 260,873.553 260,853.553" transform="rotate(270 500 500)" fill="yellow" stroke="black" stroke-width="0.5" />
<polygon points="500,873.553 500,893.553 560,893.553 560,873.553" transform="rotate(270 500 500)" fill="yellow" stroke="black" stroke-width="0.5" />
<polygon points="440,873.553 440,893.553 500,893.553 500,873.553" transform="rotate(270 500 500)" fill="yellow" stroke="black" stroke-width="0.5" />
<polygon points="560,873.553 560,893.553 620,893.553 620,873.553" transform="rotate(270 500 500)" fill="yellow" stroke="black" stroke-width="0.5" />
<polygon points="380,873.553 380,893.553 440,893.553 440,873.553" transform="rotate(270 500 500)" fill="yellow" stroke="black" stroke-width="0.5" />
<polygon points="620,873.553 620,893.553 680,893.553 680,873.553" transform="rotate(270 500 500)" fill="yellow" stroke="black" stroke-width="0.5" />
<polygon points="320,873.553 320,893.553 380,893.553 380,873.553" transform="rotate(270 500 500)" fill="yellow" stroke="black" stroke-width="0.5" />
<polygon points="680,873.553 680,893.553 740,893.553 740,873.553" transform="rotate(270 500 500)" fill="yellow" stroke="black" stroke-width="0.5" />
<polygon points="260,873.553 260,893.553 320,893.553 320,873.553" transform="rotate(270 500 500)" fill="yellow" stroke="black" stroke-width="0.5" />
<polygon points="740,873.553 740,893.553 800,893.553 800,873.553" transform="rotate(270 500 500)" fill="yellow" stroke="black" stroke-width="0.5" />
<polygon points="200,873.553 200,893.553 260,893.553 260,873.553" transform="rotate(270 500 500)" fill="yellow" stroke="black" stroke-width="0.5" />
<polygon points="500,893.553 500,913.553 560,913.553 560,893.553" transform="rotate(270 500 500)" fill="yellow" stroke="black" stroke-width="0.5" />
<polygon points="440,893.553 440,913.553 500,913.553 500,893.553" transform="rotate(270 500 500)" fill="yellow" stroke="black" stroke-width="0.5" />
<polygon points="560,893.553 560,913.553 620,913.553 620,893.553" transform="rotate(270 500 500)" fill="yellow" stroke="black" stroke-width="0.5" />
<polygon points="380,893.553 380,913.553 440,913.553 440,893.553" transform="rotate(270 500 500)" fill="yellow" stroke="black" stroke-width="0.5" />
<polygon points="620,893.553 620,913.553 680,913.553 680,893.553" transform="rotate(270 500 500)" fill="yellow" stroke="black" stroke-width="0.5" />
<polygon points="320,893.553 320,913.553 380,913.553 380,893.553" transform="rotate(270 500 500)" fill="yellow" stroke="black" stroke-width="0.5" />
<polygon points="680,893.553 680,913.553 740,913.553 740,893.553" transform="rotate(270 500 500)" fill="yellow" stroke="black" stroke-width="0.5" />
<polygon points="260,893.553 260,913.553 320,913.553 320,893.553" transform="rotate(270 500 500)" fill="yellow" stroke="black" stroke-width="0.5" />
<polygon points="500,913.553 500,933.553 560,933.553 560,913.553" transform="rotate(270 500 500)" fill="yellow" stroke="black" stroke-width="0.5" />
<polygon points="440,913.553 440,933.553 500,933.553 500,913.553" transform="rotate(270 500 500)" fill="yellow" stroke="black" stroke-width="0.5" />
<polygon points="560,913.553 560,933.553 620,933.553 620,913.553" transform="rotate(270 500 500)" fill="yellow" stroke="black" stroke-width="0.5" />
<polygon points="380,913.553 380,933.553 440,933.553 440,913.553" transform="rotate(270 500 500)" fill="yellow" stroke="black" stroke-width="0.5" />
<polygon points="620,913.553 620,933.553 680,933.553 680,913.553" transform="rotate(270 500 500)" fill="yellow" stroke="black" stroke-width="0.5" />
<polygon points="320,913.553 320,933.553 380,933.553 380,913.553" transform="rotate(270 500 500)" fill="yellow" stroke="black" stroke-width="0.5" />
<polygon points="680,913.553 680,933.553 740,933.553 740,913.553" transform="rotate(270 500 500)" fill="yellow" stroke="black" stroke-width="0.5" />
<polygon points="260,913.553 260,933.553 320,933.553 320,913.553" transform="rotate(270 500 500)" fill="yellow" stroke="black" stroke-width="0.5" />
<polygon points="500,933.553 500,953.553 560,953.553 560,933.553" transform="rotate(270 500 500)" fill="yellow" stroke="black" stroke-width="0.5" />
<polygon points="440,933.553 440,953.553 500,953.553 500,933.553" transform="rotate(270 500 500)" fill="yellow" stroke="black" stroke-width="0.5" />
<polygon points="560,933.553 560,953.553 620,953.553 620,933.553" transform="rotate(270 500 500)" fill="yellow" stroke="black" stroke-width="0.5" />
<polygon points="380,933.553 380,953.553 440,953.553 440,933.553" transform="rotate(270 500 500)" fill="yellow" stroke="black" stroke-width="0.5" />
<polygon points="620,933.553 620,953.553 680,953.553 680,933.553" transform="rotate(270 500 500)" fill="yellow" stroke="black" stroke-width="0.5" />
<polygon points="320,933.553 320,953.553 380,953.553 380,933.553" transform="rotate(270 500 500)" fill="yellow" stroke="black" stroke-width="0.5" />
<polygon points="500,953.553 500,973.553 560,973.553 560,953.553" transform="rotate(270 500 500)" fill="yellow" stroke="black" stroke-width="0.5" />
<polygon points="440,953.553 440,973.553 500,973.553 500,953.553" transform="rotate(270 500 500)" fill="yellow" stroke="black" stroke-width="0.5" />
<polygon points="560,953.553 560,973.553 620,973.553 620,953.553" transform="rotate(270 500 500)" fill="yellow" stroke="black" stroke-width="0.5" />
<polygon points="380,953.553 380,973.553 440,973.553 440,953.553" transform="rotate(270 500 500)" fill="yellow" stroke="black" stroke-width="0.5" />
<polygon points="500,973.553 500,993.553 560,993.553 560,973.553" transform="rotate(270 500 500)" fill="yellow" stroke="black" stroke-width="0.5" />
<polygon points="440,973.553 440,993.553 500,993.553 500,973.553" transform="rotate(270 500 500)" fill="yellow" stroke="black" stroke-width="0.5" />
</svg>
