<svg version="1.1" baseProfile="full" xmlns="http://www.w3.org/2000/svg">
<polygon points="250,0 0,433.013 500,433.013" transform="rotate(0 0 0)" fill="pink" stroke="black" stroke-width="0.5" />
<polygon points="300,100 299.901,96.8605 299.606,93.7333 299.114,90.6309 298.429,87.5655 297.553,84.5492 296.489,81.5938 295.241,78.711 293.815,75.9123 292.216,73.2087 290.451,70.6107 288.526,68.1288 286.448,65.7726 284.227,63.5516 281.871,61.4743 279.389,59.5492 276.791,57.7836 274.088,56.1847 271.289,54.7586 268.406,53.5112 265.451,52.4472 262.434,51.5708 259.369,50.8856 256.267,50.3943 253.14,50.0987 250,50 246.86,50.0987 243.733,50.3943 240.631,50.8856 237.566,51.5708 234.549,52.4472 231.594,53.5112 228.711,54.7586 225.912,56.1847 223.209,57.7836 220.611,59.5492 218.129,61.4743 215.773,63.5516 213.552,65.7726 211.474,68.1288 209.549,70.6107 207.784,73.2087 206.185,75.9123 204.759,78.711 203.511,81.5938 202.447,84.5492 201.571,87.5655 200.886,90.6309 200.394,93.7333 200.099,96.8605 200,100 200.099,103.14 200.394,106.267 200.886,109.369 201.571,112.434 202.447,115.451 203.511,118.406 204.759,121.289 206.185,124.088 207.784,126.791 209.549,129.389 211.474,131.871 213.552,134.227 215.773,136.448 218.129,138.526 220.611,140.451 223.209,142.216 225.912,143.815 228.711,145.241 231.594,146.489 234.549,147.553 237.566,148.429 240.631,149.114 243.733,149.606 246.86,149.901 250,150 253.14,149.901 256.267,149.606 259.369,149.114 262.434,148.429 265.451,147.553 268.406,146.489 271.289,145.241 274.088,143.815 276.791,142.216 279.389,140.451 281.871,138.526 284.227,136.448 286.448,134.227 288.526,131.871 290.451,129.389 292.216,126.791 293.815,124.088 295.241,121.289 296.489,118.406 297.553,115.451 298.429,112.434 299.114,109.369 299.606,106.267 299.901,103.14" transform="rotate(0 0 0)" fill="green" stroke="black" stroke-width="0.5" />
<polygon points="250,186.603 249.901,183.463 249.606,180.336 249.114,177.233 248.429,174.168 247.553,171.152 246.489,168.196 245.241,165.314 243.815,162.515 242.216,159.811 240.451,157.213 238.526,154.731 236.448,152.375 234.227,150.154 231.871,148.077 229.389,146.152 226.791,144.386 224.088,142.787 221.289,141.361 218.406,140.114 215.451,139.05 212.434,138.173 209.369,137.488 206.267,136.997 203.14,136.701 200,136.603 196.86,136.701 193.733,136.997 190.631,137.488 187.566,138.173 184.549,139.05 181.594,140.114 178.711,141.361 175.912,142.787 173.209,144.386 170.611,146.152 168.129,148.077 165.773,150.154 163.552,152.375 161.474,154.731 159.549,157.213 157.784,159.811 156.185,162.515 154.759,165.314 153.511,168.196 152.447,171.152 151.571,174.168 150.886,177.233 150.394,180.336 150.099,183.463 150,186.603 150.099,189.742 150.394,192.869 150.886,195.972 151.571,199.037 152.447,202.053 153.511,205.009 154.759,207.892 156.185,210.69 157.784,213.394 159.549,215.992 161.474,218.474 163.552,220.83 165.773,223.051 168.129,225.128 170.611,227.053 173.209,228.819 175.912,230.418 178.711,231.844 181.594,233.091 184.549,234.155 187.566,235.032 190.631,235.717 193.733,236.208 196.86,236.504 200,236.603 203.14,236.504 206.267,236.208 209.369,235.717 212.434,235.032 215.451,234.155 218.406,233.091 221.289,231.844 224.088,230.418 226.791,228.819 229.389,227.053 231.871,225.128 234.227,223.051 236.448,220.83 238.526,218.474 240.451,215.992 242.216,213.394 243.815,210.69 245.241,207.892 246.489,205.009 247.553,202.053 248.429,199.037 249.114,195.972 249.606,192.869 249.901,189.742" transform="rotate(0 0 0)" fill="green" stroke="black" stroke-width="0.5" />
<polygon points="350,186.603 349.901,183.463 349.606,180.336 349.114,177.233 348.429,174.168 347.553,171.152 346.489,168.196 345.241,165.314 343.815,162.515 342.216,159.811 340.451,157.213 338.526,154.731 336.448,152.375 334.227,150.154 331.871,148.077 329.389,146.152 326.791,144.386 324.088,142.787 321.289,141.361 318.406,140.114 315.451,139.05 312.434,138.173 309.369,137.488 306.267,136.997 303.14,136.701 300,136.603 296.86,136.701 293.733,136.997 290.631,137.488 287.566,138.173 284.549,139.05 281.594,140.114 278.711,141.361 275.912,142.787 273.209,144.386 270.611,146.152 268.129,148.077 265.773,150.154 263.552,152.375 261.474,154.731 259.549,157.213 257.784,159.811 256.185,162.515 254.759,165.314 253.511,168.196 252.447,171.152 251.571,174.168 250.886,177.233 250.394,180.336 250.099,183.463 250,186.603 250.099,189.742 250.394,192.869 250.886,195.972 251.571,199.037 252.447,202.053 253.511,205.009 254.759,207.892 256.185,210.69 257.784,213.394 259.549,215.992 261.474,218.474 263.552,220.83 265.773,223.051 268.129,225.128 270.611,227.053 273.209,228.819 275.912,230.418 278.711,231.844 281.594,233.091 284.549,234.155 287.566,235.032 290.631,235.717 293.733,236.208 296.86,236.504 300,236.603 303.14,236.504 306.267,236.208 309.369,235.717 312.434,235.032 315.451,234.155 318.406,233.091 321.289,231.844 324.088,230.418 326.791,228.819 329.389,227.053 331.871,225.128 334.227,223.051 336.448,220.83 338.526,218.474 340.451,215.992 342.216,213.394 343.815,210.69 345.241,207.892 346.489,205.009 347.553,202.053 348.429,199.037 349.114,195.972 349.606,192.869 349.901,189.742" transform="rotate(0 0 0)" fill="green" stroke="black" stroke-width="0.5" />
<polygon points="300,273.205 299.901,270.066 299.606,266.938 299.114,263.836 298.429,260.771 297.553,257.754 296.489,254.799 295.241,251.916 293.815,249.117 292.216,246.414 290.451,243.816 288.526,241.334 286.448,238.978 284.227,236.757 281.871,234.679 279.389,232.754 276.791,230.989 274.088,229.39 271.289,227.964 268.406,226.716 265.451,225.652 262.434,224.776 259.369,224.091 256.267,223.599 253.14,223.304 250,223.205 246.86,223.304 243.733,223.599 240.631,224.091 237.566,224.776 234.549,225.652 231.594,226.716 228.711,227.964 225.912,229.39 223.209,230.989 220.611,232.754 218.129,234.679 215.773,236.757 213.552,238.978 211.474,241.334 209.549,243.816 207.784,246.414 206.185,249.117 204.759,251.916 203.511,254.799 202.447,257.754 201.571,260.771 200.886,263.836 200.394,266.938 200.099,270.066 200,273.205 200.099,276.345 200.394,279.472 200.886,282.574 201.571,285.64 202.447,288.656 203.511,291.611 204.759,294.494 206.185,297.293 207.784,299.996 209.549,302.594 211.474,305.076 213.552,307.432 215.773,309.654 218.129,311.731 220.611,313.656 223.209,315.421 225.912,317.02 228.711,318.446 231.594,319.694 234.549,320.758 237.566,321.634 240.631,322.319 243.733,322.811 246.86,323.106 250,323.205 253.14,323.106 256.267,322.811 259.369,322.319 262.434,321.634 265.451,320.758 268.406,319.694 271.289,318.446 274.088,317.02 276.791,315.421 279.389,313.656 281.871,311.731 284.227,309.654 286.448,307.432 288.526,305.076 290.451,302.594 292.216,299.996 293.815,297.293 295.241,294.494 296.489,291.611 297.553,288.656 298.429,285.64 299.114,282.574 299.606,279.472 299.901,276.345" transform="rotate(0 0 0)" fill="green" stroke="black" stroke-width="0.5" />
<polygon points="200,273.205 199.901,270.066 199.606,266.938 199.114,263.836 198.429,260.771 197.553,257.754 196.489,254.799 195.241,251.916 193.815,249.117 192.216,246.414 190.451,243.816 188.526,241.334 186.448,238.978 184.227,236.757 181.871,234.679 179.389,232.754 176.791,230.989 174.088,229.39 171.289,227.964 168.406,226.716 165.451,225.652 162.434,224.776 159.369,224.091 156.267,223.599 153.14,223.304 150,223.205 146.86,223.304 143.733,223.599 140.631,224.091 137.566,224.776 134.549,225.652 131.594,226.716 128.711,227.964 125.912,229.39 123.209,230.989 120.611,232.754 118.129,234.679 115.773,236.757 113.552,238.978 111.474,241.334 109.549,243.816 107.784,246.414 106.185,249.117 104.759,251.916 103.511,254.799 102.447,257.754 101.571,260.771 100.886,263.836 100.394,266.938 100.099,270.066 100,273.205 100.099,276.345 100.394,279.472 100.886,282.574 101.571,285.64 102.447,288.656 103.511,291.611 104.759,294.494 106.185,297.293 107.784,299.996 109.549,302.594 111.474,305.076 113.552,307.432 115.773,309.654 118.129,311.731 120.611,313.656 123.209,315.421 125.912,317.02 128.711,318.446 131.594,319.694 134.549,320.758 137.566,321.634 140.631,322.319 143.733,322.811 146.86,323.106 150,323.205 153.14,323.106 156.267,322.811 159.369,322.319 162.434,321.634 165.451,320.758 168.406,319.694 171.289,318.446 174.088,317.02 176.791,315.421 179.389,313.656 181.871,311.731 184.227,309.654 186.448,307.432 188.526,305.076 190.451,302.594 192.216,299.996 193.815,297.293 195.241,294.494 196.489,291.611 197.553,288.656 198.429,285.64 199.114,282.574 199.606,279.472 199.901,276.345" transform="rotate(0 0 0)" fill="green" stroke="black" stroke-width="0.5" />
<polygon points="400,273.205 399.901,270.066 399.606,266.938 399.114,263.836 398.429,260.771 397.553,257.754 396.489,254.799 395.241,251.916 393.815,249.117 392.216,246.414 390.451,243.816 388.526,241.334 386.448,238.978 384.227,236.757 381.871,234.679 379.389,232.754 376.791,230.989 374.088,229.39 371.289,227.964 368.406,226.716 365.451,225.652 362.434,224.776 359.369,224.091 356.267,223.599 353.14,223.304 350,223.205 346.86,223.304 343.733,223.599 340.631,224.091 337.566,224.776 334.549,225.652 331.594,226.716 328.711,227.964 325.912,229.39 323.209,230.989 320.611,232.754 318.129,234.679 315.773,236.757 313.552,238.978 311.474,241.334 309.549,243.816 307.784,246.414 306.185,249.117 304.759,251.916 303.511,254.799 302.447,257.754 301.571,260.771 300.886,263.836 300.394,266.938 300.099,270.066 300,273.205 300.099,276.345 300.394,279.472 300.886,282.574 301.571,285.64 302.447,288.656 303.511,291.611 304.759,294.494 306.185,297.293 307.784,299.996 309.549,302.594 311.474,305.076 313.552,307.432 315.773,309.654 318.129,311.731 320.611,313.656 323.209,315.421 325.912,317.02 328.711,318.446 331.594,319.694 334.549,320.758 337.566,321.634 340.631,322.319 343.733,322.811 346.86,323.106 350,323.205 353.14,323.106 356.267,322.811 359.369,322.319 362.434,321.634 365.451,320.758 368.406,319.694 371.289,318.446 374.088,317.02 376.791,315.421 379.389,313.656 381.871,311.731 384.227,309.654 386.448,307.432 388.526,305.076 390.451,302.594 392.216,299.996 393.815,297.293 395.241,294.494 396.489,291.611 397.553,288.656 398.429,285.64 399.114,282.574 399.606,279.472 399.901,276.345" transform="rotate(0 0 0)" fill="green" stroke="black" stroke-width="0.5" />
<polygon points="250,359.808 249.901,356.668 249.606,353.541 249.114,350.439 248.429,347.373 247.553,344.357 246.489,341.401 245.241,338.519 243.815,335.72 242.216,333.016 240.451,330.418 238.526,327.936 236.448,325.58 234.227,323.359 231.871,321.282 229.389,319.357 226.791,317.591 224.088,315.992 221.289,314.566 218.406,313.319 215.451,312.255 212.434,311.378 209.369,310.693 206.267,310.202 203.14,309.906 200,309.808 196.86,309.906 193.733,310.202 190.631,310.693 187.566,311.378 184.549,312.255 181.594,313.319 178.711,314.566 175.912,315.992 173.209,317.591 170.611,319.357 168.129,321.282 165.773,323.359 163.552,325.58 161.474,327.936 159.549,330.418 157.784,333.016 156.185,335.72 154.759,338.519 153.511,341.401 152.447,344.357 151.571,347.373 150.886,350.439 150.394,353.541 150.099,356.668 150,359.808 150.099,362.947 150.394,366.074 150.886,369.177 151.571,372.242 152.447,375.258 153.511,378.214 154.759,381.097 156.185,383.895 157.784,386.599 159.549,389.197 161.474,391.679 163.552,394.035 165.773,396.256 168.129,398.333 170.611,400.258 173.209,402.024 175.912,403.623 178.711,405.049 181.594,406.296 184.549,407.36 187.566,408.237 190.631,408.922 193.733,409.413 196.86,409.709 200,409.808 203.14,409.709 206.267,409.413 209.369,408.922 212.434,408.237 215.451,407.36 218.406,406.296 221.289,405.049 224.088,403.623 226.791,402.024 229.389,400.258 231.871,398.333 234.227,396.256 236.448,394.035 238.526,391.679 240.451,389.197 242.216,386.599 243.815,383.895 245.241,381.097 246.489,378.214 247.553,375.258 248.429,372.242 249.114,369.177 249.606,366.074 249.901,362.947" transform="rotate(0 0 0)" fill="green" stroke="black" stroke-width="0.5" />
<polygon points="350,359.808 349.901,356.668 349.606,353.541 349.114,350.439 348.429,347.373 347.553,344.357 346.489,341.401 345.241,338.519 343.815,335.72 342.216,333.016 340.451,330.418 338.526,327.936 336.448,325.58 334.227,323.359 331.871,321.282 329.389,319.357 326.791,317.591 324.088,315.992 321.289,314.566 318.406,313.319 315.451,312.255 312.434,311.378 309.369,310.693 306.267,310.202 303.14,309.906 300,309.808 296.86,309.906 293.733,310.202 290.631,310.693 287.566,311.378 284.549,312.255 281.594,313.319 278.711,314.566 275.912,315.992 273.209,317.591 270.611,319.357 268.129,321.282 265.773,323.359 263.552,325.58 261.474,327.936 259.549,330.418 257.784,333.016 256.185,335.72 254.759,338.519 253.511,341.401 252.447,344.357 251.571,347.373 250.886,350.439 250.394,353.541 250.099,356.668 250,359.808 250.099,362.947 250.394,366.074 250.886,369.177 251.571,372.242 252.447,375.258 253.511,378.214 254.759,381.097 256.185,383.895 257.784,386.599 259.549,389.197 261.474,391.679 263.552,394.035 265.773,396.256 268.129,398.333 270.611,400.258 273.209,402.024 275.912,403.623 278.711,405.049 281.594,406.296 284.549,407.36 287.566,408.237 290.631,408.922 293.733,409.413 296.86,409.709 300,409.808 303.14,409.709 306.267,409.413 309.369,408.922 312.434,408.237 315.451,407.36 318.406,406.296 321.289,405.049 324.088,403.623 326.791,402.024 329.389,400.258 331.871,398.333 334.227,396.256 336.448,394.035 338.526,391.679 340.451,389.197 342.216,386.599 343.815,383.895 345.241,381.097 346.489,378.214 347.553,375.258 348.429,372.242 349.114,369.177 349.606,366.074 349.901,362.947" transform="rotate(0 0 0)" fill="green" stroke="black" stroke-width="0.5" />
<polygon points="150,359.808 149.901,356.668 149.606,353.541 149.114,350.439 148.429,347.373 147.553,344.357 146.489,341.401 145.241,338.519 143.815,335.72 142.216,333.016 140.451,330.418 138.526,327.936 136.448,325.58 134.227,323.359 131.871,321.282 129.389,319.357 126.791,317.591 124.088,315.992 121.289,314.566 118.406,313.319 115.451,312.255 112.434,311.378 109.369,310.693 106.267,310.202 103.14,309.906 100,309.808 96.8605,309.906 93.7333,310.202 90.6309,310.693 87.5655,311.378 84.5492,312.255 81.5938,313.319 78.711,314.566 75.9123,315.992 73.2087,317.591 70.6107,319.357 68.1288,321.282 65.7726,323.359 63.5516,325.58 61.4743,327.936 59.5492,330.418 57.7836,333.016 56.1847,335.72 54.7586,338.519 53.5112,341.401 52.4472,344.357 51.5708,347.373 50.8856,350.439 50.3943,353.541 50.0987,356.668 50,359.808 50.0987,362.947 50.3943,366.074 50.8856,369.177 51.5708,372.242 52.4472,375.258 53.5112,378.214 54.7586,381.097 56.1847,383.895 57.7836,386.599 59.5492,389.197 61.4743,391.679 63.5516,394.035 65.7726,396.256 68.1288,398.333 70.6107,400.258 73.2087,402.024 75.9123,403.623 78.711,405.049 81.5938,406.296 84.5492,407.36 87.5655,408.237 90.6309,408.922 93.7333,409.413 96.8605,409.709 100,409.808 103.14,409.709 106.267,409.413 109.369,408.922 112.434,408.237 115.451,407.36 118.406,406.296 121.289,405.049 124.088,403.623 126.791,402.024 129.389,400.258 131.871,398.333 134.227,396.256 136.448,394.035 138.526,391.679 140.451,389.197 142.216,386.599 143.815,383.895 145.241,381.097 146.489,378.214 147.553,375.258 148.429,372.242 149.114,369.177 149.606,366.074 149.901,362.947" transform="rotate(0 0 0)" fill="green" stroke="black" stroke-width="0.5" />
<polygon points="450,359.808 449.901,356.668 449.606,353.541 449.114,350.439 448.429,347.373 447.553,344.357 446.489,341.401 445.241,338.519 443.815,335.72 442.216,333.016 440.451,330.418 438.526,327.936 436.448,325.58 434.227,323.359 431.871,321.282 429.389,319.357 426.791,317.591 424.088,315.992 421.289,314.566 418.406,313.319 415.451,312.255 412.434,311.378 409.369,310.693 406.267,310.202 403.14,309.906 400,309.808 396.86,309.906 393.733,310.202 390.631,310.693 387.566,311.378 384.549,312.255 381.594,313.319 378.711,314.566 375.912,315.992 373.209,317.591 370.611,319.357 368.129,321.282 365.773,323.359 363.552,325.58 361.474,327.936 359.549,330.418 357.784,333.016 356.185,335.72 354.759,338.519 353.511,341.401 352.447,344.357 351.571,347.373 350.886,350.439 350.394,353.541 350.099,356.668 350,359.808 350.099,362.947 350.394,366.074 350.886,369.177 351.571,372.242 352.447,375.258 353.511,378.214 354.759,381.097 356.185,383.895 357.784,386.599 359.549,389.197 361.474,391.679 363.552,394.035 365.773,396.256 368.129,398.333 370.611,400.258 373.209,402.024 375.912,403.623 378.711,405.049 381.594,406.296 384.549,407.36 387.566,408.237 390.631,408.922 393.733,409.413 396.86,409.709 400,409.808 403.14,409.709 406.267,409.413 409.369,408.922 412.434,408.237 415.451,407.36 418.406,406.296 421.289,405.049 424.088,403.623 426.791,402.024 429.389,400.258 431.871,398.333 434.227,396.256 436.448,394.035 438.526,391.679 440.451,389.197 442.216,386.599 443.815,383.895 445.241,381.097 446.489,378.214 447.553,375.258 448.429,372.242 449.114,369.177 449.606,366.074 449.901,362.947" transform="rotate(0 0 0)" fill="green" stroke="black" stroke-width="0.5" />
</svg>
