<svg version="1.1" baseProfile="full" xmlns="http://www.w3.org/2000/svg">
<polygon points="600,300 599.408,281.163 597.634,262.4 594.686,243.786 590.575,225.393 585.317,207.295 578.933,189.563 571.448,172.266 562.892,155.474 553.298,139.252 542.705,123.664 531.154,108.773 518.691,94.6359 505.364,81.3094 491.227,68.846 476.336,57.2949 460.748,46.7016 444.526,37.108 427.734,28.5519 410.437,21.0671 392.705,14.683 374.607,9.42505 356.214,5.31382 337.6,2.36559 318.837,0.591981 300,0 281.163,0.591981 262.4,2.36559 243.786,5.31382 225.393,9.42505 207.295,14.683 189.563,21.0671 172.266,28.5519 155.474,37.108 139.252,46.7016 123.664,57.2949 108.773,68.846 94.6359,81.3094 81.3094,94.6359 68.846,108.773 57.2949,123.664 46.7016,139.252 37.108,155.474 28.5519,172.266 21.0671,189.563 14.683,207.295 9.42505,225.393 5.31382,243.786 2.36559,262.4 0.591981,281.163 0,300 0.591981,318.837 2.36559,337.6 5.31382,356.214 9.42505,374.607 14.683,392.705 21.0671,410.437 28.5519,427.734 37.108,444.526 46.7016,460.748 57.2949,476.336 68.846,491.227 81.3094,505.364 94.6359,518.691 108.773,531.154 123.664,542.705 139.252,553.298 155.474,562.892 172.266,571.448 189.563,578.933 207.295,585.317 225.393,590.575 243.786,594.686 262.4,597.634 281.163,599.408 300,600 318.837,599.408 337.6,597.634 356.214,594.686 374.607,590.575 392.705,585.317 410.437,578.933 427.734,571.448 444.526,562.892 460.748,553.298 476.336,542.705 491.227,531.154 505.364,518.691 518.691,505.364 531.154,491.227 542.705,476.336 553.298,460.748 562.892,444.526 571.448,427.734 578.933,410.437 585.317,392.705 590.575,374.607 594.686,356.214 597.634,337.6 599.408,318.837" transform="rotate(0 0 0)" fill="brown" stroke="black" stroke-width="0.5" />
<polygon points="87.868,87.868 87.868,102.868 197.868,102.868 197.868,87.868" transform="rotate(0 0 0)" fill="green" stroke="black" stroke-width="0.5" />
<polygon points="197.868,87.868 197.868,102.868 307.868,102.868 307.868,87.868" transform="rotate(0 0 0)" fill="green" stroke="black" stroke-width="0.5" />
<polygon points="307.868,87.868 307.868,102.868 417.868,102.868 417.868,87.868" transform="rotate(0 0 0)" fill="green" stroke="black" stroke-width="0.5" />
<polygon points="87.868,102.868 87.868,117.868 197.868,117.868 197.868,102.868" transform="rotate(0 0 0)" fill="green" stroke="black" stroke-width="0.5" />
<polygon points="197.868,102.868 197.868,117.868 307.868,117.868 307.868,102.868" transform="rotate(0 0 0)" fill="green" stroke="black" stroke-width="0.5" />
<polygon points="307.868,102.868 307.868,117.868 417.868,117.868 417.868,102.868" transform="rotate(0 0 0)" fill="green" stroke="black" stroke-width="0.5" />
<polygon points="87.868,117.868 87.868,132.868 197.868,132.868 197.868,117.868" transform="rotate(0 0 0)" fill="green" stroke="black" stroke-width="0.5" />
<polygon points="197.868,117.868 197.868,132.868 307.868,132.868 307.868,117.868" transform="rotate(0 0 0)" fill="green" stroke="black" stroke-width="0.5" />
<polygon points="307.868,117.868 307.868,132.868 417.868,132.868 417.868,117.868" transform="rotate(0 0 0)" fill="green" stroke="black" stroke-width="0.5" />
<polygon points="87.868,132.868 87.868,147.868 197.868,147.868 197.868,132.868" transform="rotate(0 0 0)" fill="green" stroke="black" stroke-width="0.5" />
<polygon points="197.868,132.868 197.868,147.868 307.868,147.868 307.868,132.868" transform="rotate(0 0 0)" fill="green" stroke="black" stroke-width="0.5" />
<polygon points="307.868,132.868 307.868,147.868 417.868,147.868 417.868,132.868" transform="rotate(0 0 0)" fill="green" stroke="black" stroke-width="0.5" />
<polygon points="87.868,147.868 87.868,162.868 197.868,162.868 197.868,147.868" transform="rotate(0 0 0)" fill="green" stroke="black" stroke-width="0.5" />
<polygon points="197.868,147.868 197.868,162.868 307.868,162.868 307.868,147.868" transform="rotate(0 0 0)" fill="green" stroke="black" stroke-width="0.5" />
<polygon points="307.868,147.868 307.868,162.868 417.868,162.868 417.868,147.868" transform="rotate(0 0 0)" fill="green" stroke="black" stroke-width="0.5" />
<polygon points="87.868,162.868 87.868,177.868 197.868,177.868 197.868,162.868" transform="rotate(0 0 0)" fill="green" stroke="black" stroke-width="0.5" />
<polygon points="197.868,162.868 197.868,177.868 307.868,177.868 307.868,162.868" transform="rotate(0 0 0)" fill="green" stroke="black" stroke-width="0.5" />
<polygon points="307.868,162.868 307.868,177.868 417.868,177.868 417.868,162.868" transform="rotate(0 0 0)" fill="green" stroke="black" stroke-width="0.5" />
<polygon points="87.868,177.868 87.868,192.868 197.868,192.868 197.868,177.868" transform="rotate(0 0 0)" fill="green" stroke="black" stroke-width="0.5" />
<polygon points="197.868,177.868 197.868,192.868 307.868,192.868 307.868,177.868" transform="rotate(0 0 0)" fill="green" stroke="black" stroke-width="0.5" />
<polygon points="307.868,177.868 307.868,192.868 417.868,192.868 417.868,177.868" transform="rotate(0 0 0)" fill="green" stroke="black" stroke-width="0.5" />
<polygon points="87.868,192.868 87.868,207.868 197.868,207.868 197.868,192.868" transform="rotate(0 0 0)" fill="green" stroke="black" stroke-width="0.5" />
<polygon points="197.868,192.868 197.868,207.868 307.868,207.868 307.868,192.868" transform="rotate(0 0 0)" fill="green" stroke="black" stroke-width="0.5" />
<polygon points="307.868,192.868 307.868,207.868 417.868,207.868 417.868,192.868" transform="rotate(0 0 0)" fill="green" stroke="black" stroke-width="0.5" />
<polygon points="87.868,207.868 87.868,222.868 197.868,222.868 197.868,207.868" transform="rotate(0 0 0)" fill="green" stroke="black" stroke-width="0.5" />
<polygon points="197.868,207.868 197.868,222.868 307.868,222.868 307.868,207.868" transform="rotate(0 0 0)" fill="green" stroke="black" stroke-width="0.5" />
<polygon points="307.868,207.868 307.868,222.868 417.868,222.868 417.868,207.868" transform="rotate(0 0 0)" fill="green" stroke="black" stroke-width="0.5" />
<polygon points="87.868,222.868 87.868,237.868 197.868,237.868 197.868,222.868" transform="rotate(0 0 0)" fill="green" stroke="black" stroke-width="0.5" />
<polygon points="197.868,222.868 197.868,237.868 307.868,237.868 307.868,222.868" transform="rotate(0 0 0)" fill="green" stroke="black" stroke-width="0.5" />
<polygon points="307.868,222.868 307.868,237.868 417.868,237.868 417.868,222.868" transform="rotate(0 0 0)" fill="green" stroke="black" stroke-width="0.5" />
<polygon points="87.868,237.868 87.868,252.868 197.868,252.868 197.868,237.868" transform="rotate(0 0 0)" fill="green" stroke="black" stroke-width="0.5" />
<polygon points="197.868,237.868 197.868,252.868 307.868,252.868 307.868,237.868" transform="rotate(0 0 0)" fill="green" stroke="black" stroke-width="0.5" />
<polygon points="307.868,237.868 307.868,252.868 417.868,252.868 417.868,237.868" transform="rotate(0 0 0)" fill="green" stroke="black" stroke-width="0.5" />
<polygon points="87.868,252.868 87.868,267.868 197.868,267.868 197.868,252.868" transform="rotate(0 0 0)" fill="green" stroke="black" stroke-width="0.5" />
<polygon points="197.868,252.868 197.868,267.868 307.868,267.868 307.868,252.868" transform="rotate(0 0 0)" fill="green" stroke="black" stroke-width="0.5" />
<polygon points="307.868,252.868 307.868,267.868 417.868,267.868 417.868,252.868" transform="rotate(0 0 0)" fill="green" stroke="black" stroke-width="0.5" />
<polygon points="87.868,267.868 87.868,282.868 197.868,282.868 197.868,267.868" transform="rotate(0 0 0)" fill="green" stroke="black" stroke-width="0.5" />
<polygon points="197.868,267.868 197.868,282.868 307.868,282.868 307.868,267.868" transform="rotate(0 0 0)" fill="green" stroke="black" stroke-width="0.5" />
<polygon points="307.868,267.868 307.868,282.868 417.868,282.868 417.868,267.868" transform="rotate(0 0 0)" fill="green" stroke="black" stroke-width="0.5" />
<polygon points="87.868,282.868 87.868,297.868 197.868,297.868 197.868,282.868" transform="rotate(0 0 0)" fill="green" stroke="black" stroke-width="0.5" />
<polygon points="197.868,282.868 197.868,297.868 307.868,297.868 307.868,282.868" transform="rotate(0 0 0)" fill="green" stroke="black" stroke-width="0.5" />
<polygon points="307.868,282.868 307.868,297.868 417.868,297.868 417.868,282.868" transform="rotate(0 0 0)" fill="green" stroke="black" stroke-width="0.5" />
<polygon points="87.868,297.868 87.868,312.868 197.868,312.868 197.868,297.868" transform="rotate(0 0 0)" fill="green" stroke="black" stroke-width="0.5" />
<polygon points="197.868,297.868 197.868,312.868 307.868,312.868 307.868,297.868" transform="rotate(0 0 0)" fill="green" stroke="black" stroke-width="0.5" />
<polygon points="307.868,297.868 307.868,312.868 417.868,312.868 417.868,297.868" transform="rotate(0 0 0)" fill="green" stroke="black" stroke-width="0.5" />
<polygon points="87.868,312.868 87.868,327.868 197.868,327.868 197.868,312.868" transform="rotate(0 0 0)" fill="green" stroke="black" stroke-width="0.5" />
<polygon points="197.868,312.868 197.868,327.868 307.868,327.868 307.868,312.868" transform="rotate(0 0 0)" fill="green" stroke="black" stroke-width="0.5" />
<polygon points="307.868,312.868 307.868,327.868 417.868,327.868 417.868,312.868" transform="rotate(0 0 0)" fill="green" stroke="black" stroke-width="0.5" />
<polygon points="87.868,327.868 87.868,342.868 197.868,342.868 197.868,327.868" transform="rotate(0 0 0)" fill="green" stroke="black" stroke-width="0.5" />
<polygon points="197.868,327.868 197.868,342.868 307.868,342.868 307.868,327.868" transform="rotate(0 0 0)" fill="green" stroke="black" stroke-width="0.5" />
<polygon points="307.868,327.868 307.868,342.868 417.868,342.868 417.868,327.868" transform="rotate(0 0 0)" fill="green" stroke="black" stroke-width="0.5" />
<polygon points="87.868,342.868 87.868,357.868 197.868,357.868 197.868,342.868" transform="rotate(0 0 0)" fill="green" stroke="black" stroke-width="0.5" />
<polygon points="197.868,342.868 197.868,357.868 307.868,357.868 307.868,342.868" transform="rotate(0 0 0)" fill="green" stroke="black" stroke-width="0.5" />
<polygon points="307.868,342.868 307.868,357.868 417.868,357.868 417.868,342.868" transform="rotate(0 0 0)" fill="green" stroke="black" stroke-width="0.5" />
<polygon points="87.868,357.868 87.868,372.868 197.868,372.868 197.868,357.868" transform="rotate(0 0 0)" fill="green" stroke="black" stroke-width="0.5" />
<polygon points="197.868,357.868 197.868,372.868 307.868,372.868 307.868,357.868" transform="rotate(0 0 0)" fill="green" stroke="black" stroke-width="0.5" />
<polygon points="307.868,357.868 307.868,372.868 417.868,372.868 417.868,357.868" transform="rotate(0 0 0)" fill="green" stroke="black" stroke-width="0.5" />
<polygon points="87.868,372.868 87.868,387.868 197.868,387.868 197.868,372.868" transform="rotate(0 0 0)" fill="green" stroke="black" stroke-width="0.5" />
<polygon points="197.868,372.868 197.868,387.868 307.868,387.868 307.868,372.868" transform="rotate(0 0 0)" fill="green" stroke="black" stroke-width="0.5" />
<polygon points="307.868,372.868 307.868,387.868 417.868,387.868 417.868,372.868" transform="rotate(0 0 0)" fill="green" stroke="black" stroke-width="0.5" />
<polygon points="87.868,387.868 87.868,402.868 197.868,402.868 197.868,387.868" transform="rotate(0 0 0)" fill="green" stroke="black" stroke-width="0.5" />
<polygon points="197.868,387.868 197.868,402.868 307.868,402.868 307.868,387.868" transform="rotate(0 0 0)" fill="green" stroke="black" stroke-width="0.5" />
<polygon points="307.868,387.868 307.868,402.868 417.868,402.868 417.868,387.868" transform="rotate(0 0 0)" fill="green" stroke="black" stroke-width="0.5" />
<polygon points="87.868,402.868 87.868,417.868 197.868,417.868 197.868,402.868" transform="rotate(0 0 0)" fill="green" stroke="black" stroke-width="0.5" />
<polygon points="197.868,402.868 197.868,417.868 307.868,417.868 307.868,402.868" transform="rotate(0 0 0)" fill="green" stroke="black" stroke-width="0.5" />
<polygon points="307.868,402.868 307.868,417.868 417.868,417.868 417.868,402.868" transform="rotate(0 0 0)" fill="green" stroke="black" stroke-width="0.5" />
<polygon points="87.868,417.868 87.868,432.868 197.868,432.868 197.868,417.868" transform="rotate(0 0 0)" fill="green" stroke="black" stroke-width="0.5" />
<polygon points="197.868,417.868 197.868,432.868 307.868,432.868 307.868,417.868" transform="rotate(0 0 0)" fill="green" stroke="black" stroke-width="0.5" />
<polygon points="307.868,417.868 307.868,432.868 417.868,432.868 417.868,417.868" transform="rotate(0 0 0)" fill="green" stroke="black" stroke-width="0.5" />
<polygon points="87.868,432.868 87.868,447.868 197.868,447.868 197.868,432.868" transform="rotate(0 0 0)" fill="green" stroke="black" stroke-width="0.5" />
<polygon points="197.868,432.868 197.868,447.868 307.868,447.868 307.868,432.868" transform="rotate(0 0 0)" fill="green" stroke="black" stroke-width="0.5" />
<polygon points="307.868,432.868 307.868,447.868 417.868,447.868 417.868,432.868" transform="rotate(0 0 0)" fill="green" stroke="black" stroke-width="0.5" />
<polygon points="87.868,447.868 87.868,462.868 197.868,462.868 197.868,447.868" transform="rotate(0 0 0)" fill="green" stroke="black" stroke-width="0.5" />
<polygon points="197.868,447.868 197.868,462.868 307.868,462.868 307.868,447.868" transform="rotate(0 0 0)" fill="green" stroke="black" stroke-width="0.5" />
<polygon points="307.868,447.868 307.868,462.868 417.868,462.868 417.868,447.868" transform="rotate(0 0 0)" fill="green" stroke="black" stroke-width="0.5" />
<polygon points="87.868,462.868 87.868,477.868 197.868,477.868 197.868,462.868" transform="rotate(0 0 0)" fill="green" stroke="black" stroke-width="0.5" />
<polygon points="197.868,462.868 197.868,477.868 307.868,477.868 307.868,462.868" transform="rotate(0 0 0)" fill="green" stroke="black" stroke-width="0.5" />
<polygon points="307.868,462.868 307.868,477.868 417.868,477.868 417.868,462.868" transform="rotate(0 0 0)" fill="green" stroke="black" stroke-width="0.5" />
<polygon points="87.868,477.868 87.868,492.868 197.868,492.868 197.868,477.868" transform="rotate(0 0 0)" fill="green" stroke="black" stroke-width="0.5" />
<polygon points="197.868,477.868 197.868,492.868 307.868,492.868 307.868,477.868" transform="rotate(0 0 0)" fill="green" stroke="black" stroke-width="0.5" />
<polygon points="307.868,477.868 307.868,492.868 417.868,492.868 417.868,477.868" transform="rotate(0 0 0)" fill="green" stroke="black" stroke-width="0.5" />
<polygon points="87.868,492.868 87.868,507.868 197.868,507.868 197.868,492.868" transform="rotate(0 0 0)" fill="green" stroke="black" stroke-width="0.5" />
<polygon points="197.868,492.868 197.868,507.868 307.868,507.868 307.868,492.868" transform="rotate(0 0 0)" fill="green" stroke="black" stroke-width="0.5" />
<polygon points="307.868,492.868 307.868,507.868 417.868,507.868 417.868,492.868" transform="rotate(0 0 0)" fill="green" stroke="black" stroke-width="0.5" />
<polygon points="417.868,87.868 417.868,197.868 432.868,197.868 432.868,87.868" transform="rotate(0 0 0)" fill="green" stroke="black" stroke-width="0.5" />
<polygon points="417.868,197.868 417.868,307.868 432.868,307.868 432.868,197.868" transform="rotate(0 0 0)" fill="green" stroke="black" stroke-width="0.5" />
<polygon points="417.868,307.868 417.868,417.868 432.868,417.868 432.868,307.868" transform="rotate(0 0 0)" fill="green" stroke="black" stroke-width="0.5" />
<polygon points="432.868,87.868 432.868,197.868 447.868,197.868 447.868,87.868" transform="rotate(0 0 0)" fill="green" stroke="black" stroke-width="0.5" />
<polygon points="432.868,197.868 432.868,307.868 447.868,307.868 447.868,197.868" transform="rotate(0 0 0)" fill="green" stroke="black" stroke-width="0.5" />
<polygon points="432.868,307.868 432.868,417.868 447.868,417.868 447.868,307.868" transform="rotate(0 0 0)" fill="green" stroke="black" stroke-width="0.5" />
<polygon points="447.868,87.868 447.868,197.868 462.868,197.868 462.868,87.868" transform="rotate(0 0 0)" fill="green" stroke="black" stroke-width="0.5" />
<polygon points="447.868,197.868 447.868,307.868 462.868,307.868 462.868,197.868" transform="rotate(0 0 0)" fill="green" stroke="black" stroke-width="0.5" />
<polygon points="447.868,307.868 447.868,417.868 462.868,417.868 462.868,307.868" transform="rotate(0 0 0)" fill="green" stroke="black" stroke-width="0.5" />
<polygon points="462.868,87.868 462.868,197.868 477.868,197.868 477.868,87.868" transform="rotate(0 0 0)" fill="green" stroke="black" stroke-width="0.5" />
<polygon points="462.868,197.868 462.868,307.868 477.868,307.868 477.868,197.868" transform="rotate(0 0 0)" fill="green" stroke="black" stroke-width="0.5" />
<polygon points="462.868,307.868 462.868,417.868 477.868,417.868 477.868,307.868" transform="rotate(0 0 0)" fill="green" stroke="black" stroke-width="0.5" />
<polygon points="477.868,87.868 477.868,197.868 492.868,197.868 492.868,87.868" transform="rotate(0 0 0)" fill="green" stroke="black" stroke-width="0.5" />
<polygon points="477.868,197.868 477.868,307.868 492.868,307.868 492.868,197.868" transform="rotate(0 0 0)" fill="green" stroke="black" stroke-width="0.5" />
<polygon points="477.868,307.868 477.868,417.868 492.868,417.868 492.868,307.868" transform="rotate(0 0 0)" fill="green" stroke="black" stroke-width="0.5" />
<polygon points="492.868,87.868 492.868,197.868 507.868,197.868 507.868,87.868" transform="rotate(0 0 0)" fill="green" stroke="black" stroke-width="0.5" />
<polygon points="492.868,197.868 492.868,307.868 507.868,307.868 507.868,197.868" transform="rotate(0 0 0)" fill="green" stroke="black" stroke-width="0.5" />
<polygon points="492.868,307.868 492.868,417.868 507.868,417.868 507.868,307.868" transform="rotate(0 0 0)" fill="green" stroke="black" stroke-width="0.5" />
<polygon points="300,512.132 300,527.132 410,527.132 410,512.132" transform="rotate(0 300 300)" fill="green" stroke="black" stroke-width="0.5" />
<polygon points="190,512.132 190,527.132 300,527.132 300,512.132" transform="rotate(0 300 300)" fill="green" stroke="black" stroke-width="0.5" />
<polygon points="300,527.132 300,542.132 410,542.132 410,527.132" transform="rotate(0 300 300)" fill="green" stroke="black" stroke-width="0.5" />
<polygon points="190,527.132 190,542.132 300,542.132 300,527.132" transform="rotate(0 300 300)" fill="green" stroke="black" stroke-width="0.5" />
<polygon points="300,542.132 300,557.132 410,557.132 410,542.132" transform="rotate(0 300 300)" fill="green" stroke="black" stroke-width="0.5" />
<polygon points="190,542.132 190,557.132 300,557.132 300,542.132" transform="rotate(0 300 300)" fill="green" stroke="black" stroke-width="0.5" />
<polygon points="300,557.132 300,572.132 410,572.132 410,557.132" transform="rotate(0 300 300)" fill="green" stroke="black" stroke-width="0.5" />
<polygon points="190,557.132 190,572.132 300,572.132 300,557.132" transform="rotate(0 300 300)" fill="green" stroke="black" stroke-width="0.5" />
<polygon points="300,512.132 300,527.132 410,527.132 410,512.132" transform="rotate(90 300 300)" fill="green" stroke="black" stroke-width="0.5" />
<polygon points="190,512.132 190,527.132 300,527.132 300,512.132" transform="rotate(90 300 300)" fill="green" stroke="black" stroke-width="0.5" />
<polygon points="300,527.132 300,542.132 410,542.132 410,527.132" transform="rotate(90 300 300)" fill="green" stroke="black" stroke-width="0.5" />
<polygon points="190,527.132 190,542.132 300,542.132 300,527.132" transform="rotate(90 300 300)" fill="green" stroke="black" stroke-width="0.5" />
<polygon points="300,542.132 300,557.132 410,557.132 410,542.132" transform="rotate(90 300 300)" fill="green" stroke="black" stroke-width="0.5" />
<polygon points="190,542.132 190,557.132 300,557.132 300,542.132" transform="rotate(90 300 300)" fill="green" stroke="black" stroke-width="0.5" />
<polygon points="300,557.132 300,572.132 410,572.132 410,557.132" transform="rotate(90 300 300)" fill="green" stroke="black" stroke-width="0.5" />
<polygon points="190,557.132 190,572.132 300,572.132 300,557.132" transform="rotate(90 300 300)" fill="green" stroke="black" stroke-width="0.5" />
<polygon points="300,512.132 300,527.132 410,527.132 410,512.132" transform="rotate(180 300 300)" fill="green" stroke="black" stroke-width="0.5" />
<polygon points="190,512.132 190,527.132 300,527.132 300,512.132" transform="rotate(180 300 300)" fill="green" stroke="black" stroke-width="0.5" />
<polygon points="300,527.132 300,542.132 410,542.132 410,527.132" transform="rotate(180 300 300)" fill="green" stroke="black" stroke-width="0.5" />
<polygon points="190,527.132 190,542.132 300,542.132 300,527.132" transform="rotate(180 300 300)" fill="green" stroke="black" stroke-width="0.5" />
<polygon points="300,542.132 300,557.132 410,557.132 410,542.132" transform="rotate(180 300 300)" fill="green" stroke="black" stroke-width="0.5" />
<polygon points="190,542.132 190,557.132 300,557.132 300,542.132" transform="rotate(180 300 300)" fill="green" stroke="black" stroke-width="0.5" />
<polygon points="300,557.132 300,572.132 410,572.132 410,557.132" transform="rotate(180 300 300)" fill="green" stroke="black" stroke-width="0.5" />
<polygon points="190,557.132 190,572.132 300,572.132 300,557.132" transform="rotate(180 300 300)" fill="green" stroke="black" stroke-width="0.5" />
<polygon points="300,512.132 300,527.132 410,527.132 410,512.132" transform="rotate(270 300 300)" fill="green" stroke="black" stroke-width="0.5" />
<polygon points="190,512.132 190,527.132 300,527.132 300,512.132" transform="rotate(270 300 300)" fill="green" stroke="black" stroke-width="0.5" />
<polygon points="300,527.132 300,542.132 410,542.132 410,527.132" transform="rotate(270 300 300)" fill="green" stroke="black" stroke-width="0.5" />
<polygon points="190,527.132 190,542.132 300,542.132 300,527.132" transform="rotate(270 300 300)" fill="green" stroke="black" stroke-width="0.5" />
<polygon points="300,542.132 300,557.132 410,557.132 410,542.132" transform="rotate(270 300 300)" fill="green" stroke="black" stroke-width="0.5" />
<polygon points="190,542.132 190,557.132 300,557.132 300,542.132" transform="rotate(270 300 300)" fill="green" stroke="black" stroke-width="0.5" />
<polygon points="300,557.132 300,572.132 410,572.132 410,557.132" transform="rotate(270 300 300)" fill="green" stroke="black" stroke-width="0.5" />
<polygon points="190,557.132 190,572.132 300,572.132 300,557.132" transform="rotate(270 300 300)" fill="green" stroke="black" stroke-width="0.5" />
</svg>
