<svg version="1.1" baseProfile="full" xmlns="http://www.w3.org/2000/svg">
<polygon points="260,10 10,443.013 510,443.013" transform="rotate(0 0 0)" fill="dimgrey" stroke="black" stroke-width="0.5" />
<polygon points="310,110 309.901,106.86 309.606,103.733 309.114,100.631 308.429,97.5655 307.553,94.5492 306.489,91.5938 305.241,88.711 303.815,85.9123 302.216,83.2087 300.451,80.6107 298.526,78.1288 296.448,75.7726 294.227,73.5516 291.871,71.4743 289.389,69.5492 286.791,67.7836 284.088,66.1847 281.289,64.7586 278.406,63.5112 275.451,62.4472 272.434,61.5708 269.369,60.8856 266.267,60.3943 263.14,60.0987 260,60 256.86,60.0987 253.733,60.3943 250.631,60.8856 247.566,61.5708 244.549,62.4472 241.594,63.5112 238.711,64.7586 235.912,66.1847 233.209,67.7836 230.611,69.5492 228.129,71.4743 225.773,73.5516 223.552,75.7726 221.474,78.1288 219.549,80.6107 217.784,83.2087 216.185,85.9123 214.759,88.711 213.511,91.5938 212.447,94.5492 211.571,97.5655 210.886,100.631 210.394,103.733 210.099,106.86 210,110 210.099,113.14 210.394,116.267 210.886,119.369 211.571,122.434 212.447,125.451 213.511,128.406 214.759,131.289 216.185,134.088 217.784,136.791 219.549,139.389 221.474,141.871 223.552,144.227 225.773,146.448 228.129,148.526 230.611,150.451 233.209,152.216 235.912,153.815 238.711,155.241 241.594,156.489 244.549,157.553 247.566,158.429 250.631,159.114 253.733,159.606 256.86,159.901 260,160 263.14,159.901 266.267,159.606 269.369,159.114 272.434,158.429 275.451,157.553 278.406,156.489 281.289,155.241 284.088,153.815 286.791,152.216 289.389,150.451 291.871,148.526 294.227,146.448 296.448,144.227 298.526,141.871 300.451,139.389 302.216,136.791 303.815,134.088 305.241,131.289 306.489,128.406 307.553,125.451 308.429,122.434 309.114,119.369 309.606,116.267 309.901,113.14" transform="rotate(0 0 0)" fill="green" stroke="black" stroke-width="0.5" />
<polygon points="260,196.603 259.901,193.463 259.606,190.336 259.114,187.233 258.429,184.168 257.553,181.152 256.489,178.196 255.241,175.314 253.815,172.515 252.216,169.811 250.451,167.213 248.526,164.731 246.448,162.375 244.227,160.154 241.871,158.077 239.389,156.152 236.791,154.386 234.088,152.787 231.289,151.361 228.406,150.114 225.451,149.05 222.434,148.173 219.369,147.488 216.267,146.997 213.14,146.701 210,146.603 206.86,146.701 203.733,146.997 200.631,147.488 197.566,148.173 194.549,149.05 191.594,150.114 188.711,151.361 185.912,152.787 183.209,154.386 180.611,156.152 178.129,158.077 175.773,160.154 173.552,162.375 171.474,164.731 169.549,167.213 167.784,169.811 166.185,172.515 164.759,175.314 163.511,178.196 162.447,181.152 161.571,184.168 160.886,187.233 160.394,190.336 160.099,193.463 160,196.603 160.099,199.742 160.394,202.869 160.886,205.972 161.571,209.037 162.447,212.053 163.511,215.009 164.759,217.892 166.185,220.69 167.784,223.394 169.549,225.992 171.474,228.474 173.552,230.83 175.773,233.051 178.129,235.128 180.611,237.053 183.209,238.819 185.912,240.418 188.711,241.844 191.594,243.091 194.549,244.155 197.566,245.032 200.631,245.717 203.733,246.208 206.86,246.504 210,246.603 213.14,246.504 216.267,246.208 219.369,245.717 222.434,245.032 225.451,244.155 228.406,243.091 231.289,241.844 234.088,240.418 236.791,238.819 239.389,237.053 241.871,235.128 244.227,233.051 246.448,230.83 248.526,228.474 250.451,225.992 252.216,223.394 253.815,220.69 255.241,217.892 256.489,215.009 257.553,212.053 258.429,209.037 259.114,205.972 259.606,202.869 259.901,199.742" transform="rotate(0 0 0)" fill="green" stroke="black" stroke-width="0.5" />
<polygon points="360,196.603 359.901,193.463 359.606,190.336 359.114,187.233 358.429,184.168 357.553,181.152 356.489,178.196 355.241,175.314 353.815,172.515 352.216,169.811 350.451,167.213 348.526,164.731 346.448,162.375 344.227,160.154 341.871,158.077 339.389,156.152 336.791,154.386 334.088,152.787 331.289,151.361 328.406,150.114 325.451,149.05 322.434,148.173 319.369,147.488 316.267,146.997 313.14,146.701 310,146.603 306.86,146.701 303.733,146.997 300.631,147.488 297.566,148.173 294.549,149.05 291.594,150.114 288.711,151.361 285.912,152.787 283.209,154.386 280.611,156.152 278.129,158.077 275.773,160.154 273.552,162.375 271.474,164.731 269.549,167.213 267.784,169.811 266.185,172.515 264.759,175.314 263.511,178.196 262.447,181.152 261.571,184.168 260.886,187.233 260.394,190.336 260.099,193.463 260,196.603 260.099,199.742 260.394,202.869 260.886,205.972 261.571,209.037 262.447,212.053 263.511,215.009 264.759,217.892 266.185,220.69 267.784,223.394 269.549,225.992 271.474,228.474 273.552,230.83 275.773,233.051 278.129,235.128 280.611,237.053 283.209,238.819 285.912,240.418 288.711,241.844 291.594,243.091 294.549,244.155 297.566,245.032 300.631,245.717 303.733,246.208 306.86,246.504 310,246.603 313.14,246.504 316.267,246.208 319.369,245.717 322.434,245.032 325.451,244.155 328.406,243.091 331.289,241.844 334.088,240.418 336.791,238.819 339.389,237.053 341.871,235.128 344.227,233.051 346.448,230.83 348.526,228.474 350.451,225.992 352.216,223.394 353.815,220.69 355.241,217.892 356.489,215.009 357.553,212.053 358.429,209.037 359.114,205.972 359.606,202.869 359.901,199.742" transform="rotate(0 0 0)" fill="green" stroke="black" stroke-width="0.5" />
<polygon points="310,283.205 309.901,280.066 309.606,276.938 309.114,273.836 308.429,270.771 307.553,267.754 306.489,264.799 305.241,261.916 303.815,259.117 302.216,256.414 300.451,253.816 298.526,251.334 296.448,248.978 294.227,246.757 291.871,244.679 289.389,242.754 286.791,240.989 284.088,239.39 281.289,237.964 278.406,236.716 275.451,235.652 272.434,234.776 269.369,234.091 266.267,233.599 263.14,233.304 260,233.205 256.86,233.304 253.733,233.599 250.631,234.091 247.566,234.776 244.549,235.652 241.594,236.716 238.711,237.964 235.912,239.39 233.209,240.989 230.611,242.754 228.129,244.679 225.773,246.757 223.552,248.978 221.474,251.334 219.549,253.816 217.784,256.414 216.185,259.117 214.759,261.916 213.511,264.799 212.447,267.754 211.571,270.771 210.886,273.836 210.394,276.938 210.099,280.066 210,283.205 210.099,286.345 210.394,289.472 210.886,292.574 211.571,295.64 212.447,298.656 213.511,301.611 214.759,304.494 216.185,307.293 217.784,309.996 219.549,312.594 221.474,315.076 223.552,317.432 225.773,319.654 228.129,321.731 230.611,323.656 233.209,325.421 235.912,327.02 238.711,328.446 241.594,329.694 244.549,330.758 247.566,331.634 250.631,332.319 253.733,332.811 256.86,333.106 260,333.205 263.14,333.106 266.267,332.811 269.369,332.319 272.434,331.634 275.451,330.758 278.406,329.694 281.289,328.446 284.088,327.02 286.791,325.421 289.389,323.656 291.871,321.731 294.227,319.654 296.448,317.432 298.526,315.076 300.451,312.594 302.216,309.996 303.815,307.293 305.241,304.494 306.489,301.611 307.553,298.656 308.429,295.64 309.114,292.574 309.606,289.472 309.901,286.345" transform="rotate(0 0 0)" fill="green" stroke="black" stroke-width="0.5" />
<polygon points="210,283.205 209.901,280.066 209.606,276.938 209.114,273.836 208.429,270.771 207.553,267.754 206.489,264.799 205.241,261.916 203.815,259.117 202.216,256.414 200.451,253.816 198.526,251.334 196.448,248.978 194.227,246.757 191.871,244.679 189.389,242.754 186.791,240.989 184.088,239.39 181.289,237.964 178.406,236.716 175.451,235.652 172.434,234.776 169.369,234.091 166.267,233.599 163.14,233.304 160,233.205 156.86,233.304 153.733,233.599 150.631,234.091 147.566,234.776 144.549,235.652 141.594,236.716 138.711,237.964 135.912,239.39 133.209,240.989 130.611,242.754 128.129,244.679 125.773,246.757 123.552,248.978 121.474,251.334 119.549,253.816 117.784,256.414 116.185,259.117 114.759,261.916 113.511,264.799 112.447,267.754 111.571,270.771 110.886,273.836 110.394,276.938 110.099,280.066 110,283.205 110.099,286.345 110.394,289.472 110.886,292.574 111.571,295.64 112.447,298.656 113.511,301.611 114.759,304.494 116.185,307.293 117.784,309.996 119.549,312.594 121.474,315.076 123.552,317.432 125.773,319.654 128.129,321.731 130.611,323.656 133.209,325.421 135.912,327.02 138.711,328.446 141.594,329.694 144.549,330.758 147.566,331.634 150.631,332.319 153.733,332.811 156.86,333.106 160,333.205 163.14,333.106 166.267,332.811 169.369,332.319 172.434,331.634 175.451,330.758 178.406,329.694 181.289,328.446 184.088,327.02 186.791,325.421 189.389,323.656 191.871,321.731 194.227,319.654 196.448,317.432 198.526,315.076 200.451,312.594 202.216,309.996 203.815,307.293 205.241,304.494 206.489,301.611 207.553,298.656 208.429,295.64 209.114,292.574 209.606,289.472 209.901,286.345" transform="rotate(0 0 0)" fill="green" stroke="black" stroke-width="0.5" />
<polygon points="410,283.205 409.901,280.066 409.606,276.938 409.114,273.836 408.429,270.771 407.553,267.754 406.489,264.799 405.241,261.916 403.815,259.117 402.216,256.414 400.451,253.816 398.526,251.334 396.448,248.978 394.227,246.757 391.871,244.679 389.389,242.754 386.791,240.989 384.088,239.39 381.289,237.964 378.406,236.716 375.451,235.652 372.434,234.776 369.369,234.091 366.267,233.599 363.14,233.304 360,233.205 356.86,233.304 353.733,233.599 350.631,234.091 347.566,234.776 344.549,235.652 341.594,236.716 338.711,237.964 335.912,239.39 333.209,240.989 330.611,242.754 328.129,244.679 325.773,246.757 323.552,248.978 321.474,251.334 319.549,253.816 317.784,256.414 316.185,259.117 314.759,261.916 313.511,264.799 312.447,267.754 311.571,270.771 310.886,273.836 310.394,276.938 310.099,280.066 310,283.205 310.099,286.345 310.394,289.472 310.886,292.574 311.571,295.64 312.447,298.656 313.511,301.611 314.759,304.494 316.185,307.293 317.784,309.996 319.549,312.594 321.474,315.076 323.552,317.432 325.773,319.654 328.129,321.731 330.611,323.656 333.209,325.421 335.912,327.02 338.711,328.446 341.594,329.694 344.549,330.758 347.566,331.634 350.631,332.319 353.733,332.811 356.86,333.106 360,333.205 363.14,333.106 366.267,332.811 369.369,332.319 372.434,331.634 375.451,330.758 378.406,329.694 381.289,328.446 384.088,327.02 386.791,325.421 389.389,323.656 391.871,321.731 394.227,319.654 396.448,317.432 398.526,315.076 400.451,312.594 402.216,309.996 403.815,307.293 405.241,304.494 406.489,301.611 407.553,298.656 408.429,295.64 409.114,292.574 409.606,289.472 409.901,286.345" transform="rotate(0 0 0)" fill="green" stroke="black" stroke-width="0.5" />
<polygon points="260,369.808 259.901,366.668 259.606,363.541 259.114,360.439 258.429,357.373 257.553,354.357 256.489,351.401 255.241,348.519 253.815,345.72 252.216,343.016 250.451,340.418 248.526,337.936 246.448,335.58 244.227,333.359 241.871,331.282 239.389,329.357 236.791,327.591 234.088,325.992 231.289,324.566 228.406,323.319 225.451,322.255 222.434,321.378 219.369,320.693 216.267,320.202 213.14,319.906 210,319.808 206.86,319.906 203.733,320.202 200.631,320.693 197.566,321.378 194.549,322.255 191.594,323.319 188.711,324.566 185.912,325.992 183.209,327.591 180.611,329.357 178.129,331.282 175.773,333.359 173.552,335.58 171.474,337.936 169.549,340.418 167.784,343.016 166.185,345.72 164.759,348.519 163.511,351.401 162.447,354.357 161.571,357.373 160.886,360.439 160.394,363.541 160.099,366.668 160,369.808 160.099,372.947 160.394,376.074 160.886,379.177 161.571,382.242 162.447,385.258 163.511,388.214 164.759,391.097 166.185,393.895 167.784,396.599 169.549,399.197 171.474,401.679 173.552,404.035 175.773,406.256 178.129,408.333 180.611,410.258 183.209,412.024 185.912,413.623 188.711,415.049 191.594,416.296 194.549,417.36 197.566,418.237 200.631,418.922 203.733,419.413 206.86,419.709 210,419.808 213.14,419.709 216.267,419.413 219.369,418.922 222.434,418.237 225.451,417.36 228.406,416.296 231.289,415.049 234.088,413.623 236.791,412.024 239.389,410.258 241.871,408.333 244.227,406.256 246.448,404.035 248.526,401.679 250.451,399.197 252.216,396.599 253.815,393.895 255.241,391.097 256.489,388.214 257.553,385.258 258.429,382.242 259.114,379.177 259.606,376.074 259.901,372.947" transform="rotate(0 0 0)" fill="green" stroke="black" stroke-width="0.5" />
<polygon points="360,369.808 359.901,366.668 359.606,363.541 359.114,360.439 358.429,357.373 357.553,354.357 356.489,351.401 355.241,348.519 353.815,345.72 352.216,343.016 350.451,340.418 348.526,337.936 346.448,335.58 344.227,333.359 341.871,331.282 339.389,329.357 336.791,327.591 334.088,325.992 331.289,324.566 328.406,323.319 325.451,322.255 322.434,321.378 319.369,320.693 316.267,320.202 313.14,319.906 310,319.808 306.86,319.906 303.733,320.202 300.631,320.693 297.566,321.378 294.549,322.255 291.594,323.319 288.711,324.566 285.912,325.992 283.209,327.591 280.611,329.357 278.129,331.282 275.773,333.359 273.552,335.58 271.474,337.936 269.549,340.418 267.784,343.016 266.185,345.72 264.759,348.519 263.511,351.401 262.447,354.357 261.571,357.373 260.886,360.439 260.394,363.541 260.099,366.668 260,369.808 260.099,372.947 260.394,376.074 260.886,379.177 261.571,382.242 262.447,385.258 263.511,388.214 264.759,391.097 266.185,393.895 267.784,396.599 269.549,399.197 271.474,401.679 273.552,404.035 275.773,406.256 278.129,408.333 280.611,410.258 283.209,412.024 285.912,413.623 288.711,415.049 291.594,416.296 294.549,417.36 297.566,418.237 300.631,418.922 303.733,419.413 306.86,419.709 310,419.808 313.14,419.709 316.267,419.413 319.369,418.922 322.434,418.237 325.451,417.36 328.406,416.296 331.289,415.049 334.088,413.623 336.791,412.024 339.389,410.258 341.871,408.333 344.227,406.256 346.448,404.035 348.526,401.679 350.451,399.197 352.216,396.599 353.815,393.895 355.241,391.097 356.489,388.214 357.553,385.258 358.429,382.242 359.114,379.177 359.606,376.074 359.901,372.947" transform="rotate(0 0 0)" fill="green" stroke="black" stroke-width="0.5" />
<polygon points="160,369.808 159.901,366.668 159.606,363.541 159.114,360.439 158.429,357.373 157.553,354.357 156.489,351.401 155.241,348.519 153.815,345.72 152.216,343.016 150.451,340.418 148.526,337.936 146.448,335.58 144.227,333.359 141.871,331.282 139.389,329.357 136.791,327.591 134.088,325.992 131.289,324.566 128.406,323.319 125.451,322.255 122.434,321.378 119.369,320.693 116.267,320.202 113.14,319.906 110,319.808 106.86,319.906 103.733,320.202 100.631,320.693 97.5655,321.378 94.5492,322.255 91.5938,323.319 88.711,324.566 85.9123,325.992 83.2087,327.591 80.6107,329.357 78.1288,331.282 75.7726,333.359 73.5516,335.58 71.4743,337.936 69.5492,340.418 67.7836,343.016 66.1847,345.72 64.7586,348.519 63.5112,351.401 62.4472,354.357 61.5708,357.373 60.8856,360.439 60.3943,363.541 60.0987,366.668 60,369.808 60.0987,372.947 60.3943,376.074 60.8856,379.177 61.5708,382.242 62.4472,385.258 63.5112,388.214 64.7586,391.097 66.1847,393.895 67.7836,396.599 69.5492,399.197 71.4743,401.679 73.5516,404.035 75.7726,406.256 78.1288,408.333 80.6107,410.258 83.2087,412.024 85.9123,413.623 88.711,415.049 91.5938,416.296 94.5492,417.36 97.5655,418.237 100.631,418.922 103.733,419.413 106.86,419.709 110,419.808 113.14,419.709 116.267,419.413 119.369,418.922 122.434,418.237 125.451,417.36 128.406,416.296 131.289,415.049 134.088,413.623 136.791,412.024 139.389,410.258 141.871,408.333 144.227,406.256 146.448,404.035 148.526,401.679 150.451,399.197 152.216,396.599 153.815,393.895 155.241,391.097 156.489,388.214 157.553,385.258 158.429,382.242 159.114,379.177 159.606,376.074 159.901,372.947" transform="rotate(0 0 0)" fill="green" stroke="black" stroke-width="0.5" />
<polygon points="460,369.808 459.901,366.668 459.606,363.541 459.114,360.439 458.429,357.373 457.553,354.357 456.489,351.401 455.241,348.519 453.815,345.72 452.216,343.016 450.451,340.418 448.526,337.936 446.448,335.58 444.227,333.359 441.871,331.282 439.389,329.357 436.791,327.591 434.088,325.992 431.289,324.566 428.406,323.319 425.451,322.255 422.434,321.378 419.369,320.693 416.267,320.202 413.14,319.906 410,319.808 406.86,319.906 403.733,320.202 400.631,320.693 397.566,321.378 394.549,322.255 391.594,323.319 388.711,324.566 385.912,325.992 383.209,327.591 380.611,329.357 378.129,331.282 375.773,333.359 373.552,335.58 371.474,337.936 369.549,340.418 367.784,343.016 366.185,345.72 364.759,348.519 363.511,351.401 362.447,354.357 361.571,357.373 360.886,360.439 360.394,363.541 360.099,366.668 360,369.808 360.099,372.947 360.394,376.074 360.886,379.177 361.571,382.242 362.447,385.258 363.511,388.214 364.759,391.097 366.185,393.895 367.784,396.599 369.549,399.197 371.474,401.679 373.552,404.035 375.773,406.256 378.129,408.333 380.611,410.258 383.209,412.024 385.912,413.623 388.711,415.049 391.594,416.296 394.549,417.36 397.566,418.237 400.631,418.922 403.733,419.413 406.86,419.709 410,419.808 413.14,419.709 416.267,419.413 419.369,418.922 422.434,418.237 425.451,417.36 428.406,416.296 431.289,415.049 434.088,413.623 436.791,412.024 439.389,410.258 441.871,408.333 444.227,406.256 446.448,404.035 448.526,401.679 450.451,399.197 452.216,396.599 453.815,393.895 455.241,391.097 456.489,388.214 457.553,385.258 458.429,382.242 459.114,379.177 459.606,376.074 459.901,372.947" transform="rotate(0 0 0)" fill="green" stroke="black" stroke-width="0.5" />
</svg>
