<svg version="1.1" baseProfile="full" xmlns="http://www.w3.org/2000/svg">
<polygon points="250,0 0,433.013 500,433.013" transform="rotate(0 0 0)" fill="pink" stroke="black" stroke-width="0.5" />
<polygon points="30,418.013 30,433.013 140,433.013 140,418.013" transform="rotate(0 0 0)" fill="green" stroke="black" stroke-width="0.5" />
<polygon points="140,418.013 140,433.013 250,433.013 250,418.013" transform="rotate(0 0 0)" fill="green" stroke="black" stroke-width="0.5" />
<polygon points="250,418.013 250,433.013 360,433.013 360,418.013" transform="rotate(0 0 0)" fill="green" stroke="black" stroke-width="0.5" />
<polygon points="360,418.013 360,433.013 470,433.013 470,418.013" transform="rotate(0 0 0)" fill="green" stroke="black" stroke-width="0.5" />
<polygon points="30,403.013 30,418.013 140,418.013 140,403.013" transform="rotate(0 0 0)" fill="green" stroke="black" stroke-width="0.5" />
<polygon points="140,403.013 140,418.013 250,418.013 250,403.013" transform="rotate(0 0 0)" fill="green" stroke="black" stroke-width="0.5" />
<polygon points="250,403.013 250,418.013 360,418.013 360,403.013" transform="rotate(0 0 0)" fill="green" stroke="black" stroke-width="0.5" />
<polygon points="360,403.013 360,418.013 470,418.013 470,403.013" transform="rotate(0 0 0)" fill="green" stroke="black" stroke-width="0.5" />
<polygon points="30,388.013 30,403.013 140,403.013 140,388.013" transform="rotate(0 0 0)" fill="green" stroke="black" stroke-width="0.5" />
<polygon points="140,388.013 140,403.013 250,403.013 250,388.013" transform="rotate(0 0 0)" fill="green" stroke="black" stroke-width="0.5" />
<polygon points="250,388.013 250,403.013 360,403.013 360,388.013" transform="rotate(0 0 0)" fill="green" stroke="black" stroke-width="0.5" />
<polygon points="360,388.013 360,403.013 470,403.013 470,388.013" transform="rotate(0 0 0)" fill="green" stroke="black" stroke-width="0.5" />
<polygon points="85,373.013 85,388.013 195,388.013 195,373.013" transform="rotate(0 0 0)" fill="green" stroke="black" stroke-width="0.5" />
<polygon points="195,373.013 195,388.013 305,388.013 305,373.013" transform="rotate(0 0 0)" fill="green" stroke="black" stroke-width="0.5" />
<polygon points="305,373.013 305,388.013 415,388.013 415,373.013" transform="rotate(0 0 0)" fill="green" stroke="black" stroke-width="0.5" />
<polygon points="85,358.013 85,373.013 195,373.013 195,358.013" transform="rotate(0 0 0)" fill="green" stroke="black" stroke-width="0.5" />
<polygon points="195,358.013 195,373.013 305,373.013 305,358.013" transform="rotate(0 0 0)" fill="green" stroke="black" stroke-width="0.5" />
<polygon points="305,358.013 305,373.013 415,373.013 415,358.013" transform="rotate(0 0 0)" fill="green" stroke="black" stroke-width="0.5" />
<polygon points="85,343.013 85,358.013 195,358.013 195,343.013" transform="rotate(0 0 0)" fill="green" stroke="black" stroke-width="0.5" />
<polygon points="195,343.013 195,358.013 305,358.013 305,343.013" transform="rotate(0 0 0)" fill="green" stroke="black" stroke-width="0.5" />
<polygon points="305,343.013 305,358.013 415,358.013 415,343.013" transform="rotate(0 0 0)" fill="green" stroke="black" stroke-width="0.5" />
<polygon points="85,328.013 85,343.013 195,343.013 195,328.013" transform="rotate(0 0 0)" fill="green" stroke="black" stroke-width="0.5" />
<polygon points="195,328.013 195,343.013 305,343.013 305,328.013" transform="rotate(0 0 0)" fill="green" stroke="black" stroke-width="0.5" />
<polygon points="305,328.013 305,343.013 415,343.013 415,328.013" transform="rotate(0 0 0)" fill="green" stroke="black" stroke-width="0.5" />
<polygon points="85,313.013 85,328.013 195,328.013 195,313.013" transform="rotate(0 0 0)" fill="green" stroke="black" stroke-width="0.5" />
<polygon points="195,313.013 195,328.013 305,328.013 305,313.013" transform="rotate(0 0 0)" fill="green" stroke="black" stroke-width="0.5" />
<polygon points="305,313.013 305,328.013 415,328.013 415,313.013" transform="rotate(0 0 0)" fill="green" stroke="black" stroke-width="0.5" />
<polygon points="85,298.013 85,313.013 195,313.013 195,298.013" transform="rotate(0 0 0)" fill="green" stroke="black" stroke-width="0.5" />
<polygon points="195,298.013 195,313.013 305,313.013 305,298.013" transform="rotate(0 0 0)" fill="green" stroke="black" stroke-width="0.5" />
<polygon points="305,298.013 305,313.013 415,313.013 415,298.013" transform="rotate(0 0 0)" fill="green" stroke="black" stroke-width="0.5" />
<polygon points="140,283.013 140,298.013 250,298.013 250,283.013" transform="rotate(0 0 0)" fill="green" stroke="black" stroke-width="0.5" />
<polygon points="250,283.013 250,298.013 360,298.013 360,283.013" transform="rotate(0 0 0)" fill="green" stroke="black" stroke-width="0.5" />
<polygon points="140,268.013 140,283.013 250,283.013 250,268.013" transform="rotate(0 0 0)" fill="green" stroke="black" stroke-width="0.5" />
<polygon points="250,268.013 250,283.013 360,283.013 360,268.013" transform="rotate(0 0 0)" fill="green" stroke="black" stroke-width="0.5" />
<polygon points="140,253.013 140,268.013 250,268.013 250,253.013" transform="rotate(0 0 0)" fill="green" stroke="black" stroke-width="0.5" />
<polygon points="250,253.013 250,268.013 360,268.013 360,253.013" transform="rotate(0 0 0)" fill="green" stroke="black" stroke-width="0.5" />
<polygon points="140,238.013 140,253.013 250,253.013 250,238.013" transform="rotate(0 0 0)" fill="green" stroke="black" stroke-width="0.5" />
<polygon points="250,238.013 250,253.013 360,253.013 360,238.013" transform="rotate(0 0 0)" fill="green" stroke="black" stroke-width="0.5" />
<polygon points="140,223.013 140,238.013 250,238.013 250,223.013" transform="rotate(0 0 0)" fill="green" stroke="black" stroke-width="0.5" />
<polygon points="250,223.013 250,238.013 360,238.013 360,223.013" transform="rotate(0 0 0)" fill="green" stroke="black" stroke-width="0.5" />
<polygon points="140,208.013 140,223.013 250,223.013 250,208.013" transform="rotate(0 0 0)" fill="green" stroke="black" stroke-width="0.5" />
<polygon points="250,208.013 250,223.013 360,223.013 360,208.013" transform="rotate(0 0 0)" fill="green" stroke="black" stroke-width="0.5" />
<polygon points="140,193.013 140,208.013 250,208.013 250,193.013" transform="rotate(0 0 0)" fill="green" stroke="black" stroke-width="0.5" />
<polygon points="250,193.013 250,208.013 360,208.013 360,193.013" transform="rotate(0 0 0)" fill="green" stroke="black" stroke-width="0.5" />
<polygon points="195,178.013 195,193.013 305,193.013 305,178.013" transform="rotate(0 0 0)" fill="green" stroke="black" stroke-width="0.5" />
<polygon points="195,163.013 195,178.013 305,178.013 305,163.013" transform="rotate(0 0 0)" fill="green" stroke="black" stroke-width="0.5" />
<polygon points="195,148.013 195,163.013 305,163.013 305,148.013" transform="rotate(0 0 0)" fill="green" stroke="black" stroke-width="0.5" />
<polygon points="195,133.013 195,148.013 305,148.013 305,133.013" transform="rotate(0 0 0)" fill="green" stroke="black" stroke-width="0.5" />
<polygon points="195,118.013 195,133.013 305,133.013 305,118.013" transform="rotate(0 0 0)" fill="green" stroke="black" stroke-width="0.5" />
<polygon points="195,103.013 195,118.013 305,118.013 305,103.013" transform="rotate(0 0 0)" fill="green" stroke="black" stroke-width="0.5" />
</svg>
