<svg version="1.1" baseProfile="full" xmlns="http://www.w3.org/2000/svg">
<circle cx="533" cy="533" r="500" transform="rotate(0 33 33)" fill="purple" stroke="black" stroke-width="0.5" />
<circle cx="533" cy="83" r="50" transform="rotate(0 533 533)" fill="green" stroke="black" stroke-width="0.5" />
<circle cx="533" cy="83" r="50" transform="rotate(12.8571 533 533)" fill="green" stroke="black" stroke-width="0.5" />
<circle cx="533" cy="83" r="50" transform="rotate(25.7143 533 533)" fill="green" stroke="black" stroke-width="0.5" />
<circle cx="533" cy="83" r="50" transform="rotate(38.5714 533 533)" fill="green" stroke="black" stroke-width="0.5" />
<circle cx="533" cy="83" r="50" transform="rotate(51.4286 533 533)" fill="green" stroke="black" stroke-width="0.5" />
<circle cx="533" cy="83" r="50" transform="rotate(64.2857 533 533)" fill="green" stroke="black" stroke-width="0.5" />
<circle cx="533" cy="83" r="50" transform="rotate(77.1429 533 533)" fill="green" stroke="black" stroke-width="0.5" />
<circle cx="533" cy="83" r="50" transform="rotate(90 533 533)" fill="green" stroke="black" stroke-width="0.5" />
<circle cx="533" cy="83" r="50" transform="rotate(102.857 533 533)" fill="green" stroke="black" stroke-width="0.5" />
<circle cx="533" cy="83" r="50" transform="rotate(115.714 533 533)" fill="green" stroke="black" stroke-width="0.5" />
<circle cx="533" cy="83" r="50" transform="rotate(128.571 533 533)" fill="green" stroke="black" stroke-width="0.5" />
<circle cx="533" cy="83" r="50" transform="rotate(141.429 533 533)" fill="green" stroke="black" stroke-width="0.5" />
<circle cx="533" cy="83" r="50" transform="rotate(154.286 533 533)" fill="green" stroke="black" stroke-width="0.5" />
<circle cx="533" cy="83" r="50" transform="rotate(167.143 533 533)" fill="green" stroke="black" stroke-width="0.5" />
<circle cx="533" cy="83" r="50" transform="rotate(180 533 533)" fill="green" stroke="black" stroke-width="0.5" />
<circle cx="533" cy="83" r="50" transform="rotate(192.857 533 533)" fill="green" stroke="black" stroke-width="0.5" />
<circle cx="533" cy="83" r="50" transform="rotate(205.714 533 533)" fill="green" stroke="black" stroke-width="0.5" />
<circle cx="533" cy="83" r="50" transform="rotate(218.571 533 533)" fill="green" stroke="black" stroke-width="0.5" />
<circle cx="533" cy="83" r="50" transform="rotate(231.429 533 533)" fill="green" stroke="black" stroke-width="0.5" />
<circle cx="533" cy="83" r="50" transform="rotate(244.286 533 533)" fill="green" stroke="black" stroke-width="0.5" />
<circle cx="533" cy="83" r="50" transform="rotate(257.143 533 533)" fill="green" stroke="black" stroke-width="0.5" />
<circle cx="533" cy="83" r="50" transform="rotate(270 533 533)" fill="green" stroke="black" stroke-width="0.5" />
<circle cx="533" cy="83" r="50" transform="rotate(282.857 533 533)" fill="green" stroke="black" stroke-width="0.5" />
<circle cx="533" cy="83" r="50" transform="rotate(295.714 533 533)" fill="green" stroke="black" stroke-width="0.5" />
<circle cx="533" cy="83" r="50" transform="rotate(308.571 533 533)" fill="green" stroke="black" stroke-width="0.5" />
<circle cx="533" cy="83" r="50" transform="rotate(321.429 533 533)" fill="green" stroke="black" stroke-width="0.5" />
<circle cx="533" cy="83" r="50" transform="rotate(334.286 533 533)" fill="green" stroke="black" stroke-width="0.5" />
<circle cx="533" cy="83" r="50" transform="rotate(347.143 533 533)" fill="green" stroke="black" stroke-width="0.5" />
<circle cx="533" cy="183" r="50" transform="rotate(0 533 533)" fill="green" stroke="black" stroke-width="0.5" />
<circle cx="533" cy="183" r="50" transform="rotate(17.1429 533 533)" fill="green" stroke="black" stroke-width="0.5" />
<circle cx="533" cy="183" r="50" transform="rotate(34.2857 533 533)" fill="green" stroke="black" stroke-width="0.5" />
<circle cx="533" cy="183" r="50" transform="rotate(51.4286 533 533)" fill="green" stroke="black" stroke-width="0.5" />
<circle cx="533" cy="183" r="50" transform="rotate(68.5714 533 533)" fill="green" stroke="black" stroke-width="0.5" />
<circle cx="533" cy="183" r="50" transform="rotate(85.7143 533 533)" fill="green" stroke="black" stroke-width="0.5" />
<circle cx="533" cy="183" r="50" transform="rotate(102.857 533 533)" fill="green" stroke="black" stroke-width="0.5" />
<circle cx="533" cy="183" r="50" transform="rotate(120 533 533)" fill="green" stroke="black" stroke-width="0.5" />
<circle cx="533" cy="183" r="50" transform="rotate(137.143 533 533)" fill="green" stroke="black" stroke-width="0.5" />
<circle cx="533" cy="183" r="50" transform="rotate(154.286 533 533)" fill="green" stroke="black" stroke-width="0.5" />
<circle cx="533" cy="183" r="50" transform="rotate(171.429 533 533)" fill="green" stroke="black" stroke-width="0.5" />
<circle cx="533" cy="183" r="50" transform="rotate(188.571 533 533)" fill="green" stroke="black" stroke-width="0.5" />
<circle cx="533" cy="183" r="50" transform="rotate(205.714 533 533)" fill="green" stroke="black" stroke-width="0.5" />
<circle cx="533" cy="183" r="50" transform="rotate(222.857 533 533)" fill="green" stroke="black" stroke-width="0.5" />
<circle cx="533" cy="183" r="50" transform="rotate(240 533 533)" fill="green" stroke="black" stroke-width="0.5" />
<circle cx="533" cy="183" r="50" transform="rotate(257.143 533 533)" fill="green" stroke="black" stroke-width="0.5" />
<circle cx="533" cy="183" r="50" transform="rotate(274.286 533 533)" fill="green" stroke="black" stroke-width="0.5" />
<circle cx="533" cy="183" r="50" transform="rotate(291.429 533 533)" fill="green" stroke="black" stroke-width="0.5" />
<circle cx="533" cy="183" r="50" transform="rotate(308.571 533 533)" fill="green" stroke="black" stroke-width="0.5" />
<circle cx="533" cy="183" r="50" transform="rotate(325.714 533 533)" fill="green" stroke="black" stroke-width="0.5" />
<circle cx="533" cy="183" r="50" transform="rotate(342.857 533 533)" fill="green" stroke="black" stroke-width="0.5" />
<circle cx="533" cy="283" r="50" transform="rotate(0 533 533)" fill="green" stroke="black" stroke-width="0.5" />
<circle cx="533" cy="283" r="50" transform="rotate(24 533 533)" fill="green" stroke="black" stroke-width="0.5" />
<circle cx="533" cy="283" r="50" transform="rotate(48 533 533)" fill="green" stroke="black" stroke-width="0.5" />
<circle cx="533" cy="283" r="50" transform="rotate(72 533 533)" fill="green" stroke="black" stroke-width="0.5" />
<circle cx="533" cy="283" r="50" transform="rotate(96 533 533)" fill="green" stroke="black" stroke-width="0.5" />
<circle cx="533" cy="283" r="50" transform="rotate(120 533 533)" fill="green" stroke="black" stroke-width="0.5" />
<circle cx="533" cy="283" r="50" transform="rotate(144 533 533)" fill="green" stroke="black" stroke-width="0.5" />
<circle cx="533" cy="283" r="50" transform="rotate(168 533 533)" fill="green" stroke="black" stroke-width="0.5" />
<circle cx="533" cy="283" r="50" transform="rotate(192 533 533)" fill="green" stroke="black" stroke-width="0.5" />
<circle cx="533" cy="283" r="50" transform="rotate(216 533 533)" fill="green" stroke="black" stroke-width="0.5" />
<circle cx="533" cy="283" r="50" transform="rotate(240 533 533)" fill="green" stroke="black" stroke-width="0.5" />
<circle cx="533" cy="283" r="50" transform="rotate(264 533 533)" fill="green" stroke="black" stroke-width="0.5" />
<circle cx="533" cy="283" r="50" transform="rotate(288 533 533)" fill="green" stroke="black" stroke-width="0.5" />
<circle cx="533" cy="283" r="50" transform="rotate(312 533 533)" fill="green" stroke="black" stroke-width="0.5" />
<circle cx="533" cy="283" r="50" transform="rotate(336 533 533)" fill="green" stroke="black" stroke-width="0.5" />
<circle cx="533" cy="383" r="50" transform="rotate(0 533 533)" fill="green" stroke="black" stroke-width="0.5" />
<circle cx="533" cy="383" r="50" transform="rotate(40 533 533)" fill="green" stroke="black" stroke-width="0.5" />
<circle cx="533" cy="383" r="50" transform="rotate(80 533 533)" fill="green" stroke="black" stroke-width="0.5" />
<circle cx="533" cy="383" r="50" transform="rotate(120 533 533)" fill="green" stroke="black" stroke-width="0.5" />
<circle cx="533" cy="383" r="50" transform="rotate(160 533 533)" fill="green" stroke="black" stroke-width="0.5" />
<circle cx="533" cy="383" r="50" transform="rotate(200 533 533)" fill="green" stroke="black" stroke-width="0.5" />
<circle cx="533" cy="383" r="50" transform="rotate(240 533 533)" fill="green" stroke="black" stroke-width="0.5" />
<circle cx="533" cy="383" r="50" transform="rotate(280 533 533)" fill="green" stroke="black" stroke-width="0.5" />
<circle cx="533" cy="383" r="50" transform="rotate(320 533 533)" fill="green" stroke="black" stroke-width="0.5" />
<circle cx="533" cy="483" r="50" transform="rotate(0 533 533)" fill="green" stroke="black" stroke-width="0.5" />
<circle cx="533" cy="483" r="50" transform="rotate(180 533 533)" fill="green" stroke="black" stroke-width="0.5" />
</svg>
