<svg version="1.1" baseProfile="full" xmlns="http://www.w3.org/2000/svg">
<polygon points="307,7 7,526.615 607,526.615" transform="rotate(0 7 7)" fill="blue" stroke="black" stroke-width="0.5" />
<rect x="32"  y="511.615" width="110" height="15" transform="rotate(0 7 7)" fill="green" stroke="black" stroke-width="0.5" />
<rect x="142"  y="511.615" width="110" height="15" transform="rotate(0 7 7)" fill="green" stroke="black" stroke-width="0.5" />
<rect x="252"  y="511.615" width="110" height="15" transform="rotate(0 7 7)" fill="green" stroke="black" stroke-width="0.5" />
<rect x="362"  y="511.615" width="110" height="15" transform="rotate(0 7 7)" fill="green" stroke="black" stroke-width="0.5" />
<rect x="472"  y="511.615" width="110" height="15" transform="rotate(0 7 7)" fill="green" stroke="black" stroke-width="0.5" />
<rect x="32"  y="496.615" width="110" height="15" transform="rotate(0 7 7)" fill="green" stroke="black" stroke-width="0.5" />
<rect x="142"  y="496.615" width="110" height="15" transform="rotate(0 7 7)" fill="green" stroke="black" stroke-width="0.5" />
<rect x="252"  y="496.615" width="110" height="15" transform="rotate(0 7 7)" fill="green" stroke="black" stroke-width="0.5" />
<rect x="362"  y="496.615" width="110" height="15" transform="rotate(0 7 7)" fill="green" stroke="black" stroke-width="0.5" />
<rect x="472"  y="496.615" width="110" height="15" transform="rotate(0 7 7)" fill="green" stroke="black" stroke-width="0.5" />
<rect x="87"  y="481.615" width="110" height="15" transform="rotate(0 7 7)" fill="green" stroke="black" stroke-width="0.5" />
<rect x="197"  y="481.615" width="110" height="15" transform="rotate(0 7 7)" fill="green" stroke="black" stroke-width="0.5" />
<rect x="307"  y="481.615" width="110" height="15" transform="rotate(0 7 7)" fill="green" stroke="black" stroke-width="0.5" />
<rect x="417"  y="481.615" width="110" height="15" transform="rotate(0 7 7)" fill="green" stroke="black" stroke-width="0.5" />
<rect x="87"  y="466.615" width="110" height="15" transform="rotate(0 7 7)" fill="green" stroke="black" stroke-width="0.5" />
<rect x="197"  y="466.615" width="110" height="15" transform="rotate(0 7 7)" fill="green" stroke="black" stroke-width="0.5" />
<rect x="307"  y="466.615" width="110" height="15" transform="rotate(0 7 7)" fill="green" stroke="black" stroke-width="0.5" />
<rect x="417"  y="466.615" width="110" height="15" transform="rotate(0 7 7)" fill="green" stroke="black" stroke-width="0.5" />
<rect x="87"  y="451.615" width="110" height="15" transform="rotate(0 7 7)" fill="green" stroke="black" stroke-width="0.5" />
<rect x="197"  y="451.615" width="110" height="15" transform="rotate(0 7 7)" fill="green" stroke="black" stroke-width="0.5" />
<rect x="307"  y="451.615" width="110" height="15" transform="rotate(0 7 7)" fill="green" stroke="black" stroke-width="0.5" />
<rect x="417"  y="451.615" width="110" height="15" transform="rotate(0 7 7)" fill="green" stroke="black" stroke-width="0.5" />
<rect x="87"  y="436.615" width="110" height="15" transform="rotate(0 7 7)" fill="green" stroke="black" stroke-width="0.5" />
<rect x="197"  y="436.615" width="110" height="15" transform="rotate(0 7 7)" fill="green" stroke="black" stroke-width="0.5" />
<rect x="307"  y="436.615" width="110" height="15" transform="rotate(0 7 7)" fill="green" stroke="black" stroke-width="0.5" />
<rect x="417"  y="436.615" width="110" height="15" transform="rotate(0 7 7)" fill="green" stroke="black" stroke-width="0.5" />
<rect x="87"  y="421.615" width="110" height="15" transform="rotate(0 7 7)" fill="green" stroke="black" stroke-width="0.5" />
<rect x="197"  y="421.615" width="110" height="15" transform="rotate(0 7 7)" fill="green" stroke="black" stroke-width="0.5" />
<rect x="307"  y="421.615" width="110" height="15" transform="rotate(0 7 7)" fill="green" stroke="black" stroke-width="0.5" />
<rect x="417"  y="421.615" width="110" height="15" transform="rotate(0 7 7)" fill="green" stroke="black" stroke-width="0.5" />
<rect x="87"  y="406.615" width="110" height="15" transform="rotate(0 7 7)" fill="green" stroke="black" stroke-width="0.5" />
<rect x="197"  y="406.615" width="110" height="15" transform="rotate(0 7 7)" fill="green" stroke="black" stroke-width="0.5" />
<rect x="307"  y="406.615" width="110" height="15" transform="rotate(0 7 7)" fill="green" stroke="black" stroke-width="0.5" />
<rect x="417"  y="406.615" width="110" height="15" transform="rotate(0 7 7)" fill="green" stroke="black" stroke-width="0.5" />
<rect x="87"  y="391.615" width="110" height="15" transform="rotate(0 7 7)" fill="green" stroke="black" stroke-width="0.5" />
<rect x="197"  y="391.615" width="110" height="15" transform="rotate(0 7 7)" fill="green" stroke="black" stroke-width="0.5" />
<rect x="307"  y="391.615" width="110" height="15" transform="rotate(0 7 7)" fill="green" stroke="black" stroke-width="0.5" />
<rect x="417"  y="391.615" width="110" height="15" transform="rotate(0 7 7)" fill="green" stroke="black" stroke-width="0.5" />
<rect x="142"  y="376.615" width="110" height="15" transform="rotate(0 7 7)" fill="green" stroke="black" stroke-width="0.5" />
<rect x="252"  y="376.615" width="110" height="15" transform="rotate(0 7 7)" fill="green" stroke="black" stroke-width="0.5" />
<rect x="362"  y="376.615" width="110" height="15" transform="rotate(0 7 7)" fill="green" stroke="black" stroke-width="0.5" />
<rect x="142"  y="361.615" width="110" height="15" transform="rotate(0 7 7)" fill="green" stroke="black" stroke-width="0.5" />
<rect x="252"  y="361.615" width="110" height="15" transform="rotate(0 7 7)" fill="green" stroke="black" stroke-width="0.5" />
<rect x="362"  y="361.615" width="110" height="15" transform="rotate(0 7 7)" fill="green" stroke="black" stroke-width="0.5" />
<rect x="142"  y="346.615" width="110" height="15" transform="rotate(0 7 7)" fill="green" stroke="black" stroke-width="0.5" />
<rect x="252"  y="346.615" width="110" height="15" transform="rotate(0 7 7)" fill="green" stroke="black" stroke-width="0.5" />
<rect x="362"  y="346.615" width="110" height="15" transform="rotate(0 7 7)" fill="green" stroke="black" stroke-width="0.5" />
<rect x="142"  y="331.615" width="110" height="15" transform="rotate(0 7 7)" fill="green" stroke="black" stroke-width="0.5" />
<rect x="252"  y="331.615" width="110" height="15" transform="rotate(0 7 7)" fill="green" stroke="black" stroke-width="0.5" />
<rect x="362"  y="331.615" width="110" height="15" transform="rotate(0 7 7)" fill="green" stroke="black" stroke-width="0.5" />
<rect x="142"  y="316.615" width="110" height="15" transform="rotate(0 7 7)" fill="green" stroke="black" stroke-width="0.5" />
<rect x="252"  y="316.615" width="110" height="15" transform="rotate(0 7 7)" fill="green" stroke="black" stroke-width="0.5" />
<rect x="362"  y="316.615" width="110" height="15" transform="rotate(0 7 7)" fill="green" stroke="black" stroke-width="0.5" />
<rect x="142"  y="301.615" width="110" height="15" transform="rotate(0 7 7)" fill="green" stroke="black" stroke-width="0.5" />
<rect x="252"  y="301.615" width="110" height="15" transform="rotate(0 7 7)" fill="green" stroke="black" stroke-width="0.5" />
<rect x="362"  y="301.615" width="110" height="15" transform="rotate(0 7 7)" fill="green" stroke="black" stroke-width="0.5" />
<rect x="197"  y="286.615" width="110" height="15" transform="rotate(0 7 7)" fill="green" stroke="black" stroke-width="0.5" />
<rect x="307"  y="286.615" width="110" height="15" transform="rotate(0 7 7)" fill="green" stroke="black" stroke-width="0.5" />
<rect x="197"  y="271.615" width="110" height="15" transform="rotate(0 7 7)" fill="green" stroke="black" stroke-width="0.5" />
<rect x="307"  y="271.615" width="110" height="15" transform="rotate(0 7 7)" fill="green" stroke="black" stroke-width="0.5" />
<rect x="197"  y="256.615" width="110" height="15" transform="rotate(0 7 7)" fill="green" stroke="black" stroke-width="0.5" />
<rect x="307"  y="256.615" width="110" height="15" transform="rotate(0 7 7)" fill="green" stroke="black" stroke-width="0.5" />
<rect x="197"  y="241.615" width="110" height="15" transform="rotate(0 7 7)" fill="green" stroke="black" stroke-width="0.5" />
<rect x="307"  y="241.615" width="110" height="15" transform="rotate(0 7 7)" fill="green" stroke="black" stroke-width="0.5" />
<rect x="197"  y="226.615" width="110" height="15" transform="rotate(0 7 7)" fill="green" stroke="black" stroke-width="0.5" />
<rect x="307"  y="226.615" width="110" height="15" transform="rotate(0 7 7)" fill="green" stroke="black" stroke-width="0.5" />
<rect x="197"  y="211.615" width="110" height="15" transform="rotate(0 7 7)" fill="green" stroke="black" stroke-width="0.5" />
<rect x="307"  y="211.615" width="110" height="15" transform="rotate(0 7 7)" fill="green" stroke="black" stroke-width="0.5" />
<rect x="252"  y="196.615" width="110" height="15" transform="rotate(0 7 7)" fill="green" stroke="black" stroke-width="0.5" />
<rect x="252"  y="181.615" width="110" height="15" transform="rotate(0 7 7)" fill="green" stroke="black" stroke-width="0.5" />
<rect x="252"  y="166.615" width="110" height="15" transform="rotate(0 7 7)" fill="green" stroke="black" stroke-width="0.5" />
<rect x="252"  y="151.615" width="110" height="15" transform="rotate(0 7 7)" fill="green" stroke="black" stroke-width="0.5" />
<rect x="252"  y="136.615" width="110" height="15" transform="rotate(0 7 7)" fill="green" stroke="black" stroke-width="0.5" />
<rect x="252"  y="121.615" width="110" height="15" transform="rotate(0 7 7)" fill="green" stroke="black" stroke-width="0.5" />
<rect x="252"  y="106.615" width="110" height="15" transform="rotate(0 7 7)" fill="green" stroke="black" stroke-width="0.5" />
</svg>
