<svg version="1.1" baseProfile="full" xmlns="http://www.w3.org/2000/svg">
<circle cx="526" cy="526" r="500" transform="rotate(0 26 26)" fill="purple" stroke="black" stroke-width="0.5" />
<circle cx="526" cy="56" r="30" transform="rotate(0 526 526)" fill="cyan" stroke="black" stroke-width="0.5" />
<circle cx="526" cy="56" r="30" transform="rotate(7.34694 526 526)" fill="cyan" stroke="black" stroke-width="0.5" />
<circle cx="526" cy="56" r="30" transform="rotate(14.6939 526 526)" fill="cyan" stroke="black" stroke-width="0.5" />
<circle cx="526" cy="56" r="30" transform="rotate(22.0408 526 526)" fill="cyan" stroke="black" stroke-width="0.5" />
<circle cx="526" cy="56" r="30" transform="rotate(29.3878 526 526)" fill="cyan" stroke="black" stroke-width="0.5" />
<circle cx="526" cy="56" r="30" transform="rotate(36.7347 526 526)" fill="cyan" stroke="black" stroke-width="0.5" />
<circle cx="526" cy="56" r="30" transform="rotate(44.0816 526 526)" fill="cyan" stroke="black" stroke-width="0.5" />
<circle cx="526" cy="56" r="30" transform="rotate(51.4286 526 526)" fill="cyan" stroke="black" stroke-width="0.5" />
<circle cx="526" cy="56" r="30" transform="rotate(58.7755 526 526)" fill="cyan" stroke="black" stroke-width="0.5" />
<circle cx="526" cy="56" r="30" transform="rotate(66.1224 526 526)" fill="cyan" stroke="black" stroke-width="0.5" />
<circle cx="526" cy="56" r="30" transform="rotate(73.4694 526 526)" fill="cyan" stroke="black" stroke-width="0.5" />
<circle cx="526" cy="56" r="30" transform="rotate(80.8163 526 526)" fill="cyan" stroke="black" stroke-width="0.5" />
<circle cx="526" cy="56" r="30" transform="rotate(88.1633 526 526)" fill="cyan" stroke="black" stroke-width="0.5" />
<circle cx="526" cy="56" r="30" transform="rotate(95.5102 526 526)" fill="cyan" stroke="black" stroke-width="0.5" />
<circle cx="526" cy="56" r="30" transform="rotate(102.857 526 526)" fill="cyan" stroke="black" stroke-width="0.5" />
<circle cx="526" cy="56" r="30" transform="rotate(110.204 526 526)" fill="cyan" stroke="black" stroke-width="0.5" />
<circle cx="526" cy="56" r="30" transform="rotate(117.551 526 526)" fill="cyan" stroke="black" stroke-width="0.5" />
<circle cx="526" cy="56" r="30" transform="rotate(124.898 526 526)" fill="cyan" stroke="black" stroke-width="0.5" />
<circle cx="526" cy="56" r="30" transform="rotate(132.245 526 526)" fill="cyan" stroke="black" stroke-width="0.5" />
<circle cx="526" cy="56" r="30" transform="rotate(139.592 526 526)" fill="cyan" stroke="black" stroke-width="0.5" />
<circle cx="526" cy="56" r="30" transform="rotate(146.939 526 526)" fill="cyan" stroke="black" stroke-width="0.5" />
<circle cx="526" cy="56" r="30" transform="rotate(154.286 526 526)" fill="cyan" stroke="black" stroke-width="0.5" />
<circle cx="526" cy="56" r="30" transform="rotate(161.633 526 526)" fill="cyan" stroke="black" stroke-width="0.5" />
<circle cx="526" cy="56" r="30" transform="rotate(168.98 526 526)" fill="cyan" stroke="black" stroke-width="0.5" />
<circle cx="526" cy="56" r="30" transform="rotate(176.327 526 526)" fill="cyan" stroke="black" stroke-width="0.5" />
<circle cx="526" cy="56" r="30" transform="rotate(183.673 526 526)" fill="cyan" stroke="black" stroke-width="0.5" />
<circle cx="526" cy="56" r="30" transform="rotate(191.02 526 526)" fill="cyan" stroke="black" stroke-width="0.5" />
<circle cx="526" cy="56" r="30" transform="rotate(198.367 526 526)" fill="cyan" stroke="black" stroke-width="0.5" />
<circle cx="526" cy="56" r="30" transform="rotate(205.714 526 526)" fill="cyan" stroke="black" stroke-width="0.5" />
<circle cx="526" cy="56" r="30" transform="rotate(213.061 526 526)" fill="cyan" stroke="black" stroke-width="0.5" />
<circle cx="526" cy="56" r="30" transform="rotate(220.408 526 526)" fill="cyan" stroke="black" stroke-width="0.5" />
<circle cx="526" cy="56" r="30" transform="rotate(227.755 526 526)" fill="cyan" stroke="black" stroke-width="0.5" />
<circle cx="526" cy="56" r="30" transform="rotate(235.102 526 526)" fill="cyan" stroke="black" stroke-width="0.5" />
<circle cx="526" cy="56" r="30" transform="rotate(242.449 526 526)" fill="cyan" stroke="black" stroke-width="0.5" />
<circle cx="526" cy="56" r="30" transform="rotate(249.796 526 526)" fill="cyan" stroke="black" stroke-width="0.5" />
<circle cx="526" cy="56" r="30" transform="rotate(257.143 526 526)" fill="cyan" stroke="black" stroke-width="0.5" />
<circle cx="526" cy="56" r="30" transform="rotate(264.49 526 526)" fill="cyan" stroke="black" stroke-width="0.5" />
<circle cx="526" cy="56" r="30" transform="rotate(271.837 526 526)" fill="cyan" stroke="black" stroke-width="0.5" />
<circle cx="526" cy="56" r="30" transform="rotate(279.184 526 526)" fill="cyan" stroke="black" stroke-width="0.5" />
<circle cx="526" cy="56" r="30" transform="rotate(286.531 526 526)" fill="cyan" stroke="black" stroke-width="0.5" />
<circle cx="526" cy="56" r="30" transform="rotate(293.878 526 526)" fill="cyan" stroke="black" stroke-width="0.5" />
<circle cx="526" cy="56" r="30" transform="rotate(301.224 526 526)" fill="cyan" stroke="black" stroke-width="0.5" />
<circle cx="526" cy="56" r="30" transform="rotate(308.571 526 526)" fill="cyan" stroke="black" stroke-width="0.5" />
<circle cx="526" cy="56" r="30" transform="rotate(315.918 526 526)" fill="cyan" stroke="black" stroke-width="0.5" />
<circle cx="526" cy="56" r="30" transform="rotate(323.265 526 526)" fill="cyan" stroke="black" stroke-width="0.5" />
<circle cx="526" cy="56" r="30" transform="rotate(330.612 526 526)" fill="cyan" stroke="black" stroke-width="0.5" />
<circle cx="526" cy="56" r="30" transform="rotate(337.959 526 526)" fill="cyan" stroke="black" stroke-width="0.5" />
<circle cx="526" cy="56" r="30" transform="rotate(345.306 526 526)" fill="cyan" stroke="black" stroke-width="0.5" />
<circle cx="526" cy="56" r="30" transform="rotate(352.653 526 526)" fill="cyan" stroke="black" stroke-width="0.5" />
<circle cx="526" cy="116" r="30" transform="rotate(0 526 526)" fill="cyan" stroke="black" stroke-width="0.5" />
<circle cx="526" cy="116" r="30" transform="rotate(8.57143 526 526)" fill="cyan" stroke="black" stroke-width="0.5" />
<circle cx="526" cy="116" r="30" transform="rotate(17.1429 526 526)" fill="cyan" stroke="black" stroke-width="0.5" />
<circle cx="526" cy="116" r="30" transform="rotate(25.7143 526 526)" fill="cyan" stroke="black" stroke-width="0.5" />
<circle cx="526" cy="116" r="30" transform="rotate(34.2857 526 526)" fill="cyan" stroke="black" stroke-width="0.5" />
<circle cx="526" cy="116" r="30" transform="rotate(42.8571 526 526)" fill="cyan" stroke="black" stroke-width="0.5" />
<circle cx="526" cy="116" r="30" transform="rotate(51.4286 526 526)" fill="cyan" stroke="black" stroke-width="0.5" />
<circle cx="526" cy="116" r="30" transform="rotate(60 526 526)" fill="cyan" stroke="black" stroke-width="0.5" />
<circle cx="526" cy="116" r="30" transform="rotate(68.5714 526 526)" fill="cyan" stroke="black" stroke-width="0.5" />
<circle cx="526" cy="116" r="30" transform="rotate(77.1429 526 526)" fill="cyan" stroke="black" stroke-width="0.5" />
<circle cx="526" cy="116" r="30" transform="rotate(85.7143 526 526)" fill="cyan" stroke="black" stroke-width="0.5" />
<circle cx="526" cy="116" r="30" transform="rotate(94.2857 526 526)" fill="cyan" stroke="black" stroke-width="0.5" />
<circle cx="526" cy="116" r="30" transform="rotate(102.857 526 526)" fill="cyan" stroke="black" stroke-width="0.5" />
<circle cx="526" cy="116" r="30" transform="rotate(111.429 526 526)" fill="cyan" stroke="black" stroke-width="0.5" />
<circle cx="526" cy="116" r="30" transform="rotate(120 526 526)" fill="cyan" stroke="black" stroke-width="0.5" />
<circle cx="526" cy="116" r="30" transform="rotate(128.571 526 526)" fill="cyan" stroke="black" stroke-width="0.5" />
<circle cx="526" cy="116" r="30" transform="rotate(137.143 526 526)" fill="cyan" stroke="black" stroke-width="0.5" />
<circle cx="526" cy="116" r="30" transform="rotate(145.714 526 526)" fill="cyan" stroke="black" stroke-width="0.5" />
<circle cx="526" cy="116" r="30" transform="rotate(154.286 526 526)" fill="cyan" stroke="black" stroke-width="0.5" />
<circle cx="526" cy="116" r="30" transform="rotate(162.857 526 526)" fill="cyan" stroke="black" stroke-width="0.5" />
<circle cx="526" cy="116" r="30" transform="rotate(171.429 526 526)" fill="cyan" stroke="black" stroke-width="0.5" />
<circle cx="526" cy="116" r="30" transform="rotate(180 526 526)" fill="cyan" stroke="black" stroke-width="0.5" />
<circle cx="526" cy="116" r="30" transform="rotate(188.571 526 526)" fill="cyan" stroke="black" stroke-width="0.5" />
<circle cx="526" cy="116" r="30" transform="rotate(197.143 526 526)" fill="cyan" stroke="black" stroke-width="0.5" />
<circle cx="526" cy="116" r="30" transform="rotate(205.714 526 526)" fill="cyan" stroke="black" stroke-width="0.5" />
<circle cx="526" cy="116" r="30" transform="rotate(214.286 526 526)" fill="cyan" stroke="black" stroke-width="0.5" />
<circle cx="526" cy="116" r="30" transform="rotate(222.857 526 526)" fill="cyan" stroke="black" stroke-width="0.5" />
<circle cx="526" cy="116" r="30" transform="rotate(231.429 526 526)" fill="cyan" stroke="black" stroke-width="0.5" />
<circle cx="526" cy="116" r="30" transform="rotate(240 526 526)" fill="cyan" stroke="black" stroke-width="0.5" />
<circle cx="526" cy="116" r="30" transform="rotate(248.571 526 526)" fill="cyan" stroke="black" stroke-width="0.5" />
<circle cx="526" cy="116" r="30" transform="rotate(257.143 526 526)" fill="cyan" stroke="black" stroke-width="0.5" />
<circle cx="526" cy="116" r="30" transform="rotate(265.714 526 526)" fill="cyan" stroke="black" stroke-width="0.5" />
<circle cx="526" cy="116" r="30" transform="rotate(274.286 526 526)" fill="cyan" stroke="black" stroke-width="0.5" />
<circle cx="526" cy="116" r="30" transform="rotate(282.857 526 526)" fill="cyan" stroke="black" stroke-width="0.5" />
<circle cx="526" cy="116" r="30" transform="rotate(291.429 526 526)" fill="cyan" stroke="black" stroke-width="0.5" />
<circle cx="526" cy="116" r="30" transform="rotate(300 526 526)" fill="cyan" stroke="black" stroke-width="0.5" />
<circle cx="526" cy="116" r="30" transform="rotate(308.571 526 526)" fill="cyan" stroke="black" stroke-width="0.5" />
<circle cx="526" cy="116" r="30" transform="rotate(317.143 526 526)" fill="cyan" stroke="black" stroke-width="0.5" />
<circle cx="526" cy="116" r="30" transform="rotate(325.714 526 526)" fill="cyan" stroke="black" stroke-width="0.5" />
<circle cx="526" cy="116" r="30" transform="rotate(334.286 526 526)" fill="cyan" stroke="black" stroke-width="0.5" />
<circle cx="526" cy="116" r="30" transform="rotate(342.857 526 526)" fill="cyan" stroke="black" stroke-width="0.5" />
<circle cx="526" cy="116" r="30" transform="rotate(351.429 526 526)" fill="cyan" stroke="black" stroke-width="0.5" />
<circle cx="526" cy="176" r="30" transform="rotate(0 526 526)" fill="cyan" stroke="black" stroke-width="0.5" />
<circle cx="526" cy="176" r="30" transform="rotate(10 526 526)" fill="cyan" stroke="black" stroke-width="0.5" />
<circle cx="526" cy="176" r="30" transform="rotate(20 526 526)" fill="cyan" stroke="black" stroke-width="0.5" />
<circle cx="526" cy="176" r="30" transform="rotate(30 526 526)" fill="cyan" stroke="black" stroke-width="0.5" />
<circle cx="526" cy="176" r="30" transform="rotate(40 526 526)" fill="cyan" stroke="black" stroke-width="0.5" />
<circle cx="526" cy="176" r="30" transform="rotate(50 526 526)" fill="cyan" stroke="black" stroke-width="0.5" />
<circle cx="526" cy="176" r="30" transform="rotate(60 526 526)" fill="cyan" stroke="black" stroke-width="0.5" />
<circle cx="526" cy="176" r="30" transform="rotate(70 526 526)" fill="cyan" stroke="black" stroke-width="0.5" />
<circle cx="526" cy="176" r="30" transform="rotate(80 526 526)" fill="cyan" stroke="black" stroke-width="0.5" />
<circle cx="526" cy="176" r="30" transform="rotate(90 526 526)" fill="cyan" stroke="black" stroke-width="0.5" />
<circle cx="526" cy="176" r="30" transform="rotate(100 526 526)" fill="cyan" stroke="black" stroke-width="0.5" />
<circle cx="526" cy="176" r="30" transform="rotate(110 526 526)" fill="cyan" stroke="black" stroke-width="0.5" />
<circle cx="526" cy="176" r="30" transform="rotate(120 526 526)" fill="cyan" stroke="black" stroke-width="0.5" />
<circle cx="526" cy="176" r="30" transform="rotate(130 526 526)" fill="cyan" stroke="black" stroke-width="0.5" />
<circle cx="526" cy="176" r="30" transform="rotate(140 526 526)" fill="cyan" stroke="black" stroke-width="0.5" />
<circle cx="526" cy="176" r="30" transform="rotate(150 526 526)" fill="cyan" stroke="black" stroke-width="0.5" />
<circle cx="526" cy="176" r="30" transform="rotate(160 526 526)" fill="cyan" stroke="black" stroke-width="0.5" />
<circle cx="526" cy="176" r="30" transform="rotate(170 526 526)" fill="cyan" stroke="black" stroke-width="0.5" />
<circle cx="526" cy="176" r="30" transform="rotate(180 526 526)" fill="cyan" stroke="black" stroke-width="0.5" />
<circle cx="526" cy="176" r="30" transform="rotate(190 526 526)" fill="cyan" stroke="black" stroke-width="0.5" />
<circle cx="526" cy="176" r="30" transform="rotate(200 526 526)" fill="cyan" stroke="black" stroke-width="0.5" />
<circle cx="526" cy="176" r="30" transform="rotate(210 526 526)" fill="cyan" stroke="black" stroke-width="0.5" />
<circle cx="526" cy="176" r="30" transform="rotate(220 526 526)" fill="cyan" stroke="black" stroke-width="0.5" />
<circle cx="526" cy="176" r="30" transform="rotate(230 526 526)" fill="cyan" stroke="black" stroke-width="0.5" />
<circle cx="526" cy="176" r="30" transform="rotate(240 526 526)" fill="cyan" stroke="black" stroke-width="0.5" />
<circle cx="526" cy="176" r="30" transform="rotate(250 526 526)" fill="cyan" stroke="black" stroke-width="0.5" />
<circle cx="526" cy="176" r="30" transform="rotate(260 526 526)" fill="cyan" stroke="black" stroke-width="0.5" />
<circle cx="526" cy="176" r="30" transform="rotate(270 526 526)" fill="cyan" stroke="black" stroke-width="0.5" />
<circle cx="526" cy="176" r="30" transform="rotate(280 526 526)" fill="cyan" stroke="black" stroke-width="0.5" />
<circle cx="526" cy="176" r="30" transform="rotate(290 526 526)" fill="cyan" stroke="black" stroke-width="0.5" />
<circle cx="526" cy="176" r="30" transform="rotate(300 526 526)" fill="cyan" stroke="black" stroke-width="0.5" />
<circle cx="526" cy="176" r="30" transform="rotate(310 526 526)" fill="cyan" stroke="black" stroke-width="0.5" />
<circle cx="526" cy="176" r="30" transform="rotate(320 526 526)" fill="cyan" stroke="black" stroke-width="0.5" />
<circle cx="526" cy="176" r="30" transform="rotate(330 526 526)" fill="cyan" stroke="black" stroke-width="0.5" />
<circle cx="526" cy="176" r="30" transform="rotate(340 526 526)" fill="cyan" stroke="black" stroke-width="0.5" />
<circle cx="526" cy="176" r="30" transform="rotate(350 526 526)" fill="cyan" stroke="black" stroke-width="0.5" />
<circle cx="526" cy="236" r="30" transform="rotate(0 526 526)" fill="cyan" stroke="black" stroke-width="0.5" />
<circle cx="526" cy="236" r="30" transform="rotate(12 526 526)" fill="cyan" stroke="black" stroke-width="0.5" />
<circle cx="526" cy="236" r="30" transform="rotate(24 526 526)" fill="cyan" stroke="black" stroke-width="0.5" />
<circle cx="526" cy="236" r="30" transform="rotate(36 526 526)" fill="cyan" stroke="black" stroke-width="0.5" />
<circle cx="526" cy="236" r="30" transform="rotate(48 526 526)" fill="cyan" stroke="black" stroke-width="0.5" />
<circle cx="526" cy="236" r="30" transform="rotate(60 526 526)" fill="cyan" stroke="black" stroke-width="0.5" />
<circle cx="526" cy="236" r="30" transform="rotate(72 526 526)" fill="cyan" stroke="black" stroke-width="0.5" />
<circle cx="526" cy="236" r="30" transform="rotate(84 526 526)" fill="cyan" stroke="black" stroke-width="0.5" />
<circle cx="526" cy="236" r="30" transform="rotate(96 526 526)" fill="cyan" stroke="black" stroke-width="0.5" />
<circle cx="526" cy="236" r="30" transform="rotate(108 526 526)" fill="cyan" stroke="black" stroke-width="0.5" />
<circle cx="526" cy="236" r="30" transform="rotate(120 526 526)" fill="cyan" stroke="black" stroke-width="0.5" />
<circle cx="526" cy="236" r="30" transform="rotate(132 526 526)" fill="cyan" stroke="black" stroke-width="0.5" />
<circle cx="526" cy="236" r="30" transform="rotate(144 526 526)" fill="cyan" stroke="black" stroke-width="0.5" />
<circle cx="526" cy="236" r="30" transform="rotate(156 526 526)" fill="cyan" stroke="black" stroke-width="0.5" />
<circle cx="526" cy="236" r="30" transform="rotate(168 526 526)" fill="cyan" stroke="black" stroke-width="0.5" />
<circle cx="526" cy="236" r="30" transform="rotate(180 526 526)" fill="cyan" stroke="black" stroke-width="0.5" />
<circle cx="526" cy="236" r="30" transform="rotate(192 526 526)" fill="cyan" stroke="black" stroke-width="0.5" />
<circle cx="526" cy="236" r="30" transform="rotate(204 526 526)" fill="cyan" stroke="black" stroke-width="0.5" />
<circle cx="526" cy="236" r="30" transform="rotate(216 526 526)" fill="cyan" stroke="black" stroke-width="0.5" />
<circle cx="526" cy="236" r="30" transform="rotate(228 526 526)" fill="cyan" stroke="black" stroke-width="0.5" />
<circle cx="526" cy="236" r="30" transform="rotate(240 526 526)" fill="cyan" stroke="black" stroke-width="0.5" />
<circle cx="526" cy="236" r="30" transform="rotate(252 526 526)" fill="cyan" stroke="black" stroke-width="0.5" />
<circle cx="526" cy="236" r="30" transform="rotate(264 526 526)" fill="cyan" stroke="black" stroke-width="0.5" />
<circle cx="526" cy="236" r="30" transform="rotate(276 526 526)" fill="cyan" stroke="black" stroke-width="0.5" />
<circle cx="526" cy="236" r="30" transform="rotate(288 526 526)" fill="cyan" stroke="black" stroke-width="0.5" />
<circle cx="526" cy="236" r="30" transform="rotate(300 526 526)" fill="cyan" stroke="black" stroke-width="0.5" />
<circle cx="526" cy="236" r="30" transform="rotate(312 526 526)" fill="cyan" stroke="black" stroke-width="0.5" />
<circle cx="526" cy="236" r="30" transform="rotate(324 526 526)" fill="cyan" stroke="black" stroke-width="0.5" />
<circle cx="526" cy="236" r="30" transform="rotate(336 526 526)" fill="cyan" stroke="black" stroke-width="0.5" />
<circle cx="526" cy="236" r="30" transform="rotate(348 526 526)" fill="cyan" stroke="black" stroke-width="0.5" />
<circle cx="526" cy="296" r="30" transform="rotate(0 526 526)" fill="cyan" stroke="black" stroke-width="0.5" />
<circle cx="526" cy="296" r="30" transform="rotate(15 526 526)" fill="cyan" stroke="black" stroke-width="0.5" />
<circle cx="526" cy="296" r="30" transform="rotate(30 526 526)" fill="cyan" stroke="black" stroke-width="0.5" />
<circle cx="526" cy="296" r="30" transform="rotate(45 526 526)" fill="cyan" stroke="black" stroke-width="0.5" />
<circle cx="526" cy="296" r="30" transform="rotate(60 526 526)" fill="cyan" stroke="black" stroke-width="0.5" />
<circle cx="526" cy="296" r="30" transform="rotate(75 526 526)" fill="cyan" stroke="black" stroke-width="0.5" />
<circle cx="526" cy="296" r="30" transform="rotate(90 526 526)" fill="cyan" stroke="black" stroke-width="0.5" />
<circle cx="526" cy="296" r="30" transform="rotate(105 526 526)" fill="cyan" stroke="black" stroke-width="0.5" />
<circle cx="526" cy="296" r="30" transform="rotate(120 526 526)" fill="cyan" stroke="black" stroke-width="0.5" />
<circle cx="526" cy="296" r="30" transform="rotate(135 526 526)" fill="cyan" stroke="black" stroke-width="0.5" />
<circle cx="526" cy="296" r="30" transform="rotate(150 526 526)" fill="cyan" stroke="black" stroke-width="0.5" />
<circle cx="526" cy="296" r="30" transform="rotate(165 526 526)" fill="cyan" stroke="black" stroke-width="0.5" />
<circle cx="526" cy="296" r="30" transform="rotate(180 526 526)" fill="cyan" stroke="black" stroke-width="0.5" />
<circle cx="526" cy="296" r="30" transform="rotate(195 526 526)" fill="cyan" stroke="black" stroke-width="0.5" />
<circle cx="526" cy="296" r="30" transform="rotate(210 526 526)" fill="cyan" stroke="black" stroke-width="0.5" />
<circle cx="526" cy="296" r="30" transform="rotate(225 526 526)" fill="cyan" stroke="black" stroke-width="0.5" />
<circle cx="526" cy="296" r="30" transform="rotate(240 526 526)" fill="cyan" stroke="black" stroke-width="0.5" />
<circle cx="526" cy="296" r="30" transform="rotate(255 526 526)" fill="cyan" stroke="black" stroke-width="0.5" />
<circle cx="526" cy="296" r="30" transform="rotate(270 526 526)" fill="cyan" stroke="black" stroke-width="0.5" />
<circle cx="526" cy="296" r="30" transform="rotate(285 526 526)" fill="cyan" stroke="black" stroke-width="0.5" />
<circle cx="526" cy="296" r="30" transform="rotate(300 526 526)" fill="cyan" stroke="black" stroke-width="0.5" />
<circle cx="526" cy="296" r="30" transform="rotate(315 526 526)" fill="cyan" stroke="black" stroke-width="0.5" />
<circle cx="526" cy="296" r="30" transform="rotate(330 526 526)" fill="cyan" stroke="black" stroke-width="0.5" />
<circle cx="526" cy="296" r="30" transform="rotate(345 526 526)" fill="cyan" stroke="black" stroke-width="0.5" />
<circle cx="526" cy="356" r="30" transform="rotate(0 526 526)" fill="cyan" stroke="black" stroke-width="0.5" />
<circle cx="526" cy="356" r="30" transform="rotate(21.1765 526 526)" fill="cyan" stroke="black" stroke-width="0.5" />
<circle cx="526" cy="356" r="30" transform="rotate(42.3529 526 526)" fill="cyan" stroke="black" stroke-width="0.5" />
<circle cx="526" cy="356" r="30" transform="rotate(63.5294 526 526)" fill="cyan" stroke="black" stroke-width="0.5" />
<circle cx="526" cy="356" r="30" transform="rotate(84.7059 526 526)" fill="cyan" stroke="black" stroke-width="0.5" />
<circle cx="526" cy="356" r="30" transform="rotate(105.882 526 526)" fill="cyan" stroke="black" stroke-width="0.5" />
<circle cx="526" cy="356" r="30" transform="rotate(127.059 526 526)" fill="cyan" stroke="black" stroke-width="0.5" />
<circle cx="526" cy="356" r="30" transform="rotate(148.235 526 526)" fill="cyan" stroke="black" stroke-width="0.5" />
<circle cx="526" cy="356" r="30" transform="rotate(169.412 526 526)" fill="cyan" stroke="black" stroke-width="0.5" />
<circle cx="526" cy="356" r="30" transform="rotate(190.588 526 526)" fill="cyan" stroke="black" stroke-width="0.5" />
<circle cx="526" cy="356" r="30" transform="rotate(211.765 526 526)" fill="cyan" stroke="black" stroke-width="0.5" />
<circle cx="526" cy="356" r="30" transform="rotate(232.941 526 526)" fill="cyan" stroke="black" stroke-width="0.5" />
<circle cx="526" cy="356" r="30" transform="rotate(254.118 526 526)" fill="cyan" stroke="black" stroke-width="0.5" />
<circle cx="526" cy="356" r="30" transform="rotate(275.294 526 526)" fill="cyan" stroke="black" stroke-width="0.5" />
<circle cx="526" cy="356" r="30" transform="rotate(296.471 526 526)" fill="cyan" stroke="black" stroke-width="0.5" />
<circle cx="526" cy="356" r="30" transform="rotate(317.647 526 526)" fill="cyan" stroke="black" stroke-width="0.5" />
<circle cx="526" cy="356" r="30" transform="rotate(338.824 526 526)" fill="cyan" stroke="black" stroke-width="0.5" />
<circle cx="526" cy="416" r="30" transform="rotate(0 526 526)" fill="cyan" stroke="black" stroke-width="0.5" />
<circle cx="526" cy="416" r="30" transform="rotate(32.7273 526 526)" fill="cyan" stroke="black" stroke-width="0.5" />
<circle cx="526" cy="416" r="30" transform="rotate(65.4545 526 526)" fill="cyan" stroke="black" stroke-width="0.5" />
<circle cx="526" cy="416" r="30" transform="rotate(98.1818 526 526)" fill="cyan" stroke="black" stroke-width="0.5" />
<circle cx="526" cy="416" r="30" transform="rotate(130.909 526 526)" fill="cyan" stroke="black" stroke-width="0.5" />
<circle cx="526" cy="416" r="30" transform="rotate(163.636 526 526)" fill="cyan" stroke="black" stroke-width="0.5" />
<circle cx="526" cy="416" r="30" transform="rotate(196.364 526 526)" fill="cyan" stroke="black" stroke-width="0.5" />
<circle cx="526" cy="416" r="30" transform="rotate(229.091 526 526)" fill="cyan" stroke="black" stroke-width="0.5" />
<circle cx="526" cy="416" r="30" transform="rotate(261.818 526 526)" fill="cyan" stroke="black" stroke-width="0.5" />
<circle cx="526" cy="416" r="30" transform="rotate(294.545 526 526)" fill="cyan" stroke="black" stroke-width="0.5" />
<circle cx="526" cy="416" r="30" transform="rotate(327.273 526 526)" fill="cyan" stroke="black" stroke-width="0.5" />
<circle cx="526" cy="476" r="30" transform="rotate(0 526 526)" fill="cyan" stroke="black" stroke-width="0.5" />
<circle cx="526" cy="476" r="30" transform="rotate(90 526 526)" fill="cyan" stroke="black" stroke-width="0.5" />
<circle cx="526" cy="476" r="30" transform="rotate(180 526 526)" fill="cyan" stroke="black" stroke-width="0.5" />
<circle cx="526" cy="476" r="30" transform="rotate(270 526 526)" fill="cyan" stroke="black" stroke-width="0.5" />
</svg>
