<svg version="1.1" baseProfile="full" xmlns="http://www.w3.org/2000/svg">
<polygon points="276,26 26,459.013 526,459.013" transform="rotate(0 26 26)" fill="purple" stroke="black" stroke-width="0.5" />
<circle cx="276" cy="86" r="30" transform="rotate(0 7 7)" fill="cyan" stroke="black" stroke-width="0.5" />
<circle cx="246" cy="137.962" r="30" transform="rotate(0 7 7)" fill="cyan" stroke="black" stroke-width="0.5" />
<circle cx="306" cy="137.962" r="30" transform="rotate(0 7 7)" fill="cyan" stroke="black" stroke-width="0.5" />
<circle cx="276" cy="189.923" r="30" transform="rotate(0 7 7)" fill="cyan" stroke="black" stroke-width="0.5" />
<circle cx="216" cy="189.923" r="30" transform="rotate(0 7 7)" fill="cyan" stroke="black" stroke-width="0.5" />
<circle cx="336" cy="189.923" r="30" transform="rotate(0 7 7)" fill="cyan" stroke="black" stroke-width="0.5" />
<circle cx="246" cy="241.885" r="30" transform="rotate(0 7 7)" fill="cyan" stroke="black" stroke-width="0.5" />
<circle cx="306" cy="241.885" r="30" transform="rotate(0 7 7)" fill="cyan" stroke="black" stroke-width="0.5" />
<circle cx="186" cy="241.885" r="30" transform="rotate(0 7 7)" fill="cyan" stroke="black" stroke-width="0.5" />
<circle cx="366" cy="241.885" r="30" transform="rotate(0 7 7)" fill="cyan" stroke="black" stroke-width="0.5" />
<circle cx="276" cy="293.846" r="30" transform="rotate(0 7 7)" fill="cyan" stroke="black" stroke-width="0.5" />
<circle cx="216" cy="293.846" r="30" transform="rotate(0 7 7)" fill="cyan" stroke="black" stroke-width="0.5" />
<circle cx="156" cy="293.846" r="30" transform="rotate(0 7 7)" fill="cyan" stroke="black" stroke-width="0.5" />
<circle cx="336" cy="293.846" r="30" transform="rotate(0 7 7)" fill="cyan" stroke="black" stroke-width="0.5" />
<circle cx="396" cy="293.846" r="30" transform="rotate(0 7 7)" fill="cyan" stroke="black" stroke-width="0.5" />
<circle cx="246" cy="345.808" r="30" transform="rotate(0 7 7)" fill="cyan" stroke="black" stroke-width="0.5" />
<circle cx="306" cy="345.808" r="30" transform="rotate(0 7 7)" fill="cyan" stroke="black" stroke-width="0.5" />
<circle cx="186" cy="345.808" r="30" transform="rotate(0 7 7)" fill="cyan" stroke="black" stroke-width="0.5" />
<circle cx="366" cy="345.808" r="30" transform="rotate(0 7 7)" fill="cyan" stroke="black" stroke-width="0.5" />
<circle cx="126" cy="345.808" r="30" transform="rotate(0 7 7)" fill="cyan" stroke="black" stroke-width="0.5" />
<circle cx="426" cy="345.808" r="30" transform="rotate(0 7 7)" fill="cyan" stroke="black" stroke-width="0.5" />
<circle cx="276" cy="397.769" r="30" transform="rotate(0 7 7)" fill="cyan" stroke="black" stroke-width="0.5" />
<circle cx="216" cy="397.769" r="30" transform="rotate(0 7 7)" fill="cyan" stroke="black" stroke-width="0.5" />
<circle cx="156" cy="397.769" r="30" transform="rotate(0 7 7)" fill="cyan" stroke="black" stroke-width="0.5" />
<circle cx="96" cy="397.769" r="30" transform="rotate(0 7 7)" fill="cyan" stroke="black" stroke-width="0.5" />
<circle cx="336" cy="397.769" r="30" transform="rotate(0 7 7)" fill="cyan" stroke="black" stroke-width="0.5" />
<circle cx="396" cy="397.769" r="30" transform="rotate(0 7 7)" fill="cyan" stroke="black" stroke-width="0.5" />
<circle cx="456" cy="397.769" r="30" transform="rotate(0 7 7)" fill="cyan" stroke="black" stroke-width="0.5" />
</svg>
