<svg version="1.1" baseProfile="full" xmlns="http://www.w3.org/2000/svg">
<circle cx="538" cy="538" r="500" transform="rotate(0 38 38)" fill="dimgrey" stroke="black" stroke-width="0.5" />
<circle cx="538" cy="88" r="50" transform="rotate(0 538 538)" fill="green" stroke="black" stroke-width="0.5" />
<circle cx="538" cy="88" r="50" transform="rotate(12.8571 538 538)" fill="green" stroke="black" stroke-width="0.5" />
<circle cx="538" cy="88" r="50" transform="rotate(25.7143 538 538)" fill="green" stroke="black" stroke-width="0.5" />
<circle cx="538" cy="88" r="50" transform="rotate(38.5714 538 538)" fill="green" stroke="black" stroke-width="0.5" />
<circle cx="538" cy="88" r="50" transform="rotate(51.4286 538 538)" fill="green" stroke="black" stroke-width="0.5" />
<circle cx="538" cy="88" r="50" transform="rotate(64.2857 538 538)" fill="green" stroke="black" stroke-width="0.5" />
<circle cx="538" cy="88" r="50" transform="rotate(77.1429 538 538)" fill="green" stroke="black" stroke-width="0.5" />
<circle cx="538" cy="88" r="50" transform="rotate(90 538 538)" fill="green" stroke="black" stroke-width="0.5" />
<circle cx="538" cy="88" r="50" transform="rotate(102.857 538 538)" fill="green" stroke="black" stroke-width="0.5" />
<circle cx="538" cy="88" r="50" transform="rotate(115.714 538 538)" fill="green" stroke="black" stroke-width="0.5" />
<circle cx="538" cy="88" r="50" transform="rotate(128.571 538 538)" fill="green" stroke="black" stroke-width="0.5" />
<circle cx="538" cy="88" r="50" transform="rotate(141.429 538 538)" fill="green" stroke="black" stroke-width="0.5" />
<circle cx="538" cy="88" r="50" transform="rotate(154.286 538 538)" fill="green" stroke="black" stroke-width="0.5" />
<circle cx="538" cy="88" r="50" transform="rotate(167.143 538 538)" fill="green" stroke="black" stroke-width="0.5" />
<circle cx="538" cy="88" r="50" transform="rotate(180 538 538)" fill="green" stroke="black" stroke-width="0.5" />
<circle cx="538" cy="88" r="50" transform="rotate(192.857 538 538)" fill="green" stroke="black" stroke-width="0.5" />
<circle cx="538" cy="88" r="50" transform="rotate(205.714 538 538)" fill="green" stroke="black" stroke-width="0.5" />
<circle cx="538" cy="88" r="50" transform="rotate(218.571 538 538)" fill="green" stroke="black" stroke-width="0.5" />
<circle cx="538" cy="88" r="50" transform="rotate(231.429 538 538)" fill="green" stroke="black" stroke-width="0.5" />
<circle cx="538" cy="88" r="50" transform="rotate(244.286 538 538)" fill="green" stroke="black" stroke-width="0.5" />
<circle cx="538" cy="88" r="50" transform="rotate(257.143 538 538)" fill="green" stroke="black" stroke-width="0.5" />
<circle cx="538" cy="88" r="50" transform="rotate(270 538 538)" fill="green" stroke="black" stroke-width="0.5" />
<circle cx="538" cy="88" r="50" transform="rotate(282.857 538 538)" fill="green" stroke="black" stroke-width="0.5" />
<circle cx="538" cy="88" r="50" transform="rotate(295.714 538 538)" fill="green" stroke="black" stroke-width="0.5" />
<circle cx="538" cy="88" r="50" transform="rotate(308.571 538 538)" fill="green" stroke="black" stroke-width="0.5" />
<circle cx="538" cy="88" r="50" transform="rotate(321.429 538 538)" fill="green" stroke="black" stroke-width="0.5" />
<circle cx="538" cy="88" r="50" transform="rotate(334.286 538 538)" fill="green" stroke="black" stroke-width="0.5" />
<circle cx="538" cy="88" r="50" transform="rotate(347.143 538 538)" fill="green" stroke="black" stroke-width="0.5" />
<circle cx="538" cy="188" r="50" transform="rotate(0 538 538)" fill="green" stroke="black" stroke-width="0.5" />
<circle cx="538" cy="188" r="50" transform="rotate(17.1429 538 538)" fill="green" stroke="black" stroke-width="0.5" />
<circle cx="538" cy="188" r="50" transform="rotate(34.2857 538 538)" fill="green" stroke="black" stroke-width="0.5" />
<circle cx="538" cy="188" r="50" transform="rotate(51.4286 538 538)" fill="green" stroke="black" stroke-width="0.5" />
<circle cx="538" cy="188" r="50" transform="rotate(68.5714 538 538)" fill="green" stroke="black" stroke-width="0.5" />
<circle cx="538" cy="188" r="50" transform="rotate(85.7143 538 538)" fill="green" stroke="black" stroke-width="0.5" />
<circle cx="538" cy="188" r="50" transform="rotate(102.857 538 538)" fill="green" stroke="black" stroke-width="0.5" />
<circle cx="538" cy="188" r="50" transform="rotate(120 538 538)" fill="green" stroke="black" stroke-width="0.5" />
<circle cx="538" cy="188" r="50" transform="rotate(137.143 538 538)" fill="green" stroke="black" stroke-width="0.5" />
<circle cx="538" cy="188" r="50" transform="rotate(154.286 538 538)" fill="green" stroke="black" stroke-width="0.5" />
<circle cx="538" cy="188" r="50" transform="rotate(171.429 538 538)" fill="green" stroke="black" stroke-width="0.5" />
<circle cx="538" cy="188" r="50" transform="rotate(188.571 538 538)" fill="green" stroke="black" stroke-width="0.5" />
<circle cx="538" cy="188" r="50" transform="rotate(205.714 538 538)" fill="green" stroke="black" stroke-width="0.5" />
<circle cx="538" cy="188" r="50" transform="rotate(222.857 538 538)" fill="green" stroke="black" stroke-width="0.5" />
<circle cx="538" cy="188" r="50" transform="rotate(240 538 538)" fill="green" stroke="black" stroke-width="0.5" />
<circle cx="538" cy="188" r="50" transform="rotate(257.143 538 538)" fill="green" stroke="black" stroke-width="0.5" />
<circle cx="538" cy="188" r="50" transform="rotate(274.286 538 538)" fill="green" stroke="black" stroke-width="0.5" />
<circle cx="538" cy="188" r="50" transform="rotate(291.429 538 538)" fill="green" stroke="black" stroke-width="0.5" />
<circle cx="538" cy="188" r="50" transform="rotate(308.571 538 538)" fill="green" stroke="black" stroke-width="0.5" />
<circle cx="538" cy="188" r="50" transform="rotate(325.714 538 538)" fill="green" stroke="black" stroke-width="0.5" />
<circle cx="538" cy="188" r="50" transform="rotate(342.857 538 538)" fill="green" stroke="black" stroke-width="0.5" />
<circle cx="538" cy="288" r="50" transform="rotate(0 538 538)" fill="green" stroke="black" stroke-width="0.5" />
<circle cx="538" cy="288" r="50" transform="rotate(24 538 538)" fill="green" stroke="black" stroke-width="0.5" />
<circle cx="538" cy="288" r="50" transform="rotate(48 538 538)" fill="green" stroke="black" stroke-width="0.5" />
<circle cx="538" cy="288" r="50" transform="rotate(72 538 538)" fill="green" stroke="black" stroke-width="0.5" />
<circle cx="538" cy="288" r="50" transform="rotate(96 538 538)" fill="green" stroke="black" stroke-width="0.5" />
<circle cx="538" cy="288" r="50" transform="rotate(120 538 538)" fill="green" stroke="black" stroke-width="0.5" />
<circle cx="538" cy="288" r="50" transform="rotate(144 538 538)" fill="green" stroke="black" stroke-width="0.5" />
<circle cx="538" cy="288" r="50" transform="rotate(168 538 538)" fill="green" stroke="black" stroke-width="0.5" />
<circle cx="538" cy="288" r="50" transform="rotate(192 538 538)" fill="green" stroke="black" stroke-width="0.5" />
<circle cx="538" cy="288" r="50" transform="rotate(216 538 538)" fill="green" stroke="black" stroke-width="0.5" />
<circle cx="538" cy="288" r="50" transform="rotate(240 538 538)" fill="green" stroke="black" stroke-width="0.5" />
<circle cx="538" cy="288" r="50" transform="rotate(264 538 538)" fill="green" stroke="black" stroke-width="0.5" />
<circle cx="538" cy="288" r="50" transform="rotate(288 538 538)" fill="green" stroke="black" stroke-width="0.5" />
<circle cx="538" cy="288" r="50" transform="rotate(312 538 538)" fill="green" stroke="black" stroke-width="0.5" />
<circle cx="538" cy="288" r="50" transform="rotate(336 538 538)" fill="green" stroke="black" stroke-width="0.5" />
<circle cx="538" cy="388" r="50" transform="rotate(0 538 538)" fill="green" stroke="black" stroke-width="0.5" />
<circle cx="538" cy="388" r="50" transform="rotate(40 538 538)" fill="green" stroke="black" stroke-width="0.5" />
<circle cx="538" cy="388" r="50" transform="rotate(80 538 538)" fill="green" stroke="black" stroke-width="0.5" />
<circle cx="538" cy="388" r="50" transform="rotate(120 538 538)" fill="green" stroke="black" stroke-width="0.5" />
<circle cx="538" cy="388" r="50" transform="rotate(160 538 538)" fill="green" stroke="black" stroke-width="0.5" />
<circle cx="538" cy="388" r="50" transform="rotate(200 538 538)" fill="green" stroke="black" stroke-width="0.5" />
<circle cx="538" cy="388" r="50" transform="rotate(240 538 538)" fill="green" stroke="black" stroke-width="0.5" />
<circle cx="538" cy="388" r="50" transform="rotate(280 538 538)" fill="green" stroke="black" stroke-width="0.5" />
<circle cx="538" cy="388" r="50" transform="rotate(320 538 538)" fill="green" stroke="black" stroke-width="0.5" />
<circle cx="538" cy="488" r="50" transform="rotate(0 538 538)" fill="green" stroke="black" stroke-width="0.5" />
<circle cx="538" cy="488" r="50" transform="rotate(180 538 538)" fill="green" stroke="black" stroke-width="0.5" />
</svg>
