<svg version="1.1" baseProfile="full" xmlns="http://www.w3.org/2000/svg">
<polygon points="255,5 5,438.013 505,438.013" transform="rotate(0 5 5)" fill="purple" stroke="black" stroke-width="0.5" />
<polygon points="5,5 5,505 505,505 505,5" transform="rotate(0 5 5)" fill="dimgrey" stroke="black" stroke-width="0.5" />
<polygon points="1005,505 1004.01,473.605 1001.06,442.333 996.144,411.309 989.292,380.655 980.528,350.492 969.888,320.938 957.414,292.11 943.153,264.123 927.164,237.087 909.508,211.107 890.257,186.288 869.484,162.726 847.274,140.516 823.712,119.743 798.893,100.492 772.913,82.836 745.877,66.8467 717.89,52.5865 689.062,40.1118 659.508,29.4717 629.345,20.7084 598.691,13.8564 567.667,8.94265 536.395,5.98664 505,5 473.605,5.98664 442.333,8.94265 411.309,13.8564 380.655,20.7084 350.492,29.4717 320.938,40.1118 292.11,52.5865 264.123,66.8467 237.087,82.836 211.107,100.492 186.288,119.743 162.726,140.516 140.516,162.726 119.743,186.288 100.492,211.107 82.836,237.087 66.8467,264.123 52.5865,292.11 40.1118,320.938 29.4717,350.492 20.7084,380.655 13.8564,411.309 8.94265,442.333 5.98664,473.605 5,505 5.98664,536.395 8.94265,567.667 13.8564,598.691 20.7084,629.345 29.4717,659.508 40.1118,689.062 52.5865,717.89 66.8467,745.877 82.836,772.913 100.492,798.893 119.743,823.712 140.516,847.274 162.726,869.484 186.288,890.257 211.107,909.508 237.087,927.164 264.123,943.153 292.11,957.414 320.938,969.888 350.492,980.528 380.655,989.292 411.309,996.144 442.333,1001.06 473.605,1004.01 505,1005 536.395,1004.01 567.667,1001.06 598.691,996.144 629.345,989.292 659.508,980.528 689.062,969.888 717.89,957.414 745.877,943.153 772.913,927.164 798.893,909.508 823.712,890.257 847.274,869.484 869.484,847.274 890.257,823.712 909.508,798.893 927.164,772.913 943.153,745.877 957.414,717.89 969.888,689.062 980.528,659.508 989.292,629.345 996.144,598.691 1001.06,567.667 1004.01,536.395" transform="rotate(0 5 5)" fill="purple" stroke="black" stroke-width="0.5" />
<polygon points="1009,509 1008.01,477.605 1005.06,446.333 1000.14,415.309 993.292,384.655 984.528,354.492 973.888,324.938 961.414,296.11 947.153,268.123 931.164,241.087 913.508,215.107 894.257,190.288 873.484,166.726 851.274,144.516 827.712,123.743 802.893,104.492 776.913,86.836 749.877,70.8467 721.89,56.5865 693.062,44.1118 663.508,33.4717 633.345,24.7084 602.691,17.8564 571.667,12.9426 540.395,9.98664 509,9 477.605,9.98664 446.333,12.9426 415.309,17.8564 384.655,24.7084 354.492,33.4717 324.938,44.1118 296.11,56.5865 268.123,70.8467 241.087,86.836 215.107,104.492 190.288,123.743 166.726,144.516 144.516,166.726 123.743,190.288 104.492,215.107 86.836,241.087 70.8467,268.123 56.5865,296.11 44.1118,324.938 33.4717,354.492 24.7084,384.655 17.8564,415.309 12.9426,446.333 9.98664,477.605 9,509 9.98664,540.395 12.9426,571.667 17.8564,602.691 24.7084,633.345 33.4717,663.508 44.1118,693.062 56.5865,721.89 70.8467,749.877 86.836,776.913 104.492,802.893 123.743,827.712 144.516,851.274 166.726,873.484 190.288,894.257 215.107,913.508 241.087,931.164 268.123,947.153 296.11,961.414 324.938,973.888 354.492,984.528 384.655,993.292 415.309,1000.14 446.333,1005.06 477.605,1008.01 509,1009 540.395,1008.01 571.667,1005.06 602.691,1000.14 633.345,993.292 663.508,984.528 693.062,973.888 721.89,961.414 749.877,947.153 776.913,931.164 802.893,913.508 827.712,894.257 851.274,873.484 873.484,851.274 894.257,827.712 913.508,802.893 931.164,776.913 947.153,749.877 961.414,721.89 973.888,693.062 984.528,663.508 993.292,633.345 1000.14,602.691 1005.06,571.667 1008.01,540.395" transform="rotate(0 5 5)" fill="purple" stroke="black" stroke-width="0.5" />
</svg>
