<svg version="1.1" baseProfile="full" xmlns="http://www.w3.org/2000/svg">
<polygon points="290,40 40,473.013 540,473.013" transform="rotate(0 40 40)" fill="purple" stroke="black" stroke-width="0.5" />
<polygon points="290,40 270,74.641 310,74.641" transform="rotate(0 7 7)" fill="green" stroke="black" stroke-width="0.5" />
<polygon points="290,109.282 270,74.641 310,74.641" transform="rotate(0 7 7)" fill="green" stroke="black" stroke-width="0.5" />
<polygon points="270,74.641 250,109.282 290,109.282" transform="rotate(0 7 7)" fill="green" stroke="black" stroke-width="0.5" />
<polygon points="270,143.923 250,109.282 290,109.282" transform="rotate(0 7 7)" fill="green" stroke="black" stroke-width="0.5" />
<polygon points="310,74.641 290,109.282 330,109.282" transform="rotate(0 7 7)" fill="green" stroke="black" stroke-width="0.5" />
<polygon points="310,143.923 290,109.282 330,109.282" transform="rotate(0 7 7)" fill="green" stroke="black" stroke-width="0.5" />
<polygon points="250,109.282 230,143.923 270,143.923" transform="rotate(0 7 7)" fill="green" stroke="black" stroke-width="0.5" />
<polygon points="250,178.564 230,143.923 270,143.923" transform="rotate(0 7 7)" fill="green" stroke="black" stroke-width="0.5" />
<polygon points="290,109.282 270,143.923 310,143.923" transform="rotate(0 7 7)" fill="green" stroke="black" stroke-width="0.5" />
<polygon points="290,178.564 270,143.923 310,143.923" transform="rotate(0 7 7)" fill="green" stroke="black" stroke-width="0.5" />
<polygon points="330,109.282 310,143.923 350,143.923" transform="rotate(0 7 7)" fill="green" stroke="black" stroke-width="0.5" />
<polygon points="330,178.564 310,143.923 350,143.923" transform="rotate(0 7 7)" fill="green" stroke="black" stroke-width="0.5" />
<polygon points="230,143.923 210,178.564 250,178.564" transform="rotate(0 7 7)" fill="green" stroke="black" stroke-width="0.5" />
<polygon points="230,213.205 210,178.564 250,178.564" transform="rotate(0 7 7)" fill="green" stroke="black" stroke-width="0.5" />
<polygon points="270,143.923 250,178.564 290,178.564" transform="rotate(0 7 7)" fill="green" stroke="black" stroke-width="0.5" />
<polygon points="270,213.205 250,178.564 290,178.564" transform="rotate(0 7 7)" fill="green" stroke="black" stroke-width="0.5" />
<polygon points="310,143.923 290,178.564 330,178.564" transform="rotate(0 7 7)" fill="green" stroke="black" stroke-width="0.5" />
<polygon points="310,213.205 290,178.564 330,178.564" transform="rotate(0 7 7)" fill="green" stroke="black" stroke-width="0.5" />
<polygon points="350,143.923 330,178.564 370,178.564" transform="rotate(0 7 7)" fill="green" stroke="black" stroke-width="0.5" />
<polygon points="350,213.205 330,178.564 370,178.564" transform="rotate(0 7 7)" fill="green" stroke="black" stroke-width="0.5" />
<polygon points="210,178.564 190,213.205 230,213.205" transform="rotate(0 7 7)" fill="green" stroke="black" stroke-width="0.5" />
<polygon points="210,247.846 190,213.205 230,213.205" transform="rotate(0 7 7)" fill="green" stroke="black" stroke-width="0.5" />
<polygon points="250,178.564 230,213.205 270,213.205" transform="rotate(0 7 7)" fill="green" stroke="black" stroke-width="0.5" />
<polygon points="250,247.846 230,213.205 270,213.205" transform="rotate(0 7 7)" fill="green" stroke="black" stroke-width="0.5" />
<polygon points="290,178.564 270,213.205 310,213.205" transform="rotate(0 7 7)" fill="green" stroke="black" stroke-width="0.5" />
<polygon points="290,247.846 270,213.205 310,213.205" transform="rotate(0 7 7)" fill="green" stroke="black" stroke-width="0.5" />
<polygon points="330,178.564 310,213.205 350,213.205" transform="rotate(0 7 7)" fill="green" stroke="black" stroke-width="0.5" />
<polygon points="330,247.846 310,213.205 350,213.205" transform="rotate(0 7 7)" fill="green" stroke="black" stroke-width="0.5" />
<polygon points="370,178.564 350,213.205 390,213.205" transform="rotate(0 7 7)" fill="green" stroke="black" stroke-width="0.5" />
<polygon points="370,247.846 350,213.205 390,213.205" transform="rotate(0 7 7)" fill="green" stroke="black" stroke-width="0.5" />
<polygon points="190,213.205 170,247.846 210,247.846" transform="rotate(0 7 7)" fill="green" stroke="black" stroke-width="0.5" />
<polygon points="190,282.487 170,247.846 210,247.846" transform="rotate(0 7 7)" fill="green" stroke="black" stroke-width="0.5" />
<polygon points="230,213.205 210,247.846 250,247.846" transform="rotate(0 7 7)" fill="green" stroke="black" stroke-width="0.5" />
<polygon points="230,282.487 210,247.846 250,247.846" transform="rotate(0 7 7)" fill="green" stroke="black" stroke-width="0.5" />
<polygon points="270,213.205 250,247.846 290,247.846" transform="rotate(0 7 7)" fill="green" stroke="black" stroke-width="0.5" />
<polygon points="270,282.487 250,247.846 290,247.846" transform="rotate(0 7 7)" fill="green" stroke="black" stroke-width="0.5" />
<polygon points="310,213.205 290,247.846 330,247.846" transform="rotate(0 7 7)" fill="green" stroke="black" stroke-width="0.5" />
<polygon points="310,282.487 290,247.846 330,247.846" transform="rotate(0 7 7)" fill="green" stroke="black" stroke-width="0.5" />
<polygon points="350,213.205 330,247.846 370,247.846" transform="rotate(0 7 7)" fill="green" stroke="black" stroke-width="0.5" />
<polygon points="350,282.487 330,247.846 370,247.846" transform="rotate(0 7 7)" fill="green" stroke="black" stroke-width="0.5" />
<polygon points="390,213.205 370,247.846 410,247.846" transform="rotate(0 7 7)" fill="green" stroke="black" stroke-width="0.5" />
<polygon points="390,282.487 370,247.846 410,247.846" transform="rotate(0 7 7)" fill="green" stroke="black" stroke-width="0.5" />
<polygon points="170,247.846 150,282.487 190,282.487" transform="rotate(0 7 7)" fill="green" stroke="black" stroke-width="0.5" />
<polygon points="170,317.128 150,282.487 190,282.487" transform="rotate(0 7 7)" fill="green" stroke="black" stroke-width="0.5" />
<polygon points="210,247.846 190,282.487 230,282.487" transform="rotate(0 7 7)" fill="green" stroke="black" stroke-width="0.5" />
<polygon points="210,317.128 190,282.487 230,282.487" transform="rotate(0 7 7)" fill="green" stroke="black" stroke-width="0.5" />
<polygon points="250,247.846 230,282.487 270,282.487" transform="rotate(0 7 7)" fill="green" stroke="black" stroke-width="0.5" />
<polygon points="250,317.128 230,282.487 270,282.487" transform="rotate(0 7 7)" fill="green" stroke="black" stroke-width="0.5" />
<polygon points="290,247.846 270,282.487 310,282.487" transform="rotate(0 7 7)" fill="green" stroke="black" stroke-width="0.5" />
<polygon points="290,317.128 270,282.487 310,282.487" transform="rotate(0 7 7)" fill="green" stroke="black" stroke-width="0.5" />
<polygon points="330,247.846 310,282.487 350,282.487" transform="rotate(0 7 7)" fill="green" stroke="black" stroke-width="0.5" />
<polygon points="330,317.128 310,282.487 350,282.487" transform="rotate(0 7 7)" fill="green" stroke="black" stroke-width="0.5" />
<polygon points="370,247.846 350,282.487 390,282.487" transform="rotate(0 7 7)" fill="green" stroke="black" stroke-width="0.5" />
<polygon points="370,317.128 350,282.487 390,282.487" transform="rotate(0 7 7)" fill="green" stroke="black" stroke-width="0.5" />
<polygon points="410,247.846 390,282.487 430,282.487" transform="rotate(0 7 7)" fill="green" stroke="black" stroke-width="0.5" />
<polygon points="410,317.128 390,282.487 430,282.487" transform="rotate(0 7 7)" fill="green" stroke="black" stroke-width="0.5" />
<polygon points="150,282.487 130,317.128 170,317.128" transform="rotate(0 7 7)" fill="green" stroke="black" stroke-width="0.5" />
<polygon points="150,351.769 130,317.128 170,317.128" transform="rotate(0 7 7)" fill="green" stroke="black" stroke-width="0.5" />
<polygon points="190,282.487 170,317.128 210,317.128" transform="rotate(0 7 7)" fill="green" stroke="black" stroke-width="0.5" />
<polygon points="190,351.769 170,317.128 210,317.128" transform="rotate(0 7 7)" fill="green" stroke="black" stroke-width="0.5" />
<polygon points="230,282.487 210,317.128 250,317.128" transform="rotate(0 7 7)" fill="green" stroke="black" stroke-width="0.5" />
<polygon points="230,351.769 210,317.128 250,317.128" transform="rotate(0 7 7)" fill="green" stroke="black" stroke-width="0.5" />
<polygon points="270,282.487 250,317.128 290,317.128" transform="rotate(0 7 7)" fill="green" stroke="black" stroke-width="0.5" />
<polygon points="270,351.769 250,317.128 290,317.128" transform="rotate(0 7 7)" fill="green" stroke="black" stroke-width="0.5" />
<polygon points="310,282.487 290,317.128 330,317.128" transform="rotate(0 7 7)" fill="green" stroke="black" stroke-width="0.5" />
<polygon points="310,351.769 290,317.128 330,317.128" transform="rotate(0 7 7)" fill="green" stroke="black" stroke-width="0.5" />
<polygon points="350,282.487 330,317.128 370,317.128" transform="rotate(0 7 7)" fill="green" stroke="black" stroke-width="0.5" />
<polygon points="350,351.769 330,317.128 370,317.128" transform="rotate(0 7 7)" fill="green" stroke="black" stroke-width="0.5" />
<polygon points="390,282.487 370,317.128 410,317.128" transform="rotate(0 7 7)" fill="green" stroke="black" stroke-width="0.5" />
<polygon points="390,351.769 370,317.128 410,317.128" transform="rotate(0 7 7)" fill="green" stroke="black" stroke-width="0.5" />
<polygon points="430,282.487 410,317.128 450,317.128" transform="rotate(0 7 7)" fill="green" stroke="black" stroke-width="0.5" />
<polygon points="430,351.769 410,317.128 450,317.128" transform="rotate(0 7 7)" fill="green" stroke="black" stroke-width="0.5" />
<polygon points="130,317.128 110,351.769 150,351.769" transform="rotate(0 7 7)" fill="green" stroke="black" stroke-width="0.5" />
<polygon points="130,386.41 110,351.769 150,351.769" transform="rotate(0 7 7)" fill="green" stroke="black" stroke-width="0.5" />
<polygon points="170,317.128 150,351.769 190,351.769" transform="rotate(0 7 7)" fill="green" stroke="black" stroke-width="0.5" />
<polygon points="170,386.41 150,351.769 190,351.769" transform="rotate(0 7 7)" fill="green" stroke="black" stroke-width="0.5" />
<polygon points="210,317.128 190,351.769 230,351.769" transform="rotate(0 7 7)" fill="green" stroke="black" stroke-width="0.5" />
<polygon points="210,386.41 190,351.769 230,351.769" transform="rotate(0 7 7)" fill="green" stroke="black" stroke-width="0.5" />
<polygon points="250,317.128 230,351.769 270,351.769" transform="rotate(0 7 7)" fill="green" stroke="black" stroke-width="0.5" />
<polygon points="250,386.41 230,351.769 270,351.769" transform="rotate(0 7 7)" fill="green" stroke="black" stroke-width="0.5" />
<polygon points="290,317.128 270,351.769 310,351.769" transform="rotate(0 7 7)" fill="green" stroke="black" stroke-width="0.5" />
<polygon points="290,386.41 270,351.769 310,351.769" transform="rotate(0 7 7)" fill="green" stroke="black" stroke-width="0.5" />
<polygon points="330,317.128 310,351.769 350,351.769" transform="rotate(0 7 7)" fill="green" stroke="black" stroke-width="0.5" />
<polygon points="330,386.41 310,351.769 350,351.769" transform="rotate(0 7 7)" fill="green" stroke="black" stroke-width="0.5" />
<polygon points="370,317.128 350,351.769 390,351.769" transform="rotate(0 7 7)" fill="green" stroke="black" stroke-width="0.5" />
<polygon points="370,386.41 350,351.769 390,351.769" transform="rotate(0 7 7)" fill="green" stroke="black" stroke-width="0.5" />
<polygon points="410,317.128 390,351.769 430,351.769" transform="rotate(0 7 7)" fill="green" stroke="black" stroke-width="0.5" />
<polygon points="410,386.41 390,351.769 430,351.769" transform="rotate(0 7 7)" fill="green" stroke="black" stroke-width="0.5" />
<polygon points="450,317.128 430,351.769 470,351.769" transform="rotate(0 7 7)" fill="green" stroke="black" stroke-width="0.5" />
<polygon points="450,386.41 430,351.769 470,351.769" transform="rotate(0 7 7)" fill="green" stroke="black" stroke-width="0.5" />
<polygon points="110,351.769 90,386.41 130,386.41" transform="rotate(0 7 7)" fill="green" stroke="black" stroke-width="0.5" />
<polygon points="110,421.051 90,386.41 130,386.41" transform="rotate(0 7 7)" fill="green" stroke="black" stroke-width="0.5" />
<polygon points="150,351.769 130,386.41 170,386.41" transform="rotate(0 7 7)" fill="green" stroke="black" stroke-width="0.5" />
<polygon points="150,421.051 130,386.41 170,386.41" transform="rotate(0 7 7)" fill="green" stroke="black" stroke-width="0.5" />
<polygon points="190,351.769 170,386.41 210,386.41" transform="rotate(0 7 7)" fill="green" stroke="black" stroke-width="0.5" />
<polygon points="190,421.051 170,386.41 210,386.41" transform="rotate(0 7 7)" fill="green" stroke="black" stroke-width="0.5" />
<polygon points="230,351.769 210,386.41 250,386.41" transform="rotate(0 7 7)" fill="green" stroke="black" stroke-width="0.5" />
<polygon points="230,421.051 210,386.41 250,386.41" transform="rotate(0 7 7)" fill="green" stroke="black" stroke-width="0.5" />
<polygon points="270,351.769 250,386.41 290,386.41" transform="rotate(0 7 7)" fill="green" stroke="black" stroke-width="0.5" />
<polygon points="270,421.051 250,386.41 290,386.41" transform="rotate(0 7 7)" fill="green" stroke="black" stroke-width="0.5" />
<polygon points="310,351.769 290,386.41 330,386.41" transform="rotate(0 7 7)" fill="green" stroke="black" stroke-width="0.5" />
<polygon points="310,421.051 290,386.41 330,386.41" transform="rotate(0 7 7)" fill="green" stroke="black" stroke-width="0.5" />
<polygon points="350,351.769 330,386.41 370,386.41" transform="rotate(0 7 7)" fill="green" stroke="black" stroke-width="0.5" />
<polygon points="350,421.051 330,386.41 370,386.41" transform="rotate(0 7 7)" fill="green" stroke="black" stroke-width="0.5" />
<polygon points="390,351.769 370,386.41 410,386.41" transform="rotate(0 7 7)" fill="green" stroke="black" stroke-width="0.5" />
<polygon points="390,421.051 370,386.41 410,386.41" transform="rotate(0 7 7)" fill="green" stroke="black" stroke-width="0.5" />
<polygon points="430,351.769 410,386.41 450,386.41" transform="rotate(0 7 7)" fill="green" stroke="black" stroke-width="0.5" />
<polygon points="430,421.051 410,386.41 450,386.41" transform="rotate(0 7 7)" fill="green" stroke="black" stroke-width="0.5" />
<polygon points="470,351.769 450,386.41 490,386.41" transform="rotate(0 7 7)" fill="green" stroke="black" stroke-width="0.5" />
<polygon points="470,421.051 450,386.41 490,386.41" transform="rotate(0 7 7)" fill="green" stroke="black" stroke-width="0.5" />
<polygon points="90,386.41 70,421.051 110,421.051" transform="rotate(0 7 7)" fill="green" stroke="black" stroke-width="0.5" />
<polygon points="90,455.692 70,421.051 110,421.051" transform="rotate(0 7 7)" fill="green" stroke="black" stroke-width="0.5" />
<polygon points="130,386.41 110,421.051 150,421.051" transform="rotate(0 7 7)" fill="green" stroke="black" stroke-width="0.5" />
<polygon points="130,455.692 110,421.051 150,421.051" transform="rotate(0 7 7)" fill="green" stroke="black" stroke-width="0.5" />
<polygon points="170,386.41 150,421.051 190,421.051" transform="rotate(0 7 7)" fill="green" stroke="black" stroke-width="0.5" />
<polygon points="170,455.692 150,421.051 190,421.051" transform="rotate(0 7 7)" fill="green" stroke="black" stroke-width="0.5" />
<polygon points="210,386.41 190,421.051 230,421.051" transform="rotate(0 7 7)" fill="green" stroke="black" stroke-width="0.5" />
<polygon points="210,455.692 190,421.051 230,421.051" transform="rotate(0 7 7)" fill="green" stroke="black" stroke-width="0.5" />
<polygon points="250,386.41 230,421.051 270,421.051" transform="rotate(0 7 7)" fill="green" stroke="black" stroke-width="0.5" />
<polygon points="250,455.692 230,421.051 270,421.051" transform="rotate(0 7 7)" fill="green" stroke="black" stroke-width="0.5" />
<polygon points="290,386.41 270,421.051 310,421.051" transform="rotate(0 7 7)" fill="green" stroke="black" stroke-width="0.5" />
<polygon points="290,455.692 270,421.051 310,421.051" transform="rotate(0 7 7)" fill="green" stroke="black" stroke-width="0.5" />
<polygon points="330,386.41 310,421.051 350,421.051" transform="rotate(0 7 7)" fill="green" stroke="black" stroke-width="0.5" />
<polygon points="330,455.692 310,421.051 350,421.051" transform="rotate(0 7 7)" fill="green" stroke="black" stroke-width="0.5" />
<polygon points="370,386.41 350,421.051 390,421.051" transform="rotate(0 7 7)" fill="green" stroke="black" stroke-width="0.5" />
<polygon points="370,455.692 350,421.051 390,421.051" transform="rotate(0 7 7)" fill="green" stroke="black" stroke-width="0.5" />
<polygon points="410,386.41 390,421.051 430,421.051" transform="rotate(0 7 7)" fill="green" stroke="black" stroke-width="0.5" />
<polygon points="410,455.692 390,421.051 430,421.051" transform="rotate(0 7 7)" fill="green" stroke="black" stroke-width="0.5" />
<polygon points="450,386.41 430,421.051 470,421.051" transform="rotate(0 7 7)" fill="green" stroke="black" stroke-width="0.5" />
<polygon points="450,455.692 430,421.051 470,421.051" transform="rotate(0 7 7)" fill="green" stroke="black" stroke-width="0.5" />
<polygon points="490,386.41 470,421.051 510,421.051" transform="rotate(0 7 7)" fill="green" stroke="black" stroke-width="0.5" />
<polygon points="490,455.692 470,421.051 510,421.051" transform="rotate(0 7 7)" fill="green" stroke="black" stroke-width="0.5" />
<polygon points="70,421.051 50,455.692 90,455.692" transform="rotate(0 7 7)" fill="green" stroke="black" stroke-width="0.5" />
<polygon points="110,421.051 90,455.692 130,455.692" transform="rotate(0 7 7)" fill="green" stroke="black" stroke-width="0.5" />
<polygon points="150,421.051 130,455.692 170,455.692" transform="rotate(0 7 7)" fill="green" stroke="black" stroke-width="0.5" />
<polygon points="190,421.051 170,455.692 210,455.692" transform="rotate(0 7 7)" fill="green" stroke="black" stroke-width="0.5" />
<polygon points="230,421.051 210,455.692 250,455.692" transform="rotate(0 7 7)" fill="green" stroke="black" stroke-width="0.5" />
<polygon points="270,421.051 250,455.692 290,455.692" transform="rotate(0 7 7)" fill="green" stroke="black" stroke-width="0.5" />
<polygon points="310,421.051 290,455.692 330,455.692" transform="rotate(0 7 7)" fill="green" stroke="black" stroke-width="0.5" />
<polygon points="350,421.051 330,455.692 370,455.692" transform="rotate(0 7 7)" fill="green" stroke="black" stroke-width="0.5" />
<polygon points="390,421.051 370,455.692 410,455.692" transform="rotate(0 7 7)" fill="green" stroke="black" stroke-width="0.5" />
<polygon points="430,421.051 410,455.692 450,455.692" transform="rotate(0 7 7)" fill="green" stroke="black" stroke-width="0.5" />
<polygon points="470,421.051 450,455.692 490,455.692" transform="rotate(0 7 7)" fill="green" stroke="black" stroke-width="0.5" />
<polygon points="510,421.051 490,455.692 530,455.692" transform="rotate(0 7 7)" fill="green" stroke="black" stroke-width="0.5" />
</svg>
