<svg version="1.1" baseProfile="full" xmlns="http://www.w3.org/2000/svg">
<rect x="14"  y="14" width="750" height="500" transform="rotate(0 14 14)" fill="red" stroke="black" stroke-width="0.5" />
<rect x="14"  y="14" width="60" height="20" transform="rotate(0 7 7)" fill="yellow" stroke="black" stroke-width="0.5" />
<rect x="74"  y="14" width="60" height="20" transform="rotate(0 7 7)" fill="yellow" stroke="black" stroke-width="0.5" />
<rect x="134"  y="14" width="60" height="20" transform="rotate(0 7 7)" fill="yellow" stroke="black" stroke-width="0.5" />
<rect x="194"  y="14" width="60" height="20" transform="rotate(0 7 7)" fill="yellow" stroke="black" stroke-width="0.5" />
<rect x="254"  y="14" width="60" height="20" transform="rotate(0 7 7)" fill="yellow" stroke="black" stroke-width="0.5" />
<rect x="314"  y="14" width="60" height="20" transform="rotate(0 7 7)" fill="yellow" stroke="black" stroke-width="0.5" />
<rect x="374"  y="14" width="60" height="20" transform="rotate(0 7 7)" fill="yellow" stroke="black" stroke-width="0.5" />
<rect x="434"  y="14" width="60" height="20" transform="rotate(0 7 7)" fill="yellow" stroke="black" stroke-width="0.5" />
<rect x="494"  y="14" width="60" height="20" transform="rotate(0 7 7)" fill="yellow" stroke="black" stroke-width="0.5" />
<rect x="554"  y="14" width="60" height="20" transform="rotate(0 7 7)" fill="yellow" stroke="black" stroke-width="0.5" />
<rect x="614"  y="14" width="60" height="20" transform="rotate(0 7 7)" fill="yellow" stroke="black" stroke-width="0.5" />
<rect x="674"  y="14" width="60" height="20" transform="rotate(0 7 7)" fill="yellow" stroke="black" stroke-width="0.5" />
<rect x="14"  y="34" width="60" height="20" transform="rotate(0 7 7)" fill="yellow" stroke="black" stroke-width="0.5" />
<rect x="74"  y="34" width="60" height="20" transform="rotate(0 7 7)" fill="yellow" stroke="black" stroke-width="0.5" />
<rect x="134"  y="34" width="60" height="20" transform="rotate(0 7 7)" fill="yellow" stroke="black" stroke-width="0.5" />
<rect x="194"  y="34" width="60" height="20" transform="rotate(0 7 7)" fill="yellow" stroke="black" stroke-width="0.5" />
<rect x="254"  y="34" width="60" height="20" transform="rotate(0 7 7)" fill="yellow" stroke="black" stroke-width="0.5" />
<rect x="314"  y="34" width="60" height="20" transform="rotate(0 7 7)" fill="yellow" stroke="black" stroke-width="0.5" />
<rect x="374"  y="34" width="60" height="20" transform="rotate(0 7 7)" fill="yellow" stroke="black" stroke-width="0.5" />
<rect x="434"  y="34" width="60" height="20" transform="rotate(0 7 7)" fill="yellow" stroke="black" stroke-width="0.5" />
<rect x="494"  y="34" width="60" height="20" transform="rotate(0 7 7)" fill="yellow" stroke="black" stroke-width="0.5" />
<rect x="554"  y="34" width="60" height="20" transform="rotate(0 7 7)" fill="yellow" stroke="black" stroke-width="0.5" />
<rect x="614"  y="34" width="60" height="20" transform="rotate(0 7 7)" fill="yellow" stroke="black" stroke-width="0.5" />
<rect x="674"  y="34" width="60" height="20" transform="rotate(0 7 7)" fill="yellow" stroke="black" stroke-width="0.5" />
<rect x="14"  y="54" width="60" height="20" transform="rotate(0 7 7)" fill="yellow" stroke="black" stroke-width="0.5" />
<rect x="74"  y="54" width="60" height="20" transform="rotate(0 7 7)" fill="yellow" stroke="black" stroke-width="0.5" />
<rect x="134"  y="54" width="60" height="20" transform="rotate(0 7 7)" fill="yellow" stroke="black" stroke-width="0.5" />
<rect x="194"  y="54" width="60" height="20" transform="rotate(0 7 7)" fill="yellow" stroke="black" stroke-width="0.5" />
<rect x="254"  y="54" width="60" height="20" transform="rotate(0 7 7)" fill="yellow" stroke="black" stroke-width="0.5" />
<rect x="314"  y="54" width="60" height="20" transform="rotate(0 7 7)" fill="yellow" stroke="black" stroke-width="0.5" />
<rect x="374"  y="54" width="60" height="20" transform="rotate(0 7 7)" fill="yellow" stroke="black" stroke-width="0.5" />
<rect x="434"  y="54" width="60" height="20" transform="rotate(0 7 7)" fill="yellow" stroke="black" stroke-width="0.5" />
<rect x="494"  y="54" width="60" height="20" transform="rotate(0 7 7)" fill="yellow" stroke="black" stroke-width="0.5" />
<rect x="554"  y="54" width="60" height="20" transform="rotate(0 7 7)" fill="yellow" stroke="black" stroke-width="0.5" />
<rect x="614"  y="54" width="60" height="20" transform="rotate(0 7 7)" fill="yellow" stroke="black" stroke-width="0.5" />
<rect x="674"  y="54" width="60" height="20" transform="rotate(0 7 7)" fill="yellow" stroke="black" stroke-width="0.5" />
<rect x="14"  y="74" width="60" height="20" transform="rotate(0 7 7)" fill="yellow" stroke="black" stroke-width="0.5" />
<rect x="74"  y="74" width="60" height="20" transform="rotate(0 7 7)" fill="yellow" stroke="black" stroke-width="0.5" />
<rect x="134"  y="74" width="60" height="20" transform="rotate(0 7 7)" fill="yellow" stroke="black" stroke-width="0.5" />
<rect x="194"  y="74" width="60" height="20" transform="rotate(0 7 7)" fill="yellow" stroke="black" stroke-width="0.5" />
<rect x="254"  y="74" width="60" height="20" transform="rotate(0 7 7)" fill="yellow" stroke="black" stroke-width="0.5" />
<rect x="314"  y="74" width="60" height="20" transform="rotate(0 7 7)" fill="yellow" stroke="black" stroke-width="0.5" />
<rect x="374"  y="74" width="60" height="20" transform="rotate(0 7 7)" fill="yellow" stroke="black" stroke-width="0.5" />
<rect x="434"  y="74" width="60" height="20" transform="rotate(0 7 7)" fill="yellow" stroke="black" stroke-width="0.5" />
<rect x="494"  y="74" width="60" height="20" transform="rotate(0 7 7)" fill="yellow" stroke="black" stroke-width="0.5" />
<rect x="554"  y="74" width="60" height="20" transform="rotate(0 7 7)" fill="yellow" stroke="black" stroke-width="0.5" />
<rect x="614"  y="74" width="60" height="20" transform="rotate(0 7 7)" fill="yellow" stroke="black" stroke-width="0.5" />
<rect x="674"  y="74" width="60" height="20" transform="rotate(0 7 7)" fill="yellow" stroke="black" stroke-width="0.5" />
<rect x="14"  y="94" width="60" height="20" transform="rotate(0 7 7)" fill="yellow" stroke="black" stroke-width="0.5" />
<rect x="74"  y="94" width="60" height="20" transform="rotate(0 7 7)" fill="yellow" stroke="black" stroke-width="0.5" />
<rect x="134"  y="94" width="60" height="20" transform="rotate(0 7 7)" fill="yellow" stroke="black" stroke-width="0.5" />
<rect x="194"  y="94" width="60" height="20" transform="rotate(0 7 7)" fill="yellow" stroke="black" stroke-width="0.5" />
<rect x="254"  y="94" width="60" height="20" transform="rotate(0 7 7)" fill="yellow" stroke="black" stroke-width="0.5" />
<rect x="314"  y="94" width="60" height="20" transform="rotate(0 7 7)" fill="yellow" stroke="black" stroke-width="0.5" />
<rect x="374"  y="94" width="60" height="20" transform="rotate(0 7 7)" fill="yellow" stroke="black" stroke-width="0.5" />
<rect x="434"  y="94" width="60" height="20" transform="rotate(0 7 7)" fill="yellow" stroke="black" stroke-width="0.5" />
<rect x="494"  y="94" width="60" height="20" transform="rotate(0 7 7)" fill="yellow" stroke="black" stroke-width="0.5" />
<rect x="554"  y="94" width="60" height="20" transform="rotate(0 7 7)" fill="yellow" stroke="black" stroke-width="0.5" />
<rect x="614"  y="94" width="60" height="20" transform="rotate(0 7 7)" fill="yellow" stroke="black" stroke-width="0.5" />
<rect x="674"  y="94" width="60" height="20" transform="rotate(0 7 7)" fill="yellow" stroke="black" stroke-width="0.5" />
<rect x="14"  y="114" width="60" height="20" transform="rotate(0 7 7)" fill="yellow" stroke="black" stroke-width="0.5" />
<rect x="74"  y="114" width="60" height="20" transform="rotate(0 7 7)" fill="yellow" stroke="black" stroke-width="0.5" />
<rect x="134"  y="114" width="60" height="20" transform="rotate(0 7 7)" fill="yellow" stroke="black" stroke-width="0.5" />
<rect x="194"  y="114" width="60" height="20" transform="rotate(0 7 7)" fill="yellow" stroke="black" stroke-width="0.5" />
<rect x="254"  y="114" width="60" height="20" transform="rotate(0 7 7)" fill="yellow" stroke="black" stroke-width="0.5" />
<rect x="314"  y="114" width="60" height="20" transform="rotate(0 7 7)" fill="yellow" stroke="black" stroke-width="0.5" />
<rect x="374"  y="114" width="60" height="20" transform="rotate(0 7 7)" fill="yellow" stroke="black" stroke-width="0.5" />
<rect x="434"  y="114" width="60" height="20" transform="rotate(0 7 7)" fill="yellow" stroke="black" stroke-width="0.5" />
<rect x="494"  y="114" width="60" height="20" transform="rotate(0 7 7)" fill="yellow" stroke="black" stroke-width="0.5" />
<rect x="554"  y="114" width="60" height="20" transform="rotate(0 7 7)" fill="yellow" stroke="black" stroke-width="0.5" />
<rect x="614"  y="114" width="60" height="20" transform="rotate(0 7 7)" fill="yellow" stroke="black" stroke-width="0.5" />
<rect x="674"  y="114" width="60" height="20" transform="rotate(0 7 7)" fill="yellow" stroke="black" stroke-width="0.5" />
<rect x="14"  y="134" width="60" height="20" transform="rotate(0 7 7)" fill="yellow" stroke="black" stroke-width="0.5" />
<rect x="74"  y="134" width="60" height="20" transform="rotate(0 7 7)" fill="yellow" stroke="black" stroke-width="0.5" />
<rect x="134"  y="134" width="60" height="20" transform="rotate(0 7 7)" fill="yellow" stroke="black" stroke-width="0.5" />
<rect x="194"  y="134" width="60" height="20" transform="rotate(0 7 7)" fill="yellow" stroke="black" stroke-width="0.5" />
<rect x="254"  y="134" width="60" height="20" transform="rotate(0 7 7)" fill="yellow" stroke="black" stroke-width="0.5" />
<rect x="314"  y="134" width="60" height="20" transform="rotate(0 7 7)" fill="yellow" stroke="black" stroke-width="0.5" />
<rect x="374"  y="134" width="60" height="20" transform="rotate(0 7 7)" fill="yellow" stroke="black" stroke-width="0.5" />
<rect x="434"  y="134" width="60" height="20" transform="rotate(0 7 7)" fill="yellow" stroke="black" stroke-width="0.5" />
<rect x="494"  y="134" width="60" height="20" transform="rotate(0 7 7)" fill="yellow" stroke="black" stroke-width="0.5" />
<rect x="554"  y="134" width="60" height="20" transform="rotate(0 7 7)" fill="yellow" stroke="black" stroke-width="0.5" />
<rect x="614"  y="134" width="60" height="20" transform="rotate(0 7 7)" fill="yellow" stroke="black" stroke-width="0.5" />
<rect x="674"  y="134" width="60" height="20" transform="rotate(0 7 7)" fill="yellow" stroke="black" stroke-width="0.5" />
<rect x="14"  y="154" width="60" height="20" transform="rotate(0 7 7)" fill="yellow" stroke="black" stroke-width="0.5" />
<rect x="74"  y="154" width="60" height="20" transform="rotate(0 7 7)" fill="yellow" stroke="black" stroke-width="0.5" />
<rect x="134"  y="154" width="60" height="20" transform="rotate(0 7 7)" fill="yellow" stroke="black" stroke-width="0.5" />
<rect x="194"  y="154" width="60" height="20" transform="rotate(0 7 7)" fill="yellow" stroke="black" stroke-width="0.5" />
<rect x="254"  y="154" width="60" height="20" transform="rotate(0 7 7)" fill="yellow" stroke="black" stroke-width="0.5" />
<rect x="314"  y="154" width="60" height="20" transform="rotate(0 7 7)" fill="yellow" stroke="black" stroke-width="0.5" />
<rect x="374"  y="154" width="60" height="20" transform="rotate(0 7 7)" fill="yellow" stroke="black" stroke-width="0.5" />
<rect x="434"  y="154" width="60" height="20" transform="rotate(0 7 7)" fill="yellow" stroke="black" stroke-width="0.5" />
<rect x="494"  y="154" width="60" height="20" transform="rotate(0 7 7)" fill="yellow" stroke="black" stroke-width="0.5" />
<rect x="554"  y="154" width="60" height="20" transform="rotate(0 7 7)" fill="yellow" stroke="black" stroke-width="0.5" />
<rect x="614"  y="154" width="60" height="20" transform="rotate(0 7 7)" fill="yellow" stroke="black" stroke-width="0.5" />
<rect x="674"  y="154" width="60" height="20" transform="rotate(0 7 7)" fill="yellow" stroke="black" stroke-width="0.5" />
<rect x="14"  y="174" width="60" height="20" transform="rotate(0 7 7)" fill="yellow" stroke="black" stroke-width="0.5" />
<rect x="74"  y="174" width="60" height="20" transform="rotate(0 7 7)" fill="yellow" stroke="black" stroke-width="0.5" />
<rect x="134"  y="174" width="60" height="20" transform="rotate(0 7 7)" fill="yellow" stroke="black" stroke-width="0.5" />
<rect x="194"  y="174" width="60" height="20" transform="rotate(0 7 7)" fill="yellow" stroke="black" stroke-width="0.5" />
<rect x="254"  y="174" width="60" height="20" transform="rotate(0 7 7)" fill="yellow" stroke="black" stroke-width="0.5" />
<rect x="314"  y="174" width="60" height="20" transform="rotate(0 7 7)" fill="yellow" stroke="black" stroke-width="0.5" />
<rect x="374"  y="174" width="60" height="20" transform="rotate(0 7 7)" fill="yellow" stroke="black" stroke-width="0.5" />
<rect x="434"  y="174" width="60" height="20" transform="rotate(0 7 7)" fill="yellow" stroke="black" stroke-width="0.5" />
<rect x="494"  y="174" width="60" height="20" transform="rotate(0 7 7)" fill="yellow" stroke="black" stroke-width="0.5" />
<rect x="554"  y="174" width="60" height="20" transform="rotate(0 7 7)" fill="yellow" stroke="black" stroke-width="0.5" />
<rect x="614"  y="174" width="60" height="20" transform="rotate(0 7 7)" fill="yellow" stroke="black" stroke-width="0.5" />
<rect x="674"  y="174" width="60" height="20" transform="rotate(0 7 7)" fill="yellow" stroke="black" stroke-width="0.5" />
<rect x="14"  y="194" width="60" height="20" transform="rotate(0 7 7)" fill="yellow" stroke="black" stroke-width="0.5" />
<rect x="74"  y="194" width="60" height="20" transform="rotate(0 7 7)" fill="yellow" stroke="black" stroke-width="0.5" />
<rect x="134"  y="194" width="60" height="20" transform="rotate(0 7 7)" fill="yellow" stroke="black" stroke-width="0.5" />
<rect x="194"  y="194" width="60" height="20" transform="rotate(0 7 7)" fill="yellow" stroke="black" stroke-width="0.5" />
<rect x="254"  y="194" width="60" height="20" transform="rotate(0 7 7)" fill="yellow" stroke="black" stroke-width="0.5" />
<rect x="314"  y="194" width="60" height="20" transform="rotate(0 7 7)" fill="yellow" stroke="black" stroke-width="0.5" />
<rect x="374"  y="194" width="60" height="20" transform="rotate(0 7 7)" fill="yellow" stroke="black" stroke-width="0.5" />
<rect x="434"  y="194" width="60" height="20" transform="rotate(0 7 7)" fill="yellow" stroke="black" stroke-width="0.5" />
<rect x="494"  y="194" width="60" height="20" transform="rotate(0 7 7)" fill="yellow" stroke="black" stroke-width="0.5" />
<rect x="554"  y="194" width="60" height="20" transform="rotate(0 7 7)" fill="yellow" stroke="black" stroke-width="0.5" />
<rect x="614"  y="194" width="60" height="20" transform="rotate(0 7 7)" fill="yellow" stroke="black" stroke-width="0.5" />
<rect x="674"  y="194" width="60" height="20" transform="rotate(0 7 7)" fill="yellow" stroke="black" stroke-width="0.5" />
<rect x="14"  y="214" width="60" height="20" transform="rotate(0 7 7)" fill="yellow" stroke="black" stroke-width="0.5" />
<rect x="74"  y="214" width="60" height="20" transform="rotate(0 7 7)" fill="yellow" stroke="black" stroke-width="0.5" />
<rect x="134"  y="214" width="60" height="20" transform="rotate(0 7 7)" fill="yellow" stroke="black" stroke-width="0.5" />
<rect x="194"  y="214" width="60" height="20" transform="rotate(0 7 7)" fill="yellow" stroke="black" stroke-width="0.5" />
<rect x="254"  y="214" width="60" height="20" transform="rotate(0 7 7)" fill="yellow" stroke="black" stroke-width="0.5" />
<rect x="314"  y="214" width="60" height="20" transform="rotate(0 7 7)" fill="yellow" stroke="black" stroke-width="0.5" />
<rect x="374"  y="214" width="60" height="20" transform="rotate(0 7 7)" fill="yellow" stroke="black" stroke-width="0.5" />
<rect x="434"  y="214" width="60" height="20" transform="rotate(0 7 7)" fill="yellow" stroke="black" stroke-width="0.5" />
<rect x="494"  y="214" width="60" height="20" transform="rotate(0 7 7)" fill="yellow" stroke="black" stroke-width="0.5" />
<rect x="554"  y="214" width="60" height="20" transform="rotate(0 7 7)" fill="yellow" stroke="black" stroke-width="0.5" />
<rect x="614"  y="214" width="60" height="20" transform="rotate(0 7 7)" fill="yellow" stroke="black" stroke-width="0.5" />
<rect x="674"  y="214" width="60" height="20" transform="rotate(0 7 7)" fill="yellow" stroke="black" stroke-width="0.5" />
<rect x="14"  y="234" width="60" height="20" transform="rotate(0 7 7)" fill="yellow" stroke="black" stroke-width="0.5" />
<rect x="74"  y="234" width="60" height="20" transform="rotate(0 7 7)" fill="yellow" stroke="black" stroke-width="0.5" />
<rect x="134"  y="234" width="60" height="20" transform="rotate(0 7 7)" fill="yellow" stroke="black" stroke-width="0.5" />
<rect x="194"  y="234" width="60" height="20" transform="rotate(0 7 7)" fill="yellow" stroke="black" stroke-width="0.5" />
<rect x="254"  y="234" width="60" height="20" transform="rotate(0 7 7)" fill="yellow" stroke="black" stroke-width="0.5" />
<rect x="314"  y="234" width="60" height="20" transform="rotate(0 7 7)" fill="yellow" stroke="black" stroke-width="0.5" />
<rect x="374"  y="234" width="60" height="20" transform="rotate(0 7 7)" fill="yellow" stroke="black" stroke-width="0.5" />
<rect x="434"  y="234" width="60" height="20" transform="rotate(0 7 7)" fill="yellow" stroke="black" stroke-width="0.5" />
<rect x="494"  y="234" width="60" height="20" transform="rotate(0 7 7)" fill="yellow" stroke="black" stroke-width="0.5" />
<rect x="554"  y="234" width="60" height="20" transform="rotate(0 7 7)" fill="yellow" stroke="black" stroke-width="0.5" />
<rect x="614"  y="234" width="60" height="20" transform="rotate(0 7 7)" fill="yellow" stroke="black" stroke-width="0.5" />
<rect x="674"  y="234" width="60" height="20" transform="rotate(0 7 7)" fill="yellow" stroke="black" stroke-width="0.5" />
<rect x="14"  y="254" width="60" height="20" transform="rotate(0 7 7)" fill="yellow" stroke="black" stroke-width="0.5" />
<rect x="74"  y="254" width="60" height="20" transform="rotate(0 7 7)" fill="yellow" stroke="black" stroke-width="0.5" />
<rect x="134"  y="254" width="60" height="20" transform="rotate(0 7 7)" fill="yellow" stroke="black" stroke-width="0.5" />
<rect x="194"  y="254" width="60" height="20" transform="rotate(0 7 7)" fill="yellow" stroke="black" stroke-width="0.5" />
<rect x="254"  y="254" width="60" height="20" transform="rotate(0 7 7)" fill="yellow" stroke="black" stroke-width="0.5" />
<rect x="314"  y="254" width="60" height="20" transform="rotate(0 7 7)" fill="yellow" stroke="black" stroke-width="0.5" />
<rect x="374"  y="254" width="60" height="20" transform="rotate(0 7 7)" fill="yellow" stroke="black" stroke-width="0.5" />
<rect x="434"  y="254" width="60" height="20" transform="rotate(0 7 7)" fill="yellow" stroke="black" stroke-width="0.5" />
<rect x="494"  y="254" width="60" height="20" transform="rotate(0 7 7)" fill="yellow" stroke="black" stroke-width="0.5" />
<rect x="554"  y="254" width="60" height="20" transform="rotate(0 7 7)" fill="yellow" stroke="black" stroke-width="0.5" />
<rect x="614"  y="254" width="60" height="20" transform="rotate(0 7 7)" fill="yellow" stroke="black" stroke-width="0.5" />
<rect x="674"  y="254" width="60" height="20" transform="rotate(0 7 7)" fill="yellow" stroke="black" stroke-width="0.5" />
<rect x="14"  y="274" width="60" height="20" transform="rotate(0 7 7)" fill="yellow" stroke="black" stroke-width="0.5" />
<rect x="74"  y="274" width="60" height="20" transform="rotate(0 7 7)" fill="yellow" stroke="black" stroke-width="0.5" />
<rect x="134"  y="274" width="60" height="20" transform="rotate(0 7 7)" fill="yellow" stroke="black" stroke-width="0.5" />
<rect x="194"  y="274" width="60" height="20" transform="rotate(0 7 7)" fill="yellow" stroke="black" stroke-width="0.5" />
<rect x="254"  y="274" width="60" height="20" transform="rotate(0 7 7)" fill="yellow" stroke="black" stroke-width="0.5" />
<rect x="314"  y="274" width="60" height="20" transform="rotate(0 7 7)" fill="yellow" stroke="black" stroke-width="0.5" />
<rect x="374"  y="274" width="60" height="20" transform="rotate(0 7 7)" fill="yellow" stroke="black" stroke-width="0.5" />
<rect x="434"  y="274" width="60" height="20" transform="rotate(0 7 7)" fill="yellow" stroke="black" stroke-width="0.5" />
<rect x="494"  y="274" width="60" height="20" transform="rotate(0 7 7)" fill="yellow" stroke="black" stroke-width="0.5" />
<rect x="554"  y="274" width="60" height="20" transform="rotate(0 7 7)" fill="yellow" stroke="black" stroke-width="0.5" />
<rect x="614"  y="274" width="60" height="20" transform="rotate(0 7 7)" fill="yellow" stroke="black" stroke-width="0.5" />
<rect x="674"  y="274" width="60" height="20" transform="rotate(0 7 7)" fill="yellow" stroke="black" stroke-width="0.5" />
<rect x="14"  y="294" width="60" height="20" transform="rotate(0 7 7)" fill="yellow" stroke="black" stroke-width="0.5" />
<rect x="74"  y="294" width="60" height="20" transform="rotate(0 7 7)" fill="yellow" stroke="black" stroke-width="0.5" />
<rect x="134"  y="294" width="60" height="20" transform="rotate(0 7 7)" fill="yellow" stroke="black" stroke-width="0.5" />
<rect x="194"  y="294" width="60" height="20" transform="rotate(0 7 7)" fill="yellow" stroke="black" stroke-width="0.5" />
<rect x="254"  y="294" width="60" height="20" transform="rotate(0 7 7)" fill="yellow" stroke="black" stroke-width="0.5" />
<rect x="314"  y="294" width="60" height="20" transform="rotate(0 7 7)" fill="yellow" stroke="black" stroke-width="0.5" />
<rect x="374"  y="294" width="60" height="20" transform="rotate(0 7 7)" fill="yellow" stroke="black" stroke-width="0.5" />
<rect x="434"  y="294" width="60" height="20" transform="rotate(0 7 7)" fill="yellow" stroke="black" stroke-width="0.5" />
<rect x="494"  y="294" width="60" height="20" transform="rotate(0 7 7)" fill="yellow" stroke="black" stroke-width="0.5" />
<rect x="554"  y="294" width="60" height="20" transform="rotate(0 7 7)" fill="yellow" stroke="black" stroke-width="0.5" />
<rect x="614"  y="294" width="60" height="20" transform="rotate(0 7 7)" fill="yellow" stroke="black" stroke-width="0.5" />
<rect x="674"  y="294" width="60" height="20" transform="rotate(0 7 7)" fill="yellow" stroke="black" stroke-width="0.5" />
<rect x="14"  y="314" width="60" height="20" transform="rotate(0 7 7)" fill="yellow" stroke="black" stroke-width="0.5" />
<rect x="74"  y="314" width="60" height="20" transform="rotate(0 7 7)" fill="yellow" stroke="black" stroke-width="0.5" />
<rect x="134"  y="314" width="60" height="20" transform="rotate(0 7 7)" fill="yellow" stroke="black" stroke-width="0.5" />
<rect x="194"  y="314" width="60" height="20" transform="rotate(0 7 7)" fill="yellow" stroke="black" stroke-width="0.5" />
<rect x="254"  y="314" width="60" height="20" transform="rotate(0 7 7)" fill="yellow" stroke="black" stroke-width="0.5" />
<rect x="314"  y="314" width="60" height="20" transform="rotate(0 7 7)" fill="yellow" stroke="black" stroke-width="0.5" />
<rect x="374"  y="314" width="60" height="20" transform="rotate(0 7 7)" fill="yellow" stroke="black" stroke-width="0.5" />
<rect x="434"  y="314" width="60" height="20" transform="rotate(0 7 7)" fill="yellow" stroke="black" stroke-width="0.5" />
<rect x="494"  y="314" width="60" height="20" transform="rotate(0 7 7)" fill="yellow" stroke="black" stroke-width="0.5" />
<rect x="554"  y="314" width="60" height="20" transform="rotate(0 7 7)" fill="yellow" stroke="black" stroke-width="0.5" />
<rect x="614"  y="314" width="60" height="20" transform="rotate(0 7 7)" fill="yellow" stroke="black" stroke-width="0.5" />
<rect x="674"  y="314" width="60" height="20" transform="rotate(0 7 7)" fill="yellow" stroke="black" stroke-width="0.5" />
<rect x="14"  y="334" width="60" height="20" transform="rotate(0 7 7)" fill="yellow" stroke="black" stroke-width="0.5" />
<rect x="74"  y="334" width="60" height="20" transform="rotate(0 7 7)" fill="yellow" stroke="black" stroke-width="0.5" />
<rect x="134"  y="334" width="60" height="20" transform="rotate(0 7 7)" fill="yellow" stroke="black" stroke-width="0.5" />
<rect x="194"  y="334" width="60" height="20" transform="rotate(0 7 7)" fill="yellow" stroke="black" stroke-width="0.5" />
<rect x="254"  y="334" width="60" height="20" transform="rotate(0 7 7)" fill="yellow" stroke="black" stroke-width="0.5" />
<rect x="314"  y="334" width="60" height="20" transform="rotate(0 7 7)" fill="yellow" stroke="black" stroke-width="0.5" />
<rect x="374"  y="334" width="60" height="20" transform="rotate(0 7 7)" fill="yellow" stroke="black" stroke-width="0.5" />
<rect x="434"  y="334" width="60" height="20" transform="rotate(0 7 7)" fill="yellow" stroke="black" stroke-width="0.5" />
<rect x="494"  y="334" width="60" height="20" transform="rotate(0 7 7)" fill="yellow" stroke="black" stroke-width="0.5" />
<rect x="554"  y="334" width="60" height="20" transform="rotate(0 7 7)" fill="yellow" stroke="black" stroke-width="0.5" />
<rect x="614"  y="334" width="60" height="20" transform="rotate(0 7 7)" fill="yellow" stroke="black" stroke-width="0.5" />
<rect x="674"  y="334" width="60" height="20" transform="rotate(0 7 7)" fill="yellow" stroke="black" stroke-width="0.5" />
<rect x="14"  y="354" width="60" height="20" transform="rotate(0 7 7)" fill="yellow" stroke="black" stroke-width="0.5" />
<rect x="74"  y="354" width="60" height="20" transform="rotate(0 7 7)" fill="yellow" stroke="black" stroke-width="0.5" />
<rect x="134"  y="354" width="60" height="20" transform="rotate(0 7 7)" fill="yellow" stroke="black" stroke-width="0.5" />
<rect x="194"  y="354" width="60" height="20" transform="rotate(0 7 7)" fill="yellow" stroke="black" stroke-width="0.5" />
<rect x="254"  y="354" width="60" height="20" transform="rotate(0 7 7)" fill="yellow" stroke="black" stroke-width="0.5" />
<rect x="314"  y="354" width="60" height="20" transform="rotate(0 7 7)" fill="yellow" stroke="black" stroke-width="0.5" />
<rect x="374"  y="354" width="60" height="20" transform="rotate(0 7 7)" fill="yellow" stroke="black" stroke-width="0.5" />
<rect x="434"  y="354" width="60" height="20" transform="rotate(0 7 7)" fill="yellow" stroke="black" stroke-width="0.5" />
<rect x="494"  y="354" width="60" height="20" transform="rotate(0 7 7)" fill="yellow" stroke="black" stroke-width="0.5" />
<rect x="554"  y="354" width="60" height="20" transform="rotate(0 7 7)" fill="yellow" stroke="black" stroke-width="0.5" />
<rect x="614"  y="354" width="60" height="20" transform="rotate(0 7 7)" fill="yellow" stroke="black" stroke-width="0.5" />
<rect x="674"  y="354" width="60" height="20" transform="rotate(0 7 7)" fill="yellow" stroke="black" stroke-width="0.5" />
<rect x="14"  y="374" width="60" height="20" transform="rotate(0 7 7)" fill="yellow" stroke="black" stroke-width="0.5" />
<rect x="74"  y="374" width="60" height="20" transform="rotate(0 7 7)" fill="yellow" stroke="black" stroke-width="0.5" />
<rect x="134"  y="374" width="60" height="20" transform="rotate(0 7 7)" fill="yellow" stroke="black" stroke-width="0.5" />
<rect x="194"  y="374" width="60" height="20" transform="rotate(0 7 7)" fill="yellow" stroke="black" stroke-width="0.5" />
<rect x="254"  y="374" width="60" height="20" transform="rotate(0 7 7)" fill="yellow" stroke="black" stroke-width="0.5" />
<rect x="314"  y="374" width="60" height="20" transform="rotate(0 7 7)" fill="yellow" stroke="black" stroke-width="0.5" />
<rect x="374"  y="374" width="60" height="20" transform="rotate(0 7 7)" fill="yellow" stroke="black" stroke-width="0.5" />
<rect x="434"  y="374" width="60" height="20" transform="rotate(0 7 7)" fill="yellow" stroke="black" stroke-width="0.5" />
<rect x="494"  y="374" width="60" height="20" transform="rotate(0 7 7)" fill="yellow" stroke="black" stroke-width="0.5" />
<rect x="554"  y="374" width="60" height="20" transform="rotate(0 7 7)" fill="yellow" stroke="black" stroke-width="0.5" />
<rect x="614"  y="374" width="60" height="20" transform="rotate(0 7 7)" fill="yellow" stroke="black" stroke-width="0.5" />
<rect x="674"  y="374" width="60" height="20" transform="rotate(0 7 7)" fill="yellow" stroke="black" stroke-width="0.5" />
<rect x="14"  y="394" width="60" height="20" transform="rotate(0 7 7)" fill="yellow" stroke="black" stroke-width="0.5" />
<rect x="74"  y="394" width="60" height="20" transform="rotate(0 7 7)" fill="yellow" stroke="black" stroke-width="0.5" />
<rect x="134"  y="394" width="60" height="20" transform="rotate(0 7 7)" fill="yellow" stroke="black" stroke-width="0.5" />
<rect x="194"  y="394" width="60" height="20" transform="rotate(0 7 7)" fill="yellow" stroke="black" stroke-width="0.5" />
<rect x="254"  y="394" width="60" height="20" transform="rotate(0 7 7)" fill="yellow" stroke="black" stroke-width="0.5" />
<rect x="314"  y="394" width="60" height="20" transform="rotate(0 7 7)" fill="yellow" stroke="black" stroke-width="0.5" />
<rect x="374"  y="394" width="60" height="20" transform="rotate(0 7 7)" fill="yellow" stroke="black" stroke-width="0.5" />
<rect x="434"  y="394" width="60" height="20" transform="rotate(0 7 7)" fill="yellow" stroke="black" stroke-width="0.5" />
<rect x="494"  y="394" width="60" height="20" transform="rotate(0 7 7)" fill="yellow" stroke="black" stroke-width="0.5" />
<rect x="554"  y="394" width="60" height="20" transform="rotate(0 7 7)" fill="yellow" stroke="black" stroke-width="0.5" />
<rect x="614"  y="394" width="60" height="20" transform="rotate(0 7 7)" fill="yellow" stroke="black" stroke-width="0.5" />
<rect x="674"  y="394" width="60" height="20" transform="rotate(0 7 7)" fill="yellow" stroke="black" stroke-width="0.5" />
<rect x="14"  y="414" width="60" height="20" transform="rotate(0 7 7)" fill="yellow" stroke="black" stroke-width="0.5" />
<rect x="74"  y="414" width="60" height="20" transform="rotate(0 7 7)" fill="yellow" stroke="black" stroke-width="0.5" />
<rect x="134"  y="414" width="60" height="20" transform="rotate(0 7 7)" fill="yellow" stroke="black" stroke-width="0.5" />
<rect x="194"  y="414" width="60" height="20" transform="rotate(0 7 7)" fill="yellow" stroke="black" stroke-width="0.5" />
<rect x="254"  y="414" width="60" height="20" transform="rotate(0 7 7)" fill="yellow" stroke="black" stroke-width="0.5" />
<rect x="314"  y="414" width="60" height="20" transform="rotate(0 7 7)" fill="yellow" stroke="black" stroke-width="0.5" />
<rect x="374"  y="414" width="60" height="20" transform="rotate(0 7 7)" fill="yellow" stroke="black" stroke-width="0.5" />
<rect x="434"  y="414" width="60" height="20" transform="rotate(0 7 7)" fill="yellow" stroke="black" stroke-width="0.5" />
<rect x="494"  y="414" width="60" height="20" transform="rotate(0 7 7)" fill="yellow" stroke="black" stroke-width="0.5" />
<rect x="554"  y="414" width="60" height="20" transform="rotate(0 7 7)" fill="yellow" stroke="black" stroke-width="0.5" />
<rect x="614"  y="414" width="60" height="20" transform="rotate(0 7 7)" fill="yellow" stroke="black" stroke-width="0.5" />
<rect x="674"  y="414" width="60" height="20" transform="rotate(0 7 7)" fill="yellow" stroke="black" stroke-width="0.5" />
<rect x="14"  y="434" width="60" height="20" transform="rotate(0 7 7)" fill="yellow" stroke="black" stroke-width="0.5" />
<rect x="74"  y="434" width="60" height="20" transform="rotate(0 7 7)" fill="yellow" stroke="black" stroke-width="0.5" />
<rect x="134"  y="434" width="60" height="20" transform="rotate(0 7 7)" fill="yellow" stroke="black" stroke-width="0.5" />
<rect x="194"  y="434" width="60" height="20" transform="rotate(0 7 7)" fill="yellow" stroke="black" stroke-width="0.5" />
<rect x="254"  y="434" width="60" height="20" transform="rotate(0 7 7)" fill="yellow" stroke="black" stroke-width="0.5" />
<rect x="314"  y="434" width="60" height="20" transform="rotate(0 7 7)" fill="yellow" stroke="black" stroke-width="0.5" />
<rect x="374"  y="434" width="60" height="20" transform="rotate(0 7 7)" fill="yellow" stroke="black" stroke-width="0.5" />
<rect x="434"  y="434" width="60" height="20" transform="rotate(0 7 7)" fill="yellow" stroke="black" stroke-width="0.5" />
<rect x="494"  y="434" width="60" height="20" transform="rotate(0 7 7)" fill="yellow" stroke="black" stroke-width="0.5" />
<rect x="554"  y="434" width="60" height="20" transform="rotate(0 7 7)" fill="yellow" stroke="black" stroke-width="0.5" />
<rect x="614"  y="434" width="60" height="20" transform="rotate(0 7 7)" fill="yellow" stroke="black" stroke-width="0.5" />
<rect x="674"  y="434" width="60" height="20" transform="rotate(0 7 7)" fill="yellow" stroke="black" stroke-width="0.5" />
<rect x="14"  y="454" width="60" height="20" transform="rotate(0 7 7)" fill="yellow" stroke="black" stroke-width="0.5" />
<rect x="74"  y="454" width="60" height="20" transform="rotate(0 7 7)" fill="yellow" stroke="black" stroke-width="0.5" />
<rect x="134"  y="454" width="60" height="20" transform="rotate(0 7 7)" fill="yellow" stroke="black" stroke-width="0.5" />
<rect x="194"  y="454" width="60" height="20" transform="rotate(0 7 7)" fill="yellow" stroke="black" stroke-width="0.5" />
<rect x="254"  y="454" width="60" height="20" transform="rotate(0 7 7)" fill="yellow" stroke="black" stroke-width="0.5" />
<rect x="314"  y="454" width="60" height="20" transform="rotate(0 7 7)" fill="yellow" stroke="black" stroke-width="0.5" />
<rect x="374"  y="454" width="60" height="20" transform="rotate(0 7 7)" fill="yellow" stroke="black" stroke-width="0.5" />
<rect x="434"  y="454" width="60" height="20" transform="rotate(0 7 7)" fill="yellow" stroke="black" stroke-width="0.5" />
<rect x="494"  y="454" width="60" height="20" transform="rotate(0 7 7)" fill="yellow" stroke="black" stroke-width="0.5" />
<rect x="554"  y="454" width="60" height="20" transform="rotate(0 7 7)" fill="yellow" stroke="black" stroke-width="0.5" />
<rect x="614"  y="454" width="60" height="20" transform="rotate(0 7 7)" fill="yellow" stroke="black" stroke-width="0.5" />
<rect x="674"  y="454" width="60" height="20" transform="rotate(0 7 7)" fill="yellow" stroke="black" stroke-width="0.5" />
<rect x="14"  y="474" width="60" height="20" transform="rotate(0 7 7)" fill="yellow" stroke="black" stroke-width="0.5" />
<rect x="74"  y="474" width="60" height="20" transform="rotate(0 7 7)" fill="yellow" stroke="black" stroke-width="0.5" />
<rect x="134"  y="474" width="60" height="20" transform="rotate(0 7 7)" fill="yellow" stroke="black" stroke-width="0.5" />
<rect x="194"  y="474" width="60" height="20" transform="rotate(0 7 7)" fill="yellow" stroke="black" stroke-width="0.5" />
<rect x="254"  y="474" width="60" height="20" transform="rotate(0 7 7)" fill="yellow" stroke="black" stroke-width="0.5" />
<rect x="314"  y="474" width="60" height="20" transform="rotate(0 7 7)" fill="yellow" stroke="black" stroke-width="0.5" />
<rect x="374"  y="474" width="60" height="20" transform="rotate(0 7 7)" fill="yellow" stroke="black" stroke-width="0.5" />
<rect x="434"  y="474" width="60" height="20" transform="rotate(0 7 7)" fill="yellow" stroke="black" stroke-width="0.5" />
<rect x="494"  y="474" width="60" height="20" transform="rotate(0 7 7)" fill="yellow" stroke="black" stroke-width="0.5" />
<rect x="554"  y="474" width="60" height="20" transform="rotate(0 7 7)" fill="yellow" stroke="black" stroke-width="0.5" />
<rect x="614"  y="474" width="60" height="20" transform="rotate(0 7 7)" fill="yellow" stroke="black" stroke-width="0.5" />
<rect x="674"  y="474" width="60" height="20" transform="rotate(0 7 7)" fill="yellow" stroke="black" stroke-width="0.5" />
<rect x="14"  y="494" width="60" height="20" transform="rotate(0 7 7)" fill="yellow" stroke="black" stroke-width="0.5" />
<rect x="74"  y="494" width="60" height="20" transform="rotate(0 7 7)" fill="yellow" stroke="black" stroke-width="0.5" />
<rect x="134"  y="494" width="60" height="20" transform="rotate(0 7 7)" fill="yellow" stroke="black" stroke-width="0.5" />
<rect x="194"  y="494" width="60" height="20" transform="rotate(0 7 7)" fill="yellow" stroke="black" stroke-width="0.5" />
<rect x="254"  y="494" width="60" height="20" transform="rotate(0 7 7)" fill="yellow" stroke="black" stroke-width="0.5" />
<rect x="314"  y="494" width="60" height="20" transform="rotate(0 7 7)" fill="yellow" stroke="black" stroke-width="0.5" />
<rect x="374"  y="494" width="60" height="20" transform="rotate(0 7 7)" fill="yellow" stroke="black" stroke-width="0.5" />
<rect x="434"  y="494" width="60" height="20" transform="rotate(0 7 7)" fill="yellow" stroke="black" stroke-width="0.5" />
<rect x="494"  y="494" width="60" height="20" transform="rotate(0 7 7)" fill="yellow" stroke="black" stroke-width="0.5" />
<rect x="554"  y="494" width="60" height="20" transform="rotate(0 7 7)" fill="yellow" stroke="black" stroke-width="0.5" />
<rect x="614"  y="494" width="60" height="20" transform="rotate(0 7 7)" fill="yellow" stroke="black" stroke-width="0.5" />
<rect x="674"  y="494" width="60" height="20" transform="rotate(0 7 7)" fill="yellow" stroke="black" stroke-width="0.5" />
<rect x="734"  y="14" width="20" height="60" transform="rotate(0 7 7)" fill="yellow" stroke="black" stroke-width="0.5" />
<rect x="734"  y="74" width="20" height="60" transform="rotate(0 7 7)" fill="yellow" stroke="black" stroke-width="0.5" />
<rect x="734"  y="134" width="20" height="60" transform="rotate(0 7 7)" fill="yellow" stroke="black" stroke-width="0.5" />
<rect x="734"  y="194" width="20" height="60" transform="rotate(0 7 7)" fill="yellow" stroke="black" stroke-width="0.5" />
<rect x="734"  y="254" width="20" height="60" transform="rotate(0 7 7)" fill="yellow" stroke="black" stroke-width="0.5" />
<rect x="734"  y="314" width="20" height="60" transform="rotate(0 7 7)" fill="yellow" stroke="black" stroke-width="0.5" />
<rect x="734"  y="374" width="20" height="60" transform="rotate(0 7 7)" fill="yellow" stroke="black" stroke-width="0.5" />
<rect x="734"  y="434" width="20" height="60" transform="rotate(0 7 7)" fill="yellow" stroke="black" stroke-width="0.5" />
</svg>
