<svg version="1.1" baseProfile="full" xmlns="http://www.w3.org/2000/svg">
<polygon points="274,24 24,457.013 524,457.013" transform="rotate(0 24 24)" fill="dimgrey" stroke="black" stroke-width="0.5" />
<rect x="64"  y="437.013" width="60" height="20" transform="rotate(0 7 7)" fill="yellow" stroke="black" stroke-width="0.5" />
<rect x="124"  y="437.013" width="60" height="20" transform="rotate(0 7 7)" fill="yellow" stroke="black" stroke-width="0.5" />
<rect x="184"  y="437.013" width="60" height="20" transform="rotate(0 7 7)" fill="yellow" stroke="black" stroke-width="0.5" />
<rect x="244"  y="437.013" width="60" height="20" transform="rotate(0 7 7)" fill="yellow" stroke="black" stroke-width="0.5" />
<rect x="304"  y="437.013" width="60" height="20" transform="rotate(0 7 7)" fill="yellow" stroke="black" stroke-width="0.5" />
<rect x="364"  y="437.013" width="60" height="20" transform="rotate(0 7 7)" fill="yellow" stroke="black" stroke-width="0.5" />
<rect x="424"  y="437.013" width="60" height="20" transform="rotate(0 7 7)" fill="yellow" stroke="black" stroke-width="0.5" />
<rect x="64"  y="417.013" width="60" height="20" transform="rotate(0 7 7)" fill="yellow" stroke="black" stroke-width="0.5" />
<rect x="124"  y="417.013" width="60" height="20" transform="rotate(0 7 7)" fill="yellow" stroke="black" stroke-width="0.5" />
<rect x="184"  y="417.013" width="60" height="20" transform="rotate(0 7 7)" fill="yellow" stroke="black" stroke-width="0.5" />
<rect x="244"  y="417.013" width="60" height="20" transform="rotate(0 7 7)" fill="yellow" stroke="black" stroke-width="0.5" />
<rect x="304"  y="417.013" width="60" height="20" transform="rotate(0 7 7)" fill="yellow" stroke="black" stroke-width="0.5" />
<rect x="364"  y="417.013" width="60" height="20" transform="rotate(0 7 7)" fill="yellow" stroke="black" stroke-width="0.5" />
<rect x="424"  y="417.013" width="60" height="20" transform="rotate(0 7 7)" fill="yellow" stroke="black" stroke-width="0.5" />
<rect x="64"  y="397.013" width="60" height="20" transform="rotate(0 7 7)" fill="yellow" stroke="black" stroke-width="0.5" />
<rect x="124"  y="397.013" width="60" height="20" transform="rotate(0 7 7)" fill="yellow" stroke="black" stroke-width="0.5" />
<rect x="184"  y="397.013" width="60" height="20" transform="rotate(0 7 7)" fill="yellow" stroke="black" stroke-width="0.5" />
<rect x="244"  y="397.013" width="60" height="20" transform="rotate(0 7 7)" fill="yellow" stroke="black" stroke-width="0.5" />
<rect x="304"  y="397.013" width="60" height="20" transform="rotate(0 7 7)" fill="yellow" stroke="black" stroke-width="0.5" />
<rect x="364"  y="397.013" width="60" height="20" transform="rotate(0 7 7)" fill="yellow" stroke="black" stroke-width="0.5" />
<rect x="424"  y="397.013" width="60" height="20" transform="rotate(0 7 7)" fill="yellow" stroke="black" stroke-width="0.5" />
<rect x="94"  y="377.013" width="60" height="20" transform="rotate(0 7 7)" fill="yellow" stroke="black" stroke-width="0.5" />
<rect x="154"  y="377.013" width="60" height="20" transform="rotate(0 7 7)" fill="yellow" stroke="black" stroke-width="0.5" />
<rect x="214"  y="377.013" width="60" height="20" transform="rotate(0 7 7)" fill="yellow" stroke="black" stroke-width="0.5" />
<rect x="274"  y="377.013" width="60" height="20" transform="rotate(0 7 7)" fill="yellow" stroke="black" stroke-width="0.5" />
<rect x="334"  y="377.013" width="60" height="20" transform="rotate(0 7 7)" fill="yellow" stroke="black" stroke-width="0.5" />
<rect x="394"  y="377.013" width="60" height="20" transform="rotate(0 7 7)" fill="yellow" stroke="black" stroke-width="0.5" />
<rect x="94"  y="357.013" width="60" height="20" transform="rotate(0 7 7)" fill="yellow" stroke="black" stroke-width="0.5" />
<rect x="154"  y="357.013" width="60" height="20" transform="rotate(0 7 7)" fill="yellow" stroke="black" stroke-width="0.5" />
<rect x="214"  y="357.013" width="60" height="20" transform="rotate(0 7 7)" fill="yellow" stroke="black" stroke-width="0.5" />
<rect x="274"  y="357.013" width="60" height="20" transform="rotate(0 7 7)" fill="yellow" stroke="black" stroke-width="0.5" />
<rect x="334"  y="357.013" width="60" height="20" transform="rotate(0 7 7)" fill="yellow" stroke="black" stroke-width="0.5" />
<rect x="394"  y="357.013" width="60" height="20" transform="rotate(0 7 7)" fill="yellow" stroke="black" stroke-width="0.5" />
<rect x="94"  y="337.013" width="60" height="20" transform="rotate(0 7 7)" fill="yellow" stroke="black" stroke-width="0.5" />
<rect x="154"  y="337.013" width="60" height="20" transform="rotate(0 7 7)" fill="yellow" stroke="black" stroke-width="0.5" />
<rect x="214"  y="337.013" width="60" height="20" transform="rotate(0 7 7)" fill="yellow" stroke="black" stroke-width="0.5" />
<rect x="274"  y="337.013" width="60" height="20" transform="rotate(0 7 7)" fill="yellow" stroke="black" stroke-width="0.5" />
<rect x="334"  y="337.013" width="60" height="20" transform="rotate(0 7 7)" fill="yellow" stroke="black" stroke-width="0.5" />
<rect x="394"  y="337.013" width="60" height="20" transform="rotate(0 7 7)" fill="yellow" stroke="black" stroke-width="0.5" />
<rect x="124"  y="317.013" width="60" height="20" transform="rotate(0 7 7)" fill="yellow" stroke="black" stroke-width="0.5" />
<rect x="184"  y="317.013" width="60" height="20" transform="rotate(0 7 7)" fill="yellow" stroke="black" stroke-width="0.5" />
<rect x="244"  y="317.013" width="60" height="20" transform="rotate(0 7 7)" fill="yellow" stroke="black" stroke-width="0.5" />
<rect x="304"  y="317.013" width="60" height="20" transform="rotate(0 7 7)" fill="yellow" stroke="black" stroke-width="0.5" />
<rect x="364"  y="317.013" width="60" height="20" transform="rotate(0 7 7)" fill="yellow" stroke="black" stroke-width="0.5" />
<rect x="124"  y="297.013" width="60" height="20" transform="rotate(0 7 7)" fill="yellow" stroke="black" stroke-width="0.5" />
<rect x="184"  y="297.013" width="60" height="20" transform="rotate(0 7 7)" fill="yellow" stroke="black" stroke-width="0.5" />
<rect x="244"  y="297.013" width="60" height="20" transform="rotate(0 7 7)" fill="yellow" stroke="black" stroke-width="0.5" />
<rect x="304"  y="297.013" width="60" height="20" transform="rotate(0 7 7)" fill="yellow" stroke="black" stroke-width="0.5" />
<rect x="364"  y="297.013" width="60" height="20" transform="rotate(0 7 7)" fill="yellow" stroke="black" stroke-width="0.5" />
<rect x="154"  y="277.013" width="60" height="20" transform="rotate(0 7 7)" fill="yellow" stroke="black" stroke-width="0.5" />
<rect x="214"  y="277.013" width="60" height="20" transform="rotate(0 7 7)" fill="yellow" stroke="black" stroke-width="0.5" />
<rect x="274"  y="277.013" width="60" height="20" transform="rotate(0 7 7)" fill="yellow" stroke="black" stroke-width="0.5" />
<rect x="334"  y="277.013" width="60" height="20" transform="rotate(0 7 7)" fill="yellow" stroke="black" stroke-width="0.5" />
<rect x="154"  y="257.013" width="60" height="20" transform="rotate(0 7 7)" fill="yellow" stroke="black" stroke-width="0.5" />
<rect x="214"  y="257.013" width="60" height="20" transform="rotate(0 7 7)" fill="yellow" stroke="black" stroke-width="0.5" />
<rect x="274"  y="257.013" width="60" height="20" transform="rotate(0 7 7)" fill="yellow" stroke="black" stroke-width="0.5" />
<rect x="334"  y="257.013" width="60" height="20" transform="rotate(0 7 7)" fill="yellow" stroke="black" stroke-width="0.5" />
<rect x="154"  y="237.013" width="60" height="20" transform="rotate(0 7 7)" fill="yellow" stroke="black" stroke-width="0.5" />
<rect x="214"  y="237.013" width="60" height="20" transform="rotate(0 7 7)" fill="yellow" stroke="black" stroke-width="0.5" />
<rect x="274"  y="237.013" width="60" height="20" transform="rotate(0 7 7)" fill="yellow" stroke="black" stroke-width="0.5" />
<rect x="334"  y="237.013" width="60" height="20" transform="rotate(0 7 7)" fill="yellow" stroke="black" stroke-width="0.5" />
<rect x="184"  y="217.013" width="60" height="20" transform="rotate(0 7 7)" fill="yellow" stroke="black" stroke-width="0.5" />
<rect x="244"  y="217.013" width="60" height="20" transform="rotate(0 7 7)" fill="yellow" stroke="black" stroke-width="0.5" />
<rect x="304"  y="217.013" width="60" height="20" transform="rotate(0 7 7)" fill="yellow" stroke="black" stroke-width="0.5" />
<rect x="184"  y="197.013" width="60" height="20" transform="rotate(0 7 7)" fill="yellow" stroke="black" stroke-width="0.5" />
<rect x="244"  y="197.013" width="60" height="20" transform="rotate(0 7 7)" fill="yellow" stroke="black" stroke-width="0.5" />
<rect x="304"  y="197.013" width="60" height="20" transform="rotate(0 7 7)" fill="yellow" stroke="black" stroke-width="0.5" />
<rect x="214"  y="177.013" width="60" height="20" transform="rotate(0 7 7)" fill="yellow" stroke="black" stroke-width="0.5" />
<rect x="274"  y="177.013" width="60" height="20" transform="rotate(0 7 7)" fill="yellow" stroke="black" stroke-width="0.5" />
<rect x="214"  y="157.013" width="60" height="20" transform="rotate(0 7 7)" fill="yellow" stroke="black" stroke-width="0.5" />
<rect x="274"  y="157.013" width="60" height="20" transform="rotate(0 7 7)" fill="yellow" stroke="black" stroke-width="0.5" />
<rect x="214"  y="137.013" width="60" height="20" transform="rotate(0 7 7)" fill="yellow" stroke="black" stroke-width="0.5" />
<rect x="274"  y="137.013" width="60" height="20" transform="rotate(0 7 7)" fill="yellow" stroke="black" stroke-width="0.5" />
<rect x="244"  y="117.013" width="60" height="20" transform="rotate(0 7 7)" fill="yellow" stroke="black" stroke-width="0.5" />
<rect x="244"  y="97.0127" width="60" height="20" transform="rotate(0 7 7)" fill="yellow" stroke="black" stroke-width="0.5" />
<rect x="244"  y="77.0127" width="60" height="20" transform="rotate(0 7 7)" fill="yellow" stroke="black" stroke-width="0.5" />
</svg>
