<svg version="1.1" baseProfile="full" xmlns="http://www.w3.org/2000/svg">
<circle cx="335" cy="335" r="300" transform="rotate(0 35 35)" fill="brown" stroke="black" stroke-width="0.5" />
<polygon points="335,335 315,369.641 355,369.641" transform="rotate(0 335 335)" fill="green" stroke="black" stroke-width="0.5" />
<polygon points="335,404.282 315,369.641 355,369.641" transform="rotate(0 335 335)" fill="green" stroke="black" stroke-width="0.5" />
<polygon points="315,369.641 295,404.282 335,404.282" transform="rotate(0 335 335)" fill="green" stroke="black" stroke-width="0.5" />
<polygon points="315,438.923 295,404.282 335,404.282" transform="rotate(0 335 335)" fill="green" stroke="black" stroke-width="0.5" />
<polygon points="355,369.641 335,404.282 375,404.282" transform="rotate(0 335 335)" fill="green" stroke="black" stroke-width="0.5" />
<polygon points="355,438.923 335,404.282 375,404.282" transform="rotate(0 335 335)" fill="green" stroke="black" stroke-width="0.5" />
<polygon points="295,404.282 275,438.923 315,438.923" transform="rotate(0 335 335)" fill="green" stroke="black" stroke-width="0.5" />
<polygon points="295,473.564 275,438.923 315,438.923" transform="rotate(0 335 335)" fill="green" stroke="black" stroke-width="0.5" />
<polygon points="335,404.282 315,438.923 355,438.923" transform="rotate(0 335 335)" fill="green" stroke="black" stroke-width="0.5" />
<polygon points="335,473.564 315,438.923 355,438.923" transform="rotate(0 335 335)" fill="green" stroke="black" stroke-width="0.5" />
<polygon points="375,404.282 355,438.923 395,438.923" transform="rotate(0 335 335)" fill="green" stroke="black" stroke-width="0.5" />
<polygon points="375,473.564 355,438.923 395,438.923" transform="rotate(0 335 335)" fill="green" stroke="black" stroke-width="0.5" />
<polygon points="275,438.923 255,473.564 295,473.564" transform="rotate(0 335 335)" fill="green" stroke="black" stroke-width="0.5" />
<polygon points="275,508.205 255,473.564 295,473.564" transform="rotate(0 335 335)" fill="green" stroke="black" stroke-width="0.5" />
<polygon points="315,438.923 295,473.564 335,473.564" transform="rotate(0 335 335)" fill="green" stroke="black" stroke-width="0.5" />
<polygon points="315,508.205 295,473.564 335,473.564" transform="rotate(0 335 335)" fill="green" stroke="black" stroke-width="0.5" />
<polygon points="355,438.923 335,473.564 375,473.564" transform="rotate(0 335 335)" fill="green" stroke="black" stroke-width="0.5" />
<polygon points="355,508.205 335,473.564 375,473.564" transform="rotate(0 335 335)" fill="green" stroke="black" stroke-width="0.5" />
<polygon points="395,438.923 375,473.564 415,473.564" transform="rotate(0 335 335)" fill="green" stroke="black" stroke-width="0.5" />
<polygon points="395,508.205 375,473.564 415,473.564" transform="rotate(0 335 335)" fill="green" stroke="black" stroke-width="0.5" />
<polygon points="255,473.564 235,508.205 275,508.205" transform="rotate(0 335 335)" fill="green" stroke="black" stroke-width="0.5" />
<polygon points="255,542.846 235,508.205 275,508.205" transform="rotate(0 335 335)" fill="green" stroke="black" stroke-width="0.5" />
<polygon points="295,473.564 275,508.205 315,508.205" transform="rotate(0 335 335)" fill="green" stroke="black" stroke-width="0.5" />
<polygon points="295,542.846 275,508.205 315,508.205" transform="rotate(0 335 335)" fill="green" stroke="black" stroke-width="0.5" />
<polygon points="335,473.564 315,508.205 355,508.205" transform="rotate(0 335 335)" fill="green" stroke="black" stroke-width="0.5" />
<polygon points="335,542.846 315,508.205 355,508.205" transform="rotate(0 335 335)" fill="green" stroke="black" stroke-width="0.5" />
<polygon points="375,473.564 355,508.205 395,508.205" transform="rotate(0 335 335)" fill="green" stroke="black" stroke-width="0.5" />
<polygon points="375,542.846 355,508.205 395,508.205" transform="rotate(0 335 335)" fill="green" stroke="black" stroke-width="0.5" />
<polygon points="415,473.564 395,508.205 435,508.205" transform="rotate(0 335 335)" fill="green" stroke="black" stroke-width="0.5" />
<polygon points="415,542.846 395,508.205 435,508.205" transform="rotate(0 335 335)" fill="green" stroke="black" stroke-width="0.5" />
<polygon points="235,508.205 215,542.846 255,542.846" transform="rotate(0 335 335)" fill="green" stroke="black" stroke-width="0.5" />
<polygon points="235,577.487 215,542.846 255,542.846" transform="rotate(0 335 335)" fill="green" stroke="black" stroke-width="0.5" />
<polygon points="275,508.205 255,542.846 295,542.846" transform="rotate(0 335 335)" fill="green" stroke="black" stroke-width="0.5" />
<polygon points="275,577.487 255,542.846 295,542.846" transform="rotate(0 335 335)" fill="green" stroke="black" stroke-width="0.5" />
<polygon points="315,508.205 295,542.846 335,542.846" transform="rotate(0 335 335)" fill="green" stroke="black" stroke-width="0.5" />
<polygon points="315,577.487 295,542.846 335,542.846" transform="rotate(0 335 335)" fill="green" stroke="black" stroke-width="0.5" />
<polygon points="355,508.205 335,542.846 375,542.846" transform="rotate(0 335 335)" fill="green" stroke="black" stroke-width="0.5" />
<polygon points="355,577.487 335,542.846 375,542.846" transform="rotate(0 335 335)" fill="green" stroke="black" stroke-width="0.5" />
<polygon points="395,508.205 375,542.846 415,542.846" transform="rotate(0 335 335)" fill="green" stroke="black" stroke-width="0.5" />
<polygon points="395,577.487 375,542.846 415,542.846" transform="rotate(0 335 335)" fill="green" stroke="black" stroke-width="0.5" />
<polygon points="435,508.205 415,542.846 455,542.846" transform="rotate(0 335 335)" fill="green" stroke="black" stroke-width="0.5" />
<polygon points="435,577.487 415,542.846 455,542.846" transform="rotate(0 335 335)" fill="green" stroke="black" stroke-width="0.5" />
<polygon points="215,542.846 195,577.487 235,577.487" transform="rotate(0 335 335)" fill="green" stroke="black" stroke-width="0.5" />
<polygon points="255,542.846 235,577.487 275,577.487" transform="rotate(0 335 335)" fill="green" stroke="black" stroke-width="0.5" />
<polygon points="295,542.846 275,577.487 315,577.487" transform="rotate(0 335 335)" fill="green" stroke="black" stroke-width="0.5" />
<polygon points="335,542.846 315,577.487 355,577.487" transform="rotate(0 335 335)" fill="green" stroke="black" stroke-width="0.5" />
<polygon points="375,542.846 355,577.487 395,577.487" transform="rotate(0 335 335)" fill="green" stroke="black" stroke-width="0.5" />
<polygon points="415,542.846 395,577.487 435,577.487" transform="rotate(0 335 335)" fill="green" stroke="black" stroke-width="0.5" />
<polygon points="455,542.846 435,577.487 475,577.487" transform="rotate(0 335 335)" fill="green" stroke="black" stroke-width="0.5" />
<polygon points="365,577.487 345,612.128 385,612.128" transform="rotate(0 335 335)" fill="green" stroke="black" stroke-width="0.5" />
<polygon points="325,577.487 305,612.128 345,612.128" transform="rotate(0 335 335)" fill="green" stroke="black" stroke-width="0.5" />
<polygon points="285,577.487 265,612.128 305,612.128" transform="rotate(0 335 335)" fill="green" stroke="black" stroke-width="0.5" />
<polygon points="405,577.487 385,612.128 365,577.487" transform="rotate(0 335 335)" fill="green" stroke="black" stroke-width="0.5" />
<polygon points="365,577.487 345,612.128 325,577.487" transform="rotate(0 335 335)" fill="green" stroke="black" stroke-width="0.5" />
<polygon points="325,577.487 305,612.128 285,577.487" transform="rotate(0 335 335)" fill="green" stroke="black" stroke-width="0.5" />
<polygon points="285,577.487 265,612.128 245,577.487" transform="rotate(0 335 335)" fill="green" stroke="black" stroke-width="0.5" />
<polygon points="335,335 315,369.641 355,369.641" transform="rotate(60 335 335)" fill="green" stroke="black" stroke-width="0.5" />
<polygon points="335,404.282 315,369.641 355,369.641" transform="rotate(60 335 335)" fill="green" stroke="black" stroke-width="0.5" />
<polygon points="315,369.641 295,404.282 335,404.282" transform="rotate(60 335 335)" fill="green" stroke="black" stroke-width="0.5" />
<polygon points="315,438.923 295,404.282 335,404.282" transform="rotate(60 335 335)" fill="green" stroke="black" stroke-width="0.5" />
<polygon points="355,369.641 335,404.282 375,404.282" transform="rotate(60 335 335)" fill="green" stroke="black" stroke-width="0.5" />
<polygon points="355,438.923 335,404.282 375,404.282" transform="rotate(60 335 335)" fill="green" stroke="black" stroke-width="0.5" />
<polygon points="295,404.282 275,438.923 315,438.923" transform="rotate(60 335 335)" fill="green" stroke="black" stroke-width="0.5" />
<polygon points="295,473.564 275,438.923 315,438.923" transform="rotate(60 335 335)" fill="green" stroke="black" stroke-width="0.5" />
<polygon points="335,404.282 315,438.923 355,438.923" transform="rotate(60 335 335)" fill="green" stroke="black" stroke-width="0.5" />
<polygon points="335,473.564 315,438.923 355,438.923" transform="rotate(60 335 335)" fill="green" stroke="black" stroke-width="0.5" />
<polygon points="375,404.282 355,438.923 395,438.923" transform="rotate(60 335 335)" fill="green" stroke="black" stroke-width="0.5" />
<polygon points="375,473.564 355,438.923 395,438.923" transform="rotate(60 335 335)" fill="green" stroke="black" stroke-width="0.5" />
<polygon points="275,438.923 255,473.564 295,473.564" transform="rotate(60 335 335)" fill="green" stroke="black" stroke-width="0.5" />
<polygon points="275,508.205 255,473.564 295,473.564" transform="rotate(60 335 335)" fill="green" stroke="black" stroke-width="0.5" />
<polygon points="315,438.923 295,473.564 335,473.564" transform="rotate(60 335 335)" fill="green" stroke="black" stroke-width="0.5" />
<polygon points="315,508.205 295,473.564 335,473.564" transform="rotate(60 335 335)" fill="green" stroke="black" stroke-width="0.5" />
<polygon points="355,438.923 335,473.564 375,473.564" transform="rotate(60 335 335)" fill="green" stroke="black" stroke-width="0.5" />
<polygon points="355,508.205 335,473.564 375,473.564" transform="rotate(60 335 335)" fill="green" stroke="black" stroke-width="0.5" />
<polygon points="395,438.923 375,473.564 415,473.564" transform="rotate(60 335 335)" fill="green" stroke="black" stroke-width="0.5" />
<polygon points="395,508.205 375,473.564 415,473.564" transform="rotate(60 335 335)" fill="green" stroke="black" stroke-width="0.5" />
<polygon points="255,473.564 235,508.205 275,508.205" transform="rotate(60 335 335)" fill="green" stroke="black" stroke-width="0.5" />
<polygon points="255,542.846 235,508.205 275,508.205" transform="rotate(60 335 335)" fill="green" stroke="black" stroke-width="0.5" />
<polygon points="295,473.564 275,508.205 315,508.205" transform="rotate(60 335 335)" fill="green" stroke="black" stroke-width="0.5" />
<polygon points="295,542.846 275,508.205 315,508.205" transform="rotate(60 335 335)" fill="green" stroke="black" stroke-width="0.5" />
<polygon points="335,473.564 315,508.205 355,508.205" transform="rotate(60 335 335)" fill="green" stroke="black" stroke-width="0.5" />
<polygon points="335,542.846 315,508.205 355,508.205" transform="rotate(60 335 335)" fill="green" stroke="black" stroke-width="0.5" />
<polygon points="375,473.564 355,508.205 395,508.205" transform="rotate(60 335 335)" fill="green" stroke="black" stroke-width="0.5" />
<polygon points="375,542.846 355,508.205 395,508.205" transform="rotate(60 335 335)" fill="green" stroke="black" stroke-width="0.5" />
<polygon points="415,473.564 395,508.205 435,508.205" transform="rotate(60 335 335)" fill="green" stroke="black" stroke-width="0.5" />
<polygon points="415,542.846 395,508.205 435,508.205" transform="rotate(60 335 335)" fill="green" stroke="black" stroke-width="0.5" />
<polygon points="235,508.205 215,542.846 255,542.846" transform="rotate(60 335 335)" fill="green" stroke="black" stroke-width="0.5" />
<polygon points="235,577.487 215,542.846 255,542.846" transform="rotate(60 335 335)" fill="green" stroke="black" stroke-width="0.5" />
<polygon points="275,508.205 255,542.846 295,542.846" transform="rotate(60 335 335)" fill="green" stroke="black" stroke-width="0.5" />
<polygon points="275,577.487 255,542.846 295,542.846" transform="rotate(60 335 335)" fill="green" stroke="black" stroke-width="0.5" />
<polygon points="315,508.205 295,542.846 335,542.846" transform="rotate(60 335 335)" fill="green" stroke="black" stroke-width="0.5" />
<polygon points="315,577.487 295,542.846 335,542.846" transform="rotate(60 335 335)" fill="green" stroke="black" stroke-width="0.5" />
<polygon points="355,508.205 335,542.846 375,542.846" transform="rotate(60 335 335)" fill="green" stroke="black" stroke-width="0.5" />
<polygon points="355,577.487 335,542.846 375,542.846" transform="rotate(60 335 335)" fill="green" stroke="black" stroke-width="0.5" />
<polygon points="395,508.205 375,542.846 415,542.846" transform="rotate(60 335 335)" fill="green" stroke="black" stroke-width="0.5" />
<polygon points="395,577.487 375,542.846 415,542.846" transform="rotate(60 335 335)" fill="green" stroke="black" stroke-width="0.5" />
<polygon points="435,508.205 415,542.846 455,542.846" transform="rotate(60 335 335)" fill="green" stroke="black" stroke-width="0.5" />
<polygon points="435,577.487 415,542.846 455,542.846" transform="rotate(60 335 335)" fill="green" stroke="black" stroke-width="0.5" />
<polygon points="215,542.846 195,577.487 235,577.487" transform="rotate(60 335 335)" fill="green" stroke="black" stroke-width="0.5" />
<polygon points="255,542.846 235,577.487 275,577.487" transform="rotate(60 335 335)" fill="green" stroke="black" stroke-width="0.5" />
<polygon points="295,542.846 275,577.487 315,577.487" transform="rotate(60 335 335)" fill="green" stroke="black" stroke-width="0.5" />
<polygon points="335,542.846 315,577.487 355,577.487" transform="rotate(60 335 335)" fill="green" stroke="black" stroke-width="0.5" />
<polygon points="375,542.846 355,577.487 395,577.487" transform="rotate(60 335 335)" fill="green" stroke="black" stroke-width="0.5" />
<polygon points="415,542.846 395,577.487 435,577.487" transform="rotate(60 335 335)" fill="green" stroke="black" stroke-width="0.5" />
<polygon points="455,542.846 435,577.487 475,577.487" transform="rotate(60 335 335)" fill="green" stroke="black" stroke-width="0.5" />
<polygon points="365,577.487 345,612.128 385,612.128" transform="rotate(60 335 335)" fill="green" stroke="black" stroke-width="0.5" />
<polygon points="325,577.487 305,612.128 345,612.128" transform="rotate(60 335 335)" fill="green" stroke="black" stroke-width="0.5" />
<polygon points="285,577.487 265,612.128 305,612.128" transform="rotate(60 335 335)" fill="green" stroke="black" stroke-width="0.5" />
<polygon points="405,577.487 385,612.128 365,577.487" transform="rotate(60 335 335)" fill="green" stroke="black" stroke-width="0.5" />
<polygon points="365,577.487 345,612.128 325,577.487" transform="rotate(60 335 335)" fill="green" stroke="black" stroke-width="0.5" />
<polygon points="325,577.487 305,612.128 285,577.487" transform="rotate(60 335 335)" fill="green" stroke="black" stroke-width="0.5" />
<polygon points="285,577.487 265,612.128 245,577.487" transform="rotate(60 335 335)" fill="green" stroke="black" stroke-width="0.5" />
<polygon points="335,335 315,369.641 355,369.641" transform="rotate(120 335 335)" fill="green" stroke="black" stroke-width="0.5" />
<polygon points="335,404.282 315,369.641 355,369.641" transform="rotate(120 335 335)" fill="green" stroke="black" stroke-width="0.5" />
<polygon points="315,369.641 295,404.282 335,404.282" transform="rotate(120 335 335)" fill="green" stroke="black" stroke-width="0.5" />
<polygon points="315,438.923 295,404.282 335,404.282" transform="rotate(120 335 335)" fill="green" stroke="black" stroke-width="0.5" />
<polygon points="355,369.641 335,404.282 375,404.282" transform="rotate(120 335 335)" fill="green" stroke="black" stroke-width="0.5" />
<polygon points="355,438.923 335,404.282 375,404.282" transform="rotate(120 335 335)" fill="green" stroke="black" stroke-width="0.5" />
<polygon points="295,404.282 275,438.923 315,438.923" transform="rotate(120 335 335)" fill="green" stroke="black" stroke-width="0.5" />
<polygon points="295,473.564 275,438.923 315,438.923" transform="rotate(120 335 335)" fill="green" stroke="black" stroke-width="0.5" />
<polygon points="335,404.282 315,438.923 355,438.923" transform="rotate(120 335 335)" fill="green" stroke="black" stroke-width="0.5" />
<polygon points="335,473.564 315,438.923 355,438.923" transform="rotate(120 335 335)" fill="green" stroke="black" stroke-width="0.5" />
<polygon points="375,404.282 355,438.923 395,438.923" transform="rotate(120 335 335)" fill="green" stroke="black" stroke-width="0.5" />
<polygon points="375,473.564 355,438.923 395,438.923" transform="rotate(120 335 335)" fill="green" stroke="black" stroke-width="0.5" />
<polygon points="275,438.923 255,473.564 295,473.564" transform="rotate(120 335 335)" fill="green" stroke="black" stroke-width="0.5" />
<polygon points="275,508.205 255,473.564 295,473.564" transform="rotate(120 335 335)" fill="green" stroke="black" stroke-width="0.5" />
<polygon points="315,438.923 295,473.564 335,473.564" transform="rotate(120 335 335)" fill="green" stroke="black" stroke-width="0.5" />
<polygon points="315,508.205 295,473.564 335,473.564" transform="rotate(120 335 335)" fill="green" stroke="black" stroke-width="0.5" />
<polygon points="355,438.923 335,473.564 375,473.564" transform="rotate(120 335 335)" fill="green" stroke="black" stroke-width="0.5" />
<polygon points="355,508.205 335,473.564 375,473.564" transform="rotate(120 335 335)" fill="green" stroke="black" stroke-width="0.5" />
<polygon points="395,438.923 375,473.564 415,473.564" transform="rotate(120 335 335)" fill="green" stroke="black" stroke-width="0.5" />
<polygon points="395,508.205 375,473.564 415,473.564" transform="rotate(120 335 335)" fill="green" stroke="black" stroke-width="0.5" />
<polygon points="255,473.564 235,508.205 275,508.205" transform="rotate(120 335 335)" fill="green" stroke="black" stroke-width="0.5" />
<polygon points="255,542.846 235,508.205 275,508.205" transform="rotate(120 335 335)" fill="green" stroke="black" stroke-width="0.5" />
<polygon points="295,473.564 275,508.205 315,508.205" transform="rotate(120 335 335)" fill="green" stroke="black" stroke-width="0.5" />
<polygon points="295,542.846 275,508.205 315,508.205" transform="rotate(120 335 335)" fill="green" stroke="black" stroke-width="0.5" />
<polygon points="335,473.564 315,508.205 355,508.205" transform="rotate(120 335 335)" fill="green" stroke="black" stroke-width="0.5" />
<polygon points="335,542.846 315,508.205 355,508.205" transform="rotate(120 335 335)" fill="green" stroke="black" stroke-width="0.5" />
<polygon points="375,473.564 355,508.205 395,508.205" transform="rotate(120 335 335)" fill="green" stroke="black" stroke-width="0.5" />
<polygon points="375,542.846 355,508.205 395,508.205" transform="rotate(120 335 335)" fill="green" stroke="black" stroke-width="0.5" />
<polygon points="415,473.564 395,508.205 435,508.205" transform="rotate(120 335 335)" fill="green" stroke="black" stroke-width="0.5" />
<polygon points="415,542.846 395,508.205 435,508.205" transform="rotate(120 335 335)" fill="green" stroke="black" stroke-width="0.5" />
<polygon points="235,508.205 215,542.846 255,542.846" transform="rotate(120 335 335)" fill="green" stroke="black" stroke-width="0.5" />
<polygon points="235,577.487 215,542.846 255,542.846" transform="rotate(120 335 335)" fill="green" stroke="black" stroke-width="0.5" />
<polygon points="275,508.205 255,542.846 295,542.846" transform="rotate(120 335 335)" fill="green" stroke="black" stroke-width="0.5" />
<polygon points="275,577.487 255,542.846 295,542.846" transform="rotate(120 335 335)" fill="green" stroke="black" stroke-width="0.5" />
<polygon points="315,508.205 295,542.846 335,542.846" transform="rotate(120 335 335)" fill="green" stroke="black" stroke-width="0.5" />
<polygon points="315,577.487 295,542.846 335,542.846" transform="rotate(120 335 335)" fill="green" stroke="black" stroke-width="0.5" />
<polygon points="355,508.205 335,542.846 375,542.846" transform="rotate(120 335 335)" fill="green" stroke="black" stroke-width="0.5" />
<polygon points="355,577.487 335,542.846 375,542.846" transform="rotate(120 335 335)" fill="green" stroke="black" stroke-width="0.5" />
<polygon points="395,508.205 375,542.846 415,542.846" transform="rotate(120 335 335)" fill="green" stroke="black" stroke-width="0.5" />
<polygon points="395,577.487 375,542.846 415,542.846" transform="rotate(120 335 335)" fill="green" stroke="black" stroke-width="0.5" />
<polygon points="435,508.205 415,542.846 455,542.846" transform="rotate(120 335 335)" fill="green" stroke="black" stroke-width="0.5" />
<polygon points="435,577.487 415,542.846 455,542.846" transform="rotate(120 335 335)" fill="green" stroke="black" stroke-width="0.5" />
<polygon points="215,542.846 195,577.487 235,577.487" transform="rotate(120 335 335)" fill="green" stroke="black" stroke-width="0.5" />
<polygon points="255,542.846 235,577.487 275,577.487" transform="rotate(120 335 335)" fill="green" stroke="black" stroke-width="0.5" />
<polygon points="295,542.846 275,577.487 315,577.487" transform="rotate(120 335 335)" fill="green" stroke="black" stroke-width="0.5" />
<polygon points="335,542.846 315,577.487 355,577.487" transform="rotate(120 335 335)" fill="green" stroke="black" stroke-width="0.5" />
<polygon points="375,542.846 355,577.487 395,577.487" transform="rotate(120 335 335)" fill="green" stroke="black" stroke-width="0.5" />
<polygon points="415,542.846 395,577.487 435,577.487" transform="rotate(120 335 335)" fill="green" stroke="black" stroke-width="0.5" />
<polygon points="455,542.846 435,577.487 475,577.487" transform="rotate(120 335 335)" fill="green" stroke="black" stroke-width="0.5" />
<polygon points="365,577.487 345,612.128 385,612.128" transform="rotate(120 335 335)" fill="green" stroke="black" stroke-width="0.5" />
<polygon points="325,577.487 305,612.128 345,612.128" transform="rotate(120 335 335)" fill="green" stroke="black" stroke-width="0.5" />
<polygon points="285,577.487 265,612.128 305,612.128" transform="rotate(120 335 335)" fill="green" stroke="black" stroke-width="0.5" />
<polygon points="405,577.487 385,612.128 365,577.487" transform="rotate(120 335 335)" fill="green" stroke="black" stroke-width="0.5" />
<polygon points="365,577.487 345,612.128 325,577.487" transform="rotate(120 335 335)" fill="green" stroke="black" stroke-width="0.5" />
<polygon points="325,577.487 305,612.128 285,577.487" transform="rotate(120 335 335)" fill="green" stroke="black" stroke-width="0.5" />
<polygon points="285,577.487 265,612.128 245,577.487" transform="rotate(120 335 335)" fill="green" stroke="black" stroke-width="0.5" />
<polygon points="335,335 315,369.641 355,369.641" transform="rotate(180 335 335)" fill="green" stroke="black" stroke-width="0.5" />
<polygon points="335,404.282 315,369.641 355,369.641" transform="rotate(180 335 335)" fill="green" stroke="black" stroke-width="0.5" />
<polygon points="315,369.641 295,404.282 335,404.282" transform="rotate(180 335 335)" fill="green" stroke="black" stroke-width="0.5" />
<polygon points="315,438.923 295,404.282 335,404.282" transform="rotate(180 335 335)" fill="green" stroke="black" stroke-width="0.5" />
<polygon points="355,369.641 335,404.282 375,404.282" transform="rotate(180 335 335)" fill="green" stroke="black" stroke-width="0.5" />
<polygon points="355,438.923 335,404.282 375,404.282" transform="rotate(180 335 335)" fill="green" stroke="black" stroke-width="0.5" />
<polygon points="295,404.282 275,438.923 315,438.923" transform="rotate(180 335 335)" fill="green" stroke="black" stroke-width="0.5" />
<polygon points="295,473.564 275,438.923 315,438.923" transform="rotate(180 335 335)" fill="green" stroke="black" stroke-width="0.5" />
<polygon points="335,404.282 315,438.923 355,438.923" transform="rotate(180 335 335)" fill="green" stroke="black" stroke-width="0.5" />
<polygon points="335,473.564 315,438.923 355,438.923" transform="rotate(180 335 335)" fill="green" stroke="black" stroke-width="0.5" />
<polygon points="375,404.282 355,438.923 395,438.923" transform="rotate(180 335 335)" fill="green" stroke="black" stroke-width="0.5" />
<polygon points="375,473.564 355,438.923 395,438.923" transform="rotate(180 335 335)" fill="green" stroke="black" stroke-width="0.5" />
<polygon points="275,438.923 255,473.564 295,473.564" transform="rotate(180 335 335)" fill="green" stroke="black" stroke-width="0.5" />
<polygon points="275,508.205 255,473.564 295,473.564" transform="rotate(180 335 335)" fill="green" stroke="black" stroke-width="0.5" />
<polygon points="315,438.923 295,473.564 335,473.564" transform="rotate(180 335 335)" fill="green" stroke="black" stroke-width="0.5" />
<polygon points="315,508.205 295,473.564 335,473.564" transform="rotate(180 335 335)" fill="green" stroke="black" stroke-width="0.5" />
<polygon points="355,438.923 335,473.564 375,473.564" transform="rotate(180 335 335)" fill="green" stroke="black" stroke-width="0.5" />
<polygon points="355,508.205 335,473.564 375,473.564" transform="rotate(180 335 335)" fill="green" stroke="black" stroke-width="0.5" />
<polygon points="395,438.923 375,473.564 415,473.564" transform="rotate(180 335 335)" fill="green" stroke="black" stroke-width="0.5" />
<polygon points="395,508.205 375,473.564 415,473.564" transform="rotate(180 335 335)" fill="green" stroke="black" stroke-width="0.5" />
<polygon points="255,473.564 235,508.205 275,508.205" transform="rotate(180 335 335)" fill="green" stroke="black" stroke-width="0.5" />
<polygon points="255,542.846 235,508.205 275,508.205" transform="rotate(180 335 335)" fill="green" stroke="black" stroke-width="0.5" />
<polygon points="295,473.564 275,508.205 315,508.205" transform="rotate(180 335 335)" fill="green" stroke="black" stroke-width="0.5" />
<polygon points="295,542.846 275,508.205 315,508.205" transform="rotate(180 335 335)" fill="green" stroke="black" stroke-width="0.5" />
<polygon points="335,473.564 315,508.205 355,508.205" transform="rotate(180 335 335)" fill="green" stroke="black" stroke-width="0.5" />
<polygon points="335,542.846 315,508.205 355,508.205" transform="rotate(180 335 335)" fill="green" stroke="black" stroke-width="0.5" />
<polygon points="375,473.564 355,508.205 395,508.205" transform="rotate(180 335 335)" fill="green" stroke="black" stroke-width="0.5" />
<polygon points="375,542.846 355,508.205 395,508.205" transform="rotate(180 335 335)" fill="green" stroke="black" stroke-width="0.5" />
<polygon points="415,473.564 395,508.205 435,508.205" transform="rotate(180 335 335)" fill="green" stroke="black" stroke-width="0.5" />
<polygon points="415,542.846 395,508.205 435,508.205" transform="rotate(180 335 335)" fill="green" stroke="black" stroke-width="0.5" />
<polygon points="235,508.205 215,542.846 255,542.846" transform="rotate(180 335 335)" fill="green" stroke="black" stroke-width="0.5" />
<polygon points="235,577.487 215,542.846 255,542.846" transform="rotate(180 335 335)" fill="green" stroke="black" stroke-width="0.5" />
<polygon points="275,508.205 255,542.846 295,542.846" transform="rotate(180 335 335)" fill="green" stroke="black" stroke-width="0.5" />
<polygon points="275,577.487 255,542.846 295,542.846" transform="rotate(180 335 335)" fill="green" stroke="black" stroke-width="0.5" />
<polygon points="315,508.205 295,542.846 335,542.846" transform="rotate(180 335 335)" fill="green" stroke="black" stroke-width="0.5" />
<polygon points="315,577.487 295,542.846 335,542.846" transform="rotate(180 335 335)" fill="green" stroke="black" stroke-width="0.5" />
<polygon points="355,508.205 335,542.846 375,542.846" transform="rotate(180 335 335)" fill="green" stroke="black" stroke-width="0.5" />
<polygon points="355,577.487 335,542.846 375,542.846" transform="rotate(180 335 335)" fill="green" stroke="black" stroke-width="0.5" />
<polygon points="395,508.205 375,542.846 415,542.846" transform="rotate(180 335 335)" fill="green" stroke="black" stroke-width="0.5" />
<polygon points="395,577.487 375,542.846 415,542.846" transform="rotate(180 335 335)" fill="green" stroke="black" stroke-width="0.5" />
<polygon points="435,508.205 415,542.846 455,542.846" transform="rotate(180 335 335)" fill="green" stroke="black" stroke-width="0.5" />
<polygon points="435,577.487 415,542.846 455,542.846" transform="rotate(180 335 335)" fill="green" stroke="black" stroke-width="0.5" />
<polygon points="215,542.846 195,577.487 235,577.487" transform="rotate(180 335 335)" fill="green" stroke="black" stroke-width="0.5" />
<polygon points="255,542.846 235,577.487 275,577.487" transform="rotate(180 335 335)" fill="green" stroke="black" stroke-width="0.5" />
<polygon points="295,542.846 275,577.487 315,577.487" transform="rotate(180 335 335)" fill="green" stroke="black" stroke-width="0.5" />
<polygon points="335,542.846 315,577.487 355,577.487" transform="rotate(180 335 335)" fill="green" stroke="black" stroke-width="0.5" />
<polygon points="375,542.846 355,577.487 395,577.487" transform="rotate(180 335 335)" fill="green" stroke="black" stroke-width="0.5" />
<polygon points="415,542.846 395,577.487 435,577.487" transform="rotate(180 335 335)" fill="green" stroke="black" stroke-width="0.5" />
<polygon points="455,542.846 435,577.487 475,577.487" transform="rotate(180 335 335)" fill="green" stroke="black" stroke-width="0.5" />
<polygon points="365,577.487 345,612.128 385,612.128" transform="rotate(180 335 335)" fill="green" stroke="black" stroke-width="0.5" />
<polygon points="325,577.487 305,612.128 345,612.128" transform="rotate(180 335 335)" fill="green" stroke="black" stroke-width="0.5" />
<polygon points="285,577.487 265,612.128 305,612.128" transform="rotate(180 335 335)" fill="green" stroke="black" stroke-width="0.5" />
<polygon points="405,577.487 385,612.128 365,577.487" transform="rotate(180 335 335)" fill="green" stroke="black" stroke-width="0.5" />
<polygon points="365,577.487 345,612.128 325,577.487" transform="rotate(180 335 335)" fill="green" stroke="black" stroke-width="0.5" />
<polygon points="325,577.487 305,612.128 285,577.487" transform="rotate(180 335 335)" fill="green" stroke="black" stroke-width="0.5" />
<polygon points="285,577.487 265,612.128 245,577.487" transform="rotate(180 335 335)" fill="green" stroke="black" stroke-width="0.5" />
<polygon points="335,335 315,369.641 355,369.641" transform="rotate(240 335 335)" fill="green" stroke="black" stroke-width="0.5" />
<polygon points="335,404.282 315,369.641 355,369.641" transform="rotate(240 335 335)" fill="green" stroke="black" stroke-width="0.5" />
<polygon points="315,369.641 295,404.282 335,404.282" transform="rotate(240 335 335)" fill="green" stroke="black" stroke-width="0.5" />
<polygon points="315,438.923 295,404.282 335,404.282" transform="rotate(240 335 335)" fill="green" stroke="black" stroke-width="0.5" />
<polygon points="355,369.641 335,404.282 375,404.282" transform="rotate(240 335 335)" fill="green" stroke="black" stroke-width="0.5" />
<polygon points="355,438.923 335,404.282 375,404.282" transform="rotate(240 335 335)" fill="green" stroke="black" stroke-width="0.5" />
<polygon points="295,404.282 275,438.923 315,438.923" transform="rotate(240 335 335)" fill="green" stroke="black" stroke-width="0.5" />
<polygon points="295,473.564 275,438.923 315,438.923" transform="rotate(240 335 335)" fill="green" stroke="black" stroke-width="0.5" />
<polygon points="335,404.282 315,438.923 355,438.923" transform="rotate(240 335 335)" fill="green" stroke="black" stroke-width="0.5" />
<polygon points="335,473.564 315,438.923 355,438.923" transform="rotate(240 335 335)" fill="green" stroke="black" stroke-width="0.5" />
<polygon points="375,404.282 355,438.923 395,438.923" transform="rotate(240 335 335)" fill="green" stroke="black" stroke-width="0.5" />
<polygon points="375,473.564 355,438.923 395,438.923" transform="rotate(240 335 335)" fill="green" stroke="black" stroke-width="0.5" />
<polygon points="275,438.923 255,473.564 295,473.564" transform="rotate(240 335 335)" fill="green" stroke="black" stroke-width="0.5" />
<polygon points="275,508.205 255,473.564 295,473.564" transform="rotate(240 335 335)" fill="green" stroke="black" stroke-width="0.5" />
<polygon points="315,438.923 295,473.564 335,473.564" transform="rotate(240 335 335)" fill="green" stroke="black" stroke-width="0.5" />
<polygon points="315,508.205 295,473.564 335,473.564" transform="rotate(240 335 335)" fill="green" stroke="black" stroke-width="0.5" />
<polygon points="355,438.923 335,473.564 375,473.564" transform="rotate(240 335 335)" fill="green" stroke="black" stroke-width="0.5" />
<polygon points="355,508.205 335,473.564 375,473.564" transform="rotate(240 335 335)" fill="green" stroke="black" stroke-width="0.5" />
<polygon points="395,438.923 375,473.564 415,473.564" transform="rotate(240 335 335)" fill="green" stroke="black" stroke-width="0.5" />
<polygon points="395,508.205 375,473.564 415,473.564" transform="rotate(240 335 335)" fill="green" stroke="black" stroke-width="0.5" />
<polygon points="255,473.564 235,508.205 275,508.205" transform="rotate(240 335 335)" fill="green" stroke="black" stroke-width="0.5" />
<polygon points="255,542.846 235,508.205 275,508.205" transform="rotate(240 335 335)" fill="green" stroke="black" stroke-width="0.5" />
<polygon points="295,473.564 275,508.205 315,508.205" transform="rotate(240 335 335)" fill="green" stroke="black" stroke-width="0.5" />
<polygon points="295,542.846 275,508.205 315,508.205" transform="rotate(240 335 335)" fill="green" stroke="black" stroke-width="0.5" />
<polygon points="335,473.564 315,508.205 355,508.205" transform="rotate(240 335 335)" fill="green" stroke="black" stroke-width="0.5" />
<polygon points="335,542.846 315,508.205 355,508.205" transform="rotate(240 335 335)" fill="green" stroke="black" stroke-width="0.5" />
<polygon points="375,473.564 355,508.205 395,508.205" transform="rotate(240 335 335)" fill="green" stroke="black" stroke-width="0.5" />
<polygon points="375,542.846 355,508.205 395,508.205" transform="rotate(240 335 335)" fill="green" stroke="black" stroke-width="0.5" />
<polygon points="415,473.564 395,508.205 435,508.205" transform="rotate(240 335 335)" fill="green" stroke="black" stroke-width="0.5" />
<polygon points="415,542.846 395,508.205 435,508.205" transform="rotate(240 335 335)" fill="green" stroke="black" stroke-width="0.5" />
<polygon points="235,508.205 215,542.846 255,542.846" transform="rotate(240 335 335)" fill="green" stroke="black" stroke-width="0.5" />
<polygon points="235,577.487 215,542.846 255,542.846" transform="rotate(240 335 335)" fill="green" stroke="black" stroke-width="0.5" />
<polygon points="275,508.205 255,542.846 295,542.846" transform="rotate(240 335 335)" fill="green" stroke="black" stroke-width="0.5" />
<polygon points="275,577.487 255,542.846 295,542.846" transform="rotate(240 335 335)" fill="green" stroke="black" stroke-width="0.5" />
<polygon points="315,508.205 295,542.846 335,542.846" transform="rotate(240 335 335)" fill="green" stroke="black" stroke-width="0.5" />
<polygon points="315,577.487 295,542.846 335,542.846" transform="rotate(240 335 335)" fill="green" stroke="black" stroke-width="0.5" />
<polygon points="355,508.205 335,542.846 375,542.846" transform="rotate(240 335 335)" fill="green" stroke="black" stroke-width="0.5" />
<polygon points="355,577.487 335,542.846 375,542.846" transform="rotate(240 335 335)" fill="green" stroke="black" stroke-width="0.5" />
<polygon points="395,508.205 375,542.846 415,542.846" transform="rotate(240 335 335)" fill="green" stroke="black" stroke-width="0.5" />
<polygon points="395,577.487 375,542.846 415,542.846" transform="rotate(240 335 335)" fill="green" stroke="black" stroke-width="0.5" />
<polygon points="435,508.205 415,542.846 455,542.846" transform="rotate(240 335 335)" fill="green" stroke="black" stroke-width="0.5" />
<polygon points="435,577.487 415,542.846 455,542.846" transform="rotate(240 335 335)" fill="green" stroke="black" stroke-width="0.5" />
<polygon points="215,542.846 195,577.487 235,577.487" transform="rotate(240 335 335)" fill="green" stroke="black" stroke-width="0.5" />
<polygon points="255,542.846 235,577.487 275,577.487" transform="rotate(240 335 335)" fill="green" stroke="black" stroke-width="0.5" />
<polygon points="295,542.846 275,577.487 315,577.487" transform="rotate(240 335 335)" fill="green" stroke="black" stroke-width="0.5" />
<polygon points="335,542.846 315,577.487 355,577.487" transform="rotate(240 335 335)" fill="green" stroke="black" stroke-width="0.5" />
<polygon points="375,542.846 355,577.487 395,577.487" transform="rotate(240 335 335)" fill="green" stroke="black" stroke-width="0.5" />
<polygon points="415,542.846 395,577.487 435,577.487" transform="rotate(240 335 335)" fill="green" stroke="black" stroke-width="0.5" />
<polygon points="455,542.846 435,577.487 475,577.487" transform="rotate(240 335 335)" fill="green" stroke="black" stroke-width="0.5" />
<polygon points="365,577.487 345,612.128 385,612.128" transform="rotate(240 335 335)" fill="green" stroke="black" stroke-width="0.5" />
<polygon points="325,577.487 305,612.128 345,612.128" transform="rotate(240 335 335)" fill="green" stroke="black" stroke-width="0.5" />
<polygon points="285,577.487 265,612.128 305,612.128" transform="rotate(240 335 335)" fill="green" stroke="black" stroke-width="0.5" />
<polygon points="405,577.487 385,612.128 365,577.487" transform="rotate(240 335 335)" fill="green" stroke="black" stroke-width="0.5" />
<polygon points="365,577.487 345,612.128 325,577.487" transform="rotate(240 335 335)" fill="green" stroke="black" stroke-width="0.5" />
<polygon points="325,577.487 305,612.128 285,577.487" transform="rotate(240 335 335)" fill="green" stroke="black" stroke-width="0.5" />
<polygon points="285,577.487 265,612.128 245,577.487" transform="rotate(240 335 335)" fill="green" stroke="black" stroke-width="0.5" />
<polygon points="335,335 315,369.641 355,369.641" transform="rotate(300 335 335)" fill="green" stroke="black" stroke-width="0.5" />
<polygon points="335,404.282 315,369.641 355,369.641" transform="rotate(300 335 335)" fill="green" stroke="black" stroke-width="0.5" />
<polygon points="315,369.641 295,404.282 335,404.282" transform="rotate(300 335 335)" fill="green" stroke="black" stroke-width="0.5" />
<polygon points="315,438.923 295,404.282 335,404.282" transform="rotate(300 335 335)" fill="green" stroke="black" stroke-width="0.5" />
<polygon points="355,369.641 335,404.282 375,404.282" transform="rotate(300 335 335)" fill="green" stroke="black" stroke-width="0.5" />
<polygon points="355,438.923 335,404.282 375,404.282" transform="rotate(300 335 335)" fill="green" stroke="black" stroke-width="0.5" />
<polygon points="295,404.282 275,438.923 315,438.923" transform="rotate(300 335 335)" fill="green" stroke="black" stroke-width="0.5" />
<polygon points="295,473.564 275,438.923 315,438.923" transform="rotate(300 335 335)" fill="green" stroke="black" stroke-width="0.5" />
<polygon points="335,404.282 315,438.923 355,438.923" transform="rotate(300 335 335)" fill="green" stroke="black" stroke-width="0.5" />
<polygon points="335,473.564 315,438.923 355,438.923" transform="rotate(300 335 335)" fill="green" stroke="black" stroke-width="0.5" />
<polygon points="375,404.282 355,438.923 395,438.923" transform="rotate(300 335 335)" fill="green" stroke="black" stroke-width="0.5" />
<polygon points="375,473.564 355,438.923 395,438.923" transform="rotate(300 335 335)" fill="green" stroke="black" stroke-width="0.5" />
<polygon points="275,438.923 255,473.564 295,473.564" transform="rotate(300 335 335)" fill="green" stroke="black" stroke-width="0.5" />
<polygon points="275,508.205 255,473.564 295,473.564" transform="rotate(300 335 335)" fill="green" stroke="black" stroke-width="0.5" />
<polygon points="315,438.923 295,473.564 335,473.564" transform="rotate(300 335 335)" fill="green" stroke="black" stroke-width="0.5" />
<polygon points="315,508.205 295,473.564 335,473.564" transform="rotate(300 335 335)" fill="green" stroke="black" stroke-width="0.5" />
<polygon points="355,438.923 335,473.564 375,473.564" transform="rotate(300 335 335)" fill="green" stroke="black" stroke-width="0.5" />
<polygon points="355,508.205 335,473.564 375,473.564" transform="rotate(300 335 335)" fill="green" stroke="black" stroke-width="0.5" />
<polygon points="395,438.923 375,473.564 415,473.564" transform="rotate(300 335 335)" fill="green" stroke="black" stroke-width="0.5" />
<polygon points="395,508.205 375,473.564 415,473.564" transform="rotate(300 335 335)" fill="green" stroke="black" stroke-width="0.5" />
<polygon points="255,473.564 235,508.205 275,508.205" transform="rotate(300 335 335)" fill="green" stroke="black" stroke-width="0.5" />
<polygon points="255,542.846 235,508.205 275,508.205" transform="rotate(300 335 335)" fill="green" stroke="black" stroke-width="0.5" />
<polygon points="295,473.564 275,508.205 315,508.205" transform="rotate(300 335 335)" fill="green" stroke="black" stroke-width="0.5" />
<polygon points="295,542.846 275,508.205 315,508.205" transform="rotate(300 335 335)" fill="green" stroke="black" stroke-width="0.5" />
<polygon points="335,473.564 315,508.205 355,508.205" transform="rotate(300 335 335)" fill="green" stroke="black" stroke-width="0.5" />
<polygon points="335,542.846 315,508.205 355,508.205" transform="rotate(300 335 335)" fill="green" stroke="black" stroke-width="0.5" />
<polygon points="375,473.564 355,508.205 395,508.205" transform="rotate(300 335 335)" fill="green" stroke="black" stroke-width="0.5" />
<polygon points="375,542.846 355,508.205 395,508.205" transform="rotate(300 335 335)" fill="green" stroke="black" stroke-width="0.5" />
<polygon points="415,473.564 395,508.205 435,508.205" transform="rotate(300 335 335)" fill="green" stroke="black" stroke-width="0.5" />
<polygon points="415,542.846 395,508.205 435,508.205" transform="rotate(300 335 335)" fill="green" stroke="black" stroke-width="0.5" />
<polygon points="235,508.205 215,542.846 255,542.846" transform="rotate(300 335 335)" fill="green" stroke="black" stroke-width="0.5" />
<polygon points="235,577.487 215,542.846 255,542.846" transform="rotate(300 335 335)" fill="green" stroke="black" stroke-width="0.5" />
<polygon points="275,508.205 255,542.846 295,542.846" transform="rotate(300 335 335)" fill="green" stroke="black" stroke-width="0.5" />
<polygon points="275,577.487 255,542.846 295,542.846" transform="rotate(300 335 335)" fill="green" stroke="black" stroke-width="0.5" />
<polygon points="315,508.205 295,542.846 335,542.846" transform="rotate(300 335 335)" fill="green" stroke="black" stroke-width="0.5" />
<polygon points="315,577.487 295,542.846 335,542.846" transform="rotate(300 335 335)" fill="green" stroke="black" stroke-width="0.5" />
<polygon points="355,508.205 335,542.846 375,542.846" transform="rotate(300 335 335)" fill="green" stroke="black" stroke-width="0.5" />
<polygon points="355,577.487 335,542.846 375,542.846" transform="rotate(300 335 335)" fill="green" stroke="black" stroke-width="0.5" />
<polygon points="395,508.205 375,542.846 415,542.846" transform="rotate(300 335 335)" fill="green" stroke="black" stroke-width="0.5" />
<polygon points="395,577.487 375,542.846 415,542.846" transform="rotate(300 335 335)" fill="green" stroke="black" stroke-width="0.5" />
<polygon points="435,508.205 415,542.846 455,542.846" transform="rotate(300 335 335)" fill="green" stroke="black" stroke-width="0.5" />
<polygon points="435,577.487 415,542.846 455,542.846" transform="rotate(300 335 335)" fill="green" stroke="black" stroke-width="0.5" />
<polygon points="215,542.846 195,577.487 235,577.487" transform="rotate(300 335 335)" fill="green" stroke="black" stroke-width="0.5" />
<polygon points="255,542.846 235,577.487 275,577.487" transform="rotate(300 335 335)" fill="green" stroke="black" stroke-width="0.5" />
<polygon points="295,542.846 275,577.487 315,577.487" transform="rotate(300 335 335)" fill="green" stroke="black" stroke-width="0.5" />
<polygon points="335,542.846 315,577.487 355,577.487" transform="rotate(300 335 335)" fill="green" stroke="black" stroke-width="0.5" />
<polygon points="375,542.846 355,577.487 395,577.487" transform="rotate(300 335 335)" fill="green" stroke="black" stroke-width="0.5" />
<polygon points="415,542.846 395,577.487 435,577.487" transform="rotate(300 335 335)" fill="green" stroke="black" stroke-width="0.5" />
<polygon points="455,542.846 435,577.487 475,577.487" transform="rotate(300 335 335)" fill="green" stroke="black" stroke-width="0.5" />
<polygon points="365,577.487 345,612.128 385,612.128" transform="rotate(300 335 335)" fill="green" stroke="black" stroke-width="0.5" />
<polygon points="325,577.487 305,612.128 345,612.128" transform="rotate(300 335 335)" fill="green" stroke="black" stroke-width="0.5" />
<polygon points="285,577.487 265,612.128 305,612.128" transform="rotate(300 335 335)" fill="green" stroke="black" stroke-width="0.5" />
<polygon points="405,577.487 385,612.128 365,577.487" transform="rotate(300 335 335)" fill="green" stroke="black" stroke-width="0.5" />
<polygon points="365,577.487 345,612.128 325,577.487" transform="rotate(300 335 335)" fill="green" stroke="black" stroke-width="0.5" />
<polygon points="325,577.487 305,612.128 285,577.487" transform="rotate(300 335 335)" fill="green" stroke="black" stroke-width="0.5" />
<polygon points="285,577.487 265,612.128 245,577.487" transform="rotate(300 335 335)" fill="green" stroke="black" stroke-width="0.5" />
</svg>
