<svg version="1.1" baseProfile="full" xmlns="http://www.w3.org/2000/svg">
<rect x="28"  y="28" width="500" height="750" transform="rotate(0 28 28)" fill="pink" stroke="black" stroke-width="0.5" />
<circle cx="78" cy="78" r="50" transform="rotate(0 7 7)" fill="green" stroke="black" stroke-width="0.5" />
<circle cx="178" cy="78" r="50" transform="rotate(0 7 7)" fill="green" stroke="black" stroke-width="0.5" />
<circle cx="278" cy="78" r="50" transform="rotate(0 7 7)" fill="green" stroke="black" stroke-width="0.5" />
<circle cx="378" cy="78" r="50" transform="rotate(0 7 7)" fill="green" stroke="black" stroke-width="0.5" />
<circle cx="478" cy="78" r="50" transform="rotate(0 7 7)" fill="green" stroke="black" stroke-width="0.5" />
<circle cx="128" cy="164.603" r="50" transform="rotate(0 7 7)" fill="green" stroke="black" stroke-width="0.5" />
<circle cx="228" cy="164.603" r="50" transform="rotate(0 7 7)" fill="green" stroke="black" stroke-width="0.5" />
<circle cx="328" cy="164.603" r="50" transform="rotate(0 7 7)" fill="green" stroke="black" stroke-width="0.5" />
<circle cx="428" cy="164.603" r="50" transform="rotate(0 7 7)" fill="green" stroke="black" stroke-width="0.5" />
<circle cx="78" cy="251.205" r="50" transform="rotate(0 7 7)" fill="green" stroke="black" stroke-width="0.5" />
<circle cx="178" cy="251.205" r="50" transform="rotate(0 7 7)" fill="green" stroke="black" stroke-width="0.5" />
<circle cx="278" cy="251.205" r="50" transform="rotate(0 7 7)" fill="green" stroke="black" stroke-width="0.5" />
<circle cx="378" cy="251.205" r="50" transform="rotate(0 7 7)" fill="green" stroke="black" stroke-width="0.5" />
<circle cx="478" cy="251.205" r="50" transform="rotate(0 7 7)" fill="green" stroke="black" stroke-width="0.5" />
<circle cx="128" cy="337.808" r="50" transform="rotate(0 7 7)" fill="green" stroke="black" stroke-width="0.5" />
<circle cx="228" cy="337.808" r="50" transform="rotate(0 7 7)" fill="green" stroke="black" stroke-width="0.5" />
<circle cx="328" cy="337.808" r="50" transform="rotate(0 7 7)" fill="green" stroke="black" stroke-width="0.5" />
<circle cx="428" cy="337.808" r="50" transform="rotate(0 7 7)" fill="green" stroke="black" stroke-width="0.5" />
<circle cx="78" cy="424.41" r="50" transform="rotate(0 7 7)" fill="green" stroke="black" stroke-width="0.5" />
<circle cx="178" cy="424.41" r="50" transform="rotate(0 7 7)" fill="green" stroke="black" stroke-width="0.5" />
<circle cx="278" cy="424.41" r="50" transform="rotate(0 7 7)" fill="green" stroke="black" stroke-width="0.5" />
<circle cx="378" cy="424.41" r="50" transform="rotate(0 7 7)" fill="green" stroke="black" stroke-width="0.5" />
<circle cx="478" cy="424.41" r="50" transform="rotate(0 7 7)" fill="green" stroke="black" stroke-width="0.5" />
<circle cx="128" cy="511.013" r="50" transform="rotate(0 7 7)" fill="green" stroke="black" stroke-width="0.5" />
<circle cx="228" cy="511.013" r="50" transform="rotate(0 7 7)" fill="green" stroke="black" stroke-width="0.5" />
<circle cx="328" cy="511.013" r="50" transform="rotate(0 7 7)" fill="green" stroke="black" stroke-width="0.5" />
<circle cx="428" cy="511.013" r="50" transform="rotate(0 7 7)" fill="green" stroke="black" stroke-width="0.5" />
<circle cx="78" cy="597.615" r="50" transform="rotate(0 7 7)" fill="green" stroke="black" stroke-width="0.5" />
<circle cx="178" cy="597.615" r="50" transform="rotate(0 7 7)" fill="green" stroke="black" stroke-width="0.5" />
<circle cx="278" cy="597.615" r="50" transform="rotate(0 7 7)" fill="green" stroke="black" stroke-width="0.5" />
<circle cx="378" cy="597.615" r="50" transform="rotate(0 7 7)" fill="green" stroke="black" stroke-width="0.5" />
<circle cx="478" cy="597.615" r="50" transform="rotate(0 7 7)" fill="green" stroke="black" stroke-width="0.5" />
<circle cx="128" cy="684.218" r="50" transform="rotate(0 7 7)" fill="green" stroke="black" stroke-width="0.5" />
<circle cx="228" cy="684.218" r="50" transform="rotate(0 7 7)" fill="green" stroke="black" stroke-width="0.5" />
<circle cx="328" cy="684.218" r="50" transform="rotate(0 7 7)" fill="green" stroke="black" stroke-width="0.5" />
<circle cx="428" cy="684.218" r="50" transform="rotate(0 7 7)" fill="green" stroke="black" stroke-width="0.5" />
</svg>
