<svg version="1.1" baseProfile="full" xmlns="http://www.w3.org/2000/svg">
<polygon points="281,31 31,464.013 531,464.013" transform="rotate(0 31 31)" fill="dimgrey" stroke="black" stroke-width="0.5" />
<circle cx="281" cy="91" r="30" transform="rotate(0 7 7)" fill="cyan" stroke="black" stroke-width="0.5" />
<circle cx="251" cy="142.962" r="30" transform="rotate(0 7 7)" fill="cyan" stroke="black" stroke-width="0.5" />
<circle cx="311" cy="142.962" r="30" transform="rotate(0 7 7)" fill="cyan" stroke="black" stroke-width="0.5" />
<circle cx="281" cy="194.923" r="30" transform="rotate(0 7 7)" fill="cyan" stroke="black" stroke-width="0.5" />
<circle cx="221" cy="194.923" r="30" transform="rotate(0 7 7)" fill="cyan" stroke="black" stroke-width="0.5" />
<circle cx="341" cy="194.923" r="30" transform="rotate(0 7 7)" fill="cyan" stroke="black" stroke-width="0.5" />
<circle cx="251" cy="246.885" r="30" transform="rotate(0 7 7)" fill="cyan" stroke="black" stroke-width="0.5" />
<circle cx="311" cy="246.885" r="30" transform="rotate(0 7 7)" fill="cyan" stroke="black" stroke-width="0.5" />
<circle cx="191" cy="246.885" r="30" transform="rotate(0 7 7)" fill="cyan" stroke="black" stroke-width="0.5" />
<circle cx="371" cy="246.885" r="30" transform="rotate(0 7 7)" fill="cyan" stroke="black" stroke-width="0.5" />
<circle cx="281" cy="298.846" r="30" transform="rotate(0 7 7)" fill="cyan" stroke="black" stroke-width="0.5" />
<circle cx="221" cy="298.846" r="30" transform="rotate(0 7 7)" fill="cyan" stroke="black" stroke-width="0.5" />
<circle cx="161" cy="298.846" r="30" transform="rotate(0 7 7)" fill="cyan" stroke="black" stroke-width="0.5" />
<circle cx="341" cy="298.846" r="30" transform="rotate(0 7 7)" fill="cyan" stroke="black" stroke-width="0.5" />
<circle cx="401" cy="298.846" r="30" transform="rotate(0 7 7)" fill="cyan" stroke="black" stroke-width="0.5" />
<circle cx="251" cy="350.808" r="30" transform="rotate(0 7 7)" fill="cyan" stroke="black" stroke-width="0.5" />
<circle cx="311" cy="350.808" r="30" transform="rotate(0 7 7)" fill="cyan" stroke="black" stroke-width="0.5" />
<circle cx="191" cy="350.808" r="30" transform="rotate(0 7 7)" fill="cyan" stroke="black" stroke-width="0.5" />
<circle cx="371" cy="350.808" r="30" transform="rotate(0 7 7)" fill="cyan" stroke="black" stroke-width="0.5" />
<circle cx="131" cy="350.808" r="30" transform="rotate(0 7 7)" fill="cyan" stroke="black" stroke-width="0.5" />
<circle cx="431" cy="350.808" r="30" transform="rotate(0 7 7)" fill="cyan" stroke="black" stroke-width="0.5" />
<circle cx="281" cy="402.769" r="30" transform="rotate(0 7 7)" fill="cyan" stroke="black" stroke-width="0.5" />
<circle cx="221" cy="402.769" r="30" transform="rotate(0 7 7)" fill="cyan" stroke="black" stroke-width="0.5" />
<circle cx="161" cy="402.769" r="30" transform="rotate(0 7 7)" fill="cyan" stroke="black" stroke-width="0.5" />
<circle cx="101" cy="402.769" r="30" transform="rotate(0 7 7)" fill="cyan" stroke="black" stroke-width="0.5" />
<circle cx="341" cy="402.769" r="30" transform="rotate(0 7 7)" fill="cyan" stroke="black" stroke-width="0.5" />
<circle cx="401" cy="402.769" r="30" transform="rotate(0 7 7)" fill="cyan" stroke="black" stroke-width="0.5" />
<circle cx="461" cy="402.769" r="30" transform="rotate(0 7 7)" fill="cyan" stroke="black" stroke-width="0.5" />
</svg>
