<svg version="1.1" baseProfile="full" xmlns="http://www.w3.org/2000/svg">
<circle cx="307" cy="307" r="300" transform="rotate(0 7 7)" fill="brown" stroke="black" stroke-width="0.5" />
<rect x="94.868"  y="94.868" width="110" height="15" transform="rotate(0 94.868 94.868)" fill="green" stroke="black" stroke-width="0.5" />
<rect x="204.868"  y="94.868" width="110" height="15" transform="rotate(0 94.868 94.868)" fill="green" stroke="black" stroke-width="0.5" />
<rect x="314.868"  y="94.868" width="110" height="15" transform="rotate(0 94.868 94.868)" fill="green" stroke="black" stroke-width="0.5" />
<rect x="94.868"  y="109.868" width="110" height="15" transform="rotate(0 94.868 94.868)" fill="green" stroke="black" stroke-width="0.5" />
<rect x="204.868"  y="109.868" width="110" height="15" transform="rotate(0 94.868 94.868)" fill="green" stroke="black" stroke-width="0.5" />
<rect x="314.868"  y="109.868" width="110" height="15" transform="rotate(0 94.868 94.868)" fill="green" stroke="black" stroke-width="0.5" />
<rect x="94.868"  y="124.868" width="110" height="15" transform="rotate(0 94.868 94.868)" fill="green" stroke="black" stroke-width="0.5" />
<rect x="204.868"  y="124.868" width="110" height="15" transform="rotate(0 94.868 94.868)" fill="green" stroke="black" stroke-width="0.5" />
<rect x="314.868"  y="124.868" width="110" height="15" transform="rotate(0 94.868 94.868)" fill="green" stroke="black" stroke-width="0.5" />
<rect x="94.868"  y="139.868" width="110" height="15" transform="rotate(0 94.868 94.868)" fill="green" stroke="black" stroke-width="0.5" />
<rect x="204.868"  y="139.868" width="110" height="15" transform="rotate(0 94.868 94.868)" fill="green" stroke="black" stroke-width="0.5" />
<rect x="314.868"  y="139.868" width="110" height="15" transform="rotate(0 94.868 94.868)" fill="green" stroke="black" stroke-width="0.5" />
<rect x="94.868"  y="154.868" width="110" height="15" transform="rotate(0 94.868 94.868)" fill="green" stroke="black" stroke-width="0.5" />
<rect x="204.868"  y="154.868" width="110" height="15" transform="rotate(0 94.868 94.868)" fill="green" stroke="black" stroke-width="0.5" />
<rect x="314.868"  y="154.868" width="110" height="15" transform="rotate(0 94.868 94.868)" fill="green" stroke="black" stroke-width="0.5" />
<rect x="94.868"  y="169.868" width="110" height="15" transform="rotate(0 94.868 94.868)" fill="green" stroke="black" stroke-width="0.5" />
<rect x="204.868"  y="169.868" width="110" height="15" transform="rotate(0 94.868 94.868)" fill="green" stroke="black" stroke-width="0.5" />
<rect x="314.868"  y="169.868" width="110" height="15" transform="rotate(0 94.868 94.868)" fill="green" stroke="black" stroke-width="0.5" />
<rect x="94.868"  y="184.868" width="110" height="15" transform="rotate(0 94.868 94.868)" fill="green" stroke="black" stroke-width="0.5" />
<rect x="204.868"  y="184.868" width="110" height="15" transform="rotate(0 94.868 94.868)" fill="green" stroke="black" stroke-width="0.5" />
<rect x="314.868"  y="184.868" width="110" height="15" transform="rotate(0 94.868 94.868)" fill="green" stroke="black" stroke-width="0.5" />
<rect x="94.868"  y="199.868" width="110" height="15" transform="rotate(0 94.868 94.868)" fill="green" stroke="black" stroke-width="0.5" />
<rect x="204.868"  y="199.868" width="110" height="15" transform="rotate(0 94.868 94.868)" fill="green" stroke="black" stroke-width="0.5" />
<rect x="314.868"  y="199.868" width="110" height="15" transform="rotate(0 94.868 94.868)" fill="green" stroke="black" stroke-width="0.5" />
<rect x="94.868"  y="214.868" width="110" height="15" transform="rotate(0 94.868 94.868)" fill="green" stroke="black" stroke-width="0.5" />
<rect x="204.868"  y="214.868" width="110" height="15" transform="rotate(0 94.868 94.868)" fill="green" stroke="black" stroke-width="0.5" />
<rect x="314.868"  y="214.868" width="110" height="15" transform="rotate(0 94.868 94.868)" fill="green" stroke="black" stroke-width="0.5" />
<rect x="94.868"  y="229.868" width="110" height="15" transform="rotate(0 94.868 94.868)" fill="green" stroke="black" stroke-width="0.5" />
<rect x="204.868"  y="229.868" width="110" height="15" transform="rotate(0 94.868 94.868)" fill="green" stroke="black" stroke-width="0.5" />
<rect x="314.868"  y="229.868" width="110" height="15" transform="rotate(0 94.868 94.868)" fill="green" stroke="black" stroke-width="0.5" />
<rect x="94.868"  y="244.868" width="110" height="15" transform="rotate(0 94.868 94.868)" fill="green" stroke="black" stroke-width="0.5" />
<rect x="204.868"  y="244.868" width="110" height="15" transform="rotate(0 94.868 94.868)" fill="green" stroke="black" stroke-width="0.5" />
<rect x="314.868"  y="244.868" width="110" height="15" transform="rotate(0 94.868 94.868)" fill="green" stroke="black" stroke-width="0.5" />
<rect x="94.868"  y="259.868" width="110" height="15" transform="rotate(0 94.868 94.868)" fill="green" stroke="black" stroke-width="0.5" />
<rect x="204.868"  y="259.868" width="110" height="15" transform="rotate(0 94.868 94.868)" fill="green" stroke="black" stroke-width="0.5" />
<rect x="314.868"  y="259.868" width="110" height="15" transform="rotate(0 94.868 94.868)" fill="green" stroke="black" stroke-width="0.5" />
<rect x="94.868"  y="274.868" width="110" height="15" transform="rotate(0 94.868 94.868)" fill="green" stroke="black" stroke-width="0.5" />
<rect x="204.868"  y="274.868" width="110" height="15" transform="rotate(0 94.868 94.868)" fill="green" stroke="black" stroke-width="0.5" />
<rect x="314.868"  y="274.868" width="110" height="15" transform="rotate(0 94.868 94.868)" fill="green" stroke="black" stroke-width="0.5" />
<rect x="94.868"  y="289.868" width="110" height="15" transform="rotate(0 94.868 94.868)" fill="green" stroke="black" stroke-width="0.5" />
<rect x="204.868"  y="289.868" width="110" height="15" transform="rotate(0 94.868 94.868)" fill="green" stroke="black" stroke-width="0.5" />
<rect x="314.868"  y="289.868" width="110" height="15" transform="rotate(0 94.868 94.868)" fill="green" stroke="black" stroke-width="0.5" />
<rect x="94.868"  y="304.868" width="110" height="15" transform="rotate(0 94.868 94.868)" fill="green" stroke="black" stroke-width="0.5" />
<rect x="204.868"  y="304.868" width="110" height="15" transform="rotate(0 94.868 94.868)" fill="green" stroke="black" stroke-width="0.5" />
<rect x="314.868"  y="304.868" width="110" height="15" transform="rotate(0 94.868 94.868)" fill="green" stroke="black" stroke-width="0.5" />
<rect x="94.868"  y="319.868" width="110" height="15" transform="rotate(0 94.868 94.868)" fill="green" stroke="black" stroke-width="0.5" />
<rect x="204.868"  y="319.868" width="110" height="15" transform="rotate(0 94.868 94.868)" fill="green" stroke="black" stroke-width="0.5" />
<rect x="314.868"  y="319.868" width="110" height="15" transform="rotate(0 94.868 94.868)" fill="green" stroke="black" stroke-width="0.5" />
<rect x="94.868"  y="334.868" width="110" height="15" transform="rotate(0 94.868 94.868)" fill="green" stroke="black" stroke-width="0.5" />
<rect x="204.868"  y="334.868" width="110" height="15" transform="rotate(0 94.868 94.868)" fill="green" stroke="black" stroke-width="0.5" />
<rect x="314.868"  y="334.868" width="110" height="15" transform="rotate(0 94.868 94.868)" fill="green" stroke="black" stroke-width="0.5" />
<rect x="94.868"  y="349.868" width="110" height="15" transform="rotate(0 94.868 94.868)" fill="green" stroke="black" stroke-width="0.5" />
<rect x="204.868"  y="349.868" width="110" height="15" transform="rotate(0 94.868 94.868)" fill="green" stroke="black" stroke-width="0.5" />
<rect x="314.868"  y="349.868" width="110" height="15" transform="rotate(0 94.868 94.868)" fill="green" stroke="black" stroke-width="0.5" />
<rect x="94.868"  y="364.868" width="110" height="15" transform="rotate(0 94.868 94.868)" fill="green" stroke="black" stroke-width="0.5" />
<rect x="204.868"  y="364.868" width="110" height="15" transform="rotate(0 94.868 94.868)" fill="green" stroke="black" stroke-width="0.5" />
<rect x="314.868"  y="364.868" width="110" height="15" transform="rotate(0 94.868 94.868)" fill="green" stroke="black" stroke-width="0.5" />
<rect x="94.868"  y="379.868" width="110" height="15" transform="rotate(0 94.868 94.868)" fill="green" stroke="black" stroke-width="0.5" />
<rect x="204.868"  y="379.868" width="110" height="15" transform="rotate(0 94.868 94.868)" fill="green" stroke="black" stroke-width="0.5" />
<rect x="314.868"  y="379.868" width="110" height="15" transform="rotate(0 94.868 94.868)" fill="green" stroke="black" stroke-width="0.5" />
<rect x="94.868"  y="394.868" width="110" height="15" transform="rotate(0 94.868 94.868)" fill="green" stroke="black" stroke-width="0.5" />
<rect x="204.868"  y="394.868" width="110" height="15" transform="rotate(0 94.868 94.868)" fill="green" stroke="black" stroke-width="0.5" />
<rect x="314.868"  y="394.868" width="110" height="15" transform="rotate(0 94.868 94.868)" fill="green" stroke="black" stroke-width="0.5" />
<rect x="94.868"  y="409.868" width="110" height="15" transform="rotate(0 94.868 94.868)" fill="green" stroke="black" stroke-width="0.5" />
<rect x="204.868"  y="409.868" width="110" height="15" transform="rotate(0 94.868 94.868)" fill="green" stroke="black" stroke-width="0.5" />
<rect x="314.868"  y="409.868" width="110" height="15" transform="rotate(0 94.868 94.868)" fill="green" stroke="black" stroke-width="0.5" />
<rect x="94.868"  y="424.868" width="110" height="15" transform="rotate(0 94.868 94.868)" fill="green" stroke="black" stroke-width="0.5" />
<rect x="204.868"  y="424.868" width="110" height="15" transform="rotate(0 94.868 94.868)" fill="green" stroke="black" stroke-width="0.5" />
<rect x="314.868"  y="424.868" width="110" height="15" transform="rotate(0 94.868 94.868)" fill="green" stroke="black" stroke-width="0.5" />
<rect x="94.868"  y="439.868" width="110" height="15" transform="rotate(0 94.868 94.868)" fill="green" stroke="black" stroke-width="0.5" />
<rect x="204.868"  y="439.868" width="110" height="15" transform="rotate(0 94.868 94.868)" fill="green" stroke="black" stroke-width="0.5" />
<rect x="314.868"  y="439.868" width="110" height="15" transform="rotate(0 94.868 94.868)" fill="green" stroke="black" stroke-width="0.5" />
<rect x="94.868"  y="454.868" width="110" height="15" transform="rotate(0 94.868 94.868)" fill="green" stroke="black" stroke-width="0.5" />
<rect x="204.868"  y="454.868" width="110" height="15" transform="rotate(0 94.868 94.868)" fill="green" stroke="black" stroke-width="0.5" />
<rect x="314.868"  y="454.868" width="110" height="15" transform="rotate(0 94.868 94.868)" fill="green" stroke="black" stroke-width="0.5" />
<rect x="94.868"  y="469.868" width="110" height="15" transform="rotate(0 94.868 94.868)" fill="green" stroke="black" stroke-width="0.5" />
<rect x="204.868"  y="469.868" width="110" height="15" transform="rotate(0 94.868 94.868)" fill="green" stroke="black" stroke-width="0.5" />
<rect x="314.868"  y="469.868" width="110" height="15" transform="rotate(0 94.868 94.868)" fill="green" stroke="black" stroke-width="0.5" />
<rect x="94.868"  y="484.868" width="110" height="15" transform="rotate(0 94.868 94.868)" fill="green" stroke="black" stroke-width="0.5" />
<rect x="204.868"  y="484.868" width="110" height="15" transform="rotate(0 94.868 94.868)" fill="green" stroke="black" stroke-width="0.5" />
<rect x="314.868"  y="484.868" width="110" height="15" transform="rotate(0 94.868 94.868)" fill="green" stroke="black" stroke-width="0.5" />
<rect x="94.868"  y="499.868" width="110" height="15" transform="rotate(0 94.868 94.868)" fill="green" stroke="black" stroke-width="0.5" />
<rect x="204.868"  y="499.868" width="110" height="15" transform="rotate(0 94.868 94.868)" fill="green" stroke="black" stroke-width="0.5" />
<rect x="314.868"  y="499.868" width="110" height="15" transform="rotate(0 94.868 94.868)" fill="green" stroke="black" stroke-width="0.5" />
<rect x="424.868"  y="94.868" width="15" height="110" transform="rotate(0 94.868 94.868)" fill="green" stroke="black" stroke-width="0.5" />
<rect x="424.868"  y="204.868" width="15" height="110" transform="rotate(0 94.868 94.868)" fill="green" stroke="black" stroke-width="0.5" />
<rect x="424.868"  y="314.868" width="15" height="110" transform="rotate(0 94.868 94.868)" fill="green" stroke="black" stroke-width="0.5" />
<rect x="439.868"  y="94.868" width="15" height="110" transform="rotate(0 94.868 94.868)" fill="green" stroke="black" stroke-width="0.5" />
<rect x="439.868"  y="204.868" width="15" height="110" transform="rotate(0 94.868 94.868)" fill="green" stroke="black" stroke-width="0.5" />
<rect x="439.868"  y="314.868" width="15" height="110" transform="rotate(0 94.868 94.868)" fill="green" stroke="black" stroke-width="0.5" />
<rect x="454.868"  y="94.868" width="15" height="110" transform="rotate(0 94.868 94.868)" fill="green" stroke="black" stroke-width="0.5" />
<rect x="454.868"  y="204.868" width="15" height="110" transform="rotate(0 94.868 94.868)" fill="green" stroke="black" stroke-width="0.5" />
<rect x="454.868"  y="314.868" width="15" height="110" transform="rotate(0 94.868 94.868)" fill="green" stroke="black" stroke-width="0.5" />
<rect x="469.868"  y="94.868" width="15" height="110" transform="rotate(0 94.868 94.868)" fill="green" stroke="black" stroke-width="0.5" />
<rect x="469.868"  y="204.868" width="15" height="110" transform="rotate(0 94.868 94.868)" fill="green" stroke="black" stroke-width="0.5" />
<rect x="469.868"  y="314.868" width="15" height="110" transform="rotate(0 94.868 94.868)" fill="green" stroke="black" stroke-width="0.5" />
<rect x="484.868"  y="94.868" width="15" height="110" transform="rotate(0 94.868 94.868)" fill="green" stroke="black" stroke-width="0.5" />
<rect x="484.868"  y="204.868" width="15" height="110" transform="rotate(0 94.868 94.868)" fill="green" stroke="black" stroke-width="0.5" />
<rect x="484.868"  y="314.868" width="15" height="110" transform="rotate(0 94.868 94.868)" fill="green" stroke="black" stroke-width="0.5" />
<rect x="499.868"  y="94.868" width="15" height="110" transform="rotate(0 94.868 94.868)" fill="green" stroke="black" stroke-width="0.5" />
<rect x="499.868"  y="204.868" width="15" height="110" transform="rotate(0 94.868 94.868)" fill="green" stroke="black" stroke-width="0.5" />
<rect x="499.868"  y="314.868" width="15" height="110" transform="rotate(0 94.868 94.868)" fill="green" stroke="black" stroke-width="0.5" />
<rect x="307"  y="519.132" width="110" height="15" transform="rotate(0 307 307)" fill="green" stroke="black" stroke-width="0.5" />
<rect x="197"  y="519.132" width="110" height="15" transform="rotate(0 307 307)" fill="green" stroke="black" stroke-width="0.5" />
<rect x="307"  y="534.132" width="110" height="15" transform="rotate(0 307 307)" fill="green" stroke="black" stroke-width="0.5" />
<rect x="197"  y="534.132" width="110" height="15" transform="rotate(0 307 307)" fill="green" stroke="black" stroke-width="0.5" />
<rect x="307"  y="549.132" width="110" height="15" transform="rotate(0 307 307)" fill="green" stroke="black" stroke-width="0.5" />
<rect x="197"  y="549.132" width="110" height="15" transform="rotate(0 307 307)" fill="green" stroke="black" stroke-width="0.5" />
<rect x="307"  y="564.132" width="110" height="15" transform="rotate(0 307 307)" fill="green" stroke="black" stroke-width="0.5" />
<rect x="197"  y="564.132" width="110" height="15" transform="rotate(0 307 307)" fill="green" stroke="black" stroke-width="0.5" />
<rect x="307"  y="519.132" width="110" height="15" transform="rotate(90 307 307)" fill="green" stroke="black" stroke-width="0.5" />
<rect x="197"  y="519.132" width="110" height="15" transform="rotate(90 307 307)" fill="green" stroke="black" stroke-width="0.5" />
<rect x="307"  y="534.132" width="110" height="15" transform="rotate(90 307 307)" fill="green" stroke="black" stroke-width="0.5" />
<rect x="197"  y="534.132" width="110" height="15" transform="rotate(90 307 307)" fill="green" stroke="black" stroke-width="0.5" />
<rect x="307"  y="549.132" width="110" height="15" transform="rotate(90 307 307)" fill="green" stroke="black" stroke-width="0.5" />
<rect x="197"  y="549.132" width="110" height="15" transform="rotate(90 307 307)" fill="green" stroke="black" stroke-width="0.5" />
<rect x="307"  y="564.132" width="110" height="15" transform="rotate(90 307 307)" fill="green" stroke="black" stroke-width="0.5" />
<rect x="197"  y="564.132" width="110" height="15" transform="rotate(90 307 307)" fill="green" stroke="black" stroke-width="0.5" />
<rect x="307"  y="519.132" width="110" height="15" transform="rotate(180 307 307)" fill="green" stroke="black" stroke-width="0.5" />
<rect x="197"  y="519.132" width="110" height="15" transform="rotate(180 307 307)" fill="green" stroke="black" stroke-width="0.5" />
<rect x="307"  y="534.132" width="110" height="15" transform="rotate(180 307 307)" fill="green" stroke="black" stroke-width="0.5" />
<rect x="197"  y="534.132" width="110" height="15" transform="rotate(180 307 307)" fill="green" stroke="black" stroke-width="0.5" />
<rect x="307"  y="549.132" width="110" height="15" transform="rotate(180 307 307)" fill="green" stroke="black" stroke-width="0.5" />
<rect x="197"  y="549.132" width="110" height="15" transform="rotate(180 307 307)" fill="green" stroke="black" stroke-width="0.5" />
<rect x="307"  y="564.132" width="110" height="15" transform="rotate(180 307 307)" fill="green" stroke="black" stroke-width="0.5" />
<rect x="197"  y="564.132" width="110" height="15" transform="rotate(180 307 307)" fill="green" stroke="black" stroke-width="0.5" />
<rect x="307"  y="519.132" width="110" height="15" transform="rotate(270 307 307)" fill="green" stroke="black" stroke-width="0.5" />
<rect x="197"  y="519.132" width="110" height="15" transform="rotate(270 307 307)" fill="green" stroke="black" stroke-width="0.5" />
<rect x="307"  y="534.132" width="110" height="15" transform="rotate(270 307 307)" fill="green" stroke="black" stroke-width="0.5" />
<rect x="197"  y="534.132" width="110" height="15" transform="rotate(270 307 307)" fill="green" stroke="black" stroke-width="0.5" />
<rect x="307"  y="549.132" width="110" height="15" transform="rotate(270 307 307)" fill="green" stroke="black" stroke-width="0.5" />
<rect x="197"  y="549.132" width="110" height="15" transform="rotate(270 307 307)" fill="green" stroke="black" stroke-width="0.5" />
<rect x="307"  y="564.132" width="110" height="15" transform="rotate(270 307 307)" fill="green" stroke="black" stroke-width="0.5" />
<rect x="197"  y="564.132" width="110" height="15" transform="rotate(270 307 307)" fill="green" stroke="black" stroke-width="0.5" />
</svg>
