<svg version="1.1" baseProfile="full" xmlns="http://www.w3.org/2000/svg">
<polygon points="285,35 35,468.013 535,468.013" transform="rotate(0 35 35)" fill="pink" stroke="black" stroke-width="0.5" />
<polygon points="285,35 265,69.641 305,69.641" transform="rotate(0 7 7)" fill="green" stroke="black" stroke-width="0.5" />
<polygon points="285,104.282 265,69.641 305,69.641" transform="rotate(0 7 7)" fill="green" stroke="black" stroke-width="0.5" />
<polygon points="265,69.641 245,104.282 285,104.282" transform="rotate(0 7 7)" fill="green" stroke="black" stroke-width="0.5" />
<polygon points="265,138.923 245,104.282 285,104.282" transform="rotate(0 7 7)" fill="green" stroke="black" stroke-width="0.5" />
<polygon points="305,69.641 285,104.282 325,104.282" transform="rotate(0 7 7)" fill="green" stroke="black" stroke-width="0.5" />
<polygon points="305,138.923 285,104.282 325,104.282" transform="rotate(0 7 7)" fill="green" stroke="black" stroke-width="0.5" />
<polygon points="245,104.282 225,138.923 265,138.923" transform="rotate(0 7 7)" fill="green" stroke="black" stroke-width="0.5" />
<polygon points="245,173.564 225,138.923 265,138.923" transform="rotate(0 7 7)" fill="green" stroke="black" stroke-width="0.5" />
<polygon points="285,104.282 265,138.923 305,138.923" transform="rotate(0 7 7)" fill="green" stroke="black" stroke-width="0.5" />
<polygon points="285,173.564 265,138.923 305,138.923" transform="rotate(0 7 7)" fill="green" stroke="black" stroke-width="0.5" />
<polygon points="325,104.282 305,138.923 345,138.923" transform="rotate(0 7 7)" fill="green" stroke="black" stroke-width="0.5" />
<polygon points="325,173.564 305,138.923 345,138.923" transform="rotate(0 7 7)" fill="green" stroke="black" stroke-width="0.5" />
<polygon points="225,138.923 205,173.564 245,173.564" transform="rotate(0 7 7)" fill="green" stroke="black" stroke-width="0.5" />
<polygon points="225,208.205 205,173.564 245,173.564" transform="rotate(0 7 7)" fill="green" stroke="black" stroke-width="0.5" />
<polygon points="265,138.923 245,173.564 285,173.564" transform="rotate(0 7 7)" fill="green" stroke="black" stroke-width="0.5" />
<polygon points="265,208.205 245,173.564 285,173.564" transform="rotate(0 7 7)" fill="green" stroke="black" stroke-width="0.5" />
<polygon points="305,138.923 285,173.564 325,173.564" transform="rotate(0 7 7)" fill="green" stroke="black" stroke-width="0.5" />
<polygon points="305,208.205 285,173.564 325,173.564" transform="rotate(0 7 7)" fill="green" stroke="black" stroke-width="0.5" />
<polygon points="345,138.923 325,173.564 365,173.564" transform="rotate(0 7 7)" fill="green" stroke="black" stroke-width="0.5" />
<polygon points="345,208.205 325,173.564 365,173.564" transform="rotate(0 7 7)" fill="green" stroke="black" stroke-width="0.5" />
<polygon points="205,173.564 185,208.205 225,208.205" transform="rotate(0 7 7)" fill="green" stroke="black" stroke-width="0.5" />
<polygon points="205,242.846 185,208.205 225,208.205" transform="rotate(0 7 7)" fill="green" stroke="black" stroke-width="0.5" />
<polygon points="245,173.564 225,208.205 265,208.205" transform="rotate(0 7 7)" fill="green" stroke="black" stroke-width="0.5" />
<polygon points="245,242.846 225,208.205 265,208.205" transform="rotate(0 7 7)" fill="green" stroke="black" stroke-width="0.5" />
<polygon points="285,173.564 265,208.205 305,208.205" transform="rotate(0 7 7)" fill="green" stroke="black" stroke-width="0.5" />
<polygon points="285,242.846 265,208.205 305,208.205" transform="rotate(0 7 7)" fill="green" stroke="black" stroke-width="0.5" />
<polygon points="325,173.564 305,208.205 345,208.205" transform="rotate(0 7 7)" fill="green" stroke="black" stroke-width="0.5" />
<polygon points="325,242.846 305,208.205 345,208.205" transform="rotate(0 7 7)" fill="green" stroke="black" stroke-width="0.5" />
<polygon points="365,173.564 345,208.205 385,208.205" transform="rotate(0 7 7)" fill="green" stroke="black" stroke-width="0.5" />
<polygon points="365,242.846 345,208.205 385,208.205" transform="rotate(0 7 7)" fill="green" stroke="black" stroke-width="0.5" />
<polygon points="185,208.205 165,242.846 205,242.846" transform="rotate(0 7 7)" fill="green" stroke="black" stroke-width="0.5" />
<polygon points="185,277.487 165,242.846 205,242.846" transform="rotate(0 7 7)" fill="green" stroke="black" stroke-width="0.5" />
<polygon points="225,208.205 205,242.846 245,242.846" transform="rotate(0 7 7)" fill="green" stroke="black" stroke-width="0.5" />
<polygon points="225,277.487 205,242.846 245,242.846" transform="rotate(0 7 7)" fill="green" stroke="black" stroke-width="0.5" />
<polygon points="265,208.205 245,242.846 285,242.846" transform="rotate(0 7 7)" fill="green" stroke="black" stroke-width="0.5" />
<polygon points="265,277.487 245,242.846 285,242.846" transform="rotate(0 7 7)" fill="green" stroke="black" stroke-width="0.5" />
<polygon points="305,208.205 285,242.846 325,242.846" transform="rotate(0 7 7)" fill="green" stroke="black" stroke-width="0.5" />
<polygon points="305,277.487 285,242.846 325,242.846" transform="rotate(0 7 7)" fill="green" stroke="black" stroke-width="0.5" />
<polygon points="345,208.205 325,242.846 365,242.846" transform="rotate(0 7 7)" fill="green" stroke="black" stroke-width="0.5" />
<polygon points="345,277.487 325,242.846 365,242.846" transform="rotate(0 7 7)" fill="green" stroke="black" stroke-width="0.5" />
<polygon points="385,208.205 365,242.846 405,242.846" transform="rotate(0 7 7)" fill="green" stroke="black" stroke-width="0.5" />
<polygon points="385,277.487 365,242.846 405,242.846" transform="rotate(0 7 7)" fill="green" stroke="black" stroke-width="0.5" />
<polygon points="165,242.846 145,277.487 185,277.487" transform="rotate(0 7 7)" fill="green" stroke="black" stroke-width="0.5" />
<polygon points="165,312.128 145,277.487 185,277.487" transform="rotate(0 7 7)" fill="green" stroke="black" stroke-width="0.5" />
<polygon points="205,242.846 185,277.487 225,277.487" transform="rotate(0 7 7)" fill="green" stroke="black" stroke-width="0.5" />
<polygon points="205,312.128 185,277.487 225,277.487" transform="rotate(0 7 7)" fill="green" stroke="black" stroke-width="0.5" />
<polygon points="245,242.846 225,277.487 265,277.487" transform="rotate(0 7 7)" fill="green" stroke="black" stroke-width="0.5" />
<polygon points="245,312.128 225,277.487 265,277.487" transform="rotate(0 7 7)" fill="green" stroke="black" stroke-width="0.5" />
<polygon points="285,242.846 265,277.487 305,277.487" transform="rotate(0 7 7)" fill="green" stroke="black" stroke-width="0.5" />
<polygon points="285,312.128 265,277.487 305,277.487" transform="rotate(0 7 7)" fill="green" stroke="black" stroke-width="0.5" />
<polygon points="325,242.846 305,277.487 345,277.487" transform="rotate(0 7 7)" fill="green" stroke="black" stroke-width="0.5" />
<polygon points="325,312.128 305,277.487 345,277.487" transform="rotate(0 7 7)" fill="green" stroke="black" stroke-width="0.5" />
<polygon points="365,242.846 345,277.487 385,277.487" transform="rotate(0 7 7)" fill="green" stroke="black" stroke-width="0.5" />
<polygon points="365,312.128 345,277.487 385,277.487" transform="rotate(0 7 7)" fill="green" stroke="black" stroke-width="0.5" />
<polygon points="405,242.846 385,277.487 425,277.487" transform="rotate(0 7 7)" fill="green" stroke="black" stroke-width="0.5" />
<polygon points="405,312.128 385,277.487 425,277.487" transform="rotate(0 7 7)" fill="green" stroke="black" stroke-width="0.5" />
<polygon points="145,277.487 125,312.128 165,312.128" transform="rotate(0 7 7)" fill="green" stroke="black" stroke-width="0.5" />
<polygon points="145,346.769 125,312.128 165,312.128" transform="rotate(0 7 7)" fill="green" stroke="black" stroke-width="0.5" />
<polygon points="185,277.487 165,312.128 205,312.128" transform="rotate(0 7 7)" fill="green" stroke="black" stroke-width="0.5" />
<polygon points="185,346.769 165,312.128 205,312.128" transform="rotate(0 7 7)" fill="green" stroke="black" stroke-width="0.5" />
<polygon points="225,277.487 205,312.128 245,312.128" transform="rotate(0 7 7)" fill="green" stroke="black" stroke-width="0.5" />
<polygon points="225,346.769 205,312.128 245,312.128" transform="rotate(0 7 7)" fill="green" stroke="black" stroke-width="0.5" />
<polygon points="265,277.487 245,312.128 285,312.128" transform="rotate(0 7 7)" fill="green" stroke="black" stroke-width="0.5" />
<polygon points="265,346.769 245,312.128 285,312.128" transform="rotate(0 7 7)" fill="green" stroke="black" stroke-width="0.5" />
<polygon points="305,277.487 285,312.128 325,312.128" transform="rotate(0 7 7)" fill="green" stroke="black" stroke-width="0.5" />
<polygon points="305,346.769 285,312.128 325,312.128" transform="rotate(0 7 7)" fill="green" stroke="black" stroke-width="0.5" />
<polygon points="345,277.487 325,312.128 365,312.128" transform="rotate(0 7 7)" fill="green" stroke="black" stroke-width="0.5" />
<polygon points="345,346.769 325,312.128 365,312.128" transform="rotate(0 7 7)" fill="green" stroke="black" stroke-width="0.5" />
<polygon points="385,277.487 365,312.128 405,312.128" transform="rotate(0 7 7)" fill="green" stroke="black" stroke-width="0.5" />
<polygon points="385,346.769 365,312.128 405,312.128" transform="rotate(0 7 7)" fill="green" stroke="black" stroke-width="0.5" />
<polygon points="425,277.487 405,312.128 445,312.128" transform="rotate(0 7 7)" fill="green" stroke="black" stroke-width="0.5" />
<polygon points="425,346.769 405,312.128 445,312.128" transform="rotate(0 7 7)" fill="green" stroke="black" stroke-width="0.5" />
<polygon points="125,312.128 105,346.769 145,346.769" transform="rotate(0 7 7)" fill="green" stroke="black" stroke-width="0.5" />
<polygon points="125,381.41 105,346.769 145,346.769" transform="rotate(0 7 7)" fill="green" stroke="black" stroke-width="0.5" />
<polygon points="165,312.128 145,346.769 185,346.769" transform="rotate(0 7 7)" fill="green" stroke="black" stroke-width="0.5" />
<polygon points="165,381.41 145,346.769 185,346.769" transform="rotate(0 7 7)" fill="green" stroke="black" stroke-width="0.5" />
<polygon points="205,312.128 185,346.769 225,346.769" transform="rotate(0 7 7)" fill="green" stroke="black" stroke-width="0.5" />
<polygon points="205,381.41 185,346.769 225,346.769" transform="rotate(0 7 7)" fill="green" stroke="black" stroke-width="0.5" />
<polygon points="245,312.128 225,346.769 265,346.769" transform="rotate(0 7 7)" fill="green" stroke="black" stroke-width="0.5" />
<polygon points="245,381.41 225,346.769 265,346.769" transform="rotate(0 7 7)" fill="green" stroke="black" stroke-width="0.5" />
<polygon points="285,312.128 265,346.769 305,346.769" transform="rotate(0 7 7)" fill="green" stroke="black" stroke-width="0.5" />
<polygon points="285,381.41 265,346.769 305,346.769" transform="rotate(0 7 7)" fill="green" stroke="black" stroke-width="0.5" />
<polygon points="325,312.128 305,346.769 345,346.769" transform="rotate(0 7 7)" fill="green" stroke="black" stroke-width="0.5" />
<polygon points="325,381.41 305,346.769 345,346.769" transform="rotate(0 7 7)" fill="green" stroke="black" stroke-width="0.5" />
<polygon points="365,312.128 345,346.769 385,346.769" transform="rotate(0 7 7)" fill="green" stroke="black" stroke-width="0.5" />
<polygon points="365,381.41 345,346.769 385,346.769" transform="rotate(0 7 7)" fill="green" stroke="black" stroke-width="0.5" />
<polygon points="405,312.128 385,346.769 425,346.769" transform="rotate(0 7 7)" fill="green" stroke="black" stroke-width="0.5" />
<polygon points="405,381.41 385,346.769 425,346.769" transform="rotate(0 7 7)" fill="green" stroke="black" stroke-width="0.5" />
<polygon points="445,312.128 425,346.769 465,346.769" transform="rotate(0 7 7)" fill="green" stroke="black" stroke-width="0.5" />
<polygon points="445,381.41 425,346.769 465,346.769" transform="rotate(0 7 7)" fill="green" stroke="black" stroke-width="0.5" />
<polygon points="105,346.769 85,381.41 125,381.41" transform="rotate(0 7 7)" fill="green" stroke="black" stroke-width="0.5" />
<polygon points="105,416.051 85,381.41 125,381.41" transform="rotate(0 7 7)" fill="green" stroke="black" stroke-width="0.5" />
<polygon points="145,346.769 125,381.41 165,381.41" transform="rotate(0 7 7)" fill="green" stroke="black" stroke-width="0.5" />
<polygon points="145,416.051 125,381.41 165,381.41" transform="rotate(0 7 7)" fill="green" stroke="black" stroke-width="0.5" />
<polygon points="185,346.769 165,381.41 205,381.41" transform="rotate(0 7 7)" fill="green" stroke="black" stroke-width="0.5" />
<polygon points="185,416.051 165,381.41 205,381.41" transform="rotate(0 7 7)" fill="green" stroke="black" stroke-width="0.5" />
<polygon points="225,346.769 205,381.41 245,381.41" transform="rotate(0 7 7)" fill="green" stroke="black" stroke-width="0.5" />
<polygon points="225,416.051 205,381.41 245,381.41" transform="rotate(0 7 7)" fill="green" stroke="black" stroke-width="0.5" />
<polygon points="265,346.769 245,381.41 285,381.41" transform="rotate(0 7 7)" fill="green" stroke="black" stroke-width="0.5" />
<polygon points="265,416.051 245,381.41 285,381.41" transform="rotate(0 7 7)" fill="green" stroke="black" stroke-width="0.5" />
<polygon points="305,346.769 285,381.41 325,381.41" transform="rotate(0 7 7)" fill="green" stroke="black" stroke-width="0.5" />
<polygon points="305,416.051 285,381.41 325,381.41" transform="rotate(0 7 7)" fill="green" stroke="black" stroke-width="0.5" />
<polygon points="345,346.769 325,381.41 365,381.41" transform="rotate(0 7 7)" fill="green" stroke="black" stroke-width="0.5" />
<polygon points="345,416.051 325,381.41 365,381.41" transform="rotate(0 7 7)" fill="green" stroke="black" stroke-width="0.5" />
<polygon points="385,346.769 365,381.41 405,381.41" transform="rotate(0 7 7)" fill="green" stroke="black" stroke-width="0.5" />
<polygon points="385,416.051 365,381.41 405,381.41" transform="rotate(0 7 7)" fill="green" stroke="black" stroke-width="0.5" />
<polygon points="425,346.769 405,381.41 445,381.41" transform="rotate(0 7 7)" fill="green" stroke="black" stroke-width="0.5" />
<polygon points="425,416.051 405,381.41 445,381.41" transform="rotate(0 7 7)" fill="green" stroke="black" stroke-width="0.5" />
<polygon points="465,346.769 445,381.41 485,381.41" transform="rotate(0 7 7)" fill="green" stroke="black" stroke-width="0.5" />
<polygon points="465,416.051 445,381.41 485,381.41" transform="rotate(0 7 7)" fill="green" stroke="black" stroke-width="0.5" />
<polygon points="85,381.41 65,416.051 105,416.051" transform="rotate(0 7 7)" fill="green" stroke="black" stroke-width="0.5" />
<polygon points="85,450.692 65,416.051 105,416.051" transform="rotate(0 7 7)" fill="green" stroke="black" stroke-width="0.5" />
<polygon points="125,381.41 105,416.051 145,416.051" transform="rotate(0 7 7)" fill="green" stroke="black" stroke-width="0.5" />
<polygon points="125,450.692 105,416.051 145,416.051" transform="rotate(0 7 7)" fill="green" stroke="black" stroke-width="0.5" />
<polygon points="165,381.41 145,416.051 185,416.051" transform="rotate(0 7 7)" fill="green" stroke="black" stroke-width="0.5" />
<polygon points="165,450.692 145,416.051 185,416.051" transform="rotate(0 7 7)" fill="green" stroke="black" stroke-width="0.5" />
<polygon points="205,381.41 185,416.051 225,416.051" transform="rotate(0 7 7)" fill="green" stroke="black" stroke-width="0.5" />
<polygon points="205,450.692 185,416.051 225,416.051" transform="rotate(0 7 7)" fill="green" stroke="black" stroke-width="0.5" />
<polygon points="245,381.41 225,416.051 265,416.051" transform="rotate(0 7 7)" fill="green" stroke="black" stroke-width="0.5" />
<polygon points="245,450.692 225,416.051 265,416.051" transform="rotate(0 7 7)" fill="green" stroke="black" stroke-width="0.5" />
<polygon points="285,381.41 265,416.051 305,416.051" transform="rotate(0 7 7)" fill="green" stroke="black" stroke-width="0.5" />
<polygon points="285,450.692 265,416.051 305,416.051" transform="rotate(0 7 7)" fill="green" stroke="black" stroke-width="0.5" />
<polygon points="325,381.41 305,416.051 345,416.051" transform="rotate(0 7 7)" fill="green" stroke="black" stroke-width="0.5" />
<polygon points="325,450.692 305,416.051 345,416.051" transform="rotate(0 7 7)" fill="green" stroke="black" stroke-width="0.5" />
<polygon points="365,381.41 345,416.051 385,416.051" transform="rotate(0 7 7)" fill="green" stroke="black" stroke-width="0.5" />
<polygon points="365,450.692 345,416.051 385,416.051" transform="rotate(0 7 7)" fill="green" stroke="black" stroke-width="0.5" />
<polygon points="405,381.41 385,416.051 425,416.051" transform="rotate(0 7 7)" fill="green" stroke="black" stroke-width="0.5" />
<polygon points="405,450.692 385,416.051 425,416.051" transform="rotate(0 7 7)" fill="green" stroke="black" stroke-width="0.5" />
<polygon points="445,381.41 425,416.051 465,416.051" transform="rotate(0 7 7)" fill="green" stroke="black" stroke-width="0.5" />
<polygon points="445,450.692 425,416.051 465,416.051" transform="rotate(0 7 7)" fill="green" stroke="black" stroke-width="0.5" />
<polygon points="485,381.41 465,416.051 505,416.051" transform="rotate(0 7 7)" fill="green" stroke="black" stroke-width="0.5" />
<polygon points="485,450.692 465,416.051 505,416.051" transform="rotate(0 7 7)" fill="green" stroke="black" stroke-width="0.5" />
<polygon points="65,416.051 45,450.692 85,450.692" transform="rotate(0 7 7)" fill="green" stroke="black" stroke-width="0.5" />
<polygon points="105,416.051 85,450.692 125,450.692" transform="rotate(0 7 7)" fill="green" stroke="black" stroke-width="0.5" />
<polygon points="145,416.051 125,450.692 165,450.692" transform="rotate(0 7 7)" fill="green" stroke="black" stroke-width="0.5" />
<polygon points="185,416.051 165,450.692 205,450.692" transform="rotate(0 7 7)" fill="green" stroke="black" stroke-width="0.5" />
<polygon points="225,416.051 205,450.692 245,450.692" transform="rotate(0 7 7)" fill="green" stroke="black" stroke-width="0.5" />
<polygon points="265,416.051 245,450.692 285,450.692" transform="rotate(0 7 7)" fill="green" stroke="black" stroke-width="0.5" />
<polygon points="305,416.051 285,450.692 325,450.692" transform="rotate(0 7 7)" fill="green" stroke="black" stroke-width="0.5" />
<polygon points="345,416.051 325,450.692 365,450.692" transform="rotate(0 7 7)" fill="green" stroke="black" stroke-width="0.5" />
<polygon points="385,416.051 365,450.692 405,450.692" transform="rotate(0 7 7)" fill="green" stroke="black" stroke-width="0.5" />
<polygon points="425,416.051 405,450.692 445,450.692" transform="rotate(0 7 7)" fill="green" stroke="black" stroke-width="0.5" />
<polygon points="465,416.051 445,450.692 485,450.692" transform="rotate(0 7 7)" fill="green" stroke="black" stroke-width="0.5" />
<polygon points="505,416.051 485,450.692 525,450.692" transform="rotate(0 7 7)" fill="green" stroke="black" stroke-width="0.5" />
</svg>
