<svg version="1.1" baseProfile="full" xmlns="http://www.w3.org/2000/svg">
<rect x="19"  y="19" width="500" height="500" transform="rotate(0 19 19)" fill="dimgrey" stroke="black" stroke-width="0.5" />
<rect x="19"  y="19" width="20" height="60" transform="rotate(0 7 7)" fill="yellow" stroke="black" stroke-width="0.5" />
<rect x="39"  y="19" width="20" height="60" transform="rotate(0 7 7)" fill="yellow" stroke="black" stroke-width="0.5" />
<rect x="59"  y="19" width="20" height="60" transform="rotate(0 7 7)" fill="yellow" stroke="black" stroke-width="0.5" />
<rect x="79"  y="19" width="20" height="60" transform="rotate(0 7 7)" fill="yellow" stroke="black" stroke-width="0.5" />
<rect x="99"  y="19" width="20" height="60" transform="rotate(0 7 7)" fill="yellow" stroke="black" stroke-width="0.5" />
<rect x="119"  y="19" width="20" height="60" transform="rotate(0 7 7)" fill="yellow" stroke="black" stroke-width="0.5" />
<rect x="139"  y="19" width="20" height="60" transform="rotate(0 7 7)" fill="yellow" stroke="black" stroke-width="0.5" />
<rect x="159"  y="19" width="20" height="60" transform="rotate(0 7 7)" fill="yellow" stroke="black" stroke-width="0.5" />
<rect x="179"  y="19" width="20" height="60" transform="rotate(0 7 7)" fill="yellow" stroke="black" stroke-width="0.5" />
<rect x="199"  y="19" width="20" height="60" transform="rotate(0 7 7)" fill="yellow" stroke="black" stroke-width="0.5" />
<rect x="219"  y="19" width="20" height="60" transform="rotate(0 7 7)" fill="yellow" stroke="black" stroke-width="0.5" />
<rect x="239"  y="19" width="20" height="60" transform="rotate(0 7 7)" fill="yellow" stroke="black" stroke-width="0.5" />
<rect x="259"  y="19" width="20" height="60" transform="rotate(0 7 7)" fill="yellow" stroke="black" stroke-width="0.5" />
<rect x="279"  y="19" width="20" height="60" transform="rotate(0 7 7)" fill="yellow" stroke="black" stroke-width="0.5" />
<rect x="299"  y="19" width="20" height="60" transform="rotate(0 7 7)" fill="yellow" stroke="black" stroke-width="0.5" />
<rect x="319"  y="19" width="20" height="60" transform="rotate(0 7 7)" fill="yellow" stroke="black" stroke-width="0.5" />
<rect x="339"  y="19" width="20" height="60" transform="rotate(0 7 7)" fill="yellow" stroke="black" stroke-width="0.5" />
<rect x="359"  y="19" width="20" height="60" transform="rotate(0 7 7)" fill="yellow" stroke="black" stroke-width="0.5" />
<rect x="379"  y="19" width="20" height="60" transform="rotate(0 7 7)" fill="yellow" stroke="black" stroke-width="0.5" />
<rect x="399"  y="19" width="20" height="60" transform="rotate(0 7 7)" fill="yellow" stroke="black" stroke-width="0.5" />
<rect x="419"  y="19" width="20" height="60" transform="rotate(0 7 7)" fill="yellow" stroke="black" stroke-width="0.5" />
<rect x="439"  y="19" width="20" height="60" transform="rotate(0 7 7)" fill="yellow" stroke="black" stroke-width="0.5" />
<rect x="459"  y="19" width="20" height="60" transform="rotate(0 7 7)" fill="yellow" stroke="black" stroke-width="0.5" />
<rect x="479"  y="19" width="20" height="60" transform="rotate(0 7 7)" fill="yellow" stroke="black" stroke-width="0.5" />
<rect x="499"  y="19" width="20" height="60" transform="rotate(0 7 7)" fill="yellow" stroke="black" stroke-width="0.5" />
<rect x="19"  y="79" width="20" height="60" transform="rotate(0 7 7)" fill="yellow" stroke="black" stroke-width="0.5" />
<rect x="39"  y="79" width="20" height="60" transform="rotate(0 7 7)" fill="yellow" stroke="black" stroke-width="0.5" />
<rect x="59"  y="79" width="20" height="60" transform="rotate(0 7 7)" fill="yellow" stroke="black" stroke-width="0.5" />
<rect x="79"  y="79" width="20" height="60" transform="rotate(0 7 7)" fill="yellow" stroke="black" stroke-width="0.5" />
<rect x="99"  y="79" width="20" height="60" transform="rotate(0 7 7)" fill="yellow" stroke="black" stroke-width="0.5" />
<rect x="119"  y="79" width="20" height="60" transform="rotate(0 7 7)" fill="yellow" stroke="black" stroke-width="0.5" />
<rect x="139"  y="79" width="20" height="60" transform="rotate(0 7 7)" fill="yellow" stroke="black" stroke-width="0.5" />
<rect x="159"  y="79" width="20" height="60" transform="rotate(0 7 7)" fill="yellow" stroke="black" stroke-width="0.5" />
<rect x="179"  y="79" width="20" height="60" transform="rotate(0 7 7)" fill="yellow" stroke="black" stroke-width="0.5" />
<rect x="199"  y="79" width="20" height="60" transform="rotate(0 7 7)" fill="yellow" stroke="black" stroke-width="0.5" />
<rect x="219"  y="79" width="20" height="60" transform="rotate(0 7 7)" fill="yellow" stroke="black" stroke-width="0.5" />
<rect x="239"  y="79" width="20" height="60" transform="rotate(0 7 7)" fill="yellow" stroke="black" stroke-width="0.5" />
<rect x="259"  y="79" width="20" height="60" transform="rotate(0 7 7)" fill="yellow" stroke="black" stroke-width="0.5" />
<rect x="279"  y="79" width="20" height="60" transform="rotate(0 7 7)" fill="yellow" stroke="black" stroke-width="0.5" />
<rect x="299"  y="79" width="20" height="60" transform="rotate(0 7 7)" fill="yellow" stroke="black" stroke-width="0.5" />
<rect x="319"  y="79" width="20" height="60" transform="rotate(0 7 7)" fill="yellow" stroke="black" stroke-width="0.5" />
<rect x="339"  y="79" width="20" height="60" transform="rotate(0 7 7)" fill="yellow" stroke="black" stroke-width="0.5" />
<rect x="359"  y="79" width="20" height="60" transform="rotate(0 7 7)" fill="yellow" stroke="black" stroke-width="0.5" />
<rect x="379"  y="79" width="20" height="60" transform="rotate(0 7 7)" fill="yellow" stroke="black" stroke-width="0.5" />
<rect x="399"  y="79" width="20" height="60" transform="rotate(0 7 7)" fill="yellow" stroke="black" stroke-width="0.5" />
<rect x="419"  y="79" width="20" height="60" transform="rotate(0 7 7)" fill="yellow" stroke="black" stroke-width="0.5" />
<rect x="439"  y="79" width="20" height="60" transform="rotate(0 7 7)" fill="yellow" stroke="black" stroke-width="0.5" />
<rect x="459"  y="79" width="20" height="60" transform="rotate(0 7 7)" fill="yellow" stroke="black" stroke-width="0.5" />
<rect x="479"  y="79" width="20" height="60" transform="rotate(0 7 7)" fill="yellow" stroke="black" stroke-width="0.5" />
<rect x="499"  y="79" width="20" height="60" transform="rotate(0 7 7)" fill="yellow" stroke="black" stroke-width="0.5" />
<rect x="19"  y="139" width="20" height="60" transform="rotate(0 7 7)" fill="yellow" stroke="black" stroke-width="0.5" />
<rect x="39"  y="139" width="20" height="60" transform="rotate(0 7 7)" fill="yellow" stroke="black" stroke-width="0.5" />
<rect x="59"  y="139" width="20" height="60" transform="rotate(0 7 7)" fill="yellow" stroke="black" stroke-width="0.5" />
<rect x="79"  y="139" width="20" height="60" transform="rotate(0 7 7)" fill="yellow" stroke="black" stroke-width="0.5" />
<rect x="99"  y="139" width="20" height="60" transform="rotate(0 7 7)" fill="yellow" stroke="black" stroke-width="0.5" />
<rect x="119"  y="139" width="20" height="60" transform="rotate(0 7 7)" fill="yellow" stroke="black" stroke-width="0.5" />
<rect x="139"  y="139" width="20" height="60" transform="rotate(0 7 7)" fill="yellow" stroke="black" stroke-width="0.5" />
<rect x="159"  y="139" width="20" height="60" transform="rotate(0 7 7)" fill="yellow" stroke="black" stroke-width="0.5" />
<rect x="179"  y="139" width="20" height="60" transform="rotate(0 7 7)" fill="yellow" stroke="black" stroke-width="0.5" />
<rect x="199"  y="139" width="20" height="60" transform="rotate(0 7 7)" fill="yellow" stroke="black" stroke-width="0.5" />
<rect x="219"  y="139" width="20" height="60" transform="rotate(0 7 7)" fill="yellow" stroke="black" stroke-width="0.5" />
<rect x="239"  y="139" width="20" height="60" transform="rotate(0 7 7)" fill="yellow" stroke="black" stroke-width="0.5" />
<rect x="259"  y="139" width="20" height="60" transform="rotate(0 7 7)" fill="yellow" stroke="black" stroke-width="0.5" />
<rect x="279"  y="139" width="20" height="60" transform="rotate(0 7 7)" fill="yellow" stroke="black" stroke-width="0.5" />
<rect x="299"  y="139" width="20" height="60" transform="rotate(0 7 7)" fill="yellow" stroke="black" stroke-width="0.5" />
<rect x="319"  y="139" width="20" height="60" transform="rotate(0 7 7)" fill="yellow" stroke="black" stroke-width="0.5" />
<rect x="339"  y="139" width="20" height="60" transform="rotate(0 7 7)" fill="yellow" stroke="black" stroke-width="0.5" />
<rect x="359"  y="139" width="20" height="60" transform="rotate(0 7 7)" fill="yellow" stroke="black" stroke-width="0.5" />
<rect x="379"  y="139" width="20" height="60" transform="rotate(0 7 7)" fill="yellow" stroke="black" stroke-width="0.5" />
<rect x="399"  y="139" width="20" height="60" transform="rotate(0 7 7)" fill="yellow" stroke="black" stroke-width="0.5" />
<rect x="419"  y="139" width="20" height="60" transform="rotate(0 7 7)" fill="yellow" stroke="black" stroke-width="0.5" />
<rect x="439"  y="139" width="20" height="60" transform="rotate(0 7 7)" fill="yellow" stroke="black" stroke-width="0.5" />
<rect x="459"  y="139" width="20" height="60" transform="rotate(0 7 7)" fill="yellow" stroke="black" stroke-width="0.5" />
<rect x="479"  y="139" width="20" height="60" transform="rotate(0 7 7)" fill="yellow" stroke="black" stroke-width="0.5" />
<rect x="499"  y="139" width="20" height="60" transform="rotate(0 7 7)" fill="yellow" stroke="black" stroke-width="0.5" />
<rect x="19"  y="199" width="20" height="60" transform="rotate(0 7 7)" fill="yellow" stroke="black" stroke-width="0.5" />
<rect x="39"  y="199" width="20" height="60" transform="rotate(0 7 7)" fill="yellow" stroke="black" stroke-width="0.5" />
<rect x="59"  y="199" width="20" height="60" transform="rotate(0 7 7)" fill="yellow" stroke="black" stroke-width="0.5" />
<rect x="79"  y="199" width="20" height="60" transform="rotate(0 7 7)" fill="yellow" stroke="black" stroke-width="0.5" />
<rect x="99"  y="199" width="20" height="60" transform="rotate(0 7 7)" fill="yellow" stroke="black" stroke-width="0.5" />
<rect x="119"  y="199" width="20" height="60" transform="rotate(0 7 7)" fill="yellow" stroke="black" stroke-width="0.5" />
<rect x="139"  y="199" width="20" height="60" transform="rotate(0 7 7)" fill="yellow" stroke="black" stroke-width="0.5" />
<rect x="159"  y="199" width="20" height="60" transform="rotate(0 7 7)" fill="yellow" stroke="black" stroke-width="0.5" />
<rect x="179"  y="199" width="20" height="60" transform="rotate(0 7 7)" fill="yellow" stroke="black" stroke-width="0.5" />
<rect x="199"  y="199" width="20" height="60" transform="rotate(0 7 7)" fill="yellow" stroke="black" stroke-width="0.5" />
<rect x="219"  y="199" width="20" height="60" transform="rotate(0 7 7)" fill="yellow" stroke="black" stroke-width="0.5" />
<rect x="239"  y="199" width="20" height="60" transform="rotate(0 7 7)" fill="yellow" stroke="black" stroke-width="0.5" />
<rect x="259"  y="199" width="20" height="60" transform="rotate(0 7 7)" fill="yellow" stroke="black" stroke-width="0.5" />
<rect x="279"  y="199" width="20" height="60" transform="rotate(0 7 7)" fill="yellow" stroke="black" stroke-width="0.5" />
<rect x="299"  y="199" width="20" height="60" transform="rotate(0 7 7)" fill="yellow" stroke="black" stroke-width="0.5" />
<rect x="319"  y="199" width="20" height="60" transform="rotate(0 7 7)" fill="yellow" stroke="black" stroke-width="0.5" />
<rect x="339"  y="199" width="20" height="60" transform="rotate(0 7 7)" fill="yellow" stroke="black" stroke-width="0.5" />
<rect x="359"  y="199" width="20" height="60" transform="rotate(0 7 7)" fill="yellow" stroke="black" stroke-width="0.5" />
<rect x="379"  y="199" width="20" height="60" transform="rotate(0 7 7)" fill="yellow" stroke="black" stroke-width="0.5" />
<rect x="399"  y="199" width="20" height="60" transform="rotate(0 7 7)" fill="yellow" stroke="black" stroke-width="0.5" />
<rect x="419"  y="199" width="20" height="60" transform="rotate(0 7 7)" fill="yellow" stroke="black" stroke-width="0.5" />
<rect x="439"  y="199" width="20" height="60" transform="rotate(0 7 7)" fill="yellow" stroke="black" stroke-width="0.5" />
<rect x="459"  y="199" width="20" height="60" transform="rotate(0 7 7)" fill="yellow" stroke="black" stroke-width="0.5" />
<rect x="479"  y="199" width="20" height="60" transform="rotate(0 7 7)" fill="yellow" stroke="black" stroke-width="0.5" />
<rect x="499"  y="199" width="20" height="60" transform="rotate(0 7 7)" fill="yellow" stroke="black" stroke-width="0.5" />
<rect x="19"  y="259" width="20" height="60" transform="rotate(0 7 7)" fill="yellow" stroke="black" stroke-width="0.5" />
<rect x="39"  y="259" width="20" height="60" transform="rotate(0 7 7)" fill="yellow" stroke="black" stroke-width="0.5" />
<rect x="59"  y="259" width="20" height="60" transform="rotate(0 7 7)" fill="yellow" stroke="black" stroke-width="0.5" />
<rect x="79"  y="259" width="20" height="60" transform="rotate(0 7 7)" fill="yellow" stroke="black" stroke-width="0.5" />
<rect x="99"  y="259" width="20" height="60" transform="rotate(0 7 7)" fill="yellow" stroke="black" stroke-width="0.5" />
<rect x="119"  y="259" width="20" height="60" transform="rotate(0 7 7)" fill="yellow" stroke="black" stroke-width="0.5" />
<rect x="139"  y="259" width="20" height="60" transform="rotate(0 7 7)" fill="yellow" stroke="black" stroke-width="0.5" />
<rect x="159"  y="259" width="20" height="60" transform="rotate(0 7 7)" fill="yellow" stroke="black" stroke-width="0.5" />
<rect x="179"  y="259" width="20" height="60" transform="rotate(0 7 7)" fill="yellow" stroke="black" stroke-width="0.5" />
<rect x="199"  y="259" width="20" height="60" transform="rotate(0 7 7)" fill="yellow" stroke="black" stroke-width="0.5" />
<rect x="219"  y="259" width="20" height="60" transform="rotate(0 7 7)" fill="yellow" stroke="black" stroke-width="0.5" />
<rect x="239"  y="259" width="20" height="60" transform="rotate(0 7 7)" fill="yellow" stroke="black" stroke-width="0.5" />
<rect x="259"  y="259" width="20" height="60" transform="rotate(0 7 7)" fill="yellow" stroke="black" stroke-width="0.5" />
<rect x="279"  y="259" width="20" height="60" transform="rotate(0 7 7)" fill="yellow" stroke="black" stroke-width="0.5" />
<rect x="299"  y="259" width="20" height="60" transform="rotate(0 7 7)" fill="yellow" stroke="black" stroke-width="0.5" />
<rect x="319"  y="259" width="20" height="60" transform="rotate(0 7 7)" fill="yellow" stroke="black" stroke-width="0.5" />
<rect x="339"  y="259" width="20" height="60" transform="rotate(0 7 7)" fill="yellow" stroke="black" stroke-width="0.5" />
<rect x="359"  y="259" width="20" height="60" transform="rotate(0 7 7)" fill="yellow" stroke="black" stroke-width="0.5" />
<rect x="379"  y="259" width="20" height="60" transform="rotate(0 7 7)" fill="yellow" stroke="black" stroke-width="0.5" />
<rect x="399"  y="259" width="20" height="60" transform="rotate(0 7 7)" fill="yellow" stroke="black" stroke-width="0.5" />
<rect x="419"  y="259" width="20" height="60" transform="rotate(0 7 7)" fill="yellow" stroke="black" stroke-width="0.5" />
<rect x="439"  y="259" width="20" height="60" transform="rotate(0 7 7)" fill="yellow" stroke="black" stroke-width="0.5" />
<rect x="459"  y="259" width="20" height="60" transform="rotate(0 7 7)" fill="yellow" stroke="black" stroke-width="0.5" />
<rect x="479"  y="259" width="20" height="60" transform="rotate(0 7 7)" fill="yellow" stroke="black" stroke-width="0.5" />
<rect x="499"  y="259" width="20" height="60" transform="rotate(0 7 7)" fill="yellow" stroke="black" stroke-width="0.5" />
<rect x="19"  y="319" width="20" height="60" transform="rotate(0 7 7)" fill="yellow" stroke="black" stroke-width="0.5" />
<rect x="39"  y="319" width="20" height="60" transform="rotate(0 7 7)" fill="yellow" stroke="black" stroke-width="0.5" />
<rect x="59"  y="319" width="20" height="60" transform="rotate(0 7 7)" fill="yellow" stroke="black" stroke-width="0.5" />
<rect x="79"  y="319" width="20" height="60" transform="rotate(0 7 7)" fill="yellow" stroke="black" stroke-width="0.5" />
<rect x="99"  y="319" width="20" height="60" transform="rotate(0 7 7)" fill="yellow" stroke="black" stroke-width="0.5" />
<rect x="119"  y="319" width="20" height="60" transform="rotate(0 7 7)" fill="yellow" stroke="black" stroke-width="0.5" />
<rect x="139"  y="319" width="20" height="60" transform="rotate(0 7 7)" fill="yellow" stroke="black" stroke-width="0.5" />
<rect x="159"  y="319" width="20" height="60" transform="rotate(0 7 7)" fill="yellow" stroke="black" stroke-width="0.5" />
<rect x="179"  y="319" width="20" height="60" transform="rotate(0 7 7)" fill="yellow" stroke="black" stroke-width="0.5" />
<rect x="199"  y="319" width="20" height="60" transform="rotate(0 7 7)" fill="yellow" stroke="black" stroke-width="0.5" />
<rect x="219"  y="319" width="20" height="60" transform="rotate(0 7 7)" fill="yellow" stroke="black" stroke-width="0.5" />
<rect x="239"  y="319" width="20" height="60" transform="rotate(0 7 7)" fill="yellow" stroke="black" stroke-width="0.5" />
<rect x="259"  y="319" width="20" height="60" transform="rotate(0 7 7)" fill="yellow" stroke="black" stroke-width="0.5" />
<rect x="279"  y="319" width="20" height="60" transform="rotate(0 7 7)" fill="yellow" stroke="black" stroke-width="0.5" />
<rect x="299"  y="319" width="20" height="60" transform="rotate(0 7 7)" fill="yellow" stroke="black" stroke-width="0.5" />
<rect x="319"  y="319" width="20" height="60" transform="rotate(0 7 7)" fill="yellow" stroke="black" stroke-width="0.5" />
<rect x="339"  y="319" width="20" height="60" transform="rotate(0 7 7)" fill="yellow" stroke="black" stroke-width="0.5" />
<rect x="359"  y="319" width="20" height="60" transform="rotate(0 7 7)" fill="yellow" stroke="black" stroke-width="0.5" />
<rect x="379"  y="319" width="20" height="60" transform="rotate(0 7 7)" fill="yellow" stroke="black" stroke-width="0.5" />
<rect x="399"  y="319" width="20" height="60" transform="rotate(0 7 7)" fill="yellow" stroke="black" stroke-width="0.5" />
<rect x="419"  y="319" width="20" height="60" transform="rotate(0 7 7)" fill="yellow" stroke="black" stroke-width="0.5" />
<rect x="439"  y="319" width="20" height="60" transform="rotate(0 7 7)" fill="yellow" stroke="black" stroke-width="0.5" />
<rect x="459"  y="319" width="20" height="60" transform="rotate(0 7 7)" fill="yellow" stroke="black" stroke-width="0.5" />
<rect x="479"  y="319" width="20" height="60" transform="rotate(0 7 7)" fill="yellow" stroke="black" stroke-width="0.5" />
<rect x="499"  y="319" width="20" height="60" transform="rotate(0 7 7)" fill="yellow" stroke="black" stroke-width="0.5" />
<rect x="19"  y="379" width="20" height="60" transform="rotate(0 7 7)" fill="yellow" stroke="black" stroke-width="0.5" />
<rect x="39"  y="379" width="20" height="60" transform="rotate(0 7 7)" fill="yellow" stroke="black" stroke-width="0.5" />
<rect x="59"  y="379" width="20" height="60" transform="rotate(0 7 7)" fill="yellow" stroke="black" stroke-width="0.5" />
<rect x="79"  y="379" width="20" height="60" transform="rotate(0 7 7)" fill="yellow" stroke="black" stroke-width="0.5" />
<rect x="99"  y="379" width="20" height="60" transform="rotate(0 7 7)" fill="yellow" stroke="black" stroke-width="0.5" />
<rect x="119"  y="379" width="20" height="60" transform="rotate(0 7 7)" fill="yellow" stroke="black" stroke-width="0.5" />
<rect x="139"  y="379" width="20" height="60" transform="rotate(0 7 7)" fill="yellow" stroke="black" stroke-width="0.5" />
<rect x="159"  y="379" width="20" height="60" transform="rotate(0 7 7)" fill="yellow" stroke="black" stroke-width="0.5" />
<rect x="179"  y="379" width="20" height="60" transform="rotate(0 7 7)" fill="yellow" stroke="black" stroke-width="0.5" />
<rect x="199"  y="379" width="20" height="60" transform="rotate(0 7 7)" fill="yellow" stroke="black" stroke-width="0.5" />
<rect x="219"  y="379" width="20" height="60" transform="rotate(0 7 7)" fill="yellow" stroke="black" stroke-width="0.5" />
<rect x="239"  y="379" width="20" height="60" transform="rotate(0 7 7)" fill="yellow" stroke="black" stroke-width="0.5" />
<rect x="259"  y="379" width="20" height="60" transform="rotate(0 7 7)" fill="yellow" stroke="black" stroke-width="0.5" />
<rect x="279"  y="379" width="20" height="60" transform="rotate(0 7 7)" fill="yellow" stroke="black" stroke-width="0.5" />
<rect x="299"  y="379" width="20" height="60" transform="rotate(0 7 7)" fill="yellow" stroke="black" stroke-width="0.5" />
<rect x="319"  y="379" width="20" height="60" transform="rotate(0 7 7)" fill="yellow" stroke="black" stroke-width="0.5" />
<rect x="339"  y="379" width="20" height="60" transform="rotate(0 7 7)" fill="yellow" stroke="black" stroke-width="0.5" />
<rect x="359"  y="379" width="20" height="60" transform="rotate(0 7 7)" fill="yellow" stroke="black" stroke-width="0.5" />
<rect x="379"  y="379" width="20" height="60" transform="rotate(0 7 7)" fill="yellow" stroke="black" stroke-width="0.5" />
<rect x="399"  y="379" width="20" height="60" transform="rotate(0 7 7)" fill="yellow" stroke="black" stroke-width="0.5" />
<rect x="419"  y="379" width="20" height="60" transform="rotate(0 7 7)" fill="yellow" stroke="black" stroke-width="0.5" />
<rect x="439"  y="379" width="20" height="60" transform="rotate(0 7 7)" fill="yellow" stroke="black" stroke-width="0.5" />
<rect x="459"  y="379" width="20" height="60" transform="rotate(0 7 7)" fill="yellow" stroke="black" stroke-width="0.5" />
<rect x="479"  y="379" width="20" height="60" transform="rotate(0 7 7)" fill="yellow" stroke="black" stroke-width="0.5" />
<rect x="499"  y="379" width="20" height="60" transform="rotate(0 7 7)" fill="yellow" stroke="black" stroke-width="0.5" />
<rect x="19"  y="439" width="20" height="60" transform="rotate(0 7 7)" fill="yellow" stroke="black" stroke-width="0.5" />
<rect x="39"  y="439" width="20" height="60" transform="rotate(0 7 7)" fill="yellow" stroke="black" stroke-width="0.5" />
<rect x="59"  y="439" width="20" height="60" transform="rotate(0 7 7)" fill="yellow" stroke="black" stroke-width="0.5" />
<rect x="79"  y="439" width="20" height="60" transform="rotate(0 7 7)" fill="yellow" stroke="black" stroke-width="0.5" />
<rect x="99"  y="439" width="20" height="60" transform="rotate(0 7 7)" fill="yellow" stroke="black" stroke-width="0.5" />
<rect x="119"  y="439" width="20" height="60" transform="rotate(0 7 7)" fill="yellow" stroke="black" stroke-width="0.5" />
<rect x="139"  y="439" width="20" height="60" transform="rotate(0 7 7)" fill="yellow" stroke="black" stroke-width="0.5" />
<rect x="159"  y="439" width="20" height="60" transform="rotate(0 7 7)" fill="yellow" stroke="black" stroke-width="0.5" />
<rect x="179"  y="439" width="20" height="60" transform="rotate(0 7 7)" fill="yellow" stroke="black" stroke-width="0.5" />
<rect x="199"  y="439" width="20" height="60" transform="rotate(0 7 7)" fill="yellow" stroke="black" stroke-width="0.5" />
<rect x="219"  y="439" width="20" height="60" transform="rotate(0 7 7)" fill="yellow" stroke="black" stroke-width="0.5" />
<rect x="239"  y="439" width="20" height="60" transform="rotate(0 7 7)" fill="yellow" stroke="black" stroke-width="0.5" />
<rect x="259"  y="439" width="20" height="60" transform="rotate(0 7 7)" fill="yellow" stroke="black" stroke-width="0.5" />
<rect x="279"  y="439" width="20" height="60" transform="rotate(0 7 7)" fill="yellow" stroke="black" stroke-width="0.5" />
<rect x="299"  y="439" width="20" height="60" transform="rotate(0 7 7)" fill="yellow" stroke="black" stroke-width="0.5" />
<rect x="319"  y="439" width="20" height="60" transform="rotate(0 7 7)" fill="yellow" stroke="black" stroke-width="0.5" />
<rect x="339"  y="439" width="20" height="60" transform="rotate(0 7 7)" fill="yellow" stroke="black" stroke-width="0.5" />
<rect x="359"  y="439" width="20" height="60" transform="rotate(0 7 7)" fill="yellow" stroke="black" stroke-width="0.5" />
<rect x="379"  y="439" width="20" height="60" transform="rotate(0 7 7)" fill="yellow" stroke="black" stroke-width="0.5" />
<rect x="399"  y="439" width="20" height="60" transform="rotate(0 7 7)" fill="yellow" stroke="black" stroke-width="0.5" />
<rect x="419"  y="439" width="20" height="60" transform="rotate(0 7 7)" fill="yellow" stroke="black" stroke-width="0.5" />
<rect x="439"  y="439" width="20" height="60" transform="rotate(0 7 7)" fill="yellow" stroke="black" stroke-width="0.5" />
<rect x="459"  y="439" width="20" height="60" transform="rotate(0 7 7)" fill="yellow" stroke="black" stroke-width="0.5" />
<rect x="479"  y="439" width="20" height="60" transform="rotate(0 7 7)" fill="yellow" stroke="black" stroke-width="0.5" />
<rect x="499"  y="439" width="20" height="60" transform="rotate(0 7 7)" fill="yellow" stroke="black" stroke-width="0.5" />
</svg>
