<svg version="1.1" baseProfile="full" xmlns="http://www.w3.org/2000/svg">
<polygon points="295,45 45,478.013 545,478.013" transform="rotate(0 45 45)" fill="dimgrey" stroke="black" stroke-width="0.5" />
<polygon points="295,45 275,79.641 315,79.641" transform="rotate(0 7 7)" fill="green" stroke="black" stroke-width="0.5" />
<polygon points="295,114.282 275,79.641 315,79.641" transform="rotate(0 7 7)" fill="green" stroke="black" stroke-width="0.5" />
<polygon points="275,79.641 255,114.282 295,114.282" transform="rotate(0 7 7)" fill="green" stroke="black" stroke-width="0.5" />
<polygon points="275,148.923 255,114.282 295,114.282" transform="rotate(0 7 7)" fill="green" stroke="black" stroke-width="0.5" />
<polygon points="315,79.641 295,114.282 335,114.282" transform="rotate(0 7 7)" fill="green" stroke="black" stroke-width="0.5" />
<polygon points="315,148.923 295,114.282 335,114.282" transform="rotate(0 7 7)" fill="green" stroke="black" stroke-width="0.5" />
<polygon points="255,114.282 235,148.923 275,148.923" transform="rotate(0 7 7)" fill="green" stroke="black" stroke-width="0.5" />
<polygon points="255,183.564 235,148.923 275,148.923" transform="rotate(0 7 7)" fill="green" stroke="black" stroke-width="0.5" />
<polygon points="295,114.282 275,148.923 315,148.923" transform="rotate(0 7 7)" fill="green" stroke="black" stroke-width="0.5" />
<polygon points="295,183.564 275,148.923 315,148.923" transform="rotate(0 7 7)" fill="green" stroke="black" stroke-width="0.5" />
<polygon points="335,114.282 315,148.923 355,148.923" transform="rotate(0 7 7)" fill="green" stroke="black" stroke-width="0.5" />
<polygon points="335,183.564 315,148.923 355,148.923" transform="rotate(0 7 7)" fill="green" stroke="black" stroke-width="0.5" />
<polygon points="235,148.923 215,183.564 255,183.564" transform="rotate(0 7 7)" fill="green" stroke="black" stroke-width="0.5" />
<polygon points="235,218.205 215,183.564 255,183.564" transform="rotate(0 7 7)" fill="green" stroke="black" stroke-width="0.5" />
<polygon points="275,148.923 255,183.564 295,183.564" transform="rotate(0 7 7)" fill="green" stroke="black" stroke-width="0.5" />
<polygon points="275,218.205 255,183.564 295,183.564" transform="rotate(0 7 7)" fill="green" stroke="black" stroke-width="0.5" />
<polygon points="315,148.923 295,183.564 335,183.564" transform="rotate(0 7 7)" fill="green" stroke="black" stroke-width="0.5" />
<polygon points="315,218.205 295,183.564 335,183.564" transform="rotate(0 7 7)" fill="green" stroke="black" stroke-width="0.5" />
<polygon points="355,148.923 335,183.564 375,183.564" transform="rotate(0 7 7)" fill="green" stroke="black" stroke-width="0.5" />
<polygon points="355,218.205 335,183.564 375,183.564" transform="rotate(0 7 7)" fill="green" stroke="black" stroke-width="0.5" />
<polygon points="215,183.564 195,218.205 235,218.205" transform="rotate(0 7 7)" fill="green" stroke="black" stroke-width="0.5" />
<polygon points="215,252.846 195,218.205 235,218.205" transform="rotate(0 7 7)" fill="green" stroke="black" stroke-width="0.5" />
<polygon points="255,183.564 235,218.205 275,218.205" transform="rotate(0 7 7)" fill="green" stroke="black" stroke-width="0.5" />
<polygon points="255,252.846 235,218.205 275,218.205" transform="rotate(0 7 7)" fill="green" stroke="black" stroke-width="0.5" />
<polygon points="295,183.564 275,218.205 315,218.205" transform="rotate(0 7 7)" fill="green" stroke="black" stroke-width="0.5" />
<polygon points="295,252.846 275,218.205 315,218.205" transform="rotate(0 7 7)" fill="green" stroke="black" stroke-width="0.5" />
<polygon points="335,183.564 315,218.205 355,218.205" transform="rotate(0 7 7)" fill="green" stroke="black" stroke-width="0.5" />
<polygon points="335,252.846 315,218.205 355,218.205" transform="rotate(0 7 7)" fill="green" stroke="black" stroke-width="0.5" />
<polygon points="375,183.564 355,218.205 395,218.205" transform="rotate(0 7 7)" fill="green" stroke="black" stroke-width="0.5" />
<polygon points="375,252.846 355,218.205 395,218.205" transform="rotate(0 7 7)" fill="green" stroke="black" stroke-width="0.5" />
<polygon points="195,218.205 175,252.846 215,252.846" transform="rotate(0 7 7)" fill="green" stroke="black" stroke-width="0.5" />
<polygon points="195,287.487 175,252.846 215,252.846" transform="rotate(0 7 7)" fill="green" stroke="black" stroke-width="0.5" />
<polygon points="235,218.205 215,252.846 255,252.846" transform="rotate(0 7 7)" fill="green" stroke="black" stroke-width="0.5" />
<polygon points="235,287.487 215,252.846 255,252.846" transform="rotate(0 7 7)" fill="green" stroke="black" stroke-width="0.5" />
<polygon points="275,218.205 255,252.846 295,252.846" transform="rotate(0 7 7)" fill="green" stroke="black" stroke-width="0.5" />
<polygon points="275,287.487 255,252.846 295,252.846" transform="rotate(0 7 7)" fill="green" stroke="black" stroke-width="0.5" />
<polygon points="315,218.205 295,252.846 335,252.846" transform="rotate(0 7 7)" fill="green" stroke="black" stroke-width="0.5" />
<polygon points="315,287.487 295,252.846 335,252.846" transform="rotate(0 7 7)" fill="green" stroke="black" stroke-width="0.5" />
<polygon points="355,218.205 335,252.846 375,252.846" transform="rotate(0 7 7)" fill="green" stroke="black" stroke-width="0.5" />
<polygon points="355,287.487 335,252.846 375,252.846" transform="rotate(0 7 7)" fill="green" stroke="black" stroke-width="0.5" />
<polygon points="395,218.205 375,252.846 415,252.846" transform="rotate(0 7 7)" fill="green" stroke="black" stroke-width="0.5" />
<polygon points="395,287.487 375,252.846 415,252.846" transform="rotate(0 7 7)" fill="green" stroke="black" stroke-width="0.5" />
<polygon points="175,252.846 155,287.487 195,287.487" transform="rotate(0 7 7)" fill="green" stroke="black" stroke-width="0.5" />
<polygon points="175,322.128 155,287.487 195,287.487" transform="rotate(0 7 7)" fill="green" stroke="black" stroke-width="0.5" />
<polygon points="215,252.846 195,287.487 235,287.487" transform="rotate(0 7 7)" fill="green" stroke="black" stroke-width="0.5" />
<polygon points="215,322.128 195,287.487 235,287.487" transform="rotate(0 7 7)" fill="green" stroke="black" stroke-width="0.5" />
<polygon points="255,252.846 235,287.487 275,287.487" transform="rotate(0 7 7)" fill="green" stroke="black" stroke-width="0.5" />
<polygon points="255,322.128 235,287.487 275,287.487" transform="rotate(0 7 7)" fill="green" stroke="black" stroke-width="0.5" />
<polygon points="295,252.846 275,287.487 315,287.487" transform="rotate(0 7 7)" fill="green" stroke="black" stroke-width="0.5" />
<polygon points="295,322.128 275,287.487 315,287.487" transform="rotate(0 7 7)" fill="green" stroke="black" stroke-width="0.5" />
<polygon points="335,252.846 315,287.487 355,287.487" transform="rotate(0 7 7)" fill="green" stroke="black" stroke-width="0.5" />
<polygon points="335,322.128 315,287.487 355,287.487" transform="rotate(0 7 7)" fill="green" stroke="black" stroke-width="0.5" />
<polygon points="375,252.846 355,287.487 395,287.487" transform="rotate(0 7 7)" fill="green" stroke="black" stroke-width="0.5" />
<polygon points="375,322.128 355,287.487 395,287.487" transform="rotate(0 7 7)" fill="green" stroke="black" stroke-width="0.5" />
<polygon points="415,252.846 395,287.487 435,287.487" transform="rotate(0 7 7)" fill="green" stroke="black" stroke-width="0.5" />
<polygon points="415,322.128 395,287.487 435,287.487" transform="rotate(0 7 7)" fill="green" stroke="black" stroke-width="0.5" />
<polygon points="155,287.487 135,322.128 175,322.128" transform="rotate(0 7 7)" fill="green" stroke="black" stroke-width="0.5" />
<polygon points="155,356.769 135,322.128 175,322.128" transform="rotate(0 7 7)" fill="green" stroke="black" stroke-width="0.5" />
<polygon points="195,287.487 175,322.128 215,322.128" transform="rotate(0 7 7)" fill="green" stroke="black" stroke-width="0.5" />
<polygon points="195,356.769 175,322.128 215,322.128" transform="rotate(0 7 7)" fill="green" stroke="black" stroke-width="0.5" />
<polygon points="235,287.487 215,322.128 255,322.128" transform="rotate(0 7 7)" fill="green" stroke="black" stroke-width="0.5" />
<polygon points="235,356.769 215,322.128 255,322.128" transform="rotate(0 7 7)" fill="green" stroke="black" stroke-width="0.5" />
<polygon points="275,287.487 255,322.128 295,322.128" transform="rotate(0 7 7)" fill="green" stroke="black" stroke-width="0.5" />
<polygon points="275,356.769 255,322.128 295,322.128" transform="rotate(0 7 7)" fill="green" stroke="black" stroke-width="0.5" />
<polygon points="315,287.487 295,322.128 335,322.128" transform="rotate(0 7 7)" fill="green" stroke="black" stroke-width="0.5" />
<polygon points="315,356.769 295,322.128 335,322.128" transform="rotate(0 7 7)" fill="green" stroke="black" stroke-width="0.5" />
<polygon points="355,287.487 335,322.128 375,322.128" transform="rotate(0 7 7)" fill="green" stroke="black" stroke-width="0.5" />
<polygon points="355,356.769 335,322.128 375,322.128" transform="rotate(0 7 7)" fill="green" stroke="black" stroke-width="0.5" />
<polygon points="395,287.487 375,322.128 415,322.128" transform="rotate(0 7 7)" fill="green" stroke="black" stroke-width="0.5" />
<polygon points="395,356.769 375,322.128 415,322.128" transform="rotate(0 7 7)" fill="green" stroke="black" stroke-width="0.5" />
<polygon points="435,287.487 415,322.128 455,322.128" transform="rotate(0 7 7)" fill="green" stroke="black" stroke-width="0.5" />
<polygon points="435,356.769 415,322.128 455,322.128" transform="rotate(0 7 7)" fill="green" stroke="black" stroke-width="0.5" />
<polygon points="135,322.128 115,356.769 155,356.769" transform="rotate(0 7 7)" fill="green" stroke="black" stroke-width="0.5" />
<polygon points="135,391.41 115,356.769 155,356.769" transform="rotate(0 7 7)" fill="green" stroke="black" stroke-width="0.5" />
<polygon points="175,322.128 155,356.769 195,356.769" transform="rotate(0 7 7)" fill="green" stroke="black" stroke-width="0.5" />
<polygon points="175,391.41 155,356.769 195,356.769" transform="rotate(0 7 7)" fill="green" stroke="black" stroke-width="0.5" />
<polygon points="215,322.128 195,356.769 235,356.769" transform="rotate(0 7 7)" fill="green" stroke="black" stroke-width="0.5" />
<polygon points="215,391.41 195,356.769 235,356.769" transform="rotate(0 7 7)" fill="green" stroke="black" stroke-width="0.5" />
<polygon points="255,322.128 235,356.769 275,356.769" transform="rotate(0 7 7)" fill="green" stroke="black" stroke-width="0.5" />
<polygon points="255,391.41 235,356.769 275,356.769" transform="rotate(0 7 7)" fill="green" stroke="black" stroke-width="0.5" />
<polygon points="295,322.128 275,356.769 315,356.769" transform="rotate(0 7 7)" fill="green" stroke="black" stroke-width="0.5" />
<polygon points="295,391.41 275,356.769 315,356.769" transform="rotate(0 7 7)" fill="green" stroke="black" stroke-width="0.5" />
<polygon points="335,322.128 315,356.769 355,356.769" transform="rotate(0 7 7)" fill="green" stroke="black" stroke-width="0.5" />
<polygon points="335,391.41 315,356.769 355,356.769" transform="rotate(0 7 7)" fill="green" stroke="black" stroke-width="0.5" />
<polygon points="375,322.128 355,356.769 395,356.769" transform="rotate(0 7 7)" fill="green" stroke="black" stroke-width="0.5" />
<polygon points="375,391.41 355,356.769 395,356.769" transform="rotate(0 7 7)" fill="green" stroke="black" stroke-width="0.5" />
<polygon points="415,322.128 395,356.769 435,356.769" transform="rotate(0 7 7)" fill="green" stroke="black" stroke-width="0.5" />
<polygon points="415,391.41 395,356.769 435,356.769" transform="rotate(0 7 7)" fill="green" stroke="black" stroke-width="0.5" />
<polygon points="455,322.128 435,356.769 475,356.769" transform="rotate(0 7 7)" fill="green" stroke="black" stroke-width="0.5" />
<polygon points="455,391.41 435,356.769 475,356.769" transform="rotate(0 7 7)" fill="green" stroke="black" stroke-width="0.5" />
<polygon points="115,356.769 95,391.41 135,391.41" transform="rotate(0 7 7)" fill="green" stroke="black" stroke-width="0.5" />
<polygon points="115,426.051 95,391.41 135,391.41" transform="rotate(0 7 7)" fill="green" stroke="black" stroke-width="0.5" />
<polygon points="155,356.769 135,391.41 175,391.41" transform="rotate(0 7 7)" fill="green" stroke="black" stroke-width="0.5" />
<polygon points="155,426.051 135,391.41 175,391.41" transform="rotate(0 7 7)" fill="green" stroke="black" stroke-width="0.5" />
<polygon points="195,356.769 175,391.41 215,391.41" transform="rotate(0 7 7)" fill="green" stroke="black" stroke-width="0.5" />
<polygon points="195,426.051 175,391.41 215,391.41" transform="rotate(0 7 7)" fill="green" stroke="black" stroke-width="0.5" />
<polygon points="235,356.769 215,391.41 255,391.41" transform="rotate(0 7 7)" fill="green" stroke="black" stroke-width="0.5" />
<polygon points="235,426.051 215,391.41 255,391.41" transform="rotate(0 7 7)" fill="green" stroke="black" stroke-width="0.5" />
<polygon points="275,356.769 255,391.41 295,391.41" transform="rotate(0 7 7)" fill="green" stroke="black" stroke-width="0.5" />
<polygon points="275,426.051 255,391.41 295,391.41" transform="rotate(0 7 7)" fill="green" stroke="black" stroke-width="0.5" />
<polygon points="315,356.769 295,391.41 335,391.41" transform="rotate(0 7 7)" fill="green" stroke="black" stroke-width="0.5" />
<polygon points="315,426.051 295,391.41 335,391.41" transform="rotate(0 7 7)" fill="green" stroke="black" stroke-width="0.5" />
<polygon points="355,356.769 335,391.41 375,391.41" transform="rotate(0 7 7)" fill="green" stroke="black" stroke-width="0.5" />
<polygon points="355,426.051 335,391.41 375,391.41" transform="rotate(0 7 7)" fill="green" stroke="black" stroke-width="0.5" />
<polygon points="395,356.769 375,391.41 415,391.41" transform="rotate(0 7 7)" fill="green" stroke="black" stroke-width="0.5" />
<polygon points="395,426.051 375,391.41 415,391.41" transform="rotate(0 7 7)" fill="green" stroke="black" stroke-width="0.5" />
<polygon points="435,356.769 415,391.41 455,391.41" transform="rotate(0 7 7)" fill="green" stroke="black" stroke-width="0.5" />
<polygon points="435,426.051 415,391.41 455,391.41" transform="rotate(0 7 7)" fill="green" stroke="black" stroke-width="0.5" />
<polygon points="475,356.769 455,391.41 495,391.41" transform="rotate(0 7 7)" fill="green" stroke="black" stroke-width="0.5" />
<polygon points="475,426.051 455,391.41 495,391.41" transform="rotate(0 7 7)" fill="green" stroke="black" stroke-width="0.5" />
<polygon points="95,391.41 75,426.051 115,426.051" transform="rotate(0 7 7)" fill="green" stroke="black" stroke-width="0.5" />
<polygon points="95,460.692 75,426.051 115,426.051" transform="rotate(0 7 7)" fill="green" stroke="black" stroke-width="0.5" />
<polygon points="135,391.41 115,426.051 155,426.051" transform="rotate(0 7 7)" fill="green" stroke="black" stroke-width="0.5" />
<polygon points="135,460.692 115,426.051 155,426.051" transform="rotate(0 7 7)" fill="green" stroke="black" stroke-width="0.5" />
<polygon points="175,391.41 155,426.051 195,426.051" transform="rotate(0 7 7)" fill="green" stroke="black" stroke-width="0.5" />
<polygon points="175,460.692 155,426.051 195,426.051" transform="rotate(0 7 7)" fill="green" stroke="black" stroke-width="0.5" />
<polygon points="215,391.41 195,426.051 235,426.051" transform="rotate(0 7 7)" fill="green" stroke="black" stroke-width="0.5" />
<polygon points="215,460.692 195,426.051 235,426.051" transform="rotate(0 7 7)" fill="green" stroke="black" stroke-width="0.5" />
<polygon points="255,391.41 235,426.051 275,426.051" transform="rotate(0 7 7)" fill="green" stroke="black" stroke-width="0.5" />
<polygon points="255,460.692 235,426.051 275,426.051" transform="rotate(0 7 7)" fill="green" stroke="black" stroke-width="0.5" />
<polygon points="295,391.41 275,426.051 315,426.051" transform="rotate(0 7 7)" fill="green" stroke="black" stroke-width="0.5" />
<polygon points="295,460.692 275,426.051 315,426.051" transform="rotate(0 7 7)" fill="green" stroke="black" stroke-width="0.5" />
<polygon points="335,391.41 315,426.051 355,426.051" transform="rotate(0 7 7)" fill="green" stroke="black" stroke-width="0.5" />
<polygon points="335,460.692 315,426.051 355,426.051" transform="rotate(0 7 7)" fill="green" stroke="black" stroke-width="0.5" />
<polygon points="375,391.41 355,426.051 395,426.051" transform="rotate(0 7 7)" fill="green" stroke="black" stroke-width="0.5" />
<polygon points="375,460.692 355,426.051 395,426.051" transform="rotate(0 7 7)" fill="green" stroke="black" stroke-width="0.5" />
<polygon points="415,391.41 395,426.051 435,426.051" transform="rotate(0 7 7)" fill="green" stroke="black" stroke-width="0.5" />
<polygon points="415,460.692 395,426.051 435,426.051" transform="rotate(0 7 7)" fill="green" stroke="black" stroke-width="0.5" />
<polygon points="455,391.41 435,426.051 475,426.051" transform="rotate(0 7 7)" fill="green" stroke="black" stroke-width="0.5" />
<polygon points="455,460.692 435,426.051 475,426.051" transform="rotate(0 7 7)" fill="green" stroke="black" stroke-width="0.5" />
<polygon points="495,391.41 475,426.051 515,426.051" transform="rotate(0 7 7)" fill="green" stroke="black" stroke-width="0.5" />
<polygon points="495,460.692 475,426.051 515,426.051" transform="rotate(0 7 7)" fill="green" stroke="black" stroke-width="0.5" />
<polygon points="75,426.051 55,460.692 95,460.692" transform="rotate(0 7 7)" fill="green" stroke="black" stroke-width="0.5" />
<polygon points="115,426.051 95,460.692 135,460.692" transform="rotate(0 7 7)" fill="green" stroke="black" stroke-width="0.5" />
<polygon points="155,426.051 135,460.692 175,460.692" transform="rotate(0 7 7)" fill="green" stroke="black" stroke-width="0.5" />
<polygon points="195,426.051 175,460.692 215,460.692" transform="rotate(0 7 7)" fill="green" stroke="black" stroke-width="0.5" />
<polygon points="235,426.051 215,460.692 255,460.692" transform="rotate(0 7 7)" fill="green" stroke="black" stroke-width="0.5" />
<polygon points="275,426.051 255,460.692 295,460.692" transform="rotate(0 7 7)" fill="green" stroke="black" stroke-width="0.5" />
<polygon points="315,426.051 295,460.692 335,460.692" transform="rotate(0 7 7)" fill="green" stroke="black" stroke-width="0.5" />
<polygon points="355,426.051 335,460.692 375,460.692" transform="rotate(0 7 7)" fill="green" stroke="black" stroke-width="0.5" />
<polygon points="395,426.051 375,460.692 415,460.692" transform="rotate(0 7 7)" fill="green" stroke="black" stroke-width="0.5" />
<polygon points="435,426.051 415,460.692 455,460.692" transform="rotate(0 7 7)" fill="green" stroke="black" stroke-width="0.5" />
<polygon points="475,426.051 455,460.692 495,460.692" transform="rotate(0 7 7)" fill="green" stroke="black" stroke-width="0.5" />
<polygon points="515,426.051 495,460.692 535,460.692" transform="rotate(0 7 7)" fill="green" stroke="black" stroke-width="0.5" />
</svg>
