<svg version="1.1" baseProfile="full" xmlns="http://www.w3.org/2000/svg">
<circle cx="314" cy="314" r="300" transform="rotate(0 14 14)" fill="brown" stroke="black" stroke-width="0.5" />
<rect x="101.868"  y="101.868" width="20" height="60" transform="rotate(0 94.868 94.868)" fill="yellow" stroke="black" stroke-width="0.5" />
<rect x="121.868"  y="101.868" width="20" height="60" transform="rotate(0 94.868 94.868)" fill="yellow" stroke="black" stroke-width="0.5" />
<rect x="141.868"  y="101.868" width="20" height="60" transform="rotate(0 94.868 94.868)" fill="yellow" stroke="black" stroke-width="0.5" />
<rect x="161.868"  y="101.868" width="20" height="60" transform="rotate(0 94.868 94.868)" fill="yellow" stroke="black" stroke-width="0.5" />
<rect x="181.868"  y="101.868" width="20" height="60" transform="rotate(0 94.868 94.868)" fill="yellow" stroke="black" stroke-width="0.5" />
<rect x="201.868"  y="101.868" width="20" height="60" transform="rotate(0 94.868 94.868)" fill="yellow" stroke="black" stroke-width="0.5" />
<rect x="221.868"  y="101.868" width="20" height="60" transform="rotate(0 94.868 94.868)" fill="yellow" stroke="black" stroke-width="0.5" />
<rect x="241.868"  y="101.868" width="20" height="60" transform="rotate(0 94.868 94.868)" fill="yellow" stroke="black" stroke-width="0.5" />
<rect x="261.868"  y="101.868" width="20" height="60" transform="rotate(0 94.868 94.868)" fill="yellow" stroke="black" stroke-width="0.5" />
<rect x="281.868"  y="101.868" width="20" height="60" transform="rotate(0 94.868 94.868)" fill="yellow" stroke="black" stroke-width="0.5" />
<rect x="301.868"  y="101.868" width="20" height="60" transform="rotate(0 94.868 94.868)" fill="yellow" stroke="black" stroke-width="0.5" />
<rect x="321.868"  y="101.868" width="20" height="60" transform="rotate(0 94.868 94.868)" fill="yellow" stroke="black" stroke-width="0.5" />
<rect x="341.868"  y="101.868" width="20" height="60" transform="rotate(0 94.868 94.868)" fill="yellow" stroke="black" stroke-width="0.5" />
<rect x="361.868"  y="101.868" width="20" height="60" transform="rotate(0 94.868 94.868)" fill="yellow" stroke="black" stroke-width="0.5" />
<rect x="381.868"  y="101.868" width="20" height="60" transform="rotate(0 94.868 94.868)" fill="yellow" stroke="black" stroke-width="0.5" />
<rect x="401.868"  y="101.868" width="20" height="60" transform="rotate(0 94.868 94.868)" fill="yellow" stroke="black" stroke-width="0.5" />
<rect x="421.868"  y="101.868" width="20" height="60" transform="rotate(0 94.868 94.868)" fill="yellow" stroke="black" stroke-width="0.5" />
<rect x="441.868"  y="101.868" width="20" height="60" transform="rotate(0 94.868 94.868)" fill="yellow" stroke="black" stroke-width="0.5" />
<rect x="461.868"  y="101.868" width="20" height="60" transform="rotate(0 94.868 94.868)" fill="yellow" stroke="black" stroke-width="0.5" />
<rect x="481.868"  y="101.868" width="20" height="60" transform="rotate(0 94.868 94.868)" fill="yellow" stroke="black" stroke-width="0.5" />
<rect x="501.868"  y="101.868" width="20" height="60" transform="rotate(0 94.868 94.868)" fill="yellow" stroke="black" stroke-width="0.5" />
<rect x="101.868"  y="161.868" width="20" height="60" transform="rotate(0 94.868 94.868)" fill="yellow" stroke="black" stroke-width="0.5" />
<rect x="121.868"  y="161.868" width="20" height="60" transform="rotate(0 94.868 94.868)" fill="yellow" stroke="black" stroke-width="0.5" />
<rect x="141.868"  y="161.868" width="20" height="60" transform="rotate(0 94.868 94.868)" fill="yellow" stroke="black" stroke-width="0.5" />
<rect x="161.868"  y="161.868" width="20" height="60" transform="rotate(0 94.868 94.868)" fill="yellow" stroke="black" stroke-width="0.5" />
<rect x="181.868"  y="161.868" width="20" height="60" transform="rotate(0 94.868 94.868)" fill="yellow" stroke="black" stroke-width="0.5" />
<rect x="201.868"  y="161.868" width="20" height="60" transform="rotate(0 94.868 94.868)" fill="yellow" stroke="black" stroke-width="0.5" />
<rect x="221.868"  y="161.868" width="20" height="60" transform="rotate(0 94.868 94.868)" fill="yellow" stroke="black" stroke-width="0.5" />
<rect x="241.868"  y="161.868" width="20" height="60" transform="rotate(0 94.868 94.868)" fill="yellow" stroke="black" stroke-width="0.5" />
<rect x="261.868"  y="161.868" width="20" height="60" transform="rotate(0 94.868 94.868)" fill="yellow" stroke="black" stroke-width="0.5" />
<rect x="281.868"  y="161.868" width="20" height="60" transform="rotate(0 94.868 94.868)" fill="yellow" stroke="black" stroke-width="0.5" />
<rect x="301.868"  y="161.868" width="20" height="60" transform="rotate(0 94.868 94.868)" fill="yellow" stroke="black" stroke-width="0.5" />
<rect x="321.868"  y="161.868" width="20" height="60" transform="rotate(0 94.868 94.868)" fill="yellow" stroke="black" stroke-width="0.5" />
<rect x="341.868"  y="161.868" width="20" height="60" transform="rotate(0 94.868 94.868)" fill="yellow" stroke="black" stroke-width="0.5" />
<rect x="361.868"  y="161.868" width="20" height="60" transform="rotate(0 94.868 94.868)" fill="yellow" stroke="black" stroke-width="0.5" />
<rect x="381.868"  y="161.868" width="20" height="60" transform="rotate(0 94.868 94.868)" fill="yellow" stroke="black" stroke-width="0.5" />
<rect x="401.868"  y="161.868" width="20" height="60" transform="rotate(0 94.868 94.868)" fill="yellow" stroke="black" stroke-width="0.5" />
<rect x="421.868"  y="161.868" width="20" height="60" transform="rotate(0 94.868 94.868)" fill="yellow" stroke="black" stroke-width="0.5" />
<rect x="441.868"  y="161.868" width="20" height="60" transform="rotate(0 94.868 94.868)" fill="yellow" stroke="black" stroke-width="0.5" />
<rect x="461.868"  y="161.868" width="20" height="60" transform="rotate(0 94.868 94.868)" fill="yellow" stroke="black" stroke-width="0.5" />
<rect x="481.868"  y="161.868" width="20" height="60" transform="rotate(0 94.868 94.868)" fill="yellow" stroke="black" stroke-width="0.5" />
<rect x="501.868"  y="161.868" width="20" height="60" transform="rotate(0 94.868 94.868)" fill="yellow" stroke="black" stroke-width="0.5" />
<rect x="101.868"  y="221.868" width="20" height="60" transform="rotate(0 94.868 94.868)" fill="yellow" stroke="black" stroke-width="0.5" />
<rect x="121.868"  y="221.868" width="20" height="60" transform="rotate(0 94.868 94.868)" fill="yellow" stroke="black" stroke-width="0.5" />
<rect x="141.868"  y="221.868" width="20" height="60" transform="rotate(0 94.868 94.868)" fill="yellow" stroke="black" stroke-width="0.5" />
<rect x="161.868"  y="221.868" width="20" height="60" transform="rotate(0 94.868 94.868)" fill="yellow" stroke="black" stroke-width="0.5" />
<rect x="181.868"  y="221.868" width="20" height="60" transform="rotate(0 94.868 94.868)" fill="yellow" stroke="black" stroke-width="0.5" />
<rect x="201.868"  y="221.868" width="20" height="60" transform="rotate(0 94.868 94.868)" fill="yellow" stroke="black" stroke-width="0.5" />
<rect x="221.868"  y="221.868" width="20" height="60" transform="rotate(0 94.868 94.868)" fill="yellow" stroke="black" stroke-width="0.5" />
<rect x="241.868"  y="221.868" width="20" height="60" transform="rotate(0 94.868 94.868)" fill="yellow" stroke="black" stroke-width="0.5" />
<rect x="261.868"  y="221.868" width="20" height="60" transform="rotate(0 94.868 94.868)" fill="yellow" stroke="black" stroke-width="0.5" />
<rect x="281.868"  y="221.868" width="20" height="60" transform="rotate(0 94.868 94.868)" fill="yellow" stroke="black" stroke-width="0.5" />
<rect x="301.868"  y="221.868" width="20" height="60" transform="rotate(0 94.868 94.868)" fill="yellow" stroke="black" stroke-width="0.5" />
<rect x="321.868"  y="221.868" width="20" height="60" transform="rotate(0 94.868 94.868)" fill="yellow" stroke="black" stroke-width="0.5" />
<rect x="341.868"  y="221.868" width="20" height="60" transform="rotate(0 94.868 94.868)" fill="yellow" stroke="black" stroke-width="0.5" />
<rect x="361.868"  y="221.868" width="20" height="60" transform="rotate(0 94.868 94.868)" fill="yellow" stroke="black" stroke-width="0.5" />
<rect x="381.868"  y="221.868" width="20" height="60" transform="rotate(0 94.868 94.868)" fill="yellow" stroke="black" stroke-width="0.5" />
<rect x="401.868"  y="221.868" width="20" height="60" transform="rotate(0 94.868 94.868)" fill="yellow" stroke="black" stroke-width="0.5" />
<rect x="421.868"  y="221.868" width="20" height="60" transform="rotate(0 94.868 94.868)" fill="yellow" stroke="black" stroke-width="0.5" />
<rect x="441.868"  y="221.868" width="20" height="60" transform="rotate(0 94.868 94.868)" fill="yellow" stroke="black" stroke-width="0.5" />
<rect x="461.868"  y="221.868" width="20" height="60" transform="rotate(0 94.868 94.868)" fill="yellow" stroke="black" stroke-width="0.5" />
<rect x="481.868"  y="221.868" width="20" height="60" transform="rotate(0 94.868 94.868)" fill="yellow" stroke="black" stroke-width="0.5" />
<rect x="501.868"  y="221.868" width="20" height="60" transform="rotate(0 94.868 94.868)" fill="yellow" stroke="black" stroke-width="0.5" />
<rect x="101.868"  y="281.868" width="20" height="60" transform="rotate(0 94.868 94.868)" fill="yellow" stroke="black" stroke-width="0.5" />
<rect x="121.868"  y="281.868" width="20" height="60" transform="rotate(0 94.868 94.868)" fill="yellow" stroke="black" stroke-width="0.5" />
<rect x="141.868"  y="281.868" width="20" height="60" transform="rotate(0 94.868 94.868)" fill="yellow" stroke="black" stroke-width="0.5" />
<rect x="161.868"  y="281.868" width="20" height="60" transform="rotate(0 94.868 94.868)" fill="yellow" stroke="black" stroke-width="0.5" />
<rect x="181.868"  y="281.868" width="20" height="60" transform="rotate(0 94.868 94.868)" fill="yellow" stroke="black" stroke-width="0.5" />
<rect x="201.868"  y="281.868" width="20" height="60" transform="rotate(0 94.868 94.868)" fill="yellow" stroke="black" stroke-width="0.5" />
<rect x="221.868"  y="281.868" width="20" height="60" transform="rotate(0 94.868 94.868)" fill="yellow" stroke="black" stroke-width="0.5" />
<rect x="241.868"  y="281.868" width="20" height="60" transform="rotate(0 94.868 94.868)" fill="yellow" stroke="black" stroke-width="0.5" />
<rect x="261.868"  y="281.868" width="20" height="60" transform="rotate(0 94.868 94.868)" fill="yellow" stroke="black" stroke-width="0.5" />
<rect x="281.868"  y="281.868" width="20" height="60" transform="rotate(0 94.868 94.868)" fill="yellow" stroke="black" stroke-width="0.5" />
<rect x="301.868"  y="281.868" width="20" height="60" transform="rotate(0 94.868 94.868)" fill="yellow" stroke="black" stroke-width="0.5" />
<rect x="321.868"  y="281.868" width="20" height="60" transform="rotate(0 94.868 94.868)" fill="yellow" stroke="black" stroke-width="0.5" />
<rect x="341.868"  y="281.868" width="20" height="60" transform="rotate(0 94.868 94.868)" fill="yellow" stroke="black" stroke-width="0.5" />
<rect x="361.868"  y="281.868" width="20" height="60" transform="rotate(0 94.868 94.868)" fill="yellow" stroke="black" stroke-width="0.5" />
<rect x="381.868"  y="281.868" width="20" height="60" transform="rotate(0 94.868 94.868)" fill="yellow" stroke="black" stroke-width="0.5" />
<rect x="401.868"  y="281.868" width="20" height="60" transform="rotate(0 94.868 94.868)" fill="yellow" stroke="black" stroke-width="0.5" />
<rect x="421.868"  y="281.868" width="20" height="60" transform="rotate(0 94.868 94.868)" fill="yellow" stroke="black" stroke-width="0.5" />
<rect x="441.868"  y="281.868" width="20" height="60" transform="rotate(0 94.868 94.868)" fill="yellow" stroke="black" stroke-width="0.5" />
<rect x="461.868"  y="281.868" width="20" height="60" transform="rotate(0 94.868 94.868)" fill="yellow" stroke="black" stroke-width="0.5" />
<rect x="481.868"  y="281.868" width="20" height="60" transform="rotate(0 94.868 94.868)" fill="yellow" stroke="black" stroke-width="0.5" />
<rect x="501.868"  y="281.868" width="20" height="60" transform="rotate(0 94.868 94.868)" fill="yellow" stroke="black" stroke-width="0.5" />
<rect x="101.868"  y="341.868" width="20" height="60" transform="rotate(0 94.868 94.868)" fill="yellow" stroke="black" stroke-width="0.5" />
<rect x="121.868"  y="341.868" width="20" height="60" transform="rotate(0 94.868 94.868)" fill="yellow" stroke="black" stroke-width="0.5" />
<rect x="141.868"  y="341.868" width="20" height="60" transform="rotate(0 94.868 94.868)" fill="yellow" stroke="black" stroke-width="0.5" />
<rect x="161.868"  y="341.868" width="20" height="60" transform="rotate(0 94.868 94.868)" fill="yellow" stroke="black" stroke-width="0.5" />
<rect x="181.868"  y="341.868" width="20" height="60" transform="rotate(0 94.868 94.868)" fill="yellow" stroke="black" stroke-width="0.5" />
<rect x="201.868"  y="341.868" width="20" height="60" transform="rotate(0 94.868 94.868)" fill="yellow" stroke="black" stroke-width="0.5" />
<rect x="221.868"  y="341.868" width="20" height="60" transform="rotate(0 94.868 94.868)" fill="yellow" stroke="black" stroke-width="0.5" />
<rect x="241.868"  y="341.868" width="20" height="60" transform="rotate(0 94.868 94.868)" fill="yellow" stroke="black" stroke-width="0.5" />
<rect x="261.868"  y="341.868" width="20" height="60" transform="rotate(0 94.868 94.868)" fill="yellow" stroke="black" stroke-width="0.5" />
<rect x="281.868"  y="341.868" width="20" height="60" transform="rotate(0 94.868 94.868)" fill="yellow" stroke="black" stroke-width="0.5" />
<rect x="301.868"  y="341.868" width="20" height="60" transform="rotate(0 94.868 94.868)" fill="yellow" stroke="black" stroke-width="0.5" />
<rect x="321.868"  y="341.868" width="20" height="60" transform="rotate(0 94.868 94.868)" fill="yellow" stroke="black" stroke-width="0.5" />
<rect x="341.868"  y="341.868" width="20" height="60" transform="rotate(0 94.868 94.868)" fill="yellow" stroke="black" stroke-width="0.5" />
<rect x="361.868"  y="341.868" width="20" height="60" transform="rotate(0 94.868 94.868)" fill="yellow" stroke="black" stroke-width="0.5" />
<rect x="381.868"  y="341.868" width="20" height="60" transform="rotate(0 94.868 94.868)" fill="yellow" stroke="black" stroke-width="0.5" />
<rect x="401.868"  y="341.868" width="20" height="60" transform="rotate(0 94.868 94.868)" fill="yellow" stroke="black" stroke-width="0.5" />
<rect x="421.868"  y="341.868" width="20" height="60" transform="rotate(0 94.868 94.868)" fill="yellow" stroke="black" stroke-width="0.5" />
<rect x="441.868"  y="341.868" width="20" height="60" transform="rotate(0 94.868 94.868)" fill="yellow" stroke="black" stroke-width="0.5" />
<rect x="461.868"  y="341.868" width="20" height="60" transform="rotate(0 94.868 94.868)" fill="yellow" stroke="black" stroke-width="0.5" />
<rect x="481.868"  y="341.868" width="20" height="60" transform="rotate(0 94.868 94.868)" fill="yellow" stroke="black" stroke-width="0.5" />
<rect x="501.868"  y="341.868" width="20" height="60" transform="rotate(0 94.868 94.868)" fill="yellow" stroke="black" stroke-width="0.5" />
<rect x="101.868"  y="401.868" width="20" height="60" transform="rotate(0 94.868 94.868)" fill="yellow" stroke="black" stroke-width="0.5" />
<rect x="121.868"  y="401.868" width="20" height="60" transform="rotate(0 94.868 94.868)" fill="yellow" stroke="black" stroke-width="0.5" />
<rect x="141.868"  y="401.868" width="20" height="60" transform="rotate(0 94.868 94.868)" fill="yellow" stroke="black" stroke-width="0.5" />
<rect x="161.868"  y="401.868" width="20" height="60" transform="rotate(0 94.868 94.868)" fill="yellow" stroke="black" stroke-width="0.5" />
<rect x="181.868"  y="401.868" width="20" height="60" transform="rotate(0 94.868 94.868)" fill="yellow" stroke="black" stroke-width="0.5" />
<rect x="201.868"  y="401.868" width="20" height="60" transform="rotate(0 94.868 94.868)" fill="yellow" stroke="black" stroke-width="0.5" />
<rect x="221.868"  y="401.868" width="20" height="60" transform="rotate(0 94.868 94.868)" fill="yellow" stroke="black" stroke-width="0.5" />
<rect x="241.868"  y="401.868" width="20" height="60" transform="rotate(0 94.868 94.868)" fill="yellow" stroke="black" stroke-width="0.5" />
<rect x="261.868"  y="401.868" width="20" height="60" transform="rotate(0 94.868 94.868)" fill="yellow" stroke="black" stroke-width="0.5" />
<rect x="281.868"  y="401.868" width="20" height="60" transform="rotate(0 94.868 94.868)" fill="yellow" stroke="black" stroke-width="0.5" />
<rect x="301.868"  y="401.868" width="20" height="60" transform="rotate(0 94.868 94.868)" fill="yellow" stroke="black" stroke-width="0.5" />
<rect x="321.868"  y="401.868" width="20" height="60" transform="rotate(0 94.868 94.868)" fill="yellow" stroke="black" stroke-width="0.5" />
<rect x="341.868"  y="401.868" width="20" height="60" transform="rotate(0 94.868 94.868)" fill="yellow" stroke="black" stroke-width="0.5" />
<rect x="361.868"  y="401.868" width="20" height="60" transform="rotate(0 94.868 94.868)" fill="yellow" stroke="black" stroke-width="0.5" />
<rect x="381.868"  y="401.868" width="20" height="60" transform="rotate(0 94.868 94.868)" fill="yellow" stroke="black" stroke-width="0.5" />
<rect x="401.868"  y="401.868" width="20" height="60" transform="rotate(0 94.868 94.868)" fill="yellow" stroke="black" stroke-width="0.5" />
<rect x="421.868"  y="401.868" width="20" height="60" transform="rotate(0 94.868 94.868)" fill="yellow" stroke="black" stroke-width="0.5" />
<rect x="441.868"  y="401.868" width="20" height="60" transform="rotate(0 94.868 94.868)" fill="yellow" stroke="black" stroke-width="0.5" />
<rect x="461.868"  y="401.868" width="20" height="60" transform="rotate(0 94.868 94.868)" fill="yellow" stroke="black" stroke-width="0.5" />
<rect x="481.868"  y="401.868" width="20" height="60" transform="rotate(0 94.868 94.868)" fill="yellow" stroke="black" stroke-width="0.5" />
<rect x="501.868"  y="401.868" width="20" height="60" transform="rotate(0 94.868 94.868)" fill="yellow" stroke="black" stroke-width="0.5" />
<rect x="101.868"  y="461.868" width="20" height="60" transform="rotate(0 94.868 94.868)" fill="yellow" stroke="black" stroke-width="0.5" />
<rect x="121.868"  y="461.868" width="20" height="60" transform="rotate(0 94.868 94.868)" fill="yellow" stroke="black" stroke-width="0.5" />
<rect x="141.868"  y="461.868" width="20" height="60" transform="rotate(0 94.868 94.868)" fill="yellow" stroke="black" stroke-width="0.5" />
<rect x="161.868"  y="461.868" width="20" height="60" transform="rotate(0 94.868 94.868)" fill="yellow" stroke="black" stroke-width="0.5" />
<rect x="181.868"  y="461.868" width="20" height="60" transform="rotate(0 94.868 94.868)" fill="yellow" stroke="black" stroke-width="0.5" />
<rect x="201.868"  y="461.868" width="20" height="60" transform="rotate(0 94.868 94.868)" fill="yellow" stroke="black" stroke-width="0.5" />
<rect x="221.868"  y="461.868" width="20" height="60" transform="rotate(0 94.868 94.868)" fill="yellow" stroke="black" stroke-width="0.5" />
<rect x="241.868"  y="461.868" width="20" height="60" transform="rotate(0 94.868 94.868)" fill="yellow" stroke="black" stroke-width="0.5" />
<rect x="261.868"  y="461.868" width="20" height="60" transform="rotate(0 94.868 94.868)" fill="yellow" stroke="black" stroke-width="0.5" />
<rect x="281.868"  y="461.868" width="20" height="60" transform="rotate(0 94.868 94.868)" fill="yellow" stroke="black" stroke-width="0.5" />
<rect x="301.868"  y="461.868" width="20" height="60" transform="rotate(0 94.868 94.868)" fill="yellow" stroke="black" stroke-width="0.5" />
<rect x="321.868"  y="461.868" width="20" height="60" transform="rotate(0 94.868 94.868)" fill="yellow" stroke="black" stroke-width="0.5" />
<rect x="341.868"  y="461.868" width="20" height="60" transform="rotate(0 94.868 94.868)" fill="yellow" stroke="black" stroke-width="0.5" />
<rect x="361.868"  y="461.868" width="20" height="60" transform="rotate(0 94.868 94.868)" fill="yellow" stroke="black" stroke-width="0.5" />
<rect x="381.868"  y="461.868" width="20" height="60" transform="rotate(0 94.868 94.868)" fill="yellow" stroke="black" stroke-width="0.5" />
<rect x="401.868"  y="461.868" width="20" height="60" transform="rotate(0 94.868 94.868)" fill="yellow" stroke="black" stroke-width="0.5" />
<rect x="421.868"  y="461.868" width="20" height="60" transform="rotate(0 94.868 94.868)" fill="yellow" stroke="black" stroke-width="0.5" />
<rect x="441.868"  y="461.868" width="20" height="60" transform="rotate(0 94.868 94.868)" fill="yellow" stroke="black" stroke-width="0.5" />
<rect x="461.868"  y="461.868" width="20" height="60" transform="rotate(0 94.868 94.868)" fill="yellow" stroke="black" stroke-width="0.5" />
<rect x="481.868"  y="461.868" width="20" height="60" transform="rotate(0 94.868 94.868)" fill="yellow" stroke="black" stroke-width="0.5" />
<rect x="501.868"  y="461.868" width="20" height="60" transform="rotate(0 94.868 94.868)" fill="yellow" stroke="black" stroke-width="0.5" />
<rect x="314"  y="526.132" width="60" height="20" transform="rotate(0 314 314)" fill="yellow" stroke="black" stroke-width="0.5" />
<rect x="254"  y="526.132" width="60" height="20" transform="rotate(0 314 314)" fill="yellow" stroke="black" stroke-width="0.5" />
<rect x="374"  y="526.132" width="60" height="20" transform="rotate(0 314 314)" fill="yellow" stroke="black" stroke-width="0.5" />
<rect x="194"  y="526.132" width="60" height="20" transform="rotate(0 314 314)" fill="yellow" stroke="black" stroke-width="0.5" />
<rect x="434"  y="526.132" width="60" height="20" transform="rotate(0 314 314)" fill="yellow" stroke="black" stroke-width="0.5" />
<rect x="134"  y="526.132" width="60" height="20" transform="rotate(0 314 314)" fill="yellow" stroke="black" stroke-width="0.5" />
<rect x="314"  y="546.132" width="60" height="20" transform="rotate(0 314 314)" fill="yellow" stroke="black" stroke-width="0.5" />
<rect x="254"  y="546.132" width="60" height="20" transform="rotate(0 314 314)" fill="yellow" stroke="black" stroke-width="0.5" />
<rect x="374"  y="546.132" width="60" height="20" transform="rotate(0 314 314)" fill="yellow" stroke="black" stroke-width="0.5" />
<rect x="194"  y="546.132" width="60" height="20" transform="rotate(0 314 314)" fill="yellow" stroke="black" stroke-width="0.5" />
<rect x="314"  y="566.132" width="60" height="20" transform="rotate(0 314 314)" fill="yellow" stroke="black" stroke-width="0.5" />
<rect x="254"  y="566.132" width="60" height="20" transform="rotate(0 314 314)" fill="yellow" stroke="black" stroke-width="0.5" />
<rect x="374"  y="566.132" width="60" height="20" transform="rotate(0 314 314)" fill="yellow" stroke="black" stroke-width="0.5" />
<rect x="194"  y="566.132" width="60" height="20" transform="rotate(0 314 314)" fill="yellow" stroke="black" stroke-width="0.5" />
<rect x="314"  y="586.132" width="60" height="20" transform="rotate(0 314 314)" fill="yellow" stroke="black" stroke-width="0.5" />
<rect x="254"  y="586.132" width="60" height="20" transform="rotate(0 314 314)" fill="yellow" stroke="black" stroke-width="0.5" />
<rect x="314"  y="526.132" width="60" height="20" transform="rotate(90 314 314)" fill="yellow" stroke="black" stroke-width="0.5" />
<rect x="254"  y="526.132" width="60" height="20" transform="rotate(90 314 314)" fill="yellow" stroke="black" stroke-width="0.5" />
<rect x="374"  y="526.132" width="60" height="20" transform="rotate(90 314 314)" fill="yellow" stroke="black" stroke-width="0.5" />
<rect x="194"  y="526.132" width="60" height="20" transform="rotate(90 314 314)" fill="yellow" stroke="black" stroke-width="0.5" />
<rect x="434"  y="526.132" width="60" height="20" transform="rotate(90 314 314)" fill="yellow" stroke="black" stroke-width="0.5" />
<rect x="134"  y="526.132" width="60" height="20" transform="rotate(90 314 314)" fill="yellow" stroke="black" stroke-width="0.5" />
<rect x="314"  y="546.132" width="60" height="20" transform="rotate(90 314 314)" fill="yellow" stroke="black" stroke-width="0.5" />
<rect x="254"  y="546.132" width="60" height="20" transform="rotate(90 314 314)" fill="yellow" stroke="black" stroke-width="0.5" />
<rect x="374"  y="546.132" width="60" height="20" transform="rotate(90 314 314)" fill="yellow" stroke="black" stroke-width="0.5" />
<rect x="194"  y="546.132" width="60" height="20" transform="rotate(90 314 314)" fill="yellow" stroke="black" stroke-width="0.5" />
<rect x="314"  y="566.132" width="60" height="20" transform="rotate(90 314 314)" fill="yellow" stroke="black" stroke-width="0.5" />
<rect x="254"  y="566.132" width="60" height="20" transform="rotate(90 314 314)" fill="yellow" stroke="black" stroke-width="0.5" />
<rect x="374"  y="566.132" width="60" height="20" transform="rotate(90 314 314)" fill="yellow" stroke="black" stroke-width="0.5" />
<rect x="194"  y="566.132" width="60" height="20" transform="rotate(90 314 314)" fill="yellow" stroke="black" stroke-width="0.5" />
<rect x="314"  y="586.132" width="60" height="20" transform="rotate(90 314 314)" fill="yellow" stroke="black" stroke-width="0.5" />
<rect x="254"  y="586.132" width="60" height="20" transform="rotate(90 314 314)" fill="yellow" stroke="black" stroke-width="0.5" />
<rect x="314"  y="526.132" width="60" height="20" transform="rotate(180 314 314)" fill="yellow" stroke="black" stroke-width="0.5" />
<rect x="254"  y="526.132" width="60" height="20" transform="rotate(180 314 314)" fill="yellow" stroke="black" stroke-width="0.5" />
<rect x="374"  y="526.132" width="60" height="20" transform="rotate(180 314 314)" fill="yellow" stroke="black" stroke-width="0.5" />
<rect x="194"  y="526.132" width="60" height="20" transform="rotate(180 314 314)" fill="yellow" stroke="black" stroke-width="0.5" />
<rect x="434"  y="526.132" width="60" height="20" transform="rotate(180 314 314)" fill="yellow" stroke="black" stroke-width="0.5" />
<rect x="134"  y="526.132" width="60" height="20" transform="rotate(180 314 314)" fill="yellow" stroke="black" stroke-width="0.5" />
<rect x="314"  y="546.132" width="60" height="20" transform="rotate(180 314 314)" fill="yellow" stroke="black" stroke-width="0.5" />
<rect x="254"  y="546.132" width="60" height="20" transform="rotate(180 314 314)" fill="yellow" stroke="black" stroke-width="0.5" />
<rect x="374"  y="546.132" width="60" height="20" transform="rotate(180 314 314)" fill="yellow" stroke="black" stroke-width="0.5" />
<rect x="194"  y="546.132" width="60" height="20" transform="rotate(180 314 314)" fill="yellow" stroke="black" stroke-width="0.5" />
<rect x="314"  y="566.132" width="60" height="20" transform="rotate(180 314 314)" fill="yellow" stroke="black" stroke-width="0.5" />
<rect x="254"  y="566.132" width="60" height="20" transform="rotate(180 314 314)" fill="yellow" stroke="black" stroke-width="0.5" />
<rect x="374"  y="566.132" width="60" height="20" transform="rotate(180 314 314)" fill="yellow" stroke="black" stroke-width="0.5" />
<rect x="194"  y="566.132" width="60" height="20" transform="rotate(180 314 314)" fill="yellow" stroke="black" stroke-width="0.5" />
<rect x="314"  y="586.132" width="60" height="20" transform="rotate(180 314 314)" fill="yellow" stroke="black" stroke-width="0.5" />
<rect x="254"  y="586.132" width="60" height="20" transform="rotate(180 314 314)" fill="yellow" stroke="black" stroke-width="0.5" />
<rect x="314"  y="526.132" width="60" height="20" transform="rotate(270 314 314)" fill="yellow" stroke="black" stroke-width="0.5" />
<rect x="254"  y="526.132" width="60" height="20" transform="rotate(270 314 314)" fill="yellow" stroke="black" stroke-width="0.5" />
<rect x="374"  y="526.132" width="60" height="20" transform="rotate(270 314 314)" fill="yellow" stroke="black" stroke-width="0.5" />
<rect x="194"  y="526.132" width="60" height="20" transform="rotate(270 314 314)" fill="yellow" stroke="black" stroke-width="0.5" />
<rect x="434"  y="526.132" width="60" height="20" transform="rotate(270 314 314)" fill="yellow" stroke="black" stroke-width="0.5" />
<rect x="134"  y="526.132" width="60" height="20" transform="rotate(270 314 314)" fill="yellow" stroke="black" stroke-width="0.5" />
<rect x="314"  y="546.132" width="60" height="20" transform="rotate(270 314 314)" fill="yellow" stroke="black" stroke-width="0.5" />
<rect x="254"  y="546.132" width="60" height="20" transform="rotate(270 314 314)" fill="yellow" stroke="black" stroke-width="0.5" />
<rect x="374"  y="546.132" width="60" height="20" transform="rotate(270 314 314)" fill="yellow" stroke="black" stroke-width="0.5" />
<rect x="194"  y="546.132" width="60" height="20" transform="rotate(270 314 314)" fill="yellow" stroke="black" stroke-width="0.5" />
<rect x="314"  y="566.132" width="60" height="20" transform="rotate(270 314 314)" fill="yellow" stroke="black" stroke-width="0.5" />
<rect x="254"  y="566.132" width="60" height="20" transform="rotate(270 314 314)" fill="yellow" stroke="black" stroke-width="0.5" />
<rect x="374"  y="566.132" width="60" height="20" transform="rotate(270 314 314)" fill="yellow" stroke="black" stroke-width="0.5" />
<rect x="194"  y="566.132" width="60" height="20" transform="rotate(270 314 314)" fill="yellow" stroke="black" stroke-width="0.5" />
<rect x="314"  y="586.132" width="60" height="20" transform="rotate(270 314 314)" fill="yellow" stroke="black" stroke-width="0.5" />
<rect x="254"  y="586.132" width="60" height="20" transform="rotate(270 314 314)" fill="yellow" stroke="black" stroke-width="0.5" />
</svg>
