<svg version="1.1" baseProfile="full" xmlns="http://www.w3.org/2000/svg">
<polygon points="335,35 35,554.615 635,554.615" transform="rotate(0 35 35)" fill="blue" stroke="black" stroke-width="0.5" />
<polygon points="335,35 315,69.641 355,69.641" transform="rotate(0 7 7)" fill="green" stroke="black" stroke-width="0.5" />
<polygon points="335,104.282 315,69.641 355,69.641" transform="rotate(0 7 7)" fill="green" stroke="black" stroke-width="0.5" />
<polygon points="315,69.641 295,104.282 335,104.282" transform="rotate(0 7 7)" fill="green" stroke="black" stroke-width="0.5" />
<polygon points="315,138.923 295,104.282 335,104.282" transform="rotate(0 7 7)" fill="green" stroke="black" stroke-width="0.5" />
<polygon points="355,69.641 335,104.282 375,104.282" transform="rotate(0 7 7)" fill="green" stroke="black" stroke-width="0.5" />
<polygon points="355,138.923 335,104.282 375,104.282" transform="rotate(0 7 7)" fill="green" stroke="black" stroke-width="0.5" />
<polygon points="295,104.282 275,138.923 315,138.923" transform="rotate(0 7 7)" fill="green" stroke="black" stroke-width="0.5" />
<polygon points="295,173.564 275,138.923 315,138.923" transform="rotate(0 7 7)" fill="green" stroke="black" stroke-width="0.5" />
<polygon points="335,104.282 315,138.923 355,138.923" transform="rotate(0 7 7)" fill="green" stroke="black" stroke-width="0.5" />
<polygon points="335,173.564 315,138.923 355,138.923" transform="rotate(0 7 7)" fill="green" stroke="black" stroke-width="0.5" />
<polygon points="375,104.282 355,138.923 395,138.923" transform="rotate(0 7 7)" fill="green" stroke="black" stroke-width="0.5" />
<polygon points="375,173.564 355,138.923 395,138.923" transform="rotate(0 7 7)" fill="green" stroke="black" stroke-width="0.5" />
<polygon points="275,138.923 255,173.564 295,173.564" transform="rotate(0 7 7)" fill="green" stroke="black" stroke-width="0.5" />
<polygon points="275,208.205 255,173.564 295,173.564" transform="rotate(0 7 7)" fill="green" stroke="black" stroke-width="0.5" />
<polygon points="315,138.923 295,173.564 335,173.564" transform="rotate(0 7 7)" fill="green" stroke="black" stroke-width="0.5" />
<polygon points="315,208.205 295,173.564 335,173.564" transform="rotate(0 7 7)" fill="green" stroke="black" stroke-width="0.5" />
<polygon points="355,138.923 335,173.564 375,173.564" transform="rotate(0 7 7)" fill="green" stroke="black" stroke-width="0.5" />
<polygon points="355,208.205 335,173.564 375,173.564" transform="rotate(0 7 7)" fill="green" stroke="black" stroke-width="0.5" />
<polygon points="395,138.923 375,173.564 415,173.564" transform="rotate(0 7 7)" fill="green" stroke="black" stroke-width="0.5" />
<polygon points="395,208.205 375,173.564 415,173.564" transform="rotate(0 7 7)" fill="green" stroke="black" stroke-width="0.5" />
<polygon points="255,173.564 235,208.205 275,208.205" transform="rotate(0 7 7)" fill="green" stroke="black" stroke-width="0.5" />
<polygon points="255,242.846 235,208.205 275,208.205" transform="rotate(0 7 7)" fill="green" stroke="black" stroke-width="0.5" />
<polygon points="295,173.564 275,208.205 315,208.205" transform="rotate(0 7 7)" fill="green" stroke="black" stroke-width="0.5" />
<polygon points="295,242.846 275,208.205 315,208.205" transform="rotate(0 7 7)" fill="green" stroke="black" stroke-width="0.5" />
<polygon points="335,173.564 315,208.205 355,208.205" transform="rotate(0 7 7)" fill="green" stroke="black" stroke-width="0.5" />
<polygon points="335,242.846 315,208.205 355,208.205" transform="rotate(0 7 7)" fill="green" stroke="black" stroke-width="0.5" />
<polygon points="375,173.564 355,208.205 395,208.205" transform="rotate(0 7 7)" fill="green" stroke="black" stroke-width="0.5" />
<polygon points="375,242.846 355,208.205 395,208.205" transform="rotate(0 7 7)" fill="green" stroke="black" stroke-width="0.5" />
<polygon points="415,173.564 395,208.205 435,208.205" transform="rotate(0 7 7)" fill="green" stroke="black" stroke-width="0.5" />
<polygon points="415,242.846 395,208.205 435,208.205" transform="rotate(0 7 7)" fill="green" stroke="black" stroke-width="0.5" />
<polygon points="235,208.205 215,242.846 255,242.846" transform="rotate(0 7 7)" fill="green" stroke="black" stroke-width="0.5" />
<polygon points="235,277.487 215,242.846 255,242.846" transform="rotate(0 7 7)" fill="green" stroke="black" stroke-width="0.5" />
<polygon points="275,208.205 255,242.846 295,242.846" transform="rotate(0 7 7)" fill="green" stroke="black" stroke-width="0.5" />
<polygon points="275,277.487 255,242.846 295,242.846" transform="rotate(0 7 7)" fill="green" stroke="black" stroke-width="0.5" />
<polygon points="315,208.205 295,242.846 335,242.846" transform="rotate(0 7 7)" fill="green" stroke="black" stroke-width="0.5" />
<polygon points="315,277.487 295,242.846 335,242.846" transform="rotate(0 7 7)" fill="green" stroke="black" stroke-width="0.5" />
<polygon points="355,208.205 335,242.846 375,242.846" transform="rotate(0 7 7)" fill="green" stroke="black" stroke-width="0.5" />
<polygon points="355,277.487 335,242.846 375,242.846" transform="rotate(0 7 7)" fill="green" stroke="black" stroke-width="0.5" />
<polygon points="395,208.205 375,242.846 415,242.846" transform="rotate(0 7 7)" fill="green" stroke="black" stroke-width="0.5" />
<polygon points="395,277.487 375,242.846 415,242.846" transform="rotate(0 7 7)" fill="green" stroke="black" stroke-width="0.5" />
<polygon points="435,208.205 415,242.846 455,242.846" transform="rotate(0 7 7)" fill="green" stroke="black" stroke-width="0.5" />
<polygon points="435,277.487 415,242.846 455,242.846" transform="rotate(0 7 7)" fill="green" stroke="black" stroke-width="0.5" />
<polygon points="215,242.846 195,277.487 235,277.487" transform="rotate(0 7 7)" fill="green" stroke="black" stroke-width="0.5" />
<polygon points="215,312.128 195,277.487 235,277.487" transform="rotate(0 7 7)" fill="green" stroke="black" stroke-width="0.5" />
<polygon points="255,242.846 235,277.487 275,277.487" transform="rotate(0 7 7)" fill="green" stroke="black" stroke-width="0.5" />
<polygon points="255,312.128 235,277.487 275,277.487" transform="rotate(0 7 7)" fill="green" stroke="black" stroke-width="0.5" />
<polygon points="295,242.846 275,277.487 315,277.487" transform="rotate(0 7 7)" fill="green" stroke="black" stroke-width="0.5" />
<polygon points="295,312.128 275,277.487 315,277.487" transform="rotate(0 7 7)" fill="green" stroke="black" stroke-width="0.5" />
<polygon points="335,242.846 315,277.487 355,277.487" transform="rotate(0 7 7)" fill="green" stroke="black" stroke-width="0.5" />
<polygon points="335,312.128 315,277.487 355,277.487" transform="rotate(0 7 7)" fill="green" stroke="black" stroke-width="0.5" />
<polygon points="375,242.846 355,277.487 395,277.487" transform="rotate(0 7 7)" fill="green" stroke="black" stroke-width="0.5" />
<polygon points="375,312.128 355,277.487 395,277.487" transform="rotate(0 7 7)" fill="green" stroke="black" stroke-width="0.5" />
<polygon points="415,242.846 395,277.487 435,277.487" transform="rotate(0 7 7)" fill="green" stroke="black" stroke-width="0.5" />
<polygon points="415,312.128 395,277.487 435,277.487" transform="rotate(0 7 7)" fill="green" stroke="black" stroke-width="0.5" />
<polygon points="455,242.846 435,277.487 475,277.487" transform="rotate(0 7 7)" fill="green" stroke="black" stroke-width="0.5" />
<polygon points="455,312.128 435,277.487 475,277.487" transform="rotate(0 7 7)" fill="green" stroke="black" stroke-width="0.5" />
<polygon points="195,277.487 175,312.128 215,312.128" transform="rotate(0 7 7)" fill="green" stroke="black" stroke-width="0.5" />
<polygon points="195,346.769 175,312.128 215,312.128" transform="rotate(0 7 7)" fill="green" stroke="black" stroke-width="0.5" />
<polygon points="235,277.487 215,312.128 255,312.128" transform="rotate(0 7 7)" fill="green" stroke="black" stroke-width="0.5" />
<polygon points="235,346.769 215,312.128 255,312.128" transform="rotate(0 7 7)" fill="green" stroke="black" stroke-width="0.5" />
<polygon points="275,277.487 255,312.128 295,312.128" transform="rotate(0 7 7)" fill="green" stroke="black" stroke-width="0.5" />
<polygon points="275,346.769 255,312.128 295,312.128" transform="rotate(0 7 7)" fill="green" stroke="black" stroke-width="0.5" />
<polygon points="315,277.487 295,312.128 335,312.128" transform="rotate(0 7 7)" fill="green" stroke="black" stroke-width="0.5" />
<polygon points="315,346.769 295,312.128 335,312.128" transform="rotate(0 7 7)" fill="green" stroke="black" stroke-width="0.5" />
<polygon points="355,277.487 335,312.128 375,312.128" transform="rotate(0 7 7)" fill="green" stroke="black" stroke-width="0.5" />
<polygon points="355,346.769 335,312.128 375,312.128" transform="rotate(0 7 7)" fill="green" stroke="black" stroke-width="0.5" />
<polygon points="395,277.487 375,312.128 415,312.128" transform="rotate(0 7 7)" fill="green" stroke="black" stroke-width="0.5" />
<polygon points="395,346.769 375,312.128 415,312.128" transform="rotate(0 7 7)" fill="green" stroke="black" stroke-width="0.5" />
<polygon points="435,277.487 415,312.128 455,312.128" transform="rotate(0 7 7)" fill="green" stroke="black" stroke-width="0.5" />
<polygon points="435,346.769 415,312.128 455,312.128" transform="rotate(0 7 7)" fill="green" stroke="black" stroke-width="0.5" />
<polygon points="475,277.487 455,312.128 495,312.128" transform="rotate(0 7 7)" fill="green" stroke="black" stroke-width="0.5" />
<polygon points="475,346.769 455,312.128 495,312.128" transform="rotate(0 7 7)" fill="green" stroke="black" stroke-width="0.5" />
<polygon points="175,312.128 155,346.769 195,346.769" transform="rotate(0 7 7)" fill="green" stroke="black" stroke-width="0.5" />
<polygon points="175,381.41 155,346.769 195,346.769" transform="rotate(0 7 7)" fill="green" stroke="black" stroke-width="0.5" />
<polygon points="215,312.128 195,346.769 235,346.769" transform="rotate(0 7 7)" fill="green" stroke="black" stroke-width="0.5" />
<polygon points="215,381.41 195,346.769 235,346.769" transform="rotate(0 7 7)" fill="green" stroke="black" stroke-width="0.5" />
<polygon points="255,312.128 235,346.769 275,346.769" transform="rotate(0 7 7)" fill="green" stroke="black" stroke-width="0.5" />
<polygon points="255,381.41 235,346.769 275,346.769" transform="rotate(0 7 7)" fill="green" stroke="black" stroke-width="0.5" />
<polygon points="295,312.128 275,346.769 315,346.769" transform="rotate(0 7 7)" fill="green" stroke="black" stroke-width="0.5" />
<polygon points="295,381.41 275,346.769 315,346.769" transform="rotate(0 7 7)" fill="green" stroke="black" stroke-width="0.5" />
<polygon points="335,312.128 315,346.769 355,346.769" transform="rotate(0 7 7)" fill="green" stroke="black" stroke-width="0.5" />
<polygon points="335,381.41 315,346.769 355,346.769" transform="rotate(0 7 7)" fill="green" stroke="black" stroke-width="0.5" />
<polygon points="375,312.128 355,346.769 395,346.769" transform="rotate(0 7 7)" fill="green" stroke="black" stroke-width="0.5" />
<polygon points="375,381.41 355,346.769 395,346.769" transform="rotate(0 7 7)" fill="green" stroke="black" stroke-width="0.5" />
<polygon points="415,312.128 395,346.769 435,346.769" transform="rotate(0 7 7)" fill="green" stroke="black" stroke-width="0.5" />
<polygon points="415,381.41 395,346.769 435,346.769" transform="rotate(0 7 7)" fill="green" stroke="black" stroke-width="0.5" />
<polygon points="455,312.128 435,346.769 475,346.769" transform="rotate(0 7 7)" fill="green" stroke="black" stroke-width="0.5" />
<polygon points="455,381.41 435,346.769 475,346.769" transform="rotate(0 7 7)" fill="green" stroke="black" stroke-width="0.5" />
<polygon points="495,312.128 475,346.769 515,346.769" transform="rotate(0 7 7)" fill="green" stroke="black" stroke-width="0.5" />
<polygon points="495,381.41 475,346.769 515,346.769" transform="rotate(0 7 7)" fill="green" stroke="black" stroke-width="0.5" />
<polygon points="155,346.769 135,381.41 175,381.41" transform="rotate(0 7 7)" fill="green" stroke="black" stroke-width="0.5" />
<polygon points="155,416.051 135,381.41 175,381.41" transform="rotate(0 7 7)" fill="green" stroke="black" stroke-width="0.5" />
<polygon points="195,346.769 175,381.41 215,381.41" transform="rotate(0 7 7)" fill="green" stroke="black" stroke-width="0.5" />
<polygon points="195,416.051 175,381.41 215,381.41" transform="rotate(0 7 7)" fill="green" stroke="black" stroke-width="0.5" />
<polygon points="235,346.769 215,381.41 255,381.41" transform="rotate(0 7 7)" fill="green" stroke="black" stroke-width="0.5" />
<polygon points="235,416.051 215,381.41 255,381.41" transform="rotate(0 7 7)" fill="green" stroke="black" stroke-width="0.5" />
<polygon points="275,346.769 255,381.41 295,381.41" transform="rotate(0 7 7)" fill="green" stroke="black" stroke-width="0.5" />
<polygon points="275,416.051 255,381.41 295,381.41" transform="rotate(0 7 7)" fill="green" stroke="black" stroke-width="0.5" />
<polygon points="315,346.769 295,381.41 335,381.41" transform="rotate(0 7 7)" fill="green" stroke="black" stroke-width="0.5" />
<polygon points="315,416.051 295,381.41 335,381.41" transform="rotate(0 7 7)" fill="green" stroke="black" stroke-width="0.5" />
<polygon points="355,346.769 335,381.41 375,381.41" transform="rotate(0 7 7)" fill="green" stroke="black" stroke-width="0.5" />
<polygon points="355,416.051 335,381.41 375,381.41" transform="rotate(0 7 7)" fill="green" stroke="black" stroke-width="0.5" />
<polygon points="395,346.769 375,381.41 415,381.41" transform="rotate(0 7 7)" fill="green" stroke="black" stroke-width="0.5" />
<polygon points="395,416.051 375,381.41 415,381.41" transform="rotate(0 7 7)" fill="green" stroke="black" stroke-width="0.5" />
<polygon points="435,346.769 415,381.41 455,381.41" transform="rotate(0 7 7)" fill="green" stroke="black" stroke-width="0.5" />
<polygon points="435,416.051 415,381.41 455,381.41" transform="rotate(0 7 7)" fill="green" stroke="black" stroke-width="0.5" />
<polygon points="475,346.769 455,381.41 495,381.41" transform="rotate(0 7 7)" fill="green" stroke="black" stroke-width="0.5" />
<polygon points="475,416.051 455,381.41 495,381.41" transform="rotate(0 7 7)" fill="green" stroke="black" stroke-width="0.5" />
<polygon points="515,346.769 495,381.41 535,381.41" transform="rotate(0 7 7)" fill="green" stroke="black" stroke-width="0.5" />
<polygon points="515,416.051 495,381.41 535,381.41" transform="rotate(0 7 7)" fill="green" stroke="black" stroke-width="0.5" />
<polygon points="135,381.41 115,416.051 155,416.051" transform="rotate(0 7 7)" fill="green" stroke="black" stroke-width="0.5" />
<polygon points="135,450.692 115,416.051 155,416.051" transform="rotate(0 7 7)" fill="green" stroke="black" stroke-width="0.5" />
<polygon points="175,381.41 155,416.051 195,416.051" transform="rotate(0 7 7)" fill="green" stroke="black" stroke-width="0.5" />
<polygon points="175,450.692 155,416.051 195,416.051" transform="rotate(0 7 7)" fill="green" stroke="black" stroke-width="0.5" />
<polygon points="215,381.41 195,416.051 235,416.051" transform="rotate(0 7 7)" fill="green" stroke="black" stroke-width="0.5" />
<polygon points="215,450.692 195,416.051 235,416.051" transform="rotate(0 7 7)" fill="green" stroke="black" stroke-width="0.5" />
<polygon points="255,381.41 235,416.051 275,416.051" transform="rotate(0 7 7)" fill="green" stroke="black" stroke-width="0.5" />
<polygon points="255,450.692 235,416.051 275,416.051" transform="rotate(0 7 7)" fill="green" stroke="black" stroke-width="0.5" />
<polygon points="295,381.41 275,416.051 315,416.051" transform="rotate(0 7 7)" fill="green" stroke="black" stroke-width="0.5" />
<polygon points="295,450.692 275,416.051 315,416.051" transform="rotate(0 7 7)" fill="green" stroke="black" stroke-width="0.5" />
<polygon points="335,381.41 315,416.051 355,416.051" transform="rotate(0 7 7)" fill="green" stroke="black" stroke-width="0.5" />
<polygon points="335,450.692 315,416.051 355,416.051" transform="rotate(0 7 7)" fill="green" stroke="black" stroke-width="0.5" />
<polygon points="375,381.41 355,416.051 395,416.051" transform="rotate(0 7 7)" fill="green" stroke="black" stroke-width="0.5" />
<polygon points="375,450.692 355,416.051 395,416.051" transform="rotate(0 7 7)" fill="green" stroke="black" stroke-width="0.5" />
<polygon points="415,381.41 395,416.051 435,416.051" transform="rotate(0 7 7)" fill="green" stroke="black" stroke-width="0.5" />
<polygon points="415,450.692 395,416.051 435,416.051" transform="rotate(0 7 7)" fill="green" stroke="black" stroke-width="0.5" />
<polygon points="455,381.41 435,416.051 475,416.051" transform="rotate(0 7 7)" fill="green" stroke="black" stroke-width="0.5" />
<polygon points="455,450.692 435,416.051 475,416.051" transform="rotate(0 7 7)" fill="green" stroke="black" stroke-width="0.5" />
<polygon points="495,381.41 475,416.051 515,416.051" transform="rotate(0 7 7)" fill="green" stroke="black" stroke-width="0.5" />
<polygon points="495,450.692 475,416.051 515,416.051" transform="rotate(0 7 7)" fill="green" stroke="black" stroke-width="0.5" />
<polygon points="535,381.41 515,416.051 555,416.051" transform="rotate(0 7 7)" fill="green" stroke="black" stroke-width="0.5" />
<polygon points="535,450.692 515,416.051 555,416.051" transform="rotate(0 7 7)" fill="green" stroke="black" stroke-width="0.5" />
<polygon points="115,416.051 95,450.692 135,450.692" transform="rotate(0 7 7)" fill="green" stroke="black" stroke-width="0.5" />
<polygon points="115,485.333 95,450.692 135,450.692" transform="rotate(0 7 7)" fill="green" stroke="black" stroke-width="0.5" />
<polygon points="155,416.051 135,450.692 175,450.692" transform="rotate(0 7 7)" fill="green" stroke="black" stroke-width="0.5" />
<polygon points="155,485.333 135,450.692 175,450.692" transform="rotate(0 7 7)" fill="green" stroke="black" stroke-width="0.5" />
<polygon points="195,416.051 175,450.692 215,450.692" transform="rotate(0 7 7)" fill="green" stroke="black" stroke-width="0.5" />
<polygon points="195,485.333 175,450.692 215,450.692" transform="rotate(0 7 7)" fill="green" stroke="black" stroke-width="0.5" />
<polygon points="235,416.051 215,450.692 255,450.692" transform="rotate(0 7 7)" fill="green" stroke="black" stroke-width="0.5" />
<polygon points="235,485.333 215,450.692 255,450.692" transform="rotate(0 7 7)" fill="green" stroke="black" stroke-width="0.5" />
<polygon points="275,416.051 255,450.692 295,450.692" transform="rotate(0 7 7)" fill="green" stroke="black" stroke-width="0.5" />
<polygon points="275,485.333 255,450.692 295,450.692" transform="rotate(0 7 7)" fill="green" stroke="black" stroke-width="0.5" />
<polygon points="315,416.051 295,450.692 335,450.692" transform="rotate(0 7 7)" fill="green" stroke="black" stroke-width="0.5" />
<polygon points="315,485.333 295,450.692 335,450.692" transform="rotate(0 7 7)" fill="green" stroke="black" stroke-width="0.5" />
<polygon points="355,416.051 335,450.692 375,450.692" transform="rotate(0 7 7)" fill="green" stroke="black" stroke-width="0.5" />
<polygon points="355,485.333 335,450.692 375,450.692" transform="rotate(0 7 7)" fill="green" stroke="black" stroke-width="0.5" />
<polygon points="395,416.051 375,450.692 415,450.692" transform="rotate(0 7 7)" fill="green" stroke="black" stroke-width="0.5" />
<polygon points="395,485.333 375,450.692 415,450.692" transform="rotate(0 7 7)" fill="green" stroke="black" stroke-width="0.5" />
<polygon points="435,416.051 415,450.692 455,450.692" transform="rotate(0 7 7)" fill="green" stroke="black" stroke-width="0.5" />
<polygon points="435,485.333 415,450.692 455,450.692" transform="rotate(0 7 7)" fill="green" stroke="black" stroke-width="0.5" />
<polygon points="475,416.051 455,450.692 495,450.692" transform="rotate(0 7 7)" fill="green" stroke="black" stroke-width="0.5" />
<polygon points="475,485.333 455,450.692 495,450.692" transform="rotate(0 7 7)" fill="green" stroke="black" stroke-width="0.5" />
<polygon points="515,416.051 495,450.692 535,450.692" transform="rotate(0 7 7)" fill="green" stroke="black" stroke-width="0.5" />
<polygon points="515,485.333 495,450.692 535,450.692" transform="rotate(0 7 7)" fill="green" stroke="black" stroke-width="0.5" />
<polygon points="555,416.051 535,450.692 575,450.692" transform="rotate(0 7 7)" fill="green" stroke="black" stroke-width="0.5" />
<polygon points="555,485.333 535,450.692 575,450.692" transform="rotate(0 7 7)" fill="green" stroke="black" stroke-width="0.5" />
<polygon points="95,450.692 75,485.333 115,485.333" transform="rotate(0 7 7)" fill="green" stroke="black" stroke-width="0.5" />
<polygon points="95,519.974 75,485.333 115,485.333" transform="rotate(0 7 7)" fill="green" stroke="black" stroke-width="0.5" />
<polygon points="135,450.692 115,485.333 155,485.333" transform="rotate(0 7 7)" fill="green" stroke="black" stroke-width="0.5" />
<polygon points="135,519.974 115,485.333 155,485.333" transform="rotate(0 7 7)" fill="green" stroke="black" stroke-width="0.5" />
<polygon points="175,450.692 155,485.333 195,485.333" transform="rotate(0 7 7)" fill="green" stroke="black" stroke-width="0.5" />
<polygon points="175,519.974 155,485.333 195,485.333" transform="rotate(0 7 7)" fill="green" stroke="black" stroke-width="0.5" />
<polygon points="215,450.692 195,485.333 235,485.333" transform="rotate(0 7 7)" fill="green" stroke="black" stroke-width="0.5" />
<polygon points="215,519.974 195,485.333 235,485.333" transform="rotate(0 7 7)" fill="green" stroke="black" stroke-width="0.5" />
<polygon points="255,450.692 235,485.333 275,485.333" transform="rotate(0 7 7)" fill="green" stroke="black" stroke-width="0.5" />
<polygon points="255,519.974 235,485.333 275,485.333" transform="rotate(0 7 7)" fill="green" stroke="black" stroke-width="0.5" />
<polygon points="295,450.692 275,485.333 315,485.333" transform="rotate(0 7 7)" fill="green" stroke="black" stroke-width="0.5" />
<polygon points="295,519.974 275,485.333 315,485.333" transform="rotate(0 7 7)" fill="green" stroke="black" stroke-width="0.5" />
<polygon points="335,450.692 315,485.333 355,485.333" transform="rotate(0 7 7)" fill="green" stroke="black" stroke-width="0.5" />
<polygon points="335,519.974 315,485.333 355,485.333" transform="rotate(0 7 7)" fill="green" stroke="black" stroke-width="0.5" />
<polygon points="375,450.692 355,485.333 395,485.333" transform="rotate(0 7 7)" fill="green" stroke="black" stroke-width="0.5" />
<polygon points="375,519.974 355,485.333 395,485.333" transform="rotate(0 7 7)" fill="green" stroke="black" stroke-width="0.5" />
<polygon points="415,450.692 395,485.333 435,485.333" transform="rotate(0 7 7)" fill="green" stroke="black" stroke-width="0.5" />
<polygon points="415,519.974 395,485.333 435,485.333" transform="rotate(0 7 7)" fill="green" stroke="black" stroke-width="0.5" />
<polygon points="455,450.692 435,485.333 475,485.333" transform="rotate(0 7 7)" fill="green" stroke="black" stroke-width="0.5" />
<polygon points="455,519.974 435,485.333 475,485.333" transform="rotate(0 7 7)" fill="green" stroke="black" stroke-width="0.5" />
<polygon points="495,450.692 475,485.333 515,485.333" transform="rotate(0 7 7)" fill="green" stroke="black" stroke-width="0.5" />
<polygon points="495,519.974 475,485.333 515,485.333" transform="rotate(0 7 7)" fill="green" stroke="black" stroke-width="0.5" />
<polygon points="535,450.692 515,485.333 555,485.333" transform="rotate(0 7 7)" fill="green" stroke="black" stroke-width="0.5" />
<polygon points="535,519.974 515,485.333 555,485.333" transform="rotate(0 7 7)" fill="green" stroke="black" stroke-width="0.5" />
<polygon points="575,450.692 555,485.333 595,485.333" transform="rotate(0 7 7)" fill="green" stroke="black" stroke-width="0.5" />
<polygon points="575,519.974 555,485.333 595,485.333" transform="rotate(0 7 7)" fill="green" stroke="black" stroke-width="0.5" />
<polygon points="75,485.333 55,519.974 95,519.974" transform="rotate(0 7 7)" fill="green" stroke="black" stroke-width="0.5" />
<polygon points="75,554.615 55,519.974 95,519.974" transform="rotate(0 7 7)" fill="green" stroke="black" stroke-width="0.5" />
<polygon points="115,485.333 95,519.974 135,519.974" transform="rotate(0 7 7)" fill="green" stroke="black" stroke-width="0.5" />
<polygon points="115,554.615 95,519.974 135,519.974" transform="rotate(0 7 7)" fill="green" stroke="black" stroke-width="0.5" />
<polygon points="155,485.333 135,519.974 175,519.974" transform="rotate(0 7 7)" fill="green" stroke="black" stroke-width="0.5" />
<polygon points="155,554.615 135,519.974 175,519.974" transform="rotate(0 7 7)" fill="green" stroke="black" stroke-width="0.5" />
<polygon points="195,485.333 175,519.974 215,519.974" transform="rotate(0 7 7)" fill="green" stroke="black" stroke-width="0.5" />
<polygon points="195,554.615 175,519.974 215,519.974" transform="rotate(0 7 7)" fill="green" stroke="black" stroke-width="0.5" />
<polygon points="235,485.333 215,519.974 255,519.974" transform="rotate(0 7 7)" fill="green" stroke="black" stroke-width="0.5" />
<polygon points="235,554.615 215,519.974 255,519.974" transform="rotate(0 7 7)" fill="green" stroke="black" stroke-width="0.5" />
<polygon points="275,485.333 255,519.974 295,519.974" transform="rotate(0 7 7)" fill="green" stroke="black" stroke-width="0.5" />
<polygon points="275,554.615 255,519.974 295,519.974" transform="rotate(0 7 7)" fill="green" stroke="black" stroke-width="0.5" />
<polygon points="315,485.333 295,519.974 335,519.974" transform="rotate(0 7 7)" fill="green" stroke="black" stroke-width="0.5" />
<polygon points="315,554.615 295,519.974 335,519.974" transform="rotate(0 7 7)" fill="green" stroke="black" stroke-width="0.5" />
<polygon points="355,485.333 335,519.974 375,519.974" transform="rotate(0 7 7)" fill="green" stroke="black" stroke-width="0.5" />
<polygon points="355,554.615 335,519.974 375,519.974" transform="rotate(0 7 7)" fill="green" stroke="black" stroke-width="0.5" />
<polygon points="395,485.333 375,519.974 415,519.974" transform="rotate(0 7 7)" fill="green" stroke="black" stroke-width="0.5" />
<polygon points="395,554.615 375,519.974 415,519.974" transform="rotate(0 7 7)" fill="green" stroke="black" stroke-width="0.5" />
<polygon points="435,485.333 415,519.974 455,519.974" transform="rotate(0 7 7)" fill="green" stroke="black" stroke-width="0.5" />
<polygon points="435,554.615 415,519.974 455,519.974" transform="rotate(0 7 7)" fill="green" stroke="black" stroke-width="0.5" />
<polygon points="475,485.333 455,519.974 495,519.974" transform="rotate(0 7 7)" fill="green" stroke="black" stroke-width="0.5" />
<polygon points="475,554.615 455,519.974 495,519.974" transform="rotate(0 7 7)" fill="green" stroke="black" stroke-width="0.5" />
<polygon points="515,485.333 495,519.974 535,519.974" transform="rotate(0 7 7)" fill="green" stroke="black" stroke-width="0.5" />
<polygon points="515,554.615 495,519.974 535,519.974" transform="rotate(0 7 7)" fill="green" stroke="black" stroke-width="0.5" />
<polygon points="555,485.333 535,519.974 575,519.974" transform="rotate(0 7 7)" fill="green" stroke="black" stroke-width="0.5" />
<polygon points="555,554.615 535,519.974 575,519.974" transform="rotate(0 7 7)" fill="green" stroke="black" stroke-width="0.5" />
<polygon points="595,485.333 575,519.974 615,519.974" transform="rotate(0 7 7)" fill="green" stroke="black" stroke-width="0.5" />
<polygon points="595,554.615 575,519.974 615,519.974" transform="rotate(0 7 7)" fill="green" stroke="black" stroke-width="0.5" />
<polygon points="55,519.974 35,554.615 75,554.615" transform="rotate(0 7 7)" fill="green" stroke="black" stroke-width="0.5" />
<polygon points="95,519.974 75,554.615 115,554.615" transform="rotate(0 7 7)" fill="green" stroke="black" stroke-width="0.5" />
<polygon points="135,519.974 115,554.615 155,554.615" transform="rotate(0 7 7)" fill="green" stroke="black" stroke-width="0.5" />
<polygon points="175,519.974 155,554.615 195,554.615" transform="rotate(0 7 7)" fill="green" stroke="black" stroke-width="0.5" />
<polygon points="215,519.974 195,554.615 235,554.615" transform="rotate(0 7 7)" fill="green" stroke="black" stroke-width="0.5" />
<polygon points="255,519.974 235,554.615 275,554.615" transform="rotate(0 7 7)" fill="green" stroke="black" stroke-width="0.5" />
<polygon points="295,519.974 275,554.615 315,554.615" transform="rotate(0 7 7)" fill="green" stroke="black" stroke-width="0.5" />
<polygon points="335,519.974 315,554.615 355,554.615" transform="rotate(0 7 7)" fill="green" stroke="black" stroke-width="0.5" />
<polygon points="375,519.974 355,554.615 395,554.615" transform="rotate(0 7 7)" fill="green" stroke="black" stroke-width="0.5" />
<polygon points="415,519.974 395,554.615 435,554.615" transform="rotate(0 7 7)" fill="green" stroke="black" stroke-width="0.5" />
<polygon points="455,519.974 435,554.615 475,554.615" transform="rotate(0 7 7)" fill="green" stroke="black" stroke-width="0.5" />
<polygon points="495,519.974 475,554.615 515,554.615" transform="rotate(0 7 7)" fill="green" stroke="black" stroke-width="0.5" />
<polygon points="535,519.974 515,554.615 555,554.615" transform="rotate(0 7 7)" fill="green" stroke="black" stroke-width="0.5" />
<polygon points="575,519.974 555,554.615 595,554.615" transform="rotate(0 7 7)" fill="green" stroke="black" stroke-width="0.5" />
<polygon points="615,519.974 595,554.615 635,554.615" transform="rotate(0 7 7)" fill="green" stroke="black" stroke-width="0.5" />
</svg>
