<svg version="1.1" baseProfile="full" xmlns="http://www.w3.org/2000/svg">
<circle cx="528" cy="528" r="500" transform="rotate(0 28 28)" fill="pink" stroke="black" stroke-width="0.5" />
<circle cx="528" cy="78" r="50" transform="rotate(0 528 528)" fill="green" stroke="black" stroke-width="0.5" />
<circle cx="528" cy="78" r="50" transform="rotate(12.8571 528 528)" fill="green" stroke="black" stroke-width="0.5" />
<circle cx="528" cy="78" r="50" transform="rotate(25.7143 528 528)" fill="green" stroke="black" stroke-width="0.5" />
<circle cx="528" cy="78" r="50" transform="rotate(38.5714 528 528)" fill="green" stroke="black" stroke-width="0.5" />
<circle cx="528" cy="78" r="50" transform="rotate(51.4286 528 528)" fill="green" stroke="black" stroke-width="0.5" />
<circle cx="528" cy="78" r="50" transform="rotate(64.2857 528 528)" fill="green" stroke="black" stroke-width="0.5" />
<circle cx="528" cy="78" r="50" transform="rotate(77.1429 528 528)" fill="green" stroke="black" stroke-width="0.5" />
<circle cx="528" cy="78" r="50" transform="rotate(90 528 528)" fill="green" stroke="black" stroke-width="0.5" />
<circle cx="528" cy="78" r="50" transform="rotate(102.857 528 528)" fill="green" stroke="black" stroke-width="0.5" />
<circle cx="528" cy="78" r="50" transform="rotate(115.714 528 528)" fill="green" stroke="black" stroke-width="0.5" />
<circle cx="528" cy="78" r="50" transform="rotate(128.571 528 528)" fill="green" stroke="black" stroke-width="0.5" />
<circle cx="528" cy="78" r="50" transform="rotate(141.429 528 528)" fill="green" stroke="black" stroke-width="0.5" />
<circle cx="528" cy="78" r="50" transform="rotate(154.286 528 528)" fill="green" stroke="black" stroke-width="0.5" />
<circle cx="528" cy="78" r="50" transform="rotate(167.143 528 528)" fill="green" stroke="black" stroke-width="0.5" />
<circle cx="528" cy="78" r="50" transform="rotate(180 528 528)" fill="green" stroke="black" stroke-width="0.5" />
<circle cx="528" cy="78" r="50" transform="rotate(192.857 528 528)" fill="green" stroke="black" stroke-width="0.5" />
<circle cx="528" cy="78" r="50" transform="rotate(205.714 528 528)" fill="green" stroke="black" stroke-width="0.5" />
<circle cx="528" cy="78" r="50" transform="rotate(218.571 528 528)" fill="green" stroke="black" stroke-width="0.5" />
<circle cx="528" cy="78" r="50" transform="rotate(231.429 528 528)" fill="green" stroke="black" stroke-width="0.5" />
<circle cx="528" cy="78" r="50" transform="rotate(244.286 528 528)" fill="green" stroke="black" stroke-width="0.5" />
<circle cx="528" cy="78" r="50" transform="rotate(257.143 528 528)" fill="green" stroke="black" stroke-width="0.5" />
<circle cx="528" cy="78" r="50" transform="rotate(270 528 528)" fill="green" stroke="black" stroke-width="0.5" />
<circle cx="528" cy="78" r="50" transform="rotate(282.857 528 528)" fill="green" stroke="black" stroke-width="0.5" />
<circle cx="528" cy="78" r="50" transform="rotate(295.714 528 528)" fill="green" stroke="black" stroke-width="0.5" />
<circle cx="528" cy="78" r="50" transform="rotate(308.571 528 528)" fill="green" stroke="black" stroke-width="0.5" />
<circle cx="528" cy="78" r="50" transform="rotate(321.429 528 528)" fill="green" stroke="black" stroke-width="0.5" />
<circle cx="528" cy="78" r="50" transform="rotate(334.286 528 528)" fill="green" stroke="black" stroke-width="0.5" />
<circle cx="528" cy="78" r="50" transform="rotate(347.143 528 528)" fill="green" stroke="black" stroke-width="0.5" />
<circle cx="528" cy="178" r="50" transform="rotate(0 528 528)" fill="green" stroke="black" stroke-width="0.5" />
<circle cx="528" cy="178" r="50" transform="rotate(17.1429 528 528)" fill="green" stroke="black" stroke-width="0.5" />
<circle cx="528" cy="178" r="50" transform="rotate(34.2857 528 528)" fill="green" stroke="black" stroke-width="0.5" />
<circle cx="528" cy="178" r="50" transform="rotate(51.4286 528 528)" fill="green" stroke="black" stroke-width="0.5" />
<circle cx="528" cy="178" r="50" transform="rotate(68.5714 528 528)" fill="green" stroke="black" stroke-width="0.5" />
<circle cx="528" cy="178" r="50" transform="rotate(85.7143 528 528)" fill="green" stroke="black" stroke-width="0.5" />
<circle cx="528" cy="178" r="50" transform="rotate(102.857 528 528)" fill="green" stroke="black" stroke-width="0.5" />
<circle cx="528" cy="178" r="50" transform="rotate(120 528 528)" fill="green" stroke="black" stroke-width="0.5" />
<circle cx="528" cy="178" r="50" transform="rotate(137.143 528 528)" fill="green" stroke="black" stroke-width="0.5" />
<circle cx="528" cy="178" r="50" transform="rotate(154.286 528 528)" fill="green" stroke="black" stroke-width="0.5" />
<circle cx="528" cy="178" r="50" transform="rotate(171.429 528 528)" fill="green" stroke="black" stroke-width="0.5" />
<circle cx="528" cy="178" r="50" transform="rotate(188.571 528 528)" fill="green" stroke="black" stroke-width="0.5" />
<circle cx="528" cy="178" r="50" transform="rotate(205.714 528 528)" fill="green" stroke="black" stroke-width="0.5" />
<circle cx="528" cy="178" r="50" transform="rotate(222.857 528 528)" fill="green" stroke="black" stroke-width="0.5" />
<circle cx="528" cy="178" r="50" transform="rotate(240 528 528)" fill="green" stroke="black" stroke-width="0.5" />
<circle cx="528" cy="178" r="50" transform="rotate(257.143 528 528)" fill="green" stroke="black" stroke-width="0.5" />
<circle cx="528" cy="178" r="50" transform="rotate(274.286 528 528)" fill="green" stroke="black" stroke-width="0.5" />
<circle cx="528" cy="178" r="50" transform="rotate(291.429 528 528)" fill="green" stroke="black" stroke-width="0.5" />
<circle cx="528" cy="178" r="50" transform="rotate(308.571 528 528)" fill="green" stroke="black" stroke-width="0.5" />
<circle cx="528" cy="178" r="50" transform="rotate(325.714 528 528)" fill="green" stroke="black" stroke-width="0.5" />
<circle cx="528" cy="178" r="50" transform="rotate(342.857 528 528)" fill="green" stroke="black" stroke-width="0.5" />
<circle cx="528" cy="278" r="50" transform="rotate(0 528 528)" fill="green" stroke="black" stroke-width="0.5" />
<circle cx="528" cy="278" r="50" transform="rotate(24 528 528)" fill="green" stroke="black" stroke-width="0.5" />
<circle cx="528" cy="278" r="50" transform="rotate(48 528 528)" fill="green" stroke="black" stroke-width="0.5" />
<circle cx="528" cy="278" r="50" transform="rotate(72 528 528)" fill="green" stroke="black" stroke-width="0.5" />
<circle cx="528" cy="278" r="50" transform="rotate(96 528 528)" fill="green" stroke="black" stroke-width="0.5" />
<circle cx="528" cy="278" r="50" transform="rotate(120 528 528)" fill="green" stroke="black" stroke-width="0.5" />
<circle cx="528" cy="278" r="50" transform="rotate(144 528 528)" fill="green" stroke="black" stroke-width="0.5" />
<circle cx="528" cy="278" r="50" transform="rotate(168 528 528)" fill="green" stroke="black" stroke-width="0.5" />
<circle cx="528" cy="278" r="50" transform="rotate(192 528 528)" fill="green" stroke="black" stroke-width="0.5" />
<circle cx="528" cy="278" r="50" transform="rotate(216 528 528)" fill="green" stroke="black" stroke-width="0.5" />
<circle cx="528" cy="278" r="50" transform="rotate(240 528 528)" fill="green" stroke="black" stroke-width="0.5" />
<circle cx="528" cy="278" r="50" transform="rotate(264 528 528)" fill="green" stroke="black" stroke-width="0.5" />
<circle cx="528" cy="278" r="50" transform="rotate(288 528 528)" fill="green" stroke="black" stroke-width="0.5" />
<circle cx="528" cy="278" r="50" transform="rotate(312 528 528)" fill="green" stroke="black" stroke-width="0.5" />
<circle cx="528" cy="278" r="50" transform="rotate(336 528 528)" fill="green" stroke="black" stroke-width="0.5" />
<circle cx="528" cy="378" r="50" transform="rotate(0 528 528)" fill="green" stroke="black" stroke-width="0.5" />
<circle cx="528" cy="378" r="50" transform="rotate(40 528 528)" fill="green" stroke="black" stroke-width="0.5" />
<circle cx="528" cy="378" r="50" transform="rotate(80 528 528)" fill="green" stroke="black" stroke-width="0.5" />
<circle cx="528" cy="378" r="50" transform="rotate(120 528 528)" fill="green" stroke="black" stroke-width="0.5" />
<circle cx="528" cy="378" r="50" transform="rotate(160 528 528)" fill="green" stroke="black" stroke-width="0.5" />
<circle cx="528" cy="378" r="50" transform="rotate(200 528 528)" fill="green" stroke="black" stroke-width="0.5" />
<circle cx="528" cy="378" r="50" transform="rotate(240 528 528)" fill="green" stroke="black" stroke-width="0.5" />
<circle cx="528" cy="378" r="50" transform="rotate(280 528 528)" fill="green" stroke="black" stroke-width="0.5" />
<circle cx="528" cy="378" r="50" transform="rotate(320 528 528)" fill="green" stroke="black" stroke-width="0.5" />
<circle cx="528" cy="478" r="50" transform="rotate(0 528 528)" fill="green" stroke="black" stroke-width="0.5" />
<circle cx="528" cy="478" r="50" transform="rotate(180 528 528)" fill="green" stroke="black" stroke-width="0.5" />
</svg>
