<svg version="1.1" baseProfile="full" xmlns="http://www.w3.org/2000/svg">
<polygon points="264,14 14,447.013 514,447.013" transform="rotate(0 14 14)" fill="pink" stroke="black" stroke-width="0.5" />
<rect x="54"  y="427.013" width="60" height="20" transform="rotate(0 7 7)" fill="yellow" stroke="black" stroke-width="0.5" />
<rect x="114"  y="427.013" width="60" height="20" transform="rotate(0 7 7)" fill="yellow" stroke="black" stroke-width="0.5" />
<rect x="174"  y="427.013" width="60" height="20" transform="rotate(0 7 7)" fill="yellow" stroke="black" stroke-width="0.5" />
<rect x="234"  y="427.013" width="60" height="20" transform="rotate(0 7 7)" fill="yellow" stroke="black" stroke-width="0.5" />
<rect x="294"  y="427.013" width="60" height="20" transform="rotate(0 7 7)" fill="yellow" stroke="black" stroke-width="0.5" />
<rect x="354"  y="427.013" width="60" height="20" transform="rotate(0 7 7)" fill="yellow" stroke="black" stroke-width="0.5" />
<rect x="414"  y="427.013" width="60" height="20" transform="rotate(0 7 7)" fill="yellow" stroke="black" stroke-width="0.5" />
<rect x="54"  y="407.013" width="60" height="20" transform="rotate(0 7 7)" fill="yellow" stroke="black" stroke-width="0.5" />
<rect x="114"  y="407.013" width="60" height="20" transform="rotate(0 7 7)" fill="yellow" stroke="black" stroke-width="0.5" />
<rect x="174"  y="407.013" width="60" height="20" transform="rotate(0 7 7)" fill="yellow" stroke="black" stroke-width="0.5" />
<rect x="234"  y="407.013" width="60" height="20" transform="rotate(0 7 7)" fill="yellow" stroke="black" stroke-width="0.5" />
<rect x="294"  y="407.013" width="60" height="20" transform="rotate(0 7 7)" fill="yellow" stroke="black" stroke-width="0.5" />
<rect x="354"  y="407.013" width="60" height="20" transform="rotate(0 7 7)" fill="yellow" stroke="black" stroke-width="0.5" />
<rect x="414"  y="407.013" width="60" height="20" transform="rotate(0 7 7)" fill="yellow" stroke="black" stroke-width="0.5" />
<rect x="54"  y="387.013" width="60" height="20" transform="rotate(0 7 7)" fill="yellow" stroke="black" stroke-width="0.5" />
<rect x="114"  y="387.013" width="60" height="20" transform="rotate(0 7 7)" fill="yellow" stroke="black" stroke-width="0.5" />
<rect x="174"  y="387.013" width="60" height="20" transform="rotate(0 7 7)" fill="yellow" stroke="black" stroke-width="0.5" />
<rect x="234"  y="387.013" width="60" height="20" transform="rotate(0 7 7)" fill="yellow" stroke="black" stroke-width="0.5" />
<rect x="294"  y="387.013" width="60" height="20" transform="rotate(0 7 7)" fill="yellow" stroke="black" stroke-width="0.5" />
<rect x="354"  y="387.013" width="60" height="20" transform="rotate(0 7 7)" fill="yellow" stroke="black" stroke-width="0.5" />
<rect x="414"  y="387.013" width="60" height="20" transform="rotate(0 7 7)" fill="yellow" stroke="black" stroke-width="0.5" />
<rect x="84"  y="367.013" width="60" height="20" transform="rotate(0 7 7)" fill="yellow" stroke="black" stroke-width="0.5" />
<rect x="144"  y="367.013" width="60" height="20" transform="rotate(0 7 7)" fill="yellow" stroke="black" stroke-width="0.5" />
<rect x="204"  y="367.013" width="60" height="20" transform="rotate(0 7 7)" fill="yellow" stroke="black" stroke-width="0.5" />
<rect x="264"  y="367.013" width="60" height="20" transform="rotate(0 7 7)" fill="yellow" stroke="black" stroke-width="0.5" />
<rect x="324"  y="367.013" width="60" height="20" transform="rotate(0 7 7)" fill="yellow" stroke="black" stroke-width="0.5" />
<rect x="384"  y="367.013" width="60" height="20" transform="rotate(0 7 7)" fill="yellow" stroke="black" stroke-width="0.5" />
<rect x="84"  y="347.013" width="60" height="20" transform="rotate(0 7 7)" fill="yellow" stroke="black" stroke-width="0.5" />
<rect x="144"  y="347.013" width="60" height="20" transform="rotate(0 7 7)" fill="yellow" stroke="black" stroke-width="0.5" />
<rect x="204"  y="347.013" width="60" height="20" transform="rotate(0 7 7)" fill="yellow" stroke="black" stroke-width="0.5" />
<rect x="264"  y="347.013" width="60" height="20" transform="rotate(0 7 7)" fill="yellow" stroke="black" stroke-width="0.5" />
<rect x="324"  y="347.013" width="60" height="20" transform="rotate(0 7 7)" fill="yellow" stroke="black" stroke-width="0.5" />
<rect x="384"  y="347.013" width="60" height="20" transform="rotate(0 7 7)" fill="yellow" stroke="black" stroke-width="0.5" />
<rect x="84"  y="327.013" width="60" height="20" transform="rotate(0 7 7)" fill="yellow" stroke="black" stroke-width="0.5" />
<rect x="144"  y="327.013" width="60" height="20" transform="rotate(0 7 7)" fill="yellow" stroke="black" stroke-width="0.5" />
<rect x="204"  y="327.013" width="60" height="20" transform="rotate(0 7 7)" fill="yellow" stroke="black" stroke-width="0.5" />
<rect x="264"  y="327.013" width="60" height="20" transform="rotate(0 7 7)" fill="yellow" stroke="black" stroke-width="0.5" />
<rect x="324"  y="327.013" width="60" height="20" transform="rotate(0 7 7)" fill="yellow" stroke="black" stroke-width="0.5" />
<rect x="384"  y="327.013" width="60" height="20" transform="rotate(0 7 7)" fill="yellow" stroke="black" stroke-width="0.5" />
<rect x="114"  y="307.013" width="60" height="20" transform="rotate(0 7 7)" fill="yellow" stroke="black" stroke-width="0.5" />
<rect x="174"  y="307.013" width="60" height="20" transform="rotate(0 7 7)" fill="yellow" stroke="black" stroke-width="0.5" />
<rect x="234"  y="307.013" width="60" height="20" transform="rotate(0 7 7)" fill="yellow" stroke="black" stroke-width="0.5" />
<rect x="294"  y="307.013" width="60" height="20" transform="rotate(0 7 7)" fill="yellow" stroke="black" stroke-width="0.5" />
<rect x="354"  y="307.013" width="60" height="20" transform="rotate(0 7 7)" fill="yellow" stroke="black" stroke-width="0.5" />
<rect x="114"  y="287.013" width="60" height="20" transform="rotate(0 7 7)" fill="yellow" stroke="black" stroke-width="0.5" />
<rect x="174"  y="287.013" width="60" height="20" transform="rotate(0 7 7)" fill="yellow" stroke="black" stroke-width="0.5" />
<rect x="234"  y="287.013" width="60" height="20" transform="rotate(0 7 7)" fill="yellow" stroke="black" stroke-width="0.5" />
<rect x="294"  y="287.013" width="60" height="20" transform="rotate(0 7 7)" fill="yellow" stroke="black" stroke-width="0.5" />
<rect x="354"  y="287.013" width="60" height="20" transform="rotate(0 7 7)" fill="yellow" stroke="black" stroke-width="0.5" />
<rect x="144"  y="267.013" width="60" height="20" transform="rotate(0 7 7)" fill="yellow" stroke="black" stroke-width="0.5" />
<rect x="204"  y="267.013" width="60" height="20" transform="rotate(0 7 7)" fill="yellow" stroke="black" stroke-width="0.5" />
<rect x="264"  y="267.013" width="60" height="20" transform="rotate(0 7 7)" fill="yellow" stroke="black" stroke-width="0.5" />
<rect x="324"  y="267.013" width="60" height="20" transform="rotate(0 7 7)" fill="yellow" stroke="black" stroke-width="0.5" />
<rect x="144"  y="247.013" width="60" height="20" transform="rotate(0 7 7)" fill="yellow" stroke="black" stroke-width="0.5" />
<rect x="204"  y="247.013" width="60" height="20" transform="rotate(0 7 7)" fill="yellow" stroke="black" stroke-width="0.5" />
<rect x="264"  y="247.013" width="60" height="20" transform="rotate(0 7 7)" fill="yellow" stroke="black" stroke-width="0.5" />
<rect x="324"  y="247.013" width="60" height="20" transform="rotate(0 7 7)" fill="yellow" stroke="black" stroke-width="0.5" />
<rect x="144"  y="227.013" width="60" height="20" transform="rotate(0 7 7)" fill="yellow" stroke="black" stroke-width="0.5" />
<rect x="204"  y="227.013" width="60" height="20" transform="rotate(0 7 7)" fill="yellow" stroke="black" stroke-width="0.5" />
<rect x="264"  y="227.013" width="60" height="20" transform="rotate(0 7 7)" fill="yellow" stroke="black" stroke-width="0.5" />
<rect x="324"  y="227.013" width="60" height="20" transform="rotate(0 7 7)" fill="yellow" stroke="black" stroke-width="0.5" />
<rect x="174"  y="207.013" width="60" height="20" transform="rotate(0 7 7)" fill="yellow" stroke="black" stroke-width="0.5" />
<rect x="234"  y="207.013" width="60" height="20" transform="rotate(0 7 7)" fill="yellow" stroke="black" stroke-width="0.5" />
<rect x="294"  y="207.013" width="60" height="20" transform="rotate(0 7 7)" fill="yellow" stroke="black" stroke-width="0.5" />
<rect x="174"  y="187.013" width="60" height="20" transform="rotate(0 7 7)" fill="yellow" stroke="black" stroke-width="0.5" />
<rect x="234"  y="187.013" width="60" height="20" transform="rotate(0 7 7)" fill="yellow" stroke="black" stroke-width="0.5" />
<rect x="294"  y="187.013" width="60" height="20" transform="rotate(0 7 7)" fill="yellow" stroke="black" stroke-width="0.5" />
<rect x="204"  y="167.013" width="60" height="20" transform="rotate(0 7 7)" fill="yellow" stroke="black" stroke-width="0.5" />
<rect x="264"  y="167.013" width="60" height="20" transform="rotate(0 7 7)" fill="yellow" stroke="black" stroke-width="0.5" />
<rect x="204"  y="147.013" width="60" height="20" transform="rotate(0 7 7)" fill="yellow" stroke="black" stroke-width="0.5" />
<rect x="264"  y="147.013" width="60" height="20" transform="rotate(0 7 7)" fill="yellow" stroke="black" stroke-width="0.5" />
<rect x="204"  y="127.013" width="60" height="20" transform="rotate(0 7 7)" fill="yellow" stroke="black" stroke-width="0.5" />
<rect x="264"  y="127.013" width="60" height="20" transform="rotate(0 7 7)" fill="yellow" stroke="black" stroke-width="0.5" />
<rect x="234"  y="107.013" width="60" height="20" transform="rotate(0 7 7)" fill="yellow" stroke="black" stroke-width="0.5" />
<rect x="234"  y="87.0127" width="60" height="20" transform="rotate(0 7 7)" fill="yellow" stroke="black" stroke-width="0.5" />
<rect x="234"  y="67.0127" width="60" height="20" transform="rotate(0 7 7)" fill="yellow" stroke="black" stroke-width="0.5" />
</svg>
