<svg version="1.1" baseProfile="full" xmlns="http://www.w3.org/2000/svg">
<circle cx="321" cy="321" r="300" transform="rotate(0 21 21)" fill="brown" stroke="black" stroke-width="0.5" />
<circle cx="321" cy="51" r="30" transform="rotate(0 321 321)" fill="cyan" stroke="black" stroke-width="0.5" />
<circle cx="321" cy="51" r="30" transform="rotate(12.8571 321 321)" fill="cyan" stroke="black" stroke-width="0.5" />
<circle cx="321" cy="51" r="30" transform="rotate(25.7143 321 321)" fill="cyan" stroke="black" stroke-width="0.5" />
<circle cx="321" cy="51" r="30" transform="rotate(38.5714 321 321)" fill="cyan" stroke="black" stroke-width="0.5" />
<circle cx="321" cy="51" r="30" transform="rotate(51.4286 321 321)" fill="cyan" stroke="black" stroke-width="0.5" />
<circle cx="321" cy="51" r="30" transform="rotate(64.2857 321 321)" fill="cyan" stroke="black" stroke-width="0.5" />
<circle cx="321" cy="51" r="30" transform="rotate(77.1429 321 321)" fill="cyan" stroke="black" stroke-width="0.5" />
<circle cx="321" cy="51" r="30" transform="rotate(90 321 321)" fill="cyan" stroke="black" stroke-width="0.5" />
<circle cx="321" cy="51" r="30" transform="rotate(102.857 321 321)" fill="cyan" stroke="black" stroke-width="0.5" />
<circle cx="321" cy="51" r="30" transform="rotate(115.714 321 321)" fill="cyan" stroke="black" stroke-width="0.5" />
<circle cx="321" cy="51" r="30" transform="rotate(128.571 321 321)" fill="cyan" stroke="black" stroke-width="0.5" />
<circle cx="321" cy="51" r="30" transform="rotate(141.429 321 321)" fill="cyan" stroke="black" stroke-width="0.5" />
<circle cx="321" cy="51" r="30" transform="rotate(154.286 321 321)" fill="cyan" stroke="black" stroke-width="0.5" />
<circle cx="321" cy="51" r="30" transform="rotate(167.143 321 321)" fill="cyan" stroke="black" stroke-width="0.5" />
<circle cx="321" cy="51" r="30" transform="rotate(180 321 321)" fill="cyan" stroke="black" stroke-width="0.5" />
<circle cx="321" cy="51" r="30" transform="rotate(192.857 321 321)" fill="cyan" stroke="black" stroke-width="0.5" />
<circle cx="321" cy="51" r="30" transform="rotate(205.714 321 321)" fill="cyan" stroke="black" stroke-width="0.5" />
<circle cx="321" cy="51" r="30" transform="rotate(218.571 321 321)" fill="cyan" stroke="black" stroke-width="0.5" />
<circle cx="321" cy="51" r="30" transform="rotate(231.429 321 321)" fill="cyan" stroke="black" stroke-width="0.5" />
<circle cx="321" cy="51" r="30" transform="rotate(244.286 321 321)" fill="cyan" stroke="black" stroke-width="0.5" />
<circle cx="321" cy="51" r="30" transform="rotate(257.143 321 321)" fill="cyan" stroke="black" stroke-width="0.5" />
<circle cx="321" cy="51" r="30" transform="rotate(270 321 321)" fill="cyan" stroke="black" stroke-width="0.5" />
<circle cx="321" cy="51" r="30" transform="rotate(282.857 321 321)" fill="cyan" stroke="black" stroke-width="0.5" />
<circle cx="321" cy="51" r="30" transform="rotate(295.714 321 321)" fill="cyan" stroke="black" stroke-width="0.5" />
<circle cx="321" cy="51" r="30" transform="rotate(308.571 321 321)" fill="cyan" stroke="black" stroke-width="0.5" />
<circle cx="321" cy="51" r="30" transform="rotate(321.429 321 321)" fill="cyan" stroke="black" stroke-width="0.5" />
<circle cx="321" cy="51" r="30" transform="rotate(334.286 321 321)" fill="cyan" stroke="black" stroke-width="0.5" />
<circle cx="321" cy="51" r="30" transform="rotate(347.143 321 321)" fill="cyan" stroke="black" stroke-width="0.5" />
<circle cx="321" cy="111" r="30" transform="rotate(0 321 321)" fill="cyan" stroke="black" stroke-width="0.5" />
<circle cx="321" cy="111" r="30" transform="rotate(17.1429 321 321)" fill="cyan" stroke="black" stroke-width="0.5" />
<circle cx="321" cy="111" r="30" transform="rotate(34.2857 321 321)" fill="cyan" stroke="black" stroke-width="0.5" />
<circle cx="321" cy="111" r="30" transform="rotate(51.4286 321 321)" fill="cyan" stroke="black" stroke-width="0.5" />
<circle cx="321" cy="111" r="30" transform="rotate(68.5714 321 321)" fill="cyan" stroke="black" stroke-width="0.5" />
<circle cx="321" cy="111" r="30" transform="rotate(85.7143 321 321)" fill="cyan" stroke="black" stroke-width="0.5" />
<circle cx="321" cy="111" r="30" transform="rotate(102.857 321 321)" fill="cyan" stroke="black" stroke-width="0.5" />
<circle cx="321" cy="111" r="30" transform="rotate(120 321 321)" fill="cyan" stroke="black" stroke-width="0.5" />
<circle cx="321" cy="111" r="30" transform="rotate(137.143 321 321)" fill="cyan" stroke="black" stroke-width="0.5" />
<circle cx="321" cy="111" r="30" transform="rotate(154.286 321 321)" fill="cyan" stroke="black" stroke-width="0.5" />
<circle cx="321" cy="111" r="30" transform="rotate(171.429 321 321)" fill="cyan" stroke="black" stroke-width="0.5" />
<circle cx="321" cy="111" r="30" transform="rotate(188.571 321 321)" fill="cyan" stroke="black" stroke-width="0.5" />
<circle cx="321" cy="111" r="30" transform="rotate(205.714 321 321)" fill="cyan" stroke="black" stroke-width="0.5" />
<circle cx="321" cy="111" r="30" transform="rotate(222.857 321 321)" fill="cyan" stroke="black" stroke-width="0.5" />
<circle cx="321" cy="111" r="30" transform="rotate(240 321 321)" fill="cyan" stroke="black" stroke-width="0.5" />
<circle cx="321" cy="111" r="30" transform="rotate(257.143 321 321)" fill="cyan" stroke="black" stroke-width="0.5" />
<circle cx="321" cy="111" r="30" transform="rotate(274.286 321 321)" fill="cyan" stroke="black" stroke-width="0.5" />
<circle cx="321" cy="111" r="30" transform="rotate(291.429 321 321)" fill="cyan" stroke="black" stroke-width="0.5" />
<circle cx="321" cy="111" r="30" transform="rotate(308.571 321 321)" fill="cyan" stroke="black" stroke-width="0.5" />
<circle cx="321" cy="111" r="30" transform="rotate(325.714 321 321)" fill="cyan" stroke="black" stroke-width="0.5" />
<circle cx="321" cy="111" r="30" transform="rotate(342.857 321 321)" fill="cyan" stroke="black" stroke-width="0.5" />
<circle cx="321" cy="171" r="30" transform="rotate(0 321 321)" fill="cyan" stroke="black" stroke-width="0.5" />
<circle cx="321" cy="171" r="30" transform="rotate(24 321 321)" fill="cyan" stroke="black" stroke-width="0.5" />
<circle cx="321" cy="171" r="30" transform="rotate(48 321 321)" fill="cyan" stroke="black" stroke-width="0.5" />
<circle cx="321" cy="171" r="30" transform="rotate(72 321 321)" fill="cyan" stroke="black" stroke-width="0.5" />
<circle cx="321" cy="171" r="30" transform="rotate(96 321 321)" fill="cyan" stroke="black" stroke-width="0.5" />
<circle cx="321" cy="171" r="30" transform="rotate(120 321 321)" fill="cyan" stroke="black" stroke-width="0.5" />
<circle cx="321" cy="171" r="30" transform="rotate(144 321 321)" fill="cyan" stroke="black" stroke-width="0.5" />
<circle cx="321" cy="171" r="30" transform="rotate(168 321 321)" fill="cyan" stroke="black" stroke-width="0.5" />
<circle cx="321" cy="171" r="30" transform="rotate(192 321 321)" fill="cyan" stroke="black" stroke-width="0.5" />
<circle cx="321" cy="171" r="30" transform="rotate(216 321 321)" fill="cyan" stroke="black" stroke-width="0.5" />
<circle cx="321" cy="171" r="30" transform="rotate(240 321 321)" fill="cyan" stroke="black" stroke-width="0.5" />
<circle cx="321" cy="171" r="30" transform="rotate(264 321 321)" fill="cyan" stroke="black" stroke-width="0.5" />
<circle cx="321" cy="171" r="30" transform="rotate(288 321 321)" fill="cyan" stroke="black" stroke-width="0.5" />
<circle cx="321" cy="171" r="30" transform="rotate(312 321 321)" fill="cyan" stroke="black" stroke-width="0.5" />
<circle cx="321" cy="171" r="30" transform="rotate(336 321 321)" fill="cyan" stroke="black" stroke-width="0.5" />
<circle cx="321" cy="231" r="30" transform="rotate(0 321 321)" fill="cyan" stroke="black" stroke-width="0.5" />
<circle cx="321" cy="231" r="30" transform="rotate(40 321 321)" fill="cyan" stroke="black" stroke-width="0.5" />
<circle cx="321" cy="231" r="30" transform="rotate(80 321 321)" fill="cyan" stroke="black" stroke-width="0.5" />
<circle cx="321" cy="231" r="30" transform="rotate(120 321 321)" fill="cyan" stroke="black" stroke-width="0.5" />
<circle cx="321" cy="231" r="30" transform="rotate(160 321 321)" fill="cyan" stroke="black" stroke-width="0.5" />
<circle cx="321" cy="231" r="30" transform="rotate(200 321 321)" fill="cyan" stroke="black" stroke-width="0.5" />
<circle cx="321" cy="231" r="30" transform="rotate(240 321 321)" fill="cyan" stroke="black" stroke-width="0.5" />
<circle cx="321" cy="231" r="30" transform="rotate(280 321 321)" fill="cyan" stroke="black" stroke-width="0.5" />
<circle cx="321" cy="231" r="30" transform="rotate(320 321 321)" fill="cyan" stroke="black" stroke-width="0.5" />
<circle cx="321" cy="291" r="30" transform="rotate(0 321 321)" fill="cyan" stroke="black" stroke-width="0.5" />
<circle cx="321" cy="291" r="30" transform="rotate(180 321 321)" fill="cyan" stroke="black" stroke-width="0.5" />
</svg>
