<svg version="1.1" baseProfile="full" xmlns="http://www.w3.org/2000/svg">
<polygon points="262,12 12,445.013 512,445.013" transform="rotate(0 12 12)" fill="purple" stroke="black" stroke-width="0.5" />
<rect x="42"  y="430.013" width="110" height="15" transform="rotate(0 7 7)" fill="green" stroke="black" stroke-width="0.5" />
<rect x="152"  y="430.013" width="110" height="15" transform="rotate(0 7 7)" fill="green" stroke="black" stroke-width="0.5" />
<rect x="262"  y="430.013" width="110" height="15" transform="rotate(0 7 7)" fill="green" stroke="black" stroke-width="0.5" />
<rect x="372"  y="430.013" width="110" height="15" transform="rotate(0 7 7)" fill="green" stroke="black" stroke-width="0.5" />
<rect x="42"  y="415.013" width="110" height="15" transform="rotate(0 7 7)" fill="green" stroke="black" stroke-width="0.5" />
<rect x="152"  y="415.013" width="110" height="15" transform="rotate(0 7 7)" fill="green" stroke="black" stroke-width="0.5" />
<rect x="262"  y="415.013" width="110" height="15" transform="rotate(0 7 7)" fill="green" stroke="black" stroke-width="0.5" />
<rect x="372"  y="415.013" width="110" height="15" transform="rotate(0 7 7)" fill="green" stroke="black" stroke-width="0.5" />
<rect x="42"  y="400.013" width="110" height="15" transform="rotate(0 7 7)" fill="green" stroke="black" stroke-width="0.5" />
<rect x="152"  y="400.013" width="110" height="15" transform="rotate(0 7 7)" fill="green" stroke="black" stroke-width="0.5" />
<rect x="262"  y="400.013" width="110" height="15" transform="rotate(0 7 7)" fill="green" stroke="black" stroke-width="0.5" />
<rect x="372"  y="400.013" width="110" height="15" transform="rotate(0 7 7)" fill="green" stroke="black" stroke-width="0.5" />
<rect x="97"  y="385.013" width="110" height="15" transform="rotate(0 7 7)" fill="green" stroke="black" stroke-width="0.5" />
<rect x="207"  y="385.013" width="110" height="15" transform="rotate(0 7 7)" fill="green" stroke="black" stroke-width="0.5" />
<rect x="317"  y="385.013" width="110" height="15" transform="rotate(0 7 7)" fill="green" stroke="black" stroke-width="0.5" />
<rect x="97"  y="370.013" width="110" height="15" transform="rotate(0 7 7)" fill="green" stroke="black" stroke-width="0.5" />
<rect x="207"  y="370.013" width="110" height="15" transform="rotate(0 7 7)" fill="green" stroke="black" stroke-width="0.5" />
<rect x="317"  y="370.013" width="110" height="15" transform="rotate(0 7 7)" fill="green" stroke="black" stroke-width="0.5" />
<rect x="97"  y="355.013" width="110" height="15" transform="rotate(0 7 7)" fill="green" stroke="black" stroke-width="0.5" />
<rect x="207"  y="355.013" width="110" height="15" transform="rotate(0 7 7)" fill="green" stroke="black" stroke-width="0.5" />
<rect x="317"  y="355.013" width="110" height="15" transform="rotate(0 7 7)" fill="green" stroke="black" stroke-width="0.5" />
<rect x="97"  y="340.013" width="110" height="15" transform="rotate(0 7 7)" fill="green" stroke="black" stroke-width="0.5" />
<rect x="207"  y="340.013" width="110" height="15" transform="rotate(0 7 7)" fill="green" stroke="black" stroke-width="0.5" />
<rect x="317"  y="340.013" width="110" height="15" transform="rotate(0 7 7)" fill="green" stroke="black" stroke-width="0.5" />
<rect x="97"  y="325.013" width="110" height="15" transform="rotate(0 7 7)" fill="green" stroke="black" stroke-width="0.5" />
<rect x="207"  y="325.013" width="110" height="15" transform="rotate(0 7 7)" fill="green" stroke="black" stroke-width="0.5" />
<rect x="317"  y="325.013" width="110" height="15" transform="rotate(0 7 7)" fill="green" stroke="black" stroke-width="0.5" />
<rect x="97"  y="310.013" width="110" height="15" transform="rotate(0 7 7)" fill="green" stroke="black" stroke-width="0.5" />
<rect x="207"  y="310.013" width="110" height="15" transform="rotate(0 7 7)" fill="green" stroke="black" stroke-width="0.5" />
<rect x="317"  y="310.013" width="110" height="15" transform="rotate(0 7 7)" fill="green" stroke="black" stroke-width="0.5" />
<rect x="152"  y="295.013" width="110" height="15" transform="rotate(0 7 7)" fill="green" stroke="black" stroke-width="0.5" />
<rect x="262"  y="295.013" width="110" height="15" transform="rotate(0 7 7)" fill="green" stroke="black" stroke-width="0.5" />
<rect x="152"  y="280.013" width="110" height="15" transform="rotate(0 7 7)" fill="green" stroke="black" stroke-width="0.5" />
<rect x="262"  y="280.013" width="110" height="15" transform="rotate(0 7 7)" fill="green" stroke="black" stroke-width="0.5" />
<rect x="152"  y="265.013" width="110" height="15" transform="rotate(0 7 7)" fill="green" stroke="black" stroke-width="0.5" />
<rect x="262"  y="265.013" width="110" height="15" transform="rotate(0 7 7)" fill="green" stroke="black" stroke-width="0.5" />
<rect x="152"  y="250.013" width="110" height="15" transform="rotate(0 7 7)" fill="green" stroke="black" stroke-width="0.5" />
<rect x="262"  y="250.013" width="110" height="15" transform="rotate(0 7 7)" fill="green" stroke="black" stroke-width="0.5" />
<rect x="152"  y="235.013" width="110" height="15" transform="rotate(0 7 7)" fill="green" stroke="black" stroke-width="0.5" />
<rect x="262"  y="235.013" width="110" height="15" transform="rotate(0 7 7)" fill="green" stroke="black" stroke-width="0.5" />
<rect x="152"  y="220.013" width="110" height="15" transform="rotate(0 7 7)" fill="green" stroke="black" stroke-width="0.5" />
<rect x="262"  y="220.013" width="110" height="15" transform="rotate(0 7 7)" fill="green" stroke="black" stroke-width="0.5" />
<rect x="152"  y="205.013" width="110" height="15" transform="rotate(0 7 7)" fill="green" stroke="black" stroke-width="0.5" />
<rect x="262"  y="205.013" width="110" height="15" transform="rotate(0 7 7)" fill="green" stroke="black" stroke-width="0.5" />
<rect x="207"  y="190.013" width="110" height="15" transform="rotate(0 7 7)" fill="green" stroke="black" stroke-width="0.5" />
<rect x="207"  y="175.013" width="110" height="15" transform="rotate(0 7 7)" fill="green" stroke="black" stroke-width="0.5" />
<rect x="207"  y="160.013" width="110" height="15" transform="rotate(0 7 7)" fill="green" stroke="black" stroke-width="0.5" />
<rect x="207"  y="145.013" width="110" height="15" transform="rotate(0 7 7)" fill="green" stroke="black" stroke-width="0.5" />
<rect x="207"  y="130.013" width="110" height="15" transform="rotate(0 7 7)" fill="green" stroke="black" stroke-width="0.5" />
<rect x="207"  y="115.013" width="110" height="15" transform="rotate(0 7 7)" fill="green" stroke="black" stroke-width="0.5" />
</svg>
