<svg version="1.1" baseProfile="full" xmlns="http://www.w3.org/2000/svg">
<rect x="21"  y="21" width="750" height="500" transform="rotate(0 21 21)" fill="red" stroke="black" stroke-width="0.5" />
<circle cx="51" cy="51" r="30" transform="rotate(0 7 7)" fill="cyan" stroke="black" stroke-width="0.5" />
<circle cx="111" cy="51" r="30" transform="rotate(0 7 7)" fill="cyan" stroke="black" stroke-width="0.5" />
<circle cx="171" cy="51" r="30" transform="rotate(0 7 7)" fill="cyan" stroke="black" stroke-width="0.5" />
<circle cx="231" cy="51" r="30" transform="rotate(0 7 7)" fill="cyan" stroke="black" stroke-width="0.5" />
<circle cx="291" cy="51" r="30" transform="rotate(0 7 7)" fill="cyan" stroke="black" stroke-width="0.5" />
<circle cx="351" cy="51" r="30" transform="rotate(0 7 7)" fill="cyan" stroke="black" stroke-width="0.5" />
<circle cx="411" cy="51" r="30" transform="rotate(0 7 7)" fill="cyan" stroke="black" stroke-width="0.5" />
<circle cx="471" cy="51" r="30" transform="rotate(0 7 7)" fill="cyan" stroke="black" stroke-width="0.5" />
<circle cx="531" cy="51" r="30" transform="rotate(0 7 7)" fill="cyan" stroke="black" stroke-width="0.5" />
<circle cx="591" cy="51" r="30" transform="rotate(0 7 7)" fill="cyan" stroke="black" stroke-width="0.5" />
<circle cx="651" cy="51" r="30" transform="rotate(0 7 7)" fill="cyan" stroke="black" stroke-width="0.5" />
<circle cx="711" cy="51" r="30" transform="rotate(0 7 7)" fill="cyan" stroke="black" stroke-width="0.5" />
<circle cx="81" cy="102.962" r="30" transform="rotate(0 7 7)" fill="cyan" stroke="black" stroke-width="0.5" />
<circle cx="141" cy="102.962" r="30" transform="rotate(0 7 7)" fill="cyan" stroke="black" stroke-width="0.5" />
<circle cx="201" cy="102.962" r="30" transform="rotate(0 7 7)" fill="cyan" stroke="black" stroke-width="0.5" />
<circle cx="261" cy="102.962" r="30" transform="rotate(0 7 7)" fill="cyan" stroke="black" stroke-width="0.5" />
<circle cx="321" cy="102.962" r="30" transform="rotate(0 7 7)" fill="cyan" stroke="black" stroke-width="0.5" />
<circle cx="381" cy="102.962" r="30" transform="rotate(0 7 7)" fill="cyan" stroke="black" stroke-width="0.5" />
<circle cx="441" cy="102.962" r="30" transform="rotate(0 7 7)" fill="cyan" stroke="black" stroke-width="0.5" />
<circle cx="501" cy="102.962" r="30" transform="rotate(0 7 7)" fill="cyan" stroke="black" stroke-width="0.5" />
<circle cx="561" cy="102.962" r="30" transform="rotate(0 7 7)" fill="cyan" stroke="black" stroke-width="0.5" />
<circle cx="621" cy="102.962" r="30" transform="rotate(0 7 7)" fill="cyan" stroke="black" stroke-width="0.5" />
<circle cx="681" cy="102.962" r="30" transform="rotate(0 7 7)" fill="cyan" stroke="black" stroke-width="0.5" />
<circle cx="741" cy="102.962" r="30" transform="rotate(0 7 7)" fill="cyan" stroke="black" stroke-width="0.5" />
<circle cx="51" cy="154.923" r="30" transform="rotate(0 7 7)" fill="cyan" stroke="black" stroke-width="0.5" />
<circle cx="111" cy="154.923" r="30" transform="rotate(0 7 7)" fill="cyan" stroke="black" stroke-width="0.5" />
<circle cx="171" cy="154.923" r="30" transform="rotate(0 7 7)" fill="cyan" stroke="black" stroke-width="0.5" />
<circle cx="231" cy="154.923" r="30" transform="rotate(0 7 7)" fill="cyan" stroke="black" stroke-width="0.5" />
<circle cx="291" cy="154.923" r="30" transform="rotate(0 7 7)" fill="cyan" stroke="black" stroke-width="0.5" />
<circle cx="351" cy="154.923" r="30" transform="rotate(0 7 7)" fill="cyan" stroke="black" stroke-width="0.5" />
<circle cx="411" cy="154.923" r="30" transform="rotate(0 7 7)" fill="cyan" stroke="black" stroke-width="0.5" />
<circle cx="471" cy="154.923" r="30" transform="rotate(0 7 7)" fill="cyan" stroke="black" stroke-width="0.5" />
<circle cx="531" cy="154.923" r="30" transform="rotate(0 7 7)" fill="cyan" stroke="black" stroke-width="0.5" />
<circle cx="591" cy="154.923" r="30" transform="rotate(0 7 7)" fill="cyan" stroke="black" stroke-width="0.5" />
<circle cx="651" cy="154.923" r="30" transform="rotate(0 7 7)" fill="cyan" stroke="black" stroke-width="0.5" />
<circle cx="711" cy="154.923" r="30" transform="rotate(0 7 7)" fill="cyan" stroke="black" stroke-width="0.5" />
<circle cx="81" cy="206.885" r="30" transform="rotate(0 7 7)" fill="cyan" stroke="black" stroke-width="0.5" />
<circle cx="141" cy="206.885" r="30" transform="rotate(0 7 7)" fill="cyan" stroke="black" stroke-width="0.5" />
<circle cx="201" cy="206.885" r="30" transform="rotate(0 7 7)" fill="cyan" stroke="black" stroke-width="0.5" />
<circle cx="261" cy="206.885" r="30" transform="rotate(0 7 7)" fill="cyan" stroke="black" stroke-width="0.5" />
<circle cx="321" cy="206.885" r="30" transform="rotate(0 7 7)" fill="cyan" stroke="black" stroke-width="0.5" />
<circle cx="381" cy="206.885" r="30" transform="rotate(0 7 7)" fill="cyan" stroke="black" stroke-width="0.5" />
<circle cx="441" cy="206.885" r="30" transform="rotate(0 7 7)" fill="cyan" stroke="black" stroke-width="0.5" />
<circle cx="501" cy="206.885" r="30" transform="rotate(0 7 7)" fill="cyan" stroke="black" stroke-width="0.5" />
<circle cx="561" cy="206.885" r="30" transform="rotate(0 7 7)" fill="cyan" stroke="black" stroke-width="0.5" />
<circle cx="621" cy="206.885" r="30" transform="rotate(0 7 7)" fill="cyan" stroke="black" stroke-width="0.5" />
<circle cx="681" cy="206.885" r="30" transform="rotate(0 7 7)" fill="cyan" stroke="black" stroke-width="0.5" />
<circle cx="741" cy="206.885" r="30" transform="rotate(0 7 7)" fill="cyan" stroke="black" stroke-width="0.5" />
<circle cx="51" cy="258.846" r="30" transform="rotate(0 7 7)" fill="cyan" stroke="black" stroke-width="0.5" />
<circle cx="111" cy="258.846" r="30" transform="rotate(0 7 7)" fill="cyan" stroke="black" stroke-width="0.5" />
<circle cx="171" cy="258.846" r="30" transform="rotate(0 7 7)" fill="cyan" stroke="black" stroke-width="0.5" />
<circle cx="231" cy="258.846" r="30" transform="rotate(0 7 7)" fill="cyan" stroke="black" stroke-width="0.5" />
<circle cx="291" cy="258.846" r="30" transform="rotate(0 7 7)" fill="cyan" stroke="black" stroke-width="0.5" />
<circle cx="351" cy="258.846" r="30" transform="rotate(0 7 7)" fill="cyan" stroke="black" stroke-width="0.5" />
<circle cx="411" cy="258.846" r="30" transform="rotate(0 7 7)" fill="cyan" stroke="black" stroke-width="0.5" />
<circle cx="471" cy="258.846" r="30" transform="rotate(0 7 7)" fill="cyan" stroke="black" stroke-width="0.5" />
<circle cx="531" cy="258.846" r="30" transform="rotate(0 7 7)" fill="cyan" stroke="black" stroke-width="0.5" />
<circle cx="591" cy="258.846" r="30" transform="rotate(0 7 7)" fill="cyan" stroke="black" stroke-width="0.5" />
<circle cx="651" cy="258.846" r="30" transform="rotate(0 7 7)" fill="cyan" stroke="black" stroke-width="0.5" />
<circle cx="711" cy="258.846" r="30" transform="rotate(0 7 7)" fill="cyan" stroke="black" stroke-width="0.5" />
<circle cx="81" cy="310.808" r="30" transform="rotate(0 7 7)" fill="cyan" stroke="black" stroke-width="0.5" />
<circle cx="141" cy="310.808" r="30" transform="rotate(0 7 7)" fill="cyan" stroke="black" stroke-width="0.5" />
<circle cx="201" cy="310.808" r="30" transform="rotate(0 7 7)" fill="cyan" stroke="black" stroke-width="0.5" />
<circle cx="261" cy="310.808" r="30" transform="rotate(0 7 7)" fill="cyan" stroke="black" stroke-width="0.5" />
<circle cx="321" cy="310.808" r="30" transform="rotate(0 7 7)" fill="cyan" stroke="black" stroke-width="0.5" />
<circle cx="381" cy="310.808" r="30" transform="rotate(0 7 7)" fill="cyan" stroke="black" stroke-width="0.5" />
<circle cx="441" cy="310.808" r="30" transform="rotate(0 7 7)" fill="cyan" stroke="black" stroke-width="0.5" />
<circle cx="501" cy="310.808" r="30" transform="rotate(0 7 7)" fill="cyan" stroke="black" stroke-width="0.5" />
<circle cx="561" cy="310.808" r="30" transform="rotate(0 7 7)" fill="cyan" stroke="black" stroke-width="0.5" />
<circle cx="621" cy="310.808" r="30" transform="rotate(0 7 7)" fill="cyan" stroke="black" stroke-width="0.5" />
<circle cx="681" cy="310.808" r="30" transform="rotate(0 7 7)" fill="cyan" stroke="black" stroke-width="0.5" />
<circle cx="741" cy="310.808" r="30" transform="rotate(0 7 7)" fill="cyan" stroke="black" stroke-width="0.5" />
<circle cx="51" cy="362.769" r="30" transform="rotate(0 7 7)" fill="cyan" stroke="black" stroke-width="0.5" />
<circle cx="111" cy="362.769" r="30" transform="rotate(0 7 7)" fill="cyan" stroke="black" stroke-width="0.5" />
<circle cx="171" cy="362.769" r="30" transform="rotate(0 7 7)" fill="cyan" stroke="black" stroke-width="0.5" />
<circle cx="231" cy="362.769" r="30" transform="rotate(0 7 7)" fill="cyan" stroke="black" stroke-width="0.5" />
<circle cx="291" cy="362.769" r="30" transform="rotate(0 7 7)" fill="cyan" stroke="black" stroke-width="0.5" />
<circle cx="351" cy="362.769" r="30" transform="rotate(0 7 7)" fill="cyan" stroke="black" stroke-width="0.5" />
<circle cx="411" cy="362.769" r="30" transform="rotate(0 7 7)" fill="cyan" stroke="black" stroke-width="0.5" />
<circle cx="471" cy="362.769" r="30" transform="rotate(0 7 7)" fill="cyan" stroke="black" stroke-width="0.5" />
<circle cx="531" cy="362.769" r="30" transform="rotate(0 7 7)" fill="cyan" stroke="black" stroke-width="0.5" />
<circle cx="591" cy="362.769" r="30" transform="rotate(0 7 7)" fill="cyan" stroke="black" stroke-width="0.5" />
<circle cx="651" cy="362.769" r="30" transform="rotate(0 7 7)" fill="cyan" stroke="black" stroke-width="0.5" />
<circle cx="711" cy="362.769" r="30" transform="rotate(0 7 7)" fill="cyan" stroke="black" stroke-width="0.5" />
<circle cx="81" cy="414.731" r="30" transform="rotate(0 7 7)" fill="cyan" stroke="black" stroke-width="0.5" />
<circle cx="141" cy="414.731" r="30" transform="rotate(0 7 7)" fill="cyan" stroke="black" stroke-width="0.5" />
<circle cx="201" cy="414.731" r="30" transform="rotate(0 7 7)" fill="cyan" stroke="black" stroke-width="0.5" />
<circle cx="261" cy="414.731" r="30" transform="rotate(0 7 7)" fill="cyan" stroke="black" stroke-width="0.5" />
<circle cx="321" cy="414.731" r="30" transform="rotate(0 7 7)" fill="cyan" stroke="black" stroke-width="0.5" />
<circle cx="381" cy="414.731" r="30" transform="rotate(0 7 7)" fill="cyan" stroke="black" stroke-width="0.5" />
<circle cx="441" cy="414.731" r="30" transform="rotate(0 7 7)" fill="cyan" stroke="black" stroke-width="0.5" />
<circle cx="501" cy="414.731" r="30" transform="rotate(0 7 7)" fill="cyan" stroke="black" stroke-width="0.5" />
<circle cx="561" cy="414.731" r="30" transform="rotate(0 7 7)" fill="cyan" stroke="black" stroke-width="0.5" />
<circle cx="621" cy="414.731" r="30" transform="rotate(0 7 7)" fill="cyan" stroke="black" stroke-width="0.5" />
<circle cx="681" cy="414.731" r="30" transform="rotate(0 7 7)" fill="cyan" stroke="black" stroke-width="0.5" />
<circle cx="741" cy="414.731" r="30" transform="rotate(0 7 7)" fill="cyan" stroke="black" stroke-width="0.5" />
<circle cx="51" cy="466.692" r="30" transform="rotate(0 7 7)" fill="cyan" stroke="black" stroke-width="0.5" />
<circle cx="111" cy="466.692" r="30" transform="rotate(0 7 7)" fill="cyan" stroke="black" stroke-width="0.5" />
<circle cx="171" cy="466.692" r="30" transform="rotate(0 7 7)" fill="cyan" stroke="black" stroke-width="0.5" />
<circle cx="231" cy="466.692" r="30" transform="rotate(0 7 7)" fill="cyan" stroke="black" stroke-width="0.5" />
<circle cx="291" cy="466.692" r="30" transform="rotate(0 7 7)" fill="cyan" stroke="black" stroke-width="0.5" />
<circle cx="351" cy="466.692" r="30" transform="rotate(0 7 7)" fill="cyan" stroke="black" stroke-width="0.5" />
<circle cx="411" cy="466.692" r="30" transform="rotate(0 7 7)" fill="cyan" stroke="black" stroke-width="0.5" />
<circle cx="471" cy="466.692" r="30" transform="rotate(0 7 7)" fill="cyan" stroke="black" stroke-width="0.5" />
<circle cx="531" cy="466.692" r="30" transform="rotate(0 7 7)" fill="cyan" stroke="black" stroke-width="0.5" />
<circle cx="591" cy="466.692" r="30" transform="rotate(0 7 7)" fill="cyan" stroke="black" stroke-width="0.5" />
<circle cx="651" cy="466.692" r="30" transform="rotate(0 7 7)" fill="cyan" stroke="black" stroke-width="0.5" />
<circle cx="711" cy="466.692" r="30" transform="rotate(0 7 7)" fill="cyan" stroke="black" stroke-width="0.5" />
</svg>
