<svg version="1.1" baseProfile="full" xmlns="http://www.w3.org/2000/svg">
<circle cx="521" cy="521" r="500" transform="rotate(0 21 21)" fill="pink" stroke="black" stroke-width="0.5" />
<circle cx="521" cy="51" r="30" transform="rotate(0 521 521)" fill="cyan" stroke="black" stroke-width="0.5" />
<circle cx="521" cy="51" r="30" transform="rotate(7.34694 521 521)" fill="cyan" stroke="black" stroke-width="0.5" />
<circle cx="521" cy="51" r="30" transform="rotate(14.6939 521 521)" fill="cyan" stroke="black" stroke-width="0.5" />
<circle cx="521" cy="51" r="30" transform="rotate(22.0408 521 521)" fill="cyan" stroke="black" stroke-width="0.5" />
<circle cx="521" cy="51" r="30" transform="rotate(29.3878 521 521)" fill="cyan" stroke="black" stroke-width="0.5" />
<circle cx="521" cy="51" r="30" transform="rotate(36.7347 521 521)" fill="cyan" stroke="black" stroke-width="0.5" />
<circle cx="521" cy="51" r="30" transform="rotate(44.0816 521 521)" fill="cyan" stroke="black" stroke-width="0.5" />
<circle cx="521" cy="51" r="30" transform="rotate(51.4286 521 521)" fill="cyan" stroke="black" stroke-width="0.5" />
<circle cx="521" cy="51" r="30" transform="rotate(58.7755 521 521)" fill="cyan" stroke="black" stroke-width="0.5" />
<circle cx="521" cy="51" r="30" transform="rotate(66.1224 521 521)" fill="cyan" stroke="black" stroke-width="0.5" />
<circle cx="521" cy="51" r="30" transform="rotate(73.4694 521 521)" fill="cyan" stroke="black" stroke-width="0.5" />
<circle cx="521" cy="51" r="30" transform="rotate(80.8163 521 521)" fill="cyan" stroke="black" stroke-width="0.5" />
<circle cx="521" cy="51" r="30" transform="rotate(88.1633 521 521)" fill="cyan" stroke="black" stroke-width="0.5" />
<circle cx="521" cy="51" r="30" transform="rotate(95.5102 521 521)" fill="cyan" stroke="black" stroke-width="0.5" />
<circle cx="521" cy="51" r="30" transform="rotate(102.857 521 521)" fill="cyan" stroke="black" stroke-width="0.5" />
<circle cx="521" cy="51" r="30" transform="rotate(110.204 521 521)" fill="cyan" stroke="black" stroke-width="0.5" />
<circle cx="521" cy="51" r="30" transform="rotate(117.551 521 521)" fill="cyan" stroke="black" stroke-width="0.5" />
<circle cx="521" cy="51" r="30" transform="rotate(124.898 521 521)" fill="cyan" stroke="black" stroke-width="0.5" />
<circle cx="521" cy="51" r="30" transform="rotate(132.245 521 521)" fill="cyan" stroke="black" stroke-width="0.5" />
<circle cx="521" cy="51" r="30" transform="rotate(139.592 521 521)" fill="cyan" stroke="black" stroke-width="0.5" />
<circle cx="521" cy="51" r="30" transform="rotate(146.939 521 521)" fill="cyan" stroke="black" stroke-width="0.5" />
<circle cx="521" cy="51" r="30" transform="rotate(154.286 521 521)" fill="cyan" stroke="black" stroke-width="0.5" />
<circle cx="521" cy="51" r="30" transform="rotate(161.633 521 521)" fill="cyan" stroke="black" stroke-width="0.5" />
<circle cx="521" cy="51" r="30" transform="rotate(168.98 521 521)" fill="cyan" stroke="black" stroke-width="0.5" />
<circle cx="521" cy="51" r="30" transform="rotate(176.327 521 521)" fill="cyan" stroke="black" stroke-width="0.5" />
<circle cx="521" cy="51" r="30" transform="rotate(183.673 521 521)" fill="cyan" stroke="black" stroke-width="0.5" />
<circle cx="521" cy="51" r="30" transform="rotate(191.02 521 521)" fill="cyan" stroke="black" stroke-width="0.5" />
<circle cx="521" cy="51" r="30" transform="rotate(198.367 521 521)" fill="cyan" stroke="black" stroke-width="0.5" />
<circle cx="521" cy="51" r="30" transform="rotate(205.714 521 521)" fill="cyan" stroke="black" stroke-width="0.5" />
<circle cx="521" cy="51" r="30" transform="rotate(213.061 521 521)" fill="cyan" stroke="black" stroke-width="0.5" />
<circle cx="521" cy="51" r="30" transform="rotate(220.408 521 521)" fill="cyan" stroke="black" stroke-width="0.5" />
<circle cx="521" cy="51" r="30" transform="rotate(227.755 521 521)" fill="cyan" stroke="black" stroke-width="0.5" />
<circle cx="521" cy="51" r="30" transform="rotate(235.102 521 521)" fill="cyan" stroke="black" stroke-width="0.5" />
<circle cx="521" cy="51" r="30" transform="rotate(242.449 521 521)" fill="cyan" stroke="black" stroke-width="0.5" />
<circle cx="521" cy="51" r="30" transform="rotate(249.796 521 521)" fill="cyan" stroke="black" stroke-width="0.5" />
<circle cx="521" cy="51" r="30" transform="rotate(257.143 521 521)" fill="cyan" stroke="black" stroke-width="0.5" />
<circle cx="521" cy="51" r="30" transform="rotate(264.49 521 521)" fill="cyan" stroke="black" stroke-width="0.5" />
<circle cx="521" cy="51" r="30" transform="rotate(271.837 521 521)" fill="cyan" stroke="black" stroke-width="0.5" />
<circle cx="521" cy="51" r="30" transform="rotate(279.184 521 521)" fill="cyan" stroke="black" stroke-width="0.5" />
<circle cx="521" cy="51" r="30" transform="rotate(286.531 521 521)" fill="cyan" stroke="black" stroke-width="0.5" />
<circle cx="521" cy="51" r="30" transform="rotate(293.878 521 521)" fill="cyan" stroke="black" stroke-width="0.5" />
<circle cx="521" cy="51" r="30" transform="rotate(301.224 521 521)" fill="cyan" stroke="black" stroke-width="0.5" />
<circle cx="521" cy="51" r="30" transform="rotate(308.571 521 521)" fill="cyan" stroke="black" stroke-width="0.5" />
<circle cx="521" cy="51" r="30" transform="rotate(315.918 521 521)" fill="cyan" stroke="black" stroke-width="0.5" />
<circle cx="521" cy="51" r="30" transform="rotate(323.265 521 521)" fill="cyan" stroke="black" stroke-width="0.5" />
<circle cx="521" cy="51" r="30" transform="rotate(330.612 521 521)" fill="cyan" stroke="black" stroke-width="0.5" />
<circle cx="521" cy="51" r="30" transform="rotate(337.959 521 521)" fill="cyan" stroke="black" stroke-width="0.5" />
<circle cx="521" cy="51" r="30" transform="rotate(345.306 521 521)" fill="cyan" stroke="black" stroke-width="0.5" />
<circle cx="521" cy="51" r="30" transform="rotate(352.653 521 521)" fill="cyan" stroke="black" stroke-width="0.5" />
<circle cx="521" cy="111" r="30" transform="rotate(0 521 521)" fill="cyan" stroke="black" stroke-width="0.5" />
<circle cx="521" cy="111" r="30" transform="rotate(8.57143 521 521)" fill="cyan" stroke="black" stroke-width="0.5" />
<circle cx="521" cy="111" r="30" transform="rotate(17.1429 521 521)" fill="cyan" stroke="black" stroke-width="0.5" />
<circle cx="521" cy="111" r="30" transform="rotate(25.7143 521 521)" fill="cyan" stroke="black" stroke-width="0.5" />
<circle cx="521" cy="111" r="30" transform="rotate(34.2857 521 521)" fill="cyan" stroke="black" stroke-width="0.5" />
<circle cx="521" cy="111" r="30" transform="rotate(42.8571 521 521)" fill="cyan" stroke="black" stroke-width="0.5" />
<circle cx="521" cy="111" r="30" transform="rotate(51.4286 521 521)" fill="cyan" stroke="black" stroke-width="0.5" />
<circle cx="521" cy="111" r="30" transform="rotate(60 521 521)" fill="cyan" stroke="black" stroke-width="0.5" />
<circle cx="521" cy="111" r="30" transform="rotate(68.5714 521 521)" fill="cyan" stroke="black" stroke-width="0.5" />
<circle cx="521" cy="111" r="30" transform="rotate(77.1429 521 521)" fill="cyan" stroke="black" stroke-width="0.5" />
<circle cx="521" cy="111" r="30" transform="rotate(85.7143 521 521)" fill="cyan" stroke="black" stroke-width="0.5" />
<circle cx="521" cy="111" r="30" transform="rotate(94.2857 521 521)" fill="cyan" stroke="black" stroke-width="0.5" />
<circle cx="521" cy="111" r="30" transform="rotate(102.857 521 521)" fill="cyan" stroke="black" stroke-width="0.5" />
<circle cx="521" cy="111" r="30" transform="rotate(111.429 521 521)" fill="cyan" stroke="black" stroke-width="0.5" />
<circle cx="521" cy="111" r="30" transform="rotate(120 521 521)" fill="cyan" stroke="black" stroke-width="0.5" />
<circle cx="521" cy="111" r="30" transform="rotate(128.571 521 521)" fill="cyan" stroke="black" stroke-width="0.5" />
<circle cx="521" cy="111" r="30" transform="rotate(137.143 521 521)" fill="cyan" stroke="black" stroke-width="0.5" />
<circle cx="521" cy="111" r="30" transform="rotate(145.714 521 521)" fill="cyan" stroke="black" stroke-width="0.5" />
<circle cx="521" cy="111" r="30" transform="rotate(154.286 521 521)" fill="cyan" stroke="black" stroke-width="0.5" />
<circle cx="521" cy="111" r="30" transform="rotate(162.857 521 521)" fill="cyan" stroke="black" stroke-width="0.5" />
<circle cx="521" cy="111" r="30" transform="rotate(171.429 521 521)" fill="cyan" stroke="black" stroke-width="0.5" />
<circle cx="521" cy="111" r="30" transform="rotate(180 521 521)" fill="cyan" stroke="black" stroke-width="0.5" />
<circle cx="521" cy="111" r="30" transform="rotate(188.571 521 521)" fill="cyan" stroke="black" stroke-width="0.5" />
<circle cx="521" cy="111" r="30" transform="rotate(197.143 521 521)" fill="cyan" stroke="black" stroke-width="0.5" />
<circle cx="521" cy="111" r="30" transform="rotate(205.714 521 521)" fill="cyan" stroke="black" stroke-width="0.5" />
<circle cx="521" cy="111" r="30" transform="rotate(214.286 521 521)" fill="cyan" stroke="black" stroke-width="0.5" />
<circle cx="521" cy="111" r="30" transform="rotate(222.857 521 521)" fill="cyan" stroke="black" stroke-width="0.5" />
<circle cx="521" cy="111" r="30" transform="rotate(231.429 521 521)" fill="cyan" stroke="black" stroke-width="0.5" />
<circle cx="521" cy="111" r="30" transform="rotate(240 521 521)" fill="cyan" stroke="black" stroke-width="0.5" />
<circle cx="521" cy="111" r="30" transform="rotate(248.571 521 521)" fill="cyan" stroke="black" stroke-width="0.5" />
<circle cx="521" cy="111" r="30" transform="rotate(257.143 521 521)" fill="cyan" stroke="black" stroke-width="0.5" />
<circle cx="521" cy="111" r="30" transform="rotate(265.714 521 521)" fill="cyan" stroke="black" stroke-width="0.5" />
<circle cx="521" cy="111" r="30" transform="rotate(274.286 521 521)" fill="cyan" stroke="black" stroke-width="0.5" />
<circle cx="521" cy="111" r="30" transform="rotate(282.857 521 521)" fill="cyan" stroke="black" stroke-width="0.5" />
<circle cx="521" cy="111" r="30" transform="rotate(291.429 521 521)" fill="cyan" stroke="black" stroke-width="0.5" />
<circle cx="521" cy="111" r="30" transform="rotate(300 521 521)" fill="cyan" stroke="black" stroke-width="0.5" />
<circle cx="521" cy="111" r="30" transform="rotate(308.571 521 521)" fill="cyan" stroke="black" stroke-width="0.5" />
<circle cx="521" cy="111" r="30" transform="rotate(317.143 521 521)" fill="cyan" stroke="black" stroke-width="0.5" />
<circle cx="521" cy="111" r="30" transform="rotate(325.714 521 521)" fill="cyan" stroke="black" stroke-width="0.5" />
<circle cx="521" cy="111" r="30" transform="rotate(334.286 521 521)" fill="cyan" stroke="black" stroke-width="0.5" />
<circle cx="521" cy="111" r="30" transform="rotate(342.857 521 521)" fill="cyan" stroke="black" stroke-width="0.5" />
<circle cx="521" cy="111" r="30" transform="rotate(351.429 521 521)" fill="cyan" stroke="black" stroke-width="0.5" />
<circle cx="521" cy="171" r="30" transform="rotate(0 521 521)" fill="cyan" stroke="black" stroke-width="0.5" />
<circle cx="521" cy="171" r="30" transform="rotate(10 521 521)" fill="cyan" stroke="black" stroke-width="0.5" />
<circle cx="521" cy="171" r="30" transform="rotate(20 521 521)" fill="cyan" stroke="black" stroke-width="0.5" />
<circle cx="521" cy="171" r="30" transform="rotate(30 521 521)" fill="cyan" stroke="black" stroke-width="0.5" />
<circle cx="521" cy="171" r="30" transform="rotate(40 521 521)" fill="cyan" stroke="black" stroke-width="0.5" />
<circle cx="521" cy="171" r="30" transform="rotate(50 521 521)" fill="cyan" stroke="black" stroke-width="0.5" />
<circle cx="521" cy="171" r="30" transform="rotate(60 521 521)" fill="cyan" stroke="black" stroke-width="0.5" />
<circle cx="521" cy="171" r="30" transform="rotate(70 521 521)" fill="cyan" stroke="black" stroke-width="0.5" />
<circle cx="521" cy="171" r="30" transform="rotate(80 521 521)" fill="cyan" stroke="black" stroke-width="0.5" />
<circle cx="521" cy="171" r="30" transform="rotate(90 521 521)" fill="cyan" stroke="black" stroke-width="0.5" />
<circle cx="521" cy="171" r="30" transform="rotate(100 521 521)" fill="cyan" stroke="black" stroke-width="0.5" />
<circle cx="521" cy="171" r="30" transform="rotate(110 521 521)" fill="cyan" stroke="black" stroke-width="0.5" />
<circle cx="521" cy="171" r="30" transform="rotate(120 521 521)" fill="cyan" stroke="black" stroke-width="0.5" />
<circle cx="521" cy="171" r="30" transform="rotate(130 521 521)" fill="cyan" stroke="black" stroke-width="0.5" />
<circle cx="521" cy="171" r="30" transform="rotate(140 521 521)" fill="cyan" stroke="black" stroke-width="0.5" />
<circle cx="521" cy="171" r="30" transform="rotate(150 521 521)" fill="cyan" stroke="black" stroke-width="0.5" />
<circle cx="521" cy="171" r="30" transform="rotate(160 521 521)" fill="cyan" stroke="black" stroke-width="0.5" />
<circle cx="521" cy="171" r="30" transform="rotate(170 521 521)" fill="cyan" stroke="black" stroke-width="0.5" />
<circle cx="521" cy="171" r="30" transform="rotate(180 521 521)" fill="cyan" stroke="black" stroke-width="0.5" />
<circle cx="521" cy="171" r="30" transform="rotate(190 521 521)" fill="cyan" stroke="black" stroke-width="0.5" />
<circle cx="521" cy="171" r="30" transform="rotate(200 521 521)" fill="cyan" stroke="black" stroke-width="0.5" />
<circle cx="521" cy="171" r="30" transform="rotate(210 521 521)" fill="cyan" stroke="black" stroke-width="0.5" />
<circle cx="521" cy="171" r="30" transform="rotate(220 521 521)" fill="cyan" stroke="black" stroke-width="0.5" />
<circle cx="521" cy="171" r="30" transform="rotate(230 521 521)" fill="cyan" stroke="black" stroke-width="0.5" />
<circle cx="521" cy="171" r="30" transform="rotate(240 521 521)" fill="cyan" stroke="black" stroke-width="0.5" />
<circle cx="521" cy="171" r="30" transform="rotate(250 521 521)" fill="cyan" stroke="black" stroke-width="0.5" />
<circle cx="521" cy="171" r="30" transform="rotate(260 521 521)" fill="cyan" stroke="black" stroke-width="0.5" />
<circle cx="521" cy="171" r="30" transform="rotate(270 521 521)" fill="cyan" stroke="black" stroke-width="0.5" />
<circle cx="521" cy="171" r="30" transform="rotate(280 521 521)" fill="cyan" stroke="black" stroke-width="0.5" />
<circle cx="521" cy="171" r="30" transform="rotate(290 521 521)" fill="cyan" stroke="black" stroke-width="0.5" />
<circle cx="521" cy="171" r="30" transform="rotate(300 521 521)" fill="cyan" stroke="black" stroke-width="0.5" />
<circle cx="521" cy="171" r="30" transform="rotate(310 521 521)" fill="cyan" stroke="black" stroke-width="0.5" />
<circle cx="521" cy="171" r="30" transform="rotate(320 521 521)" fill="cyan" stroke="black" stroke-width="0.5" />
<circle cx="521" cy="171" r="30" transform="rotate(330 521 521)" fill="cyan" stroke="black" stroke-width="0.5" />
<circle cx="521" cy="171" r="30" transform="rotate(340 521 521)" fill="cyan" stroke="black" stroke-width="0.5" />
<circle cx="521" cy="171" r="30" transform="rotate(350 521 521)" fill="cyan" stroke="black" stroke-width="0.5" />
<circle cx="521" cy="231" r="30" transform="rotate(0 521 521)" fill="cyan" stroke="black" stroke-width="0.5" />
<circle cx="521" cy="231" r="30" transform="rotate(12 521 521)" fill="cyan" stroke="black" stroke-width="0.5" />
<circle cx="521" cy="231" r="30" transform="rotate(24 521 521)" fill="cyan" stroke="black" stroke-width="0.5" />
<circle cx="521" cy="231" r="30" transform="rotate(36 521 521)" fill="cyan" stroke="black" stroke-width="0.5" />
<circle cx="521" cy="231" r="30" transform="rotate(48 521 521)" fill="cyan" stroke="black" stroke-width="0.5" />
<circle cx="521" cy="231" r="30" transform="rotate(60 521 521)" fill="cyan" stroke="black" stroke-width="0.5" />
<circle cx="521" cy="231" r="30" transform="rotate(72 521 521)" fill="cyan" stroke="black" stroke-width="0.5" />
<circle cx="521" cy="231" r="30" transform="rotate(84 521 521)" fill="cyan" stroke="black" stroke-width="0.5" />
<circle cx="521" cy="231" r="30" transform="rotate(96 521 521)" fill="cyan" stroke="black" stroke-width="0.5" />
<circle cx="521" cy="231" r="30" transform="rotate(108 521 521)" fill="cyan" stroke="black" stroke-width="0.5" />
<circle cx="521" cy="231" r="30" transform="rotate(120 521 521)" fill="cyan" stroke="black" stroke-width="0.5" />
<circle cx="521" cy="231" r="30" transform="rotate(132 521 521)" fill="cyan" stroke="black" stroke-width="0.5" />
<circle cx="521" cy="231" r="30" transform="rotate(144 521 521)" fill="cyan" stroke="black" stroke-width="0.5" />
<circle cx="521" cy="231" r="30" transform="rotate(156 521 521)" fill="cyan" stroke="black" stroke-width="0.5" />
<circle cx="521" cy="231" r="30" transform="rotate(168 521 521)" fill="cyan" stroke="black" stroke-width="0.5" />
<circle cx="521" cy="231" r="30" transform="rotate(180 521 521)" fill="cyan" stroke="black" stroke-width="0.5" />
<circle cx="521" cy="231" r="30" transform="rotate(192 521 521)" fill="cyan" stroke="black" stroke-width="0.5" />
<circle cx="521" cy="231" r="30" transform="rotate(204 521 521)" fill="cyan" stroke="black" stroke-width="0.5" />
<circle cx="521" cy="231" r="30" transform="rotate(216 521 521)" fill="cyan" stroke="black" stroke-width="0.5" />
<circle cx="521" cy="231" r="30" transform="rotate(228 521 521)" fill="cyan" stroke="black" stroke-width="0.5" />
<circle cx="521" cy="231" r="30" transform="rotate(240 521 521)" fill="cyan" stroke="black" stroke-width="0.5" />
<circle cx="521" cy="231" r="30" transform="rotate(252 521 521)" fill="cyan" stroke="black" stroke-width="0.5" />
<circle cx="521" cy="231" r="30" transform="rotate(264 521 521)" fill="cyan" stroke="black" stroke-width="0.5" />
<circle cx="521" cy="231" r="30" transform="rotate(276 521 521)" fill="cyan" stroke="black" stroke-width="0.5" />
<circle cx="521" cy="231" r="30" transform="rotate(288 521 521)" fill="cyan" stroke="black" stroke-width="0.5" />
<circle cx="521" cy="231" r="30" transform="rotate(300 521 521)" fill="cyan" stroke="black" stroke-width="0.5" />
<circle cx="521" cy="231" r="30" transform="rotate(312 521 521)" fill="cyan" stroke="black" stroke-width="0.5" />
<circle cx="521" cy="231" r="30" transform="rotate(324 521 521)" fill="cyan" stroke="black" stroke-width="0.5" />
<circle cx="521" cy="231" r="30" transform="rotate(336 521 521)" fill="cyan" stroke="black" stroke-width="0.5" />
<circle cx="521" cy="231" r="30" transform="rotate(348 521 521)" fill="cyan" stroke="black" stroke-width="0.5" />
<circle cx="521" cy="291" r="30" transform="rotate(0 521 521)" fill="cyan" stroke="black" stroke-width="0.5" />
<circle cx="521" cy="291" r="30" transform="rotate(15 521 521)" fill="cyan" stroke="black" stroke-width="0.5" />
<circle cx="521" cy="291" r="30" transform="rotate(30 521 521)" fill="cyan" stroke="black" stroke-width="0.5" />
<circle cx="521" cy="291" r="30" transform="rotate(45 521 521)" fill="cyan" stroke="black" stroke-width="0.5" />
<circle cx="521" cy="291" r="30" transform="rotate(60 521 521)" fill="cyan" stroke="black" stroke-width="0.5" />
<circle cx="521" cy="291" r="30" transform="rotate(75 521 521)" fill="cyan" stroke="black" stroke-width="0.5" />
<circle cx="521" cy="291" r="30" transform="rotate(90 521 521)" fill="cyan" stroke="black" stroke-width="0.5" />
<circle cx="521" cy="291" r="30" transform="rotate(105 521 521)" fill="cyan" stroke="black" stroke-width="0.5" />
<circle cx="521" cy="291" r="30" transform="rotate(120 521 521)" fill="cyan" stroke="black" stroke-width="0.5" />
<circle cx="521" cy="291" r="30" transform="rotate(135 521 521)" fill="cyan" stroke="black" stroke-width="0.5" />
<circle cx="521" cy="291" r="30" transform="rotate(150 521 521)" fill="cyan" stroke="black" stroke-width="0.5" />
<circle cx="521" cy="291" r="30" transform="rotate(165 521 521)" fill="cyan" stroke="black" stroke-width="0.5" />
<circle cx="521" cy="291" r="30" transform="rotate(180 521 521)" fill="cyan" stroke="black" stroke-width="0.5" />
<circle cx="521" cy="291" r="30" transform="rotate(195 521 521)" fill="cyan" stroke="black" stroke-width="0.5" />
<circle cx="521" cy="291" r="30" transform="rotate(210 521 521)" fill="cyan" stroke="black" stroke-width="0.5" />
<circle cx="521" cy="291" r="30" transform="rotate(225 521 521)" fill="cyan" stroke="black" stroke-width="0.5" />
<circle cx="521" cy="291" r="30" transform="rotate(240 521 521)" fill="cyan" stroke="black" stroke-width="0.5" />
<circle cx="521" cy="291" r="30" transform="rotate(255 521 521)" fill="cyan" stroke="black" stroke-width="0.5" />
<circle cx="521" cy="291" r="30" transform="rotate(270 521 521)" fill="cyan" stroke="black" stroke-width="0.5" />
<circle cx="521" cy="291" r="30" transform="rotate(285 521 521)" fill="cyan" stroke="black" stroke-width="0.5" />
<circle cx="521" cy="291" r="30" transform="rotate(300 521 521)" fill="cyan" stroke="black" stroke-width="0.5" />
<circle cx="521" cy="291" r="30" transform="rotate(315 521 521)" fill="cyan" stroke="black" stroke-width="0.5" />
<circle cx="521" cy="291" r="30" transform="rotate(330 521 521)" fill="cyan" stroke="black" stroke-width="0.5" />
<circle cx="521" cy="291" r="30" transform="rotate(345 521 521)" fill="cyan" stroke="black" stroke-width="0.5" />
<circle cx="521" cy="351" r="30" transform="rotate(0 521 521)" fill="cyan" stroke="black" stroke-width="0.5" />
<circle cx="521" cy="351" r="30" transform="rotate(21.1765 521 521)" fill="cyan" stroke="black" stroke-width="0.5" />
<circle cx="521" cy="351" r="30" transform="rotate(42.3529 521 521)" fill="cyan" stroke="black" stroke-width="0.5" />
<circle cx="521" cy="351" r="30" transform="rotate(63.5294 521 521)" fill="cyan" stroke="black" stroke-width="0.5" />
<circle cx="521" cy="351" r="30" transform="rotate(84.7059 521 521)" fill="cyan" stroke="black" stroke-width="0.5" />
<circle cx="521" cy="351" r="30" transform="rotate(105.882 521 521)" fill="cyan" stroke="black" stroke-width="0.5" />
<circle cx="521" cy="351" r="30" transform="rotate(127.059 521 521)" fill="cyan" stroke="black" stroke-width="0.5" />
<circle cx="521" cy="351" r="30" transform="rotate(148.235 521 521)" fill="cyan" stroke="black" stroke-width="0.5" />
<circle cx="521" cy="351" r="30" transform="rotate(169.412 521 521)" fill="cyan" stroke="black" stroke-width="0.5" />
<circle cx="521" cy="351" r="30" transform="rotate(190.588 521 521)" fill="cyan" stroke="black" stroke-width="0.5" />
<circle cx="521" cy="351" r="30" transform="rotate(211.765 521 521)" fill="cyan" stroke="black" stroke-width="0.5" />
<circle cx="521" cy="351" r="30" transform="rotate(232.941 521 521)" fill="cyan" stroke="black" stroke-width="0.5" />
<circle cx="521" cy="351" r="30" transform="rotate(254.118 521 521)" fill="cyan" stroke="black" stroke-width="0.5" />
<circle cx="521" cy="351" r="30" transform="rotate(275.294 521 521)" fill="cyan" stroke="black" stroke-width="0.5" />
<circle cx="521" cy="351" r="30" transform="rotate(296.471 521 521)" fill="cyan" stroke="black" stroke-width="0.5" />
<circle cx="521" cy="351" r="30" transform="rotate(317.647 521 521)" fill="cyan" stroke="black" stroke-width="0.5" />
<circle cx="521" cy="351" r="30" transform="rotate(338.824 521 521)" fill="cyan" stroke="black" stroke-width="0.5" />
<circle cx="521" cy="411" r="30" transform="rotate(0 521 521)" fill="cyan" stroke="black" stroke-width="0.5" />
<circle cx="521" cy="411" r="30" transform="rotate(32.7273 521 521)" fill="cyan" stroke="black" stroke-width="0.5" />
<circle cx="521" cy="411" r="30" transform="rotate(65.4545 521 521)" fill="cyan" stroke="black" stroke-width="0.5" />
<circle cx="521" cy="411" r="30" transform="rotate(98.1818 521 521)" fill="cyan" stroke="black" stroke-width="0.5" />
<circle cx="521" cy="411" r="30" transform="rotate(130.909 521 521)" fill="cyan" stroke="black" stroke-width="0.5" />
<circle cx="521" cy="411" r="30" transform="rotate(163.636 521 521)" fill="cyan" stroke="black" stroke-width="0.5" />
<circle cx="521" cy="411" r="30" transform="rotate(196.364 521 521)" fill="cyan" stroke="black" stroke-width="0.5" />
<circle cx="521" cy="411" r="30" transform="rotate(229.091 521 521)" fill="cyan" stroke="black" stroke-width="0.5" />
<circle cx="521" cy="411" r="30" transform="rotate(261.818 521 521)" fill="cyan" stroke="black" stroke-width="0.5" />
<circle cx="521" cy="411" r="30" transform="rotate(294.545 521 521)" fill="cyan" stroke="black" stroke-width="0.5" />
<circle cx="521" cy="411" r="30" transform="rotate(327.273 521 521)" fill="cyan" stroke="black" stroke-width="0.5" />
<circle cx="521" cy="471" r="30" transform="rotate(0 521 521)" fill="cyan" stroke="black" stroke-width="0.5" />
<circle cx="521" cy="471" r="30" transform="rotate(90 521 521)" fill="cyan" stroke="black" stroke-width="0.5" />
<circle cx="521" cy="471" r="30" transform="rotate(180 521 521)" fill="cyan" stroke="black" stroke-width="0.5" />
<circle cx="521" cy="471" r="30" transform="rotate(270 521 521)" fill="cyan" stroke="black" stroke-width="0.5" />
</svg>
