<svg version="1.1" baseProfile="full" xmlns="http://www.w3.org/2000/svg">
<rect x="21"  y="21" width="500" height="750" transform="rotate(0 21 21)" fill="pink" stroke="black" stroke-width="0.5" />
<circle cx="51" cy="51" r="30" transform="rotate(0 7 7)" fill="cyan" stroke="black" stroke-width="0.5" />
<circle cx="111" cy="51" r="30" transform="rotate(0 7 7)" fill="cyan" stroke="black" stroke-width="0.5" />
<circle cx="171" cy="51" r="30" transform="rotate(0 7 7)" fill="cyan" stroke="black" stroke-width="0.5" />
<circle cx="231" cy="51" r="30" transform="rotate(0 7 7)" fill="cyan" stroke="black" stroke-width="0.5" />
<circle cx="291" cy="51" r="30" transform="rotate(0 7 7)" fill="cyan" stroke="black" stroke-width="0.5" />
<circle cx="351" cy="51" r="30" transform="rotate(0 7 7)" fill="cyan" stroke="black" stroke-width="0.5" />
<circle cx="411" cy="51" r="30" transform="rotate(0 7 7)" fill="cyan" stroke="black" stroke-width="0.5" />
<circle cx="471" cy="51" r="30" transform="rotate(0 7 7)" fill="cyan" stroke="black" stroke-width="0.5" />
<circle cx="81" cy="102.962" r="30" transform="rotate(0 7 7)" fill="cyan" stroke="black" stroke-width="0.5" />
<circle cx="141" cy="102.962" r="30" transform="rotate(0 7 7)" fill="cyan" stroke="black" stroke-width="0.5" />
<circle cx="201" cy="102.962" r="30" transform="rotate(0 7 7)" fill="cyan" stroke="black" stroke-width="0.5" />
<circle cx="261" cy="102.962" r="30" transform="rotate(0 7 7)" fill="cyan" stroke="black" stroke-width="0.5" />
<circle cx="321" cy="102.962" r="30" transform="rotate(0 7 7)" fill="cyan" stroke="black" stroke-width="0.5" />
<circle cx="381" cy="102.962" r="30" transform="rotate(0 7 7)" fill="cyan" stroke="black" stroke-width="0.5" />
<circle cx="441" cy="102.962" r="30" transform="rotate(0 7 7)" fill="cyan" stroke="black" stroke-width="0.5" />
<circle cx="51" cy="154.923" r="30" transform="rotate(0 7 7)" fill="cyan" stroke="black" stroke-width="0.5" />
<circle cx="111" cy="154.923" r="30" transform="rotate(0 7 7)" fill="cyan" stroke="black" stroke-width="0.5" />
<circle cx="171" cy="154.923" r="30" transform="rotate(0 7 7)" fill="cyan" stroke="black" stroke-width="0.5" />
<circle cx="231" cy="154.923" r="30" transform="rotate(0 7 7)" fill="cyan" stroke="black" stroke-width="0.5" />
<circle cx="291" cy="154.923" r="30" transform="rotate(0 7 7)" fill="cyan" stroke="black" stroke-width="0.5" />
<circle cx="351" cy="154.923" r="30" transform="rotate(0 7 7)" fill="cyan" stroke="black" stroke-width="0.5" />
<circle cx="411" cy="154.923" r="30" transform="rotate(0 7 7)" fill="cyan" stroke="black" stroke-width="0.5" />
<circle cx="471" cy="154.923" r="30" transform="rotate(0 7 7)" fill="cyan" stroke="black" stroke-width="0.5" />
<circle cx="81" cy="206.885" r="30" transform="rotate(0 7 7)" fill="cyan" stroke="black" stroke-width="0.5" />
<circle cx="141" cy="206.885" r="30" transform="rotate(0 7 7)" fill="cyan" stroke="black" stroke-width="0.5" />
<circle cx="201" cy="206.885" r="30" transform="rotate(0 7 7)" fill="cyan" stroke="black" stroke-width="0.5" />
<circle cx="261" cy="206.885" r="30" transform="rotate(0 7 7)" fill="cyan" stroke="black" stroke-width="0.5" />
<circle cx="321" cy="206.885" r="30" transform="rotate(0 7 7)" fill="cyan" stroke="black" stroke-width="0.5" />
<circle cx="381" cy="206.885" r="30" transform="rotate(0 7 7)" fill="cyan" stroke="black" stroke-width="0.5" />
<circle cx="441" cy="206.885" r="30" transform="rotate(0 7 7)" fill="cyan" stroke="black" stroke-width="0.5" />
<circle cx="51" cy="258.846" r="30" transform="rotate(0 7 7)" fill="cyan" stroke="black" stroke-width="0.5" />
<circle cx="111" cy="258.846" r="30" transform="rotate(0 7 7)" fill="cyan" stroke="black" stroke-width="0.5" />
<circle cx="171" cy="258.846" r="30" transform="rotate(0 7 7)" fill="cyan" stroke="black" stroke-width="0.5" />
<circle cx="231" cy="258.846" r="30" transform="rotate(0 7 7)" fill="cyan" stroke="black" stroke-width="0.5" />
<circle cx="291" cy="258.846" r="30" transform="rotate(0 7 7)" fill="cyan" stroke="black" stroke-width="0.5" />
<circle cx="351" cy="258.846" r="30" transform="rotate(0 7 7)" fill="cyan" stroke="black" stroke-width="0.5" />
<circle cx="411" cy="258.846" r="30" transform="rotate(0 7 7)" fill="cyan" stroke="black" stroke-width="0.5" />
<circle cx="471" cy="258.846" r="30" transform="rotate(0 7 7)" fill="cyan" stroke="black" stroke-width="0.5" />
<circle cx="81" cy="310.808" r="30" transform="rotate(0 7 7)" fill="cyan" stroke="black" stroke-width="0.5" />
<circle cx="141" cy="310.808" r="30" transform="rotate(0 7 7)" fill="cyan" stroke="black" stroke-width="0.5" />
<circle cx="201" cy="310.808" r="30" transform="rotate(0 7 7)" fill="cyan" stroke="black" stroke-width="0.5" />
<circle cx="261" cy="310.808" r="30" transform="rotate(0 7 7)" fill="cyan" stroke="black" stroke-width="0.5" />
<circle cx="321" cy="310.808" r="30" transform="rotate(0 7 7)" fill="cyan" stroke="black" stroke-width="0.5" />
<circle cx="381" cy="310.808" r="30" transform="rotate(0 7 7)" fill="cyan" stroke="black" stroke-width="0.5" />
<circle cx="441" cy="310.808" r="30" transform="rotate(0 7 7)" fill="cyan" stroke="black" stroke-width="0.5" />
<circle cx="51" cy="362.769" r="30" transform="rotate(0 7 7)" fill="cyan" stroke="black" stroke-width="0.5" />
<circle cx="111" cy="362.769" r="30" transform="rotate(0 7 7)" fill="cyan" stroke="black" stroke-width="0.5" />
<circle cx="171" cy="362.769" r="30" transform="rotate(0 7 7)" fill="cyan" stroke="black" stroke-width="0.5" />
<circle cx="231" cy="362.769" r="30" transform="rotate(0 7 7)" fill="cyan" stroke="black" stroke-width="0.5" />
<circle cx="291" cy="362.769" r="30" transform="rotate(0 7 7)" fill="cyan" stroke="black" stroke-width="0.5" />
<circle cx="351" cy="362.769" r="30" transform="rotate(0 7 7)" fill="cyan" stroke="black" stroke-width="0.5" />
<circle cx="411" cy="362.769" r="30" transform="rotate(0 7 7)" fill="cyan" stroke="black" stroke-width="0.5" />
<circle cx="471" cy="362.769" r="30" transform="rotate(0 7 7)" fill="cyan" stroke="black" stroke-width="0.5" />
<circle cx="81" cy="414.731" r="30" transform="rotate(0 7 7)" fill="cyan" stroke="black" stroke-width="0.5" />
<circle cx="141" cy="414.731" r="30" transform="rotate(0 7 7)" fill="cyan" stroke="black" stroke-width="0.5" />
<circle cx="201" cy="414.731" r="30" transform="rotate(0 7 7)" fill="cyan" stroke="black" stroke-width="0.5" />
<circle cx="261" cy="414.731" r="30" transform="rotate(0 7 7)" fill="cyan" stroke="black" stroke-width="0.5" />
<circle cx="321" cy="414.731" r="30" transform="rotate(0 7 7)" fill="cyan" stroke="black" stroke-width="0.5" />
<circle cx="381" cy="414.731" r="30" transform="rotate(0 7 7)" fill="cyan" stroke="black" stroke-width="0.5" />
<circle cx="441" cy="414.731" r="30" transform="rotate(0 7 7)" fill="cyan" stroke="black" stroke-width="0.5" />
<circle cx="51" cy="466.692" r="30" transform="rotate(0 7 7)" fill="cyan" stroke="black" stroke-width="0.5" />
<circle cx="111" cy="466.692" r="30" transform="rotate(0 7 7)" fill="cyan" stroke="black" stroke-width="0.5" />
<circle cx="171" cy="466.692" r="30" transform="rotate(0 7 7)" fill="cyan" stroke="black" stroke-width="0.5" />
<circle cx="231" cy="466.692" r="30" transform="rotate(0 7 7)" fill="cyan" stroke="black" stroke-width="0.5" />
<circle cx="291" cy="466.692" r="30" transform="rotate(0 7 7)" fill="cyan" stroke="black" stroke-width="0.5" />
<circle cx="351" cy="466.692" r="30" transform="rotate(0 7 7)" fill="cyan" stroke="black" stroke-width="0.5" />
<circle cx="411" cy="466.692" r="30" transform="rotate(0 7 7)" fill="cyan" stroke="black" stroke-width="0.5" />
<circle cx="471" cy="466.692" r="30" transform="rotate(0 7 7)" fill="cyan" stroke="black" stroke-width="0.5" />
<circle cx="81" cy="518.654" r="30" transform="rotate(0 7 7)" fill="cyan" stroke="black" stroke-width="0.5" />
<circle cx="141" cy="518.654" r="30" transform="rotate(0 7 7)" fill="cyan" stroke="black" stroke-width="0.5" />
<circle cx="201" cy="518.654" r="30" transform="rotate(0 7 7)" fill="cyan" stroke="black" stroke-width="0.5" />
<circle cx="261" cy="518.654" r="30" transform="rotate(0 7 7)" fill="cyan" stroke="black" stroke-width="0.5" />
<circle cx="321" cy="518.654" r="30" transform="rotate(0 7 7)" fill="cyan" stroke="black" stroke-width="0.5" />
<circle cx="381" cy="518.654" r="30" transform="rotate(0 7 7)" fill="cyan" stroke="black" stroke-width="0.5" />
<circle cx="441" cy="518.654" r="30" transform="rotate(0 7 7)" fill="cyan" stroke="black" stroke-width="0.5" />
<circle cx="51" cy="570.615" r="30" transform="rotate(0 7 7)" fill="cyan" stroke="black" stroke-width="0.5" />
<circle cx="111" cy="570.615" r="30" transform="rotate(0 7 7)" fill="cyan" stroke="black" stroke-width="0.5" />
<circle cx="171" cy="570.615" r="30" transform="rotate(0 7 7)" fill="cyan" stroke="black" stroke-width="0.5" />
<circle cx="231" cy="570.615" r="30" transform="rotate(0 7 7)" fill="cyan" stroke="black" stroke-width="0.5" />
<circle cx="291" cy="570.615" r="30" transform="rotate(0 7 7)" fill="cyan" stroke="black" stroke-width="0.5" />
<circle cx="351" cy="570.615" r="30" transform="rotate(0 7 7)" fill="cyan" stroke="black" stroke-width="0.5" />
<circle cx="411" cy="570.615" r="30" transform="rotate(0 7 7)" fill="cyan" stroke="black" stroke-width="0.5" />
<circle cx="471" cy="570.615" r="30" transform="rotate(0 7 7)" fill="cyan" stroke="black" stroke-width="0.5" />
<circle cx="81" cy="622.577" r="30" transform="rotate(0 7 7)" fill="cyan" stroke="black" stroke-width="0.5" />
<circle cx="141" cy="622.577" r="30" transform="rotate(0 7 7)" fill="cyan" stroke="black" stroke-width="0.5" />
<circle cx="201" cy="622.577" r="30" transform="rotate(0 7 7)" fill="cyan" stroke="black" stroke-width="0.5" />
<circle cx="261" cy="622.577" r="30" transform="rotate(0 7 7)" fill="cyan" stroke="black" stroke-width="0.5" />
<circle cx="321" cy="622.577" r="30" transform="rotate(0 7 7)" fill="cyan" stroke="black" stroke-width="0.5" />
<circle cx="381" cy="622.577" r="30" transform="rotate(0 7 7)" fill="cyan" stroke="black" stroke-width="0.5" />
<circle cx="441" cy="622.577" r="30" transform="rotate(0 7 7)" fill="cyan" stroke="black" stroke-width="0.5" />
<circle cx="51" cy="674.538" r="30" transform="rotate(0 7 7)" fill="cyan" stroke="black" stroke-width="0.5" />
<circle cx="111" cy="674.538" r="30" transform="rotate(0 7 7)" fill="cyan" stroke="black" stroke-width="0.5" />
<circle cx="171" cy="674.538" r="30" transform="rotate(0 7 7)" fill="cyan" stroke="black" stroke-width="0.5" />
<circle cx="231" cy="674.538" r="30" transform="rotate(0 7 7)" fill="cyan" stroke="black" stroke-width="0.5" />
<circle cx="291" cy="674.538" r="30" transform="rotate(0 7 7)" fill="cyan" stroke="black" stroke-width="0.5" />
<circle cx="351" cy="674.538" r="30" transform="rotate(0 7 7)" fill="cyan" stroke="black" stroke-width="0.5" />
<circle cx="411" cy="674.538" r="30" transform="rotate(0 7 7)" fill="cyan" stroke="black" stroke-width="0.5" />
<circle cx="471" cy="674.538" r="30" transform="rotate(0 7 7)" fill="cyan" stroke="black" stroke-width="0.5" />
<circle cx="81" cy="726.5" r="30" transform="rotate(0 7 7)" fill="cyan" stroke="black" stroke-width="0.5" />
<circle cx="141" cy="726.5" r="30" transform="rotate(0 7 7)" fill="cyan" stroke="black" stroke-width="0.5" />
<circle cx="201" cy="726.5" r="30" transform="rotate(0 7 7)" fill="cyan" stroke="black" stroke-width="0.5" />
<circle cx="261" cy="726.5" r="30" transform="rotate(0 7 7)" fill="cyan" stroke="black" stroke-width="0.5" />
<circle cx="321" cy="726.5" r="30" transform="rotate(0 7 7)" fill="cyan" stroke="black" stroke-width="0.5" />
<circle cx="381" cy="726.5" r="30" transform="rotate(0 7 7)" fill="cyan" stroke="black" stroke-width="0.5" />
<circle cx="441" cy="726.5" r="30" transform="rotate(0 7 7)" fill="cyan" stroke="black" stroke-width="0.5" />
</svg>
