<svg version="1.1" baseProfile="full" xmlns="http://www.w3.org/2000/svg">
<rect x="7"  y="7" width="500" height="750" transform="rotate(0 7 7)" fill="pink" stroke="black" stroke-width="0.5" />
<rect x="7"  y="7" width="110" height="15" transform="rotate(0 7 7)" fill="green" stroke="black" stroke-width="0.5" />
<rect x="117"  y="7" width="110" height="15" transform="rotate(0 7 7)" fill="green" stroke="black" stroke-width="0.5" />
<rect x="227"  y="7" width="110" height="15" transform="rotate(0 7 7)" fill="green" stroke="black" stroke-width="0.5" />
<rect x="337"  y="7" width="110" height="15" transform="rotate(0 7 7)" fill="green" stroke="black" stroke-width="0.5" />
<rect x="7"  y="22" width="110" height="15" transform="rotate(0 7 7)" fill="green" stroke="black" stroke-width="0.5" />
<rect x="117"  y="22" width="110" height="15" transform="rotate(0 7 7)" fill="green" stroke="black" stroke-width="0.5" />
<rect x="227"  y="22" width="110" height="15" transform="rotate(0 7 7)" fill="green" stroke="black" stroke-width="0.5" />
<rect x="337"  y="22" width="110" height="15" transform="rotate(0 7 7)" fill="green" stroke="black" stroke-width="0.5" />
<rect x="7"  y="37" width="110" height="15" transform="rotate(0 7 7)" fill="green" stroke="black" stroke-width="0.5" />
<rect x="117"  y="37" width="110" height="15" transform="rotate(0 7 7)" fill="green" stroke="black" stroke-width="0.5" />
<rect x="227"  y="37" width="110" height="15" transform="rotate(0 7 7)" fill="green" stroke="black" stroke-width="0.5" />
<rect x="337"  y="37" width="110" height="15" transform="rotate(0 7 7)" fill="green" stroke="black" stroke-width="0.5" />
<rect x="7"  y="52" width="110" height="15" transform="rotate(0 7 7)" fill="green" stroke="black" stroke-width="0.5" />
<rect x="117"  y="52" width="110" height="15" transform="rotate(0 7 7)" fill="green" stroke="black" stroke-width="0.5" />
<rect x="227"  y="52" width="110" height="15" transform="rotate(0 7 7)" fill="green" stroke="black" stroke-width="0.5" />
<rect x="337"  y="52" width="110" height="15" transform="rotate(0 7 7)" fill="green" stroke="black" stroke-width="0.5" />
<rect x="7"  y="67" width="110" height="15" transform="rotate(0 7 7)" fill="green" stroke="black" stroke-width="0.5" />
<rect x="117"  y="67" width="110" height="15" transform="rotate(0 7 7)" fill="green" stroke="black" stroke-width="0.5" />
<rect x="227"  y="67" width="110" height="15" transform="rotate(0 7 7)" fill="green" stroke="black" stroke-width="0.5" />
<rect x="337"  y="67" width="110" height="15" transform="rotate(0 7 7)" fill="green" stroke="black" stroke-width="0.5" />
<rect x="7"  y="82" width="110" height="15" transform="rotate(0 7 7)" fill="green" stroke="black" stroke-width="0.5" />
<rect x="117"  y="82" width="110" height="15" transform="rotate(0 7 7)" fill="green" stroke="black" stroke-width="0.5" />
<rect x="227"  y="82" width="110" height="15" transform="rotate(0 7 7)" fill="green" stroke="black" stroke-width="0.5" />
<rect x="337"  y="82" width="110" height="15" transform="rotate(0 7 7)" fill="green" stroke="black" stroke-width="0.5" />
<rect x="7"  y="97" width="110" height="15" transform="rotate(0 7 7)" fill="green" stroke="black" stroke-width="0.5" />
<rect x="117"  y="97" width="110" height="15" transform="rotate(0 7 7)" fill="green" stroke="black" stroke-width="0.5" />
<rect x="227"  y="97" width="110" height="15" transform="rotate(0 7 7)" fill="green" stroke="black" stroke-width="0.5" />
<rect x="337"  y="97" width="110" height="15" transform="rotate(0 7 7)" fill="green" stroke="black" stroke-width="0.5" />
<rect x="7"  y="112" width="110" height="15" transform="rotate(0 7 7)" fill="green" stroke="black" stroke-width="0.5" />
<rect x="117"  y="112" width="110" height="15" transform="rotate(0 7 7)" fill="green" stroke="black" stroke-width="0.5" />
<rect x="227"  y="112" width="110" height="15" transform="rotate(0 7 7)" fill="green" stroke="black" stroke-width="0.5" />
<rect x="337"  y="112" width="110" height="15" transform="rotate(0 7 7)" fill="green" stroke="black" stroke-width="0.5" />
<rect x="7"  y="127" width="110" height="15" transform="rotate(0 7 7)" fill="green" stroke="black" stroke-width="0.5" />
<rect x="117"  y="127" width="110" height="15" transform="rotate(0 7 7)" fill="green" stroke="black" stroke-width="0.5" />
<rect x="227"  y="127" width="110" height="15" transform="rotate(0 7 7)" fill="green" stroke="black" stroke-width="0.5" />
<rect x="337"  y="127" width="110" height="15" transform="rotate(0 7 7)" fill="green" stroke="black" stroke-width="0.5" />
<rect x="7"  y="142" width="110" height="15" transform="rotate(0 7 7)" fill="green" stroke="black" stroke-width="0.5" />
<rect x="117"  y="142" width="110" height="15" transform="rotate(0 7 7)" fill="green" stroke="black" stroke-width="0.5" />
<rect x="227"  y="142" width="110" height="15" transform="rotate(0 7 7)" fill="green" stroke="black" stroke-width="0.5" />
<rect x="337"  y="142" width="110" height="15" transform="rotate(0 7 7)" fill="green" stroke="black" stroke-width="0.5" />
<rect x="7"  y="157" width="110" height="15" transform="rotate(0 7 7)" fill="green" stroke="black" stroke-width="0.5" />
<rect x="117"  y="157" width="110" height="15" transform="rotate(0 7 7)" fill="green" stroke="black" stroke-width="0.5" />
<rect x="227"  y="157" width="110" height="15" transform="rotate(0 7 7)" fill="green" stroke="black" stroke-width="0.5" />
<rect x="337"  y="157" width="110" height="15" transform="rotate(0 7 7)" fill="green" stroke="black" stroke-width="0.5" />
<rect x="7"  y="172" width="110" height="15" transform="rotate(0 7 7)" fill="green" stroke="black" stroke-width="0.5" />
<rect x="117"  y="172" width="110" height="15" transform="rotate(0 7 7)" fill="green" stroke="black" stroke-width="0.5" />
<rect x="227"  y="172" width="110" height="15" transform="rotate(0 7 7)" fill="green" stroke="black" stroke-width="0.5" />
<rect x="337"  y="172" width="110" height="15" transform="rotate(0 7 7)" fill="green" stroke="black" stroke-width="0.5" />
<rect x="7"  y="187" width="110" height="15" transform="rotate(0 7 7)" fill="green" stroke="black" stroke-width="0.5" />
<rect x="117"  y="187" width="110" height="15" transform="rotate(0 7 7)" fill="green" stroke="black" stroke-width="0.5" />
<rect x="227"  y="187" width="110" height="15" transform="rotate(0 7 7)" fill="green" stroke="black" stroke-width="0.5" />
<rect x="337"  y="187" width="110" height="15" transform="rotate(0 7 7)" fill="green" stroke="black" stroke-width="0.5" />
<rect x="7"  y="202" width="110" height="15" transform="rotate(0 7 7)" fill="green" stroke="black" stroke-width="0.5" />
<rect x="117"  y="202" width="110" height="15" transform="rotate(0 7 7)" fill="green" stroke="black" stroke-width="0.5" />
<rect x="227"  y="202" width="110" height="15" transform="rotate(0 7 7)" fill="green" stroke="black" stroke-width="0.5" />
<rect x="337"  y="202" width="110" height="15" transform="rotate(0 7 7)" fill="green" stroke="black" stroke-width="0.5" />
<rect x="7"  y="217" width="110" height="15" transform="rotate(0 7 7)" fill="green" stroke="black" stroke-width="0.5" />
<rect x="117"  y="217" width="110" height="15" transform="rotate(0 7 7)" fill="green" stroke="black" stroke-width="0.5" />
<rect x="227"  y="217" width="110" height="15" transform="rotate(0 7 7)" fill="green" stroke="black" stroke-width="0.5" />
<rect x="337"  y="217" width="110" height="15" transform="rotate(0 7 7)" fill="green" stroke="black" stroke-width="0.5" />
<rect x="7"  y="232" width="110" height="15" transform="rotate(0 7 7)" fill="green" stroke="black" stroke-width="0.5" />
<rect x="117"  y="232" width="110" height="15" transform="rotate(0 7 7)" fill="green" stroke="black" stroke-width="0.5" />
<rect x="227"  y="232" width="110" height="15" transform="rotate(0 7 7)" fill="green" stroke="black" stroke-width="0.5" />
<rect x="337"  y="232" width="110" height="15" transform="rotate(0 7 7)" fill="green" stroke="black" stroke-width="0.5" />
<rect x="7"  y="247" width="110" height="15" transform="rotate(0 7 7)" fill="green" stroke="black" stroke-width="0.5" />
<rect x="117"  y="247" width="110" height="15" transform="rotate(0 7 7)" fill="green" stroke="black" stroke-width="0.5" />
<rect x="227"  y="247" width="110" height="15" transform="rotate(0 7 7)" fill="green" stroke="black" stroke-width="0.5" />
<rect x="337"  y="247" width="110" height="15" transform="rotate(0 7 7)" fill="green" stroke="black" stroke-width="0.5" />
<rect x="7"  y="262" width="110" height="15" transform="rotate(0 7 7)" fill="green" stroke="black" stroke-width="0.5" />
<rect x="117"  y="262" width="110" height="15" transform="rotate(0 7 7)" fill="green" stroke="black" stroke-width="0.5" />
<rect x="227"  y="262" width="110" height="15" transform="rotate(0 7 7)" fill="green" stroke="black" stroke-width="0.5" />
<rect x="337"  y="262" width="110" height="15" transform="rotate(0 7 7)" fill="green" stroke="black" stroke-width="0.5" />
<rect x="7"  y="277" width="110" height="15" transform="rotate(0 7 7)" fill="green" stroke="black" stroke-width="0.5" />
<rect x="117"  y="277" width="110" height="15" transform="rotate(0 7 7)" fill="green" stroke="black" stroke-width="0.5" />
<rect x="227"  y="277" width="110" height="15" transform="rotate(0 7 7)" fill="green" stroke="black" stroke-width="0.5" />
<rect x="337"  y="277" width="110" height="15" transform="rotate(0 7 7)" fill="green" stroke="black" stroke-width="0.5" />
<rect x="7"  y="292" width="110" height="15" transform="rotate(0 7 7)" fill="green" stroke="black" stroke-width="0.5" />
<rect x="117"  y="292" width="110" height="15" transform="rotate(0 7 7)" fill="green" stroke="black" stroke-width="0.5" />
<rect x="227"  y="292" width="110" height="15" transform="rotate(0 7 7)" fill="green" stroke="black" stroke-width="0.5" />
<rect x="337"  y="292" width="110" height="15" transform="rotate(0 7 7)" fill="green" stroke="black" stroke-width="0.5" />
<rect x="7"  y="307" width="110" height="15" transform="rotate(0 7 7)" fill="green" stroke="black" stroke-width="0.5" />
<rect x="117"  y="307" width="110" height="15" transform="rotate(0 7 7)" fill="green" stroke="black" stroke-width="0.5" />
<rect x="227"  y="307" width="110" height="15" transform="rotate(0 7 7)" fill="green" stroke="black" stroke-width="0.5" />
<rect x="337"  y="307" width="110" height="15" transform="rotate(0 7 7)" fill="green" stroke="black" stroke-width="0.5" />
<rect x="7"  y="322" width="110" height="15" transform="rotate(0 7 7)" fill="green" stroke="black" stroke-width="0.5" />
<rect x="117"  y="322" width="110" height="15" transform="rotate(0 7 7)" fill="green" stroke="black" stroke-width="0.5" />
<rect x="227"  y="322" width="110" height="15" transform="rotate(0 7 7)" fill="green" stroke="black" stroke-width="0.5" />
<rect x="337"  y="322" width="110" height="15" transform="rotate(0 7 7)" fill="green" stroke="black" stroke-width="0.5" />
<rect x="7"  y="337" width="110" height="15" transform="rotate(0 7 7)" fill="green" stroke="black" stroke-width="0.5" />
<rect x="117"  y="337" width="110" height="15" transform="rotate(0 7 7)" fill="green" stroke="black" stroke-width="0.5" />
<rect x="227"  y="337" width="110" height="15" transform="rotate(0 7 7)" fill="green" stroke="black" stroke-width="0.5" />
<rect x="337"  y="337" width="110" height="15" transform="rotate(0 7 7)" fill="green" stroke="black" stroke-width="0.5" />
<rect x="7"  y="352" width="110" height="15" transform="rotate(0 7 7)" fill="green" stroke="black" stroke-width="0.5" />
<rect x="117"  y="352" width="110" height="15" transform="rotate(0 7 7)" fill="green" stroke="black" stroke-width="0.5" />
<rect x="227"  y="352" width="110" height="15" transform="rotate(0 7 7)" fill="green" stroke="black" stroke-width="0.5" />
<rect x="337"  y="352" width="110" height="15" transform="rotate(0 7 7)" fill="green" stroke="black" stroke-width="0.5" />
<rect x="7"  y="367" width="110" height="15" transform="rotate(0 7 7)" fill="green" stroke="black" stroke-width="0.5" />
<rect x="117"  y="367" width="110" height="15" transform="rotate(0 7 7)" fill="green" stroke="black" stroke-width="0.5" />
<rect x="227"  y="367" width="110" height="15" transform="rotate(0 7 7)" fill="green" stroke="black" stroke-width="0.5" />
<rect x="337"  y="367" width="110" height="15" transform="rotate(0 7 7)" fill="green" stroke="black" stroke-width="0.5" />
<rect x="7"  y="382" width="110" height="15" transform="rotate(0 7 7)" fill="green" stroke="black" stroke-width="0.5" />
<rect x="117"  y="382" width="110" height="15" transform="rotate(0 7 7)" fill="green" stroke="black" stroke-width="0.5" />
<rect x="227"  y="382" width="110" height="15" transform="rotate(0 7 7)" fill="green" stroke="black" stroke-width="0.5" />
<rect x="337"  y="382" width="110" height="15" transform="rotate(0 7 7)" fill="green" stroke="black" stroke-width="0.5" />
<rect x="7"  y="397" width="110" height="15" transform="rotate(0 7 7)" fill="green" stroke="black" stroke-width="0.5" />
<rect x="117"  y="397" width="110" height="15" transform="rotate(0 7 7)" fill="green" stroke="black" stroke-width="0.5" />
<rect x="227"  y="397" width="110" height="15" transform="rotate(0 7 7)" fill="green" stroke="black" stroke-width="0.5" />
<rect x="337"  y="397" width="110" height="15" transform="rotate(0 7 7)" fill="green" stroke="black" stroke-width="0.5" />
<rect x="7"  y="412" width="110" height="15" transform="rotate(0 7 7)" fill="green" stroke="black" stroke-width="0.5" />
<rect x="117"  y="412" width="110" height="15" transform="rotate(0 7 7)" fill="green" stroke="black" stroke-width="0.5" />
<rect x="227"  y="412" width="110" height="15" transform="rotate(0 7 7)" fill="green" stroke="black" stroke-width="0.5" />
<rect x="337"  y="412" width="110" height="15" transform="rotate(0 7 7)" fill="green" stroke="black" stroke-width="0.5" />
<rect x="7"  y="427" width="110" height="15" transform="rotate(0 7 7)" fill="green" stroke="black" stroke-width="0.5" />
<rect x="117"  y="427" width="110" height="15" transform="rotate(0 7 7)" fill="green" stroke="black" stroke-width="0.5" />
<rect x="227"  y="427" width="110" height="15" transform="rotate(0 7 7)" fill="green" stroke="black" stroke-width="0.5" />
<rect x="337"  y="427" width="110" height="15" transform="rotate(0 7 7)" fill="green" stroke="black" stroke-width="0.5" />
<rect x="7"  y="442" width="110" height="15" transform="rotate(0 7 7)" fill="green" stroke="black" stroke-width="0.5" />
<rect x="117"  y="442" width="110" height="15" transform="rotate(0 7 7)" fill="green" stroke="black" stroke-width="0.5" />
<rect x="227"  y="442" width="110" height="15" transform="rotate(0 7 7)" fill="green" stroke="black" stroke-width="0.5" />
<rect x="337"  y="442" width="110" height="15" transform="rotate(0 7 7)" fill="green" stroke="black" stroke-width="0.5" />
<rect x="7"  y="457" width="110" height="15" transform="rotate(0 7 7)" fill="green" stroke="black" stroke-width="0.5" />
<rect x="117"  y="457" width="110" height="15" transform="rotate(0 7 7)" fill="green" stroke="black" stroke-width="0.5" />
<rect x="227"  y="457" width="110" height="15" transform="rotate(0 7 7)" fill="green" stroke="black" stroke-width="0.5" />
<rect x="337"  y="457" width="110" height="15" transform="rotate(0 7 7)" fill="green" stroke="black" stroke-width="0.5" />
<rect x="7"  y="472" width="110" height="15" transform="rotate(0 7 7)" fill="green" stroke="black" stroke-width="0.5" />
<rect x="117"  y="472" width="110" height="15" transform="rotate(0 7 7)" fill="green" stroke="black" stroke-width="0.5" />
<rect x="227"  y="472" width="110" height="15" transform="rotate(0 7 7)" fill="green" stroke="black" stroke-width="0.5" />
<rect x="337"  y="472" width="110" height="15" transform="rotate(0 7 7)" fill="green" stroke="black" stroke-width="0.5" />
<rect x="7"  y="487" width="110" height="15" transform="rotate(0 7 7)" fill="green" stroke="black" stroke-width="0.5" />
<rect x="117"  y="487" width="110" height="15" transform="rotate(0 7 7)" fill="green" stroke="black" stroke-width="0.5" />
<rect x="227"  y="487" width="110" height="15" transform="rotate(0 7 7)" fill="green" stroke="black" stroke-width="0.5" />
<rect x="337"  y="487" width="110" height="15" transform="rotate(0 7 7)" fill="green" stroke="black" stroke-width="0.5" />
<rect x="7"  y="502" width="110" height="15" transform="rotate(0 7 7)" fill="green" stroke="black" stroke-width="0.5" />
<rect x="117"  y="502" width="110" height="15" transform="rotate(0 7 7)" fill="green" stroke="black" stroke-width="0.5" />
<rect x="227"  y="502" width="110" height="15" transform="rotate(0 7 7)" fill="green" stroke="black" stroke-width="0.5" />
<rect x="337"  y="502" width="110" height="15" transform="rotate(0 7 7)" fill="green" stroke="black" stroke-width="0.5" />
<rect x="7"  y="517" width="110" height="15" transform="rotate(0 7 7)" fill="green" stroke="black" stroke-width="0.5" />
<rect x="117"  y="517" width="110" height="15" transform="rotate(0 7 7)" fill="green" stroke="black" stroke-width="0.5" />
<rect x="227"  y="517" width="110" height="15" transform="rotate(0 7 7)" fill="green" stroke="black" stroke-width="0.5" />
<rect x="337"  y="517" width="110" height="15" transform="rotate(0 7 7)" fill="green" stroke="black" stroke-width="0.5" />
<rect x="7"  y="532" width="110" height="15" transform="rotate(0 7 7)" fill="green" stroke="black" stroke-width="0.5" />
<rect x="117"  y="532" width="110" height="15" transform="rotate(0 7 7)" fill="green" stroke="black" stroke-width="0.5" />
<rect x="227"  y="532" width="110" height="15" transform="rotate(0 7 7)" fill="green" stroke="black" stroke-width="0.5" />
<rect x="337"  y="532" width="110" height="15" transform="rotate(0 7 7)" fill="green" stroke="black" stroke-width="0.5" />
<rect x="7"  y="547" width="110" height="15" transform="rotate(0 7 7)" fill="green" stroke="black" stroke-width="0.5" />
<rect x="117"  y="547" width="110" height="15" transform="rotate(0 7 7)" fill="green" stroke="black" stroke-width="0.5" />
<rect x="227"  y="547" width="110" height="15" transform="rotate(0 7 7)" fill="green" stroke="black" stroke-width="0.5" />
<rect x="337"  y="547" width="110" height="15" transform="rotate(0 7 7)" fill="green" stroke="black" stroke-width="0.5" />
<rect x="7"  y="562" width="110" height="15" transform="rotate(0 7 7)" fill="green" stroke="black" stroke-width="0.5" />
<rect x="117"  y="562" width="110" height="15" transform="rotate(0 7 7)" fill="green" stroke="black" stroke-width="0.5" />
<rect x="227"  y="562" width="110" height="15" transform="rotate(0 7 7)" fill="green" stroke="black" stroke-width="0.5" />
<rect x="337"  y="562" width="110" height="15" transform="rotate(0 7 7)" fill="green" stroke="black" stroke-width="0.5" />
<rect x="7"  y="577" width="110" height="15" transform="rotate(0 7 7)" fill="green" stroke="black" stroke-width="0.5" />
<rect x="117"  y="577" width="110" height="15" transform="rotate(0 7 7)" fill="green" stroke="black" stroke-width="0.5" />
<rect x="227"  y="577" width="110" height="15" transform="rotate(0 7 7)" fill="green" stroke="black" stroke-width="0.5" />
<rect x="337"  y="577" width="110" height="15" transform="rotate(0 7 7)" fill="green" stroke="black" stroke-width="0.5" />
<rect x="7"  y="592" width="110" height="15" transform="rotate(0 7 7)" fill="green" stroke="black" stroke-width="0.5" />
<rect x="117"  y="592" width="110" height="15" transform="rotate(0 7 7)" fill="green" stroke="black" stroke-width="0.5" />
<rect x="227"  y="592" width="110" height="15" transform="rotate(0 7 7)" fill="green" stroke="black" stroke-width="0.5" />
<rect x="337"  y="592" width="110" height="15" transform="rotate(0 7 7)" fill="green" stroke="black" stroke-width="0.5" />
<rect x="7"  y="607" width="110" height="15" transform="rotate(0 7 7)" fill="green" stroke="black" stroke-width="0.5" />
<rect x="117"  y="607" width="110" height="15" transform="rotate(0 7 7)" fill="green" stroke="black" stroke-width="0.5" />
<rect x="227"  y="607" width="110" height="15" transform="rotate(0 7 7)" fill="green" stroke="black" stroke-width="0.5" />
<rect x="337"  y="607" width="110" height="15" transform="rotate(0 7 7)" fill="green" stroke="black" stroke-width="0.5" />
<rect x="7"  y="622" width="110" height="15" transform="rotate(0 7 7)" fill="green" stroke="black" stroke-width="0.5" />
<rect x="117"  y="622" width="110" height="15" transform="rotate(0 7 7)" fill="green" stroke="black" stroke-width="0.5" />
<rect x="227"  y="622" width="110" height="15" transform="rotate(0 7 7)" fill="green" stroke="black" stroke-width="0.5" />
<rect x="337"  y="622" width="110" height="15" transform="rotate(0 7 7)" fill="green" stroke="black" stroke-width="0.5" />
<rect x="7"  y="637" width="110" height="15" transform="rotate(0 7 7)" fill="green" stroke="black" stroke-width="0.5" />
<rect x="117"  y="637" width="110" height="15" transform="rotate(0 7 7)" fill="green" stroke="black" stroke-width="0.5" />
<rect x="227"  y="637" width="110" height="15" transform="rotate(0 7 7)" fill="green" stroke="black" stroke-width="0.5" />
<rect x="337"  y="637" width="110" height="15" transform="rotate(0 7 7)" fill="green" stroke="black" stroke-width="0.5" />
<rect x="7"  y="652" width="110" height="15" transform="rotate(0 7 7)" fill="green" stroke="black" stroke-width="0.5" />
<rect x="117"  y="652" width="110" height="15" transform="rotate(0 7 7)" fill="green" stroke="black" stroke-width="0.5" />
<rect x="227"  y="652" width="110" height="15" transform="rotate(0 7 7)" fill="green" stroke="black" stroke-width="0.5" />
<rect x="337"  y="652" width="110" height="15" transform="rotate(0 7 7)" fill="green" stroke="black" stroke-width="0.5" />
<rect x="7"  y="667" width="110" height="15" transform="rotate(0 7 7)" fill="green" stroke="black" stroke-width="0.5" />
<rect x="117"  y="667" width="110" height="15" transform="rotate(0 7 7)" fill="green" stroke="black" stroke-width="0.5" />
<rect x="227"  y="667" width="110" height="15" transform="rotate(0 7 7)" fill="green" stroke="black" stroke-width="0.5" />
<rect x="337"  y="667" width="110" height="15" transform="rotate(0 7 7)" fill="green" stroke="black" stroke-width="0.5" />
<rect x="7"  y="682" width="110" height="15" transform="rotate(0 7 7)" fill="green" stroke="black" stroke-width="0.5" />
<rect x="117"  y="682" width="110" height="15" transform="rotate(0 7 7)" fill="green" stroke="black" stroke-width="0.5" />
<rect x="227"  y="682" width="110" height="15" transform="rotate(0 7 7)" fill="green" stroke="black" stroke-width="0.5" />
<rect x="337"  y="682" width="110" height="15" transform="rotate(0 7 7)" fill="green" stroke="black" stroke-width="0.5" />
<rect x="7"  y="697" width="110" height="15" transform="rotate(0 7 7)" fill="green" stroke="black" stroke-width="0.5" />
<rect x="117"  y="697" width="110" height="15" transform="rotate(0 7 7)" fill="green" stroke="black" stroke-width="0.5" />
<rect x="227"  y="697" width="110" height="15" transform="rotate(0 7 7)" fill="green" stroke="black" stroke-width="0.5" />
<rect x="337"  y="697" width="110" height="15" transform="rotate(0 7 7)" fill="green" stroke="black" stroke-width="0.5" />
<rect x="7"  y="712" width="110" height="15" transform="rotate(0 7 7)" fill="green" stroke="black" stroke-width="0.5" />
<rect x="117"  y="712" width="110" height="15" transform="rotate(0 7 7)" fill="green" stroke="black" stroke-width="0.5" />
<rect x="227"  y="712" width="110" height="15" transform="rotate(0 7 7)" fill="green" stroke="black" stroke-width="0.5" />
<rect x="337"  y="712" width="110" height="15" transform="rotate(0 7 7)" fill="green" stroke="black" stroke-width="0.5" />
<rect x="7"  y="727" width="110" height="15" transform="rotate(0 7 7)" fill="green" stroke="black" stroke-width="0.5" />
<rect x="117"  y="727" width="110" height="15" transform="rotate(0 7 7)" fill="green" stroke="black" stroke-width="0.5" />
<rect x="227"  y="727" width="110" height="15" transform="rotate(0 7 7)" fill="green" stroke="black" stroke-width="0.5" />
<rect x="337"  y="727" width="110" height="15" transform="rotate(0 7 7)" fill="green" stroke="black" stroke-width="0.5" />
<rect x="7"  y="742" width="110" height="15" transform="rotate(0 7 7)" fill="green" stroke="black" stroke-width="0.5" />
<rect x="117"  y="742" width="110" height="15" transform="rotate(0 7 7)" fill="green" stroke="black" stroke-width="0.5" />
<rect x="227"  y="742" width="110" height="15" transform="rotate(0 7 7)" fill="green" stroke="black" stroke-width="0.5" />
<rect x="337"  y="742" width="110" height="15" transform="rotate(0 7 7)" fill="green" stroke="black" stroke-width="0.5" />
<rect x="447"  y="7" width="15" height="110" transform="rotate(0 7 7)" fill="green" stroke="black" stroke-width="0.5" />
<rect x="447"  y="117" width="15" height="110" transform="rotate(0 7 7)" fill="green" stroke="black" stroke-width="0.5" />
<rect x="447"  y="227" width="15" height="110" transform="rotate(0 7 7)" fill="green" stroke="black" stroke-width="0.5" />
<rect x="447"  y="337" width="15" height="110" transform="rotate(0 7 7)" fill="green" stroke="black" stroke-width="0.5" />
<rect x="447"  y="447" width="15" height="110" transform="rotate(0 7 7)" fill="green" stroke="black" stroke-width="0.5" />
<rect x="447"  y="557" width="15" height="110" transform="rotate(0 7 7)" fill="green" stroke="black" stroke-width="0.5" />
<rect x="462"  y="7" width="15" height="110" transform="rotate(0 7 7)" fill="green" stroke="black" stroke-width="0.5" />
<rect x="462"  y="117" width="15" height="110" transform="rotate(0 7 7)" fill="green" stroke="black" stroke-width="0.5" />
<rect x="462"  y="227" width="15" height="110" transform="rotate(0 7 7)" fill="green" stroke="black" stroke-width="0.5" />
<rect x="462"  y="337" width="15" height="110" transform="rotate(0 7 7)" fill="green" stroke="black" stroke-width="0.5" />
<rect x="462"  y="447" width="15" height="110" transform="rotate(0 7 7)" fill="green" stroke="black" stroke-width="0.5" />
<rect x="462"  y="557" width="15" height="110" transform="rotate(0 7 7)" fill="green" stroke="black" stroke-width="0.5" />
<rect x="477"  y="7" width="15" height="110" transform="rotate(0 7 7)" fill="green" stroke="black" stroke-width="0.5" />
<rect x="477"  y="117" width="15" height="110" transform="rotate(0 7 7)" fill="green" stroke="black" stroke-width="0.5" />
<rect x="477"  y="227" width="15" height="110" transform="rotate(0 7 7)" fill="green" stroke="black" stroke-width="0.5" />
<rect x="477"  y="337" width="15" height="110" transform="rotate(0 7 7)" fill="green" stroke="black" stroke-width="0.5" />
<rect x="477"  y="447" width="15" height="110" transform="rotate(0 7 7)" fill="green" stroke="black" stroke-width="0.5" />
<rect x="477"  y="557" width="15" height="110" transform="rotate(0 7 7)" fill="green" stroke="black" stroke-width="0.5" />
</svg>
