<svg version="1.1" baseProfile="full" xmlns="http://www.w3.org/2000/svg">
<circle cx="531" cy="531" r="500" transform="rotate(0 31 31)" fill="dimgrey" stroke="black" stroke-width="0.5" />
<circle cx="531" cy="61" r="30" transform="rotate(0 531 531)" fill="cyan" stroke="black" stroke-width="0.5" />
<circle cx="531" cy="61" r="30" transform="rotate(7.34694 531 531)" fill="cyan" stroke="black" stroke-width="0.5" />
<circle cx="531" cy="61" r="30" transform="rotate(14.6939 531 531)" fill="cyan" stroke="black" stroke-width="0.5" />
<circle cx="531" cy="61" r="30" transform="rotate(22.0408 531 531)" fill="cyan" stroke="black" stroke-width="0.5" />
<circle cx="531" cy="61" r="30" transform="rotate(29.3878 531 531)" fill="cyan" stroke="black" stroke-width="0.5" />
<circle cx="531" cy="61" r="30" transform="rotate(36.7347 531 531)" fill="cyan" stroke="black" stroke-width="0.5" />
<circle cx="531" cy="61" r="30" transform="rotate(44.0816 531 531)" fill="cyan" stroke="black" stroke-width="0.5" />
<circle cx="531" cy="61" r="30" transform="rotate(51.4286 531 531)" fill="cyan" stroke="black" stroke-width="0.5" />
<circle cx="531" cy="61" r="30" transform="rotate(58.7755 531 531)" fill="cyan" stroke="black" stroke-width="0.5" />
<circle cx="531" cy="61" r="30" transform="rotate(66.1224 531 531)" fill="cyan" stroke="black" stroke-width="0.5" />
<circle cx="531" cy="61" r="30" transform="rotate(73.4694 531 531)" fill="cyan" stroke="black" stroke-width="0.5" />
<circle cx="531" cy="61" r="30" transform="rotate(80.8163 531 531)" fill="cyan" stroke="black" stroke-width="0.5" />
<circle cx="531" cy="61" r="30" transform="rotate(88.1633 531 531)" fill="cyan" stroke="black" stroke-width="0.5" />
<circle cx="531" cy="61" r="30" transform="rotate(95.5102 531 531)" fill="cyan" stroke="black" stroke-width="0.5" />
<circle cx="531" cy="61" r="30" transform="rotate(102.857 531 531)" fill="cyan" stroke="black" stroke-width="0.5" />
<circle cx="531" cy="61" r="30" transform="rotate(110.204 531 531)" fill="cyan" stroke="black" stroke-width="0.5" />
<circle cx="531" cy="61" r="30" transform="rotate(117.551 531 531)" fill="cyan" stroke="black" stroke-width="0.5" />
<circle cx="531" cy="61" r="30" transform="rotate(124.898 531 531)" fill="cyan" stroke="black" stroke-width="0.5" />
<circle cx="531" cy="61" r="30" transform="rotate(132.245 531 531)" fill="cyan" stroke="black" stroke-width="0.5" />
<circle cx="531" cy="61" r="30" transform="rotate(139.592 531 531)" fill="cyan" stroke="black" stroke-width="0.5" />
<circle cx="531" cy="61" r="30" transform="rotate(146.939 531 531)" fill="cyan" stroke="black" stroke-width="0.5" />
<circle cx="531" cy="61" r="30" transform="rotate(154.286 531 531)" fill="cyan" stroke="black" stroke-width="0.5" />
<circle cx="531" cy="61" r="30" transform="rotate(161.633 531 531)" fill="cyan" stroke="black" stroke-width="0.5" />
<circle cx="531" cy="61" r="30" transform="rotate(168.98 531 531)" fill="cyan" stroke="black" stroke-width="0.5" />
<circle cx="531" cy="61" r="30" transform="rotate(176.327 531 531)" fill="cyan" stroke="black" stroke-width="0.5" />
<circle cx="531" cy="61" r="30" transform="rotate(183.673 531 531)" fill="cyan" stroke="black" stroke-width="0.5" />
<circle cx="531" cy="61" r="30" transform="rotate(191.02 531 531)" fill="cyan" stroke="black" stroke-width="0.5" />
<circle cx="531" cy="61" r="30" transform="rotate(198.367 531 531)" fill="cyan" stroke="black" stroke-width="0.5" />
<circle cx="531" cy="61" r="30" transform="rotate(205.714 531 531)" fill="cyan" stroke="black" stroke-width="0.5" />
<circle cx="531" cy="61" r="30" transform="rotate(213.061 531 531)" fill="cyan" stroke="black" stroke-width="0.5" />
<circle cx="531" cy="61" r="30" transform="rotate(220.408 531 531)" fill="cyan" stroke="black" stroke-width="0.5" />
<circle cx="531" cy="61" r="30" transform="rotate(227.755 531 531)" fill="cyan" stroke="black" stroke-width="0.5" />
<circle cx="531" cy="61" r="30" transform="rotate(235.102 531 531)" fill="cyan" stroke="black" stroke-width="0.5" />
<circle cx="531" cy="61" r="30" transform="rotate(242.449 531 531)" fill="cyan" stroke="black" stroke-width="0.5" />
<circle cx="531" cy="61" r="30" transform="rotate(249.796 531 531)" fill="cyan" stroke="black" stroke-width="0.5" />
<circle cx="531" cy="61" r="30" transform="rotate(257.143 531 531)" fill="cyan" stroke="black" stroke-width="0.5" />
<circle cx="531" cy="61" r="30" transform="rotate(264.49 531 531)" fill="cyan" stroke="black" stroke-width="0.5" />
<circle cx="531" cy="61" r="30" transform="rotate(271.837 531 531)" fill="cyan" stroke="black" stroke-width="0.5" />
<circle cx="531" cy="61" r="30" transform="rotate(279.184 531 531)" fill="cyan" stroke="black" stroke-width="0.5" />
<circle cx="531" cy="61" r="30" transform="rotate(286.531 531 531)" fill="cyan" stroke="black" stroke-width="0.5" />
<circle cx="531" cy="61" r="30" transform="rotate(293.878 531 531)" fill="cyan" stroke="black" stroke-width="0.5" />
<circle cx="531" cy="61" r="30" transform="rotate(301.224 531 531)" fill="cyan" stroke="black" stroke-width="0.5" />
<circle cx="531" cy="61" r="30" transform="rotate(308.571 531 531)" fill="cyan" stroke="black" stroke-width="0.5" />
<circle cx="531" cy="61" r="30" transform="rotate(315.918 531 531)" fill="cyan" stroke="black" stroke-width="0.5" />
<circle cx="531" cy="61" r="30" transform="rotate(323.265 531 531)" fill="cyan" stroke="black" stroke-width="0.5" />
<circle cx="531" cy="61" r="30" transform="rotate(330.612 531 531)" fill="cyan" stroke="black" stroke-width="0.5" />
<circle cx="531" cy="61" r="30" transform="rotate(337.959 531 531)" fill="cyan" stroke="black" stroke-width="0.5" />
<circle cx="531" cy="61" r="30" transform="rotate(345.306 531 531)" fill="cyan" stroke="black" stroke-width="0.5" />
<circle cx="531" cy="61" r="30" transform="rotate(352.653 531 531)" fill="cyan" stroke="black" stroke-width="0.5" />
<circle cx="531" cy="121" r="30" transform="rotate(0 531 531)" fill="cyan" stroke="black" stroke-width="0.5" />
<circle cx="531" cy="121" r="30" transform="rotate(8.57143 531 531)" fill="cyan" stroke="black" stroke-width="0.5" />
<circle cx="531" cy="121" r="30" transform="rotate(17.1429 531 531)" fill="cyan" stroke="black" stroke-width="0.5" />
<circle cx="531" cy="121" r="30" transform="rotate(25.7143 531 531)" fill="cyan" stroke="black" stroke-width="0.5" />
<circle cx="531" cy="121" r="30" transform="rotate(34.2857 531 531)" fill="cyan" stroke="black" stroke-width="0.5" />
<circle cx="531" cy="121" r="30" transform="rotate(42.8571 531 531)" fill="cyan" stroke="black" stroke-width="0.5" />
<circle cx="531" cy="121" r="30" transform="rotate(51.4286 531 531)" fill="cyan" stroke="black" stroke-width="0.5" />
<circle cx="531" cy="121" r="30" transform="rotate(60 531 531)" fill="cyan" stroke="black" stroke-width="0.5" />
<circle cx="531" cy="121" r="30" transform="rotate(68.5714 531 531)" fill="cyan" stroke="black" stroke-width="0.5" />
<circle cx="531" cy="121" r="30" transform="rotate(77.1429 531 531)" fill="cyan" stroke="black" stroke-width="0.5" />
<circle cx="531" cy="121" r="30" transform="rotate(85.7143 531 531)" fill="cyan" stroke="black" stroke-width="0.5" />
<circle cx="531" cy="121" r="30" transform="rotate(94.2857 531 531)" fill="cyan" stroke="black" stroke-width="0.5" />
<circle cx="531" cy="121" r="30" transform="rotate(102.857 531 531)" fill="cyan" stroke="black" stroke-width="0.5" />
<circle cx="531" cy="121" r="30" transform="rotate(111.429 531 531)" fill="cyan" stroke="black" stroke-width="0.5" />
<circle cx="531" cy="121" r="30" transform="rotate(120 531 531)" fill="cyan" stroke="black" stroke-width="0.5" />
<circle cx="531" cy="121" r="30" transform="rotate(128.571 531 531)" fill="cyan" stroke="black" stroke-width="0.5" />
<circle cx="531" cy="121" r="30" transform="rotate(137.143 531 531)" fill="cyan" stroke="black" stroke-width="0.5" />
<circle cx="531" cy="121" r="30" transform="rotate(145.714 531 531)" fill="cyan" stroke="black" stroke-width="0.5" />
<circle cx="531" cy="121" r="30" transform="rotate(154.286 531 531)" fill="cyan" stroke="black" stroke-width="0.5" />
<circle cx="531" cy="121" r="30" transform="rotate(162.857 531 531)" fill="cyan" stroke="black" stroke-width="0.5" />
<circle cx="531" cy="121" r="30" transform="rotate(171.429 531 531)" fill="cyan" stroke="black" stroke-width="0.5" />
<circle cx="531" cy="121" r="30" transform="rotate(180 531 531)" fill="cyan" stroke="black" stroke-width="0.5" />
<circle cx="531" cy="121" r="30" transform="rotate(188.571 531 531)" fill="cyan" stroke="black" stroke-width="0.5" />
<circle cx="531" cy="121" r="30" transform="rotate(197.143 531 531)" fill="cyan" stroke="black" stroke-width="0.5" />
<circle cx="531" cy="121" r="30" transform="rotate(205.714 531 531)" fill="cyan" stroke="black" stroke-width="0.5" />
<circle cx="531" cy="121" r="30" transform="rotate(214.286 531 531)" fill="cyan" stroke="black" stroke-width="0.5" />
<circle cx="531" cy="121" r="30" transform="rotate(222.857 531 531)" fill="cyan" stroke="black" stroke-width="0.5" />
<circle cx="531" cy="121" r="30" transform="rotate(231.429 531 531)" fill="cyan" stroke="black" stroke-width="0.5" />
<circle cx="531" cy="121" r="30" transform="rotate(240 531 531)" fill="cyan" stroke="black" stroke-width="0.5" />
<circle cx="531" cy="121" r="30" transform="rotate(248.571 531 531)" fill="cyan" stroke="black" stroke-width="0.5" />
<circle cx="531" cy="121" r="30" transform="rotate(257.143 531 531)" fill="cyan" stroke="black" stroke-width="0.5" />
<circle cx="531" cy="121" r="30" transform="rotate(265.714 531 531)" fill="cyan" stroke="black" stroke-width="0.5" />
<circle cx="531" cy="121" r="30" transform="rotate(274.286 531 531)" fill="cyan" stroke="black" stroke-width="0.5" />
<circle cx="531" cy="121" r="30" transform="rotate(282.857 531 531)" fill="cyan" stroke="black" stroke-width="0.5" />
<circle cx="531" cy="121" r="30" transform="rotate(291.429 531 531)" fill="cyan" stroke="black" stroke-width="0.5" />
<circle cx="531" cy="121" r="30" transform="rotate(300 531 531)" fill="cyan" stroke="black" stroke-width="0.5" />
<circle cx="531" cy="121" r="30" transform="rotate(308.571 531 531)" fill="cyan" stroke="black" stroke-width="0.5" />
<circle cx="531" cy="121" r="30" transform="rotate(317.143 531 531)" fill="cyan" stroke="black" stroke-width="0.5" />
<circle cx="531" cy="121" r="30" transform="rotate(325.714 531 531)" fill="cyan" stroke="black" stroke-width="0.5" />
<circle cx="531" cy="121" r="30" transform="rotate(334.286 531 531)" fill="cyan" stroke="black" stroke-width="0.5" />
<circle cx="531" cy="121" r="30" transform="rotate(342.857 531 531)" fill="cyan" stroke="black" stroke-width="0.5" />
<circle cx="531" cy="121" r="30" transform="rotate(351.429 531 531)" fill="cyan" stroke="black" stroke-width="0.5" />
<circle cx="531" cy="181" r="30" transform="rotate(0 531 531)" fill="cyan" stroke="black" stroke-width="0.5" />
<circle cx="531" cy="181" r="30" transform="rotate(10 531 531)" fill="cyan" stroke="black" stroke-width="0.5" />
<circle cx="531" cy="181" r="30" transform="rotate(20 531 531)" fill="cyan" stroke="black" stroke-width="0.5" />
<circle cx="531" cy="181" r="30" transform="rotate(30 531 531)" fill="cyan" stroke="black" stroke-width="0.5" />
<circle cx="531" cy="181" r="30" transform="rotate(40 531 531)" fill="cyan" stroke="black" stroke-width="0.5" />
<circle cx="531" cy="181" r="30" transform="rotate(50 531 531)" fill="cyan" stroke="black" stroke-width="0.5" />
<circle cx="531" cy="181" r="30" transform="rotate(60 531 531)" fill="cyan" stroke="black" stroke-width="0.5" />
<circle cx="531" cy="181" r="30" transform="rotate(70 531 531)" fill="cyan" stroke="black" stroke-width="0.5" />
<circle cx="531" cy="181" r="30" transform="rotate(80 531 531)" fill="cyan" stroke="black" stroke-width="0.5" />
<circle cx="531" cy="181" r="30" transform="rotate(90 531 531)" fill="cyan" stroke="black" stroke-width="0.5" />
<circle cx="531" cy="181" r="30" transform="rotate(100 531 531)" fill="cyan" stroke="black" stroke-width="0.5" />
<circle cx="531" cy="181" r="30" transform="rotate(110 531 531)" fill="cyan" stroke="black" stroke-width="0.5" />
<circle cx="531" cy="181" r="30" transform="rotate(120 531 531)" fill="cyan" stroke="black" stroke-width="0.5" />
<circle cx="531" cy="181" r="30" transform="rotate(130 531 531)" fill="cyan" stroke="black" stroke-width="0.5" />
<circle cx="531" cy="181" r="30" transform="rotate(140 531 531)" fill="cyan" stroke="black" stroke-width="0.5" />
<circle cx="531" cy="181" r="30" transform="rotate(150 531 531)" fill="cyan" stroke="black" stroke-width="0.5" />
<circle cx="531" cy="181" r="30" transform="rotate(160 531 531)" fill="cyan" stroke="black" stroke-width="0.5" />
<circle cx="531" cy="181" r="30" transform="rotate(170 531 531)" fill="cyan" stroke="black" stroke-width="0.5" />
<circle cx="531" cy="181" r="30" transform="rotate(180 531 531)" fill="cyan" stroke="black" stroke-width="0.5" />
<circle cx="531" cy="181" r="30" transform="rotate(190 531 531)" fill="cyan" stroke="black" stroke-width="0.5" />
<circle cx="531" cy="181" r="30" transform="rotate(200 531 531)" fill="cyan" stroke="black" stroke-width="0.5" />
<circle cx="531" cy="181" r="30" transform="rotate(210 531 531)" fill="cyan" stroke="black" stroke-width="0.5" />
<circle cx="531" cy="181" r="30" transform="rotate(220 531 531)" fill="cyan" stroke="black" stroke-width="0.5" />
<circle cx="531" cy="181" r="30" transform="rotate(230 531 531)" fill="cyan" stroke="black" stroke-width="0.5" />
<circle cx="531" cy="181" r="30" transform="rotate(240 531 531)" fill="cyan" stroke="black" stroke-width="0.5" />
<circle cx="531" cy="181" r="30" transform="rotate(250 531 531)" fill="cyan" stroke="black" stroke-width="0.5" />
<circle cx="531" cy="181" r="30" transform="rotate(260 531 531)" fill="cyan" stroke="black" stroke-width="0.5" />
<circle cx="531" cy="181" r="30" transform="rotate(270 531 531)" fill="cyan" stroke="black" stroke-width="0.5" />
<circle cx="531" cy="181" r="30" transform="rotate(280 531 531)" fill="cyan" stroke="black" stroke-width="0.5" />
<circle cx="531" cy="181" r="30" transform="rotate(290 531 531)" fill="cyan" stroke="black" stroke-width="0.5" />
<circle cx="531" cy="181" r="30" transform="rotate(300 531 531)" fill="cyan" stroke="black" stroke-width="0.5" />
<circle cx="531" cy="181" r="30" transform="rotate(310 531 531)" fill="cyan" stroke="black" stroke-width="0.5" />
<circle cx="531" cy="181" r="30" transform="rotate(320 531 531)" fill="cyan" stroke="black" stroke-width="0.5" />
<circle cx="531" cy="181" r="30" transform="rotate(330 531 531)" fill="cyan" stroke="black" stroke-width="0.5" />
<circle cx="531" cy="181" r="30" transform="rotate(340 531 531)" fill="cyan" stroke="black" stroke-width="0.5" />
<circle cx="531" cy="181" r="30" transform="rotate(350 531 531)" fill="cyan" stroke="black" stroke-width="0.5" />
<circle cx="531" cy="241" r="30" transform="rotate(0 531 531)" fill="cyan" stroke="black" stroke-width="0.5" />
<circle cx="531" cy="241" r="30" transform="rotate(12 531 531)" fill="cyan" stroke="black" stroke-width="0.5" />
<circle cx="531" cy="241" r="30" transform="rotate(24 531 531)" fill="cyan" stroke="black" stroke-width="0.5" />
<circle cx="531" cy="241" r="30" transform="rotate(36 531 531)" fill="cyan" stroke="black" stroke-width="0.5" />
<circle cx="531" cy="241" r="30" transform="rotate(48 531 531)" fill="cyan" stroke="black" stroke-width="0.5" />
<circle cx="531" cy="241" r="30" transform="rotate(60 531 531)" fill="cyan" stroke="black" stroke-width="0.5" />
<circle cx="531" cy="241" r="30" transform="rotate(72 531 531)" fill="cyan" stroke="black" stroke-width="0.5" />
<circle cx="531" cy="241" r="30" transform="rotate(84 531 531)" fill="cyan" stroke="black" stroke-width="0.5" />
<circle cx="531" cy="241" r="30" transform="rotate(96 531 531)" fill="cyan" stroke="black" stroke-width="0.5" />
<circle cx="531" cy="241" r="30" transform="rotate(108 531 531)" fill="cyan" stroke="black" stroke-width="0.5" />
<circle cx="531" cy="241" r="30" transform="rotate(120 531 531)" fill="cyan" stroke="black" stroke-width="0.5" />
<circle cx="531" cy="241" r="30" transform="rotate(132 531 531)" fill="cyan" stroke="black" stroke-width="0.5" />
<circle cx="531" cy="241" r="30" transform="rotate(144 531 531)" fill="cyan" stroke="black" stroke-width="0.5" />
<circle cx="531" cy="241" r="30" transform="rotate(156 531 531)" fill="cyan" stroke="black" stroke-width="0.5" />
<circle cx="531" cy="241" r="30" transform="rotate(168 531 531)" fill="cyan" stroke="black" stroke-width="0.5" />
<circle cx="531" cy="241" r="30" transform="rotate(180 531 531)" fill="cyan" stroke="black" stroke-width="0.5" />
<circle cx="531" cy="241" r="30" transform="rotate(192 531 531)" fill="cyan" stroke="black" stroke-width="0.5" />
<circle cx="531" cy="241" r="30" transform="rotate(204 531 531)" fill="cyan" stroke="black" stroke-width="0.5" />
<circle cx="531" cy="241" r="30" transform="rotate(216 531 531)" fill="cyan" stroke="black" stroke-width="0.5" />
<circle cx="531" cy="241" r="30" transform="rotate(228 531 531)" fill="cyan" stroke="black" stroke-width="0.5" />
<circle cx="531" cy="241" r="30" transform="rotate(240 531 531)" fill="cyan" stroke="black" stroke-width="0.5" />
<circle cx="531" cy="241" r="30" transform="rotate(252 531 531)" fill="cyan" stroke="black" stroke-width="0.5" />
<circle cx="531" cy="241" r="30" transform="rotate(264 531 531)" fill="cyan" stroke="black" stroke-width="0.5" />
<circle cx="531" cy="241" r="30" transform="rotate(276 531 531)" fill="cyan" stroke="black" stroke-width="0.5" />
<circle cx="531" cy="241" r="30" transform="rotate(288 531 531)" fill="cyan" stroke="black" stroke-width="0.5" />
<circle cx="531" cy="241" r="30" transform="rotate(300 531 531)" fill="cyan" stroke="black" stroke-width="0.5" />
<circle cx="531" cy="241" r="30" transform="rotate(312 531 531)" fill="cyan" stroke="black" stroke-width="0.5" />
<circle cx="531" cy="241" r="30" transform="rotate(324 531 531)" fill="cyan" stroke="black" stroke-width="0.5" />
<circle cx="531" cy="241" r="30" transform="rotate(336 531 531)" fill="cyan" stroke="black" stroke-width="0.5" />
<circle cx="531" cy="241" r="30" transform="rotate(348 531 531)" fill="cyan" stroke="black" stroke-width="0.5" />
<circle cx="531" cy="301" r="30" transform="rotate(0 531 531)" fill="cyan" stroke="black" stroke-width="0.5" />
<circle cx="531" cy="301" r="30" transform="rotate(15 531 531)" fill="cyan" stroke="black" stroke-width="0.5" />
<circle cx="531" cy="301" r="30" transform="rotate(30 531 531)" fill="cyan" stroke="black" stroke-width="0.5" />
<circle cx="531" cy="301" r="30" transform="rotate(45 531 531)" fill="cyan" stroke="black" stroke-width="0.5" />
<circle cx="531" cy="301" r="30" transform="rotate(60 531 531)" fill="cyan" stroke="black" stroke-width="0.5" />
<circle cx="531" cy="301" r="30" transform="rotate(75 531 531)" fill="cyan" stroke="black" stroke-width="0.5" />
<circle cx="531" cy="301" r="30" transform="rotate(90 531 531)" fill="cyan" stroke="black" stroke-width="0.5" />
<circle cx="531" cy="301" r="30" transform="rotate(105 531 531)" fill="cyan" stroke="black" stroke-width="0.5" />
<circle cx="531" cy="301" r="30" transform="rotate(120 531 531)" fill="cyan" stroke="black" stroke-width="0.5" />
<circle cx="531" cy="301" r="30" transform="rotate(135 531 531)" fill="cyan" stroke="black" stroke-width="0.5" />
<circle cx="531" cy="301" r="30" transform="rotate(150 531 531)" fill="cyan" stroke="black" stroke-width="0.5" />
<circle cx="531" cy="301" r="30" transform="rotate(165 531 531)" fill="cyan" stroke="black" stroke-width="0.5" />
<circle cx="531" cy="301" r="30" transform="rotate(180 531 531)" fill="cyan" stroke="black" stroke-width="0.5" />
<circle cx="531" cy="301" r="30" transform="rotate(195 531 531)" fill="cyan" stroke="black" stroke-width="0.5" />
<circle cx="531" cy="301" r="30" transform="rotate(210 531 531)" fill="cyan" stroke="black" stroke-width="0.5" />
<circle cx="531" cy="301" r="30" transform="rotate(225 531 531)" fill="cyan" stroke="black" stroke-width="0.5" />
<circle cx="531" cy="301" r="30" transform="rotate(240 531 531)" fill="cyan" stroke="black" stroke-width="0.5" />
<circle cx="531" cy="301" r="30" transform="rotate(255 531 531)" fill="cyan" stroke="black" stroke-width="0.5" />
<circle cx="531" cy="301" r="30" transform="rotate(270 531 531)" fill="cyan" stroke="black" stroke-width="0.5" />
<circle cx="531" cy="301" r="30" transform="rotate(285 531 531)" fill="cyan" stroke="black" stroke-width="0.5" />
<circle cx="531" cy="301" r="30" transform="rotate(300 531 531)" fill="cyan" stroke="black" stroke-width="0.5" />
<circle cx="531" cy="301" r="30" transform="rotate(315 531 531)" fill="cyan" stroke="black" stroke-width="0.5" />
<circle cx="531" cy="301" r="30" transform="rotate(330 531 531)" fill="cyan" stroke="black" stroke-width="0.5" />
<circle cx="531" cy="301" r="30" transform="rotate(345 531 531)" fill="cyan" stroke="black" stroke-width="0.5" />
<circle cx="531" cy="361" r="30" transform="rotate(0 531 531)" fill="cyan" stroke="black" stroke-width="0.5" />
<circle cx="531" cy="361" r="30" transform="rotate(21.1765 531 531)" fill="cyan" stroke="black" stroke-width="0.5" />
<circle cx="531" cy="361" r="30" transform="rotate(42.3529 531 531)" fill="cyan" stroke="black" stroke-width="0.5" />
<circle cx="531" cy="361" r="30" transform="rotate(63.5294 531 531)" fill="cyan" stroke="black" stroke-width="0.5" />
<circle cx="531" cy="361" r="30" transform="rotate(84.7059 531 531)" fill="cyan" stroke="black" stroke-width="0.5" />
<circle cx="531" cy="361" r="30" transform="rotate(105.882 531 531)" fill="cyan" stroke="black" stroke-width="0.5" />
<circle cx="531" cy="361" r="30" transform="rotate(127.059 531 531)" fill="cyan" stroke="black" stroke-width="0.5" />
<circle cx="531" cy="361" r="30" transform="rotate(148.235 531 531)" fill="cyan" stroke="black" stroke-width="0.5" />
<circle cx="531" cy="361" r="30" transform="rotate(169.412 531 531)" fill="cyan" stroke="black" stroke-width="0.5" />
<circle cx="531" cy="361" r="30" transform="rotate(190.588 531 531)" fill="cyan" stroke="black" stroke-width="0.5" />
<circle cx="531" cy="361" r="30" transform="rotate(211.765 531 531)" fill="cyan" stroke="black" stroke-width="0.5" />
<circle cx="531" cy="361" r="30" transform="rotate(232.941 531 531)" fill="cyan" stroke="black" stroke-width="0.5" />
<circle cx="531" cy="361" r="30" transform="rotate(254.118 531 531)" fill="cyan" stroke="black" stroke-width="0.5" />
<circle cx="531" cy="361" r="30" transform="rotate(275.294 531 531)" fill="cyan" stroke="black" stroke-width="0.5" />
<circle cx="531" cy="361" r="30" transform="rotate(296.471 531 531)" fill="cyan" stroke="black" stroke-width="0.5" />
<circle cx="531" cy="361" r="30" transform="rotate(317.647 531 531)" fill="cyan" stroke="black" stroke-width="0.5" />
<circle cx="531" cy="361" r="30" transform="rotate(338.824 531 531)" fill="cyan" stroke="black" stroke-width="0.5" />
<circle cx="531" cy="421" r="30" transform="rotate(0 531 531)" fill="cyan" stroke="black" stroke-width="0.5" />
<circle cx="531" cy="421" r="30" transform="rotate(32.7273 531 531)" fill="cyan" stroke="black" stroke-width="0.5" />
<circle cx="531" cy="421" r="30" transform="rotate(65.4545 531 531)" fill="cyan" stroke="black" stroke-width="0.5" />
<circle cx="531" cy="421" r="30" transform="rotate(98.1818 531 531)" fill="cyan" stroke="black" stroke-width="0.5" />
<circle cx="531" cy="421" r="30" transform="rotate(130.909 531 531)" fill="cyan" stroke="black" stroke-width="0.5" />
<circle cx="531" cy="421" r="30" transform="rotate(163.636 531 531)" fill="cyan" stroke="black" stroke-width="0.5" />
<circle cx="531" cy="421" r="30" transform="rotate(196.364 531 531)" fill="cyan" stroke="black" stroke-width="0.5" />
<circle cx="531" cy="421" r="30" transform="rotate(229.091 531 531)" fill="cyan" stroke="black" stroke-width="0.5" />
<circle cx="531" cy="421" r="30" transform="rotate(261.818 531 531)" fill="cyan" stroke="black" stroke-width="0.5" />
<circle cx="531" cy="421" r="30" transform="rotate(294.545 531 531)" fill="cyan" stroke="black" stroke-width="0.5" />
<circle cx="531" cy="421" r="30" transform="rotate(327.273 531 531)" fill="cyan" stroke="black" stroke-width="0.5" />
<circle cx="531" cy="481" r="30" transform="rotate(0 531 531)" fill="cyan" stroke="black" stroke-width="0.5" />
<circle cx="531" cy="481" r="30" transform="rotate(90 531 531)" fill="cyan" stroke="black" stroke-width="0.5" />
<circle cx="531" cy="481" r="30" transform="rotate(180 531 531)" fill="cyan" stroke="black" stroke-width="0.5" />
<circle cx="531" cy="481" r="30" transform="rotate(270 531 531)" fill="cyan" stroke="black" stroke-width="0.5" />
</svg>
