<svg version="1.1" baseProfile="full" xmlns="http://www.w3.org/2000/svg">
<polygon points="257,7 7,440.013 507,440.013" transform="rotate(0 7 7)" fill="pink" stroke="black" stroke-width="0.5" />
<rect x="37"  y="425.013" width="110" height="15" transform="rotate(0 7 7)" fill="green" stroke="black" stroke-width="0.5" />
<rect x="147"  y="425.013" width="110" height="15" transform="rotate(0 7 7)" fill="green" stroke="black" stroke-width="0.5" />
<rect x="257"  y="425.013" width="110" height="15" transform="rotate(0 7 7)" fill="green" stroke="black" stroke-width="0.5" />
<rect x="367"  y="425.013" width="110" height="15" transform="rotate(0 7 7)" fill="green" stroke="black" stroke-width="0.5" />
<rect x="37"  y="410.013" width="110" height="15" transform="rotate(0 7 7)" fill="green" stroke="black" stroke-width="0.5" />
<rect x="147"  y="410.013" width="110" height="15" transform="rotate(0 7 7)" fill="green" stroke="black" stroke-width="0.5" />
<rect x="257"  y="410.013" width="110" height="15" transform="rotate(0 7 7)" fill="green" stroke="black" stroke-width="0.5" />
<rect x="367"  y="410.013" width="110" height="15" transform="rotate(0 7 7)" fill="green" stroke="black" stroke-width="0.5" />
<rect x="37"  y="395.013" width="110" height="15" transform="rotate(0 7 7)" fill="green" stroke="black" stroke-width="0.5" />
<rect x="147"  y="395.013" width="110" height="15" transform="rotate(0 7 7)" fill="green" stroke="black" stroke-width="0.5" />
<rect x="257"  y="395.013" width="110" height="15" transform="rotate(0 7 7)" fill="green" stroke="black" stroke-width="0.5" />
<rect x="367"  y="395.013" width="110" height="15" transform="rotate(0 7 7)" fill="green" stroke="black" stroke-width="0.5" />
<rect x="92"  y="380.013" width="110" height="15" transform="rotate(0 7 7)" fill="green" stroke="black" stroke-width="0.5" />
<rect x="202"  y="380.013" width="110" height="15" transform="rotate(0 7 7)" fill="green" stroke="black" stroke-width="0.5" />
<rect x="312"  y="380.013" width="110" height="15" transform="rotate(0 7 7)" fill="green" stroke="black" stroke-width="0.5" />
<rect x="92"  y="365.013" width="110" height="15" transform="rotate(0 7 7)" fill="green" stroke="black" stroke-width="0.5" />
<rect x="202"  y="365.013" width="110" height="15" transform="rotate(0 7 7)" fill="green" stroke="black" stroke-width="0.5" />
<rect x="312"  y="365.013" width="110" height="15" transform="rotate(0 7 7)" fill="green" stroke="black" stroke-width="0.5" />
<rect x="92"  y="350.013" width="110" height="15" transform="rotate(0 7 7)" fill="green" stroke="black" stroke-width="0.5" />
<rect x="202"  y="350.013" width="110" height="15" transform="rotate(0 7 7)" fill="green" stroke="black" stroke-width="0.5" />
<rect x="312"  y="350.013" width="110" height="15" transform="rotate(0 7 7)" fill="green" stroke="black" stroke-width="0.5" />
<rect x="92"  y="335.013" width="110" height="15" transform="rotate(0 7 7)" fill="green" stroke="black" stroke-width="0.5" />
<rect x="202"  y="335.013" width="110" height="15" transform="rotate(0 7 7)" fill="green" stroke="black" stroke-width="0.5" />
<rect x="312"  y="335.013" width="110" height="15" transform="rotate(0 7 7)" fill="green" stroke="black" stroke-width="0.5" />
<rect x="92"  y="320.013" width="110" height="15" transform="rotate(0 7 7)" fill="green" stroke="black" stroke-width="0.5" />
<rect x="202"  y="320.013" width="110" height="15" transform="rotate(0 7 7)" fill="green" stroke="black" stroke-width="0.5" />
<rect x="312"  y="320.013" width="110" height="15" transform="rotate(0 7 7)" fill="green" stroke="black" stroke-width="0.5" />
<rect x="92"  y="305.013" width="110" height="15" transform="rotate(0 7 7)" fill="green" stroke="black" stroke-width="0.5" />
<rect x="202"  y="305.013" width="110" height="15" transform="rotate(0 7 7)" fill="green" stroke="black" stroke-width="0.5" />
<rect x="312"  y="305.013" width="110" height="15" transform="rotate(0 7 7)" fill="green" stroke="black" stroke-width="0.5" />
<rect x="147"  y="290.013" width="110" height="15" transform="rotate(0 7 7)" fill="green" stroke="black" stroke-width="0.5" />
<rect x="257"  y="290.013" width="110" height="15" transform="rotate(0 7 7)" fill="green" stroke="black" stroke-width="0.5" />
<rect x="147"  y="275.013" width="110" height="15" transform="rotate(0 7 7)" fill="green" stroke="black" stroke-width="0.5" />
<rect x="257"  y="275.013" width="110" height="15" transform="rotate(0 7 7)" fill="green" stroke="black" stroke-width="0.5" />
<rect x="147"  y="260.013" width="110" height="15" transform="rotate(0 7 7)" fill="green" stroke="black" stroke-width="0.5" />
<rect x="257"  y="260.013" width="110" height="15" transform="rotate(0 7 7)" fill="green" stroke="black" stroke-width="0.5" />
<rect x="147"  y="245.013" width="110" height="15" transform="rotate(0 7 7)" fill="green" stroke="black" stroke-width="0.5" />
<rect x="257"  y="245.013" width="110" height="15" transform="rotate(0 7 7)" fill="green" stroke="black" stroke-width="0.5" />
<rect x="147"  y="230.013" width="110" height="15" transform="rotate(0 7 7)" fill="green" stroke="black" stroke-width="0.5" />
<rect x="257"  y="230.013" width="110" height="15" transform="rotate(0 7 7)" fill="green" stroke="black" stroke-width="0.5" />
<rect x="147"  y="215.013" width="110" height="15" transform="rotate(0 7 7)" fill="green" stroke="black" stroke-width="0.5" />
<rect x="257"  y="215.013" width="110" height="15" transform="rotate(0 7 7)" fill="green" stroke="black" stroke-width="0.5" />
<rect x="147"  y="200.013" width="110" height="15" transform="rotate(0 7 7)" fill="green" stroke="black" stroke-width="0.5" />
<rect x="257"  y="200.013" width="110" height="15" transform="rotate(0 7 7)" fill="green" stroke="black" stroke-width="0.5" />
<rect x="202"  y="185.013" width="110" height="15" transform="rotate(0 7 7)" fill="green" stroke="black" stroke-width="0.5" />
<rect x="202"  y="170.013" width="110" height="15" transform="rotate(0 7 7)" fill="green" stroke="black" stroke-width="0.5" />
<rect x="202"  y="155.013" width="110" height="15" transform="rotate(0 7 7)" fill="green" stroke="black" stroke-width="0.5" />
<rect x="202"  y="140.013" width="110" height="15" transform="rotate(0 7 7)" fill="green" stroke="black" stroke-width="0.5" />
<rect x="202"  y="125.013" width="110" height="15" transform="rotate(0 7 7)" fill="green" stroke="black" stroke-width="0.5" />
<rect x="202"  y="110.013" width="110" height="15" transform="rotate(0 7 7)" fill="green" stroke="black" stroke-width="0.5" />
</svg>
