<svg version="1.1" baseProfile="full" xmlns="http://www.w3.org/2000/svg">
<rect x="14"  y="14" width="500" height="750" transform="rotate(0 14 14)" fill="pink" stroke="black" stroke-width="0.5" />
<rect x="14"  y="14" width="20" height="60" transform="rotate(0 7 7)" fill="yellow" stroke="black" stroke-width="0.5" />
<rect x="34"  y="14" width="20" height="60" transform="rotate(0 7 7)" fill="yellow" stroke="black" stroke-width="0.5" />
<rect x="54"  y="14" width="20" height="60" transform="rotate(0 7 7)" fill="yellow" stroke="black" stroke-width="0.5" />
<rect x="74"  y="14" width="20" height="60" transform="rotate(0 7 7)" fill="yellow" stroke="black" stroke-width="0.5" />
<rect x="94"  y="14" width="20" height="60" transform="rotate(0 7 7)" fill="yellow" stroke="black" stroke-width="0.5" />
<rect x="114"  y="14" width="20" height="60" transform="rotate(0 7 7)" fill="yellow" stroke="black" stroke-width="0.5" />
<rect x="134"  y="14" width="20" height="60" transform="rotate(0 7 7)" fill="yellow" stroke="black" stroke-width="0.5" />
<rect x="154"  y="14" width="20" height="60" transform="rotate(0 7 7)" fill="yellow" stroke="black" stroke-width="0.5" />
<rect x="174"  y="14" width="20" height="60" transform="rotate(0 7 7)" fill="yellow" stroke="black" stroke-width="0.5" />
<rect x="194"  y="14" width="20" height="60" transform="rotate(0 7 7)" fill="yellow" stroke="black" stroke-width="0.5" />
<rect x="214"  y="14" width="20" height="60" transform="rotate(0 7 7)" fill="yellow" stroke="black" stroke-width="0.5" />
<rect x="234"  y="14" width="20" height="60" transform="rotate(0 7 7)" fill="yellow" stroke="black" stroke-width="0.5" />
<rect x="254"  y="14" width="20" height="60" transform="rotate(0 7 7)" fill="yellow" stroke="black" stroke-width="0.5" />
<rect x="274"  y="14" width="20" height="60" transform="rotate(0 7 7)" fill="yellow" stroke="black" stroke-width="0.5" />
<rect x="294"  y="14" width="20" height="60" transform="rotate(0 7 7)" fill="yellow" stroke="black" stroke-width="0.5" />
<rect x="314"  y="14" width="20" height="60" transform="rotate(0 7 7)" fill="yellow" stroke="black" stroke-width="0.5" />
<rect x="334"  y="14" width="20" height="60" transform="rotate(0 7 7)" fill="yellow" stroke="black" stroke-width="0.5" />
<rect x="354"  y="14" width="20" height="60" transform="rotate(0 7 7)" fill="yellow" stroke="black" stroke-width="0.5" />
<rect x="374"  y="14" width="20" height="60" transform="rotate(0 7 7)" fill="yellow" stroke="black" stroke-width="0.5" />
<rect x="394"  y="14" width="20" height="60" transform="rotate(0 7 7)" fill="yellow" stroke="black" stroke-width="0.5" />
<rect x="414"  y="14" width="20" height="60" transform="rotate(0 7 7)" fill="yellow" stroke="black" stroke-width="0.5" />
<rect x="434"  y="14" width="20" height="60" transform="rotate(0 7 7)" fill="yellow" stroke="black" stroke-width="0.5" />
<rect x="454"  y="14" width="20" height="60" transform="rotate(0 7 7)" fill="yellow" stroke="black" stroke-width="0.5" />
<rect x="474"  y="14" width="20" height="60" transform="rotate(0 7 7)" fill="yellow" stroke="black" stroke-width="0.5" />
<rect x="494"  y="14" width="20" height="60" transform="rotate(0 7 7)" fill="yellow" stroke="black" stroke-width="0.5" />
<rect x="14"  y="74" width="20" height="60" transform="rotate(0 7 7)" fill="yellow" stroke="black" stroke-width="0.5" />
<rect x="34"  y="74" width="20" height="60" transform="rotate(0 7 7)" fill="yellow" stroke="black" stroke-width="0.5" />
<rect x="54"  y="74" width="20" height="60" transform="rotate(0 7 7)" fill="yellow" stroke="black" stroke-width="0.5" />
<rect x="74"  y="74" width="20" height="60" transform="rotate(0 7 7)" fill="yellow" stroke="black" stroke-width="0.5" />
<rect x="94"  y="74" width="20" height="60" transform="rotate(0 7 7)" fill="yellow" stroke="black" stroke-width="0.5" />
<rect x="114"  y="74" width="20" height="60" transform="rotate(0 7 7)" fill="yellow" stroke="black" stroke-width="0.5" />
<rect x="134"  y="74" width="20" height="60" transform="rotate(0 7 7)" fill="yellow" stroke="black" stroke-width="0.5" />
<rect x="154"  y="74" width="20" height="60" transform="rotate(0 7 7)" fill="yellow" stroke="black" stroke-width="0.5" />
<rect x="174"  y="74" width="20" height="60" transform="rotate(0 7 7)" fill="yellow" stroke="black" stroke-width="0.5" />
<rect x="194"  y="74" width="20" height="60" transform="rotate(0 7 7)" fill="yellow" stroke="black" stroke-width="0.5" />
<rect x="214"  y="74" width="20" height="60" transform="rotate(0 7 7)" fill="yellow" stroke="black" stroke-width="0.5" />
<rect x="234"  y="74" width="20" height="60" transform="rotate(0 7 7)" fill="yellow" stroke="black" stroke-width="0.5" />
<rect x="254"  y="74" width="20" height="60" transform="rotate(0 7 7)" fill="yellow" stroke="black" stroke-width="0.5" />
<rect x="274"  y="74" width="20" height="60" transform="rotate(0 7 7)" fill="yellow" stroke="black" stroke-width="0.5" />
<rect x="294"  y="74" width="20" height="60" transform="rotate(0 7 7)" fill="yellow" stroke="black" stroke-width="0.5" />
<rect x="314"  y="74" width="20" height="60" transform="rotate(0 7 7)" fill="yellow" stroke="black" stroke-width="0.5" />
<rect x="334"  y="74" width="20" height="60" transform="rotate(0 7 7)" fill="yellow" stroke="black" stroke-width="0.5" />
<rect x="354"  y="74" width="20" height="60" transform="rotate(0 7 7)" fill="yellow" stroke="black" stroke-width="0.5" />
<rect x="374"  y="74" width="20" height="60" transform="rotate(0 7 7)" fill="yellow" stroke="black" stroke-width="0.5" />
<rect x="394"  y="74" width="20" height="60" transform="rotate(0 7 7)" fill="yellow" stroke="black" stroke-width="0.5" />
<rect x="414"  y="74" width="20" height="60" transform="rotate(0 7 7)" fill="yellow" stroke="black" stroke-width="0.5" />
<rect x="434"  y="74" width="20" height="60" transform="rotate(0 7 7)" fill="yellow" stroke="black" stroke-width="0.5" />
<rect x="454"  y="74" width="20" height="60" transform="rotate(0 7 7)" fill="yellow" stroke="black" stroke-width="0.5" />
<rect x="474"  y="74" width="20" height="60" transform="rotate(0 7 7)" fill="yellow" stroke="black" stroke-width="0.5" />
<rect x="494"  y="74" width="20" height="60" transform="rotate(0 7 7)" fill="yellow" stroke="black" stroke-width="0.5" />
<rect x="14"  y="134" width="20" height="60" transform="rotate(0 7 7)" fill="yellow" stroke="black" stroke-width="0.5" />
<rect x="34"  y="134" width="20" height="60" transform="rotate(0 7 7)" fill="yellow" stroke="black" stroke-width="0.5" />
<rect x="54"  y="134" width="20" height="60" transform="rotate(0 7 7)" fill="yellow" stroke="black" stroke-width="0.5" />
<rect x="74"  y="134" width="20" height="60" transform="rotate(0 7 7)" fill="yellow" stroke="black" stroke-width="0.5" />
<rect x="94"  y="134" width="20" height="60" transform="rotate(0 7 7)" fill="yellow" stroke="black" stroke-width="0.5" />
<rect x="114"  y="134" width="20" height="60" transform="rotate(0 7 7)" fill="yellow" stroke="black" stroke-width="0.5" />
<rect x="134"  y="134" width="20" height="60" transform="rotate(0 7 7)" fill="yellow" stroke="black" stroke-width="0.5" />
<rect x="154"  y="134" width="20" height="60" transform="rotate(0 7 7)" fill="yellow" stroke="black" stroke-width="0.5" />
<rect x="174"  y="134" width="20" height="60" transform="rotate(0 7 7)" fill="yellow" stroke="black" stroke-width="0.5" />
<rect x="194"  y="134" width="20" height="60" transform="rotate(0 7 7)" fill="yellow" stroke="black" stroke-width="0.5" />
<rect x="214"  y="134" width="20" height="60" transform="rotate(0 7 7)" fill="yellow" stroke="black" stroke-width="0.5" />
<rect x="234"  y="134" width="20" height="60" transform="rotate(0 7 7)" fill="yellow" stroke="black" stroke-width="0.5" />
<rect x="254"  y="134" width="20" height="60" transform="rotate(0 7 7)" fill="yellow" stroke="black" stroke-width="0.5" />
<rect x="274"  y="134" width="20" height="60" transform="rotate(0 7 7)" fill="yellow" stroke="black" stroke-width="0.5" />
<rect x="294"  y="134" width="20" height="60" transform="rotate(0 7 7)" fill="yellow" stroke="black" stroke-width="0.5" />
<rect x="314"  y="134" width="20" height="60" transform="rotate(0 7 7)" fill="yellow" stroke="black" stroke-width="0.5" />
<rect x="334"  y="134" width="20" height="60" transform="rotate(0 7 7)" fill="yellow" stroke="black" stroke-width="0.5" />
<rect x="354"  y="134" width="20" height="60" transform="rotate(0 7 7)" fill="yellow" stroke="black" stroke-width="0.5" />
<rect x="374"  y="134" width="20" height="60" transform="rotate(0 7 7)" fill="yellow" stroke="black" stroke-width="0.5" />
<rect x="394"  y="134" width="20" height="60" transform="rotate(0 7 7)" fill="yellow" stroke="black" stroke-width="0.5" />
<rect x="414"  y="134" width="20" height="60" transform="rotate(0 7 7)" fill="yellow" stroke="black" stroke-width="0.5" />
<rect x="434"  y="134" width="20" height="60" transform="rotate(0 7 7)" fill="yellow" stroke="black" stroke-width="0.5" />
<rect x="454"  y="134" width="20" height="60" transform="rotate(0 7 7)" fill="yellow" stroke="black" stroke-width="0.5" />
<rect x="474"  y="134" width="20" height="60" transform="rotate(0 7 7)" fill="yellow" stroke="black" stroke-width="0.5" />
<rect x="494"  y="134" width="20" height="60" transform="rotate(0 7 7)" fill="yellow" stroke="black" stroke-width="0.5" />
<rect x="14"  y="194" width="20" height="60" transform="rotate(0 7 7)" fill="yellow" stroke="black" stroke-width="0.5" />
<rect x="34"  y="194" width="20" height="60" transform="rotate(0 7 7)" fill="yellow" stroke="black" stroke-width="0.5" />
<rect x="54"  y="194" width="20" height="60" transform="rotate(0 7 7)" fill="yellow" stroke="black" stroke-width="0.5" />
<rect x="74"  y="194" width="20" height="60" transform="rotate(0 7 7)" fill="yellow" stroke="black" stroke-width="0.5" />
<rect x="94"  y="194" width="20" height="60" transform="rotate(0 7 7)" fill="yellow" stroke="black" stroke-width="0.5" />
<rect x="114"  y="194" width="20" height="60" transform="rotate(0 7 7)" fill="yellow" stroke="black" stroke-width="0.5" />
<rect x="134"  y="194" width="20" height="60" transform="rotate(0 7 7)" fill="yellow" stroke="black" stroke-width="0.5" />
<rect x="154"  y="194" width="20" height="60" transform="rotate(0 7 7)" fill="yellow" stroke="black" stroke-width="0.5" />
<rect x="174"  y="194" width="20" height="60" transform="rotate(0 7 7)" fill="yellow" stroke="black" stroke-width="0.5" />
<rect x="194"  y="194" width="20" height="60" transform="rotate(0 7 7)" fill="yellow" stroke="black" stroke-width="0.5" />
<rect x="214"  y="194" width="20" height="60" transform="rotate(0 7 7)" fill="yellow" stroke="black" stroke-width="0.5" />
<rect x="234"  y="194" width="20" height="60" transform="rotate(0 7 7)" fill="yellow" stroke="black" stroke-width="0.5" />
<rect x="254"  y="194" width="20" height="60" transform="rotate(0 7 7)" fill="yellow" stroke="black" stroke-width="0.5" />
<rect x="274"  y="194" width="20" height="60" transform="rotate(0 7 7)" fill="yellow" stroke="black" stroke-width="0.5" />
<rect x="294"  y="194" width="20" height="60" transform="rotate(0 7 7)" fill="yellow" stroke="black" stroke-width="0.5" />
<rect x="314"  y="194" width="20" height="60" transform="rotate(0 7 7)" fill="yellow" stroke="black" stroke-width="0.5" />
<rect x="334"  y="194" width="20" height="60" transform="rotate(0 7 7)" fill="yellow" stroke="black" stroke-width="0.5" />
<rect x="354"  y="194" width="20" height="60" transform="rotate(0 7 7)" fill="yellow" stroke="black" stroke-width="0.5" />
<rect x="374"  y="194" width="20" height="60" transform="rotate(0 7 7)" fill="yellow" stroke="black" stroke-width="0.5" />
<rect x="394"  y="194" width="20" height="60" transform="rotate(0 7 7)" fill="yellow" stroke="black" stroke-width="0.5" />
<rect x="414"  y="194" width="20" height="60" transform="rotate(0 7 7)" fill="yellow" stroke="black" stroke-width="0.5" />
<rect x="434"  y="194" width="20" height="60" transform="rotate(0 7 7)" fill="yellow" stroke="black" stroke-width="0.5" />
<rect x="454"  y="194" width="20" height="60" transform="rotate(0 7 7)" fill="yellow" stroke="black" stroke-width="0.5" />
<rect x="474"  y="194" width="20" height="60" transform="rotate(0 7 7)" fill="yellow" stroke="black" stroke-width="0.5" />
<rect x="494"  y="194" width="20" height="60" transform="rotate(0 7 7)" fill="yellow" stroke="black" stroke-width="0.5" />
<rect x="14"  y="254" width="20" height="60" transform="rotate(0 7 7)" fill="yellow" stroke="black" stroke-width="0.5" />
<rect x="34"  y="254" width="20" height="60" transform="rotate(0 7 7)" fill="yellow" stroke="black" stroke-width="0.5" />
<rect x="54"  y="254" width="20" height="60" transform="rotate(0 7 7)" fill="yellow" stroke="black" stroke-width="0.5" />
<rect x="74"  y="254" width="20" height="60" transform="rotate(0 7 7)" fill="yellow" stroke="black" stroke-width="0.5" />
<rect x="94"  y="254" width="20" height="60" transform="rotate(0 7 7)" fill="yellow" stroke="black" stroke-width="0.5" />
<rect x="114"  y="254" width="20" height="60" transform="rotate(0 7 7)" fill="yellow" stroke="black" stroke-width="0.5" />
<rect x="134"  y="254" width="20" height="60" transform="rotate(0 7 7)" fill="yellow" stroke="black" stroke-width="0.5" />
<rect x="154"  y="254" width="20" height="60" transform="rotate(0 7 7)" fill="yellow" stroke="black" stroke-width="0.5" />
<rect x="174"  y="254" width="20" height="60" transform="rotate(0 7 7)" fill="yellow" stroke="black" stroke-width="0.5" />
<rect x="194"  y="254" width="20" height="60" transform="rotate(0 7 7)" fill="yellow" stroke="black" stroke-width="0.5" />
<rect x="214"  y="254" width="20" height="60" transform="rotate(0 7 7)" fill="yellow" stroke="black" stroke-width="0.5" />
<rect x="234"  y="254" width="20" height="60" transform="rotate(0 7 7)" fill="yellow" stroke="black" stroke-width="0.5" />
<rect x="254"  y="254" width="20" height="60" transform="rotate(0 7 7)" fill="yellow" stroke="black" stroke-width="0.5" />
<rect x="274"  y="254" width="20" height="60" transform="rotate(0 7 7)" fill="yellow" stroke="black" stroke-width="0.5" />
<rect x="294"  y="254" width="20" height="60" transform="rotate(0 7 7)" fill="yellow" stroke="black" stroke-width="0.5" />
<rect x="314"  y="254" width="20" height="60" transform="rotate(0 7 7)" fill="yellow" stroke="black" stroke-width="0.5" />
<rect x="334"  y="254" width="20" height="60" transform="rotate(0 7 7)" fill="yellow" stroke="black" stroke-width="0.5" />
<rect x="354"  y="254" width="20" height="60" transform="rotate(0 7 7)" fill="yellow" stroke="black" stroke-width="0.5" />
<rect x="374"  y="254" width="20" height="60" transform="rotate(0 7 7)" fill="yellow" stroke="black" stroke-width="0.5" />
<rect x="394"  y="254" width="20" height="60" transform="rotate(0 7 7)" fill="yellow" stroke="black" stroke-width="0.5" />
<rect x="414"  y="254" width="20" height="60" transform="rotate(0 7 7)" fill="yellow" stroke="black" stroke-width="0.5" />
<rect x="434"  y="254" width="20" height="60" transform="rotate(0 7 7)" fill="yellow" stroke="black" stroke-width="0.5" />
<rect x="454"  y="254" width="20" height="60" transform="rotate(0 7 7)" fill="yellow" stroke="black" stroke-width="0.5" />
<rect x="474"  y="254" width="20" height="60" transform="rotate(0 7 7)" fill="yellow" stroke="black" stroke-width="0.5" />
<rect x="494"  y="254" width="20" height="60" transform="rotate(0 7 7)" fill="yellow" stroke="black" stroke-width="0.5" />
<rect x="14"  y="314" width="20" height="60" transform="rotate(0 7 7)" fill="yellow" stroke="black" stroke-width="0.5" />
<rect x="34"  y="314" width="20" height="60" transform="rotate(0 7 7)" fill="yellow" stroke="black" stroke-width="0.5" />
<rect x="54"  y="314" width="20" height="60" transform="rotate(0 7 7)" fill="yellow" stroke="black" stroke-width="0.5" />
<rect x="74"  y="314" width="20" height="60" transform="rotate(0 7 7)" fill="yellow" stroke="black" stroke-width="0.5" />
<rect x="94"  y="314" width="20" height="60" transform="rotate(0 7 7)" fill="yellow" stroke="black" stroke-width="0.5" />
<rect x="114"  y="314" width="20" height="60" transform="rotate(0 7 7)" fill="yellow" stroke="black" stroke-width="0.5" />
<rect x="134"  y="314" width="20" height="60" transform="rotate(0 7 7)" fill="yellow" stroke="black" stroke-width="0.5" />
<rect x="154"  y="314" width="20" height="60" transform="rotate(0 7 7)" fill="yellow" stroke="black" stroke-width="0.5" />
<rect x="174"  y="314" width="20" height="60" transform="rotate(0 7 7)" fill="yellow" stroke="black" stroke-width="0.5" />
<rect x="194"  y="314" width="20" height="60" transform="rotate(0 7 7)" fill="yellow" stroke="black" stroke-width="0.5" />
<rect x="214"  y="314" width="20" height="60" transform="rotate(0 7 7)" fill="yellow" stroke="black" stroke-width="0.5" />
<rect x="234"  y="314" width="20" height="60" transform="rotate(0 7 7)" fill="yellow" stroke="black" stroke-width="0.5" />
<rect x="254"  y="314" width="20" height="60" transform="rotate(0 7 7)" fill="yellow" stroke="black" stroke-width="0.5" />
<rect x="274"  y="314" width="20" height="60" transform="rotate(0 7 7)" fill="yellow" stroke="black" stroke-width="0.5" />
<rect x="294"  y="314" width="20" height="60" transform="rotate(0 7 7)" fill="yellow" stroke="black" stroke-width="0.5" />
<rect x="314"  y="314" width="20" height="60" transform="rotate(0 7 7)" fill="yellow" stroke="black" stroke-width="0.5" />
<rect x="334"  y="314" width="20" height="60" transform="rotate(0 7 7)" fill="yellow" stroke="black" stroke-width="0.5" />
<rect x="354"  y="314" width="20" height="60" transform="rotate(0 7 7)" fill="yellow" stroke="black" stroke-width="0.5" />
<rect x="374"  y="314" width="20" height="60" transform="rotate(0 7 7)" fill="yellow" stroke="black" stroke-width="0.5" />
<rect x="394"  y="314" width="20" height="60" transform="rotate(0 7 7)" fill="yellow" stroke="black" stroke-width="0.5" />
<rect x="414"  y="314" width="20" height="60" transform="rotate(0 7 7)" fill="yellow" stroke="black" stroke-width="0.5" />
<rect x="434"  y="314" width="20" height="60" transform="rotate(0 7 7)" fill="yellow" stroke="black" stroke-width="0.5" />
<rect x="454"  y="314" width="20" height="60" transform="rotate(0 7 7)" fill="yellow" stroke="black" stroke-width="0.5" />
<rect x="474"  y="314" width="20" height="60" transform="rotate(0 7 7)" fill="yellow" stroke="black" stroke-width="0.5" />
<rect x="494"  y="314" width="20" height="60" transform="rotate(0 7 7)" fill="yellow" stroke="black" stroke-width="0.5" />
<rect x="14"  y="374" width="20" height="60" transform="rotate(0 7 7)" fill="yellow" stroke="black" stroke-width="0.5" />
<rect x="34"  y="374" width="20" height="60" transform="rotate(0 7 7)" fill="yellow" stroke="black" stroke-width="0.5" />
<rect x="54"  y="374" width="20" height="60" transform="rotate(0 7 7)" fill="yellow" stroke="black" stroke-width="0.5" />
<rect x="74"  y="374" width="20" height="60" transform="rotate(0 7 7)" fill="yellow" stroke="black" stroke-width="0.5" />
<rect x="94"  y="374" width="20" height="60" transform="rotate(0 7 7)" fill="yellow" stroke="black" stroke-width="0.5" />
<rect x="114"  y="374" width="20" height="60" transform="rotate(0 7 7)" fill="yellow" stroke="black" stroke-width="0.5" />
<rect x="134"  y="374" width="20" height="60" transform="rotate(0 7 7)" fill="yellow" stroke="black" stroke-width="0.5" />
<rect x="154"  y="374" width="20" height="60" transform="rotate(0 7 7)" fill="yellow" stroke="black" stroke-width="0.5" />
<rect x="174"  y="374" width="20" height="60" transform="rotate(0 7 7)" fill="yellow" stroke="black" stroke-width="0.5" />
<rect x="194"  y="374" width="20" height="60" transform="rotate(0 7 7)" fill="yellow" stroke="black" stroke-width="0.5" />
<rect x="214"  y="374" width="20" height="60" transform="rotate(0 7 7)" fill="yellow" stroke="black" stroke-width="0.5" />
<rect x="234"  y="374" width="20" height="60" transform="rotate(0 7 7)" fill="yellow" stroke="black" stroke-width="0.5" />
<rect x="254"  y="374" width="20" height="60" transform="rotate(0 7 7)" fill="yellow" stroke="black" stroke-width="0.5" />
<rect x="274"  y="374" width="20" height="60" transform="rotate(0 7 7)" fill="yellow" stroke="black" stroke-width="0.5" />
<rect x="294"  y="374" width="20" height="60" transform="rotate(0 7 7)" fill="yellow" stroke="black" stroke-width="0.5" />
<rect x="314"  y="374" width="20" height="60" transform="rotate(0 7 7)" fill="yellow" stroke="black" stroke-width="0.5" />
<rect x="334"  y="374" width="20" height="60" transform="rotate(0 7 7)" fill="yellow" stroke="black" stroke-width="0.5" />
<rect x="354"  y="374" width="20" height="60" transform="rotate(0 7 7)" fill="yellow" stroke="black" stroke-width="0.5" />
<rect x="374"  y="374" width="20" height="60" transform="rotate(0 7 7)" fill="yellow" stroke="black" stroke-width="0.5" />
<rect x="394"  y="374" width="20" height="60" transform="rotate(0 7 7)" fill="yellow" stroke="black" stroke-width="0.5" />
<rect x="414"  y="374" width="20" height="60" transform="rotate(0 7 7)" fill="yellow" stroke="black" stroke-width="0.5" />
<rect x="434"  y="374" width="20" height="60" transform="rotate(0 7 7)" fill="yellow" stroke="black" stroke-width="0.5" />
<rect x="454"  y="374" width="20" height="60" transform="rotate(0 7 7)" fill="yellow" stroke="black" stroke-width="0.5" />
<rect x="474"  y="374" width="20" height="60" transform="rotate(0 7 7)" fill="yellow" stroke="black" stroke-width="0.5" />
<rect x="494"  y="374" width="20" height="60" transform="rotate(0 7 7)" fill="yellow" stroke="black" stroke-width="0.5" />
<rect x="14"  y="434" width="20" height="60" transform="rotate(0 7 7)" fill="yellow" stroke="black" stroke-width="0.5" />
<rect x="34"  y="434" width="20" height="60" transform="rotate(0 7 7)" fill="yellow" stroke="black" stroke-width="0.5" />
<rect x="54"  y="434" width="20" height="60" transform="rotate(0 7 7)" fill="yellow" stroke="black" stroke-width="0.5" />
<rect x="74"  y="434" width="20" height="60" transform="rotate(0 7 7)" fill="yellow" stroke="black" stroke-width="0.5" />
<rect x="94"  y="434" width="20" height="60" transform="rotate(0 7 7)" fill="yellow" stroke="black" stroke-width="0.5" />
<rect x="114"  y="434" width="20" height="60" transform="rotate(0 7 7)" fill="yellow" stroke="black" stroke-width="0.5" />
<rect x="134"  y="434" width="20" height="60" transform="rotate(0 7 7)" fill="yellow" stroke="black" stroke-width="0.5" />
<rect x="154"  y="434" width="20" height="60" transform="rotate(0 7 7)" fill="yellow" stroke="black" stroke-width="0.5" />
<rect x="174"  y="434" width="20" height="60" transform="rotate(0 7 7)" fill="yellow" stroke="black" stroke-width="0.5" />
<rect x="194"  y="434" width="20" height="60" transform="rotate(0 7 7)" fill="yellow" stroke="black" stroke-width="0.5" />
<rect x="214"  y="434" width="20" height="60" transform="rotate(0 7 7)" fill="yellow" stroke="black" stroke-width="0.5" />
<rect x="234"  y="434" width="20" height="60" transform="rotate(0 7 7)" fill="yellow" stroke="black" stroke-width="0.5" />
<rect x="254"  y="434" width="20" height="60" transform="rotate(0 7 7)" fill="yellow" stroke="black" stroke-width="0.5" />
<rect x="274"  y="434" width="20" height="60" transform="rotate(0 7 7)" fill="yellow" stroke="black" stroke-width="0.5" />
<rect x="294"  y="434" width="20" height="60" transform="rotate(0 7 7)" fill="yellow" stroke="black" stroke-width="0.5" />
<rect x="314"  y="434" width="20" height="60" transform="rotate(0 7 7)" fill="yellow" stroke="black" stroke-width="0.5" />
<rect x="334"  y="434" width="20" height="60" transform="rotate(0 7 7)" fill="yellow" stroke="black" stroke-width="0.5" />
<rect x="354"  y="434" width="20" height="60" transform="rotate(0 7 7)" fill="yellow" stroke="black" stroke-width="0.5" />
<rect x="374"  y="434" width="20" height="60" transform="rotate(0 7 7)" fill="yellow" stroke="black" stroke-width="0.5" />
<rect x="394"  y="434" width="20" height="60" transform="rotate(0 7 7)" fill="yellow" stroke="black" stroke-width="0.5" />
<rect x="414"  y="434" width="20" height="60" transform="rotate(0 7 7)" fill="yellow" stroke="black" stroke-width="0.5" />
<rect x="434"  y="434" width="20" height="60" transform="rotate(0 7 7)" fill="yellow" stroke="black" stroke-width="0.5" />
<rect x="454"  y="434" width="20" height="60" transform="rotate(0 7 7)" fill="yellow" stroke="black" stroke-width="0.5" />
<rect x="474"  y="434" width="20" height="60" transform="rotate(0 7 7)" fill="yellow" stroke="black" stroke-width="0.5" />
<rect x="494"  y="434" width="20" height="60" transform="rotate(0 7 7)" fill="yellow" stroke="black" stroke-width="0.5" />
<rect x="14"  y="494" width="20" height="60" transform="rotate(0 7 7)" fill="yellow" stroke="black" stroke-width="0.5" />
<rect x="34"  y="494" width="20" height="60" transform="rotate(0 7 7)" fill="yellow" stroke="black" stroke-width="0.5" />
<rect x="54"  y="494" width="20" height="60" transform="rotate(0 7 7)" fill="yellow" stroke="black" stroke-width="0.5" />
<rect x="74"  y="494" width="20" height="60" transform="rotate(0 7 7)" fill="yellow" stroke="black" stroke-width="0.5" />
<rect x="94"  y="494" width="20" height="60" transform="rotate(0 7 7)" fill="yellow" stroke="black" stroke-width="0.5" />
<rect x="114"  y="494" width="20" height="60" transform="rotate(0 7 7)" fill="yellow" stroke="black" stroke-width="0.5" />
<rect x="134"  y="494" width="20" height="60" transform="rotate(0 7 7)" fill="yellow" stroke="black" stroke-width="0.5" />
<rect x="154"  y="494" width="20" height="60" transform="rotate(0 7 7)" fill="yellow" stroke="black" stroke-width="0.5" />
<rect x="174"  y="494" width="20" height="60" transform="rotate(0 7 7)" fill="yellow" stroke="black" stroke-width="0.5" />
<rect x="194"  y="494" width="20" height="60" transform="rotate(0 7 7)" fill="yellow" stroke="black" stroke-width="0.5" />
<rect x="214"  y="494" width="20" height="60" transform="rotate(0 7 7)" fill="yellow" stroke="black" stroke-width="0.5" />
<rect x="234"  y="494" width="20" height="60" transform="rotate(0 7 7)" fill="yellow" stroke="black" stroke-width="0.5" />
<rect x="254"  y="494" width="20" height="60" transform="rotate(0 7 7)" fill="yellow" stroke="black" stroke-width="0.5" />
<rect x="274"  y="494" width="20" height="60" transform="rotate(0 7 7)" fill="yellow" stroke="black" stroke-width="0.5" />
<rect x="294"  y="494" width="20" height="60" transform="rotate(0 7 7)" fill="yellow" stroke="black" stroke-width="0.5" />
<rect x="314"  y="494" width="20" height="60" transform="rotate(0 7 7)" fill="yellow" stroke="black" stroke-width="0.5" />
<rect x="334"  y="494" width="20" height="60" transform="rotate(0 7 7)" fill="yellow" stroke="black" stroke-width="0.5" />
<rect x="354"  y="494" width="20" height="60" transform="rotate(0 7 7)" fill="yellow" stroke="black" stroke-width="0.5" />
<rect x="374"  y="494" width="20" height="60" transform="rotate(0 7 7)" fill="yellow" stroke="black" stroke-width="0.5" />
<rect x="394"  y="494" width="20" height="60" transform="rotate(0 7 7)" fill="yellow" stroke="black" stroke-width="0.5" />
<rect x="414"  y="494" width="20" height="60" transform="rotate(0 7 7)" fill="yellow" stroke="black" stroke-width="0.5" />
<rect x="434"  y="494" width="20" height="60" transform="rotate(0 7 7)" fill="yellow" stroke="black" stroke-width="0.5" />
<rect x="454"  y="494" width="20" height="60" transform="rotate(0 7 7)" fill="yellow" stroke="black" stroke-width="0.5" />
<rect x="474"  y="494" width="20" height="60" transform="rotate(0 7 7)" fill="yellow" stroke="black" stroke-width="0.5" />
<rect x="494"  y="494" width="20" height="60" transform="rotate(0 7 7)" fill="yellow" stroke="black" stroke-width="0.5" />
<rect x="14"  y="554" width="20" height="60" transform="rotate(0 7 7)" fill="yellow" stroke="black" stroke-width="0.5" />
<rect x="34"  y="554" width="20" height="60" transform="rotate(0 7 7)" fill="yellow" stroke="black" stroke-width="0.5" />
<rect x="54"  y="554" width="20" height="60" transform="rotate(0 7 7)" fill="yellow" stroke="black" stroke-width="0.5" />
<rect x="74"  y="554" width="20" height="60" transform="rotate(0 7 7)" fill="yellow" stroke="black" stroke-width="0.5" />
<rect x="94"  y="554" width="20" height="60" transform="rotate(0 7 7)" fill="yellow" stroke="black" stroke-width="0.5" />
<rect x="114"  y="554" width="20" height="60" transform="rotate(0 7 7)" fill="yellow" stroke="black" stroke-width="0.5" />
<rect x="134"  y="554" width="20" height="60" transform="rotate(0 7 7)" fill="yellow" stroke="black" stroke-width="0.5" />
<rect x="154"  y="554" width="20" height="60" transform="rotate(0 7 7)" fill="yellow" stroke="black" stroke-width="0.5" />
<rect x="174"  y="554" width="20" height="60" transform="rotate(0 7 7)" fill="yellow" stroke="black" stroke-width="0.5" />
<rect x="194"  y="554" width="20" height="60" transform="rotate(0 7 7)" fill="yellow" stroke="black" stroke-width="0.5" />
<rect x="214"  y="554" width="20" height="60" transform="rotate(0 7 7)" fill="yellow" stroke="black" stroke-width="0.5" />
<rect x="234"  y="554" width="20" height="60" transform="rotate(0 7 7)" fill="yellow" stroke="black" stroke-width="0.5" />
<rect x="254"  y="554" width="20" height="60" transform="rotate(0 7 7)" fill="yellow" stroke="black" stroke-width="0.5" />
<rect x="274"  y="554" width="20" height="60" transform="rotate(0 7 7)" fill="yellow" stroke="black" stroke-width="0.5" />
<rect x="294"  y="554" width="20" height="60" transform="rotate(0 7 7)" fill="yellow" stroke="black" stroke-width="0.5" />
<rect x="314"  y="554" width="20" height="60" transform="rotate(0 7 7)" fill="yellow" stroke="black" stroke-width="0.5" />
<rect x="334"  y="554" width="20" height="60" transform="rotate(0 7 7)" fill="yellow" stroke="black" stroke-width="0.5" />
<rect x="354"  y="554" width="20" height="60" transform="rotate(0 7 7)" fill="yellow" stroke="black" stroke-width="0.5" />
<rect x="374"  y="554" width="20" height="60" transform="rotate(0 7 7)" fill="yellow" stroke="black" stroke-width="0.5" />
<rect x="394"  y="554" width="20" height="60" transform="rotate(0 7 7)" fill="yellow" stroke="black" stroke-width="0.5" />
<rect x="414"  y="554" width="20" height="60" transform="rotate(0 7 7)" fill="yellow" stroke="black" stroke-width="0.5" />
<rect x="434"  y="554" width="20" height="60" transform="rotate(0 7 7)" fill="yellow" stroke="black" stroke-width="0.5" />
<rect x="454"  y="554" width="20" height="60" transform="rotate(0 7 7)" fill="yellow" stroke="black" stroke-width="0.5" />
<rect x="474"  y="554" width="20" height="60" transform="rotate(0 7 7)" fill="yellow" stroke="black" stroke-width="0.5" />
<rect x="494"  y="554" width="20" height="60" transform="rotate(0 7 7)" fill="yellow" stroke="black" stroke-width="0.5" />
<rect x="14"  y="614" width="20" height="60" transform="rotate(0 7 7)" fill="yellow" stroke="black" stroke-width="0.5" />
<rect x="34"  y="614" width="20" height="60" transform="rotate(0 7 7)" fill="yellow" stroke="black" stroke-width="0.5" />
<rect x="54"  y="614" width="20" height="60" transform="rotate(0 7 7)" fill="yellow" stroke="black" stroke-width="0.5" />
<rect x="74"  y="614" width="20" height="60" transform="rotate(0 7 7)" fill="yellow" stroke="black" stroke-width="0.5" />
<rect x="94"  y="614" width="20" height="60" transform="rotate(0 7 7)" fill="yellow" stroke="black" stroke-width="0.5" />
<rect x="114"  y="614" width="20" height="60" transform="rotate(0 7 7)" fill="yellow" stroke="black" stroke-width="0.5" />
<rect x="134"  y="614" width="20" height="60" transform="rotate(0 7 7)" fill="yellow" stroke="black" stroke-width="0.5" />
<rect x="154"  y="614" width="20" height="60" transform="rotate(0 7 7)" fill="yellow" stroke="black" stroke-width="0.5" />
<rect x="174"  y="614" width="20" height="60" transform="rotate(0 7 7)" fill="yellow" stroke="black" stroke-width="0.5" />
<rect x="194"  y="614" width="20" height="60" transform="rotate(0 7 7)" fill="yellow" stroke="black" stroke-width="0.5" />
<rect x="214"  y="614" width="20" height="60" transform="rotate(0 7 7)" fill="yellow" stroke="black" stroke-width="0.5" />
<rect x="234"  y="614" width="20" height="60" transform="rotate(0 7 7)" fill="yellow" stroke="black" stroke-width="0.5" />
<rect x="254"  y="614" width="20" height="60" transform="rotate(0 7 7)" fill="yellow" stroke="black" stroke-width="0.5" />
<rect x="274"  y="614" width="20" height="60" transform="rotate(0 7 7)" fill="yellow" stroke="black" stroke-width="0.5" />
<rect x="294"  y="614" width="20" height="60" transform="rotate(0 7 7)" fill="yellow" stroke="black" stroke-width="0.5" />
<rect x="314"  y="614" width="20" height="60" transform="rotate(0 7 7)" fill="yellow" stroke="black" stroke-width="0.5" />
<rect x="334"  y="614" width="20" height="60" transform="rotate(0 7 7)" fill="yellow" stroke="black" stroke-width="0.5" />
<rect x="354"  y="614" width="20" height="60" transform="rotate(0 7 7)" fill="yellow" stroke="black" stroke-width="0.5" />
<rect x="374"  y="614" width="20" height="60" transform="rotate(0 7 7)" fill="yellow" stroke="black" stroke-width="0.5" />
<rect x="394"  y="614" width="20" height="60" transform="rotate(0 7 7)" fill="yellow" stroke="black" stroke-width="0.5" />
<rect x="414"  y="614" width="20" height="60" transform="rotate(0 7 7)" fill="yellow" stroke="black" stroke-width="0.5" />
<rect x="434"  y="614" width="20" height="60" transform="rotate(0 7 7)" fill="yellow" stroke="black" stroke-width="0.5" />
<rect x="454"  y="614" width="20" height="60" transform="rotate(0 7 7)" fill="yellow" stroke="black" stroke-width="0.5" />
<rect x="474"  y="614" width="20" height="60" transform="rotate(0 7 7)" fill="yellow" stroke="black" stroke-width="0.5" />
<rect x="494"  y="614" width="20" height="60" transform="rotate(0 7 7)" fill="yellow" stroke="black" stroke-width="0.5" />
<rect x="14"  y="674" width="20" height="60" transform="rotate(0 7 7)" fill="yellow" stroke="black" stroke-width="0.5" />
<rect x="34"  y="674" width="20" height="60" transform="rotate(0 7 7)" fill="yellow" stroke="black" stroke-width="0.5" />
<rect x="54"  y="674" width="20" height="60" transform="rotate(0 7 7)" fill="yellow" stroke="black" stroke-width="0.5" />
<rect x="74"  y="674" width="20" height="60" transform="rotate(0 7 7)" fill="yellow" stroke="black" stroke-width="0.5" />
<rect x="94"  y="674" width="20" height="60" transform="rotate(0 7 7)" fill="yellow" stroke="black" stroke-width="0.5" />
<rect x="114"  y="674" width="20" height="60" transform="rotate(0 7 7)" fill="yellow" stroke="black" stroke-width="0.5" />
<rect x="134"  y="674" width="20" height="60" transform="rotate(0 7 7)" fill="yellow" stroke="black" stroke-width="0.5" />
<rect x="154"  y="674" width="20" height="60" transform="rotate(0 7 7)" fill="yellow" stroke="black" stroke-width="0.5" />
<rect x="174"  y="674" width="20" height="60" transform="rotate(0 7 7)" fill="yellow" stroke="black" stroke-width="0.5" />
<rect x="194"  y="674" width="20" height="60" transform="rotate(0 7 7)" fill="yellow" stroke="black" stroke-width="0.5" />
<rect x="214"  y="674" width="20" height="60" transform="rotate(0 7 7)" fill="yellow" stroke="black" stroke-width="0.5" />
<rect x="234"  y="674" width="20" height="60" transform="rotate(0 7 7)" fill="yellow" stroke="black" stroke-width="0.5" />
<rect x="254"  y="674" width="20" height="60" transform="rotate(0 7 7)" fill="yellow" stroke="black" stroke-width="0.5" />
<rect x="274"  y="674" width="20" height="60" transform="rotate(0 7 7)" fill="yellow" stroke="black" stroke-width="0.5" />
<rect x="294"  y="674" width="20" height="60" transform="rotate(0 7 7)" fill="yellow" stroke="black" stroke-width="0.5" />
<rect x="314"  y="674" width="20" height="60" transform="rotate(0 7 7)" fill="yellow" stroke="black" stroke-width="0.5" />
<rect x="334"  y="674" width="20" height="60" transform="rotate(0 7 7)" fill="yellow" stroke="black" stroke-width="0.5" />
<rect x="354"  y="674" width="20" height="60" transform="rotate(0 7 7)" fill="yellow" stroke="black" stroke-width="0.5" />
<rect x="374"  y="674" width="20" height="60" transform="rotate(0 7 7)" fill="yellow" stroke="black" stroke-width="0.5" />
<rect x="394"  y="674" width="20" height="60" transform="rotate(0 7 7)" fill="yellow" stroke="black" stroke-width="0.5" />
<rect x="414"  y="674" width="20" height="60" transform="rotate(0 7 7)" fill="yellow" stroke="black" stroke-width="0.5" />
<rect x="434"  y="674" width="20" height="60" transform="rotate(0 7 7)" fill="yellow" stroke="black" stroke-width="0.5" />
<rect x="454"  y="674" width="20" height="60" transform="rotate(0 7 7)" fill="yellow" stroke="black" stroke-width="0.5" />
<rect x="474"  y="674" width="20" height="60" transform="rotate(0 7 7)" fill="yellow" stroke="black" stroke-width="0.5" />
<rect x="494"  y="674" width="20" height="60" transform="rotate(0 7 7)" fill="yellow" stroke="black" stroke-width="0.5" />
<rect x="14"  y="734" width="60" height="20" transform="rotate(0 7 7)" fill="yellow" stroke="black" stroke-width="0.5" />
<rect x="74"  y="734" width="60" height="20" transform="rotate(0 7 7)" fill="yellow" stroke="black" stroke-width="0.5" />
<rect x="134"  y="734" width="60" height="20" transform="rotate(0 7 7)" fill="yellow" stroke="black" stroke-width="0.5" />
<rect x="194"  y="734" width="60" height="20" transform="rotate(0 7 7)" fill="yellow" stroke="black" stroke-width="0.5" />
<rect x="254"  y="734" width="60" height="20" transform="rotate(0 7 7)" fill="yellow" stroke="black" stroke-width="0.5" />
<rect x="314"  y="734" width="60" height="20" transform="rotate(0 7 7)" fill="yellow" stroke="black" stroke-width="0.5" />
<rect x="374"  y="734" width="60" height="20" transform="rotate(0 7 7)" fill="yellow" stroke="black" stroke-width="0.5" />
<rect x="434"  y="734" width="60" height="20" transform="rotate(0 7 7)" fill="yellow" stroke="black" stroke-width="0.5" />
</svg>
