<svg version="1.1" baseProfile="full" xmlns="http://www.w3.org/2000/svg">
<rect x="12"  y="12" width="500" height="500" transform="rotate(0 12 12)" fill="dimgrey" stroke="black" stroke-width="0.5" />
<rect x="12"  y="12" width="110" height="15" transform="rotate(0 7 7)" fill="green" stroke="black" stroke-width="0.5" />
<rect x="122"  y="12" width="110" height="15" transform="rotate(0 7 7)" fill="green" stroke="black" stroke-width="0.5" />
<rect x="232"  y="12" width="110" height="15" transform="rotate(0 7 7)" fill="green" stroke="black" stroke-width="0.5" />
<rect x="342"  y="12" width="110" height="15" transform="rotate(0 7 7)" fill="green" stroke="black" stroke-width="0.5" />
<rect x="12"  y="27" width="110" height="15" transform="rotate(0 7 7)" fill="green" stroke="black" stroke-width="0.5" />
<rect x="122"  y="27" width="110" height="15" transform="rotate(0 7 7)" fill="green" stroke="black" stroke-width="0.5" />
<rect x="232"  y="27" width="110" height="15" transform="rotate(0 7 7)" fill="green" stroke="black" stroke-width="0.5" />
<rect x="342"  y="27" width="110" height="15" transform="rotate(0 7 7)" fill="green" stroke="black" stroke-width="0.5" />
<rect x="12"  y="42" width="110" height="15" transform="rotate(0 7 7)" fill="green" stroke="black" stroke-width="0.5" />
<rect x="122"  y="42" width="110" height="15" transform="rotate(0 7 7)" fill="green" stroke="black" stroke-width="0.5" />
<rect x="232"  y="42" width="110" height="15" transform="rotate(0 7 7)" fill="green" stroke="black" stroke-width="0.5" />
<rect x="342"  y="42" width="110" height="15" transform="rotate(0 7 7)" fill="green" stroke="black" stroke-width="0.5" />
<rect x="12"  y="57" width="110" height="15" transform="rotate(0 7 7)" fill="green" stroke="black" stroke-width="0.5" />
<rect x="122"  y="57" width="110" height="15" transform="rotate(0 7 7)" fill="green" stroke="black" stroke-width="0.5" />
<rect x="232"  y="57" width="110" height="15" transform="rotate(0 7 7)" fill="green" stroke="black" stroke-width="0.5" />
<rect x="342"  y="57" width="110" height="15" transform="rotate(0 7 7)" fill="green" stroke="black" stroke-width="0.5" />
<rect x="12"  y="72" width="110" height="15" transform="rotate(0 7 7)" fill="green" stroke="black" stroke-width="0.5" />
<rect x="122"  y="72" width="110" height="15" transform="rotate(0 7 7)" fill="green" stroke="black" stroke-width="0.5" />
<rect x="232"  y="72" width="110" height="15" transform="rotate(0 7 7)" fill="green" stroke="black" stroke-width="0.5" />
<rect x="342"  y="72" width="110" height="15" transform="rotate(0 7 7)" fill="green" stroke="black" stroke-width="0.5" />
<rect x="12"  y="87" width="110" height="15" transform="rotate(0 7 7)" fill="green" stroke="black" stroke-width="0.5" />
<rect x="122"  y="87" width="110" height="15" transform="rotate(0 7 7)" fill="green" stroke="black" stroke-width="0.5" />
<rect x="232"  y="87" width="110" height="15" transform="rotate(0 7 7)" fill="green" stroke="black" stroke-width="0.5" />
<rect x="342"  y="87" width="110" height="15" transform="rotate(0 7 7)" fill="green" stroke="black" stroke-width="0.5" />
<rect x="12"  y="102" width="110" height="15" transform="rotate(0 7 7)" fill="green" stroke="black" stroke-width="0.5" />
<rect x="122"  y="102" width="110" height="15" transform="rotate(0 7 7)" fill="green" stroke="black" stroke-width="0.5" />
<rect x="232"  y="102" width="110" height="15" transform="rotate(0 7 7)" fill="green" stroke="black" stroke-width="0.5" />
<rect x="342"  y="102" width="110" height="15" transform="rotate(0 7 7)" fill="green" stroke="black" stroke-width="0.5" />
<rect x="12"  y="117" width="110" height="15" transform="rotate(0 7 7)" fill="green" stroke="black" stroke-width="0.5" />
<rect x="122"  y="117" width="110" height="15" transform="rotate(0 7 7)" fill="green" stroke="black" stroke-width="0.5" />
<rect x="232"  y="117" width="110" height="15" transform="rotate(0 7 7)" fill="green" stroke="black" stroke-width="0.5" />
<rect x="342"  y="117" width="110" height="15" transform="rotate(0 7 7)" fill="green" stroke="black" stroke-width="0.5" />
<rect x="12"  y="132" width="110" height="15" transform="rotate(0 7 7)" fill="green" stroke="black" stroke-width="0.5" />
<rect x="122"  y="132" width="110" height="15" transform="rotate(0 7 7)" fill="green" stroke="black" stroke-width="0.5" />
<rect x="232"  y="132" width="110" height="15" transform="rotate(0 7 7)" fill="green" stroke="black" stroke-width="0.5" />
<rect x="342"  y="132" width="110" height="15" transform="rotate(0 7 7)" fill="green" stroke="black" stroke-width="0.5" />
<rect x="12"  y="147" width="110" height="15" transform="rotate(0 7 7)" fill="green" stroke="black" stroke-width="0.5" />
<rect x="122"  y="147" width="110" height="15" transform="rotate(0 7 7)" fill="green" stroke="black" stroke-width="0.5" />
<rect x="232"  y="147" width="110" height="15" transform="rotate(0 7 7)" fill="green" stroke="black" stroke-width="0.5" />
<rect x="342"  y="147" width="110" height="15" transform="rotate(0 7 7)" fill="green" stroke="black" stroke-width="0.5" />
<rect x="12"  y="162" width="110" height="15" transform="rotate(0 7 7)" fill="green" stroke="black" stroke-width="0.5" />
<rect x="122"  y="162" width="110" height="15" transform="rotate(0 7 7)" fill="green" stroke="black" stroke-width="0.5" />
<rect x="232"  y="162" width="110" height="15" transform="rotate(0 7 7)" fill="green" stroke="black" stroke-width="0.5" />
<rect x="342"  y="162" width="110" height="15" transform="rotate(0 7 7)" fill="green" stroke="black" stroke-width="0.5" />
<rect x="12"  y="177" width="110" height="15" transform="rotate(0 7 7)" fill="green" stroke="black" stroke-width="0.5" />
<rect x="122"  y="177" width="110" height="15" transform="rotate(0 7 7)" fill="green" stroke="black" stroke-width="0.5" />
<rect x="232"  y="177" width="110" height="15" transform="rotate(0 7 7)" fill="green" stroke="black" stroke-width="0.5" />
<rect x="342"  y="177" width="110" height="15" transform="rotate(0 7 7)" fill="green" stroke="black" stroke-width="0.5" />
<rect x="12"  y="192" width="110" height="15" transform="rotate(0 7 7)" fill="green" stroke="black" stroke-width="0.5" />
<rect x="122"  y="192" width="110" height="15" transform="rotate(0 7 7)" fill="green" stroke="black" stroke-width="0.5" />
<rect x="232"  y="192" width="110" height="15" transform="rotate(0 7 7)" fill="green" stroke="black" stroke-width="0.5" />
<rect x="342"  y="192" width="110" height="15" transform="rotate(0 7 7)" fill="green" stroke="black" stroke-width="0.5" />
<rect x="12"  y="207" width="110" height="15" transform="rotate(0 7 7)" fill="green" stroke="black" stroke-width="0.5" />
<rect x="122"  y="207" width="110" height="15" transform="rotate(0 7 7)" fill="green" stroke="black" stroke-width="0.5" />
<rect x="232"  y="207" width="110" height="15" transform="rotate(0 7 7)" fill="green" stroke="black" stroke-width="0.5" />
<rect x="342"  y="207" width="110" height="15" transform="rotate(0 7 7)" fill="green" stroke="black" stroke-width="0.5" />
<rect x="12"  y="222" width="110" height="15" transform="rotate(0 7 7)" fill="green" stroke="black" stroke-width="0.5" />
<rect x="122"  y="222" width="110" height="15" transform="rotate(0 7 7)" fill="green" stroke="black" stroke-width="0.5" />
<rect x="232"  y="222" width="110" height="15" transform="rotate(0 7 7)" fill="green" stroke="black" stroke-width="0.5" />
<rect x="342"  y="222" width="110" height="15" transform="rotate(0 7 7)" fill="green" stroke="black" stroke-width="0.5" />
<rect x="12"  y="237" width="110" height="15" transform="rotate(0 7 7)" fill="green" stroke="black" stroke-width="0.5" />
<rect x="122"  y="237" width="110" height="15" transform="rotate(0 7 7)" fill="green" stroke="black" stroke-width="0.5" />
<rect x="232"  y="237" width="110" height="15" transform="rotate(0 7 7)" fill="green" stroke="black" stroke-width="0.5" />
<rect x="342"  y="237" width="110" height="15" transform="rotate(0 7 7)" fill="green" stroke="black" stroke-width="0.5" />
<rect x="12"  y="252" width="110" height="15" transform="rotate(0 7 7)" fill="green" stroke="black" stroke-width="0.5" />
<rect x="122"  y="252" width="110" height="15" transform="rotate(0 7 7)" fill="green" stroke="black" stroke-width="0.5" />
<rect x="232"  y="252" width="110" height="15" transform="rotate(0 7 7)" fill="green" stroke="black" stroke-width="0.5" />
<rect x="342"  y="252" width="110" height="15" transform="rotate(0 7 7)" fill="green" stroke="black" stroke-width="0.5" />
<rect x="12"  y="267" width="110" height="15" transform="rotate(0 7 7)" fill="green" stroke="black" stroke-width="0.5" />
<rect x="122"  y="267" width="110" height="15" transform="rotate(0 7 7)" fill="green" stroke="black" stroke-width="0.5" />
<rect x="232"  y="267" width="110" height="15" transform="rotate(0 7 7)" fill="green" stroke="black" stroke-width="0.5" />
<rect x="342"  y="267" width="110" height="15" transform="rotate(0 7 7)" fill="green" stroke="black" stroke-width="0.5" />
<rect x="12"  y="282" width="110" height="15" transform="rotate(0 7 7)" fill="green" stroke="black" stroke-width="0.5" />
<rect x="122"  y="282" width="110" height="15" transform="rotate(0 7 7)" fill="green" stroke="black" stroke-width="0.5" />
<rect x="232"  y="282" width="110" height="15" transform="rotate(0 7 7)" fill="green" stroke="black" stroke-width="0.5" />
<rect x="342"  y="282" width="110" height="15" transform="rotate(0 7 7)" fill="green" stroke="black" stroke-width="0.5" />
<rect x="12"  y="297" width="110" height="15" transform="rotate(0 7 7)" fill="green" stroke="black" stroke-width="0.5" />
<rect x="122"  y="297" width="110" height="15" transform="rotate(0 7 7)" fill="green" stroke="black" stroke-width="0.5" />
<rect x="232"  y="297" width="110" height="15" transform="rotate(0 7 7)" fill="green" stroke="black" stroke-width="0.5" />
<rect x="342"  y="297" width="110" height="15" transform="rotate(0 7 7)" fill="green" stroke="black" stroke-width="0.5" />
<rect x="12"  y="312" width="110" height="15" transform="rotate(0 7 7)" fill="green" stroke="black" stroke-width="0.5" />
<rect x="122"  y="312" width="110" height="15" transform="rotate(0 7 7)" fill="green" stroke="black" stroke-width="0.5" />
<rect x="232"  y="312" width="110" height="15" transform="rotate(0 7 7)" fill="green" stroke="black" stroke-width="0.5" />
<rect x="342"  y="312" width="110" height="15" transform="rotate(0 7 7)" fill="green" stroke="black" stroke-width="0.5" />
<rect x="12"  y="327" width="110" height="15" transform="rotate(0 7 7)" fill="green" stroke="black" stroke-width="0.5" />
<rect x="122"  y="327" width="110" height="15" transform="rotate(0 7 7)" fill="green" stroke="black" stroke-width="0.5" />
<rect x="232"  y="327" width="110" height="15" transform="rotate(0 7 7)" fill="green" stroke="black" stroke-width="0.5" />
<rect x="342"  y="327" width="110" height="15" transform="rotate(0 7 7)" fill="green" stroke="black" stroke-width="0.5" />
<rect x="12"  y="342" width="110" height="15" transform="rotate(0 7 7)" fill="green" stroke="black" stroke-width="0.5" />
<rect x="122"  y="342" width="110" height="15" transform="rotate(0 7 7)" fill="green" stroke="black" stroke-width="0.5" />
<rect x="232"  y="342" width="110" height="15" transform="rotate(0 7 7)" fill="green" stroke="black" stroke-width="0.5" />
<rect x="342"  y="342" width="110" height="15" transform="rotate(0 7 7)" fill="green" stroke="black" stroke-width="0.5" />
<rect x="12"  y="357" width="110" height="15" transform="rotate(0 7 7)" fill="green" stroke="black" stroke-width="0.5" />
<rect x="122"  y="357" width="110" height="15" transform="rotate(0 7 7)" fill="green" stroke="black" stroke-width="0.5" />
<rect x="232"  y="357" width="110" height="15" transform="rotate(0 7 7)" fill="green" stroke="black" stroke-width="0.5" />
<rect x="342"  y="357" width="110" height="15" transform="rotate(0 7 7)" fill="green" stroke="black" stroke-width="0.5" />
<rect x="12"  y="372" width="110" height="15" transform="rotate(0 7 7)" fill="green" stroke="black" stroke-width="0.5" />
<rect x="122"  y="372" width="110" height="15" transform="rotate(0 7 7)" fill="green" stroke="black" stroke-width="0.5" />
<rect x="232"  y="372" width="110" height="15" transform="rotate(0 7 7)" fill="green" stroke="black" stroke-width="0.5" />
<rect x="342"  y="372" width="110" height="15" transform="rotate(0 7 7)" fill="green" stroke="black" stroke-width="0.5" />
<rect x="12"  y="387" width="110" height="15" transform="rotate(0 7 7)" fill="green" stroke="black" stroke-width="0.5" />
<rect x="122"  y="387" width="110" height="15" transform="rotate(0 7 7)" fill="green" stroke="black" stroke-width="0.5" />
<rect x="232"  y="387" width="110" height="15" transform="rotate(0 7 7)" fill="green" stroke="black" stroke-width="0.5" />
<rect x="342"  y="387" width="110" height="15" transform="rotate(0 7 7)" fill="green" stroke="black" stroke-width="0.5" />
<rect x="12"  y="402" width="110" height="15" transform="rotate(0 7 7)" fill="green" stroke="black" stroke-width="0.5" />
<rect x="122"  y="402" width="110" height="15" transform="rotate(0 7 7)" fill="green" stroke="black" stroke-width="0.5" />
<rect x="232"  y="402" width="110" height="15" transform="rotate(0 7 7)" fill="green" stroke="black" stroke-width="0.5" />
<rect x="342"  y="402" width="110" height="15" transform="rotate(0 7 7)" fill="green" stroke="black" stroke-width="0.5" />
<rect x="12"  y="417" width="110" height="15" transform="rotate(0 7 7)" fill="green" stroke="black" stroke-width="0.5" />
<rect x="122"  y="417" width="110" height="15" transform="rotate(0 7 7)" fill="green" stroke="black" stroke-width="0.5" />
<rect x="232"  y="417" width="110" height="15" transform="rotate(0 7 7)" fill="green" stroke="black" stroke-width="0.5" />
<rect x="342"  y="417" width="110" height="15" transform="rotate(0 7 7)" fill="green" stroke="black" stroke-width="0.5" />
<rect x="12"  y="432" width="110" height="15" transform="rotate(0 7 7)" fill="green" stroke="black" stroke-width="0.5" />
<rect x="122"  y="432" width="110" height="15" transform="rotate(0 7 7)" fill="green" stroke="black" stroke-width="0.5" />
<rect x="232"  y="432" width="110" height="15" transform="rotate(0 7 7)" fill="green" stroke="black" stroke-width="0.5" />
<rect x="342"  y="432" width="110" height="15" transform="rotate(0 7 7)" fill="green" stroke="black" stroke-width="0.5" />
<rect x="12"  y="447" width="110" height="15" transform="rotate(0 7 7)" fill="green" stroke="black" stroke-width="0.5" />
<rect x="122"  y="447" width="110" height="15" transform="rotate(0 7 7)" fill="green" stroke="black" stroke-width="0.5" />
<rect x="232"  y="447" width="110" height="15" transform="rotate(0 7 7)" fill="green" stroke="black" stroke-width="0.5" />
<rect x="342"  y="447" width="110" height="15" transform="rotate(0 7 7)" fill="green" stroke="black" stroke-width="0.5" />
<rect x="12"  y="462" width="110" height="15" transform="rotate(0 7 7)" fill="green" stroke="black" stroke-width="0.5" />
<rect x="122"  y="462" width="110" height="15" transform="rotate(0 7 7)" fill="green" stroke="black" stroke-width="0.5" />
<rect x="232"  y="462" width="110" height="15" transform="rotate(0 7 7)" fill="green" stroke="black" stroke-width="0.5" />
<rect x="342"  y="462" width="110" height="15" transform="rotate(0 7 7)" fill="green" stroke="black" stroke-width="0.5" />
<rect x="12"  y="477" width="110" height="15" transform="rotate(0 7 7)" fill="green" stroke="black" stroke-width="0.5" />
<rect x="122"  y="477" width="110" height="15" transform="rotate(0 7 7)" fill="green" stroke="black" stroke-width="0.5" />
<rect x="232"  y="477" width="110" height="15" transform="rotate(0 7 7)" fill="green" stroke="black" stroke-width="0.5" />
<rect x="342"  y="477" width="110" height="15" transform="rotate(0 7 7)" fill="green" stroke="black" stroke-width="0.5" />
<rect x="12"  y="492" width="110" height="15" transform="rotate(0 7 7)" fill="green" stroke="black" stroke-width="0.5" />
<rect x="122"  y="492" width="110" height="15" transform="rotate(0 7 7)" fill="green" stroke="black" stroke-width="0.5" />
<rect x="232"  y="492" width="110" height="15" transform="rotate(0 7 7)" fill="green" stroke="black" stroke-width="0.5" />
<rect x="342"  y="492" width="110" height="15" transform="rotate(0 7 7)" fill="green" stroke="black" stroke-width="0.5" />
<rect x="452"  y="12" width="15" height="110" transform="rotate(0 7 7)" fill="green" stroke="black" stroke-width="0.5" />
<rect x="452"  y="122" width="15" height="110" transform="rotate(0 7 7)" fill="green" stroke="black" stroke-width="0.5" />
<rect x="452"  y="232" width="15" height="110" transform="rotate(0 7 7)" fill="green" stroke="black" stroke-width="0.5" />
<rect x="452"  y="342" width="15" height="110" transform="rotate(0 7 7)" fill="green" stroke="black" stroke-width="0.5" />
<rect x="467"  y="12" width="15" height="110" transform="rotate(0 7 7)" fill="green" stroke="black" stroke-width="0.5" />
<rect x="467"  y="122" width="15" height="110" transform="rotate(0 7 7)" fill="green" stroke="black" stroke-width="0.5" />
<rect x="467"  y="232" width="15" height="110" transform="rotate(0 7 7)" fill="green" stroke="black" stroke-width="0.5" />
<rect x="467"  y="342" width="15" height="110" transform="rotate(0 7 7)" fill="green" stroke="black" stroke-width="0.5" />
<rect x="482"  y="12" width="15" height="110" transform="rotate(0 7 7)" fill="green" stroke="black" stroke-width="0.5" />
<rect x="482"  y="122" width="15" height="110" transform="rotate(0 7 7)" fill="green" stroke="black" stroke-width="0.5" />
<rect x="482"  y="232" width="15" height="110" transform="rotate(0 7 7)" fill="green" stroke="black" stroke-width="0.5" />
<rect x="482"  y="342" width="15" height="110" transform="rotate(0 7 7)" fill="green" stroke="black" stroke-width="0.5" />
</svg>
