<svg version="1.1" baseProfile="full" xmlns="http://www.w3.org/2000/svg">
<rect x="26"  y="26" width="500" height="500" transform="rotate(0 26 26)" fill="dimgrey" stroke="black" stroke-width="0.5" />
<circle cx="56" cy="56" r="30" transform="rotate(0 7 7)" fill="cyan" stroke="black" stroke-width="0.5" />
<circle cx="116" cy="56" r="30" transform="rotate(0 7 7)" fill="cyan" stroke="black" stroke-width="0.5" />
<circle cx="176" cy="56" r="30" transform="rotate(0 7 7)" fill="cyan" stroke="black" stroke-width="0.5" />
<circle cx="236" cy="56" r="30" transform="rotate(0 7 7)" fill="cyan" stroke="black" stroke-width="0.5" />
<circle cx="296" cy="56" r="30" transform="rotate(0 7 7)" fill="cyan" stroke="black" stroke-width="0.5" />
<circle cx="356" cy="56" r="30" transform="rotate(0 7 7)" fill="cyan" stroke="black" stroke-width="0.5" />
<circle cx="416" cy="56" r="30" transform="rotate(0 7 7)" fill="cyan" stroke="black" stroke-width="0.5" />
<circle cx="476" cy="56" r="30" transform="rotate(0 7 7)" fill="cyan" stroke="black" stroke-width="0.5" />
<circle cx="86" cy="107.962" r="30" transform="rotate(0 7 7)" fill="cyan" stroke="black" stroke-width="0.5" />
<circle cx="146" cy="107.962" r="30" transform="rotate(0 7 7)" fill="cyan" stroke="black" stroke-width="0.5" />
<circle cx="206" cy="107.962" r="30" transform="rotate(0 7 7)" fill="cyan" stroke="black" stroke-width="0.5" />
<circle cx="266" cy="107.962" r="30" transform="rotate(0 7 7)" fill="cyan" stroke="black" stroke-width="0.5" />
<circle cx="326" cy="107.962" r="30" transform="rotate(0 7 7)" fill="cyan" stroke="black" stroke-width="0.5" />
<circle cx="386" cy="107.962" r="30" transform="rotate(0 7 7)" fill="cyan" stroke="black" stroke-width="0.5" />
<circle cx="446" cy="107.962" r="30" transform="rotate(0 7 7)" fill="cyan" stroke="black" stroke-width="0.5" />
<circle cx="56" cy="159.923" r="30" transform="rotate(0 7 7)" fill="cyan" stroke="black" stroke-width="0.5" />
<circle cx="116" cy="159.923" r="30" transform="rotate(0 7 7)" fill="cyan" stroke="black" stroke-width="0.5" />
<circle cx="176" cy="159.923" r="30" transform="rotate(0 7 7)" fill="cyan" stroke="black" stroke-width="0.5" />
<circle cx="236" cy="159.923" r="30" transform="rotate(0 7 7)" fill="cyan" stroke="black" stroke-width="0.5" />
<circle cx="296" cy="159.923" r="30" transform="rotate(0 7 7)" fill="cyan" stroke="black" stroke-width="0.5" />
<circle cx="356" cy="159.923" r="30" transform="rotate(0 7 7)" fill="cyan" stroke="black" stroke-width="0.5" />
<circle cx="416" cy="159.923" r="30" transform="rotate(0 7 7)" fill="cyan" stroke="black" stroke-width="0.5" />
<circle cx="476" cy="159.923" r="30" transform="rotate(0 7 7)" fill="cyan" stroke="black" stroke-width="0.5" />
<circle cx="86" cy="211.885" r="30" transform="rotate(0 7 7)" fill="cyan" stroke="black" stroke-width="0.5" />
<circle cx="146" cy="211.885" r="30" transform="rotate(0 7 7)" fill="cyan" stroke="black" stroke-width="0.5" />
<circle cx="206" cy="211.885" r="30" transform="rotate(0 7 7)" fill="cyan" stroke="black" stroke-width="0.5" />
<circle cx="266" cy="211.885" r="30" transform="rotate(0 7 7)" fill="cyan" stroke="black" stroke-width="0.5" />
<circle cx="326" cy="211.885" r="30" transform="rotate(0 7 7)" fill="cyan" stroke="black" stroke-width="0.5" />
<circle cx="386" cy="211.885" r="30" transform="rotate(0 7 7)" fill="cyan" stroke="black" stroke-width="0.5" />
<circle cx="446" cy="211.885" r="30" transform="rotate(0 7 7)" fill="cyan" stroke="black" stroke-width="0.5" />
<circle cx="56" cy="263.846" r="30" transform="rotate(0 7 7)" fill="cyan" stroke="black" stroke-width="0.5" />
<circle cx="116" cy="263.846" r="30" transform="rotate(0 7 7)" fill="cyan" stroke="black" stroke-width="0.5" />
<circle cx="176" cy="263.846" r="30" transform="rotate(0 7 7)" fill="cyan" stroke="black" stroke-width="0.5" />
<circle cx="236" cy="263.846" r="30" transform="rotate(0 7 7)" fill="cyan" stroke="black" stroke-width="0.5" />
<circle cx="296" cy="263.846" r="30" transform="rotate(0 7 7)" fill="cyan" stroke="black" stroke-width="0.5" />
<circle cx="356" cy="263.846" r="30" transform="rotate(0 7 7)" fill="cyan" stroke="black" stroke-width="0.5" />
<circle cx="416" cy="263.846" r="30" transform="rotate(0 7 7)" fill="cyan" stroke="black" stroke-width="0.5" />
<circle cx="476" cy="263.846" r="30" transform="rotate(0 7 7)" fill="cyan" stroke="black" stroke-width="0.5" />
<circle cx="86" cy="315.808" r="30" transform="rotate(0 7 7)" fill="cyan" stroke="black" stroke-width="0.5" />
<circle cx="146" cy="315.808" r="30" transform="rotate(0 7 7)" fill="cyan" stroke="black" stroke-width="0.5" />
<circle cx="206" cy="315.808" r="30" transform="rotate(0 7 7)" fill="cyan" stroke="black" stroke-width="0.5" />
<circle cx="266" cy="315.808" r="30" transform="rotate(0 7 7)" fill="cyan" stroke="black" stroke-width="0.5" />
<circle cx="326" cy="315.808" r="30" transform="rotate(0 7 7)" fill="cyan" stroke="black" stroke-width="0.5" />
<circle cx="386" cy="315.808" r="30" transform="rotate(0 7 7)" fill="cyan" stroke="black" stroke-width="0.5" />
<circle cx="446" cy="315.808" r="30" transform="rotate(0 7 7)" fill="cyan" stroke="black" stroke-width="0.5" />
<circle cx="56" cy="367.769" r="30" transform="rotate(0 7 7)" fill="cyan" stroke="black" stroke-width="0.5" />
<circle cx="116" cy="367.769" r="30" transform="rotate(0 7 7)" fill="cyan" stroke="black" stroke-width="0.5" />
<circle cx="176" cy="367.769" r="30" transform="rotate(0 7 7)" fill="cyan" stroke="black" stroke-width="0.5" />
<circle cx="236" cy="367.769" r="30" transform="rotate(0 7 7)" fill="cyan" stroke="black" stroke-width="0.5" />
<circle cx="296" cy="367.769" r="30" transform="rotate(0 7 7)" fill="cyan" stroke="black" stroke-width="0.5" />
<circle cx="356" cy="367.769" r="30" transform="rotate(0 7 7)" fill="cyan" stroke="black" stroke-width="0.5" />
<circle cx="416" cy="367.769" r="30" transform="rotate(0 7 7)" fill="cyan" stroke="black" stroke-width="0.5" />
<circle cx="476" cy="367.769" r="30" transform="rotate(0 7 7)" fill="cyan" stroke="black" stroke-width="0.5" />
<circle cx="86" cy="419.731" r="30" transform="rotate(0 7 7)" fill="cyan" stroke="black" stroke-width="0.5" />
<circle cx="146" cy="419.731" r="30" transform="rotate(0 7 7)" fill="cyan" stroke="black" stroke-width="0.5" />
<circle cx="206" cy="419.731" r="30" transform="rotate(0 7 7)" fill="cyan" stroke="black" stroke-width="0.5" />
<circle cx="266" cy="419.731" r="30" transform="rotate(0 7 7)" fill="cyan" stroke="black" stroke-width="0.5" />
<circle cx="326" cy="419.731" r="30" transform="rotate(0 7 7)" fill="cyan" stroke="black" stroke-width="0.5" />
<circle cx="386" cy="419.731" r="30" transform="rotate(0 7 7)" fill="cyan" stroke="black" stroke-width="0.5" />
<circle cx="446" cy="419.731" r="30" transform="rotate(0 7 7)" fill="cyan" stroke="black" stroke-width="0.5" />
<circle cx="56" cy="471.692" r="30" transform="rotate(0 7 7)" fill="cyan" stroke="black" stroke-width="0.5" />
<circle cx="116" cy="471.692" r="30" transform="rotate(0 7 7)" fill="cyan" stroke="black" stroke-width="0.5" />
<circle cx="176" cy="471.692" r="30" transform="rotate(0 7 7)" fill="cyan" stroke="black" stroke-width="0.5" />
<circle cx="236" cy="471.692" r="30" transform="rotate(0 7 7)" fill="cyan" stroke="black" stroke-width="0.5" />
<circle cx="296" cy="471.692" r="30" transform="rotate(0 7 7)" fill="cyan" stroke="black" stroke-width="0.5" />
<circle cx="356" cy="471.692" r="30" transform="rotate(0 7 7)" fill="cyan" stroke="black" stroke-width="0.5" />
<circle cx="416" cy="471.692" r="30" transform="rotate(0 7 7)" fill="cyan" stroke="black" stroke-width="0.5" />
<circle cx="476" cy="471.692" r="30" transform="rotate(0 7 7)" fill="cyan" stroke="black" stroke-width="0.5" />
</svg>
