<svg version="1.1" baseProfile="full" xmlns="http://www.w3.org/2000/svg">
<polygon points="278,28 28,461.013 528,461.013" transform="rotate(0 28 28)" fill="pink" stroke="black" stroke-width="0.5" />
<circle cx="278" cy="128" r="50" transform="rotate(0 7 7)" fill="green" stroke="black" stroke-width="0.5" />
<circle cx="228" cy="214.603" r="50" transform="rotate(0 7 7)" fill="green" stroke="black" stroke-width="0.5" />
<circle cx="328" cy="214.603" r="50" transform="rotate(0 7 7)" fill="green" stroke="black" stroke-width="0.5" />
<circle cx="278" cy="301.205" r="50" transform="rotate(0 7 7)" fill="green" stroke="black" stroke-width="0.5" />
<circle cx="178" cy="301.205" r="50" transform="rotate(0 7 7)" fill="green" stroke="black" stroke-width="0.5" />
<circle cx="378" cy="301.205" r="50" transform="rotate(0 7 7)" fill="green" stroke="black" stroke-width="0.5" />
<circle cx="228" cy="387.808" r="50" transform="rotate(0 7 7)" fill="green" stroke="black" stroke-width="0.5" />
<circle cx="328" cy="387.808" r="50" transform="rotate(0 7 7)" fill="green" stroke="black" stroke-width="0.5" />
<circle cx="128" cy="387.808" r="50" transform="rotate(0 7 7)" fill="green" stroke="black" stroke-width="0.5" />
<circle cx="428" cy="387.808" r="50" transform="rotate(0 7 7)" fill="green" stroke="black" stroke-width="0.5" />
</svg>
