<svg version="1.1" baseProfile="full" xmlns="http://www.w3.org/2000/svg">
<circle cx="300" cy="300" r="300" transform="rotate(0 0 0)" fill="brown" stroke="black" stroke-width="0.5" />
<polygon points="300,300 280,334.641 320,334.641" transform="rotate(0 300 300)" fill="green" stroke="black" stroke-width="0.5" />
<polygon points="300,369.282 280,334.641 320,334.641" transform="rotate(0 300 300)" fill="green" stroke="black" stroke-width="0.5" />
<polygon points="280,334.641 260,369.282 300,369.282" transform="rotate(0 300 300)" fill="green" stroke="black" stroke-width="0.5" />
<polygon points="280,403.923 260,369.282 300,369.282" transform="rotate(0 300 300)" fill="green" stroke="black" stroke-width="0.5" />
<polygon points="320,334.641 300,369.282 340,369.282" transform="rotate(0 300 300)" fill="green" stroke="black" stroke-width="0.5" />
<polygon points="320,403.923 300,369.282 340,369.282" transform="rotate(0 300 300)" fill="green" stroke="black" stroke-width="0.5" />
<polygon points="260,369.282 240,403.923 280,403.923" transform="rotate(0 300 300)" fill="green" stroke="black" stroke-width="0.5" />
<polygon points="260,438.564 240,403.923 280,403.923" transform="rotate(0 300 300)" fill="green" stroke="black" stroke-width="0.5" />
<polygon points="300,369.282 280,403.923 320,403.923" transform="rotate(0 300 300)" fill="green" stroke="black" stroke-width="0.5" />
<polygon points="300,438.564 280,403.923 320,403.923" transform="rotate(0 300 300)" fill="green" stroke="black" stroke-width="0.5" />
<polygon points="340,369.282 320,403.923 360,403.923" transform="rotate(0 300 300)" fill="green" stroke="black" stroke-width="0.5" />
<polygon points="340,438.564 320,403.923 360,403.923" transform="rotate(0 300 300)" fill="green" stroke="black" stroke-width="0.5" />
<polygon points="240,403.923 220,438.564 260,438.564" transform="rotate(0 300 300)" fill="green" stroke="black" stroke-width="0.5" />
<polygon points="240,473.205 220,438.564 260,438.564" transform="rotate(0 300 300)" fill="green" stroke="black" stroke-width="0.5" />
<polygon points="280,403.923 260,438.564 300,438.564" transform="rotate(0 300 300)" fill="green" stroke="black" stroke-width="0.5" />
<polygon points="280,473.205 260,438.564 300,438.564" transform="rotate(0 300 300)" fill="green" stroke="black" stroke-width="0.5" />
<polygon points="320,403.923 300,438.564 340,438.564" transform="rotate(0 300 300)" fill="green" stroke="black" stroke-width="0.5" />
<polygon points="320,473.205 300,438.564 340,438.564" transform="rotate(0 300 300)" fill="green" stroke="black" stroke-width="0.5" />
<polygon points="360,403.923 340,438.564 380,438.564" transform="rotate(0 300 300)" fill="green" stroke="black" stroke-width="0.5" />
<polygon points="360,473.205 340,438.564 380,438.564" transform="rotate(0 300 300)" fill="green" stroke="black" stroke-width="0.5" />
<polygon points="220,438.564 200,473.205 240,473.205" transform="rotate(0 300 300)" fill="green" stroke="black" stroke-width="0.5" />
<polygon points="220,507.846 200,473.205 240,473.205" transform="rotate(0 300 300)" fill="green" stroke="black" stroke-width="0.5" />
<polygon points="260,438.564 240,473.205 280,473.205" transform="rotate(0 300 300)" fill="green" stroke="black" stroke-width="0.5" />
<polygon points="260,507.846 240,473.205 280,473.205" transform="rotate(0 300 300)" fill="green" stroke="black" stroke-width="0.5" />
<polygon points="300,438.564 280,473.205 320,473.205" transform="rotate(0 300 300)" fill="green" stroke="black" stroke-width="0.5" />
<polygon points="300,507.846 280,473.205 320,473.205" transform="rotate(0 300 300)" fill="green" stroke="black" stroke-width="0.5" />
<polygon points="340,438.564 320,473.205 360,473.205" transform="rotate(0 300 300)" fill="green" stroke="black" stroke-width="0.5" />
<polygon points="340,507.846 320,473.205 360,473.205" transform="rotate(0 300 300)" fill="green" stroke="black" stroke-width="0.5" />
<polygon points="380,438.564 360,473.205 400,473.205" transform="rotate(0 300 300)" fill="green" stroke="black" stroke-width="0.5" />
<polygon points="380,507.846 360,473.205 400,473.205" transform="rotate(0 300 300)" fill="green" stroke="black" stroke-width="0.5" />
<polygon points="200,473.205 180,507.846 220,507.846" transform="rotate(0 300 300)" fill="green" stroke="black" stroke-width="0.5" />
<polygon points="200,542.487 180,507.846 220,507.846" transform="rotate(0 300 300)" fill="green" stroke="black" stroke-width="0.5" />
<polygon points="240,473.205 220,507.846 260,507.846" transform="rotate(0 300 300)" fill="green" stroke="black" stroke-width="0.5" />
<polygon points="240,542.487 220,507.846 260,507.846" transform="rotate(0 300 300)" fill="green" stroke="black" stroke-width="0.5" />
<polygon points="280,473.205 260,507.846 300,507.846" transform="rotate(0 300 300)" fill="green" stroke="black" stroke-width="0.5" />
<polygon points="280,542.487 260,507.846 300,507.846" transform="rotate(0 300 300)" fill="green" stroke="black" stroke-width="0.5" />
<polygon points="320,473.205 300,507.846 340,507.846" transform="rotate(0 300 300)" fill="green" stroke="black" stroke-width="0.5" />
<polygon points="320,542.487 300,507.846 340,507.846" transform="rotate(0 300 300)" fill="green" stroke="black" stroke-width="0.5" />
<polygon points="360,473.205 340,507.846 380,507.846" transform="rotate(0 300 300)" fill="green" stroke="black" stroke-width="0.5" />
<polygon points="360,542.487 340,507.846 380,507.846" transform="rotate(0 300 300)" fill="green" stroke="black" stroke-width="0.5" />
<polygon points="400,473.205 380,507.846 420,507.846" transform="rotate(0 300 300)" fill="green" stroke="black" stroke-width="0.5" />
<polygon points="400,542.487 380,507.846 420,507.846" transform="rotate(0 300 300)" fill="green" stroke="black" stroke-width="0.5" />
<polygon points="180,507.846 160,542.487 200,542.487" transform="rotate(0 300 300)" fill="green" stroke="black" stroke-width="0.5" />
<polygon points="220,507.846 200,542.487 240,542.487" transform="rotate(0 300 300)" fill="green" stroke="black" stroke-width="0.5" />
<polygon points="260,507.846 240,542.487 280,542.487" transform="rotate(0 300 300)" fill="green" stroke="black" stroke-width="0.5" />
<polygon points="300,507.846 280,542.487 320,542.487" transform="rotate(0 300 300)" fill="green" stroke="black" stroke-width="0.5" />
<polygon points="340,507.846 320,542.487 360,542.487" transform="rotate(0 300 300)" fill="green" stroke="black" stroke-width="0.5" />
<polygon points="380,507.846 360,542.487 400,542.487" transform="rotate(0 300 300)" fill="green" stroke="black" stroke-width="0.5" />
<polygon points="420,507.846 400,542.487 440,542.487" transform="rotate(0 300 300)" fill="green" stroke="black" stroke-width="0.5" />
<polygon points="330,542.487 310,577.128 350,577.128" transform="rotate(0 300 300)" fill="green" stroke="black" stroke-width="0.5" />
<polygon points="290,542.487 270,577.128 310,577.128" transform="rotate(0 300 300)" fill="green" stroke="black" stroke-width="0.5" />
<polygon points="250,542.487 230,577.128 270,577.128" transform="rotate(0 300 300)" fill="green" stroke="black" stroke-width="0.5" />
<polygon points="370,542.487 350,577.128 330,542.487" transform="rotate(0 300 300)" fill="green" stroke="black" stroke-width="0.5" />
<polygon points="330,542.487 310,577.128 290,542.487" transform="rotate(0 300 300)" fill="green" stroke="black" stroke-width="0.5" />
<polygon points="290,542.487 270,577.128 250,542.487" transform="rotate(0 300 300)" fill="green" stroke="black" stroke-width="0.5" />
<polygon points="250,542.487 230,577.128 210,542.487" transform="rotate(0 300 300)" fill="green" stroke="black" stroke-width="0.5" />
<polygon points="300,300 280,334.641 320,334.641" transform="rotate(60 300 300)" fill="green" stroke="black" stroke-width="0.5" />
<polygon points="300,369.282 280,334.641 320,334.641" transform="rotate(60 300 300)" fill="green" stroke="black" stroke-width="0.5" />
<polygon points="280,334.641 260,369.282 300,369.282" transform="rotate(60 300 300)" fill="green" stroke="black" stroke-width="0.5" />
<polygon points="280,403.923 260,369.282 300,369.282" transform="rotate(60 300 300)" fill="green" stroke="black" stroke-width="0.5" />
<polygon points="320,334.641 300,369.282 340,369.282" transform="rotate(60 300 300)" fill="green" stroke="black" stroke-width="0.5" />
<polygon points="320,403.923 300,369.282 340,369.282" transform="rotate(60 300 300)" fill="green" stroke="black" stroke-width="0.5" />
<polygon points="260,369.282 240,403.923 280,403.923" transform="rotate(60 300 300)" fill="green" stroke="black" stroke-width="0.5" />
<polygon points="260,438.564 240,403.923 280,403.923" transform="rotate(60 300 300)" fill="green" stroke="black" stroke-width="0.5" />
<polygon points="300,369.282 280,403.923 320,403.923" transform="rotate(60 300 300)" fill="green" stroke="black" stroke-width="0.5" />
<polygon points="300,438.564 280,403.923 320,403.923" transform="rotate(60 300 300)" fill="green" stroke="black" stroke-width="0.5" />
<polygon points="340,369.282 320,403.923 360,403.923" transform="rotate(60 300 300)" fill="green" stroke="black" stroke-width="0.5" />
<polygon points="340,438.564 320,403.923 360,403.923" transform="rotate(60 300 300)" fill="green" stroke="black" stroke-width="0.5" />
<polygon points="240,403.923 220,438.564 260,438.564" transform="rotate(60 300 300)" fill="green" stroke="black" stroke-width="0.5" />
<polygon points="240,473.205 220,438.564 260,438.564" transform="rotate(60 300 300)" fill="green" stroke="black" stroke-width="0.5" />
<polygon points="280,403.923 260,438.564 300,438.564" transform="rotate(60 300 300)" fill="green" stroke="black" stroke-width="0.5" />
<polygon points="280,473.205 260,438.564 300,438.564" transform="rotate(60 300 300)" fill="green" stroke="black" stroke-width="0.5" />
<polygon points="320,403.923 300,438.564 340,438.564" transform="rotate(60 300 300)" fill="green" stroke="black" stroke-width="0.5" />
<polygon points="320,473.205 300,438.564 340,438.564" transform="rotate(60 300 300)" fill="green" stroke="black" stroke-width="0.5" />
<polygon points="360,403.923 340,438.564 380,438.564" transform="rotate(60 300 300)" fill="green" stroke="black" stroke-width="0.5" />
<polygon points="360,473.205 340,438.564 380,438.564" transform="rotate(60 300 300)" fill="green" stroke="black" stroke-width="0.5" />
<polygon points="220,438.564 200,473.205 240,473.205" transform="rotate(60 300 300)" fill="green" stroke="black" stroke-width="0.5" />
<polygon points="220,507.846 200,473.205 240,473.205" transform="rotate(60 300 300)" fill="green" stroke="black" stroke-width="0.5" />
<polygon points="260,438.564 240,473.205 280,473.205" transform="rotate(60 300 300)" fill="green" stroke="black" stroke-width="0.5" />
<polygon points="260,507.846 240,473.205 280,473.205" transform="rotate(60 300 300)" fill="green" stroke="black" stroke-width="0.5" />
<polygon points="300,438.564 280,473.205 320,473.205" transform="rotate(60 300 300)" fill="green" stroke="black" stroke-width="0.5" />
<polygon points="300,507.846 280,473.205 320,473.205" transform="rotate(60 300 300)" fill="green" stroke="black" stroke-width="0.5" />
<polygon points="340,438.564 320,473.205 360,473.205" transform="rotate(60 300 300)" fill="green" stroke="black" stroke-width="0.5" />
<polygon points="340,507.846 320,473.205 360,473.205" transform="rotate(60 300 300)" fill="green" stroke="black" stroke-width="0.5" />
<polygon points="380,438.564 360,473.205 400,473.205" transform="rotate(60 300 300)" fill="green" stroke="black" stroke-width="0.5" />
<polygon points="380,507.846 360,473.205 400,473.205" transform="rotate(60 300 300)" fill="green" stroke="black" stroke-width="0.5" />
<polygon points="200,473.205 180,507.846 220,507.846" transform="rotate(60 300 300)" fill="green" stroke="black" stroke-width="0.5" />
<polygon points="200,542.487 180,507.846 220,507.846" transform="rotate(60 300 300)" fill="green" stroke="black" stroke-width="0.5" />
<polygon points="240,473.205 220,507.846 260,507.846" transform="rotate(60 300 300)" fill="green" stroke="black" stroke-width="0.5" />
<polygon points="240,542.487 220,507.846 260,507.846" transform="rotate(60 300 300)" fill="green" stroke="black" stroke-width="0.5" />
<polygon points="280,473.205 260,507.846 300,507.846" transform="rotate(60 300 300)" fill="green" stroke="black" stroke-width="0.5" />
<polygon points="280,542.487 260,507.846 300,507.846" transform="rotate(60 300 300)" fill="green" stroke="black" stroke-width="0.5" />
<polygon points="320,473.205 300,507.846 340,507.846" transform="rotate(60 300 300)" fill="green" stroke="black" stroke-width="0.5" />
<polygon points="320,542.487 300,507.846 340,507.846" transform="rotate(60 300 300)" fill="green" stroke="black" stroke-width="0.5" />
<polygon points="360,473.205 340,507.846 380,507.846" transform="rotate(60 300 300)" fill="green" stroke="black" stroke-width="0.5" />
<polygon points="360,542.487 340,507.846 380,507.846" transform="rotate(60 300 300)" fill="green" stroke="black" stroke-width="0.5" />
<polygon points="400,473.205 380,507.846 420,507.846" transform="rotate(60 300 300)" fill="green" stroke="black" stroke-width="0.5" />
<polygon points="400,542.487 380,507.846 420,507.846" transform="rotate(60 300 300)" fill="green" stroke="black" stroke-width="0.5" />
<polygon points="180,507.846 160,542.487 200,542.487" transform="rotate(60 300 300)" fill="green" stroke="black" stroke-width="0.5" />
<polygon points="220,507.846 200,542.487 240,542.487" transform="rotate(60 300 300)" fill="green" stroke="black" stroke-width="0.5" />
<polygon points="260,507.846 240,542.487 280,542.487" transform="rotate(60 300 300)" fill="green" stroke="black" stroke-width="0.5" />
<polygon points="300,507.846 280,542.487 320,542.487" transform="rotate(60 300 300)" fill="green" stroke="black" stroke-width="0.5" />
<polygon points="340,507.846 320,542.487 360,542.487" transform="rotate(60 300 300)" fill="green" stroke="black" stroke-width="0.5" />
<polygon points="380,507.846 360,542.487 400,542.487" transform="rotate(60 300 300)" fill="green" stroke="black" stroke-width="0.5" />
<polygon points="420,507.846 400,542.487 440,542.487" transform="rotate(60 300 300)" fill="green" stroke="black" stroke-width="0.5" />
<polygon points="330,542.487 310,577.128 350,577.128" transform="rotate(60 300 300)" fill="green" stroke="black" stroke-width="0.5" />
<polygon points="290,542.487 270,577.128 310,577.128" transform="rotate(60 300 300)" fill="green" stroke="black" stroke-width="0.5" />
<polygon points="250,542.487 230,577.128 270,577.128" transform="rotate(60 300 300)" fill="green" stroke="black" stroke-width="0.5" />
<polygon points="370,542.487 350,577.128 330,542.487" transform="rotate(60 300 300)" fill="green" stroke="black" stroke-width="0.5" />
<polygon points="330,542.487 310,577.128 290,542.487" transform="rotate(60 300 300)" fill="green" stroke="black" stroke-width="0.5" />
<polygon points="290,542.487 270,577.128 250,542.487" transform="rotate(60 300 300)" fill="green" stroke="black" stroke-width="0.5" />
<polygon points="250,542.487 230,577.128 210,542.487" transform="rotate(60 300 300)" fill="green" stroke="black" stroke-width="0.5" />
<polygon points="300,300 280,334.641 320,334.641" transform="rotate(120 300 300)" fill="green" stroke="black" stroke-width="0.5" />
<polygon points="300,369.282 280,334.641 320,334.641" transform="rotate(120 300 300)" fill="green" stroke="black" stroke-width="0.5" />
<polygon points="280,334.641 260,369.282 300,369.282" transform="rotate(120 300 300)" fill="green" stroke="black" stroke-width="0.5" />
<polygon points="280,403.923 260,369.282 300,369.282" transform="rotate(120 300 300)" fill="green" stroke="black" stroke-width="0.5" />
<polygon points="320,334.641 300,369.282 340,369.282" transform="rotate(120 300 300)" fill="green" stroke="black" stroke-width="0.5" />
<polygon points="320,403.923 300,369.282 340,369.282" transform="rotate(120 300 300)" fill="green" stroke="black" stroke-width="0.5" />
<polygon points="260,369.282 240,403.923 280,403.923" transform="rotate(120 300 300)" fill="green" stroke="black" stroke-width="0.5" />
<polygon points="260,438.564 240,403.923 280,403.923" transform="rotate(120 300 300)" fill="green" stroke="black" stroke-width="0.5" />
<polygon points="300,369.282 280,403.923 320,403.923" transform="rotate(120 300 300)" fill="green" stroke="black" stroke-width="0.5" />
<polygon points="300,438.564 280,403.923 320,403.923" transform="rotate(120 300 300)" fill="green" stroke="black" stroke-width="0.5" />
<polygon points="340,369.282 320,403.923 360,403.923" transform="rotate(120 300 300)" fill="green" stroke="black" stroke-width="0.5" />
<polygon points="340,438.564 320,403.923 360,403.923" transform="rotate(120 300 300)" fill="green" stroke="black" stroke-width="0.5" />
<polygon points="240,403.923 220,438.564 260,438.564" transform="rotate(120 300 300)" fill="green" stroke="black" stroke-width="0.5" />
<polygon points="240,473.205 220,438.564 260,438.564" transform="rotate(120 300 300)" fill="green" stroke="black" stroke-width="0.5" />
<polygon points="280,403.923 260,438.564 300,438.564" transform="rotate(120 300 300)" fill="green" stroke="black" stroke-width="0.5" />
<polygon points="280,473.205 260,438.564 300,438.564" transform="rotate(120 300 300)" fill="green" stroke="black" stroke-width="0.5" />
<polygon points="320,403.923 300,438.564 340,438.564" transform="rotate(120 300 300)" fill="green" stroke="black" stroke-width="0.5" />
<polygon points="320,473.205 300,438.564 340,438.564" transform="rotate(120 300 300)" fill="green" stroke="black" stroke-width="0.5" />
<polygon points="360,403.923 340,438.564 380,438.564" transform="rotate(120 300 300)" fill="green" stroke="black" stroke-width="0.5" />
<polygon points="360,473.205 340,438.564 380,438.564" transform="rotate(120 300 300)" fill="green" stroke="black" stroke-width="0.5" />
<polygon points="220,438.564 200,473.205 240,473.205" transform="rotate(120 300 300)" fill="green" stroke="black" stroke-width="0.5" />
<polygon points="220,507.846 200,473.205 240,473.205" transform="rotate(120 300 300)" fill="green" stroke="black" stroke-width="0.5" />
<polygon points="260,438.564 240,473.205 280,473.205" transform="rotate(120 300 300)" fill="green" stroke="black" stroke-width="0.5" />
<polygon points="260,507.846 240,473.205 280,473.205" transform="rotate(120 300 300)" fill="green" stroke="black" stroke-width="0.5" />
<polygon points="300,438.564 280,473.205 320,473.205" transform="rotate(120 300 300)" fill="green" stroke="black" stroke-width="0.5" />
<polygon points="300,507.846 280,473.205 320,473.205" transform="rotate(120 300 300)" fill="green" stroke="black" stroke-width="0.5" />
<polygon points="340,438.564 320,473.205 360,473.205" transform="rotate(120 300 300)" fill="green" stroke="black" stroke-width="0.5" />
<polygon points="340,507.846 320,473.205 360,473.205" transform="rotate(120 300 300)" fill="green" stroke="black" stroke-width="0.5" />
<polygon points="380,438.564 360,473.205 400,473.205" transform="rotate(120 300 300)" fill="green" stroke="black" stroke-width="0.5" />
<polygon points="380,507.846 360,473.205 400,473.205" transform="rotate(120 300 300)" fill="green" stroke="black" stroke-width="0.5" />
<polygon points="200,473.205 180,507.846 220,507.846" transform="rotate(120 300 300)" fill="green" stroke="black" stroke-width="0.5" />
<polygon points="200,542.487 180,507.846 220,507.846" transform="rotate(120 300 300)" fill="green" stroke="black" stroke-width="0.5" />
<polygon points="240,473.205 220,507.846 260,507.846" transform="rotate(120 300 300)" fill="green" stroke="black" stroke-width="0.5" />
<polygon points="240,542.487 220,507.846 260,507.846" transform="rotate(120 300 300)" fill="green" stroke="black" stroke-width="0.5" />
<polygon points="280,473.205 260,507.846 300,507.846" transform="rotate(120 300 300)" fill="green" stroke="black" stroke-width="0.5" />
<polygon points="280,542.487 260,507.846 300,507.846" transform="rotate(120 300 300)" fill="green" stroke="black" stroke-width="0.5" />
<polygon points="320,473.205 300,507.846 340,507.846" transform="rotate(120 300 300)" fill="green" stroke="black" stroke-width="0.5" />
<polygon points="320,542.487 300,507.846 340,507.846" transform="rotate(120 300 300)" fill="green" stroke="black" stroke-width="0.5" />
<polygon points="360,473.205 340,507.846 380,507.846" transform="rotate(120 300 300)" fill="green" stroke="black" stroke-width="0.5" />
<polygon points="360,542.487 340,507.846 380,507.846" transform="rotate(120 300 300)" fill="green" stroke="black" stroke-width="0.5" />
<polygon points="400,473.205 380,507.846 420,507.846" transform="rotate(120 300 300)" fill="green" stroke="black" stroke-width="0.5" />
<polygon points="400,542.487 380,507.846 420,507.846" transform="rotate(120 300 300)" fill="green" stroke="black" stroke-width="0.5" />
<polygon points="180,507.846 160,542.487 200,542.487" transform="rotate(120 300 300)" fill="green" stroke="black" stroke-width="0.5" />
<polygon points="220,507.846 200,542.487 240,542.487" transform="rotate(120 300 300)" fill="green" stroke="black" stroke-width="0.5" />
<polygon points="260,507.846 240,542.487 280,542.487" transform="rotate(120 300 300)" fill="green" stroke="black" stroke-width="0.5" />
<polygon points="300,507.846 280,542.487 320,542.487" transform="rotate(120 300 300)" fill="green" stroke="black" stroke-width="0.5" />
<polygon points="340,507.846 320,542.487 360,542.487" transform="rotate(120 300 300)" fill="green" stroke="black" stroke-width="0.5" />
<polygon points="380,507.846 360,542.487 400,542.487" transform="rotate(120 300 300)" fill="green" stroke="black" stroke-width="0.5" />
<polygon points="420,507.846 400,542.487 440,542.487" transform="rotate(120 300 300)" fill="green" stroke="black" stroke-width="0.5" />
<polygon points="330,542.487 310,577.128 350,577.128" transform="rotate(120 300 300)" fill="green" stroke="black" stroke-width="0.5" />
<polygon points="290,542.487 270,577.128 310,577.128" transform="rotate(120 300 300)" fill="green" stroke="black" stroke-width="0.5" />
<polygon points="250,542.487 230,577.128 270,577.128" transform="rotate(120 300 300)" fill="green" stroke="black" stroke-width="0.5" />
<polygon points="370,542.487 350,577.128 330,542.487" transform="rotate(120 300 300)" fill="green" stroke="black" stroke-width="0.5" />
<polygon points="330,542.487 310,577.128 290,542.487" transform="rotate(120 300 300)" fill="green" stroke="black" stroke-width="0.5" />
<polygon points="290,542.487 270,577.128 250,542.487" transform="rotate(120 300 300)" fill="green" stroke="black" stroke-width="0.5" />
<polygon points="250,542.487 230,577.128 210,542.487" transform="rotate(120 300 300)" fill="green" stroke="black" stroke-width="0.5" />
<polygon points="300,300 280,334.641 320,334.641" transform="rotate(180 300 300)" fill="green" stroke="black" stroke-width="0.5" />
<polygon points="300,369.282 280,334.641 320,334.641" transform="rotate(180 300 300)" fill="green" stroke="black" stroke-width="0.5" />
<polygon points="280,334.641 260,369.282 300,369.282" transform="rotate(180 300 300)" fill="green" stroke="black" stroke-width="0.5" />
<polygon points="280,403.923 260,369.282 300,369.282" transform="rotate(180 300 300)" fill="green" stroke="black" stroke-width="0.5" />
<polygon points="320,334.641 300,369.282 340,369.282" transform="rotate(180 300 300)" fill="green" stroke="black" stroke-width="0.5" />
<polygon points="320,403.923 300,369.282 340,369.282" transform="rotate(180 300 300)" fill="green" stroke="black" stroke-width="0.5" />
<polygon points="260,369.282 240,403.923 280,403.923" transform="rotate(180 300 300)" fill="green" stroke="black" stroke-width="0.5" />
<polygon points="260,438.564 240,403.923 280,403.923" transform="rotate(180 300 300)" fill="green" stroke="black" stroke-width="0.5" />
<polygon points="300,369.282 280,403.923 320,403.923" transform="rotate(180 300 300)" fill="green" stroke="black" stroke-width="0.5" />
<polygon points="300,438.564 280,403.923 320,403.923" transform="rotate(180 300 300)" fill="green" stroke="black" stroke-width="0.5" />
<polygon points="340,369.282 320,403.923 360,403.923" transform="rotate(180 300 300)" fill="green" stroke="black" stroke-width="0.5" />
<polygon points="340,438.564 320,403.923 360,403.923" transform="rotate(180 300 300)" fill="green" stroke="black" stroke-width="0.5" />
<polygon points="240,403.923 220,438.564 260,438.564" transform="rotate(180 300 300)" fill="green" stroke="black" stroke-width="0.5" />
<polygon points="240,473.205 220,438.564 260,438.564" transform="rotate(180 300 300)" fill="green" stroke="black" stroke-width="0.5" />
<polygon points="280,403.923 260,438.564 300,438.564" transform="rotate(180 300 300)" fill="green" stroke="black" stroke-width="0.5" />
<polygon points="280,473.205 260,438.564 300,438.564" transform="rotate(180 300 300)" fill="green" stroke="black" stroke-width="0.5" />
<polygon points="320,403.923 300,438.564 340,438.564" transform="rotate(180 300 300)" fill="green" stroke="black" stroke-width="0.5" />
<polygon points="320,473.205 300,438.564 340,438.564" transform="rotate(180 300 300)" fill="green" stroke="black" stroke-width="0.5" />
<polygon points="360,403.923 340,438.564 380,438.564" transform="rotate(180 300 300)" fill="green" stroke="black" stroke-width="0.5" />
<polygon points="360,473.205 340,438.564 380,438.564" transform="rotate(180 300 300)" fill="green" stroke="black" stroke-width="0.5" />
<polygon points="220,438.564 200,473.205 240,473.205" transform="rotate(180 300 300)" fill="green" stroke="black" stroke-width="0.5" />
<polygon points="220,507.846 200,473.205 240,473.205" transform="rotate(180 300 300)" fill="green" stroke="black" stroke-width="0.5" />
<polygon points="260,438.564 240,473.205 280,473.205" transform="rotate(180 300 300)" fill="green" stroke="black" stroke-width="0.5" />
<polygon points="260,507.846 240,473.205 280,473.205" transform="rotate(180 300 300)" fill="green" stroke="black" stroke-width="0.5" />
<polygon points="300,438.564 280,473.205 320,473.205" transform="rotate(180 300 300)" fill="green" stroke="black" stroke-width="0.5" />
<polygon points="300,507.846 280,473.205 320,473.205" transform="rotate(180 300 300)" fill="green" stroke="black" stroke-width="0.5" />
<polygon points="340,438.564 320,473.205 360,473.205" transform="rotate(180 300 300)" fill="green" stroke="black" stroke-width="0.5" />
<polygon points="340,507.846 320,473.205 360,473.205" transform="rotate(180 300 300)" fill="green" stroke="black" stroke-width="0.5" />
<polygon points="380,438.564 360,473.205 400,473.205" transform="rotate(180 300 300)" fill="green" stroke="black" stroke-width="0.5" />
<polygon points="380,507.846 360,473.205 400,473.205" transform="rotate(180 300 300)" fill="green" stroke="black" stroke-width="0.5" />
<polygon points="200,473.205 180,507.846 220,507.846" transform="rotate(180 300 300)" fill="green" stroke="black" stroke-width="0.5" />
<polygon points="200,542.487 180,507.846 220,507.846" transform="rotate(180 300 300)" fill="green" stroke="black" stroke-width="0.5" />
<polygon points="240,473.205 220,507.846 260,507.846" transform="rotate(180 300 300)" fill="green" stroke="black" stroke-width="0.5" />
<polygon points="240,542.487 220,507.846 260,507.846" transform="rotate(180 300 300)" fill="green" stroke="black" stroke-width="0.5" />
<polygon points="280,473.205 260,507.846 300,507.846" transform="rotate(180 300 300)" fill="green" stroke="black" stroke-width="0.5" />
<polygon points="280,542.487 260,507.846 300,507.846" transform="rotate(180 300 300)" fill="green" stroke="black" stroke-width="0.5" />
<polygon points="320,473.205 300,507.846 340,507.846" transform="rotate(180 300 300)" fill="green" stroke="black" stroke-width="0.5" />
<polygon points="320,542.487 300,507.846 340,507.846" transform="rotate(180 300 300)" fill="green" stroke="black" stroke-width="0.5" />
<polygon points="360,473.205 340,507.846 380,507.846" transform="rotate(180 300 300)" fill="green" stroke="black" stroke-width="0.5" />
<polygon points="360,542.487 340,507.846 380,507.846" transform="rotate(180 300 300)" fill="green" stroke="black" stroke-width="0.5" />
<polygon points="400,473.205 380,507.846 420,507.846" transform="rotate(180 300 300)" fill="green" stroke="black" stroke-width="0.5" />
<polygon points="400,542.487 380,507.846 420,507.846" transform="rotate(180 300 300)" fill="green" stroke="black" stroke-width="0.5" />
<polygon points="180,507.846 160,542.487 200,542.487" transform="rotate(180 300 300)" fill="green" stroke="black" stroke-width="0.5" />
<polygon points="220,507.846 200,542.487 240,542.487" transform="rotate(180 300 300)" fill="green" stroke="black" stroke-width="0.5" />
<polygon points="260,507.846 240,542.487 280,542.487" transform="rotate(180 300 300)" fill="green" stroke="black" stroke-width="0.5" />
<polygon points="300,507.846 280,542.487 320,542.487" transform="rotate(180 300 300)" fill="green" stroke="black" stroke-width="0.5" />
<polygon points="340,507.846 320,542.487 360,542.487" transform="rotate(180 300 300)" fill="green" stroke="black" stroke-width="0.5" />
<polygon points="380,507.846 360,542.487 400,542.487" transform="rotate(180 300 300)" fill="green" stroke="black" stroke-width="0.5" />
<polygon points="420,507.846 400,542.487 440,542.487" transform="rotate(180 300 300)" fill="green" stroke="black" stroke-width="0.5" />
<polygon points="330,542.487 310,577.128 350,577.128" transform="rotate(180 300 300)" fill="green" stroke="black" stroke-width="0.5" />
<polygon points="290,542.487 270,577.128 310,577.128" transform="rotate(180 300 300)" fill="green" stroke="black" stroke-width="0.5" />
<polygon points="250,542.487 230,577.128 270,577.128" transform="rotate(180 300 300)" fill="green" stroke="black" stroke-width="0.5" />
<polygon points="370,542.487 350,577.128 330,542.487" transform="rotate(180 300 300)" fill="green" stroke="black" stroke-width="0.5" />
<polygon points="330,542.487 310,577.128 290,542.487" transform="rotate(180 300 300)" fill="green" stroke="black" stroke-width="0.5" />
<polygon points="290,542.487 270,577.128 250,542.487" transform="rotate(180 300 300)" fill="green" stroke="black" stroke-width="0.5" />
<polygon points="250,542.487 230,577.128 210,542.487" transform="rotate(180 300 300)" fill="green" stroke="black" stroke-width="0.5" />
<polygon points="300,300 280,334.641 320,334.641" transform="rotate(240 300 300)" fill="green" stroke="black" stroke-width="0.5" />
<polygon points="300,369.282 280,334.641 320,334.641" transform="rotate(240 300 300)" fill="green" stroke="black" stroke-width="0.5" />
<polygon points="280,334.641 260,369.282 300,369.282" transform="rotate(240 300 300)" fill="green" stroke="black" stroke-width="0.5" />
<polygon points="280,403.923 260,369.282 300,369.282" transform="rotate(240 300 300)" fill="green" stroke="black" stroke-width="0.5" />
<polygon points="320,334.641 300,369.282 340,369.282" transform="rotate(240 300 300)" fill="green" stroke="black" stroke-width="0.5" />
<polygon points="320,403.923 300,369.282 340,369.282" transform="rotate(240 300 300)" fill="green" stroke="black" stroke-width="0.5" />
<polygon points="260,369.282 240,403.923 280,403.923" transform="rotate(240 300 300)" fill="green" stroke="black" stroke-width="0.5" />
<polygon points="260,438.564 240,403.923 280,403.923" transform="rotate(240 300 300)" fill="green" stroke="black" stroke-width="0.5" />
<polygon points="300,369.282 280,403.923 320,403.923" transform="rotate(240 300 300)" fill="green" stroke="black" stroke-width="0.5" />
<polygon points="300,438.564 280,403.923 320,403.923" transform="rotate(240 300 300)" fill="green" stroke="black" stroke-width="0.5" />
<polygon points="340,369.282 320,403.923 360,403.923" transform="rotate(240 300 300)" fill="green" stroke="black" stroke-width="0.5" />
<polygon points="340,438.564 320,403.923 360,403.923" transform="rotate(240 300 300)" fill="green" stroke="black" stroke-width="0.5" />
<polygon points="240,403.923 220,438.564 260,438.564" transform="rotate(240 300 300)" fill="green" stroke="black" stroke-width="0.5" />
<polygon points="240,473.205 220,438.564 260,438.564" transform="rotate(240 300 300)" fill="green" stroke="black" stroke-width="0.5" />
<polygon points="280,403.923 260,438.564 300,438.564" transform="rotate(240 300 300)" fill="green" stroke="black" stroke-width="0.5" />
<polygon points="280,473.205 260,438.564 300,438.564" transform="rotate(240 300 300)" fill="green" stroke="black" stroke-width="0.5" />
<polygon points="320,403.923 300,438.564 340,438.564" transform="rotate(240 300 300)" fill="green" stroke="black" stroke-width="0.5" />
<polygon points="320,473.205 300,438.564 340,438.564" transform="rotate(240 300 300)" fill="green" stroke="black" stroke-width="0.5" />
<polygon points="360,403.923 340,438.564 380,438.564" transform="rotate(240 300 300)" fill="green" stroke="black" stroke-width="0.5" />
<polygon points="360,473.205 340,438.564 380,438.564" transform="rotate(240 300 300)" fill="green" stroke="black" stroke-width="0.5" />
<polygon points="220,438.564 200,473.205 240,473.205" transform="rotate(240 300 300)" fill="green" stroke="black" stroke-width="0.5" />
<polygon points="220,507.846 200,473.205 240,473.205" transform="rotate(240 300 300)" fill="green" stroke="black" stroke-width="0.5" />
<polygon points="260,438.564 240,473.205 280,473.205" transform="rotate(240 300 300)" fill="green" stroke="black" stroke-width="0.5" />
<polygon points="260,507.846 240,473.205 280,473.205" transform="rotate(240 300 300)" fill="green" stroke="black" stroke-width="0.5" />
<polygon points="300,438.564 280,473.205 320,473.205" transform="rotate(240 300 300)" fill="green" stroke="black" stroke-width="0.5" />
<polygon points="300,507.846 280,473.205 320,473.205" transform="rotate(240 300 300)" fill="green" stroke="black" stroke-width="0.5" />
<polygon points="340,438.564 320,473.205 360,473.205" transform="rotate(240 300 300)" fill="green" stroke="black" stroke-width="0.5" />
<polygon points="340,507.846 320,473.205 360,473.205" transform="rotate(240 300 300)" fill="green" stroke="black" stroke-width="0.5" />
<polygon points="380,438.564 360,473.205 400,473.205" transform="rotate(240 300 300)" fill="green" stroke="black" stroke-width="0.5" />
<polygon points="380,507.846 360,473.205 400,473.205" transform="rotate(240 300 300)" fill="green" stroke="black" stroke-width="0.5" />
<polygon points="200,473.205 180,507.846 220,507.846" transform="rotate(240 300 300)" fill="green" stroke="black" stroke-width="0.5" />
<polygon points="200,542.487 180,507.846 220,507.846" transform="rotate(240 300 300)" fill="green" stroke="black" stroke-width="0.5" />
<polygon points="240,473.205 220,507.846 260,507.846" transform="rotate(240 300 300)" fill="green" stroke="black" stroke-width="0.5" />
<polygon points="240,542.487 220,507.846 260,507.846" transform="rotate(240 300 300)" fill="green" stroke="black" stroke-width="0.5" />
<polygon points="280,473.205 260,507.846 300,507.846" transform="rotate(240 300 300)" fill="green" stroke="black" stroke-width="0.5" />
<polygon points="280,542.487 260,507.846 300,507.846" transform="rotate(240 300 300)" fill="green" stroke="black" stroke-width="0.5" />
<polygon points="320,473.205 300,507.846 340,507.846" transform="rotate(240 300 300)" fill="green" stroke="black" stroke-width="0.5" />
<polygon points="320,542.487 300,507.846 340,507.846" transform="rotate(240 300 300)" fill="green" stroke="black" stroke-width="0.5" />
<polygon points="360,473.205 340,507.846 380,507.846" transform="rotate(240 300 300)" fill="green" stroke="black" stroke-width="0.5" />
<polygon points="360,542.487 340,507.846 380,507.846" transform="rotate(240 300 300)" fill="green" stroke="black" stroke-width="0.5" />
<polygon points="400,473.205 380,507.846 420,507.846" transform="rotate(240 300 300)" fill="green" stroke="black" stroke-width="0.5" />
<polygon points="400,542.487 380,507.846 420,507.846" transform="rotate(240 300 300)" fill="green" stroke="black" stroke-width="0.5" />
<polygon points="180,507.846 160,542.487 200,542.487" transform="rotate(240 300 300)" fill="green" stroke="black" stroke-width="0.5" />
<polygon points="220,507.846 200,542.487 240,542.487" transform="rotate(240 300 300)" fill="green" stroke="black" stroke-width="0.5" />
<polygon points="260,507.846 240,542.487 280,542.487" transform="rotate(240 300 300)" fill="green" stroke="black" stroke-width="0.5" />
<polygon points="300,507.846 280,542.487 320,542.487" transform="rotate(240 300 300)" fill="green" stroke="black" stroke-width="0.5" />
<polygon points="340,507.846 320,542.487 360,542.487" transform="rotate(240 300 300)" fill="green" stroke="black" stroke-width="0.5" />
<polygon points="380,507.846 360,542.487 400,542.487" transform="rotate(240 300 300)" fill="green" stroke="black" stroke-width="0.5" />
<polygon points="420,507.846 400,542.487 440,542.487" transform="rotate(240 300 300)" fill="green" stroke="black" stroke-width="0.5" />
<polygon points="330,542.487 310,577.128 350,577.128" transform="rotate(240 300 300)" fill="green" stroke="black" stroke-width="0.5" />
<polygon points="290,542.487 270,577.128 310,577.128" transform="rotate(240 300 300)" fill="green" stroke="black" stroke-width="0.5" />
<polygon points="250,542.487 230,577.128 270,577.128" transform="rotate(240 300 300)" fill="green" stroke="black" stroke-width="0.5" />
<polygon points="370,542.487 350,577.128 330,542.487" transform="rotate(240 300 300)" fill="green" stroke="black" stroke-width="0.5" />
<polygon points="330,542.487 310,577.128 290,542.487" transform="rotate(240 300 300)" fill="green" stroke="black" stroke-width="0.5" />
<polygon points="290,542.487 270,577.128 250,542.487" transform="rotate(240 300 300)" fill="green" stroke="black" stroke-width="0.5" />
<polygon points="250,542.487 230,577.128 210,542.487" transform="rotate(240 300 300)" fill="green" stroke="black" stroke-width="0.5" />
<polygon points="300,300 280,334.641 320,334.641" transform="rotate(300 300 300)" fill="green" stroke="black" stroke-width="0.5" />
<polygon points="300,369.282 280,334.641 320,334.641" transform="rotate(300 300 300)" fill="green" stroke="black" stroke-width="0.5" />
<polygon points="280,334.641 260,369.282 300,369.282" transform="rotate(300 300 300)" fill="green" stroke="black" stroke-width="0.5" />
<polygon points="280,403.923 260,369.282 300,369.282" transform="rotate(300 300 300)" fill="green" stroke="black" stroke-width="0.5" />
<polygon points="320,334.641 300,369.282 340,369.282" transform="rotate(300 300 300)" fill="green" stroke="black" stroke-width="0.5" />
<polygon points="320,403.923 300,369.282 340,369.282" transform="rotate(300 300 300)" fill="green" stroke="black" stroke-width="0.5" />
<polygon points="260,369.282 240,403.923 280,403.923" transform="rotate(300 300 300)" fill="green" stroke="black" stroke-width="0.5" />
<polygon points="260,438.564 240,403.923 280,403.923" transform="rotate(300 300 300)" fill="green" stroke="black" stroke-width="0.5" />
<polygon points="300,369.282 280,403.923 320,403.923" transform="rotate(300 300 300)" fill="green" stroke="black" stroke-width="0.5" />
<polygon points="300,438.564 280,403.923 320,403.923" transform="rotate(300 300 300)" fill="green" stroke="black" stroke-width="0.5" />
<polygon points="340,369.282 320,403.923 360,403.923" transform="rotate(300 300 300)" fill="green" stroke="black" stroke-width="0.5" />
<polygon points="340,438.564 320,403.923 360,403.923" transform="rotate(300 300 300)" fill="green" stroke="black" stroke-width="0.5" />
<polygon points="240,403.923 220,438.564 260,438.564" transform="rotate(300 300 300)" fill="green" stroke="black" stroke-width="0.5" />
<polygon points="240,473.205 220,438.564 260,438.564" transform="rotate(300 300 300)" fill="green" stroke="black" stroke-width="0.5" />
<polygon points="280,403.923 260,438.564 300,438.564" transform="rotate(300 300 300)" fill="green" stroke="black" stroke-width="0.5" />
<polygon points="280,473.205 260,438.564 300,438.564" transform="rotate(300 300 300)" fill="green" stroke="black" stroke-width="0.5" />
<polygon points="320,403.923 300,438.564 340,438.564" transform="rotate(300 300 300)" fill="green" stroke="black" stroke-width="0.5" />
<polygon points="320,473.205 300,438.564 340,438.564" transform="rotate(300 300 300)" fill="green" stroke="black" stroke-width="0.5" />
<polygon points="360,403.923 340,438.564 380,438.564" transform="rotate(300 300 300)" fill="green" stroke="black" stroke-width="0.5" />
<polygon points="360,473.205 340,438.564 380,438.564" transform="rotate(300 300 300)" fill="green" stroke="black" stroke-width="0.5" />
<polygon points="220,438.564 200,473.205 240,473.205" transform="rotate(300 300 300)" fill="green" stroke="black" stroke-width="0.5" />
<polygon points="220,507.846 200,473.205 240,473.205" transform="rotate(300 300 300)" fill="green" stroke="black" stroke-width="0.5" />
<polygon points="260,438.564 240,473.205 280,473.205" transform="rotate(300 300 300)" fill="green" stroke="black" stroke-width="0.5" />
<polygon points="260,507.846 240,473.205 280,473.205" transform="rotate(300 300 300)" fill="green" stroke="black" stroke-width="0.5" />
<polygon points="300,438.564 280,473.205 320,473.205" transform="rotate(300 300 300)" fill="green" stroke="black" stroke-width="0.5" />
<polygon points="300,507.846 280,473.205 320,473.205" transform="rotate(300 300 300)" fill="green" stroke="black" stroke-width="0.5" />
<polygon points="340,438.564 320,473.205 360,473.205" transform="rotate(300 300 300)" fill="green" stroke="black" stroke-width="0.5" />
<polygon points="340,507.846 320,473.205 360,473.205" transform="rotate(300 300 300)" fill="green" stroke="black" stroke-width="0.5" />
<polygon points="380,438.564 360,473.205 400,473.205" transform="rotate(300 300 300)" fill="green" stroke="black" stroke-width="0.5" />
<polygon points="380,507.846 360,473.205 400,473.205" transform="rotate(300 300 300)" fill="green" stroke="black" stroke-width="0.5" />
<polygon points="200,473.205 180,507.846 220,507.846" transform="rotate(300 300 300)" fill="green" stroke="black" stroke-width="0.5" />
<polygon points="200,542.487 180,507.846 220,507.846" transform="rotate(300 300 300)" fill="green" stroke="black" stroke-width="0.5" />
<polygon points="240,473.205 220,507.846 260,507.846" transform="rotate(300 300 300)" fill="green" stroke="black" stroke-width="0.5" />
<polygon points="240,542.487 220,507.846 260,507.846" transform="rotate(300 300 300)" fill="green" stroke="black" stroke-width="0.5" />
<polygon points="280,473.205 260,507.846 300,507.846" transform="rotate(300 300 300)" fill="green" stroke="black" stroke-width="0.5" />
<polygon points="280,542.487 260,507.846 300,507.846" transform="rotate(300 300 300)" fill="green" stroke="black" stroke-width="0.5" />
<polygon points="320,473.205 300,507.846 340,507.846" transform="rotate(300 300 300)" fill="green" stroke="black" stroke-width="0.5" />
<polygon points="320,542.487 300,507.846 340,507.846" transform="rotate(300 300 300)" fill="green" stroke="black" stroke-width="0.5" />
<polygon points="360,473.205 340,507.846 380,507.846" transform="rotate(300 300 300)" fill="green" stroke="black" stroke-width="0.5" />
<polygon points="360,542.487 340,507.846 380,507.846" transform="rotate(300 300 300)" fill="green" stroke="black" stroke-width="0.5" />
<polygon points="400,473.205 380,507.846 420,507.846" transform="rotate(300 300 300)" fill="green" stroke="black" stroke-width="0.5" />
<polygon points="400,542.487 380,507.846 420,507.846" transform="rotate(300 300 300)" fill="green" stroke="black" stroke-width="0.5" />
<polygon points="180,507.846 160,542.487 200,542.487" transform="rotate(300 300 300)" fill="green" stroke="black" stroke-width="0.5" />
<polygon points="220,507.846 200,542.487 240,542.487" transform="rotate(300 300 300)" fill="green" stroke="black" stroke-width="0.5" />
<polygon points="260,507.846 240,542.487 280,542.487" transform="rotate(300 300 300)" fill="green" stroke="black" stroke-width="0.5" />
<polygon points="300,507.846 280,542.487 320,542.487" transform="rotate(300 300 300)" fill="green" stroke="black" stroke-width="0.5" />
<polygon points="340,507.846 320,542.487 360,542.487" transform="rotate(300 300 300)" fill="green" stroke="black" stroke-width="0.5" />
<polygon points="380,507.846 360,542.487 400,542.487" transform="rotate(300 300 300)" fill="green" stroke="black" stroke-width="0.5" />
<polygon points="420,507.846 400,542.487 440,542.487" transform="rotate(300 300 300)" fill="green" stroke="black" stroke-width="0.5" />
<polygon points="330,542.487 310,577.128 350,577.128" transform="rotate(300 300 300)" fill="green" stroke="black" stroke-width="0.5" />
<polygon points="290,542.487 270,577.128 310,577.128" transform="rotate(300 300 300)" fill="green" stroke="black" stroke-width="0.5" />
<polygon points="250,542.487 230,577.128 270,577.128" transform="rotate(300 300 300)" fill="green" stroke="black" stroke-width="0.5" />
<polygon points="370,542.487 350,577.128 330,542.487" transform="rotate(300 300 300)" fill="green" stroke="black" stroke-width="0.5" />
<polygon points="330,542.487 310,577.128 290,542.487" transform="rotate(300 300 300)" fill="green" stroke="black" stroke-width="0.5" />
<polygon points="290,542.487 270,577.128 250,542.487" transform="rotate(300 300 300)" fill="green" stroke="black" stroke-width="0.5" />
<polygon points="250,542.487 230,577.128 210,542.487" transform="rotate(300 300 300)" fill="green" stroke="black" stroke-width="0.5" />
</svg>
