<svg version="1.1" baseProfile="full" xmlns="http://www.w3.org/2000/svg">
<circle cx="400" cy="400" r="400" transform="rotate(0 0 0)" fill="red" stroke="black" stroke-width="0.5" />
<rect x="117.157"  y="117.157" width="15" height="110" transform="rotate(0 117.157 117.157)" fill="green" stroke="black" stroke-width="0.5" />
<rect x="132.157"  y="117.157" width="15" height="110" transform="rotate(0 117.157 117.157)" fill="green" stroke="black" stroke-width="0.5" />
<rect x="147.157"  y="117.157" width="15" height="110" transform="rotate(0 117.157 117.157)" fill="green" stroke="black" stroke-width="0.5" />
<rect x="162.157"  y="117.157" width="15" height="110" transform="rotate(0 117.157 117.157)" fill="green" stroke="black" stroke-width="0.5" />
<rect x="177.157"  y="117.157" width="15" height="110" transform="rotate(0 117.157 117.157)" fill="green" stroke="black" stroke-width="0.5" />
<rect x="192.157"  y="117.157" width="15" height="110" transform="rotate(0 117.157 117.157)" fill="green" stroke="black" stroke-width="0.5" />
<rect x="207.157"  y="117.157" width="15" height="110" transform="rotate(0 117.157 117.157)" fill="green" stroke="black" stroke-width="0.5" />
<rect x="222.157"  y="117.157" width="15" height="110" transform="rotate(0 117.157 117.157)" fill="green" stroke="black" stroke-width="0.5" />
<rect x="237.157"  y="117.157" width="15" height="110" transform="rotate(0 117.157 117.157)" fill="green" stroke="black" stroke-width="0.5" />
<rect x="252.157"  y="117.157" width="15" height="110" transform="rotate(0 117.157 117.157)" fill="green" stroke="black" stroke-width="0.5" />
<rect x="267.157"  y="117.157" width="15" height="110" transform="rotate(0 117.157 117.157)" fill="green" stroke="black" stroke-width="0.5" />
<rect x="282.157"  y="117.157" width="15" height="110" transform="rotate(0 117.157 117.157)" fill="green" stroke="black" stroke-width="0.5" />
<rect x="297.157"  y="117.157" width="15" height="110" transform="rotate(0 117.157 117.157)" fill="green" stroke="black" stroke-width="0.5" />
<rect x="312.157"  y="117.157" width="15" height="110" transform="rotate(0 117.157 117.157)" fill="green" stroke="black" stroke-width="0.5" />
<rect x="327.157"  y="117.157" width="15" height="110" transform="rotate(0 117.157 117.157)" fill="green" stroke="black" stroke-width="0.5" />
<rect x="342.157"  y="117.157" width="15" height="110" transform="rotate(0 117.157 117.157)" fill="green" stroke="black" stroke-width="0.5" />
<rect x="357.157"  y="117.157" width="15" height="110" transform="rotate(0 117.157 117.157)" fill="green" stroke="black" stroke-width="0.5" />
<rect x="372.157"  y="117.157" width="15" height="110" transform="rotate(0 117.157 117.157)" fill="green" stroke="black" stroke-width="0.5" />
<rect x="387.157"  y="117.157" width="15" height="110" transform="rotate(0 117.157 117.157)" fill="green" stroke="black" stroke-width="0.5" />
<rect x="402.157"  y="117.157" width="15" height="110" transform="rotate(0 117.157 117.157)" fill="green" stroke="black" stroke-width="0.5" />
<rect x="417.157"  y="117.157" width="15" height="110" transform="rotate(0 117.157 117.157)" fill="green" stroke="black" stroke-width="0.5" />
<rect x="432.157"  y="117.157" width="15" height="110" transform="rotate(0 117.157 117.157)" fill="green" stroke="black" stroke-width="0.5" />
<rect x="447.157"  y="117.157" width="15" height="110" transform="rotate(0 117.157 117.157)" fill="green" stroke="black" stroke-width="0.5" />
<rect x="462.157"  y="117.157" width="15" height="110" transform="rotate(0 117.157 117.157)" fill="green" stroke="black" stroke-width="0.5" />
<rect x="477.157"  y="117.157" width="15" height="110" transform="rotate(0 117.157 117.157)" fill="green" stroke="black" stroke-width="0.5" />
<rect x="492.157"  y="117.157" width="15" height="110" transform="rotate(0 117.157 117.157)" fill="green" stroke="black" stroke-width="0.5" />
<rect x="507.157"  y="117.157" width="15" height="110" transform="rotate(0 117.157 117.157)" fill="green" stroke="black" stroke-width="0.5" />
<rect x="522.157"  y="117.157" width="15" height="110" transform="rotate(0 117.157 117.157)" fill="green" stroke="black" stroke-width="0.5" />
<rect x="537.157"  y="117.157" width="15" height="110" transform="rotate(0 117.157 117.157)" fill="green" stroke="black" stroke-width="0.5" />
<rect x="552.157"  y="117.157" width="15" height="110" transform="rotate(0 117.157 117.157)" fill="green" stroke="black" stroke-width="0.5" />
<rect x="567.157"  y="117.157" width="15" height="110" transform="rotate(0 117.157 117.157)" fill="green" stroke="black" stroke-width="0.5" />
<rect x="582.157"  y="117.157" width="15" height="110" transform="rotate(0 117.157 117.157)" fill="green" stroke="black" stroke-width="0.5" />
<rect x="597.157"  y="117.157" width="15" height="110" transform="rotate(0 117.157 117.157)" fill="green" stroke="black" stroke-width="0.5" />
<rect x="612.157"  y="117.157" width="15" height="110" transform="rotate(0 117.157 117.157)" fill="green" stroke="black" stroke-width="0.5" />
<rect x="627.157"  y="117.157" width="15" height="110" transform="rotate(0 117.157 117.157)" fill="green" stroke="black" stroke-width="0.5" />
<rect x="642.157"  y="117.157" width="15" height="110" transform="rotate(0 117.157 117.157)" fill="green" stroke="black" stroke-width="0.5" />
<rect x="657.157"  y="117.157" width="15" height="110" transform="rotate(0 117.157 117.157)" fill="green" stroke="black" stroke-width="0.5" />
<rect x="117.157"  y="227.157" width="15" height="110" transform="rotate(0 117.157 117.157)" fill="green" stroke="black" stroke-width="0.5" />
<rect x="132.157"  y="227.157" width="15" height="110" transform="rotate(0 117.157 117.157)" fill="green" stroke="black" stroke-width="0.5" />
<rect x="147.157"  y="227.157" width="15" height="110" transform="rotate(0 117.157 117.157)" fill="green" stroke="black" stroke-width="0.5" />
<rect x="162.157"  y="227.157" width="15" height="110" transform="rotate(0 117.157 117.157)" fill="green" stroke="black" stroke-width="0.5" />
<rect x="177.157"  y="227.157" width="15" height="110" transform="rotate(0 117.157 117.157)" fill="green" stroke="black" stroke-width="0.5" />
<rect x="192.157"  y="227.157" width="15" height="110" transform="rotate(0 117.157 117.157)" fill="green" stroke="black" stroke-width="0.5" />
<rect x="207.157"  y="227.157" width="15" height="110" transform="rotate(0 117.157 117.157)" fill="green" stroke="black" stroke-width="0.5" />
<rect x="222.157"  y="227.157" width="15" height="110" transform="rotate(0 117.157 117.157)" fill="green" stroke="black" stroke-width="0.5" />
<rect x="237.157"  y="227.157" width="15" height="110" transform="rotate(0 117.157 117.157)" fill="green" stroke="black" stroke-width="0.5" />
<rect x="252.157"  y="227.157" width="15" height="110" transform="rotate(0 117.157 117.157)" fill="green" stroke="black" stroke-width="0.5" />
<rect x="267.157"  y="227.157" width="15" height="110" transform="rotate(0 117.157 117.157)" fill="green" stroke="black" stroke-width="0.5" />
<rect x="282.157"  y="227.157" width="15" height="110" transform="rotate(0 117.157 117.157)" fill="green" stroke="black" stroke-width="0.5" />
<rect x="297.157"  y="227.157" width="15" height="110" transform="rotate(0 117.157 117.157)" fill="green" stroke="black" stroke-width="0.5" />
<rect x="312.157"  y="227.157" width="15" height="110" transform="rotate(0 117.157 117.157)" fill="green" stroke="black" stroke-width="0.5" />
<rect x="327.157"  y="227.157" width="15" height="110" transform="rotate(0 117.157 117.157)" fill="green" stroke="black" stroke-width="0.5" />
<rect x="342.157"  y="227.157" width="15" height="110" transform="rotate(0 117.157 117.157)" fill="green" stroke="black" stroke-width="0.5" />
<rect x="357.157"  y="227.157" width="15" height="110" transform="rotate(0 117.157 117.157)" fill="green" stroke="black" stroke-width="0.5" />
<rect x="372.157"  y="227.157" width="15" height="110" transform="rotate(0 117.157 117.157)" fill="green" stroke="black" stroke-width="0.5" />
<rect x="387.157"  y="227.157" width="15" height="110" transform="rotate(0 117.157 117.157)" fill="green" stroke="black" stroke-width="0.5" />
<rect x="402.157"  y="227.157" width="15" height="110" transform="rotate(0 117.157 117.157)" fill="green" stroke="black" stroke-width="0.5" />
<rect x="417.157"  y="227.157" width="15" height="110" transform="rotate(0 117.157 117.157)" fill="green" stroke="black" stroke-width="0.5" />
<rect x="432.157"  y="227.157" width="15" height="110" transform="rotate(0 117.157 117.157)" fill="green" stroke="black" stroke-width="0.5" />
<rect x="447.157"  y="227.157" width="15" height="110" transform="rotate(0 117.157 117.157)" fill="green" stroke="black" stroke-width="0.5" />
<rect x="462.157"  y="227.157" width="15" height="110" transform="rotate(0 117.157 117.157)" fill="green" stroke="black" stroke-width="0.5" />
<rect x="477.157"  y="227.157" width="15" height="110" transform="rotate(0 117.157 117.157)" fill="green" stroke="black" stroke-width="0.5" />
<rect x="492.157"  y="227.157" width="15" height="110" transform="rotate(0 117.157 117.157)" fill="green" stroke="black" stroke-width="0.5" />
<rect x="507.157"  y="227.157" width="15" height="110" transform="rotate(0 117.157 117.157)" fill="green" stroke="black" stroke-width="0.5" />
<rect x="522.157"  y="227.157" width="15" height="110" transform="rotate(0 117.157 117.157)" fill="green" stroke="black" stroke-width="0.5" />
<rect x="537.157"  y="227.157" width="15" height="110" transform="rotate(0 117.157 117.157)" fill="green" stroke="black" stroke-width="0.5" />
<rect x="552.157"  y="227.157" width="15" height="110" transform="rotate(0 117.157 117.157)" fill="green" stroke="black" stroke-width="0.5" />
<rect x="567.157"  y="227.157" width="15" height="110" transform="rotate(0 117.157 117.157)" fill="green" stroke="black" stroke-width="0.5" />
<rect x="582.157"  y="227.157" width="15" height="110" transform="rotate(0 117.157 117.157)" fill="green" stroke="black" stroke-width="0.5" />
<rect x="597.157"  y="227.157" width="15" height="110" transform="rotate(0 117.157 117.157)" fill="green" stroke="black" stroke-width="0.5" />
<rect x="612.157"  y="227.157" width="15" height="110" transform="rotate(0 117.157 117.157)" fill="green" stroke="black" stroke-width="0.5" />
<rect x="627.157"  y="227.157" width="15" height="110" transform="rotate(0 117.157 117.157)" fill="green" stroke="black" stroke-width="0.5" />
<rect x="642.157"  y="227.157" width="15" height="110" transform="rotate(0 117.157 117.157)" fill="green" stroke="black" stroke-width="0.5" />
<rect x="657.157"  y="227.157" width="15" height="110" transform="rotate(0 117.157 117.157)" fill="green" stroke="black" stroke-width="0.5" />
<rect x="117.157"  y="337.157" width="15" height="110" transform="rotate(0 117.157 117.157)" fill="green" stroke="black" stroke-width="0.5" />
<rect x="132.157"  y="337.157" width="15" height="110" transform="rotate(0 117.157 117.157)" fill="green" stroke="black" stroke-width="0.5" />
<rect x="147.157"  y="337.157" width="15" height="110" transform="rotate(0 117.157 117.157)" fill="green" stroke="black" stroke-width="0.5" />
<rect x="162.157"  y="337.157" width="15" height="110" transform="rotate(0 117.157 117.157)" fill="green" stroke="black" stroke-width="0.5" />
<rect x="177.157"  y="337.157" width="15" height="110" transform="rotate(0 117.157 117.157)" fill="green" stroke="black" stroke-width="0.5" />
<rect x="192.157"  y="337.157" width="15" height="110" transform="rotate(0 117.157 117.157)" fill="green" stroke="black" stroke-width="0.5" />
<rect x="207.157"  y="337.157" width="15" height="110" transform="rotate(0 117.157 117.157)" fill="green" stroke="black" stroke-width="0.5" />
<rect x="222.157"  y="337.157" width="15" height="110" transform="rotate(0 117.157 117.157)" fill="green" stroke="black" stroke-width="0.5" />
<rect x="237.157"  y="337.157" width="15" height="110" transform="rotate(0 117.157 117.157)" fill="green" stroke="black" stroke-width="0.5" />
<rect x="252.157"  y="337.157" width="15" height="110" transform="rotate(0 117.157 117.157)" fill="green" stroke="black" stroke-width="0.5" />
<rect x="267.157"  y="337.157" width="15" height="110" transform="rotate(0 117.157 117.157)" fill="green" stroke="black" stroke-width="0.5" />
<rect x="282.157"  y="337.157" width="15" height="110" transform="rotate(0 117.157 117.157)" fill="green" stroke="black" stroke-width="0.5" />
<rect x="297.157"  y="337.157" width="15" height="110" transform="rotate(0 117.157 117.157)" fill="green" stroke="black" stroke-width="0.5" />
<rect x="312.157"  y="337.157" width="15" height="110" transform="rotate(0 117.157 117.157)" fill="green" stroke="black" stroke-width="0.5" />
<rect x="327.157"  y="337.157" width="15" height="110" transform="rotate(0 117.157 117.157)" fill="green" stroke="black" stroke-width="0.5" />
<rect x="342.157"  y="337.157" width="15" height="110" transform="rotate(0 117.157 117.157)" fill="green" stroke="black" stroke-width="0.5" />
<rect x="357.157"  y="337.157" width="15" height="110" transform="rotate(0 117.157 117.157)" fill="green" stroke="black" stroke-width="0.5" />
<rect x="372.157"  y="337.157" width="15" height="110" transform="rotate(0 117.157 117.157)" fill="green" stroke="black" stroke-width="0.5" />
<rect x="387.157"  y="337.157" width="15" height="110" transform="rotate(0 117.157 117.157)" fill="green" stroke="black" stroke-width="0.5" />
<rect x="402.157"  y="337.157" width="15" height="110" transform="rotate(0 117.157 117.157)" fill="green" stroke="black" stroke-width="0.5" />
<rect x="417.157"  y="337.157" width="15" height="110" transform="rotate(0 117.157 117.157)" fill="green" stroke="black" stroke-width="0.5" />
<rect x="432.157"  y="337.157" width="15" height="110" transform="rotate(0 117.157 117.157)" fill="green" stroke="black" stroke-width="0.5" />
<rect x="447.157"  y="337.157" width="15" height="110" transform="rotate(0 117.157 117.157)" fill="green" stroke="black" stroke-width="0.5" />
<rect x="462.157"  y="337.157" width="15" height="110" transform="rotate(0 117.157 117.157)" fill="green" stroke="black" stroke-width="0.5" />
<rect x="477.157"  y="337.157" width="15" height="110" transform="rotate(0 117.157 117.157)" fill="green" stroke="black" stroke-width="0.5" />
<rect x="492.157"  y="337.157" width="15" height="110" transform="rotate(0 117.157 117.157)" fill="green" stroke="black" stroke-width="0.5" />
<rect x="507.157"  y="337.157" width="15" height="110" transform="rotate(0 117.157 117.157)" fill="green" stroke="black" stroke-width="0.5" />
<rect x="522.157"  y="337.157" width="15" height="110" transform="rotate(0 117.157 117.157)" fill="green" stroke="black" stroke-width="0.5" />
<rect x="537.157"  y="337.157" width="15" height="110" transform="rotate(0 117.157 117.157)" fill="green" stroke="black" stroke-width="0.5" />
<rect x="552.157"  y="337.157" width="15" height="110" transform="rotate(0 117.157 117.157)" fill="green" stroke="black" stroke-width="0.5" />
<rect x="567.157"  y="337.157" width="15" height="110" transform="rotate(0 117.157 117.157)" fill="green" stroke="black" stroke-width="0.5" />
<rect x="582.157"  y="337.157" width="15" height="110" transform="rotate(0 117.157 117.157)" fill="green" stroke="black" stroke-width="0.5" />
<rect x="597.157"  y="337.157" width="15" height="110" transform="rotate(0 117.157 117.157)" fill="green" stroke="black" stroke-width="0.5" />
<rect x="612.157"  y="337.157" width="15" height="110" transform="rotate(0 117.157 117.157)" fill="green" stroke="black" stroke-width="0.5" />
<rect x="627.157"  y="337.157" width="15" height="110" transform="rotate(0 117.157 117.157)" fill="green" stroke="black" stroke-width="0.5" />
<rect x="642.157"  y="337.157" width="15" height="110" transform="rotate(0 117.157 117.157)" fill="green" stroke="black" stroke-width="0.5" />
<rect x="657.157"  y="337.157" width="15" height="110" transform="rotate(0 117.157 117.157)" fill="green" stroke="black" stroke-width="0.5" />
<rect x="117.157"  y="447.157" width="15" height="110" transform="rotate(0 117.157 117.157)" fill="green" stroke="black" stroke-width="0.5" />
<rect x="132.157"  y="447.157" width="15" height="110" transform="rotate(0 117.157 117.157)" fill="green" stroke="black" stroke-width="0.5" />
<rect x="147.157"  y="447.157" width="15" height="110" transform="rotate(0 117.157 117.157)" fill="green" stroke="black" stroke-width="0.5" />
<rect x="162.157"  y="447.157" width="15" height="110" transform="rotate(0 117.157 117.157)" fill="green" stroke="black" stroke-width="0.5" />
<rect x="177.157"  y="447.157" width="15" height="110" transform="rotate(0 117.157 117.157)" fill="green" stroke="black" stroke-width="0.5" />
<rect x="192.157"  y="447.157" width="15" height="110" transform="rotate(0 117.157 117.157)" fill="green" stroke="black" stroke-width="0.5" />
<rect x="207.157"  y="447.157" width="15" height="110" transform="rotate(0 117.157 117.157)" fill="green" stroke="black" stroke-width="0.5" />
<rect x="222.157"  y="447.157" width="15" height="110" transform="rotate(0 117.157 117.157)" fill="green" stroke="black" stroke-width="0.5" />
<rect x="237.157"  y="447.157" width="15" height="110" transform="rotate(0 117.157 117.157)" fill="green" stroke="black" stroke-width="0.5" />
<rect x="252.157"  y="447.157" width="15" height="110" transform="rotate(0 117.157 117.157)" fill="green" stroke="black" stroke-width="0.5" />
<rect x="267.157"  y="447.157" width="15" height="110" transform="rotate(0 117.157 117.157)" fill="green" stroke="black" stroke-width="0.5" />
<rect x="282.157"  y="447.157" width="15" height="110" transform="rotate(0 117.157 117.157)" fill="green" stroke="black" stroke-width="0.5" />
<rect x="297.157"  y="447.157" width="15" height="110" transform="rotate(0 117.157 117.157)" fill="green" stroke="black" stroke-width="0.5" />
<rect x="312.157"  y="447.157" width="15" height="110" transform="rotate(0 117.157 117.157)" fill="green" stroke="black" stroke-width="0.5" />
<rect x="327.157"  y="447.157" width="15" height="110" transform="rotate(0 117.157 117.157)" fill="green" stroke="black" stroke-width="0.5" />
<rect x="342.157"  y="447.157" width="15" height="110" transform="rotate(0 117.157 117.157)" fill="green" stroke="black" stroke-width="0.5" />
<rect x="357.157"  y="447.157" width="15" height="110" transform="rotate(0 117.157 117.157)" fill="green" stroke="black" stroke-width="0.5" />
<rect x="372.157"  y="447.157" width="15" height="110" transform="rotate(0 117.157 117.157)" fill="green" stroke="black" stroke-width="0.5" />
<rect x="387.157"  y="447.157" width="15" height="110" transform="rotate(0 117.157 117.157)" fill="green" stroke="black" stroke-width="0.5" />
<rect x="402.157"  y="447.157" width="15" height="110" transform="rotate(0 117.157 117.157)" fill="green" stroke="black" stroke-width="0.5" />
<rect x="417.157"  y="447.157" width="15" height="110" transform="rotate(0 117.157 117.157)" fill="green" stroke="black" stroke-width="0.5" />
<rect x="432.157"  y="447.157" width="15" height="110" transform="rotate(0 117.157 117.157)" fill="green" stroke="black" stroke-width="0.5" />
<rect x="447.157"  y="447.157" width="15" height="110" transform="rotate(0 117.157 117.157)" fill="green" stroke="black" stroke-width="0.5" />
<rect x="462.157"  y="447.157" width="15" height="110" transform="rotate(0 117.157 117.157)" fill="green" stroke="black" stroke-width="0.5" />
<rect x="477.157"  y="447.157" width="15" height="110" transform="rotate(0 117.157 117.157)" fill="green" stroke="black" stroke-width="0.5" />
<rect x="492.157"  y="447.157" width="15" height="110" transform="rotate(0 117.157 117.157)" fill="green" stroke="black" stroke-width="0.5" />
<rect x="507.157"  y="447.157" width="15" height="110" transform="rotate(0 117.157 117.157)" fill="green" stroke="black" stroke-width="0.5" />
<rect x="522.157"  y="447.157" width="15" height="110" transform="rotate(0 117.157 117.157)" fill="green" stroke="black" stroke-width="0.5" />
<rect x="537.157"  y="447.157" width="15" height="110" transform="rotate(0 117.157 117.157)" fill="green" stroke="black" stroke-width="0.5" />
<rect x="552.157"  y="447.157" width="15" height="110" transform="rotate(0 117.157 117.157)" fill="green" stroke="black" stroke-width="0.5" />
<rect x="567.157"  y="447.157" width="15" height="110" transform="rotate(0 117.157 117.157)" fill="green" stroke="black" stroke-width="0.5" />
<rect x="582.157"  y="447.157" width="15" height="110" transform="rotate(0 117.157 117.157)" fill="green" stroke="black" stroke-width="0.5" />
<rect x="597.157"  y="447.157" width="15" height="110" transform="rotate(0 117.157 117.157)" fill="green" stroke="black" stroke-width="0.5" />
<rect x="612.157"  y="447.157" width="15" height="110" transform="rotate(0 117.157 117.157)" fill="green" stroke="black" stroke-width="0.5" />
<rect x="627.157"  y="447.157" width="15" height="110" transform="rotate(0 117.157 117.157)" fill="green" stroke="black" stroke-width="0.5" />
<rect x="642.157"  y="447.157" width="15" height="110" transform="rotate(0 117.157 117.157)" fill="green" stroke="black" stroke-width="0.5" />
<rect x="657.157"  y="447.157" width="15" height="110" transform="rotate(0 117.157 117.157)" fill="green" stroke="black" stroke-width="0.5" />
<rect x="117.157"  y="557.157" width="15" height="110" transform="rotate(0 117.157 117.157)" fill="green" stroke="black" stroke-width="0.5" />
<rect x="132.157"  y="557.157" width="15" height="110" transform="rotate(0 117.157 117.157)" fill="green" stroke="black" stroke-width="0.5" />
<rect x="147.157"  y="557.157" width="15" height="110" transform="rotate(0 117.157 117.157)" fill="green" stroke="black" stroke-width="0.5" />
<rect x="162.157"  y="557.157" width="15" height="110" transform="rotate(0 117.157 117.157)" fill="green" stroke="black" stroke-width="0.5" />
<rect x="177.157"  y="557.157" width="15" height="110" transform="rotate(0 117.157 117.157)" fill="green" stroke="black" stroke-width="0.5" />
<rect x="192.157"  y="557.157" width="15" height="110" transform="rotate(0 117.157 117.157)" fill="green" stroke="black" stroke-width="0.5" />
<rect x="207.157"  y="557.157" width="15" height="110" transform="rotate(0 117.157 117.157)" fill="green" stroke="black" stroke-width="0.5" />
<rect x="222.157"  y="557.157" width="15" height="110" transform="rotate(0 117.157 117.157)" fill="green" stroke="black" stroke-width="0.5" />
<rect x="237.157"  y="557.157" width="15" height="110" transform="rotate(0 117.157 117.157)" fill="green" stroke="black" stroke-width="0.5" />
<rect x="252.157"  y="557.157" width="15" height="110" transform="rotate(0 117.157 117.157)" fill="green" stroke="black" stroke-width="0.5" />
<rect x="267.157"  y="557.157" width="15" height="110" transform="rotate(0 117.157 117.157)" fill="green" stroke="black" stroke-width="0.5" />
<rect x="282.157"  y="557.157" width="15" height="110" transform="rotate(0 117.157 117.157)" fill="green" stroke="black" stroke-width="0.5" />
<rect x="297.157"  y="557.157" width="15" height="110" transform="rotate(0 117.157 117.157)" fill="green" stroke="black" stroke-width="0.5" />
<rect x="312.157"  y="557.157" width="15" height="110" transform="rotate(0 117.157 117.157)" fill="green" stroke="black" stroke-width="0.5" />
<rect x="327.157"  y="557.157" width="15" height="110" transform="rotate(0 117.157 117.157)" fill="green" stroke="black" stroke-width="0.5" />
<rect x="342.157"  y="557.157" width="15" height="110" transform="rotate(0 117.157 117.157)" fill="green" stroke="black" stroke-width="0.5" />
<rect x="357.157"  y="557.157" width="15" height="110" transform="rotate(0 117.157 117.157)" fill="green" stroke="black" stroke-width="0.5" />
<rect x="372.157"  y="557.157" width="15" height="110" transform="rotate(0 117.157 117.157)" fill="green" stroke="black" stroke-width="0.5" />
<rect x="387.157"  y="557.157" width="15" height="110" transform="rotate(0 117.157 117.157)" fill="green" stroke="black" stroke-width="0.5" />
<rect x="402.157"  y="557.157" width="15" height="110" transform="rotate(0 117.157 117.157)" fill="green" stroke="black" stroke-width="0.5" />
<rect x="417.157"  y="557.157" width="15" height="110" transform="rotate(0 117.157 117.157)" fill="green" stroke="black" stroke-width="0.5" />
<rect x="432.157"  y="557.157" width="15" height="110" transform="rotate(0 117.157 117.157)" fill="green" stroke="black" stroke-width="0.5" />
<rect x="447.157"  y="557.157" width="15" height="110" transform="rotate(0 117.157 117.157)" fill="green" stroke="black" stroke-width="0.5" />
<rect x="462.157"  y="557.157" width="15" height="110" transform="rotate(0 117.157 117.157)" fill="green" stroke="black" stroke-width="0.5" />
<rect x="477.157"  y="557.157" width="15" height="110" transform="rotate(0 117.157 117.157)" fill="green" stroke="black" stroke-width="0.5" />
<rect x="492.157"  y="557.157" width="15" height="110" transform="rotate(0 117.157 117.157)" fill="green" stroke="black" stroke-width="0.5" />
<rect x="507.157"  y="557.157" width="15" height="110" transform="rotate(0 117.157 117.157)" fill="green" stroke="black" stroke-width="0.5" />
<rect x="522.157"  y="557.157" width="15" height="110" transform="rotate(0 117.157 117.157)" fill="green" stroke="black" stroke-width="0.5" />
<rect x="537.157"  y="557.157" width="15" height="110" transform="rotate(0 117.157 117.157)" fill="green" stroke="black" stroke-width="0.5" />
<rect x="552.157"  y="557.157" width="15" height="110" transform="rotate(0 117.157 117.157)" fill="green" stroke="black" stroke-width="0.5" />
<rect x="567.157"  y="557.157" width="15" height="110" transform="rotate(0 117.157 117.157)" fill="green" stroke="black" stroke-width="0.5" />
<rect x="582.157"  y="557.157" width="15" height="110" transform="rotate(0 117.157 117.157)" fill="green" stroke="black" stroke-width="0.5" />
<rect x="597.157"  y="557.157" width="15" height="110" transform="rotate(0 117.157 117.157)" fill="green" stroke="black" stroke-width="0.5" />
<rect x="612.157"  y="557.157" width="15" height="110" transform="rotate(0 117.157 117.157)" fill="green" stroke="black" stroke-width="0.5" />
<rect x="627.157"  y="557.157" width="15" height="110" transform="rotate(0 117.157 117.157)" fill="green" stroke="black" stroke-width="0.5" />
<rect x="642.157"  y="557.157" width="15" height="110" transform="rotate(0 117.157 117.157)" fill="green" stroke="black" stroke-width="0.5" />
<rect x="657.157"  y="557.157" width="15" height="110" transform="rotate(0 117.157 117.157)" fill="green" stroke="black" stroke-width="0.5" />
<rect x="117.157"  y="667.157" width="110" height="15" transform="rotate(0 117.157 117.157)" fill="green" stroke="black" stroke-width="0.5" />
<rect x="227.157"  y="667.157" width="110" height="15" transform="rotate(0 117.157 117.157)" fill="green" stroke="black" stroke-width="0.5" />
<rect x="337.157"  y="667.157" width="110" height="15" transform="rotate(0 117.157 117.157)" fill="green" stroke="black" stroke-width="0.5" />
<rect x="447.157"  y="667.157" width="110" height="15" transform="rotate(0 117.157 117.157)" fill="green" stroke="black" stroke-width="0.5" />
<rect x="557.157"  y="667.157" width="110" height="15" transform="rotate(0 117.157 117.157)" fill="green" stroke="black" stroke-width="0.5" />
<rect x="400"  y="682.843" width="110" height="15" transform="rotate(0 400 400)" fill="green" stroke="black" stroke-width="0.5" />
<rect x="290"  y="682.843" width="110" height="15" transform="rotate(0 400 400)" fill="green" stroke="black" stroke-width="0.5" />
<rect x="510"  y="682.843" width="110" height="15" transform="rotate(0 400 400)" fill="green" stroke="black" stroke-width="0.5" />
<rect x="180"  y="682.843" width="110" height="15" transform="rotate(0 400 400)" fill="green" stroke="black" stroke-width="0.5" />
<rect x="400"  y="697.843" width="110" height="15" transform="rotate(0 400 400)" fill="green" stroke="black" stroke-width="0.5" />
<rect x="290"  y="697.843" width="110" height="15" transform="rotate(0 400 400)" fill="green" stroke="black" stroke-width="0.5" />
<rect x="510"  y="697.843" width="110" height="15" transform="rotate(0 400 400)" fill="green" stroke="black" stroke-width="0.5" />
<rect x="180"  y="697.843" width="110" height="15" transform="rotate(0 400 400)" fill="green" stroke="black" stroke-width="0.5" />
<rect x="400"  y="712.843" width="110" height="15" transform="rotate(0 400 400)" fill="green" stroke="black" stroke-width="0.5" />
<rect x="290"  y="712.843" width="110" height="15" transform="rotate(0 400 400)" fill="green" stroke="black" stroke-width="0.5" />
<rect x="510"  y="712.843" width="110" height="15" transform="rotate(0 400 400)" fill="green" stroke="black" stroke-width="0.5" />
<rect x="180"  y="712.843" width="110" height="15" transform="rotate(0 400 400)" fill="green" stroke="black" stroke-width="0.5" />
<rect x="400"  y="727.843" width="110" height="15" transform="rotate(0 400 400)" fill="green" stroke="black" stroke-width="0.5" />
<rect x="290"  y="727.843" width="110" height="15" transform="rotate(0 400 400)" fill="green" stroke="black" stroke-width="0.5" />
<rect x="400"  y="742.843" width="110" height="15" transform="rotate(0 400 400)" fill="green" stroke="black" stroke-width="0.5" />
<rect x="290"  y="742.843" width="110" height="15" transform="rotate(0 400 400)" fill="green" stroke="black" stroke-width="0.5" />
<rect x="400"  y="757.843" width="110" height="15" transform="rotate(0 400 400)" fill="green" stroke="black" stroke-width="0.5" />
<rect x="290"  y="757.843" width="110" height="15" transform="rotate(0 400 400)" fill="green" stroke="black" stroke-width="0.5" />
<rect x="400"  y="682.843" width="110" height="15" transform="rotate(90 400 400)" fill="green" stroke="black" stroke-width="0.5" />
<rect x="290"  y="682.843" width="110" height="15" transform="rotate(90 400 400)" fill="green" stroke="black" stroke-width="0.5" />
<rect x="510"  y="682.843" width="110" height="15" transform="rotate(90 400 400)" fill="green" stroke="black" stroke-width="0.5" />
<rect x="180"  y="682.843" width="110" height="15" transform="rotate(90 400 400)" fill="green" stroke="black" stroke-width="0.5" />
<rect x="400"  y="697.843" width="110" height="15" transform="rotate(90 400 400)" fill="green" stroke="black" stroke-width="0.5" />
<rect x="290"  y="697.843" width="110" height="15" transform="rotate(90 400 400)" fill="green" stroke="black" stroke-width="0.5" />
<rect x="510"  y="697.843" width="110" height="15" transform="rotate(90 400 400)" fill="green" stroke="black" stroke-width="0.5" />
<rect x="180"  y="697.843" width="110" height="15" transform="rotate(90 400 400)" fill="green" stroke="black" stroke-width="0.5" />
<rect x="400"  y="712.843" width="110" height="15" transform="rotate(90 400 400)" fill="green" stroke="black" stroke-width="0.5" />
<rect x="290"  y="712.843" width="110" height="15" transform="rotate(90 400 400)" fill="green" stroke="black" stroke-width="0.5" />
<rect x="510"  y="712.843" width="110" height="15" transform="rotate(90 400 400)" fill="green" stroke="black" stroke-width="0.5" />
<rect x="180"  y="712.843" width="110" height="15" transform="rotate(90 400 400)" fill="green" stroke="black" stroke-width="0.5" />
<rect x="400"  y="727.843" width="110" height="15" transform="rotate(90 400 400)" fill="green" stroke="black" stroke-width="0.5" />
<rect x="290"  y="727.843" width="110" height="15" transform="rotate(90 400 400)" fill="green" stroke="black" stroke-width="0.5" />
<rect x="400"  y="742.843" width="110" height="15" transform="rotate(90 400 400)" fill="green" stroke="black" stroke-width="0.5" />
<rect x="290"  y="742.843" width="110" height="15" transform="rotate(90 400 400)" fill="green" stroke="black" stroke-width="0.5" />
<rect x="400"  y="757.843" width="110" height="15" transform="rotate(90 400 400)" fill="green" stroke="black" stroke-width="0.5" />
<rect x="290"  y="757.843" width="110" height="15" transform="rotate(90 400 400)" fill="green" stroke="black" stroke-width="0.5" />
<rect x="400"  y="682.843" width="110" height="15" transform="rotate(180 400 400)" fill="green" stroke="black" stroke-width="0.5" />
<rect x="290"  y="682.843" width="110" height="15" transform="rotate(180 400 400)" fill="green" stroke="black" stroke-width="0.5" />
<rect x="510"  y="682.843" width="110" height="15" transform="rotate(180 400 400)" fill="green" stroke="black" stroke-width="0.5" />
<rect x="180"  y="682.843" width="110" height="15" transform="rotate(180 400 400)" fill="green" stroke="black" stroke-width="0.5" />
<rect x="400"  y="697.843" width="110" height="15" transform="rotate(180 400 400)" fill="green" stroke="black" stroke-width="0.5" />
<rect x="290"  y="697.843" width="110" height="15" transform="rotate(180 400 400)" fill="green" stroke="black" stroke-width="0.5" />
<rect x="510"  y="697.843" width="110" height="15" transform="rotate(180 400 400)" fill="green" stroke="black" stroke-width="0.5" />
<rect x="180"  y="697.843" width="110" height="15" transform="rotate(180 400 400)" fill="green" stroke="black" stroke-width="0.5" />
<rect x="400"  y="712.843" width="110" height="15" transform="rotate(180 400 400)" fill="green" stroke="black" stroke-width="0.5" />
<rect x="290"  y="712.843" width="110" height="15" transform="rotate(180 400 400)" fill="green" stroke="black" stroke-width="0.5" />
<rect x="510"  y="712.843" width="110" height="15" transform="rotate(180 400 400)" fill="green" stroke="black" stroke-width="0.5" />
<rect x="180"  y="712.843" width="110" height="15" transform="rotate(180 400 400)" fill="green" stroke="black" stroke-width="0.5" />
<rect x="400"  y="727.843" width="110" height="15" transform="rotate(180 400 400)" fill="green" stroke="black" stroke-width="0.5" />
<rect x="290"  y="727.843" width="110" height="15" transform="rotate(180 400 400)" fill="green" stroke="black" stroke-width="0.5" />
<rect x="400"  y="742.843" width="110" height="15" transform="rotate(180 400 400)" fill="green" stroke="black" stroke-width="0.5" />
<rect x="290"  y="742.843" width="110" height="15" transform="rotate(180 400 400)" fill="green" stroke="black" stroke-width="0.5" />
<rect x="400"  y="757.843" width="110" height="15" transform="rotate(180 400 400)" fill="green" stroke="black" stroke-width="0.5" />
<rect x="290"  y="757.843" width="110" height="15" transform="rotate(180 400 400)" fill="green" stroke="black" stroke-width="0.5" />
<rect x="400"  y="682.843" width="110" height="15" transform="rotate(270 400 400)" fill="green" stroke="black" stroke-width="0.5" />
<rect x="290"  y="682.843" width="110" height="15" transform="rotate(270 400 400)" fill="green" stroke="black" stroke-width="0.5" />
<rect x="510"  y="682.843" width="110" height="15" transform="rotate(270 400 400)" fill="green" stroke="black" stroke-width="0.5" />
<rect x="180"  y="682.843" width="110" height="15" transform="rotate(270 400 400)" fill="green" stroke="black" stroke-width="0.5" />
<rect x="400"  y="697.843" width="110" height="15" transform="rotate(270 400 400)" fill="green" stroke="black" stroke-width="0.5" />
<rect x="290"  y="697.843" width="110" height="15" transform="rotate(270 400 400)" fill="green" stroke="black" stroke-width="0.5" />
<rect x="510"  y="697.843" width="110" height="15" transform="rotate(270 400 400)" fill="green" stroke="black" stroke-width="0.5" />
<rect x="180"  y="697.843" width="110" height="15" transform="rotate(270 400 400)" fill="green" stroke="black" stroke-width="0.5" />
<rect x="400"  y="712.843" width="110" height="15" transform="rotate(270 400 400)" fill="green" stroke="black" stroke-width="0.5" />
<rect x="290"  y="712.843" width="110" height="15" transform="rotate(270 400 400)" fill="green" stroke="black" stroke-width="0.5" />
<rect x="510"  y="712.843" width="110" height="15" transform="rotate(270 400 400)" fill="green" stroke="black" stroke-width="0.5" />
<rect x="180"  y="712.843" width="110" height="15" transform="rotate(270 400 400)" fill="green" stroke="black" stroke-width="0.5" />
<rect x="400"  y="727.843" width="110" height="15" transform="rotate(270 400 400)" fill="green" stroke="black" stroke-width="0.5" />
<rect x="290"  y="727.843" width="110" height="15" transform="rotate(270 400 400)" fill="green" stroke="black" stroke-width="0.5" />
<rect x="400"  y="742.843" width="110" height="15" transform="rotate(270 400 400)" fill="green" stroke="black" stroke-width="0.5" />
<rect x="290"  y="742.843" width="110" height="15" transform="rotate(270 400 400)" fill="green" stroke="black" stroke-width="0.5" />
<rect x="400"  y="757.843" width="110" height="15" transform="rotate(270 400 400)" fill="green" stroke="black" stroke-width="0.5" />
<rect x="290"  y="757.843" width="110" height="15" transform="rotate(270 400 400)" fill="green" stroke="black" stroke-width="0.5" />
</svg>
