<svg version="1.1" baseProfile="full" xmlns="http://www.w3.org/2000/svg">
<polygon points="250,0 0,433.013 500,433.013" transform="rotate(0 0 0)" fill="pink" stroke="black" stroke-width="0.5" />
<circle cx="250" cy="50" r="25" transform="rotate(0 0 0)" fill="magenta" stroke="black" stroke-width="0.5" />
<circle cx="225" cy="93.3013" r="25" transform="rotate(0 0 0)" fill="magenta" stroke="black" stroke-width="0.5" />
<circle cx="275" cy="93.3013" r="25" transform="rotate(0 0 0)" fill="magenta" stroke="black" stroke-width="0.5" />
<circle cx="250" cy="136.603" r="25" transform="rotate(0 0 0)" fill="magenta" stroke="black" stroke-width="0.5" />
<circle cx="200" cy="136.603" r="25" transform="rotate(0 0 0)" fill="magenta" stroke="black" stroke-width="0.5" />
<circle cx="300" cy="136.603" r="25" transform="rotate(0 0 0)" fill="magenta" stroke="black" stroke-width="0.5" />
<circle cx="225" cy="179.904" r="25" transform="rotate(0 0 0)" fill="magenta" stroke="black" stroke-width="0.5" />
<circle cx="275" cy="179.904" r="25" transform="rotate(0 0 0)" fill="magenta" stroke="black" stroke-width="0.5" />
<circle cx="175" cy="179.904" r="25" transform="rotate(0 0 0)" fill="magenta" stroke="black" stroke-width="0.5" />
<circle cx="325" cy="179.904" r="25" transform="rotate(0 0 0)" fill="magenta" stroke="black" stroke-width="0.5" />
<circle cx="250" cy="223.205" r="25" transform="rotate(0 0 0)" fill="magenta" stroke="black" stroke-width="0.5" />
<circle cx="200" cy="223.205" r="25" transform="rotate(0 0 0)" fill="magenta" stroke="black" stroke-width="0.5" />
<circle cx="150" cy="223.205" r="25" transform="rotate(0 0 0)" fill="magenta" stroke="black" stroke-width="0.5" />
<circle cx="300" cy="223.205" r="25" transform="rotate(0 0 0)" fill="magenta" stroke="black" stroke-width="0.5" />
<circle cx="350" cy="223.205" r="25" transform="rotate(0 0 0)" fill="magenta" stroke="black" stroke-width="0.5" />
<circle cx="225" cy="266.506" r="25" transform="rotate(0 0 0)" fill="magenta" stroke="black" stroke-width="0.5" />
<circle cx="275" cy="266.506" r="25" transform="rotate(0 0 0)" fill="magenta" stroke="black" stroke-width="0.5" />
<circle cx="175" cy="266.506" r="25" transform="rotate(0 0 0)" fill="magenta" stroke="black" stroke-width="0.5" />
<circle cx="325" cy="266.506" r="25" transform="rotate(0 0 0)" fill="magenta" stroke="black" stroke-width="0.5" />
<circle cx="125" cy="266.506" r="25" transform="rotate(0 0 0)" fill="magenta" stroke="black" stroke-width="0.5" />
<circle cx="375" cy="266.506" r="25" transform="rotate(0 0 0)" fill="magenta" stroke="black" stroke-width="0.5" />
<circle cx="250" cy="309.808" r="25" transform="rotate(0 0 0)" fill="magenta" stroke="black" stroke-width="0.5" />
<circle cx="200" cy="309.808" r="25" transform="rotate(0 0 0)" fill="magenta" stroke="black" stroke-width="0.5" />
<circle cx="150" cy="309.808" r="25" transform="rotate(0 0 0)" fill="magenta" stroke="black" stroke-width="0.5" />
<circle cx="100" cy="309.808" r="25" transform="rotate(0 0 0)" fill="magenta" stroke="black" stroke-width="0.5" />
<circle cx="300" cy="309.808" r="25" transform="rotate(0 0 0)" fill="magenta" stroke="black" stroke-width="0.5" />
<circle cx="350" cy="309.808" r="25" transform="rotate(0 0 0)" fill="magenta" stroke="black" stroke-width="0.5" />
<circle cx="400" cy="309.808" r="25" transform="rotate(0 0 0)" fill="magenta" stroke="black" stroke-width="0.5" />
<circle cx="225" cy="353.109" r="25" transform="rotate(0 0 0)" fill="magenta" stroke="black" stroke-width="0.5" />
<circle cx="275" cy="353.109" r="25" transform="rotate(0 0 0)" fill="magenta" stroke="black" stroke-width="0.5" />
<circle cx="175" cy="353.109" r="25" transform="rotate(0 0 0)" fill="magenta" stroke="black" stroke-width="0.5" />
<circle cx="325" cy="353.109" r="25" transform="rotate(0 0 0)" fill="magenta" stroke="black" stroke-width="0.5" />
<circle cx="125" cy="353.109" r="25" transform="rotate(0 0 0)" fill="magenta" stroke="black" stroke-width="0.5" />
<circle cx="375" cy="353.109" r="25" transform="rotate(0 0 0)" fill="magenta" stroke="black" stroke-width="0.5" />
<circle cx="75" cy="353.109" r="25" transform="rotate(0 0 0)" fill="magenta" stroke="black" stroke-width="0.5" />
<circle cx="425" cy="353.109" r="25" transform="rotate(0 0 0)" fill="magenta" stroke="black" stroke-width="0.5" />
<circle cx="250" cy="396.41" r="25" transform="rotate(0 0 0)" fill="magenta" stroke="black" stroke-width="0.5" />
<circle cx="200" cy="396.41" r="25" transform="rotate(0 0 0)" fill="magenta" stroke="black" stroke-width="0.5" />
<circle cx="150" cy="396.41" r="25" transform="rotate(0 0 0)" fill="magenta" stroke="black" stroke-width="0.5" />
<circle cx="100" cy="396.41" r="25" transform="rotate(0 0 0)" fill="magenta" stroke="black" stroke-width="0.5" />
<circle cx="50" cy="396.41" r="25" transform="rotate(0 0 0)" fill="magenta" stroke="black" stroke-width="0.5" />
<circle cx="300" cy="396.41" r="25" transform="rotate(0 0 0)" fill="magenta" stroke="black" stroke-width="0.5" />
<circle cx="350" cy="396.41" r="25" transform="rotate(0 0 0)" fill="magenta" stroke="black" stroke-width="0.5" />
<circle cx="400" cy="396.41" r="25" transform="rotate(0 0 0)" fill="magenta" stroke="black" stroke-width="0.5" />
<circle cx="450" cy="396.41" r="25" transform="rotate(0 0 0)" fill="magenta" stroke="black" stroke-width="0.5" />
</svg>
