<svg version="1.1" baseProfile="full" xmlns="http://www.w3.org/2000/svg">
<polygon points="350,0 0,606.218 700,606.218" transform="rotate(0 0 0)" fill="brown" stroke="black" stroke-width="0.5" />
<circle cx="350" cy="60" r="30" transform="rotate(0 0 0)" fill="cyan" stroke="black" stroke-width="0.5" />
<circle cx="320" cy="111.962" r="30" transform="rotate(0 0 0)" fill="cyan" stroke="black" stroke-width="0.5" />
<circle cx="380" cy="111.962" r="30" transform="rotate(0 0 0)" fill="cyan" stroke="black" stroke-width="0.5" />
<circle cx="350" cy="163.923" r="30" transform="rotate(0 0 0)" fill="cyan" stroke="black" stroke-width="0.5" />
<circle cx="290" cy="163.923" r="30" transform="rotate(0 0 0)" fill="cyan" stroke="black" stroke-width="0.5" />
<circle cx="410" cy="163.923" r="30" transform="rotate(0 0 0)" fill="cyan" stroke="black" stroke-width="0.5" />
<circle cx="320" cy="215.885" r="30" transform="rotate(0 0 0)" fill="cyan" stroke="black" stroke-width="0.5" />
<circle cx="380" cy="215.885" r="30" transform="rotate(0 0 0)" fill="cyan" stroke="black" stroke-width="0.5" />
<circle cx="260" cy="215.885" r="30" transform="rotate(0 0 0)" fill="cyan" stroke="black" stroke-width="0.5" />
<circle cx="440" cy="215.885" r="30" transform="rotate(0 0 0)" fill="cyan" stroke="black" stroke-width="0.5" />
<circle cx="350" cy="267.846" r="30" transform="rotate(0 0 0)" fill="cyan" stroke="black" stroke-width="0.5" />
<circle cx="290" cy="267.846" r="30" transform="rotate(0 0 0)" fill="cyan" stroke="black" stroke-width="0.5" />
<circle cx="230" cy="267.846" r="30" transform="rotate(0 0 0)" fill="cyan" stroke="black" stroke-width="0.5" />
<circle cx="410" cy="267.846" r="30" transform="rotate(0 0 0)" fill="cyan" stroke="black" stroke-width="0.5" />
<circle cx="470" cy="267.846" r="30" transform="rotate(0 0 0)" fill="cyan" stroke="black" stroke-width="0.5" />
<circle cx="320" cy="319.808" r="30" transform="rotate(0 0 0)" fill="cyan" stroke="black" stroke-width="0.5" />
<circle cx="380" cy="319.808" r="30" transform="rotate(0 0 0)" fill="cyan" stroke="black" stroke-width="0.5" />
<circle cx="260" cy="319.808" r="30" transform="rotate(0 0 0)" fill="cyan" stroke="black" stroke-width="0.5" />
<circle cx="440" cy="319.808" r="30" transform="rotate(0 0 0)" fill="cyan" stroke="black" stroke-width="0.5" />
<circle cx="200" cy="319.808" r="30" transform="rotate(0 0 0)" fill="cyan" stroke="black" stroke-width="0.5" />
<circle cx="500" cy="319.808" r="30" transform="rotate(0 0 0)" fill="cyan" stroke="black" stroke-width="0.5" />
<circle cx="350" cy="371.769" r="30" transform="rotate(0 0 0)" fill="cyan" stroke="black" stroke-width="0.5" />
<circle cx="290" cy="371.769" r="30" transform="rotate(0 0 0)" fill="cyan" stroke="black" stroke-width="0.5" />
<circle cx="230" cy="371.769" r="30" transform="rotate(0 0 0)" fill="cyan" stroke="black" stroke-width="0.5" />
<circle cx="170" cy="371.769" r="30" transform="rotate(0 0 0)" fill="cyan" stroke="black" stroke-width="0.5" />
<circle cx="410" cy="371.769" r="30" transform="rotate(0 0 0)" fill="cyan" stroke="black" stroke-width="0.5" />
<circle cx="470" cy="371.769" r="30" transform="rotate(0 0 0)" fill="cyan" stroke="black" stroke-width="0.5" />
<circle cx="530" cy="371.769" r="30" transform="rotate(0 0 0)" fill="cyan" stroke="black" stroke-width="0.5" />
<circle cx="320" cy="423.731" r="30" transform="rotate(0 0 0)" fill="cyan" stroke="black" stroke-width="0.5" />
<circle cx="380" cy="423.731" r="30" transform="rotate(0 0 0)" fill="cyan" stroke="black" stroke-width="0.5" />
<circle cx="260" cy="423.731" r="30" transform="rotate(0 0 0)" fill="cyan" stroke="black" stroke-width="0.5" />
<circle cx="440" cy="423.731" r="30" transform="rotate(0 0 0)" fill="cyan" stroke="black" stroke-width="0.5" />
<circle cx="200" cy="423.731" r="30" transform="rotate(0 0 0)" fill="cyan" stroke="black" stroke-width="0.5" />
<circle cx="500" cy="423.731" r="30" transform="rotate(0 0 0)" fill="cyan" stroke="black" stroke-width="0.5" />
<circle cx="140" cy="423.731" r="30" transform="rotate(0 0 0)" fill="cyan" stroke="black" stroke-width="0.5" />
<circle cx="560" cy="423.731" r="30" transform="rotate(0 0 0)" fill="cyan" stroke="black" stroke-width="0.5" />
<circle cx="350" cy="475.692" r="30" transform="rotate(0 0 0)" fill="cyan" stroke="black" stroke-width="0.5" />
<circle cx="290" cy="475.692" r="30" transform="rotate(0 0 0)" fill="cyan" stroke="black" stroke-width="0.5" />
<circle cx="230" cy="475.692" r="30" transform="rotate(0 0 0)" fill="cyan" stroke="black" stroke-width="0.5" />
<circle cx="170" cy="475.692" r="30" transform="rotate(0 0 0)" fill="cyan" stroke="black" stroke-width="0.5" />
<circle cx="110" cy="475.692" r="30" transform="rotate(0 0 0)" fill="cyan" stroke="black" stroke-width="0.5" />
<circle cx="410" cy="475.692" r="30" transform="rotate(0 0 0)" fill="cyan" stroke="black" stroke-width="0.5" />
<circle cx="470" cy="475.692" r="30" transform="rotate(0 0 0)" fill="cyan" stroke="black" stroke-width="0.5" />
<circle cx="530" cy="475.692" r="30" transform="rotate(0 0 0)" fill="cyan" stroke="black" stroke-width="0.5" />
<circle cx="590" cy="475.692" r="30" transform="rotate(0 0 0)" fill="cyan" stroke="black" stroke-width="0.5" />
<circle cx="320" cy="527.654" r="30" transform="rotate(0 0 0)" fill="cyan" stroke="black" stroke-width="0.5" />
<circle cx="380" cy="527.654" r="30" transform="rotate(0 0 0)" fill="cyan" stroke="black" stroke-width="0.5" />
<circle cx="260" cy="527.654" r="30" transform="rotate(0 0 0)" fill="cyan" stroke="black" stroke-width="0.5" />
<circle cx="440" cy="527.654" r="30" transform="rotate(0 0 0)" fill="cyan" stroke="black" stroke-width="0.5" />
<circle cx="200" cy="527.654" r="30" transform="rotate(0 0 0)" fill="cyan" stroke="black" stroke-width="0.5" />
<circle cx="500" cy="527.654" r="30" transform="rotate(0 0 0)" fill="cyan" stroke="black" stroke-width="0.5" />
<circle cx="140" cy="527.654" r="30" transform="rotate(0 0 0)" fill="cyan" stroke="black" stroke-width="0.5" />
<circle cx="560" cy="527.654" r="30" transform="rotate(0 0 0)" fill="cyan" stroke="black" stroke-width="0.5" />
<circle cx="80" cy="527.654" r="30" transform="rotate(0 0 0)" fill="cyan" stroke="black" stroke-width="0.5" />
<circle cx="620" cy="527.654" r="30" transform="rotate(0 0 0)" fill="cyan" stroke="black" stroke-width="0.5" />
</svg>
