<svg version="1.1" baseProfile="full" xmlns="http://www.w3.org/2000/svg">
<polygon points="300,0 0,519.615 600,519.615" transform="rotate(0 0 0)" fill="blue" stroke="black" stroke-width="0.5" />
<circle cx="300" cy="100" r="50" transform="rotate(0 0 0)" fill="green" stroke="black" stroke-width="0.5" />
<circle cx="250" cy="186.603" r="50" transform="rotate(0 0 0)" fill="green" stroke="black" stroke-width="0.5" />
<circle cx="350" cy="186.603" r="50" transform="rotate(0 0 0)" fill="green" stroke="black" stroke-width="0.5" />
<circle cx="300" cy="273.205" r="50" transform="rotate(0 0 0)" fill="green" stroke="black" stroke-width="0.5" />
<circle cx="200" cy="273.205" r="50" transform="rotate(0 0 0)" fill="green" stroke="black" stroke-width="0.5" />
<circle cx="400" cy="273.205" r="50" transform="rotate(0 0 0)" fill="green" stroke="black" stroke-width="0.5" />
<circle cx="250" cy="359.808" r="50" transform="rotate(0 0 0)" fill="green" stroke="black" stroke-width="0.5" />
<circle cx="350" cy="359.808" r="50" transform="rotate(0 0 0)" fill="green" stroke="black" stroke-width="0.5" />
<circle cx="150" cy="359.808" r="50" transform="rotate(0 0 0)" fill="green" stroke="black" stroke-width="0.5" />
<circle cx="450" cy="359.808" r="50" transform="rotate(0 0 0)" fill="green" stroke="black" stroke-width="0.5" />
<circle cx="300" cy="446.41" r="50" transform="rotate(0 0 0)" fill="green" stroke="black" stroke-width="0.5" />
<circle cx="200" cy="446.41" r="50" transform="rotate(0 0 0)" fill="green" stroke="black" stroke-width="0.5" />
<circle cx="100" cy="446.41" r="50" transform="rotate(0 0 0)" fill="green" stroke="black" stroke-width="0.5" />
<circle cx="400" cy="446.41" r="50" transform="rotate(0 0 0)" fill="green" stroke="black" stroke-width="0.5" />
<circle cx="500" cy="446.41" r="50" transform="rotate(0 0 0)" fill="green" stroke="black" stroke-width="0.5" />
</svg>
