<svg version="1.1" baseProfile="full" xmlns="http://www.w3.org/2000/svg">
<circle cx="300" cy="300" r="300" transform="rotate(0 0 0)" fill="brown" stroke="black" stroke-width="0.5" />
<rect x="87.868"  y="87.868" width="15" height="110" transform="rotate(0 87.868 87.868)" fill="green" stroke="black" stroke-width="0.5" />
<rect x="102.868"  y="87.868" width="15" height="110" transform="rotate(0 87.868 87.868)" fill="green" stroke="black" stroke-width="0.5" />
<rect x="117.868"  y="87.868" width="15" height="110" transform="rotate(0 87.868 87.868)" fill="green" stroke="black" stroke-width="0.5" />
<rect x="132.868"  y="87.868" width="15" height="110" transform="rotate(0 87.868 87.868)" fill="green" stroke="black" stroke-width="0.5" />
<rect x="147.868"  y="87.868" width="15" height="110" transform="rotate(0 87.868 87.868)" fill="green" stroke="black" stroke-width="0.5" />
<rect x="162.868"  y="87.868" width="15" height="110" transform="rotate(0 87.868 87.868)" fill="green" stroke="black" stroke-width="0.5" />
<rect x="177.868"  y="87.868" width="15" height="110" transform="rotate(0 87.868 87.868)" fill="green" stroke="black" stroke-width="0.5" />
<rect x="192.868"  y="87.868" width="15" height="110" transform="rotate(0 87.868 87.868)" fill="green" stroke="black" stroke-width="0.5" />
<rect x="207.868"  y="87.868" width="15" height="110" transform="rotate(0 87.868 87.868)" fill="green" stroke="black" stroke-width="0.5" />
<rect x="222.868"  y="87.868" width="15" height="110" transform="rotate(0 87.868 87.868)" fill="green" stroke="black" stroke-width="0.5" />
<rect x="237.868"  y="87.868" width="15" height="110" transform="rotate(0 87.868 87.868)" fill="green" stroke="black" stroke-width="0.5" />
<rect x="252.868"  y="87.868" width="15" height="110" transform="rotate(0 87.868 87.868)" fill="green" stroke="black" stroke-width="0.5" />
<rect x="267.868"  y="87.868" width="15" height="110" transform="rotate(0 87.868 87.868)" fill="green" stroke="black" stroke-width="0.5" />
<rect x="282.868"  y="87.868" width="15" height="110" transform="rotate(0 87.868 87.868)" fill="green" stroke="black" stroke-width="0.5" />
<rect x="297.868"  y="87.868" width="15" height="110" transform="rotate(0 87.868 87.868)" fill="green" stroke="black" stroke-width="0.5" />
<rect x="312.868"  y="87.868" width="15" height="110" transform="rotate(0 87.868 87.868)" fill="green" stroke="black" stroke-width="0.5" />
<rect x="327.868"  y="87.868" width="15" height="110" transform="rotate(0 87.868 87.868)" fill="green" stroke="black" stroke-width="0.5" />
<rect x="342.868"  y="87.868" width="15" height="110" transform="rotate(0 87.868 87.868)" fill="green" stroke="black" stroke-width="0.5" />
<rect x="357.868"  y="87.868" width="15" height="110" transform="rotate(0 87.868 87.868)" fill="green" stroke="black" stroke-width="0.5" />
<rect x="372.868"  y="87.868" width="15" height="110" transform="rotate(0 87.868 87.868)" fill="green" stroke="black" stroke-width="0.5" />
<rect x="387.868"  y="87.868" width="15" height="110" transform="rotate(0 87.868 87.868)" fill="green" stroke="black" stroke-width="0.5" />
<rect x="402.868"  y="87.868" width="15" height="110" transform="rotate(0 87.868 87.868)" fill="green" stroke="black" stroke-width="0.5" />
<rect x="417.868"  y="87.868" width="15" height="110" transform="rotate(0 87.868 87.868)" fill="green" stroke="black" stroke-width="0.5" />
<rect x="432.868"  y="87.868" width="15" height="110" transform="rotate(0 87.868 87.868)" fill="green" stroke="black" stroke-width="0.5" />
<rect x="447.868"  y="87.868" width="15" height="110" transform="rotate(0 87.868 87.868)" fill="green" stroke="black" stroke-width="0.5" />
<rect x="462.868"  y="87.868" width="15" height="110" transform="rotate(0 87.868 87.868)" fill="green" stroke="black" stroke-width="0.5" />
<rect x="477.868"  y="87.868" width="15" height="110" transform="rotate(0 87.868 87.868)" fill="green" stroke="black" stroke-width="0.5" />
<rect x="492.868"  y="87.868" width="15" height="110" transform="rotate(0 87.868 87.868)" fill="green" stroke="black" stroke-width="0.5" />
<rect x="87.868"  y="197.868" width="15" height="110" transform="rotate(0 87.868 87.868)" fill="green" stroke="black" stroke-width="0.5" />
<rect x="102.868"  y="197.868" width="15" height="110" transform="rotate(0 87.868 87.868)" fill="green" stroke="black" stroke-width="0.5" />
<rect x="117.868"  y="197.868" width="15" height="110" transform="rotate(0 87.868 87.868)" fill="green" stroke="black" stroke-width="0.5" />
<rect x="132.868"  y="197.868" width="15" height="110" transform="rotate(0 87.868 87.868)" fill="green" stroke="black" stroke-width="0.5" />
<rect x="147.868"  y="197.868" width="15" height="110" transform="rotate(0 87.868 87.868)" fill="green" stroke="black" stroke-width="0.5" />
<rect x="162.868"  y="197.868" width="15" height="110" transform="rotate(0 87.868 87.868)" fill="green" stroke="black" stroke-width="0.5" />
<rect x="177.868"  y="197.868" width="15" height="110" transform="rotate(0 87.868 87.868)" fill="green" stroke="black" stroke-width="0.5" />
<rect x="192.868"  y="197.868" width="15" height="110" transform="rotate(0 87.868 87.868)" fill="green" stroke="black" stroke-width="0.5" />
<rect x="207.868"  y="197.868" width="15" height="110" transform="rotate(0 87.868 87.868)" fill="green" stroke="black" stroke-width="0.5" />
<rect x="222.868"  y="197.868" width="15" height="110" transform="rotate(0 87.868 87.868)" fill="green" stroke="black" stroke-width="0.5" />
<rect x="237.868"  y="197.868" width="15" height="110" transform="rotate(0 87.868 87.868)" fill="green" stroke="black" stroke-width="0.5" />
<rect x="252.868"  y="197.868" width="15" height="110" transform="rotate(0 87.868 87.868)" fill="green" stroke="black" stroke-width="0.5" />
<rect x="267.868"  y="197.868" width="15" height="110" transform="rotate(0 87.868 87.868)" fill="green" stroke="black" stroke-width="0.5" />
<rect x="282.868"  y="197.868" width="15" height="110" transform="rotate(0 87.868 87.868)" fill="green" stroke="black" stroke-width="0.5" />
<rect x="297.868"  y="197.868" width="15" height="110" transform="rotate(0 87.868 87.868)" fill="green" stroke="black" stroke-width="0.5" />
<rect x="312.868"  y="197.868" width="15" height="110" transform="rotate(0 87.868 87.868)" fill="green" stroke="black" stroke-width="0.5" />
<rect x="327.868"  y="197.868" width="15" height="110" transform="rotate(0 87.868 87.868)" fill="green" stroke="black" stroke-width="0.5" />
<rect x="342.868"  y="197.868" width="15" height="110" transform="rotate(0 87.868 87.868)" fill="green" stroke="black" stroke-width="0.5" />
<rect x="357.868"  y="197.868" width="15" height="110" transform="rotate(0 87.868 87.868)" fill="green" stroke="black" stroke-width="0.5" />
<rect x="372.868"  y="197.868" width="15" height="110" transform="rotate(0 87.868 87.868)" fill="green" stroke="black" stroke-width="0.5" />
<rect x="387.868"  y="197.868" width="15" height="110" transform="rotate(0 87.868 87.868)" fill="green" stroke="black" stroke-width="0.5" />
<rect x="402.868"  y="197.868" width="15" height="110" transform="rotate(0 87.868 87.868)" fill="green" stroke="black" stroke-width="0.5" />
<rect x="417.868"  y="197.868" width="15" height="110" transform="rotate(0 87.868 87.868)" fill="green" stroke="black" stroke-width="0.5" />
<rect x="432.868"  y="197.868" width="15" height="110" transform="rotate(0 87.868 87.868)" fill="green" stroke="black" stroke-width="0.5" />
<rect x="447.868"  y="197.868" width="15" height="110" transform="rotate(0 87.868 87.868)" fill="green" stroke="black" stroke-width="0.5" />
<rect x="462.868"  y="197.868" width="15" height="110" transform="rotate(0 87.868 87.868)" fill="green" stroke="black" stroke-width="0.5" />
<rect x="477.868"  y="197.868" width="15" height="110" transform="rotate(0 87.868 87.868)" fill="green" stroke="black" stroke-width="0.5" />
<rect x="492.868"  y="197.868" width="15" height="110" transform="rotate(0 87.868 87.868)" fill="green" stroke="black" stroke-width="0.5" />
<rect x="87.868"  y="307.868" width="15" height="110" transform="rotate(0 87.868 87.868)" fill="green" stroke="black" stroke-width="0.5" />
<rect x="102.868"  y="307.868" width="15" height="110" transform="rotate(0 87.868 87.868)" fill="green" stroke="black" stroke-width="0.5" />
<rect x="117.868"  y="307.868" width="15" height="110" transform="rotate(0 87.868 87.868)" fill="green" stroke="black" stroke-width="0.5" />
<rect x="132.868"  y="307.868" width="15" height="110" transform="rotate(0 87.868 87.868)" fill="green" stroke="black" stroke-width="0.5" />
<rect x="147.868"  y="307.868" width="15" height="110" transform="rotate(0 87.868 87.868)" fill="green" stroke="black" stroke-width="0.5" />
<rect x="162.868"  y="307.868" width="15" height="110" transform="rotate(0 87.868 87.868)" fill="green" stroke="black" stroke-width="0.5" />
<rect x="177.868"  y="307.868" width="15" height="110" transform="rotate(0 87.868 87.868)" fill="green" stroke="black" stroke-width="0.5" />
<rect x="192.868"  y="307.868" width="15" height="110" transform="rotate(0 87.868 87.868)" fill="green" stroke="black" stroke-width="0.5" />
<rect x="207.868"  y="307.868" width="15" height="110" transform="rotate(0 87.868 87.868)" fill="green" stroke="black" stroke-width="0.5" />
<rect x="222.868"  y="307.868" width="15" height="110" transform="rotate(0 87.868 87.868)" fill="green" stroke="black" stroke-width="0.5" />
<rect x="237.868"  y="307.868" width="15" height="110" transform="rotate(0 87.868 87.868)" fill="green" stroke="black" stroke-width="0.5" />
<rect x="252.868"  y="307.868" width="15" height="110" transform="rotate(0 87.868 87.868)" fill="green" stroke="black" stroke-width="0.5" />
<rect x="267.868"  y="307.868" width="15" height="110" transform="rotate(0 87.868 87.868)" fill="green" stroke="black" stroke-width="0.5" />
<rect x="282.868"  y="307.868" width="15" height="110" transform="rotate(0 87.868 87.868)" fill="green" stroke="black" stroke-width="0.5" />
<rect x="297.868"  y="307.868" width="15" height="110" transform="rotate(0 87.868 87.868)" fill="green" stroke="black" stroke-width="0.5" />
<rect x="312.868"  y="307.868" width="15" height="110" transform="rotate(0 87.868 87.868)" fill="green" stroke="black" stroke-width="0.5" />
<rect x="327.868"  y="307.868" width="15" height="110" transform="rotate(0 87.868 87.868)" fill="green" stroke="black" stroke-width="0.5" />
<rect x="342.868"  y="307.868" width="15" height="110" transform="rotate(0 87.868 87.868)" fill="green" stroke="black" stroke-width="0.5" />
<rect x="357.868"  y="307.868" width="15" height="110" transform="rotate(0 87.868 87.868)" fill="green" stroke="black" stroke-width="0.5" />
<rect x="372.868"  y="307.868" width="15" height="110" transform="rotate(0 87.868 87.868)" fill="green" stroke="black" stroke-width="0.5" />
<rect x="387.868"  y="307.868" width="15" height="110" transform="rotate(0 87.868 87.868)" fill="green" stroke="black" stroke-width="0.5" />
<rect x="402.868"  y="307.868" width="15" height="110" transform="rotate(0 87.868 87.868)" fill="green" stroke="black" stroke-width="0.5" />
<rect x="417.868"  y="307.868" width="15" height="110" transform="rotate(0 87.868 87.868)" fill="green" stroke="black" stroke-width="0.5" />
<rect x="432.868"  y="307.868" width="15" height="110" transform="rotate(0 87.868 87.868)" fill="green" stroke="black" stroke-width="0.5" />
<rect x="447.868"  y="307.868" width="15" height="110" transform="rotate(0 87.868 87.868)" fill="green" stroke="black" stroke-width="0.5" />
<rect x="462.868"  y="307.868" width="15" height="110" transform="rotate(0 87.868 87.868)" fill="green" stroke="black" stroke-width="0.5" />
<rect x="477.868"  y="307.868" width="15" height="110" transform="rotate(0 87.868 87.868)" fill="green" stroke="black" stroke-width="0.5" />
<rect x="492.868"  y="307.868" width="15" height="110" transform="rotate(0 87.868 87.868)" fill="green" stroke="black" stroke-width="0.5" />
<rect x="87.868"  y="417.868" width="110" height="15" transform="rotate(0 87.868 87.868)" fill="green" stroke="black" stroke-width="0.5" />
<rect x="197.868"  y="417.868" width="110" height="15" transform="rotate(0 87.868 87.868)" fill="green" stroke="black" stroke-width="0.5" />
<rect x="307.868"  y="417.868" width="110" height="15" transform="rotate(0 87.868 87.868)" fill="green" stroke="black" stroke-width="0.5" />
<rect x="87.868"  y="432.868" width="110" height="15" transform="rotate(0 87.868 87.868)" fill="green" stroke="black" stroke-width="0.5" />
<rect x="197.868"  y="432.868" width="110" height="15" transform="rotate(0 87.868 87.868)" fill="green" stroke="black" stroke-width="0.5" />
<rect x="307.868"  y="432.868" width="110" height="15" transform="rotate(0 87.868 87.868)" fill="green" stroke="black" stroke-width="0.5" />
<rect x="87.868"  y="447.868" width="110" height="15" transform="rotate(0 87.868 87.868)" fill="green" stroke="black" stroke-width="0.5" />
<rect x="197.868"  y="447.868" width="110" height="15" transform="rotate(0 87.868 87.868)" fill="green" stroke="black" stroke-width="0.5" />
<rect x="307.868"  y="447.868" width="110" height="15" transform="rotate(0 87.868 87.868)" fill="green" stroke="black" stroke-width="0.5" />
<rect x="87.868"  y="462.868" width="110" height="15" transform="rotate(0 87.868 87.868)" fill="green" stroke="black" stroke-width="0.5" />
<rect x="197.868"  y="462.868" width="110" height="15" transform="rotate(0 87.868 87.868)" fill="green" stroke="black" stroke-width="0.5" />
<rect x="307.868"  y="462.868" width="110" height="15" transform="rotate(0 87.868 87.868)" fill="green" stroke="black" stroke-width="0.5" />
<rect x="87.868"  y="477.868" width="110" height="15" transform="rotate(0 87.868 87.868)" fill="green" stroke="black" stroke-width="0.5" />
<rect x="197.868"  y="477.868" width="110" height="15" transform="rotate(0 87.868 87.868)" fill="green" stroke="black" stroke-width="0.5" />
<rect x="307.868"  y="477.868" width="110" height="15" transform="rotate(0 87.868 87.868)" fill="green" stroke="black" stroke-width="0.5" />
<rect x="87.868"  y="492.868" width="110" height="15" transform="rotate(0 87.868 87.868)" fill="green" stroke="black" stroke-width="0.5" />
<rect x="197.868"  y="492.868" width="110" height="15" transform="rotate(0 87.868 87.868)" fill="green" stroke="black" stroke-width="0.5" />
<rect x="307.868"  y="492.868" width="110" height="15" transform="rotate(0 87.868 87.868)" fill="green" stroke="black" stroke-width="0.5" />
<rect x="300"  y="512.132" width="110" height="15" transform="rotate(0 300 300)" fill="green" stroke="black" stroke-width="0.5" />
<rect x="190"  y="512.132" width="110" height="15" transform="rotate(0 300 300)" fill="green" stroke="black" stroke-width="0.5" />
<rect x="300"  y="527.132" width="110" height="15" transform="rotate(0 300 300)" fill="green" stroke="black" stroke-width="0.5" />
<rect x="190"  y="527.132" width="110" height="15" transform="rotate(0 300 300)" fill="green" stroke="black" stroke-width="0.5" />
<rect x="300"  y="542.132" width="110" height="15" transform="rotate(0 300 300)" fill="green" stroke="black" stroke-width="0.5" />
<rect x="190"  y="542.132" width="110" height="15" transform="rotate(0 300 300)" fill="green" stroke="black" stroke-width="0.5" />
<rect x="300"  y="557.132" width="110" height="15" transform="rotate(0 300 300)" fill="green" stroke="black" stroke-width="0.5" />
<rect x="190"  y="557.132" width="110" height="15" transform="rotate(0 300 300)" fill="green" stroke="black" stroke-width="0.5" />
<rect x="300"  y="512.132" width="110" height="15" transform="rotate(90 300 300)" fill="green" stroke="black" stroke-width="0.5" />
<rect x="190"  y="512.132" width="110" height="15" transform="rotate(90 300 300)" fill="green" stroke="black" stroke-width="0.5" />
<rect x="300"  y="527.132" width="110" height="15" transform="rotate(90 300 300)" fill="green" stroke="black" stroke-width="0.5" />
<rect x="190"  y="527.132" width="110" height="15" transform="rotate(90 300 300)" fill="green" stroke="black" stroke-width="0.5" />
<rect x="300"  y="542.132" width="110" height="15" transform="rotate(90 300 300)" fill="green" stroke="black" stroke-width="0.5" />
<rect x="190"  y="542.132" width="110" height="15" transform="rotate(90 300 300)" fill="green" stroke="black" stroke-width="0.5" />
<rect x="300"  y="557.132" width="110" height="15" transform="rotate(90 300 300)" fill="green" stroke="black" stroke-width="0.5" />
<rect x="190"  y="557.132" width="110" height="15" transform="rotate(90 300 300)" fill="green" stroke="black" stroke-width="0.5" />
<rect x="300"  y="512.132" width="110" height="15" transform="rotate(180 300 300)" fill="green" stroke="black" stroke-width="0.5" />
<rect x="190"  y="512.132" width="110" height="15" transform="rotate(180 300 300)" fill="green" stroke="black" stroke-width="0.5" />
<rect x="300"  y="527.132" width="110" height="15" transform="rotate(180 300 300)" fill="green" stroke="black" stroke-width="0.5" />
<rect x="190"  y="527.132" width="110" height="15" transform="rotate(180 300 300)" fill="green" stroke="black" stroke-width="0.5" />
<rect x="300"  y="542.132" width="110" height="15" transform="rotate(180 300 300)" fill="green" stroke="black" stroke-width="0.5" />
<rect x="190"  y="542.132" width="110" height="15" transform="rotate(180 300 300)" fill="green" stroke="black" stroke-width="0.5" />
<rect x="300"  y="557.132" width="110" height="15" transform="rotate(180 300 300)" fill="green" stroke="black" stroke-width="0.5" />
<rect x="190"  y="557.132" width="110" height="15" transform="rotate(180 300 300)" fill="green" stroke="black" stroke-width="0.5" />
<rect x="300"  y="512.132" width="110" height="15" transform="rotate(270 300 300)" fill="green" stroke="black" stroke-width="0.5" />
<rect x="190"  y="512.132" width="110" height="15" transform="rotate(270 300 300)" fill="green" stroke="black" stroke-width="0.5" />
<rect x="300"  y="527.132" width="110" height="15" transform="rotate(270 300 300)" fill="green" stroke="black" stroke-width="0.5" />
<rect x="190"  y="527.132" width="110" height="15" transform="rotate(270 300 300)" fill="green" stroke="black" stroke-width="0.5" />
<rect x="300"  y="542.132" width="110" height="15" transform="rotate(270 300 300)" fill="green" stroke="black" stroke-width="0.5" />
<rect x="190"  y="542.132" width="110" height="15" transform="rotate(270 300 300)" fill="green" stroke="black" stroke-width="0.5" />
<rect x="300"  y="557.132" width="110" height="15" transform="rotate(270 300 300)" fill="green" stroke="black" stroke-width="0.5" />
<rect x="190"  y="557.132" width="110" height="15" transform="rotate(270 300 300)" fill="green" stroke="black" stroke-width="0.5" />
</svg>
