<svg version="1.1" baseProfile="full" xmlns="http://www.w3.org/2000/svg">
<rect x="0"  y="0" width="800" height="350" transform="rotate(0 0 0)" fill="blue" stroke="black" stroke-width="0.5" />
<rect x="0"  y="0" width="60" height="20" transform="rotate(0 0 0)" fill="yellow" stroke="black" stroke-width="0.5" />
<rect x="60"  y="0" width="60" height="20" transform="rotate(0 0 0)" fill="yellow" stroke="black" stroke-width="0.5" />
<rect x="120"  y="0" width="60" height="20" transform="rotate(0 0 0)" fill="yellow" stroke="black" stroke-width="0.5" />
<rect x="180"  y="0" width="60" height="20" transform="rotate(0 0 0)" fill="yellow" stroke="black" stroke-width="0.5" />
<rect x="240"  y="0" width="60" height="20" transform="rotate(0 0 0)" fill="yellow" stroke="black" stroke-width="0.5" />
<rect x="300"  y="0" width="60" height="20" transform="rotate(0 0 0)" fill="yellow" stroke="black" stroke-width="0.5" />
<rect x="360"  y="0" width="60" height="20" transform="rotate(0 0 0)" fill="yellow" stroke="black" stroke-width="0.5" />
<rect x="420"  y="0" width="60" height="20" transform="rotate(0 0 0)" fill="yellow" stroke="black" stroke-width="0.5" />
<rect x="480"  y="0" width="60" height="20" transform="rotate(0 0 0)" fill="yellow" stroke="black" stroke-width="0.5" />
<rect x="540"  y="0" width="60" height="20" transform="rotate(0 0 0)" fill="yellow" stroke="black" stroke-width="0.5" />
<rect x="600"  y="0" width="60" height="20" transform="rotate(0 0 0)" fill="yellow" stroke="black" stroke-width="0.5" />
<rect x="660"  y="0" width="60" height="20" transform="rotate(0 0 0)" fill="yellow" stroke="black" stroke-width="0.5" />
<rect x="720"  y="0" width="60" height="20" transform="rotate(0 0 0)" fill="yellow" stroke="black" stroke-width="0.5" />
<rect x="0"  y="20" width="60" height="20" transform="rotate(0 0 0)" fill="yellow" stroke="black" stroke-width="0.5" />
<rect x="60"  y="20" width="60" height="20" transform="rotate(0 0 0)" fill="yellow" stroke="black" stroke-width="0.5" />
<rect x="120"  y="20" width="60" height="20" transform="rotate(0 0 0)" fill="yellow" stroke="black" stroke-width="0.5" />
<rect x="180"  y="20" width="60" height="20" transform="rotate(0 0 0)" fill="yellow" stroke="black" stroke-width="0.5" />
<rect x="240"  y="20" width="60" height="20" transform="rotate(0 0 0)" fill="yellow" stroke="black" stroke-width="0.5" />
<rect x="300"  y="20" width="60" height="20" transform="rotate(0 0 0)" fill="yellow" stroke="black" stroke-width="0.5" />
<rect x="360"  y="20" width="60" height="20" transform="rotate(0 0 0)" fill="yellow" stroke="black" stroke-width="0.5" />
<rect x="420"  y="20" width="60" height="20" transform="rotate(0 0 0)" fill="yellow" stroke="black" stroke-width="0.5" />
<rect x="480"  y="20" width="60" height="20" transform="rotate(0 0 0)" fill="yellow" stroke="black" stroke-width="0.5" />
<rect x="540"  y="20" width="60" height="20" transform="rotate(0 0 0)" fill="yellow" stroke="black" stroke-width="0.5" />
<rect x="600"  y="20" width="60" height="20" transform="rotate(0 0 0)" fill="yellow" stroke="black" stroke-width="0.5" />
<rect x="660"  y="20" width="60" height="20" transform="rotate(0 0 0)" fill="yellow" stroke="black" stroke-width="0.5" />
<rect x="720"  y="20" width="60" height="20" transform="rotate(0 0 0)" fill="yellow" stroke="black" stroke-width="0.5" />
<rect x="0"  y="40" width="60" height="20" transform="rotate(0 0 0)" fill="yellow" stroke="black" stroke-width="0.5" />
<rect x="60"  y="40" width="60" height="20" transform="rotate(0 0 0)" fill="yellow" stroke="black" stroke-width="0.5" />
<rect x="120"  y="40" width="60" height="20" transform="rotate(0 0 0)" fill="yellow" stroke="black" stroke-width="0.5" />
<rect x="180"  y="40" width="60" height="20" transform="rotate(0 0 0)" fill="yellow" stroke="black" stroke-width="0.5" />
<rect x="240"  y="40" width="60" height="20" transform="rotate(0 0 0)" fill="yellow" stroke="black" stroke-width="0.5" />
<rect x="300"  y="40" width="60" height="20" transform="rotate(0 0 0)" fill="yellow" stroke="black" stroke-width="0.5" />
<rect x="360"  y="40" width="60" height="20" transform="rotate(0 0 0)" fill="yellow" stroke="black" stroke-width="0.5" />
<rect x="420"  y="40" width="60" height="20" transform="rotate(0 0 0)" fill="yellow" stroke="black" stroke-width="0.5" />
<rect x="480"  y="40" width="60" height="20" transform="rotate(0 0 0)" fill="yellow" stroke="black" stroke-width="0.5" />
<rect x="540"  y="40" width="60" height="20" transform="rotate(0 0 0)" fill="yellow" stroke="black" stroke-width="0.5" />
<rect x="600"  y="40" width="60" height="20" transform="rotate(0 0 0)" fill="yellow" stroke="black" stroke-width="0.5" />
<rect x="660"  y="40" width="60" height="20" transform="rotate(0 0 0)" fill="yellow" stroke="black" stroke-width="0.5" />
<rect x="720"  y="40" width="60" height="20" transform="rotate(0 0 0)" fill="yellow" stroke="black" stroke-width="0.5" />
<rect x="0"  y="60" width="60" height="20" transform="rotate(0 0 0)" fill="yellow" stroke="black" stroke-width="0.5" />
<rect x="60"  y="60" width="60" height="20" transform="rotate(0 0 0)" fill="yellow" stroke="black" stroke-width="0.5" />
<rect x="120"  y="60" width="60" height="20" transform="rotate(0 0 0)" fill="yellow" stroke="black" stroke-width="0.5" />
<rect x="180"  y="60" width="60" height="20" transform="rotate(0 0 0)" fill="yellow" stroke="black" stroke-width="0.5" />
<rect x="240"  y="60" width="60" height="20" transform="rotate(0 0 0)" fill="yellow" stroke="black" stroke-width="0.5" />
<rect x="300"  y="60" width="60" height="20" transform="rotate(0 0 0)" fill="yellow" stroke="black" stroke-width="0.5" />
<rect x="360"  y="60" width="60" height="20" transform="rotate(0 0 0)" fill="yellow" stroke="black" stroke-width="0.5" />
<rect x="420"  y="60" width="60" height="20" transform="rotate(0 0 0)" fill="yellow" stroke="black" stroke-width="0.5" />
<rect x="480"  y="60" width="60" height="20" transform="rotate(0 0 0)" fill="yellow" stroke="black" stroke-width="0.5" />
<rect x="540"  y="60" width="60" height="20" transform="rotate(0 0 0)" fill="yellow" stroke="black" stroke-width="0.5" />
<rect x="600"  y="60" width="60" height="20" transform="rotate(0 0 0)" fill="yellow" stroke="black" stroke-width="0.5" />
<rect x="660"  y="60" width="60" height="20" transform="rotate(0 0 0)" fill="yellow" stroke="black" stroke-width="0.5" />
<rect x="720"  y="60" width="60" height="20" transform="rotate(0 0 0)" fill="yellow" stroke="black" stroke-width="0.5" />
<rect x="0"  y="80" width="60" height="20" transform="rotate(0 0 0)" fill="yellow" stroke="black" stroke-width="0.5" />
<rect x="60"  y="80" width="60" height="20" transform="rotate(0 0 0)" fill="yellow" stroke="black" stroke-width="0.5" />
<rect x="120"  y="80" width="60" height="20" transform="rotate(0 0 0)" fill="yellow" stroke="black" stroke-width="0.5" />
<rect x="180"  y="80" width="60" height="20" transform="rotate(0 0 0)" fill="yellow" stroke="black" stroke-width="0.5" />
<rect x="240"  y="80" width="60" height="20" transform="rotate(0 0 0)" fill="yellow" stroke="black" stroke-width="0.5" />
<rect x="300"  y="80" width="60" height="20" transform="rotate(0 0 0)" fill="yellow" stroke="black" stroke-width="0.5" />
<rect x="360"  y="80" width="60" height="20" transform="rotate(0 0 0)" fill="yellow" stroke="black" stroke-width="0.5" />
<rect x="420"  y="80" width="60" height="20" transform="rotate(0 0 0)" fill="yellow" stroke="black" stroke-width="0.5" />
<rect x="480"  y="80" width="60" height="20" transform="rotate(0 0 0)" fill="yellow" stroke="black" stroke-width="0.5" />
<rect x="540"  y="80" width="60" height="20" transform="rotate(0 0 0)" fill="yellow" stroke="black" stroke-width="0.5" />
<rect x="600"  y="80" width="60" height="20" transform="rotate(0 0 0)" fill="yellow" stroke="black" stroke-width="0.5" />
<rect x="660"  y="80" width="60" height="20" transform="rotate(0 0 0)" fill="yellow" stroke="black" stroke-width="0.5" />
<rect x="720"  y="80" width="60" height="20" transform="rotate(0 0 0)" fill="yellow" stroke="black" stroke-width="0.5" />
<rect x="0"  y="100" width="60" height="20" transform="rotate(0 0 0)" fill="yellow" stroke="black" stroke-width="0.5" />
<rect x="60"  y="100" width="60" height="20" transform="rotate(0 0 0)" fill="yellow" stroke="black" stroke-width="0.5" />
<rect x="120"  y="100" width="60" height="20" transform="rotate(0 0 0)" fill="yellow" stroke="black" stroke-width="0.5" />
<rect x="180"  y="100" width="60" height="20" transform="rotate(0 0 0)" fill="yellow" stroke="black" stroke-width="0.5" />
<rect x="240"  y="100" width="60" height="20" transform="rotate(0 0 0)" fill="yellow" stroke="black" stroke-width="0.5" />
<rect x="300"  y="100" width="60" height="20" transform="rotate(0 0 0)" fill="yellow" stroke="black" stroke-width="0.5" />
<rect x="360"  y="100" width="60" height="20" transform="rotate(0 0 0)" fill="yellow" stroke="black" stroke-width="0.5" />
<rect x="420"  y="100" width="60" height="20" transform="rotate(0 0 0)" fill="yellow" stroke="black" stroke-width="0.5" />
<rect x="480"  y="100" width="60" height="20" transform="rotate(0 0 0)" fill="yellow" stroke="black" stroke-width="0.5" />
<rect x="540"  y="100" width="60" height="20" transform="rotate(0 0 0)" fill="yellow" stroke="black" stroke-width="0.5" />
<rect x="600"  y="100" width="60" height="20" transform="rotate(0 0 0)" fill="yellow" stroke="black" stroke-width="0.5" />
<rect x="660"  y="100" width="60" height="20" transform="rotate(0 0 0)" fill="yellow" stroke="black" stroke-width="0.5" />
<rect x="720"  y="100" width="60" height="20" transform="rotate(0 0 0)" fill="yellow" stroke="black" stroke-width="0.5" />
<rect x="0"  y="120" width="60" height="20" transform="rotate(0 0 0)" fill="yellow" stroke="black" stroke-width="0.5" />
<rect x="60"  y="120" width="60" height="20" transform="rotate(0 0 0)" fill="yellow" stroke="black" stroke-width="0.5" />
<rect x="120"  y="120" width="60" height="20" transform="rotate(0 0 0)" fill="yellow" stroke="black" stroke-width="0.5" />
<rect x="180"  y="120" width="60" height="20" transform="rotate(0 0 0)" fill="yellow" stroke="black" stroke-width="0.5" />
<rect x="240"  y="120" width="60" height="20" transform="rotate(0 0 0)" fill="yellow" stroke="black" stroke-width="0.5" />
<rect x="300"  y="120" width="60" height="20" transform="rotate(0 0 0)" fill="yellow" stroke="black" stroke-width="0.5" />
<rect x="360"  y="120" width="60" height="20" transform="rotate(0 0 0)" fill="yellow" stroke="black" stroke-width="0.5" />
<rect x="420"  y="120" width="60" height="20" transform="rotate(0 0 0)" fill="yellow" stroke="black" stroke-width="0.5" />
<rect x="480"  y="120" width="60" height="20" transform="rotate(0 0 0)" fill="yellow" stroke="black" stroke-width="0.5" />
<rect x="540"  y="120" width="60" height="20" transform="rotate(0 0 0)" fill="yellow" stroke="black" stroke-width="0.5" />
<rect x="600"  y="120" width="60" height="20" transform="rotate(0 0 0)" fill="yellow" stroke="black" stroke-width="0.5" />
<rect x="660"  y="120" width="60" height="20" transform="rotate(0 0 0)" fill="yellow" stroke="black" stroke-width="0.5" />
<rect x="720"  y="120" width="60" height="20" transform="rotate(0 0 0)" fill="yellow" stroke="black" stroke-width="0.5" />
<rect x="0"  y="140" width="60" height="20" transform="rotate(0 0 0)" fill="yellow" stroke="black" stroke-width="0.5" />
<rect x="60"  y="140" width="60" height="20" transform="rotate(0 0 0)" fill="yellow" stroke="black" stroke-width="0.5" />
<rect x="120"  y="140" width="60" height="20" transform="rotate(0 0 0)" fill="yellow" stroke="black" stroke-width="0.5" />
<rect x="180"  y="140" width="60" height="20" transform="rotate(0 0 0)" fill="yellow" stroke="black" stroke-width="0.5" />
<rect x="240"  y="140" width="60" height="20" transform="rotate(0 0 0)" fill="yellow" stroke="black" stroke-width="0.5" />
<rect x="300"  y="140" width="60" height="20" transform="rotate(0 0 0)" fill="yellow" stroke="black" stroke-width="0.5" />
<rect x="360"  y="140" width="60" height="20" transform="rotate(0 0 0)" fill="yellow" stroke="black" stroke-width="0.5" />
<rect x="420"  y="140" width="60" height="20" transform="rotate(0 0 0)" fill="yellow" stroke="black" stroke-width="0.5" />
<rect x="480"  y="140" width="60" height="20" transform="rotate(0 0 0)" fill="yellow" stroke="black" stroke-width="0.5" />
<rect x="540"  y="140" width="60" height="20" transform="rotate(0 0 0)" fill="yellow" stroke="black" stroke-width="0.5" />
<rect x="600"  y="140" width="60" height="20" transform="rotate(0 0 0)" fill="yellow" stroke="black" stroke-width="0.5" />
<rect x="660"  y="140" width="60" height="20" transform="rotate(0 0 0)" fill="yellow" stroke="black" stroke-width="0.5" />
<rect x="720"  y="140" width="60" height="20" transform="rotate(0 0 0)" fill="yellow" stroke="black" stroke-width="0.5" />
<rect x="0"  y="160" width="60" height="20" transform="rotate(0 0 0)" fill="yellow" stroke="black" stroke-width="0.5" />
<rect x="60"  y="160" width="60" height="20" transform="rotate(0 0 0)" fill="yellow" stroke="black" stroke-width="0.5" />
<rect x="120"  y="160" width="60" height="20" transform="rotate(0 0 0)" fill="yellow" stroke="black" stroke-width="0.5" />
<rect x="180"  y="160" width="60" height="20" transform="rotate(0 0 0)" fill="yellow" stroke="black" stroke-width="0.5" />
<rect x="240"  y="160" width="60" height="20" transform="rotate(0 0 0)" fill="yellow" stroke="black" stroke-width="0.5" />
<rect x="300"  y="160" width="60" height="20" transform="rotate(0 0 0)" fill="yellow" stroke="black" stroke-width="0.5" />
<rect x="360"  y="160" width="60" height="20" transform="rotate(0 0 0)" fill="yellow" stroke="black" stroke-width="0.5" />
<rect x="420"  y="160" width="60" height="20" transform="rotate(0 0 0)" fill="yellow" stroke="black" stroke-width="0.5" />
<rect x="480"  y="160" width="60" height="20" transform="rotate(0 0 0)" fill="yellow" stroke="black" stroke-width="0.5" />
<rect x="540"  y="160" width="60" height="20" transform="rotate(0 0 0)" fill="yellow" stroke="black" stroke-width="0.5" />
<rect x="600"  y="160" width="60" height="20" transform="rotate(0 0 0)" fill="yellow" stroke="black" stroke-width="0.5" />
<rect x="660"  y="160" width="60" height="20" transform="rotate(0 0 0)" fill="yellow" stroke="black" stroke-width="0.5" />
<rect x="720"  y="160" width="60" height="20" transform="rotate(0 0 0)" fill="yellow" stroke="black" stroke-width="0.5" />
<rect x="0"  y="180" width="60" height="20" transform="rotate(0 0 0)" fill="yellow" stroke="black" stroke-width="0.5" />
<rect x="60"  y="180" width="60" height="20" transform="rotate(0 0 0)" fill="yellow" stroke="black" stroke-width="0.5" />
<rect x="120"  y="180" width="60" height="20" transform="rotate(0 0 0)" fill="yellow" stroke="black" stroke-width="0.5" />
<rect x="180"  y="180" width="60" height="20" transform="rotate(0 0 0)" fill="yellow" stroke="black" stroke-width="0.5" />
<rect x="240"  y="180" width="60" height="20" transform="rotate(0 0 0)" fill="yellow" stroke="black" stroke-width="0.5" />
<rect x="300"  y="180" width="60" height="20" transform="rotate(0 0 0)" fill="yellow" stroke="black" stroke-width="0.5" />
<rect x="360"  y="180" width="60" height="20" transform="rotate(0 0 0)" fill="yellow" stroke="black" stroke-width="0.5" />
<rect x="420"  y="180" width="60" height="20" transform="rotate(0 0 0)" fill="yellow" stroke="black" stroke-width="0.5" />
<rect x="480"  y="180" width="60" height="20" transform="rotate(0 0 0)" fill="yellow" stroke="black" stroke-width="0.5" />
<rect x="540"  y="180" width="60" height="20" transform="rotate(0 0 0)" fill="yellow" stroke="black" stroke-width="0.5" />
<rect x="600"  y="180" width="60" height="20" transform="rotate(0 0 0)" fill="yellow" stroke="black" stroke-width="0.5" />
<rect x="660"  y="180" width="60" height="20" transform="rotate(0 0 0)" fill="yellow" stroke="black" stroke-width="0.5" />
<rect x="720"  y="180" width="60" height="20" transform="rotate(0 0 0)" fill="yellow" stroke="black" stroke-width="0.5" />
<rect x="0"  y="200" width="60" height="20" transform="rotate(0 0 0)" fill="yellow" stroke="black" stroke-width="0.5" />
<rect x="60"  y="200" width="60" height="20" transform="rotate(0 0 0)" fill="yellow" stroke="black" stroke-width="0.5" />
<rect x="120"  y="200" width="60" height="20" transform="rotate(0 0 0)" fill="yellow" stroke="black" stroke-width="0.5" />
<rect x="180"  y="200" width="60" height="20" transform="rotate(0 0 0)" fill="yellow" stroke="black" stroke-width="0.5" />
<rect x="240"  y="200" width="60" height="20" transform="rotate(0 0 0)" fill="yellow" stroke="black" stroke-width="0.5" />
<rect x="300"  y="200" width="60" height="20" transform="rotate(0 0 0)" fill="yellow" stroke="black" stroke-width="0.5" />
<rect x="360"  y="200" width="60" height="20" transform="rotate(0 0 0)" fill="yellow" stroke="black" stroke-width="0.5" />
<rect x="420"  y="200" width="60" height="20" transform="rotate(0 0 0)" fill="yellow" stroke="black" stroke-width="0.5" />
<rect x="480"  y="200" width="60" height="20" transform="rotate(0 0 0)" fill="yellow" stroke="black" stroke-width="0.5" />
<rect x="540"  y="200" width="60" height="20" transform="rotate(0 0 0)" fill="yellow" stroke="black" stroke-width="0.5" />
<rect x="600"  y="200" width="60" height="20" transform="rotate(0 0 0)" fill="yellow" stroke="black" stroke-width="0.5" />
<rect x="660"  y="200" width="60" height="20" transform="rotate(0 0 0)" fill="yellow" stroke="black" stroke-width="0.5" />
<rect x="720"  y="200" width="60" height="20" transform="rotate(0 0 0)" fill="yellow" stroke="black" stroke-width="0.5" />
<rect x="0"  y="220" width="60" height="20" transform="rotate(0 0 0)" fill="yellow" stroke="black" stroke-width="0.5" />
<rect x="60"  y="220" width="60" height="20" transform="rotate(0 0 0)" fill="yellow" stroke="black" stroke-width="0.5" />
<rect x="120"  y="220" width="60" height="20" transform="rotate(0 0 0)" fill="yellow" stroke="black" stroke-width="0.5" />
<rect x="180"  y="220" width="60" height="20" transform="rotate(0 0 0)" fill="yellow" stroke="black" stroke-width="0.5" />
<rect x="240"  y="220" width="60" height="20" transform="rotate(0 0 0)" fill="yellow" stroke="black" stroke-width="0.5" />
<rect x="300"  y="220" width="60" height="20" transform="rotate(0 0 0)" fill="yellow" stroke="black" stroke-width="0.5" />
<rect x="360"  y="220" width="60" height="20" transform="rotate(0 0 0)" fill="yellow" stroke="black" stroke-width="0.5" />
<rect x="420"  y="220" width="60" height="20" transform="rotate(0 0 0)" fill="yellow" stroke="black" stroke-width="0.5" />
<rect x="480"  y="220" width="60" height="20" transform="rotate(0 0 0)" fill="yellow" stroke="black" stroke-width="0.5" />
<rect x="540"  y="220" width="60" height="20" transform="rotate(0 0 0)" fill="yellow" stroke="black" stroke-width="0.5" />
<rect x="600"  y="220" width="60" height="20" transform="rotate(0 0 0)" fill="yellow" stroke="black" stroke-width="0.5" />
<rect x="660"  y="220" width="60" height="20" transform="rotate(0 0 0)" fill="yellow" stroke="black" stroke-width="0.5" />
<rect x="720"  y="220" width="60" height="20" transform="rotate(0 0 0)" fill="yellow" stroke="black" stroke-width="0.5" />
<rect x="0"  y="240" width="60" height="20" transform="rotate(0 0 0)" fill="yellow" stroke="black" stroke-width="0.5" />
<rect x="60"  y="240" width="60" height="20" transform="rotate(0 0 0)" fill="yellow" stroke="black" stroke-width="0.5" />
<rect x="120"  y="240" width="60" height="20" transform="rotate(0 0 0)" fill="yellow" stroke="black" stroke-width="0.5" />
<rect x="180"  y="240" width="60" height="20" transform="rotate(0 0 0)" fill="yellow" stroke="black" stroke-width="0.5" />
<rect x="240"  y="240" width="60" height="20" transform="rotate(0 0 0)" fill="yellow" stroke="black" stroke-width="0.5" />
<rect x="300"  y="240" width="60" height="20" transform="rotate(0 0 0)" fill="yellow" stroke="black" stroke-width="0.5" />
<rect x="360"  y="240" width="60" height="20" transform="rotate(0 0 0)" fill="yellow" stroke="black" stroke-width="0.5" />
<rect x="420"  y="240" width="60" height="20" transform="rotate(0 0 0)" fill="yellow" stroke="black" stroke-width="0.5" />
<rect x="480"  y="240" width="60" height="20" transform="rotate(0 0 0)" fill="yellow" stroke="black" stroke-width="0.5" />
<rect x="540"  y="240" width="60" height="20" transform="rotate(0 0 0)" fill="yellow" stroke="black" stroke-width="0.5" />
<rect x="600"  y="240" width="60" height="20" transform="rotate(0 0 0)" fill="yellow" stroke="black" stroke-width="0.5" />
<rect x="660"  y="240" width="60" height="20" transform="rotate(0 0 0)" fill="yellow" stroke="black" stroke-width="0.5" />
<rect x="720"  y="240" width="60" height="20" transform="rotate(0 0 0)" fill="yellow" stroke="black" stroke-width="0.5" />
<rect x="0"  y="260" width="60" height="20" transform="rotate(0 0 0)" fill="yellow" stroke="black" stroke-width="0.5" />
<rect x="60"  y="260" width="60" height="20" transform="rotate(0 0 0)" fill="yellow" stroke="black" stroke-width="0.5" />
<rect x="120"  y="260" width="60" height="20" transform="rotate(0 0 0)" fill="yellow" stroke="black" stroke-width="0.5" />
<rect x="180"  y="260" width="60" height="20" transform="rotate(0 0 0)" fill="yellow" stroke="black" stroke-width="0.5" />
<rect x="240"  y="260" width="60" height="20" transform="rotate(0 0 0)" fill="yellow" stroke="black" stroke-width="0.5" />
<rect x="300"  y="260" width="60" height="20" transform="rotate(0 0 0)" fill="yellow" stroke="black" stroke-width="0.5" />
<rect x="360"  y="260" width="60" height="20" transform="rotate(0 0 0)" fill="yellow" stroke="black" stroke-width="0.5" />
<rect x="420"  y="260" width="60" height="20" transform="rotate(0 0 0)" fill="yellow" stroke="black" stroke-width="0.5" />
<rect x="480"  y="260" width="60" height="20" transform="rotate(0 0 0)" fill="yellow" stroke="black" stroke-width="0.5" />
<rect x="540"  y="260" width="60" height="20" transform="rotate(0 0 0)" fill="yellow" stroke="black" stroke-width="0.5" />
<rect x="600"  y="260" width="60" height="20" transform="rotate(0 0 0)" fill="yellow" stroke="black" stroke-width="0.5" />
<rect x="660"  y="260" width="60" height="20" transform="rotate(0 0 0)" fill="yellow" stroke="black" stroke-width="0.5" />
<rect x="720"  y="260" width="60" height="20" transform="rotate(0 0 0)" fill="yellow" stroke="black" stroke-width="0.5" />
<rect x="0"  y="280" width="60" height="20" transform="rotate(0 0 0)" fill="yellow" stroke="black" stroke-width="0.5" />
<rect x="60"  y="280" width="60" height="20" transform="rotate(0 0 0)" fill="yellow" stroke="black" stroke-width="0.5" />
<rect x="120"  y="280" width="60" height="20" transform="rotate(0 0 0)" fill="yellow" stroke="black" stroke-width="0.5" />
<rect x="180"  y="280" width="60" height="20" transform="rotate(0 0 0)" fill="yellow" stroke="black" stroke-width="0.5" />
<rect x="240"  y="280" width="60" height="20" transform="rotate(0 0 0)" fill="yellow" stroke="black" stroke-width="0.5" />
<rect x="300"  y="280" width="60" height="20" transform="rotate(0 0 0)" fill="yellow" stroke="black" stroke-width="0.5" />
<rect x="360"  y="280" width="60" height="20" transform="rotate(0 0 0)" fill="yellow" stroke="black" stroke-width="0.5" />
<rect x="420"  y="280" width="60" height="20" transform="rotate(0 0 0)" fill="yellow" stroke="black" stroke-width="0.5" />
<rect x="480"  y="280" width="60" height="20" transform="rotate(0 0 0)" fill="yellow" stroke="black" stroke-width="0.5" />
<rect x="540"  y="280" width="60" height="20" transform="rotate(0 0 0)" fill="yellow" stroke="black" stroke-width="0.5" />
<rect x="600"  y="280" width="60" height="20" transform="rotate(0 0 0)" fill="yellow" stroke="black" stroke-width="0.5" />
<rect x="660"  y="280" width="60" height="20" transform="rotate(0 0 0)" fill="yellow" stroke="black" stroke-width="0.5" />
<rect x="720"  y="280" width="60" height="20" transform="rotate(0 0 0)" fill="yellow" stroke="black" stroke-width="0.5" />
<rect x="0"  y="300" width="60" height="20" transform="rotate(0 0 0)" fill="yellow" stroke="black" stroke-width="0.5" />
<rect x="60"  y="300" width="60" height="20" transform="rotate(0 0 0)" fill="yellow" stroke="black" stroke-width="0.5" />
<rect x="120"  y="300" width="60" height="20" transform="rotate(0 0 0)" fill="yellow" stroke="black" stroke-width="0.5" />
<rect x="180"  y="300" width="60" height="20" transform="rotate(0 0 0)" fill="yellow" stroke="black" stroke-width="0.5" />
<rect x="240"  y="300" width="60" height="20" transform="rotate(0 0 0)" fill="yellow" stroke="black" stroke-width="0.5" />
<rect x="300"  y="300" width="60" height="20" transform="rotate(0 0 0)" fill="yellow" stroke="black" stroke-width="0.5" />
<rect x="360"  y="300" width="60" height="20" transform="rotate(0 0 0)" fill="yellow" stroke="black" stroke-width="0.5" />
<rect x="420"  y="300" width="60" height="20" transform="rotate(0 0 0)" fill="yellow" stroke="black" stroke-width="0.5" />
<rect x="480"  y="300" width="60" height="20" transform="rotate(0 0 0)" fill="yellow" stroke="black" stroke-width="0.5" />
<rect x="540"  y="300" width="60" height="20" transform="rotate(0 0 0)" fill="yellow" stroke="black" stroke-width="0.5" />
<rect x="600"  y="300" width="60" height="20" transform="rotate(0 0 0)" fill="yellow" stroke="black" stroke-width="0.5" />
<rect x="660"  y="300" width="60" height="20" transform="rotate(0 0 0)" fill="yellow" stroke="black" stroke-width="0.5" />
<rect x="720"  y="300" width="60" height="20" transform="rotate(0 0 0)" fill="yellow" stroke="black" stroke-width="0.5" />
<rect x="0"  y="320" width="60" height="20" transform="rotate(0 0 0)" fill="yellow" stroke="black" stroke-width="0.5" />
<rect x="60"  y="320" width="60" height="20" transform="rotate(0 0 0)" fill="yellow" stroke="black" stroke-width="0.5" />
<rect x="120"  y="320" width="60" height="20" transform="rotate(0 0 0)" fill="yellow" stroke="black" stroke-width="0.5" />
<rect x="180"  y="320" width="60" height="20" transform="rotate(0 0 0)" fill="yellow" stroke="black" stroke-width="0.5" />
<rect x="240"  y="320" width="60" height="20" transform="rotate(0 0 0)" fill="yellow" stroke="black" stroke-width="0.5" />
<rect x="300"  y="320" width="60" height="20" transform="rotate(0 0 0)" fill="yellow" stroke="black" stroke-width="0.5" />
<rect x="360"  y="320" width="60" height="20" transform="rotate(0 0 0)" fill="yellow" stroke="black" stroke-width="0.5" />
<rect x="420"  y="320" width="60" height="20" transform="rotate(0 0 0)" fill="yellow" stroke="black" stroke-width="0.5" />
<rect x="480"  y="320" width="60" height="20" transform="rotate(0 0 0)" fill="yellow" stroke="black" stroke-width="0.5" />
<rect x="540"  y="320" width="60" height="20" transform="rotate(0 0 0)" fill="yellow" stroke="black" stroke-width="0.5" />
<rect x="600"  y="320" width="60" height="20" transform="rotate(0 0 0)" fill="yellow" stroke="black" stroke-width="0.5" />
<rect x="660"  y="320" width="60" height="20" transform="rotate(0 0 0)" fill="yellow" stroke="black" stroke-width="0.5" />
<rect x="720"  y="320" width="60" height="20" transform="rotate(0 0 0)" fill="yellow" stroke="black" stroke-width="0.5" />
</svg>
