<svg version="1.1" baseProfile="full" xmlns="http://www.w3.org/2000/svg">
<circle cx="400" cy="400" r="400" transform="rotate(0 0 0)" fill="red" stroke="black" stroke-width="0.5" />
<polygon points="400,400 380,434.641 420,434.641" transform="rotate(0 400 400)" fill="green" stroke="black" stroke-width="0.5" />
<polygon points="400,469.282 380,434.641 420,434.641" transform="rotate(0 400 400)" fill="green" stroke="black" stroke-width="0.5" />
<polygon points="380,434.641 360,469.282 400,469.282" transform="rotate(0 400 400)" fill="green" stroke="black" stroke-width="0.5" />
<polygon points="380,503.923 360,469.282 400,469.282" transform="rotate(0 400 400)" fill="green" stroke="black" stroke-width="0.5" />
<polygon points="420,434.641 400,469.282 440,469.282" transform="rotate(0 400 400)" fill="green" stroke="black" stroke-width="0.5" />
<polygon points="420,503.923 400,469.282 440,469.282" transform="rotate(0 400 400)" fill="green" stroke="black" stroke-width="0.5" />
<polygon points="360,469.282 340,503.923 380,503.923" transform="rotate(0 400 400)" fill="green" stroke="black" stroke-width="0.5" />
<polygon points="360,538.564 340,503.923 380,503.923" transform="rotate(0 400 400)" fill="green" stroke="black" stroke-width="0.5" />
<polygon points="400,469.282 380,503.923 420,503.923" transform="rotate(0 400 400)" fill="green" stroke="black" stroke-width="0.5" />
<polygon points="400,538.564 380,503.923 420,503.923" transform="rotate(0 400 400)" fill="green" stroke="black" stroke-width="0.5" />
<polygon points="440,469.282 420,503.923 460,503.923" transform="rotate(0 400 400)" fill="green" stroke="black" stroke-width="0.5" />
<polygon points="440,538.564 420,503.923 460,503.923" transform="rotate(0 400 400)" fill="green" stroke="black" stroke-width="0.5" />
<polygon points="340,503.923 320,538.564 360,538.564" transform="rotate(0 400 400)" fill="green" stroke="black" stroke-width="0.5" />
<polygon points="340,573.205 320,538.564 360,538.564" transform="rotate(0 400 400)" fill="green" stroke="black" stroke-width="0.5" />
<polygon points="380,503.923 360,538.564 400,538.564" transform="rotate(0 400 400)" fill="green" stroke="black" stroke-width="0.5" />
<polygon points="380,573.205 360,538.564 400,538.564" transform="rotate(0 400 400)" fill="green" stroke="black" stroke-width="0.5" />
<polygon points="420,503.923 400,538.564 440,538.564" transform="rotate(0 400 400)" fill="green" stroke="black" stroke-width="0.5" />
<polygon points="420,573.205 400,538.564 440,538.564" transform="rotate(0 400 400)" fill="green" stroke="black" stroke-width="0.5" />
<polygon points="460,503.923 440,538.564 480,538.564" transform="rotate(0 400 400)" fill="green" stroke="black" stroke-width="0.5" />
<polygon points="460,573.205 440,538.564 480,538.564" transform="rotate(0 400 400)" fill="green" stroke="black" stroke-width="0.5" />
<polygon points="320,538.564 300,573.205 340,573.205" transform="rotate(0 400 400)" fill="green" stroke="black" stroke-width="0.5" />
<polygon points="320,607.846 300,573.205 340,573.205" transform="rotate(0 400 400)" fill="green" stroke="black" stroke-width="0.5" />
<polygon points="360,538.564 340,573.205 380,573.205" transform="rotate(0 400 400)" fill="green" stroke="black" stroke-width="0.5" />
<polygon points="360,607.846 340,573.205 380,573.205" transform="rotate(0 400 400)" fill="green" stroke="black" stroke-width="0.5" />
<polygon points="400,538.564 380,573.205 420,573.205" transform="rotate(0 400 400)" fill="green" stroke="black" stroke-width="0.5" />
<polygon points="400,607.846 380,573.205 420,573.205" transform="rotate(0 400 400)" fill="green" stroke="black" stroke-width="0.5" />
<polygon points="440,538.564 420,573.205 460,573.205" transform="rotate(0 400 400)" fill="green" stroke="black" stroke-width="0.5" />
<polygon points="440,607.846 420,573.205 460,573.205" transform="rotate(0 400 400)" fill="green" stroke="black" stroke-width="0.5" />
<polygon points="480,538.564 460,573.205 500,573.205" transform="rotate(0 400 400)" fill="green" stroke="black" stroke-width="0.5" />
<polygon points="480,607.846 460,573.205 500,573.205" transform="rotate(0 400 400)" fill="green" stroke="black" stroke-width="0.5" />
<polygon points="300,573.205 280,607.846 320,607.846" transform="rotate(0 400 400)" fill="green" stroke="black" stroke-width="0.5" />
<polygon points="300,642.487 280,607.846 320,607.846" transform="rotate(0 400 400)" fill="green" stroke="black" stroke-width="0.5" />
<polygon points="340,573.205 320,607.846 360,607.846" transform="rotate(0 400 400)" fill="green" stroke="black" stroke-width="0.5" />
<polygon points="340,642.487 320,607.846 360,607.846" transform="rotate(0 400 400)" fill="green" stroke="black" stroke-width="0.5" />
<polygon points="380,573.205 360,607.846 400,607.846" transform="rotate(0 400 400)" fill="green" stroke="black" stroke-width="0.5" />
<polygon points="380,642.487 360,607.846 400,607.846" transform="rotate(0 400 400)" fill="green" stroke="black" stroke-width="0.5" />
<polygon points="420,573.205 400,607.846 440,607.846" transform="rotate(0 400 400)" fill="green" stroke="black" stroke-width="0.5" />
<polygon points="420,642.487 400,607.846 440,607.846" transform="rotate(0 400 400)" fill="green" stroke="black" stroke-width="0.5" />
<polygon points="460,573.205 440,607.846 480,607.846" transform="rotate(0 400 400)" fill="green" stroke="black" stroke-width="0.5" />
<polygon points="460,642.487 440,607.846 480,607.846" transform="rotate(0 400 400)" fill="green" stroke="black" stroke-width="0.5" />
<polygon points="500,573.205 480,607.846 520,607.846" transform="rotate(0 400 400)" fill="green" stroke="black" stroke-width="0.5" />
<polygon points="500,642.487 480,607.846 520,607.846" transform="rotate(0 400 400)" fill="green" stroke="black" stroke-width="0.5" />
<polygon points="280,607.846 260,642.487 300,642.487" transform="rotate(0 400 400)" fill="green" stroke="black" stroke-width="0.5" />
<polygon points="280,677.128 260,642.487 300,642.487" transform="rotate(0 400 400)" fill="green" stroke="black" stroke-width="0.5" />
<polygon points="320,607.846 300,642.487 340,642.487" transform="rotate(0 400 400)" fill="green" stroke="black" stroke-width="0.5" />
<polygon points="320,677.128 300,642.487 340,642.487" transform="rotate(0 400 400)" fill="green" stroke="black" stroke-width="0.5" />
<polygon points="360,607.846 340,642.487 380,642.487" transform="rotate(0 400 400)" fill="green" stroke="black" stroke-width="0.5" />
<polygon points="360,677.128 340,642.487 380,642.487" transform="rotate(0 400 400)" fill="green" stroke="black" stroke-width="0.5" />
<polygon points="400,607.846 380,642.487 420,642.487" transform="rotate(0 400 400)" fill="green" stroke="black" stroke-width="0.5" />
<polygon points="400,677.128 380,642.487 420,642.487" transform="rotate(0 400 400)" fill="green" stroke="black" stroke-width="0.5" />
<polygon points="440,607.846 420,642.487 460,642.487" transform="rotate(0 400 400)" fill="green" stroke="black" stroke-width="0.5" />
<polygon points="440,677.128 420,642.487 460,642.487" transform="rotate(0 400 400)" fill="green" stroke="black" stroke-width="0.5" />
<polygon points="480,607.846 460,642.487 500,642.487" transform="rotate(0 400 400)" fill="green" stroke="black" stroke-width="0.5" />
<polygon points="480,677.128 460,642.487 500,642.487" transform="rotate(0 400 400)" fill="green" stroke="black" stroke-width="0.5" />
<polygon points="520,607.846 500,642.487 540,642.487" transform="rotate(0 400 400)" fill="green" stroke="black" stroke-width="0.5" />
<polygon points="520,677.128 500,642.487 540,642.487" transform="rotate(0 400 400)" fill="green" stroke="black" stroke-width="0.5" />
<polygon points="260,642.487 240,677.128 280,677.128" transform="rotate(0 400 400)" fill="green" stroke="black" stroke-width="0.5" />
<polygon points="260,711.769 240,677.128 280,677.128" transform="rotate(0 400 400)" fill="green" stroke="black" stroke-width="0.5" />
<polygon points="300,642.487 280,677.128 320,677.128" transform="rotate(0 400 400)" fill="green" stroke="black" stroke-width="0.5" />
<polygon points="300,711.769 280,677.128 320,677.128" transform="rotate(0 400 400)" fill="green" stroke="black" stroke-width="0.5" />
<polygon points="340,642.487 320,677.128 360,677.128" transform="rotate(0 400 400)" fill="green" stroke="black" stroke-width="0.5" />
<polygon points="340,711.769 320,677.128 360,677.128" transform="rotate(0 400 400)" fill="green" stroke="black" stroke-width="0.5" />
<polygon points="380,642.487 360,677.128 400,677.128" transform="rotate(0 400 400)" fill="green" stroke="black" stroke-width="0.5" />
<polygon points="380,711.769 360,677.128 400,677.128" transform="rotate(0 400 400)" fill="green" stroke="black" stroke-width="0.5" />
<polygon points="420,642.487 400,677.128 440,677.128" transform="rotate(0 400 400)" fill="green" stroke="black" stroke-width="0.5" />
<polygon points="420,711.769 400,677.128 440,677.128" transform="rotate(0 400 400)" fill="green" stroke="black" stroke-width="0.5" />
<polygon points="460,642.487 440,677.128 480,677.128" transform="rotate(0 400 400)" fill="green" stroke="black" stroke-width="0.5" />
<polygon points="460,711.769 440,677.128 480,677.128" transform="rotate(0 400 400)" fill="green" stroke="black" stroke-width="0.5" />
<polygon points="500,642.487 480,677.128 520,677.128" transform="rotate(0 400 400)" fill="green" stroke="black" stroke-width="0.5" />
<polygon points="500,711.769 480,677.128 520,677.128" transform="rotate(0 400 400)" fill="green" stroke="black" stroke-width="0.5" />
<polygon points="540,642.487 520,677.128 560,677.128" transform="rotate(0 400 400)" fill="green" stroke="black" stroke-width="0.5" />
<polygon points="540,711.769 520,677.128 560,677.128" transform="rotate(0 400 400)" fill="green" stroke="black" stroke-width="0.5" />
<polygon points="240,677.128 220,711.769 260,711.769" transform="rotate(0 400 400)" fill="green" stroke="black" stroke-width="0.5" />
<polygon points="240,746.41 220,711.769 260,711.769" transform="rotate(0 400 400)" fill="green" stroke="black" stroke-width="0.5" />
<polygon points="280,677.128 260,711.769 300,711.769" transform="rotate(0 400 400)" fill="green" stroke="black" stroke-width="0.5" />
<polygon points="280,746.41 260,711.769 300,711.769" transform="rotate(0 400 400)" fill="green" stroke="black" stroke-width="0.5" />
<polygon points="320,677.128 300,711.769 340,711.769" transform="rotate(0 400 400)" fill="green" stroke="black" stroke-width="0.5" />
<polygon points="320,746.41 300,711.769 340,711.769" transform="rotate(0 400 400)" fill="green" stroke="black" stroke-width="0.5" />
<polygon points="360,677.128 340,711.769 380,711.769" transform="rotate(0 400 400)" fill="green" stroke="black" stroke-width="0.5" />
<polygon points="360,746.41 340,711.769 380,711.769" transform="rotate(0 400 400)" fill="green" stroke="black" stroke-width="0.5" />
<polygon points="400,677.128 380,711.769 420,711.769" transform="rotate(0 400 400)" fill="green" stroke="black" stroke-width="0.5" />
<polygon points="400,746.41 380,711.769 420,711.769" transform="rotate(0 400 400)" fill="green" stroke="black" stroke-width="0.5" />
<polygon points="440,677.128 420,711.769 460,711.769" transform="rotate(0 400 400)" fill="green" stroke="black" stroke-width="0.5" />
<polygon points="440,746.41 420,711.769 460,711.769" transform="rotate(0 400 400)" fill="green" stroke="black" stroke-width="0.5" />
<polygon points="480,677.128 460,711.769 500,711.769" transform="rotate(0 400 400)" fill="green" stroke="black" stroke-width="0.5" />
<polygon points="480,746.41 460,711.769 500,711.769" transform="rotate(0 400 400)" fill="green" stroke="black" stroke-width="0.5" />
<polygon points="520,677.128 500,711.769 540,711.769" transform="rotate(0 400 400)" fill="green" stroke="black" stroke-width="0.5" />
<polygon points="520,746.41 500,711.769 540,711.769" transform="rotate(0 400 400)" fill="green" stroke="black" stroke-width="0.5" />
<polygon points="560,677.128 540,711.769 580,711.769" transform="rotate(0 400 400)" fill="green" stroke="black" stroke-width="0.5" />
<polygon points="560,746.41 540,711.769 580,711.769" transform="rotate(0 400 400)" fill="green" stroke="black" stroke-width="0.5" />
<polygon points="220,711.769 200,746.41 240,746.41" transform="rotate(0 400 400)" fill="green" stroke="black" stroke-width="0.5" />
<polygon points="260,711.769 240,746.41 280,746.41" transform="rotate(0 400 400)" fill="green" stroke="black" stroke-width="0.5" />
<polygon points="300,711.769 280,746.41 320,746.41" transform="rotate(0 400 400)" fill="green" stroke="black" stroke-width="0.5" />
<polygon points="340,711.769 320,746.41 360,746.41" transform="rotate(0 400 400)" fill="green" stroke="black" stroke-width="0.5" />
<polygon points="380,711.769 360,746.41 400,746.41" transform="rotate(0 400 400)" fill="green" stroke="black" stroke-width="0.5" />
<polygon points="420,711.769 400,746.41 440,746.41" transform="rotate(0 400 400)" fill="green" stroke="black" stroke-width="0.5" />
<polygon points="460,711.769 440,746.41 480,746.41" transform="rotate(0 400 400)" fill="green" stroke="black" stroke-width="0.5" />
<polygon points="500,711.769 480,746.41 520,746.41" transform="rotate(0 400 400)" fill="green" stroke="black" stroke-width="0.5" />
<polygon points="540,711.769 520,746.41 560,746.41" transform="rotate(0 400 400)" fill="green" stroke="black" stroke-width="0.5" />
<polygon points="580,711.769 560,746.41 600,746.41" transform="rotate(0 400 400)" fill="green" stroke="black" stroke-width="0.5" />
<polygon points="460,746.41 440,781.051 480,781.051" transform="rotate(0 400 400)" fill="green" stroke="black" stroke-width="0.5" />
<polygon points="420,746.41 400,781.051 440,781.051" transform="rotate(0 400 400)" fill="green" stroke="black" stroke-width="0.5" />
<polygon points="380,746.41 360,781.051 400,781.051" transform="rotate(0 400 400)" fill="green" stroke="black" stroke-width="0.5" />
<polygon points="340,746.41 320,781.051 360,781.051" transform="rotate(0 400 400)" fill="green" stroke="black" stroke-width="0.5" />
<polygon points="300,746.41 280,781.051 320,781.051" transform="rotate(0 400 400)" fill="green" stroke="black" stroke-width="0.5" />
<polygon points="500,746.41 480,781.051 460,746.41" transform="rotate(0 400 400)" fill="green" stroke="black" stroke-width="0.5" />
<polygon points="460,746.41 440,781.051 420,746.41" transform="rotate(0 400 400)" fill="green" stroke="black" stroke-width="0.5" />
<polygon points="420,746.41 400,781.051 380,746.41" transform="rotate(0 400 400)" fill="green" stroke="black" stroke-width="0.5" />
<polygon points="380,746.41 360,781.051 340,746.41" transform="rotate(0 400 400)" fill="green" stroke="black" stroke-width="0.5" />
<polygon points="340,746.41 320,781.051 300,746.41" transform="rotate(0 400 400)" fill="green" stroke="black" stroke-width="0.5" />
<polygon points="300,746.41 280,781.051 260,746.41" transform="rotate(0 400 400)" fill="green" stroke="black" stroke-width="0.5" />
<polygon points="400,400 380,434.641 420,434.641" transform="rotate(60 400 400)" fill="green" stroke="black" stroke-width="0.5" />
<polygon points="400,469.282 380,434.641 420,434.641" transform="rotate(60 400 400)" fill="green" stroke="black" stroke-width="0.5" />
<polygon points="380,434.641 360,469.282 400,469.282" transform="rotate(60 400 400)" fill="green" stroke="black" stroke-width="0.5" />
<polygon points="380,503.923 360,469.282 400,469.282" transform="rotate(60 400 400)" fill="green" stroke="black" stroke-width="0.5" />
<polygon points="420,434.641 400,469.282 440,469.282" transform="rotate(60 400 400)" fill="green" stroke="black" stroke-width="0.5" />
<polygon points="420,503.923 400,469.282 440,469.282" transform="rotate(60 400 400)" fill="green" stroke="black" stroke-width="0.5" />
<polygon points="360,469.282 340,503.923 380,503.923" transform="rotate(60 400 400)" fill="green" stroke="black" stroke-width="0.5" />
<polygon points="360,538.564 340,503.923 380,503.923" transform="rotate(60 400 400)" fill="green" stroke="black" stroke-width="0.5" />
<polygon points="400,469.282 380,503.923 420,503.923" transform="rotate(60 400 400)" fill="green" stroke="black" stroke-width="0.5" />
<polygon points="400,538.564 380,503.923 420,503.923" transform="rotate(60 400 400)" fill="green" stroke="black" stroke-width="0.5" />
<polygon points="440,469.282 420,503.923 460,503.923" transform="rotate(60 400 400)" fill="green" stroke="black" stroke-width="0.5" />
<polygon points="440,538.564 420,503.923 460,503.923" transform="rotate(60 400 400)" fill="green" stroke="black" stroke-width="0.5" />
<polygon points="340,503.923 320,538.564 360,538.564" transform="rotate(60 400 400)" fill="green" stroke="black" stroke-width="0.5" />
<polygon points="340,573.205 320,538.564 360,538.564" transform="rotate(60 400 400)" fill="green" stroke="black" stroke-width="0.5" />
<polygon points="380,503.923 360,538.564 400,538.564" transform="rotate(60 400 400)" fill="green" stroke="black" stroke-width="0.5" />
<polygon points="380,573.205 360,538.564 400,538.564" transform="rotate(60 400 400)" fill="green" stroke="black" stroke-width="0.5" />
<polygon points="420,503.923 400,538.564 440,538.564" transform="rotate(60 400 400)" fill="green" stroke="black" stroke-width="0.5" />
<polygon points="420,573.205 400,538.564 440,538.564" transform="rotate(60 400 400)" fill="green" stroke="black" stroke-width="0.5" />
<polygon points="460,503.923 440,538.564 480,538.564" transform="rotate(60 400 400)" fill="green" stroke="black" stroke-width="0.5" />
<polygon points="460,573.205 440,538.564 480,538.564" transform="rotate(60 400 400)" fill="green" stroke="black" stroke-width="0.5" />
<polygon points="320,538.564 300,573.205 340,573.205" transform="rotate(60 400 400)" fill="green" stroke="black" stroke-width="0.5" />
<polygon points="320,607.846 300,573.205 340,573.205" transform="rotate(60 400 400)" fill="green" stroke="black" stroke-width="0.5" />
<polygon points="360,538.564 340,573.205 380,573.205" transform="rotate(60 400 400)" fill="green" stroke="black" stroke-width="0.5" />
<polygon points="360,607.846 340,573.205 380,573.205" transform="rotate(60 400 400)" fill="green" stroke="black" stroke-width="0.5" />
<polygon points="400,538.564 380,573.205 420,573.205" transform="rotate(60 400 400)" fill="green" stroke="black" stroke-width="0.5" />
<polygon points="400,607.846 380,573.205 420,573.205" transform="rotate(60 400 400)" fill="green" stroke="black" stroke-width="0.5" />
<polygon points="440,538.564 420,573.205 460,573.205" transform="rotate(60 400 400)" fill="green" stroke="black" stroke-width="0.5" />
<polygon points="440,607.846 420,573.205 460,573.205" transform="rotate(60 400 400)" fill="green" stroke="black" stroke-width="0.5" />
<polygon points="480,538.564 460,573.205 500,573.205" transform="rotate(60 400 400)" fill="green" stroke="black" stroke-width="0.5" />
<polygon points="480,607.846 460,573.205 500,573.205" transform="rotate(60 400 400)" fill="green" stroke="black" stroke-width="0.5" />
<polygon points="300,573.205 280,607.846 320,607.846" transform="rotate(60 400 400)" fill="green" stroke="black" stroke-width="0.5" />
<polygon points="300,642.487 280,607.846 320,607.846" transform="rotate(60 400 400)" fill="green" stroke="black" stroke-width="0.5" />
<polygon points="340,573.205 320,607.846 360,607.846" transform="rotate(60 400 400)" fill="green" stroke="black" stroke-width="0.5" />
<polygon points="340,642.487 320,607.846 360,607.846" transform="rotate(60 400 400)" fill="green" stroke="black" stroke-width="0.5" />
<polygon points="380,573.205 360,607.846 400,607.846" transform="rotate(60 400 400)" fill="green" stroke="black" stroke-width="0.5" />
<polygon points="380,642.487 360,607.846 400,607.846" transform="rotate(60 400 400)" fill="green" stroke="black" stroke-width="0.5" />
<polygon points="420,573.205 400,607.846 440,607.846" transform="rotate(60 400 400)" fill="green" stroke="black" stroke-width="0.5" />
<polygon points="420,642.487 400,607.846 440,607.846" transform="rotate(60 400 400)" fill="green" stroke="black" stroke-width="0.5" />
<polygon points="460,573.205 440,607.846 480,607.846" transform="rotate(60 400 400)" fill="green" stroke="black" stroke-width="0.5" />
<polygon points="460,642.487 440,607.846 480,607.846" transform="rotate(60 400 400)" fill="green" stroke="black" stroke-width="0.5" />
<polygon points="500,573.205 480,607.846 520,607.846" transform="rotate(60 400 400)" fill="green" stroke="black" stroke-width="0.5" />
<polygon points="500,642.487 480,607.846 520,607.846" transform="rotate(60 400 400)" fill="green" stroke="black" stroke-width="0.5" />
<polygon points="280,607.846 260,642.487 300,642.487" transform="rotate(60 400 400)" fill="green" stroke="black" stroke-width="0.5" />
<polygon points="280,677.128 260,642.487 300,642.487" transform="rotate(60 400 400)" fill="green" stroke="black" stroke-width="0.5" />
<polygon points="320,607.846 300,642.487 340,642.487" transform="rotate(60 400 400)" fill="green" stroke="black" stroke-width="0.5" />
<polygon points="320,677.128 300,642.487 340,642.487" transform="rotate(60 400 400)" fill="green" stroke="black" stroke-width="0.5" />
<polygon points="360,607.846 340,642.487 380,642.487" transform="rotate(60 400 400)" fill="green" stroke="black" stroke-width="0.5" />
<polygon points="360,677.128 340,642.487 380,642.487" transform="rotate(60 400 400)" fill="green" stroke="black" stroke-width="0.5" />
<polygon points="400,607.846 380,642.487 420,642.487" transform="rotate(60 400 400)" fill="green" stroke="black" stroke-width="0.5" />
<polygon points="400,677.128 380,642.487 420,642.487" transform="rotate(60 400 400)" fill="green" stroke="black" stroke-width="0.5" />
<polygon points="440,607.846 420,642.487 460,642.487" transform="rotate(60 400 400)" fill="green" stroke="black" stroke-width="0.5" />
<polygon points="440,677.128 420,642.487 460,642.487" transform="rotate(60 400 400)" fill="green" stroke="black" stroke-width="0.5" />
<polygon points="480,607.846 460,642.487 500,642.487" transform="rotate(60 400 400)" fill="green" stroke="black" stroke-width="0.5" />
<polygon points="480,677.128 460,642.487 500,642.487" transform="rotate(60 400 400)" fill="green" stroke="black" stroke-width="0.5" />
<polygon points="520,607.846 500,642.487 540,642.487" transform="rotate(60 400 400)" fill="green" stroke="black" stroke-width="0.5" />
<polygon points="520,677.128 500,642.487 540,642.487" transform="rotate(60 400 400)" fill="green" stroke="black" stroke-width="0.5" />
<polygon points="260,642.487 240,677.128 280,677.128" transform="rotate(60 400 400)" fill="green" stroke="black" stroke-width="0.5" />
<polygon points="260,711.769 240,677.128 280,677.128" transform="rotate(60 400 400)" fill="green" stroke="black" stroke-width="0.5" />
<polygon points="300,642.487 280,677.128 320,677.128" transform="rotate(60 400 400)" fill="green" stroke="black" stroke-width="0.5" />
<polygon points="300,711.769 280,677.128 320,677.128" transform="rotate(60 400 400)" fill="green" stroke="black" stroke-width="0.5" />
<polygon points="340,642.487 320,677.128 360,677.128" transform="rotate(60 400 400)" fill="green" stroke="black" stroke-width="0.5" />
<polygon points="340,711.769 320,677.128 360,677.128" transform="rotate(60 400 400)" fill="green" stroke="black" stroke-width="0.5" />
<polygon points="380,642.487 360,677.128 400,677.128" transform="rotate(60 400 400)" fill="green" stroke="black" stroke-width="0.5" />
<polygon points="380,711.769 360,677.128 400,677.128" transform="rotate(60 400 400)" fill="green" stroke="black" stroke-width="0.5" />
<polygon points="420,642.487 400,677.128 440,677.128" transform="rotate(60 400 400)" fill="green" stroke="black" stroke-width="0.5" />
<polygon points="420,711.769 400,677.128 440,677.128" transform="rotate(60 400 400)" fill="green" stroke="black" stroke-width="0.5" />
<polygon points="460,642.487 440,677.128 480,677.128" transform="rotate(60 400 400)" fill="green" stroke="black" stroke-width="0.5" />
<polygon points="460,711.769 440,677.128 480,677.128" transform="rotate(60 400 400)" fill="green" stroke="black" stroke-width="0.5" />
<polygon points="500,642.487 480,677.128 520,677.128" transform="rotate(60 400 400)" fill="green" stroke="black" stroke-width="0.5" />
<polygon points="500,711.769 480,677.128 520,677.128" transform="rotate(60 400 400)" fill="green" stroke="black" stroke-width="0.5" />
<polygon points="540,642.487 520,677.128 560,677.128" transform="rotate(60 400 400)" fill="green" stroke="black" stroke-width="0.5" />
<polygon points="540,711.769 520,677.128 560,677.128" transform="rotate(60 400 400)" fill="green" stroke="black" stroke-width="0.5" />
<polygon points="240,677.128 220,711.769 260,711.769" transform="rotate(60 400 400)" fill="green" stroke="black" stroke-width="0.5" />
<polygon points="240,746.41 220,711.769 260,711.769" transform="rotate(60 400 400)" fill="green" stroke="black" stroke-width="0.5" />
<polygon points="280,677.128 260,711.769 300,711.769" transform="rotate(60 400 400)" fill="green" stroke="black" stroke-width="0.5" />
<polygon points="280,746.41 260,711.769 300,711.769" transform="rotate(60 400 400)" fill="green" stroke="black" stroke-width="0.5" />
<polygon points="320,677.128 300,711.769 340,711.769" transform="rotate(60 400 400)" fill="green" stroke="black" stroke-width="0.5" />
<polygon points="320,746.41 300,711.769 340,711.769" transform="rotate(60 400 400)" fill="green" stroke="black" stroke-width="0.5" />
<polygon points="360,677.128 340,711.769 380,711.769" transform="rotate(60 400 400)" fill="green" stroke="black" stroke-width="0.5" />
<polygon points="360,746.41 340,711.769 380,711.769" transform="rotate(60 400 400)" fill="green" stroke="black" stroke-width="0.5" />
<polygon points="400,677.128 380,711.769 420,711.769" transform="rotate(60 400 400)" fill="green" stroke="black" stroke-width="0.5" />
<polygon points="400,746.41 380,711.769 420,711.769" transform="rotate(60 400 400)" fill="green" stroke="black" stroke-width="0.5" />
<polygon points="440,677.128 420,711.769 460,711.769" transform="rotate(60 400 400)" fill="green" stroke="black" stroke-width="0.5" />
<polygon points="440,746.41 420,711.769 460,711.769" transform="rotate(60 400 400)" fill="green" stroke="black" stroke-width="0.5" />
<polygon points="480,677.128 460,711.769 500,711.769" transform="rotate(60 400 400)" fill="green" stroke="black" stroke-width="0.5" />
<polygon points="480,746.41 460,711.769 500,711.769" transform="rotate(60 400 400)" fill="green" stroke="black" stroke-width="0.5" />
<polygon points="520,677.128 500,711.769 540,711.769" transform="rotate(60 400 400)" fill="green" stroke="black" stroke-width="0.5" />
<polygon points="520,746.41 500,711.769 540,711.769" transform="rotate(60 400 400)" fill="green" stroke="black" stroke-width="0.5" />
<polygon points="560,677.128 540,711.769 580,711.769" transform="rotate(60 400 400)" fill="green" stroke="black" stroke-width="0.5" />
<polygon points="560,746.41 540,711.769 580,711.769" transform="rotate(60 400 400)" fill="green" stroke="black" stroke-width="0.5" />
<polygon points="220,711.769 200,746.41 240,746.41" transform="rotate(60 400 400)" fill="green" stroke="black" stroke-width="0.5" />
<polygon points="260,711.769 240,746.41 280,746.41" transform="rotate(60 400 400)" fill="green" stroke="black" stroke-width="0.5" />
<polygon points="300,711.769 280,746.41 320,746.41" transform="rotate(60 400 400)" fill="green" stroke="black" stroke-width="0.5" />
<polygon points="340,711.769 320,746.41 360,746.41" transform="rotate(60 400 400)" fill="green" stroke="black" stroke-width="0.5" />
<polygon points="380,711.769 360,746.41 400,746.41" transform="rotate(60 400 400)" fill="green" stroke="black" stroke-width="0.5" />
<polygon points="420,711.769 400,746.41 440,746.41" transform="rotate(60 400 400)" fill="green" stroke="black" stroke-width="0.5" />
<polygon points="460,711.769 440,746.41 480,746.41" transform="rotate(60 400 400)" fill="green" stroke="black" stroke-width="0.5" />
<polygon points="500,711.769 480,746.41 520,746.41" transform="rotate(60 400 400)" fill="green" stroke="black" stroke-width="0.5" />
<polygon points="540,711.769 520,746.41 560,746.41" transform="rotate(60 400 400)" fill="green" stroke="black" stroke-width="0.5" />
<polygon points="580,711.769 560,746.41 600,746.41" transform="rotate(60 400 400)" fill="green" stroke="black" stroke-width="0.5" />
<polygon points="460,746.41 440,781.051 480,781.051" transform="rotate(60 400 400)" fill="green" stroke="black" stroke-width="0.5" />
<polygon points="420,746.41 400,781.051 440,781.051" transform="rotate(60 400 400)" fill="green" stroke="black" stroke-width="0.5" />
<polygon points="380,746.41 360,781.051 400,781.051" transform="rotate(60 400 400)" fill="green" stroke="black" stroke-width="0.5" />
<polygon points="340,746.41 320,781.051 360,781.051" transform="rotate(60 400 400)" fill="green" stroke="black" stroke-width="0.5" />
<polygon points="300,746.41 280,781.051 320,781.051" transform="rotate(60 400 400)" fill="green" stroke="black" stroke-width="0.5" />
<polygon points="500,746.41 480,781.051 460,746.41" transform="rotate(60 400 400)" fill="green" stroke="black" stroke-width="0.5" />
<polygon points="460,746.41 440,781.051 420,746.41" transform="rotate(60 400 400)" fill="green" stroke="black" stroke-width="0.5" />
<polygon points="420,746.41 400,781.051 380,746.41" transform="rotate(60 400 400)" fill="green" stroke="black" stroke-width="0.5" />
<polygon points="380,746.41 360,781.051 340,746.41" transform="rotate(60 400 400)" fill="green" stroke="black" stroke-width="0.5" />
<polygon points="340,746.41 320,781.051 300,746.41" transform="rotate(60 400 400)" fill="green" stroke="black" stroke-width="0.5" />
<polygon points="300,746.41 280,781.051 260,746.41" transform="rotate(60 400 400)" fill="green" stroke="black" stroke-width="0.5" />
<polygon points="400,400 380,434.641 420,434.641" transform="rotate(120 400 400)" fill="green" stroke="black" stroke-width="0.5" />
<polygon points="400,469.282 380,434.641 420,434.641" transform="rotate(120 400 400)" fill="green" stroke="black" stroke-width="0.5" />
<polygon points="380,434.641 360,469.282 400,469.282" transform="rotate(120 400 400)" fill="green" stroke="black" stroke-width="0.5" />
<polygon points="380,503.923 360,469.282 400,469.282" transform="rotate(120 400 400)" fill="green" stroke="black" stroke-width="0.5" />
<polygon points="420,434.641 400,469.282 440,469.282" transform="rotate(120 400 400)" fill="green" stroke="black" stroke-width="0.5" />
<polygon points="420,503.923 400,469.282 440,469.282" transform="rotate(120 400 400)" fill="green" stroke="black" stroke-width="0.5" />
<polygon points="360,469.282 340,503.923 380,503.923" transform="rotate(120 400 400)" fill="green" stroke="black" stroke-width="0.5" />
<polygon points="360,538.564 340,503.923 380,503.923" transform="rotate(120 400 400)" fill="green" stroke="black" stroke-width="0.5" />
<polygon points="400,469.282 380,503.923 420,503.923" transform="rotate(120 400 400)" fill="green" stroke="black" stroke-width="0.5" />
<polygon points="400,538.564 380,503.923 420,503.923" transform="rotate(120 400 400)" fill="green" stroke="black" stroke-width="0.5" />
<polygon points="440,469.282 420,503.923 460,503.923" transform="rotate(120 400 400)" fill="green" stroke="black" stroke-width="0.5" />
<polygon points="440,538.564 420,503.923 460,503.923" transform="rotate(120 400 400)" fill="green" stroke="black" stroke-width="0.5" />
<polygon points="340,503.923 320,538.564 360,538.564" transform="rotate(120 400 400)" fill="green" stroke="black" stroke-width="0.5" />
<polygon points="340,573.205 320,538.564 360,538.564" transform="rotate(120 400 400)" fill="green" stroke="black" stroke-width="0.5" />
<polygon points="380,503.923 360,538.564 400,538.564" transform="rotate(120 400 400)" fill="green" stroke="black" stroke-width="0.5" />
<polygon points="380,573.205 360,538.564 400,538.564" transform="rotate(120 400 400)" fill="green" stroke="black" stroke-width="0.5" />
<polygon points="420,503.923 400,538.564 440,538.564" transform="rotate(120 400 400)" fill="green" stroke="black" stroke-width="0.5" />
<polygon points="420,573.205 400,538.564 440,538.564" transform="rotate(120 400 400)" fill="green" stroke="black" stroke-width="0.5" />
<polygon points="460,503.923 440,538.564 480,538.564" transform="rotate(120 400 400)" fill="green" stroke="black" stroke-width="0.5" />
<polygon points="460,573.205 440,538.564 480,538.564" transform="rotate(120 400 400)" fill="green" stroke="black" stroke-width="0.5" />
<polygon points="320,538.564 300,573.205 340,573.205" transform="rotate(120 400 400)" fill="green" stroke="black" stroke-width="0.5" />
<polygon points="320,607.846 300,573.205 340,573.205" transform="rotate(120 400 400)" fill="green" stroke="black" stroke-width="0.5" />
<polygon points="360,538.564 340,573.205 380,573.205" transform="rotate(120 400 400)" fill="green" stroke="black" stroke-width="0.5" />
<polygon points="360,607.846 340,573.205 380,573.205" transform="rotate(120 400 400)" fill="green" stroke="black" stroke-width="0.5" />
<polygon points="400,538.564 380,573.205 420,573.205" transform="rotate(120 400 400)" fill="green" stroke="black" stroke-width="0.5" />
<polygon points="400,607.846 380,573.205 420,573.205" transform="rotate(120 400 400)" fill="green" stroke="black" stroke-width="0.5" />
<polygon points="440,538.564 420,573.205 460,573.205" transform="rotate(120 400 400)" fill="green" stroke="black" stroke-width="0.5" />
<polygon points="440,607.846 420,573.205 460,573.205" transform="rotate(120 400 400)" fill="green" stroke="black" stroke-width="0.5" />
<polygon points="480,538.564 460,573.205 500,573.205" transform="rotate(120 400 400)" fill="green" stroke="black" stroke-width="0.5" />
<polygon points="480,607.846 460,573.205 500,573.205" transform="rotate(120 400 400)" fill="green" stroke="black" stroke-width="0.5" />
<polygon points="300,573.205 280,607.846 320,607.846" transform="rotate(120 400 400)" fill="green" stroke="black" stroke-width="0.5" />
<polygon points="300,642.487 280,607.846 320,607.846" transform="rotate(120 400 400)" fill="green" stroke="black" stroke-width="0.5" />
<polygon points="340,573.205 320,607.846 360,607.846" transform="rotate(120 400 400)" fill="green" stroke="black" stroke-width="0.5" />
<polygon points="340,642.487 320,607.846 360,607.846" transform="rotate(120 400 400)" fill="green" stroke="black" stroke-width="0.5" />
<polygon points="380,573.205 360,607.846 400,607.846" transform="rotate(120 400 400)" fill="green" stroke="black" stroke-width="0.5" />
<polygon points="380,642.487 360,607.846 400,607.846" transform="rotate(120 400 400)" fill="green" stroke="black" stroke-width="0.5" />
<polygon points="420,573.205 400,607.846 440,607.846" transform="rotate(120 400 400)" fill="green" stroke="black" stroke-width="0.5" />
<polygon points="420,642.487 400,607.846 440,607.846" transform="rotate(120 400 400)" fill="green" stroke="black" stroke-width="0.5" />
<polygon points="460,573.205 440,607.846 480,607.846" transform="rotate(120 400 400)" fill="green" stroke="black" stroke-width="0.5" />
<polygon points="460,642.487 440,607.846 480,607.846" transform="rotate(120 400 400)" fill="green" stroke="black" stroke-width="0.5" />
<polygon points="500,573.205 480,607.846 520,607.846" transform="rotate(120 400 400)" fill="green" stroke="black" stroke-width="0.5" />
<polygon points="500,642.487 480,607.846 520,607.846" transform="rotate(120 400 400)" fill="green" stroke="black" stroke-width="0.5" />
<polygon points="280,607.846 260,642.487 300,642.487" transform="rotate(120 400 400)" fill="green" stroke="black" stroke-width="0.5" />
<polygon points="280,677.128 260,642.487 300,642.487" transform="rotate(120 400 400)" fill="green" stroke="black" stroke-width="0.5" />
<polygon points="320,607.846 300,642.487 340,642.487" transform="rotate(120 400 400)" fill="green" stroke="black" stroke-width="0.5" />
<polygon points="320,677.128 300,642.487 340,642.487" transform="rotate(120 400 400)" fill="green" stroke="black" stroke-width="0.5" />
<polygon points="360,607.846 340,642.487 380,642.487" transform="rotate(120 400 400)" fill="green" stroke="black" stroke-width="0.5" />
<polygon points="360,677.128 340,642.487 380,642.487" transform="rotate(120 400 400)" fill="green" stroke="black" stroke-width="0.5" />
<polygon points="400,607.846 380,642.487 420,642.487" transform="rotate(120 400 400)" fill="green" stroke="black" stroke-width="0.5" />
<polygon points="400,677.128 380,642.487 420,642.487" transform="rotate(120 400 400)" fill="green" stroke="black" stroke-width="0.5" />
<polygon points="440,607.846 420,642.487 460,642.487" transform="rotate(120 400 400)" fill="green" stroke="black" stroke-width="0.5" />
<polygon points="440,677.128 420,642.487 460,642.487" transform="rotate(120 400 400)" fill="green" stroke="black" stroke-width="0.5" />
<polygon points="480,607.846 460,642.487 500,642.487" transform="rotate(120 400 400)" fill="green" stroke="black" stroke-width="0.5" />
<polygon points="480,677.128 460,642.487 500,642.487" transform="rotate(120 400 400)" fill="green" stroke="black" stroke-width="0.5" />
<polygon points="520,607.846 500,642.487 540,642.487" transform="rotate(120 400 400)" fill="green" stroke="black" stroke-width="0.5" />
<polygon points="520,677.128 500,642.487 540,642.487" transform="rotate(120 400 400)" fill="green" stroke="black" stroke-width="0.5" />
<polygon points="260,642.487 240,677.128 280,677.128" transform="rotate(120 400 400)" fill="green" stroke="black" stroke-width="0.5" />
<polygon points="260,711.769 240,677.128 280,677.128" transform="rotate(120 400 400)" fill="green" stroke="black" stroke-width="0.5" />
<polygon points="300,642.487 280,677.128 320,677.128" transform="rotate(120 400 400)" fill="green" stroke="black" stroke-width="0.5" />
<polygon points="300,711.769 280,677.128 320,677.128" transform="rotate(120 400 400)" fill="green" stroke="black" stroke-width="0.5" />
<polygon points="340,642.487 320,677.128 360,677.128" transform="rotate(120 400 400)" fill="green" stroke="black" stroke-width="0.5" />
<polygon points="340,711.769 320,677.128 360,677.128" transform="rotate(120 400 400)" fill="green" stroke="black" stroke-width="0.5" />
<polygon points="380,642.487 360,677.128 400,677.128" transform="rotate(120 400 400)" fill="green" stroke="black" stroke-width="0.5" />
<polygon points="380,711.769 360,677.128 400,677.128" transform="rotate(120 400 400)" fill="green" stroke="black" stroke-width="0.5" />
<polygon points="420,642.487 400,677.128 440,677.128" transform="rotate(120 400 400)" fill="green" stroke="black" stroke-width="0.5" />
<polygon points="420,711.769 400,677.128 440,677.128" transform="rotate(120 400 400)" fill="green" stroke="black" stroke-width="0.5" />
<polygon points="460,642.487 440,677.128 480,677.128" transform="rotate(120 400 400)" fill="green" stroke="black" stroke-width="0.5" />
<polygon points="460,711.769 440,677.128 480,677.128" transform="rotate(120 400 400)" fill="green" stroke="black" stroke-width="0.5" />
<polygon points="500,642.487 480,677.128 520,677.128" transform="rotate(120 400 400)" fill="green" stroke="black" stroke-width="0.5" />
<polygon points="500,711.769 480,677.128 520,677.128" transform="rotate(120 400 400)" fill="green" stroke="black" stroke-width="0.5" />
<polygon points="540,642.487 520,677.128 560,677.128" transform="rotate(120 400 400)" fill="green" stroke="black" stroke-width="0.5" />
<polygon points="540,711.769 520,677.128 560,677.128" transform="rotate(120 400 400)" fill="green" stroke="black" stroke-width="0.5" />
<polygon points="240,677.128 220,711.769 260,711.769" transform="rotate(120 400 400)" fill="green" stroke="black" stroke-width="0.5" />
<polygon points="240,746.41 220,711.769 260,711.769" transform="rotate(120 400 400)" fill="green" stroke="black" stroke-width="0.5" />
<polygon points="280,677.128 260,711.769 300,711.769" transform="rotate(120 400 400)" fill="green" stroke="black" stroke-width="0.5" />
<polygon points="280,746.41 260,711.769 300,711.769" transform="rotate(120 400 400)" fill="green" stroke="black" stroke-width="0.5" />
<polygon points="320,677.128 300,711.769 340,711.769" transform="rotate(120 400 400)" fill="green" stroke="black" stroke-width="0.5" />
<polygon points="320,746.41 300,711.769 340,711.769" transform="rotate(120 400 400)" fill="green" stroke="black" stroke-width="0.5" />
<polygon points="360,677.128 340,711.769 380,711.769" transform="rotate(120 400 400)" fill="green" stroke="black" stroke-width="0.5" />
<polygon points="360,746.41 340,711.769 380,711.769" transform="rotate(120 400 400)" fill="green" stroke="black" stroke-width="0.5" />
<polygon points="400,677.128 380,711.769 420,711.769" transform="rotate(120 400 400)" fill="green" stroke="black" stroke-width="0.5" />
<polygon points="400,746.41 380,711.769 420,711.769" transform="rotate(120 400 400)" fill="green" stroke="black" stroke-width="0.5" />
<polygon points="440,677.128 420,711.769 460,711.769" transform="rotate(120 400 400)" fill="green" stroke="black" stroke-width="0.5" />
<polygon points="440,746.41 420,711.769 460,711.769" transform="rotate(120 400 400)" fill="green" stroke="black" stroke-width="0.5" />
<polygon points="480,677.128 460,711.769 500,711.769" transform="rotate(120 400 400)" fill="green" stroke="black" stroke-width="0.5" />
<polygon points="480,746.41 460,711.769 500,711.769" transform="rotate(120 400 400)" fill="green" stroke="black" stroke-width="0.5" />
<polygon points="520,677.128 500,711.769 540,711.769" transform="rotate(120 400 400)" fill="green" stroke="black" stroke-width="0.5" />
<polygon points="520,746.41 500,711.769 540,711.769" transform="rotate(120 400 400)" fill="green" stroke="black" stroke-width="0.5" />
<polygon points="560,677.128 540,711.769 580,711.769" transform="rotate(120 400 400)" fill="green" stroke="black" stroke-width="0.5" />
<polygon points="560,746.41 540,711.769 580,711.769" transform="rotate(120 400 400)" fill="green" stroke="black" stroke-width="0.5" />
<polygon points="220,711.769 200,746.41 240,746.41" transform="rotate(120 400 400)" fill="green" stroke="black" stroke-width="0.5" />
<polygon points="260,711.769 240,746.41 280,746.41" transform="rotate(120 400 400)" fill="green" stroke="black" stroke-width="0.5" />
<polygon points="300,711.769 280,746.41 320,746.41" transform="rotate(120 400 400)" fill="green" stroke="black" stroke-width="0.5" />
<polygon points="340,711.769 320,746.41 360,746.41" transform="rotate(120 400 400)" fill="green" stroke="black" stroke-width="0.5" />
<polygon points="380,711.769 360,746.41 400,746.41" transform="rotate(120 400 400)" fill="green" stroke="black" stroke-width="0.5" />
<polygon points="420,711.769 400,746.41 440,746.41" transform="rotate(120 400 400)" fill="green" stroke="black" stroke-width="0.5" />
<polygon points="460,711.769 440,746.41 480,746.41" transform="rotate(120 400 400)" fill="green" stroke="black" stroke-width="0.5" />
<polygon points="500,711.769 480,746.41 520,746.41" transform="rotate(120 400 400)" fill="green" stroke="black" stroke-width="0.5" />
<polygon points="540,711.769 520,746.41 560,746.41" transform="rotate(120 400 400)" fill="green" stroke="black" stroke-width="0.5" />
<polygon points="580,711.769 560,746.41 600,746.41" transform="rotate(120 400 400)" fill="green" stroke="black" stroke-width="0.5" />
<polygon points="460,746.41 440,781.051 480,781.051" transform="rotate(120 400 400)" fill="green" stroke="black" stroke-width="0.5" />
<polygon points="420,746.41 400,781.051 440,781.051" transform="rotate(120 400 400)" fill="green" stroke="black" stroke-width="0.5" />
<polygon points="380,746.41 360,781.051 400,781.051" transform="rotate(120 400 400)" fill="green" stroke="black" stroke-width="0.5" />
<polygon points="340,746.41 320,781.051 360,781.051" transform="rotate(120 400 400)" fill="green" stroke="black" stroke-width="0.5" />
<polygon points="300,746.41 280,781.051 320,781.051" transform="rotate(120 400 400)" fill="green" stroke="black" stroke-width="0.5" />
<polygon points="500,746.41 480,781.051 460,746.41" transform="rotate(120 400 400)" fill="green" stroke="black" stroke-width="0.5" />
<polygon points="460,746.41 440,781.051 420,746.41" transform="rotate(120 400 400)" fill="green" stroke="black" stroke-width="0.5" />
<polygon points="420,746.41 400,781.051 380,746.41" transform="rotate(120 400 400)" fill="green" stroke="black" stroke-width="0.5" />
<polygon points="380,746.41 360,781.051 340,746.41" transform="rotate(120 400 400)" fill="green" stroke="black" stroke-width="0.5" />
<polygon points="340,746.41 320,781.051 300,746.41" transform="rotate(120 400 400)" fill="green" stroke="black" stroke-width="0.5" />
<polygon points="300,746.41 280,781.051 260,746.41" transform="rotate(120 400 400)" fill="green" stroke="black" stroke-width="0.5" />
<polygon points="400,400 380,434.641 420,434.641" transform="rotate(180 400 400)" fill="green" stroke="black" stroke-width="0.5" />
<polygon points="400,469.282 380,434.641 420,434.641" transform="rotate(180 400 400)" fill="green" stroke="black" stroke-width="0.5" />
<polygon points="380,434.641 360,469.282 400,469.282" transform="rotate(180 400 400)" fill="green" stroke="black" stroke-width="0.5" />
<polygon points="380,503.923 360,469.282 400,469.282" transform="rotate(180 400 400)" fill="green" stroke="black" stroke-width="0.5" />
<polygon points="420,434.641 400,469.282 440,469.282" transform="rotate(180 400 400)" fill="green" stroke="black" stroke-width="0.5" />
<polygon points="420,503.923 400,469.282 440,469.282" transform="rotate(180 400 400)" fill="green" stroke="black" stroke-width="0.5" />
<polygon points="360,469.282 340,503.923 380,503.923" transform="rotate(180 400 400)" fill="green" stroke="black" stroke-width="0.5" />
<polygon points="360,538.564 340,503.923 380,503.923" transform="rotate(180 400 400)" fill="green" stroke="black" stroke-width="0.5" />
<polygon points="400,469.282 380,503.923 420,503.923" transform="rotate(180 400 400)" fill="green" stroke="black" stroke-width="0.5" />
<polygon points="400,538.564 380,503.923 420,503.923" transform="rotate(180 400 400)" fill="green" stroke="black" stroke-width="0.5" />
<polygon points="440,469.282 420,503.923 460,503.923" transform="rotate(180 400 400)" fill="green" stroke="black" stroke-width="0.5" />
<polygon points="440,538.564 420,503.923 460,503.923" transform="rotate(180 400 400)" fill="green" stroke="black" stroke-width="0.5" />
<polygon points="340,503.923 320,538.564 360,538.564" transform="rotate(180 400 400)" fill="green" stroke="black" stroke-width="0.5" />
<polygon points="340,573.205 320,538.564 360,538.564" transform="rotate(180 400 400)" fill="green" stroke="black" stroke-width="0.5" />
<polygon points="380,503.923 360,538.564 400,538.564" transform="rotate(180 400 400)" fill="green" stroke="black" stroke-width="0.5" />
<polygon points="380,573.205 360,538.564 400,538.564" transform="rotate(180 400 400)" fill="green" stroke="black" stroke-width="0.5" />
<polygon points="420,503.923 400,538.564 440,538.564" transform="rotate(180 400 400)" fill="green" stroke="black" stroke-width="0.5" />
<polygon points="420,573.205 400,538.564 440,538.564" transform="rotate(180 400 400)" fill="green" stroke="black" stroke-width="0.5" />
<polygon points="460,503.923 440,538.564 480,538.564" transform="rotate(180 400 400)" fill="green" stroke="black" stroke-width="0.5" />
<polygon points="460,573.205 440,538.564 480,538.564" transform="rotate(180 400 400)" fill="green" stroke="black" stroke-width="0.5" />
<polygon points="320,538.564 300,573.205 340,573.205" transform="rotate(180 400 400)" fill="green" stroke="black" stroke-width="0.5" />
<polygon points="320,607.846 300,573.205 340,573.205" transform="rotate(180 400 400)" fill="green" stroke="black" stroke-width="0.5" />
<polygon points="360,538.564 340,573.205 380,573.205" transform="rotate(180 400 400)" fill="green" stroke="black" stroke-width="0.5" />
<polygon points="360,607.846 340,573.205 380,573.205" transform="rotate(180 400 400)" fill="green" stroke="black" stroke-width="0.5" />
<polygon points="400,538.564 380,573.205 420,573.205" transform="rotate(180 400 400)" fill="green" stroke="black" stroke-width="0.5" />
<polygon points="400,607.846 380,573.205 420,573.205" transform="rotate(180 400 400)" fill="green" stroke="black" stroke-width="0.5" />
<polygon points="440,538.564 420,573.205 460,573.205" transform="rotate(180 400 400)" fill="green" stroke="black" stroke-width="0.5" />
<polygon points="440,607.846 420,573.205 460,573.205" transform="rotate(180 400 400)" fill="green" stroke="black" stroke-width="0.5" />
<polygon points="480,538.564 460,573.205 500,573.205" transform="rotate(180 400 400)" fill="green" stroke="black" stroke-width="0.5" />
<polygon points="480,607.846 460,573.205 500,573.205" transform="rotate(180 400 400)" fill="green" stroke="black" stroke-width="0.5" />
<polygon points="300,573.205 280,607.846 320,607.846" transform="rotate(180 400 400)" fill="green" stroke="black" stroke-width="0.5" />
<polygon points="300,642.487 280,607.846 320,607.846" transform="rotate(180 400 400)" fill="green" stroke="black" stroke-width="0.5" />
<polygon points="340,573.205 320,607.846 360,607.846" transform="rotate(180 400 400)" fill="green" stroke="black" stroke-width="0.5" />
<polygon points="340,642.487 320,607.846 360,607.846" transform="rotate(180 400 400)" fill="green" stroke="black" stroke-width="0.5" />
<polygon points="380,573.205 360,607.846 400,607.846" transform="rotate(180 400 400)" fill="green" stroke="black" stroke-width="0.5" />
<polygon points="380,642.487 360,607.846 400,607.846" transform="rotate(180 400 400)" fill="green" stroke="black" stroke-width="0.5" />
<polygon points="420,573.205 400,607.846 440,607.846" transform="rotate(180 400 400)" fill="green" stroke="black" stroke-width="0.5" />
<polygon points="420,642.487 400,607.846 440,607.846" transform="rotate(180 400 400)" fill="green" stroke="black" stroke-width="0.5" />
<polygon points="460,573.205 440,607.846 480,607.846" transform="rotate(180 400 400)" fill="green" stroke="black" stroke-width="0.5" />
<polygon points="460,642.487 440,607.846 480,607.846" transform="rotate(180 400 400)" fill="green" stroke="black" stroke-width="0.5" />
<polygon points="500,573.205 480,607.846 520,607.846" transform="rotate(180 400 400)" fill="green" stroke="black" stroke-width="0.5" />
<polygon points="500,642.487 480,607.846 520,607.846" transform="rotate(180 400 400)" fill="green" stroke="black" stroke-width="0.5" />
<polygon points="280,607.846 260,642.487 300,642.487" transform="rotate(180 400 400)" fill="green" stroke="black" stroke-width="0.5" />
<polygon points="280,677.128 260,642.487 300,642.487" transform="rotate(180 400 400)" fill="green" stroke="black" stroke-width="0.5" />
<polygon points="320,607.846 300,642.487 340,642.487" transform="rotate(180 400 400)" fill="green" stroke="black" stroke-width="0.5" />
<polygon points="320,677.128 300,642.487 340,642.487" transform="rotate(180 400 400)" fill="green" stroke="black" stroke-width="0.5" />
<polygon points="360,607.846 340,642.487 380,642.487" transform="rotate(180 400 400)" fill="green" stroke="black" stroke-width="0.5" />
<polygon points="360,677.128 340,642.487 380,642.487" transform="rotate(180 400 400)" fill="green" stroke="black" stroke-width="0.5" />
<polygon points="400,607.846 380,642.487 420,642.487" transform="rotate(180 400 400)" fill="green" stroke="black" stroke-width="0.5" />
<polygon points="400,677.128 380,642.487 420,642.487" transform="rotate(180 400 400)" fill="green" stroke="black" stroke-width="0.5" />
<polygon points="440,607.846 420,642.487 460,642.487" transform="rotate(180 400 400)" fill="green" stroke="black" stroke-width="0.5" />
<polygon points="440,677.128 420,642.487 460,642.487" transform="rotate(180 400 400)" fill="green" stroke="black" stroke-width="0.5" />
<polygon points="480,607.846 460,642.487 500,642.487" transform="rotate(180 400 400)" fill="green" stroke="black" stroke-width="0.5" />
<polygon points="480,677.128 460,642.487 500,642.487" transform="rotate(180 400 400)" fill="green" stroke="black" stroke-width="0.5" />
<polygon points="520,607.846 500,642.487 540,642.487" transform="rotate(180 400 400)" fill="green" stroke="black" stroke-width="0.5" />
<polygon points="520,677.128 500,642.487 540,642.487" transform="rotate(180 400 400)" fill="green" stroke="black" stroke-width="0.5" />
<polygon points="260,642.487 240,677.128 280,677.128" transform="rotate(180 400 400)" fill="green" stroke="black" stroke-width="0.5" />
<polygon points="260,711.769 240,677.128 280,677.128" transform="rotate(180 400 400)" fill="green" stroke="black" stroke-width="0.5" />
<polygon points="300,642.487 280,677.128 320,677.128" transform="rotate(180 400 400)" fill="green" stroke="black" stroke-width="0.5" />
<polygon points="300,711.769 280,677.128 320,677.128" transform="rotate(180 400 400)" fill="green" stroke="black" stroke-width="0.5" />
<polygon points="340,642.487 320,677.128 360,677.128" transform="rotate(180 400 400)" fill="green" stroke="black" stroke-width="0.5" />
<polygon points="340,711.769 320,677.128 360,677.128" transform="rotate(180 400 400)" fill="green" stroke="black" stroke-width="0.5" />
<polygon points="380,642.487 360,677.128 400,677.128" transform="rotate(180 400 400)" fill="green" stroke="black" stroke-width="0.5" />
<polygon points="380,711.769 360,677.128 400,677.128" transform="rotate(180 400 400)" fill="green" stroke="black" stroke-width="0.5" />
<polygon points="420,642.487 400,677.128 440,677.128" transform="rotate(180 400 400)" fill="green" stroke="black" stroke-width="0.5" />
<polygon points="420,711.769 400,677.128 440,677.128" transform="rotate(180 400 400)" fill="green" stroke="black" stroke-width="0.5" />
<polygon points="460,642.487 440,677.128 480,677.128" transform="rotate(180 400 400)" fill="green" stroke="black" stroke-width="0.5" />
<polygon points="460,711.769 440,677.128 480,677.128" transform="rotate(180 400 400)" fill="green" stroke="black" stroke-width="0.5" />
<polygon points="500,642.487 480,677.128 520,677.128" transform="rotate(180 400 400)" fill="green" stroke="black" stroke-width="0.5" />
<polygon points="500,711.769 480,677.128 520,677.128" transform="rotate(180 400 400)" fill="green" stroke="black" stroke-width="0.5" />
<polygon points="540,642.487 520,677.128 560,677.128" transform="rotate(180 400 400)" fill="green" stroke="black" stroke-width="0.5" />
<polygon points="540,711.769 520,677.128 560,677.128" transform="rotate(180 400 400)" fill="green" stroke="black" stroke-width="0.5" />
<polygon points="240,677.128 220,711.769 260,711.769" transform="rotate(180 400 400)" fill="green" stroke="black" stroke-width="0.5" />
<polygon points="240,746.41 220,711.769 260,711.769" transform="rotate(180 400 400)" fill="green" stroke="black" stroke-width="0.5" />
<polygon points="280,677.128 260,711.769 300,711.769" transform="rotate(180 400 400)" fill="green" stroke="black" stroke-width="0.5" />
<polygon points="280,746.41 260,711.769 300,711.769" transform="rotate(180 400 400)" fill="green" stroke="black" stroke-width="0.5" />
<polygon points="320,677.128 300,711.769 340,711.769" transform="rotate(180 400 400)" fill="green" stroke="black" stroke-width="0.5" />
<polygon points="320,746.41 300,711.769 340,711.769" transform="rotate(180 400 400)" fill="green" stroke="black" stroke-width="0.5" />
<polygon points="360,677.128 340,711.769 380,711.769" transform="rotate(180 400 400)" fill="green" stroke="black" stroke-width="0.5" />
<polygon points="360,746.41 340,711.769 380,711.769" transform="rotate(180 400 400)" fill="green" stroke="black" stroke-width="0.5" />
<polygon points="400,677.128 380,711.769 420,711.769" transform="rotate(180 400 400)" fill="green" stroke="black" stroke-width="0.5" />
<polygon points="400,746.41 380,711.769 420,711.769" transform="rotate(180 400 400)" fill="green" stroke="black" stroke-width="0.5" />
<polygon points="440,677.128 420,711.769 460,711.769" transform="rotate(180 400 400)" fill="green" stroke="black" stroke-width="0.5" />
<polygon points="440,746.41 420,711.769 460,711.769" transform="rotate(180 400 400)" fill="green" stroke="black" stroke-width="0.5" />
<polygon points="480,677.128 460,711.769 500,711.769" transform="rotate(180 400 400)" fill="green" stroke="black" stroke-width="0.5" />
<polygon points="480,746.41 460,711.769 500,711.769" transform="rotate(180 400 400)" fill="green" stroke="black" stroke-width="0.5" />
<polygon points="520,677.128 500,711.769 540,711.769" transform="rotate(180 400 400)" fill="green" stroke="black" stroke-width="0.5" />
<polygon points="520,746.41 500,711.769 540,711.769" transform="rotate(180 400 400)" fill="green" stroke="black" stroke-width="0.5" />
<polygon points="560,677.128 540,711.769 580,711.769" transform="rotate(180 400 400)" fill="green" stroke="black" stroke-width="0.5" />
<polygon points="560,746.41 540,711.769 580,711.769" transform="rotate(180 400 400)" fill="green" stroke="black" stroke-width="0.5" />
<polygon points="220,711.769 200,746.41 240,746.41" transform="rotate(180 400 400)" fill="green" stroke="black" stroke-width="0.5" />
<polygon points="260,711.769 240,746.41 280,746.41" transform="rotate(180 400 400)" fill="green" stroke="black" stroke-width="0.5" />
<polygon points="300,711.769 280,746.41 320,746.41" transform="rotate(180 400 400)" fill="green" stroke="black" stroke-width="0.5" />
<polygon points="340,711.769 320,746.41 360,746.41" transform="rotate(180 400 400)" fill="green" stroke="black" stroke-width="0.5" />
<polygon points="380,711.769 360,746.41 400,746.41" transform="rotate(180 400 400)" fill="green" stroke="black" stroke-width="0.5" />
<polygon points="420,711.769 400,746.41 440,746.41" transform="rotate(180 400 400)" fill="green" stroke="black" stroke-width="0.5" />
<polygon points="460,711.769 440,746.41 480,746.41" transform="rotate(180 400 400)" fill="green" stroke="black" stroke-width="0.5" />
<polygon points="500,711.769 480,746.41 520,746.41" transform="rotate(180 400 400)" fill="green" stroke="black" stroke-width="0.5" />
<polygon points="540,711.769 520,746.41 560,746.41" transform="rotate(180 400 400)" fill="green" stroke="black" stroke-width="0.5" />
<polygon points="580,711.769 560,746.41 600,746.41" transform="rotate(180 400 400)" fill="green" stroke="black" stroke-width="0.5" />
<polygon points="460,746.41 440,781.051 480,781.051" transform="rotate(180 400 400)" fill="green" stroke="black" stroke-width="0.5" />
<polygon points="420,746.41 400,781.051 440,781.051" transform="rotate(180 400 400)" fill="green" stroke="black" stroke-width="0.5" />
<polygon points="380,746.41 360,781.051 400,781.051" transform="rotate(180 400 400)" fill="green" stroke="black" stroke-width="0.5" />
<polygon points="340,746.41 320,781.051 360,781.051" transform="rotate(180 400 400)" fill="green" stroke="black" stroke-width="0.5" />
<polygon points="300,746.41 280,781.051 320,781.051" transform="rotate(180 400 400)" fill="green" stroke="black" stroke-width="0.5" />
<polygon points="500,746.41 480,781.051 460,746.41" transform="rotate(180 400 400)" fill="green" stroke="black" stroke-width="0.5" />
<polygon points="460,746.41 440,781.051 420,746.41" transform="rotate(180 400 400)" fill="green" stroke="black" stroke-width="0.5" />
<polygon points="420,746.41 400,781.051 380,746.41" transform="rotate(180 400 400)" fill="green" stroke="black" stroke-width="0.5" />
<polygon points="380,746.41 360,781.051 340,746.41" transform="rotate(180 400 400)" fill="green" stroke="black" stroke-width="0.5" />
<polygon points="340,746.41 320,781.051 300,746.41" transform="rotate(180 400 400)" fill="green" stroke="black" stroke-width="0.5" />
<polygon points="300,746.41 280,781.051 260,746.41" transform="rotate(180 400 400)" fill="green" stroke="black" stroke-width="0.5" />
<polygon points="400,400 380,434.641 420,434.641" transform="rotate(240 400 400)" fill="green" stroke="black" stroke-width="0.5" />
<polygon points="400,469.282 380,434.641 420,434.641" transform="rotate(240 400 400)" fill="green" stroke="black" stroke-width="0.5" />
<polygon points="380,434.641 360,469.282 400,469.282" transform="rotate(240 400 400)" fill="green" stroke="black" stroke-width="0.5" />
<polygon points="380,503.923 360,469.282 400,469.282" transform="rotate(240 400 400)" fill="green" stroke="black" stroke-width="0.5" />
<polygon points="420,434.641 400,469.282 440,469.282" transform="rotate(240 400 400)" fill="green" stroke="black" stroke-width="0.5" />
<polygon points="420,503.923 400,469.282 440,469.282" transform="rotate(240 400 400)" fill="green" stroke="black" stroke-width="0.5" />
<polygon points="360,469.282 340,503.923 380,503.923" transform="rotate(240 400 400)" fill="green" stroke="black" stroke-width="0.5" />
<polygon points="360,538.564 340,503.923 380,503.923" transform="rotate(240 400 400)" fill="green" stroke="black" stroke-width="0.5" />
<polygon points="400,469.282 380,503.923 420,503.923" transform="rotate(240 400 400)" fill="green" stroke="black" stroke-width="0.5" />
<polygon points="400,538.564 380,503.923 420,503.923" transform="rotate(240 400 400)" fill="green" stroke="black" stroke-width="0.5" />
<polygon points="440,469.282 420,503.923 460,503.923" transform="rotate(240 400 400)" fill="green" stroke="black" stroke-width="0.5" />
<polygon points="440,538.564 420,503.923 460,503.923" transform="rotate(240 400 400)" fill="green" stroke="black" stroke-width="0.5" />
<polygon points="340,503.923 320,538.564 360,538.564" transform="rotate(240 400 400)" fill="green" stroke="black" stroke-width="0.5" />
<polygon points="340,573.205 320,538.564 360,538.564" transform="rotate(240 400 400)" fill="green" stroke="black" stroke-width="0.5" />
<polygon points="380,503.923 360,538.564 400,538.564" transform="rotate(240 400 400)" fill="green" stroke="black" stroke-width="0.5" />
<polygon points="380,573.205 360,538.564 400,538.564" transform="rotate(240 400 400)" fill="green" stroke="black" stroke-width="0.5" />
<polygon points="420,503.923 400,538.564 440,538.564" transform="rotate(240 400 400)" fill="green" stroke="black" stroke-width="0.5" />
<polygon points="420,573.205 400,538.564 440,538.564" transform="rotate(240 400 400)" fill="green" stroke="black" stroke-width="0.5" />
<polygon points="460,503.923 440,538.564 480,538.564" transform="rotate(240 400 400)" fill="green" stroke="black" stroke-width="0.5" />
<polygon points="460,573.205 440,538.564 480,538.564" transform="rotate(240 400 400)" fill="green" stroke="black" stroke-width="0.5" />
<polygon points="320,538.564 300,573.205 340,573.205" transform="rotate(240 400 400)" fill="green" stroke="black" stroke-width="0.5" />
<polygon points="320,607.846 300,573.205 340,573.205" transform="rotate(240 400 400)" fill="green" stroke="black" stroke-width="0.5" />
<polygon points="360,538.564 340,573.205 380,573.205" transform="rotate(240 400 400)" fill="green" stroke="black" stroke-width="0.5" />
<polygon points="360,607.846 340,573.205 380,573.205" transform="rotate(240 400 400)" fill="green" stroke="black" stroke-width="0.5" />
<polygon points="400,538.564 380,573.205 420,573.205" transform="rotate(240 400 400)" fill="green" stroke="black" stroke-width="0.5" />
<polygon points="400,607.846 380,573.205 420,573.205" transform="rotate(240 400 400)" fill="green" stroke="black" stroke-width="0.5" />
<polygon points="440,538.564 420,573.205 460,573.205" transform="rotate(240 400 400)" fill="green" stroke="black" stroke-width="0.5" />
<polygon points="440,607.846 420,573.205 460,573.205" transform="rotate(240 400 400)" fill="green" stroke="black" stroke-width="0.5" />
<polygon points="480,538.564 460,573.205 500,573.205" transform="rotate(240 400 400)" fill="green" stroke="black" stroke-width="0.5" />
<polygon points="480,607.846 460,573.205 500,573.205" transform="rotate(240 400 400)" fill="green" stroke="black" stroke-width="0.5" />
<polygon points="300,573.205 280,607.846 320,607.846" transform="rotate(240 400 400)" fill="green" stroke="black" stroke-width="0.5" />
<polygon points="300,642.487 280,607.846 320,607.846" transform="rotate(240 400 400)" fill="green" stroke="black" stroke-width="0.5" />
<polygon points="340,573.205 320,607.846 360,607.846" transform="rotate(240 400 400)" fill="green" stroke="black" stroke-width="0.5" />
<polygon points="340,642.487 320,607.846 360,607.846" transform="rotate(240 400 400)" fill="green" stroke="black" stroke-width="0.5" />
<polygon points="380,573.205 360,607.846 400,607.846" transform="rotate(240 400 400)" fill="green" stroke="black" stroke-width="0.5" />
<polygon points="380,642.487 360,607.846 400,607.846" transform="rotate(240 400 400)" fill="green" stroke="black" stroke-width="0.5" />
<polygon points="420,573.205 400,607.846 440,607.846" transform="rotate(240 400 400)" fill="green" stroke="black" stroke-width="0.5" />
<polygon points="420,642.487 400,607.846 440,607.846" transform="rotate(240 400 400)" fill="green" stroke="black" stroke-width="0.5" />
<polygon points="460,573.205 440,607.846 480,607.846" transform="rotate(240 400 400)" fill="green" stroke="black" stroke-width="0.5" />
<polygon points="460,642.487 440,607.846 480,607.846" transform="rotate(240 400 400)" fill="green" stroke="black" stroke-width="0.5" />
<polygon points="500,573.205 480,607.846 520,607.846" transform="rotate(240 400 400)" fill="green" stroke="black" stroke-width="0.5" />
<polygon points="500,642.487 480,607.846 520,607.846" transform="rotate(240 400 400)" fill="green" stroke="black" stroke-width="0.5" />
<polygon points="280,607.846 260,642.487 300,642.487" transform="rotate(240 400 400)" fill="green" stroke="black" stroke-width="0.5" />
<polygon points="280,677.128 260,642.487 300,642.487" transform="rotate(240 400 400)" fill="green" stroke="black" stroke-width="0.5" />
<polygon points="320,607.846 300,642.487 340,642.487" transform="rotate(240 400 400)" fill="green" stroke="black" stroke-width="0.5" />
<polygon points="320,677.128 300,642.487 340,642.487" transform="rotate(240 400 400)" fill="green" stroke="black" stroke-width="0.5" />
<polygon points="360,607.846 340,642.487 380,642.487" transform="rotate(240 400 400)" fill="green" stroke="black" stroke-width="0.5" />
<polygon points="360,677.128 340,642.487 380,642.487" transform="rotate(240 400 400)" fill="green" stroke="black" stroke-width="0.5" />
<polygon points="400,607.846 380,642.487 420,642.487" transform="rotate(240 400 400)" fill="green" stroke="black" stroke-width="0.5" />
<polygon points="400,677.128 380,642.487 420,642.487" transform="rotate(240 400 400)" fill="green" stroke="black" stroke-width="0.5" />
<polygon points="440,607.846 420,642.487 460,642.487" transform="rotate(240 400 400)" fill="green" stroke="black" stroke-width="0.5" />
<polygon points="440,677.128 420,642.487 460,642.487" transform="rotate(240 400 400)" fill="green" stroke="black" stroke-width="0.5" />
<polygon points="480,607.846 460,642.487 500,642.487" transform="rotate(240 400 400)" fill="green" stroke="black" stroke-width="0.5" />
<polygon points="480,677.128 460,642.487 500,642.487" transform="rotate(240 400 400)" fill="green" stroke="black" stroke-width="0.5" />
<polygon points="520,607.846 500,642.487 540,642.487" transform="rotate(240 400 400)" fill="green" stroke="black" stroke-width="0.5" />
<polygon points="520,677.128 500,642.487 540,642.487" transform="rotate(240 400 400)" fill="green" stroke="black" stroke-width="0.5" />
<polygon points="260,642.487 240,677.128 280,677.128" transform="rotate(240 400 400)" fill="green" stroke="black" stroke-width="0.5" />
<polygon points="260,711.769 240,677.128 280,677.128" transform="rotate(240 400 400)" fill="green" stroke="black" stroke-width="0.5" />
<polygon points="300,642.487 280,677.128 320,677.128" transform="rotate(240 400 400)" fill="green" stroke="black" stroke-width="0.5" />
<polygon points="300,711.769 280,677.128 320,677.128" transform="rotate(240 400 400)" fill="green" stroke="black" stroke-width="0.5" />
<polygon points="340,642.487 320,677.128 360,677.128" transform="rotate(240 400 400)" fill="green" stroke="black" stroke-width="0.5" />
<polygon points="340,711.769 320,677.128 360,677.128" transform="rotate(240 400 400)" fill="green" stroke="black" stroke-width="0.5" />
<polygon points="380,642.487 360,677.128 400,677.128" transform="rotate(240 400 400)" fill="green" stroke="black" stroke-width="0.5" />
<polygon points="380,711.769 360,677.128 400,677.128" transform="rotate(240 400 400)" fill="green" stroke="black" stroke-width="0.5" />
<polygon points="420,642.487 400,677.128 440,677.128" transform="rotate(240 400 400)" fill="green" stroke="black" stroke-width="0.5" />
<polygon points="420,711.769 400,677.128 440,677.128" transform="rotate(240 400 400)" fill="green" stroke="black" stroke-width="0.5" />
<polygon points="460,642.487 440,677.128 480,677.128" transform="rotate(240 400 400)" fill="green" stroke="black" stroke-width="0.5" />
<polygon points="460,711.769 440,677.128 480,677.128" transform="rotate(240 400 400)" fill="green" stroke="black" stroke-width="0.5" />
<polygon points="500,642.487 480,677.128 520,677.128" transform="rotate(240 400 400)" fill="green" stroke="black" stroke-width="0.5" />
<polygon points="500,711.769 480,677.128 520,677.128" transform="rotate(240 400 400)" fill="green" stroke="black" stroke-width="0.5" />
<polygon points="540,642.487 520,677.128 560,677.128" transform="rotate(240 400 400)" fill="green" stroke="black" stroke-width="0.5" />
<polygon points="540,711.769 520,677.128 560,677.128" transform="rotate(240 400 400)" fill="green" stroke="black" stroke-width="0.5" />
<polygon points="240,677.128 220,711.769 260,711.769" transform="rotate(240 400 400)" fill="green" stroke="black" stroke-width="0.5" />
<polygon points="240,746.41 220,711.769 260,711.769" transform="rotate(240 400 400)" fill="green" stroke="black" stroke-width="0.5" />
<polygon points="280,677.128 260,711.769 300,711.769" transform="rotate(240 400 400)" fill="green" stroke="black" stroke-width="0.5" />
<polygon points="280,746.41 260,711.769 300,711.769" transform="rotate(240 400 400)" fill="green" stroke="black" stroke-width="0.5" />
<polygon points="320,677.128 300,711.769 340,711.769" transform="rotate(240 400 400)" fill="green" stroke="black" stroke-width="0.5" />
<polygon points="320,746.41 300,711.769 340,711.769" transform="rotate(240 400 400)" fill="green" stroke="black" stroke-width="0.5" />
<polygon points="360,677.128 340,711.769 380,711.769" transform="rotate(240 400 400)" fill="green" stroke="black" stroke-width="0.5" />
<polygon points="360,746.41 340,711.769 380,711.769" transform="rotate(240 400 400)" fill="green" stroke="black" stroke-width="0.5" />
<polygon points="400,677.128 380,711.769 420,711.769" transform="rotate(240 400 400)" fill="green" stroke="black" stroke-width="0.5" />
<polygon points="400,746.41 380,711.769 420,711.769" transform="rotate(240 400 400)" fill="green" stroke="black" stroke-width="0.5" />
<polygon points="440,677.128 420,711.769 460,711.769" transform="rotate(240 400 400)" fill="green" stroke="black" stroke-width="0.5" />
<polygon points="440,746.41 420,711.769 460,711.769" transform="rotate(240 400 400)" fill="green" stroke="black" stroke-width="0.5" />
<polygon points="480,677.128 460,711.769 500,711.769" transform="rotate(240 400 400)" fill="green" stroke="black" stroke-width="0.5" />
<polygon points="480,746.41 460,711.769 500,711.769" transform="rotate(240 400 400)" fill="green" stroke="black" stroke-width="0.5" />
<polygon points="520,677.128 500,711.769 540,711.769" transform="rotate(240 400 400)" fill="green" stroke="black" stroke-width="0.5" />
<polygon points="520,746.41 500,711.769 540,711.769" transform="rotate(240 400 400)" fill="green" stroke="black" stroke-width="0.5" />
<polygon points="560,677.128 540,711.769 580,711.769" transform="rotate(240 400 400)" fill="green" stroke="black" stroke-width="0.5" />
<polygon points="560,746.41 540,711.769 580,711.769" transform="rotate(240 400 400)" fill="green" stroke="black" stroke-width="0.5" />
<polygon points="220,711.769 200,746.41 240,746.41" transform="rotate(240 400 400)" fill="green" stroke="black" stroke-width="0.5" />
<polygon points="260,711.769 240,746.41 280,746.41" transform="rotate(240 400 400)" fill="green" stroke="black" stroke-width="0.5" />
<polygon points="300,711.769 280,746.41 320,746.41" transform="rotate(240 400 400)" fill="green" stroke="black" stroke-width="0.5" />
<polygon points="340,711.769 320,746.41 360,746.41" transform="rotate(240 400 400)" fill="green" stroke="black" stroke-width="0.5" />
<polygon points="380,711.769 360,746.41 400,746.41" transform="rotate(240 400 400)" fill="green" stroke="black" stroke-width="0.5" />
<polygon points="420,711.769 400,746.41 440,746.41" transform="rotate(240 400 400)" fill="green" stroke="black" stroke-width="0.5" />
<polygon points="460,711.769 440,746.41 480,746.41" transform="rotate(240 400 400)" fill="green" stroke="black" stroke-width="0.5" />
<polygon points="500,711.769 480,746.41 520,746.41" transform="rotate(240 400 400)" fill="green" stroke="black" stroke-width="0.5" />
<polygon points="540,711.769 520,746.41 560,746.41" transform="rotate(240 400 400)" fill="green" stroke="black" stroke-width="0.5" />
<polygon points="580,711.769 560,746.41 600,746.41" transform="rotate(240 400 400)" fill="green" stroke="black" stroke-width="0.5" />
<polygon points="460,746.41 440,781.051 480,781.051" transform="rotate(240 400 400)" fill="green" stroke="black" stroke-width="0.5" />
<polygon points="420,746.41 400,781.051 440,781.051" transform="rotate(240 400 400)" fill="green" stroke="black" stroke-width="0.5" />
<polygon points="380,746.41 360,781.051 400,781.051" transform="rotate(240 400 400)" fill="green" stroke="black" stroke-width="0.5" />
<polygon points="340,746.41 320,781.051 360,781.051" transform="rotate(240 400 400)" fill="green" stroke="black" stroke-width="0.5" />
<polygon points="300,746.41 280,781.051 320,781.051" transform="rotate(240 400 400)" fill="green" stroke="black" stroke-width="0.5" />
<polygon points="500,746.41 480,781.051 460,746.41" transform="rotate(240 400 400)" fill="green" stroke="black" stroke-width="0.5" />
<polygon points="460,746.41 440,781.051 420,746.41" transform="rotate(240 400 400)" fill="green" stroke="black" stroke-width="0.5" />
<polygon points="420,746.41 400,781.051 380,746.41" transform="rotate(240 400 400)" fill="green" stroke="black" stroke-width="0.5" />
<polygon points="380,746.41 360,781.051 340,746.41" transform="rotate(240 400 400)" fill="green" stroke="black" stroke-width="0.5" />
<polygon points="340,746.41 320,781.051 300,746.41" transform="rotate(240 400 400)" fill="green" stroke="black" stroke-width="0.5" />
<polygon points="300,746.41 280,781.051 260,746.41" transform="rotate(240 400 400)" fill="green" stroke="black" stroke-width="0.5" />
<polygon points="400,400 380,434.641 420,434.641" transform="rotate(300 400 400)" fill="green" stroke="black" stroke-width="0.5" />
<polygon points="400,469.282 380,434.641 420,434.641" transform="rotate(300 400 400)" fill="green" stroke="black" stroke-width="0.5" />
<polygon points="380,434.641 360,469.282 400,469.282" transform="rotate(300 400 400)" fill="green" stroke="black" stroke-width="0.5" />
<polygon points="380,503.923 360,469.282 400,469.282" transform="rotate(300 400 400)" fill="green" stroke="black" stroke-width="0.5" />
<polygon points="420,434.641 400,469.282 440,469.282" transform="rotate(300 400 400)" fill="green" stroke="black" stroke-width="0.5" />
<polygon points="420,503.923 400,469.282 440,469.282" transform="rotate(300 400 400)" fill="green" stroke="black" stroke-width="0.5" />
<polygon points="360,469.282 340,503.923 380,503.923" transform="rotate(300 400 400)" fill="green" stroke="black" stroke-width="0.5" />
<polygon points="360,538.564 340,503.923 380,503.923" transform="rotate(300 400 400)" fill="green" stroke="black" stroke-width="0.5" />
<polygon points="400,469.282 380,503.923 420,503.923" transform="rotate(300 400 400)" fill="green" stroke="black" stroke-width="0.5" />
<polygon points="400,538.564 380,503.923 420,503.923" transform="rotate(300 400 400)" fill="green" stroke="black" stroke-width="0.5" />
<polygon points="440,469.282 420,503.923 460,503.923" transform="rotate(300 400 400)" fill="green" stroke="black" stroke-width="0.5" />
<polygon points="440,538.564 420,503.923 460,503.923" transform="rotate(300 400 400)" fill="green" stroke="black" stroke-width="0.5" />
<polygon points="340,503.923 320,538.564 360,538.564" transform="rotate(300 400 400)" fill="green" stroke="black" stroke-width="0.5" />
<polygon points="340,573.205 320,538.564 360,538.564" transform="rotate(300 400 400)" fill="green" stroke="black" stroke-width="0.5" />
<polygon points="380,503.923 360,538.564 400,538.564" transform="rotate(300 400 400)" fill="green" stroke="black" stroke-width="0.5" />
<polygon points="380,573.205 360,538.564 400,538.564" transform="rotate(300 400 400)" fill="green" stroke="black" stroke-width="0.5" />
<polygon points="420,503.923 400,538.564 440,538.564" transform="rotate(300 400 400)" fill="green" stroke="black" stroke-width="0.5" />
<polygon points="420,573.205 400,538.564 440,538.564" transform="rotate(300 400 400)" fill="green" stroke="black" stroke-width="0.5" />
<polygon points="460,503.923 440,538.564 480,538.564" transform="rotate(300 400 400)" fill="green" stroke="black" stroke-width="0.5" />
<polygon points="460,573.205 440,538.564 480,538.564" transform="rotate(300 400 400)" fill="green" stroke="black" stroke-width="0.5" />
<polygon points="320,538.564 300,573.205 340,573.205" transform="rotate(300 400 400)" fill="green" stroke="black" stroke-width="0.5" />
<polygon points="320,607.846 300,573.205 340,573.205" transform="rotate(300 400 400)" fill="green" stroke="black" stroke-width="0.5" />
<polygon points="360,538.564 340,573.205 380,573.205" transform="rotate(300 400 400)" fill="green" stroke="black" stroke-width="0.5" />
<polygon points="360,607.846 340,573.205 380,573.205" transform="rotate(300 400 400)" fill="green" stroke="black" stroke-width="0.5" />
<polygon points="400,538.564 380,573.205 420,573.205" transform="rotate(300 400 400)" fill="green" stroke="black" stroke-width="0.5" />
<polygon points="400,607.846 380,573.205 420,573.205" transform="rotate(300 400 400)" fill="green" stroke="black" stroke-width="0.5" />
<polygon points="440,538.564 420,573.205 460,573.205" transform="rotate(300 400 400)" fill="green" stroke="black" stroke-width="0.5" />
<polygon points="440,607.846 420,573.205 460,573.205" transform="rotate(300 400 400)" fill="green" stroke="black" stroke-width="0.5" />
<polygon points="480,538.564 460,573.205 500,573.205" transform="rotate(300 400 400)" fill="green" stroke="black" stroke-width="0.5" />
<polygon points="480,607.846 460,573.205 500,573.205" transform="rotate(300 400 400)" fill="green" stroke="black" stroke-width="0.5" />
<polygon points="300,573.205 280,607.846 320,607.846" transform="rotate(300 400 400)" fill="green" stroke="black" stroke-width="0.5" />
<polygon points="300,642.487 280,607.846 320,607.846" transform="rotate(300 400 400)" fill="green" stroke="black" stroke-width="0.5" />
<polygon points="340,573.205 320,607.846 360,607.846" transform="rotate(300 400 400)" fill="green" stroke="black" stroke-width="0.5" />
<polygon points="340,642.487 320,607.846 360,607.846" transform="rotate(300 400 400)" fill="green" stroke="black" stroke-width="0.5" />
<polygon points="380,573.205 360,607.846 400,607.846" transform="rotate(300 400 400)" fill="green" stroke="black" stroke-width="0.5" />
<polygon points="380,642.487 360,607.846 400,607.846" transform="rotate(300 400 400)" fill="green" stroke="black" stroke-width="0.5" />
<polygon points="420,573.205 400,607.846 440,607.846" transform="rotate(300 400 400)" fill="green" stroke="black" stroke-width="0.5" />
<polygon points="420,642.487 400,607.846 440,607.846" transform="rotate(300 400 400)" fill="green" stroke="black" stroke-width="0.5" />
<polygon points="460,573.205 440,607.846 480,607.846" transform="rotate(300 400 400)" fill="green" stroke="black" stroke-width="0.5" />
<polygon points="460,642.487 440,607.846 480,607.846" transform="rotate(300 400 400)" fill="green" stroke="black" stroke-width="0.5" />
<polygon points="500,573.205 480,607.846 520,607.846" transform="rotate(300 400 400)" fill="green" stroke="black" stroke-width="0.5" />
<polygon points="500,642.487 480,607.846 520,607.846" transform="rotate(300 400 400)" fill="green" stroke="black" stroke-width="0.5" />
<polygon points="280,607.846 260,642.487 300,642.487" transform="rotate(300 400 400)" fill="green" stroke="black" stroke-width="0.5" />
<polygon points="280,677.128 260,642.487 300,642.487" transform="rotate(300 400 400)" fill="green" stroke="black" stroke-width="0.5" />
<polygon points="320,607.846 300,642.487 340,642.487" transform="rotate(300 400 400)" fill="green" stroke="black" stroke-width="0.5" />
<polygon points="320,677.128 300,642.487 340,642.487" transform="rotate(300 400 400)" fill="green" stroke="black" stroke-width="0.5" />
<polygon points="360,607.846 340,642.487 380,642.487" transform="rotate(300 400 400)" fill="green" stroke="black" stroke-width="0.5" />
<polygon points="360,677.128 340,642.487 380,642.487" transform="rotate(300 400 400)" fill="green" stroke="black" stroke-width="0.5" />
<polygon points="400,607.846 380,642.487 420,642.487" transform="rotate(300 400 400)" fill="green" stroke="black" stroke-width="0.5" />
<polygon points="400,677.128 380,642.487 420,642.487" transform="rotate(300 400 400)" fill="green" stroke="black" stroke-width="0.5" />
<polygon points="440,607.846 420,642.487 460,642.487" transform="rotate(300 400 400)" fill="green" stroke="black" stroke-width="0.5" />
<polygon points="440,677.128 420,642.487 460,642.487" transform="rotate(300 400 400)" fill="green" stroke="black" stroke-width="0.5" />
<polygon points="480,607.846 460,642.487 500,642.487" transform="rotate(300 400 400)" fill="green" stroke="black" stroke-width="0.5" />
<polygon points="480,677.128 460,642.487 500,642.487" transform="rotate(300 400 400)" fill="green" stroke="black" stroke-width="0.5" />
<polygon points="520,607.846 500,642.487 540,642.487" transform="rotate(300 400 400)" fill="green" stroke="black" stroke-width="0.5" />
<polygon points="520,677.128 500,642.487 540,642.487" transform="rotate(300 400 400)" fill="green" stroke="black" stroke-width="0.5" />
<polygon points="260,642.487 240,677.128 280,677.128" transform="rotate(300 400 400)" fill="green" stroke="black" stroke-width="0.5" />
<polygon points="260,711.769 240,677.128 280,677.128" transform="rotate(300 400 400)" fill="green" stroke="black" stroke-width="0.5" />
<polygon points="300,642.487 280,677.128 320,677.128" transform="rotate(300 400 400)" fill="green" stroke="black" stroke-width="0.5" />
<polygon points="300,711.769 280,677.128 320,677.128" transform="rotate(300 400 400)" fill="green" stroke="black" stroke-width="0.5" />
<polygon points="340,642.487 320,677.128 360,677.128" transform="rotate(300 400 400)" fill="green" stroke="black" stroke-width="0.5" />
<polygon points="340,711.769 320,677.128 360,677.128" transform="rotate(300 400 400)" fill="green" stroke="black" stroke-width="0.5" />
<polygon points="380,642.487 360,677.128 400,677.128" transform="rotate(300 400 400)" fill="green" stroke="black" stroke-width="0.5" />
<polygon points="380,711.769 360,677.128 400,677.128" transform="rotate(300 400 400)" fill="green" stroke="black" stroke-width="0.5" />
<polygon points="420,642.487 400,677.128 440,677.128" transform="rotate(300 400 400)" fill="green" stroke="black" stroke-width="0.5" />
<polygon points="420,711.769 400,677.128 440,677.128" transform="rotate(300 400 400)" fill="green" stroke="black" stroke-width="0.5" />
<polygon points="460,642.487 440,677.128 480,677.128" transform="rotate(300 400 400)" fill="green" stroke="black" stroke-width="0.5" />
<polygon points="460,711.769 440,677.128 480,677.128" transform="rotate(300 400 400)" fill="green" stroke="black" stroke-width="0.5" />
<polygon points="500,642.487 480,677.128 520,677.128" transform="rotate(300 400 400)" fill="green" stroke="black" stroke-width="0.5" />
<polygon points="500,711.769 480,677.128 520,677.128" transform="rotate(300 400 400)" fill="green" stroke="black" stroke-width="0.5" />
<polygon points="540,642.487 520,677.128 560,677.128" transform="rotate(300 400 400)" fill="green" stroke="black" stroke-width="0.5" />
<polygon points="540,711.769 520,677.128 560,677.128" transform="rotate(300 400 400)" fill="green" stroke="black" stroke-width="0.5" />
<polygon points="240,677.128 220,711.769 260,711.769" transform="rotate(300 400 400)" fill="green" stroke="black" stroke-width="0.5" />
<polygon points="240,746.41 220,711.769 260,711.769" transform="rotate(300 400 400)" fill="green" stroke="black" stroke-width="0.5" />
<polygon points="280,677.128 260,711.769 300,711.769" transform="rotate(300 400 400)" fill="green" stroke="black" stroke-width="0.5" />
<polygon points="280,746.41 260,711.769 300,711.769" transform="rotate(300 400 400)" fill="green" stroke="black" stroke-width="0.5" />
<polygon points="320,677.128 300,711.769 340,711.769" transform="rotate(300 400 400)" fill="green" stroke="black" stroke-width="0.5" />
<polygon points="320,746.41 300,711.769 340,711.769" transform="rotate(300 400 400)" fill="green" stroke="black" stroke-width="0.5" />
<polygon points="360,677.128 340,711.769 380,711.769" transform="rotate(300 400 400)" fill="green" stroke="black" stroke-width="0.5" />
<polygon points="360,746.41 340,711.769 380,711.769" transform="rotate(300 400 400)" fill="green" stroke="black" stroke-width="0.5" />
<polygon points="400,677.128 380,711.769 420,711.769" transform="rotate(300 400 400)" fill="green" stroke="black" stroke-width="0.5" />
<polygon points="400,746.41 380,711.769 420,711.769" transform="rotate(300 400 400)" fill="green" stroke="black" stroke-width="0.5" />
<polygon points="440,677.128 420,711.769 460,711.769" transform="rotate(300 400 400)" fill="green" stroke="black" stroke-width="0.5" />
<polygon points="440,746.41 420,711.769 460,711.769" transform="rotate(300 400 400)" fill="green" stroke="black" stroke-width="0.5" />
<polygon points="480,677.128 460,711.769 500,711.769" transform="rotate(300 400 400)" fill="green" stroke="black" stroke-width="0.5" />
<polygon points="480,746.41 460,711.769 500,711.769" transform="rotate(300 400 400)" fill="green" stroke="black" stroke-width="0.5" />
<polygon points="520,677.128 500,711.769 540,711.769" transform="rotate(300 400 400)" fill="green" stroke="black" stroke-width="0.5" />
<polygon points="520,746.41 500,711.769 540,711.769" transform="rotate(300 400 400)" fill="green" stroke="black" stroke-width="0.5" />
<polygon points="560,677.128 540,711.769 580,711.769" transform="rotate(300 400 400)" fill="green" stroke="black" stroke-width="0.5" />
<polygon points="560,746.41 540,711.769 580,711.769" transform="rotate(300 400 400)" fill="green" stroke="black" stroke-width="0.5" />
<polygon points="220,711.769 200,746.41 240,746.41" transform="rotate(300 400 400)" fill="green" stroke="black" stroke-width="0.5" />
<polygon points="260,711.769 240,746.41 280,746.41" transform="rotate(300 400 400)" fill="green" stroke="black" stroke-width="0.5" />
<polygon points="300,711.769 280,746.41 320,746.41" transform="rotate(300 400 400)" fill="green" stroke="black" stroke-width="0.5" />
<polygon points="340,711.769 320,746.41 360,746.41" transform="rotate(300 400 400)" fill="green" stroke="black" stroke-width="0.5" />
<polygon points="380,711.769 360,746.41 400,746.41" transform="rotate(300 400 400)" fill="green" stroke="black" stroke-width="0.5" />
<polygon points="420,711.769 400,746.41 440,746.41" transform="rotate(300 400 400)" fill="green" stroke="black" stroke-width="0.5" />
<polygon points="460,711.769 440,746.41 480,746.41" transform="rotate(300 400 400)" fill="green" stroke="black" stroke-width="0.5" />
<polygon points="500,711.769 480,746.41 520,746.41" transform="rotate(300 400 400)" fill="green" stroke="black" stroke-width="0.5" />
<polygon points="540,711.769 520,746.41 560,746.41" transform="rotate(300 400 400)" fill="green" stroke="black" stroke-width="0.5" />
<polygon points="580,711.769 560,746.41 600,746.41" transform="rotate(300 400 400)" fill="green" stroke="black" stroke-width="0.5" />
<polygon points="460,746.41 440,781.051 480,781.051" transform="rotate(300 400 400)" fill="green" stroke="black" stroke-width="0.5" />
<polygon points="420,746.41 400,781.051 440,781.051" transform="rotate(300 400 400)" fill="green" stroke="black" stroke-width="0.5" />
<polygon points="380,746.41 360,781.051 400,781.051" transform="rotate(300 400 400)" fill="green" stroke="black" stroke-width="0.5" />
<polygon points="340,746.41 320,781.051 360,781.051" transform="rotate(300 400 400)" fill="green" stroke="black" stroke-width="0.5" />
<polygon points="300,746.41 280,781.051 320,781.051" transform="rotate(300 400 400)" fill="green" stroke="black" stroke-width="0.5" />
<polygon points="500,746.41 480,781.051 460,746.41" transform="rotate(300 400 400)" fill="green" stroke="black" stroke-width="0.5" />
<polygon points="460,746.41 440,781.051 420,746.41" transform="rotate(300 400 400)" fill="green" stroke="black" stroke-width="0.5" />
<polygon points="420,746.41 400,781.051 380,746.41" transform="rotate(300 400 400)" fill="green" stroke="black" stroke-width="0.5" />
<polygon points="380,746.41 360,781.051 340,746.41" transform="rotate(300 400 400)" fill="green" stroke="black" stroke-width="0.5" />
<polygon points="340,746.41 320,781.051 300,746.41" transform="rotate(300 400 400)" fill="green" stroke="black" stroke-width="0.5" />
<polygon points="300,746.41 280,781.051 260,746.41" transform="rotate(300 400 400)" fill="green" stroke="black" stroke-width="0.5" />
</svg>
