<svg version="1.1" baseProfile="full" xmlns="http://www.w3.org/2000/svg">
<circle cx="250" cy="250" r="250" transform="rotate(0 0 0)" fill="blue" stroke="black" stroke-width="0.5" />
<rect x="73.2233"  y="73.2233" width="15" height="110" transform="rotate(0 73.2233 73.2233)" fill="green" stroke="black" stroke-width="0.5" />
<rect x="88.2233"  y="73.2233" width="15" height="110" transform="rotate(0 73.2233 73.2233)" fill="green" stroke="black" stroke-width="0.5" />
<rect x="103.223"  y="73.2233" width="15" height="110" transform="rotate(0 73.2233 73.2233)" fill="green" stroke="black" stroke-width="0.5" />
<rect x="118.223"  y="73.2233" width="15" height="110" transform="rotate(0 73.2233 73.2233)" fill="green" stroke="black" stroke-width="0.5" />
<rect x="133.223"  y="73.2233" width="15" height="110" transform="rotate(0 73.2233 73.2233)" fill="green" stroke="black" stroke-width="0.5" />
<rect x="148.223"  y="73.2233" width="15" height="110" transform="rotate(0 73.2233 73.2233)" fill="green" stroke="black" stroke-width="0.5" />
<rect x="163.223"  y="73.2233" width="15" height="110" transform="rotate(0 73.2233 73.2233)" fill="green" stroke="black" stroke-width="0.5" />
<rect x="178.223"  y="73.2233" width="15" height="110" transform="rotate(0 73.2233 73.2233)" fill="green" stroke="black" stroke-width="0.5" />
<rect x="193.223"  y="73.2233" width="15" height="110" transform="rotate(0 73.2233 73.2233)" fill="green" stroke="black" stroke-width="0.5" />
<rect x="208.223"  y="73.2233" width="15" height="110" transform="rotate(0 73.2233 73.2233)" fill="green" stroke="black" stroke-width="0.5" />
<rect x="223.223"  y="73.2233" width="15" height="110" transform="rotate(0 73.2233 73.2233)" fill="green" stroke="black" stroke-width="0.5" />
<rect x="238.223"  y="73.2233" width="15" height="110" transform="rotate(0 73.2233 73.2233)" fill="green" stroke="black" stroke-width="0.5" />
<rect x="253.223"  y="73.2233" width="15" height="110" transform="rotate(0 73.2233 73.2233)" fill="green" stroke="black" stroke-width="0.5" />
<rect x="268.223"  y="73.2233" width="15" height="110" transform="rotate(0 73.2233 73.2233)" fill="green" stroke="black" stroke-width="0.5" />
<rect x="283.223"  y="73.2233" width="15" height="110" transform="rotate(0 73.2233 73.2233)" fill="green" stroke="black" stroke-width="0.5" />
<rect x="298.223"  y="73.2233" width="15" height="110" transform="rotate(0 73.2233 73.2233)" fill="green" stroke="black" stroke-width="0.5" />
<rect x="313.223"  y="73.2233" width="15" height="110" transform="rotate(0 73.2233 73.2233)" fill="green" stroke="black" stroke-width="0.5" />
<rect x="328.223"  y="73.2233" width="15" height="110" transform="rotate(0 73.2233 73.2233)" fill="green" stroke="black" stroke-width="0.5" />
<rect x="343.223"  y="73.2233" width="15" height="110" transform="rotate(0 73.2233 73.2233)" fill="green" stroke="black" stroke-width="0.5" />
<rect x="358.223"  y="73.2233" width="15" height="110" transform="rotate(0 73.2233 73.2233)" fill="green" stroke="black" stroke-width="0.5" />
<rect x="373.223"  y="73.2233" width="15" height="110" transform="rotate(0 73.2233 73.2233)" fill="green" stroke="black" stroke-width="0.5" />
<rect x="388.223"  y="73.2233" width="15" height="110" transform="rotate(0 73.2233 73.2233)" fill="green" stroke="black" stroke-width="0.5" />
<rect x="403.223"  y="73.2233" width="15" height="110" transform="rotate(0 73.2233 73.2233)" fill="green" stroke="black" stroke-width="0.5" />
<rect x="73.2233"  y="183.223" width="15" height="110" transform="rotate(0 73.2233 73.2233)" fill="green" stroke="black" stroke-width="0.5" />
<rect x="88.2233"  y="183.223" width="15" height="110" transform="rotate(0 73.2233 73.2233)" fill="green" stroke="black" stroke-width="0.5" />
<rect x="103.223"  y="183.223" width="15" height="110" transform="rotate(0 73.2233 73.2233)" fill="green" stroke="black" stroke-width="0.5" />
<rect x="118.223"  y="183.223" width="15" height="110" transform="rotate(0 73.2233 73.2233)" fill="green" stroke="black" stroke-width="0.5" />
<rect x="133.223"  y="183.223" width="15" height="110" transform="rotate(0 73.2233 73.2233)" fill="green" stroke="black" stroke-width="0.5" />
<rect x="148.223"  y="183.223" width="15" height="110" transform="rotate(0 73.2233 73.2233)" fill="green" stroke="black" stroke-width="0.5" />
<rect x="163.223"  y="183.223" width="15" height="110" transform="rotate(0 73.2233 73.2233)" fill="green" stroke="black" stroke-width="0.5" />
<rect x="178.223"  y="183.223" width="15" height="110" transform="rotate(0 73.2233 73.2233)" fill="green" stroke="black" stroke-width="0.5" />
<rect x="193.223"  y="183.223" width="15" height="110" transform="rotate(0 73.2233 73.2233)" fill="green" stroke="black" stroke-width="0.5" />
<rect x="208.223"  y="183.223" width="15" height="110" transform="rotate(0 73.2233 73.2233)" fill="green" stroke="black" stroke-width="0.5" />
<rect x="223.223"  y="183.223" width="15" height="110" transform="rotate(0 73.2233 73.2233)" fill="green" stroke="black" stroke-width="0.5" />
<rect x="238.223"  y="183.223" width="15" height="110" transform="rotate(0 73.2233 73.2233)" fill="green" stroke="black" stroke-width="0.5" />
<rect x="253.223"  y="183.223" width="15" height="110" transform="rotate(0 73.2233 73.2233)" fill="green" stroke="black" stroke-width="0.5" />
<rect x="268.223"  y="183.223" width="15" height="110" transform="rotate(0 73.2233 73.2233)" fill="green" stroke="black" stroke-width="0.5" />
<rect x="283.223"  y="183.223" width="15" height="110" transform="rotate(0 73.2233 73.2233)" fill="green" stroke="black" stroke-width="0.5" />
<rect x="298.223"  y="183.223" width="15" height="110" transform="rotate(0 73.2233 73.2233)" fill="green" stroke="black" stroke-width="0.5" />
<rect x="313.223"  y="183.223" width="15" height="110" transform="rotate(0 73.2233 73.2233)" fill="green" stroke="black" stroke-width="0.5" />
<rect x="328.223"  y="183.223" width="15" height="110" transform="rotate(0 73.2233 73.2233)" fill="green" stroke="black" stroke-width="0.5" />
<rect x="343.223"  y="183.223" width="15" height="110" transform="rotate(0 73.2233 73.2233)" fill="green" stroke="black" stroke-width="0.5" />
<rect x="358.223"  y="183.223" width="15" height="110" transform="rotate(0 73.2233 73.2233)" fill="green" stroke="black" stroke-width="0.5" />
<rect x="373.223"  y="183.223" width="15" height="110" transform="rotate(0 73.2233 73.2233)" fill="green" stroke="black" stroke-width="0.5" />
<rect x="388.223"  y="183.223" width="15" height="110" transform="rotate(0 73.2233 73.2233)" fill="green" stroke="black" stroke-width="0.5" />
<rect x="403.223"  y="183.223" width="15" height="110" transform="rotate(0 73.2233 73.2233)" fill="green" stroke="black" stroke-width="0.5" />
<rect x="73.2233"  y="293.223" width="15" height="110" transform="rotate(0 73.2233 73.2233)" fill="green" stroke="black" stroke-width="0.5" />
<rect x="88.2233"  y="293.223" width="15" height="110" transform="rotate(0 73.2233 73.2233)" fill="green" stroke="black" stroke-width="0.5" />
<rect x="103.223"  y="293.223" width="15" height="110" transform="rotate(0 73.2233 73.2233)" fill="green" stroke="black" stroke-width="0.5" />
<rect x="118.223"  y="293.223" width="15" height="110" transform="rotate(0 73.2233 73.2233)" fill="green" stroke="black" stroke-width="0.5" />
<rect x="133.223"  y="293.223" width="15" height="110" transform="rotate(0 73.2233 73.2233)" fill="green" stroke="black" stroke-width="0.5" />
<rect x="148.223"  y="293.223" width="15" height="110" transform="rotate(0 73.2233 73.2233)" fill="green" stroke="black" stroke-width="0.5" />
<rect x="163.223"  y="293.223" width="15" height="110" transform="rotate(0 73.2233 73.2233)" fill="green" stroke="black" stroke-width="0.5" />
<rect x="178.223"  y="293.223" width="15" height="110" transform="rotate(0 73.2233 73.2233)" fill="green" stroke="black" stroke-width="0.5" />
<rect x="193.223"  y="293.223" width="15" height="110" transform="rotate(0 73.2233 73.2233)" fill="green" stroke="black" stroke-width="0.5" />
<rect x="208.223"  y="293.223" width="15" height="110" transform="rotate(0 73.2233 73.2233)" fill="green" stroke="black" stroke-width="0.5" />
<rect x="223.223"  y="293.223" width="15" height="110" transform="rotate(0 73.2233 73.2233)" fill="green" stroke="black" stroke-width="0.5" />
<rect x="238.223"  y="293.223" width="15" height="110" transform="rotate(0 73.2233 73.2233)" fill="green" stroke="black" stroke-width="0.5" />
<rect x="253.223"  y="293.223" width="15" height="110" transform="rotate(0 73.2233 73.2233)" fill="green" stroke="black" stroke-width="0.5" />
<rect x="268.223"  y="293.223" width="15" height="110" transform="rotate(0 73.2233 73.2233)" fill="green" stroke="black" stroke-width="0.5" />
<rect x="283.223"  y="293.223" width="15" height="110" transform="rotate(0 73.2233 73.2233)" fill="green" stroke="black" stroke-width="0.5" />
<rect x="298.223"  y="293.223" width="15" height="110" transform="rotate(0 73.2233 73.2233)" fill="green" stroke="black" stroke-width="0.5" />
<rect x="313.223"  y="293.223" width="15" height="110" transform="rotate(0 73.2233 73.2233)" fill="green" stroke="black" stroke-width="0.5" />
<rect x="328.223"  y="293.223" width="15" height="110" transform="rotate(0 73.2233 73.2233)" fill="green" stroke="black" stroke-width="0.5" />
<rect x="343.223"  y="293.223" width="15" height="110" transform="rotate(0 73.2233 73.2233)" fill="green" stroke="black" stroke-width="0.5" />
<rect x="358.223"  y="293.223" width="15" height="110" transform="rotate(0 73.2233 73.2233)" fill="green" stroke="black" stroke-width="0.5" />
<rect x="373.223"  y="293.223" width="15" height="110" transform="rotate(0 73.2233 73.2233)" fill="green" stroke="black" stroke-width="0.5" />
<rect x="388.223"  y="293.223" width="15" height="110" transform="rotate(0 73.2233 73.2233)" fill="green" stroke="black" stroke-width="0.5" />
<rect x="403.223"  y="293.223" width="15" height="110" transform="rotate(0 73.2233 73.2233)" fill="green" stroke="black" stroke-width="0.5" />
<rect x="73.2233"  y="403.223" width="110" height="15" transform="rotate(0 73.2233 73.2233)" fill="green" stroke="black" stroke-width="0.5" />
<rect x="183.223"  y="403.223" width="110" height="15" transform="rotate(0 73.2233 73.2233)" fill="green" stroke="black" stroke-width="0.5" />
<rect x="293.223"  y="403.223" width="110" height="15" transform="rotate(0 73.2233 73.2233)" fill="green" stroke="black" stroke-width="0.5" />
<rect x="250"  y="426.777" width="110" height="15" transform="rotate(0 250 250)" fill="green" stroke="black" stroke-width="0.5" />
<rect x="140"  y="426.777" width="110" height="15" transform="rotate(0 250 250)" fill="green" stroke="black" stroke-width="0.5" />
<rect x="250"  y="441.777" width="110" height="15" transform="rotate(0 250 250)" fill="green" stroke="black" stroke-width="0.5" />
<rect x="140"  y="441.777" width="110" height="15" transform="rotate(0 250 250)" fill="green" stroke="black" stroke-width="0.5" />
<rect x="250"  y="456.777" width="110" height="15" transform="rotate(0 250 250)" fill="green" stroke="black" stroke-width="0.5" />
<rect x="140"  y="456.777" width="110" height="15" transform="rotate(0 250 250)" fill="green" stroke="black" stroke-width="0.5" />
<rect x="250"  y="426.777" width="110" height="15" transform="rotate(90 250 250)" fill="green" stroke="black" stroke-width="0.5" />
<rect x="140"  y="426.777" width="110" height="15" transform="rotate(90 250 250)" fill="green" stroke="black" stroke-width="0.5" />
<rect x="250"  y="441.777" width="110" height="15" transform="rotate(90 250 250)" fill="green" stroke="black" stroke-width="0.5" />
<rect x="140"  y="441.777" width="110" height="15" transform="rotate(90 250 250)" fill="green" stroke="black" stroke-width="0.5" />
<rect x="250"  y="456.777" width="110" height="15" transform="rotate(90 250 250)" fill="green" stroke="black" stroke-width="0.5" />
<rect x="140"  y="456.777" width="110" height="15" transform="rotate(90 250 250)" fill="green" stroke="black" stroke-width="0.5" />
<rect x="250"  y="426.777" width="110" height="15" transform="rotate(180 250 250)" fill="green" stroke="black" stroke-width="0.5" />
<rect x="140"  y="426.777" width="110" height="15" transform="rotate(180 250 250)" fill="green" stroke="black" stroke-width="0.5" />
<rect x="250"  y="441.777" width="110" height="15" transform="rotate(180 250 250)" fill="green" stroke="black" stroke-width="0.5" />
<rect x="140"  y="441.777" width="110" height="15" transform="rotate(180 250 250)" fill="green" stroke="black" stroke-width="0.5" />
<rect x="250"  y="456.777" width="110" height="15" transform="rotate(180 250 250)" fill="green" stroke="black" stroke-width="0.5" />
<rect x="140"  y="456.777" width="110" height="15" transform="rotate(180 250 250)" fill="green" stroke="black" stroke-width="0.5" />
<rect x="250"  y="426.777" width="110" height="15" transform="rotate(270 250 250)" fill="green" stroke="black" stroke-width="0.5" />
<rect x="140"  y="426.777" width="110" height="15" transform="rotate(270 250 250)" fill="green" stroke="black" stroke-width="0.5" />
<rect x="250"  y="441.777" width="110" height="15" transform="rotate(270 250 250)" fill="green" stroke="black" stroke-width="0.5" />
<rect x="140"  y="441.777" width="110" height="15" transform="rotate(270 250 250)" fill="green" stroke="black" stroke-width="0.5" />
<rect x="250"  y="456.777" width="110" height="15" transform="rotate(270 250 250)" fill="green" stroke="black" stroke-width="0.5" />
<rect x="140"  y="456.777" width="110" height="15" transform="rotate(270 250 250)" fill="green" stroke="black" stroke-width="0.5" />
</svg>
