<svg version="1.1" baseProfile="full" xmlns="http://www.w3.org/2000/svg">
<circle cx="300" cy="300" r="300" transform="rotate(0 0 0)" fill="brown" stroke="black" stroke-width="0.5" />
<circle cx="300" cy="50" r="50" transform="rotate(0 300 300)" fill="green" stroke="black" stroke-width="0.5" />
<circle cx="300" cy="50" r="50" transform="rotate(24 300 300)" fill="green" stroke="black" stroke-width="0.5" />
<circle cx="300" cy="50" r="50" transform="rotate(48 300 300)" fill="green" stroke="black" stroke-width="0.5" />
<circle cx="300" cy="50" r="50" transform="rotate(72 300 300)" fill="green" stroke="black" stroke-width="0.5" />
<circle cx="300" cy="50" r="50" transform="rotate(96 300 300)" fill="green" stroke="black" stroke-width="0.5" />
<circle cx="300" cy="50" r="50" transform="rotate(120 300 300)" fill="green" stroke="black" stroke-width="0.5" />
<circle cx="300" cy="50" r="50" transform="rotate(144 300 300)" fill="green" stroke="black" stroke-width="0.5" />
<circle cx="300" cy="50" r="50" transform="rotate(168 300 300)" fill="green" stroke="black" stroke-width="0.5" />
<circle cx="300" cy="50" r="50" transform="rotate(192 300 300)" fill="green" stroke="black" stroke-width="0.5" />
<circle cx="300" cy="50" r="50" transform="rotate(216 300 300)" fill="green" stroke="black" stroke-width="0.5" />
<circle cx="300" cy="50" r="50" transform="rotate(240 300 300)" fill="green" stroke="black" stroke-width="0.5" />
<circle cx="300" cy="50" r="50" transform="rotate(264 300 300)" fill="green" stroke="black" stroke-width="0.5" />
<circle cx="300" cy="50" r="50" transform="rotate(288 300 300)" fill="green" stroke="black" stroke-width="0.5" />
<circle cx="300" cy="50" r="50" transform="rotate(312 300 300)" fill="green" stroke="black" stroke-width="0.5" />
<circle cx="300" cy="50" r="50" transform="rotate(336 300 300)" fill="green" stroke="black" stroke-width="0.5" />
<circle cx="300" cy="150" r="50" transform="rotate(0 300 300)" fill="green" stroke="black" stroke-width="0.5" />
<circle cx="300" cy="150" r="50" transform="rotate(40 300 300)" fill="green" stroke="black" stroke-width="0.5" />
<circle cx="300" cy="150" r="50" transform="rotate(80 300 300)" fill="green" stroke="black" stroke-width="0.5" />
<circle cx="300" cy="150" r="50" transform="rotate(120 300 300)" fill="green" stroke="black" stroke-width="0.5" />
<circle cx="300" cy="150" r="50" transform="rotate(160 300 300)" fill="green" stroke="black" stroke-width="0.5" />
<circle cx="300" cy="150" r="50" transform="rotate(200 300 300)" fill="green" stroke="black" stroke-width="0.5" />
<circle cx="300" cy="150" r="50" transform="rotate(240 300 300)" fill="green" stroke="black" stroke-width="0.5" />
<circle cx="300" cy="150" r="50" transform="rotate(280 300 300)" fill="green" stroke="black" stroke-width="0.5" />
<circle cx="300" cy="150" r="50" transform="rotate(320 300 300)" fill="green" stroke="black" stroke-width="0.5" />
<circle cx="300" cy="250" r="50" transform="rotate(0 300 300)" fill="green" stroke="black" stroke-width="0.5" />
<circle cx="300" cy="250" r="50" transform="rotate(180 300 300)" fill="green" stroke="black" stroke-width="0.5" />
</svg>
