<svg version="1.1" baseProfile="full" xmlns="http://www.w3.org/2000/svg">
<circle cx="250" cy="250" r="250" transform="rotate(0 0 0)" fill="blue" stroke="black" stroke-width="0.5" />
<polygon points="250,250 230,284.641 270,284.641" transform="rotate(0 250 250)" fill="green" stroke="black" stroke-width="0.5" />
<polygon points="250,319.282 230,284.641 270,284.641" transform="rotate(0 250 250)" fill="green" stroke="black" stroke-width="0.5" />
<polygon points="230,284.641 210,319.282 250,319.282" transform="rotate(0 250 250)" fill="green" stroke="black" stroke-width="0.5" />
<polygon points="230,353.923 210,319.282 250,319.282" transform="rotate(0 250 250)" fill="green" stroke="black" stroke-width="0.5" />
<polygon points="270,284.641 250,319.282 290,319.282" transform="rotate(0 250 250)" fill="green" stroke="black" stroke-width="0.5" />
<polygon points="270,353.923 250,319.282 290,319.282" transform="rotate(0 250 250)" fill="green" stroke="black" stroke-width="0.5" />
<polygon points="210,319.282 190,353.923 230,353.923" transform="rotate(0 250 250)" fill="green" stroke="black" stroke-width="0.5" />
<polygon points="210,388.564 190,353.923 230,353.923" transform="rotate(0 250 250)" fill="green" stroke="black" stroke-width="0.5" />
<polygon points="250,319.282 230,353.923 270,353.923" transform="rotate(0 250 250)" fill="green" stroke="black" stroke-width="0.5" />
<polygon points="250,388.564 230,353.923 270,353.923" transform="rotate(0 250 250)" fill="green" stroke="black" stroke-width="0.5" />
<polygon points="290,319.282 270,353.923 310,353.923" transform="rotate(0 250 250)" fill="green" stroke="black" stroke-width="0.5" />
<polygon points="290,388.564 270,353.923 310,353.923" transform="rotate(0 250 250)" fill="green" stroke="black" stroke-width="0.5" />
<polygon points="190,353.923 170,388.564 210,388.564" transform="rotate(0 250 250)" fill="green" stroke="black" stroke-width="0.5" />
<polygon points="190,423.205 170,388.564 210,388.564" transform="rotate(0 250 250)" fill="green" stroke="black" stroke-width="0.5" />
<polygon points="230,353.923 210,388.564 250,388.564" transform="rotate(0 250 250)" fill="green" stroke="black" stroke-width="0.5" />
<polygon points="230,423.205 210,388.564 250,388.564" transform="rotate(0 250 250)" fill="green" stroke="black" stroke-width="0.5" />
<polygon points="270,353.923 250,388.564 290,388.564" transform="rotate(0 250 250)" fill="green" stroke="black" stroke-width="0.5" />
<polygon points="270,423.205 250,388.564 290,388.564" transform="rotate(0 250 250)" fill="green" stroke="black" stroke-width="0.5" />
<polygon points="310,353.923 290,388.564 330,388.564" transform="rotate(0 250 250)" fill="green" stroke="black" stroke-width="0.5" />
<polygon points="310,423.205 290,388.564 330,388.564" transform="rotate(0 250 250)" fill="green" stroke="black" stroke-width="0.5" />
<polygon points="170,388.564 150,423.205 190,423.205" transform="rotate(0 250 250)" fill="green" stroke="black" stroke-width="0.5" />
<polygon points="170,457.846 150,423.205 190,423.205" transform="rotate(0 250 250)" fill="green" stroke="black" stroke-width="0.5" />
<polygon points="210,388.564 190,423.205 230,423.205" transform="rotate(0 250 250)" fill="green" stroke="black" stroke-width="0.5" />
<polygon points="210,457.846 190,423.205 230,423.205" transform="rotate(0 250 250)" fill="green" stroke="black" stroke-width="0.5" />
<polygon points="250,388.564 230,423.205 270,423.205" transform="rotate(0 250 250)" fill="green" stroke="black" stroke-width="0.5" />
<polygon points="250,457.846 230,423.205 270,423.205" transform="rotate(0 250 250)" fill="green" stroke="black" stroke-width="0.5" />
<polygon points="290,388.564 270,423.205 310,423.205" transform="rotate(0 250 250)" fill="green" stroke="black" stroke-width="0.5" />
<polygon points="290,457.846 270,423.205 310,423.205" transform="rotate(0 250 250)" fill="green" stroke="black" stroke-width="0.5" />
<polygon points="330,388.564 310,423.205 350,423.205" transform="rotate(0 250 250)" fill="green" stroke="black" stroke-width="0.5" />
<polygon points="330,457.846 310,423.205 350,423.205" transform="rotate(0 250 250)" fill="green" stroke="black" stroke-width="0.5" />
<polygon points="150,423.205 130,457.846 170,457.846" transform="rotate(0 250 250)" fill="green" stroke="black" stroke-width="0.5" />
<polygon points="190,423.205 170,457.846 210,457.846" transform="rotate(0 250 250)" fill="green" stroke="black" stroke-width="0.5" />
<polygon points="230,423.205 210,457.846 250,457.846" transform="rotate(0 250 250)" fill="green" stroke="black" stroke-width="0.5" />
<polygon points="270,423.205 250,457.846 290,457.846" transform="rotate(0 250 250)" fill="green" stroke="black" stroke-width="0.5" />
<polygon points="310,423.205 290,457.846 330,457.846" transform="rotate(0 250 250)" fill="green" stroke="black" stroke-width="0.5" />
<polygon points="350,423.205 330,457.846 370,457.846" transform="rotate(0 250 250)" fill="green" stroke="black" stroke-width="0.5" />
<polygon points="235,457.846 215,492.487 255,492.487" transform="rotate(0 250 250)" fill="green" stroke="black" stroke-width="0.5" />
<polygon points="275,457.846 255,492.487 235,457.846" transform="rotate(0 250 250)" fill="green" stroke="black" stroke-width="0.5" />
<polygon points="235,457.846 215,492.487 195,457.846" transform="rotate(0 250 250)" fill="green" stroke="black" stroke-width="0.5" />
<polygon points="250,250 230,284.641 270,284.641" transform="rotate(60 250 250)" fill="green" stroke="black" stroke-width="0.5" />
<polygon points="250,319.282 230,284.641 270,284.641" transform="rotate(60 250 250)" fill="green" stroke="black" stroke-width="0.5" />
<polygon points="230,284.641 210,319.282 250,319.282" transform="rotate(60 250 250)" fill="green" stroke="black" stroke-width="0.5" />
<polygon points="230,353.923 210,319.282 250,319.282" transform="rotate(60 250 250)" fill="green" stroke="black" stroke-width="0.5" />
<polygon points="270,284.641 250,319.282 290,319.282" transform="rotate(60 250 250)" fill="green" stroke="black" stroke-width="0.5" />
<polygon points="270,353.923 250,319.282 290,319.282" transform="rotate(60 250 250)" fill="green" stroke="black" stroke-width="0.5" />
<polygon points="210,319.282 190,353.923 230,353.923" transform="rotate(60 250 250)" fill="green" stroke="black" stroke-width="0.5" />
<polygon points="210,388.564 190,353.923 230,353.923" transform="rotate(60 250 250)" fill="green" stroke="black" stroke-width="0.5" />
<polygon points="250,319.282 230,353.923 270,353.923" transform="rotate(60 250 250)" fill="green" stroke="black" stroke-width="0.5" />
<polygon points="250,388.564 230,353.923 270,353.923" transform="rotate(60 250 250)" fill="green" stroke="black" stroke-width="0.5" />
<polygon points="290,319.282 270,353.923 310,353.923" transform="rotate(60 250 250)" fill="green" stroke="black" stroke-width="0.5" />
<polygon points="290,388.564 270,353.923 310,353.923" transform="rotate(60 250 250)" fill="green" stroke="black" stroke-width="0.5" />
<polygon points="190,353.923 170,388.564 210,388.564" transform="rotate(60 250 250)" fill="green" stroke="black" stroke-width="0.5" />
<polygon points="190,423.205 170,388.564 210,388.564" transform="rotate(60 250 250)" fill="green" stroke="black" stroke-width="0.5" />
<polygon points="230,353.923 210,388.564 250,388.564" transform="rotate(60 250 250)" fill="green" stroke="black" stroke-width="0.5" />
<polygon points="230,423.205 210,388.564 250,388.564" transform="rotate(60 250 250)" fill="green" stroke="black" stroke-width="0.5" />
<polygon points="270,353.923 250,388.564 290,388.564" transform="rotate(60 250 250)" fill="green" stroke="black" stroke-width="0.5" />
<polygon points="270,423.205 250,388.564 290,388.564" transform="rotate(60 250 250)" fill="green" stroke="black" stroke-width="0.5" />
<polygon points="310,353.923 290,388.564 330,388.564" transform="rotate(60 250 250)" fill="green" stroke="black" stroke-width="0.5" />
<polygon points="310,423.205 290,388.564 330,388.564" transform="rotate(60 250 250)" fill="green" stroke="black" stroke-width="0.5" />
<polygon points="170,388.564 150,423.205 190,423.205" transform="rotate(60 250 250)" fill="green" stroke="black" stroke-width="0.5" />
<polygon points="170,457.846 150,423.205 190,423.205" transform="rotate(60 250 250)" fill="green" stroke="black" stroke-width="0.5" />
<polygon points="210,388.564 190,423.205 230,423.205" transform="rotate(60 250 250)" fill="green" stroke="black" stroke-width="0.5" />
<polygon points="210,457.846 190,423.205 230,423.205" transform="rotate(60 250 250)" fill="green" stroke="black" stroke-width="0.5" />
<polygon points="250,388.564 230,423.205 270,423.205" transform="rotate(60 250 250)" fill="green" stroke="black" stroke-width="0.5" />
<polygon points="250,457.846 230,423.205 270,423.205" transform="rotate(60 250 250)" fill="green" stroke="black" stroke-width="0.5" />
<polygon points="290,388.564 270,423.205 310,423.205" transform="rotate(60 250 250)" fill="green" stroke="black" stroke-width="0.5" />
<polygon points="290,457.846 270,423.205 310,423.205" transform="rotate(60 250 250)" fill="green" stroke="black" stroke-width="0.5" />
<polygon points="330,388.564 310,423.205 350,423.205" transform="rotate(60 250 250)" fill="green" stroke="black" stroke-width="0.5" />
<polygon points="330,457.846 310,423.205 350,423.205" transform="rotate(60 250 250)" fill="green" stroke="black" stroke-width="0.5" />
<polygon points="150,423.205 130,457.846 170,457.846" transform="rotate(60 250 250)" fill="green" stroke="black" stroke-width="0.5" />
<polygon points="190,423.205 170,457.846 210,457.846" transform="rotate(60 250 250)" fill="green" stroke="black" stroke-width="0.5" />
<polygon points="230,423.205 210,457.846 250,457.846" transform="rotate(60 250 250)" fill="green" stroke="black" stroke-width="0.5" />
<polygon points="270,423.205 250,457.846 290,457.846" transform="rotate(60 250 250)" fill="green" stroke="black" stroke-width="0.5" />
<polygon points="310,423.205 290,457.846 330,457.846" transform="rotate(60 250 250)" fill="green" stroke="black" stroke-width="0.5" />
<polygon points="350,423.205 330,457.846 370,457.846" transform="rotate(60 250 250)" fill="green" stroke="black" stroke-width="0.5" />
<polygon points="235,457.846 215,492.487 255,492.487" transform="rotate(60 250 250)" fill="green" stroke="black" stroke-width="0.5" />
<polygon points="275,457.846 255,492.487 235,457.846" transform="rotate(60 250 250)" fill="green" stroke="black" stroke-width="0.5" />
<polygon points="235,457.846 215,492.487 195,457.846" transform="rotate(60 250 250)" fill="green" stroke="black" stroke-width="0.5" />
<polygon points="250,250 230,284.641 270,284.641" transform="rotate(120 250 250)" fill="green" stroke="black" stroke-width="0.5" />
<polygon points="250,319.282 230,284.641 270,284.641" transform="rotate(120 250 250)" fill="green" stroke="black" stroke-width="0.5" />
<polygon points="230,284.641 210,319.282 250,319.282" transform="rotate(120 250 250)" fill="green" stroke="black" stroke-width="0.5" />
<polygon points="230,353.923 210,319.282 250,319.282" transform="rotate(120 250 250)" fill="green" stroke="black" stroke-width="0.5" />
<polygon points="270,284.641 250,319.282 290,319.282" transform="rotate(120 250 250)" fill="green" stroke="black" stroke-width="0.5" />
<polygon points="270,353.923 250,319.282 290,319.282" transform="rotate(120 250 250)" fill="green" stroke="black" stroke-width="0.5" />
<polygon points="210,319.282 190,353.923 230,353.923" transform="rotate(120 250 250)" fill="green" stroke="black" stroke-width="0.5" />
<polygon points="210,388.564 190,353.923 230,353.923" transform="rotate(120 250 250)" fill="green" stroke="black" stroke-width="0.5" />
<polygon points="250,319.282 230,353.923 270,353.923" transform="rotate(120 250 250)" fill="green" stroke="black" stroke-width="0.5" />
<polygon points="250,388.564 230,353.923 270,353.923" transform="rotate(120 250 250)" fill="green" stroke="black" stroke-width="0.5" />
<polygon points="290,319.282 270,353.923 310,353.923" transform="rotate(120 250 250)" fill="green" stroke="black" stroke-width="0.5" />
<polygon points="290,388.564 270,353.923 310,353.923" transform="rotate(120 250 250)" fill="green" stroke="black" stroke-width="0.5" />
<polygon points="190,353.923 170,388.564 210,388.564" transform="rotate(120 250 250)" fill="green" stroke="black" stroke-width="0.5" />
<polygon points="190,423.205 170,388.564 210,388.564" transform="rotate(120 250 250)" fill="green" stroke="black" stroke-width="0.5" />
<polygon points="230,353.923 210,388.564 250,388.564" transform="rotate(120 250 250)" fill="green" stroke="black" stroke-width="0.5" />
<polygon points="230,423.205 210,388.564 250,388.564" transform="rotate(120 250 250)" fill="green" stroke="black" stroke-width="0.5" />
<polygon points="270,353.923 250,388.564 290,388.564" transform="rotate(120 250 250)" fill="green" stroke="black" stroke-width="0.5" />
<polygon points="270,423.205 250,388.564 290,388.564" transform="rotate(120 250 250)" fill="green" stroke="black" stroke-width="0.5" />
<polygon points="310,353.923 290,388.564 330,388.564" transform="rotate(120 250 250)" fill="green" stroke="black" stroke-width="0.5" />
<polygon points="310,423.205 290,388.564 330,388.564" transform="rotate(120 250 250)" fill="green" stroke="black" stroke-width="0.5" />
<polygon points="170,388.564 150,423.205 190,423.205" transform="rotate(120 250 250)" fill="green" stroke="black" stroke-width="0.5" />
<polygon points="170,457.846 150,423.205 190,423.205" transform="rotate(120 250 250)" fill="green" stroke="black" stroke-width="0.5" />
<polygon points="210,388.564 190,423.205 230,423.205" transform="rotate(120 250 250)" fill="green" stroke="black" stroke-width="0.5" />
<polygon points="210,457.846 190,423.205 230,423.205" transform="rotate(120 250 250)" fill="green" stroke="black" stroke-width="0.5" />
<polygon points="250,388.564 230,423.205 270,423.205" transform="rotate(120 250 250)" fill="green" stroke="black" stroke-width="0.5" />
<polygon points="250,457.846 230,423.205 270,423.205" transform="rotate(120 250 250)" fill="green" stroke="black" stroke-width="0.5" />
<polygon points="290,388.564 270,423.205 310,423.205" transform="rotate(120 250 250)" fill="green" stroke="black" stroke-width="0.5" />
<polygon points="290,457.846 270,423.205 310,423.205" transform="rotate(120 250 250)" fill="green" stroke="black" stroke-width="0.5" />
<polygon points="330,388.564 310,423.205 350,423.205" transform="rotate(120 250 250)" fill="green" stroke="black" stroke-width="0.5" />
<polygon points="330,457.846 310,423.205 350,423.205" transform="rotate(120 250 250)" fill="green" stroke="black" stroke-width="0.5" />
<polygon points="150,423.205 130,457.846 170,457.846" transform="rotate(120 250 250)" fill="green" stroke="black" stroke-width="0.5" />
<polygon points="190,423.205 170,457.846 210,457.846" transform="rotate(120 250 250)" fill="green" stroke="black" stroke-width="0.5" />
<polygon points="230,423.205 210,457.846 250,457.846" transform="rotate(120 250 250)" fill="green" stroke="black" stroke-width="0.5" />
<polygon points="270,423.205 250,457.846 290,457.846" transform="rotate(120 250 250)" fill="green" stroke="black" stroke-width="0.5" />
<polygon points="310,423.205 290,457.846 330,457.846" transform="rotate(120 250 250)" fill="green" stroke="black" stroke-width="0.5" />
<polygon points="350,423.205 330,457.846 370,457.846" transform="rotate(120 250 250)" fill="green" stroke="black" stroke-width="0.5" />
<polygon points="235,457.846 215,492.487 255,492.487" transform="rotate(120 250 250)" fill="green" stroke="black" stroke-width="0.5" />
<polygon points="275,457.846 255,492.487 235,457.846" transform="rotate(120 250 250)" fill="green" stroke="black" stroke-width="0.5" />
<polygon points="235,457.846 215,492.487 195,457.846" transform="rotate(120 250 250)" fill="green" stroke="black" stroke-width="0.5" />
<polygon points="250,250 230,284.641 270,284.641" transform="rotate(180 250 250)" fill="green" stroke="black" stroke-width="0.5" />
<polygon points="250,319.282 230,284.641 270,284.641" transform="rotate(180 250 250)" fill="green" stroke="black" stroke-width="0.5" />
<polygon points="230,284.641 210,319.282 250,319.282" transform="rotate(180 250 250)" fill="green" stroke="black" stroke-width="0.5" />
<polygon points="230,353.923 210,319.282 250,319.282" transform="rotate(180 250 250)" fill="green" stroke="black" stroke-width="0.5" />
<polygon points="270,284.641 250,319.282 290,319.282" transform="rotate(180 250 250)" fill="green" stroke="black" stroke-width="0.5" />
<polygon points="270,353.923 250,319.282 290,319.282" transform="rotate(180 250 250)" fill="green" stroke="black" stroke-width="0.5" />
<polygon points="210,319.282 190,353.923 230,353.923" transform="rotate(180 250 250)" fill="green" stroke="black" stroke-width="0.5" />
<polygon points="210,388.564 190,353.923 230,353.923" transform="rotate(180 250 250)" fill="green" stroke="black" stroke-width="0.5" />
<polygon points="250,319.282 230,353.923 270,353.923" transform="rotate(180 250 250)" fill="green" stroke="black" stroke-width="0.5" />
<polygon points="250,388.564 230,353.923 270,353.923" transform="rotate(180 250 250)" fill="green" stroke="black" stroke-width="0.5" />
<polygon points="290,319.282 270,353.923 310,353.923" transform="rotate(180 250 250)" fill="green" stroke="black" stroke-width="0.5" />
<polygon points="290,388.564 270,353.923 310,353.923" transform="rotate(180 250 250)" fill="green" stroke="black" stroke-width="0.5" />
<polygon points="190,353.923 170,388.564 210,388.564" transform="rotate(180 250 250)" fill="green" stroke="black" stroke-width="0.5" />
<polygon points="190,423.205 170,388.564 210,388.564" transform="rotate(180 250 250)" fill="green" stroke="black" stroke-width="0.5" />
<polygon points="230,353.923 210,388.564 250,388.564" transform="rotate(180 250 250)" fill="green" stroke="black" stroke-width="0.5" />
<polygon points="230,423.205 210,388.564 250,388.564" transform="rotate(180 250 250)" fill="green" stroke="black" stroke-width="0.5" />
<polygon points="270,353.923 250,388.564 290,388.564" transform="rotate(180 250 250)" fill="green" stroke="black" stroke-width="0.5" />
<polygon points="270,423.205 250,388.564 290,388.564" transform="rotate(180 250 250)" fill="green" stroke="black" stroke-width="0.5" />
<polygon points="310,353.923 290,388.564 330,388.564" transform="rotate(180 250 250)" fill="green" stroke="black" stroke-width="0.5" />
<polygon points="310,423.205 290,388.564 330,388.564" transform="rotate(180 250 250)" fill="green" stroke="black" stroke-width="0.5" />
<polygon points="170,388.564 150,423.205 190,423.205" transform="rotate(180 250 250)" fill="green" stroke="black" stroke-width="0.5" />
<polygon points="170,457.846 150,423.205 190,423.205" transform="rotate(180 250 250)" fill="green" stroke="black" stroke-width="0.5" />
<polygon points="210,388.564 190,423.205 230,423.205" transform="rotate(180 250 250)" fill="green" stroke="black" stroke-width="0.5" />
<polygon points="210,457.846 190,423.205 230,423.205" transform="rotate(180 250 250)" fill="green" stroke="black" stroke-width="0.5" />
<polygon points="250,388.564 230,423.205 270,423.205" transform="rotate(180 250 250)" fill="green" stroke="black" stroke-width="0.5" />
<polygon points="250,457.846 230,423.205 270,423.205" transform="rotate(180 250 250)" fill="green" stroke="black" stroke-width="0.5" />
<polygon points="290,388.564 270,423.205 310,423.205" transform="rotate(180 250 250)" fill="green" stroke="black" stroke-width="0.5" />
<polygon points="290,457.846 270,423.205 310,423.205" transform="rotate(180 250 250)" fill="green" stroke="black" stroke-width="0.5" />
<polygon points="330,388.564 310,423.205 350,423.205" transform="rotate(180 250 250)" fill="green" stroke="black" stroke-width="0.5" />
<polygon points="330,457.846 310,423.205 350,423.205" transform="rotate(180 250 250)" fill="green" stroke="black" stroke-width="0.5" />
<polygon points="150,423.205 130,457.846 170,457.846" transform="rotate(180 250 250)" fill="green" stroke="black" stroke-width="0.5" />
<polygon points="190,423.205 170,457.846 210,457.846" transform="rotate(180 250 250)" fill="green" stroke="black" stroke-width="0.5" />
<polygon points="230,423.205 210,457.846 250,457.846" transform="rotate(180 250 250)" fill="green" stroke="black" stroke-width="0.5" />
<polygon points="270,423.205 250,457.846 290,457.846" transform="rotate(180 250 250)" fill="green" stroke="black" stroke-width="0.5" />
<polygon points="310,423.205 290,457.846 330,457.846" transform="rotate(180 250 250)" fill="green" stroke="black" stroke-width="0.5" />
<polygon points="350,423.205 330,457.846 370,457.846" transform="rotate(180 250 250)" fill="green" stroke="black" stroke-width="0.5" />
<polygon points="235,457.846 215,492.487 255,492.487" transform="rotate(180 250 250)" fill="green" stroke="black" stroke-width="0.5" />
<polygon points="275,457.846 255,492.487 235,457.846" transform="rotate(180 250 250)" fill="green" stroke="black" stroke-width="0.5" />
<polygon points="235,457.846 215,492.487 195,457.846" transform="rotate(180 250 250)" fill="green" stroke="black" stroke-width="0.5" />
<polygon points="250,250 230,284.641 270,284.641" transform="rotate(240 250 250)" fill="green" stroke="black" stroke-width="0.5" />
<polygon points="250,319.282 230,284.641 270,284.641" transform="rotate(240 250 250)" fill="green" stroke="black" stroke-width="0.5" />
<polygon points="230,284.641 210,319.282 250,319.282" transform="rotate(240 250 250)" fill="green" stroke="black" stroke-width="0.5" />
<polygon points="230,353.923 210,319.282 250,319.282" transform="rotate(240 250 250)" fill="green" stroke="black" stroke-width="0.5" />
<polygon points="270,284.641 250,319.282 290,319.282" transform="rotate(240 250 250)" fill="green" stroke="black" stroke-width="0.5" />
<polygon points="270,353.923 250,319.282 290,319.282" transform="rotate(240 250 250)" fill="green" stroke="black" stroke-width="0.5" />
<polygon points="210,319.282 190,353.923 230,353.923" transform="rotate(240 250 250)" fill="green" stroke="black" stroke-width="0.5" />
<polygon points="210,388.564 190,353.923 230,353.923" transform="rotate(240 250 250)" fill="green" stroke="black" stroke-width="0.5" />
<polygon points="250,319.282 230,353.923 270,353.923" transform="rotate(240 250 250)" fill="green" stroke="black" stroke-width="0.5" />
<polygon points="250,388.564 230,353.923 270,353.923" transform="rotate(240 250 250)" fill="green" stroke="black" stroke-width="0.5" />
<polygon points="290,319.282 270,353.923 310,353.923" transform="rotate(240 250 250)" fill="green" stroke="black" stroke-width="0.5" />
<polygon points="290,388.564 270,353.923 310,353.923" transform="rotate(240 250 250)" fill="green" stroke="black" stroke-width="0.5" />
<polygon points="190,353.923 170,388.564 210,388.564" transform="rotate(240 250 250)" fill="green" stroke="black" stroke-width="0.5" />
<polygon points="190,423.205 170,388.564 210,388.564" transform="rotate(240 250 250)" fill="green" stroke="black" stroke-width="0.5" />
<polygon points="230,353.923 210,388.564 250,388.564" transform="rotate(240 250 250)" fill="green" stroke="black" stroke-width="0.5" />
<polygon points="230,423.205 210,388.564 250,388.564" transform="rotate(240 250 250)" fill="green" stroke="black" stroke-width="0.5" />
<polygon points="270,353.923 250,388.564 290,388.564" transform="rotate(240 250 250)" fill="green" stroke="black" stroke-width="0.5" />
<polygon points="270,423.205 250,388.564 290,388.564" transform="rotate(240 250 250)" fill="green" stroke="black" stroke-width="0.5" />
<polygon points="310,353.923 290,388.564 330,388.564" transform="rotate(240 250 250)" fill="green" stroke="black" stroke-width="0.5" />
<polygon points="310,423.205 290,388.564 330,388.564" transform="rotate(240 250 250)" fill="green" stroke="black" stroke-width="0.5" />
<polygon points="170,388.564 150,423.205 190,423.205" transform="rotate(240 250 250)" fill="green" stroke="black" stroke-width="0.5" />
<polygon points="170,457.846 150,423.205 190,423.205" transform="rotate(240 250 250)" fill="green" stroke="black" stroke-width="0.5" />
<polygon points="210,388.564 190,423.205 230,423.205" transform="rotate(240 250 250)" fill="green" stroke="black" stroke-width="0.5" />
<polygon points="210,457.846 190,423.205 230,423.205" transform="rotate(240 250 250)" fill="green" stroke="black" stroke-width="0.5" />
<polygon points="250,388.564 230,423.205 270,423.205" transform="rotate(240 250 250)" fill="green" stroke="black" stroke-width="0.5" />
<polygon points="250,457.846 230,423.205 270,423.205" transform="rotate(240 250 250)" fill="green" stroke="black" stroke-width="0.5" />
<polygon points="290,388.564 270,423.205 310,423.205" transform="rotate(240 250 250)" fill="green" stroke="black" stroke-width="0.5" />
<polygon points="290,457.846 270,423.205 310,423.205" transform="rotate(240 250 250)" fill="green" stroke="black" stroke-width="0.5" />
<polygon points="330,388.564 310,423.205 350,423.205" transform="rotate(240 250 250)" fill="green" stroke="black" stroke-width="0.5" />
<polygon points="330,457.846 310,423.205 350,423.205" transform="rotate(240 250 250)" fill="green" stroke="black" stroke-width="0.5" />
<polygon points="150,423.205 130,457.846 170,457.846" transform="rotate(240 250 250)" fill="green" stroke="black" stroke-width="0.5" />
<polygon points="190,423.205 170,457.846 210,457.846" transform="rotate(240 250 250)" fill="green" stroke="black" stroke-width="0.5" />
<polygon points="230,423.205 210,457.846 250,457.846" transform="rotate(240 250 250)" fill="green" stroke="black" stroke-width="0.5" />
<polygon points="270,423.205 250,457.846 290,457.846" transform="rotate(240 250 250)" fill="green" stroke="black" stroke-width="0.5" />
<polygon points="310,423.205 290,457.846 330,457.846" transform="rotate(240 250 250)" fill="green" stroke="black" stroke-width="0.5" />
<polygon points="350,423.205 330,457.846 370,457.846" transform="rotate(240 250 250)" fill="green" stroke="black" stroke-width="0.5" />
<polygon points="235,457.846 215,492.487 255,492.487" transform="rotate(240 250 250)" fill="green" stroke="black" stroke-width="0.5" />
<polygon points="275,457.846 255,492.487 235,457.846" transform="rotate(240 250 250)" fill="green" stroke="black" stroke-width="0.5" />
<polygon points="235,457.846 215,492.487 195,457.846" transform="rotate(240 250 250)" fill="green" stroke="black" stroke-width="0.5" />
<polygon points="250,250 230,284.641 270,284.641" transform="rotate(300 250 250)" fill="green" stroke="black" stroke-width="0.5" />
<polygon points="250,319.282 230,284.641 270,284.641" transform="rotate(300 250 250)" fill="green" stroke="black" stroke-width="0.5" />
<polygon points="230,284.641 210,319.282 250,319.282" transform="rotate(300 250 250)" fill="green" stroke="black" stroke-width="0.5" />
<polygon points="230,353.923 210,319.282 250,319.282" transform="rotate(300 250 250)" fill="green" stroke="black" stroke-width="0.5" />
<polygon points="270,284.641 250,319.282 290,319.282" transform="rotate(300 250 250)" fill="green" stroke="black" stroke-width="0.5" />
<polygon points="270,353.923 250,319.282 290,319.282" transform="rotate(300 250 250)" fill="green" stroke="black" stroke-width="0.5" />
<polygon points="210,319.282 190,353.923 230,353.923" transform="rotate(300 250 250)" fill="green" stroke="black" stroke-width="0.5" />
<polygon points="210,388.564 190,353.923 230,353.923" transform="rotate(300 250 250)" fill="green" stroke="black" stroke-width="0.5" />
<polygon points="250,319.282 230,353.923 270,353.923" transform="rotate(300 250 250)" fill="green" stroke="black" stroke-width="0.5" />
<polygon points="250,388.564 230,353.923 270,353.923" transform="rotate(300 250 250)" fill="green" stroke="black" stroke-width="0.5" />
<polygon points="290,319.282 270,353.923 310,353.923" transform="rotate(300 250 250)" fill="green" stroke="black" stroke-width="0.5" />
<polygon points="290,388.564 270,353.923 310,353.923" transform="rotate(300 250 250)" fill="green" stroke="black" stroke-width="0.5" />
<polygon points="190,353.923 170,388.564 210,388.564" transform="rotate(300 250 250)" fill="green" stroke="black" stroke-width="0.5" />
<polygon points="190,423.205 170,388.564 210,388.564" transform="rotate(300 250 250)" fill="green" stroke="black" stroke-width="0.5" />
<polygon points="230,353.923 210,388.564 250,388.564" transform="rotate(300 250 250)" fill="green" stroke="black" stroke-width="0.5" />
<polygon points="230,423.205 210,388.564 250,388.564" transform="rotate(300 250 250)" fill="green" stroke="black" stroke-width="0.5" />
<polygon points="270,353.923 250,388.564 290,388.564" transform="rotate(300 250 250)" fill="green" stroke="black" stroke-width="0.5" />
<polygon points="270,423.205 250,388.564 290,388.564" transform="rotate(300 250 250)" fill="green" stroke="black" stroke-width="0.5" />
<polygon points="310,353.923 290,388.564 330,388.564" transform="rotate(300 250 250)" fill="green" stroke="black" stroke-width="0.5" />
<polygon points="310,423.205 290,388.564 330,388.564" transform="rotate(300 250 250)" fill="green" stroke="black" stroke-width="0.5" />
<polygon points="170,388.564 150,423.205 190,423.205" transform="rotate(300 250 250)" fill="green" stroke="black" stroke-width="0.5" />
<polygon points="170,457.846 150,423.205 190,423.205" transform="rotate(300 250 250)" fill="green" stroke="black" stroke-width="0.5" />
<polygon points="210,388.564 190,423.205 230,423.205" transform="rotate(300 250 250)" fill="green" stroke="black" stroke-width="0.5" />
<polygon points="210,457.846 190,423.205 230,423.205" transform="rotate(300 250 250)" fill="green" stroke="black" stroke-width="0.5" />
<polygon points="250,388.564 230,423.205 270,423.205" transform="rotate(300 250 250)" fill="green" stroke="black" stroke-width="0.5" />
<polygon points="250,457.846 230,423.205 270,423.205" transform="rotate(300 250 250)" fill="green" stroke="black" stroke-width="0.5" />
<polygon points="290,388.564 270,423.205 310,423.205" transform="rotate(300 250 250)" fill="green" stroke="black" stroke-width="0.5" />
<polygon points="290,457.846 270,423.205 310,423.205" transform="rotate(300 250 250)" fill="green" stroke="black" stroke-width="0.5" />
<polygon points="330,388.564 310,423.205 350,423.205" transform="rotate(300 250 250)" fill="green" stroke="black" stroke-width="0.5" />
<polygon points="330,457.846 310,423.205 350,423.205" transform="rotate(300 250 250)" fill="green" stroke="black" stroke-width="0.5" />
<polygon points="150,423.205 130,457.846 170,457.846" transform="rotate(300 250 250)" fill="green" stroke="black" stroke-width="0.5" />
<polygon points="190,423.205 170,457.846 210,457.846" transform="rotate(300 250 250)" fill="green" stroke="black" stroke-width="0.5" />
<polygon points="230,423.205 210,457.846 250,457.846" transform="rotate(300 250 250)" fill="green" stroke="black" stroke-width="0.5" />
<polygon points="270,423.205 250,457.846 290,457.846" transform="rotate(300 250 250)" fill="green" stroke="black" stroke-width="0.5" />
<polygon points="310,423.205 290,457.846 330,457.846" transform="rotate(300 250 250)" fill="green" stroke="black" stroke-width="0.5" />
<polygon points="350,423.205 330,457.846 370,457.846" transform="rotate(300 250 250)" fill="green" stroke="black" stroke-width="0.5" />
<polygon points="235,457.846 215,492.487 255,492.487" transform="rotate(300 250 250)" fill="green" stroke="black" stroke-width="0.5" />
<polygon points="275,457.846 255,492.487 235,457.846" transform="rotate(300 250 250)" fill="green" stroke="black" stroke-width="0.5" />
<polygon points="235,457.846 215,492.487 195,457.846" transform="rotate(300 250 250)" fill="green" stroke="black" stroke-width="0.5" />
</svg>
