<svg version="1.1" baseProfile="full" xmlns="http://www.w3.org/2000/svg">
<circle cx="500" cy="500" r="500" transform="rotate(0 0 0)" fill="pink" stroke="black" stroke-width="0.5" />
<circle cx="500" cy="25" r="25" transform="rotate(0 500 500)" fill="magenta" stroke="black" stroke-width="0.5" />
<circle cx="500" cy="25" r="25" transform="rotate(6.10169 500 500)" fill="magenta" stroke="black" stroke-width="0.5" />
<circle cx="500" cy="25" r="25" transform="rotate(12.2034 500 500)" fill="magenta" stroke="black" stroke-width="0.5" />
<circle cx="500" cy="25" r="25" transform="rotate(18.3051 500 500)" fill="magenta" stroke="black" stroke-width="0.5" />
<circle cx="500" cy="25" r="25" transform="rotate(24.4068 500 500)" fill="magenta" stroke="black" stroke-width="0.5" />
<circle cx="500" cy="25" r="25" transform="rotate(30.5085 500 500)" fill="magenta" stroke="black" stroke-width="0.5" />
<circle cx="500" cy="25" r="25" transform="rotate(36.6102 500 500)" fill="magenta" stroke="black" stroke-width="0.5" />
<circle cx="500" cy="25" r="25" transform="rotate(42.7119 500 500)" fill="magenta" stroke="black" stroke-width="0.5" />
<circle cx="500" cy="25" r="25" transform="rotate(48.8136 500 500)" fill="magenta" stroke="black" stroke-width="0.5" />
<circle cx="500" cy="25" r="25" transform="rotate(54.9153 500 500)" fill="magenta" stroke="black" stroke-width="0.5" />
<circle cx="500" cy="25" r="25" transform="rotate(61.0169 500 500)" fill="magenta" stroke="black" stroke-width="0.5" />
<circle cx="500" cy="25" r="25" transform="rotate(67.1186 500 500)" fill="magenta" stroke="black" stroke-width="0.5" />
<circle cx="500" cy="25" r="25" transform="rotate(73.2203 500 500)" fill="magenta" stroke="black" stroke-width="0.5" />
<circle cx="500" cy="25" r="25" transform="rotate(79.322 500 500)" fill="magenta" stroke="black" stroke-width="0.5" />
<circle cx="500" cy="25" r="25" transform="rotate(85.4237 500 500)" fill="magenta" stroke="black" stroke-width="0.5" />
<circle cx="500" cy="25" r="25" transform="rotate(91.5254 500 500)" fill="magenta" stroke="black" stroke-width="0.5" />
<circle cx="500" cy="25" r="25" transform="rotate(97.6271 500 500)" fill="magenta" stroke="black" stroke-width="0.5" />
<circle cx="500" cy="25" r="25" transform="rotate(103.729 500 500)" fill="magenta" stroke="black" stroke-width="0.5" />
<circle cx="500" cy="25" r="25" transform="rotate(109.831 500 500)" fill="magenta" stroke="black" stroke-width="0.5" />
<circle cx="500" cy="25" r="25" transform="rotate(115.932 500 500)" fill="magenta" stroke="black" stroke-width="0.5" />
<circle cx="500" cy="25" r="25" transform="rotate(122.034 500 500)" fill="magenta" stroke="black" stroke-width="0.5" />
<circle cx="500" cy="25" r="25" transform="rotate(128.136 500 500)" fill="magenta" stroke="black" stroke-width="0.5" />
<circle cx="500" cy="25" r="25" transform="rotate(134.237 500 500)" fill="magenta" stroke="black" stroke-width="0.5" />
<circle cx="500" cy="25" r="25" transform="rotate(140.339 500 500)" fill="magenta" stroke="black" stroke-width="0.5" />
<circle cx="500" cy="25" r="25" transform="rotate(146.441 500 500)" fill="magenta" stroke="black" stroke-width="0.5" />
<circle cx="500" cy="25" r="25" transform="rotate(152.542 500 500)" fill="magenta" stroke="black" stroke-width="0.5" />
<circle cx="500" cy="25" r="25" transform="rotate(158.644 500 500)" fill="magenta" stroke="black" stroke-width="0.5" />
<circle cx="500" cy="25" r="25" transform="rotate(164.746 500 500)" fill="magenta" stroke="black" stroke-width="0.5" />
<circle cx="500" cy="25" r="25" transform="rotate(170.847 500 500)" fill="magenta" stroke="black" stroke-width="0.5" />
<circle cx="500" cy="25" r="25" transform="rotate(176.949 500 500)" fill="magenta" stroke="black" stroke-width="0.5" />
<circle cx="500" cy="25" r="25" transform="rotate(183.051 500 500)" fill="magenta" stroke="black" stroke-width="0.5" />
<circle cx="500" cy="25" r="25" transform="rotate(189.153 500 500)" fill="magenta" stroke="black" stroke-width="0.5" />
<circle cx="500" cy="25" r="25" transform="rotate(195.254 500 500)" fill="magenta" stroke="black" stroke-width="0.5" />
<circle cx="500" cy="25" r="25" transform="rotate(201.356 500 500)" fill="magenta" stroke="black" stroke-width="0.5" />
<circle cx="500" cy="25" r="25" transform="rotate(207.458 500 500)" fill="magenta" stroke="black" stroke-width="0.5" />
<circle cx="500" cy="25" r="25" transform="rotate(213.559 500 500)" fill="magenta" stroke="black" stroke-width="0.5" />
<circle cx="500" cy="25" r="25" transform="rotate(219.661 500 500)" fill="magenta" stroke="black" stroke-width="0.5" />
<circle cx="500" cy="25" r="25" transform="rotate(225.763 500 500)" fill="magenta" stroke="black" stroke-width="0.5" />
<circle cx="500" cy="25" r="25" transform="rotate(231.864 500 500)" fill="magenta" stroke="black" stroke-width="0.5" />
<circle cx="500" cy="25" r="25" transform="rotate(237.966 500 500)" fill="magenta" stroke="black" stroke-width="0.5" />
<circle cx="500" cy="25" r="25" transform="rotate(244.068 500 500)" fill="magenta" stroke="black" stroke-width="0.5" />
<circle cx="500" cy="25" r="25" transform="rotate(250.169 500 500)" fill="magenta" stroke="black" stroke-width="0.5" />
<circle cx="500" cy="25" r="25" transform="rotate(256.271 500 500)" fill="magenta" stroke="black" stroke-width="0.5" />
<circle cx="500" cy="25" r="25" transform="rotate(262.373 500 500)" fill="magenta" stroke="black" stroke-width="0.5" />
<circle cx="500" cy="25" r="25" transform="rotate(268.475 500 500)" fill="magenta" stroke="black" stroke-width="0.5" />
<circle cx="500" cy="25" r="25" transform="rotate(274.576 500 500)" fill="magenta" stroke="black" stroke-width="0.5" />
<circle cx="500" cy="25" r="25" transform="rotate(280.678 500 500)" fill="magenta" stroke="black" stroke-width="0.5" />
<circle cx="500" cy="25" r="25" transform="rotate(286.78 500 500)" fill="magenta" stroke="black" stroke-width="0.5" />
<circle cx="500" cy="25" r="25" transform="rotate(292.881 500 500)" fill="magenta" stroke="black" stroke-width="0.5" />
<circle cx="500" cy="25" r="25" transform="rotate(298.983 500 500)" fill="magenta" stroke="black" stroke-width="0.5" />
<circle cx="500" cy="25" r="25" transform="rotate(305.085 500 500)" fill="magenta" stroke="black" stroke-width="0.5" />
<circle cx="500" cy="25" r="25" transform="rotate(311.186 500 500)" fill="magenta" stroke="black" stroke-width="0.5" />
<circle cx="500" cy="25" r="25" transform="rotate(317.288 500 500)" fill="magenta" stroke="black" stroke-width="0.5" />
<circle cx="500" cy="25" r="25" transform="rotate(323.39 500 500)" fill="magenta" stroke="black" stroke-width="0.5" />
<circle cx="500" cy="25" r="25" transform="rotate(329.492 500 500)" fill="magenta" stroke="black" stroke-width="0.5" />
<circle cx="500" cy="25" r="25" transform="rotate(335.593 500 500)" fill="magenta" stroke="black" stroke-width="0.5" />
<circle cx="500" cy="25" r="25" transform="rotate(341.695 500 500)" fill="magenta" stroke="black" stroke-width="0.5" />
<circle cx="500" cy="25" r="25" transform="rotate(347.797 500 500)" fill="magenta" stroke="black" stroke-width="0.5" />
<circle cx="500" cy="25" r="25" transform="rotate(353.898 500 500)" fill="magenta" stroke="black" stroke-width="0.5" />
<circle cx="500" cy="75" r="25" transform="rotate(0 500 500)" fill="magenta" stroke="black" stroke-width="0.5" />
<circle cx="500" cy="75" r="25" transform="rotate(6.79245 500 500)" fill="magenta" stroke="black" stroke-width="0.5" />
<circle cx="500" cy="75" r="25" transform="rotate(13.5849 500 500)" fill="magenta" stroke="black" stroke-width="0.5" />
<circle cx="500" cy="75" r="25" transform="rotate(20.3774 500 500)" fill="magenta" stroke="black" stroke-width="0.5" />
<circle cx="500" cy="75" r="25" transform="rotate(27.1698 500 500)" fill="magenta" stroke="black" stroke-width="0.5" />
<circle cx="500" cy="75" r="25" transform="rotate(33.9623 500 500)" fill="magenta" stroke="black" stroke-width="0.5" />
<circle cx="500" cy="75" r="25" transform="rotate(40.7547 500 500)" fill="magenta" stroke="black" stroke-width="0.5" />
<circle cx="500" cy="75" r="25" transform="rotate(47.5472 500 500)" fill="magenta" stroke="black" stroke-width="0.5" />
<circle cx="500" cy="75" r="25" transform="rotate(54.3396 500 500)" fill="magenta" stroke="black" stroke-width="0.5" />
<circle cx="500" cy="75" r="25" transform="rotate(61.1321 500 500)" fill="magenta" stroke="black" stroke-width="0.5" />
<circle cx="500" cy="75" r="25" transform="rotate(67.9245 500 500)" fill="magenta" stroke="black" stroke-width="0.5" />
<circle cx="500" cy="75" r="25" transform="rotate(74.717 500 500)" fill="magenta" stroke="black" stroke-width="0.5" />
<circle cx="500" cy="75" r="25" transform="rotate(81.5094 500 500)" fill="magenta" stroke="black" stroke-width="0.5" />
<circle cx="500" cy="75" r="25" transform="rotate(88.3019 500 500)" fill="magenta" stroke="black" stroke-width="0.5" />
<circle cx="500" cy="75" r="25" transform="rotate(95.0943 500 500)" fill="magenta" stroke="black" stroke-width="0.5" />
<circle cx="500" cy="75" r="25" transform="rotate(101.887 500 500)" fill="magenta" stroke="black" stroke-width="0.5" />
<circle cx="500" cy="75" r="25" transform="rotate(108.679 500 500)" fill="magenta" stroke="black" stroke-width="0.5" />
<circle cx="500" cy="75" r="25" transform="rotate(115.472 500 500)" fill="magenta" stroke="black" stroke-width="0.5" />
<circle cx="500" cy="75" r="25" transform="rotate(122.264 500 500)" fill="magenta" stroke="black" stroke-width="0.5" />
<circle cx="500" cy="75" r="25" transform="rotate(129.057 500 500)" fill="magenta" stroke="black" stroke-width="0.5" />
<circle cx="500" cy="75" r="25" transform="rotate(135.849 500 500)" fill="magenta" stroke="black" stroke-width="0.5" />
<circle cx="500" cy="75" r="25" transform="rotate(142.642 500 500)" fill="magenta" stroke="black" stroke-width="0.5" />
<circle cx="500" cy="75" r="25" transform="rotate(149.434 500 500)" fill="magenta" stroke="black" stroke-width="0.5" />
<circle cx="500" cy="75" r="25" transform="rotate(156.226 500 500)" fill="magenta" stroke="black" stroke-width="0.5" />
<circle cx="500" cy="75" r="25" transform="rotate(163.019 500 500)" fill="magenta" stroke="black" stroke-width="0.5" />
<circle cx="500" cy="75" r="25" transform="rotate(169.811 500 500)" fill="magenta" stroke="black" stroke-width="0.5" />
<circle cx="500" cy="75" r="25" transform="rotate(176.604 500 500)" fill="magenta" stroke="black" stroke-width="0.5" />
<circle cx="500" cy="75" r="25" transform="rotate(183.396 500 500)" fill="magenta" stroke="black" stroke-width="0.5" />
<circle cx="500" cy="75" r="25" transform="rotate(190.189 500 500)" fill="magenta" stroke="black" stroke-width="0.5" />
<circle cx="500" cy="75" r="25" transform="rotate(196.981 500 500)" fill="magenta" stroke="black" stroke-width="0.5" />
<circle cx="500" cy="75" r="25" transform="rotate(203.774 500 500)" fill="magenta" stroke="black" stroke-width="0.5" />
<circle cx="500" cy="75" r="25" transform="rotate(210.566 500 500)" fill="magenta" stroke="black" stroke-width="0.5" />
<circle cx="500" cy="75" r="25" transform="rotate(217.358 500 500)" fill="magenta" stroke="black" stroke-width="0.5" />
<circle cx="500" cy="75" r="25" transform="rotate(224.151 500 500)" fill="magenta" stroke="black" stroke-width="0.5" />
<circle cx="500" cy="75" r="25" transform="rotate(230.943 500 500)" fill="magenta" stroke="black" stroke-width="0.5" />
<circle cx="500" cy="75" r="25" transform="rotate(237.736 500 500)" fill="magenta" stroke="black" stroke-width="0.5" />
<circle cx="500" cy="75" r="25" transform="rotate(244.528 500 500)" fill="magenta" stroke="black" stroke-width="0.5" />
<circle cx="500" cy="75" r="25" transform="rotate(251.321 500 500)" fill="magenta" stroke="black" stroke-width="0.5" />
<circle cx="500" cy="75" r="25" transform="rotate(258.113 500 500)" fill="magenta" stroke="black" stroke-width="0.5" />
<circle cx="500" cy="75" r="25" transform="rotate(264.906 500 500)" fill="magenta" stroke="black" stroke-width="0.5" />
<circle cx="500" cy="75" r="25" transform="rotate(271.698 500 500)" fill="magenta" stroke="black" stroke-width="0.5" />
<circle cx="500" cy="75" r="25" transform="rotate(278.491 500 500)" fill="magenta" stroke="black" stroke-width="0.5" />
<circle cx="500" cy="75" r="25" transform="rotate(285.283 500 500)" fill="magenta" stroke="black" stroke-width="0.5" />
<circle cx="500" cy="75" r="25" transform="rotate(292.075 500 500)" fill="magenta" stroke="black" stroke-width="0.5" />
<circle cx="500" cy="75" r="25" transform="rotate(298.868 500 500)" fill="magenta" stroke="black" stroke-width="0.5" />
<circle cx="500" cy="75" r="25" transform="rotate(305.66 500 500)" fill="magenta" stroke="black" stroke-width="0.5" />
<circle cx="500" cy="75" r="25" transform="rotate(312.453 500 500)" fill="magenta" stroke="black" stroke-width="0.5" />
<circle cx="500" cy="75" r="25" transform="rotate(319.245 500 500)" fill="magenta" stroke="black" stroke-width="0.5" />
<circle cx="500" cy="75" r="25" transform="rotate(326.038 500 500)" fill="magenta" stroke="black" stroke-width="0.5" />
<circle cx="500" cy="75" r="25" transform="rotate(332.83 500 500)" fill="magenta" stroke="black" stroke-width="0.5" />
<circle cx="500" cy="75" r="25" transform="rotate(339.623 500 500)" fill="magenta" stroke="black" stroke-width="0.5" />
<circle cx="500" cy="75" r="25" transform="rotate(346.415 500 500)" fill="magenta" stroke="black" stroke-width="0.5" />
<circle cx="500" cy="75" r="25" transform="rotate(353.208 500 500)" fill="magenta" stroke="black" stroke-width="0.5" />
<circle cx="500" cy="125" r="25" transform="rotate(0 500 500)" fill="magenta" stroke="black" stroke-width="0.5" />
<circle cx="500" cy="125" r="25" transform="rotate(7.65957 500 500)" fill="magenta" stroke="black" stroke-width="0.5" />
<circle cx="500" cy="125" r="25" transform="rotate(15.3191 500 500)" fill="magenta" stroke="black" stroke-width="0.5" />
<circle cx="500" cy="125" r="25" transform="rotate(22.9787 500 500)" fill="magenta" stroke="black" stroke-width="0.5" />
<circle cx="500" cy="125" r="25" transform="rotate(30.6383 500 500)" fill="magenta" stroke="black" stroke-width="0.5" />
<circle cx="500" cy="125" r="25" transform="rotate(38.2979 500 500)" fill="magenta" stroke="black" stroke-width="0.5" />
<circle cx="500" cy="125" r="25" transform="rotate(45.9574 500 500)" fill="magenta" stroke="black" stroke-width="0.5" />
<circle cx="500" cy="125" r="25" transform="rotate(53.617 500 500)" fill="magenta" stroke="black" stroke-width="0.5" />
<circle cx="500" cy="125" r="25" transform="rotate(61.2766 500 500)" fill="magenta" stroke="black" stroke-width="0.5" />
<circle cx="500" cy="125" r="25" transform="rotate(68.9362 500 500)" fill="magenta" stroke="black" stroke-width="0.5" />
<circle cx="500" cy="125" r="25" transform="rotate(76.5957 500 500)" fill="magenta" stroke="black" stroke-width="0.5" />
<circle cx="500" cy="125" r="25" transform="rotate(84.2553 500 500)" fill="magenta" stroke="black" stroke-width="0.5" />
<circle cx="500" cy="125" r="25" transform="rotate(91.9149 500 500)" fill="magenta" stroke="black" stroke-width="0.5" />
<circle cx="500" cy="125" r="25" transform="rotate(99.5745 500 500)" fill="magenta" stroke="black" stroke-width="0.5" />
<circle cx="500" cy="125" r="25" transform="rotate(107.234 500 500)" fill="magenta" stroke="black" stroke-width="0.5" />
<circle cx="500" cy="125" r="25" transform="rotate(114.894 500 500)" fill="magenta" stroke="black" stroke-width="0.5" />
<circle cx="500" cy="125" r="25" transform="rotate(122.553 500 500)" fill="magenta" stroke="black" stroke-width="0.5" />
<circle cx="500" cy="125" r="25" transform="rotate(130.213 500 500)" fill="magenta" stroke="black" stroke-width="0.5" />
<circle cx="500" cy="125" r="25" transform="rotate(137.872 500 500)" fill="magenta" stroke="black" stroke-width="0.5" />
<circle cx="500" cy="125" r="25" transform="rotate(145.532 500 500)" fill="magenta" stroke="black" stroke-width="0.5" />
<circle cx="500" cy="125" r="25" transform="rotate(153.191 500 500)" fill="magenta" stroke="black" stroke-width="0.5" />
<circle cx="500" cy="125" r="25" transform="rotate(160.851 500 500)" fill="magenta" stroke="black" stroke-width="0.5" />
<circle cx="500" cy="125" r="25" transform="rotate(168.511 500 500)" fill="magenta" stroke="black" stroke-width="0.5" />
<circle cx="500" cy="125" r="25" transform="rotate(176.17 500 500)" fill="magenta" stroke="black" stroke-width="0.5" />
<circle cx="500" cy="125" r="25" transform="rotate(183.83 500 500)" fill="magenta" stroke="black" stroke-width="0.5" />
<circle cx="500" cy="125" r="25" transform="rotate(191.489 500 500)" fill="magenta" stroke="black" stroke-width="0.5" />
<circle cx="500" cy="125" r="25" transform="rotate(199.149 500 500)" fill="magenta" stroke="black" stroke-width="0.5" />
<circle cx="500" cy="125" r="25" transform="rotate(206.809 500 500)" fill="magenta" stroke="black" stroke-width="0.5" />
<circle cx="500" cy="125" r="25" transform="rotate(214.468 500 500)" fill="magenta" stroke="black" stroke-width="0.5" />
<circle cx="500" cy="125" r="25" transform="rotate(222.128 500 500)" fill="magenta" stroke="black" stroke-width="0.5" />
<circle cx="500" cy="125" r="25" transform="rotate(229.787 500 500)" fill="magenta" stroke="black" stroke-width="0.5" />
<circle cx="500" cy="125" r="25" transform="rotate(237.447 500 500)" fill="magenta" stroke="black" stroke-width="0.5" />
<circle cx="500" cy="125" r="25" transform="rotate(245.106 500 500)" fill="magenta" stroke="black" stroke-width="0.5" />
<circle cx="500" cy="125" r="25" transform="rotate(252.766 500 500)" fill="magenta" stroke="black" stroke-width="0.5" />
<circle cx="500" cy="125" r="25" transform="rotate(260.426 500 500)" fill="magenta" stroke="black" stroke-width="0.5" />
<circle cx="500" cy="125" r="25" transform="rotate(268.085 500 500)" fill="magenta" stroke="black" stroke-width="0.5" />
<circle cx="500" cy="125" r="25" transform="rotate(275.745 500 500)" fill="magenta" stroke="black" stroke-width="0.5" />
<circle cx="500" cy="125" r="25" transform="rotate(283.404 500 500)" fill="magenta" stroke="black" stroke-width="0.5" />
<circle cx="500" cy="125" r="25" transform="rotate(291.064 500 500)" fill="magenta" stroke="black" stroke-width="0.5" />
<circle cx="500" cy="125" r="25" transform="rotate(298.723 500 500)" fill="magenta" stroke="black" stroke-width="0.5" />
<circle cx="500" cy="125" r="25" transform="rotate(306.383 500 500)" fill="magenta" stroke="black" stroke-width="0.5" />
<circle cx="500" cy="125" r="25" transform="rotate(314.043 500 500)" fill="magenta" stroke="black" stroke-width="0.5" />
<circle cx="500" cy="125" r="25" transform="rotate(321.702 500 500)" fill="magenta" stroke="black" stroke-width="0.5" />
<circle cx="500" cy="125" r="25" transform="rotate(329.362 500 500)" fill="magenta" stroke="black" stroke-width="0.5" />
<circle cx="500" cy="125" r="25" transform="rotate(337.021 500 500)" fill="magenta" stroke="black" stroke-width="0.5" />
<circle cx="500" cy="125" r="25" transform="rotate(344.681 500 500)" fill="magenta" stroke="black" stroke-width="0.5" />
<circle cx="500" cy="125" r="25" transform="rotate(352.34 500 500)" fill="magenta" stroke="black" stroke-width="0.5" />
<circle cx="500" cy="175" r="25" transform="rotate(0 500 500)" fill="magenta" stroke="black" stroke-width="0.5" />
<circle cx="500" cy="175" r="25" transform="rotate(9 500 500)" fill="magenta" stroke="black" stroke-width="0.5" />
<circle cx="500" cy="175" r="25" transform="rotate(18 500 500)" fill="magenta" stroke="black" stroke-width="0.5" />
<circle cx="500" cy="175" r="25" transform="rotate(27 500 500)" fill="magenta" stroke="black" stroke-width="0.5" />
<circle cx="500" cy="175" r="25" transform="rotate(36 500 500)" fill="magenta" stroke="black" stroke-width="0.5" />
<circle cx="500" cy="175" r="25" transform="rotate(45 500 500)" fill="magenta" stroke="black" stroke-width="0.5" />
<circle cx="500" cy="175" r="25" transform="rotate(54 500 500)" fill="magenta" stroke="black" stroke-width="0.5" />
<circle cx="500" cy="175" r="25" transform="rotate(63 500 500)" fill="magenta" stroke="black" stroke-width="0.5" />
<circle cx="500" cy="175" r="25" transform="rotate(72 500 500)" fill="magenta" stroke="black" stroke-width="0.5" />
<circle cx="500" cy="175" r="25" transform="rotate(81 500 500)" fill="magenta" stroke="black" stroke-width="0.5" />
<circle cx="500" cy="175" r="25" transform="rotate(90 500 500)" fill="magenta" stroke="black" stroke-width="0.5" />
<circle cx="500" cy="175" r="25" transform="rotate(99 500 500)" fill="magenta" stroke="black" stroke-width="0.5" />
<circle cx="500" cy="175" r="25" transform="rotate(108 500 500)" fill="magenta" stroke="black" stroke-width="0.5" />
<circle cx="500" cy="175" r="25" transform="rotate(117 500 500)" fill="magenta" stroke="black" stroke-width="0.5" />
<circle cx="500" cy="175" r="25" transform="rotate(126 500 500)" fill="magenta" stroke="black" stroke-width="0.5" />
<circle cx="500" cy="175" r="25" transform="rotate(135 500 500)" fill="magenta" stroke="black" stroke-width="0.5" />
<circle cx="500" cy="175" r="25" transform="rotate(144 500 500)" fill="magenta" stroke="black" stroke-width="0.5" />
<circle cx="500" cy="175" r="25" transform="rotate(153 500 500)" fill="magenta" stroke="black" stroke-width="0.5" />
<circle cx="500" cy="175" r="25" transform="rotate(162 500 500)" fill="magenta" stroke="black" stroke-width="0.5" />
<circle cx="500" cy="175" r="25" transform="rotate(171 500 500)" fill="magenta" stroke="black" stroke-width="0.5" />
<circle cx="500" cy="175" r="25" transform="rotate(180 500 500)" fill="magenta" stroke="black" stroke-width="0.5" />
<circle cx="500" cy="175" r="25" transform="rotate(189 500 500)" fill="magenta" stroke="black" stroke-width="0.5" />
<circle cx="500" cy="175" r="25" transform="rotate(198 500 500)" fill="magenta" stroke="black" stroke-width="0.5" />
<circle cx="500" cy="175" r="25" transform="rotate(207 500 500)" fill="magenta" stroke="black" stroke-width="0.5" />
<circle cx="500" cy="175" r="25" transform="rotate(216 500 500)" fill="magenta" stroke="black" stroke-width="0.5" />
<circle cx="500" cy="175" r="25" transform="rotate(225 500 500)" fill="magenta" stroke="black" stroke-width="0.5" />
<circle cx="500" cy="175" r="25" transform="rotate(234 500 500)" fill="magenta" stroke="black" stroke-width="0.5" />
<circle cx="500" cy="175" r="25" transform="rotate(243 500 500)" fill="magenta" stroke="black" stroke-width="0.5" />
<circle cx="500" cy="175" r="25" transform="rotate(252 500 500)" fill="magenta" stroke="black" stroke-width="0.5" />
<circle cx="500" cy="175" r="25" transform="rotate(261 500 500)" fill="magenta" stroke="black" stroke-width="0.5" />
<circle cx="500" cy="175" r="25" transform="rotate(270 500 500)" fill="magenta" stroke="black" stroke-width="0.5" />
<circle cx="500" cy="175" r="25" transform="rotate(279 500 500)" fill="magenta" stroke="black" stroke-width="0.5" />
<circle cx="500" cy="175" r="25" transform="rotate(288 500 500)" fill="magenta" stroke="black" stroke-width="0.5" />
<circle cx="500" cy="175" r="25" transform="rotate(297 500 500)" fill="magenta" stroke="black" stroke-width="0.5" />
<circle cx="500" cy="175" r="25" transform="rotate(306 500 500)" fill="magenta" stroke="black" stroke-width="0.5" />
<circle cx="500" cy="175" r="25" transform="rotate(315 500 500)" fill="magenta" stroke="black" stroke-width="0.5" />
<circle cx="500" cy="175" r="25" transform="rotate(324 500 500)" fill="magenta" stroke="black" stroke-width="0.5" />
<circle cx="500" cy="175" r="25" transform="rotate(333 500 500)" fill="magenta" stroke="black" stroke-width="0.5" />
<circle cx="500" cy="175" r="25" transform="rotate(342 500 500)" fill="magenta" stroke="black" stroke-width="0.5" />
<circle cx="500" cy="175" r="25" transform="rotate(351 500 500)" fill="magenta" stroke="black" stroke-width="0.5" />
<circle cx="500" cy="225" r="25" transform="rotate(0 500 500)" fill="magenta" stroke="black" stroke-width="0.5" />
<circle cx="500" cy="225" r="25" transform="rotate(10.5882 500 500)" fill="magenta" stroke="black" stroke-width="0.5" />
<circle cx="500" cy="225" r="25" transform="rotate(21.1765 500 500)" fill="magenta" stroke="black" stroke-width="0.5" />
<circle cx="500" cy="225" r="25" transform="rotate(31.7647 500 500)" fill="magenta" stroke="black" stroke-width="0.5" />
<circle cx="500" cy="225" r="25" transform="rotate(42.3529 500 500)" fill="magenta" stroke="black" stroke-width="0.5" />
<circle cx="500" cy="225" r="25" transform="rotate(52.9412 500 500)" fill="magenta" stroke="black" stroke-width="0.5" />
<circle cx="500" cy="225" r="25" transform="rotate(63.5294 500 500)" fill="magenta" stroke="black" stroke-width="0.5" />
<circle cx="500" cy="225" r="25" transform="rotate(74.1176 500 500)" fill="magenta" stroke="black" stroke-width="0.5" />
<circle cx="500" cy="225" r="25" transform="rotate(84.7059 500 500)" fill="magenta" stroke="black" stroke-width="0.5" />
<circle cx="500" cy="225" r="25" transform="rotate(95.2941 500 500)" fill="magenta" stroke="black" stroke-width="0.5" />
<circle cx="500" cy="225" r="25" transform="rotate(105.882 500 500)" fill="magenta" stroke="black" stroke-width="0.5" />
<circle cx="500" cy="225" r="25" transform="rotate(116.471 500 500)" fill="magenta" stroke="black" stroke-width="0.5" />
<circle cx="500" cy="225" r="25" transform="rotate(127.059 500 500)" fill="magenta" stroke="black" stroke-width="0.5" />
<circle cx="500" cy="225" r="25" transform="rotate(137.647 500 500)" fill="magenta" stroke="black" stroke-width="0.5" />
<circle cx="500" cy="225" r="25" transform="rotate(148.235 500 500)" fill="magenta" stroke="black" stroke-width="0.5" />
<circle cx="500" cy="225" r="25" transform="rotate(158.824 500 500)" fill="magenta" stroke="black" stroke-width="0.5" />
<circle cx="500" cy="225" r="25" transform="rotate(169.412 500 500)" fill="magenta" stroke="black" stroke-width="0.5" />
<circle cx="500" cy="225" r="25" transform="rotate(180 500 500)" fill="magenta" stroke="black" stroke-width="0.5" />
<circle cx="500" cy="225" r="25" transform="rotate(190.588 500 500)" fill="magenta" stroke="black" stroke-width="0.5" />
<circle cx="500" cy="225" r="25" transform="rotate(201.176 500 500)" fill="magenta" stroke="black" stroke-width="0.5" />
<circle cx="500" cy="225" r="25" transform="rotate(211.765 500 500)" fill="magenta" stroke="black" stroke-width="0.5" />
<circle cx="500" cy="225" r="25" transform="rotate(222.353 500 500)" fill="magenta" stroke="black" stroke-width="0.5" />
<circle cx="500" cy="225" r="25" transform="rotate(232.941 500 500)" fill="magenta" stroke="black" stroke-width="0.5" />
<circle cx="500" cy="225" r="25" transform="rotate(243.529 500 500)" fill="magenta" stroke="black" stroke-width="0.5" />
<circle cx="500" cy="225" r="25" transform="rotate(254.118 500 500)" fill="magenta" stroke="black" stroke-width="0.5" />
<circle cx="500" cy="225" r="25" transform="rotate(264.706 500 500)" fill="magenta" stroke="black" stroke-width="0.5" />
<circle cx="500" cy="225" r="25" transform="rotate(275.294 500 500)" fill="magenta" stroke="black" stroke-width="0.5" />
<circle cx="500" cy="225" r="25" transform="rotate(285.882 500 500)" fill="magenta" stroke="black" stroke-width="0.5" />
<circle cx="500" cy="225" r="25" transform="rotate(296.471 500 500)" fill="magenta" stroke="black" stroke-width="0.5" />
<circle cx="500" cy="225" r="25" transform="rotate(307.059 500 500)" fill="magenta" stroke="black" stroke-width="0.5" />
<circle cx="500" cy="225" r="25" transform="rotate(317.647 500 500)" fill="magenta" stroke="black" stroke-width="0.5" />
<circle cx="500" cy="225" r="25" transform="rotate(328.235 500 500)" fill="magenta" stroke="black" stroke-width="0.5" />
<circle cx="500" cy="225" r="25" transform="rotate(338.824 500 500)" fill="magenta" stroke="black" stroke-width="0.5" />
<circle cx="500" cy="225" r="25" transform="rotate(349.412 500 500)" fill="magenta" stroke="black" stroke-width="0.5" />
<circle cx="500" cy="275" r="25" transform="rotate(0 500 500)" fill="magenta" stroke="black" stroke-width="0.5" />
<circle cx="500" cy="275" r="25" transform="rotate(12.8571 500 500)" fill="magenta" stroke="black" stroke-width="0.5" />
<circle cx="500" cy="275" r="25" transform="rotate(25.7143 500 500)" fill="magenta" stroke="black" stroke-width="0.5" />
<circle cx="500" cy="275" r="25" transform="rotate(38.5714 500 500)" fill="magenta" stroke="black" stroke-width="0.5" />
<circle cx="500" cy="275" r="25" transform="rotate(51.4286 500 500)" fill="magenta" stroke="black" stroke-width="0.5" />
<circle cx="500" cy="275" r="25" transform="rotate(64.2857 500 500)" fill="magenta" stroke="black" stroke-width="0.5" />
<circle cx="500" cy="275" r="25" transform="rotate(77.1429 500 500)" fill="magenta" stroke="black" stroke-width="0.5" />
<circle cx="500" cy="275" r="25" transform="rotate(90 500 500)" fill="magenta" stroke="black" stroke-width="0.5" />
<circle cx="500" cy="275" r="25" transform="rotate(102.857 500 500)" fill="magenta" stroke="black" stroke-width="0.5" />
<circle cx="500" cy="275" r="25" transform="rotate(115.714 500 500)" fill="magenta" stroke="black" stroke-width="0.5" />
<circle cx="500" cy="275" r="25" transform="rotate(128.571 500 500)" fill="magenta" stroke="black" stroke-width="0.5" />
<circle cx="500" cy="275" r="25" transform="rotate(141.429 500 500)" fill="magenta" stroke="black" stroke-width="0.5" />
<circle cx="500" cy="275" r="25" transform="rotate(154.286 500 500)" fill="magenta" stroke="black" stroke-width="0.5" />
<circle cx="500" cy="275" r="25" transform="rotate(167.143 500 500)" fill="magenta" stroke="black" stroke-width="0.5" />
<circle cx="500" cy="275" r="25" transform="rotate(180 500 500)" fill="magenta" stroke="black" stroke-width="0.5" />
<circle cx="500" cy="275" r="25" transform="rotate(192.857 500 500)" fill="magenta" stroke="black" stroke-width="0.5" />
<circle cx="500" cy="275" r="25" transform="rotate(205.714 500 500)" fill="magenta" stroke="black" stroke-width="0.5" />
<circle cx="500" cy="275" r="25" transform="rotate(218.571 500 500)" fill="magenta" stroke="black" stroke-width="0.5" />
<circle cx="500" cy="275" r="25" transform="rotate(231.429 500 500)" fill="magenta" stroke="black" stroke-width="0.5" />
<circle cx="500" cy="275" r="25" transform="rotate(244.286 500 500)" fill="magenta" stroke="black" stroke-width="0.5" />
<circle cx="500" cy="275" r="25" transform="rotate(257.143 500 500)" fill="magenta" stroke="black" stroke-width="0.5" />
<circle cx="500" cy="275" r="25" transform="rotate(270 500 500)" fill="magenta" stroke="black" stroke-width="0.5" />
<circle cx="500" cy="275" r="25" transform="rotate(282.857 500 500)" fill="magenta" stroke="black" stroke-width="0.5" />
<circle cx="500" cy="275" r="25" transform="rotate(295.714 500 500)" fill="magenta" stroke="black" stroke-width="0.5" />
<circle cx="500" cy="275" r="25" transform="rotate(308.571 500 500)" fill="magenta" stroke="black" stroke-width="0.5" />
<circle cx="500" cy="275" r="25" transform="rotate(321.429 500 500)" fill="magenta" stroke="black" stroke-width="0.5" />
<circle cx="500" cy="275" r="25" transform="rotate(334.286 500 500)" fill="magenta" stroke="black" stroke-width="0.5" />
<circle cx="500" cy="275" r="25" transform="rotate(347.143 500 500)" fill="magenta" stroke="black" stroke-width="0.5" />
<circle cx="500" cy="325" r="25" transform="rotate(0 500 500)" fill="magenta" stroke="black" stroke-width="0.5" />
<circle cx="500" cy="325" r="25" transform="rotate(17.1429 500 500)" fill="magenta" stroke="black" stroke-width="0.5" />
<circle cx="500" cy="325" r="25" transform="rotate(34.2857 500 500)" fill="magenta" stroke="black" stroke-width="0.5" />
<circle cx="500" cy="325" r="25" transform="rotate(51.4286 500 500)" fill="magenta" stroke="black" stroke-width="0.5" />
<circle cx="500" cy="325" r="25" transform="rotate(68.5714 500 500)" fill="magenta" stroke="black" stroke-width="0.5" />
<circle cx="500" cy="325" r="25" transform="rotate(85.7143 500 500)" fill="magenta" stroke="black" stroke-width="0.5" />
<circle cx="500" cy="325" r="25" transform="rotate(102.857 500 500)" fill="magenta" stroke="black" stroke-width="0.5" />
<circle cx="500" cy="325" r="25" transform="rotate(120 500 500)" fill="magenta" stroke="black" stroke-width="0.5" />
<circle cx="500" cy="325" r="25" transform="rotate(137.143 500 500)" fill="magenta" stroke="black" stroke-width="0.5" />
<circle cx="500" cy="325" r="25" transform="rotate(154.286 500 500)" fill="magenta" stroke="black" stroke-width="0.5" />
<circle cx="500" cy="325" r="25" transform="rotate(171.429 500 500)" fill="magenta" stroke="black" stroke-width="0.5" />
<circle cx="500" cy="325" r="25" transform="rotate(188.571 500 500)" fill="magenta" stroke="black" stroke-width="0.5" />
<circle cx="500" cy="325" r="25" transform="rotate(205.714 500 500)" fill="magenta" stroke="black" stroke-width="0.5" />
<circle cx="500" cy="325" r="25" transform="rotate(222.857 500 500)" fill="magenta" stroke="black" stroke-width="0.5" />
<circle cx="500" cy="325" r="25" transform="rotate(240 500 500)" fill="magenta" stroke="black" stroke-width="0.5" />
<circle cx="500" cy="325" r="25" transform="rotate(257.143 500 500)" fill="magenta" stroke="black" stroke-width="0.5" />
<circle cx="500" cy="325" r="25" transform="rotate(274.286 500 500)" fill="magenta" stroke="black" stroke-width="0.5" />
<circle cx="500" cy="325" r="25" transform="rotate(291.429 500 500)" fill="magenta" stroke="black" stroke-width="0.5" />
<circle cx="500" cy="325" r="25" transform="rotate(308.571 500 500)" fill="magenta" stroke="black" stroke-width="0.5" />
<circle cx="500" cy="325" r="25" transform="rotate(325.714 500 500)" fill="magenta" stroke="black" stroke-width="0.5" />
<circle cx="500" cy="325" r="25" transform="rotate(342.857 500 500)" fill="magenta" stroke="black" stroke-width="0.5" />
<circle cx="500" cy="375" r="25" transform="rotate(0 500 500)" fill="magenta" stroke="black" stroke-width="0.5" />
<circle cx="500" cy="375" r="25" transform="rotate(24 500 500)" fill="magenta" stroke="black" stroke-width="0.5" />
<circle cx="500" cy="375" r="25" transform="rotate(48 500 500)" fill="magenta" stroke="black" stroke-width="0.5" />
<circle cx="500" cy="375" r="25" transform="rotate(72 500 500)" fill="magenta" stroke="black" stroke-width="0.5" />
<circle cx="500" cy="375" r="25" transform="rotate(96 500 500)" fill="magenta" stroke="black" stroke-width="0.5" />
<circle cx="500" cy="375" r="25" transform="rotate(120 500 500)" fill="magenta" stroke="black" stroke-width="0.5" />
<circle cx="500" cy="375" r="25" transform="rotate(144 500 500)" fill="magenta" stroke="black" stroke-width="0.5" />
<circle cx="500" cy="375" r="25" transform="rotate(168 500 500)" fill="magenta" stroke="black" stroke-width="0.5" />
<circle cx="500" cy="375" r="25" transform="rotate(192 500 500)" fill="magenta" stroke="black" stroke-width="0.5" />
<circle cx="500" cy="375" r="25" transform="rotate(216 500 500)" fill="magenta" stroke="black" stroke-width="0.5" />
<circle cx="500" cy="375" r="25" transform="rotate(240 500 500)" fill="magenta" stroke="black" stroke-width="0.5" />
<circle cx="500" cy="375" r="25" transform="rotate(264 500 500)" fill="magenta" stroke="black" stroke-width="0.5" />
<circle cx="500" cy="375" r="25" transform="rotate(288 500 500)" fill="magenta" stroke="black" stroke-width="0.5" />
<circle cx="500" cy="375" r="25" transform="rotate(312 500 500)" fill="magenta" stroke="black" stroke-width="0.5" />
<circle cx="500" cy="375" r="25" transform="rotate(336 500 500)" fill="magenta" stroke="black" stroke-width="0.5" />
<circle cx="500" cy="425" r="25" transform="rotate(0 500 500)" fill="magenta" stroke="black" stroke-width="0.5" />
<circle cx="500" cy="425" r="25" transform="rotate(40 500 500)" fill="magenta" stroke="black" stroke-width="0.5" />
<circle cx="500" cy="425" r="25" transform="rotate(80 500 500)" fill="magenta" stroke="black" stroke-width="0.5" />
<circle cx="500" cy="425" r="25" transform="rotate(120 500 500)" fill="magenta" stroke="black" stroke-width="0.5" />
<circle cx="500" cy="425" r="25" transform="rotate(160 500 500)" fill="magenta" stroke="black" stroke-width="0.5" />
<circle cx="500" cy="425" r="25" transform="rotate(200 500 500)" fill="magenta" stroke="black" stroke-width="0.5" />
<circle cx="500" cy="425" r="25" transform="rotate(240 500 500)" fill="magenta" stroke="black" stroke-width="0.5" />
<circle cx="500" cy="425" r="25" transform="rotate(280 500 500)" fill="magenta" stroke="black" stroke-width="0.5" />
<circle cx="500" cy="425" r="25" transform="rotate(320 500 500)" fill="magenta" stroke="black" stroke-width="0.5" />
<circle cx="500" cy="475" r="25" transform="rotate(0 500 500)" fill="magenta" stroke="black" stroke-width="0.5" />
<circle cx="500" cy="475" r="25" transform="rotate(180 500 500)" fill="magenta" stroke="black" stroke-width="0.5" />
</svg>
