<svg version="1.1" baseProfile="full" xmlns="http://www.w3.org/2000/svg">
<polygon points="350,0 0,606.218 700,606.218" transform="rotate(0 0 0)" fill="brown" stroke="black" stroke-width="0.5" />
<circle cx="350" cy="50" r="25" transform="rotate(0 0 0)" fill="magenta" stroke="black" stroke-width="0.5" />
<circle cx="325" cy="93.3013" r="25" transform="rotate(0 0 0)" fill="magenta" stroke="black" stroke-width="0.5" />
<circle cx="375" cy="93.3013" r="25" transform="rotate(0 0 0)" fill="magenta" stroke="black" stroke-width="0.5" />
<circle cx="350" cy="136.603" r="25" transform="rotate(0 0 0)" fill="magenta" stroke="black" stroke-width="0.5" />
<circle cx="300" cy="136.603" r="25" transform="rotate(0 0 0)" fill="magenta" stroke="black" stroke-width="0.5" />
<circle cx="400" cy="136.603" r="25" transform="rotate(0 0 0)" fill="magenta" stroke="black" stroke-width="0.5" />
<circle cx="325" cy="179.904" r="25" transform="rotate(0 0 0)" fill="magenta" stroke="black" stroke-width="0.5" />
<circle cx="375" cy="179.904" r="25" transform="rotate(0 0 0)" fill="magenta" stroke="black" stroke-width="0.5" />
<circle cx="275" cy="179.904" r="25" transform="rotate(0 0 0)" fill="magenta" stroke="black" stroke-width="0.5" />
<circle cx="425" cy="179.904" r="25" transform="rotate(0 0 0)" fill="magenta" stroke="black" stroke-width="0.5" />
<circle cx="350" cy="223.205" r="25" transform="rotate(0 0 0)" fill="magenta" stroke="black" stroke-width="0.5" />
<circle cx="300" cy="223.205" r="25" transform="rotate(0 0 0)" fill="magenta" stroke="black" stroke-width="0.5" />
<circle cx="250" cy="223.205" r="25" transform="rotate(0 0 0)" fill="magenta" stroke="black" stroke-width="0.5" />
<circle cx="400" cy="223.205" r="25" transform="rotate(0 0 0)" fill="magenta" stroke="black" stroke-width="0.5" />
<circle cx="450" cy="223.205" r="25" transform="rotate(0 0 0)" fill="magenta" stroke="black" stroke-width="0.5" />
<circle cx="325" cy="266.506" r="25" transform="rotate(0 0 0)" fill="magenta" stroke="black" stroke-width="0.5" />
<circle cx="375" cy="266.506" r="25" transform="rotate(0 0 0)" fill="magenta" stroke="black" stroke-width="0.5" />
<circle cx="275" cy="266.506" r="25" transform="rotate(0 0 0)" fill="magenta" stroke="black" stroke-width="0.5" />
<circle cx="425" cy="266.506" r="25" transform="rotate(0 0 0)" fill="magenta" stroke="black" stroke-width="0.5" />
<circle cx="225" cy="266.506" r="25" transform="rotate(0 0 0)" fill="magenta" stroke="black" stroke-width="0.5" />
<circle cx="475" cy="266.506" r="25" transform="rotate(0 0 0)" fill="magenta" stroke="black" stroke-width="0.5" />
<circle cx="350" cy="309.808" r="25" transform="rotate(0 0 0)" fill="magenta" stroke="black" stroke-width="0.5" />
<circle cx="300" cy="309.808" r="25" transform="rotate(0 0 0)" fill="magenta" stroke="black" stroke-width="0.5" />
<circle cx="250" cy="309.808" r="25" transform="rotate(0 0 0)" fill="magenta" stroke="black" stroke-width="0.5" />
<circle cx="200" cy="309.808" r="25" transform="rotate(0 0 0)" fill="magenta" stroke="black" stroke-width="0.5" />
<circle cx="400" cy="309.808" r="25" transform="rotate(0 0 0)" fill="magenta" stroke="black" stroke-width="0.5" />
<circle cx="450" cy="309.808" r="25" transform="rotate(0 0 0)" fill="magenta" stroke="black" stroke-width="0.5" />
<circle cx="500" cy="309.808" r="25" transform="rotate(0 0 0)" fill="magenta" stroke="black" stroke-width="0.5" />
<circle cx="325" cy="353.109" r="25" transform="rotate(0 0 0)" fill="magenta" stroke="black" stroke-width="0.5" />
<circle cx="375" cy="353.109" r="25" transform="rotate(0 0 0)" fill="magenta" stroke="black" stroke-width="0.5" />
<circle cx="275" cy="353.109" r="25" transform="rotate(0 0 0)" fill="magenta" stroke="black" stroke-width="0.5" />
<circle cx="425" cy="353.109" r="25" transform="rotate(0 0 0)" fill="magenta" stroke="black" stroke-width="0.5" />
<circle cx="225" cy="353.109" r="25" transform="rotate(0 0 0)" fill="magenta" stroke="black" stroke-width="0.5" />
<circle cx="475" cy="353.109" r="25" transform="rotate(0 0 0)" fill="magenta" stroke="black" stroke-width="0.5" />
<circle cx="175" cy="353.109" r="25" transform="rotate(0 0 0)" fill="magenta" stroke="black" stroke-width="0.5" />
<circle cx="525" cy="353.109" r="25" transform="rotate(0 0 0)" fill="magenta" stroke="black" stroke-width="0.5" />
<circle cx="350" cy="396.41" r="25" transform="rotate(0 0 0)" fill="magenta" stroke="black" stroke-width="0.5" />
<circle cx="300" cy="396.41" r="25" transform="rotate(0 0 0)" fill="magenta" stroke="black" stroke-width="0.5" />
<circle cx="250" cy="396.41" r="25" transform="rotate(0 0 0)" fill="magenta" stroke="black" stroke-width="0.5" />
<circle cx="200" cy="396.41" r="25" transform="rotate(0 0 0)" fill="magenta" stroke="black" stroke-width="0.5" />
<circle cx="150" cy="396.41" r="25" transform="rotate(0 0 0)" fill="magenta" stroke="black" stroke-width="0.5" />
<circle cx="400" cy="396.41" r="25" transform="rotate(0 0 0)" fill="magenta" stroke="black" stroke-width="0.5" />
<circle cx="450" cy="396.41" r="25" transform="rotate(0 0 0)" fill="magenta" stroke="black" stroke-width="0.5" />
<circle cx="500" cy="396.41" r="25" transform="rotate(0 0 0)" fill="magenta" stroke="black" stroke-width="0.5" />
<circle cx="550" cy="396.41" r="25" transform="rotate(0 0 0)" fill="magenta" stroke="black" stroke-width="0.5" />
<circle cx="325" cy="439.711" r="25" transform="rotate(0 0 0)" fill="magenta" stroke="black" stroke-width="0.5" />
<circle cx="375" cy="439.711" r="25" transform="rotate(0 0 0)" fill="magenta" stroke="black" stroke-width="0.5" />
<circle cx="275" cy="439.711" r="25" transform="rotate(0 0 0)" fill="magenta" stroke="black" stroke-width="0.5" />
<circle cx="425" cy="439.711" r="25" transform="rotate(0 0 0)" fill="magenta" stroke="black" stroke-width="0.5" />
<circle cx="225" cy="439.711" r="25" transform="rotate(0 0 0)" fill="magenta" stroke="black" stroke-width="0.5" />
<circle cx="475" cy="439.711" r="25" transform="rotate(0 0 0)" fill="magenta" stroke="black" stroke-width="0.5" />
<circle cx="175" cy="439.711" r="25" transform="rotate(0 0 0)" fill="magenta" stroke="black" stroke-width="0.5" />
<circle cx="525" cy="439.711" r="25" transform="rotate(0 0 0)" fill="magenta" stroke="black" stroke-width="0.5" />
<circle cx="125" cy="439.711" r="25" transform="rotate(0 0 0)" fill="magenta" stroke="black" stroke-width="0.5" />
<circle cx="575" cy="439.711" r="25" transform="rotate(0 0 0)" fill="magenta" stroke="black" stroke-width="0.5" />
<circle cx="350" cy="483.013" r="25" transform="rotate(0 0 0)" fill="magenta" stroke="black" stroke-width="0.5" />
<circle cx="300" cy="483.013" r="25" transform="rotate(0 0 0)" fill="magenta" stroke="black" stroke-width="0.5" />
<circle cx="250" cy="483.013" r="25" transform="rotate(0 0 0)" fill="magenta" stroke="black" stroke-width="0.5" />
<circle cx="200" cy="483.013" r="25" transform="rotate(0 0 0)" fill="magenta" stroke="black" stroke-width="0.5" />
<circle cx="150" cy="483.013" r="25" transform="rotate(0 0 0)" fill="magenta" stroke="black" stroke-width="0.5" />
<circle cx="100" cy="483.013" r="25" transform="rotate(0 0 0)" fill="magenta" stroke="black" stroke-width="0.5" />
<circle cx="400" cy="483.013" r="25" transform="rotate(0 0 0)" fill="magenta" stroke="black" stroke-width="0.5" />
<circle cx="450" cy="483.013" r="25" transform="rotate(0 0 0)" fill="magenta" stroke="black" stroke-width="0.5" />
<circle cx="500" cy="483.013" r="25" transform="rotate(0 0 0)" fill="magenta" stroke="black" stroke-width="0.5" />
<circle cx="550" cy="483.013" r="25" transform="rotate(0 0 0)" fill="magenta" stroke="black" stroke-width="0.5" />
<circle cx="600" cy="483.013" r="25" transform="rotate(0 0 0)" fill="magenta" stroke="black" stroke-width="0.5" />
<circle cx="325" cy="526.314" r="25" transform="rotate(0 0 0)" fill="magenta" stroke="black" stroke-width="0.5" />
<circle cx="375" cy="526.314" r="25" transform="rotate(0 0 0)" fill="magenta" stroke="black" stroke-width="0.5" />
<circle cx="275" cy="526.314" r="25" transform="rotate(0 0 0)" fill="magenta" stroke="black" stroke-width="0.5" />
<circle cx="425" cy="526.314" r="25" transform="rotate(0 0 0)" fill="magenta" stroke="black" stroke-width="0.5" />
<circle cx="225" cy="526.314" r="25" transform="rotate(0 0 0)" fill="magenta" stroke="black" stroke-width="0.5" />
<circle cx="475" cy="526.314" r="25" transform="rotate(0 0 0)" fill="magenta" stroke="black" stroke-width="0.5" />
<circle cx="175" cy="526.314" r="25" transform="rotate(0 0 0)" fill="magenta" stroke="black" stroke-width="0.5" />
<circle cx="525" cy="526.314" r="25" transform="rotate(0 0 0)" fill="magenta" stroke="black" stroke-width="0.5" />
<circle cx="125" cy="526.314" r="25" transform="rotate(0 0 0)" fill="magenta" stroke="black" stroke-width="0.5" />
<circle cx="575" cy="526.314" r="25" transform="rotate(0 0 0)" fill="magenta" stroke="black" stroke-width="0.5" />
<circle cx="75" cy="526.314" r="25" transform="rotate(0 0 0)" fill="magenta" stroke="black" stroke-width="0.5" />
<circle cx="625" cy="526.314" r="25" transform="rotate(0 0 0)" fill="magenta" stroke="black" stroke-width="0.5" />
<circle cx="350" cy="569.615" r="25" transform="rotate(0 0 0)" fill="magenta" stroke="black" stroke-width="0.5" />
<circle cx="300" cy="569.615" r="25" transform="rotate(0 0 0)" fill="magenta" stroke="black" stroke-width="0.5" />
<circle cx="250" cy="569.615" r="25" transform="rotate(0 0 0)" fill="magenta" stroke="black" stroke-width="0.5" />
<circle cx="200" cy="569.615" r="25" transform="rotate(0 0 0)" fill="magenta" stroke="black" stroke-width="0.5" />
<circle cx="150" cy="569.615" r="25" transform="rotate(0 0 0)" fill="magenta" stroke="black" stroke-width="0.5" />
<circle cx="100" cy="569.615" r="25" transform="rotate(0 0 0)" fill="magenta" stroke="black" stroke-width="0.5" />
<circle cx="50" cy="569.615" r="25" transform="rotate(0 0 0)" fill="magenta" stroke="black" stroke-width="0.5" />
<circle cx="400" cy="569.615" r="25" transform="rotate(0 0 0)" fill="magenta" stroke="black" stroke-width="0.5" />
<circle cx="450" cy="569.615" r="25" transform="rotate(0 0 0)" fill="magenta" stroke="black" stroke-width="0.5" />
<circle cx="500" cy="569.615" r="25" transform="rotate(0 0 0)" fill="magenta" stroke="black" stroke-width="0.5" />
<circle cx="550" cy="569.615" r="25" transform="rotate(0 0 0)" fill="magenta" stroke="black" stroke-width="0.5" />
<circle cx="600" cy="569.615" r="25" transform="rotate(0 0 0)" fill="magenta" stroke="black" stroke-width="0.5" />
<circle cx="650" cy="569.615" r="25" transform="rotate(0 0 0)" fill="magenta" stroke="black" stroke-width="0.5" />
</svg>
