<svg version="1.1" baseProfile="full" xmlns="http://www.w3.org/2000/svg">
<circle cx="400" cy="400" r="400" transform="rotate(0 0 0)" fill="red" stroke="black" stroke-width="0.5" />
<rect x="117.157"  y="117.157" width="50" height="100" transform="rotate(0 117.157 117.157)" fill="magenta" stroke="black" stroke-width="0.5" />
<rect x="167.157"  y="117.157" width="50" height="100" transform="rotate(0 117.157 117.157)" fill="magenta" stroke="black" stroke-width="0.5" />
<rect x="217.157"  y="117.157" width="50" height="100" transform="rotate(0 117.157 117.157)" fill="magenta" stroke="black" stroke-width="0.5" />
<rect x="267.157"  y="117.157" width="50" height="100" transform="rotate(0 117.157 117.157)" fill="magenta" stroke="black" stroke-width="0.5" />
<rect x="317.157"  y="117.157" width="50" height="100" transform="rotate(0 117.157 117.157)" fill="magenta" stroke="black" stroke-width="0.5" />
<rect x="367.157"  y="117.157" width="50" height="100" transform="rotate(0 117.157 117.157)" fill="magenta" stroke="black" stroke-width="0.5" />
<rect x="417.157"  y="117.157" width="50" height="100" transform="rotate(0 117.157 117.157)" fill="magenta" stroke="black" stroke-width="0.5" />
<rect x="467.157"  y="117.157" width="50" height="100" transform="rotate(0 117.157 117.157)" fill="magenta" stroke="black" stroke-width="0.5" />
<rect x="517.157"  y="117.157" width="50" height="100" transform="rotate(0 117.157 117.157)" fill="magenta" stroke="black" stroke-width="0.5" />
<rect x="567.157"  y="117.157" width="50" height="100" transform="rotate(0 117.157 117.157)" fill="magenta" stroke="black" stroke-width="0.5" />
<rect x="617.157"  y="117.157" width="50" height="100" transform="rotate(0 117.157 117.157)" fill="magenta" stroke="black" stroke-width="0.5" />
<rect x="117.157"  y="217.157" width="50" height="100" transform="rotate(0 117.157 117.157)" fill="magenta" stroke="black" stroke-width="0.5" />
<rect x="167.157"  y="217.157" width="50" height="100" transform="rotate(0 117.157 117.157)" fill="magenta" stroke="black" stroke-width="0.5" />
<rect x="217.157"  y="217.157" width="50" height="100" transform="rotate(0 117.157 117.157)" fill="magenta" stroke="black" stroke-width="0.5" />
<rect x="267.157"  y="217.157" width="50" height="100" transform="rotate(0 117.157 117.157)" fill="magenta" stroke="black" stroke-width="0.5" />
<rect x="317.157"  y="217.157" width="50" height="100" transform="rotate(0 117.157 117.157)" fill="magenta" stroke="black" stroke-width="0.5" />
<rect x="367.157"  y="217.157" width="50" height="100" transform="rotate(0 117.157 117.157)" fill="magenta" stroke="black" stroke-width="0.5" />
<rect x="417.157"  y="217.157" width="50" height="100" transform="rotate(0 117.157 117.157)" fill="magenta" stroke="black" stroke-width="0.5" />
<rect x="467.157"  y="217.157" width="50" height="100" transform="rotate(0 117.157 117.157)" fill="magenta" stroke="black" stroke-width="0.5" />
<rect x="517.157"  y="217.157" width="50" height="100" transform="rotate(0 117.157 117.157)" fill="magenta" stroke="black" stroke-width="0.5" />
<rect x="567.157"  y="217.157" width="50" height="100" transform="rotate(0 117.157 117.157)" fill="magenta" stroke="black" stroke-width="0.5" />
<rect x="617.157"  y="217.157" width="50" height="100" transform="rotate(0 117.157 117.157)" fill="magenta" stroke="black" stroke-width="0.5" />
<rect x="117.157"  y="317.157" width="50" height="100" transform="rotate(0 117.157 117.157)" fill="magenta" stroke="black" stroke-width="0.5" />
<rect x="167.157"  y="317.157" width="50" height="100" transform="rotate(0 117.157 117.157)" fill="magenta" stroke="black" stroke-width="0.5" />
<rect x="217.157"  y="317.157" width="50" height="100" transform="rotate(0 117.157 117.157)" fill="magenta" stroke="black" stroke-width="0.5" />
<rect x="267.157"  y="317.157" width="50" height="100" transform="rotate(0 117.157 117.157)" fill="magenta" stroke="black" stroke-width="0.5" />
<rect x="317.157"  y="317.157" width="50" height="100" transform="rotate(0 117.157 117.157)" fill="magenta" stroke="black" stroke-width="0.5" />
<rect x="367.157"  y="317.157" width="50" height="100" transform="rotate(0 117.157 117.157)" fill="magenta" stroke="black" stroke-width="0.5" />
<rect x="417.157"  y="317.157" width="50" height="100" transform="rotate(0 117.157 117.157)" fill="magenta" stroke="black" stroke-width="0.5" />
<rect x="467.157"  y="317.157" width="50" height="100" transform="rotate(0 117.157 117.157)" fill="magenta" stroke="black" stroke-width="0.5" />
<rect x="517.157"  y="317.157" width="50" height="100" transform="rotate(0 117.157 117.157)" fill="magenta" stroke="black" stroke-width="0.5" />
<rect x="567.157"  y="317.157" width="50" height="100" transform="rotate(0 117.157 117.157)" fill="magenta" stroke="black" stroke-width="0.5" />
<rect x="617.157"  y="317.157" width="50" height="100" transform="rotate(0 117.157 117.157)" fill="magenta" stroke="black" stroke-width="0.5" />
<rect x="117.157"  y="417.157" width="50" height="100" transform="rotate(0 117.157 117.157)" fill="magenta" stroke="black" stroke-width="0.5" />
<rect x="167.157"  y="417.157" width="50" height="100" transform="rotate(0 117.157 117.157)" fill="magenta" stroke="black" stroke-width="0.5" />
<rect x="217.157"  y="417.157" width="50" height="100" transform="rotate(0 117.157 117.157)" fill="magenta" stroke="black" stroke-width="0.5" />
<rect x="267.157"  y="417.157" width="50" height="100" transform="rotate(0 117.157 117.157)" fill="magenta" stroke="black" stroke-width="0.5" />
<rect x="317.157"  y="417.157" width="50" height="100" transform="rotate(0 117.157 117.157)" fill="magenta" stroke="black" stroke-width="0.5" />
<rect x="367.157"  y="417.157" width="50" height="100" transform="rotate(0 117.157 117.157)" fill="magenta" stroke="black" stroke-width="0.5" />
<rect x="417.157"  y="417.157" width="50" height="100" transform="rotate(0 117.157 117.157)" fill="magenta" stroke="black" stroke-width="0.5" />
<rect x="467.157"  y="417.157" width="50" height="100" transform="rotate(0 117.157 117.157)" fill="magenta" stroke="black" stroke-width="0.5" />
<rect x="517.157"  y="417.157" width="50" height="100" transform="rotate(0 117.157 117.157)" fill="magenta" stroke="black" stroke-width="0.5" />
<rect x="567.157"  y="417.157" width="50" height="100" transform="rotate(0 117.157 117.157)" fill="magenta" stroke="black" stroke-width="0.5" />
<rect x="617.157"  y="417.157" width="50" height="100" transform="rotate(0 117.157 117.157)" fill="magenta" stroke="black" stroke-width="0.5" />
<rect x="117.157"  y="517.157" width="50" height="100" transform="rotate(0 117.157 117.157)" fill="magenta" stroke="black" stroke-width="0.5" />
<rect x="167.157"  y="517.157" width="50" height="100" transform="rotate(0 117.157 117.157)" fill="magenta" stroke="black" stroke-width="0.5" />
<rect x="217.157"  y="517.157" width="50" height="100" transform="rotate(0 117.157 117.157)" fill="magenta" stroke="black" stroke-width="0.5" />
<rect x="267.157"  y="517.157" width="50" height="100" transform="rotate(0 117.157 117.157)" fill="magenta" stroke="black" stroke-width="0.5" />
<rect x="317.157"  y="517.157" width="50" height="100" transform="rotate(0 117.157 117.157)" fill="magenta" stroke="black" stroke-width="0.5" />
<rect x="367.157"  y="517.157" width="50" height="100" transform="rotate(0 117.157 117.157)" fill="magenta" stroke="black" stroke-width="0.5" />
<rect x="417.157"  y="517.157" width="50" height="100" transform="rotate(0 117.157 117.157)" fill="magenta" stroke="black" stroke-width="0.5" />
<rect x="467.157"  y="517.157" width="50" height="100" transform="rotate(0 117.157 117.157)" fill="magenta" stroke="black" stroke-width="0.5" />
<rect x="517.157"  y="517.157" width="50" height="100" transform="rotate(0 117.157 117.157)" fill="magenta" stroke="black" stroke-width="0.5" />
<rect x="567.157"  y="517.157" width="50" height="100" transform="rotate(0 117.157 117.157)" fill="magenta" stroke="black" stroke-width="0.5" />
<rect x="617.157"  y="517.157" width="50" height="100" transform="rotate(0 117.157 117.157)" fill="magenta" stroke="black" stroke-width="0.5" />
<rect x="117.157"  y="617.157" width="100" height="50" transform="rotate(0 117.157 117.157)" fill="magenta" stroke="black" stroke-width="0.5" />
<rect x="217.157"  y="617.157" width="100" height="50" transform="rotate(0 117.157 117.157)" fill="magenta" stroke="black" stroke-width="0.5" />
<rect x="317.157"  y="617.157" width="100" height="50" transform="rotate(0 117.157 117.157)" fill="magenta" stroke="black" stroke-width="0.5" />
<rect x="417.157"  y="617.157" width="100" height="50" transform="rotate(0 117.157 117.157)" fill="magenta" stroke="black" stroke-width="0.5" />
<rect x="517.157"  y="617.157" width="100" height="50" transform="rotate(0 117.157 117.157)" fill="magenta" stroke="black" stroke-width="0.5" />
<rect x="400"  y="682.843" width="100" height="50" transform="rotate(0 400 400)" fill="magenta" stroke="black" stroke-width="0.5" />
<rect x="300"  y="682.843" width="100" height="50" transform="rotate(0 400 400)" fill="magenta" stroke="black" stroke-width="0.5" />
<rect x="500"  y="682.843" width="100" height="50" transform="rotate(0 400 400)" fill="magenta" stroke="black" stroke-width="0.5" />
<rect x="200"  y="682.843" width="100" height="50" transform="rotate(0 400 400)" fill="magenta" stroke="black" stroke-width="0.5" />
<rect x="400"  y="732.843" width="100" height="50" transform="rotate(0 400 400)" fill="magenta" stroke="black" stroke-width="0.5" />
<rect x="300"  y="732.843" width="100" height="50" transform="rotate(0 400 400)" fill="magenta" stroke="black" stroke-width="0.5" />
<rect x="400"  y="682.843" width="100" height="50" transform="rotate(90 400 400)" fill="magenta" stroke="black" stroke-width="0.5" />
<rect x="300"  y="682.843" width="100" height="50" transform="rotate(90 400 400)" fill="magenta" stroke="black" stroke-width="0.5" />
<rect x="500"  y="682.843" width="100" height="50" transform="rotate(90 400 400)" fill="magenta" stroke="black" stroke-width="0.5" />
<rect x="200"  y="682.843" width="100" height="50" transform="rotate(90 400 400)" fill="magenta" stroke="black" stroke-width="0.5" />
<rect x="400"  y="732.843" width="100" height="50" transform="rotate(90 400 400)" fill="magenta" stroke="black" stroke-width="0.5" />
<rect x="300"  y="732.843" width="100" height="50" transform="rotate(90 400 400)" fill="magenta" stroke="black" stroke-width="0.5" />
<rect x="400"  y="682.843" width="100" height="50" transform="rotate(180 400 400)" fill="magenta" stroke="black" stroke-width="0.5" />
<rect x="300"  y="682.843" width="100" height="50" transform="rotate(180 400 400)" fill="magenta" stroke="black" stroke-width="0.5" />
<rect x="500"  y="682.843" width="100" height="50" transform="rotate(180 400 400)" fill="magenta" stroke="black" stroke-width="0.5" />
<rect x="200"  y="682.843" width="100" height="50" transform="rotate(180 400 400)" fill="magenta" stroke="black" stroke-width="0.5" />
<rect x="400"  y="732.843" width="100" height="50" transform="rotate(180 400 400)" fill="magenta" stroke="black" stroke-width="0.5" />
<rect x="300"  y="732.843" width="100" height="50" transform="rotate(180 400 400)" fill="magenta" stroke="black" stroke-width="0.5" />
<rect x="400"  y="682.843" width="100" height="50" transform="rotate(270 400 400)" fill="magenta" stroke="black" stroke-width="0.5" />
<rect x="300"  y="682.843" width="100" height="50" transform="rotate(270 400 400)" fill="magenta" stroke="black" stroke-width="0.5" />
<rect x="500"  y="682.843" width="100" height="50" transform="rotate(270 400 400)" fill="magenta" stroke="black" stroke-width="0.5" />
<rect x="200"  y="682.843" width="100" height="50" transform="rotate(270 400 400)" fill="magenta" stroke="black" stroke-width="0.5" />
<rect x="400"  y="732.843" width="100" height="50" transform="rotate(270 400 400)" fill="magenta" stroke="black" stroke-width="0.5" />
<rect x="300"  y="732.843" width="100" height="50" transform="rotate(270 400 400)" fill="magenta" stroke="black" stroke-width="0.5" />
</svg>
