<svg version="1.1" baseProfile="full" xmlns="http://www.w3.org/2000/svg">
<polygon points="300,0 0,519.615 600,519.615" transform="rotate(0 0 0)" fill="blue" stroke="black" stroke-width="0.5" />
<rect x="45"  y="444.615" width="30" height="75" transform="rotate(0 0 0)" fill="cyan" stroke="black" stroke-width="0.5" />
<rect x="75"  y="444.615" width="30" height="75" transform="rotate(0 0 0)" fill="cyan" stroke="black" stroke-width="0.5" />
<rect x="105"  y="444.615" width="30" height="75" transform="rotate(0 0 0)" fill="cyan" stroke="black" stroke-width="0.5" />
<rect x="135"  y="444.615" width="30" height="75" transform="rotate(0 0 0)" fill="cyan" stroke="black" stroke-width="0.5" />
<rect x="165"  y="444.615" width="30" height="75" transform="rotate(0 0 0)" fill="cyan" stroke="black" stroke-width="0.5" />
<rect x="195"  y="444.615" width="30" height="75" transform="rotate(0 0 0)" fill="cyan" stroke="black" stroke-width="0.5" />
<rect x="225"  y="444.615" width="30" height="75" transform="rotate(0 0 0)" fill="cyan" stroke="black" stroke-width="0.5" />
<rect x="255"  y="444.615" width="30" height="75" transform="rotate(0 0 0)" fill="cyan" stroke="black" stroke-width="0.5" />
<rect x="285"  y="444.615" width="30" height="75" transform="rotate(0 0 0)" fill="cyan" stroke="black" stroke-width="0.5" />
<rect x="315"  y="444.615" width="30" height="75" transform="rotate(0 0 0)" fill="cyan" stroke="black" stroke-width="0.5" />
<rect x="345"  y="444.615" width="30" height="75" transform="rotate(0 0 0)" fill="cyan" stroke="black" stroke-width="0.5" />
<rect x="375"  y="444.615" width="30" height="75" transform="rotate(0 0 0)" fill="cyan" stroke="black" stroke-width="0.5" />
<rect x="405"  y="444.615" width="30" height="75" transform="rotate(0 0 0)" fill="cyan" stroke="black" stroke-width="0.5" />
<rect x="435"  y="444.615" width="30" height="75" transform="rotate(0 0 0)" fill="cyan" stroke="black" stroke-width="0.5" />
<rect x="465"  y="444.615" width="30" height="75" transform="rotate(0 0 0)" fill="cyan" stroke="black" stroke-width="0.5" />
<rect x="495"  y="444.615" width="30" height="75" transform="rotate(0 0 0)" fill="cyan" stroke="black" stroke-width="0.5" />
<rect x="525"  y="444.615" width="30" height="75" transform="rotate(0 0 0)" fill="cyan" stroke="black" stroke-width="0.5" />
<rect x="90"  y="369.615" width="30" height="75" transform="rotate(0 0 0)" fill="cyan" stroke="black" stroke-width="0.5" />
<rect x="120"  y="369.615" width="30" height="75" transform="rotate(0 0 0)" fill="cyan" stroke="black" stroke-width="0.5" />
<rect x="150"  y="369.615" width="30" height="75" transform="rotate(0 0 0)" fill="cyan" stroke="black" stroke-width="0.5" />
<rect x="180"  y="369.615" width="30" height="75" transform="rotate(0 0 0)" fill="cyan" stroke="black" stroke-width="0.5" />
<rect x="210"  y="369.615" width="30" height="75" transform="rotate(0 0 0)" fill="cyan" stroke="black" stroke-width="0.5" />
<rect x="240"  y="369.615" width="30" height="75" transform="rotate(0 0 0)" fill="cyan" stroke="black" stroke-width="0.5" />
<rect x="270"  y="369.615" width="30" height="75" transform="rotate(0 0 0)" fill="cyan" stroke="black" stroke-width="0.5" />
<rect x="300"  y="369.615" width="30" height="75" transform="rotate(0 0 0)" fill="cyan" stroke="black" stroke-width="0.5" />
<rect x="330"  y="369.615" width="30" height="75" transform="rotate(0 0 0)" fill="cyan" stroke="black" stroke-width="0.5" />
<rect x="360"  y="369.615" width="30" height="75" transform="rotate(0 0 0)" fill="cyan" stroke="black" stroke-width="0.5" />
<rect x="390"  y="369.615" width="30" height="75" transform="rotate(0 0 0)" fill="cyan" stroke="black" stroke-width="0.5" />
<rect x="420"  y="369.615" width="30" height="75" transform="rotate(0 0 0)" fill="cyan" stroke="black" stroke-width="0.5" />
<rect x="450"  y="369.615" width="30" height="75" transform="rotate(0 0 0)" fill="cyan" stroke="black" stroke-width="0.5" />
<rect x="480"  y="369.615" width="30" height="75" transform="rotate(0 0 0)" fill="cyan" stroke="black" stroke-width="0.5" />
<rect x="135"  y="294.615" width="30" height="75" transform="rotate(0 0 0)" fill="cyan" stroke="black" stroke-width="0.5" />
<rect x="165"  y="294.615" width="30" height="75" transform="rotate(0 0 0)" fill="cyan" stroke="black" stroke-width="0.5" />
<rect x="195"  y="294.615" width="30" height="75" transform="rotate(0 0 0)" fill="cyan" stroke="black" stroke-width="0.5" />
<rect x="225"  y="294.615" width="30" height="75" transform="rotate(0 0 0)" fill="cyan" stroke="black" stroke-width="0.5" />
<rect x="255"  y="294.615" width="30" height="75" transform="rotate(0 0 0)" fill="cyan" stroke="black" stroke-width="0.5" />
<rect x="285"  y="294.615" width="30" height="75" transform="rotate(0 0 0)" fill="cyan" stroke="black" stroke-width="0.5" />
<rect x="315"  y="294.615" width="30" height="75" transform="rotate(0 0 0)" fill="cyan" stroke="black" stroke-width="0.5" />
<rect x="345"  y="294.615" width="30" height="75" transform="rotate(0 0 0)" fill="cyan" stroke="black" stroke-width="0.5" />
<rect x="375"  y="294.615" width="30" height="75" transform="rotate(0 0 0)" fill="cyan" stroke="black" stroke-width="0.5" />
<rect x="405"  y="294.615" width="30" height="75" transform="rotate(0 0 0)" fill="cyan" stroke="black" stroke-width="0.5" />
<rect x="435"  y="294.615" width="30" height="75" transform="rotate(0 0 0)" fill="cyan" stroke="black" stroke-width="0.5" />
<rect x="180"  y="219.615" width="30" height="75" transform="rotate(0 0 0)" fill="cyan" stroke="black" stroke-width="0.5" />
<rect x="210"  y="219.615" width="30" height="75" transform="rotate(0 0 0)" fill="cyan" stroke="black" stroke-width="0.5" />
<rect x="240"  y="219.615" width="30" height="75" transform="rotate(0 0 0)" fill="cyan" stroke="black" stroke-width="0.5" />
<rect x="270"  y="219.615" width="30" height="75" transform="rotate(0 0 0)" fill="cyan" stroke="black" stroke-width="0.5" />
<rect x="300"  y="219.615" width="30" height="75" transform="rotate(0 0 0)" fill="cyan" stroke="black" stroke-width="0.5" />
<rect x="330"  y="219.615" width="30" height="75" transform="rotate(0 0 0)" fill="cyan" stroke="black" stroke-width="0.5" />
<rect x="360"  y="219.615" width="30" height="75" transform="rotate(0 0 0)" fill="cyan" stroke="black" stroke-width="0.5" />
<rect x="390"  y="219.615" width="30" height="75" transform="rotate(0 0 0)" fill="cyan" stroke="black" stroke-width="0.5" />
<rect x="225"  y="144.615" width="30" height="75" transform="rotate(0 0 0)" fill="cyan" stroke="black" stroke-width="0.5" />
<rect x="255"  y="144.615" width="30" height="75" transform="rotate(0 0 0)" fill="cyan" stroke="black" stroke-width="0.5" />
<rect x="285"  y="144.615" width="30" height="75" transform="rotate(0 0 0)" fill="cyan" stroke="black" stroke-width="0.5" />
<rect x="315"  y="144.615" width="30" height="75" transform="rotate(0 0 0)" fill="cyan" stroke="black" stroke-width="0.5" />
<rect x="345"  y="144.615" width="30" height="75" transform="rotate(0 0 0)" fill="cyan" stroke="black" stroke-width="0.5" />
<rect x="270"  y="69.6152" width="30" height="75" transform="rotate(0 0 0)" fill="cyan" stroke="black" stroke-width="0.5" />
<rect x="300"  y="69.6152" width="30" height="75" transform="rotate(0 0 0)" fill="cyan" stroke="black" stroke-width="0.5" />
</svg>
