<svg version="1.1" baseProfile="full" xmlns="http://www.w3.org/2000/svg">
<circle cx="250" cy="250" r="250" transform="rotate(0 0 0)" fill="blue" stroke="black" stroke-width="0.5" />
<polygon points="250,250 220.5,301.095 279.5,301.095" transform="rotate(0 250 250)" fill="cyan" stroke="black" stroke-width="0.5" />
<polygon points="250,352.191 220.5,301.095 279.5,301.095" transform="rotate(0 250 250)" fill="cyan" stroke="black" stroke-width="0.5" />
<polygon points="220.5,301.095 191,352.191 250,352.191" transform="rotate(0 250 250)" fill="cyan" stroke="black" stroke-width="0.5" />
<polygon points="220.5,403.286 191,352.191 250,352.191" transform="rotate(0 250 250)" fill="cyan" stroke="black" stroke-width="0.5" />
<polygon points="279.5,301.095 250,352.191 309,352.191" transform="rotate(0 250 250)" fill="cyan" stroke="black" stroke-width="0.5" />
<polygon points="279.5,403.286 250,352.191 309,352.191" transform="rotate(0 250 250)" fill="cyan" stroke="black" stroke-width="0.5" />
<polygon points="191,352.191 161.5,403.286 220.5,403.286" transform="rotate(0 250 250)" fill="cyan" stroke="black" stroke-width="0.5" />
<polygon points="191,454.382 161.5,403.286 220.5,403.286" transform="rotate(0 250 250)" fill="cyan" stroke="black" stroke-width="0.5" />
<polygon points="250,352.191 220.5,403.286 279.5,403.286" transform="rotate(0 250 250)" fill="cyan" stroke="black" stroke-width="0.5" />
<polygon points="250,454.382 220.5,403.286 279.5,403.286" transform="rotate(0 250 250)" fill="cyan" stroke="black" stroke-width="0.5" />
<polygon points="309,352.191 279.5,403.286 338.5,403.286" transform="rotate(0 250 250)" fill="cyan" stroke="black" stroke-width="0.5" />
<polygon points="309,454.382 279.5,403.286 338.5,403.286" transform="rotate(0 250 250)" fill="cyan" stroke="black" stroke-width="0.5" />
<polygon points="161.5,403.286 132,454.382 191,454.382" transform="rotate(0 250 250)" fill="cyan" stroke="black" stroke-width="0.5" />
<polygon points="220.5,403.286 191,454.382 250,454.382" transform="rotate(0 250 250)" fill="cyan" stroke="black" stroke-width="0.5" />
<polygon points="279.5,403.286 250,454.382 309,454.382" transform="rotate(0 250 250)" fill="cyan" stroke="black" stroke-width="0.5" />
<polygon points="338.5,403.286 309,454.382 368,454.382" transform="rotate(0 250 250)" fill="cyan" stroke="black" stroke-width="0.5" />
<polygon points="250,250 220.5,301.095 279.5,301.095" transform="rotate(60 250 250)" fill="cyan" stroke="black" stroke-width="0.5" />
<polygon points="250,352.191 220.5,301.095 279.5,301.095" transform="rotate(60 250 250)" fill="cyan" stroke="black" stroke-width="0.5" />
<polygon points="220.5,301.095 191,352.191 250,352.191" transform="rotate(60 250 250)" fill="cyan" stroke="black" stroke-width="0.5" />
<polygon points="220.5,403.286 191,352.191 250,352.191" transform="rotate(60 250 250)" fill="cyan" stroke="black" stroke-width="0.5" />
<polygon points="279.5,301.095 250,352.191 309,352.191" transform="rotate(60 250 250)" fill="cyan" stroke="black" stroke-width="0.5" />
<polygon points="279.5,403.286 250,352.191 309,352.191" transform="rotate(60 250 250)" fill="cyan" stroke="black" stroke-width="0.5" />
<polygon points="191,352.191 161.5,403.286 220.5,403.286" transform="rotate(60 250 250)" fill="cyan" stroke="black" stroke-width="0.5" />
<polygon points="191,454.382 161.5,403.286 220.5,403.286" transform="rotate(60 250 250)" fill="cyan" stroke="black" stroke-width="0.5" />
<polygon points="250,352.191 220.5,403.286 279.5,403.286" transform="rotate(60 250 250)" fill="cyan" stroke="black" stroke-width="0.5" />
<polygon points="250,454.382 220.5,403.286 279.5,403.286" transform="rotate(60 250 250)" fill="cyan" stroke="black" stroke-width="0.5" />
<polygon points="309,352.191 279.5,403.286 338.5,403.286" transform="rotate(60 250 250)" fill="cyan" stroke="black" stroke-width="0.5" />
<polygon points="309,454.382 279.5,403.286 338.5,403.286" transform="rotate(60 250 250)" fill="cyan" stroke="black" stroke-width="0.5" />
<polygon points="161.5,403.286 132,454.382 191,454.382" transform="rotate(60 250 250)" fill="cyan" stroke="black" stroke-width="0.5" />
<polygon points="220.5,403.286 191,454.382 250,454.382" transform="rotate(60 250 250)" fill="cyan" stroke="black" stroke-width="0.5" />
<polygon points="279.5,403.286 250,454.382 309,454.382" transform="rotate(60 250 250)" fill="cyan" stroke="black" stroke-width="0.5" />
<polygon points="338.5,403.286 309,454.382 368,454.382" transform="rotate(60 250 250)" fill="cyan" stroke="black" stroke-width="0.5" />
<polygon points="250,250 220.5,301.095 279.5,301.095" transform="rotate(120 250 250)" fill="cyan" stroke="black" stroke-width="0.5" />
<polygon points="250,352.191 220.5,301.095 279.5,301.095" transform="rotate(120 250 250)" fill="cyan" stroke="black" stroke-width="0.5" />
<polygon points="220.5,301.095 191,352.191 250,352.191" transform="rotate(120 250 250)" fill="cyan" stroke="black" stroke-width="0.5" />
<polygon points="220.5,403.286 191,352.191 250,352.191" transform="rotate(120 250 250)" fill="cyan" stroke="black" stroke-width="0.5" />
<polygon points="279.5,301.095 250,352.191 309,352.191" transform="rotate(120 250 250)" fill="cyan" stroke="black" stroke-width="0.5" />
<polygon points="279.5,403.286 250,352.191 309,352.191" transform="rotate(120 250 250)" fill="cyan" stroke="black" stroke-width="0.5" />
<polygon points="191,352.191 161.5,403.286 220.5,403.286" transform="rotate(120 250 250)" fill="cyan" stroke="black" stroke-width="0.5" />
<polygon points="191,454.382 161.5,403.286 220.5,403.286" transform="rotate(120 250 250)" fill="cyan" stroke="black" stroke-width="0.5" />
<polygon points="250,352.191 220.5,403.286 279.5,403.286" transform="rotate(120 250 250)" fill="cyan" stroke="black" stroke-width="0.5" />
<polygon points="250,454.382 220.5,403.286 279.5,403.286" transform="rotate(120 250 250)" fill="cyan" stroke="black" stroke-width="0.5" />
<polygon points="309,352.191 279.5,403.286 338.5,403.286" transform="rotate(120 250 250)" fill="cyan" stroke="black" stroke-width="0.5" />
<polygon points="309,454.382 279.5,403.286 338.5,403.286" transform="rotate(120 250 250)" fill="cyan" stroke="black" stroke-width="0.5" />
<polygon points="161.5,403.286 132,454.382 191,454.382" transform="rotate(120 250 250)" fill="cyan" stroke="black" stroke-width="0.5" />
<polygon points="220.5,403.286 191,454.382 250,454.382" transform="rotate(120 250 250)" fill="cyan" stroke="black" stroke-width="0.5" />
<polygon points="279.5,403.286 250,454.382 309,454.382" transform="rotate(120 250 250)" fill="cyan" stroke="black" stroke-width="0.5" />
<polygon points="338.5,403.286 309,454.382 368,454.382" transform="rotate(120 250 250)" fill="cyan" stroke="black" stroke-width="0.5" />
<polygon points="250,250 220.5,301.095 279.5,301.095" transform="rotate(180 250 250)" fill="cyan" stroke="black" stroke-width="0.5" />
<polygon points="250,352.191 220.5,301.095 279.5,301.095" transform="rotate(180 250 250)" fill="cyan" stroke="black" stroke-width="0.5" />
<polygon points="220.5,301.095 191,352.191 250,352.191" transform="rotate(180 250 250)" fill="cyan" stroke="black" stroke-width="0.5" />
<polygon points="220.5,403.286 191,352.191 250,352.191" transform="rotate(180 250 250)" fill="cyan" stroke="black" stroke-width="0.5" />
<polygon points="279.5,301.095 250,352.191 309,352.191" transform="rotate(180 250 250)" fill="cyan" stroke="black" stroke-width="0.5" />
<polygon points="279.5,403.286 250,352.191 309,352.191" transform="rotate(180 250 250)" fill="cyan" stroke="black" stroke-width="0.5" />
<polygon points="191,352.191 161.5,403.286 220.5,403.286" transform="rotate(180 250 250)" fill="cyan" stroke="black" stroke-width="0.5" />
<polygon points="191,454.382 161.5,403.286 220.5,403.286" transform="rotate(180 250 250)" fill="cyan" stroke="black" stroke-width="0.5" />
<polygon points="250,352.191 220.5,403.286 279.5,403.286" transform="rotate(180 250 250)" fill="cyan" stroke="black" stroke-width="0.5" />
<polygon points="250,454.382 220.5,403.286 279.5,403.286" transform="rotate(180 250 250)" fill="cyan" stroke="black" stroke-width="0.5" />
<polygon points="309,352.191 279.5,403.286 338.5,403.286" transform="rotate(180 250 250)" fill="cyan" stroke="black" stroke-width="0.5" />
<polygon points="309,454.382 279.5,403.286 338.5,403.286" transform="rotate(180 250 250)" fill="cyan" stroke="black" stroke-width="0.5" />
<polygon points="161.5,403.286 132,454.382 191,454.382" transform="rotate(180 250 250)" fill="cyan" stroke="black" stroke-width="0.5" />
<polygon points="220.5,403.286 191,454.382 250,454.382" transform="rotate(180 250 250)" fill="cyan" stroke="black" stroke-width="0.5" />
<polygon points="279.5,403.286 250,454.382 309,454.382" transform="rotate(180 250 250)" fill="cyan" stroke="black" stroke-width="0.5" />
<polygon points="338.5,403.286 309,454.382 368,454.382" transform="rotate(180 250 250)" fill="cyan" stroke="black" stroke-width="0.5" />
<polygon points="250,250 220.5,301.095 279.5,301.095" transform="rotate(240 250 250)" fill="cyan" stroke="black" stroke-width="0.5" />
<polygon points="250,352.191 220.5,301.095 279.5,301.095" transform="rotate(240 250 250)" fill="cyan" stroke="black" stroke-width="0.5" />
<polygon points="220.5,301.095 191,352.191 250,352.191" transform="rotate(240 250 250)" fill="cyan" stroke="black" stroke-width="0.5" />
<polygon points="220.5,403.286 191,352.191 250,352.191" transform="rotate(240 250 250)" fill="cyan" stroke="black" stroke-width="0.5" />
<polygon points="279.5,301.095 250,352.191 309,352.191" transform="rotate(240 250 250)" fill="cyan" stroke="black" stroke-width="0.5" />
<polygon points="279.5,403.286 250,352.191 309,352.191" transform="rotate(240 250 250)" fill="cyan" stroke="black" stroke-width="0.5" />
<polygon points="191,352.191 161.5,403.286 220.5,403.286" transform="rotate(240 250 250)" fill="cyan" stroke="black" stroke-width="0.5" />
<polygon points="191,454.382 161.5,403.286 220.5,403.286" transform="rotate(240 250 250)" fill="cyan" stroke="black" stroke-width="0.5" />
<polygon points="250,352.191 220.5,403.286 279.5,403.286" transform="rotate(240 250 250)" fill="cyan" stroke="black" stroke-width="0.5" />
<polygon points="250,454.382 220.5,403.286 279.5,403.286" transform="rotate(240 250 250)" fill="cyan" stroke="black" stroke-width="0.5" />
<polygon points="309,352.191 279.5,403.286 338.5,403.286" transform="rotate(240 250 250)" fill="cyan" stroke="black" stroke-width="0.5" />
<polygon points="309,454.382 279.5,403.286 338.5,403.286" transform="rotate(240 250 250)" fill="cyan" stroke="black" stroke-width="0.5" />
<polygon points="161.5,403.286 132,454.382 191,454.382" transform="rotate(240 250 250)" fill="cyan" stroke="black" stroke-width="0.5" />
<polygon points="220.5,403.286 191,454.382 250,454.382" transform="rotate(240 250 250)" fill="cyan" stroke="black" stroke-width="0.5" />
<polygon points="279.5,403.286 250,454.382 309,454.382" transform="rotate(240 250 250)" fill="cyan" stroke="black" stroke-width="0.5" />
<polygon points="338.5,403.286 309,454.382 368,454.382" transform="rotate(240 250 250)" fill="cyan" stroke="black" stroke-width="0.5" />
<polygon points="250,250 220.5,301.095 279.5,301.095" transform="rotate(300 250 250)" fill="cyan" stroke="black" stroke-width="0.5" />
<polygon points="250,352.191 220.5,301.095 279.5,301.095" transform="rotate(300 250 250)" fill="cyan" stroke="black" stroke-width="0.5" />
<polygon points="220.5,301.095 191,352.191 250,352.191" transform="rotate(300 250 250)" fill="cyan" stroke="black" stroke-width="0.5" />
<polygon points="220.5,403.286 191,352.191 250,352.191" transform="rotate(300 250 250)" fill="cyan" stroke="black" stroke-width="0.5" />
<polygon points="279.5,301.095 250,352.191 309,352.191" transform="rotate(300 250 250)" fill="cyan" stroke="black" stroke-width="0.5" />
<polygon points="279.5,403.286 250,352.191 309,352.191" transform="rotate(300 250 250)" fill="cyan" stroke="black" stroke-width="0.5" />
<polygon points="191,352.191 161.5,403.286 220.5,403.286" transform="rotate(300 250 250)" fill="cyan" stroke="black" stroke-width="0.5" />
<polygon points="191,454.382 161.5,403.286 220.5,403.286" transform="rotate(300 250 250)" fill="cyan" stroke="black" stroke-width="0.5" />
<polygon points="250,352.191 220.5,403.286 279.5,403.286" transform="rotate(300 250 250)" fill="cyan" stroke="black" stroke-width="0.5" />
<polygon points="250,454.382 220.5,403.286 279.5,403.286" transform="rotate(300 250 250)" fill="cyan" stroke="black" stroke-width="0.5" />
<polygon points="309,352.191 279.5,403.286 338.5,403.286" transform="rotate(300 250 250)" fill="cyan" stroke="black" stroke-width="0.5" />
<polygon points="309,454.382 279.5,403.286 338.5,403.286" transform="rotate(300 250 250)" fill="cyan" stroke="black" stroke-width="0.5" />
<polygon points="161.5,403.286 132,454.382 191,454.382" transform="rotate(300 250 250)" fill="cyan" stroke="black" stroke-width="0.5" />
<polygon points="220.5,403.286 191,454.382 250,454.382" transform="rotate(300 250 250)" fill="cyan" stroke="black" stroke-width="0.5" />
<polygon points="279.5,403.286 250,454.382 309,454.382" transform="rotate(300 250 250)" fill="cyan" stroke="black" stroke-width="0.5" />
<polygon points="338.5,403.286 309,454.382 368,454.382" transform="rotate(300 250 250)" fill="cyan" stroke="black" stroke-width="0.5" />
</svg>
