<svg version="1.1" baseProfile="full" xmlns="http://www.w3.org/2000/svg">
<circle cx="300" cy="300" r="300" transform="rotate(0 0 0)" fill="brown" stroke="black" stroke-width="0.5" />
<rect x="87.868"  y="87.868" width="30" height="75" transform="rotate(0 87.868 87.868)" fill="cyan" stroke="black" stroke-width="0.5" />
<rect x="117.868"  y="87.868" width="30" height="75" transform="rotate(0 87.868 87.868)" fill="cyan" stroke="black" stroke-width="0.5" />
<rect x="147.868"  y="87.868" width="30" height="75" transform="rotate(0 87.868 87.868)" fill="cyan" stroke="black" stroke-width="0.5" />
<rect x="177.868"  y="87.868" width="30" height="75" transform="rotate(0 87.868 87.868)" fill="cyan" stroke="black" stroke-width="0.5" />
<rect x="207.868"  y="87.868" width="30" height="75" transform="rotate(0 87.868 87.868)" fill="cyan" stroke="black" stroke-width="0.5" />
<rect x="237.868"  y="87.868" width="30" height="75" transform="rotate(0 87.868 87.868)" fill="cyan" stroke="black" stroke-width="0.5" />
<rect x="267.868"  y="87.868" width="30" height="75" transform="rotate(0 87.868 87.868)" fill="cyan" stroke="black" stroke-width="0.5" />
<rect x="297.868"  y="87.868" width="30" height="75" transform="rotate(0 87.868 87.868)" fill="cyan" stroke="black" stroke-width="0.5" />
<rect x="327.868"  y="87.868" width="30" height="75" transform="rotate(0 87.868 87.868)" fill="cyan" stroke="black" stroke-width="0.5" />
<rect x="357.868"  y="87.868" width="30" height="75" transform="rotate(0 87.868 87.868)" fill="cyan" stroke="black" stroke-width="0.5" />
<rect x="387.868"  y="87.868" width="30" height="75" transform="rotate(0 87.868 87.868)" fill="cyan" stroke="black" stroke-width="0.5" />
<rect x="417.868"  y="87.868" width="30" height="75" transform="rotate(0 87.868 87.868)" fill="cyan" stroke="black" stroke-width="0.5" />
<rect x="447.868"  y="87.868" width="30" height="75" transform="rotate(0 87.868 87.868)" fill="cyan" stroke="black" stroke-width="0.5" />
<rect x="477.868"  y="87.868" width="30" height="75" transform="rotate(0 87.868 87.868)" fill="cyan" stroke="black" stroke-width="0.5" />
<rect x="87.868"  y="162.868" width="30" height="75" transform="rotate(0 87.868 87.868)" fill="cyan" stroke="black" stroke-width="0.5" />
<rect x="117.868"  y="162.868" width="30" height="75" transform="rotate(0 87.868 87.868)" fill="cyan" stroke="black" stroke-width="0.5" />
<rect x="147.868"  y="162.868" width="30" height="75" transform="rotate(0 87.868 87.868)" fill="cyan" stroke="black" stroke-width="0.5" />
<rect x="177.868"  y="162.868" width="30" height="75" transform="rotate(0 87.868 87.868)" fill="cyan" stroke="black" stroke-width="0.5" />
<rect x="207.868"  y="162.868" width="30" height="75" transform="rotate(0 87.868 87.868)" fill="cyan" stroke="black" stroke-width="0.5" />
<rect x="237.868"  y="162.868" width="30" height="75" transform="rotate(0 87.868 87.868)" fill="cyan" stroke="black" stroke-width="0.5" />
<rect x="267.868"  y="162.868" width="30" height="75" transform="rotate(0 87.868 87.868)" fill="cyan" stroke="black" stroke-width="0.5" />
<rect x="297.868"  y="162.868" width="30" height="75" transform="rotate(0 87.868 87.868)" fill="cyan" stroke="black" stroke-width="0.5" />
<rect x="327.868"  y="162.868" width="30" height="75" transform="rotate(0 87.868 87.868)" fill="cyan" stroke="black" stroke-width="0.5" />
<rect x="357.868"  y="162.868" width="30" height="75" transform="rotate(0 87.868 87.868)" fill="cyan" stroke="black" stroke-width="0.5" />
<rect x="387.868"  y="162.868" width="30" height="75" transform="rotate(0 87.868 87.868)" fill="cyan" stroke="black" stroke-width="0.5" />
<rect x="417.868"  y="162.868" width="30" height="75" transform="rotate(0 87.868 87.868)" fill="cyan" stroke="black" stroke-width="0.5" />
<rect x="447.868"  y="162.868" width="30" height="75" transform="rotate(0 87.868 87.868)" fill="cyan" stroke="black" stroke-width="0.5" />
<rect x="477.868"  y="162.868" width="30" height="75" transform="rotate(0 87.868 87.868)" fill="cyan" stroke="black" stroke-width="0.5" />
<rect x="87.868"  y="237.868" width="30" height="75" transform="rotate(0 87.868 87.868)" fill="cyan" stroke="black" stroke-width="0.5" />
<rect x="117.868"  y="237.868" width="30" height="75" transform="rotate(0 87.868 87.868)" fill="cyan" stroke="black" stroke-width="0.5" />
<rect x="147.868"  y="237.868" width="30" height="75" transform="rotate(0 87.868 87.868)" fill="cyan" stroke="black" stroke-width="0.5" />
<rect x="177.868"  y="237.868" width="30" height="75" transform="rotate(0 87.868 87.868)" fill="cyan" stroke="black" stroke-width="0.5" />
<rect x="207.868"  y="237.868" width="30" height="75" transform="rotate(0 87.868 87.868)" fill="cyan" stroke="black" stroke-width="0.5" />
<rect x="237.868"  y="237.868" width="30" height="75" transform="rotate(0 87.868 87.868)" fill="cyan" stroke="black" stroke-width="0.5" />
<rect x="267.868"  y="237.868" width="30" height="75" transform="rotate(0 87.868 87.868)" fill="cyan" stroke="black" stroke-width="0.5" />
<rect x="297.868"  y="237.868" width="30" height="75" transform="rotate(0 87.868 87.868)" fill="cyan" stroke="black" stroke-width="0.5" />
<rect x="327.868"  y="237.868" width="30" height="75" transform="rotate(0 87.868 87.868)" fill="cyan" stroke="black" stroke-width="0.5" />
<rect x="357.868"  y="237.868" width="30" height="75" transform="rotate(0 87.868 87.868)" fill="cyan" stroke="black" stroke-width="0.5" />
<rect x="387.868"  y="237.868" width="30" height="75" transform="rotate(0 87.868 87.868)" fill="cyan" stroke="black" stroke-width="0.5" />
<rect x="417.868"  y="237.868" width="30" height="75" transform="rotate(0 87.868 87.868)" fill="cyan" stroke="black" stroke-width="0.5" />
<rect x="447.868"  y="237.868" width="30" height="75" transform="rotate(0 87.868 87.868)" fill="cyan" stroke="black" stroke-width="0.5" />
<rect x="477.868"  y="237.868" width="30" height="75" transform="rotate(0 87.868 87.868)" fill="cyan" stroke="black" stroke-width="0.5" />
<rect x="87.868"  y="312.868" width="30" height="75" transform="rotate(0 87.868 87.868)" fill="cyan" stroke="black" stroke-width="0.5" />
<rect x="117.868"  y="312.868" width="30" height="75" transform="rotate(0 87.868 87.868)" fill="cyan" stroke="black" stroke-width="0.5" />
<rect x="147.868"  y="312.868" width="30" height="75" transform="rotate(0 87.868 87.868)" fill="cyan" stroke="black" stroke-width="0.5" />
<rect x="177.868"  y="312.868" width="30" height="75" transform="rotate(0 87.868 87.868)" fill="cyan" stroke="black" stroke-width="0.5" />
<rect x="207.868"  y="312.868" width="30" height="75" transform="rotate(0 87.868 87.868)" fill="cyan" stroke="black" stroke-width="0.5" />
<rect x="237.868"  y="312.868" width="30" height="75" transform="rotate(0 87.868 87.868)" fill="cyan" stroke="black" stroke-width="0.5" />
<rect x="267.868"  y="312.868" width="30" height="75" transform="rotate(0 87.868 87.868)" fill="cyan" stroke="black" stroke-width="0.5" />
<rect x="297.868"  y="312.868" width="30" height="75" transform="rotate(0 87.868 87.868)" fill="cyan" stroke="black" stroke-width="0.5" />
<rect x="327.868"  y="312.868" width="30" height="75" transform="rotate(0 87.868 87.868)" fill="cyan" stroke="black" stroke-width="0.5" />
<rect x="357.868"  y="312.868" width="30" height="75" transform="rotate(0 87.868 87.868)" fill="cyan" stroke="black" stroke-width="0.5" />
<rect x="387.868"  y="312.868" width="30" height="75" transform="rotate(0 87.868 87.868)" fill="cyan" stroke="black" stroke-width="0.5" />
<rect x="417.868"  y="312.868" width="30" height="75" transform="rotate(0 87.868 87.868)" fill="cyan" stroke="black" stroke-width="0.5" />
<rect x="447.868"  y="312.868" width="30" height="75" transform="rotate(0 87.868 87.868)" fill="cyan" stroke="black" stroke-width="0.5" />
<rect x="477.868"  y="312.868" width="30" height="75" transform="rotate(0 87.868 87.868)" fill="cyan" stroke="black" stroke-width="0.5" />
<rect x="87.868"  y="387.868" width="30" height="75" transform="rotate(0 87.868 87.868)" fill="cyan" stroke="black" stroke-width="0.5" />
<rect x="117.868"  y="387.868" width="30" height="75" transform="rotate(0 87.868 87.868)" fill="cyan" stroke="black" stroke-width="0.5" />
<rect x="147.868"  y="387.868" width="30" height="75" transform="rotate(0 87.868 87.868)" fill="cyan" stroke="black" stroke-width="0.5" />
<rect x="177.868"  y="387.868" width="30" height="75" transform="rotate(0 87.868 87.868)" fill="cyan" stroke="black" stroke-width="0.5" />
<rect x="207.868"  y="387.868" width="30" height="75" transform="rotate(0 87.868 87.868)" fill="cyan" stroke="black" stroke-width="0.5" />
<rect x="237.868"  y="387.868" width="30" height="75" transform="rotate(0 87.868 87.868)" fill="cyan" stroke="black" stroke-width="0.5" />
<rect x="267.868"  y="387.868" width="30" height="75" transform="rotate(0 87.868 87.868)" fill="cyan" stroke="black" stroke-width="0.5" />
<rect x="297.868"  y="387.868" width="30" height="75" transform="rotate(0 87.868 87.868)" fill="cyan" stroke="black" stroke-width="0.5" />
<rect x="327.868"  y="387.868" width="30" height="75" transform="rotate(0 87.868 87.868)" fill="cyan" stroke="black" stroke-width="0.5" />
<rect x="357.868"  y="387.868" width="30" height="75" transform="rotate(0 87.868 87.868)" fill="cyan" stroke="black" stroke-width="0.5" />
<rect x="387.868"  y="387.868" width="30" height="75" transform="rotate(0 87.868 87.868)" fill="cyan" stroke="black" stroke-width="0.5" />
<rect x="417.868"  y="387.868" width="30" height="75" transform="rotate(0 87.868 87.868)" fill="cyan" stroke="black" stroke-width="0.5" />
<rect x="447.868"  y="387.868" width="30" height="75" transform="rotate(0 87.868 87.868)" fill="cyan" stroke="black" stroke-width="0.5" />
<rect x="477.868"  y="387.868" width="30" height="75" transform="rotate(0 87.868 87.868)" fill="cyan" stroke="black" stroke-width="0.5" />
<rect x="87.868"  y="462.868" width="75" height="30" transform="rotate(0 87.868 87.868)" fill="cyan" stroke="black" stroke-width="0.5" />
<rect x="162.868"  y="462.868" width="75" height="30" transform="rotate(0 87.868 87.868)" fill="cyan" stroke="black" stroke-width="0.5" />
<rect x="237.868"  y="462.868" width="75" height="30" transform="rotate(0 87.868 87.868)" fill="cyan" stroke="black" stroke-width="0.5" />
<rect x="312.868"  y="462.868" width="75" height="30" transform="rotate(0 87.868 87.868)" fill="cyan" stroke="black" stroke-width="0.5" />
<rect x="387.868"  y="462.868" width="75" height="30" transform="rotate(0 87.868 87.868)" fill="cyan" stroke="black" stroke-width="0.5" />
<rect x="300"  y="512.132" width="75" height="30" transform="rotate(0 300 300)" fill="cyan" stroke="black" stroke-width="0.5" />
<rect x="225"  y="512.132" width="75" height="30" transform="rotate(0 300 300)" fill="cyan" stroke="black" stroke-width="0.5" />
<rect x="375"  y="512.132" width="75" height="30" transform="rotate(0 300 300)" fill="cyan" stroke="black" stroke-width="0.5" />
<rect x="150"  y="512.132" width="75" height="30" transform="rotate(0 300 300)" fill="cyan" stroke="black" stroke-width="0.5" />
<rect x="300"  y="542.132" width="75" height="30" transform="rotate(0 300 300)" fill="cyan" stroke="black" stroke-width="0.5" />
<rect x="225"  y="542.132" width="75" height="30" transform="rotate(0 300 300)" fill="cyan" stroke="black" stroke-width="0.5" />
<rect x="300"  y="512.132" width="75" height="30" transform="rotate(90 300 300)" fill="cyan" stroke="black" stroke-width="0.5" />
<rect x="225"  y="512.132" width="75" height="30" transform="rotate(90 300 300)" fill="cyan" stroke="black" stroke-width="0.5" />
<rect x="375"  y="512.132" width="75" height="30" transform="rotate(90 300 300)" fill="cyan" stroke="black" stroke-width="0.5" />
<rect x="150"  y="512.132" width="75" height="30" transform="rotate(90 300 300)" fill="cyan" stroke="black" stroke-width="0.5" />
<rect x="300"  y="542.132" width="75" height="30" transform="rotate(90 300 300)" fill="cyan" stroke="black" stroke-width="0.5" />
<rect x="225"  y="542.132" width="75" height="30" transform="rotate(90 300 300)" fill="cyan" stroke="black" stroke-width="0.5" />
<rect x="300"  y="512.132" width="75" height="30" transform="rotate(180 300 300)" fill="cyan" stroke="black" stroke-width="0.5" />
<rect x="225"  y="512.132" width="75" height="30" transform="rotate(180 300 300)" fill="cyan" stroke="black" stroke-width="0.5" />
<rect x="375"  y="512.132" width="75" height="30" transform="rotate(180 300 300)" fill="cyan" stroke="black" stroke-width="0.5" />
<rect x="150"  y="512.132" width="75" height="30" transform="rotate(180 300 300)" fill="cyan" stroke="black" stroke-width="0.5" />
<rect x="300"  y="542.132" width="75" height="30" transform="rotate(180 300 300)" fill="cyan" stroke="black" stroke-width="0.5" />
<rect x="225"  y="542.132" width="75" height="30" transform="rotate(180 300 300)" fill="cyan" stroke="black" stroke-width="0.5" />
<rect x="300"  y="512.132" width="75" height="30" transform="rotate(270 300 300)" fill="cyan" stroke="black" stroke-width="0.5" />
<rect x="225"  y="512.132" width="75" height="30" transform="rotate(270 300 300)" fill="cyan" stroke="black" stroke-width="0.5" />
<rect x="375"  y="512.132" width="75" height="30" transform="rotate(270 300 300)" fill="cyan" stroke="black" stroke-width="0.5" />
<rect x="150"  y="512.132" width="75" height="30" transform="rotate(270 300 300)" fill="cyan" stroke="black" stroke-width="0.5" />
<rect x="300"  y="542.132" width="75" height="30" transform="rotate(270 300 300)" fill="cyan" stroke="black" stroke-width="0.5" />
<rect x="225"  y="542.132" width="75" height="30" transform="rotate(270 300 300)" fill="cyan" stroke="black" stroke-width="0.5" />
</svg>
