<svg version="1.1" baseProfile="full" xmlns="http://www.w3.org/2000/svg">
<circle cx="500" cy="500" r="500" transform="rotate(0 0 0)" fill="pink" stroke="black" stroke-width="0.5" />
<circle cx="500" cy="30" r="30" transform="rotate(0 500 500)" fill="cyan" stroke="black" stroke-width="0.5" />
<circle cx="500" cy="30" r="30" transform="rotate(7.34694 500 500)" fill="cyan" stroke="black" stroke-width="0.5" />
<circle cx="500" cy="30" r="30" transform="rotate(14.6939 500 500)" fill="cyan" stroke="black" stroke-width="0.5" />
<circle cx="500" cy="30" r="30" transform="rotate(22.0408 500 500)" fill="cyan" stroke="black" stroke-width="0.5" />
<circle cx="500" cy="30" r="30" transform="rotate(29.3878 500 500)" fill="cyan" stroke="black" stroke-width="0.5" />
<circle cx="500" cy="30" r="30" transform="rotate(36.7347 500 500)" fill="cyan" stroke="black" stroke-width="0.5" />
<circle cx="500" cy="30" r="30" transform="rotate(44.0816 500 500)" fill="cyan" stroke="black" stroke-width="0.5" />
<circle cx="500" cy="30" r="30" transform="rotate(51.4286 500 500)" fill="cyan" stroke="black" stroke-width="0.5" />
<circle cx="500" cy="30" r="30" transform="rotate(58.7755 500 500)" fill="cyan" stroke="black" stroke-width="0.5" />
<circle cx="500" cy="30" r="30" transform="rotate(66.1224 500 500)" fill="cyan" stroke="black" stroke-width="0.5" />
<circle cx="500" cy="30" r="30" transform="rotate(73.4694 500 500)" fill="cyan" stroke="black" stroke-width="0.5" />
<circle cx="500" cy="30" r="30" transform="rotate(80.8163 500 500)" fill="cyan" stroke="black" stroke-width="0.5" />
<circle cx="500" cy="30" r="30" transform="rotate(88.1633 500 500)" fill="cyan" stroke="black" stroke-width="0.5" />
<circle cx="500" cy="30" r="30" transform="rotate(95.5102 500 500)" fill="cyan" stroke="black" stroke-width="0.5" />
<circle cx="500" cy="30" r="30" transform="rotate(102.857 500 500)" fill="cyan" stroke="black" stroke-width="0.5" />
<circle cx="500" cy="30" r="30" transform="rotate(110.204 500 500)" fill="cyan" stroke="black" stroke-width="0.5" />
<circle cx="500" cy="30" r="30" transform="rotate(117.551 500 500)" fill="cyan" stroke="black" stroke-width="0.5" />
<circle cx="500" cy="30" r="30" transform="rotate(124.898 500 500)" fill="cyan" stroke="black" stroke-width="0.5" />
<circle cx="500" cy="30" r="30" transform="rotate(132.245 500 500)" fill="cyan" stroke="black" stroke-width="0.5" />
<circle cx="500" cy="30" r="30" transform="rotate(139.592 500 500)" fill="cyan" stroke="black" stroke-width="0.5" />
<circle cx="500" cy="30" r="30" transform="rotate(146.939 500 500)" fill="cyan" stroke="black" stroke-width="0.5" />
<circle cx="500" cy="30" r="30" transform="rotate(154.286 500 500)" fill="cyan" stroke="black" stroke-width="0.5" />
<circle cx="500" cy="30" r="30" transform="rotate(161.633 500 500)" fill="cyan" stroke="black" stroke-width="0.5" />
<circle cx="500" cy="30" r="30" transform="rotate(168.98 500 500)" fill="cyan" stroke="black" stroke-width="0.5" />
<circle cx="500" cy="30" r="30" transform="rotate(176.327 500 500)" fill="cyan" stroke="black" stroke-width="0.5" />
<circle cx="500" cy="30" r="30" transform="rotate(183.673 500 500)" fill="cyan" stroke="black" stroke-width="0.5" />
<circle cx="500" cy="30" r="30" transform="rotate(191.02 500 500)" fill="cyan" stroke="black" stroke-width="0.5" />
<circle cx="500" cy="30" r="30" transform="rotate(198.367 500 500)" fill="cyan" stroke="black" stroke-width="0.5" />
<circle cx="500" cy="30" r="30" transform="rotate(205.714 500 500)" fill="cyan" stroke="black" stroke-width="0.5" />
<circle cx="500" cy="30" r="30" transform="rotate(213.061 500 500)" fill="cyan" stroke="black" stroke-width="0.5" />
<circle cx="500" cy="30" r="30" transform="rotate(220.408 500 500)" fill="cyan" stroke="black" stroke-width="0.5" />
<circle cx="500" cy="30" r="30" transform="rotate(227.755 500 500)" fill="cyan" stroke="black" stroke-width="0.5" />
<circle cx="500" cy="30" r="30" transform="rotate(235.102 500 500)" fill="cyan" stroke="black" stroke-width="0.5" />
<circle cx="500" cy="30" r="30" transform="rotate(242.449 500 500)" fill="cyan" stroke="black" stroke-width="0.5" />
<circle cx="500" cy="30" r="30" transform="rotate(249.796 500 500)" fill="cyan" stroke="black" stroke-width="0.5" />
<circle cx="500" cy="30" r="30" transform="rotate(257.143 500 500)" fill="cyan" stroke="black" stroke-width="0.5" />
<circle cx="500" cy="30" r="30" transform="rotate(264.49 500 500)" fill="cyan" stroke="black" stroke-width="0.5" />
<circle cx="500" cy="30" r="30" transform="rotate(271.837 500 500)" fill="cyan" stroke="black" stroke-width="0.5" />
<circle cx="500" cy="30" r="30" transform="rotate(279.184 500 500)" fill="cyan" stroke="black" stroke-width="0.5" />
<circle cx="500" cy="30" r="30" transform="rotate(286.531 500 500)" fill="cyan" stroke="black" stroke-width="0.5" />
<circle cx="500" cy="30" r="30" transform="rotate(293.878 500 500)" fill="cyan" stroke="black" stroke-width="0.5" />
<circle cx="500" cy="30" r="30" transform="rotate(301.224 500 500)" fill="cyan" stroke="black" stroke-width="0.5" />
<circle cx="500" cy="30" r="30" transform="rotate(308.571 500 500)" fill="cyan" stroke="black" stroke-width="0.5" />
<circle cx="500" cy="30" r="30" transform="rotate(315.918 500 500)" fill="cyan" stroke="black" stroke-width="0.5" />
<circle cx="500" cy="30" r="30" transform="rotate(323.265 500 500)" fill="cyan" stroke="black" stroke-width="0.5" />
<circle cx="500" cy="30" r="30" transform="rotate(330.612 500 500)" fill="cyan" stroke="black" stroke-width="0.5" />
<circle cx="500" cy="30" r="30" transform="rotate(337.959 500 500)" fill="cyan" stroke="black" stroke-width="0.5" />
<circle cx="500" cy="30" r="30" transform="rotate(345.306 500 500)" fill="cyan" stroke="black" stroke-width="0.5" />
<circle cx="500" cy="30" r="30" transform="rotate(352.653 500 500)" fill="cyan" stroke="black" stroke-width="0.5" />
<circle cx="500" cy="90" r="30" transform="rotate(0 500 500)" fill="cyan" stroke="black" stroke-width="0.5" />
<circle cx="500" cy="90" r="30" transform="rotate(8.57143 500 500)" fill="cyan" stroke="black" stroke-width="0.5" />
<circle cx="500" cy="90" r="30" transform="rotate(17.1429 500 500)" fill="cyan" stroke="black" stroke-width="0.5" />
<circle cx="500" cy="90" r="30" transform="rotate(25.7143 500 500)" fill="cyan" stroke="black" stroke-width="0.5" />
<circle cx="500" cy="90" r="30" transform="rotate(34.2857 500 500)" fill="cyan" stroke="black" stroke-width="0.5" />
<circle cx="500" cy="90" r="30" transform="rotate(42.8571 500 500)" fill="cyan" stroke="black" stroke-width="0.5" />
<circle cx="500" cy="90" r="30" transform="rotate(51.4286 500 500)" fill="cyan" stroke="black" stroke-width="0.5" />
<circle cx="500" cy="90" r="30" transform="rotate(60 500 500)" fill="cyan" stroke="black" stroke-width="0.5" />
<circle cx="500" cy="90" r="30" transform="rotate(68.5714 500 500)" fill="cyan" stroke="black" stroke-width="0.5" />
<circle cx="500" cy="90" r="30" transform="rotate(77.1429 500 500)" fill="cyan" stroke="black" stroke-width="0.5" />
<circle cx="500" cy="90" r="30" transform="rotate(85.7143 500 500)" fill="cyan" stroke="black" stroke-width="0.5" />
<circle cx="500" cy="90" r="30" transform="rotate(94.2857 500 500)" fill="cyan" stroke="black" stroke-width="0.5" />
<circle cx="500" cy="90" r="30" transform="rotate(102.857 500 500)" fill="cyan" stroke="black" stroke-width="0.5" />
<circle cx="500" cy="90" r="30" transform="rotate(111.429 500 500)" fill="cyan" stroke="black" stroke-width="0.5" />
<circle cx="500" cy="90" r="30" transform="rotate(120 500 500)" fill="cyan" stroke="black" stroke-width="0.5" />
<circle cx="500" cy="90" r="30" transform="rotate(128.571 500 500)" fill="cyan" stroke="black" stroke-width="0.5" />
<circle cx="500" cy="90" r="30" transform="rotate(137.143 500 500)" fill="cyan" stroke="black" stroke-width="0.5" />
<circle cx="500" cy="90" r="30" transform="rotate(145.714 500 500)" fill="cyan" stroke="black" stroke-width="0.5" />
<circle cx="500" cy="90" r="30" transform="rotate(154.286 500 500)" fill="cyan" stroke="black" stroke-width="0.5" />
<circle cx="500" cy="90" r="30" transform="rotate(162.857 500 500)" fill="cyan" stroke="black" stroke-width="0.5" />
<circle cx="500" cy="90" r="30" transform="rotate(171.429 500 500)" fill="cyan" stroke="black" stroke-width="0.5" />
<circle cx="500" cy="90" r="30" transform="rotate(180 500 500)" fill="cyan" stroke="black" stroke-width="0.5" />
<circle cx="500" cy="90" r="30" transform="rotate(188.571 500 500)" fill="cyan" stroke="black" stroke-width="0.5" />
<circle cx="500" cy="90" r="30" transform="rotate(197.143 500 500)" fill="cyan" stroke="black" stroke-width="0.5" />
<circle cx="500" cy="90" r="30" transform="rotate(205.714 500 500)" fill="cyan" stroke="black" stroke-width="0.5" />
<circle cx="500" cy="90" r="30" transform="rotate(214.286 500 500)" fill="cyan" stroke="black" stroke-width="0.5" />
<circle cx="500" cy="90" r="30" transform="rotate(222.857 500 500)" fill="cyan" stroke="black" stroke-width="0.5" />
<circle cx="500" cy="90" r="30" transform="rotate(231.429 500 500)" fill="cyan" stroke="black" stroke-width="0.5" />
<circle cx="500" cy="90" r="30" transform="rotate(240 500 500)" fill="cyan" stroke="black" stroke-width="0.5" />
<circle cx="500" cy="90" r="30" transform="rotate(248.571 500 500)" fill="cyan" stroke="black" stroke-width="0.5" />
<circle cx="500" cy="90" r="30" transform="rotate(257.143 500 500)" fill="cyan" stroke="black" stroke-width="0.5" />
<circle cx="500" cy="90" r="30" transform="rotate(265.714 500 500)" fill="cyan" stroke="black" stroke-width="0.5" />
<circle cx="500" cy="90" r="30" transform="rotate(274.286 500 500)" fill="cyan" stroke="black" stroke-width="0.5" />
<circle cx="500" cy="90" r="30" transform="rotate(282.857 500 500)" fill="cyan" stroke="black" stroke-width="0.5" />
<circle cx="500" cy="90" r="30" transform="rotate(291.429 500 500)" fill="cyan" stroke="black" stroke-width="0.5" />
<circle cx="500" cy="90" r="30" transform="rotate(300 500 500)" fill="cyan" stroke="black" stroke-width="0.5" />
<circle cx="500" cy="90" r="30" transform="rotate(308.571 500 500)" fill="cyan" stroke="black" stroke-width="0.5" />
<circle cx="500" cy="90" r="30" transform="rotate(317.143 500 500)" fill="cyan" stroke="black" stroke-width="0.5" />
<circle cx="500" cy="90" r="30" transform="rotate(325.714 500 500)" fill="cyan" stroke="black" stroke-width="0.5" />
<circle cx="500" cy="90" r="30" transform="rotate(334.286 500 500)" fill="cyan" stroke="black" stroke-width="0.5" />
<circle cx="500" cy="90" r="30" transform="rotate(342.857 500 500)" fill="cyan" stroke="black" stroke-width="0.5" />
<circle cx="500" cy="90" r="30" transform="rotate(351.429 500 500)" fill="cyan" stroke="black" stroke-width="0.5" />
<circle cx="500" cy="150" r="30" transform="rotate(0 500 500)" fill="cyan" stroke="black" stroke-width="0.5" />
<circle cx="500" cy="150" r="30" transform="rotate(10 500 500)" fill="cyan" stroke="black" stroke-width="0.5" />
<circle cx="500" cy="150" r="30" transform="rotate(20 500 500)" fill="cyan" stroke="black" stroke-width="0.5" />
<circle cx="500" cy="150" r="30" transform="rotate(30 500 500)" fill="cyan" stroke="black" stroke-width="0.5" />
<circle cx="500" cy="150" r="30" transform="rotate(40 500 500)" fill="cyan" stroke="black" stroke-width="0.5" />
<circle cx="500" cy="150" r="30" transform="rotate(50 500 500)" fill="cyan" stroke="black" stroke-width="0.5" />
<circle cx="500" cy="150" r="30" transform="rotate(60 500 500)" fill="cyan" stroke="black" stroke-width="0.5" />
<circle cx="500" cy="150" r="30" transform="rotate(70 500 500)" fill="cyan" stroke="black" stroke-width="0.5" />
<circle cx="500" cy="150" r="30" transform="rotate(80 500 500)" fill="cyan" stroke="black" stroke-width="0.5" />
<circle cx="500" cy="150" r="30" transform="rotate(90 500 500)" fill="cyan" stroke="black" stroke-width="0.5" />
<circle cx="500" cy="150" r="30" transform="rotate(100 500 500)" fill="cyan" stroke="black" stroke-width="0.5" />
<circle cx="500" cy="150" r="30" transform="rotate(110 500 500)" fill="cyan" stroke="black" stroke-width="0.5" />
<circle cx="500" cy="150" r="30" transform="rotate(120 500 500)" fill="cyan" stroke="black" stroke-width="0.5" />
<circle cx="500" cy="150" r="30" transform="rotate(130 500 500)" fill="cyan" stroke="black" stroke-width="0.5" />
<circle cx="500" cy="150" r="30" transform="rotate(140 500 500)" fill="cyan" stroke="black" stroke-width="0.5" />
<circle cx="500" cy="150" r="30" transform="rotate(150 500 500)" fill="cyan" stroke="black" stroke-width="0.5" />
<circle cx="500" cy="150" r="30" transform="rotate(160 500 500)" fill="cyan" stroke="black" stroke-width="0.5" />
<circle cx="500" cy="150" r="30" transform="rotate(170 500 500)" fill="cyan" stroke="black" stroke-width="0.5" />
<circle cx="500" cy="150" r="30" transform="rotate(180 500 500)" fill="cyan" stroke="black" stroke-width="0.5" />
<circle cx="500" cy="150" r="30" transform="rotate(190 500 500)" fill="cyan" stroke="black" stroke-width="0.5" />
<circle cx="500" cy="150" r="30" transform="rotate(200 500 500)" fill="cyan" stroke="black" stroke-width="0.5" />
<circle cx="500" cy="150" r="30" transform="rotate(210 500 500)" fill="cyan" stroke="black" stroke-width="0.5" />
<circle cx="500" cy="150" r="30" transform="rotate(220 500 500)" fill="cyan" stroke="black" stroke-width="0.5" />
<circle cx="500" cy="150" r="30" transform="rotate(230 500 500)" fill="cyan" stroke="black" stroke-width="0.5" />
<circle cx="500" cy="150" r="30" transform="rotate(240 500 500)" fill="cyan" stroke="black" stroke-width="0.5" />
<circle cx="500" cy="150" r="30" transform="rotate(250 500 500)" fill="cyan" stroke="black" stroke-width="0.5" />
<circle cx="500" cy="150" r="30" transform="rotate(260 500 500)" fill="cyan" stroke="black" stroke-width="0.5" />
<circle cx="500" cy="150" r="30" transform="rotate(270 500 500)" fill="cyan" stroke="black" stroke-width="0.5" />
<circle cx="500" cy="150" r="30" transform="rotate(280 500 500)" fill="cyan" stroke="black" stroke-width="0.5" />
<circle cx="500" cy="150" r="30" transform="rotate(290 500 500)" fill="cyan" stroke="black" stroke-width="0.5" />
<circle cx="500" cy="150" r="30" transform="rotate(300 500 500)" fill="cyan" stroke="black" stroke-width="0.5" />
<circle cx="500" cy="150" r="30" transform="rotate(310 500 500)" fill="cyan" stroke="black" stroke-width="0.5" />
<circle cx="500" cy="150" r="30" transform="rotate(320 500 500)" fill="cyan" stroke="black" stroke-width="0.5" />
<circle cx="500" cy="150" r="30" transform="rotate(330 500 500)" fill="cyan" stroke="black" stroke-width="0.5" />
<circle cx="500" cy="150" r="30" transform="rotate(340 500 500)" fill="cyan" stroke="black" stroke-width="0.5" />
<circle cx="500" cy="150" r="30" transform="rotate(350 500 500)" fill="cyan" stroke="black" stroke-width="0.5" />
<circle cx="500" cy="210" r="30" transform="rotate(0 500 500)" fill="cyan" stroke="black" stroke-width="0.5" />
<circle cx="500" cy="210" r="30" transform="rotate(12 500 500)" fill="cyan" stroke="black" stroke-width="0.5" />
<circle cx="500" cy="210" r="30" transform="rotate(24 500 500)" fill="cyan" stroke="black" stroke-width="0.5" />
<circle cx="500" cy="210" r="30" transform="rotate(36 500 500)" fill="cyan" stroke="black" stroke-width="0.5" />
<circle cx="500" cy="210" r="30" transform="rotate(48 500 500)" fill="cyan" stroke="black" stroke-width="0.5" />
<circle cx="500" cy="210" r="30" transform="rotate(60 500 500)" fill="cyan" stroke="black" stroke-width="0.5" />
<circle cx="500" cy="210" r="30" transform="rotate(72 500 500)" fill="cyan" stroke="black" stroke-width="0.5" />
<circle cx="500" cy="210" r="30" transform="rotate(84 500 500)" fill="cyan" stroke="black" stroke-width="0.5" />
<circle cx="500" cy="210" r="30" transform="rotate(96 500 500)" fill="cyan" stroke="black" stroke-width="0.5" />
<circle cx="500" cy="210" r="30" transform="rotate(108 500 500)" fill="cyan" stroke="black" stroke-width="0.5" />
<circle cx="500" cy="210" r="30" transform="rotate(120 500 500)" fill="cyan" stroke="black" stroke-width="0.5" />
<circle cx="500" cy="210" r="30" transform="rotate(132 500 500)" fill="cyan" stroke="black" stroke-width="0.5" />
<circle cx="500" cy="210" r="30" transform="rotate(144 500 500)" fill="cyan" stroke="black" stroke-width="0.5" />
<circle cx="500" cy="210" r="30" transform="rotate(156 500 500)" fill="cyan" stroke="black" stroke-width="0.5" />
<circle cx="500" cy="210" r="30" transform="rotate(168 500 500)" fill="cyan" stroke="black" stroke-width="0.5" />
<circle cx="500" cy="210" r="30" transform="rotate(180 500 500)" fill="cyan" stroke="black" stroke-width="0.5" />
<circle cx="500" cy="210" r="30" transform="rotate(192 500 500)" fill="cyan" stroke="black" stroke-width="0.5" />
<circle cx="500" cy="210" r="30" transform="rotate(204 500 500)" fill="cyan" stroke="black" stroke-width="0.5" />
<circle cx="500" cy="210" r="30" transform="rotate(216 500 500)" fill="cyan" stroke="black" stroke-width="0.5" />
<circle cx="500" cy="210" r="30" transform="rotate(228 500 500)" fill="cyan" stroke="black" stroke-width="0.5" />
<circle cx="500" cy="210" r="30" transform="rotate(240 500 500)" fill="cyan" stroke="black" stroke-width="0.5" />
<circle cx="500" cy="210" r="30" transform="rotate(252 500 500)" fill="cyan" stroke="black" stroke-width="0.5" />
<circle cx="500" cy="210" r="30" transform="rotate(264 500 500)" fill="cyan" stroke="black" stroke-width="0.5" />
<circle cx="500" cy="210" r="30" transform="rotate(276 500 500)" fill="cyan" stroke="black" stroke-width="0.5" />
<circle cx="500" cy="210" r="30" transform="rotate(288 500 500)" fill="cyan" stroke="black" stroke-width="0.5" />
<circle cx="500" cy="210" r="30" transform="rotate(300 500 500)" fill="cyan" stroke="black" stroke-width="0.5" />
<circle cx="500" cy="210" r="30" transform="rotate(312 500 500)" fill="cyan" stroke="black" stroke-width="0.5" />
<circle cx="500" cy="210" r="30" transform="rotate(324 500 500)" fill="cyan" stroke="black" stroke-width="0.5" />
<circle cx="500" cy="210" r="30" transform="rotate(336 500 500)" fill="cyan" stroke="black" stroke-width="0.5" />
<circle cx="500" cy="210" r="30" transform="rotate(348 500 500)" fill="cyan" stroke="black" stroke-width="0.5" />
<circle cx="500" cy="270" r="30" transform="rotate(0 500 500)" fill="cyan" stroke="black" stroke-width="0.5" />
<circle cx="500" cy="270" r="30" transform="rotate(15 500 500)" fill="cyan" stroke="black" stroke-width="0.5" />
<circle cx="500" cy="270" r="30" transform="rotate(30 500 500)" fill="cyan" stroke="black" stroke-width="0.5" />
<circle cx="500" cy="270" r="30" transform="rotate(45 500 500)" fill="cyan" stroke="black" stroke-width="0.5" />
<circle cx="500" cy="270" r="30" transform="rotate(60 500 500)" fill="cyan" stroke="black" stroke-width="0.5" />
<circle cx="500" cy="270" r="30" transform="rotate(75 500 500)" fill="cyan" stroke="black" stroke-width="0.5" />
<circle cx="500" cy="270" r="30" transform="rotate(90 500 500)" fill="cyan" stroke="black" stroke-width="0.5" />
<circle cx="500" cy="270" r="30" transform="rotate(105 500 500)" fill="cyan" stroke="black" stroke-width="0.5" />
<circle cx="500" cy="270" r="30" transform="rotate(120 500 500)" fill="cyan" stroke="black" stroke-width="0.5" />
<circle cx="500" cy="270" r="30" transform="rotate(135 500 500)" fill="cyan" stroke="black" stroke-width="0.5" />
<circle cx="500" cy="270" r="30" transform="rotate(150 500 500)" fill="cyan" stroke="black" stroke-width="0.5" />
<circle cx="500" cy="270" r="30" transform="rotate(165 500 500)" fill="cyan" stroke="black" stroke-width="0.5" />
<circle cx="500" cy="270" r="30" transform="rotate(180 500 500)" fill="cyan" stroke="black" stroke-width="0.5" />
<circle cx="500" cy="270" r="30" transform="rotate(195 500 500)" fill="cyan" stroke="black" stroke-width="0.5" />
<circle cx="500" cy="270" r="30" transform="rotate(210 500 500)" fill="cyan" stroke="black" stroke-width="0.5" />
<circle cx="500" cy="270" r="30" transform="rotate(225 500 500)" fill="cyan" stroke="black" stroke-width="0.5" />
<circle cx="500" cy="270" r="30" transform="rotate(240 500 500)" fill="cyan" stroke="black" stroke-width="0.5" />
<circle cx="500" cy="270" r="30" transform="rotate(255 500 500)" fill="cyan" stroke="black" stroke-width="0.5" />
<circle cx="500" cy="270" r="30" transform="rotate(270 500 500)" fill="cyan" stroke="black" stroke-width="0.5" />
<circle cx="500" cy="270" r="30" transform="rotate(285 500 500)" fill="cyan" stroke="black" stroke-width="0.5" />
<circle cx="500" cy="270" r="30" transform="rotate(300 500 500)" fill="cyan" stroke="black" stroke-width="0.5" />
<circle cx="500" cy="270" r="30" transform="rotate(315 500 500)" fill="cyan" stroke="black" stroke-width="0.5" />
<circle cx="500" cy="270" r="30" transform="rotate(330 500 500)" fill="cyan" stroke="black" stroke-width="0.5" />
<circle cx="500" cy="270" r="30" transform="rotate(345 500 500)" fill="cyan" stroke="black" stroke-width="0.5" />
<circle cx="500" cy="330" r="30" transform="rotate(0 500 500)" fill="cyan" stroke="black" stroke-width="0.5" />
<circle cx="500" cy="330" r="30" transform="rotate(21.1765 500 500)" fill="cyan" stroke="black" stroke-width="0.5" />
<circle cx="500" cy="330" r="30" transform="rotate(42.3529 500 500)" fill="cyan" stroke="black" stroke-width="0.5" />
<circle cx="500" cy="330" r="30" transform="rotate(63.5294 500 500)" fill="cyan" stroke="black" stroke-width="0.5" />
<circle cx="500" cy="330" r="30" transform="rotate(84.7059 500 500)" fill="cyan" stroke="black" stroke-width="0.5" />
<circle cx="500" cy="330" r="30" transform="rotate(105.882 500 500)" fill="cyan" stroke="black" stroke-width="0.5" />
<circle cx="500" cy="330" r="30" transform="rotate(127.059 500 500)" fill="cyan" stroke="black" stroke-width="0.5" />
<circle cx="500" cy="330" r="30" transform="rotate(148.235 500 500)" fill="cyan" stroke="black" stroke-width="0.5" />
<circle cx="500" cy="330" r="30" transform="rotate(169.412 500 500)" fill="cyan" stroke="black" stroke-width="0.5" />
<circle cx="500" cy="330" r="30" transform="rotate(190.588 500 500)" fill="cyan" stroke="black" stroke-width="0.5" />
<circle cx="500" cy="330" r="30" transform="rotate(211.765 500 500)" fill="cyan" stroke="black" stroke-width="0.5" />
<circle cx="500" cy="330" r="30" transform="rotate(232.941 500 500)" fill="cyan" stroke="black" stroke-width="0.5" />
<circle cx="500" cy="330" r="30" transform="rotate(254.118 500 500)" fill="cyan" stroke="black" stroke-width="0.5" />
<circle cx="500" cy="330" r="30" transform="rotate(275.294 500 500)" fill="cyan" stroke="black" stroke-width="0.5" />
<circle cx="500" cy="330" r="30" transform="rotate(296.471 500 500)" fill="cyan" stroke="black" stroke-width="0.5" />
<circle cx="500" cy="330" r="30" transform="rotate(317.647 500 500)" fill="cyan" stroke="black" stroke-width="0.5" />
<circle cx="500" cy="330" r="30" transform="rotate(338.824 500 500)" fill="cyan" stroke="black" stroke-width="0.5" />
<circle cx="500" cy="390" r="30" transform="rotate(0 500 500)" fill="cyan" stroke="black" stroke-width="0.5" />
<circle cx="500" cy="390" r="30" transform="rotate(32.7273 500 500)" fill="cyan" stroke="black" stroke-width="0.5" />
<circle cx="500" cy="390" r="30" transform="rotate(65.4545 500 500)" fill="cyan" stroke="black" stroke-width="0.5" />
<circle cx="500" cy="390" r="30" transform="rotate(98.1818 500 500)" fill="cyan" stroke="black" stroke-width="0.5" />
<circle cx="500" cy="390" r="30" transform="rotate(130.909 500 500)" fill="cyan" stroke="black" stroke-width="0.5" />
<circle cx="500" cy="390" r="30" transform="rotate(163.636 500 500)" fill="cyan" stroke="black" stroke-width="0.5" />
<circle cx="500" cy="390" r="30" transform="rotate(196.364 500 500)" fill="cyan" stroke="black" stroke-width="0.5" />
<circle cx="500" cy="390" r="30" transform="rotate(229.091 500 500)" fill="cyan" stroke="black" stroke-width="0.5" />
<circle cx="500" cy="390" r="30" transform="rotate(261.818 500 500)" fill="cyan" stroke="black" stroke-width="0.5" />
<circle cx="500" cy="390" r="30" transform="rotate(294.545 500 500)" fill="cyan" stroke="black" stroke-width="0.5" />
<circle cx="500" cy="390" r="30" transform="rotate(327.273 500 500)" fill="cyan" stroke="black" stroke-width="0.5" />
<circle cx="500" cy="450" r="30" transform="rotate(0 500 500)" fill="cyan" stroke="black" stroke-width="0.5" />
<circle cx="500" cy="450" r="30" transform="rotate(90 500 500)" fill="cyan" stroke="black" stroke-width="0.5" />
<circle cx="500" cy="450" r="30" transform="rotate(180 500 500)" fill="cyan" stroke="black" stroke-width="0.5" />
<circle cx="500" cy="450" r="30" transform="rotate(270 500 500)" fill="cyan" stroke="black" stroke-width="0.5" />
</svg>
