<svg version="1.1" baseProfile="full" xmlns="http://www.w3.org/2000/svg">
<rect x="0"  y="0" width="750" height="500" transform="rotate(0 0 0)" fill="red" stroke="black" stroke-width="0.5" />
<circle cx="25" cy="25" r="25" transform="rotate(0 0 0)" fill="magenta" stroke="black" stroke-width="0.5" />
<circle cx="75" cy="25" r="25" transform="rotate(0 0 0)" fill="magenta" stroke="black" stroke-width="0.5" />
<circle cx="125" cy="25" r="25" transform="rotate(0 0 0)" fill="magenta" stroke="black" stroke-width="0.5" />
<circle cx="175" cy="25" r="25" transform="rotate(0 0 0)" fill="magenta" stroke="black" stroke-width="0.5" />
<circle cx="225" cy="25" r="25" transform="rotate(0 0 0)" fill="magenta" stroke="black" stroke-width="0.5" />
<circle cx="275" cy="25" r="25" transform="rotate(0 0 0)" fill="magenta" stroke="black" stroke-width="0.5" />
<circle cx="325" cy="25" r="25" transform="rotate(0 0 0)" fill="magenta" stroke="black" stroke-width="0.5" />
<circle cx="375" cy="25" r="25" transform="rotate(0 0 0)" fill="magenta" stroke="black" stroke-width="0.5" />
<circle cx="425" cy="25" r="25" transform="rotate(0 0 0)" fill="magenta" stroke="black" stroke-width="0.5" />
<circle cx="475" cy="25" r="25" transform="rotate(0 0 0)" fill="magenta" stroke="black" stroke-width="0.5" />
<circle cx="525" cy="25" r="25" transform="rotate(0 0 0)" fill="magenta" stroke="black" stroke-width="0.5" />
<circle cx="575" cy="25" r="25" transform="rotate(0 0 0)" fill="magenta" stroke="black" stroke-width="0.5" />
<circle cx="625" cy="25" r="25" transform="rotate(0 0 0)" fill="magenta" stroke="black" stroke-width="0.5" />
<circle cx="675" cy="25" r="25" transform="rotate(0 0 0)" fill="magenta" stroke="black" stroke-width="0.5" />
<circle cx="725" cy="25" r="25" transform="rotate(0 0 0)" fill="magenta" stroke="black" stroke-width="0.5" />
<circle cx="50" cy="68.3013" r="25" transform="rotate(0 0 0)" fill="magenta" stroke="black" stroke-width="0.5" />
<circle cx="100" cy="68.3013" r="25" transform="rotate(0 0 0)" fill="magenta" stroke="black" stroke-width="0.5" />
<circle cx="150" cy="68.3013" r="25" transform="rotate(0 0 0)" fill="magenta" stroke="black" stroke-width="0.5" />
<circle cx="200" cy="68.3013" r="25" transform="rotate(0 0 0)" fill="magenta" stroke="black" stroke-width="0.5" />
<circle cx="250" cy="68.3013" r="25" transform="rotate(0 0 0)" fill="magenta" stroke="black" stroke-width="0.5" />
<circle cx="300" cy="68.3013" r="25" transform="rotate(0 0 0)" fill="magenta" stroke="black" stroke-width="0.5" />
<circle cx="350" cy="68.3013" r="25" transform="rotate(0 0 0)" fill="magenta" stroke="black" stroke-width="0.5" />
<circle cx="400" cy="68.3013" r="25" transform="rotate(0 0 0)" fill="magenta" stroke="black" stroke-width="0.5" />
<circle cx="450" cy="68.3013" r="25" transform="rotate(0 0 0)" fill="magenta" stroke="black" stroke-width="0.5" />
<circle cx="500" cy="68.3013" r="25" transform="rotate(0 0 0)" fill="magenta" stroke="black" stroke-width="0.5" />
<circle cx="550" cy="68.3013" r="25" transform="rotate(0 0 0)" fill="magenta" stroke="black" stroke-width="0.5" />
<circle cx="600" cy="68.3013" r="25" transform="rotate(0 0 0)" fill="magenta" stroke="black" stroke-width="0.5" />
<circle cx="650" cy="68.3013" r="25" transform="rotate(0 0 0)" fill="magenta" stroke="black" stroke-width="0.5" />
<circle cx="700" cy="68.3013" r="25" transform="rotate(0 0 0)" fill="magenta" stroke="black" stroke-width="0.5" />
<circle cx="25" cy="111.603" r="25" transform="rotate(0 0 0)" fill="magenta" stroke="black" stroke-width="0.5" />
<circle cx="75" cy="111.603" r="25" transform="rotate(0 0 0)" fill="magenta" stroke="black" stroke-width="0.5" />
<circle cx="125" cy="111.603" r="25" transform="rotate(0 0 0)" fill="magenta" stroke="black" stroke-width="0.5" />
<circle cx="175" cy="111.603" r="25" transform="rotate(0 0 0)" fill="magenta" stroke="black" stroke-width="0.5" />
<circle cx="225" cy="111.603" r="25" transform="rotate(0 0 0)" fill="magenta" stroke="black" stroke-width="0.5" />
<circle cx="275" cy="111.603" r="25" transform="rotate(0 0 0)" fill="magenta" stroke="black" stroke-width="0.5" />
<circle cx="325" cy="111.603" r="25" transform="rotate(0 0 0)" fill="magenta" stroke="black" stroke-width="0.5" />
<circle cx="375" cy="111.603" r="25" transform="rotate(0 0 0)" fill="magenta" stroke="black" stroke-width="0.5" />
<circle cx="425" cy="111.603" r="25" transform="rotate(0 0 0)" fill="magenta" stroke="black" stroke-width="0.5" />
<circle cx="475" cy="111.603" r="25" transform="rotate(0 0 0)" fill="magenta" stroke="black" stroke-width="0.5" />
<circle cx="525" cy="111.603" r="25" transform="rotate(0 0 0)" fill="magenta" stroke="black" stroke-width="0.5" />
<circle cx="575" cy="111.603" r="25" transform="rotate(0 0 0)" fill="magenta" stroke="black" stroke-width="0.5" />
<circle cx="625" cy="111.603" r="25" transform="rotate(0 0 0)" fill="magenta" stroke="black" stroke-width="0.5" />
<circle cx="675" cy="111.603" r="25" transform="rotate(0 0 0)" fill="magenta" stroke="black" stroke-width="0.5" />
<circle cx="725" cy="111.603" r="25" transform="rotate(0 0 0)" fill="magenta" stroke="black" stroke-width="0.5" />
<circle cx="50" cy="154.904" r="25" transform="rotate(0 0 0)" fill="magenta" stroke="black" stroke-width="0.5" />
<circle cx="100" cy="154.904" r="25" transform="rotate(0 0 0)" fill="magenta" stroke="black" stroke-width="0.5" />
<circle cx="150" cy="154.904" r="25" transform="rotate(0 0 0)" fill="magenta" stroke="black" stroke-width="0.5" />
<circle cx="200" cy="154.904" r="25" transform="rotate(0 0 0)" fill="magenta" stroke="black" stroke-width="0.5" />
<circle cx="250" cy="154.904" r="25" transform="rotate(0 0 0)" fill="magenta" stroke="black" stroke-width="0.5" />
<circle cx="300" cy="154.904" r="25" transform="rotate(0 0 0)" fill="magenta" stroke="black" stroke-width="0.5" />
<circle cx="350" cy="154.904" r="25" transform="rotate(0 0 0)" fill="magenta" stroke="black" stroke-width="0.5" />
<circle cx="400" cy="154.904" r="25" transform="rotate(0 0 0)" fill="magenta" stroke="black" stroke-width="0.5" />
<circle cx="450" cy="154.904" r="25" transform="rotate(0 0 0)" fill="magenta" stroke="black" stroke-width="0.5" />
<circle cx="500" cy="154.904" r="25" transform="rotate(0 0 0)" fill="magenta" stroke="black" stroke-width="0.5" />
<circle cx="550" cy="154.904" r="25" transform="rotate(0 0 0)" fill="magenta" stroke="black" stroke-width="0.5" />
<circle cx="600" cy="154.904" r="25" transform="rotate(0 0 0)" fill="magenta" stroke="black" stroke-width="0.5" />
<circle cx="650" cy="154.904" r="25" transform="rotate(0 0 0)" fill="magenta" stroke="black" stroke-width="0.5" />
<circle cx="700" cy="154.904" r="25" transform="rotate(0 0 0)" fill="magenta" stroke="black" stroke-width="0.5" />
<circle cx="25" cy="198.205" r="25" transform="rotate(0 0 0)" fill="magenta" stroke="black" stroke-width="0.5" />
<circle cx="75" cy="198.205" r="25" transform="rotate(0 0 0)" fill="magenta" stroke="black" stroke-width="0.5" />
<circle cx="125" cy="198.205" r="25" transform="rotate(0 0 0)" fill="magenta" stroke="black" stroke-width="0.5" />
<circle cx="175" cy="198.205" r="25" transform="rotate(0 0 0)" fill="magenta" stroke="black" stroke-width="0.5" />
<circle cx="225" cy="198.205" r="25" transform="rotate(0 0 0)" fill="magenta" stroke="black" stroke-width="0.5" />
<circle cx="275" cy="198.205" r="25" transform="rotate(0 0 0)" fill="magenta" stroke="black" stroke-width="0.5" />
<circle cx="325" cy="198.205" r="25" transform="rotate(0 0 0)" fill="magenta" stroke="black" stroke-width="0.5" />
<circle cx="375" cy="198.205" r="25" transform="rotate(0 0 0)" fill="magenta" stroke="black" stroke-width="0.5" />
<circle cx="425" cy="198.205" r="25" transform="rotate(0 0 0)" fill="magenta" stroke="black" stroke-width="0.5" />
<circle cx="475" cy="198.205" r="25" transform="rotate(0 0 0)" fill="magenta" stroke="black" stroke-width="0.5" />
<circle cx="525" cy="198.205" r="25" transform="rotate(0 0 0)" fill="magenta" stroke="black" stroke-width="0.5" />
<circle cx="575" cy="198.205" r="25" transform="rotate(0 0 0)" fill="magenta" stroke="black" stroke-width="0.5" />
<circle cx="625" cy="198.205" r="25" transform="rotate(0 0 0)" fill="magenta" stroke="black" stroke-width="0.5" />
<circle cx="675" cy="198.205" r="25" transform="rotate(0 0 0)" fill="magenta" stroke="black" stroke-width="0.5" />
<circle cx="725" cy="198.205" r="25" transform="rotate(0 0 0)" fill="magenta" stroke="black" stroke-width="0.5" />
<circle cx="50" cy="241.506" r="25" transform="rotate(0 0 0)" fill="magenta" stroke="black" stroke-width="0.5" />
<circle cx="100" cy="241.506" r="25" transform="rotate(0 0 0)" fill="magenta" stroke="black" stroke-width="0.5" />
<circle cx="150" cy="241.506" r="25" transform="rotate(0 0 0)" fill="magenta" stroke="black" stroke-width="0.5" />
<circle cx="200" cy="241.506" r="25" transform="rotate(0 0 0)" fill="magenta" stroke="black" stroke-width="0.5" />
<circle cx="250" cy="241.506" r="25" transform="rotate(0 0 0)" fill="magenta" stroke="black" stroke-width="0.5" />
<circle cx="300" cy="241.506" r="25" transform="rotate(0 0 0)" fill="magenta" stroke="black" stroke-width="0.5" />
<circle cx="350" cy="241.506" r="25" transform="rotate(0 0 0)" fill="magenta" stroke="black" stroke-width="0.5" />
<circle cx="400" cy="241.506" r="25" transform="rotate(0 0 0)" fill="magenta" stroke="black" stroke-width="0.5" />
<circle cx="450" cy="241.506" r="25" transform="rotate(0 0 0)" fill="magenta" stroke="black" stroke-width="0.5" />
<circle cx="500" cy="241.506" r="25" transform="rotate(0 0 0)" fill="magenta" stroke="black" stroke-width="0.5" />
<circle cx="550" cy="241.506" r="25" transform="rotate(0 0 0)" fill="magenta" stroke="black" stroke-width="0.5" />
<circle cx="600" cy="241.506" r="25" transform="rotate(0 0 0)" fill="magenta" stroke="black" stroke-width="0.5" />
<circle cx="650" cy="241.506" r="25" transform="rotate(0 0 0)" fill="magenta" stroke="black" stroke-width="0.5" />
<circle cx="700" cy="241.506" r="25" transform="rotate(0 0 0)" fill="magenta" stroke="black" stroke-width="0.5" />
<circle cx="25" cy="284.808" r="25" transform="rotate(0 0 0)" fill="magenta" stroke="black" stroke-width="0.5" />
<circle cx="75" cy="284.808" r="25" transform="rotate(0 0 0)" fill="magenta" stroke="black" stroke-width="0.5" />
<circle cx="125" cy="284.808" r="25" transform="rotate(0 0 0)" fill="magenta" stroke="black" stroke-width="0.5" />
<circle cx="175" cy="284.808" r="25" transform="rotate(0 0 0)" fill="magenta" stroke="black" stroke-width="0.5" />
<circle cx="225" cy="284.808" r="25" transform="rotate(0 0 0)" fill="magenta" stroke="black" stroke-width="0.5" />
<circle cx="275" cy="284.808" r="25" transform="rotate(0 0 0)" fill="magenta" stroke="black" stroke-width="0.5" />
<circle cx="325" cy="284.808" r="25" transform="rotate(0 0 0)" fill="magenta" stroke="black" stroke-width="0.5" />
<circle cx="375" cy="284.808" r="25" transform="rotate(0 0 0)" fill="magenta" stroke="black" stroke-width="0.5" />
<circle cx="425" cy="284.808" r="25" transform="rotate(0 0 0)" fill="magenta" stroke="black" stroke-width="0.5" />
<circle cx="475" cy="284.808" r="25" transform="rotate(0 0 0)" fill="magenta" stroke="black" stroke-width="0.5" />
<circle cx="525" cy="284.808" r="25" transform="rotate(0 0 0)" fill="magenta" stroke="black" stroke-width="0.5" />
<circle cx="575" cy="284.808" r="25" transform="rotate(0 0 0)" fill="magenta" stroke="black" stroke-width="0.5" />
<circle cx="625" cy="284.808" r="25" transform="rotate(0 0 0)" fill="magenta" stroke="black" stroke-width="0.5" />
<circle cx="675" cy="284.808" r="25" transform="rotate(0 0 0)" fill="magenta" stroke="black" stroke-width="0.5" />
<circle cx="725" cy="284.808" r="25" transform="rotate(0 0 0)" fill="magenta" stroke="black" stroke-width="0.5" />
<circle cx="50" cy="328.109" r="25" transform="rotate(0 0 0)" fill="magenta" stroke="black" stroke-width="0.5" />
<circle cx="100" cy="328.109" r="25" transform="rotate(0 0 0)" fill="magenta" stroke="black" stroke-width="0.5" />
<circle cx="150" cy="328.109" r="25" transform="rotate(0 0 0)" fill="magenta" stroke="black" stroke-width="0.5" />
<circle cx="200" cy="328.109" r="25" transform="rotate(0 0 0)" fill="magenta" stroke="black" stroke-width="0.5" />
<circle cx="250" cy="328.109" r="25" transform="rotate(0 0 0)" fill="magenta" stroke="black" stroke-width="0.5" />
<circle cx="300" cy="328.109" r="25" transform="rotate(0 0 0)" fill="magenta" stroke="black" stroke-width="0.5" />
<circle cx="350" cy="328.109" r="25" transform="rotate(0 0 0)" fill="magenta" stroke="black" stroke-width="0.5" />
<circle cx="400" cy="328.109" r="25" transform="rotate(0 0 0)" fill="magenta" stroke="black" stroke-width="0.5" />
<circle cx="450" cy="328.109" r="25" transform="rotate(0 0 0)" fill="magenta" stroke="black" stroke-width="0.5" />
<circle cx="500" cy="328.109" r="25" transform="rotate(0 0 0)" fill="magenta" stroke="black" stroke-width="0.5" />
<circle cx="550" cy="328.109" r="25" transform="rotate(0 0 0)" fill="magenta" stroke="black" stroke-width="0.5" />
<circle cx="600" cy="328.109" r="25" transform="rotate(0 0 0)" fill="magenta" stroke="black" stroke-width="0.5" />
<circle cx="650" cy="328.109" r="25" transform="rotate(0 0 0)" fill="magenta" stroke="black" stroke-width="0.5" />
<circle cx="700" cy="328.109" r="25" transform="rotate(0 0 0)" fill="magenta" stroke="black" stroke-width="0.5" />
<circle cx="25" cy="371.41" r="25" transform="rotate(0 0 0)" fill="magenta" stroke="black" stroke-width="0.5" />
<circle cx="75" cy="371.41" r="25" transform="rotate(0 0 0)" fill="magenta" stroke="black" stroke-width="0.5" />
<circle cx="125" cy="371.41" r="25" transform="rotate(0 0 0)" fill="magenta" stroke="black" stroke-width="0.5" />
<circle cx="175" cy="371.41" r="25" transform="rotate(0 0 0)" fill="magenta" stroke="black" stroke-width="0.5" />
<circle cx="225" cy="371.41" r="25" transform="rotate(0 0 0)" fill="magenta" stroke="black" stroke-width="0.5" />
<circle cx="275" cy="371.41" r="25" transform="rotate(0 0 0)" fill="magenta" stroke="black" stroke-width="0.5" />
<circle cx="325" cy="371.41" r="25" transform="rotate(0 0 0)" fill="magenta" stroke="black" stroke-width="0.5" />
<circle cx="375" cy="371.41" r="25" transform="rotate(0 0 0)" fill="magenta" stroke="black" stroke-width="0.5" />
<circle cx="425" cy="371.41" r="25" transform="rotate(0 0 0)" fill="magenta" stroke="black" stroke-width="0.5" />
<circle cx="475" cy="371.41" r="25" transform="rotate(0 0 0)" fill="magenta" stroke="black" stroke-width="0.5" />
<circle cx="525" cy="371.41" r="25" transform="rotate(0 0 0)" fill="magenta" stroke="black" stroke-width="0.5" />
<circle cx="575" cy="371.41" r="25" transform="rotate(0 0 0)" fill="magenta" stroke="black" stroke-width="0.5" />
<circle cx="625" cy="371.41" r="25" transform="rotate(0 0 0)" fill="magenta" stroke="black" stroke-width="0.5" />
<circle cx="675" cy="371.41" r="25" transform="rotate(0 0 0)" fill="magenta" stroke="black" stroke-width="0.5" />
<circle cx="725" cy="371.41" r="25" transform="rotate(0 0 0)" fill="magenta" stroke="black" stroke-width="0.5" />
<circle cx="50" cy="414.711" r="25" transform="rotate(0 0 0)" fill="magenta" stroke="black" stroke-width="0.5" />
<circle cx="100" cy="414.711" r="25" transform="rotate(0 0 0)" fill="magenta" stroke="black" stroke-width="0.5" />
<circle cx="150" cy="414.711" r="25" transform="rotate(0 0 0)" fill="magenta" stroke="black" stroke-width="0.5" />
<circle cx="200" cy="414.711" r="25" transform="rotate(0 0 0)" fill="magenta" stroke="black" stroke-width="0.5" />
<circle cx="250" cy="414.711" r="25" transform="rotate(0 0 0)" fill="magenta" stroke="black" stroke-width="0.5" />
<circle cx="300" cy="414.711" r="25" transform="rotate(0 0 0)" fill="magenta" stroke="black" stroke-width="0.5" />
<circle cx="350" cy="414.711" r="25" transform="rotate(0 0 0)" fill="magenta" stroke="black" stroke-width="0.5" />
<circle cx="400" cy="414.711" r="25" transform="rotate(0 0 0)" fill="magenta" stroke="black" stroke-width="0.5" />
<circle cx="450" cy="414.711" r="25" transform="rotate(0 0 0)" fill="magenta" stroke="black" stroke-width="0.5" />
<circle cx="500" cy="414.711" r="25" transform="rotate(0 0 0)" fill="magenta" stroke="black" stroke-width="0.5" />
<circle cx="550" cy="414.711" r="25" transform="rotate(0 0 0)" fill="magenta" stroke="black" stroke-width="0.5" />
<circle cx="600" cy="414.711" r="25" transform="rotate(0 0 0)" fill="magenta" stroke="black" stroke-width="0.5" />
<circle cx="650" cy="414.711" r="25" transform="rotate(0 0 0)" fill="magenta" stroke="black" stroke-width="0.5" />
<circle cx="700" cy="414.711" r="25" transform="rotate(0 0 0)" fill="magenta" stroke="black" stroke-width="0.5" />
<circle cx="25" cy="458.013" r="25" transform="rotate(0 0 0)" fill="magenta" stroke="black" stroke-width="0.5" />
<circle cx="75" cy="458.013" r="25" transform="rotate(0 0 0)" fill="magenta" stroke="black" stroke-width="0.5" />
<circle cx="125" cy="458.013" r="25" transform="rotate(0 0 0)" fill="magenta" stroke="black" stroke-width="0.5" />
<circle cx="175" cy="458.013" r="25" transform="rotate(0 0 0)" fill="magenta" stroke="black" stroke-width="0.5" />
<circle cx="225" cy="458.013" r="25" transform="rotate(0 0 0)" fill="magenta" stroke="black" stroke-width="0.5" />
<circle cx="275" cy="458.013" r="25" transform="rotate(0 0 0)" fill="magenta" stroke="black" stroke-width="0.5" />
<circle cx="325" cy="458.013" r="25" transform="rotate(0 0 0)" fill="magenta" stroke="black" stroke-width="0.5" />
<circle cx="375" cy="458.013" r="25" transform="rotate(0 0 0)" fill="magenta" stroke="black" stroke-width="0.5" />
<circle cx="425" cy="458.013" r="25" transform="rotate(0 0 0)" fill="magenta" stroke="black" stroke-width="0.5" />
<circle cx="475" cy="458.013" r="25" transform="rotate(0 0 0)" fill="magenta" stroke="black" stroke-width="0.5" />
<circle cx="525" cy="458.013" r="25" transform="rotate(0 0 0)" fill="magenta" stroke="black" stroke-width="0.5" />
<circle cx="575" cy="458.013" r="25" transform="rotate(0 0 0)" fill="magenta" stroke="black" stroke-width="0.5" />
<circle cx="625" cy="458.013" r="25" transform="rotate(0 0 0)" fill="magenta" stroke="black" stroke-width="0.5" />
<circle cx="675" cy="458.013" r="25" transform="rotate(0 0 0)" fill="magenta" stroke="black" stroke-width="0.5" />
<circle cx="725" cy="458.013" r="25" transform="rotate(0 0 0)" fill="magenta" stroke="black" stroke-width="0.5" />
</svg>
