<svg version="1.1" baseProfile="full" xmlns="http://www.w3.org/2000/svg">
<circle cx="300" cy="300" r="300" transform="rotate(0 0 0)" fill="brown" stroke="black" stroke-width="0.5" />
<polygon points="300,300 270.5,351.095 329.5,351.095" transform="rotate(0 300 300)" fill="cyan" stroke="black" stroke-width="0.5" />
<polygon points="300,402.191 270.5,351.095 329.5,351.095" transform="rotate(0 300 300)" fill="cyan" stroke="black" stroke-width="0.5" />
<polygon points="270.5,351.095 241,402.191 300,402.191" transform="rotate(0 300 300)" fill="cyan" stroke="black" stroke-width="0.5" />
<polygon points="270.5,453.286 241,402.191 300,402.191" transform="rotate(0 300 300)" fill="cyan" stroke="black" stroke-width="0.5" />
<polygon points="329.5,351.095 300,402.191 359,402.191" transform="rotate(0 300 300)" fill="cyan" stroke="black" stroke-width="0.5" />
<polygon points="329.5,453.286 300,402.191 359,402.191" transform="rotate(0 300 300)" fill="cyan" stroke="black" stroke-width="0.5" />
<polygon points="241,402.191 211.5,453.286 270.5,453.286" transform="rotate(0 300 300)" fill="cyan" stroke="black" stroke-width="0.5" />
<polygon points="241,504.382 211.5,453.286 270.5,453.286" transform="rotate(0 300 300)" fill="cyan" stroke="black" stroke-width="0.5" />
<polygon points="300,402.191 270.5,453.286 329.5,453.286" transform="rotate(0 300 300)" fill="cyan" stroke="black" stroke-width="0.5" />
<polygon points="300,504.382 270.5,453.286 329.5,453.286" transform="rotate(0 300 300)" fill="cyan" stroke="black" stroke-width="0.5" />
<polygon points="359,402.191 329.5,453.286 388.5,453.286" transform="rotate(0 300 300)" fill="cyan" stroke="black" stroke-width="0.5" />
<polygon points="359,504.382 329.5,453.286 388.5,453.286" transform="rotate(0 300 300)" fill="cyan" stroke="black" stroke-width="0.5" />
<polygon points="211.5,453.286 182,504.382 241,504.382" transform="rotate(0 300 300)" fill="cyan" stroke="black" stroke-width="0.5" />
<polygon points="211.5,555.477 182,504.382 241,504.382" transform="rotate(0 300 300)" fill="cyan" stroke="black" stroke-width="0.5" />
<polygon points="270.5,453.286 241,504.382 300,504.382" transform="rotate(0 300 300)" fill="cyan" stroke="black" stroke-width="0.5" />
<polygon points="270.5,555.477 241,504.382 300,504.382" transform="rotate(0 300 300)" fill="cyan" stroke="black" stroke-width="0.5" />
<polygon points="329.5,453.286 300,504.382 359,504.382" transform="rotate(0 300 300)" fill="cyan" stroke="black" stroke-width="0.5" />
<polygon points="329.5,555.477 300,504.382 359,504.382" transform="rotate(0 300 300)" fill="cyan" stroke="black" stroke-width="0.5" />
<polygon points="388.5,453.286 359,504.382 418,504.382" transform="rotate(0 300 300)" fill="cyan" stroke="black" stroke-width="0.5" />
<polygon points="388.5,555.477 359,504.382 418,504.382" transform="rotate(0 300 300)" fill="cyan" stroke="black" stroke-width="0.5" />
<polygon points="182,504.382 152.5,555.477 211.5,555.477" transform="rotate(0 300 300)" fill="cyan" stroke="black" stroke-width="0.5" />
<polygon points="241,504.382 211.5,555.477 270.5,555.477" transform="rotate(0 300 300)" fill="cyan" stroke="black" stroke-width="0.5" />
<polygon points="300,504.382 270.5,555.477 329.5,555.477" transform="rotate(0 300 300)" fill="cyan" stroke="black" stroke-width="0.5" />
<polygon points="359,504.382 329.5,555.477 388.5,555.477" transform="rotate(0 300 300)" fill="cyan" stroke="black" stroke-width="0.5" />
<polygon points="418,504.382 388.5,555.477 447.5,555.477" transform="rotate(0 300 300)" fill="cyan" stroke="black" stroke-width="0.5" />
<polygon points="300,300 270.5,351.095 329.5,351.095" transform="rotate(60 300 300)" fill="cyan" stroke="black" stroke-width="0.5" />
<polygon points="300,402.191 270.5,351.095 329.5,351.095" transform="rotate(60 300 300)" fill="cyan" stroke="black" stroke-width="0.5" />
<polygon points="270.5,351.095 241,402.191 300,402.191" transform="rotate(60 300 300)" fill="cyan" stroke="black" stroke-width="0.5" />
<polygon points="270.5,453.286 241,402.191 300,402.191" transform="rotate(60 300 300)" fill="cyan" stroke="black" stroke-width="0.5" />
<polygon points="329.5,351.095 300,402.191 359,402.191" transform="rotate(60 300 300)" fill="cyan" stroke="black" stroke-width="0.5" />
<polygon points="329.5,453.286 300,402.191 359,402.191" transform="rotate(60 300 300)" fill="cyan" stroke="black" stroke-width="0.5" />
<polygon points="241,402.191 211.5,453.286 270.5,453.286" transform="rotate(60 300 300)" fill="cyan" stroke="black" stroke-width="0.5" />
<polygon points="241,504.382 211.5,453.286 270.5,453.286" transform="rotate(60 300 300)" fill="cyan" stroke="black" stroke-width="0.5" />
<polygon points="300,402.191 270.5,453.286 329.5,453.286" transform="rotate(60 300 300)" fill="cyan" stroke="black" stroke-width="0.5" />
<polygon points="300,504.382 270.5,453.286 329.5,453.286" transform="rotate(60 300 300)" fill="cyan" stroke="black" stroke-width="0.5" />
<polygon points="359,402.191 329.5,453.286 388.5,453.286" transform="rotate(60 300 300)" fill="cyan" stroke="black" stroke-width="0.5" />
<polygon points="359,504.382 329.5,453.286 388.5,453.286" transform="rotate(60 300 300)" fill="cyan" stroke="black" stroke-width="0.5" />
<polygon points="211.5,453.286 182,504.382 241,504.382" transform="rotate(60 300 300)" fill="cyan" stroke="black" stroke-width="0.5" />
<polygon points="211.5,555.477 182,504.382 241,504.382" transform="rotate(60 300 300)" fill="cyan" stroke="black" stroke-width="0.5" />
<polygon points="270.5,453.286 241,504.382 300,504.382" transform="rotate(60 300 300)" fill="cyan" stroke="black" stroke-width="0.5" />
<polygon points="270.5,555.477 241,504.382 300,504.382" transform="rotate(60 300 300)" fill="cyan" stroke="black" stroke-width="0.5" />
<polygon points="329.5,453.286 300,504.382 359,504.382" transform="rotate(60 300 300)" fill="cyan" stroke="black" stroke-width="0.5" />
<polygon points="329.5,555.477 300,504.382 359,504.382" transform="rotate(60 300 300)" fill="cyan" stroke="black" stroke-width="0.5" />
<polygon points="388.5,453.286 359,504.382 418,504.382" transform="rotate(60 300 300)" fill="cyan" stroke="black" stroke-width="0.5" />
<polygon points="388.5,555.477 359,504.382 418,504.382" transform="rotate(60 300 300)" fill="cyan" stroke="black" stroke-width="0.5" />
<polygon points="182,504.382 152.5,555.477 211.5,555.477" transform="rotate(60 300 300)" fill="cyan" stroke="black" stroke-width="0.5" />
<polygon points="241,504.382 211.5,555.477 270.5,555.477" transform="rotate(60 300 300)" fill="cyan" stroke="black" stroke-width="0.5" />
<polygon points="300,504.382 270.5,555.477 329.5,555.477" transform="rotate(60 300 300)" fill="cyan" stroke="black" stroke-width="0.5" />
<polygon points="359,504.382 329.5,555.477 388.5,555.477" transform="rotate(60 300 300)" fill="cyan" stroke="black" stroke-width="0.5" />
<polygon points="418,504.382 388.5,555.477 447.5,555.477" transform="rotate(60 300 300)" fill="cyan" stroke="black" stroke-width="0.5" />
<polygon points="300,300 270.5,351.095 329.5,351.095" transform="rotate(120 300 300)" fill="cyan" stroke="black" stroke-width="0.5" />
<polygon points="300,402.191 270.5,351.095 329.5,351.095" transform="rotate(120 300 300)" fill="cyan" stroke="black" stroke-width="0.5" />
<polygon points="270.5,351.095 241,402.191 300,402.191" transform="rotate(120 300 300)" fill="cyan" stroke="black" stroke-width="0.5" />
<polygon points="270.5,453.286 241,402.191 300,402.191" transform="rotate(120 300 300)" fill="cyan" stroke="black" stroke-width="0.5" />
<polygon points="329.5,351.095 300,402.191 359,402.191" transform="rotate(120 300 300)" fill="cyan" stroke="black" stroke-width="0.5" />
<polygon points="329.5,453.286 300,402.191 359,402.191" transform="rotate(120 300 300)" fill="cyan" stroke="black" stroke-width="0.5" />
<polygon points="241,402.191 211.5,453.286 270.5,453.286" transform="rotate(120 300 300)" fill="cyan" stroke="black" stroke-width="0.5" />
<polygon points="241,504.382 211.5,453.286 270.5,453.286" transform="rotate(120 300 300)" fill="cyan" stroke="black" stroke-width="0.5" />
<polygon points="300,402.191 270.5,453.286 329.5,453.286" transform="rotate(120 300 300)" fill="cyan" stroke="black" stroke-width="0.5" />
<polygon points="300,504.382 270.5,453.286 329.5,453.286" transform="rotate(120 300 300)" fill="cyan" stroke="black" stroke-width="0.5" />
<polygon points="359,402.191 329.5,453.286 388.5,453.286" transform="rotate(120 300 300)" fill="cyan" stroke="black" stroke-width="0.5" />
<polygon points="359,504.382 329.5,453.286 388.5,453.286" transform="rotate(120 300 300)" fill="cyan" stroke="black" stroke-width="0.5" />
<polygon points="211.5,453.286 182,504.382 241,504.382" transform="rotate(120 300 300)" fill="cyan" stroke="black" stroke-width="0.5" />
<polygon points="211.5,555.477 182,504.382 241,504.382" transform="rotate(120 300 300)" fill="cyan" stroke="black" stroke-width="0.5" />
<polygon points="270.5,453.286 241,504.382 300,504.382" transform="rotate(120 300 300)" fill="cyan" stroke="black" stroke-width="0.5" />
<polygon points="270.5,555.477 241,504.382 300,504.382" transform="rotate(120 300 300)" fill="cyan" stroke="black" stroke-width="0.5" />
<polygon points="329.5,453.286 300,504.382 359,504.382" transform="rotate(120 300 300)" fill="cyan" stroke="black" stroke-width="0.5" />
<polygon points="329.5,555.477 300,504.382 359,504.382" transform="rotate(120 300 300)" fill="cyan" stroke="black" stroke-width="0.5" />
<polygon points="388.5,453.286 359,504.382 418,504.382" transform="rotate(120 300 300)" fill="cyan" stroke="black" stroke-width="0.5" />
<polygon points="388.5,555.477 359,504.382 418,504.382" transform="rotate(120 300 300)" fill="cyan" stroke="black" stroke-width="0.5" />
<polygon points="182,504.382 152.5,555.477 211.5,555.477" transform="rotate(120 300 300)" fill="cyan" stroke="black" stroke-width="0.5" />
<polygon points="241,504.382 211.5,555.477 270.5,555.477" transform="rotate(120 300 300)" fill="cyan" stroke="black" stroke-width="0.5" />
<polygon points="300,504.382 270.5,555.477 329.5,555.477" transform="rotate(120 300 300)" fill="cyan" stroke="black" stroke-width="0.5" />
<polygon points="359,504.382 329.5,555.477 388.5,555.477" transform="rotate(120 300 300)" fill="cyan" stroke="black" stroke-width="0.5" />
<polygon points="418,504.382 388.5,555.477 447.5,555.477" transform="rotate(120 300 300)" fill="cyan" stroke="black" stroke-width="0.5" />
<polygon points="300,300 270.5,351.095 329.5,351.095" transform="rotate(180 300 300)" fill="cyan" stroke="black" stroke-width="0.5" />
<polygon points="300,402.191 270.5,351.095 329.5,351.095" transform="rotate(180 300 300)" fill="cyan" stroke="black" stroke-width="0.5" />
<polygon points="270.5,351.095 241,402.191 300,402.191" transform="rotate(180 300 300)" fill="cyan" stroke="black" stroke-width="0.5" />
<polygon points="270.5,453.286 241,402.191 300,402.191" transform="rotate(180 300 300)" fill="cyan" stroke="black" stroke-width="0.5" />
<polygon points="329.5,351.095 300,402.191 359,402.191" transform="rotate(180 300 300)" fill="cyan" stroke="black" stroke-width="0.5" />
<polygon points="329.5,453.286 300,402.191 359,402.191" transform="rotate(180 300 300)" fill="cyan" stroke="black" stroke-width="0.5" />
<polygon points="241,402.191 211.5,453.286 270.5,453.286" transform="rotate(180 300 300)" fill="cyan" stroke="black" stroke-width="0.5" />
<polygon points="241,504.382 211.5,453.286 270.5,453.286" transform="rotate(180 300 300)" fill="cyan" stroke="black" stroke-width="0.5" />
<polygon points="300,402.191 270.5,453.286 329.5,453.286" transform="rotate(180 300 300)" fill="cyan" stroke="black" stroke-width="0.5" />
<polygon points="300,504.382 270.5,453.286 329.5,453.286" transform="rotate(180 300 300)" fill="cyan" stroke="black" stroke-width="0.5" />
<polygon points="359,402.191 329.5,453.286 388.5,453.286" transform="rotate(180 300 300)" fill="cyan" stroke="black" stroke-width="0.5" />
<polygon points="359,504.382 329.5,453.286 388.5,453.286" transform="rotate(180 300 300)" fill="cyan" stroke="black" stroke-width="0.5" />
<polygon points="211.5,453.286 182,504.382 241,504.382" transform="rotate(180 300 300)" fill="cyan" stroke="black" stroke-width="0.5" />
<polygon points="211.5,555.477 182,504.382 241,504.382" transform="rotate(180 300 300)" fill="cyan" stroke="black" stroke-width="0.5" />
<polygon points="270.5,453.286 241,504.382 300,504.382" transform="rotate(180 300 300)" fill="cyan" stroke="black" stroke-width="0.5" />
<polygon points="270.5,555.477 241,504.382 300,504.382" transform="rotate(180 300 300)" fill="cyan" stroke="black" stroke-width="0.5" />
<polygon points="329.5,453.286 300,504.382 359,504.382" transform="rotate(180 300 300)" fill="cyan" stroke="black" stroke-width="0.5" />
<polygon points="329.5,555.477 300,504.382 359,504.382" transform="rotate(180 300 300)" fill="cyan" stroke="black" stroke-width="0.5" />
<polygon points="388.5,453.286 359,504.382 418,504.382" transform="rotate(180 300 300)" fill="cyan" stroke="black" stroke-width="0.5" />
<polygon points="388.5,555.477 359,504.382 418,504.382" transform="rotate(180 300 300)" fill="cyan" stroke="black" stroke-width="0.5" />
<polygon points="182,504.382 152.5,555.477 211.5,555.477" transform="rotate(180 300 300)" fill="cyan" stroke="black" stroke-width="0.5" />
<polygon points="241,504.382 211.5,555.477 270.5,555.477" transform="rotate(180 300 300)" fill="cyan" stroke="black" stroke-width="0.5" />
<polygon points="300,504.382 270.5,555.477 329.5,555.477" transform="rotate(180 300 300)" fill="cyan" stroke="black" stroke-width="0.5" />
<polygon points="359,504.382 329.5,555.477 388.5,555.477" transform="rotate(180 300 300)" fill="cyan" stroke="black" stroke-width="0.5" />
<polygon points="418,504.382 388.5,555.477 447.5,555.477" transform="rotate(180 300 300)" fill="cyan" stroke="black" stroke-width="0.5" />
<polygon points="300,300 270.5,351.095 329.5,351.095" transform="rotate(240 300 300)" fill="cyan" stroke="black" stroke-width="0.5" />
<polygon points="300,402.191 270.5,351.095 329.5,351.095" transform="rotate(240 300 300)" fill="cyan" stroke="black" stroke-width="0.5" />
<polygon points="270.5,351.095 241,402.191 300,402.191" transform="rotate(240 300 300)" fill="cyan" stroke="black" stroke-width="0.5" />
<polygon points="270.5,453.286 241,402.191 300,402.191" transform="rotate(240 300 300)" fill="cyan" stroke="black" stroke-width="0.5" />
<polygon points="329.5,351.095 300,402.191 359,402.191" transform="rotate(240 300 300)" fill="cyan" stroke="black" stroke-width="0.5" />
<polygon points="329.5,453.286 300,402.191 359,402.191" transform="rotate(240 300 300)" fill="cyan" stroke="black" stroke-width="0.5" />
<polygon points="241,402.191 211.5,453.286 270.5,453.286" transform="rotate(240 300 300)" fill="cyan" stroke="black" stroke-width="0.5" />
<polygon points="241,504.382 211.5,453.286 270.5,453.286" transform="rotate(240 300 300)" fill="cyan" stroke="black" stroke-width="0.5" />
<polygon points="300,402.191 270.5,453.286 329.5,453.286" transform="rotate(240 300 300)" fill="cyan" stroke="black" stroke-width="0.5" />
<polygon points="300,504.382 270.5,453.286 329.5,453.286" transform="rotate(240 300 300)" fill="cyan" stroke="black" stroke-width="0.5" />
<polygon points="359,402.191 329.5,453.286 388.5,453.286" transform="rotate(240 300 300)" fill="cyan" stroke="black" stroke-width="0.5" />
<polygon points="359,504.382 329.5,453.286 388.5,453.286" transform="rotate(240 300 300)" fill="cyan" stroke="black" stroke-width="0.5" />
<polygon points="211.5,453.286 182,504.382 241,504.382" transform="rotate(240 300 300)" fill="cyan" stroke="black" stroke-width="0.5" />
<polygon points="211.5,555.477 182,504.382 241,504.382" transform="rotate(240 300 300)" fill="cyan" stroke="black" stroke-width="0.5" />
<polygon points="270.5,453.286 241,504.382 300,504.382" transform="rotate(240 300 300)" fill="cyan" stroke="black" stroke-width="0.5" />
<polygon points="270.5,555.477 241,504.382 300,504.382" transform="rotate(240 300 300)" fill="cyan" stroke="black" stroke-width="0.5" />
<polygon points="329.5,453.286 300,504.382 359,504.382" transform="rotate(240 300 300)" fill="cyan" stroke="black" stroke-width="0.5" />
<polygon points="329.5,555.477 300,504.382 359,504.382" transform="rotate(240 300 300)" fill="cyan" stroke="black" stroke-width="0.5" />
<polygon points="388.5,453.286 359,504.382 418,504.382" transform="rotate(240 300 300)" fill="cyan" stroke="black" stroke-width="0.5" />
<polygon points="388.5,555.477 359,504.382 418,504.382" transform="rotate(240 300 300)" fill="cyan" stroke="black" stroke-width="0.5" />
<polygon points="182,504.382 152.5,555.477 211.5,555.477" transform="rotate(240 300 300)" fill="cyan" stroke="black" stroke-width="0.5" />
<polygon points="241,504.382 211.5,555.477 270.5,555.477" transform="rotate(240 300 300)" fill="cyan" stroke="black" stroke-width="0.5" />
<polygon points="300,504.382 270.5,555.477 329.5,555.477" transform="rotate(240 300 300)" fill="cyan" stroke="black" stroke-width="0.5" />
<polygon points="359,504.382 329.5,555.477 388.5,555.477" transform="rotate(240 300 300)" fill="cyan" stroke="black" stroke-width="0.5" />
<polygon points="418,504.382 388.5,555.477 447.5,555.477" transform="rotate(240 300 300)" fill="cyan" stroke="black" stroke-width="0.5" />
<polygon points="300,300 270.5,351.095 329.5,351.095" transform="rotate(300 300 300)" fill="cyan" stroke="black" stroke-width="0.5" />
<polygon points="300,402.191 270.5,351.095 329.5,351.095" transform="rotate(300 300 300)" fill="cyan" stroke="black" stroke-width="0.5" />
<polygon points="270.5,351.095 241,402.191 300,402.191" transform="rotate(300 300 300)" fill="cyan" stroke="black" stroke-width="0.5" />
<polygon points="270.5,453.286 241,402.191 300,402.191" transform="rotate(300 300 300)" fill="cyan" stroke="black" stroke-width="0.5" />
<polygon points="329.5,351.095 300,402.191 359,402.191" transform="rotate(300 300 300)" fill="cyan" stroke="black" stroke-width="0.5" />
<polygon points="329.5,453.286 300,402.191 359,402.191" transform="rotate(300 300 300)" fill="cyan" stroke="black" stroke-width="0.5" />
<polygon points="241,402.191 211.5,453.286 270.5,453.286" transform="rotate(300 300 300)" fill="cyan" stroke="black" stroke-width="0.5" />
<polygon points="241,504.382 211.5,453.286 270.5,453.286" transform="rotate(300 300 300)" fill="cyan" stroke="black" stroke-width="0.5" />
<polygon points="300,402.191 270.5,453.286 329.5,453.286" transform="rotate(300 300 300)" fill="cyan" stroke="black" stroke-width="0.5" />
<polygon points="300,504.382 270.5,453.286 329.5,453.286" transform="rotate(300 300 300)" fill="cyan" stroke="black" stroke-width="0.5" />
<polygon points="359,402.191 329.5,453.286 388.5,453.286" transform="rotate(300 300 300)" fill="cyan" stroke="black" stroke-width="0.5" />
<polygon points="359,504.382 329.5,453.286 388.5,453.286" transform="rotate(300 300 300)" fill="cyan" stroke="black" stroke-width="0.5" />
<polygon points="211.5,453.286 182,504.382 241,504.382" transform="rotate(300 300 300)" fill="cyan" stroke="black" stroke-width="0.5" />
<polygon points="211.5,555.477 182,504.382 241,504.382" transform="rotate(300 300 300)" fill="cyan" stroke="black" stroke-width="0.5" />
<polygon points="270.5,453.286 241,504.382 300,504.382" transform="rotate(300 300 300)" fill="cyan" stroke="black" stroke-width="0.5" />
<polygon points="270.5,555.477 241,504.382 300,504.382" transform="rotate(300 300 300)" fill="cyan" stroke="black" stroke-width="0.5" />
<polygon points="329.5,453.286 300,504.382 359,504.382" transform="rotate(300 300 300)" fill="cyan" stroke="black" stroke-width="0.5" />
<polygon points="329.5,555.477 300,504.382 359,504.382" transform="rotate(300 300 300)" fill="cyan" stroke="black" stroke-width="0.5" />
<polygon points="388.5,453.286 359,504.382 418,504.382" transform="rotate(300 300 300)" fill="cyan" stroke="black" stroke-width="0.5" />
<polygon points="388.5,555.477 359,504.382 418,504.382" transform="rotate(300 300 300)" fill="cyan" stroke="black" stroke-width="0.5" />
<polygon points="182,504.382 152.5,555.477 211.5,555.477" transform="rotate(300 300 300)" fill="cyan" stroke="black" stroke-width="0.5" />
<polygon points="241,504.382 211.5,555.477 270.5,555.477" transform="rotate(300 300 300)" fill="cyan" stroke="black" stroke-width="0.5" />
<polygon points="300,504.382 270.5,555.477 329.5,555.477" transform="rotate(300 300 300)" fill="cyan" stroke="black" stroke-width="0.5" />
<polygon points="359,504.382 329.5,555.477 388.5,555.477" transform="rotate(300 300 300)" fill="cyan" stroke="black" stroke-width="0.5" />
<polygon points="418,504.382 388.5,555.477 447.5,555.477" transform="rotate(300 300 300)" fill="cyan" stroke="black" stroke-width="0.5" />
</svg>
