<svg version="1.1" baseProfile="full" xmlns="http://www.w3.org/2000/svg">
<circle cx="400" cy="400" r="400" transform="rotate(0 0 0)" fill="red" stroke="black" stroke-width="0.5" />
<polygon points="400,400 370.5,451.095 429.5,451.095" transform="rotate(0 400 400)" fill="cyan" stroke="black" stroke-width="0.5" />
<polygon points="400,502.191 370.5,451.095 429.5,451.095" transform="rotate(0 400 400)" fill="cyan" stroke="black" stroke-width="0.5" />
<polygon points="370.5,451.095 341,502.191 400,502.191" transform="rotate(0 400 400)" fill="cyan" stroke="black" stroke-width="0.5" />
<polygon points="370.5,553.286 341,502.191 400,502.191" transform="rotate(0 400 400)" fill="cyan" stroke="black" stroke-width="0.5" />
<polygon points="429.5,451.095 400,502.191 459,502.191" transform="rotate(0 400 400)" fill="cyan" stroke="black" stroke-width="0.5" />
<polygon points="429.5,553.286 400,502.191 459,502.191" transform="rotate(0 400 400)" fill="cyan" stroke="black" stroke-width="0.5" />
<polygon points="341,502.191 311.5,553.286 370.5,553.286" transform="rotate(0 400 400)" fill="cyan" stroke="black" stroke-width="0.5" />
<polygon points="341,604.382 311.5,553.286 370.5,553.286" transform="rotate(0 400 400)" fill="cyan" stroke="black" stroke-width="0.5" />
<polygon points="400,502.191 370.5,553.286 429.5,553.286" transform="rotate(0 400 400)" fill="cyan" stroke="black" stroke-width="0.5" />
<polygon points="400,604.382 370.5,553.286 429.5,553.286" transform="rotate(0 400 400)" fill="cyan" stroke="black" stroke-width="0.5" />
<polygon points="459,502.191 429.5,553.286 488.5,553.286" transform="rotate(0 400 400)" fill="cyan" stroke="black" stroke-width="0.5" />
<polygon points="459,604.382 429.5,553.286 488.5,553.286" transform="rotate(0 400 400)" fill="cyan" stroke="black" stroke-width="0.5" />
<polygon points="311.5,553.286 282,604.382 341,604.382" transform="rotate(0 400 400)" fill="cyan" stroke="black" stroke-width="0.5" />
<polygon points="311.5,655.477 282,604.382 341,604.382" transform="rotate(0 400 400)" fill="cyan" stroke="black" stroke-width="0.5" />
<polygon points="370.5,553.286 341,604.382 400,604.382" transform="rotate(0 400 400)" fill="cyan" stroke="black" stroke-width="0.5" />
<polygon points="370.5,655.477 341,604.382 400,604.382" transform="rotate(0 400 400)" fill="cyan" stroke="black" stroke-width="0.5" />
<polygon points="429.5,553.286 400,604.382 459,604.382" transform="rotate(0 400 400)" fill="cyan" stroke="black" stroke-width="0.5" />
<polygon points="429.5,655.477 400,604.382 459,604.382" transform="rotate(0 400 400)" fill="cyan" stroke="black" stroke-width="0.5" />
<polygon points="488.5,553.286 459,604.382 518,604.382" transform="rotate(0 400 400)" fill="cyan" stroke="black" stroke-width="0.5" />
<polygon points="488.5,655.477 459,604.382 518,604.382" transform="rotate(0 400 400)" fill="cyan" stroke="black" stroke-width="0.5" />
<polygon points="282,604.382 252.5,655.477 311.5,655.477" transform="rotate(0 400 400)" fill="cyan" stroke="black" stroke-width="0.5" />
<polygon points="282,706.573 252.5,655.477 311.5,655.477" transform="rotate(0 400 400)" fill="cyan" stroke="black" stroke-width="0.5" />
<polygon points="341,604.382 311.5,655.477 370.5,655.477" transform="rotate(0 400 400)" fill="cyan" stroke="black" stroke-width="0.5" />
<polygon points="341,706.573 311.5,655.477 370.5,655.477" transform="rotate(0 400 400)" fill="cyan" stroke="black" stroke-width="0.5" />
<polygon points="400,604.382 370.5,655.477 429.5,655.477" transform="rotate(0 400 400)" fill="cyan" stroke="black" stroke-width="0.5" />
<polygon points="400,706.573 370.5,655.477 429.5,655.477" transform="rotate(0 400 400)" fill="cyan" stroke="black" stroke-width="0.5" />
<polygon points="459,604.382 429.5,655.477 488.5,655.477" transform="rotate(0 400 400)" fill="cyan" stroke="black" stroke-width="0.5" />
<polygon points="459,706.573 429.5,655.477 488.5,655.477" transform="rotate(0 400 400)" fill="cyan" stroke="black" stroke-width="0.5" />
<polygon points="518,604.382 488.5,655.477 547.5,655.477" transform="rotate(0 400 400)" fill="cyan" stroke="black" stroke-width="0.5" />
<polygon points="518,706.573 488.5,655.477 547.5,655.477" transform="rotate(0 400 400)" fill="cyan" stroke="black" stroke-width="0.5" />
<polygon points="252.5,655.477 223,706.573 282,706.573" transform="rotate(0 400 400)" fill="cyan" stroke="black" stroke-width="0.5" />
<polygon points="311.5,655.477 282,706.573 341,706.573" transform="rotate(0 400 400)" fill="cyan" stroke="black" stroke-width="0.5" />
<polygon points="370.5,655.477 341,706.573 400,706.573" transform="rotate(0 400 400)" fill="cyan" stroke="black" stroke-width="0.5" />
<polygon points="429.5,655.477 400,706.573 459,706.573" transform="rotate(0 400 400)" fill="cyan" stroke="black" stroke-width="0.5" />
<polygon points="488.5,655.477 459,706.573 518,706.573" transform="rotate(0 400 400)" fill="cyan" stroke="black" stroke-width="0.5" />
<polygon points="547.5,655.477 518,706.573 577,706.573" transform="rotate(0 400 400)" fill="cyan" stroke="black" stroke-width="0.5" />
<polygon points="511.5,706.573 482,757.668 541,757.668" transform="rotate(0 400 400)" fill="cyan" stroke="black" stroke-width="0.5" />
<polygon points="452.5,706.573 423,757.668 482,757.668" transform="rotate(0 400 400)" fill="cyan" stroke="black" stroke-width="0.5" />
<polygon points="393.5,706.573 364,757.668 423,757.668" transform="rotate(0 400 400)" fill="cyan" stroke="black" stroke-width="0.5" />
<polygon points="334.5,706.573 305,757.668 364,757.668" transform="rotate(0 400 400)" fill="cyan" stroke="black" stroke-width="0.5" />
<polygon points="275.5,706.573 246,757.668 305,757.668" transform="rotate(0 400 400)" fill="cyan" stroke="black" stroke-width="0.5" />
<polygon points="570.5,706.573 541,757.668 511.5,706.573" transform="rotate(0 400 400)" fill="cyan" stroke="black" stroke-width="0.5" />
<polygon points="511.5,706.573 482,757.668 452.5,706.573" transform="rotate(0 400 400)" fill="cyan" stroke="black" stroke-width="0.5" />
<polygon points="452.5,706.573 423,757.668 393.5,706.573" transform="rotate(0 400 400)" fill="cyan" stroke="black" stroke-width="0.5" />
<polygon points="393.5,706.573 364,757.668 334.5,706.573" transform="rotate(0 400 400)" fill="cyan" stroke="black" stroke-width="0.5" />
<polygon points="334.5,706.573 305,757.668 275.5,706.573" transform="rotate(0 400 400)" fill="cyan" stroke="black" stroke-width="0.5" />
<polygon points="275.5,706.573 246,757.668 216.5,706.573" transform="rotate(0 400 400)" fill="cyan" stroke="black" stroke-width="0.5" />
<polygon points="400,400 370.5,451.095 429.5,451.095" transform="rotate(60 400 400)" fill="cyan" stroke="black" stroke-width="0.5" />
<polygon points="400,502.191 370.5,451.095 429.5,451.095" transform="rotate(60 400 400)" fill="cyan" stroke="black" stroke-width="0.5" />
<polygon points="370.5,451.095 341,502.191 400,502.191" transform="rotate(60 400 400)" fill="cyan" stroke="black" stroke-width="0.5" />
<polygon points="370.5,553.286 341,502.191 400,502.191" transform="rotate(60 400 400)" fill="cyan" stroke="black" stroke-width="0.5" />
<polygon points="429.5,451.095 400,502.191 459,502.191" transform="rotate(60 400 400)" fill="cyan" stroke="black" stroke-width="0.5" />
<polygon points="429.5,553.286 400,502.191 459,502.191" transform="rotate(60 400 400)" fill="cyan" stroke="black" stroke-width="0.5" />
<polygon points="341,502.191 311.5,553.286 370.5,553.286" transform="rotate(60 400 400)" fill="cyan" stroke="black" stroke-width="0.5" />
<polygon points="341,604.382 311.5,553.286 370.5,553.286" transform="rotate(60 400 400)" fill="cyan" stroke="black" stroke-width="0.5" />
<polygon points="400,502.191 370.5,553.286 429.5,553.286" transform="rotate(60 400 400)" fill="cyan" stroke="black" stroke-width="0.5" />
<polygon points="400,604.382 370.5,553.286 429.5,553.286" transform="rotate(60 400 400)" fill="cyan" stroke="black" stroke-width="0.5" />
<polygon points="459,502.191 429.5,553.286 488.5,553.286" transform="rotate(60 400 400)" fill="cyan" stroke="black" stroke-width="0.5" />
<polygon points="459,604.382 429.5,553.286 488.5,553.286" transform="rotate(60 400 400)" fill="cyan" stroke="black" stroke-width="0.5" />
<polygon points="311.5,553.286 282,604.382 341,604.382" transform="rotate(60 400 400)" fill="cyan" stroke="black" stroke-width="0.5" />
<polygon points="311.5,655.477 282,604.382 341,604.382" transform="rotate(60 400 400)" fill="cyan" stroke="black" stroke-width="0.5" />
<polygon points="370.5,553.286 341,604.382 400,604.382" transform="rotate(60 400 400)" fill="cyan" stroke="black" stroke-width="0.5" />
<polygon points="370.5,655.477 341,604.382 400,604.382" transform="rotate(60 400 400)" fill="cyan" stroke="black" stroke-width="0.5" />
<polygon points="429.5,553.286 400,604.382 459,604.382" transform="rotate(60 400 400)" fill="cyan" stroke="black" stroke-width="0.5" />
<polygon points="429.5,655.477 400,604.382 459,604.382" transform="rotate(60 400 400)" fill="cyan" stroke="black" stroke-width="0.5" />
<polygon points="488.5,553.286 459,604.382 518,604.382" transform="rotate(60 400 400)" fill="cyan" stroke="black" stroke-width="0.5" />
<polygon points="488.5,655.477 459,604.382 518,604.382" transform="rotate(60 400 400)" fill="cyan" stroke="black" stroke-width="0.5" />
<polygon points="282,604.382 252.5,655.477 311.5,655.477" transform="rotate(60 400 400)" fill="cyan" stroke="black" stroke-width="0.5" />
<polygon points="282,706.573 252.5,655.477 311.5,655.477" transform="rotate(60 400 400)" fill="cyan" stroke="black" stroke-width="0.5" />
<polygon points="341,604.382 311.5,655.477 370.5,655.477" transform="rotate(60 400 400)" fill="cyan" stroke="black" stroke-width="0.5" />
<polygon points="341,706.573 311.5,655.477 370.5,655.477" transform="rotate(60 400 400)" fill="cyan" stroke="black" stroke-width="0.5" />
<polygon points="400,604.382 370.5,655.477 429.5,655.477" transform="rotate(60 400 400)" fill="cyan" stroke="black" stroke-width="0.5" />
<polygon points="400,706.573 370.5,655.477 429.5,655.477" transform="rotate(60 400 400)" fill="cyan" stroke="black" stroke-width="0.5" />
<polygon points="459,604.382 429.5,655.477 488.5,655.477" transform="rotate(60 400 400)" fill="cyan" stroke="black" stroke-width="0.5" />
<polygon points="459,706.573 429.5,655.477 488.5,655.477" transform="rotate(60 400 400)" fill="cyan" stroke="black" stroke-width="0.5" />
<polygon points="518,604.382 488.5,655.477 547.5,655.477" transform="rotate(60 400 400)" fill="cyan" stroke="black" stroke-width="0.5" />
<polygon points="518,706.573 488.5,655.477 547.5,655.477" transform="rotate(60 400 400)" fill="cyan" stroke="black" stroke-width="0.5" />
<polygon points="252.5,655.477 223,706.573 282,706.573" transform="rotate(60 400 400)" fill="cyan" stroke="black" stroke-width="0.5" />
<polygon points="311.5,655.477 282,706.573 341,706.573" transform="rotate(60 400 400)" fill="cyan" stroke="black" stroke-width="0.5" />
<polygon points="370.5,655.477 341,706.573 400,706.573" transform="rotate(60 400 400)" fill="cyan" stroke="black" stroke-width="0.5" />
<polygon points="429.5,655.477 400,706.573 459,706.573" transform="rotate(60 400 400)" fill="cyan" stroke="black" stroke-width="0.5" />
<polygon points="488.5,655.477 459,706.573 518,706.573" transform="rotate(60 400 400)" fill="cyan" stroke="black" stroke-width="0.5" />
<polygon points="547.5,655.477 518,706.573 577,706.573" transform="rotate(60 400 400)" fill="cyan" stroke="black" stroke-width="0.5" />
<polygon points="511.5,706.573 482,757.668 541,757.668" transform="rotate(60 400 400)" fill="cyan" stroke="black" stroke-width="0.5" />
<polygon points="452.5,706.573 423,757.668 482,757.668" transform="rotate(60 400 400)" fill="cyan" stroke="black" stroke-width="0.5" />
<polygon points="393.5,706.573 364,757.668 423,757.668" transform="rotate(60 400 400)" fill="cyan" stroke="black" stroke-width="0.5" />
<polygon points="334.5,706.573 305,757.668 364,757.668" transform="rotate(60 400 400)" fill="cyan" stroke="black" stroke-width="0.5" />
<polygon points="275.5,706.573 246,757.668 305,757.668" transform="rotate(60 400 400)" fill="cyan" stroke="black" stroke-width="0.5" />
<polygon points="570.5,706.573 541,757.668 511.5,706.573" transform="rotate(60 400 400)" fill="cyan" stroke="black" stroke-width="0.5" />
<polygon points="511.5,706.573 482,757.668 452.5,706.573" transform="rotate(60 400 400)" fill="cyan" stroke="black" stroke-width="0.5" />
<polygon points="452.5,706.573 423,757.668 393.5,706.573" transform="rotate(60 400 400)" fill="cyan" stroke="black" stroke-width="0.5" />
<polygon points="393.5,706.573 364,757.668 334.5,706.573" transform="rotate(60 400 400)" fill="cyan" stroke="black" stroke-width="0.5" />
<polygon points="334.5,706.573 305,757.668 275.5,706.573" transform="rotate(60 400 400)" fill="cyan" stroke="black" stroke-width="0.5" />
<polygon points="275.5,706.573 246,757.668 216.5,706.573" transform="rotate(60 400 400)" fill="cyan" stroke="black" stroke-width="0.5" />
<polygon points="400,400 370.5,451.095 429.5,451.095" transform="rotate(120 400 400)" fill="cyan" stroke="black" stroke-width="0.5" />
<polygon points="400,502.191 370.5,451.095 429.5,451.095" transform="rotate(120 400 400)" fill="cyan" stroke="black" stroke-width="0.5" />
<polygon points="370.5,451.095 341,502.191 400,502.191" transform="rotate(120 400 400)" fill="cyan" stroke="black" stroke-width="0.5" />
<polygon points="370.5,553.286 341,502.191 400,502.191" transform="rotate(120 400 400)" fill="cyan" stroke="black" stroke-width="0.5" />
<polygon points="429.5,451.095 400,502.191 459,502.191" transform="rotate(120 400 400)" fill="cyan" stroke="black" stroke-width="0.5" />
<polygon points="429.5,553.286 400,502.191 459,502.191" transform="rotate(120 400 400)" fill="cyan" stroke="black" stroke-width="0.5" />
<polygon points="341,502.191 311.5,553.286 370.5,553.286" transform="rotate(120 400 400)" fill="cyan" stroke="black" stroke-width="0.5" />
<polygon points="341,604.382 311.5,553.286 370.5,553.286" transform="rotate(120 400 400)" fill="cyan" stroke="black" stroke-width="0.5" />
<polygon points="400,502.191 370.5,553.286 429.5,553.286" transform="rotate(120 400 400)" fill="cyan" stroke="black" stroke-width="0.5" />
<polygon points="400,604.382 370.5,553.286 429.5,553.286" transform="rotate(120 400 400)" fill="cyan" stroke="black" stroke-width="0.5" />
<polygon points="459,502.191 429.5,553.286 488.5,553.286" transform="rotate(120 400 400)" fill="cyan" stroke="black" stroke-width="0.5" />
<polygon points="459,604.382 429.5,553.286 488.5,553.286" transform="rotate(120 400 400)" fill="cyan" stroke="black" stroke-width="0.5" />
<polygon points="311.5,553.286 282,604.382 341,604.382" transform="rotate(120 400 400)" fill="cyan" stroke="black" stroke-width="0.5" />
<polygon points="311.5,655.477 282,604.382 341,604.382" transform="rotate(120 400 400)" fill="cyan" stroke="black" stroke-width="0.5" />
<polygon points="370.5,553.286 341,604.382 400,604.382" transform="rotate(120 400 400)" fill="cyan" stroke="black" stroke-width="0.5" />
<polygon points="370.5,655.477 341,604.382 400,604.382" transform="rotate(120 400 400)" fill="cyan" stroke="black" stroke-width="0.5" />
<polygon points="429.5,553.286 400,604.382 459,604.382" transform="rotate(120 400 400)" fill="cyan" stroke="black" stroke-width="0.5" />
<polygon points="429.5,655.477 400,604.382 459,604.382" transform="rotate(120 400 400)" fill="cyan" stroke="black" stroke-width="0.5" />
<polygon points="488.5,553.286 459,604.382 518,604.382" transform="rotate(120 400 400)" fill="cyan" stroke="black" stroke-width="0.5" />
<polygon points="488.5,655.477 459,604.382 518,604.382" transform="rotate(120 400 400)" fill="cyan" stroke="black" stroke-width="0.5" />
<polygon points="282,604.382 252.5,655.477 311.5,655.477" transform="rotate(120 400 400)" fill="cyan" stroke="black" stroke-width="0.5" />
<polygon points="282,706.573 252.5,655.477 311.5,655.477" transform="rotate(120 400 400)" fill="cyan" stroke="black" stroke-width="0.5" />
<polygon points="341,604.382 311.5,655.477 370.5,655.477" transform="rotate(120 400 400)" fill="cyan" stroke="black" stroke-width="0.5" />
<polygon points="341,706.573 311.5,655.477 370.5,655.477" transform="rotate(120 400 400)" fill="cyan" stroke="black" stroke-width="0.5" />
<polygon points="400,604.382 370.5,655.477 429.5,655.477" transform="rotate(120 400 400)" fill="cyan" stroke="black" stroke-width="0.5" />
<polygon points="400,706.573 370.5,655.477 429.5,655.477" transform="rotate(120 400 400)" fill="cyan" stroke="black" stroke-width="0.5" />
<polygon points="459,604.382 429.5,655.477 488.5,655.477" transform="rotate(120 400 400)" fill="cyan" stroke="black" stroke-width="0.5" />
<polygon points="459,706.573 429.5,655.477 488.5,655.477" transform="rotate(120 400 400)" fill="cyan" stroke="black" stroke-width="0.5" />
<polygon points="518,604.382 488.5,655.477 547.5,655.477" transform="rotate(120 400 400)" fill="cyan" stroke="black" stroke-width="0.5" />
<polygon points="518,706.573 488.5,655.477 547.5,655.477" transform="rotate(120 400 400)" fill="cyan" stroke="black" stroke-width="0.5" />
<polygon points="252.5,655.477 223,706.573 282,706.573" transform="rotate(120 400 400)" fill="cyan" stroke="black" stroke-width="0.5" />
<polygon points="311.5,655.477 282,706.573 341,706.573" transform="rotate(120 400 400)" fill="cyan" stroke="black" stroke-width="0.5" />
<polygon points="370.5,655.477 341,706.573 400,706.573" transform="rotate(120 400 400)" fill="cyan" stroke="black" stroke-width="0.5" />
<polygon points="429.5,655.477 400,706.573 459,706.573" transform="rotate(120 400 400)" fill="cyan" stroke="black" stroke-width="0.5" />
<polygon points="488.5,655.477 459,706.573 518,706.573" transform="rotate(120 400 400)" fill="cyan" stroke="black" stroke-width="0.5" />
<polygon points="547.5,655.477 518,706.573 577,706.573" transform="rotate(120 400 400)" fill="cyan" stroke="black" stroke-width="0.5" />
<polygon points="511.5,706.573 482,757.668 541,757.668" transform="rotate(120 400 400)" fill="cyan" stroke="black" stroke-width="0.5" />
<polygon points="452.5,706.573 423,757.668 482,757.668" transform="rotate(120 400 400)" fill="cyan" stroke="black" stroke-width="0.5" />
<polygon points="393.5,706.573 364,757.668 423,757.668" transform="rotate(120 400 400)" fill="cyan" stroke="black" stroke-width="0.5" />
<polygon points="334.5,706.573 305,757.668 364,757.668" transform="rotate(120 400 400)" fill="cyan" stroke="black" stroke-width="0.5" />
<polygon points="275.5,706.573 246,757.668 305,757.668" transform="rotate(120 400 400)" fill="cyan" stroke="black" stroke-width="0.5" />
<polygon points="570.5,706.573 541,757.668 511.5,706.573" transform="rotate(120 400 400)" fill="cyan" stroke="black" stroke-width="0.5" />
<polygon points="511.5,706.573 482,757.668 452.5,706.573" transform="rotate(120 400 400)" fill="cyan" stroke="black" stroke-width="0.5" />
<polygon points="452.5,706.573 423,757.668 393.5,706.573" transform="rotate(120 400 400)" fill="cyan" stroke="black" stroke-width="0.5" />
<polygon points="393.5,706.573 364,757.668 334.5,706.573" transform="rotate(120 400 400)" fill="cyan" stroke="black" stroke-width="0.5" />
<polygon points="334.5,706.573 305,757.668 275.5,706.573" transform="rotate(120 400 400)" fill="cyan" stroke="black" stroke-width="0.5" />
<polygon points="275.5,706.573 246,757.668 216.5,706.573" transform="rotate(120 400 400)" fill="cyan" stroke="black" stroke-width="0.5" />
<polygon points="400,400 370.5,451.095 429.5,451.095" transform="rotate(180 400 400)" fill="cyan" stroke="black" stroke-width="0.5" />
<polygon points="400,502.191 370.5,451.095 429.5,451.095" transform="rotate(180 400 400)" fill="cyan" stroke="black" stroke-width="0.5" />
<polygon points="370.5,451.095 341,502.191 400,502.191" transform="rotate(180 400 400)" fill="cyan" stroke="black" stroke-width="0.5" />
<polygon points="370.5,553.286 341,502.191 400,502.191" transform="rotate(180 400 400)" fill="cyan" stroke="black" stroke-width="0.5" />
<polygon points="429.5,451.095 400,502.191 459,502.191" transform="rotate(180 400 400)" fill="cyan" stroke="black" stroke-width="0.5" />
<polygon points="429.5,553.286 400,502.191 459,502.191" transform="rotate(180 400 400)" fill="cyan" stroke="black" stroke-width="0.5" />
<polygon points="341,502.191 311.5,553.286 370.5,553.286" transform="rotate(180 400 400)" fill="cyan" stroke="black" stroke-width="0.5" />
<polygon points="341,604.382 311.5,553.286 370.5,553.286" transform="rotate(180 400 400)" fill="cyan" stroke="black" stroke-width="0.5" />
<polygon points="400,502.191 370.5,553.286 429.5,553.286" transform="rotate(180 400 400)" fill="cyan" stroke="black" stroke-width="0.5" />
<polygon points="400,604.382 370.5,553.286 429.5,553.286" transform="rotate(180 400 400)" fill="cyan" stroke="black" stroke-width="0.5" />
<polygon points="459,502.191 429.5,553.286 488.5,553.286" transform="rotate(180 400 400)" fill="cyan" stroke="black" stroke-width="0.5" />
<polygon points="459,604.382 429.5,553.286 488.5,553.286" transform="rotate(180 400 400)" fill="cyan" stroke="black" stroke-width="0.5" />
<polygon points="311.5,553.286 282,604.382 341,604.382" transform="rotate(180 400 400)" fill="cyan" stroke="black" stroke-width="0.5" />
<polygon points="311.5,655.477 282,604.382 341,604.382" transform="rotate(180 400 400)" fill="cyan" stroke="black" stroke-width="0.5" />
<polygon points="370.5,553.286 341,604.382 400,604.382" transform="rotate(180 400 400)" fill="cyan" stroke="black" stroke-width="0.5" />
<polygon points="370.5,655.477 341,604.382 400,604.382" transform="rotate(180 400 400)" fill="cyan" stroke="black" stroke-width="0.5" />
<polygon points="429.5,553.286 400,604.382 459,604.382" transform="rotate(180 400 400)" fill="cyan" stroke="black" stroke-width="0.5" />
<polygon points="429.5,655.477 400,604.382 459,604.382" transform="rotate(180 400 400)" fill="cyan" stroke="black" stroke-width="0.5" />
<polygon points="488.5,553.286 459,604.382 518,604.382" transform="rotate(180 400 400)" fill="cyan" stroke="black" stroke-width="0.5" />
<polygon points="488.5,655.477 459,604.382 518,604.382" transform="rotate(180 400 400)" fill="cyan" stroke="black" stroke-width="0.5" />
<polygon points="282,604.382 252.5,655.477 311.5,655.477" transform="rotate(180 400 400)" fill="cyan" stroke="black" stroke-width="0.5" />
<polygon points="282,706.573 252.5,655.477 311.5,655.477" transform="rotate(180 400 400)" fill="cyan" stroke="black" stroke-width="0.5" />
<polygon points="341,604.382 311.5,655.477 370.5,655.477" transform="rotate(180 400 400)" fill="cyan" stroke="black" stroke-width="0.5" />
<polygon points="341,706.573 311.5,655.477 370.5,655.477" transform="rotate(180 400 400)" fill="cyan" stroke="black" stroke-width="0.5" />
<polygon points="400,604.382 370.5,655.477 429.5,655.477" transform="rotate(180 400 400)" fill="cyan" stroke="black" stroke-width="0.5" />
<polygon points="400,706.573 370.5,655.477 429.5,655.477" transform="rotate(180 400 400)" fill="cyan" stroke="black" stroke-width="0.5" />
<polygon points="459,604.382 429.5,655.477 488.5,655.477" transform="rotate(180 400 400)" fill="cyan" stroke="black" stroke-width="0.5" />
<polygon points="459,706.573 429.5,655.477 488.5,655.477" transform="rotate(180 400 400)" fill="cyan" stroke="black" stroke-width="0.5" />
<polygon points="518,604.382 488.5,655.477 547.5,655.477" transform="rotate(180 400 400)" fill="cyan" stroke="black" stroke-width="0.5" />
<polygon points="518,706.573 488.5,655.477 547.5,655.477" transform="rotate(180 400 400)" fill="cyan" stroke="black" stroke-width="0.5" />
<polygon points="252.5,655.477 223,706.573 282,706.573" transform="rotate(180 400 400)" fill="cyan" stroke="black" stroke-width="0.5" />
<polygon points="311.5,655.477 282,706.573 341,706.573" transform="rotate(180 400 400)" fill="cyan" stroke="black" stroke-width="0.5" />
<polygon points="370.5,655.477 341,706.573 400,706.573" transform="rotate(180 400 400)" fill="cyan" stroke="black" stroke-width="0.5" />
<polygon points="429.5,655.477 400,706.573 459,706.573" transform="rotate(180 400 400)" fill="cyan" stroke="black" stroke-width="0.5" />
<polygon points="488.5,655.477 459,706.573 518,706.573" transform="rotate(180 400 400)" fill="cyan" stroke="black" stroke-width="0.5" />
<polygon points="547.5,655.477 518,706.573 577,706.573" transform="rotate(180 400 400)" fill="cyan" stroke="black" stroke-width="0.5" />
<polygon points="511.5,706.573 482,757.668 541,757.668" transform="rotate(180 400 400)" fill="cyan" stroke="black" stroke-width="0.5" />
<polygon points="452.5,706.573 423,757.668 482,757.668" transform="rotate(180 400 400)" fill="cyan" stroke="black" stroke-width="0.5" />
<polygon points="393.5,706.573 364,757.668 423,757.668" transform="rotate(180 400 400)" fill="cyan" stroke="black" stroke-width="0.5" />
<polygon points="334.5,706.573 305,757.668 364,757.668" transform="rotate(180 400 400)" fill="cyan" stroke="black" stroke-width="0.5" />
<polygon points="275.5,706.573 246,757.668 305,757.668" transform="rotate(180 400 400)" fill="cyan" stroke="black" stroke-width="0.5" />
<polygon points="570.5,706.573 541,757.668 511.5,706.573" transform="rotate(180 400 400)" fill="cyan" stroke="black" stroke-width="0.5" />
<polygon points="511.5,706.573 482,757.668 452.5,706.573" transform="rotate(180 400 400)" fill="cyan" stroke="black" stroke-width="0.5" />
<polygon points="452.5,706.573 423,757.668 393.5,706.573" transform="rotate(180 400 400)" fill="cyan" stroke="black" stroke-width="0.5" />
<polygon points="393.5,706.573 364,757.668 334.5,706.573" transform="rotate(180 400 400)" fill="cyan" stroke="black" stroke-width="0.5" />
<polygon points="334.5,706.573 305,757.668 275.5,706.573" transform="rotate(180 400 400)" fill="cyan" stroke="black" stroke-width="0.5" />
<polygon points="275.5,706.573 246,757.668 216.5,706.573" transform="rotate(180 400 400)" fill="cyan" stroke="black" stroke-width="0.5" />
<polygon points="400,400 370.5,451.095 429.5,451.095" transform="rotate(240 400 400)" fill="cyan" stroke="black" stroke-width="0.5" />
<polygon points="400,502.191 370.5,451.095 429.5,451.095" transform="rotate(240 400 400)" fill="cyan" stroke="black" stroke-width="0.5" />
<polygon points="370.5,451.095 341,502.191 400,502.191" transform="rotate(240 400 400)" fill="cyan" stroke="black" stroke-width="0.5" />
<polygon points="370.5,553.286 341,502.191 400,502.191" transform="rotate(240 400 400)" fill="cyan" stroke="black" stroke-width="0.5" />
<polygon points="429.5,451.095 400,502.191 459,502.191" transform="rotate(240 400 400)" fill="cyan" stroke="black" stroke-width="0.5" />
<polygon points="429.5,553.286 400,502.191 459,502.191" transform="rotate(240 400 400)" fill="cyan" stroke="black" stroke-width="0.5" />
<polygon points="341,502.191 311.5,553.286 370.5,553.286" transform="rotate(240 400 400)" fill="cyan" stroke="black" stroke-width="0.5" />
<polygon points="341,604.382 311.5,553.286 370.5,553.286" transform="rotate(240 400 400)" fill="cyan" stroke="black" stroke-width="0.5" />
<polygon points="400,502.191 370.5,553.286 429.5,553.286" transform="rotate(240 400 400)" fill="cyan" stroke="black" stroke-width="0.5" />
<polygon points="400,604.382 370.5,553.286 429.5,553.286" transform="rotate(240 400 400)" fill="cyan" stroke="black" stroke-width="0.5" />
<polygon points="459,502.191 429.5,553.286 488.5,553.286" transform="rotate(240 400 400)" fill="cyan" stroke="black" stroke-width="0.5" />
<polygon points="459,604.382 429.5,553.286 488.5,553.286" transform="rotate(240 400 400)" fill="cyan" stroke="black" stroke-width="0.5" />
<polygon points="311.5,553.286 282,604.382 341,604.382" transform="rotate(240 400 400)" fill="cyan" stroke="black" stroke-width="0.5" />
<polygon points="311.5,655.477 282,604.382 341,604.382" transform="rotate(240 400 400)" fill="cyan" stroke="black" stroke-width="0.5" />
<polygon points="370.5,553.286 341,604.382 400,604.382" transform="rotate(240 400 400)" fill="cyan" stroke="black" stroke-width="0.5" />
<polygon points="370.5,655.477 341,604.382 400,604.382" transform="rotate(240 400 400)" fill="cyan" stroke="black" stroke-width="0.5" />
<polygon points="429.5,553.286 400,604.382 459,604.382" transform="rotate(240 400 400)" fill="cyan" stroke="black" stroke-width="0.5" />
<polygon points="429.5,655.477 400,604.382 459,604.382" transform="rotate(240 400 400)" fill="cyan" stroke="black" stroke-width="0.5" />
<polygon points="488.5,553.286 459,604.382 518,604.382" transform="rotate(240 400 400)" fill="cyan" stroke="black" stroke-width="0.5" />
<polygon points="488.5,655.477 459,604.382 518,604.382" transform="rotate(240 400 400)" fill="cyan" stroke="black" stroke-width="0.5" />
<polygon points="282,604.382 252.5,655.477 311.5,655.477" transform="rotate(240 400 400)" fill="cyan" stroke="black" stroke-width="0.5" />
<polygon points="282,706.573 252.5,655.477 311.5,655.477" transform="rotate(240 400 400)" fill="cyan" stroke="black" stroke-width="0.5" />
<polygon points="341,604.382 311.5,655.477 370.5,655.477" transform="rotate(240 400 400)" fill="cyan" stroke="black" stroke-width="0.5" />
<polygon points="341,706.573 311.5,655.477 370.5,655.477" transform="rotate(240 400 400)" fill="cyan" stroke="black" stroke-width="0.5" />
<polygon points="400,604.382 370.5,655.477 429.5,655.477" transform="rotate(240 400 400)" fill="cyan" stroke="black" stroke-width="0.5" />
<polygon points="400,706.573 370.5,655.477 429.5,655.477" transform="rotate(240 400 400)" fill="cyan" stroke="black" stroke-width="0.5" />
<polygon points="459,604.382 429.5,655.477 488.5,655.477" transform="rotate(240 400 400)" fill="cyan" stroke="black" stroke-width="0.5" />
<polygon points="459,706.573 429.5,655.477 488.5,655.477" transform="rotate(240 400 400)" fill="cyan" stroke="black" stroke-width="0.5" />
<polygon points="518,604.382 488.5,655.477 547.5,655.477" transform="rotate(240 400 400)" fill="cyan" stroke="black" stroke-width="0.5" />
<polygon points="518,706.573 488.5,655.477 547.5,655.477" transform="rotate(240 400 400)" fill="cyan" stroke="black" stroke-width="0.5" />
<polygon points="252.5,655.477 223,706.573 282,706.573" transform="rotate(240 400 400)" fill="cyan" stroke="black" stroke-width="0.5" />
<polygon points="311.5,655.477 282,706.573 341,706.573" transform="rotate(240 400 400)" fill="cyan" stroke="black" stroke-width="0.5" />
<polygon points="370.5,655.477 341,706.573 400,706.573" transform="rotate(240 400 400)" fill="cyan" stroke="black" stroke-width="0.5" />
<polygon points="429.5,655.477 400,706.573 459,706.573" transform="rotate(240 400 400)" fill="cyan" stroke="black" stroke-width="0.5" />
<polygon points="488.5,655.477 459,706.573 518,706.573" transform="rotate(240 400 400)" fill="cyan" stroke="black" stroke-width="0.5" />
<polygon points="547.5,655.477 518,706.573 577,706.573" transform="rotate(240 400 400)" fill="cyan" stroke="black" stroke-width="0.5" />
<polygon points="511.5,706.573 482,757.668 541,757.668" transform="rotate(240 400 400)" fill="cyan" stroke="black" stroke-width="0.5" />
<polygon points="452.5,706.573 423,757.668 482,757.668" transform="rotate(240 400 400)" fill="cyan" stroke="black" stroke-width="0.5" />
<polygon points="393.5,706.573 364,757.668 423,757.668" transform="rotate(240 400 400)" fill="cyan" stroke="black" stroke-width="0.5" />
<polygon points="334.5,706.573 305,757.668 364,757.668" transform="rotate(240 400 400)" fill="cyan" stroke="black" stroke-width="0.5" />
<polygon points="275.5,706.573 246,757.668 305,757.668" transform="rotate(240 400 400)" fill="cyan" stroke="black" stroke-width="0.5" />
<polygon points="570.5,706.573 541,757.668 511.5,706.573" transform="rotate(240 400 400)" fill="cyan" stroke="black" stroke-width="0.5" />
<polygon points="511.5,706.573 482,757.668 452.5,706.573" transform="rotate(240 400 400)" fill="cyan" stroke="black" stroke-width="0.5" />
<polygon points="452.5,706.573 423,757.668 393.5,706.573" transform="rotate(240 400 400)" fill="cyan" stroke="black" stroke-width="0.5" />
<polygon points="393.5,706.573 364,757.668 334.5,706.573" transform="rotate(240 400 400)" fill="cyan" stroke="black" stroke-width="0.5" />
<polygon points="334.5,706.573 305,757.668 275.5,706.573" transform="rotate(240 400 400)" fill="cyan" stroke="black" stroke-width="0.5" />
<polygon points="275.5,706.573 246,757.668 216.5,706.573" transform="rotate(240 400 400)" fill="cyan" stroke="black" stroke-width="0.5" />
<polygon points="400,400 370.5,451.095 429.5,451.095" transform="rotate(300 400 400)" fill="cyan" stroke="black" stroke-width="0.5" />
<polygon points="400,502.191 370.5,451.095 429.5,451.095" transform="rotate(300 400 400)" fill="cyan" stroke="black" stroke-width="0.5" />
<polygon points="370.5,451.095 341,502.191 400,502.191" transform="rotate(300 400 400)" fill="cyan" stroke="black" stroke-width="0.5" />
<polygon points="370.5,553.286 341,502.191 400,502.191" transform="rotate(300 400 400)" fill="cyan" stroke="black" stroke-width="0.5" />
<polygon points="429.5,451.095 400,502.191 459,502.191" transform="rotate(300 400 400)" fill="cyan" stroke="black" stroke-width="0.5" />
<polygon points="429.5,553.286 400,502.191 459,502.191" transform="rotate(300 400 400)" fill="cyan" stroke="black" stroke-width="0.5" />
<polygon points="341,502.191 311.5,553.286 370.5,553.286" transform="rotate(300 400 400)" fill="cyan" stroke="black" stroke-width="0.5" />
<polygon points="341,604.382 311.5,553.286 370.5,553.286" transform="rotate(300 400 400)" fill="cyan" stroke="black" stroke-width="0.5" />
<polygon points="400,502.191 370.5,553.286 429.5,553.286" transform="rotate(300 400 400)" fill="cyan" stroke="black" stroke-width="0.5" />
<polygon points="400,604.382 370.5,553.286 429.5,553.286" transform="rotate(300 400 400)" fill="cyan" stroke="black" stroke-width="0.5" />
<polygon points="459,502.191 429.5,553.286 488.5,553.286" transform="rotate(300 400 400)" fill="cyan" stroke="black" stroke-width="0.5" />
<polygon points="459,604.382 429.5,553.286 488.5,553.286" transform="rotate(300 400 400)" fill="cyan" stroke="black" stroke-width="0.5" />
<polygon points="311.5,553.286 282,604.382 341,604.382" transform="rotate(300 400 400)" fill="cyan" stroke="black" stroke-width="0.5" />
<polygon points="311.5,655.477 282,604.382 341,604.382" transform="rotate(300 400 400)" fill="cyan" stroke="black" stroke-width="0.5" />
<polygon points="370.5,553.286 341,604.382 400,604.382" transform="rotate(300 400 400)" fill="cyan" stroke="black" stroke-width="0.5" />
<polygon points="370.5,655.477 341,604.382 400,604.382" transform="rotate(300 400 400)" fill="cyan" stroke="black" stroke-width="0.5" />
<polygon points="429.5,553.286 400,604.382 459,604.382" transform="rotate(300 400 400)" fill="cyan" stroke="black" stroke-width="0.5" />
<polygon points="429.5,655.477 400,604.382 459,604.382" transform="rotate(300 400 400)" fill="cyan" stroke="black" stroke-width="0.5" />
<polygon points="488.5,553.286 459,604.382 518,604.382" transform="rotate(300 400 400)" fill="cyan" stroke="black" stroke-width="0.5" />
<polygon points="488.5,655.477 459,604.382 518,604.382" transform="rotate(300 400 400)" fill="cyan" stroke="black" stroke-width="0.5" />
<polygon points="282,604.382 252.5,655.477 311.5,655.477" transform="rotate(300 400 400)" fill="cyan" stroke="black" stroke-width="0.5" />
<polygon points="282,706.573 252.5,655.477 311.5,655.477" transform="rotate(300 400 400)" fill="cyan" stroke="black" stroke-width="0.5" />
<polygon points="341,604.382 311.5,655.477 370.5,655.477" transform="rotate(300 400 400)" fill="cyan" stroke="black" stroke-width="0.5" />
<polygon points="341,706.573 311.5,655.477 370.5,655.477" transform="rotate(300 400 400)" fill="cyan" stroke="black" stroke-width="0.5" />
<polygon points="400,604.382 370.5,655.477 429.5,655.477" transform="rotate(300 400 400)" fill="cyan" stroke="black" stroke-width="0.5" />
<polygon points="400,706.573 370.5,655.477 429.5,655.477" transform="rotate(300 400 400)" fill="cyan" stroke="black" stroke-width="0.5" />
<polygon points="459,604.382 429.5,655.477 488.5,655.477" transform="rotate(300 400 400)" fill="cyan" stroke="black" stroke-width="0.5" />
<polygon points="459,706.573 429.5,655.477 488.5,655.477" transform="rotate(300 400 400)" fill="cyan" stroke="black" stroke-width="0.5" />
<polygon points="518,604.382 488.5,655.477 547.5,655.477" transform="rotate(300 400 400)" fill="cyan" stroke="black" stroke-width="0.5" />
<polygon points="518,706.573 488.5,655.477 547.5,655.477" transform="rotate(300 400 400)" fill="cyan" stroke="black" stroke-width="0.5" />
<polygon points="252.5,655.477 223,706.573 282,706.573" transform="rotate(300 400 400)" fill="cyan" stroke="black" stroke-width="0.5" />
<polygon points="311.5,655.477 282,706.573 341,706.573" transform="rotate(300 400 400)" fill="cyan" stroke="black" stroke-width="0.5" />
<polygon points="370.5,655.477 341,706.573 400,706.573" transform="rotate(300 400 400)" fill="cyan" stroke="black" stroke-width="0.5" />
<polygon points="429.5,655.477 400,706.573 459,706.573" transform="rotate(300 400 400)" fill="cyan" stroke="black" stroke-width="0.5" />
<polygon points="488.5,655.477 459,706.573 518,706.573" transform="rotate(300 400 400)" fill="cyan" stroke="black" stroke-width="0.5" />
<polygon points="547.5,655.477 518,706.573 577,706.573" transform="rotate(300 400 400)" fill="cyan" stroke="black" stroke-width="0.5" />
<polygon points="511.5,706.573 482,757.668 541,757.668" transform="rotate(300 400 400)" fill="cyan" stroke="black" stroke-width="0.5" />
<polygon points="452.5,706.573 423,757.668 482,757.668" transform="rotate(300 400 400)" fill="cyan" stroke="black" stroke-width="0.5" />
<polygon points="393.5,706.573 364,757.668 423,757.668" transform="rotate(300 400 400)" fill="cyan" stroke="black" stroke-width="0.5" />
<polygon points="334.5,706.573 305,757.668 364,757.668" transform="rotate(300 400 400)" fill="cyan" stroke="black" stroke-width="0.5" />
<polygon points="275.5,706.573 246,757.668 305,757.668" transform="rotate(300 400 400)" fill="cyan" stroke="black" stroke-width="0.5" />
<polygon points="570.5,706.573 541,757.668 511.5,706.573" transform="rotate(300 400 400)" fill="cyan" stroke="black" stroke-width="0.5" />
<polygon points="511.5,706.573 482,757.668 452.5,706.573" transform="rotate(300 400 400)" fill="cyan" stroke="black" stroke-width="0.5" />
<polygon points="452.5,706.573 423,757.668 393.5,706.573" transform="rotate(300 400 400)" fill="cyan" stroke="black" stroke-width="0.5" />
<polygon points="393.5,706.573 364,757.668 334.5,706.573" transform="rotate(300 400 400)" fill="cyan" stroke="black" stroke-width="0.5" />
<polygon points="334.5,706.573 305,757.668 275.5,706.573" transform="rotate(300 400 400)" fill="cyan" stroke="black" stroke-width="0.5" />
<polygon points="275.5,706.573 246,757.668 216.5,706.573" transform="rotate(300 400 400)" fill="cyan" stroke="black" stroke-width="0.5" />
</svg>
