<svg version="1.1" baseProfile="full" xmlns="http://www.w3.org/2000/svg">
<circle cx="500" cy="500" r="500" transform="rotate(0 0 0)" fill="pink" stroke="black" stroke-width="0.5" />
<rect x="146.447"  y="146.447" width="50" height="100" transform="rotate(0 146.447 146.447)" fill="magenta" stroke="black" stroke-width="0.5" />
<rect x="196.447"  y="146.447" width="50" height="100" transform="rotate(0 146.447 146.447)" fill="magenta" stroke="black" stroke-width="0.5" />
<rect x="246.447"  y="146.447" width="50" height="100" transform="rotate(0 146.447 146.447)" fill="magenta" stroke="black" stroke-width="0.5" />
<rect x="296.447"  y="146.447" width="50" height="100" transform="rotate(0 146.447 146.447)" fill="magenta" stroke="black" stroke-width="0.5" />
<rect x="346.447"  y="146.447" width="50" height="100" transform="rotate(0 146.447 146.447)" fill="magenta" stroke="black" stroke-width="0.5" />
<rect x="396.447"  y="146.447" width="50" height="100" transform="rotate(0 146.447 146.447)" fill="magenta" stroke="black" stroke-width="0.5" />
<rect x="446.447"  y="146.447" width="50" height="100" transform="rotate(0 146.447 146.447)" fill="magenta" stroke="black" stroke-width="0.5" />
<rect x="496.447"  y="146.447" width="50" height="100" transform="rotate(0 146.447 146.447)" fill="magenta" stroke="black" stroke-width="0.5" />
<rect x="546.447"  y="146.447" width="50" height="100" transform="rotate(0 146.447 146.447)" fill="magenta" stroke="black" stroke-width="0.5" />
<rect x="596.447"  y="146.447" width="50" height="100" transform="rotate(0 146.447 146.447)" fill="magenta" stroke="black" stroke-width="0.5" />
<rect x="646.447"  y="146.447" width="50" height="100" transform="rotate(0 146.447 146.447)" fill="magenta" stroke="black" stroke-width="0.5" />
<rect x="696.447"  y="146.447" width="50" height="100" transform="rotate(0 146.447 146.447)" fill="magenta" stroke="black" stroke-width="0.5" />
<rect x="746.447"  y="146.447" width="50" height="100" transform="rotate(0 146.447 146.447)" fill="magenta" stroke="black" stroke-width="0.5" />
<rect x="796.447"  y="146.447" width="50" height="100" transform="rotate(0 146.447 146.447)" fill="magenta" stroke="black" stroke-width="0.5" />
<rect x="146.447"  y="246.447" width="50" height="100" transform="rotate(0 146.447 146.447)" fill="magenta" stroke="black" stroke-width="0.5" />
<rect x="196.447"  y="246.447" width="50" height="100" transform="rotate(0 146.447 146.447)" fill="magenta" stroke="black" stroke-width="0.5" />
<rect x="246.447"  y="246.447" width="50" height="100" transform="rotate(0 146.447 146.447)" fill="magenta" stroke="black" stroke-width="0.5" />
<rect x="296.447"  y="246.447" width="50" height="100" transform="rotate(0 146.447 146.447)" fill="magenta" stroke="black" stroke-width="0.5" />
<rect x="346.447"  y="246.447" width="50" height="100" transform="rotate(0 146.447 146.447)" fill="magenta" stroke="black" stroke-width="0.5" />
<rect x="396.447"  y="246.447" width="50" height="100" transform="rotate(0 146.447 146.447)" fill="magenta" stroke="black" stroke-width="0.5" />
<rect x="446.447"  y="246.447" width="50" height="100" transform="rotate(0 146.447 146.447)" fill="magenta" stroke="black" stroke-width="0.5" />
<rect x="496.447"  y="246.447" width="50" height="100" transform="rotate(0 146.447 146.447)" fill="magenta" stroke="black" stroke-width="0.5" />
<rect x="546.447"  y="246.447" width="50" height="100" transform="rotate(0 146.447 146.447)" fill="magenta" stroke="black" stroke-width="0.5" />
<rect x="596.447"  y="246.447" width="50" height="100" transform="rotate(0 146.447 146.447)" fill="magenta" stroke="black" stroke-width="0.5" />
<rect x="646.447"  y="246.447" width="50" height="100" transform="rotate(0 146.447 146.447)" fill="magenta" stroke="black" stroke-width="0.5" />
<rect x="696.447"  y="246.447" width="50" height="100" transform="rotate(0 146.447 146.447)" fill="magenta" stroke="black" stroke-width="0.5" />
<rect x="746.447"  y="246.447" width="50" height="100" transform="rotate(0 146.447 146.447)" fill="magenta" stroke="black" stroke-width="0.5" />
<rect x="796.447"  y="246.447" width="50" height="100" transform="rotate(0 146.447 146.447)" fill="magenta" stroke="black" stroke-width="0.5" />
<rect x="146.447"  y="346.447" width="50" height="100" transform="rotate(0 146.447 146.447)" fill="magenta" stroke="black" stroke-width="0.5" />
<rect x="196.447"  y="346.447" width="50" height="100" transform="rotate(0 146.447 146.447)" fill="magenta" stroke="black" stroke-width="0.5" />
<rect x="246.447"  y="346.447" width="50" height="100" transform="rotate(0 146.447 146.447)" fill="magenta" stroke="black" stroke-width="0.5" />
<rect x="296.447"  y="346.447" width="50" height="100" transform="rotate(0 146.447 146.447)" fill="magenta" stroke="black" stroke-width="0.5" />
<rect x="346.447"  y="346.447" width="50" height="100" transform="rotate(0 146.447 146.447)" fill="magenta" stroke="black" stroke-width="0.5" />
<rect x="396.447"  y="346.447" width="50" height="100" transform="rotate(0 146.447 146.447)" fill="magenta" stroke="black" stroke-width="0.5" />
<rect x="446.447"  y="346.447" width="50" height="100" transform="rotate(0 146.447 146.447)" fill="magenta" stroke="black" stroke-width="0.5" />
<rect x="496.447"  y="346.447" width="50" height="100" transform="rotate(0 146.447 146.447)" fill="magenta" stroke="black" stroke-width="0.5" />
<rect x="546.447"  y="346.447" width="50" height="100" transform="rotate(0 146.447 146.447)" fill="magenta" stroke="black" stroke-width="0.5" />
<rect x="596.447"  y="346.447" width="50" height="100" transform="rotate(0 146.447 146.447)" fill="magenta" stroke="black" stroke-width="0.5" />
<rect x="646.447"  y="346.447" width="50" height="100" transform="rotate(0 146.447 146.447)" fill="magenta" stroke="black" stroke-width="0.5" />
<rect x="696.447"  y="346.447" width="50" height="100" transform="rotate(0 146.447 146.447)" fill="magenta" stroke="black" stroke-width="0.5" />
<rect x="746.447"  y="346.447" width="50" height="100" transform="rotate(0 146.447 146.447)" fill="magenta" stroke="black" stroke-width="0.5" />
<rect x="796.447"  y="346.447" width="50" height="100" transform="rotate(0 146.447 146.447)" fill="magenta" stroke="black" stroke-width="0.5" />
<rect x="146.447"  y="446.447" width="50" height="100" transform="rotate(0 146.447 146.447)" fill="magenta" stroke="black" stroke-width="0.5" />
<rect x="196.447"  y="446.447" width="50" height="100" transform="rotate(0 146.447 146.447)" fill="magenta" stroke="black" stroke-width="0.5" />
<rect x="246.447"  y="446.447" width="50" height="100" transform="rotate(0 146.447 146.447)" fill="magenta" stroke="black" stroke-width="0.5" />
<rect x="296.447"  y="446.447" width="50" height="100" transform="rotate(0 146.447 146.447)" fill="magenta" stroke="black" stroke-width="0.5" />
<rect x="346.447"  y="446.447" width="50" height="100" transform="rotate(0 146.447 146.447)" fill="magenta" stroke="black" stroke-width="0.5" />
<rect x="396.447"  y="446.447" width="50" height="100" transform="rotate(0 146.447 146.447)" fill="magenta" stroke="black" stroke-width="0.5" />
<rect x="446.447"  y="446.447" width="50" height="100" transform="rotate(0 146.447 146.447)" fill="magenta" stroke="black" stroke-width="0.5" />
<rect x="496.447"  y="446.447" width="50" height="100" transform="rotate(0 146.447 146.447)" fill="magenta" stroke="black" stroke-width="0.5" />
<rect x="546.447"  y="446.447" width="50" height="100" transform="rotate(0 146.447 146.447)" fill="magenta" stroke="black" stroke-width="0.5" />
<rect x="596.447"  y="446.447" width="50" height="100" transform="rotate(0 146.447 146.447)" fill="magenta" stroke="black" stroke-width="0.5" />
<rect x="646.447"  y="446.447" width="50" height="100" transform="rotate(0 146.447 146.447)" fill="magenta" stroke="black" stroke-width="0.5" />
<rect x="696.447"  y="446.447" width="50" height="100" transform="rotate(0 146.447 146.447)" fill="magenta" stroke="black" stroke-width="0.5" />
<rect x="746.447"  y="446.447" width="50" height="100" transform="rotate(0 146.447 146.447)" fill="magenta" stroke="black" stroke-width="0.5" />
<rect x="796.447"  y="446.447" width="50" height="100" transform="rotate(0 146.447 146.447)" fill="magenta" stroke="black" stroke-width="0.5" />
<rect x="146.447"  y="546.447" width="50" height="100" transform="rotate(0 146.447 146.447)" fill="magenta" stroke="black" stroke-width="0.5" />
<rect x="196.447"  y="546.447" width="50" height="100" transform="rotate(0 146.447 146.447)" fill="magenta" stroke="black" stroke-width="0.5" />
<rect x="246.447"  y="546.447" width="50" height="100" transform="rotate(0 146.447 146.447)" fill="magenta" stroke="black" stroke-width="0.5" />
<rect x="296.447"  y="546.447" width="50" height="100" transform="rotate(0 146.447 146.447)" fill="magenta" stroke="black" stroke-width="0.5" />
<rect x="346.447"  y="546.447" width="50" height="100" transform="rotate(0 146.447 146.447)" fill="magenta" stroke="black" stroke-width="0.5" />
<rect x="396.447"  y="546.447" width="50" height="100" transform="rotate(0 146.447 146.447)" fill="magenta" stroke="black" stroke-width="0.5" />
<rect x="446.447"  y="546.447" width="50" height="100" transform="rotate(0 146.447 146.447)" fill="magenta" stroke="black" stroke-width="0.5" />
<rect x="496.447"  y="546.447" width="50" height="100" transform="rotate(0 146.447 146.447)" fill="magenta" stroke="black" stroke-width="0.5" />
<rect x="546.447"  y="546.447" width="50" height="100" transform="rotate(0 146.447 146.447)" fill="magenta" stroke="black" stroke-width="0.5" />
<rect x="596.447"  y="546.447" width="50" height="100" transform="rotate(0 146.447 146.447)" fill="magenta" stroke="black" stroke-width="0.5" />
<rect x="646.447"  y="546.447" width="50" height="100" transform="rotate(0 146.447 146.447)" fill="magenta" stroke="black" stroke-width="0.5" />
<rect x="696.447"  y="546.447" width="50" height="100" transform="rotate(0 146.447 146.447)" fill="magenta" stroke="black" stroke-width="0.5" />
<rect x="746.447"  y="546.447" width="50" height="100" transform="rotate(0 146.447 146.447)" fill="magenta" stroke="black" stroke-width="0.5" />
<rect x="796.447"  y="546.447" width="50" height="100" transform="rotate(0 146.447 146.447)" fill="magenta" stroke="black" stroke-width="0.5" />
<rect x="146.447"  y="646.447" width="50" height="100" transform="rotate(0 146.447 146.447)" fill="magenta" stroke="black" stroke-width="0.5" />
<rect x="196.447"  y="646.447" width="50" height="100" transform="rotate(0 146.447 146.447)" fill="magenta" stroke="black" stroke-width="0.5" />
<rect x="246.447"  y="646.447" width="50" height="100" transform="rotate(0 146.447 146.447)" fill="magenta" stroke="black" stroke-width="0.5" />
<rect x="296.447"  y="646.447" width="50" height="100" transform="rotate(0 146.447 146.447)" fill="magenta" stroke="black" stroke-width="0.5" />
<rect x="346.447"  y="646.447" width="50" height="100" transform="rotate(0 146.447 146.447)" fill="magenta" stroke="black" stroke-width="0.5" />
<rect x="396.447"  y="646.447" width="50" height="100" transform="rotate(0 146.447 146.447)" fill="magenta" stroke="black" stroke-width="0.5" />
<rect x="446.447"  y="646.447" width="50" height="100" transform="rotate(0 146.447 146.447)" fill="magenta" stroke="black" stroke-width="0.5" />
<rect x="496.447"  y="646.447" width="50" height="100" transform="rotate(0 146.447 146.447)" fill="magenta" stroke="black" stroke-width="0.5" />
<rect x="546.447"  y="646.447" width="50" height="100" transform="rotate(0 146.447 146.447)" fill="magenta" stroke="black" stroke-width="0.5" />
<rect x="596.447"  y="646.447" width="50" height="100" transform="rotate(0 146.447 146.447)" fill="magenta" stroke="black" stroke-width="0.5" />
<rect x="646.447"  y="646.447" width="50" height="100" transform="rotate(0 146.447 146.447)" fill="magenta" stroke="black" stroke-width="0.5" />
<rect x="696.447"  y="646.447" width="50" height="100" transform="rotate(0 146.447 146.447)" fill="magenta" stroke="black" stroke-width="0.5" />
<rect x="746.447"  y="646.447" width="50" height="100" transform="rotate(0 146.447 146.447)" fill="magenta" stroke="black" stroke-width="0.5" />
<rect x="796.447"  y="646.447" width="50" height="100" transform="rotate(0 146.447 146.447)" fill="magenta" stroke="black" stroke-width="0.5" />
<rect x="146.447"  y="746.447" width="50" height="100" transform="rotate(0 146.447 146.447)" fill="magenta" stroke="black" stroke-width="0.5" />
<rect x="196.447"  y="746.447" width="50" height="100" transform="rotate(0 146.447 146.447)" fill="magenta" stroke="black" stroke-width="0.5" />
<rect x="246.447"  y="746.447" width="50" height="100" transform="rotate(0 146.447 146.447)" fill="magenta" stroke="black" stroke-width="0.5" />
<rect x="296.447"  y="746.447" width="50" height="100" transform="rotate(0 146.447 146.447)" fill="magenta" stroke="black" stroke-width="0.5" />
<rect x="346.447"  y="746.447" width="50" height="100" transform="rotate(0 146.447 146.447)" fill="magenta" stroke="black" stroke-width="0.5" />
<rect x="396.447"  y="746.447" width="50" height="100" transform="rotate(0 146.447 146.447)" fill="magenta" stroke="black" stroke-width="0.5" />
<rect x="446.447"  y="746.447" width="50" height="100" transform="rotate(0 146.447 146.447)" fill="magenta" stroke="black" stroke-width="0.5" />
<rect x="496.447"  y="746.447" width="50" height="100" transform="rotate(0 146.447 146.447)" fill="magenta" stroke="black" stroke-width="0.5" />
<rect x="546.447"  y="746.447" width="50" height="100" transform="rotate(0 146.447 146.447)" fill="magenta" stroke="black" stroke-width="0.5" />
<rect x="596.447"  y="746.447" width="50" height="100" transform="rotate(0 146.447 146.447)" fill="magenta" stroke="black" stroke-width="0.5" />
<rect x="646.447"  y="746.447" width="50" height="100" transform="rotate(0 146.447 146.447)" fill="magenta" stroke="black" stroke-width="0.5" />
<rect x="696.447"  y="746.447" width="50" height="100" transform="rotate(0 146.447 146.447)" fill="magenta" stroke="black" stroke-width="0.5" />
<rect x="746.447"  y="746.447" width="50" height="100" transform="rotate(0 146.447 146.447)" fill="magenta" stroke="black" stroke-width="0.5" />
<rect x="796.447"  y="746.447" width="50" height="100" transform="rotate(0 146.447 146.447)" fill="magenta" stroke="black" stroke-width="0.5" />
<rect x="500"  y="853.553" width="50" height="100" transform="rotate(0 500 500)" fill="magenta" stroke="black" stroke-width="0.5" />
<rect x="450"  y="853.553" width="50" height="100" transform="rotate(0 500 500)" fill="magenta" stroke="black" stroke-width="0.5" />
<rect x="550"  y="853.553" width="50" height="100" transform="rotate(0 500 500)" fill="magenta" stroke="black" stroke-width="0.5" />
<rect x="400"  y="853.553" width="50" height="100" transform="rotate(0 500 500)" fill="magenta" stroke="black" stroke-width="0.5" />
<rect x="600"  y="853.553" width="50" height="100" transform="rotate(0 500 500)" fill="magenta" stroke="black" stroke-width="0.5" />
<rect x="350"  y="853.553" width="50" height="100" transform="rotate(0 500 500)" fill="magenta" stroke="black" stroke-width="0.5" />
<rect x="650"  y="853.553" width="50" height="100" transform="rotate(0 500 500)" fill="magenta" stroke="black" stroke-width="0.5" />
<rect x="300"  y="853.553" width="50" height="100" transform="rotate(0 500 500)" fill="magenta" stroke="black" stroke-width="0.5" />
<rect x="500"  y="853.553" width="50" height="100" transform="rotate(90 500 500)" fill="magenta" stroke="black" stroke-width="0.5" />
<rect x="450"  y="853.553" width="50" height="100" transform="rotate(90 500 500)" fill="magenta" stroke="black" stroke-width="0.5" />
<rect x="550"  y="853.553" width="50" height="100" transform="rotate(90 500 500)" fill="magenta" stroke="black" stroke-width="0.5" />
<rect x="400"  y="853.553" width="50" height="100" transform="rotate(90 500 500)" fill="magenta" stroke="black" stroke-width="0.5" />
<rect x="600"  y="853.553" width="50" height="100" transform="rotate(90 500 500)" fill="magenta" stroke="black" stroke-width="0.5" />
<rect x="350"  y="853.553" width="50" height="100" transform="rotate(90 500 500)" fill="magenta" stroke="black" stroke-width="0.5" />
<rect x="650"  y="853.553" width="50" height="100" transform="rotate(90 500 500)" fill="magenta" stroke="black" stroke-width="0.5" />
<rect x="300"  y="853.553" width="50" height="100" transform="rotate(90 500 500)" fill="magenta" stroke="black" stroke-width="0.5" />
<rect x="500"  y="853.553" width="50" height="100" transform="rotate(180 500 500)" fill="magenta" stroke="black" stroke-width="0.5" />
<rect x="450"  y="853.553" width="50" height="100" transform="rotate(180 500 500)" fill="magenta" stroke="black" stroke-width="0.5" />
<rect x="550"  y="853.553" width="50" height="100" transform="rotate(180 500 500)" fill="magenta" stroke="black" stroke-width="0.5" />
<rect x="400"  y="853.553" width="50" height="100" transform="rotate(180 500 500)" fill="magenta" stroke="black" stroke-width="0.5" />
<rect x="600"  y="853.553" width="50" height="100" transform="rotate(180 500 500)" fill="magenta" stroke="black" stroke-width="0.5" />
<rect x="350"  y="853.553" width="50" height="100" transform="rotate(180 500 500)" fill="magenta" stroke="black" stroke-width="0.5" />
<rect x="650"  y="853.553" width="50" height="100" transform="rotate(180 500 500)" fill="magenta" stroke="black" stroke-width="0.5" />
<rect x="300"  y="853.553" width="50" height="100" transform="rotate(180 500 500)" fill="magenta" stroke="black" stroke-width="0.5" />
<rect x="500"  y="853.553" width="50" height="100" transform="rotate(270 500 500)" fill="magenta" stroke="black" stroke-width="0.5" />
<rect x="450"  y="853.553" width="50" height="100" transform="rotate(270 500 500)" fill="magenta" stroke="black" stroke-width="0.5" />
<rect x="550"  y="853.553" width="50" height="100" transform="rotate(270 500 500)" fill="magenta" stroke="black" stroke-width="0.5" />
<rect x="400"  y="853.553" width="50" height="100" transform="rotate(270 500 500)" fill="magenta" stroke="black" stroke-width="0.5" />
<rect x="600"  y="853.553" width="50" height="100" transform="rotate(270 500 500)" fill="magenta" stroke="black" stroke-width="0.5" />
<rect x="350"  y="853.553" width="50" height="100" transform="rotate(270 500 500)" fill="magenta" stroke="black" stroke-width="0.5" />
<rect x="650"  y="853.553" width="50" height="100" transform="rotate(270 500 500)" fill="magenta" stroke="black" stroke-width="0.5" />
<rect x="300"  y="853.553" width="50" height="100" transform="rotate(270 500 500)" fill="magenta" stroke="black" stroke-width="0.5" />
</svg>
