<svg version="1.1" baseProfile="full" xmlns="http://www.w3.org/2000/svg">
<rect x="0"  y="0" width="500" height="600" transform="rotate(0 0 0)" fill="brown" stroke="black" stroke-width="0.5" />
<rect x="0"  y="0" width="20" height="60" transform="rotate(0 0 0)" fill="yellow" stroke="black" stroke-width="0.5" />
<rect x="20"  y="0" width="20" height="60" transform="rotate(0 0 0)" fill="yellow" stroke="black" stroke-width="0.5" />
<rect x="40"  y="0" width="20" height="60" transform="rotate(0 0 0)" fill="yellow" stroke="black" stroke-width="0.5" />
<rect x="60"  y="0" width="20" height="60" transform="rotate(0 0 0)" fill="yellow" stroke="black" stroke-width="0.5" />
<rect x="80"  y="0" width="20" height="60" transform="rotate(0 0 0)" fill="yellow" stroke="black" stroke-width="0.5" />
<rect x="100"  y="0" width="20" height="60" transform="rotate(0 0 0)" fill="yellow" stroke="black" stroke-width="0.5" />
<rect x="120"  y="0" width="20" height="60" transform="rotate(0 0 0)" fill="yellow" stroke="black" stroke-width="0.5" />
<rect x="140"  y="0" width="20" height="60" transform="rotate(0 0 0)" fill="yellow" stroke="black" stroke-width="0.5" />
<rect x="160"  y="0" width="20" height="60" transform="rotate(0 0 0)" fill="yellow" stroke="black" stroke-width="0.5" />
<rect x="180"  y="0" width="20" height="60" transform="rotate(0 0 0)" fill="yellow" stroke="black" stroke-width="0.5" />
<rect x="200"  y="0" width="20" height="60" transform="rotate(0 0 0)" fill="yellow" stroke="black" stroke-width="0.5" />
<rect x="220"  y="0" width="20" height="60" transform="rotate(0 0 0)" fill="yellow" stroke="black" stroke-width="0.5" />
<rect x="240"  y="0" width="20" height="60" transform="rotate(0 0 0)" fill="yellow" stroke="black" stroke-width="0.5" />
<rect x="260"  y="0" width="20" height="60" transform="rotate(0 0 0)" fill="yellow" stroke="black" stroke-width="0.5" />
<rect x="280"  y="0" width="20" height="60" transform="rotate(0 0 0)" fill="yellow" stroke="black" stroke-width="0.5" />
<rect x="300"  y="0" width="20" height="60" transform="rotate(0 0 0)" fill="yellow" stroke="black" stroke-width="0.5" />
<rect x="320"  y="0" width="20" height="60" transform="rotate(0 0 0)" fill="yellow" stroke="black" stroke-width="0.5" />
<rect x="340"  y="0" width="20" height="60" transform="rotate(0 0 0)" fill="yellow" stroke="black" stroke-width="0.5" />
<rect x="360"  y="0" width="20" height="60" transform="rotate(0 0 0)" fill="yellow" stroke="black" stroke-width="0.5" />
<rect x="380"  y="0" width="20" height="60" transform="rotate(0 0 0)" fill="yellow" stroke="black" stroke-width="0.5" />
<rect x="400"  y="0" width="20" height="60" transform="rotate(0 0 0)" fill="yellow" stroke="black" stroke-width="0.5" />
<rect x="420"  y="0" width="20" height="60" transform="rotate(0 0 0)" fill="yellow" stroke="black" stroke-width="0.5" />
<rect x="440"  y="0" width="20" height="60" transform="rotate(0 0 0)" fill="yellow" stroke="black" stroke-width="0.5" />
<rect x="460"  y="0" width="20" height="60" transform="rotate(0 0 0)" fill="yellow" stroke="black" stroke-width="0.5" />
<rect x="480"  y="0" width="20" height="60" transform="rotate(0 0 0)" fill="yellow" stroke="black" stroke-width="0.5" />
<rect x="0"  y="60" width="20" height="60" transform="rotate(0 0 0)" fill="yellow" stroke="black" stroke-width="0.5" />
<rect x="20"  y="60" width="20" height="60" transform="rotate(0 0 0)" fill="yellow" stroke="black" stroke-width="0.5" />
<rect x="40"  y="60" width="20" height="60" transform="rotate(0 0 0)" fill="yellow" stroke="black" stroke-width="0.5" />
<rect x="60"  y="60" width="20" height="60" transform="rotate(0 0 0)" fill="yellow" stroke="black" stroke-width="0.5" />
<rect x="80"  y="60" width="20" height="60" transform="rotate(0 0 0)" fill="yellow" stroke="black" stroke-width="0.5" />
<rect x="100"  y="60" width="20" height="60" transform="rotate(0 0 0)" fill="yellow" stroke="black" stroke-width="0.5" />
<rect x="120"  y="60" width="20" height="60" transform="rotate(0 0 0)" fill="yellow" stroke="black" stroke-width="0.5" />
<rect x="140"  y="60" width="20" height="60" transform="rotate(0 0 0)" fill="yellow" stroke="black" stroke-width="0.5" />
<rect x="160"  y="60" width="20" height="60" transform="rotate(0 0 0)" fill="yellow" stroke="black" stroke-width="0.5" />
<rect x="180"  y="60" width="20" height="60" transform="rotate(0 0 0)" fill="yellow" stroke="black" stroke-width="0.5" />
<rect x="200"  y="60" width="20" height="60" transform="rotate(0 0 0)" fill="yellow" stroke="black" stroke-width="0.5" />
<rect x="220"  y="60" width="20" height="60" transform="rotate(0 0 0)" fill="yellow" stroke="black" stroke-width="0.5" />
<rect x="240"  y="60" width="20" height="60" transform="rotate(0 0 0)" fill="yellow" stroke="black" stroke-width="0.5" />
<rect x="260"  y="60" width="20" height="60" transform="rotate(0 0 0)" fill="yellow" stroke="black" stroke-width="0.5" />
<rect x="280"  y="60" width="20" height="60" transform="rotate(0 0 0)" fill="yellow" stroke="black" stroke-width="0.5" />
<rect x="300"  y="60" width="20" height="60" transform="rotate(0 0 0)" fill="yellow" stroke="black" stroke-width="0.5" />
<rect x="320"  y="60" width="20" height="60" transform="rotate(0 0 0)" fill="yellow" stroke="black" stroke-width="0.5" />
<rect x="340"  y="60" width="20" height="60" transform="rotate(0 0 0)" fill="yellow" stroke="black" stroke-width="0.5" />
<rect x="360"  y="60" width="20" height="60" transform="rotate(0 0 0)" fill="yellow" stroke="black" stroke-width="0.5" />
<rect x="380"  y="60" width="20" height="60" transform="rotate(0 0 0)" fill="yellow" stroke="black" stroke-width="0.5" />
<rect x="400"  y="60" width="20" height="60" transform="rotate(0 0 0)" fill="yellow" stroke="black" stroke-width="0.5" />
<rect x="420"  y="60" width="20" height="60" transform="rotate(0 0 0)" fill="yellow" stroke="black" stroke-width="0.5" />
<rect x="440"  y="60" width="20" height="60" transform="rotate(0 0 0)" fill="yellow" stroke="black" stroke-width="0.5" />
<rect x="460"  y="60" width="20" height="60" transform="rotate(0 0 0)" fill="yellow" stroke="black" stroke-width="0.5" />
<rect x="480"  y="60" width="20" height="60" transform="rotate(0 0 0)" fill="yellow" stroke="black" stroke-width="0.5" />
<rect x="0"  y="120" width="20" height="60" transform="rotate(0 0 0)" fill="yellow" stroke="black" stroke-width="0.5" />
<rect x="20"  y="120" width="20" height="60" transform="rotate(0 0 0)" fill="yellow" stroke="black" stroke-width="0.5" />
<rect x="40"  y="120" width="20" height="60" transform="rotate(0 0 0)" fill="yellow" stroke="black" stroke-width="0.5" />
<rect x="60"  y="120" width="20" height="60" transform="rotate(0 0 0)" fill="yellow" stroke="black" stroke-width="0.5" />
<rect x="80"  y="120" width="20" height="60" transform="rotate(0 0 0)" fill="yellow" stroke="black" stroke-width="0.5" />
<rect x="100"  y="120" width="20" height="60" transform="rotate(0 0 0)" fill="yellow" stroke="black" stroke-width="0.5" />
<rect x="120"  y="120" width="20" height="60" transform="rotate(0 0 0)" fill="yellow" stroke="black" stroke-width="0.5" />
<rect x="140"  y="120" width="20" height="60" transform="rotate(0 0 0)" fill="yellow" stroke="black" stroke-width="0.5" />
<rect x="160"  y="120" width="20" height="60" transform="rotate(0 0 0)" fill="yellow" stroke="black" stroke-width="0.5" />
<rect x="180"  y="120" width="20" height="60" transform="rotate(0 0 0)" fill="yellow" stroke="black" stroke-width="0.5" />
<rect x="200"  y="120" width="20" height="60" transform="rotate(0 0 0)" fill="yellow" stroke="black" stroke-width="0.5" />
<rect x="220"  y="120" width="20" height="60" transform="rotate(0 0 0)" fill="yellow" stroke="black" stroke-width="0.5" />
<rect x="240"  y="120" width="20" height="60" transform="rotate(0 0 0)" fill="yellow" stroke="black" stroke-width="0.5" />
<rect x="260"  y="120" width="20" height="60" transform="rotate(0 0 0)" fill="yellow" stroke="black" stroke-width="0.5" />
<rect x="280"  y="120" width="20" height="60" transform="rotate(0 0 0)" fill="yellow" stroke="black" stroke-width="0.5" />
<rect x="300"  y="120" width="20" height="60" transform="rotate(0 0 0)" fill="yellow" stroke="black" stroke-width="0.5" />
<rect x="320"  y="120" width="20" height="60" transform="rotate(0 0 0)" fill="yellow" stroke="black" stroke-width="0.5" />
<rect x="340"  y="120" width="20" height="60" transform="rotate(0 0 0)" fill="yellow" stroke="black" stroke-width="0.5" />
<rect x="360"  y="120" width="20" height="60" transform="rotate(0 0 0)" fill="yellow" stroke="black" stroke-width="0.5" />
<rect x="380"  y="120" width="20" height="60" transform="rotate(0 0 0)" fill="yellow" stroke="black" stroke-width="0.5" />
<rect x="400"  y="120" width="20" height="60" transform="rotate(0 0 0)" fill="yellow" stroke="black" stroke-width="0.5" />
<rect x="420"  y="120" width="20" height="60" transform="rotate(0 0 0)" fill="yellow" stroke="black" stroke-width="0.5" />
<rect x="440"  y="120" width="20" height="60" transform="rotate(0 0 0)" fill="yellow" stroke="black" stroke-width="0.5" />
<rect x="460"  y="120" width="20" height="60" transform="rotate(0 0 0)" fill="yellow" stroke="black" stroke-width="0.5" />
<rect x="480"  y="120" width="20" height="60" transform="rotate(0 0 0)" fill="yellow" stroke="black" stroke-width="0.5" />
<rect x="0"  y="180" width="20" height="60" transform="rotate(0 0 0)" fill="yellow" stroke="black" stroke-width="0.5" />
<rect x="20"  y="180" width="20" height="60" transform="rotate(0 0 0)" fill="yellow" stroke="black" stroke-width="0.5" />
<rect x="40"  y="180" width="20" height="60" transform="rotate(0 0 0)" fill="yellow" stroke="black" stroke-width="0.5" />
<rect x="60"  y="180" width="20" height="60" transform="rotate(0 0 0)" fill="yellow" stroke="black" stroke-width="0.5" />
<rect x="80"  y="180" width="20" height="60" transform="rotate(0 0 0)" fill="yellow" stroke="black" stroke-width="0.5" />
<rect x="100"  y="180" width="20" height="60" transform="rotate(0 0 0)" fill="yellow" stroke="black" stroke-width="0.5" />
<rect x="120"  y="180" width="20" height="60" transform="rotate(0 0 0)" fill="yellow" stroke="black" stroke-width="0.5" />
<rect x="140"  y="180" width="20" height="60" transform="rotate(0 0 0)" fill="yellow" stroke="black" stroke-width="0.5" />
<rect x="160"  y="180" width="20" height="60" transform="rotate(0 0 0)" fill="yellow" stroke="black" stroke-width="0.5" />
<rect x="180"  y="180" width="20" height="60" transform="rotate(0 0 0)" fill="yellow" stroke="black" stroke-width="0.5" />
<rect x="200"  y="180" width="20" height="60" transform="rotate(0 0 0)" fill="yellow" stroke="black" stroke-width="0.5" />
<rect x="220"  y="180" width="20" height="60" transform="rotate(0 0 0)" fill="yellow" stroke="black" stroke-width="0.5" />
<rect x="240"  y="180" width="20" height="60" transform="rotate(0 0 0)" fill="yellow" stroke="black" stroke-width="0.5" />
<rect x="260"  y="180" width="20" height="60" transform="rotate(0 0 0)" fill="yellow" stroke="black" stroke-width="0.5" />
<rect x="280"  y="180" width="20" height="60" transform="rotate(0 0 0)" fill="yellow" stroke="black" stroke-width="0.5" />
<rect x="300"  y="180" width="20" height="60" transform="rotate(0 0 0)" fill="yellow" stroke="black" stroke-width="0.5" />
<rect x="320"  y="180" width="20" height="60" transform="rotate(0 0 0)" fill="yellow" stroke="black" stroke-width="0.5" />
<rect x="340"  y="180" width="20" height="60" transform="rotate(0 0 0)" fill="yellow" stroke="black" stroke-width="0.5" />
<rect x="360"  y="180" width="20" height="60" transform="rotate(0 0 0)" fill="yellow" stroke="black" stroke-width="0.5" />
<rect x="380"  y="180" width="20" height="60" transform="rotate(0 0 0)" fill="yellow" stroke="black" stroke-width="0.5" />
<rect x="400"  y="180" width="20" height="60" transform="rotate(0 0 0)" fill="yellow" stroke="black" stroke-width="0.5" />
<rect x="420"  y="180" width="20" height="60" transform="rotate(0 0 0)" fill="yellow" stroke="black" stroke-width="0.5" />
<rect x="440"  y="180" width="20" height="60" transform="rotate(0 0 0)" fill="yellow" stroke="black" stroke-width="0.5" />
<rect x="460"  y="180" width="20" height="60" transform="rotate(0 0 0)" fill="yellow" stroke="black" stroke-width="0.5" />
<rect x="480"  y="180" width="20" height="60" transform="rotate(0 0 0)" fill="yellow" stroke="black" stroke-width="0.5" />
<rect x="0"  y="240" width="20" height="60" transform="rotate(0 0 0)" fill="yellow" stroke="black" stroke-width="0.5" />
<rect x="20"  y="240" width="20" height="60" transform="rotate(0 0 0)" fill="yellow" stroke="black" stroke-width="0.5" />
<rect x="40"  y="240" width="20" height="60" transform="rotate(0 0 0)" fill="yellow" stroke="black" stroke-width="0.5" />
<rect x="60"  y="240" width="20" height="60" transform="rotate(0 0 0)" fill="yellow" stroke="black" stroke-width="0.5" />
<rect x="80"  y="240" width="20" height="60" transform="rotate(0 0 0)" fill="yellow" stroke="black" stroke-width="0.5" />
<rect x="100"  y="240" width="20" height="60" transform="rotate(0 0 0)" fill="yellow" stroke="black" stroke-width="0.5" />
<rect x="120"  y="240" width="20" height="60" transform="rotate(0 0 0)" fill="yellow" stroke="black" stroke-width="0.5" />
<rect x="140"  y="240" width="20" height="60" transform="rotate(0 0 0)" fill="yellow" stroke="black" stroke-width="0.5" />
<rect x="160"  y="240" width="20" height="60" transform="rotate(0 0 0)" fill="yellow" stroke="black" stroke-width="0.5" />
<rect x="180"  y="240" width="20" height="60" transform="rotate(0 0 0)" fill="yellow" stroke="black" stroke-width="0.5" />
<rect x="200"  y="240" width="20" height="60" transform="rotate(0 0 0)" fill="yellow" stroke="black" stroke-width="0.5" />
<rect x="220"  y="240" width="20" height="60" transform="rotate(0 0 0)" fill="yellow" stroke="black" stroke-width="0.5" />
<rect x="240"  y="240" width="20" height="60" transform="rotate(0 0 0)" fill="yellow" stroke="black" stroke-width="0.5" />
<rect x="260"  y="240" width="20" height="60" transform="rotate(0 0 0)" fill="yellow" stroke="black" stroke-width="0.5" />
<rect x="280"  y="240" width="20" height="60" transform="rotate(0 0 0)" fill="yellow" stroke="black" stroke-width="0.5" />
<rect x="300"  y="240" width="20" height="60" transform="rotate(0 0 0)" fill="yellow" stroke="black" stroke-width="0.5" />
<rect x="320"  y="240" width="20" height="60" transform="rotate(0 0 0)" fill="yellow" stroke="black" stroke-width="0.5" />
<rect x="340"  y="240" width="20" height="60" transform="rotate(0 0 0)" fill="yellow" stroke="black" stroke-width="0.5" />
<rect x="360"  y="240" width="20" height="60" transform="rotate(0 0 0)" fill="yellow" stroke="black" stroke-width="0.5" />
<rect x="380"  y="240" width="20" height="60" transform="rotate(0 0 0)" fill="yellow" stroke="black" stroke-width="0.5" />
<rect x="400"  y="240" width="20" height="60" transform="rotate(0 0 0)" fill="yellow" stroke="black" stroke-width="0.5" />
<rect x="420"  y="240" width="20" height="60" transform="rotate(0 0 0)" fill="yellow" stroke="black" stroke-width="0.5" />
<rect x="440"  y="240" width="20" height="60" transform="rotate(0 0 0)" fill="yellow" stroke="black" stroke-width="0.5" />
<rect x="460"  y="240" width="20" height="60" transform="rotate(0 0 0)" fill="yellow" stroke="black" stroke-width="0.5" />
<rect x="480"  y="240" width="20" height="60" transform="rotate(0 0 0)" fill="yellow" stroke="black" stroke-width="0.5" />
<rect x="0"  y="300" width="20" height="60" transform="rotate(0 0 0)" fill="yellow" stroke="black" stroke-width="0.5" />
<rect x="20"  y="300" width="20" height="60" transform="rotate(0 0 0)" fill="yellow" stroke="black" stroke-width="0.5" />
<rect x="40"  y="300" width="20" height="60" transform="rotate(0 0 0)" fill="yellow" stroke="black" stroke-width="0.5" />
<rect x="60"  y="300" width="20" height="60" transform="rotate(0 0 0)" fill="yellow" stroke="black" stroke-width="0.5" />
<rect x="80"  y="300" width="20" height="60" transform="rotate(0 0 0)" fill="yellow" stroke="black" stroke-width="0.5" />
<rect x="100"  y="300" width="20" height="60" transform="rotate(0 0 0)" fill="yellow" stroke="black" stroke-width="0.5" />
<rect x="120"  y="300" width="20" height="60" transform="rotate(0 0 0)" fill="yellow" stroke="black" stroke-width="0.5" />
<rect x="140"  y="300" width="20" height="60" transform="rotate(0 0 0)" fill="yellow" stroke="black" stroke-width="0.5" />
<rect x="160"  y="300" width="20" height="60" transform="rotate(0 0 0)" fill="yellow" stroke="black" stroke-width="0.5" />
<rect x="180"  y="300" width="20" height="60" transform="rotate(0 0 0)" fill="yellow" stroke="black" stroke-width="0.5" />
<rect x="200"  y="300" width="20" height="60" transform="rotate(0 0 0)" fill="yellow" stroke="black" stroke-width="0.5" />
<rect x="220"  y="300" width="20" height="60" transform="rotate(0 0 0)" fill="yellow" stroke="black" stroke-width="0.5" />
<rect x="240"  y="300" width="20" height="60" transform="rotate(0 0 0)" fill="yellow" stroke="black" stroke-width="0.5" />
<rect x="260"  y="300" width="20" height="60" transform="rotate(0 0 0)" fill="yellow" stroke="black" stroke-width="0.5" />
<rect x="280"  y="300" width="20" height="60" transform="rotate(0 0 0)" fill="yellow" stroke="black" stroke-width="0.5" />
<rect x="300"  y="300" width="20" height="60" transform="rotate(0 0 0)" fill="yellow" stroke="black" stroke-width="0.5" />
<rect x="320"  y="300" width="20" height="60" transform="rotate(0 0 0)" fill="yellow" stroke="black" stroke-width="0.5" />
<rect x="340"  y="300" width="20" height="60" transform="rotate(0 0 0)" fill="yellow" stroke="black" stroke-width="0.5" />
<rect x="360"  y="300" width="20" height="60" transform="rotate(0 0 0)" fill="yellow" stroke="black" stroke-width="0.5" />
<rect x="380"  y="300" width="20" height="60" transform="rotate(0 0 0)" fill="yellow" stroke="black" stroke-width="0.5" />
<rect x="400"  y="300" width="20" height="60" transform="rotate(0 0 0)" fill="yellow" stroke="black" stroke-width="0.5" />
<rect x="420"  y="300" width="20" height="60" transform="rotate(0 0 0)" fill="yellow" stroke="black" stroke-width="0.5" />
<rect x="440"  y="300" width="20" height="60" transform="rotate(0 0 0)" fill="yellow" stroke="black" stroke-width="0.5" />
<rect x="460"  y="300" width="20" height="60" transform="rotate(0 0 0)" fill="yellow" stroke="black" stroke-width="0.5" />
<rect x="480"  y="300" width="20" height="60" transform="rotate(0 0 0)" fill="yellow" stroke="black" stroke-width="0.5" />
<rect x="0"  y="360" width="20" height="60" transform="rotate(0 0 0)" fill="yellow" stroke="black" stroke-width="0.5" />
<rect x="20"  y="360" width="20" height="60" transform="rotate(0 0 0)" fill="yellow" stroke="black" stroke-width="0.5" />
<rect x="40"  y="360" width="20" height="60" transform="rotate(0 0 0)" fill="yellow" stroke="black" stroke-width="0.5" />
<rect x="60"  y="360" width="20" height="60" transform="rotate(0 0 0)" fill="yellow" stroke="black" stroke-width="0.5" />
<rect x="80"  y="360" width="20" height="60" transform="rotate(0 0 0)" fill="yellow" stroke="black" stroke-width="0.5" />
<rect x="100"  y="360" width="20" height="60" transform="rotate(0 0 0)" fill="yellow" stroke="black" stroke-width="0.5" />
<rect x="120"  y="360" width="20" height="60" transform="rotate(0 0 0)" fill="yellow" stroke="black" stroke-width="0.5" />
<rect x="140"  y="360" width="20" height="60" transform="rotate(0 0 0)" fill="yellow" stroke="black" stroke-width="0.5" />
<rect x="160"  y="360" width="20" height="60" transform="rotate(0 0 0)" fill="yellow" stroke="black" stroke-width="0.5" />
<rect x="180"  y="360" width="20" height="60" transform="rotate(0 0 0)" fill="yellow" stroke="black" stroke-width="0.5" />
<rect x="200"  y="360" width="20" height="60" transform="rotate(0 0 0)" fill="yellow" stroke="black" stroke-width="0.5" />
<rect x="220"  y="360" width="20" height="60" transform="rotate(0 0 0)" fill="yellow" stroke="black" stroke-width="0.5" />
<rect x="240"  y="360" width="20" height="60" transform="rotate(0 0 0)" fill="yellow" stroke="black" stroke-width="0.5" />
<rect x="260"  y="360" width="20" height="60" transform="rotate(0 0 0)" fill="yellow" stroke="black" stroke-width="0.5" />
<rect x="280"  y="360" width="20" height="60" transform="rotate(0 0 0)" fill="yellow" stroke="black" stroke-width="0.5" />
<rect x="300"  y="360" width="20" height="60" transform="rotate(0 0 0)" fill="yellow" stroke="black" stroke-width="0.5" />
<rect x="320"  y="360" width="20" height="60" transform="rotate(0 0 0)" fill="yellow" stroke="black" stroke-width="0.5" />
<rect x="340"  y="360" width="20" height="60" transform="rotate(0 0 0)" fill="yellow" stroke="black" stroke-width="0.5" />
<rect x="360"  y="360" width="20" height="60" transform="rotate(0 0 0)" fill="yellow" stroke="black" stroke-width="0.5" />
<rect x="380"  y="360" width="20" height="60" transform="rotate(0 0 0)" fill="yellow" stroke="black" stroke-width="0.5" />
<rect x="400"  y="360" width="20" height="60" transform="rotate(0 0 0)" fill="yellow" stroke="black" stroke-width="0.5" />
<rect x="420"  y="360" width="20" height="60" transform="rotate(0 0 0)" fill="yellow" stroke="black" stroke-width="0.5" />
<rect x="440"  y="360" width="20" height="60" transform="rotate(0 0 0)" fill="yellow" stroke="black" stroke-width="0.5" />
<rect x="460"  y="360" width="20" height="60" transform="rotate(0 0 0)" fill="yellow" stroke="black" stroke-width="0.5" />
<rect x="480"  y="360" width="20" height="60" transform="rotate(0 0 0)" fill="yellow" stroke="black" stroke-width="0.5" />
<rect x="0"  y="420" width="20" height="60" transform="rotate(0 0 0)" fill="yellow" stroke="black" stroke-width="0.5" />
<rect x="20"  y="420" width="20" height="60" transform="rotate(0 0 0)" fill="yellow" stroke="black" stroke-width="0.5" />
<rect x="40"  y="420" width="20" height="60" transform="rotate(0 0 0)" fill="yellow" stroke="black" stroke-width="0.5" />
<rect x="60"  y="420" width="20" height="60" transform="rotate(0 0 0)" fill="yellow" stroke="black" stroke-width="0.5" />
<rect x="80"  y="420" width="20" height="60" transform="rotate(0 0 0)" fill="yellow" stroke="black" stroke-width="0.5" />
<rect x="100"  y="420" width="20" height="60" transform="rotate(0 0 0)" fill="yellow" stroke="black" stroke-width="0.5" />
<rect x="120"  y="420" width="20" height="60" transform="rotate(0 0 0)" fill="yellow" stroke="black" stroke-width="0.5" />
<rect x="140"  y="420" width="20" height="60" transform="rotate(0 0 0)" fill="yellow" stroke="black" stroke-width="0.5" />
<rect x="160"  y="420" width="20" height="60" transform="rotate(0 0 0)" fill="yellow" stroke="black" stroke-width="0.5" />
<rect x="180"  y="420" width="20" height="60" transform="rotate(0 0 0)" fill="yellow" stroke="black" stroke-width="0.5" />
<rect x="200"  y="420" width="20" height="60" transform="rotate(0 0 0)" fill="yellow" stroke="black" stroke-width="0.5" />
<rect x="220"  y="420" width="20" height="60" transform="rotate(0 0 0)" fill="yellow" stroke="black" stroke-width="0.5" />
<rect x="240"  y="420" width="20" height="60" transform="rotate(0 0 0)" fill="yellow" stroke="black" stroke-width="0.5" />
<rect x="260"  y="420" width="20" height="60" transform="rotate(0 0 0)" fill="yellow" stroke="black" stroke-width="0.5" />
<rect x="280"  y="420" width="20" height="60" transform="rotate(0 0 0)" fill="yellow" stroke="black" stroke-width="0.5" />
<rect x="300"  y="420" width="20" height="60" transform="rotate(0 0 0)" fill="yellow" stroke="black" stroke-width="0.5" />
<rect x="320"  y="420" width="20" height="60" transform="rotate(0 0 0)" fill="yellow" stroke="black" stroke-width="0.5" />
<rect x="340"  y="420" width="20" height="60" transform="rotate(0 0 0)" fill="yellow" stroke="black" stroke-width="0.5" />
<rect x="360"  y="420" width="20" height="60" transform="rotate(0 0 0)" fill="yellow" stroke="black" stroke-width="0.5" />
<rect x="380"  y="420" width="20" height="60" transform="rotate(0 0 0)" fill="yellow" stroke="black" stroke-width="0.5" />
<rect x="400"  y="420" width="20" height="60" transform="rotate(0 0 0)" fill="yellow" stroke="black" stroke-width="0.5" />
<rect x="420"  y="420" width="20" height="60" transform="rotate(0 0 0)" fill="yellow" stroke="black" stroke-width="0.5" />
<rect x="440"  y="420" width="20" height="60" transform="rotate(0 0 0)" fill="yellow" stroke="black" stroke-width="0.5" />
<rect x="460"  y="420" width="20" height="60" transform="rotate(0 0 0)" fill="yellow" stroke="black" stroke-width="0.5" />
<rect x="480"  y="420" width="20" height="60" transform="rotate(0 0 0)" fill="yellow" stroke="black" stroke-width="0.5" />
<rect x="0"  y="480" width="20" height="60" transform="rotate(0 0 0)" fill="yellow" stroke="black" stroke-width="0.5" />
<rect x="20"  y="480" width="20" height="60" transform="rotate(0 0 0)" fill="yellow" stroke="black" stroke-width="0.5" />
<rect x="40"  y="480" width="20" height="60" transform="rotate(0 0 0)" fill="yellow" stroke="black" stroke-width="0.5" />
<rect x="60"  y="480" width="20" height="60" transform="rotate(0 0 0)" fill="yellow" stroke="black" stroke-width="0.5" />
<rect x="80"  y="480" width="20" height="60" transform="rotate(0 0 0)" fill="yellow" stroke="black" stroke-width="0.5" />
<rect x="100"  y="480" width="20" height="60" transform="rotate(0 0 0)" fill="yellow" stroke="black" stroke-width="0.5" />
<rect x="120"  y="480" width="20" height="60" transform="rotate(0 0 0)" fill="yellow" stroke="black" stroke-width="0.5" />
<rect x="140"  y="480" width="20" height="60" transform="rotate(0 0 0)" fill="yellow" stroke="black" stroke-width="0.5" />
<rect x="160"  y="480" width="20" height="60" transform="rotate(0 0 0)" fill="yellow" stroke="black" stroke-width="0.5" />
<rect x="180"  y="480" width="20" height="60" transform="rotate(0 0 0)" fill="yellow" stroke="black" stroke-width="0.5" />
<rect x="200"  y="480" width="20" height="60" transform="rotate(0 0 0)" fill="yellow" stroke="black" stroke-width="0.5" />
<rect x="220"  y="480" width="20" height="60" transform="rotate(0 0 0)" fill="yellow" stroke="black" stroke-width="0.5" />
<rect x="240"  y="480" width="20" height="60" transform="rotate(0 0 0)" fill="yellow" stroke="black" stroke-width="0.5" />
<rect x="260"  y="480" width="20" height="60" transform="rotate(0 0 0)" fill="yellow" stroke="black" stroke-width="0.5" />
<rect x="280"  y="480" width="20" height="60" transform="rotate(0 0 0)" fill="yellow" stroke="black" stroke-width="0.5" />
<rect x="300"  y="480" width="20" height="60" transform="rotate(0 0 0)" fill="yellow" stroke="black" stroke-width="0.5" />
<rect x="320"  y="480" width="20" height="60" transform="rotate(0 0 0)" fill="yellow" stroke="black" stroke-width="0.5" />
<rect x="340"  y="480" width="20" height="60" transform="rotate(0 0 0)" fill="yellow" stroke="black" stroke-width="0.5" />
<rect x="360"  y="480" width="20" height="60" transform="rotate(0 0 0)" fill="yellow" stroke="black" stroke-width="0.5" />
<rect x="380"  y="480" width="20" height="60" transform="rotate(0 0 0)" fill="yellow" stroke="black" stroke-width="0.5" />
<rect x="400"  y="480" width="20" height="60" transform="rotate(0 0 0)" fill="yellow" stroke="black" stroke-width="0.5" />
<rect x="420"  y="480" width="20" height="60" transform="rotate(0 0 0)" fill="yellow" stroke="black" stroke-width="0.5" />
<rect x="440"  y="480" width="20" height="60" transform="rotate(0 0 0)" fill="yellow" stroke="black" stroke-width="0.5" />
<rect x="460"  y="480" width="20" height="60" transform="rotate(0 0 0)" fill="yellow" stroke="black" stroke-width="0.5" />
<rect x="480"  y="480" width="20" height="60" transform="rotate(0 0 0)" fill="yellow" stroke="black" stroke-width="0.5" />
<rect x="0"  y="540" width="20" height="60" transform="rotate(0 0 0)" fill="yellow" stroke="black" stroke-width="0.5" />
<rect x="20"  y="540" width="20" height="60" transform="rotate(0 0 0)" fill="yellow" stroke="black" stroke-width="0.5" />
<rect x="40"  y="540" width="20" height="60" transform="rotate(0 0 0)" fill="yellow" stroke="black" stroke-width="0.5" />
<rect x="60"  y="540" width="20" height="60" transform="rotate(0 0 0)" fill="yellow" stroke="black" stroke-width="0.5" />
<rect x="80"  y="540" width="20" height="60" transform="rotate(0 0 0)" fill="yellow" stroke="black" stroke-width="0.5" />
<rect x="100"  y="540" width="20" height="60" transform="rotate(0 0 0)" fill="yellow" stroke="black" stroke-width="0.5" />
<rect x="120"  y="540" width="20" height="60" transform="rotate(0 0 0)" fill="yellow" stroke="black" stroke-width="0.5" />
<rect x="140"  y="540" width="20" height="60" transform="rotate(0 0 0)" fill="yellow" stroke="black" stroke-width="0.5" />
<rect x="160"  y="540" width="20" height="60" transform="rotate(0 0 0)" fill="yellow" stroke="black" stroke-width="0.5" />
<rect x="180"  y="540" width="20" height="60" transform="rotate(0 0 0)" fill="yellow" stroke="black" stroke-width="0.5" />
<rect x="200"  y="540" width="20" height="60" transform="rotate(0 0 0)" fill="yellow" stroke="black" stroke-width="0.5" />
<rect x="220"  y="540" width="20" height="60" transform="rotate(0 0 0)" fill="yellow" stroke="black" stroke-width="0.5" />
<rect x="240"  y="540" width="20" height="60" transform="rotate(0 0 0)" fill="yellow" stroke="black" stroke-width="0.5" />
<rect x="260"  y="540" width="20" height="60" transform="rotate(0 0 0)" fill="yellow" stroke="black" stroke-width="0.5" />
<rect x="280"  y="540" width="20" height="60" transform="rotate(0 0 0)" fill="yellow" stroke="black" stroke-width="0.5" />
<rect x="300"  y="540" width="20" height="60" transform="rotate(0 0 0)" fill="yellow" stroke="black" stroke-width="0.5" />
<rect x="320"  y="540" width="20" height="60" transform="rotate(0 0 0)" fill="yellow" stroke="black" stroke-width="0.5" />
<rect x="340"  y="540" width="20" height="60" transform="rotate(0 0 0)" fill="yellow" stroke="black" stroke-width="0.5" />
<rect x="360"  y="540" width="20" height="60" transform="rotate(0 0 0)" fill="yellow" stroke="black" stroke-width="0.5" />
<rect x="380"  y="540" width="20" height="60" transform="rotate(0 0 0)" fill="yellow" stroke="black" stroke-width="0.5" />
<rect x="400"  y="540" width="20" height="60" transform="rotate(0 0 0)" fill="yellow" stroke="black" stroke-width="0.5" />
<rect x="420"  y="540" width="20" height="60" transform="rotate(0 0 0)" fill="yellow" stroke="black" stroke-width="0.5" />
<rect x="440"  y="540" width="20" height="60" transform="rotate(0 0 0)" fill="yellow" stroke="black" stroke-width="0.5" />
<rect x="460"  y="540" width="20" height="60" transform="rotate(0 0 0)" fill="yellow" stroke="black" stroke-width="0.5" />
<rect x="480"  y="540" width="20" height="60" transform="rotate(0 0 0)" fill="yellow" stroke="black" stroke-width="0.5" />
</svg>
