<svg version="1.1" baseProfile="full" xmlns="http://www.w3.org/2000/svg">
<circle cx="500" cy="500" r="500" transform="rotate(0 0 0)" fill="pink" stroke="black" stroke-width="0.5" />
<circle cx="500" cy="40" r="40" transform="rotate(0 500 500)" fill="yellow" stroke="black" stroke-width="0.5" />
<circle cx="500" cy="40" r="40" transform="rotate(10 500 500)" fill="yellow" stroke="black" stroke-width="0.5" />
<circle cx="500" cy="40" r="40" transform="rotate(20 500 500)" fill="yellow" stroke="black" stroke-width="0.5" />
<circle cx="500" cy="40" r="40" transform="rotate(30 500 500)" fill="yellow" stroke="black" stroke-width="0.5" />
<circle cx="500" cy="40" r="40" transform="rotate(40 500 500)" fill="yellow" stroke="black" stroke-width="0.5" />
<circle cx="500" cy="40" r="40" transform="rotate(50 500 500)" fill="yellow" stroke="black" stroke-width="0.5" />
<circle cx="500" cy="40" r="40" transform="rotate(60 500 500)" fill="yellow" stroke="black" stroke-width="0.5" />
<circle cx="500" cy="40" r="40" transform="rotate(70 500 500)" fill="yellow" stroke="black" stroke-width="0.5" />
<circle cx="500" cy="40" r="40" transform="rotate(80 500 500)" fill="yellow" stroke="black" stroke-width="0.5" />
<circle cx="500" cy="40" r="40" transform="rotate(90 500 500)" fill="yellow" stroke="black" stroke-width="0.5" />
<circle cx="500" cy="40" r="40" transform="rotate(100 500 500)" fill="yellow" stroke="black" stroke-width="0.5" />
<circle cx="500" cy="40" r="40" transform="rotate(110 500 500)" fill="yellow" stroke="black" stroke-width="0.5" />
<circle cx="500" cy="40" r="40" transform="rotate(120 500 500)" fill="yellow" stroke="black" stroke-width="0.5" />
<circle cx="500" cy="40" r="40" transform="rotate(130 500 500)" fill="yellow" stroke="black" stroke-width="0.5" />
<circle cx="500" cy="40" r="40" transform="rotate(140 500 500)" fill="yellow" stroke="black" stroke-width="0.5" />
<circle cx="500" cy="40" r="40" transform="rotate(150 500 500)" fill="yellow" stroke="black" stroke-width="0.5" />
<circle cx="500" cy="40" r="40" transform="rotate(160 500 500)" fill="yellow" stroke="black" stroke-width="0.5" />
<circle cx="500" cy="40" r="40" transform="rotate(170 500 500)" fill="yellow" stroke="black" stroke-width="0.5" />
<circle cx="500" cy="40" r="40" transform="rotate(180 500 500)" fill="yellow" stroke="black" stroke-width="0.5" />
<circle cx="500" cy="40" r="40" transform="rotate(190 500 500)" fill="yellow" stroke="black" stroke-width="0.5" />
<circle cx="500" cy="40" r="40" transform="rotate(200 500 500)" fill="yellow" stroke="black" stroke-width="0.5" />
<circle cx="500" cy="40" r="40" transform="rotate(210 500 500)" fill="yellow" stroke="black" stroke-width="0.5" />
<circle cx="500" cy="40" r="40" transform="rotate(220 500 500)" fill="yellow" stroke="black" stroke-width="0.5" />
<circle cx="500" cy="40" r="40" transform="rotate(230 500 500)" fill="yellow" stroke="black" stroke-width="0.5" />
<circle cx="500" cy="40" r="40" transform="rotate(240 500 500)" fill="yellow" stroke="black" stroke-width="0.5" />
<circle cx="500" cy="40" r="40" transform="rotate(250 500 500)" fill="yellow" stroke="black" stroke-width="0.5" />
<circle cx="500" cy="40" r="40" transform="rotate(260 500 500)" fill="yellow" stroke="black" stroke-width="0.5" />
<circle cx="500" cy="40" r="40" transform="rotate(270 500 500)" fill="yellow" stroke="black" stroke-width="0.5" />
<circle cx="500" cy="40" r="40" transform="rotate(280 500 500)" fill="yellow" stroke="black" stroke-width="0.5" />
<circle cx="500" cy="40" r="40" transform="rotate(290 500 500)" fill="yellow" stroke="black" stroke-width="0.5" />
<circle cx="500" cy="40" r="40" transform="rotate(300 500 500)" fill="yellow" stroke="black" stroke-width="0.5" />
<circle cx="500" cy="40" r="40" transform="rotate(310 500 500)" fill="yellow" stroke="black" stroke-width="0.5" />
<circle cx="500" cy="40" r="40" transform="rotate(320 500 500)" fill="yellow" stroke="black" stroke-width="0.5" />
<circle cx="500" cy="40" r="40" transform="rotate(330 500 500)" fill="yellow" stroke="black" stroke-width="0.5" />
<circle cx="500" cy="40" r="40" transform="rotate(340 500 500)" fill="yellow" stroke="black" stroke-width="0.5" />
<circle cx="500" cy="40" r="40" transform="rotate(350 500 500)" fill="yellow" stroke="black" stroke-width="0.5" />
<circle cx="500" cy="120" r="40" transform="rotate(0 500 500)" fill="yellow" stroke="black" stroke-width="0.5" />
<circle cx="500" cy="120" r="40" transform="rotate(12.4138 500 500)" fill="yellow" stroke="black" stroke-width="0.5" />
<circle cx="500" cy="120" r="40" transform="rotate(24.8276 500 500)" fill="yellow" stroke="black" stroke-width="0.5" />
<circle cx="500" cy="120" r="40" transform="rotate(37.2414 500 500)" fill="yellow" stroke="black" stroke-width="0.5" />
<circle cx="500" cy="120" r="40" transform="rotate(49.6552 500 500)" fill="yellow" stroke="black" stroke-width="0.5" />
<circle cx="500" cy="120" r="40" transform="rotate(62.069 500 500)" fill="yellow" stroke="black" stroke-width="0.5" />
<circle cx="500" cy="120" r="40" transform="rotate(74.4828 500 500)" fill="yellow" stroke="black" stroke-width="0.5" />
<circle cx="500" cy="120" r="40" transform="rotate(86.8966 500 500)" fill="yellow" stroke="black" stroke-width="0.5" />
<circle cx="500" cy="120" r="40" transform="rotate(99.3103 500 500)" fill="yellow" stroke="black" stroke-width="0.5" />
<circle cx="500" cy="120" r="40" transform="rotate(111.724 500 500)" fill="yellow" stroke="black" stroke-width="0.5" />
<circle cx="500" cy="120" r="40" transform="rotate(124.138 500 500)" fill="yellow" stroke="black" stroke-width="0.5" />
<circle cx="500" cy="120" r="40" transform="rotate(136.552 500 500)" fill="yellow" stroke="black" stroke-width="0.5" />
<circle cx="500" cy="120" r="40" transform="rotate(148.966 500 500)" fill="yellow" stroke="black" stroke-width="0.5" />
<circle cx="500" cy="120" r="40" transform="rotate(161.379 500 500)" fill="yellow" stroke="black" stroke-width="0.5" />
<circle cx="500" cy="120" r="40" transform="rotate(173.793 500 500)" fill="yellow" stroke="black" stroke-width="0.5" />
<circle cx="500" cy="120" r="40" transform="rotate(186.207 500 500)" fill="yellow" stroke="black" stroke-width="0.5" />
<circle cx="500" cy="120" r="40" transform="rotate(198.621 500 500)" fill="yellow" stroke="black" stroke-width="0.5" />
<circle cx="500" cy="120" r="40" transform="rotate(211.034 500 500)" fill="yellow" stroke="black" stroke-width="0.5" />
<circle cx="500" cy="120" r="40" transform="rotate(223.448 500 500)" fill="yellow" stroke="black" stroke-width="0.5" />
<circle cx="500" cy="120" r="40" transform="rotate(235.862 500 500)" fill="yellow" stroke="black" stroke-width="0.5" />
<circle cx="500" cy="120" r="40" transform="rotate(248.276 500 500)" fill="yellow" stroke="black" stroke-width="0.5" />
<circle cx="500" cy="120" r="40" transform="rotate(260.69 500 500)" fill="yellow" stroke="black" stroke-width="0.5" />
<circle cx="500" cy="120" r="40" transform="rotate(273.103 500 500)" fill="yellow" stroke="black" stroke-width="0.5" />
<circle cx="500" cy="120" r="40" transform="rotate(285.517 500 500)" fill="yellow" stroke="black" stroke-width="0.5" />
<circle cx="500" cy="120" r="40" transform="rotate(297.931 500 500)" fill="yellow" stroke="black" stroke-width="0.5" />
<circle cx="500" cy="120" r="40" transform="rotate(310.345 500 500)" fill="yellow" stroke="black" stroke-width="0.5" />
<circle cx="500" cy="120" r="40" transform="rotate(322.759 500 500)" fill="yellow" stroke="black" stroke-width="0.5" />
<circle cx="500" cy="120" r="40" transform="rotate(335.172 500 500)" fill="yellow" stroke="black" stroke-width="0.5" />
<circle cx="500" cy="120" r="40" transform="rotate(347.586 500 500)" fill="yellow" stroke="black" stroke-width="0.5" />
<circle cx="500" cy="200" r="40" transform="rotate(0 500 500)" fill="yellow" stroke="black" stroke-width="0.5" />
<circle cx="500" cy="200" r="40" transform="rotate(15.6522 500 500)" fill="yellow" stroke="black" stroke-width="0.5" />
<circle cx="500" cy="200" r="40" transform="rotate(31.3043 500 500)" fill="yellow" stroke="black" stroke-width="0.5" />
<circle cx="500" cy="200" r="40" transform="rotate(46.9565 500 500)" fill="yellow" stroke="black" stroke-width="0.5" />
<circle cx="500" cy="200" r="40" transform="rotate(62.6087 500 500)" fill="yellow" stroke="black" stroke-width="0.5" />
<circle cx="500" cy="200" r="40" transform="rotate(78.2609 500 500)" fill="yellow" stroke="black" stroke-width="0.5" />
<circle cx="500" cy="200" r="40" transform="rotate(93.913 500 500)" fill="yellow" stroke="black" stroke-width="0.5" />
<circle cx="500" cy="200" r="40" transform="rotate(109.565 500 500)" fill="yellow" stroke="black" stroke-width="0.5" />
<circle cx="500" cy="200" r="40" transform="rotate(125.217 500 500)" fill="yellow" stroke="black" stroke-width="0.5" />
<circle cx="500" cy="200" r="40" transform="rotate(140.87 500 500)" fill="yellow" stroke="black" stroke-width="0.5" />
<circle cx="500" cy="200" r="40" transform="rotate(156.522 500 500)" fill="yellow" stroke="black" stroke-width="0.5" />
<circle cx="500" cy="200" r="40" transform="rotate(172.174 500 500)" fill="yellow" stroke="black" stroke-width="0.5" />
<circle cx="500" cy="200" r="40" transform="rotate(187.826 500 500)" fill="yellow" stroke="black" stroke-width="0.5" />
<circle cx="500" cy="200" r="40" transform="rotate(203.478 500 500)" fill="yellow" stroke="black" stroke-width="0.5" />
<circle cx="500" cy="200" r="40" transform="rotate(219.13 500 500)" fill="yellow" stroke="black" stroke-width="0.5" />
<circle cx="500" cy="200" r="40" transform="rotate(234.783 500 500)" fill="yellow" stroke="black" stroke-width="0.5" />
<circle cx="500" cy="200" r="40" transform="rotate(250.435 500 500)" fill="yellow" stroke="black" stroke-width="0.5" />
<circle cx="500" cy="200" r="40" transform="rotate(266.087 500 500)" fill="yellow" stroke="black" stroke-width="0.5" />
<circle cx="500" cy="200" r="40" transform="rotate(281.739 500 500)" fill="yellow" stroke="black" stroke-width="0.5" />
<circle cx="500" cy="200" r="40" transform="rotate(297.391 500 500)" fill="yellow" stroke="black" stroke-width="0.5" />
<circle cx="500" cy="200" r="40" transform="rotate(313.043 500 500)" fill="yellow" stroke="black" stroke-width="0.5" />
<circle cx="500" cy="200" r="40" transform="rotate(328.696 500 500)" fill="yellow" stroke="black" stroke-width="0.5" />
<circle cx="500" cy="200" r="40" transform="rotate(344.348 500 500)" fill="yellow" stroke="black" stroke-width="0.5" />
<circle cx="500" cy="280" r="40" transform="rotate(0 500 500)" fill="yellow" stroke="black" stroke-width="0.5" />
<circle cx="500" cy="280" r="40" transform="rotate(21.1765 500 500)" fill="yellow" stroke="black" stroke-width="0.5" />
<circle cx="500" cy="280" r="40" transform="rotate(42.3529 500 500)" fill="yellow" stroke="black" stroke-width="0.5" />
<circle cx="500" cy="280" r="40" transform="rotate(63.5294 500 500)" fill="yellow" stroke="black" stroke-width="0.5" />
<circle cx="500" cy="280" r="40" transform="rotate(84.7059 500 500)" fill="yellow" stroke="black" stroke-width="0.5" />
<circle cx="500" cy="280" r="40" transform="rotate(105.882 500 500)" fill="yellow" stroke="black" stroke-width="0.5" />
<circle cx="500" cy="280" r="40" transform="rotate(127.059 500 500)" fill="yellow" stroke="black" stroke-width="0.5" />
<circle cx="500" cy="280" r="40" transform="rotate(148.235 500 500)" fill="yellow" stroke="black" stroke-width="0.5" />
<circle cx="500" cy="280" r="40" transform="rotate(169.412 500 500)" fill="yellow" stroke="black" stroke-width="0.5" />
<circle cx="500" cy="280" r="40" transform="rotate(190.588 500 500)" fill="yellow" stroke="black" stroke-width="0.5" />
<circle cx="500" cy="280" r="40" transform="rotate(211.765 500 500)" fill="yellow" stroke="black" stroke-width="0.5" />
<circle cx="500" cy="280" r="40" transform="rotate(232.941 500 500)" fill="yellow" stroke="black" stroke-width="0.5" />
<circle cx="500" cy="280" r="40" transform="rotate(254.118 500 500)" fill="yellow" stroke="black" stroke-width="0.5" />
<circle cx="500" cy="280" r="40" transform="rotate(275.294 500 500)" fill="yellow" stroke="black" stroke-width="0.5" />
<circle cx="500" cy="280" r="40" transform="rotate(296.471 500 500)" fill="yellow" stroke="black" stroke-width="0.5" />
<circle cx="500" cy="280" r="40" transform="rotate(317.647 500 500)" fill="yellow" stroke="black" stroke-width="0.5" />
<circle cx="500" cy="280" r="40" transform="rotate(338.824 500 500)" fill="yellow" stroke="black" stroke-width="0.5" />
<circle cx="500" cy="360" r="40" transform="rotate(0 500 500)" fill="yellow" stroke="black" stroke-width="0.5" />
<circle cx="500" cy="360" r="40" transform="rotate(36 500 500)" fill="yellow" stroke="black" stroke-width="0.5" />
<circle cx="500" cy="360" r="40" transform="rotate(72 500 500)" fill="yellow" stroke="black" stroke-width="0.5" />
<circle cx="500" cy="360" r="40" transform="rotate(108 500 500)" fill="yellow" stroke="black" stroke-width="0.5" />
<circle cx="500" cy="360" r="40" transform="rotate(144 500 500)" fill="yellow" stroke="black" stroke-width="0.5" />
<circle cx="500" cy="360" r="40" transform="rotate(180 500 500)" fill="yellow" stroke="black" stroke-width="0.5" />
<circle cx="500" cy="360" r="40" transform="rotate(216 500 500)" fill="yellow" stroke="black" stroke-width="0.5" />
<circle cx="500" cy="360" r="40" transform="rotate(252 500 500)" fill="yellow" stroke="black" stroke-width="0.5" />
<circle cx="500" cy="360" r="40" transform="rotate(288 500 500)" fill="yellow" stroke="black" stroke-width="0.5" />
<circle cx="500" cy="360" r="40" transform="rotate(324 500 500)" fill="yellow" stroke="black" stroke-width="0.5" />
<circle cx="500" cy="440" r="40" transform="rotate(0 500 500)" fill="yellow" stroke="black" stroke-width="0.5" />
<circle cx="500" cy="440" r="40" transform="rotate(90 500 500)" fill="yellow" stroke="black" stroke-width="0.5" />
<circle cx="500" cy="440" r="40" transform="rotate(180 500 500)" fill="yellow" stroke="black" stroke-width="0.5" />
<circle cx="500" cy="440" r="40" transform="rotate(270 500 500)" fill="yellow" stroke="black" stroke-width="0.5" />
</svg>
