<svg version="1.1" baseProfile="full" xmlns="http://www.w3.org/2000/svg">
<rect x="0"  y="0" width="750.000000" height="500.000000" fill="red" stroke="black" stroke-width="0.5" />
<rect x="0.000000"  y="0.000000" width="15.000000" height="110.000000" fill="green" stroke="black" stroke-width="0.5" />
<rect x="15.000000"  y="0.000000" width="15.000000" height="110.000000" fill="green" stroke="black" stroke-width="0.5" />
<rect x="30.000000"  y="0.000000" width="15.000000" height="110.000000" fill="green" stroke="black" stroke-width="0.5" />
<rect x="45.000000"  y="0.000000" width="15.000000" height="110.000000" fill="green" stroke="black" stroke-width="0.5" />
<rect x="60.000000"  y="0.000000" width="15.000000" height="110.000000" fill="green" stroke="black" stroke-width="0.5" />
<rect x="75.000000"  y="0.000000" width="15.000000" height="110.000000" fill="green" stroke="black" stroke-width="0.5" />
<rect x="90.000000"  y="0.000000" width="15.000000" height="110.000000" fill="green" stroke="black" stroke-width="0.5" />
<rect x="105.000000"  y="0.000000" width="15.000000" height="110.000000" fill="green" stroke="black" stroke-width="0.5" />
<rect x="120.000000"  y="0.000000" width="15.000000" height="110.000000" fill="green" stroke="black" stroke-width="0.5" />
<rect x="135.000000"  y="0.000000" width="15.000000" height="110.000000" fill="green" stroke="black" stroke-width="0.5" />
<rect x="150.000000"  y="0.000000" width="15.000000" height="110.000000" fill="green" stroke="black" stroke-width="0.5" />
<rect x="165.000000"  y="0.000000" width="15.000000" height="110.000000" fill="green" stroke="black" stroke-width="0.5" />
<rect x="180.000000"  y="0.000000" width="15.000000" height="110.000000" fill="green" stroke="black" stroke-width="0.5" />
<rect x="195.000000"  y="0.000000" width="15.000000" height="110.000000" fill="green" stroke="black" stroke-width="0.5" />
<rect x="210.000000"  y="0.000000" width="15.000000" height="110.000000" fill="green" stroke="black" stroke-width="0.5" />
<rect x="225.000000"  y="0.000000" width="15.000000" height="110.000000" fill="green" stroke="black" stroke-width="0.5" />
<rect x="240.000000"  y="0.000000" width="15.000000" height="110.000000" fill="green" stroke="black" stroke-width="0.5" />
<rect x="255.000000"  y="0.000000" width="15.000000" height="110.000000" fill="green" stroke="black" stroke-width="0.5" />
<rect x="270.000000"  y="0.000000" width="15.000000" height="110.000000" fill="green" stroke="black" stroke-width="0.5" />
<rect x="285.000000"  y="0.000000" width="15.000000" height="110.000000" fill="green" stroke="black" stroke-width="0.5" />
<rect x="300.000000"  y="0.000000" width="15.000000" height="110.000000" fill="green" stroke="black" stroke-width="0.5" />
<rect x="315.000000"  y="0.000000" width="15.000000" height="110.000000" fill="green" stroke="black" stroke-width="0.5" />
<rect x="330.000000"  y="0.000000" width="15.000000" height="110.000000" fill="green" stroke="black" stroke-width="0.5" />
<rect x="345.000000"  y="0.000000" width="15.000000" height="110.000000" fill="green" stroke="black" stroke-width="0.5" />
<rect x="360.000000"  y="0.000000" width="15.000000" height="110.000000" fill="green" stroke="black" stroke-width="0.5" />
<rect x="375.000000"  y="0.000000" width="15.000000" height="110.000000" fill="green" stroke="black" stroke-width="0.5" />
<rect x="390.000000"  y="0.000000" width="15.000000" height="110.000000" fill="green" stroke="black" stroke-width="0.5" />
<rect x="405.000000"  y="0.000000" width="15.000000" height="110.000000" fill="green" stroke="black" stroke-width="0.5" />
<rect x="420.000000"  y="0.000000" width="15.000000" height="110.000000" fill="green" stroke="black" stroke-width="0.5" />
<rect x="435.000000"  y="0.000000" width="15.000000" height="110.000000" fill="green" stroke="black" stroke-width="0.5" />
<rect x="450.000000"  y="0.000000" width="15.000000" height="110.000000" fill="green" stroke="black" stroke-width="0.5" />
<rect x="465.000000"  y="0.000000" width="15.000000" height="110.000000" fill="green" stroke="black" stroke-width="0.5" />
<rect x="480.000000"  y="0.000000" width="15.000000" height="110.000000" fill="green" stroke="black" stroke-width="0.5" />
<rect x="495.000000"  y="0.000000" width="15.000000" height="110.000000" fill="green" stroke="black" stroke-width="0.5" />
<rect x="510.000000"  y="0.000000" width="15.000000" height="110.000000" fill="green" stroke="black" stroke-width="0.5" />
<rect x="525.000000"  y="0.000000" width="15.000000" height="110.000000" fill="green" stroke="black" stroke-width="0.5" />
<rect x="540.000000"  y="0.000000" width="15.000000" height="110.000000" fill="green" stroke="black" stroke-width="0.5" />
<rect x="555.000000"  y="0.000000" width="15.000000" height="110.000000" fill="green" stroke="black" stroke-width="0.5" />
<rect x="570.000000"  y="0.000000" width="15.000000" height="110.000000" fill="green" stroke="black" stroke-width="0.5" />
<rect x="585.000000"  y="0.000000" width="15.000000" height="110.000000" fill="green" stroke="black" stroke-width="0.5" />
<rect x="600.000000"  y="0.000000" width="15.000000" height="110.000000" fill="green" stroke="black" stroke-width="0.5" />
<rect x="615.000000"  y="0.000000" width="15.000000" height="110.000000" fill="green" stroke="black" stroke-width="0.5" />
<rect x="630.000000"  y="0.000000" width="15.000000" height="110.000000" fill="green" stroke="black" stroke-width="0.5" />
<rect x="645.000000"  y="0.000000" width="15.000000" height="110.000000" fill="green" stroke="black" stroke-width="0.5" />
<rect x="660.000000"  y="0.000000" width="15.000000" height="110.000000" fill="green" stroke="black" stroke-width="0.5" />
<rect x="675.000000"  y="0.000000" width="15.000000" height="110.000000" fill="green" stroke="black" stroke-width="0.5" />
<rect x="690.000000"  y="0.000000" width="15.000000" height="110.000000" fill="green" stroke="black" stroke-width="0.5" />
<rect x="705.000000"  y="0.000000" width="15.000000" height="110.000000" fill="green" stroke="black" stroke-width="0.5" />
<rect x="720.000000"  y="0.000000" width="15.000000" height="110.000000" fill="green" stroke="black" stroke-width="0.5" />
<rect x="735.000000"  y="0.000000" width="15.000000" height="110.000000" fill="green" stroke="black" stroke-width="0.5" />
<rect x="0.000000"  y="110.000000" width="15.000000" height="110.000000" fill="green" stroke="black" stroke-width="0.5" />
<rect x="15.000000"  y="110.000000" width="15.000000" height="110.000000" fill="green" stroke="black" stroke-width="0.5" />
<rect x="30.000000"  y="110.000000" width="15.000000" height="110.000000" fill="green" stroke="black" stroke-width="0.5" />
<rect x="45.000000"  y="110.000000" width="15.000000" height="110.000000" fill="green" stroke="black" stroke-width="0.5" />
<rect x="60.000000"  y="110.000000" width="15.000000" height="110.000000" fill="green" stroke="black" stroke-width="0.5" />
<rect x="75.000000"  y="110.000000" width="15.000000" height="110.000000" fill="green" stroke="black" stroke-width="0.5" />
<rect x="90.000000"  y="110.000000" width="15.000000" height="110.000000" fill="green" stroke="black" stroke-width="0.5" />
<rect x="105.000000"  y="110.000000" width="15.000000" height="110.000000" fill="green" stroke="black" stroke-width="0.5" />
<rect x="120.000000"  y="110.000000" width="15.000000" height="110.000000" fill="green" stroke="black" stroke-width="0.5" />
<rect x="135.000000"  y="110.000000" width="15.000000" height="110.000000" fill="green" stroke="black" stroke-width="0.5" />
<rect x="150.000000"  y="110.000000" width="15.000000" height="110.000000" fill="green" stroke="black" stroke-width="0.5" />
<rect x="165.000000"  y="110.000000" width="15.000000" height="110.000000" fill="green" stroke="black" stroke-width="0.5" />
<rect x="180.000000"  y="110.000000" width="15.000000" height="110.000000" fill="green" stroke="black" stroke-width="0.5" />
<rect x="195.000000"  y="110.000000" width="15.000000" height="110.000000" fill="green" stroke="black" stroke-width="0.5" />
<rect x="210.000000"  y="110.000000" width="15.000000" height="110.000000" fill="green" stroke="black" stroke-width="0.5" />
<rect x="225.000000"  y="110.000000" width="15.000000" height="110.000000" fill="green" stroke="black" stroke-width="0.5" />
<rect x="240.000000"  y="110.000000" width="15.000000" height="110.000000" fill="green" stroke="black" stroke-width="0.5" />
<rect x="255.000000"  y="110.000000" width="15.000000" height="110.000000" fill="green" stroke="black" stroke-width="0.5" />
<rect x="270.000000"  y="110.000000" width="15.000000" height="110.000000" fill="green" stroke="black" stroke-width="0.5" />
<rect x="285.000000"  y="110.000000" width="15.000000" height="110.000000" fill="green" stroke="black" stroke-width="0.5" />
<rect x="300.000000"  y="110.000000" width="15.000000" height="110.000000" fill="green" stroke="black" stroke-width="0.5" />
<rect x="315.000000"  y="110.000000" width="15.000000" height="110.000000" fill="green" stroke="black" stroke-width="0.5" />
<rect x="330.000000"  y="110.000000" width="15.000000" height="110.000000" fill="green" stroke="black" stroke-width="0.5" />
<rect x="345.000000"  y="110.000000" width="15.000000" height="110.000000" fill="green" stroke="black" stroke-width="0.5" />
<rect x="360.000000"  y="110.000000" width="15.000000" height="110.000000" fill="green" stroke="black" stroke-width="0.5" />
<rect x="375.000000"  y="110.000000" width="15.000000" height="110.000000" fill="green" stroke="black" stroke-width="0.5" />
<rect x="390.000000"  y="110.000000" width="15.000000" height="110.000000" fill="green" stroke="black" stroke-width="0.5" />
<rect x="405.000000"  y="110.000000" width="15.000000" height="110.000000" fill="green" stroke="black" stroke-width="0.5" />
<rect x="420.000000"  y="110.000000" width="15.000000" height="110.000000" fill="green" stroke="black" stroke-width="0.5" />
<rect x="435.000000"  y="110.000000" width="15.000000" height="110.000000" fill="green" stroke="black" stroke-width="0.5" />
<rect x="450.000000"  y="110.000000" width="15.000000" height="110.000000" fill="green" stroke="black" stroke-width="0.5" />
<rect x="465.000000"  y="110.000000" width="15.000000" height="110.000000" fill="green" stroke="black" stroke-width="0.5" />
<rect x="480.000000"  y="110.000000" width="15.000000" height="110.000000" fill="green" stroke="black" stroke-width="0.5" />
<rect x="495.000000"  y="110.000000" width="15.000000" height="110.000000" fill="green" stroke="black" stroke-width="0.5" />
<rect x="510.000000"  y="110.000000" width="15.000000" height="110.000000" fill="green" stroke="black" stroke-width="0.5" />
<rect x="525.000000"  y="110.000000" width="15.000000" height="110.000000" fill="green" stroke="black" stroke-width="0.5" />
<rect x="540.000000"  y="110.000000" width="15.000000" height="110.000000" fill="green" stroke="black" stroke-width="0.5" />
<rect x="555.000000"  y="110.000000" width="15.000000" height="110.000000" fill="green" stroke="black" stroke-width="0.5" />
<rect x="570.000000"  y="110.000000" width="15.000000" height="110.000000" fill="green" stroke="black" stroke-width="0.5" />
<rect x="585.000000"  y="110.000000" width="15.000000" height="110.000000" fill="green" stroke="black" stroke-width="0.5" />
<rect x="600.000000"  y="110.000000" width="15.000000" height="110.000000" fill="green" stroke="black" stroke-width="0.5" />
<rect x="615.000000"  y="110.000000" width="15.000000" height="110.000000" fill="green" stroke="black" stroke-width="0.5" />
<rect x="630.000000"  y="110.000000" width="15.000000" height="110.000000" fill="green" stroke="black" stroke-width="0.5" />
<rect x="645.000000"  y="110.000000" width="15.000000" height="110.000000" fill="green" stroke="black" stroke-width="0.5" />
<rect x="660.000000"  y="110.000000" width="15.000000" height="110.000000" fill="green" stroke="black" stroke-width="0.5" />
<rect x="675.000000"  y="110.000000" width="15.000000" height="110.000000" fill="green" stroke="black" stroke-width="0.5" />
<rect x="690.000000"  y="110.000000" width="15.000000" height="110.000000" fill="green" stroke="black" stroke-width="0.5" />
<rect x="705.000000"  y="110.000000" width="15.000000" height="110.000000" fill="green" stroke="black" stroke-width="0.5" />
<rect x="720.000000"  y="110.000000" width="15.000000" height="110.000000" fill="green" stroke="black" stroke-width="0.5" />
<rect x="735.000000"  y="110.000000" width="15.000000" height="110.000000" fill="green" stroke="black" stroke-width="0.5" />
<rect x="0.000000"  y="220.000000" width="15.000000" height="110.000000" fill="green" stroke="black" stroke-width="0.5" />
<rect x="15.000000"  y="220.000000" width="15.000000" height="110.000000" fill="green" stroke="black" stroke-width="0.5" />
<rect x="30.000000"  y="220.000000" width="15.000000" height="110.000000" fill="green" stroke="black" stroke-width="0.5" />
<rect x="45.000000"  y="220.000000" width="15.000000" height="110.000000" fill="green" stroke="black" stroke-width="0.5" />
<rect x="60.000000"  y="220.000000" width="15.000000" height="110.000000" fill="green" stroke="black" stroke-width="0.5" />
<rect x="75.000000"  y="220.000000" width="15.000000" height="110.000000" fill="green" stroke="black" stroke-width="0.5" />
<rect x="90.000000"  y="220.000000" width="15.000000" height="110.000000" fill="green" stroke="black" stroke-width="0.5" />
<rect x="105.000000"  y="220.000000" width="15.000000" height="110.000000" fill="green" stroke="black" stroke-width="0.5" />
<rect x="120.000000"  y="220.000000" width="15.000000" height="110.000000" fill="green" stroke="black" stroke-width="0.5" />
<rect x="135.000000"  y="220.000000" width="15.000000" height="110.000000" fill="green" stroke="black" stroke-width="0.5" />
<rect x="150.000000"  y="220.000000" width="15.000000" height="110.000000" fill="green" stroke="black" stroke-width="0.5" />
<rect x="165.000000"  y="220.000000" width="15.000000" height="110.000000" fill="green" stroke="black" stroke-width="0.5" />
<rect x="180.000000"  y="220.000000" width="15.000000" height="110.000000" fill="green" stroke="black" stroke-width="0.5" />
<rect x="195.000000"  y="220.000000" width="15.000000" height="110.000000" fill="green" stroke="black" stroke-width="0.5" />
<rect x="210.000000"  y="220.000000" width="15.000000" height="110.000000" fill="green" stroke="black" stroke-width="0.5" />
<rect x="225.000000"  y="220.000000" width="15.000000" height="110.000000" fill="green" stroke="black" stroke-width="0.5" />
<rect x="240.000000"  y="220.000000" width="15.000000" height="110.000000" fill="green" stroke="black" stroke-width="0.5" />
<rect x="255.000000"  y="220.000000" width="15.000000" height="110.000000" fill="green" stroke="black" stroke-width="0.5" />
<rect x="270.000000"  y="220.000000" width="15.000000" height="110.000000" fill="green" stroke="black" stroke-width="0.5" />
<rect x="285.000000"  y="220.000000" width="15.000000" height="110.000000" fill="green" stroke="black" stroke-width="0.5" />
<rect x="300.000000"  y="220.000000" width="15.000000" height="110.000000" fill="green" stroke="black" stroke-width="0.5" />
<rect x="315.000000"  y="220.000000" width="15.000000" height="110.000000" fill="green" stroke="black" stroke-width="0.5" />
<rect x="330.000000"  y="220.000000" width="15.000000" height="110.000000" fill="green" stroke="black" stroke-width="0.5" />
<rect x="345.000000"  y="220.000000" width="15.000000" height="110.000000" fill="green" stroke="black" stroke-width="0.5" />
<rect x="360.000000"  y="220.000000" width="15.000000" height="110.000000" fill="green" stroke="black" stroke-width="0.5" />
<rect x="375.000000"  y="220.000000" width="15.000000" height="110.000000" fill="green" stroke="black" stroke-width="0.5" />
<rect x="390.000000"  y="220.000000" width="15.000000" height="110.000000" fill="green" stroke="black" stroke-width="0.5" />
<rect x="405.000000"  y="220.000000" width="15.000000" height="110.000000" fill="green" stroke="black" stroke-width="0.5" />
<rect x="420.000000"  y="220.000000" width="15.000000" height="110.000000" fill="green" stroke="black" stroke-width="0.5" />
<rect x="435.000000"  y="220.000000" width="15.000000" height="110.000000" fill="green" stroke="black" stroke-width="0.5" />
<rect x="450.000000"  y="220.000000" width="15.000000" height="110.000000" fill="green" stroke="black" stroke-width="0.5" />
<rect x="465.000000"  y="220.000000" width="15.000000" height="110.000000" fill="green" stroke="black" stroke-width="0.5" />
<rect x="480.000000"  y="220.000000" width="15.000000" height="110.000000" fill="green" stroke="black" stroke-width="0.5" />
<rect x="495.000000"  y="220.000000" width="15.000000" height="110.000000" fill="green" stroke="black" stroke-width="0.5" />
<rect x="510.000000"  y="220.000000" width="15.000000" height="110.000000" fill="green" stroke="black" stroke-width="0.5" />
<rect x="525.000000"  y="220.000000" width="15.000000" height="110.000000" fill="green" stroke="black" stroke-width="0.5" />
<rect x="540.000000"  y="220.000000" width="15.000000" height="110.000000" fill="green" stroke="black" stroke-width="0.5" />
<rect x="555.000000"  y="220.000000" width="15.000000" height="110.000000" fill="green" stroke="black" stroke-width="0.5" />
<rect x="570.000000"  y="220.000000" width="15.000000" height="110.000000" fill="green" stroke="black" stroke-width="0.5" />
<rect x="585.000000"  y="220.000000" width="15.000000" height="110.000000" fill="green" stroke="black" stroke-width="0.5" />
<rect x="600.000000"  y="220.000000" width="15.000000" height="110.000000" fill="green" stroke="black" stroke-width="0.5" />
<rect x="615.000000"  y="220.000000" width="15.000000" height="110.000000" fill="green" stroke="black" stroke-width="0.5" />
<rect x="630.000000"  y="220.000000" width="15.000000" height="110.000000" fill="green" stroke="black" stroke-width="0.5" />
<rect x="645.000000"  y="220.000000" width="15.000000" height="110.000000" fill="green" stroke="black" stroke-width="0.5" />
<rect x="660.000000"  y="220.000000" width="15.000000" height="110.000000" fill="green" stroke="black" stroke-width="0.5" />
<rect x="675.000000"  y="220.000000" width="15.000000" height="110.000000" fill="green" stroke="black" stroke-width="0.5" />
<rect x="690.000000"  y="220.000000" width="15.000000" height="110.000000" fill="green" stroke="black" stroke-width="0.5" />
<rect x="705.000000"  y="220.000000" width="15.000000" height="110.000000" fill="green" stroke="black" stroke-width="0.5" />
<rect x="720.000000"  y="220.000000" width="15.000000" height="110.000000" fill="green" stroke="black" stroke-width="0.5" />
<rect x="735.000000"  y="220.000000" width="15.000000" height="110.000000" fill="green" stroke="black" stroke-width="0.5" />
<rect x="0.000000"  y="330.000000" width="15.000000" height="110.000000" fill="green" stroke="black" stroke-width="0.5" />
<rect x="15.000000"  y="330.000000" width="15.000000" height="110.000000" fill="green" stroke="black" stroke-width="0.5" />
<rect x="30.000000"  y="330.000000" width="15.000000" height="110.000000" fill="green" stroke="black" stroke-width="0.5" />
<rect x="45.000000"  y="330.000000" width="15.000000" height="110.000000" fill="green" stroke="black" stroke-width="0.5" />
<rect x="60.000000"  y="330.000000" width="15.000000" height="110.000000" fill="green" stroke="black" stroke-width="0.5" />
<rect x="75.000000"  y="330.000000" width="15.000000" height="110.000000" fill="green" stroke="black" stroke-width="0.5" />
<rect x="90.000000"  y="330.000000" width="15.000000" height="110.000000" fill="green" stroke="black" stroke-width="0.5" />
<rect x="105.000000"  y="330.000000" width="15.000000" height="110.000000" fill="green" stroke="black" stroke-width="0.5" />
<rect x="120.000000"  y="330.000000" width="15.000000" height="110.000000" fill="green" stroke="black" stroke-width="0.5" />
<rect x="135.000000"  y="330.000000" width="15.000000" height="110.000000" fill="green" stroke="black" stroke-width="0.5" />
<rect x="150.000000"  y="330.000000" width="15.000000" height="110.000000" fill="green" stroke="black" stroke-width="0.5" />
<rect x="165.000000"  y="330.000000" width="15.000000" height="110.000000" fill="green" stroke="black" stroke-width="0.5" />
<rect x="180.000000"  y="330.000000" width="15.000000" height="110.000000" fill="green" stroke="black" stroke-width="0.5" />
<rect x="195.000000"  y="330.000000" width="15.000000" height="110.000000" fill="green" stroke="black" stroke-width="0.5" />
<rect x="210.000000"  y="330.000000" width="15.000000" height="110.000000" fill="green" stroke="black" stroke-width="0.5" />
<rect x="225.000000"  y="330.000000" width="15.000000" height="110.000000" fill="green" stroke="black" stroke-width="0.5" />
<rect x="240.000000"  y="330.000000" width="15.000000" height="110.000000" fill="green" stroke="black" stroke-width="0.5" />
<rect x="255.000000"  y="330.000000" width="15.000000" height="110.000000" fill="green" stroke="black" stroke-width="0.5" />
<rect x="270.000000"  y="330.000000" width="15.000000" height="110.000000" fill="green" stroke="black" stroke-width="0.5" />
<rect x="285.000000"  y="330.000000" width="15.000000" height="110.000000" fill="green" stroke="black" stroke-width="0.5" />
<rect x="300.000000"  y="330.000000" width="15.000000" height="110.000000" fill="green" stroke="black" stroke-width="0.5" />
<rect x="315.000000"  y="330.000000" width="15.000000" height="110.000000" fill="green" stroke="black" stroke-width="0.5" />
<rect x="330.000000"  y="330.000000" width="15.000000" height="110.000000" fill="green" stroke="black" stroke-width="0.5" />
<rect x="345.000000"  y="330.000000" width="15.000000" height="110.000000" fill="green" stroke="black" stroke-width="0.5" />
<rect x="360.000000"  y="330.000000" width="15.000000" height="110.000000" fill="green" stroke="black" stroke-width="0.5" />
<rect x="375.000000"  y="330.000000" width="15.000000" height="110.000000" fill="green" stroke="black" stroke-width="0.5" />
<rect x="390.000000"  y="330.000000" width="15.000000" height="110.000000" fill="green" stroke="black" stroke-width="0.5" />
<rect x="405.000000"  y="330.000000" width="15.000000" height="110.000000" fill="green" stroke="black" stroke-width="0.5" />
<rect x="420.000000"  y="330.000000" width="15.000000" height="110.000000" fill="green" stroke="black" stroke-width="0.5" />
<rect x="435.000000"  y="330.000000" width="15.000000" height="110.000000" fill="green" stroke="black" stroke-width="0.5" />
<rect x="450.000000"  y="330.000000" width="15.000000" height="110.000000" fill="green" stroke="black" stroke-width="0.5" />
<rect x="465.000000"  y="330.000000" width="15.000000" height="110.000000" fill="green" stroke="black" stroke-width="0.5" />
<rect x="480.000000"  y="330.000000" width="15.000000" height="110.000000" fill="green" stroke="black" stroke-width="0.5" />
<rect x="495.000000"  y="330.000000" width="15.000000" height="110.000000" fill="green" stroke="black" stroke-width="0.5" />
<rect x="510.000000"  y="330.000000" width="15.000000" height="110.000000" fill="green" stroke="black" stroke-width="0.5" />
<rect x="525.000000"  y="330.000000" width="15.000000" height="110.000000" fill="green" stroke="black" stroke-width="0.5" />
<rect x="540.000000"  y="330.000000" width="15.000000" height="110.000000" fill="green" stroke="black" stroke-width="0.5" />
<rect x="555.000000"  y="330.000000" width="15.000000" height="110.000000" fill="green" stroke="black" stroke-width="0.5" />
<rect x="570.000000"  y="330.000000" width="15.000000" height="110.000000" fill="green" stroke="black" stroke-width="0.5" />
<rect x="585.000000"  y="330.000000" width="15.000000" height="110.000000" fill="green" stroke="black" stroke-width="0.5" />
<rect x="600.000000"  y="330.000000" width="15.000000" height="110.000000" fill="green" stroke="black" stroke-width="0.5" />
<rect x="615.000000"  y="330.000000" width="15.000000" height="110.000000" fill="green" stroke="black" stroke-width="0.5" />
<rect x="630.000000"  y="330.000000" width="15.000000" height="110.000000" fill="green" stroke="black" stroke-width="0.5" />
<rect x="645.000000"  y="330.000000" width="15.000000" height="110.000000" fill="green" stroke="black" stroke-width="0.5" />
<rect x="660.000000"  y="330.000000" width="15.000000" height="110.000000" fill="green" stroke="black" stroke-width="0.5" />
<rect x="675.000000"  y="330.000000" width="15.000000" height="110.000000" fill="green" stroke="black" stroke-width="0.5" />
<rect x="690.000000"  y="330.000000" width="15.000000" height="110.000000" fill="green" stroke="black" stroke-width="0.5" />
<rect x="705.000000"  y="330.000000" width="15.000000" height="110.000000" fill="green" stroke="black" stroke-width="0.5" />
<rect x="720.000000"  y="330.000000" width="15.000000" height="110.000000" fill="green" stroke="black" stroke-width="0.5" />
<rect x="735.000000"  y="330.000000" width="15.000000" height="110.000000" fill="green" stroke="black" stroke-width="0.5" />
<rect x="0.000000"  y="440.000000" width="110.000000" height="15.000000" fill="green" stroke="black" stroke-width="0.5" />
<rect x="110.000000"  y="440.000000" width="110.000000" height="15.000000" fill="green" stroke="black" stroke-width="0.5" />
<rect x="220.000000"  y="440.000000" width="110.000000" height="15.000000" fill="green" stroke="black" stroke-width="0.5" />
<rect x="330.000000"  y="440.000000" width="110.000000" height="15.000000" fill="green" stroke="black" stroke-width="0.5" />
<rect x="440.000000"  y="440.000000" width="110.000000" height="15.000000" fill="green" stroke="black" stroke-width="0.5" />
<rect x="550.000000"  y="440.000000" width="110.000000" height="15.000000" fill="green" stroke="black" stroke-width="0.5" />
<rect x="0.000000"  y="455.000000" width="110.000000" height="15.000000" fill="green" stroke="black" stroke-width="0.5" />
<rect x="110.000000"  y="455.000000" width="110.000000" height="15.000000" fill="green" stroke="black" stroke-width="0.5" />
<rect x="220.000000"  y="455.000000" width="110.000000" height="15.000000" fill="green" stroke="black" stroke-width="0.5" />
<rect x="330.000000"  y="455.000000" width="110.000000" height="15.000000" fill="green" stroke="black" stroke-width="0.5" />
<rect x="440.000000"  y="455.000000" width="110.000000" height="15.000000" fill="green" stroke="black" stroke-width="0.5" />
<rect x="550.000000"  y="455.000000" width="110.000000" height="15.000000" fill="green" stroke="black" stroke-width="0.5" />
<rect x="0.000000"  y="470.000000" width="110.000000" height="15.000000" fill="green" stroke="black" stroke-width="0.5" />
<rect x="110.000000"  y="470.000000" width="110.000000" height="15.000000" fill="green" stroke="black" stroke-width="0.5" />
<rect x="220.000000"  y="470.000000" width="110.000000" height="15.000000" fill="green" stroke="black" stroke-width="0.5" />
<rect x="330.000000"  y="470.000000" width="110.000000" height="15.000000" fill="green" stroke="black" stroke-width="0.5" />
<rect x="440.000000"  y="470.000000" width="110.000000" height="15.000000" fill="green" stroke="black" stroke-width="0.5" />
<rect x="550.000000"  y="470.000000" width="110.000000" height="15.000000" fill="green" stroke="black" stroke-width="0.5" />
</svg>