<svg version="1.1" baseProfile="full" xmlns="http://www.w3.org/2000/svg">
<rect x="0"  y="0" width="500.000000" height="600.000000" fill="red" stroke="black" stroke-width="0.5" />
<circle cx="50.000000" cy="50.000000" r="50.000000" fill="green" stroke="black" stroke-width="0.5" />
<circle cx="150.000000" cy="50.000000" r="50.000000" fill="green" stroke="black" stroke-width="0.5" />
<circle cx="250.000000" cy="50.000000" r="50.000000" fill="green" stroke="black" stroke-width="0.5" />
<circle cx="350.000000" cy="50.000000" r="50.000000" fill="green" stroke="black" stroke-width="0.5" />
<circle cx="450.000000" cy="50.000000" r="50.000000" fill="green" stroke="black" stroke-width="0.5" />
<circle cx="50.000000" cy="150.000000" r="50.000000" fill="green" stroke="black" stroke-width="0.5" />
<circle cx="150.000000" cy="150.000000" r="50.000000" fill="green" stroke="black" stroke-width="0.5" />
<circle cx="250.000000" cy="150.000000" r="50.000000" fill="green" stroke="black" stroke-width="0.5" />
<circle cx="350.000000" cy="150.000000" r="50.000000" fill="green" stroke="black" stroke-width="0.5" />
<circle cx="450.000000" cy="150.000000" r="50.000000" fill="green" stroke="black" stroke-width="0.5" />
<circle cx="50.000000" cy="250.000000" r="50.000000" fill="green" stroke="black" stroke-width="0.5" />
<circle cx="150.000000" cy="250.000000" r="50.000000" fill="green" stroke="black" stroke-width="0.5" />
<circle cx="250.000000" cy="250.000000" r="50.000000" fill="green" stroke="black" stroke-width="0.5" />
<circle cx="350.000000" cy="250.000000" r="50.000000" fill="green" stroke="black" stroke-width="0.5" />
<circle cx="450.000000" cy="250.000000" r="50.000000" fill="green" stroke="black" stroke-width="0.5" />
<circle cx="50.000000" cy="350.000000" r="50.000000" fill="green" stroke="black" stroke-width="0.5" />
<circle cx="150.000000" cy="350.000000" r="50.000000" fill="green" stroke="black" stroke-width="0.5" />
<circle cx="250.000000" cy="350.000000" r="50.000000" fill="green" stroke="black" stroke-width="0.5" />
<circle cx="350.000000" cy="350.000000" r="50.000000" fill="green" stroke="black" stroke-width="0.5" />
<circle cx="450.000000" cy="350.000000" r="50.000000" fill="green" stroke="black" stroke-width="0.5" />
<circle cx="50.000000" cy="450.000000" r="50.000000" fill="green" stroke="black" stroke-width="0.5" />
<circle cx="150.000000" cy="450.000000" r="50.000000" fill="green" stroke="black" stroke-width="0.5" />
<circle cx="250.000000" cy="450.000000" r="50.000000" fill="green" stroke="black" stroke-width="0.5" />
<circle cx="350.000000" cy="450.000000" r="50.000000" fill="green" stroke="black" stroke-width="0.5" />
<circle cx="450.000000" cy="450.000000" r="50.000000" fill="green" stroke="black" stroke-width="0.5" />
<circle cx="50.000000" cy="550.000000" r="50.000000" fill="green" stroke="black" stroke-width="0.5" />
<circle cx="150.000000" cy="550.000000" r="50.000000" fill="green" stroke="black" stroke-width="0.5" />
<circle cx="250.000000" cy="550.000000" r="50.000000" fill="green" stroke="black" stroke-width="0.5" />
<circle cx="350.000000" cy="550.000000" r="50.000000" fill="green" stroke="black" stroke-width="0.5" />
<circle cx="450.000000" cy="550.000000" r="50.000000" fill="green" stroke="black" stroke-width="0.5" />
</svg>