<svg version="1.1" baseProfile="full" xmlns="http://www.w3.org/2000/svg">
<rect x="0"  y="0" width="500.000000" height="750.000000" fill="red" stroke="black" stroke-width="0.5" />
<rect x="0.000000"  y="0.000000" width="110.000000" height="15.000000" fill="green" stroke="black" stroke-width="0.5" />
<rect x="110.000000"  y="0.000000" width="110.000000" height="15.000000" fill="green" stroke="black" stroke-width="0.5" />
<rect x="220.000000"  y="0.000000" width="110.000000" height="15.000000" fill="green" stroke="black" stroke-width="0.5" />
<rect x="330.000000"  y="0.000000" width="110.000000" height="15.000000" fill="green" stroke="black" stroke-width="0.5" />
<rect x="0.000000"  y="15.000000" width="110.000000" height="15.000000" fill="green" stroke="black" stroke-width="0.5" />
<rect x="110.000000"  y="15.000000" width="110.000000" height="15.000000" fill="green" stroke="black" stroke-width="0.5" />
<rect x="220.000000"  y="15.000000" width="110.000000" height="15.000000" fill="green" stroke="black" stroke-width="0.5" />
<rect x="330.000000"  y="15.000000" width="110.000000" height="15.000000" fill="green" stroke="black" stroke-width="0.5" />
<rect x="0.000000"  y="30.000000" width="110.000000" height="15.000000" fill="green" stroke="black" stroke-width="0.5" />
<rect x="110.000000"  y="30.000000" width="110.000000" height="15.000000" fill="green" stroke="black" stroke-width="0.5" />
<rect x="220.000000"  y="30.000000" width="110.000000" height="15.000000" fill="green" stroke="black" stroke-width="0.5" />
<rect x="330.000000"  y="30.000000" width="110.000000" height="15.000000" fill="green" stroke="black" stroke-width="0.5" />
<rect x="0.000000"  y="45.000000" width="110.000000" height="15.000000" fill="green" stroke="black" stroke-width="0.5" />
<rect x="110.000000"  y="45.000000" width="110.000000" height="15.000000" fill="green" stroke="black" stroke-width="0.5" />
<rect x="220.000000"  y="45.000000" width="110.000000" height="15.000000" fill="green" stroke="black" stroke-width="0.5" />
<rect x="330.000000"  y="45.000000" width="110.000000" height="15.000000" fill="green" stroke="black" stroke-width="0.5" />
<rect x="0.000000"  y="60.000000" width="110.000000" height="15.000000" fill="green" stroke="black" stroke-width="0.5" />
<rect x="110.000000"  y="60.000000" width="110.000000" height="15.000000" fill="green" stroke="black" stroke-width="0.5" />
<rect x="220.000000"  y="60.000000" width="110.000000" height="15.000000" fill="green" stroke="black" stroke-width="0.5" />
<rect x="330.000000"  y="60.000000" width="110.000000" height="15.000000" fill="green" stroke="black" stroke-width="0.5" />
<rect x="0.000000"  y="75.000000" width="110.000000" height="15.000000" fill="green" stroke="black" stroke-width="0.5" />
<rect x="110.000000"  y="75.000000" width="110.000000" height="15.000000" fill="green" stroke="black" stroke-width="0.5" />
<rect x="220.000000"  y="75.000000" width="110.000000" height="15.000000" fill="green" stroke="black" stroke-width="0.5" />
<rect x="330.000000"  y="75.000000" width="110.000000" height="15.000000" fill="green" stroke="black" stroke-width="0.5" />
<rect x="0.000000"  y="90.000000" width="110.000000" height="15.000000" fill="green" stroke="black" stroke-width="0.5" />
<rect x="110.000000"  y="90.000000" width="110.000000" height="15.000000" fill="green" stroke="black" stroke-width="0.5" />
<rect x="220.000000"  y="90.000000" width="110.000000" height="15.000000" fill="green" stroke="black" stroke-width="0.5" />
<rect x="330.000000"  y="90.000000" width="110.000000" height="15.000000" fill="green" stroke="black" stroke-width="0.5" />
<rect x="0.000000"  y="105.000000" width="110.000000" height="15.000000" fill="green" stroke="black" stroke-width="0.5" />
<rect x="110.000000"  y="105.000000" width="110.000000" height="15.000000" fill="green" stroke="black" stroke-width="0.5" />
<rect x="220.000000"  y="105.000000" width="110.000000" height="15.000000" fill="green" stroke="black" stroke-width="0.5" />
<rect x="330.000000"  y="105.000000" width="110.000000" height="15.000000" fill="green" stroke="black" stroke-width="0.5" />
<rect x="0.000000"  y="120.000000" width="110.000000" height="15.000000" fill="green" stroke="black" stroke-width="0.5" />
<rect x="110.000000"  y="120.000000" width="110.000000" height="15.000000" fill="green" stroke="black" stroke-width="0.5" />
<rect x="220.000000"  y="120.000000" width="110.000000" height="15.000000" fill="green" stroke="black" stroke-width="0.5" />
<rect x="330.000000"  y="120.000000" width="110.000000" height="15.000000" fill="green" stroke="black" stroke-width="0.5" />
<rect x="0.000000"  y="135.000000" width="110.000000" height="15.000000" fill="green" stroke="black" stroke-width="0.5" />
<rect x="110.000000"  y="135.000000" width="110.000000" height="15.000000" fill="green" stroke="black" stroke-width="0.5" />
<rect x="220.000000"  y="135.000000" width="110.000000" height="15.000000" fill="green" stroke="black" stroke-width="0.5" />
<rect x="330.000000"  y="135.000000" width="110.000000" height="15.000000" fill="green" stroke="black" stroke-width="0.5" />
<rect x="0.000000"  y="150.000000" width="110.000000" height="15.000000" fill="green" stroke="black" stroke-width="0.5" />
<rect x="110.000000"  y="150.000000" width="110.000000" height="15.000000" fill="green" stroke="black" stroke-width="0.5" />
<rect x="220.000000"  y="150.000000" width="110.000000" height="15.000000" fill="green" stroke="black" stroke-width="0.5" />
<rect x="330.000000"  y="150.000000" width="110.000000" height="15.000000" fill="green" stroke="black" stroke-width="0.5" />
<rect x="0.000000"  y="165.000000" width="110.000000" height="15.000000" fill="green" stroke="black" stroke-width="0.5" />
<rect x="110.000000"  y="165.000000" width="110.000000" height="15.000000" fill="green" stroke="black" stroke-width="0.5" />
<rect x="220.000000"  y="165.000000" width="110.000000" height="15.000000" fill="green" stroke="black" stroke-width="0.5" />
<rect x="330.000000"  y="165.000000" width="110.000000" height="15.000000" fill="green" stroke="black" stroke-width="0.5" />
<rect x="0.000000"  y="180.000000" width="110.000000" height="15.000000" fill="green" stroke="black" stroke-width="0.5" />
<rect x="110.000000"  y="180.000000" width="110.000000" height="15.000000" fill="green" stroke="black" stroke-width="0.5" />
<rect x="220.000000"  y="180.000000" width="110.000000" height="15.000000" fill="green" stroke="black" stroke-width="0.5" />
<rect x="330.000000"  y="180.000000" width="110.000000" height="15.000000" fill="green" stroke="black" stroke-width="0.5" />
<rect x="0.000000"  y="195.000000" width="110.000000" height="15.000000" fill="green" stroke="black" stroke-width="0.5" />
<rect x="110.000000"  y="195.000000" width="110.000000" height="15.000000" fill="green" stroke="black" stroke-width="0.5" />
<rect x="220.000000"  y="195.000000" width="110.000000" height="15.000000" fill="green" stroke="black" stroke-width="0.5" />
<rect x="330.000000"  y="195.000000" width="110.000000" height="15.000000" fill="green" stroke="black" stroke-width="0.5" />
<rect x="0.000000"  y="210.000000" width="110.000000" height="15.000000" fill="green" stroke="black" stroke-width="0.5" />
<rect x="110.000000"  y="210.000000" width="110.000000" height="15.000000" fill="green" stroke="black" stroke-width="0.5" />
<rect x="220.000000"  y="210.000000" width="110.000000" height="15.000000" fill="green" stroke="black" stroke-width="0.5" />
<rect x="330.000000"  y="210.000000" width="110.000000" height="15.000000" fill="green" stroke="black" stroke-width="0.5" />
<rect x="0.000000"  y="225.000000" width="110.000000" height="15.000000" fill="green" stroke="black" stroke-width="0.5" />
<rect x="110.000000"  y="225.000000" width="110.000000" height="15.000000" fill="green" stroke="black" stroke-width="0.5" />
<rect x="220.000000"  y="225.000000" width="110.000000" height="15.000000" fill="green" stroke="black" stroke-width="0.5" />
<rect x="330.000000"  y="225.000000" width="110.000000" height="15.000000" fill="green" stroke="black" stroke-width="0.5" />
<rect x="0.000000"  y="240.000000" width="110.000000" height="15.000000" fill="green" stroke="black" stroke-width="0.5" />
<rect x="110.000000"  y="240.000000" width="110.000000" height="15.000000" fill="green" stroke="black" stroke-width="0.5" />
<rect x="220.000000"  y="240.000000" width="110.000000" height="15.000000" fill="green" stroke="black" stroke-width="0.5" />
<rect x="330.000000"  y="240.000000" width="110.000000" height="15.000000" fill="green" stroke="black" stroke-width="0.5" />
<rect x="0.000000"  y="255.000000" width="110.000000" height="15.000000" fill="green" stroke="black" stroke-width="0.5" />
<rect x="110.000000"  y="255.000000" width="110.000000" height="15.000000" fill="green" stroke="black" stroke-width="0.5" />
<rect x="220.000000"  y="255.000000" width="110.000000" height="15.000000" fill="green" stroke="black" stroke-width="0.5" />
<rect x="330.000000"  y="255.000000" width="110.000000" height="15.000000" fill="green" stroke="black" stroke-width="0.5" />
<rect x="0.000000"  y="270.000000" width="110.000000" height="15.000000" fill="green" stroke="black" stroke-width="0.5" />
<rect x="110.000000"  y="270.000000" width="110.000000" height="15.000000" fill="green" stroke="black" stroke-width="0.5" />
<rect x="220.000000"  y="270.000000" width="110.000000" height="15.000000" fill="green" stroke="black" stroke-width="0.5" />
<rect x="330.000000"  y="270.000000" width="110.000000" height="15.000000" fill="green" stroke="black" stroke-width="0.5" />
<rect x="0.000000"  y="285.000000" width="110.000000" height="15.000000" fill="green" stroke="black" stroke-width="0.5" />
<rect x="110.000000"  y="285.000000" width="110.000000" height="15.000000" fill="green" stroke="black" stroke-width="0.5" />
<rect x="220.000000"  y="285.000000" width="110.000000" height="15.000000" fill="green" stroke="black" stroke-width="0.5" />
<rect x="330.000000"  y="285.000000" width="110.000000" height="15.000000" fill="green" stroke="black" stroke-width="0.5" />
<rect x="0.000000"  y="300.000000" width="110.000000" height="15.000000" fill="green" stroke="black" stroke-width="0.5" />
<rect x="110.000000"  y="300.000000" width="110.000000" height="15.000000" fill="green" stroke="black" stroke-width="0.5" />
<rect x="220.000000"  y="300.000000" width="110.000000" height="15.000000" fill="green" stroke="black" stroke-width="0.5" />
<rect x="330.000000"  y="300.000000" width="110.000000" height="15.000000" fill="green" stroke="black" stroke-width="0.5" />
<rect x="0.000000"  y="315.000000" width="110.000000" height="15.000000" fill="green" stroke="black" stroke-width="0.5" />
<rect x="110.000000"  y="315.000000" width="110.000000" height="15.000000" fill="green" stroke="black" stroke-width="0.5" />
<rect x="220.000000"  y="315.000000" width="110.000000" height="15.000000" fill="green" stroke="black" stroke-width="0.5" />
<rect x="330.000000"  y="315.000000" width="110.000000" height="15.000000" fill="green" stroke="black" stroke-width="0.5" />
<rect x="0.000000"  y="330.000000" width="110.000000" height="15.000000" fill="green" stroke="black" stroke-width="0.5" />
<rect x="110.000000"  y="330.000000" width="110.000000" height="15.000000" fill="green" stroke="black" stroke-width="0.5" />
<rect x="220.000000"  y="330.000000" width="110.000000" height="15.000000" fill="green" stroke="black" stroke-width="0.5" />
<rect x="330.000000"  y="330.000000" width="110.000000" height="15.000000" fill="green" stroke="black" stroke-width="0.5" />
<rect x="0.000000"  y="345.000000" width="110.000000" height="15.000000" fill="green" stroke="black" stroke-width="0.5" />
<rect x="110.000000"  y="345.000000" width="110.000000" height="15.000000" fill="green" stroke="black" stroke-width="0.5" />
<rect x="220.000000"  y="345.000000" width="110.000000" height="15.000000" fill="green" stroke="black" stroke-width="0.5" />
<rect x="330.000000"  y="345.000000" width="110.000000" height="15.000000" fill="green" stroke="black" stroke-width="0.5" />
<rect x="0.000000"  y="360.000000" width="110.000000" height="15.000000" fill="green" stroke="black" stroke-width="0.5" />
<rect x="110.000000"  y="360.000000" width="110.000000" height="15.000000" fill="green" stroke="black" stroke-width="0.5" />
<rect x="220.000000"  y="360.000000" width="110.000000" height="15.000000" fill="green" stroke="black" stroke-width="0.5" />
<rect x="330.000000"  y="360.000000" width="110.000000" height="15.000000" fill="green" stroke="black" stroke-width="0.5" />
<rect x="0.000000"  y="375.000000" width="110.000000" height="15.000000" fill="green" stroke="black" stroke-width="0.5" />
<rect x="110.000000"  y="375.000000" width="110.000000" height="15.000000" fill="green" stroke="black" stroke-width="0.5" />
<rect x="220.000000"  y="375.000000" width="110.000000" height="15.000000" fill="green" stroke="black" stroke-width="0.5" />
<rect x="330.000000"  y="375.000000" width="110.000000" height="15.000000" fill="green" stroke="black" stroke-width="0.5" />
<rect x="0.000000"  y="390.000000" width="110.000000" height="15.000000" fill="green" stroke="black" stroke-width="0.5" />
<rect x="110.000000"  y="390.000000" width="110.000000" height="15.000000" fill="green" stroke="black" stroke-width="0.5" />
<rect x="220.000000"  y="390.000000" width="110.000000" height="15.000000" fill="green" stroke="black" stroke-width="0.5" />
<rect x="330.000000"  y="390.000000" width="110.000000" height="15.000000" fill="green" stroke="black" stroke-width="0.5" />
<rect x="0.000000"  y="405.000000" width="110.000000" height="15.000000" fill="green" stroke="black" stroke-width="0.5" />
<rect x="110.000000"  y="405.000000" width="110.000000" height="15.000000" fill="green" stroke="black" stroke-width="0.5" />
<rect x="220.000000"  y="405.000000" width="110.000000" height="15.000000" fill="green" stroke="black" stroke-width="0.5" />
<rect x="330.000000"  y="405.000000" width="110.000000" height="15.000000" fill="green" stroke="black" stroke-width="0.5" />
<rect x="0.000000"  y="420.000000" width="110.000000" height="15.000000" fill="green" stroke="black" stroke-width="0.5" />
<rect x="110.000000"  y="420.000000" width="110.000000" height="15.000000" fill="green" stroke="black" stroke-width="0.5" />
<rect x="220.000000"  y="420.000000" width="110.000000" height="15.000000" fill="green" stroke="black" stroke-width="0.5" />
<rect x="330.000000"  y="420.000000" width="110.000000" height="15.000000" fill="green" stroke="black" stroke-width="0.5" />
<rect x="0.000000"  y="435.000000" width="110.000000" height="15.000000" fill="green" stroke="black" stroke-width="0.5" />
<rect x="110.000000"  y="435.000000" width="110.000000" height="15.000000" fill="green" stroke="black" stroke-width="0.5" />
<rect x="220.000000"  y="435.000000" width="110.000000" height="15.000000" fill="green" stroke="black" stroke-width="0.5" />
<rect x="330.000000"  y="435.000000" width="110.000000" height="15.000000" fill="green" stroke="black" stroke-width="0.5" />
<rect x="0.000000"  y="450.000000" width="110.000000" height="15.000000" fill="green" stroke="black" stroke-width="0.5" />
<rect x="110.000000"  y="450.000000" width="110.000000" height="15.000000" fill="green" stroke="black" stroke-width="0.5" />
<rect x="220.000000"  y="450.000000" width="110.000000" height="15.000000" fill="green" stroke="black" stroke-width="0.5" />
<rect x="330.000000"  y="450.000000" width="110.000000" height="15.000000" fill="green" stroke="black" stroke-width="0.5" />
<rect x="0.000000"  y="465.000000" width="110.000000" height="15.000000" fill="green" stroke="black" stroke-width="0.5" />
<rect x="110.000000"  y="465.000000" width="110.000000" height="15.000000" fill="green" stroke="black" stroke-width="0.5" />
<rect x="220.000000"  y="465.000000" width="110.000000" height="15.000000" fill="green" stroke="black" stroke-width="0.5" />
<rect x="330.000000"  y="465.000000" width="110.000000" height="15.000000" fill="green" stroke="black" stroke-width="0.5" />
<rect x="0.000000"  y="480.000000" width="110.000000" height="15.000000" fill="green" stroke="black" stroke-width="0.5" />
<rect x="110.000000"  y="480.000000" width="110.000000" height="15.000000" fill="green" stroke="black" stroke-width="0.5" />
<rect x="220.000000"  y="480.000000" width="110.000000" height="15.000000" fill="green" stroke="black" stroke-width="0.5" />
<rect x="330.000000"  y="480.000000" width="110.000000" height="15.000000" fill="green" stroke="black" stroke-width="0.5" />
<rect x="0.000000"  y="495.000000" width="110.000000" height="15.000000" fill="green" stroke="black" stroke-width="0.5" />
<rect x="110.000000"  y="495.000000" width="110.000000" height="15.000000" fill="green" stroke="black" stroke-width="0.5" />
<rect x="220.000000"  y="495.000000" width="110.000000" height="15.000000" fill="green" stroke="black" stroke-width="0.5" />
<rect x="330.000000"  y="495.000000" width="110.000000" height="15.000000" fill="green" stroke="black" stroke-width="0.5" />
<rect x="0.000000"  y="510.000000" width="110.000000" height="15.000000" fill="green" stroke="black" stroke-width="0.5" />
<rect x="110.000000"  y="510.000000" width="110.000000" height="15.000000" fill="green" stroke="black" stroke-width="0.5" />
<rect x="220.000000"  y="510.000000" width="110.000000" height="15.000000" fill="green" stroke="black" stroke-width="0.5" />
<rect x="330.000000"  y="510.000000" width="110.000000" height="15.000000" fill="green" stroke="black" stroke-width="0.5" />
<rect x="0.000000"  y="525.000000" width="110.000000" height="15.000000" fill="green" stroke="black" stroke-width="0.5" />
<rect x="110.000000"  y="525.000000" width="110.000000" height="15.000000" fill="green" stroke="black" stroke-width="0.5" />
<rect x="220.000000"  y="525.000000" width="110.000000" height="15.000000" fill="green" stroke="black" stroke-width="0.5" />
<rect x="330.000000"  y="525.000000" width="110.000000" height="15.000000" fill="green" stroke="black" stroke-width="0.5" />
<rect x="0.000000"  y="540.000000" width="110.000000" height="15.000000" fill="green" stroke="black" stroke-width="0.5" />
<rect x="110.000000"  y="540.000000" width="110.000000" height="15.000000" fill="green" stroke="black" stroke-width="0.5" />
<rect x="220.000000"  y="540.000000" width="110.000000" height="15.000000" fill="green" stroke="black" stroke-width="0.5" />
<rect x="330.000000"  y="540.000000" width="110.000000" height="15.000000" fill="green" stroke="black" stroke-width="0.5" />
<rect x="0.000000"  y="555.000000" width="110.000000" height="15.000000" fill="green" stroke="black" stroke-width="0.5" />
<rect x="110.000000"  y="555.000000" width="110.000000" height="15.000000" fill="green" stroke="black" stroke-width="0.5" />
<rect x="220.000000"  y="555.000000" width="110.000000" height="15.000000" fill="green" stroke="black" stroke-width="0.5" />
<rect x="330.000000"  y="555.000000" width="110.000000" height="15.000000" fill="green" stroke="black" stroke-width="0.5" />
<rect x="0.000000"  y="570.000000" width="110.000000" height="15.000000" fill="green" stroke="black" stroke-width="0.5" />
<rect x="110.000000"  y="570.000000" width="110.000000" height="15.000000" fill="green" stroke="black" stroke-width="0.5" />
<rect x="220.000000"  y="570.000000" width="110.000000" height="15.000000" fill="green" stroke="black" stroke-width="0.5" />
<rect x="330.000000"  y="570.000000" width="110.000000" height="15.000000" fill="green" stroke="black" stroke-width="0.5" />
<rect x="0.000000"  y="585.000000" width="110.000000" height="15.000000" fill="green" stroke="black" stroke-width="0.5" />
<rect x="110.000000"  y="585.000000" width="110.000000" height="15.000000" fill="green" stroke="black" stroke-width="0.5" />
<rect x="220.000000"  y="585.000000" width="110.000000" height="15.000000" fill="green" stroke="black" stroke-width="0.5" />
<rect x="330.000000"  y="585.000000" width="110.000000" height="15.000000" fill="green" stroke="black" stroke-width="0.5" />
<rect x="0.000000"  y="600.000000" width="110.000000" height="15.000000" fill="green" stroke="black" stroke-width="0.5" />
<rect x="110.000000"  y="600.000000" width="110.000000" height="15.000000" fill="green" stroke="black" stroke-width="0.5" />
<rect x="220.000000"  y="600.000000" width="110.000000" height="15.000000" fill="green" stroke="black" stroke-width="0.5" />
<rect x="330.000000"  y="600.000000" width="110.000000" height="15.000000" fill="green" stroke="black" stroke-width="0.5" />
<rect x="0.000000"  y="615.000000" width="110.000000" height="15.000000" fill="green" stroke="black" stroke-width="0.5" />
<rect x="110.000000"  y="615.000000" width="110.000000" height="15.000000" fill="green" stroke="black" stroke-width="0.5" />
<rect x="220.000000"  y="615.000000" width="110.000000" height="15.000000" fill="green" stroke="black" stroke-width="0.5" />
<rect x="330.000000"  y="615.000000" width="110.000000" height="15.000000" fill="green" stroke="black" stroke-width="0.5" />
<rect x="0.000000"  y="630.000000" width="110.000000" height="15.000000" fill="green" stroke="black" stroke-width="0.5" />
<rect x="110.000000"  y="630.000000" width="110.000000" height="15.000000" fill="green" stroke="black" stroke-width="0.5" />
<rect x="220.000000"  y="630.000000" width="110.000000" height="15.000000" fill="green" stroke="black" stroke-width="0.5" />
<rect x="330.000000"  y="630.000000" width="110.000000" height="15.000000" fill="green" stroke="black" stroke-width="0.5" />
<rect x="0.000000"  y="645.000000" width="110.000000" height="15.000000" fill="green" stroke="black" stroke-width="0.5" />
<rect x="110.000000"  y="645.000000" width="110.000000" height="15.000000" fill="green" stroke="black" stroke-width="0.5" />
<rect x="220.000000"  y="645.000000" width="110.000000" height="15.000000" fill="green" stroke="black" stroke-width="0.5" />
<rect x="330.000000"  y="645.000000" width="110.000000" height="15.000000" fill="green" stroke="black" stroke-width="0.5" />
<rect x="0.000000"  y="660.000000" width="110.000000" height="15.000000" fill="green" stroke="black" stroke-width="0.5" />
<rect x="110.000000"  y="660.000000" width="110.000000" height="15.000000" fill="green" stroke="black" stroke-width="0.5" />
<rect x="220.000000"  y="660.000000" width="110.000000" height="15.000000" fill="green" stroke="black" stroke-width="0.5" />
<rect x="330.000000"  y="660.000000" width="110.000000" height="15.000000" fill="green" stroke="black" stroke-width="0.5" />
<rect x="0.000000"  y="675.000000" width="110.000000" height="15.000000" fill="green" stroke="black" stroke-width="0.5" />
<rect x="110.000000"  y="675.000000" width="110.000000" height="15.000000" fill="green" stroke="black" stroke-width="0.5" />
<rect x="220.000000"  y="675.000000" width="110.000000" height="15.000000" fill="green" stroke="black" stroke-width="0.5" />
<rect x="330.000000"  y="675.000000" width="110.000000" height="15.000000" fill="green" stroke="black" stroke-width="0.5" />
<rect x="0.000000"  y="690.000000" width="110.000000" height="15.000000" fill="green" stroke="black" stroke-width="0.5" />
<rect x="110.000000"  y="690.000000" width="110.000000" height="15.000000" fill="green" stroke="black" stroke-width="0.5" />
<rect x="220.000000"  y="690.000000" width="110.000000" height="15.000000" fill="green" stroke="black" stroke-width="0.5" />
<rect x="330.000000"  y="690.000000" width="110.000000" height="15.000000" fill="green" stroke="black" stroke-width="0.5" />
<rect x="0.000000"  y="705.000000" width="110.000000" height="15.000000" fill="green" stroke="black" stroke-width="0.5" />
<rect x="110.000000"  y="705.000000" width="110.000000" height="15.000000" fill="green" stroke="black" stroke-width="0.5" />
<rect x="220.000000"  y="705.000000" width="110.000000" height="15.000000" fill="green" stroke="black" stroke-width="0.5" />
<rect x="330.000000"  y="705.000000" width="110.000000" height="15.000000" fill="green" stroke="black" stroke-width="0.5" />
<rect x="0.000000"  y="720.000000" width="110.000000" height="15.000000" fill="green" stroke="black" stroke-width="0.5" />
<rect x="110.000000"  y="720.000000" width="110.000000" height="15.000000" fill="green" stroke="black" stroke-width="0.5" />
<rect x="220.000000"  y="720.000000" width="110.000000" height="15.000000" fill="green" stroke="black" stroke-width="0.5" />
<rect x="330.000000"  y="720.000000" width="110.000000" height="15.000000" fill="green" stroke="black" stroke-width="0.5" />
<rect x="0.000000"  y="735.000000" width="110.000000" height="15.000000" fill="green" stroke="black" stroke-width="0.5" />
<rect x="110.000000"  y="735.000000" width="110.000000" height="15.000000" fill="green" stroke="black" stroke-width="0.5" />
<rect x="220.000000"  y="735.000000" width="110.000000" height="15.000000" fill="green" stroke="black" stroke-width="0.5" />
<rect x="330.000000"  y="735.000000" width="110.000000" height="15.000000" fill="green" stroke="black" stroke-width="0.5" />
<rect x="440.000000"  y="0.000000" width="15.000000" height="110.000000" fill="green" stroke="black" stroke-width="0.5" />
<rect x="440.000000"  y="110.000000" width="15.000000" height="110.000000" fill="green" stroke="black" stroke-width="0.5" />
<rect x="440.000000"  y="220.000000" width="15.000000" height="110.000000" fill="green" stroke="black" stroke-width="0.5" />
<rect x="440.000000"  y="330.000000" width="15.000000" height="110.000000" fill="green" stroke="black" stroke-width="0.5" />
<rect x="440.000000"  y="440.000000" width="15.000000" height="110.000000" fill="green" stroke="black" stroke-width="0.5" />
<rect x="440.000000"  y="550.000000" width="15.000000" height="110.000000" fill="green" stroke="black" stroke-width="0.5" />
<rect x="455.000000"  y="0.000000" width="15.000000" height="110.000000" fill="green" stroke="black" stroke-width="0.5" />
<rect x="455.000000"  y="110.000000" width="15.000000" height="110.000000" fill="green" stroke="black" stroke-width="0.5" />
<rect x="455.000000"  y="220.000000" width="15.000000" height="110.000000" fill="green" stroke="black" stroke-width="0.5" />
<rect x="455.000000"  y="330.000000" width="15.000000" height="110.000000" fill="green" stroke="black" stroke-width="0.5" />
<rect x="455.000000"  y="440.000000" width="15.000000" height="110.000000" fill="green" stroke="black" stroke-width="0.5" />
<rect x="455.000000"  y="550.000000" width="15.000000" height="110.000000" fill="green" stroke="black" stroke-width="0.5" />
<rect x="470.000000"  y="0.000000" width="15.000000" height="110.000000" fill="green" stroke="black" stroke-width="0.5" />
<rect x="470.000000"  y="110.000000" width="15.000000" height="110.000000" fill="green" stroke="black" stroke-width="0.5" />
<rect x="470.000000"  y="220.000000" width="15.000000" height="110.000000" fill="green" stroke="black" stroke-width="0.5" />
<rect x="470.000000"  y="330.000000" width="15.000000" height="110.000000" fill="green" stroke="black" stroke-width="0.5" />
<rect x="470.000000"  y="440.000000" width="15.000000" height="110.000000" fill="green" stroke="black" stroke-width="0.5" />
<rect x="470.000000"  y="550.000000" width="15.000000" height="110.000000" fill="green" stroke="black" stroke-width="0.5" />
</svg>