<svg version="1.1" baseProfile="full" xmlns="http://www.w3.org/2000/svg">
<rect x="0"  y="0" width="750.000000" height="500.000000" fill="red" stroke="black" stroke-width="0.5" />
<polygon points="20.000000,0.000000 0.000000,34.641016 40.000000,34.641016" fill="green" stroke="black" stroke-width="0.5" />
<polygon points="60.000000,0.000000 40.000000,34.641016 80.000000,34.641016" fill="green" stroke="black" stroke-width="0.5" />
<polygon points="100.000000,0.000000 80.000000,34.641016 120.000000,34.641016" fill="green" stroke="black" stroke-width="0.5" />
<polygon points="140.000000,0.000000 120.000000,34.641016 160.000000,34.641016" fill="green" stroke="black" stroke-width="0.5" />
<polygon points="180.000000,0.000000 160.000000,34.641016 200.000000,34.641016" fill="green" stroke="black" stroke-width="0.5" />
<polygon points="220.000000,0.000000 200.000000,34.641016 240.000000,34.641016" fill="green" stroke="black" stroke-width="0.5" />
<polygon points="260.000000,0.000000 240.000000,34.641016 280.000000,34.641016" fill="green" stroke="black" stroke-width="0.5" />
<polygon points="300.000000,0.000000 280.000000,34.641016 320.000000,34.641016" fill="green" stroke="black" stroke-width="0.5" />
<polygon points="340.000000,0.000000 320.000000,34.641016 360.000000,34.641016" fill="green" stroke="black" stroke-width="0.5" />
<polygon points="380.000000,0.000000 360.000000,34.641016 400.000000,34.641016" fill="green" stroke="black" stroke-width="0.5" />
<polygon points="420.000000,0.000000 400.000000,34.641016 440.000000,34.641016" fill="green" stroke="black" stroke-width="0.5" />
<polygon points="460.000000,0.000000 440.000000,34.641016 480.000000,34.641016" fill="green" stroke="black" stroke-width="0.5" />
<polygon points="500.000000,0.000000 480.000000,34.641016 520.000000,34.641016" fill="green" stroke="black" stroke-width="0.5" />
<polygon points="540.000000,0.000000 520.000000,34.641016 560.000000,34.641016" fill="green" stroke="black" stroke-width="0.5" />
<polygon points="580.000000,0.000000 560.000000,34.641016 600.000000,34.641016" fill="green" stroke="black" stroke-width="0.5" />
<polygon points="620.000000,0.000000 600.000000,34.641016 640.000000,34.641016" fill="green" stroke="black" stroke-width="0.5" />
<polygon points="660.000000,0.000000 640.000000,34.641016 680.000000,34.641016" fill="green" stroke="black" stroke-width="0.5" />
<polygon points="700.000000,0.000000 680.000000,34.641016 720.000000,34.641016" fill="green" stroke="black" stroke-width="0.5" />
<polygon points="20.000000,34.641016 0.000000,69.282032 40.000000,69.282032" fill="green" stroke="black" stroke-width="0.5" />
<polygon points="60.000000,34.641016 40.000000,69.282032 80.000000,69.282032" fill="green" stroke="black" stroke-width="0.5" />
<polygon points="100.000000,34.641016 80.000000,69.282032 120.000000,69.282032" fill="green" stroke="black" stroke-width="0.5" />
<polygon points="140.000000,34.641016 120.000000,69.282032 160.000000,69.282032" fill="green" stroke="black" stroke-width="0.5" />
<polygon points="180.000000,34.641016 160.000000,69.282032 200.000000,69.282032" fill="green" stroke="black" stroke-width="0.5" />
<polygon points="220.000000,34.641016 200.000000,69.282032 240.000000,69.282032" fill="green" stroke="black" stroke-width="0.5" />
<polygon points="260.000000,34.641016 240.000000,69.282032 280.000000,69.282032" fill="green" stroke="black" stroke-width="0.5" />
<polygon points="300.000000,34.641016 280.000000,69.282032 320.000000,69.282032" fill="green" stroke="black" stroke-width="0.5" />
<polygon points="340.000000,34.641016 320.000000,69.282032 360.000000,69.282032" fill="green" stroke="black" stroke-width="0.5" />
<polygon points="380.000000,34.641016 360.000000,69.282032 400.000000,69.282032" fill="green" stroke="black" stroke-width="0.5" />
<polygon points="420.000000,34.641016 400.000000,69.282032 440.000000,69.282032" fill="green" stroke="black" stroke-width="0.5" />
<polygon points="460.000000,34.641016 440.000000,69.282032 480.000000,69.282032" fill="green" stroke="black" stroke-width="0.5" />
<polygon points="500.000000,34.641016 480.000000,69.282032 520.000000,69.282032" fill="green" stroke="black" stroke-width="0.5" />
<polygon points="540.000000,34.641016 520.000000,69.282032 560.000000,69.282032" fill="green" stroke="black" stroke-width="0.5" />
<polygon points="580.000000,34.641016 560.000000,69.282032 600.000000,69.282032" fill="green" stroke="black" stroke-width="0.5" />
<polygon points="620.000000,34.641016 600.000000,69.282032 640.000000,69.282032" fill="green" stroke="black" stroke-width="0.5" />
<polygon points="660.000000,34.641016 640.000000,69.282032 680.000000,69.282032" fill="green" stroke="black" stroke-width="0.5" />
<polygon points="700.000000,34.641016 680.000000,69.282032 720.000000,69.282032" fill="green" stroke="black" stroke-width="0.5" />
<polygon points="20.000000,69.282032 0.000000,103.923048 40.000000,103.923048" fill="green" stroke="black" stroke-width="0.5" />
<polygon points="60.000000,69.282032 40.000000,103.923048 80.000000,103.923048" fill="green" stroke="black" stroke-width="0.5" />
<polygon points="100.000000,69.282032 80.000000,103.923048 120.000000,103.923048" fill="green" stroke="black" stroke-width="0.5" />
<polygon points="140.000000,69.282032 120.000000,103.923048 160.000000,103.923048" fill="green" stroke="black" stroke-width="0.5" />
<polygon points="180.000000,69.282032 160.000000,103.923048 200.000000,103.923048" fill="green" stroke="black" stroke-width="0.5" />
<polygon points="220.000000,69.282032 200.000000,103.923048 240.000000,103.923048" fill="green" stroke="black" stroke-width="0.5" />
<polygon points="260.000000,69.282032 240.000000,103.923048 280.000000,103.923048" fill="green" stroke="black" stroke-width="0.5" />
<polygon points="300.000000,69.282032 280.000000,103.923048 320.000000,103.923048" fill="green" stroke="black" stroke-width="0.5" />
<polygon points="340.000000,69.282032 320.000000,103.923048 360.000000,103.923048" fill="green" stroke="black" stroke-width="0.5" />
<polygon points="380.000000,69.282032 360.000000,103.923048 400.000000,103.923048" fill="green" stroke="black" stroke-width="0.5" />
<polygon points="420.000000,69.282032 400.000000,103.923048 440.000000,103.923048" fill="green" stroke="black" stroke-width="0.5" />
<polygon points="460.000000,69.282032 440.000000,103.923048 480.000000,103.923048" fill="green" stroke="black" stroke-width="0.5" />
<polygon points="500.000000,69.282032 480.000000,103.923048 520.000000,103.923048" fill="green" stroke="black" stroke-width="0.5" />
<polygon points="540.000000,69.282032 520.000000,103.923048 560.000000,103.923048" fill="green" stroke="black" stroke-width="0.5" />
<polygon points="580.000000,69.282032 560.000000,103.923048 600.000000,103.923048" fill="green" stroke="black" stroke-width="0.5" />
<polygon points="620.000000,69.282032 600.000000,103.923048 640.000000,103.923048" fill="green" stroke="black" stroke-width="0.5" />
<polygon points="660.000000,69.282032 640.000000,103.923048 680.000000,103.923048" fill="green" stroke="black" stroke-width="0.5" />
<polygon points="700.000000,69.282032 680.000000,103.923048 720.000000,103.923048" fill="green" stroke="black" stroke-width="0.5" />
<polygon points="20.000000,103.923048 0.000000,138.564065 40.000000,138.564065" fill="green" stroke="black" stroke-width="0.5" />
<polygon points="60.000000,103.923048 40.000000,138.564065 80.000000,138.564065" fill="green" stroke="black" stroke-width="0.5" />
<polygon points="100.000000,103.923048 80.000000,138.564065 120.000000,138.564065" fill="green" stroke="black" stroke-width="0.5" />
<polygon points="140.000000,103.923048 120.000000,138.564065 160.000000,138.564065" fill="green" stroke="black" stroke-width="0.5" />
<polygon points="180.000000,103.923048 160.000000,138.564065 200.000000,138.564065" fill="green" stroke="black" stroke-width="0.5" />
<polygon points="220.000000,103.923048 200.000000,138.564065 240.000000,138.564065" fill="green" stroke="black" stroke-width="0.5" />
<polygon points="260.000000,103.923048 240.000000,138.564065 280.000000,138.564065" fill="green" stroke="black" stroke-width="0.5" />
<polygon points="300.000000,103.923048 280.000000,138.564065 320.000000,138.564065" fill="green" stroke="black" stroke-width="0.5" />
<polygon points="340.000000,103.923048 320.000000,138.564065 360.000000,138.564065" fill="green" stroke="black" stroke-width="0.5" />
<polygon points="380.000000,103.923048 360.000000,138.564065 400.000000,138.564065" fill="green" stroke="black" stroke-width="0.5" />
<polygon points="420.000000,103.923048 400.000000,138.564065 440.000000,138.564065" fill="green" stroke="black" stroke-width="0.5" />
<polygon points="460.000000,103.923048 440.000000,138.564065 480.000000,138.564065" fill="green" stroke="black" stroke-width="0.5" />
<polygon points="500.000000,103.923048 480.000000,138.564065 520.000000,138.564065" fill="green" stroke="black" stroke-width="0.5" />
<polygon points="540.000000,103.923048 520.000000,138.564065 560.000000,138.564065" fill="green" stroke="black" stroke-width="0.5" />
<polygon points="580.000000,103.923048 560.000000,138.564065 600.000000,138.564065" fill="green" stroke="black" stroke-width="0.5" />
<polygon points="620.000000,103.923048 600.000000,138.564065 640.000000,138.564065" fill="green" stroke="black" stroke-width="0.5" />
<polygon points="660.000000,103.923048 640.000000,138.564065 680.000000,138.564065" fill="green" stroke="black" stroke-width="0.5" />
<polygon points="700.000000,103.923048 680.000000,138.564065 720.000000,138.564065" fill="green" stroke="black" stroke-width="0.5" />
<polygon points="20.000000,138.564065 0.000000,173.205081 40.000000,173.205081" fill="green" stroke="black" stroke-width="0.5" />
<polygon points="60.000000,138.564065 40.000000,173.205081 80.000000,173.205081" fill="green" stroke="black" stroke-width="0.5" />
<polygon points="100.000000,138.564065 80.000000,173.205081 120.000000,173.205081" fill="green" stroke="black" stroke-width="0.5" />
<polygon points="140.000000,138.564065 120.000000,173.205081 160.000000,173.205081" fill="green" stroke="black" stroke-width="0.5" />
<polygon points="180.000000,138.564065 160.000000,173.205081 200.000000,173.205081" fill="green" stroke="black" stroke-width="0.5" />
<polygon points="220.000000,138.564065 200.000000,173.205081 240.000000,173.205081" fill="green" stroke="black" stroke-width="0.5" />
<polygon points="260.000000,138.564065 240.000000,173.205081 280.000000,173.205081" fill="green" stroke="black" stroke-width="0.5" />
<polygon points="300.000000,138.564065 280.000000,173.205081 320.000000,173.205081" fill="green" stroke="black" stroke-width="0.5" />
<polygon points="340.000000,138.564065 320.000000,173.205081 360.000000,173.205081" fill="green" stroke="black" stroke-width="0.5" />
<polygon points="380.000000,138.564065 360.000000,173.205081 400.000000,173.205081" fill="green" stroke="black" stroke-width="0.5" />
<polygon points="420.000000,138.564065 400.000000,173.205081 440.000000,173.205081" fill="green" stroke="black" stroke-width="0.5" />
<polygon points="460.000000,138.564065 440.000000,173.205081 480.000000,173.205081" fill="green" stroke="black" stroke-width="0.5" />
<polygon points="500.000000,138.564065 480.000000,173.205081 520.000000,173.205081" fill="green" stroke="black" stroke-width="0.5" />
<polygon points="540.000000,138.564065 520.000000,173.205081 560.000000,173.205081" fill="green" stroke="black" stroke-width="0.5" />
<polygon points="580.000000,138.564065 560.000000,173.205081 600.000000,173.205081" fill="green" stroke="black" stroke-width="0.5" />
<polygon points="620.000000,138.564065 600.000000,173.205081 640.000000,173.205081" fill="green" stroke="black" stroke-width="0.5" />
<polygon points="660.000000,138.564065 640.000000,173.205081 680.000000,173.205081" fill="green" stroke="black" stroke-width="0.5" />
<polygon points="700.000000,138.564065 680.000000,173.205081 720.000000,173.205081" fill="green" stroke="black" stroke-width="0.5" />
<polygon points="20.000000,173.205081 0.000000,207.846097 40.000000,207.846097" fill="green" stroke="black" stroke-width="0.5" />
<polygon points="60.000000,173.205081 40.000000,207.846097 80.000000,207.846097" fill="green" stroke="black" stroke-width="0.5" />
<polygon points="100.000000,173.205081 80.000000,207.846097 120.000000,207.846097" fill="green" stroke="black" stroke-width="0.5" />
<polygon points="140.000000,173.205081 120.000000,207.846097 160.000000,207.846097" fill="green" stroke="black" stroke-width="0.5" />
<polygon points="180.000000,173.205081 160.000000,207.846097 200.000000,207.846097" fill="green" stroke="black" stroke-width="0.5" />
<polygon points="220.000000,173.205081 200.000000,207.846097 240.000000,207.846097" fill="green" stroke="black" stroke-width="0.5" />
<polygon points="260.000000,173.205081 240.000000,207.846097 280.000000,207.846097" fill="green" stroke="black" stroke-width="0.5" />
<polygon points="300.000000,173.205081 280.000000,207.846097 320.000000,207.846097" fill="green" stroke="black" stroke-width="0.5" />
<polygon points="340.000000,173.205081 320.000000,207.846097 360.000000,207.846097" fill="green" stroke="black" stroke-width="0.5" />
<polygon points="380.000000,173.205081 360.000000,207.846097 400.000000,207.846097" fill="green" stroke="black" stroke-width="0.5" />
<polygon points="420.000000,173.205081 400.000000,207.846097 440.000000,207.846097" fill="green" stroke="black" stroke-width="0.5" />
<polygon points="460.000000,173.205081 440.000000,207.846097 480.000000,207.846097" fill="green" stroke="black" stroke-width="0.5" />
<polygon points="500.000000,173.205081 480.000000,207.846097 520.000000,207.846097" fill="green" stroke="black" stroke-width="0.5" />
<polygon points="540.000000,173.205081 520.000000,207.846097 560.000000,207.846097" fill="green" stroke="black" stroke-width="0.5" />
<polygon points="580.000000,173.205081 560.000000,207.846097 600.000000,207.846097" fill="green" stroke="black" stroke-width="0.5" />
<polygon points="620.000000,173.205081 600.000000,207.846097 640.000000,207.846097" fill="green" stroke="black" stroke-width="0.5" />
<polygon points="660.000000,173.205081 640.000000,207.846097 680.000000,207.846097" fill="green" stroke="black" stroke-width="0.5" />
<polygon points="700.000000,173.205081 680.000000,207.846097 720.000000,207.846097" fill="green" stroke="black" stroke-width="0.5" />
<polygon points="20.000000,207.846097 0.000000,242.487113 40.000000,242.487113" fill="green" stroke="black" stroke-width="0.5" />
<polygon points="60.000000,207.846097 40.000000,242.487113 80.000000,242.487113" fill="green" stroke="black" stroke-width="0.5" />
<polygon points="100.000000,207.846097 80.000000,242.487113 120.000000,242.487113" fill="green" stroke="black" stroke-width="0.5" />
<polygon points="140.000000,207.846097 120.000000,242.487113 160.000000,242.487113" fill="green" stroke="black" stroke-width="0.5" />
<polygon points="180.000000,207.846097 160.000000,242.487113 200.000000,242.487113" fill="green" stroke="black" stroke-width="0.5" />
<polygon points="220.000000,207.846097 200.000000,242.487113 240.000000,242.487113" fill="green" stroke="black" stroke-width="0.5" />
<polygon points="260.000000,207.846097 240.000000,242.487113 280.000000,242.487113" fill="green" stroke="black" stroke-width="0.5" />
<polygon points="300.000000,207.846097 280.000000,242.487113 320.000000,242.487113" fill="green" stroke="black" stroke-width="0.5" />
<polygon points="340.000000,207.846097 320.000000,242.487113 360.000000,242.487113" fill="green" stroke="black" stroke-width="0.5" />
<polygon points="380.000000,207.846097 360.000000,242.487113 400.000000,242.487113" fill="green" stroke="black" stroke-width="0.5" />
<polygon points="420.000000,207.846097 400.000000,242.487113 440.000000,242.487113" fill="green" stroke="black" stroke-width="0.5" />
<polygon points="460.000000,207.846097 440.000000,242.487113 480.000000,242.487113" fill="green" stroke="black" stroke-width="0.5" />
<polygon points="500.000000,207.846097 480.000000,242.487113 520.000000,242.487113" fill="green" stroke="black" stroke-width="0.5" />
<polygon points="540.000000,207.846097 520.000000,242.487113 560.000000,242.487113" fill="green" stroke="black" stroke-width="0.5" />
<polygon points="580.000000,207.846097 560.000000,242.487113 600.000000,242.487113" fill="green" stroke="black" stroke-width="0.5" />
<polygon points="620.000000,207.846097 600.000000,242.487113 640.000000,242.487113" fill="green" stroke="black" stroke-width="0.5" />
<polygon points="660.000000,207.846097 640.000000,242.487113 680.000000,242.487113" fill="green" stroke="black" stroke-width="0.5" />
<polygon points="700.000000,207.846097 680.000000,242.487113 720.000000,242.487113" fill="green" stroke="black" stroke-width="0.5" />
<polygon points="20.000000,242.487113 0.000000,277.128129 40.000000,277.128129" fill="green" stroke="black" stroke-width="0.5" />
<polygon points="60.000000,242.487113 40.000000,277.128129 80.000000,277.128129" fill="green" stroke="black" stroke-width="0.5" />
<polygon points="100.000000,242.487113 80.000000,277.128129 120.000000,277.128129" fill="green" stroke="black" stroke-width="0.5" />
<polygon points="140.000000,242.487113 120.000000,277.128129 160.000000,277.128129" fill="green" stroke="black" stroke-width="0.5" />
<polygon points="180.000000,242.487113 160.000000,277.128129 200.000000,277.128129" fill="green" stroke="black" stroke-width="0.5" />
<polygon points="220.000000,242.487113 200.000000,277.128129 240.000000,277.128129" fill="green" stroke="black" stroke-width="0.5" />
<polygon points="260.000000,242.487113 240.000000,277.128129 280.000000,277.128129" fill="green" stroke="black" stroke-width="0.5" />
<polygon points="300.000000,242.487113 280.000000,277.128129 320.000000,277.128129" fill="green" stroke="black" stroke-width="0.5" />
<polygon points="340.000000,242.487113 320.000000,277.128129 360.000000,277.128129" fill="green" stroke="black" stroke-width="0.5" />
<polygon points="380.000000,242.487113 360.000000,277.128129 400.000000,277.128129" fill="green" stroke="black" stroke-width="0.5" />
<polygon points="420.000000,242.487113 400.000000,277.128129 440.000000,277.128129" fill="green" stroke="black" stroke-width="0.5" />
<polygon points="460.000000,242.487113 440.000000,277.128129 480.000000,277.128129" fill="green" stroke="black" stroke-width="0.5" />
<polygon points="500.000000,242.487113 480.000000,277.128129 520.000000,277.128129" fill="green" stroke="black" stroke-width="0.5" />
<polygon points="540.000000,242.487113 520.000000,277.128129 560.000000,277.128129" fill="green" stroke="black" stroke-width="0.5" />
<polygon points="580.000000,242.487113 560.000000,277.128129 600.000000,277.128129" fill="green" stroke="black" stroke-width="0.5" />
<polygon points="620.000000,242.487113 600.000000,277.128129 640.000000,277.128129" fill="green" stroke="black" stroke-width="0.5" />
<polygon points="660.000000,242.487113 640.000000,277.128129 680.000000,277.128129" fill="green" stroke="black" stroke-width="0.5" />
<polygon points="700.000000,242.487113 680.000000,277.128129 720.000000,277.128129" fill="green" stroke="black" stroke-width="0.5" />
<polygon points="20.000000,277.128129 0.000000,311.769145 40.000000,311.769145" fill="green" stroke="black" stroke-width="0.5" />
<polygon points="60.000000,277.128129 40.000000,311.769145 80.000000,311.769145" fill="green" stroke="black" stroke-width="0.5" />
<polygon points="100.000000,277.128129 80.000000,311.769145 120.000000,311.769145" fill="green" stroke="black" stroke-width="0.5" />
<polygon points="140.000000,277.128129 120.000000,311.769145 160.000000,311.769145" fill="green" stroke="black" stroke-width="0.5" />
<polygon points="180.000000,277.128129 160.000000,311.769145 200.000000,311.769145" fill="green" stroke="black" stroke-width="0.5" />
<polygon points="220.000000,277.128129 200.000000,311.769145 240.000000,311.769145" fill="green" stroke="black" stroke-width="0.5" />
<polygon points="260.000000,277.128129 240.000000,311.769145 280.000000,311.769145" fill="green" stroke="black" stroke-width="0.5" />
<polygon points="300.000000,277.128129 280.000000,311.769145 320.000000,311.769145" fill="green" stroke="black" stroke-width="0.5" />
<polygon points="340.000000,277.128129 320.000000,311.769145 360.000000,311.769145" fill="green" stroke="black" stroke-width="0.5" />
<polygon points="380.000000,277.128129 360.000000,311.769145 400.000000,311.769145" fill="green" stroke="black" stroke-width="0.5" />
<polygon points="420.000000,277.128129 400.000000,311.769145 440.000000,311.769145" fill="green" stroke="black" stroke-width="0.5" />
<polygon points="460.000000,277.128129 440.000000,311.769145 480.000000,311.769145" fill="green" stroke="black" stroke-width="0.5" />
<polygon points="500.000000,277.128129 480.000000,311.769145 520.000000,311.769145" fill="green" stroke="black" stroke-width="0.5" />
<polygon points="540.000000,277.128129 520.000000,311.769145 560.000000,311.769145" fill="green" stroke="black" stroke-width="0.5" />
<polygon points="580.000000,277.128129 560.000000,311.769145 600.000000,311.769145" fill="green" stroke="black" stroke-width="0.5" />
<polygon points="620.000000,277.128129 600.000000,311.769145 640.000000,311.769145" fill="green" stroke="black" stroke-width="0.5" />
<polygon points="660.000000,277.128129 640.000000,311.769145 680.000000,311.769145" fill="green" stroke="black" stroke-width="0.5" />
<polygon points="700.000000,277.128129 680.000000,311.769145 720.000000,311.769145" fill="green" stroke="black" stroke-width="0.5" />
<polygon points="20.000000,311.769145 0.000000,346.410162 40.000000,346.410162" fill="green" stroke="black" stroke-width="0.5" />
<polygon points="60.000000,311.769145 40.000000,346.410162 80.000000,346.410162" fill="green" stroke="black" stroke-width="0.5" />
<polygon points="100.000000,311.769145 80.000000,346.410162 120.000000,346.410162" fill="green" stroke="black" stroke-width="0.5" />
<polygon points="140.000000,311.769145 120.000000,346.410162 160.000000,346.410162" fill="green" stroke="black" stroke-width="0.5" />
<polygon points="180.000000,311.769145 160.000000,346.410162 200.000000,346.410162" fill="green" stroke="black" stroke-width="0.5" />
<polygon points="220.000000,311.769145 200.000000,346.410162 240.000000,346.410162" fill="green" stroke="black" stroke-width="0.5" />
<polygon points="260.000000,311.769145 240.000000,346.410162 280.000000,346.410162" fill="green" stroke="black" stroke-width="0.5" />
<polygon points="300.000000,311.769145 280.000000,346.410162 320.000000,346.410162" fill="green" stroke="black" stroke-width="0.5" />
<polygon points="340.000000,311.769145 320.000000,346.410162 360.000000,346.410162" fill="green" stroke="black" stroke-width="0.5" />
<polygon points="380.000000,311.769145 360.000000,346.410162 400.000000,346.410162" fill="green" stroke="black" stroke-width="0.5" />
<polygon points="420.000000,311.769145 400.000000,346.410162 440.000000,346.410162" fill="green" stroke="black" stroke-width="0.5" />
<polygon points="460.000000,311.769145 440.000000,346.410162 480.000000,346.410162" fill="green" stroke="black" stroke-width="0.5" />
<polygon points="500.000000,311.769145 480.000000,346.410162 520.000000,346.410162" fill="green" stroke="black" stroke-width="0.5" />
<polygon points="540.000000,311.769145 520.000000,346.410162 560.000000,346.410162" fill="green" stroke="black" stroke-width="0.5" />
<polygon points="580.000000,311.769145 560.000000,346.410162 600.000000,346.410162" fill="green" stroke="black" stroke-width="0.5" />
<polygon points="620.000000,311.769145 600.000000,346.410162 640.000000,346.410162" fill="green" stroke="black" stroke-width="0.5" />
<polygon points="660.000000,311.769145 640.000000,346.410162 680.000000,346.410162" fill="green" stroke="black" stroke-width="0.5" />
<polygon points="700.000000,311.769145 680.000000,346.410162 720.000000,346.410162" fill="green" stroke="black" stroke-width="0.5" />
<polygon points="20.000000,346.410162 0.000000,381.051178 40.000000,381.051178" fill="green" stroke="black" stroke-width="0.5" />
<polygon points="60.000000,346.410162 40.000000,381.051178 80.000000,381.051178" fill="green" stroke="black" stroke-width="0.5" />
<polygon points="100.000000,346.410162 80.000000,381.051178 120.000000,381.051178" fill="green" stroke="black" stroke-width="0.5" />
<polygon points="140.000000,346.410162 120.000000,381.051178 160.000000,381.051178" fill="green" stroke="black" stroke-width="0.5" />
<polygon points="180.000000,346.410162 160.000000,381.051178 200.000000,381.051178" fill="green" stroke="black" stroke-width="0.5" />
<polygon points="220.000000,346.410162 200.000000,381.051178 240.000000,381.051178" fill="green" stroke="black" stroke-width="0.5" />
<polygon points="260.000000,346.410162 240.000000,381.051178 280.000000,381.051178" fill="green" stroke="black" stroke-width="0.5" />
<polygon points="300.000000,346.410162 280.000000,381.051178 320.000000,381.051178" fill="green" stroke="black" stroke-width="0.5" />
<polygon points="340.000000,346.410162 320.000000,381.051178 360.000000,381.051178" fill="green" stroke="black" stroke-width="0.5" />
<polygon points="380.000000,346.410162 360.000000,381.051178 400.000000,381.051178" fill="green" stroke="black" stroke-width="0.5" />
<polygon points="420.000000,346.410162 400.000000,381.051178 440.000000,381.051178" fill="green" stroke="black" stroke-width="0.5" />
<polygon points="460.000000,346.410162 440.000000,381.051178 480.000000,381.051178" fill="green" stroke="black" stroke-width="0.5" />
<polygon points="500.000000,346.410162 480.000000,381.051178 520.000000,381.051178" fill="green" stroke="black" stroke-width="0.5" />
<polygon points="540.000000,346.410162 520.000000,381.051178 560.000000,381.051178" fill="green" stroke="black" stroke-width="0.5" />
<polygon points="580.000000,346.410162 560.000000,381.051178 600.000000,381.051178" fill="green" stroke="black" stroke-width="0.5" />
<polygon points="620.000000,346.410162 600.000000,381.051178 640.000000,381.051178" fill="green" stroke="black" stroke-width="0.5" />
<polygon points="660.000000,346.410162 640.000000,381.051178 680.000000,381.051178" fill="green" stroke="black" stroke-width="0.5" />
<polygon points="700.000000,346.410162 680.000000,381.051178 720.000000,381.051178" fill="green" stroke="black" stroke-width="0.5" />
<polygon points="20.000000,381.051178 0.000000,415.692194 40.000000,415.692194" fill="green" stroke="black" stroke-width="0.5" />
<polygon points="60.000000,381.051178 40.000000,415.692194 80.000000,415.692194" fill="green" stroke="black" stroke-width="0.5" />
<polygon points="100.000000,381.051178 80.000000,415.692194 120.000000,415.692194" fill="green" stroke="black" stroke-width="0.5" />
<polygon points="140.000000,381.051178 120.000000,415.692194 160.000000,415.692194" fill="green" stroke="black" stroke-width="0.5" />
<polygon points="180.000000,381.051178 160.000000,415.692194 200.000000,415.692194" fill="green" stroke="black" stroke-width="0.5" />
<polygon points="220.000000,381.051178 200.000000,415.692194 240.000000,415.692194" fill="green" stroke="black" stroke-width="0.5" />
<polygon points="260.000000,381.051178 240.000000,415.692194 280.000000,415.692194" fill="green" stroke="black" stroke-width="0.5" />
<polygon points="300.000000,381.051178 280.000000,415.692194 320.000000,415.692194" fill="green" stroke="black" stroke-width="0.5" />
<polygon points="340.000000,381.051178 320.000000,415.692194 360.000000,415.692194" fill="green" stroke="black" stroke-width="0.5" />
<polygon points="380.000000,381.051178 360.000000,415.692194 400.000000,415.692194" fill="green" stroke="black" stroke-width="0.5" />
<polygon points="420.000000,381.051178 400.000000,415.692194 440.000000,415.692194" fill="green" stroke="black" stroke-width="0.5" />
<polygon points="460.000000,381.051178 440.000000,415.692194 480.000000,415.692194" fill="green" stroke="black" stroke-width="0.5" />
<polygon points="500.000000,381.051178 480.000000,415.692194 520.000000,415.692194" fill="green" stroke="black" stroke-width="0.5" />
<polygon points="540.000000,381.051178 520.000000,415.692194 560.000000,415.692194" fill="green" stroke="black" stroke-width="0.5" />
<polygon points="580.000000,381.051178 560.000000,415.692194 600.000000,415.692194" fill="green" stroke="black" stroke-width="0.5" />
<polygon points="620.000000,381.051178 600.000000,415.692194 640.000000,415.692194" fill="green" stroke="black" stroke-width="0.5" />
<polygon points="660.000000,381.051178 640.000000,415.692194 680.000000,415.692194" fill="green" stroke="black" stroke-width="0.5" />
<polygon points="700.000000,381.051178 680.000000,415.692194 720.000000,415.692194" fill="green" stroke="black" stroke-width="0.5" />
<polygon points="20.000000,415.692194 0.000000,450.333210 40.000000,450.333210" fill="green" stroke="black" stroke-width="0.5" />
<polygon points="60.000000,415.692194 40.000000,450.333210 80.000000,450.333210" fill="green" stroke="black" stroke-width="0.5" />
<polygon points="100.000000,415.692194 80.000000,450.333210 120.000000,450.333210" fill="green" stroke="black" stroke-width="0.5" />
<polygon points="140.000000,415.692194 120.000000,450.333210 160.000000,450.333210" fill="green" stroke="black" stroke-width="0.5" />
<polygon points="180.000000,415.692194 160.000000,450.333210 200.000000,450.333210" fill="green" stroke="black" stroke-width="0.5" />
<polygon points="220.000000,415.692194 200.000000,450.333210 240.000000,450.333210" fill="green" stroke="black" stroke-width="0.5" />
<polygon points="260.000000,415.692194 240.000000,450.333210 280.000000,450.333210" fill="green" stroke="black" stroke-width="0.5" />
<polygon points="300.000000,415.692194 280.000000,450.333210 320.000000,450.333210" fill="green" stroke="black" stroke-width="0.5" />
<polygon points="340.000000,415.692194 320.000000,450.333210 360.000000,450.333210" fill="green" stroke="black" stroke-width="0.5" />
<polygon points="380.000000,415.692194 360.000000,450.333210 400.000000,450.333210" fill="green" stroke="black" stroke-width="0.5" />
<polygon points="420.000000,415.692194 400.000000,450.333210 440.000000,450.333210" fill="green" stroke="black" stroke-width="0.5" />
<polygon points="460.000000,415.692194 440.000000,450.333210 480.000000,450.333210" fill="green" stroke="black" stroke-width="0.5" />
<polygon points="500.000000,415.692194 480.000000,450.333210 520.000000,450.333210" fill="green" stroke="black" stroke-width="0.5" />
<polygon points="540.000000,415.692194 520.000000,450.333210 560.000000,450.333210" fill="green" stroke="black" stroke-width="0.5" />
<polygon points="580.000000,415.692194 560.000000,450.333210 600.000000,450.333210" fill="green" stroke="black" stroke-width="0.5" />
<polygon points="620.000000,415.692194 600.000000,450.333210 640.000000,450.333210" fill="green" stroke="black" stroke-width="0.5" />
<polygon points="660.000000,415.692194 640.000000,450.333210 680.000000,450.333210" fill="green" stroke="black" stroke-width="0.5" />
<polygon points="700.000000,415.692194 680.000000,450.333210 720.000000,450.333210" fill="green" stroke="black" stroke-width="0.5" />
<polygon points="20.000000,450.333210 0.000000,484.974226 40.000000,484.974226" fill="green" stroke="black" stroke-width="0.5" />
<polygon points="60.000000,450.333210 40.000000,484.974226 80.000000,484.974226" fill="green" stroke="black" stroke-width="0.5" />
<polygon points="100.000000,450.333210 80.000000,484.974226 120.000000,484.974226" fill="green" stroke="black" stroke-width="0.5" />
<polygon points="140.000000,450.333210 120.000000,484.974226 160.000000,484.974226" fill="green" stroke="black" stroke-width="0.5" />
<polygon points="180.000000,450.333210 160.000000,484.974226 200.000000,484.974226" fill="green" stroke="black" stroke-width="0.5" />
<polygon points="220.000000,450.333210 200.000000,484.974226 240.000000,484.974226" fill="green" stroke="black" stroke-width="0.5" />
<polygon points="260.000000,450.333210 240.000000,484.974226 280.000000,484.974226" fill="green" stroke="black" stroke-width="0.5" />
<polygon points="300.000000,450.333210 280.000000,484.974226 320.000000,484.974226" fill="green" stroke="black" stroke-width="0.5" />
<polygon points="340.000000,450.333210 320.000000,484.974226 360.000000,484.974226" fill="green" stroke="black" stroke-width="0.5" />
<polygon points="380.000000,450.333210 360.000000,484.974226 400.000000,484.974226" fill="green" stroke="black" stroke-width="0.5" />
<polygon points="420.000000,450.333210 400.000000,484.974226 440.000000,484.974226" fill="green" stroke="black" stroke-width="0.5" />
<polygon points="460.000000,450.333210 440.000000,484.974226 480.000000,484.974226" fill="green" stroke="black" stroke-width="0.5" />
<polygon points="500.000000,450.333210 480.000000,484.974226 520.000000,484.974226" fill="green" stroke="black" stroke-width="0.5" />
<polygon points="540.000000,450.333210 520.000000,484.974226 560.000000,484.974226" fill="green" stroke="black" stroke-width="0.5" />
<polygon points="580.000000,450.333210 560.000000,484.974226 600.000000,484.974226" fill="green" stroke="black" stroke-width="0.5" />
<polygon points="620.000000,450.333210 600.000000,484.974226 640.000000,484.974226" fill="green" stroke="black" stroke-width="0.5" />
<polygon points="660.000000,450.333210 640.000000,484.974226 680.000000,484.974226" fill="green" stroke="black" stroke-width="0.5" />
<polygon points="700.000000,450.333210 680.000000,484.974226 720.000000,484.974226" fill="green" stroke="black" stroke-width="0.5" />
<polygon points="20.000000,0.000000 40.000000,34.641016 60.000000,0.000000" fill="green" stroke="black" stroke-width="0.5" />
<polygon points="60.000000,0.000000 80.000000,34.641016 100.000000,0.000000" fill="green" stroke="black" stroke-width="0.5" />
<polygon points="100.000000,0.000000 120.000000,34.641016 140.000000,0.000000" fill="green" stroke="black" stroke-width="0.5" />
<polygon points="140.000000,0.000000 160.000000,34.641016 180.000000,0.000000" fill="green" stroke="black" stroke-width="0.5" />
<polygon points="180.000000,0.000000 200.000000,34.641016 220.000000,0.000000" fill="green" stroke="black" stroke-width="0.5" />
<polygon points="220.000000,0.000000 240.000000,34.641016 260.000000,0.000000" fill="green" stroke="black" stroke-width="0.5" />
<polygon points="260.000000,0.000000 280.000000,34.641016 300.000000,0.000000" fill="green" stroke="black" stroke-width="0.5" />
<polygon points="300.000000,0.000000 320.000000,34.641016 340.000000,0.000000" fill="green" stroke="black" stroke-width="0.5" />
<polygon points="340.000000,0.000000 360.000000,34.641016 380.000000,0.000000" fill="green" stroke="black" stroke-width="0.5" />
<polygon points="380.000000,0.000000 400.000000,34.641016 420.000000,0.000000" fill="green" stroke="black" stroke-width="0.5" />
<polygon points="420.000000,0.000000 440.000000,34.641016 460.000000,0.000000" fill="green" stroke="black" stroke-width="0.5" />
<polygon points="460.000000,0.000000 480.000000,34.641016 500.000000,0.000000" fill="green" stroke="black" stroke-width="0.5" />
<polygon points="500.000000,0.000000 520.000000,34.641016 540.000000,0.000000" fill="green" stroke="black" stroke-width="0.5" />
<polygon points="540.000000,0.000000 560.000000,34.641016 580.000000,0.000000" fill="green" stroke="black" stroke-width="0.5" />
<polygon points="580.000000,0.000000 600.000000,34.641016 620.000000,0.000000" fill="green" stroke="black" stroke-width="0.5" />
<polygon points="620.000000,0.000000 640.000000,34.641016 660.000000,0.000000" fill="green" stroke="black" stroke-width="0.5" />
<polygon points="660.000000,0.000000 680.000000,34.641016 700.000000,0.000000" fill="green" stroke="black" stroke-width="0.5" />
<polygon points="700.000000,0.000000 720.000000,34.641016 740.000000,0.000000" fill="green" stroke="black" stroke-width="0.5" />
<polygon points="20.000000,34.641016 40.000000,69.282032 60.000000,34.641016" fill="green" stroke="black" stroke-width="0.5" />
<polygon points="60.000000,34.641016 80.000000,69.282032 100.000000,34.641016" fill="green" stroke="black" stroke-width="0.5" />
<polygon points="100.000000,34.641016 120.000000,69.282032 140.000000,34.641016" fill="green" stroke="black" stroke-width="0.5" />
<polygon points="140.000000,34.641016 160.000000,69.282032 180.000000,34.641016" fill="green" stroke="black" stroke-width="0.5" />
<polygon points="180.000000,34.641016 200.000000,69.282032 220.000000,34.641016" fill="green" stroke="black" stroke-width="0.5" />
<polygon points="220.000000,34.641016 240.000000,69.282032 260.000000,34.641016" fill="green" stroke="black" stroke-width="0.5" />
<polygon points="260.000000,34.641016 280.000000,69.282032 300.000000,34.641016" fill="green" stroke="black" stroke-width="0.5" />
<polygon points="300.000000,34.641016 320.000000,69.282032 340.000000,34.641016" fill="green" stroke="black" stroke-width="0.5" />
<polygon points="340.000000,34.641016 360.000000,69.282032 380.000000,34.641016" fill="green" stroke="black" stroke-width="0.5" />
<polygon points="380.000000,34.641016 400.000000,69.282032 420.000000,34.641016" fill="green" stroke="black" stroke-width="0.5" />
<polygon points="420.000000,34.641016 440.000000,69.282032 460.000000,34.641016" fill="green" stroke="black" stroke-width="0.5" />
<polygon points="460.000000,34.641016 480.000000,69.282032 500.000000,34.641016" fill="green" stroke="black" stroke-width="0.5" />
<polygon points="500.000000,34.641016 520.000000,69.282032 540.000000,34.641016" fill="green" stroke="black" stroke-width="0.5" />
<polygon points="540.000000,34.641016 560.000000,69.282032 580.000000,34.641016" fill="green" stroke="black" stroke-width="0.5" />
<polygon points="580.000000,34.641016 600.000000,69.282032 620.000000,34.641016" fill="green" stroke="black" stroke-width="0.5" />
<polygon points="620.000000,34.641016 640.000000,69.282032 660.000000,34.641016" fill="green" stroke="black" stroke-width="0.5" />
<polygon points="660.000000,34.641016 680.000000,69.282032 700.000000,34.641016" fill="green" stroke="black" stroke-width="0.5" />
<polygon points="700.000000,34.641016 720.000000,69.282032 740.000000,34.641016" fill="green" stroke="black" stroke-width="0.5" />
<polygon points="20.000000,69.282032 40.000000,103.923048 60.000000,69.282032" fill="green" stroke="black" stroke-width="0.5" />
<polygon points="60.000000,69.282032 80.000000,103.923048 100.000000,69.282032" fill="green" stroke="black" stroke-width="0.5" />
<polygon points="100.000000,69.282032 120.000000,103.923048 140.000000,69.282032" fill="green" stroke="black" stroke-width="0.5" />
<polygon points="140.000000,69.282032 160.000000,103.923048 180.000000,69.282032" fill="green" stroke="black" stroke-width="0.5" />
<polygon points="180.000000,69.282032 200.000000,103.923048 220.000000,69.282032" fill="green" stroke="black" stroke-width="0.5" />
<polygon points="220.000000,69.282032 240.000000,103.923048 260.000000,69.282032" fill="green" stroke="black" stroke-width="0.5" />
<polygon points="260.000000,69.282032 280.000000,103.923048 300.000000,69.282032" fill="green" stroke="black" stroke-width="0.5" />
<polygon points="300.000000,69.282032 320.000000,103.923048 340.000000,69.282032" fill="green" stroke="black" stroke-width="0.5" />
<polygon points="340.000000,69.282032 360.000000,103.923048 380.000000,69.282032" fill="green" stroke="black" stroke-width="0.5" />
<polygon points="380.000000,69.282032 400.000000,103.923048 420.000000,69.282032" fill="green" stroke="black" stroke-width="0.5" />
<polygon points="420.000000,69.282032 440.000000,103.923048 460.000000,69.282032" fill="green" stroke="black" stroke-width="0.5" />
<polygon points="460.000000,69.282032 480.000000,103.923048 500.000000,69.282032" fill="green" stroke="black" stroke-width="0.5" />
<polygon points="500.000000,69.282032 520.000000,103.923048 540.000000,69.282032" fill="green" stroke="black" stroke-width="0.5" />
<polygon points="540.000000,69.282032 560.000000,103.923048 580.000000,69.282032" fill="green" stroke="black" stroke-width="0.5" />
<polygon points="580.000000,69.282032 600.000000,103.923048 620.000000,69.282032" fill="green" stroke="black" stroke-width="0.5" />
<polygon points="620.000000,69.282032 640.000000,103.923048 660.000000,69.282032" fill="green" stroke="black" stroke-width="0.5" />
<polygon points="660.000000,69.282032 680.000000,103.923048 700.000000,69.282032" fill="green" stroke="black" stroke-width="0.5" />
<polygon points="700.000000,69.282032 720.000000,103.923048 740.000000,69.282032" fill="green" stroke="black" stroke-width="0.5" />
<polygon points="20.000000,103.923048 40.000000,138.564065 60.000000,103.923048" fill="green" stroke="black" stroke-width="0.5" />
<polygon points="60.000000,103.923048 80.000000,138.564065 100.000000,103.923048" fill="green" stroke="black" stroke-width="0.5" />
<polygon points="100.000000,103.923048 120.000000,138.564065 140.000000,103.923048" fill="green" stroke="black" stroke-width="0.5" />
<polygon points="140.000000,103.923048 160.000000,138.564065 180.000000,103.923048" fill="green" stroke="black" stroke-width="0.5" />
<polygon points="180.000000,103.923048 200.000000,138.564065 220.000000,103.923048" fill="green" stroke="black" stroke-width="0.5" />
<polygon points="220.000000,103.923048 240.000000,138.564065 260.000000,103.923048" fill="green" stroke="black" stroke-width="0.5" />
<polygon points="260.000000,103.923048 280.000000,138.564065 300.000000,103.923048" fill="green" stroke="black" stroke-width="0.5" />
<polygon points="300.000000,103.923048 320.000000,138.564065 340.000000,103.923048" fill="green" stroke="black" stroke-width="0.5" />
<polygon points="340.000000,103.923048 360.000000,138.564065 380.000000,103.923048" fill="green" stroke="black" stroke-width="0.5" />
<polygon points="380.000000,103.923048 400.000000,138.564065 420.000000,103.923048" fill="green" stroke="black" stroke-width="0.5" />
<polygon points="420.000000,103.923048 440.000000,138.564065 460.000000,103.923048" fill="green" stroke="black" stroke-width="0.5" />
<polygon points="460.000000,103.923048 480.000000,138.564065 500.000000,103.923048" fill="green" stroke="black" stroke-width="0.5" />
<polygon points="500.000000,103.923048 520.000000,138.564065 540.000000,103.923048" fill="green" stroke="black" stroke-width="0.5" />
<polygon points="540.000000,103.923048 560.000000,138.564065 580.000000,103.923048" fill="green" stroke="black" stroke-width="0.5" />
<polygon points="580.000000,103.923048 600.000000,138.564065 620.000000,103.923048" fill="green" stroke="black" stroke-width="0.5" />
<polygon points="620.000000,103.923048 640.000000,138.564065 660.000000,103.923048" fill="green" stroke="black" stroke-width="0.5" />
<polygon points="660.000000,103.923048 680.000000,138.564065 700.000000,103.923048" fill="green" stroke="black" stroke-width="0.5" />
<polygon points="700.000000,103.923048 720.000000,138.564065 740.000000,103.923048" fill="green" stroke="black" stroke-width="0.5" />
<polygon points="20.000000,138.564065 40.000000,173.205081 60.000000,138.564065" fill="green" stroke="black" stroke-width="0.5" />
<polygon points="60.000000,138.564065 80.000000,173.205081 100.000000,138.564065" fill="green" stroke="black" stroke-width="0.5" />
<polygon points="100.000000,138.564065 120.000000,173.205081 140.000000,138.564065" fill="green" stroke="black" stroke-width="0.5" />
<polygon points="140.000000,138.564065 160.000000,173.205081 180.000000,138.564065" fill="green" stroke="black" stroke-width="0.5" />
<polygon points="180.000000,138.564065 200.000000,173.205081 220.000000,138.564065" fill="green" stroke="black" stroke-width="0.5" />
<polygon points="220.000000,138.564065 240.000000,173.205081 260.000000,138.564065" fill="green" stroke="black" stroke-width="0.5" />
<polygon points="260.000000,138.564065 280.000000,173.205081 300.000000,138.564065" fill="green" stroke="black" stroke-width="0.5" />
<polygon points="300.000000,138.564065 320.000000,173.205081 340.000000,138.564065" fill="green" stroke="black" stroke-width="0.5" />
<polygon points="340.000000,138.564065 360.000000,173.205081 380.000000,138.564065" fill="green" stroke="black" stroke-width="0.5" />
<polygon points="380.000000,138.564065 400.000000,173.205081 420.000000,138.564065" fill="green" stroke="black" stroke-width="0.5" />
<polygon points="420.000000,138.564065 440.000000,173.205081 460.000000,138.564065" fill="green" stroke="black" stroke-width="0.5" />
<polygon points="460.000000,138.564065 480.000000,173.205081 500.000000,138.564065" fill="green" stroke="black" stroke-width="0.5" />
<polygon points="500.000000,138.564065 520.000000,173.205081 540.000000,138.564065" fill="green" stroke="black" stroke-width="0.5" />
<polygon points="540.000000,138.564065 560.000000,173.205081 580.000000,138.564065" fill="green" stroke="black" stroke-width="0.5" />
<polygon points="580.000000,138.564065 600.000000,173.205081 620.000000,138.564065" fill="green" stroke="black" stroke-width="0.5" />
<polygon points="620.000000,138.564065 640.000000,173.205081 660.000000,138.564065" fill="green" stroke="black" stroke-width="0.5" />
<polygon points="660.000000,138.564065 680.000000,173.205081 700.000000,138.564065" fill="green" stroke="black" stroke-width="0.5" />
<polygon points="700.000000,138.564065 720.000000,173.205081 740.000000,138.564065" fill="green" stroke="black" stroke-width="0.5" />
<polygon points="20.000000,173.205081 40.000000,207.846097 60.000000,173.205081" fill="green" stroke="black" stroke-width="0.5" />
<polygon points="60.000000,173.205081 80.000000,207.846097 100.000000,173.205081" fill="green" stroke="black" stroke-width="0.5" />
<polygon points="100.000000,173.205081 120.000000,207.846097 140.000000,173.205081" fill="green" stroke="black" stroke-width="0.5" />
<polygon points="140.000000,173.205081 160.000000,207.846097 180.000000,173.205081" fill="green" stroke="black" stroke-width="0.5" />
<polygon points="180.000000,173.205081 200.000000,207.846097 220.000000,173.205081" fill="green" stroke="black" stroke-width="0.5" />
<polygon points="220.000000,173.205081 240.000000,207.846097 260.000000,173.205081" fill="green" stroke="black" stroke-width="0.5" />
<polygon points="260.000000,173.205081 280.000000,207.846097 300.000000,173.205081" fill="green" stroke="black" stroke-width="0.5" />
<polygon points="300.000000,173.205081 320.000000,207.846097 340.000000,173.205081" fill="green" stroke="black" stroke-width="0.5" />
<polygon points="340.000000,173.205081 360.000000,207.846097 380.000000,173.205081" fill="green" stroke="black" stroke-width="0.5" />
<polygon points="380.000000,173.205081 400.000000,207.846097 420.000000,173.205081" fill="green" stroke="black" stroke-width="0.5" />
<polygon points="420.000000,173.205081 440.000000,207.846097 460.000000,173.205081" fill="green" stroke="black" stroke-width="0.5" />
<polygon points="460.000000,173.205081 480.000000,207.846097 500.000000,173.205081" fill="green" stroke="black" stroke-width="0.5" />
<polygon points="500.000000,173.205081 520.000000,207.846097 540.000000,173.205081" fill="green" stroke="black" stroke-width="0.5" />
<polygon points="540.000000,173.205081 560.000000,207.846097 580.000000,173.205081" fill="green" stroke="black" stroke-width="0.5" />
<polygon points="580.000000,173.205081 600.000000,207.846097 620.000000,173.205081" fill="green" stroke="black" stroke-width="0.5" />
<polygon points="620.000000,173.205081 640.000000,207.846097 660.000000,173.205081" fill="green" stroke="black" stroke-width="0.5" />
<polygon points="660.000000,173.205081 680.000000,207.846097 700.000000,173.205081" fill="green" stroke="black" stroke-width="0.5" />
<polygon points="700.000000,173.205081 720.000000,207.846097 740.000000,173.205081" fill="green" stroke="black" stroke-width="0.5" />
<polygon points="20.000000,207.846097 40.000000,242.487113 60.000000,207.846097" fill="green" stroke="black" stroke-width="0.5" />
<polygon points="60.000000,207.846097 80.000000,242.487113 100.000000,207.846097" fill="green" stroke="black" stroke-width="0.5" />
<polygon points="100.000000,207.846097 120.000000,242.487113 140.000000,207.846097" fill="green" stroke="black" stroke-width="0.5" />
<polygon points="140.000000,207.846097 160.000000,242.487113 180.000000,207.846097" fill="green" stroke="black" stroke-width="0.5" />
<polygon points="180.000000,207.846097 200.000000,242.487113 220.000000,207.846097" fill="green" stroke="black" stroke-width="0.5" />
<polygon points="220.000000,207.846097 240.000000,242.487113 260.000000,207.846097" fill="green" stroke="black" stroke-width="0.5" />
<polygon points="260.000000,207.846097 280.000000,242.487113 300.000000,207.846097" fill="green" stroke="black" stroke-width="0.5" />
<polygon points="300.000000,207.846097 320.000000,242.487113 340.000000,207.846097" fill="green" stroke="black" stroke-width="0.5" />
<polygon points="340.000000,207.846097 360.000000,242.487113 380.000000,207.846097" fill="green" stroke="black" stroke-width="0.5" />
<polygon points="380.000000,207.846097 400.000000,242.487113 420.000000,207.846097" fill="green" stroke="black" stroke-width="0.5" />
<polygon points="420.000000,207.846097 440.000000,242.487113 460.000000,207.846097" fill="green" stroke="black" stroke-width="0.5" />
<polygon points="460.000000,207.846097 480.000000,242.487113 500.000000,207.846097" fill="green" stroke="black" stroke-width="0.5" />
<polygon points="500.000000,207.846097 520.000000,242.487113 540.000000,207.846097" fill="green" stroke="black" stroke-width="0.5" />
<polygon points="540.000000,207.846097 560.000000,242.487113 580.000000,207.846097" fill="green" stroke="black" stroke-width="0.5" />
<polygon points="580.000000,207.846097 600.000000,242.487113 620.000000,207.846097" fill="green" stroke="black" stroke-width="0.5" />
<polygon points="620.000000,207.846097 640.000000,242.487113 660.000000,207.846097" fill="green" stroke="black" stroke-width="0.5" />
<polygon points="660.000000,207.846097 680.000000,242.487113 700.000000,207.846097" fill="green" stroke="black" stroke-width="0.5" />
<polygon points="700.000000,207.846097 720.000000,242.487113 740.000000,207.846097" fill="green" stroke="black" stroke-width="0.5" />
<polygon points="20.000000,242.487113 40.000000,277.128129 60.000000,242.487113" fill="green" stroke="black" stroke-width="0.5" />
<polygon points="60.000000,242.487113 80.000000,277.128129 100.000000,242.487113" fill="green" stroke="black" stroke-width="0.5" />
<polygon points="100.000000,242.487113 120.000000,277.128129 140.000000,242.487113" fill="green" stroke="black" stroke-width="0.5" />
<polygon points="140.000000,242.487113 160.000000,277.128129 180.000000,242.487113" fill="green" stroke="black" stroke-width="0.5" />
<polygon points="180.000000,242.487113 200.000000,277.128129 220.000000,242.487113" fill="green" stroke="black" stroke-width="0.5" />
<polygon points="220.000000,242.487113 240.000000,277.128129 260.000000,242.487113" fill="green" stroke="black" stroke-width="0.5" />
<polygon points="260.000000,242.487113 280.000000,277.128129 300.000000,242.487113" fill="green" stroke="black" stroke-width="0.5" />
<polygon points="300.000000,242.487113 320.000000,277.128129 340.000000,242.487113" fill="green" stroke="black" stroke-width="0.5" />
<polygon points="340.000000,242.487113 360.000000,277.128129 380.000000,242.487113" fill="green" stroke="black" stroke-width="0.5" />
<polygon points="380.000000,242.487113 400.000000,277.128129 420.000000,242.487113" fill="green" stroke="black" stroke-width="0.5" />
<polygon points="420.000000,242.487113 440.000000,277.128129 460.000000,242.487113" fill="green" stroke="black" stroke-width="0.5" />
<polygon points="460.000000,242.487113 480.000000,277.128129 500.000000,242.487113" fill="green" stroke="black" stroke-width="0.5" />
<polygon points="500.000000,242.487113 520.000000,277.128129 540.000000,242.487113" fill="green" stroke="black" stroke-width="0.5" />
<polygon points="540.000000,242.487113 560.000000,277.128129 580.000000,242.487113" fill="green" stroke="black" stroke-width="0.5" />
<polygon points="580.000000,242.487113 600.000000,277.128129 620.000000,242.487113" fill="green" stroke="black" stroke-width="0.5" />
<polygon points="620.000000,242.487113 640.000000,277.128129 660.000000,242.487113" fill="green" stroke="black" stroke-width="0.5" />
<polygon points="660.000000,242.487113 680.000000,277.128129 700.000000,242.487113" fill="green" stroke="black" stroke-width="0.5" />
<polygon points="700.000000,242.487113 720.000000,277.128129 740.000000,242.487113" fill="green" stroke="black" stroke-width="0.5" />
<polygon points="20.000000,277.128129 40.000000,311.769145 60.000000,277.128129" fill="green" stroke="black" stroke-width="0.5" />
<polygon points="60.000000,277.128129 80.000000,311.769145 100.000000,277.128129" fill="green" stroke="black" stroke-width="0.5" />
<polygon points="100.000000,277.128129 120.000000,311.769145 140.000000,277.128129" fill="green" stroke="black" stroke-width="0.5" />
<polygon points="140.000000,277.128129 160.000000,311.769145 180.000000,277.128129" fill="green" stroke="black" stroke-width="0.5" />
<polygon points="180.000000,277.128129 200.000000,311.769145 220.000000,277.128129" fill="green" stroke="black" stroke-width="0.5" />
<polygon points="220.000000,277.128129 240.000000,311.769145 260.000000,277.128129" fill="green" stroke="black" stroke-width="0.5" />
<polygon points="260.000000,277.128129 280.000000,311.769145 300.000000,277.128129" fill="green" stroke="black" stroke-width="0.5" />
<polygon points="300.000000,277.128129 320.000000,311.769145 340.000000,277.128129" fill="green" stroke="black" stroke-width="0.5" />
<polygon points="340.000000,277.128129 360.000000,311.769145 380.000000,277.128129" fill="green" stroke="black" stroke-width="0.5" />
<polygon points="380.000000,277.128129 400.000000,311.769145 420.000000,277.128129" fill="green" stroke="black" stroke-width="0.5" />
<polygon points="420.000000,277.128129 440.000000,311.769145 460.000000,277.128129" fill="green" stroke="black" stroke-width="0.5" />
<polygon points="460.000000,277.128129 480.000000,311.769145 500.000000,277.128129" fill="green" stroke="black" stroke-width="0.5" />
<polygon points="500.000000,277.128129 520.000000,311.769145 540.000000,277.128129" fill="green" stroke="black" stroke-width="0.5" />
<polygon points="540.000000,277.128129 560.000000,311.769145 580.000000,277.128129" fill="green" stroke="black" stroke-width="0.5" />
<polygon points="580.000000,277.128129 600.000000,311.769145 620.000000,277.128129" fill="green" stroke="black" stroke-width="0.5" />
<polygon points="620.000000,277.128129 640.000000,311.769145 660.000000,277.128129" fill="green" stroke="black" stroke-width="0.5" />
<polygon points="660.000000,277.128129 680.000000,311.769145 700.000000,277.128129" fill="green" stroke="black" stroke-width="0.5" />
<polygon points="700.000000,277.128129 720.000000,311.769145 740.000000,277.128129" fill="green" stroke="black" stroke-width="0.5" />
<polygon points="20.000000,311.769145 40.000000,346.410162 60.000000,311.769145" fill="green" stroke="black" stroke-width="0.5" />
<polygon points="60.000000,311.769145 80.000000,346.410162 100.000000,311.769145" fill="green" stroke="black" stroke-width="0.5" />
<polygon points="100.000000,311.769145 120.000000,346.410162 140.000000,311.769145" fill="green" stroke="black" stroke-width="0.5" />
<polygon points="140.000000,311.769145 160.000000,346.410162 180.000000,311.769145" fill="green" stroke="black" stroke-width="0.5" />
<polygon points="180.000000,311.769145 200.000000,346.410162 220.000000,311.769145" fill="green" stroke="black" stroke-width="0.5" />
<polygon points="220.000000,311.769145 240.000000,346.410162 260.000000,311.769145" fill="green" stroke="black" stroke-width="0.5" />
<polygon points="260.000000,311.769145 280.000000,346.410162 300.000000,311.769145" fill="green" stroke="black" stroke-width="0.5" />
<polygon points="300.000000,311.769145 320.000000,346.410162 340.000000,311.769145" fill="green" stroke="black" stroke-width="0.5" />
<polygon points="340.000000,311.769145 360.000000,346.410162 380.000000,311.769145" fill="green" stroke="black" stroke-width="0.5" />
<polygon points="380.000000,311.769145 400.000000,346.410162 420.000000,311.769145" fill="green" stroke="black" stroke-width="0.5" />
<polygon points="420.000000,311.769145 440.000000,346.410162 460.000000,311.769145" fill="green" stroke="black" stroke-width="0.5" />
<polygon points="460.000000,311.769145 480.000000,346.410162 500.000000,311.769145" fill="green" stroke="black" stroke-width="0.5" />
<polygon points="500.000000,311.769145 520.000000,346.410162 540.000000,311.769145" fill="green" stroke="black" stroke-width="0.5" />
<polygon points="540.000000,311.769145 560.000000,346.410162 580.000000,311.769145" fill="green" stroke="black" stroke-width="0.5" />
<polygon points="580.000000,311.769145 600.000000,346.410162 620.000000,311.769145" fill="green" stroke="black" stroke-width="0.5" />
<polygon points="620.000000,311.769145 640.000000,346.410162 660.000000,311.769145" fill="green" stroke="black" stroke-width="0.5" />
<polygon points="660.000000,311.769145 680.000000,346.410162 700.000000,311.769145" fill="green" stroke="black" stroke-width="0.5" />
<polygon points="700.000000,311.769145 720.000000,346.410162 740.000000,311.769145" fill="green" stroke="black" stroke-width="0.5" />
<polygon points="20.000000,346.410162 40.000000,381.051178 60.000000,346.410162" fill="green" stroke="black" stroke-width="0.5" />
<polygon points="60.000000,346.410162 80.000000,381.051178 100.000000,346.410162" fill="green" stroke="black" stroke-width="0.5" />
<polygon points="100.000000,346.410162 120.000000,381.051178 140.000000,346.410162" fill="green" stroke="black" stroke-width="0.5" />
<polygon points="140.000000,346.410162 160.000000,381.051178 180.000000,346.410162" fill="green" stroke="black" stroke-width="0.5" />
<polygon points="180.000000,346.410162 200.000000,381.051178 220.000000,346.410162" fill="green" stroke="black" stroke-width="0.5" />
<polygon points="220.000000,346.410162 240.000000,381.051178 260.000000,346.410162" fill="green" stroke="black" stroke-width="0.5" />
<polygon points="260.000000,346.410162 280.000000,381.051178 300.000000,346.410162" fill="green" stroke="black" stroke-width="0.5" />
<polygon points="300.000000,346.410162 320.000000,381.051178 340.000000,346.410162" fill="green" stroke="black" stroke-width="0.5" />
<polygon points="340.000000,346.410162 360.000000,381.051178 380.000000,346.410162" fill="green" stroke="black" stroke-width="0.5" />
<polygon points="380.000000,346.410162 400.000000,381.051178 420.000000,346.410162" fill="green" stroke="black" stroke-width="0.5" />
<polygon points="420.000000,346.410162 440.000000,381.051178 460.000000,346.410162" fill="green" stroke="black" stroke-width="0.5" />
<polygon points="460.000000,346.410162 480.000000,381.051178 500.000000,346.410162" fill="green" stroke="black" stroke-width="0.5" />
<polygon points="500.000000,346.410162 520.000000,381.051178 540.000000,346.410162" fill="green" stroke="black" stroke-width="0.5" />
<polygon points="540.000000,346.410162 560.000000,381.051178 580.000000,346.410162" fill="green" stroke="black" stroke-width="0.5" />
<polygon points="580.000000,346.410162 600.000000,381.051178 620.000000,346.410162" fill="green" stroke="black" stroke-width="0.5" />
<polygon points="620.000000,346.410162 640.000000,381.051178 660.000000,346.410162" fill="green" stroke="black" stroke-width="0.5" />
<polygon points="660.000000,346.410162 680.000000,381.051178 700.000000,346.410162" fill="green" stroke="black" stroke-width="0.5" />
<polygon points="700.000000,346.410162 720.000000,381.051178 740.000000,346.410162" fill="green" stroke="black" stroke-width="0.5" />
<polygon points="20.000000,381.051178 40.000000,415.692194 60.000000,381.051178" fill="green" stroke="black" stroke-width="0.5" />
<polygon points="60.000000,381.051178 80.000000,415.692194 100.000000,381.051178" fill="green" stroke="black" stroke-width="0.5" />
<polygon points="100.000000,381.051178 120.000000,415.692194 140.000000,381.051178" fill="green" stroke="black" stroke-width="0.5" />
<polygon points="140.000000,381.051178 160.000000,415.692194 180.000000,381.051178" fill="green" stroke="black" stroke-width="0.5" />
<polygon points="180.000000,381.051178 200.000000,415.692194 220.000000,381.051178" fill="green" stroke="black" stroke-width="0.5" />
<polygon points="220.000000,381.051178 240.000000,415.692194 260.000000,381.051178" fill="green" stroke="black" stroke-width="0.5" />
<polygon points="260.000000,381.051178 280.000000,415.692194 300.000000,381.051178" fill="green" stroke="black" stroke-width="0.5" />
<polygon points="300.000000,381.051178 320.000000,415.692194 340.000000,381.051178" fill="green" stroke="black" stroke-width="0.5" />
<polygon points="340.000000,381.051178 360.000000,415.692194 380.000000,381.051178" fill="green" stroke="black" stroke-width="0.5" />
<polygon points="380.000000,381.051178 400.000000,415.692194 420.000000,381.051178" fill="green" stroke="black" stroke-width="0.5" />
<polygon points="420.000000,381.051178 440.000000,415.692194 460.000000,381.051178" fill="green" stroke="black" stroke-width="0.5" />
<polygon points="460.000000,381.051178 480.000000,415.692194 500.000000,381.051178" fill="green" stroke="black" stroke-width="0.5" />
<polygon points="500.000000,381.051178 520.000000,415.692194 540.000000,381.051178" fill="green" stroke="black" stroke-width="0.5" />
<polygon points="540.000000,381.051178 560.000000,415.692194 580.000000,381.051178" fill="green" stroke="black" stroke-width="0.5" />
<polygon points="580.000000,381.051178 600.000000,415.692194 620.000000,381.051178" fill="green" stroke="black" stroke-width="0.5" />
<polygon points="620.000000,381.051178 640.000000,415.692194 660.000000,381.051178" fill="green" stroke="black" stroke-width="0.5" />
<polygon points="660.000000,381.051178 680.000000,415.692194 700.000000,381.051178" fill="green" stroke="black" stroke-width="0.5" />
<polygon points="700.000000,381.051178 720.000000,415.692194 740.000000,381.051178" fill="green" stroke="black" stroke-width="0.5" />
<polygon points="20.000000,415.692194 40.000000,450.333210 60.000000,415.692194" fill="green" stroke="black" stroke-width="0.5" />
<polygon points="60.000000,415.692194 80.000000,450.333210 100.000000,415.692194" fill="green" stroke="black" stroke-width="0.5" />
<polygon points="100.000000,415.692194 120.000000,450.333210 140.000000,415.692194" fill="green" stroke="black" stroke-width="0.5" />
<polygon points="140.000000,415.692194 160.000000,450.333210 180.000000,415.692194" fill="green" stroke="black" stroke-width="0.5" />
<polygon points="180.000000,415.692194 200.000000,450.333210 220.000000,415.692194" fill="green" stroke="black" stroke-width="0.5" />
<polygon points="220.000000,415.692194 240.000000,450.333210 260.000000,415.692194" fill="green" stroke="black" stroke-width="0.5" />
<polygon points="260.000000,415.692194 280.000000,450.333210 300.000000,415.692194" fill="green" stroke="black" stroke-width="0.5" />
<polygon points="300.000000,415.692194 320.000000,450.333210 340.000000,415.692194" fill="green" stroke="black" stroke-width="0.5" />
<polygon points="340.000000,415.692194 360.000000,450.333210 380.000000,415.692194" fill="green" stroke="black" stroke-width="0.5" />
<polygon points="380.000000,415.692194 400.000000,450.333210 420.000000,415.692194" fill="green" stroke="black" stroke-width="0.5" />
<polygon points="420.000000,415.692194 440.000000,450.333210 460.000000,415.692194" fill="green" stroke="black" stroke-width="0.5" />
<polygon points="460.000000,415.692194 480.000000,450.333210 500.000000,415.692194" fill="green" stroke="black" stroke-width="0.5" />
<polygon points="500.000000,415.692194 520.000000,450.333210 540.000000,415.692194" fill="green" stroke="black" stroke-width="0.5" />
<polygon points="540.000000,415.692194 560.000000,450.333210 580.000000,415.692194" fill="green" stroke="black" stroke-width="0.5" />
<polygon points="580.000000,415.692194 600.000000,450.333210 620.000000,415.692194" fill="green" stroke="black" stroke-width="0.5" />
<polygon points="620.000000,415.692194 640.000000,450.333210 660.000000,415.692194" fill="green" stroke="black" stroke-width="0.5" />
<polygon points="660.000000,415.692194 680.000000,450.333210 700.000000,415.692194" fill="green" stroke="black" stroke-width="0.5" />
<polygon points="700.000000,415.692194 720.000000,450.333210 740.000000,415.692194" fill="green" stroke="black" stroke-width="0.5" />
<polygon points="20.000000,450.333210 40.000000,484.974226 60.000000,450.333210" fill="green" stroke="black" stroke-width="0.5" />
<polygon points="60.000000,450.333210 80.000000,484.974226 100.000000,450.333210" fill="green" stroke="black" stroke-width="0.5" />
<polygon points="100.000000,450.333210 120.000000,484.974226 140.000000,450.333210" fill="green" stroke="black" stroke-width="0.5" />
<polygon points="140.000000,450.333210 160.000000,484.974226 180.000000,450.333210" fill="green" stroke="black" stroke-width="0.5" />
<polygon points="180.000000,450.333210 200.000000,484.974226 220.000000,450.333210" fill="green" stroke="black" stroke-width="0.5" />
<polygon points="220.000000,450.333210 240.000000,484.974226 260.000000,450.333210" fill="green" stroke="black" stroke-width="0.5" />
<polygon points="260.000000,450.333210 280.000000,484.974226 300.000000,450.333210" fill="green" stroke="black" stroke-width="0.5" />
<polygon points="300.000000,450.333210 320.000000,484.974226 340.000000,450.333210" fill="green" stroke="black" stroke-width="0.5" />
<polygon points="340.000000,450.333210 360.000000,484.974226 380.000000,450.333210" fill="green" stroke="black" stroke-width="0.5" />
<polygon points="380.000000,450.333210 400.000000,484.974226 420.000000,450.333210" fill="green" stroke="black" stroke-width="0.5" />
<polygon points="420.000000,450.333210 440.000000,484.974226 460.000000,450.333210" fill="green" stroke="black" stroke-width="0.5" />
<polygon points="460.000000,450.333210 480.000000,484.974226 500.000000,450.333210" fill="green" stroke="black" stroke-width="0.5" />
<polygon points="500.000000,450.333210 520.000000,484.974226 540.000000,450.333210" fill="green" stroke="black" stroke-width="0.5" />
<polygon points="540.000000,450.333210 560.000000,484.974226 580.000000,450.333210" fill="green" stroke="black" stroke-width="0.5" />
<polygon points="580.000000,450.333210 600.000000,484.974226 620.000000,450.333210" fill="green" stroke="black" stroke-width="0.5" />
<polygon points="620.000000,450.333210 640.000000,484.974226 660.000000,450.333210" fill="green" stroke="black" stroke-width="0.5" />
<polygon points="660.000000,450.333210 680.000000,484.974226 700.000000,450.333210" fill="green" stroke="black" stroke-width="0.5" />
<polygon points="700.000000,450.333210 720.000000,484.974226 740.000000,450.333210" fill="green" stroke="black" stroke-width="0.5" />
</svg>