<svg version="1.1" baseProfile="full" xmlns="http://www.w3.org/2000/svg">
<circle cx="300.000000" cy="300.000000" r="300.000000" fill="red" stroke="black" stroke-width="0.5" />
<circle cx="300.000000" cy="15.000000" r="15.000000" transform="rotate(0.000000 300.000000 300.000000)" fill="green" stroke="black" stroke-width="0.5" />
<circle cx="300.000000" cy="15.000000" r="15.000000" transform="rotate(6.101695 300.000000 300.000000)" fill="green" stroke="black" stroke-width="0.5" />
<circle cx="300.000000" cy="15.000000" r="15.000000" transform="rotate(12.203390 300.000000 300.000000)" fill="green" stroke="black" stroke-width="0.5" />
<circle cx="300.000000" cy="15.000000" r="15.000000" transform="rotate(18.305085 300.000000 300.000000)" fill="green" stroke="black" stroke-width="0.5" />
<circle cx="300.000000" cy="15.000000" r="15.000000" transform="rotate(24.406780 300.000000 300.000000)" fill="green" stroke="black" stroke-width="0.5" />
<circle cx="300.000000" cy="15.000000" r="15.000000" transform="rotate(30.508475 300.000000 300.000000)" fill="green" stroke="black" stroke-width="0.5" />
<circle cx="300.000000" cy="15.000000" r="15.000000" transform="rotate(36.610169 300.000000 300.000000)" fill="green" stroke="black" stroke-width="0.5" />
<circle cx="300.000000" cy="15.000000" r="15.000000" transform="rotate(42.711864 300.000000 300.000000)" fill="green" stroke="black" stroke-width="0.5" />
<circle cx="300.000000" cy="15.000000" r="15.000000" transform="rotate(48.813559 300.000000 300.000000)" fill="green" stroke="black" stroke-width="0.5" />
<circle cx="300.000000" cy="15.000000" r="15.000000" transform="rotate(54.915254 300.000000 300.000000)" fill="green" stroke="black" stroke-width="0.5" />
<circle cx="300.000000" cy="15.000000" r="15.000000" transform="rotate(61.016949 300.000000 300.000000)" fill="green" stroke="black" stroke-width="0.5" />
<circle cx="300.000000" cy="15.000000" r="15.000000" transform="rotate(67.118644 300.000000 300.000000)" fill="green" stroke="black" stroke-width="0.5" />
<circle cx="300.000000" cy="15.000000" r="15.000000" transform="rotate(73.220339 300.000000 300.000000)" fill="green" stroke="black" stroke-width="0.5" />
<circle cx="300.000000" cy="15.000000" r="15.000000" transform="rotate(79.322034 300.000000 300.000000)" fill="green" stroke="black" stroke-width="0.5" />
<circle cx="300.000000" cy="15.000000" r="15.000000" transform="rotate(85.423729 300.000000 300.000000)" fill="green" stroke="black" stroke-width="0.5" />
<circle cx="300.000000" cy="15.000000" r="15.000000" transform="rotate(91.525424 300.000000 300.000000)" fill="green" stroke="black" stroke-width="0.5" />
<circle cx="300.000000" cy="15.000000" r="15.000000" transform="rotate(97.627119 300.000000 300.000000)" fill="green" stroke="black" stroke-width="0.5" />
<circle cx="300.000000" cy="15.000000" r="15.000000" transform="rotate(103.728814 300.000000 300.000000)" fill="green" stroke="black" stroke-width="0.5" />
<circle cx="300.000000" cy="15.000000" r="15.000000" transform="rotate(109.830508 300.000000 300.000000)" fill="green" stroke="black" stroke-width="0.5" />
<circle cx="300.000000" cy="15.000000" r="15.000000" transform="rotate(115.932203 300.000000 300.000000)" fill="green" stroke="black" stroke-width="0.5" />
<circle cx="300.000000" cy="15.000000" r="15.000000" transform="rotate(122.033898 300.000000 300.000000)" fill="green" stroke="black" stroke-width="0.5" />
<circle cx="300.000000" cy="15.000000" r="15.000000" transform="rotate(128.135593 300.000000 300.000000)" fill="green" stroke="black" stroke-width="0.5" />
<circle cx="300.000000" cy="15.000000" r="15.000000" transform="rotate(134.237288 300.000000 300.000000)" fill="green" stroke="black" stroke-width="0.5" />
<circle cx="300.000000" cy="15.000000" r="15.000000" transform="rotate(140.338983 300.000000 300.000000)" fill="green" stroke="black" stroke-width="0.5" />
<circle cx="300.000000" cy="15.000000" r="15.000000" transform="rotate(146.440678 300.000000 300.000000)" fill="green" stroke="black" stroke-width="0.5" />
<circle cx="300.000000" cy="15.000000" r="15.000000" transform="rotate(152.542373 300.000000 300.000000)" fill="green" stroke="black" stroke-width="0.5" />
<circle cx="300.000000" cy="15.000000" r="15.000000" transform="rotate(158.644068 300.000000 300.000000)" fill="green" stroke="black" stroke-width="0.5" />
<circle cx="300.000000" cy="15.000000" r="15.000000" transform="rotate(164.745763 300.000000 300.000000)" fill="green" stroke="black" stroke-width="0.5" />
<circle cx="300.000000" cy="15.000000" r="15.000000" transform="rotate(170.847458 300.000000 300.000000)" fill="green" stroke="black" stroke-width="0.5" />
<circle cx="300.000000" cy="15.000000" r="15.000000" transform="rotate(176.949153 300.000000 300.000000)" fill="green" stroke="black" stroke-width="0.5" />
<circle cx="300.000000" cy="15.000000" r="15.000000" transform="rotate(183.050847 300.000000 300.000000)" fill="green" stroke="black" stroke-width="0.5" />
<circle cx="300.000000" cy="15.000000" r="15.000000" transform="rotate(189.152542 300.000000 300.000000)" fill="green" stroke="black" stroke-width="0.5" />
<circle cx="300.000000" cy="15.000000" r="15.000000" transform="rotate(195.254237 300.000000 300.000000)" fill="green" stroke="black" stroke-width="0.5" />
<circle cx="300.000000" cy="15.000000" r="15.000000" transform="rotate(201.355932 300.000000 300.000000)" fill="green" stroke="black" stroke-width="0.5" />
<circle cx="300.000000" cy="15.000000" r="15.000000" transform="rotate(207.457627 300.000000 300.000000)" fill="green" stroke="black" stroke-width="0.5" />
<circle cx="300.000000" cy="15.000000" r="15.000000" transform="rotate(213.559322 300.000000 300.000000)" fill="green" stroke="black" stroke-width="0.5" />
<circle cx="300.000000" cy="15.000000" r="15.000000" transform="rotate(219.661017 300.000000 300.000000)" fill="green" stroke="black" stroke-width="0.5" />
<circle cx="300.000000" cy="15.000000" r="15.000000" transform="rotate(225.762712 300.000000 300.000000)" fill="green" stroke="black" stroke-width="0.5" />
<circle cx="300.000000" cy="15.000000" r="15.000000" transform="rotate(231.864407 300.000000 300.000000)" fill="green" stroke="black" stroke-width="0.5" />
<circle cx="300.000000" cy="15.000000" r="15.000000" transform="rotate(237.966102 300.000000 300.000000)" fill="green" stroke="black" stroke-width="0.5" />
<circle cx="300.000000" cy="15.000000" r="15.000000" transform="rotate(244.067797 300.000000 300.000000)" fill="green" stroke="black" stroke-width="0.5" />
<circle cx="300.000000" cy="15.000000" r="15.000000" transform="rotate(250.169492 300.000000 300.000000)" fill="green" stroke="black" stroke-width="0.5" />
<circle cx="300.000000" cy="15.000000" r="15.000000" transform="rotate(256.271186 300.000000 300.000000)" fill="green" stroke="black" stroke-width="0.5" />
<circle cx="300.000000" cy="15.000000" r="15.000000" transform="rotate(262.372881 300.000000 300.000000)" fill="green" stroke="black" stroke-width="0.5" />
<circle cx="300.000000" cy="15.000000" r="15.000000" transform="rotate(268.474576 300.000000 300.000000)" fill="green" stroke="black" stroke-width="0.5" />
<circle cx="300.000000" cy="15.000000" r="15.000000" transform="rotate(274.576271 300.000000 300.000000)" fill="green" stroke="black" stroke-width="0.5" />
<circle cx="300.000000" cy="15.000000" r="15.000000" transform="rotate(280.677966 300.000000 300.000000)" fill="green" stroke="black" stroke-width="0.5" />
<circle cx="300.000000" cy="15.000000" r="15.000000" transform="rotate(286.779661 300.000000 300.000000)" fill="green" stroke="black" stroke-width="0.5" />
<circle cx="300.000000" cy="15.000000" r="15.000000" transform="rotate(292.881356 300.000000 300.000000)" fill="green" stroke="black" stroke-width="0.5" />
<circle cx="300.000000" cy="15.000000" r="15.000000" transform="rotate(298.983051 300.000000 300.000000)" fill="green" stroke="black" stroke-width="0.5" />
<circle cx="300.000000" cy="15.000000" r="15.000000" transform="rotate(305.084746 300.000000 300.000000)" fill="green" stroke="black" stroke-width="0.5" />
<circle cx="300.000000" cy="15.000000" r="15.000000" transform="rotate(311.186441 300.000000 300.000000)" fill="green" stroke="black" stroke-width="0.5" />
<circle cx="300.000000" cy="15.000000" r="15.000000" transform="rotate(317.288136 300.000000 300.000000)" fill="green" stroke="black" stroke-width="0.5" />
<circle cx="300.000000" cy="15.000000" r="15.000000" transform="rotate(323.389831 300.000000 300.000000)" fill="green" stroke="black" stroke-width="0.5" />
<circle cx="300.000000" cy="15.000000" r="15.000000" transform="rotate(329.491525 300.000000 300.000000)" fill="green" stroke="black" stroke-width="0.5" />
<circle cx="300.000000" cy="15.000000" r="15.000000" transform="rotate(335.593220 300.000000 300.000000)" fill="green" stroke="black" stroke-width="0.5" />
<circle cx="300.000000" cy="15.000000" r="15.000000" transform="rotate(341.694915 300.000000 300.000000)" fill="green" stroke="black" stroke-width="0.5" />
<circle cx="300.000000" cy="15.000000" r="15.000000" transform="rotate(347.796610 300.000000 300.000000)" fill="green" stroke="black" stroke-width="0.5" />
<circle cx="300.000000" cy="15.000000" r="15.000000" transform="rotate(353.898305 300.000000 300.000000)" fill="green" stroke="black" stroke-width="0.5" />
<circle cx="300.000000" cy="45.000000" r="15.000000" transform="rotate(0.000000 300.000000 300.000000)" fill="green" stroke="black" stroke-width="0.5" />
<circle cx="300.000000" cy="45.000000" r="15.000000" transform="rotate(6.792453 300.000000 300.000000)" fill="green" stroke="black" stroke-width="0.5" />
<circle cx="300.000000" cy="45.000000" r="15.000000" transform="rotate(13.584906 300.000000 300.000000)" fill="green" stroke="black" stroke-width="0.5" />
<circle cx="300.000000" cy="45.000000" r="15.000000" transform="rotate(20.377358 300.000000 300.000000)" fill="green" stroke="black" stroke-width="0.5" />
<circle cx="300.000000" cy="45.000000" r="15.000000" transform="rotate(27.169811 300.000000 300.000000)" fill="green" stroke="black" stroke-width="0.5" />
<circle cx="300.000000" cy="45.000000" r="15.000000" transform="rotate(33.962264 300.000000 300.000000)" fill="green" stroke="black" stroke-width="0.5" />
<circle cx="300.000000" cy="45.000000" r="15.000000" transform="rotate(40.754717 300.000000 300.000000)" fill="green" stroke="black" stroke-width="0.5" />
<circle cx="300.000000" cy="45.000000" r="15.000000" transform="rotate(47.547170 300.000000 300.000000)" fill="green" stroke="black" stroke-width="0.5" />
<circle cx="300.000000" cy="45.000000" r="15.000000" transform="rotate(54.339623 300.000000 300.000000)" fill="green" stroke="black" stroke-width="0.5" />
<circle cx="300.000000" cy="45.000000" r="15.000000" transform="rotate(61.132075 300.000000 300.000000)" fill="green" stroke="black" stroke-width="0.5" />
<circle cx="300.000000" cy="45.000000" r="15.000000" transform="rotate(67.924528 300.000000 300.000000)" fill="green" stroke="black" stroke-width="0.5" />
<circle cx="300.000000" cy="45.000000" r="15.000000" transform="rotate(74.716981 300.000000 300.000000)" fill="green" stroke="black" stroke-width="0.5" />
<circle cx="300.000000" cy="45.000000" r="15.000000" transform="rotate(81.509434 300.000000 300.000000)" fill="green" stroke="black" stroke-width="0.5" />
<circle cx="300.000000" cy="45.000000" r="15.000000" transform="rotate(88.301887 300.000000 300.000000)" fill="green" stroke="black" stroke-width="0.5" />
<circle cx="300.000000" cy="45.000000" r="15.000000" transform="rotate(95.094340 300.000000 300.000000)" fill="green" stroke="black" stroke-width="0.5" />
<circle cx="300.000000" cy="45.000000" r="15.000000" transform="rotate(101.886792 300.000000 300.000000)" fill="green" stroke="black" stroke-width="0.5" />
<circle cx="300.000000" cy="45.000000" r="15.000000" transform="rotate(108.679245 300.000000 300.000000)" fill="green" stroke="black" stroke-width="0.5" />
<circle cx="300.000000" cy="45.000000" r="15.000000" transform="rotate(115.471698 300.000000 300.000000)" fill="green" stroke="black" stroke-width="0.5" />
<circle cx="300.000000" cy="45.000000" r="15.000000" transform="rotate(122.264151 300.000000 300.000000)" fill="green" stroke="black" stroke-width="0.5" />
<circle cx="300.000000" cy="45.000000" r="15.000000" transform="rotate(129.056604 300.000000 300.000000)" fill="green" stroke="black" stroke-width="0.5" />
<circle cx="300.000000" cy="45.000000" r="15.000000" transform="rotate(135.849057 300.000000 300.000000)" fill="green" stroke="black" stroke-width="0.5" />
<circle cx="300.000000" cy="45.000000" r="15.000000" transform="rotate(142.641509 300.000000 300.000000)" fill="green" stroke="black" stroke-width="0.5" />
<circle cx="300.000000" cy="45.000000" r="15.000000" transform="rotate(149.433962 300.000000 300.000000)" fill="green" stroke="black" stroke-width="0.5" />
<circle cx="300.000000" cy="45.000000" r="15.000000" transform="rotate(156.226415 300.000000 300.000000)" fill="green" stroke="black" stroke-width="0.5" />
<circle cx="300.000000" cy="45.000000" r="15.000000" transform="rotate(163.018868 300.000000 300.000000)" fill="green" stroke="black" stroke-width="0.5" />
<circle cx="300.000000" cy="45.000000" r="15.000000" transform="rotate(169.811321 300.000000 300.000000)" fill="green" stroke="black" stroke-width="0.5" />
<circle cx="300.000000" cy="45.000000" r="15.000000" transform="rotate(176.603774 300.000000 300.000000)" fill="green" stroke="black" stroke-width="0.5" />
<circle cx="300.000000" cy="45.000000" r="15.000000" transform="rotate(183.396226 300.000000 300.000000)" fill="green" stroke="black" stroke-width="0.5" />
<circle cx="300.000000" cy="45.000000" r="15.000000" transform="rotate(190.188679 300.000000 300.000000)" fill="green" stroke="black" stroke-width="0.5" />
<circle cx="300.000000" cy="45.000000" r="15.000000" transform="rotate(196.981132 300.000000 300.000000)" fill="green" stroke="black" stroke-width="0.5" />
<circle cx="300.000000" cy="45.000000" r="15.000000" transform="rotate(203.773585 300.000000 300.000000)" fill="green" stroke="black" stroke-width="0.5" />
<circle cx="300.000000" cy="45.000000" r="15.000000" transform="rotate(210.566038 300.000000 300.000000)" fill="green" stroke="black" stroke-width="0.5" />
<circle cx="300.000000" cy="45.000000" r="15.000000" transform="rotate(217.358491 300.000000 300.000000)" fill="green" stroke="black" stroke-width="0.5" />
<circle cx="300.000000" cy="45.000000" r="15.000000" transform="rotate(224.150943 300.000000 300.000000)" fill="green" stroke="black" stroke-width="0.5" />
<circle cx="300.000000" cy="45.000000" r="15.000000" transform="rotate(230.943396 300.000000 300.000000)" fill="green" stroke="black" stroke-width="0.5" />
<circle cx="300.000000" cy="45.000000" r="15.000000" transform="rotate(237.735849 300.000000 300.000000)" fill="green" stroke="black" stroke-width="0.5" />
<circle cx="300.000000" cy="45.000000" r="15.000000" transform="rotate(244.528302 300.000000 300.000000)" fill="green" stroke="black" stroke-width="0.5" />
<circle cx="300.000000" cy="45.000000" r="15.000000" transform="rotate(251.320755 300.000000 300.000000)" fill="green" stroke="black" stroke-width="0.5" />
<circle cx="300.000000" cy="45.000000" r="15.000000" transform="rotate(258.113208 300.000000 300.000000)" fill="green" stroke="black" stroke-width="0.5" />
<circle cx="300.000000" cy="45.000000" r="15.000000" transform="rotate(264.905660 300.000000 300.000000)" fill="green" stroke="black" stroke-width="0.5" />
<circle cx="300.000000" cy="45.000000" r="15.000000" transform="rotate(271.698113 300.000000 300.000000)" fill="green" stroke="black" stroke-width="0.5" />
<circle cx="300.000000" cy="45.000000" r="15.000000" transform="rotate(278.490566 300.000000 300.000000)" fill="green" stroke="black" stroke-width="0.5" />
<circle cx="300.000000" cy="45.000000" r="15.000000" transform="rotate(285.283019 300.000000 300.000000)" fill="green" stroke="black" stroke-width="0.5" />
<circle cx="300.000000" cy="45.000000" r="15.000000" transform="rotate(292.075472 300.000000 300.000000)" fill="green" stroke="black" stroke-width="0.5" />
<circle cx="300.000000" cy="45.000000" r="15.000000" transform="rotate(298.867925 300.000000 300.000000)" fill="green" stroke="black" stroke-width="0.5" />
<circle cx="300.000000" cy="45.000000" r="15.000000" transform="rotate(305.660377 300.000000 300.000000)" fill="green" stroke="black" stroke-width="0.5" />
<circle cx="300.000000" cy="45.000000" r="15.000000" transform="rotate(312.452830 300.000000 300.000000)" fill="green" stroke="black" stroke-width="0.5" />
<circle cx="300.000000" cy="45.000000" r="15.000000" transform="rotate(319.245283 300.000000 300.000000)" fill="green" stroke="black" stroke-width="0.5" />
<circle cx="300.000000" cy="45.000000" r="15.000000" transform="rotate(326.037736 300.000000 300.000000)" fill="green" stroke="black" stroke-width="0.5" />
<circle cx="300.000000" cy="45.000000" r="15.000000" transform="rotate(332.830189 300.000000 300.000000)" fill="green" stroke="black" stroke-width="0.5" />
<circle cx="300.000000" cy="45.000000" r="15.000000" transform="rotate(339.622642 300.000000 300.000000)" fill="green" stroke="black" stroke-width="0.5" />
<circle cx="300.000000" cy="45.000000" r="15.000000" transform="rotate(346.415094 300.000000 300.000000)" fill="green" stroke="black" stroke-width="0.5" />
<circle cx="300.000000" cy="45.000000" r="15.000000" transform="rotate(353.207547 300.000000 300.000000)" fill="green" stroke="black" stroke-width="0.5" />
<circle cx="300.000000" cy="75.000000" r="15.000000" transform="rotate(0.000000 300.000000 300.000000)" fill="green" stroke="black" stroke-width="0.5" />
<circle cx="300.000000" cy="75.000000" r="15.000000" transform="rotate(7.659574 300.000000 300.000000)" fill="green" stroke="black" stroke-width="0.5" />
<circle cx="300.000000" cy="75.000000" r="15.000000" transform="rotate(15.319149 300.000000 300.000000)" fill="green" stroke="black" stroke-width="0.5" />
<circle cx="300.000000" cy="75.000000" r="15.000000" transform="rotate(22.978723 300.000000 300.000000)" fill="green" stroke="black" stroke-width="0.5" />
<circle cx="300.000000" cy="75.000000" r="15.000000" transform="rotate(30.638298 300.000000 300.000000)" fill="green" stroke="black" stroke-width="0.5" />
<circle cx="300.000000" cy="75.000000" r="15.000000" transform="rotate(38.297872 300.000000 300.000000)" fill="green" stroke="black" stroke-width="0.5" />
<circle cx="300.000000" cy="75.000000" r="15.000000" transform="rotate(45.957447 300.000000 300.000000)" fill="green" stroke="black" stroke-width="0.5" />
<circle cx="300.000000" cy="75.000000" r="15.000000" transform="rotate(53.617021 300.000000 300.000000)" fill="green" stroke="black" stroke-width="0.5" />
<circle cx="300.000000" cy="75.000000" r="15.000000" transform="rotate(61.276596 300.000000 300.000000)" fill="green" stroke="black" stroke-width="0.5" />
<circle cx="300.000000" cy="75.000000" r="15.000000" transform="rotate(68.936170 300.000000 300.000000)" fill="green" stroke="black" stroke-width="0.5" />
<circle cx="300.000000" cy="75.000000" r="15.000000" transform="rotate(76.595745 300.000000 300.000000)" fill="green" stroke="black" stroke-width="0.5" />
<circle cx="300.000000" cy="75.000000" r="15.000000" transform="rotate(84.255319 300.000000 300.000000)" fill="green" stroke="black" stroke-width="0.5" />
<circle cx="300.000000" cy="75.000000" r="15.000000" transform="rotate(91.914894 300.000000 300.000000)" fill="green" stroke="black" stroke-width="0.5" />
<circle cx="300.000000" cy="75.000000" r="15.000000" transform="rotate(99.574468 300.000000 300.000000)" fill="green" stroke="black" stroke-width="0.5" />
<circle cx="300.000000" cy="75.000000" r="15.000000" transform="rotate(107.234043 300.000000 300.000000)" fill="green" stroke="black" stroke-width="0.5" />
<circle cx="300.000000" cy="75.000000" r="15.000000" transform="rotate(114.893617 300.000000 300.000000)" fill="green" stroke="black" stroke-width="0.5" />
<circle cx="300.000000" cy="75.000000" r="15.000000" transform="rotate(122.553191 300.000000 300.000000)" fill="green" stroke="black" stroke-width="0.5" />
<circle cx="300.000000" cy="75.000000" r="15.000000" transform="rotate(130.212766 300.000000 300.000000)" fill="green" stroke="black" stroke-width="0.5" />
<circle cx="300.000000" cy="75.000000" r="15.000000" transform="rotate(137.872340 300.000000 300.000000)" fill="green" stroke="black" stroke-width="0.5" />
<circle cx="300.000000" cy="75.000000" r="15.000000" transform="rotate(145.531915 300.000000 300.000000)" fill="green" stroke="black" stroke-width="0.5" />
<circle cx="300.000000" cy="75.000000" r="15.000000" transform="rotate(153.191489 300.000000 300.000000)" fill="green" stroke="black" stroke-width="0.5" />
<circle cx="300.000000" cy="75.000000" r="15.000000" transform="rotate(160.851064 300.000000 300.000000)" fill="green" stroke="black" stroke-width="0.5" />
<circle cx="300.000000" cy="75.000000" r="15.000000" transform="rotate(168.510638 300.000000 300.000000)" fill="green" stroke="black" stroke-width="0.5" />
<circle cx="300.000000" cy="75.000000" r="15.000000" transform="rotate(176.170213 300.000000 300.000000)" fill="green" stroke="black" stroke-width="0.5" />
<circle cx="300.000000" cy="75.000000" r="15.000000" transform="rotate(183.829787 300.000000 300.000000)" fill="green" stroke="black" stroke-width="0.5" />
<circle cx="300.000000" cy="75.000000" r="15.000000" transform="rotate(191.489362 300.000000 300.000000)" fill="green" stroke="black" stroke-width="0.5" />
<circle cx="300.000000" cy="75.000000" r="15.000000" transform="rotate(199.148936 300.000000 300.000000)" fill="green" stroke="black" stroke-width="0.5" />
<circle cx="300.000000" cy="75.000000" r="15.000000" transform="rotate(206.808511 300.000000 300.000000)" fill="green" stroke="black" stroke-width="0.5" />
<circle cx="300.000000" cy="75.000000" r="15.000000" transform="rotate(214.468085 300.000000 300.000000)" fill="green" stroke="black" stroke-width="0.5" />
<circle cx="300.000000" cy="75.000000" r="15.000000" transform="rotate(222.127660 300.000000 300.000000)" fill="green" stroke="black" stroke-width="0.5" />
<circle cx="300.000000" cy="75.000000" r="15.000000" transform="rotate(229.787234 300.000000 300.000000)" fill="green" stroke="black" stroke-width="0.5" />
<circle cx="300.000000" cy="75.000000" r="15.000000" transform="rotate(237.446809 300.000000 300.000000)" fill="green" stroke="black" stroke-width="0.5" />
<circle cx="300.000000" cy="75.000000" r="15.000000" transform="rotate(245.106383 300.000000 300.000000)" fill="green" stroke="black" stroke-width="0.5" />
<circle cx="300.000000" cy="75.000000" r="15.000000" transform="rotate(252.765957 300.000000 300.000000)" fill="green" stroke="black" stroke-width="0.5" />
<circle cx="300.000000" cy="75.000000" r="15.000000" transform="rotate(260.425532 300.000000 300.000000)" fill="green" stroke="black" stroke-width="0.5" />
<circle cx="300.000000" cy="75.000000" r="15.000000" transform="rotate(268.085106 300.000000 300.000000)" fill="green" stroke="black" stroke-width="0.5" />
<circle cx="300.000000" cy="75.000000" r="15.000000" transform="rotate(275.744681 300.000000 300.000000)" fill="green" stroke="black" stroke-width="0.5" />
<circle cx="300.000000" cy="75.000000" r="15.000000" transform="rotate(283.404255 300.000000 300.000000)" fill="green" stroke="black" stroke-width="0.5" />
<circle cx="300.000000" cy="75.000000" r="15.000000" transform="rotate(291.063830 300.000000 300.000000)" fill="green" stroke="black" stroke-width="0.5" />
<circle cx="300.000000" cy="75.000000" r="15.000000" transform="rotate(298.723404 300.000000 300.000000)" fill="green" stroke="black" stroke-width="0.5" />
<circle cx="300.000000" cy="75.000000" r="15.000000" transform="rotate(306.382979 300.000000 300.000000)" fill="green" stroke="black" stroke-width="0.5" />
<circle cx="300.000000" cy="75.000000" r="15.000000" transform="rotate(314.042553 300.000000 300.000000)" fill="green" stroke="black" stroke-width="0.5" />
<circle cx="300.000000" cy="75.000000" r="15.000000" transform="rotate(321.702128 300.000000 300.000000)" fill="green" stroke="black" stroke-width="0.5" />
<circle cx="300.000000" cy="75.000000" r="15.000000" transform="rotate(329.361702 300.000000 300.000000)" fill="green" stroke="black" stroke-width="0.5" />
<circle cx="300.000000" cy="75.000000" r="15.000000" transform="rotate(337.021277 300.000000 300.000000)" fill="green" stroke="black" stroke-width="0.5" />
<circle cx="300.000000" cy="75.000000" r="15.000000" transform="rotate(344.680851 300.000000 300.000000)" fill="green" stroke="black" stroke-width="0.5" />
<circle cx="300.000000" cy="75.000000" r="15.000000" transform="rotate(352.340426 300.000000 300.000000)" fill="green" stroke="black" stroke-width="0.5" />
<circle cx="300.000000" cy="105.000000" r="15.000000" transform="rotate(0.000000 300.000000 300.000000)" fill="green" stroke="black" stroke-width="0.5" />
<circle cx="300.000000" cy="105.000000" r="15.000000" transform="rotate(9.000000 300.000000 300.000000)" fill="green" stroke="black" stroke-width="0.5" />
<circle cx="300.000000" cy="105.000000" r="15.000000" transform="rotate(18.000000 300.000000 300.000000)" fill="green" stroke="black" stroke-width="0.5" />
<circle cx="300.000000" cy="105.000000" r="15.000000" transform="rotate(27.000000 300.000000 300.000000)" fill="green" stroke="black" stroke-width="0.5" />
<circle cx="300.000000" cy="105.000000" r="15.000000" transform="rotate(36.000000 300.000000 300.000000)" fill="green" stroke="black" stroke-width="0.5" />
<circle cx="300.000000" cy="105.000000" r="15.000000" transform="rotate(45.000000 300.000000 300.000000)" fill="green" stroke="black" stroke-width="0.5" />
<circle cx="300.000000" cy="105.000000" r="15.000000" transform="rotate(54.000000 300.000000 300.000000)" fill="green" stroke="black" stroke-width="0.5" />
<circle cx="300.000000" cy="105.000000" r="15.000000" transform="rotate(63.000000 300.000000 300.000000)" fill="green" stroke="black" stroke-width="0.5" />
<circle cx="300.000000" cy="105.000000" r="15.000000" transform="rotate(72.000000 300.000000 300.000000)" fill="green" stroke="black" stroke-width="0.5" />
<circle cx="300.000000" cy="105.000000" r="15.000000" transform="rotate(81.000000 300.000000 300.000000)" fill="green" stroke="black" stroke-width="0.5" />
<circle cx="300.000000" cy="105.000000" r="15.000000" transform="rotate(90.000000 300.000000 300.000000)" fill="green" stroke="black" stroke-width="0.5" />
<circle cx="300.000000" cy="105.000000" r="15.000000" transform="rotate(99.000000 300.000000 300.000000)" fill="green" stroke="black" stroke-width="0.5" />
<circle cx="300.000000" cy="105.000000" r="15.000000" transform="rotate(108.000000 300.000000 300.000000)" fill="green" stroke="black" stroke-width="0.5" />
<circle cx="300.000000" cy="105.000000" r="15.000000" transform="rotate(117.000000 300.000000 300.000000)" fill="green" stroke="black" stroke-width="0.5" />
<circle cx="300.000000" cy="105.000000" r="15.000000" transform="rotate(126.000000 300.000000 300.000000)" fill="green" stroke="black" stroke-width="0.5" />
<circle cx="300.000000" cy="105.000000" r="15.000000" transform="rotate(135.000000 300.000000 300.000000)" fill="green" stroke="black" stroke-width="0.5" />
<circle cx="300.000000" cy="105.000000" r="15.000000" transform="rotate(144.000000 300.000000 300.000000)" fill="green" stroke="black" stroke-width="0.5" />
<circle cx="300.000000" cy="105.000000" r="15.000000" transform="rotate(153.000000 300.000000 300.000000)" fill="green" stroke="black" stroke-width="0.5" />
<circle cx="300.000000" cy="105.000000" r="15.000000" transform="rotate(162.000000 300.000000 300.000000)" fill="green" stroke="black" stroke-width="0.5" />
<circle cx="300.000000" cy="105.000000" r="15.000000" transform="rotate(171.000000 300.000000 300.000000)" fill="green" stroke="black" stroke-width="0.5" />
<circle cx="300.000000" cy="105.000000" r="15.000000" transform="rotate(180.000000 300.000000 300.000000)" fill="green" stroke="black" stroke-width="0.5" />
<circle cx="300.000000" cy="105.000000" r="15.000000" transform="rotate(189.000000 300.000000 300.000000)" fill="green" stroke="black" stroke-width="0.5" />
<circle cx="300.000000" cy="105.000000" r="15.000000" transform="rotate(198.000000 300.000000 300.000000)" fill="green" stroke="black" stroke-width="0.5" />
<circle cx="300.000000" cy="105.000000" r="15.000000" transform="rotate(207.000000 300.000000 300.000000)" fill="green" stroke="black" stroke-width="0.5" />
<circle cx="300.000000" cy="105.000000" r="15.000000" transform="rotate(216.000000 300.000000 300.000000)" fill="green" stroke="black" stroke-width="0.5" />
<circle cx="300.000000" cy="105.000000" r="15.000000" transform="rotate(225.000000 300.000000 300.000000)" fill="green" stroke="black" stroke-width="0.5" />
<circle cx="300.000000" cy="105.000000" r="15.000000" transform="rotate(234.000000 300.000000 300.000000)" fill="green" stroke="black" stroke-width="0.5" />
<circle cx="300.000000" cy="105.000000" r="15.000000" transform="rotate(243.000000 300.000000 300.000000)" fill="green" stroke="black" stroke-width="0.5" />
<circle cx="300.000000" cy="105.000000" r="15.000000" transform="rotate(252.000000 300.000000 300.000000)" fill="green" stroke="black" stroke-width="0.5" />
<circle cx="300.000000" cy="105.000000" r="15.000000" transform="rotate(261.000000 300.000000 300.000000)" fill="green" stroke="black" stroke-width="0.5" />
<circle cx="300.000000" cy="105.000000" r="15.000000" transform="rotate(270.000000 300.000000 300.000000)" fill="green" stroke="black" stroke-width="0.5" />
<circle cx="300.000000" cy="105.000000" r="15.000000" transform="rotate(279.000000 300.000000 300.000000)" fill="green" stroke="black" stroke-width="0.5" />
<circle cx="300.000000" cy="105.000000" r="15.000000" transform="rotate(288.000000 300.000000 300.000000)" fill="green" stroke="black" stroke-width="0.5" />
<circle cx="300.000000" cy="105.000000" r="15.000000" transform="rotate(297.000000 300.000000 300.000000)" fill="green" stroke="black" stroke-width="0.5" />
<circle cx="300.000000" cy="105.000000" r="15.000000" transform="rotate(306.000000 300.000000 300.000000)" fill="green" stroke="black" stroke-width="0.5" />
<circle cx="300.000000" cy="105.000000" r="15.000000" transform="rotate(315.000000 300.000000 300.000000)" fill="green" stroke="black" stroke-width="0.5" />
<circle cx="300.000000" cy="105.000000" r="15.000000" transform="rotate(324.000000 300.000000 300.000000)" fill="green" stroke="black" stroke-width="0.5" />
<circle cx="300.000000" cy="105.000000" r="15.000000" transform="rotate(333.000000 300.000000 300.000000)" fill="green" stroke="black" stroke-width="0.5" />
<circle cx="300.000000" cy="105.000000" r="15.000000" transform="rotate(342.000000 300.000000 300.000000)" fill="green" stroke="black" stroke-width="0.5" />
<circle cx="300.000000" cy="105.000000" r="15.000000" transform="rotate(351.000000 300.000000 300.000000)" fill="green" stroke="black" stroke-width="0.5" />
<circle cx="300.000000" cy="135.000000" r="15.000000" transform="rotate(0.000000 300.000000 300.000000)" fill="green" stroke="black" stroke-width="0.5" />
<circle cx="300.000000" cy="135.000000" r="15.000000" transform="rotate(10.588235 300.000000 300.000000)" fill="green" stroke="black" stroke-width="0.5" />
<circle cx="300.000000" cy="135.000000" r="15.000000" transform="rotate(21.176471 300.000000 300.000000)" fill="green" stroke="black" stroke-width="0.5" />
<circle cx="300.000000" cy="135.000000" r="15.000000" transform="rotate(31.764706 300.000000 300.000000)" fill="green" stroke="black" stroke-width="0.5" />
<circle cx="300.000000" cy="135.000000" r="15.000000" transform="rotate(42.352941 300.000000 300.000000)" fill="green" stroke="black" stroke-width="0.5" />
<circle cx="300.000000" cy="135.000000" r="15.000000" transform="rotate(52.941176 300.000000 300.000000)" fill="green" stroke="black" stroke-width="0.5" />
<circle cx="300.000000" cy="135.000000" r="15.000000" transform="rotate(63.529412 300.000000 300.000000)" fill="green" stroke="black" stroke-width="0.5" />
<circle cx="300.000000" cy="135.000000" r="15.000000" transform="rotate(74.117647 300.000000 300.000000)" fill="green" stroke="black" stroke-width="0.5" />
<circle cx="300.000000" cy="135.000000" r="15.000000" transform="rotate(84.705882 300.000000 300.000000)" fill="green" stroke="black" stroke-width="0.5" />
<circle cx="300.000000" cy="135.000000" r="15.000000" transform="rotate(95.294118 300.000000 300.000000)" fill="green" stroke="black" stroke-width="0.5" />
<circle cx="300.000000" cy="135.000000" r="15.000000" transform="rotate(105.882353 300.000000 300.000000)" fill="green" stroke="black" stroke-width="0.5" />
<circle cx="300.000000" cy="135.000000" r="15.000000" transform="rotate(116.470588 300.000000 300.000000)" fill="green" stroke="black" stroke-width="0.5" />
<circle cx="300.000000" cy="135.000000" r="15.000000" transform="rotate(127.058824 300.000000 300.000000)" fill="green" stroke="black" stroke-width="0.5" />
<circle cx="300.000000" cy="135.000000" r="15.000000" transform="rotate(137.647059 300.000000 300.000000)" fill="green" stroke="black" stroke-width="0.5" />
<circle cx="300.000000" cy="135.000000" r="15.000000" transform="rotate(148.235294 300.000000 300.000000)" fill="green" stroke="black" stroke-width="0.5" />
<circle cx="300.000000" cy="135.000000" r="15.000000" transform="rotate(158.823529 300.000000 300.000000)" fill="green" stroke="black" stroke-width="0.5" />
<circle cx="300.000000" cy="135.000000" r="15.000000" transform="rotate(169.411765 300.000000 300.000000)" fill="green" stroke="black" stroke-width="0.5" />
<circle cx="300.000000" cy="135.000000" r="15.000000" transform="rotate(180.000000 300.000000 300.000000)" fill="green" stroke="black" stroke-width="0.5" />
<circle cx="300.000000" cy="135.000000" r="15.000000" transform="rotate(190.588235 300.000000 300.000000)" fill="green" stroke="black" stroke-width="0.5" />
<circle cx="300.000000" cy="135.000000" r="15.000000" transform="rotate(201.176471 300.000000 300.000000)" fill="green" stroke="black" stroke-width="0.5" />
<circle cx="300.000000" cy="135.000000" r="15.000000" transform="rotate(211.764706 300.000000 300.000000)" fill="green" stroke="black" stroke-width="0.5" />
<circle cx="300.000000" cy="135.000000" r="15.000000" transform="rotate(222.352941 300.000000 300.000000)" fill="green" stroke="black" stroke-width="0.5" />
<circle cx="300.000000" cy="135.000000" r="15.000000" transform="rotate(232.941176 300.000000 300.000000)" fill="green" stroke="black" stroke-width="0.5" />
<circle cx="300.000000" cy="135.000000" r="15.000000" transform="rotate(243.529412 300.000000 300.000000)" fill="green" stroke="black" stroke-width="0.5" />
<circle cx="300.000000" cy="135.000000" r="15.000000" transform="rotate(254.117647 300.000000 300.000000)" fill="green" stroke="black" stroke-width="0.5" />
<circle cx="300.000000" cy="135.000000" r="15.000000" transform="rotate(264.705882 300.000000 300.000000)" fill="green" stroke="black" stroke-width="0.5" />
<circle cx="300.000000" cy="135.000000" r="15.000000" transform="rotate(275.294118 300.000000 300.000000)" fill="green" stroke="black" stroke-width="0.5" />
<circle cx="300.000000" cy="135.000000" r="15.000000" transform="rotate(285.882353 300.000000 300.000000)" fill="green" stroke="black" stroke-width="0.5" />
<circle cx="300.000000" cy="135.000000" r="15.000000" transform="rotate(296.470588 300.000000 300.000000)" fill="green" stroke="black" stroke-width="0.5" />
<circle cx="300.000000" cy="135.000000" r="15.000000" transform="rotate(307.058824 300.000000 300.000000)" fill="green" stroke="black" stroke-width="0.5" />
<circle cx="300.000000" cy="135.000000" r="15.000000" transform="rotate(317.647059 300.000000 300.000000)" fill="green" stroke="black" stroke-width="0.5" />
<circle cx="300.000000" cy="135.000000" r="15.000000" transform="rotate(328.235294 300.000000 300.000000)" fill="green" stroke="black" stroke-width="0.5" />
<circle cx="300.000000" cy="135.000000" r="15.000000" transform="rotate(338.823529 300.000000 300.000000)" fill="green" stroke="black" stroke-width="0.5" />
<circle cx="300.000000" cy="135.000000" r="15.000000" transform="rotate(349.411765 300.000000 300.000000)" fill="green" stroke="black" stroke-width="0.5" />
<circle cx="300.000000" cy="165.000000" r="15.000000" transform="rotate(0.000000 300.000000 300.000000)" fill="green" stroke="black" stroke-width="0.5" />
<circle cx="300.000000" cy="165.000000" r="15.000000" transform="rotate(12.857143 300.000000 300.000000)" fill="green" stroke="black" stroke-width="0.5" />
<circle cx="300.000000" cy="165.000000" r="15.000000" transform="rotate(25.714286 300.000000 300.000000)" fill="green" stroke="black" stroke-width="0.5" />
<circle cx="300.000000" cy="165.000000" r="15.000000" transform="rotate(38.571429 300.000000 300.000000)" fill="green" stroke="black" stroke-width="0.5" />
<circle cx="300.000000" cy="165.000000" r="15.000000" transform="rotate(51.428571 300.000000 300.000000)" fill="green" stroke="black" stroke-width="0.5" />
<circle cx="300.000000" cy="165.000000" r="15.000000" transform="rotate(64.285714 300.000000 300.000000)" fill="green" stroke="black" stroke-width="0.5" />
<circle cx="300.000000" cy="165.000000" r="15.000000" transform="rotate(77.142857 300.000000 300.000000)" fill="green" stroke="black" stroke-width="0.5" />
<circle cx="300.000000" cy="165.000000" r="15.000000" transform="rotate(90.000000 300.000000 300.000000)" fill="green" stroke="black" stroke-width="0.5" />
<circle cx="300.000000" cy="165.000000" r="15.000000" transform="rotate(102.857143 300.000000 300.000000)" fill="green" stroke="black" stroke-width="0.5" />
<circle cx="300.000000" cy="165.000000" r="15.000000" transform="rotate(115.714286 300.000000 300.000000)" fill="green" stroke="black" stroke-width="0.5" />
<circle cx="300.000000" cy="165.000000" r="15.000000" transform="rotate(128.571429 300.000000 300.000000)" fill="green" stroke="black" stroke-width="0.5" />
<circle cx="300.000000" cy="165.000000" r="15.000000" transform="rotate(141.428571 300.000000 300.000000)" fill="green" stroke="black" stroke-width="0.5" />
<circle cx="300.000000" cy="165.000000" r="15.000000" transform="rotate(154.285714 300.000000 300.000000)" fill="green" stroke="black" stroke-width="0.5" />
<circle cx="300.000000" cy="165.000000" r="15.000000" transform="rotate(167.142857 300.000000 300.000000)" fill="green" stroke="black" stroke-width="0.5" />
<circle cx="300.000000" cy="165.000000" r="15.000000" transform="rotate(180.000000 300.000000 300.000000)" fill="green" stroke="black" stroke-width="0.5" />
<circle cx="300.000000" cy="165.000000" r="15.000000" transform="rotate(192.857143 300.000000 300.000000)" fill="green" stroke="black" stroke-width="0.5" />
<circle cx="300.000000" cy="165.000000" r="15.000000" transform="rotate(205.714286 300.000000 300.000000)" fill="green" stroke="black" stroke-width="0.5" />
<circle cx="300.000000" cy="165.000000" r="15.000000" transform="rotate(218.571429 300.000000 300.000000)" fill="green" stroke="black" stroke-width="0.5" />
<circle cx="300.000000" cy="165.000000" r="15.000000" transform="rotate(231.428571 300.000000 300.000000)" fill="green" stroke="black" stroke-width="0.5" />
<circle cx="300.000000" cy="165.000000" r="15.000000" transform="rotate(244.285714 300.000000 300.000000)" fill="green" stroke="black" stroke-width="0.5" />
<circle cx="300.000000" cy="165.000000" r="15.000000" transform="rotate(257.142857 300.000000 300.000000)" fill="green" stroke="black" stroke-width="0.5" />
<circle cx="300.000000" cy="165.000000" r="15.000000" transform="rotate(270.000000 300.000000 300.000000)" fill="green" stroke="black" stroke-width="0.5" />
<circle cx="300.000000" cy="165.000000" r="15.000000" transform="rotate(282.857143 300.000000 300.000000)" fill="green" stroke="black" stroke-width="0.5" />
<circle cx="300.000000" cy="165.000000" r="15.000000" transform="rotate(295.714286 300.000000 300.000000)" fill="green" stroke="black" stroke-width="0.5" />
<circle cx="300.000000" cy="165.000000" r="15.000000" transform="rotate(308.571429 300.000000 300.000000)" fill="green" stroke="black" stroke-width="0.5" />
<circle cx="300.000000" cy="165.000000" r="15.000000" transform="rotate(321.428571 300.000000 300.000000)" fill="green" stroke="black" stroke-width="0.5" />
<circle cx="300.000000" cy="165.000000" r="15.000000" transform="rotate(334.285714 300.000000 300.000000)" fill="green" stroke="black" stroke-width="0.5" />
<circle cx="300.000000" cy="165.000000" r="15.000000" transform="rotate(347.142857 300.000000 300.000000)" fill="green" stroke="black" stroke-width="0.5" />
<circle cx="300.000000" cy="195.000000" r="15.000000" transform="rotate(0.000000 300.000000 300.000000)" fill="green" stroke="black" stroke-width="0.5" />
<circle cx="300.000000" cy="195.000000" r="15.000000" transform="rotate(17.142857 300.000000 300.000000)" fill="green" stroke="black" stroke-width="0.5" />
<circle cx="300.000000" cy="195.000000" r="15.000000" transform="rotate(34.285714 300.000000 300.000000)" fill="green" stroke="black" stroke-width="0.5" />
<circle cx="300.000000" cy="195.000000" r="15.000000" transform="rotate(51.428571 300.000000 300.000000)" fill="green" stroke="black" stroke-width="0.5" />
<circle cx="300.000000" cy="195.000000" r="15.000000" transform="rotate(68.571429 300.000000 300.000000)" fill="green" stroke="black" stroke-width="0.5" />
<circle cx="300.000000" cy="195.000000" r="15.000000" transform="rotate(85.714286 300.000000 300.000000)" fill="green" stroke="black" stroke-width="0.5" />
<circle cx="300.000000" cy="195.000000" r="15.000000" transform="rotate(102.857143 300.000000 300.000000)" fill="green" stroke="black" stroke-width="0.5" />
<circle cx="300.000000" cy="195.000000" r="15.000000" transform="rotate(120.000000 300.000000 300.000000)" fill="green" stroke="black" stroke-width="0.5" />
<circle cx="300.000000" cy="195.000000" r="15.000000" transform="rotate(137.142857 300.000000 300.000000)" fill="green" stroke="black" stroke-width="0.5" />
<circle cx="300.000000" cy="195.000000" r="15.000000" transform="rotate(154.285714 300.000000 300.000000)" fill="green" stroke="black" stroke-width="0.5" />
<circle cx="300.000000" cy="195.000000" r="15.000000" transform="rotate(171.428571 300.000000 300.000000)" fill="green" stroke="black" stroke-width="0.5" />
<circle cx="300.000000" cy="195.000000" r="15.000000" transform="rotate(188.571429 300.000000 300.000000)" fill="green" stroke="black" stroke-width="0.5" />
<circle cx="300.000000" cy="195.000000" r="15.000000" transform="rotate(205.714286 300.000000 300.000000)" fill="green" stroke="black" stroke-width="0.5" />
<circle cx="300.000000" cy="195.000000" r="15.000000" transform="rotate(222.857143 300.000000 300.000000)" fill="green" stroke="black" stroke-width="0.5" />
<circle cx="300.000000" cy="195.000000" r="15.000000" transform="rotate(240.000000 300.000000 300.000000)" fill="green" stroke="black" stroke-width="0.5" />
<circle cx="300.000000" cy="195.000000" r="15.000000" transform="rotate(257.142857 300.000000 300.000000)" fill="green" stroke="black" stroke-width="0.5" />
<circle cx="300.000000" cy="195.000000" r="15.000000" transform="rotate(274.285714 300.000000 300.000000)" fill="green" stroke="black" stroke-width="0.5" />
<circle cx="300.000000" cy="195.000000" r="15.000000" transform="rotate(291.428571 300.000000 300.000000)" fill="green" stroke="black" stroke-width="0.5" />
<circle cx="300.000000" cy="195.000000" r="15.000000" transform="rotate(308.571429 300.000000 300.000000)" fill="green" stroke="black" stroke-width="0.5" />
<circle cx="300.000000" cy="195.000000" r="15.000000" transform="rotate(325.714286 300.000000 300.000000)" fill="green" stroke="black" stroke-width="0.5" />
<circle cx="300.000000" cy="195.000000" r="15.000000" transform="rotate(342.857143 300.000000 300.000000)" fill="green" stroke="black" stroke-width="0.5" />
<circle cx="300.000000" cy="225.000000" r="15.000000" transform="rotate(0.000000 300.000000 300.000000)" fill="green" stroke="black" stroke-width="0.5" />
<circle cx="300.000000" cy="225.000000" r="15.000000" transform="rotate(24.000000 300.000000 300.000000)" fill="green" stroke="black" stroke-width="0.5" />
<circle cx="300.000000" cy="225.000000" r="15.000000" transform="rotate(48.000000 300.000000 300.000000)" fill="green" stroke="black" stroke-width="0.5" />
<circle cx="300.000000" cy="225.000000" r="15.000000" transform="rotate(72.000000 300.000000 300.000000)" fill="green" stroke="black" stroke-width="0.5" />
<circle cx="300.000000" cy="225.000000" r="15.000000" transform="rotate(96.000000 300.000000 300.000000)" fill="green" stroke="black" stroke-width="0.5" />
<circle cx="300.000000" cy="225.000000" r="15.000000" transform="rotate(120.000000 300.000000 300.000000)" fill="green" stroke="black" stroke-width="0.5" />
<circle cx="300.000000" cy="225.000000" r="15.000000" transform="rotate(144.000000 300.000000 300.000000)" fill="green" stroke="black" stroke-width="0.5" />
<circle cx="300.000000" cy="225.000000" r="15.000000" transform="rotate(168.000000 300.000000 300.000000)" fill="green" stroke="black" stroke-width="0.5" />
<circle cx="300.000000" cy="225.000000" r="15.000000" transform="rotate(192.000000 300.000000 300.000000)" fill="green" stroke="black" stroke-width="0.5" />
<circle cx="300.000000" cy="225.000000" r="15.000000" transform="rotate(216.000000 300.000000 300.000000)" fill="green" stroke="black" stroke-width="0.5" />
<circle cx="300.000000" cy="225.000000" r="15.000000" transform="rotate(240.000000 300.000000 300.000000)" fill="green" stroke="black" stroke-width="0.5" />
<circle cx="300.000000" cy="225.000000" r="15.000000" transform="rotate(264.000000 300.000000 300.000000)" fill="green" stroke="black" stroke-width="0.5" />
<circle cx="300.000000" cy="225.000000" r="15.000000" transform="rotate(288.000000 300.000000 300.000000)" fill="green" stroke="black" stroke-width="0.5" />
<circle cx="300.000000" cy="225.000000" r="15.000000" transform="rotate(312.000000 300.000000 300.000000)" fill="green" stroke="black" stroke-width="0.5" />
<circle cx="300.000000" cy="225.000000" r="15.000000" transform="rotate(336.000000 300.000000 300.000000)" fill="green" stroke="black" stroke-width="0.5" />
<circle cx="300.000000" cy="255.000000" r="15.000000" transform="rotate(0.000000 300.000000 300.000000)" fill="green" stroke="black" stroke-width="0.5" />
<circle cx="300.000000" cy="255.000000" r="15.000000" transform="rotate(40.000000 300.000000 300.000000)" fill="green" stroke="black" stroke-width="0.5" />
<circle cx="300.000000" cy="255.000000" r="15.000000" transform="rotate(80.000000 300.000000 300.000000)" fill="green" stroke="black" stroke-width="0.5" />
<circle cx="300.000000" cy="255.000000" r="15.000000" transform="rotate(120.000000 300.000000 300.000000)" fill="green" stroke="black" stroke-width="0.5" />
<circle cx="300.000000" cy="255.000000" r="15.000000" transform="rotate(160.000000 300.000000 300.000000)" fill="green" stroke="black" stroke-width="0.5" />
<circle cx="300.000000" cy="255.000000" r="15.000000" transform="rotate(200.000000 300.000000 300.000000)" fill="green" stroke="black" stroke-width="0.5" />
<circle cx="300.000000" cy="255.000000" r="15.000000" transform="rotate(240.000000 300.000000 300.000000)" fill="green" stroke="black" stroke-width="0.5" />
<circle cx="300.000000" cy="255.000000" r="15.000000" transform="rotate(280.000000 300.000000 300.000000)" fill="green" stroke="black" stroke-width="0.5" />
<circle cx="300.000000" cy="255.000000" r="15.000000" transform="rotate(320.000000 300.000000 300.000000)" fill="green" stroke="black" stroke-width="0.5" />
<circle cx="300.000000" cy="285.000000" r="15.000000" transform="rotate(0.000000 300.000000 300.000000)" fill="green" stroke="black" stroke-width="0.5" />
<circle cx="300.000000" cy="285.000000" r="15.000000" transform="rotate(180.000000 300.000000 300.000000)" fill="green" stroke="black" stroke-width="0.5" />
</svg>