<svg version="1.1" baseProfile="full" xmlns="http://www.w3.org/2000/svg">
<circle cx="300.000000" cy="300.000000" r="300.000000" fill="red" stroke="black" stroke-width="0.5" />
<rect x="87.867966"  y="87.867966" width="60.000000" height="20.000000" fill="green" stroke="black" stroke-width="0.5" />
<rect x="147.867966"  y="87.867966" width="60.000000" height="20.000000" fill="green" stroke="black" stroke-width="0.5" />
<rect x="207.867966"  y="87.867966" width="60.000000" height="20.000000" fill="green" stroke="black" stroke-width="0.5" />
<rect x="267.867966"  y="87.867966" width="60.000000" height="20.000000" fill="green" stroke="black" stroke-width="0.5" />
<rect x="327.867966"  y="87.867966" width="60.000000" height="20.000000" fill="green" stroke="black" stroke-width="0.5" />
<rect x="387.867966"  y="87.867966" width="60.000000" height="20.000000" fill="green" stroke="black" stroke-width="0.5" />
<rect x="447.867966"  y="87.867966" width="60.000000" height="20.000000" fill="green" stroke="black" stroke-width="0.5" />
<rect x="87.867966"  y="107.867966" width="60.000000" height="20.000000" fill="green" stroke="black" stroke-width="0.5" />
<rect x="147.867966"  y="107.867966" width="60.000000" height="20.000000" fill="green" stroke="black" stroke-width="0.5" />
<rect x="207.867966"  y="107.867966" width="60.000000" height="20.000000" fill="green" stroke="black" stroke-width="0.5" />
<rect x="267.867966"  y="107.867966" width="60.000000" height="20.000000" fill="green" stroke="black" stroke-width="0.5" />
<rect x="327.867966"  y="107.867966" width="60.000000" height="20.000000" fill="green" stroke="black" stroke-width="0.5" />
<rect x="387.867966"  y="107.867966" width="60.000000" height="20.000000" fill="green" stroke="black" stroke-width="0.5" />
<rect x="447.867966"  y="107.867966" width="60.000000" height="20.000000" fill="green" stroke="black" stroke-width="0.5" />
<rect x="87.867966"  y="127.867966" width="60.000000" height="20.000000" fill="green" stroke="black" stroke-width="0.5" />
<rect x="147.867966"  y="127.867966" width="60.000000" height="20.000000" fill="green" stroke="black" stroke-width="0.5" />
<rect x="207.867966"  y="127.867966" width="60.000000" height="20.000000" fill="green" stroke="black" stroke-width="0.5" />
<rect x="267.867966"  y="127.867966" width="60.000000" height="20.000000" fill="green" stroke="black" stroke-width="0.5" />
<rect x="327.867966"  y="127.867966" width="60.000000" height="20.000000" fill="green" stroke="black" stroke-width="0.5" />
<rect x="387.867966"  y="127.867966" width="60.000000" height="20.000000" fill="green" stroke="black" stroke-width="0.5" />
<rect x="447.867966"  y="127.867966" width="60.000000" height="20.000000" fill="green" stroke="black" stroke-width="0.5" />
<rect x="87.867966"  y="147.867966" width="60.000000" height="20.000000" fill="green" stroke="black" stroke-width="0.5" />
<rect x="147.867966"  y="147.867966" width="60.000000" height="20.000000" fill="green" stroke="black" stroke-width="0.5" />
<rect x="207.867966"  y="147.867966" width="60.000000" height="20.000000" fill="green" stroke="black" stroke-width="0.5" />
<rect x="267.867966"  y="147.867966" width="60.000000" height="20.000000" fill="green" stroke="black" stroke-width="0.5" />
<rect x="327.867966"  y="147.867966" width="60.000000" height="20.000000" fill="green" stroke="black" stroke-width="0.5" />
<rect x="387.867966"  y="147.867966" width="60.000000" height="20.000000" fill="green" stroke="black" stroke-width="0.5" />
<rect x="447.867966"  y="147.867966" width="60.000000" height="20.000000" fill="green" stroke="black" stroke-width="0.5" />
<rect x="87.867966"  y="167.867966" width="60.000000" height="20.000000" fill="green" stroke="black" stroke-width="0.5" />
<rect x="147.867966"  y="167.867966" width="60.000000" height="20.000000" fill="green" stroke="black" stroke-width="0.5" />
<rect x="207.867966"  y="167.867966" width="60.000000" height="20.000000" fill="green" stroke="black" stroke-width="0.5" />
<rect x="267.867966"  y="167.867966" width="60.000000" height="20.000000" fill="green" stroke="black" stroke-width="0.5" />
<rect x="327.867966"  y="167.867966" width="60.000000" height="20.000000" fill="green" stroke="black" stroke-width="0.5" />
<rect x="387.867966"  y="167.867966" width="60.000000" height="20.000000" fill="green" stroke="black" stroke-width="0.5" />
<rect x="447.867966"  y="167.867966" width="60.000000" height="20.000000" fill="green" stroke="black" stroke-width="0.5" />
<rect x="87.867966"  y="187.867966" width="60.000000" height="20.000000" fill="green" stroke="black" stroke-width="0.5" />
<rect x="147.867966"  y="187.867966" width="60.000000" height="20.000000" fill="green" stroke="black" stroke-width="0.5" />
<rect x="207.867966"  y="187.867966" width="60.000000" height="20.000000" fill="green" stroke="black" stroke-width="0.5" />
<rect x="267.867966"  y="187.867966" width="60.000000" height="20.000000" fill="green" stroke="black" stroke-width="0.5" />
<rect x="327.867966"  y="187.867966" width="60.000000" height="20.000000" fill="green" stroke="black" stroke-width="0.5" />
<rect x="387.867966"  y="187.867966" width="60.000000" height="20.000000" fill="green" stroke="black" stroke-width="0.5" />
<rect x="447.867966"  y="187.867966" width="60.000000" height="20.000000" fill="green" stroke="black" stroke-width="0.5" />
<rect x="87.867966"  y="207.867966" width="60.000000" height="20.000000" fill="green" stroke="black" stroke-width="0.5" />
<rect x="147.867966"  y="207.867966" width="60.000000" height="20.000000" fill="green" stroke="black" stroke-width="0.5" />
<rect x="207.867966"  y="207.867966" width="60.000000" height="20.000000" fill="green" stroke="black" stroke-width="0.5" />
<rect x="267.867966"  y="207.867966" width="60.000000" height="20.000000" fill="green" stroke="black" stroke-width="0.5" />
<rect x="327.867966"  y="207.867966" width="60.000000" height="20.000000" fill="green" stroke="black" stroke-width="0.5" />
<rect x="387.867966"  y="207.867966" width="60.000000" height="20.000000" fill="green" stroke="black" stroke-width="0.5" />
<rect x="447.867966"  y="207.867966" width="60.000000" height="20.000000" fill="green" stroke="black" stroke-width="0.5" />
<rect x="87.867966"  y="227.867966" width="60.000000" height="20.000000" fill="green" stroke="black" stroke-width="0.5" />
<rect x="147.867966"  y="227.867966" width="60.000000" height="20.000000" fill="green" stroke="black" stroke-width="0.5" />
<rect x="207.867966"  y="227.867966" width="60.000000" height="20.000000" fill="green" stroke="black" stroke-width="0.5" />
<rect x="267.867966"  y="227.867966" width="60.000000" height="20.000000" fill="green" stroke="black" stroke-width="0.5" />
<rect x="327.867966"  y="227.867966" width="60.000000" height="20.000000" fill="green" stroke="black" stroke-width="0.5" />
<rect x="387.867966"  y="227.867966" width="60.000000" height="20.000000" fill="green" stroke="black" stroke-width="0.5" />
<rect x="447.867966"  y="227.867966" width="60.000000" height="20.000000" fill="green" stroke="black" stroke-width="0.5" />
<rect x="87.867966"  y="247.867966" width="60.000000" height="20.000000" fill="green" stroke="black" stroke-width="0.5" />
<rect x="147.867966"  y="247.867966" width="60.000000" height="20.000000" fill="green" stroke="black" stroke-width="0.5" />
<rect x="207.867966"  y="247.867966" width="60.000000" height="20.000000" fill="green" stroke="black" stroke-width="0.5" />
<rect x="267.867966"  y="247.867966" width="60.000000" height="20.000000" fill="green" stroke="black" stroke-width="0.5" />
<rect x="327.867966"  y="247.867966" width="60.000000" height="20.000000" fill="green" stroke="black" stroke-width="0.5" />
<rect x="387.867966"  y="247.867966" width="60.000000" height="20.000000" fill="green" stroke="black" stroke-width="0.5" />
<rect x="447.867966"  y="247.867966" width="60.000000" height="20.000000" fill="green" stroke="black" stroke-width="0.5" />
<rect x="87.867966"  y="267.867966" width="60.000000" height="20.000000" fill="green" stroke="black" stroke-width="0.5" />
<rect x="147.867966"  y="267.867966" width="60.000000" height="20.000000" fill="green" stroke="black" stroke-width="0.5" />
<rect x="207.867966"  y="267.867966" width="60.000000" height="20.000000" fill="green" stroke="black" stroke-width="0.5" />
<rect x="267.867966"  y="267.867966" width="60.000000" height="20.000000" fill="green" stroke="black" stroke-width="0.5" />
<rect x="327.867966"  y="267.867966" width="60.000000" height="20.000000" fill="green" stroke="black" stroke-width="0.5" />
<rect x="387.867966"  y="267.867966" width="60.000000" height="20.000000" fill="green" stroke="black" stroke-width="0.5" />
<rect x="447.867966"  y="267.867966" width="60.000000" height="20.000000" fill="green" stroke="black" stroke-width="0.5" />
<rect x="87.867966"  y="287.867966" width="60.000000" height="20.000000" fill="green" stroke="black" stroke-width="0.5" />
<rect x="147.867966"  y="287.867966" width="60.000000" height="20.000000" fill="green" stroke="black" stroke-width="0.5" />
<rect x="207.867966"  y="287.867966" width="60.000000" height="20.000000" fill="green" stroke="black" stroke-width="0.5" />
<rect x="267.867966"  y="287.867966" width="60.000000" height="20.000000" fill="green" stroke="black" stroke-width="0.5" />
<rect x="327.867966"  y="287.867966" width="60.000000" height="20.000000" fill="green" stroke="black" stroke-width="0.5" />
<rect x="387.867966"  y="287.867966" width="60.000000" height="20.000000" fill="green" stroke="black" stroke-width="0.5" />
<rect x="447.867966"  y="287.867966" width="60.000000" height="20.000000" fill="green" stroke="black" stroke-width="0.5" />
<rect x="87.867966"  y="307.867966" width="60.000000" height="20.000000" fill="green" stroke="black" stroke-width="0.5" />
<rect x="147.867966"  y="307.867966" width="60.000000" height="20.000000" fill="green" stroke="black" stroke-width="0.5" />
<rect x="207.867966"  y="307.867966" width="60.000000" height="20.000000" fill="green" stroke="black" stroke-width="0.5" />
<rect x="267.867966"  y="307.867966" width="60.000000" height="20.000000" fill="green" stroke="black" stroke-width="0.5" />
<rect x="327.867966"  y="307.867966" width="60.000000" height="20.000000" fill="green" stroke="black" stroke-width="0.5" />
<rect x="387.867966"  y="307.867966" width="60.000000" height="20.000000" fill="green" stroke="black" stroke-width="0.5" />
<rect x="447.867966"  y="307.867966" width="60.000000" height="20.000000" fill="green" stroke="black" stroke-width="0.5" />
<rect x="87.867966"  y="327.867966" width="60.000000" height="20.000000" fill="green" stroke="black" stroke-width="0.5" />
<rect x="147.867966"  y="327.867966" width="60.000000" height="20.000000" fill="green" stroke="black" stroke-width="0.5" />
<rect x="207.867966"  y="327.867966" width="60.000000" height="20.000000" fill="green" stroke="black" stroke-width="0.5" />
<rect x="267.867966"  y="327.867966" width="60.000000" height="20.000000" fill="green" stroke="black" stroke-width="0.5" />
<rect x="327.867966"  y="327.867966" width="60.000000" height="20.000000" fill="green" stroke="black" stroke-width="0.5" />
<rect x="387.867966"  y="327.867966" width="60.000000" height="20.000000" fill="green" stroke="black" stroke-width="0.5" />
<rect x="447.867966"  y="327.867966" width="60.000000" height="20.000000" fill="green" stroke="black" stroke-width="0.5" />
<rect x="87.867966"  y="347.867966" width="60.000000" height="20.000000" fill="green" stroke="black" stroke-width="0.5" />
<rect x="147.867966"  y="347.867966" width="60.000000" height="20.000000" fill="green" stroke="black" stroke-width="0.5" />
<rect x="207.867966"  y="347.867966" width="60.000000" height="20.000000" fill="green" stroke="black" stroke-width="0.5" />
<rect x="267.867966"  y="347.867966" width="60.000000" height="20.000000" fill="green" stroke="black" stroke-width="0.5" />
<rect x="327.867966"  y="347.867966" width="60.000000" height="20.000000" fill="green" stroke="black" stroke-width="0.5" />
<rect x="387.867966"  y="347.867966" width="60.000000" height="20.000000" fill="green" stroke="black" stroke-width="0.5" />
<rect x="447.867966"  y="347.867966" width="60.000000" height="20.000000" fill="green" stroke="black" stroke-width="0.5" />
<rect x="87.867966"  y="367.867966" width="60.000000" height="20.000000" fill="green" stroke="black" stroke-width="0.5" />
<rect x="147.867966"  y="367.867966" width="60.000000" height="20.000000" fill="green" stroke="black" stroke-width="0.5" />
<rect x="207.867966"  y="367.867966" width="60.000000" height="20.000000" fill="green" stroke="black" stroke-width="0.5" />
<rect x="267.867966"  y="367.867966" width="60.000000" height="20.000000" fill="green" stroke="black" stroke-width="0.5" />
<rect x="327.867966"  y="367.867966" width="60.000000" height="20.000000" fill="green" stroke="black" stroke-width="0.5" />
<rect x="387.867966"  y="367.867966" width="60.000000" height="20.000000" fill="green" stroke="black" stroke-width="0.5" />
<rect x="447.867966"  y="367.867966" width="60.000000" height="20.000000" fill="green" stroke="black" stroke-width="0.5" />
<rect x="87.867966"  y="387.867966" width="60.000000" height="20.000000" fill="green" stroke="black" stroke-width="0.5" />
<rect x="147.867966"  y="387.867966" width="60.000000" height="20.000000" fill="green" stroke="black" stroke-width="0.5" />
<rect x="207.867966"  y="387.867966" width="60.000000" height="20.000000" fill="green" stroke="black" stroke-width="0.5" />
<rect x="267.867966"  y="387.867966" width="60.000000" height="20.000000" fill="green" stroke="black" stroke-width="0.5" />
<rect x="327.867966"  y="387.867966" width="60.000000" height="20.000000" fill="green" stroke="black" stroke-width="0.5" />
<rect x="387.867966"  y="387.867966" width="60.000000" height="20.000000" fill="green" stroke="black" stroke-width="0.5" />
<rect x="447.867966"  y="387.867966" width="60.000000" height="20.000000" fill="green" stroke="black" stroke-width="0.5" />
<rect x="87.867966"  y="407.867966" width="60.000000" height="20.000000" fill="green" stroke="black" stroke-width="0.5" />
<rect x="147.867966"  y="407.867966" width="60.000000" height="20.000000" fill="green" stroke="black" stroke-width="0.5" />
<rect x="207.867966"  y="407.867966" width="60.000000" height="20.000000" fill="green" stroke="black" stroke-width="0.5" />
<rect x="267.867966"  y="407.867966" width="60.000000" height="20.000000" fill="green" stroke="black" stroke-width="0.5" />
<rect x="327.867966"  y="407.867966" width="60.000000" height="20.000000" fill="green" stroke="black" stroke-width="0.5" />
<rect x="387.867966"  y="407.867966" width="60.000000" height="20.000000" fill="green" stroke="black" stroke-width="0.5" />
<rect x="447.867966"  y="407.867966" width="60.000000" height="20.000000" fill="green" stroke="black" stroke-width="0.5" />
<rect x="87.867966"  y="427.867966" width="60.000000" height="20.000000" fill="green" stroke="black" stroke-width="0.5" />
<rect x="147.867966"  y="427.867966" width="60.000000" height="20.000000" fill="green" stroke="black" stroke-width="0.5" />
<rect x="207.867966"  y="427.867966" width="60.000000" height="20.000000" fill="green" stroke="black" stroke-width="0.5" />
<rect x="267.867966"  y="427.867966" width="60.000000" height="20.000000" fill="green" stroke="black" stroke-width="0.5" />
<rect x="327.867966"  y="427.867966" width="60.000000" height="20.000000" fill="green" stroke="black" stroke-width="0.5" />
<rect x="387.867966"  y="427.867966" width="60.000000" height="20.000000" fill="green" stroke="black" stroke-width="0.5" />
<rect x="447.867966"  y="427.867966" width="60.000000" height="20.000000" fill="green" stroke="black" stroke-width="0.5" />
<rect x="87.867966"  y="447.867966" width="60.000000" height="20.000000" fill="green" stroke="black" stroke-width="0.5" />
<rect x="147.867966"  y="447.867966" width="60.000000" height="20.000000" fill="green" stroke="black" stroke-width="0.5" />
<rect x="207.867966"  y="447.867966" width="60.000000" height="20.000000" fill="green" stroke="black" stroke-width="0.5" />
<rect x="267.867966"  y="447.867966" width="60.000000" height="20.000000" fill="green" stroke="black" stroke-width="0.5" />
<rect x="327.867966"  y="447.867966" width="60.000000" height="20.000000" fill="green" stroke="black" stroke-width="0.5" />
<rect x="387.867966"  y="447.867966" width="60.000000" height="20.000000" fill="green" stroke="black" stroke-width="0.5" />
<rect x="447.867966"  y="447.867966" width="60.000000" height="20.000000" fill="green" stroke="black" stroke-width="0.5" />
<rect x="87.867966"  y="467.867966" width="60.000000" height="20.000000" fill="green" stroke="black" stroke-width="0.5" />
<rect x="147.867966"  y="467.867966" width="60.000000" height="20.000000" fill="green" stroke="black" stroke-width="0.5" />
<rect x="207.867966"  y="467.867966" width="60.000000" height="20.000000" fill="green" stroke="black" stroke-width="0.5" />
<rect x="267.867966"  y="467.867966" width="60.000000" height="20.000000" fill="green" stroke="black" stroke-width="0.5" />
<rect x="327.867966"  y="467.867966" width="60.000000" height="20.000000" fill="green" stroke="black" stroke-width="0.5" />
<rect x="387.867966"  y="467.867966" width="60.000000" height="20.000000" fill="green" stroke="black" stroke-width="0.5" />
<rect x="447.867966"  y="467.867966" width="60.000000" height="20.000000" fill="green" stroke="black" stroke-width="0.5" />
<rect x="87.867966"  y="487.867966" width="60.000000" height="20.000000" fill="green" stroke="black" stroke-width="0.5" />
<rect x="147.867966"  y="487.867966" width="60.000000" height="20.000000" fill="green" stroke="black" stroke-width="0.5" />
<rect x="207.867966"  y="487.867966" width="60.000000" height="20.000000" fill="green" stroke="black" stroke-width="0.5" />
<rect x="267.867966"  y="487.867966" width="60.000000" height="20.000000" fill="green" stroke="black" stroke-width="0.5" />
<rect x="327.867966"  y="487.867966" width="60.000000" height="20.000000" fill="green" stroke="black" stroke-width="0.5" />
<rect x="387.867966"  y="487.867966" width="60.000000" height="20.000000" fill="green" stroke="black" stroke-width="0.5" />
<rect x="447.867966"  y="487.867966" width="60.000000" height="20.000000" fill="green" stroke="black" stroke-width="0.5" />
<rect x="300.000000"  y="512.132034" width="60.000000" height="20.000000" transform="rotate(0 300.000000 300.000000)" fill="green" stroke="black" stroke-width="0.5" />
<rect x="240.000000"  y="512.132034" width="60.000000" height="20.000000" transform="rotate(0 300.000000 300.000000)" fill="green" stroke="black" stroke-width="0.5" />
<rect x="360.000000"  y="512.132034" width="60.000000" height="20.000000" transform="rotate(0 300.000000 300.000000)" fill="green" stroke="black" stroke-width="0.5" />
<rect x="180.000000"  y="512.132034" width="60.000000" height="20.000000" transform="rotate(0 300.000000 300.000000)" fill="green" stroke="black" stroke-width="0.5" />
<rect x="420.000000"  y="512.132034" width="60.000000" height="20.000000" transform="rotate(0 300.000000 300.000000)" fill="green" stroke="black" stroke-width="0.5" />
<rect x="120.000000"  y="512.132034" width="60.000000" height="20.000000" transform="rotate(0 300.000000 300.000000)" fill="green" stroke="black" stroke-width="0.5" />
<rect x="300.000000"  y="532.132034" width="60.000000" height="20.000000" transform="rotate(0 300.000000 300.000000)" fill="green" stroke="black" stroke-width="0.5" />
<rect x="240.000000"  y="532.132034" width="60.000000" height="20.000000" transform="rotate(0 300.000000 300.000000)" fill="green" stroke="black" stroke-width="0.5" />
<rect x="360.000000"  y="532.132034" width="60.000000" height="20.000000" transform="rotate(0 300.000000 300.000000)" fill="green" stroke="black" stroke-width="0.5" />
<rect x="180.000000"  y="532.132034" width="60.000000" height="20.000000" transform="rotate(0 300.000000 300.000000)" fill="green" stroke="black" stroke-width="0.5" />
<rect x="300.000000"  y="552.132034" width="60.000000" height="20.000000" transform="rotate(0 300.000000 300.000000)" fill="green" stroke="black" stroke-width="0.5" />
<rect x="240.000000"  y="552.132034" width="60.000000" height="20.000000" transform="rotate(0 300.000000 300.000000)" fill="green" stroke="black" stroke-width="0.5" />
<rect x="360.000000"  y="552.132034" width="60.000000" height="20.000000" transform="rotate(0 300.000000 300.000000)" fill="green" stroke="black" stroke-width="0.5" />
<rect x="180.000000"  y="552.132034" width="60.000000" height="20.000000" transform="rotate(0 300.000000 300.000000)" fill="green" stroke="black" stroke-width="0.5" />
<rect x="300.000000"  y="572.132034" width="60.000000" height="20.000000" transform="rotate(0 300.000000 300.000000)" fill="green" stroke="black" stroke-width="0.5" />
<rect x="240.000000"  y="572.132034" width="60.000000" height="20.000000" transform="rotate(0 300.000000 300.000000)" fill="green" stroke="black" stroke-width="0.5" />
<rect x="300.000000"  y="512.132034" width="60.000000" height="20.000000" transform="rotate(90 300.000000 300.000000)" fill="green" stroke="black" stroke-width="0.5" />
<rect x="240.000000"  y="512.132034" width="60.000000" height="20.000000" transform="rotate(90 300.000000 300.000000)" fill="green" stroke="black" stroke-width="0.5" />
<rect x="360.000000"  y="512.132034" width="60.000000" height="20.000000" transform="rotate(90 300.000000 300.000000)" fill="green" stroke="black" stroke-width="0.5" />
<rect x="180.000000"  y="512.132034" width="60.000000" height="20.000000" transform="rotate(90 300.000000 300.000000)" fill="green" stroke="black" stroke-width="0.5" />
<rect x="420.000000"  y="512.132034" width="60.000000" height="20.000000" transform="rotate(90 300.000000 300.000000)" fill="green" stroke="black" stroke-width="0.5" />
<rect x="120.000000"  y="512.132034" width="60.000000" height="20.000000" transform="rotate(90 300.000000 300.000000)" fill="green" stroke="black" stroke-width="0.5" />
<rect x="300.000000"  y="532.132034" width="60.000000" height="20.000000" transform="rotate(90 300.000000 300.000000)" fill="green" stroke="black" stroke-width="0.5" />
<rect x="240.000000"  y="532.132034" width="60.000000" height="20.000000" transform="rotate(90 300.000000 300.000000)" fill="green" stroke="black" stroke-width="0.5" />
<rect x="360.000000"  y="532.132034" width="60.000000" height="20.000000" transform="rotate(90 300.000000 300.000000)" fill="green" stroke="black" stroke-width="0.5" />
<rect x="180.000000"  y="532.132034" width="60.000000" height="20.000000" transform="rotate(90 300.000000 300.000000)" fill="green" stroke="black" stroke-width="0.5" />
<rect x="300.000000"  y="552.132034" width="60.000000" height="20.000000" transform="rotate(90 300.000000 300.000000)" fill="green" stroke="black" stroke-width="0.5" />
<rect x="240.000000"  y="552.132034" width="60.000000" height="20.000000" transform="rotate(90 300.000000 300.000000)" fill="green" stroke="black" stroke-width="0.5" />
<rect x="360.000000"  y="552.132034" width="60.000000" height="20.000000" transform="rotate(90 300.000000 300.000000)" fill="green" stroke="black" stroke-width="0.5" />
<rect x="180.000000"  y="552.132034" width="60.000000" height="20.000000" transform="rotate(90 300.000000 300.000000)" fill="green" stroke="black" stroke-width="0.5" />
<rect x="300.000000"  y="572.132034" width="60.000000" height="20.000000" transform="rotate(90 300.000000 300.000000)" fill="green" stroke="black" stroke-width="0.5" />
<rect x="240.000000"  y="572.132034" width="60.000000" height="20.000000" transform="rotate(90 300.000000 300.000000)" fill="green" stroke="black" stroke-width="0.5" />
<rect x="300.000000"  y="512.132034" width="60.000000" height="20.000000" transform="rotate(180 300.000000 300.000000)" fill="green" stroke="black" stroke-width="0.5" />
<rect x="240.000000"  y="512.132034" width="60.000000" height="20.000000" transform="rotate(180 300.000000 300.000000)" fill="green" stroke="black" stroke-width="0.5" />
<rect x="360.000000"  y="512.132034" width="60.000000" height="20.000000" transform="rotate(180 300.000000 300.000000)" fill="green" stroke="black" stroke-width="0.5" />
<rect x="180.000000"  y="512.132034" width="60.000000" height="20.000000" transform="rotate(180 300.000000 300.000000)" fill="green" stroke="black" stroke-width="0.5" />
<rect x="420.000000"  y="512.132034" width="60.000000" height="20.000000" transform="rotate(180 300.000000 300.000000)" fill="green" stroke="black" stroke-width="0.5" />
<rect x="120.000000"  y="512.132034" width="60.000000" height="20.000000" transform="rotate(180 300.000000 300.000000)" fill="green" stroke="black" stroke-width="0.5" />
<rect x="300.000000"  y="532.132034" width="60.000000" height="20.000000" transform="rotate(180 300.000000 300.000000)" fill="green" stroke="black" stroke-width="0.5" />
<rect x="240.000000"  y="532.132034" width="60.000000" height="20.000000" transform="rotate(180 300.000000 300.000000)" fill="green" stroke="black" stroke-width="0.5" />
<rect x="360.000000"  y="532.132034" width="60.000000" height="20.000000" transform="rotate(180 300.000000 300.000000)" fill="green" stroke="black" stroke-width="0.5" />
<rect x="180.000000"  y="532.132034" width="60.000000" height="20.000000" transform="rotate(180 300.000000 300.000000)" fill="green" stroke="black" stroke-width="0.5" />
<rect x="300.000000"  y="552.132034" width="60.000000" height="20.000000" transform="rotate(180 300.000000 300.000000)" fill="green" stroke="black" stroke-width="0.5" />
<rect x="240.000000"  y="552.132034" width="60.000000" height="20.000000" transform="rotate(180 300.000000 300.000000)" fill="green" stroke="black" stroke-width="0.5" />
<rect x="360.000000"  y="552.132034" width="60.000000" height="20.000000" transform="rotate(180 300.000000 300.000000)" fill="green" stroke="black" stroke-width="0.5" />
<rect x="180.000000"  y="552.132034" width="60.000000" height="20.000000" transform="rotate(180 300.000000 300.000000)" fill="green" stroke="black" stroke-width="0.5" />
<rect x="300.000000"  y="572.132034" width="60.000000" height="20.000000" transform="rotate(180 300.000000 300.000000)" fill="green" stroke="black" stroke-width="0.5" />
<rect x="240.000000"  y="572.132034" width="60.000000" height="20.000000" transform="rotate(180 300.000000 300.000000)" fill="green" stroke="black" stroke-width="0.5" />
<rect x="300.000000"  y="512.132034" width="60.000000" height="20.000000" transform="rotate(270 300.000000 300.000000)" fill="green" stroke="black" stroke-width="0.5" />
<rect x="240.000000"  y="512.132034" width="60.000000" height="20.000000" transform="rotate(270 300.000000 300.000000)" fill="green" stroke="black" stroke-width="0.5" />
<rect x="360.000000"  y="512.132034" width="60.000000" height="20.000000" transform="rotate(270 300.000000 300.000000)" fill="green" stroke="black" stroke-width="0.5" />
<rect x="180.000000"  y="512.132034" width="60.000000" height="20.000000" transform="rotate(270 300.000000 300.000000)" fill="green" stroke="black" stroke-width="0.5" />
<rect x="420.000000"  y="512.132034" width="60.000000" height="20.000000" transform="rotate(270 300.000000 300.000000)" fill="green" stroke="black" stroke-width="0.5" />
<rect x="120.000000"  y="512.132034" width="60.000000" height="20.000000" transform="rotate(270 300.000000 300.000000)" fill="green" stroke="black" stroke-width="0.5" />
<rect x="300.000000"  y="532.132034" width="60.000000" height="20.000000" transform="rotate(270 300.000000 300.000000)" fill="green" stroke="black" stroke-width="0.5" />
<rect x="240.000000"  y="532.132034" width="60.000000" height="20.000000" transform="rotate(270 300.000000 300.000000)" fill="green" stroke="black" stroke-width="0.5" />
<rect x="360.000000"  y="532.132034" width="60.000000" height="20.000000" transform="rotate(270 300.000000 300.000000)" fill="green" stroke="black" stroke-width="0.5" />
<rect x="180.000000"  y="532.132034" width="60.000000" height="20.000000" transform="rotate(270 300.000000 300.000000)" fill="green" stroke="black" stroke-width="0.5" />
<rect x="300.000000"  y="552.132034" width="60.000000" height="20.000000" transform="rotate(270 300.000000 300.000000)" fill="green" stroke="black" stroke-width="0.5" />
<rect x="240.000000"  y="552.132034" width="60.000000" height="20.000000" transform="rotate(270 300.000000 300.000000)" fill="green" stroke="black" stroke-width="0.5" />
<rect x="360.000000"  y="552.132034" width="60.000000" height="20.000000" transform="rotate(270 300.000000 300.000000)" fill="green" stroke="black" stroke-width="0.5" />
<rect x="180.000000"  y="552.132034" width="60.000000" height="20.000000" transform="rotate(270 300.000000 300.000000)" fill="green" stroke="black" stroke-width="0.5" />
<rect x="300.000000"  y="572.132034" width="60.000000" height="20.000000" transform="rotate(270 300.000000 300.000000)" fill="green" stroke="black" stroke-width="0.5" />
<rect x="240.000000"  y="572.132034" width="60.000000" height="20.000000" transform="rotate(270 300.000000 300.000000)" fill="green" stroke="black" stroke-width="0.5" />
</svg>