<svg version="1.1" baseProfile="full" xmlns="http://www.w3.org/2000/svg">
<polygon points="450.000000,0 0,779.422863 900.000000,779.422863" fill="red" stroke="black" stroke-width="0.5" />
<polygon points="450.000000,0.000000 420.500000,51.095499 479.500000,51.095499" fill="green" stroke="black" stroke-width="0.5" />
<polygon points="450.000000,102.190998 420.500000,51.095499 479.500000,51.095499" fill="green" stroke="black" stroke-width="0.5" />
<polygon points="420.500000,51.095499 391.000000,102.190998 450.000000,102.190998" fill="green" stroke="black" stroke-width="0.5" />
<polygon points="420.500000,153.286496 391.000000,102.190998 450.000000,102.190998" fill="green" stroke="black" stroke-width="0.5" />
<polygon points="479.500000,51.095499 450.000000,102.190998 509.000000,102.190998" fill="green" stroke="black" stroke-width="0.5" />
<polygon points="479.500000,153.286496 450.000000,102.190998 509.000000,102.190998" fill="green" stroke="black" stroke-width="0.5" />
<polygon points="391.000000,102.190998 361.500000,153.286496 420.500000,153.286496" fill="green" stroke="black" stroke-width="0.5" />
<polygon points="391.000000,204.381995 361.500000,153.286496 420.500000,153.286496" fill="green" stroke="black" stroke-width="0.5" />
<polygon points="450.000000,102.190998 420.500000,153.286496 479.500000,153.286496" fill="green" stroke="black" stroke-width="0.5" />
<polygon points="450.000000,204.381995 420.500000,153.286496 479.500000,153.286496" fill="green" stroke="black" stroke-width="0.5" />
<polygon points="509.000000,102.190998 479.500000,153.286496 538.500000,153.286496" fill="green" stroke="black" stroke-width="0.5" />
<polygon points="509.000000,204.381995 479.500000,153.286496 538.500000,153.286496" fill="green" stroke="black" stroke-width="0.5" />
<polygon points="361.500000,153.286496 332.000000,204.381995 391.000000,204.381995" fill="green" stroke="black" stroke-width="0.5" />
<polygon points="361.500000,255.477494 332.000000,204.381995 391.000000,204.381995" fill="green" stroke="black" stroke-width="0.5" />
<polygon points="420.500000,153.286496 391.000000,204.381995 450.000000,204.381995" fill="green" stroke="black" stroke-width="0.5" />
<polygon points="420.500000,255.477494 391.000000,204.381995 450.000000,204.381995" fill="green" stroke="black" stroke-width="0.5" />
<polygon points="479.500000,153.286496 450.000000,204.381995 509.000000,204.381995" fill="green" stroke="black" stroke-width="0.5" />
<polygon points="479.500000,255.477494 450.000000,204.381995 509.000000,204.381995" fill="green" stroke="black" stroke-width="0.5" />
<polygon points="538.500000,153.286496 509.000000,204.381995 568.000000,204.381995" fill="green" stroke="black" stroke-width="0.5" />
<polygon points="538.500000,255.477494 509.000000,204.381995 568.000000,204.381995" fill="green" stroke="black" stroke-width="0.5" />
<polygon points="332.000000,204.381995 302.500000,255.477494 361.500000,255.477494" fill="green" stroke="black" stroke-width="0.5" />
<polygon points="332.000000,306.572993 302.500000,255.477494 361.500000,255.477494" fill="green" stroke="black" stroke-width="0.5" />
<polygon points="391.000000,204.381995 361.500000,255.477494 420.500000,255.477494" fill="green" stroke="black" stroke-width="0.5" />
<polygon points="391.000000,306.572993 361.500000,255.477494 420.500000,255.477494" fill="green" stroke="black" stroke-width="0.5" />
<polygon points="450.000000,204.381995 420.500000,255.477494 479.500000,255.477494" fill="green" stroke="black" stroke-width="0.5" />
<polygon points="450.000000,306.572993 420.500000,255.477494 479.500000,255.477494" fill="green" stroke="black" stroke-width="0.5" />
<polygon points="509.000000,204.381995 479.500000,255.477494 538.500000,255.477494" fill="green" stroke="black" stroke-width="0.5" />
<polygon points="509.000000,306.572993 479.500000,255.477494 538.500000,255.477494" fill="green" stroke="black" stroke-width="0.5" />
<polygon points="568.000000,204.381995 538.500000,255.477494 597.500000,255.477494" fill="green" stroke="black" stroke-width="0.5" />
<polygon points="568.000000,306.572993 538.500000,255.477494 597.500000,255.477494" fill="green" stroke="black" stroke-width="0.5" />
<polygon points="302.500000,255.477494 273.000000,306.572993 332.000000,306.572993" fill="green" stroke="black" stroke-width="0.5" />
<polygon points="302.500000,357.668492 273.000000,306.572993 332.000000,306.572993" fill="green" stroke="black" stroke-width="0.5" />
<polygon points="361.500000,255.477494 332.000000,306.572993 391.000000,306.572993" fill="green" stroke="black" stroke-width="0.5" />
<polygon points="361.500000,357.668492 332.000000,306.572993 391.000000,306.572993" fill="green" stroke="black" stroke-width="0.5" />
<polygon points="420.500000,255.477494 391.000000,306.572993 450.000000,306.572993" fill="green" stroke="black" stroke-width="0.5" />
<polygon points="420.500000,357.668492 391.000000,306.572993 450.000000,306.572993" fill="green" stroke="black" stroke-width="0.5" />
<polygon points="479.500000,255.477494 450.000000,306.572993 509.000000,306.572993" fill="green" stroke="black" stroke-width="0.5" />
<polygon points="479.500000,357.668492 450.000000,306.572993 509.000000,306.572993" fill="green" stroke="black" stroke-width="0.5" />
<polygon points="538.500000,255.477494 509.000000,306.572993 568.000000,306.572993" fill="green" stroke="black" stroke-width="0.5" />
<polygon points="538.500000,357.668492 509.000000,306.572993 568.000000,306.572993" fill="green" stroke="black" stroke-width="0.5" />
<polygon points="597.500000,255.477494 568.000000,306.572993 627.000000,306.572993" fill="green" stroke="black" stroke-width="0.5" />
<polygon points="597.500000,357.668492 568.000000,306.572993 627.000000,306.572993" fill="green" stroke="black" stroke-width="0.5" />
<polygon points="273.000000,306.572993 243.500000,357.668492 302.500000,357.668492" fill="green" stroke="black" stroke-width="0.5" />
<polygon points="273.000000,408.763991 243.500000,357.668492 302.500000,357.668492" fill="green" stroke="black" stroke-width="0.5" />
<polygon points="332.000000,306.572993 302.500000,357.668492 361.500000,357.668492" fill="green" stroke="black" stroke-width="0.5" />
<polygon points="332.000000,408.763991 302.500000,357.668492 361.500000,357.668492" fill="green" stroke="black" stroke-width="0.5" />
<polygon points="391.000000,306.572993 361.500000,357.668492 420.500000,357.668492" fill="green" stroke="black" stroke-width="0.5" />
<polygon points="391.000000,408.763991 361.500000,357.668492 420.500000,357.668492" fill="green" stroke="black" stroke-width="0.5" />
<polygon points="450.000000,306.572993 420.500000,357.668492 479.500000,357.668492" fill="green" stroke="black" stroke-width="0.5" />
<polygon points="450.000000,408.763991 420.500000,357.668492 479.500000,357.668492" fill="green" stroke="black" stroke-width="0.5" />
<polygon points="509.000000,306.572993 479.500000,357.668492 538.500000,357.668492" fill="green" stroke="black" stroke-width="0.5" />
<polygon points="509.000000,408.763991 479.500000,357.668492 538.500000,357.668492" fill="green" stroke="black" stroke-width="0.5" />
<polygon points="568.000000,306.572993 538.500000,357.668492 597.500000,357.668492" fill="green" stroke="black" stroke-width="0.5" />
<polygon points="568.000000,408.763991 538.500000,357.668492 597.500000,357.668492" fill="green" stroke="black" stroke-width="0.5" />
<polygon points="627.000000,306.572993 597.500000,357.668492 656.500000,357.668492" fill="green" stroke="black" stroke-width="0.5" />
<polygon points="627.000000,408.763991 597.500000,357.668492 656.500000,357.668492" fill="green" stroke="black" stroke-width="0.5" />
<polygon points="243.500000,357.668492 214.000000,408.763991 273.000000,408.763991" fill="green" stroke="black" stroke-width="0.5" />
<polygon points="243.500000,459.859489 214.000000,408.763991 273.000000,408.763991" fill="green" stroke="black" stroke-width="0.5" />
<polygon points="302.500000,357.668492 273.000000,408.763991 332.000000,408.763991" fill="green" stroke="black" stroke-width="0.5" />
<polygon points="302.500000,459.859489 273.000000,408.763991 332.000000,408.763991" fill="green" stroke="black" stroke-width="0.5" />
<polygon points="361.500000,357.668492 332.000000,408.763991 391.000000,408.763991" fill="green" stroke="black" stroke-width="0.5" />
<polygon points="361.500000,459.859489 332.000000,408.763991 391.000000,408.763991" fill="green" stroke="black" stroke-width="0.5" />
<polygon points="420.500000,357.668492 391.000000,408.763991 450.000000,408.763991" fill="green" stroke="black" stroke-width="0.5" />
<polygon points="420.500000,459.859489 391.000000,408.763991 450.000000,408.763991" fill="green" stroke="black" stroke-width="0.5" />
<polygon points="479.500000,357.668492 450.000000,408.763991 509.000000,408.763991" fill="green" stroke="black" stroke-width="0.5" />
<polygon points="479.500000,459.859489 450.000000,408.763991 509.000000,408.763991" fill="green" stroke="black" stroke-width="0.5" />
<polygon points="538.500000,357.668492 509.000000,408.763991 568.000000,408.763991" fill="green" stroke="black" stroke-width="0.5" />
<polygon points="538.500000,459.859489 509.000000,408.763991 568.000000,408.763991" fill="green" stroke="black" stroke-width="0.5" />
<polygon points="597.500000,357.668492 568.000000,408.763991 627.000000,408.763991" fill="green" stroke="black" stroke-width="0.5" />
<polygon points="597.500000,459.859489 568.000000,408.763991 627.000000,408.763991" fill="green" stroke="black" stroke-width="0.5" />
<polygon points="656.500000,357.668492 627.000000,408.763991 686.000000,408.763991" fill="green" stroke="black" stroke-width="0.5" />
<polygon points="656.500000,459.859489 627.000000,408.763991 686.000000,408.763991" fill="green" stroke="black" stroke-width="0.5" />
<polygon points="214.000000,408.763991 184.500000,459.859489 243.500000,459.859489" fill="green" stroke="black" stroke-width="0.5" />
<polygon points="214.000000,510.954988 184.500000,459.859489 243.500000,459.859489" fill="green" stroke="black" stroke-width="0.5" />
<polygon points="273.000000,408.763991 243.500000,459.859489 302.500000,459.859489" fill="green" stroke="black" stroke-width="0.5" />
<polygon points="273.000000,510.954988 243.500000,459.859489 302.500000,459.859489" fill="green" stroke="black" stroke-width="0.5" />
<polygon points="332.000000,408.763991 302.500000,459.859489 361.500000,459.859489" fill="green" stroke="black" stroke-width="0.5" />
<polygon points="332.000000,510.954988 302.500000,459.859489 361.500000,459.859489" fill="green" stroke="black" stroke-width="0.5" />
<polygon points="391.000000,408.763991 361.500000,459.859489 420.500000,459.859489" fill="green" stroke="black" stroke-width="0.5" />
<polygon points="391.000000,510.954988 361.500000,459.859489 420.500000,459.859489" fill="green" stroke="black" stroke-width="0.5" />
<polygon points="450.000000,408.763991 420.500000,459.859489 479.500000,459.859489" fill="green" stroke="black" stroke-width="0.5" />
<polygon points="450.000000,510.954988 420.500000,459.859489 479.500000,459.859489" fill="green" stroke="black" stroke-width="0.5" />
<polygon points="509.000000,408.763991 479.500000,459.859489 538.500000,459.859489" fill="green" stroke="black" stroke-width="0.5" />
<polygon points="509.000000,510.954988 479.500000,459.859489 538.500000,459.859489" fill="green" stroke="black" stroke-width="0.5" />
<polygon points="568.000000,408.763991 538.500000,459.859489 597.500000,459.859489" fill="green" stroke="black" stroke-width="0.5" />
<polygon points="568.000000,510.954988 538.500000,459.859489 597.500000,459.859489" fill="green" stroke="black" stroke-width="0.5" />
<polygon points="627.000000,408.763991 597.500000,459.859489 656.500000,459.859489" fill="green" stroke="black" stroke-width="0.5" />
<polygon points="627.000000,510.954988 597.500000,459.859489 656.500000,459.859489" fill="green" stroke="black" stroke-width="0.5" />
<polygon points="686.000000,408.763991 656.500000,459.859489 715.500000,459.859489" fill="green" stroke="black" stroke-width="0.5" />
<polygon points="686.000000,510.954988 656.500000,459.859489 715.500000,459.859489" fill="green" stroke="black" stroke-width="0.5" />
<polygon points="184.500000,459.859489 155.000000,510.954988 214.000000,510.954988" fill="green" stroke="black" stroke-width="0.5" />
<polygon points="184.500000,562.050487 155.000000,510.954988 214.000000,510.954988" fill="green" stroke="black" stroke-width="0.5" />
<polygon points="243.500000,459.859489 214.000000,510.954988 273.000000,510.954988" fill="green" stroke="black" stroke-width="0.5" />
<polygon points="243.500000,562.050487 214.000000,510.954988 273.000000,510.954988" fill="green" stroke="black" stroke-width="0.5" />
<polygon points="302.500000,459.859489 273.000000,510.954988 332.000000,510.954988" fill="green" stroke="black" stroke-width="0.5" />
<polygon points="302.500000,562.050487 273.000000,510.954988 332.000000,510.954988" fill="green" stroke="black" stroke-width="0.5" />
<polygon points="361.500000,459.859489 332.000000,510.954988 391.000000,510.954988" fill="green" stroke="black" stroke-width="0.5" />
<polygon points="361.500000,562.050487 332.000000,510.954988 391.000000,510.954988" fill="green" stroke="black" stroke-width="0.5" />
<polygon points="420.500000,459.859489 391.000000,510.954988 450.000000,510.954988" fill="green" stroke="black" stroke-width="0.5" />
<polygon points="420.500000,562.050487 391.000000,510.954988 450.000000,510.954988" fill="green" stroke="black" stroke-width="0.5" />
<polygon points="479.500000,459.859489 450.000000,510.954988 509.000000,510.954988" fill="green" stroke="black" stroke-width="0.5" />
<polygon points="479.500000,562.050487 450.000000,510.954988 509.000000,510.954988" fill="green" stroke="black" stroke-width="0.5" />
<polygon points="538.500000,459.859489 509.000000,510.954988 568.000000,510.954988" fill="green" stroke="black" stroke-width="0.5" />
<polygon points="538.500000,562.050487 509.000000,510.954988 568.000000,510.954988" fill="green" stroke="black" stroke-width="0.5" />
<polygon points="597.500000,459.859489 568.000000,510.954988 627.000000,510.954988" fill="green" stroke="black" stroke-width="0.5" />
<polygon points="597.500000,562.050487 568.000000,510.954988 627.000000,510.954988" fill="green" stroke="black" stroke-width="0.5" />
<polygon points="656.500000,459.859489 627.000000,510.954988 686.000000,510.954988" fill="green" stroke="black" stroke-width="0.5" />
<polygon points="656.500000,562.050487 627.000000,510.954988 686.000000,510.954988" fill="green" stroke="black" stroke-width="0.5" />
<polygon points="715.500000,459.859489 686.000000,510.954988 745.000000,510.954988" fill="green" stroke="black" stroke-width="0.5" />
<polygon points="715.500000,562.050487 686.000000,510.954988 745.000000,510.954988" fill="green" stroke="black" stroke-width="0.5" />
<polygon points="155.000000,510.954988 125.500000,562.050487 184.500000,562.050487" fill="green" stroke="black" stroke-width="0.5" />
<polygon points="155.000000,613.145986 125.500000,562.050487 184.500000,562.050487" fill="green" stroke="black" stroke-width="0.5" />
<polygon points="214.000000,510.954988 184.500000,562.050487 243.500000,562.050487" fill="green" stroke="black" stroke-width="0.5" />
<polygon points="214.000000,613.145986 184.500000,562.050487 243.500000,562.050487" fill="green" stroke="black" stroke-width="0.5" />
<polygon points="273.000000,510.954988 243.500000,562.050487 302.500000,562.050487" fill="green" stroke="black" stroke-width="0.5" />
<polygon points="273.000000,613.145986 243.500000,562.050487 302.500000,562.050487" fill="green" stroke="black" stroke-width="0.5" />
<polygon points="332.000000,510.954988 302.500000,562.050487 361.500000,562.050487" fill="green" stroke="black" stroke-width="0.5" />
<polygon points="332.000000,613.145986 302.500000,562.050487 361.500000,562.050487" fill="green" stroke="black" stroke-width="0.5" />
<polygon points="391.000000,510.954988 361.500000,562.050487 420.500000,562.050487" fill="green" stroke="black" stroke-width="0.5" />
<polygon points="391.000000,613.145986 361.500000,562.050487 420.500000,562.050487" fill="green" stroke="black" stroke-width="0.5" />
<polygon points="450.000000,510.954988 420.500000,562.050487 479.500000,562.050487" fill="green" stroke="black" stroke-width="0.5" />
<polygon points="450.000000,613.145986 420.500000,562.050487 479.500000,562.050487" fill="green" stroke="black" stroke-width="0.5" />
<polygon points="509.000000,510.954988 479.500000,562.050487 538.500000,562.050487" fill="green" stroke="black" stroke-width="0.5" />
<polygon points="509.000000,613.145986 479.500000,562.050487 538.500000,562.050487" fill="green" stroke="black" stroke-width="0.5" />
<polygon points="568.000000,510.954988 538.500000,562.050487 597.500000,562.050487" fill="green" stroke="black" stroke-width="0.5" />
<polygon points="568.000000,613.145986 538.500000,562.050487 597.500000,562.050487" fill="green" stroke="black" stroke-width="0.5" />
<polygon points="627.000000,510.954988 597.500000,562.050487 656.500000,562.050487" fill="green" stroke="black" stroke-width="0.5" />
<polygon points="627.000000,613.145986 597.500000,562.050487 656.500000,562.050487" fill="green" stroke="black" stroke-width="0.5" />
<polygon points="686.000000,510.954988 656.500000,562.050487 715.500000,562.050487" fill="green" stroke="black" stroke-width="0.5" />
<polygon points="686.000000,613.145986 656.500000,562.050487 715.500000,562.050487" fill="green" stroke="black" stroke-width="0.5" />
<polygon points="745.000000,510.954988 715.500000,562.050487 774.500000,562.050487" fill="green" stroke="black" stroke-width="0.5" />
<polygon points="745.000000,613.145986 715.500000,562.050487 774.500000,562.050487" fill="green" stroke="black" stroke-width="0.5" />
<polygon points="125.500000,562.050487 96.000000,613.145986 155.000000,613.145986" fill="green" stroke="black" stroke-width="0.5" />
<polygon points="125.500000,664.241485 96.000000,613.145986 155.000000,613.145986" fill="green" stroke="black" stroke-width="0.5" />
<polygon points="184.500000,562.050487 155.000000,613.145986 214.000000,613.145986" fill="green" stroke="black" stroke-width="0.5" />
<polygon points="184.500000,664.241485 155.000000,613.145986 214.000000,613.145986" fill="green" stroke="black" stroke-width="0.5" />
<polygon points="243.500000,562.050487 214.000000,613.145986 273.000000,613.145986" fill="green" stroke="black" stroke-width="0.5" />
<polygon points="243.500000,664.241485 214.000000,613.145986 273.000000,613.145986" fill="green" stroke="black" stroke-width="0.5" />
<polygon points="302.500000,562.050487 273.000000,613.145986 332.000000,613.145986" fill="green" stroke="black" stroke-width="0.5" />
<polygon points="302.500000,664.241485 273.000000,613.145986 332.000000,613.145986" fill="green" stroke="black" stroke-width="0.5" />
<polygon points="361.500000,562.050487 332.000000,613.145986 391.000000,613.145986" fill="green" stroke="black" stroke-width="0.5" />
<polygon points="361.500000,664.241485 332.000000,613.145986 391.000000,613.145986" fill="green" stroke="black" stroke-width="0.5" />
<polygon points="420.500000,562.050487 391.000000,613.145986 450.000000,613.145986" fill="green" stroke="black" stroke-width="0.5" />
<polygon points="420.500000,664.241485 391.000000,613.145986 450.000000,613.145986" fill="green" stroke="black" stroke-width="0.5" />
<polygon points="479.500000,562.050487 450.000000,613.145986 509.000000,613.145986" fill="green" stroke="black" stroke-width="0.5" />
<polygon points="479.500000,664.241485 450.000000,613.145986 509.000000,613.145986" fill="green" stroke="black" stroke-width="0.5" />
<polygon points="538.500000,562.050487 509.000000,613.145986 568.000000,613.145986" fill="green" stroke="black" stroke-width="0.5" />
<polygon points="538.500000,664.241485 509.000000,613.145986 568.000000,613.145986" fill="green" stroke="black" stroke-width="0.5" />
<polygon points="597.500000,562.050487 568.000000,613.145986 627.000000,613.145986" fill="green" stroke="black" stroke-width="0.5" />
<polygon points="597.500000,664.241485 568.000000,613.145986 627.000000,613.145986" fill="green" stroke="black" stroke-width="0.5" />
<polygon points="656.500000,562.050487 627.000000,613.145986 686.000000,613.145986" fill="green" stroke="black" stroke-width="0.5" />
<polygon points="656.500000,664.241485 627.000000,613.145986 686.000000,613.145986" fill="green" stroke="black" stroke-width="0.5" />
<polygon points="715.500000,562.050487 686.000000,613.145986 745.000000,613.145986" fill="green" stroke="black" stroke-width="0.5" />
<polygon points="715.500000,664.241485 686.000000,613.145986 745.000000,613.145986" fill="green" stroke="black" stroke-width="0.5" />
<polygon points="774.500000,562.050487 745.000000,613.145986 804.000000,613.145986" fill="green" stroke="black" stroke-width="0.5" />
<polygon points="774.500000,664.241485 745.000000,613.145986 804.000000,613.145986" fill="green" stroke="black" stroke-width="0.5" />
<polygon points="96.000000,613.145986 66.500000,664.241485 125.500000,664.241485" fill="green" stroke="black" stroke-width="0.5" />
<polygon points="96.000000,715.336984 66.500000,664.241485 125.500000,664.241485" fill="green" stroke="black" stroke-width="0.5" />
<polygon points="155.000000,613.145986 125.500000,664.241485 184.500000,664.241485" fill="green" stroke="black" stroke-width="0.5" />
<polygon points="155.000000,715.336984 125.500000,664.241485 184.500000,664.241485" fill="green" stroke="black" stroke-width="0.5" />
<polygon points="214.000000,613.145986 184.500000,664.241485 243.500000,664.241485" fill="green" stroke="black" stroke-width="0.5" />
<polygon points="214.000000,715.336984 184.500000,664.241485 243.500000,664.241485" fill="green" stroke="black" stroke-width="0.5" />
<polygon points="273.000000,613.145986 243.500000,664.241485 302.500000,664.241485" fill="green" stroke="black" stroke-width="0.5" />
<polygon points="273.000000,715.336984 243.500000,664.241485 302.500000,664.241485" fill="green" stroke="black" stroke-width="0.5" />
<polygon points="332.000000,613.145986 302.500000,664.241485 361.500000,664.241485" fill="green" stroke="black" stroke-width="0.5" />
<polygon points="332.000000,715.336984 302.500000,664.241485 361.500000,664.241485" fill="green" stroke="black" stroke-width="0.5" />
<polygon points="391.000000,613.145986 361.500000,664.241485 420.500000,664.241485" fill="green" stroke="black" stroke-width="0.5" />
<polygon points="391.000000,715.336984 361.500000,664.241485 420.500000,664.241485" fill="green" stroke="black" stroke-width="0.5" />
<polygon points="450.000000,613.145986 420.500000,664.241485 479.500000,664.241485" fill="green" stroke="black" stroke-width="0.5" />
<polygon points="450.000000,715.336984 420.500000,664.241485 479.500000,664.241485" fill="green" stroke="black" stroke-width="0.5" />
<polygon points="509.000000,613.145986 479.500000,664.241485 538.500000,664.241485" fill="green" stroke="black" stroke-width="0.5" />
<polygon points="509.000000,715.336984 479.500000,664.241485 538.500000,664.241485" fill="green" stroke="black" stroke-width="0.5" />
<polygon points="568.000000,613.145986 538.500000,664.241485 597.500000,664.241485" fill="green" stroke="black" stroke-width="0.5" />
<polygon points="568.000000,715.336984 538.500000,664.241485 597.500000,664.241485" fill="green" stroke="black" stroke-width="0.5" />
<polygon points="627.000000,613.145986 597.500000,664.241485 656.500000,664.241485" fill="green" stroke="black" stroke-width="0.5" />
<polygon points="627.000000,715.336984 597.500000,664.241485 656.500000,664.241485" fill="green" stroke="black" stroke-width="0.5" />
<polygon points="686.000000,613.145986 656.500000,664.241485 715.500000,664.241485" fill="green" stroke="black" stroke-width="0.5" />
<polygon points="686.000000,715.336984 656.500000,664.241485 715.500000,664.241485" fill="green" stroke="black" stroke-width="0.5" />
<polygon points="745.000000,613.145986 715.500000,664.241485 774.500000,664.241485" fill="green" stroke="black" stroke-width="0.5" />
<polygon points="745.000000,715.336984 715.500000,664.241485 774.500000,664.241485" fill="green" stroke="black" stroke-width="0.5" />
<polygon points="804.000000,613.145986 774.500000,664.241485 833.500000,664.241485" fill="green" stroke="black" stroke-width="0.5" />
<polygon points="804.000000,715.336984 774.500000,664.241485 833.500000,664.241485" fill="green" stroke="black" stroke-width="0.5" />
<polygon points="66.500000,664.241485 37.000000,715.336984 96.000000,715.336984" fill="green" stroke="black" stroke-width="0.5" />
<polygon points="66.500000,766.432482 37.000000,715.336984 96.000000,715.336984" fill="green" stroke="black" stroke-width="0.5" />
<polygon points="125.500000,664.241485 96.000000,715.336984 155.000000,715.336984" fill="green" stroke="black" stroke-width="0.5" />
<polygon points="125.500000,766.432482 96.000000,715.336984 155.000000,715.336984" fill="green" stroke="black" stroke-width="0.5" />
<polygon points="184.500000,664.241485 155.000000,715.336984 214.000000,715.336984" fill="green" stroke="black" stroke-width="0.5" />
<polygon points="184.500000,766.432482 155.000000,715.336984 214.000000,715.336984" fill="green" stroke="black" stroke-width="0.5" />
<polygon points="243.500000,664.241485 214.000000,715.336984 273.000000,715.336984" fill="green" stroke="black" stroke-width="0.5" />
<polygon points="243.500000,766.432482 214.000000,715.336984 273.000000,715.336984" fill="green" stroke="black" stroke-width="0.5" />
<polygon points="302.500000,664.241485 273.000000,715.336984 332.000000,715.336984" fill="green" stroke="black" stroke-width="0.5" />
<polygon points="302.500000,766.432482 273.000000,715.336984 332.000000,715.336984" fill="green" stroke="black" stroke-width="0.5" />
<polygon points="361.500000,664.241485 332.000000,715.336984 391.000000,715.336984" fill="green" stroke="black" stroke-width="0.5" />
<polygon points="361.500000,766.432482 332.000000,715.336984 391.000000,715.336984" fill="green" stroke="black" stroke-width="0.5" />
<polygon points="420.500000,664.241485 391.000000,715.336984 450.000000,715.336984" fill="green" stroke="black" stroke-width="0.5" />
<polygon points="420.500000,766.432482 391.000000,715.336984 450.000000,715.336984" fill="green" stroke="black" stroke-width="0.5" />
<polygon points="479.500000,664.241485 450.000000,715.336984 509.000000,715.336984" fill="green" stroke="black" stroke-width="0.5" />
<polygon points="479.500000,766.432482 450.000000,715.336984 509.000000,715.336984" fill="green" stroke="black" stroke-width="0.5" />
<polygon points="538.500000,664.241485 509.000000,715.336984 568.000000,715.336984" fill="green" stroke="black" stroke-width="0.5" />
<polygon points="538.500000,766.432482 509.000000,715.336984 568.000000,715.336984" fill="green" stroke="black" stroke-width="0.5" />
<polygon points="597.500000,664.241485 568.000000,715.336984 627.000000,715.336984" fill="green" stroke="black" stroke-width="0.5" />
<polygon points="597.500000,766.432482 568.000000,715.336984 627.000000,715.336984" fill="green" stroke="black" stroke-width="0.5" />
<polygon points="656.500000,664.241485 627.000000,715.336984 686.000000,715.336984" fill="green" stroke="black" stroke-width="0.5" />
<polygon points="656.500000,766.432482 627.000000,715.336984 686.000000,715.336984" fill="green" stroke="black" stroke-width="0.5" />
<polygon points="715.500000,664.241485 686.000000,715.336984 745.000000,715.336984" fill="green" stroke="black" stroke-width="0.5" />
<polygon points="715.500000,766.432482 686.000000,715.336984 745.000000,715.336984" fill="green" stroke="black" stroke-width="0.5" />
<polygon points="774.500000,664.241485 745.000000,715.336984 804.000000,715.336984" fill="green" stroke="black" stroke-width="0.5" />
<polygon points="774.500000,766.432482 745.000000,715.336984 804.000000,715.336984" fill="green" stroke="black" stroke-width="0.5" />
<polygon points="833.500000,664.241485 804.000000,715.336984 863.000000,715.336984" fill="green" stroke="black" stroke-width="0.5" />
<polygon points="833.500000,766.432482 804.000000,715.336984 863.000000,715.336984" fill="green" stroke="black" stroke-width="0.5" />
<polygon points="37.000000,715.336984 7.500000,766.432482 66.500000,766.432482" fill="green" stroke="black" stroke-width="0.5" />
<polygon points="96.000000,715.336984 66.500000,766.432482 125.500000,766.432482" fill="green" stroke="black" stroke-width="0.5" />
<polygon points="155.000000,715.336984 125.500000,766.432482 184.500000,766.432482" fill="green" stroke="black" stroke-width="0.5" />
<polygon points="214.000000,715.336984 184.500000,766.432482 243.500000,766.432482" fill="green" stroke="black" stroke-width="0.5" />
<polygon points="273.000000,715.336984 243.500000,766.432482 302.500000,766.432482" fill="green" stroke="black" stroke-width="0.5" />
<polygon points="332.000000,715.336984 302.500000,766.432482 361.500000,766.432482" fill="green" stroke="black" stroke-width="0.5" />
<polygon points="391.000000,715.336984 361.500000,766.432482 420.500000,766.432482" fill="green" stroke="black" stroke-width="0.5" />
<polygon points="450.000000,715.336984 420.500000,766.432482 479.500000,766.432482" fill="green" stroke="black" stroke-width="0.5" />
<polygon points="509.000000,715.336984 479.500000,766.432482 538.500000,766.432482" fill="green" stroke="black" stroke-width="0.5" />
<polygon points="568.000000,715.336984 538.500000,766.432482 597.500000,766.432482" fill="green" stroke="black" stroke-width="0.5" />
<polygon points="627.000000,715.336984 597.500000,766.432482 656.500000,766.432482" fill="green" stroke="black" stroke-width="0.5" />
<polygon points="686.000000,715.336984 656.500000,766.432482 715.500000,766.432482" fill="green" stroke="black" stroke-width="0.5" />
<polygon points="745.000000,715.336984 715.500000,766.432482 774.500000,766.432482" fill="green" stroke="black" stroke-width="0.5" />
<polygon points="804.000000,715.336984 774.500000,766.432482 833.500000,766.432482" fill="green" stroke="black" stroke-width="0.5" />
<polygon points="863.000000,715.336984 833.500000,766.432482 892.500000,766.432482" fill="green" stroke="black" stroke-width="0.5" />
</svg>