<svg version="1.1" baseProfile="full" xmlns="http://www.w3.org/2000/svg">
<polygon points="450.000000,0 0,779.422863 900.000000,779.422863" fill="red" stroke="black" stroke-width="0.5" />
<circle cx="450.000000" cy="100.000000" r="50.000000" fill="green" stroke="black" stroke-width="0.5" />
<circle cx="400.000000" cy="186.602540" r="50.000000" fill="green" stroke="black" stroke-width="0.5" />
<circle cx="500.000000" cy="186.602540" r="50.000000" fill="green" stroke="black" stroke-width="0.5" />
<circle cx="450.000000" cy="273.205081" r="50.000000" fill="green" stroke="black" stroke-width="0.5" />
<circle cx="350.000000" cy="273.205081" r="50.000000" fill="green" stroke="black" stroke-width="0.5" />
<circle cx="550.000000" cy="273.205081" r="50.000000" fill="green" stroke="black" stroke-width="0.5" />
<circle cx="400.000000" cy="359.807621" r="50.000000" fill="green" stroke="black" stroke-width="0.5" />
<circle cx="500.000000" cy="359.807621" r="50.000000" fill="green" stroke="black" stroke-width="0.5" />
<circle cx="300.000000" cy="359.807621" r="50.000000" fill="green" stroke="black" stroke-width="0.5" />
<circle cx="600.000000" cy="359.807621" r="50.000000" fill="green" stroke="black" stroke-width="0.5" />
<circle cx="450.000000" cy="446.410162" r="50.000000" fill="green" stroke="black" stroke-width="0.5" />
<circle cx="350.000000" cy="446.410162" r="50.000000" fill="green" stroke="black" stroke-width="0.5" />
<circle cx="250.000000" cy="446.410162" r="50.000000" fill="green" stroke="black" stroke-width="0.5" />
<circle cx="550.000000" cy="446.410162" r="50.000000" fill="green" stroke="black" stroke-width="0.5" />
<circle cx="650.000000" cy="446.410162" r="50.000000" fill="green" stroke="black" stroke-width="0.5" />
<circle cx="400.000000" cy="533.012702" r="50.000000" fill="green" stroke="black" stroke-width="0.5" />
<circle cx="500.000000" cy="533.012702" r="50.000000" fill="green" stroke="black" stroke-width="0.5" />
<circle cx="300.000000" cy="533.012702" r="50.000000" fill="green" stroke="black" stroke-width="0.5" />
<circle cx="600.000000" cy="533.012702" r="50.000000" fill="green" stroke="black" stroke-width="0.5" />
<circle cx="200.000000" cy="533.012702" r="50.000000" fill="green" stroke="black" stroke-width="0.5" />
<circle cx="700.000000" cy="533.012702" r="50.000000" fill="green" stroke="black" stroke-width="0.5" />
<circle cx="450.000000" cy="619.615242" r="50.000000" fill="green" stroke="black" stroke-width="0.5" />
<circle cx="350.000000" cy="619.615242" r="50.000000" fill="green" stroke="black" stroke-width="0.5" />
<circle cx="250.000000" cy="619.615242" r="50.000000" fill="green" stroke="black" stroke-width="0.5" />
<circle cx="150.000000" cy="619.615242" r="50.000000" fill="green" stroke="black" stroke-width="0.5" />
<circle cx="550.000000" cy="619.615242" r="50.000000" fill="green" stroke="black" stroke-width="0.5" />
<circle cx="650.000000" cy="619.615242" r="50.000000" fill="green" stroke="black" stroke-width="0.5" />
<circle cx="750.000000" cy="619.615242" r="50.000000" fill="green" stroke="black" stroke-width="0.5" />
<circle cx="400.000000" cy="706.217783" r="50.000000" fill="green" stroke="black" stroke-width="0.5" />
<circle cx="500.000000" cy="706.217783" r="50.000000" fill="green" stroke="black" stroke-width="0.5" />
<circle cx="300.000000" cy="706.217783" r="50.000000" fill="green" stroke="black" stroke-width="0.5" />
<circle cx="600.000000" cy="706.217783" r="50.000000" fill="green" stroke="black" stroke-width="0.5" />
<circle cx="200.000000" cy="706.217783" r="50.000000" fill="green" stroke="black" stroke-width="0.5" />
<circle cx="700.000000" cy="706.217783" r="50.000000" fill="green" stroke="black" stroke-width="0.5" />
<circle cx="100.000000" cy="706.217783" r="50.000000" fill="green" stroke="black" stroke-width="0.5" />
<circle cx="800.000000" cy="706.217783" r="50.000000" fill="green" stroke="black" stroke-width="0.5" />
</svg>