<svg version="1.1" baseProfile="full" xmlns="http://www.w3.org/2000/svg">
<rect x="0"  y="0" width="750.000000" height="500.000000" fill="red" stroke="black" stroke-width="0.5" />
<circle cx="15.000000" cy="15.000000" r="15.000000" fill="green" stroke="black" stroke-width="0.5" />
<circle cx="45.000000" cy="15.000000" r="15.000000" fill="green" stroke="black" stroke-width="0.5" />
<circle cx="75.000000" cy="15.000000" r="15.000000" fill="green" stroke="black" stroke-width="0.5" />
<circle cx="105.000000" cy="15.000000" r="15.000000" fill="green" stroke="black" stroke-width="0.5" />
<circle cx="135.000000" cy="15.000000" r="15.000000" fill="green" stroke="black" stroke-width="0.5" />
<circle cx="165.000000" cy="15.000000" r="15.000000" fill="green" stroke="black" stroke-width="0.5" />
<circle cx="195.000000" cy="15.000000" r="15.000000" fill="green" stroke="black" stroke-width="0.5" />
<circle cx="225.000000" cy="15.000000" r="15.000000" fill="green" stroke="black" stroke-width="0.5" />
<circle cx="255.000000" cy="15.000000" r="15.000000" fill="green" stroke="black" stroke-width="0.5" />
<circle cx="285.000000" cy="15.000000" r="15.000000" fill="green" stroke="black" stroke-width="0.5" />
<circle cx="315.000000" cy="15.000000" r="15.000000" fill="green" stroke="black" stroke-width="0.5" />
<circle cx="345.000000" cy="15.000000" r="15.000000" fill="green" stroke="black" stroke-width="0.5" />
<circle cx="375.000000" cy="15.000000" r="15.000000" fill="green" stroke="black" stroke-width="0.5" />
<circle cx="405.000000" cy="15.000000" r="15.000000" fill="green" stroke="black" stroke-width="0.5" />
<circle cx="435.000000" cy="15.000000" r="15.000000" fill="green" stroke="black" stroke-width="0.5" />
<circle cx="465.000000" cy="15.000000" r="15.000000" fill="green" stroke="black" stroke-width="0.5" />
<circle cx="495.000000" cy="15.000000" r="15.000000" fill="green" stroke="black" stroke-width="0.5" />
<circle cx="525.000000" cy="15.000000" r="15.000000" fill="green" stroke="black" stroke-width="0.5" />
<circle cx="555.000000" cy="15.000000" r="15.000000" fill="green" stroke="black" stroke-width="0.5" />
<circle cx="585.000000" cy="15.000000" r="15.000000" fill="green" stroke="black" stroke-width="0.5" />
<circle cx="615.000000" cy="15.000000" r="15.000000" fill="green" stroke="black" stroke-width="0.5" />
<circle cx="645.000000" cy="15.000000" r="15.000000" fill="green" stroke="black" stroke-width="0.5" />
<circle cx="675.000000" cy="15.000000" r="15.000000" fill="green" stroke="black" stroke-width="0.5" />
<circle cx="705.000000" cy="15.000000" r="15.000000" fill="green" stroke="black" stroke-width="0.5" />
<circle cx="735.000000" cy="15.000000" r="15.000000" fill="green" stroke="black" stroke-width="0.5" />
<circle cx="30.000000" cy="40.980762" r="15.000000" fill="green" stroke="black" stroke-width="0.5" />
<circle cx="60.000000" cy="40.980762" r="15.000000" fill="green" stroke="black" stroke-width="0.5" />
<circle cx="90.000000" cy="40.980762" r="15.000000" fill="green" stroke="black" stroke-width="0.5" />
<circle cx="120.000000" cy="40.980762" r="15.000000" fill="green" stroke="black" stroke-width="0.5" />
<circle cx="150.000000" cy="40.980762" r="15.000000" fill="green" stroke="black" stroke-width="0.5" />
<circle cx="180.000000" cy="40.980762" r="15.000000" fill="green" stroke="black" stroke-width="0.5" />
<circle cx="210.000000" cy="40.980762" r="15.000000" fill="green" stroke="black" stroke-width="0.5" />
<circle cx="240.000000" cy="40.980762" r="15.000000" fill="green" stroke="black" stroke-width="0.5" />
<circle cx="270.000000" cy="40.980762" r="15.000000" fill="green" stroke="black" stroke-width="0.5" />
<circle cx="300.000000" cy="40.980762" r="15.000000" fill="green" stroke="black" stroke-width="0.5" />
<circle cx="330.000000" cy="40.980762" r="15.000000" fill="green" stroke="black" stroke-width="0.5" />
<circle cx="360.000000" cy="40.980762" r="15.000000" fill="green" stroke="black" stroke-width="0.5" />
<circle cx="390.000000" cy="40.980762" r="15.000000" fill="green" stroke="black" stroke-width="0.5" />
<circle cx="420.000000" cy="40.980762" r="15.000000" fill="green" stroke="black" stroke-width="0.5" />
<circle cx="450.000000" cy="40.980762" r="15.000000" fill="green" stroke="black" stroke-width="0.5" />
<circle cx="480.000000" cy="40.980762" r="15.000000" fill="green" stroke="black" stroke-width="0.5" />
<circle cx="510.000000" cy="40.980762" r="15.000000" fill="green" stroke="black" stroke-width="0.5" />
<circle cx="540.000000" cy="40.980762" r="15.000000" fill="green" stroke="black" stroke-width="0.5" />
<circle cx="570.000000" cy="40.980762" r="15.000000" fill="green" stroke="black" stroke-width="0.5" />
<circle cx="600.000000" cy="40.980762" r="15.000000" fill="green" stroke="black" stroke-width="0.5" />
<circle cx="630.000000" cy="40.980762" r="15.000000" fill="green" stroke="black" stroke-width="0.5" />
<circle cx="660.000000" cy="40.980762" r="15.000000" fill="green" stroke="black" stroke-width="0.5" />
<circle cx="690.000000" cy="40.980762" r="15.000000" fill="green" stroke="black" stroke-width="0.5" />
<circle cx="720.000000" cy="40.980762" r="15.000000" fill="green" stroke="black" stroke-width="0.5" />
<circle cx="15.000000" cy="66.961524" r="15.000000" fill="green" stroke="black" stroke-width="0.5" />
<circle cx="45.000000" cy="66.961524" r="15.000000" fill="green" stroke="black" stroke-width="0.5" />
<circle cx="75.000000" cy="66.961524" r="15.000000" fill="green" stroke="black" stroke-width="0.5" />
<circle cx="105.000000" cy="66.961524" r="15.000000" fill="green" stroke="black" stroke-width="0.5" />
<circle cx="135.000000" cy="66.961524" r="15.000000" fill="green" stroke="black" stroke-width="0.5" />
<circle cx="165.000000" cy="66.961524" r="15.000000" fill="green" stroke="black" stroke-width="0.5" />
<circle cx="195.000000" cy="66.961524" r="15.000000" fill="green" stroke="black" stroke-width="0.5" />
<circle cx="225.000000" cy="66.961524" r="15.000000" fill="green" stroke="black" stroke-width="0.5" />
<circle cx="255.000000" cy="66.961524" r="15.000000" fill="green" stroke="black" stroke-width="0.5" />
<circle cx="285.000000" cy="66.961524" r="15.000000" fill="green" stroke="black" stroke-width="0.5" />
<circle cx="315.000000" cy="66.961524" r="15.000000" fill="green" stroke="black" stroke-width="0.5" />
<circle cx="345.000000" cy="66.961524" r="15.000000" fill="green" stroke="black" stroke-width="0.5" />
<circle cx="375.000000" cy="66.961524" r="15.000000" fill="green" stroke="black" stroke-width="0.5" />
<circle cx="405.000000" cy="66.961524" r="15.000000" fill="green" stroke="black" stroke-width="0.5" />
<circle cx="435.000000" cy="66.961524" r="15.000000" fill="green" stroke="black" stroke-width="0.5" />
<circle cx="465.000000" cy="66.961524" r="15.000000" fill="green" stroke="black" stroke-width="0.5" />
<circle cx="495.000000" cy="66.961524" r="15.000000" fill="green" stroke="black" stroke-width="0.5" />
<circle cx="525.000000" cy="66.961524" r="15.000000" fill="green" stroke="black" stroke-width="0.5" />
<circle cx="555.000000" cy="66.961524" r="15.000000" fill="green" stroke="black" stroke-width="0.5" />
<circle cx="585.000000" cy="66.961524" r="15.000000" fill="green" stroke="black" stroke-width="0.5" />
<circle cx="615.000000" cy="66.961524" r="15.000000" fill="green" stroke="black" stroke-width="0.5" />
<circle cx="645.000000" cy="66.961524" r="15.000000" fill="green" stroke="black" stroke-width="0.5" />
<circle cx="675.000000" cy="66.961524" r="15.000000" fill="green" stroke="black" stroke-width="0.5" />
<circle cx="705.000000" cy="66.961524" r="15.000000" fill="green" stroke="black" stroke-width="0.5" />
<circle cx="735.000000" cy="66.961524" r="15.000000" fill="green" stroke="black" stroke-width="0.5" />
<circle cx="30.000000" cy="92.942286" r="15.000000" fill="green" stroke="black" stroke-width="0.5" />
<circle cx="60.000000" cy="92.942286" r="15.000000" fill="green" stroke="black" stroke-width="0.5" />
<circle cx="90.000000" cy="92.942286" r="15.000000" fill="green" stroke="black" stroke-width="0.5" />
<circle cx="120.000000" cy="92.942286" r="15.000000" fill="green" stroke="black" stroke-width="0.5" />
<circle cx="150.000000" cy="92.942286" r="15.000000" fill="green" stroke="black" stroke-width="0.5" />
<circle cx="180.000000" cy="92.942286" r="15.000000" fill="green" stroke="black" stroke-width="0.5" />
<circle cx="210.000000" cy="92.942286" r="15.000000" fill="green" stroke="black" stroke-width="0.5" />
<circle cx="240.000000" cy="92.942286" r="15.000000" fill="green" stroke="black" stroke-width="0.5" />
<circle cx="270.000000" cy="92.942286" r="15.000000" fill="green" stroke="black" stroke-width="0.5" />
<circle cx="300.000000" cy="92.942286" r="15.000000" fill="green" stroke="black" stroke-width="0.5" />
<circle cx="330.000000" cy="92.942286" r="15.000000" fill="green" stroke="black" stroke-width="0.5" />
<circle cx="360.000000" cy="92.942286" r="15.000000" fill="green" stroke="black" stroke-width="0.5" />
<circle cx="390.000000" cy="92.942286" r="15.000000" fill="green" stroke="black" stroke-width="0.5" />
<circle cx="420.000000" cy="92.942286" r="15.000000" fill="green" stroke="black" stroke-width="0.5" />
<circle cx="450.000000" cy="92.942286" r="15.000000" fill="green" stroke="black" stroke-width="0.5" />
<circle cx="480.000000" cy="92.942286" r="15.000000" fill="green" stroke="black" stroke-width="0.5" />
<circle cx="510.000000" cy="92.942286" r="15.000000" fill="green" stroke="black" stroke-width="0.5" />
<circle cx="540.000000" cy="92.942286" r="15.000000" fill="green" stroke="black" stroke-width="0.5" />
<circle cx="570.000000" cy="92.942286" r="15.000000" fill="green" stroke="black" stroke-width="0.5" />
<circle cx="600.000000" cy="92.942286" r="15.000000" fill="green" stroke="black" stroke-width="0.5" />
<circle cx="630.000000" cy="92.942286" r="15.000000" fill="green" stroke="black" stroke-width="0.5" />
<circle cx="660.000000" cy="92.942286" r="15.000000" fill="green" stroke="black" stroke-width="0.5" />
<circle cx="690.000000" cy="92.942286" r="15.000000" fill="green" stroke="black" stroke-width="0.5" />
<circle cx="720.000000" cy="92.942286" r="15.000000" fill="green" stroke="black" stroke-width="0.5" />
<circle cx="15.000000" cy="118.923048" r="15.000000" fill="green" stroke="black" stroke-width="0.5" />
<circle cx="45.000000" cy="118.923048" r="15.000000" fill="green" stroke="black" stroke-width="0.5" />
<circle cx="75.000000" cy="118.923048" r="15.000000" fill="green" stroke="black" stroke-width="0.5" />
<circle cx="105.000000" cy="118.923048" r="15.000000" fill="green" stroke="black" stroke-width="0.5" />
<circle cx="135.000000" cy="118.923048" r="15.000000" fill="green" stroke="black" stroke-width="0.5" />
<circle cx="165.000000" cy="118.923048" r="15.000000" fill="green" stroke="black" stroke-width="0.5" />
<circle cx="195.000000" cy="118.923048" r="15.000000" fill="green" stroke="black" stroke-width="0.5" />
<circle cx="225.000000" cy="118.923048" r="15.000000" fill="green" stroke="black" stroke-width="0.5" />
<circle cx="255.000000" cy="118.923048" r="15.000000" fill="green" stroke="black" stroke-width="0.5" />
<circle cx="285.000000" cy="118.923048" r="15.000000" fill="green" stroke="black" stroke-width="0.5" />
<circle cx="315.000000" cy="118.923048" r="15.000000" fill="green" stroke="black" stroke-width="0.5" />
<circle cx="345.000000" cy="118.923048" r="15.000000" fill="green" stroke="black" stroke-width="0.5" />
<circle cx="375.000000" cy="118.923048" r="15.000000" fill="green" stroke="black" stroke-width="0.5" />
<circle cx="405.000000" cy="118.923048" r="15.000000" fill="green" stroke="black" stroke-width="0.5" />
<circle cx="435.000000" cy="118.923048" r="15.000000" fill="green" stroke="black" stroke-width="0.5" />
<circle cx="465.000000" cy="118.923048" r="15.000000" fill="green" stroke="black" stroke-width="0.5" />
<circle cx="495.000000" cy="118.923048" r="15.000000" fill="green" stroke="black" stroke-width="0.5" />
<circle cx="525.000000" cy="118.923048" r="15.000000" fill="green" stroke="black" stroke-width="0.5" />
<circle cx="555.000000" cy="118.923048" r="15.000000" fill="green" stroke="black" stroke-width="0.5" />
<circle cx="585.000000" cy="118.923048" r="15.000000" fill="green" stroke="black" stroke-width="0.5" />
<circle cx="615.000000" cy="118.923048" r="15.000000" fill="green" stroke="black" stroke-width="0.5" />
<circle cx="645.000000" cy="118.923048" r="15.000000" fill="green" stroke="black" stroke-width="0.5" />
<circle cx="675.000000" cy="118.923048" r="15.000000" fill="green" stroke="black" stroke-width="0.5" />
<circle cx="705.000000" cy="118.923048" r="15.000000" fill="green" stroke="black" stroke-width="0.5" />
<circle cx="735.000000" cy="118.923048" r="15.000000" fill="green" stroke="black" stroke-width="0.5" />
<circle cx="30.000000" cy="144.903811" r="15.000000" fill="green" stroke="black" stroke-width="0.5" />
<circle cx="60.000000" cy="144.903811" r="15.000000" fill="green" stroke="black" stroke-width="0.5" />
<circle cx="90.000000" cy="144.903811" r="15.000000" fill="green" stroke="black" stroke-width="0.5" />
<circle cx="120.000000" cy="144.903811" r="15.000000" fill="green" stroke="black" stroke-width="0.5" />
<circle cx="150.000000" cy="144.903811" r="15.000000" fill="green" stroke="black" stroke-width="0.5" />
<circle cx="180.000000" cy="144.903811" r="15.000000" fill="green" stroke="black" stroke-width="0.5" />
<circle cx="210.000000" cy="144.903811" r="15.000000" fill="green" stroke="black" stroke-width="0.5" />
<circle cx="240.000000" cy="144.903811" r="15.000000" fill="green" stroke="black" stroke-width="0.5" />
<circle cx="270.000000" cy="144.903811" r="15.000000" fill="green" stroke="black" stroke-width="0.5" />
<circle cx="300.000000" cy="144.903811" r="15.000000" fill="green" stroke="black" stroke-width="0.5" />
<circle cx="330.000000" cy="144.903811" r="15.000000" fill="green" stroke="black" stroke-width="0.5" />
<circle cx="360.000000" cy="144.903811" r="15.000000" fill="green" stroke="black" stroke-width="0.5" />
<circle cx="390.000000" cy="144.903811" r="15.000000" fill="green" stroke="black" stroke-width="0.5" />
<circle cx="420.000000" cy="144.903811" r="15.000000" fill="green" stroke="black" stroke-width="0.5" />
<circle cx="450.000000" cy="144.903811" r="15.000000" fill="green" stroke="black" stroke-width="0.5" />
<circle cx="480.000000" cy="144.903811" r="15.000000" fill="green" stroke="black" stroke-width="0.5" />
<circle cx="510.000000" cy="144.903811" r="15.000000" fill="green" stroke="black" stroke-width="0.5" />
<circle cx="540.000000" cy="144.903811" r="15.000000" fill="green" stroke="black" stroke-width="0.5" />
<circle cx="570.000000" cy="144.903811" r="15.000000" fill="green" stroke="black" stroke-width="0.5" />
<circle cx="600.000000" cy="144.903811" r="15.000000" fill="green" stroke="black" stroke-width="0.5" />
<circle cx="630.000000" cy="144.903811" r="15.000000" fill="green" stroke="black" stroke-width="0.5" />
<circle cx="660.000000" cy="144.903811" r="15.000000" fill="green" stroke="black" stroke-width="0.5" />
<circle cx="690.000000" cy="144.903811" r="15.000000" fill="green" stroke="black" stroke-width="0.5" />
<circle cx="720.000000" cy="144.903811" r="15.000000" fill="green" stroke="black" stroke-width="0.5" />
<circle cx="15.000000" cy="170.884573" r="15.000000" fill="green" stroke="black" stroke-width="0.5" />
<circle cx="45.000000" cy="170.884573" r="15.000000" fill="green" stroke="black" stroke-width="0.5" />
<circle cx="75.000000" cy="170.884573" r="15.000000" fill="green" stroke="black" stroke-width="0.5" />
<circle cx="105.000000" cy="170.884573" r="15.000000" fill="green" stroke="black" stroke-width="0.5" />
<circle cx="135.000000" cy="170.884573" r="15.000000" fill="green" stroke="black" stroke-width="0.5" />
<circle cx="165.000000" cy="170.884573" r="15.000000" fill="green" stroke="black" stroke-width="0.5" />
<circle cx="195.000000" cy="170.884573" r="15.000000" fill="green" stroke="black" stroke-width="0.5" />
<circle cx="225.000000" cy="170.884573" r="15.000000" fill="green" stroke="black" stroke-width="0.5" />
<circle cx="255.000000" cy="170.884573" r="15.000000" fill="green" stroke="black" stroke-width="0.5" />
<circle cx="285.000000" cy="170.884573" r="15.000000" fill="green" stroke="black" stroke-width="0.5" />
<circle cx="315.000000" cy="170.884573" r="15.000000" fill="green" stroke="black" stroke-width="0.5" />
<circle cx="345.000000" cy="170.884573" r="15.000000" fill="green" stroke="black" stroke-width="0.5" />
<circle cx="375.000000" cy="170.884573" r="15.000000" fill="green" stroke="black" stroke-width="0.5" />
<circle cx="405.000000" cy="170.884573" r="15.000000" fill="green" stroke="black" stroke-width="0.5" />
<circle cx="435.000000" cy="170.884573" r="15.000000" fill="green" stroke="black" stroke-width="0.5" />
<circle cx="465.000000" cy="170.884573" r="15.000000" fill="green" stroke="black" stroke-width="0.5" />
<circle cx="495.000000" cy="170.884573" r="15.000000" fill="green" stroke="black" stroke-width="0.5" />
<circle cx="525.000000" cy="170.884573" r="15.000000" fill="green" stroke="black" stroke-width="0.5" />
<circle cx="555.000000" cy="170.884573" r="15.000000" fill="green" stroke="black" stroke-width="0.5" />
<circle cx="585.000000" cy="170.884573" r="15.000000" fill="green" stroke="black" stroke-width="0.5" />
<circle cx="615.000000" cy="170.884573" r="15.000000" fill="green" stroke="black" stroke-width="0.5" />
<circle cx="645.000000" cy="170.884573" r="15.000000" fill="green" stroke="black" stroke-width="0.5" />
<circle cx="675.000000" cy="170.884573" r="15.000000" fill="green" stroke="black" stroke-width="0.5" />
<circle cx="705.000000" cy="170.884573" r="15.000000" fill="green" stroke="black" stroke-width="0.5" />
<circle cx="735.000000" cy="170.884573" r="15.000000" fill="green" stroke="black" stroke-width="0.5" />
<circle cx="30.000000" cy="196.865335" r="15.000000" fill="green" stroke="black" stroke-width="0.5" />
<circle cx="60.000000" cy="196.865335" r="15.000000" fill="green" stroke="black" stroke-width="0.5" />
<circle cx="90.000000" cy="196.865335" r="15.000000" fill="green" stroke="black" stroke-width="0.5" />
<circle cx="120.000000" cy="196.865335" r="15.000000" fill="green" stroke="black" stroke-width="0.5" />
<circle cx="150.000000" cy="196.865335" r="15.000000" fill="green" stroke="black" stroke-width="0.5" />
<circle cx="180.000000" cy="196.865335" r="15.000000" fill="green" stroke="black" stroke-width="0.5" />
<circle cx="210.000000" cy="196.865335" r="15.000000" fill="green" stroke="black" stroke-width="0.5" />
<circle cx="240.000000" cy="196.865335" r="15.000000" fill="green" stroke="black" stroke-width="0.5" />
<circle cx="270.000000" cy="196.865335" r="15.000000" fill="green" stroke="black" stroke-width="0.5" />
<circle cx="300.000000" cy="196.865335" r="15.000000" fill="green" stroke="black" stroke-width="0.5" />
<circle cx="330.000000" cy="196.865335" r="15.000000" fill="green" stroke="black" stroke-width="0.5" />
<circle cx="360.000000" cy="196.865335" r="15.000000" fill="green" stroke="black" stroke-width="0.5" />
<circle cx="390.000000" cy="196.865335" r="15.000000" fill="green" stroke="black" stroke-width="0.5" />
<circle cx="420.000000" cy="196.865335" r="15.000000" fill="green" stroke="black" stroke-width="0.5" />
<circle cx="450.000000" cy="196.865335" r="15.000000" fill="green" stroke="black" stroke-width="0.5" />
<circle cx="480.000000" cy="196.865335" r="15.000000" fill="green" stroke="black" stroke-width="0.5" />
<circle cx="510.000000" cy="196.865335" r="15.000000" fill="green" stroke="black" stroke-width="0.5" />
<circle cx="540.000000" cy="196.865335" r="15.000000" fill="green" stroke="black" stroke-width="0.5" />
<circle cx="570.000000" cy="196.865335" r="15.000000" fill="green" stroke="black" stroke-width="0.5" />
<circle cx="600.000000" cy="196.865335" r="15.000000" fill="green" stroke="black" stroke-width="0.5" />
<circle cx="630.000000" cy="196.865335" r="15.000000" fill="green" stroke="black" stroke-width="0.5" />
<circle cx="660.000000" cy="196.865335" r="15.000000" fill="green" stroke="black" stroke-width="0.5" />
<circle cx="690.000000" cy="196.865335" r="15.000000" fill="green" stroke="black" stroke-width="0.5" />
<circle cx="720.000000" cy="196.865335" r="15.000000" fill="green" stroke="black" stroke-width="0.5" />
<circle cx="15.000000" cy="222.846097" r="15.000000" fill="green" stroke="black" stroke-width="0.5" />
<circle cx="45.000000" cy="222.846097" r="15.000000" fill="green" stroke="black" stroke-width="0.5" />
<circle cx="75.000000" cy="222.846097" r="15.000000" fill="green" stroke="black" stroke-width="0.5" />
<circle cx="105.000000" cy="222.846097" r="15.000000" fill="green" stroke="black" stroke-width="0.5" />
<circle cx="135.000000" cy="222.846097" r="15.000000" fill="green" stroke="black" stroke-width="0.5" />
<circle cx="165.000000" cy="222.846097" r="15.000000" fill="green" stroke="black" stroke-width="0.5" />
<circle cx="195.000000" cy="222.846097" r="15.000000" fill="green" stroke="black" stroke-width="0.5" />
<circle cx="225.000000" cy="222.846097" r="15.000000" fill="green" stroke="black" stroke-width="0.5" />
<circle cx="255.000000" cy="222.846097" r="15.000000" fill="green" stroke="black" stroke-width="0.5" />
<circle cx="285.000000" cy="222.846097" r="15.000000" fill="green" stroke="black" stroke-width="0.5" />
<circle cx="315.000000" cy="222.846097" r="15.000000" fill="green" stroke="black" stroke-width="0.5" />
<circle cx="345.000000" cy="222.846097" r="15.000000" fill="green" stroke="black" stroke-width="0.5" />
<circle cx="375.000000" cy="222.846097" r="15.000000" fill="green" stroke="black" stroke-width="0.5" />
<circle cx="405.000000" cy="222.846097" r="15.000000" fill="green" stroke="black" stroke-width="0.5" />
<circle cx="435.000000" cy="222.846097" r="15.000000" fill="green" stroke="black" stroke-width="0.5" />
<circle cx="465.000000" cy="222.846097" r="15.000000" fill="green" stroke="black" stroke-width="0.5" />
<circle cx="495.000000" cy="222.846097" r="15.000000" fill="green" stroke="black" stroke-width="0.5" />
<circle cx="525.000000" cy="222.846097" r="15.000000" fill="green" stroke="black" stroke-width="0.5" />
<circle cx="555.000000" cy="222.846097" r="15.000000" fill="green" stroke="black" stroke-width="0.5" />
<circle cx="585.000000" cy="222.846097" r="15.000000" fill="green" stroke="black" stroke-width="0.5" />
<circle cx="615.000000" cy="222.846097" r="15.000000" fill="green" stroke="black" stroke-width="0.5" />
<circle cx="645.000000" cy="222.846097" r="15.000000" fill="green" stroke="black" stroke-width="0.5" />
<circle cx="675.000000" cy="222.846097" r="15.000000" fill="green" stroke="black" stroke-width="0.5" />
<circle cx="705.000000" cy="222.846097" r="15.000000" fill="green" stroke="black" stroke-width="0.5" />
<circle cx="735.000000" cy="222.846097" r="15.000000" fill="green" stroke="black" stroke-width="0.5" />
<circle cx="30.000000" cy="248.826859" r="15.000000" fill="green" stroke="black" stroke-width="0.5" />
<circle cx="60.000000" cy="248.826859" r="15.000000" fill="green" stroke="black" stroke-width="0.5" />
<circle cx="90.000000" cy="248.826859" r="15.000000" fill="green" stroke="black" stroke-width="0.5" />
<circle cx="120.000000" cy="248.826859" r="15.000000" fill="green" stroke="black" stroke-width="0.5" />
<circle cx="150.000000" cy="248.826859" r="15.000000" fill="green" stroke="black" stroke-width="0.5" />
<circle cx="180.000000" cy="248.826859" r="15.000000" fill="green" stroke="black" stroke-width="0.5" />
<circle cx="210.000000" cy="248.826859" r="15.000000" fill="green" stroke="black" stroke-width="0.5" />
<circle cx="240.000000" cy="248.826859" r="15.000000" fill="green" stroke="black" stroke-width="0.5" />
<circle cx="270.000000" cy="248.826859" r="15.000000" fill="green" stroke="black" stroke-width="0.5" />
<circle cx="300.000000" cy="248.826859" r="15.000000" fill="green" stroke="black" stroke-width="0.5" />
<circle cx="330.000000" cy="248.826859" r="15.000000" fill="green" stroke="black" stroke-width="0.5" />
<circle cx="360.000000" cy="248.826859" r="15.000000" fill="green" stroke="black" stroke-width="0.5" />
<circle cx="390.000000" cy="248.826859" r="15.000000" fill="green" stroke="black" stroke-width="0.5" />
<circle cx="420.000000" cy="248.826859" r="15.000000" fill="green" stroke="black" stroke-width="0.5" />
<circle cx="450.000000" cy="248.826859" r="15.000000" fill="green" stroke="black" stroke-width="0.5" />
<circle cx="480.000000" cy="248.826859" r="15.000000" fill="green" stroke="black" stroke-width="0.5" />
<circle cx="510.000000" cy="248.826859" r="15.000000" fill="green" stroke="black" stroke-width="0.5" />
<circle cx="540.000000" cy="248.826859" r="15.000000" fill="green" stroke="black" stroke-width="0.5" />
<circle cx="570.000000" cy="248.826859" r="15.000000" fill="green" stroke="black" stroke-width="0.5" />
<circle cx="600.000000" cy="248.826859" r="15.000000" fill="green" stroke="black" stroke-width="0.5" />
<circle cx="630.000000" cy="248.826859" r="15.000000" fill="green" stroke="black" stroke-width="0.5" />
<circle cx="660.000000" cy="248.826859" r="15.000000" fill="green" stroke="black" stroke-width="0.5" />
<circle cx="690.000000" cy="248.826859" r="15.000000" fill="green" stroke="black" stroke-width="0.5" />
<circle cx="720.000000" cy="248.826859" r="15.000000" fill="green" stroke="black" stroke-width="0.5" />
<circle cx="15.000000" cy="274.807621" r="15.000000" fill="green" stroke="black" stroke-width="0.5" />
<circle cx="45.000000" cy="274.807621" r="15.000000" fill="green" stroke="black" stroke-width="0.5" />
<circle cx="75.000000" cy="274.807621" r="15.000000" fill="green" stroke="black" stroke-width="0.5" />
<circle cx="105.000000" cy="274.807621" r="15.000000" fill="green" stroke="black" stroke-width="0.5" />
<circle cx="135.000000" cy="274.807621" r="15.000000" fill="green" stroke="black" stroke-width="0.5" />
<circle cx="165.000000" cy="274.807621" r="15.000000" fill="green" stroke="black" stroke-width="0.5" />
<circle cx="195.000000" cy="274.807621" r="15.000000" fill="green" stroke="black" stroke-width="0.5" />
<circle cx="225.000000" cy="274.807621" r="15.000000" fill="green" stroke="black" stroke-width="0.5" />
<circle cx="255.000000" cy="274.807621" r="15.000000" fill="green" stroke="black" stroke-width="0.5" />
<circle cx="285.000000" cy="274.807621" r="15.000000" fill="green" stroke="black" stroke-width="0.5" />
<circle cx="315.000000" cy="274.807621" r="15.000000" fill="green" stroke="black" stroke-width="0.5" />
<circle cx="345.000000" cy="274.807621" r="15.000000" fill="green" stroke="black" stroke-width="0.5" />
<circle cx="375.000000" cy="274.807621" r="15.000000" fill="green" stroke="black" stroke-width="0.5" />
<circle cx="405.000000" cy="274.807621" r="15.000000" fill="green" stroke="black" stroke-width="0.5" />
<circle cx="435.000000" cy="274.807621" r="15.000000" fill="green" stroke="black" stroke-width="0.5" />
<circle cx="465.000000" cy="274.807621" r="15.000000" fill="green" stroke="black" stroke-width="0.5" />
<circle cx="495.000000" cy="274.807621" r="15.000000" fill="green" stroke="black" stroke-width="0.5" />
<circle cx="525.000000" cy="274.807621" r="15.000000" fill="green" stroke="black" stroke-width="0.5" />
<circle cx="555.000000" cy="274.807621" r="15.000000" fill="green" stroke="black" stroke-width="0.5" />
<circle cx="585.000000" cy="274.807621" r="15.000000" fill="green" stroke="black" stroke-width="0.5" />
<circle cx="615.000000" cy="274.807621" r="15.000000" fill="green" stroke="black" stroke-width="0.5" />
<circle cx="645.000000" cy="274.807621" r="15.000000" fill="green" stroke="black" stroke-width="0.5" />
<circle cx="675.000000" cy="274.807621" r="15.000000" fill="green" stroke="black" stroke-width="0.5" />
<circle cx="705.000000" cy="274.807621" r="15.000000" fill="green" stroke="black" stroke-width="0.5" />
<circle cx="735.000000" cy="274.807621" r="15.000000" fill="green" stroke="black" stroke-width="0.5" />
<circle cx="30.000000" cy="300.788383" r="15.000000" fill="green" stroke="black" stroke-width="0.5" />
<circle cx="60.000000" cy="300.788383" r="15.000000" fill="green" stroke="black" stroke-width="0.5" />
<circle cx="90.000000" cy="300.788383" r="15.000000" fill="green" stroke="black" stroke-width="0.5" />
<circle cx="120.000000" cy="300.788383" r="15.000000" fill="green" stroke="black" stroke-width="0.5" />
<circle cx="150.000000" cy="300.788383" r="15.000000" fill="green" stroke="black" stroke-width="0.5" />
<circle cx="180.000000" cy="300.788383" r="15.000000" fill="green" stroke="black" stroke-width="0.5" />
<circle cx="210.000000" cy="300.788383" r="15.000000" fill="green" stroke="black" stroke-width="0.5" />
<circle cx="240.000000" cy="300.788383" r="15.000000" fill="green" stroke="black" stroke-width="0.5" />
<circle cx="270.000000" cy="300.788383" r="15.000000" fill="green" stroke="black" stroke-width="0.5" />
<circle cx="300.000000" cy="300.788383" r="15.000000" fill="green" stroke="black" stroke-width="0.5" />
<circle cx="330.000000" cy="300.788383" r="15.000000" fill="green" stroke="black" stroke-width="0.5" />
<circle cx="360.000000" cy="300.788383" r="15.000000" fill="green" stroke="black" stroke-width="0.5" />
<circle cx="390.000000" cy="300.788383" r="15.000000" fill="green" stroke="black" stroke-width="0.5" />
<circle cx="420.000000" cy="300.788383" r="15.000000" fill="green" stroke="black" stroke-width="0.5" />
<circle cx="450.000000" cy="300.788383" r="15.000000" fill="green" stroke="black" stroke-width="0.5" />
<circle cx="480.000000" cy="300.788383" r="15.000000" fill="green" stroke="black" stroke-width="0.5" />
<circle cx="510.000000" cy="300.788383" r="15.000000" fill="green" stroke="black" stroke-width="0.5" />
<circle cx="540.000000" cy="300.788383" r="15.000000" fill="green" stroke="black" stroke-width="0.5" />
<circle cx="570.000000" cy="300.788383" r="15.000000" fill="green" stroke="black" stroke-width="0.5" />
<circle cx="600.000000" cy="300.788383" r="15.000000" fill="green" stroke="black" stroke-width="0.5" />
<circle cx="630.000000" cy="300.788383" r="15.000000" fill="green" stroke="black" stroke-width="0.5" />
<circle cx="660.000000" cy="300.788383" r="15.000000" fill="green" stroke="black" stroke-width="0.5" />
<circle cx="690.000000" cy="300.788383" r="15.000000" fill="green" stroke="black" stroke-width="0.5" />
<circle cx="720.000000" cy="300.788383" r="15.000000" fill="green" stroke="black" stroke-width="0.5" />
<circle cx="15.000000" cy="326.769145" r="15.000000" fill="green" stroke="black" stroke-width="0.5" />
<circle cx="45.000000" cy="326.769145" r="15.000000" fill="green" stroke="black" stroke-width="0.5" />
<circle cx="75.000000" cy="326.769145" r="15.000000" fill="green" stroke="black" stroke-width="0.5" />
<circle cx="105.000000" cy="326.769145" r="15.000000" fill="green" stroke="black" stroke-width="0.5" />
<circle cx="135.000000" cy="326.769145" r="15.000000" fill="green" stroke="black" stroke-width="0.5" />
<circle cx="165.000000" cy="326.769145" r="15.000000" fill="green" stroke="black" stroke-width="0.5" />
<circle cx="195.000000" cy="326.769145" r="15.000000" fill="green" stroke="black" stroke-width="0.5" />
<circle cx="225.000000" cy="326.769145" r="15.000000" fill="green" stroke="black" stroke-width="0.5" />
<circle cx="255.000000" cy="326.769145" r="15.000000" fill="green" stroke="black" stroke-width="0.5" />
<circle cx="285.000000" cy="326.769145" r="15.000000" fill="green" stroke="black" stroke-width="0.5" />
<circle cx="315.000000" cy="326.769145" r="15.000000" fill="green" stroke="black" stroke-width="0.5" />
<circle cx="345.000000" cy="326.769145" r="15.000000" fill="green" stroke="black" stroke-width="0.5" />
<circle cx="375.000000" cy="326.769145" r="15.000000" fill="green" stroke="black" stroke-width="0.5" />
<circle cx="405.000000" cy="326.769145" r="15.000000" fill="green" stroke="black" stroke-width="0.5" />
<circle cx="435.000000" cy="326.769145" r="15.000000" fill="green" stroke="black" stroke-width="0.5" />
<circle cx="465.000000" cy="326.769145" r="15.000000" fill="green" stroke="black" stroke-width="0.5" />
<circle cx="495.000000" cy="326.769145" r="15.000000" fill="green" stroke="black" stroke-width="0.5" />
<circle cx="525.000000" cy="326.769145" r="15.000000" fill="green" stroke="black" stroke-width="0.5" />
<circle cx="555.000000" cy="326.769145" r="15.000000" fill="green" stroke="black" stroke-width="0.5" />
<circle cx="585.000000" cy="326.769145" r="15.000000" fill="green" stroke="black" stroke-width="0.5" />
<circle cx="615.000000" cy="326.769145" r="15.000000" fill="green" stroke="black" stroke-width="0.5" />
<circle cx="645.000000" cy="326.769145" r="15.000000" fill="green" stroke="black" stroke-width="0.5" />
<circle cx="675.000000" cy="326.769145" r="15.000000" fill="green" stroke="black" stroke-width="0.5" />
<circle cx="705.000000" cy="326.769145" r="15.000000" fill="green" stroke="black" stroke-width="0.5" />
<circle cx="735.000000" cy="326.769145" r="15.000000" fill="green" stroke="black" stroke-width="0.5" />
<circle cx="30.000000" cy="352.749907" r="15.000000" fill="green" stroke="black" stroke-width="0.5" />
<circle cx="60.000000" cy="352.749907" r="15.000000" fill="green" stroke="black" stroke-width="0.5" />
<circle cx="90.000000" cy="352.749907" r="15.000000" fill="green" stroke="black" stroke-width="0.5" />
<circle cx="120.000000" cy="352.749907" r="15.000000" fill="green" stroke="black" stroke-width="0.5" />
<circle cx="150.000000" cy="352.749907" r="15.000000" fill="green" stroke="black" stroke-width="0.5" />
<circle cx="180.000000" cy="352.749907" r="15.000000" fill="green" stroke="black" stroke-width="0.5" />
<circle cx="210.000000" cy="352.749907" r="15.000000" fill="green" stroke="black" stroke-width="0.5" />
<circle cx="240.000000" cy="352.749907" r="15.000000" fill="green" stroke="black" stroke-width="0.5" />
<circle cx="270.000000" cy="352.749907" r="15.000000" fill="green" stroke="black" stroke-width="0.5" />
<circle cx="300.000000" cy="352.749907" r="15.000000" fill="green" stroke="black" stroke-width="0.5" />
<circle cx="330.000000" cy="352.749907" r="15.000000" fill="green" stroke="black" stroke-width="0.5" />
<circle cx="360.000000" cy="352.749907" r="15.000000" fill="green" stroke="black" stroke-width="0.5" />
<circle cx="390.000000" cy="352.749907" r="15.000000" fill="green" stroke="black" stroke-width="0.5" />
<circle cx="420.000000" cy="352.749907" r="15.000000" fill="green" stroke="black" stroke-width="0.5" />
<circle cx="450.000000" cy="352.749907" r="15.000000" fill="green" stroke="black" stroke-width="0.5" />
<circle cx="480.000000" cy="352.749907" r="15.000000" fill="green" stroke="black" stroke-width="0.5" />
<circle cx="510.000000" cy="352.749907" r="15.000000" fill="green" stroke="black" stroke-width="0.5" />
<circle cx="540.000000" cy="352.749907" r="15.000000" fill="green" stroke="black" stroke-width="0.5" />
<circle cx="570.000000" cy="352.749907" r="15.000000" fill="green" stroke="black" stroke-width="0.5" />
<circle cx="600.000000" cy="352.749907" r="15.000000" fill="green" stroke="black" stroke-width="0.5" />
<circle cx="630.000000" cy="352.749907" r="15.000000" fill="green" stroke="black" stroke-width="0.5" />
<circle cx="660.000000" cy="352.749907" r="15.000000" fill="green" stroke="black" stroke-width="0.5" />
<circle cx="690.000000" cy="352.749907" r="15.000000" fill="green" stroke="black" stroke-width="0.5" />
<circle cx="720.000000" cy="352.749907" r="15.000000" fill="green" stroke="black" stroke-width="0.5" />
<circle cx="15.000000" cy="378.730670" r="15.000000" fill="green" stroke="black" stroke-width="0.5" />
<circle cx="45.000000" cy="378.730670" r="15.000000" fill="green" stroke="black" stroke-width="0.5" />
<circle cx="75.000000" cy="378.730670" r="15.000000" fill="green" stroke="black" stroke-width="0.5" />
<circle cx="105.000000" cy="378.730670" r="15.000000" fill="green" stroke="black" stroke-width="0.5" />
<circle cx="135.000000" cy="378.730670" r="15.000000" fill="green" stroke="black" stroke-width="0.5" />
<circle cx="165.000000" cy="378.730670" r="15.000000" fill="green" stroke="black" stroke-width="0.5" />
<circle cx="195.000000" cy="378.730670" r="15.000000" fill="green" stroke="black" stroke-width="0.5" />
<circle cx="225.000000" cy="378.730670" r="15.000000" fill="green" stroke="black" stroke-width="0.5" />
<circle cx="255.000000" cy="378.730670" r="15.000000" fill="green" stroke="black" stroke-width="0.5" />
<circle cx="285.000000" cy="378.730670" r="15.000000" fill="green" stroke="black" stroke-width="0.5" />
<circle cx="315.000000" cy="378.730670" r="15.000000" fill="green" stroke="black" stroke-width="0.5" />
<circle cx="345.000000" cy="378.730670" r="15.000000" fill="green" stroke="black" stroke-width="0.5" />
<circle cx="375.000000" cy="378.730670" r="15.000000" fill="green" stroke="black" stroke-width="0.5" />
<circle cx="405.000000" cy="378.730670" r="15.000000" fill="green" stroke="black" stroke-width="0.5" />
<circle cx="435.000000" cy="378.730670" r="15.000000" fill="green" stroke="black" stroke-width="0.5" />
<circle cx="465.000000" cy="378.730670" r="15.000000" fill="green" stroke="black" stroke-width="0.5" />
<circle cx="495.000000" cy="378.730670" r="15.000000" fill="green" stroke="black" stroke-width="0.5" />
<circle cx="525.000000" cy="378.730670" r="15.000000" fill="green" stroke="black" stroke-width="0.5" />
<circle cx="555.000000" cy="378.730670" r="15.000000" fill="green" stroke="black" stroke-width="0.5" />
<circle cx="585.000000" cy="378.730670" r="15.000000" fill="green" stroke="black" stroke-width="0.5" />
<circle cx="615.000000" cy="378.730670" r="15.000000" fill="green" stroke="black" stroke-width="0.5" />
<circle cx="645.000000" cy="378.730670" r="15.000000" fill="green" stroke="black" stroke-width="0.5" />
<circle cx="675.000000" cy="378.730670" r="15.000000" fill="green" stroke="black" stroke-width="0.5" />
<circle cx="705.000000" cy="378.730670" r="15.000000" fill="green" stroke="black" stroke-width="0.5" />
<circle cx="735.000000" cy="378.730670" r="15.000000" fill="green" stroke="black" stroke-width="0.5" />
<circle cx="30.000000" cy="404.711432" r="15.000000" fill="green" stroke="black" stroke-width="0.5" />
<circle cx="60.000000" cy="404.711432" r="15.000000" fill="green" stroke="black" stroke-width="0.5" />
<circle cx="90.000000" cy="404.711432" r="15.000000" fill="green" stroke="black" stroke-width="0.5" />
<circle cx="120.000000" cy="404.711432" r="15.000000" fill="green" stroke="black" stroke-width="0.5" />
<circle cx="150.000000" cy="404.711432" r="15.000000" fill="green" stroke="black" stroke-width="0.5" />
<circle cx="180.000000" cy="404.711432" r="15.000000" fill="green" stroke="black" stroke-width="0.5" />
<circle cx="210.000000" cy="404.711432" r="15.000000" fill="green" stroke="black" stroke-width="0.5" />
<circle cx="240.000000" cy="404.711432" r="15.000000" fill="green" stroke="black" stroke-width="0.5" />
<circle cx="270.000000" cy="404.711432" r="15.000000" fill="green" stroke="black" stroke-width="0.5" />
<circle cx="300.000000" cy="404.711432" r="15.000000" fill="green" stroke="black" stroke-width="0.5" />
<circle cx="330.000000" cy="404.711432" r="15.000000" fill="green" stroke="black" stroke-width="0.5" />
<circle cx="360.000000" cy="404.711432" r="15.000000" fill="green" stroke="black" stroke-width="0.5" />
<circle cx="390.000000" cy="404.711432" r="15.000000" fill="green" stroke="black" stroke-width="0.5" />
<circle cx="420.000000" cy="404.711432" r="15.000000" fill="green" stroke="black" stroke-width="0.5" />
<circle cx="450.000000" cy="404.711432" r="15.000000" fill="green" stroke="black" stroke-width="0.5" />
<circle cx="480.000000" cy="404.711432" r="15.000000" fill="green" stroke="black" stroke-width="0.5" />
<circle cx="510.000000" cy="404.711432" r="15.000000" fill="green" stroke="black" stroke-width="0.5" />
<circle cx="540.000000" cy="404.711432" r="15.000000" fill="green" stroke="black" stroke-width="0.5" />
<circle cx="570.000000" cy="404.711432" r="15.000000" fill="green" stroke="black" stroke-width="0.5" />
<circle cx="600.000000" cy="404.711432" r="15.000000" fill="green" stroke="black" stroke-width="0.5" />
<circle cx="630.000000" cy="404.711432" r="15.000000" fill="green" stroke="black" stroke-width="0.5" />
<circle cx="660.000000" cy="404.711432" r="15.000000" fill="green" stroke="black" stroke-width="0.5" />
<circle cx="690.000000" cy="404.711432" r="15.000000" fill="green" stroke="black" stroke-width="0.5" />
<circle cx="720.000000" cy="404.711432" r="15.000000" fill="green" stroke="black" stroke-width="0.5" />
<circle cx="15.000000" cy="430.692194" r="15.000000" fill="green" stroke="black" stroke-width="0.5" />
<circle cx="45.000000" cy="430.692194" r="15.000000" fill="green" stroke="black" stroke-width="0.5" />
<circle cx="75.000000" cy="430.692194" r="15.000000" fill="green" stroke="black" stroke-width="0.5" />
<circle cx="105.000000" cy="430.692194" r="15.000000" fill="green" stroke="black" stroke-width="0.5" />
<circle cx="135.000000" cy="430.692194" r="15.000000" fill="green" stroke="black" stroke-width="0.5" />
<circle cx="165.000000" cy="430.692194" r="15.000000" fill="green" stroke="black" stroke-width="0.5" />
<circle cx="195.000000" cy="430.692194" r="15.000000" fill="green" stroke="black" stroke-width="0.5" />
<circle cx="225.000000" cy="430.692194" r="15.000000" fill="green" stroke="black" stroke-width="0.5" />
<circle cx="255.000000" cy="430.692194" r="15.000000" fill="green" stroke="black" stroke-width="0.5" />
<circle cx="285.000000" cy="430.692194" r="15.000000" fill="green" stroke="black" stroke-width="0.5" />
<circle cx="315.000000" cy="430.692194" r="15.000000" fill="green" stroke="black" stroke-width="0.5" />
<circle cx="345.000000" cy="430.692194" r="15.000000" fill="green" stroke="black" stroke-width="0.5" />
<circle cx="375.000000" cy="430.692194" r="15.000000" fill="green" stroke="black" stroke-width="0.5" />
<circle cx="405.000000" cy="430.692194" r="15.000000" fill="green" stroke="black" stroke-width="0.5" />
<circle cx="435.000000" cy="430.692194" r="15.000000" fill="green" stroke="black" stroke-width="0.5" />
<circle cx="465.000000" cy="430.692194" r="15.000000" fill="green" stroke="black" stroke-width="0.5" />
<circle cx="495.000000" cy="430.692194" r="15.000000" fill="green" stroke="black" stroke-width="0.5" />
<circle cx="525.000000" cy="430.692194" r="15.000000" fill="green" stroke="black" stroke-width="0.5" />
<circle cx="555.000000" cy="430.692194" r="15.000000" fill="green" stroke="black" stroke-width="0.5" />
<circle cx="585.000000" cy="430.692194" r="15.000000" fill="green" stroke="black" stroke-width="0.5" />
<circle cx="615.000000" cy="430.692194" r="15.000000" fill="green" stroke="black" stroke-width="0.5" />
<circle cx="645.000000" cy="430.692194" r="15.000000" fill="green" stroke="black" stroke-width="0.5" />
<circle cx="675.000000" cy="430.692194" r="15.000000" fill="green" stroke="black" stroke-width="0.5" />
<circle cx="705.000000" cy="430.692194" r="15.000000" fill="green" stroke="black" stroke-width="0.5" />
<circle cx="735.000000" cy="430.692194" r="15.000000" fill="green" stroke="black" stroke-width="0.5" />
<circle cx="30.000000" cy="456.672956" r="15.000000" fill="green" stroke="black" stroke-width="0.5" />
<circle cx="60.000000" cy="456.672956" r="15.000000" fill="green" stroke="black" stroke-width="0.5" />
<circle cx="90.000000" cy="456.672956" r="15.000000" fill="green" stroke="black" stroke-width="0.5" />
<circle cx="120.000000" cy="456.672956" r="15.000000" fill="green" stroke="black" stroke-width="0.5" />
<circle cx="150.000000" cy="456.672956" r="15.000000" fill="green" stroke="black" stroke-width="0.5" />
<circle cx="180.000000" cy="456.672956" r="15.000000" fill="green" stroke="black" stroke-width="0.5" />
<circle cx="210.000000" cy="456.672956" r="15.000000" fill="green" stroke="black" stroke-width="0.5" />
<circle cx="240.000000" cy="456.672956" r="15.000000" fill="green" stroke="black" stroke-width="0.5" />
<circle cx="270.000000" cy="456.672956" r="15.000000" fill="green" stroke="black" stroke-width="0.5" />
<circle cx="300.000000" cy="456.672956" r="15.000000" fill="green" stroke="black" stroke-width="0.5" />
<circle cx="330.000000" cy="456.672956" r="15.000000" fill="green" stroke="black" stroke-width="0.5" />
<circle cx="360.000000" cy="456.672956" r="15.000000" fill="green" stroke="black" stroke-width="0.5" />
<circle cx="390.000000" cy="456.672956" r="15.000000" fill="green" stroke="black" stroke-width="0.5" />
<circle cx="420.000000" cy="456.672956" r="15.000000" fill="green" stroke="black" stroke-width="0.5" />
<circle cx="450.000000" cy="456.672956" r="15.000000" fill="green" stroke="black" stroke-width="0.5" />
<circle cx="480.000000" cy="456.672956" r="15.000000" fill="green" stroke="black" stroke-width="0.5" />
<circle cx="510.000000" cy="456.672956" r="15.000000" fill="green" stroke="black" stroke-width="0.5" />
<circle cx="540.000000" cy="456.672956" r="15.000000" fill="green" stroke="black" stroke-width="0.5" />
<circle cx="570.000000" cy="456.672956" r="15.000000" fill="green" stroke="black" stroke-width="0.5" />
<circle cx="600.000000" cy="456.672956" r="15.000000" fill="green" stroke="black" stroke-width="0.5" />
<circle cx="630.000000" cy="456.672956" r="15.000000" fill="green" stroke="black" stroke-width="0.5" />
<circle cx="660.000000" cy="456.672956" r="15.000000" fill="green" stroke="black" stroke-width="0.5" />
<circle cx="690.000000" cy="456.672956" r="15.000000" fill="green" stroke="black" stroke-width="0.5" />
<circle cx="720.000000" cy="456.672956" r="15.000000" fill="green" stroke="black" stroke-width="0.5" />
<circle cx="15.000000" cy="482.653718" r="15.000000" fill="green" stroke="black" stroke-width="0.5" />
<circle cx="45.000000" cy="482.653718" r="15.000000" fill="green" stroke="black" stroke-width="0.5" />
<circle cx="75.000000" cy="482.653718" r="15.000000" fill="green" stroke="black" stroke-width="0.5" />
<circle cx="105.000000" cy="482.653718" r="15.000000" fill="green" stroke="black" stroke-width="0.5" />
<circle cx="135.000000" cy="482.653718" r="15.000000" fill="green" stroke="black" stroke-width="0.5" />
<circle cx="165.000000" cy="482.653718" r="15.000000" fill="green" stroke="black" stroke-width="0.5" />
<circle cx="195.000000" cy="482.653718" r="15.000000" fill="green" stroke="black" stroke-width="0.5" />
<circle cx="225.000000" cy="482.653718" r="15.000000" fill="green" stroke="black" stroke-width="0.5" />
<circle cx="255.000000" cy="482.653718" r="15.000000" fill="green" stroke="black" stroke-width="0.5" />
<circle cx="285.000000" cy="482.653718" r="15.000000" fill="green" stroke="black" stroke-width="0.5" />
<circle cx="315.000000" cy="482.653718" r="15.000000" fill="green" stroke="black" stroke-width="0.5" />
<circle cx="345.000000" cy="482.653718" r="15.000000" fill="green" stroke="black" stroke-width="0.5" />
<circle cx="375.000000" cy="482.653718" r="15.000000" fill="green" stroke="black" stroke-width="0.5" />
<circle cx="405.000000" cy="482.653718" r="15.000000" fill="green" stroke="black" stroke-width="0.5" />
<circle cx="435.000000" cy="482.653718" r="15.000000" fill="green" stroke="black" stroke-width="0.5" />
<circle cx="465.000000" cy="482.653718" r="15.000000" fill="green" stroke="black" stroke-width="0.5" />
<circle cx="495.000000" cy="482.653718" r="15.000000" fill="green" stroke="black" stroke-width="0.5" />
<circle cx="525.000000" cy="482.653718" r="15.000000" fill="green" stroke="black" stroke-width="0.5" />
<circle cx="555.000000" cy="482.653718" r="15.000000" fill="green" stroke="black" stroke-width="0.5" />
<circle cx="585.000000" cy="482.653718" r="15.000000" fill="green" stroke="black" stroke-width="0.5" />
<circle cx="615.000000" cy="482.653718" r="15.000000" fill="green" stroke="black" stroke-width="0.5" />
<circle cx="645.000000" cy="482.653718" r="15.000000" fill="green" stroke="black" stroke-width="0.5" />
<circle cx="675.000000" cy="482.653718" r="15.000000" fill="green" stroke="black" stroke-width="0.5" />
<circle cx="705.000000" cy="482.653718" r="15.000000" fill="green" stroke="black" stroke-width="0.5" />
<circle cx="735.000000" cy="482.653718" r="15.000000" fill="green" stroke="black" stroke-width="0.5" />
</svg>