<svg version="1.1" baseProfile="full" xmlns="http://www.w3.org/2000/svg">
<rect x="0"  y="0" width="500" height="600" transform="rotate(0 0 0)" fill="brown" stroke="black" stroke-width="0.5" />
<rect x="0"  y="0" width="15" height="110" transform="rotate(0 0 0)" fill="green" stroke="black" stroke-width="0.5" />
<rect x="15"  y="0" width="15" height="110" transform="rotate(0 0 0)" fill="green" stroke="black" stroke-width="0.5" />
<rect x="30"  y="0" width="15" height="110" transform="rotate(0 0 0)" fill="green" stroke="black" stroke-width="0.5" />
<rect x="45"  y="0" width="15" height="110" transform="rotate(0 0 0)" fill="green" stroke="black" stroke-width="0.5" />
<rect x="60"  y="0" width="15" height="110" transform="rotate(0 0 0)" fill="green" stroke="black" stroke-width="0.5" />
<rect x="75"  y="0" width="15" height="110" transform="rotate(0 0 0)" fill="green" stroke="black" stroke-width="0.5" />
<rect x="90"  y="0" width="15" height="110" transform="rotate(0 0 0)" fill="green" stroke="black" stroke-width="0.5" />
<rect x="105"  y="0" width="15" height="110" transform="rotate(0 0 0)" fill="green" stroke="black" stroke-width="0.5" />
<rect x="120"  y="0" width="15" height="110" transform="rotate(0 0 0)" fill="green" stroke="black" stroke-width="0.5" />
<rect x="135"  y="0" width="15" height="110" transform="rotate(0 0 0)" fill="green" stroke="black" stroke-width="0.5" />
<rect x="150"  y="0" width="15" height="110" transform="rotate(0 0 0)" fill="green" stroke="black" stroke-width="0.5" />
<rect x="165"  y="0" width="15" height="110" transform="rotate(0 0 0)" fill="green" stroke="black" stroke-width="0.5" />
<rect x="180"  y="0" width="15" height="110" transform="rotate(0 0 0)" fill="green" stroke="black" stroke-width="0.5" />
<rect x="195"  y="0" width="15" height="110" transform="rotate(0 0 0)" fill="green" stroke="black" stroke-width="0.5" />
<rect x="210"  y="0" width="15" height="110" transform="rotate(0 0 0)" fill="green" stroke="black" stroke-width="0.5" />
<rect x="225"  y="0" width="15" height="110" transform="rotate(0 0 0)" fill="green" stroke="black" stroke-width="0.5" />
<rect x="240"  y="0" width="15" height="110" transform="rotate(0 0 0)" fill="green" stroke="black" stroke-width="0.5" />
<rect x="255"  y="0" width="15" height="110" transform="rotate(0 0 0)" fill="green" stroke="black" stroke-width="0.5" />
<rect x="270"  y="0" width="15" height="110" transform="rotate(0 0 0)" fill="green" stroke="black" stroke-width="0.5" />
<rect x="285"  y="0" width="15" height="110" transform="rotate(0 0 0)" fill="green" stroke="black" stroke-width="0.5" />
<rect x="300"  y="0" width="15" height="110" transform="rotate(0 0 0)" fill="green" stroke="black" stroke-width="0.5" />
<rect x="315"  y="0" width="15" height="110" transform="rotate(0 0 0)" fill="green" stroke="black" stroke-width="0.5" />
<rect x="330"  y="0" width="15" height="110" transform="rotate(0 0 0)" fill="green" stroke="black" stroke-width="0.5" />
<rect x="345"  y="0" width="15" height="110" transform="rotate(0 0 0)" fill="green" stroke="black" stroke-width="0.5" />
<rect x="360"  y="0" width="15" height="110" transform="rotate(0 0 0)" fill="green" stroke="black" stroke-width="0.5" />
<rect x="375"  y="0" width="15" height="110" transform="rotate(0 0 0)" fill="green" stroke="black" stroke-width="0.5" />
<rect x="390"  y="0" width="15" height="110" transform="rotate(0 0 0)" fill="green" stroke="black" stroke-width="0.5" />
<rect x="405"  y="0" width="15" height="110" transform="rotate(0 0 0)" fill="green" stroke="black" stroke-width="0.5" />
<rect x="420"  y="0" width="15" height="110" transform="rotate(0 0 0)" fill="green" stroke="black" stroke-width="0.5" />
<rect x="435"  y="0" width="15" height="110" transform="rotate(0 0 0)" fill="green" stroke="black" stroke-width="0.5" />
<rect x="450"  y="0" width="15" height="110" transform="rotate(0 0 0)" fill="green" stroke="black" stroke-width="0.5" />
<rect x="465"  y="0" width="15" height="110" transform="rotate(0 0 0)" fill="green" stroke="black" stroke-width="0.5" />
<rect x="480"  y="0" width="15" height="110" transform="rotate(0 0 0)" fill="green" stroke="black" stroke-width="0.5" />
<rect x="0"  y="110" width="15" height="110" transform="rotate(0 0 0)" fill="green" stroke="black" stroke-width="0.5" />
<rect x="15"  y="110" width="15" height="110" transform="rotate(0 0 0)" fill="green" stroke="black" stroke-width="0.5" />
<rect x="30"  y="110" width="15" height="110" transform="rotate(0 0 0)" fill="green" stroke="black" stroke-width="0.5" />
<rect x="45"  y="110" width="15" height="110" transform="rotate(0 0 0)" fill="green" stroke="black" stroke-width="0.5" />
<rect x="60"  y="110" width="15" height="110" transform="rotate(0 0 0)" fill="green" stroke="black" stroke-width="0.5" />
<rect x="75"  y="110" width="15" height="110" transform="rotate(0 0 0)" fill="green" stroke="black" stroke-width="0.5" />
<rect x="90"  y="110" width="15" height="110" transform="rotate(0 0 0)" fill="green" stroke="black" stroke-width="0.5" />
<rect x="105"  y="110" width="15" height="110" transform="rotate(0 0 0)" fill="green" stroke="black" stroke-width="0.5" />
<rect x="120"  y="110" width="15" height="110" transform="rotate(0 0 0)" fill="green" stroke="black" stroke-width="0.5" />
<rect x="135"  y="110" width="15" height="110" transform="rotate(0 0 0)" fill="green" stroke="black" stroke-width="0.5" />
<rect x="150"  y="110" width="15" height="110" transform="rotate(0 0 0)" fill="green" stroke="black" stroke-width="0.5" />
<rect x="165"  y="110" width="15" height="110" transform="rotate(0 0 0)" fill="green" stroke="black" stroke-width="0.5" />
<rect x="180"  y="110" width="15" height="110" transform="rotate(0 0 0)" fill="green" stroke="black" stroke-width="0.5" />
<rect x="195"  y="110" width="15" height="110" transform="rotate(0 0 0)" fill="green" stroke="black" stroke-width="0.5" />
<rect x="210"  y="110" width="15" height="110" transform="rotate(0 0 0)" fill="green" stroke="black" stroke-width="0.5" />
<rect x="225"  y="110" width="15" height="110" transform="rotate(0 0 0)" fill="green" stroke="black" stroke-width="0.5" />
<rect x="240"  y="110" width="15" height="110" transform="rotate(0 0 0)" fill="green" stroke="black" stroke-width="0.5" />
<rect x="255"  y="110" width="15" height="110" transform="rotate(0 0 0)" fill="green" stroke="black" stroke-width="0.5" />
<rect x="270"  y="110" width="15" height="110" transform="rotate(0 0 0)" fill="green" stroke="black" stroke-width="0.5" />
<rect x="285"  y="110" width="15" height="110" transform="rotate(0 0 0)" fill="green" stroke="black" stroke-width="0.5" />
<rect x="300"  y="110" width="15" height="110" transform="rotate(0 0 0)" fill="green" stroke="black" stroke-width="0.5" />
<rect x="315"  y="110" width="15" height="110" transform="rotate(0 0 0)" fill="green" stroke="black" stroke-width="0.5" />
<rect x="330"  y="110" width="15" height="110" transform="rotate(0 0 0)" fill="green" stroke="black" stroke-width="0.5" />
<rect x="345"  y="110" width="15" height="110" transform="rotate(0 0 0)" fill="green" stroke="black" stroke-width="0.5" />
<rect x="360"  y="110" width="15" height="110" transform="rotate(0 0 0)" fill="green" stroke="black" stroke-width="0.5" />
<rect x="375"  y="110" width="15" height="110" transform="rotate(0 0 0)" fill="green" stroke="black" stroke-width="0.5" />
<rect x="390"  y="110" width="15" height="110" transform="rotate(0 0 0)" fill="green" stroke="black" stroke-width="0.5" />
<rect x="405"  y="110" width="15" height="110" transform="rotate(0 0 0)" fill="green" stroke="black" stroke-width="0.5" />
<rect x="420"  y="110" width="15" height="110" transform="rotate(0 0 0)" fill="green" stroke="black" stroke-width="0.5" />
<rect x="435"  y="110" width="15" height="110" transform="rotate(0 0 0)" fill="green" stroke="black" stroke-width="0.5" />
<rect x="450"  y="110" width="15" height="110" transform="rotate(0 0 0)" fill="green" stroke="black" stroke-width="0.5" />
<rect x="465"  y="110" width="15" height="110" transform="rotate(0 0 0)" fill="green" stroke="black" stroke-width="0.5" />
<rect x="480"  y="110" width="15" height="110" transform="rotate(0 0 0)" fill="green" stroke="black" stroke-width="0.5" />
<rect x="0"  y="220" width="15" height="110" transform="rotate(0 0 0)" fill="green" stroke="black" stroke-width="0.5" />
<rect x="15"  y="220" width="15" height="110" transform="rotate(0 0 0)" fill="green" stroke="black" stroke-width="0.5" />
<rect x="30"  y="220" width="15" height="110" transform="rotate(0 0 0)" fill="green" stroke="black" stroke-width="0.5" />
<rect x="45"  y="220" width="15" height="110" transform="rotate(0 0 0)" fill="green" stroke="black" stroke-width="0.5" />
<rect x="60"  y="220" width="15" height="110" transform="rotate(0 0 0)" fill="green" stroke="black" stroke-width="0.5" />
<rect x="75"  y="220" width="15" height="110" transform="rotate(0 0 0)" fill="green" stroke="black" stroke-width="0.5" />
<rect x="90"  y="220" width="15" height="110" transform="rotate(0 0 0)" fill="green" stroke="black" stroke-width="0.5" />
<rect x="105"  y="220" width="15" height="110" transform="rotate(0 0 0)" fill="green" stroke="black" stroke-width="0.5" />
<rect x="120"  y="220" width="15" height="110" transform="rotate(0 0 0)" fill="green" stroke="black" stroke-width="0.5" />
<rect x="135"  y="220" width="15" height="110" transform="rotate(0 0 0)" fill="green" stroke="black" stroke-width="0.5" />
<rect x="150"  y="220" width="15" height="110" transform="rotate(0 0 0)" fill="green" stroke="black" stroke-width="0.5" />
<rect x="165"  y="220" width="15" height="110" transform="rotate(0 0 0)" fill="green" stroke="black" stroke-width="0.5" />
<rect x="180"  y="220" width="15" height="110" transform="rotate(0 0 0)" fill="green" stroke="black" stroke-width="0.5" />
<rect x="195"  y="220" width="15" height="110" transform="rotate(0 0 0)" fill="green" stroke="black" stroke-width="0.5" />
<rect x="210"  y="220" width="15" height="110" transform="rotate(0 0 0)" fill="green" stroke="black" stroke-width="0.5" />
<rect x="225"  y="220" width="15" height="110" transform="rotate(0 0 0)" fill="green" stroke="black" stroke-width="0.5" />
<rect x="240"  y="220" width="15" height="110" transform="rotate(0 0 0)" fill="green" stroke="black" stroke-width="0.5" />
<rect x="255"  y="220" width="15" height="110" transform="rotate(0 0 0)" fill="green" stroke="black" stroke-width="0.5" />
<rect x="270"  y="220" width="15" height="110" transform="rotate(0 0 0)" fill="green" stroke="black" stroke-width="0.5" />
<rect x="285"  y="220" width="15" height="110" transform="rotate(0 0 0)" fill="green" stroke="black" stroke-width="0.5" />
<rect x="300"  y="220" width="15" height="110" transform="rotate(0 0 0)" fill="green" stroke="black" stroke-width="0.5" />
<rect x="315"  y="220" width="15" height="110" transform="rotate(0 0 0)" fill="green" stroke="black" stroke-width="0.5" />
<rect x="330"  y="220" width="15" height="110" transform="rotate(0 0 0)" fill="green" stroke="black" stroke-width="0.5" />
<rect x="345"  y="220" width="15" height="110" transform="rotate(0 0 0)" fill="green" stroke="black" stroke-width="0.5" />
<rect x="360"  y="220" width="15" height="110" transform="rotate(0 0 0)" fill="green" stroke="black" stroke-width="0.5" />
<rect x="375"  y="220" width="15" height="110" transform="rotate(0 0 0)" fill="green" stroke="black" stroke-width="0.5" />
<rect x="390"  y="220" width="15" height="110" transform="rotate(0 0 0)" fill="green" stroke="black" stroke-width="0.5" />
<rect x="405"  y="220" width="15" height="110" transform="rotate(0 0 0)" fill="green" stroke="black" stroke-width="0.5" />
<rect x="420"  y="220" width="15" height="110" transform="rotate(0 0 0)" fill="green" stroke="black" stroke-width="0.5" />
<rect x="435"  y="220" width="15" height="110" transform="rotate(0 0 0)" fill="green" stroke="black" stroke-width="0.5" />
<rect x="450"  y="220" width="15" height="110" transform="rotate(0 0 0)" fill="green" stroke="black" stroke-width="0.5" />
<rect x="465"  y="220" width="15" height="110" transform="rotate(0 0 0)" fill="green" stroke="black" stroke-width="0.5" />
<rect x="480"  y="220" width="15" height="110" transform="rotate(0 0 0)" fill="green" stroke="black" stroke-width="0.5" />
<rect x="0"  y="330" width="15" height="110" transform="rotate(0 0 0)" fill="green" stroke="black" stroke-width="0.5" />
<rect x="15"  y="330" width="15" height="110" transform="rotate(0 0 0)" fill="green" stroke="black" stroke-width="0.5" />
<rect x="30"  y="330" width="15" height="110" transform="rotate(0 0 0)" fill="green" stroke="black" stroke-width="0.5" />
<rect x="45"  y="330" width="15" height="110" transform="rotate(0 0 0)" fill="green" stroke="black" stroke-width="0.5" />
<rect x="60"  y="330" width="15" height="110" transform="rotate(0 0 0)" fill="green" stroke="black" stroke-width="0.5" />
<rect x="75"  y="330" width="15" height="110" transform="rotate(0 0 0)" fill="green" stroke="black" stroke-width="0.5" />
<rect x="90"  y="330" width="15" height="110" transform="rotate(0 0 0)" fill="green" stroke="black" stroke-width="0.5" />
<rect x="105"  y="330" width="15" height="110" transform="rotate(0 0 0)" fill="green" stroke="black" stroke-width="0.5" />
<rect x="120"  y="330" width="15" height="110" transform="rotate(0 0 0)" fill="green" stroke="black" stroke-width="0.5" />
<rect x="135"  y="330" width="15" height="110" transform="rotate(0 0 0)" fill="green" stroke="black" stroke-width="0.5" />
<rect x="150"  y="330" width="15" height="110" transform="rotate(0 0 0)" fill="green" stroke="black" stroke-width="0.5" />
<rect x="165"  y="330" width="15" height="110" transform="rotate(0 0 0)" fill="green" stroke="black" stroke-width="0.5" />
<rect x="180"  y="330" width="15" height="110" transform="rotate(0 0 0)" fill="green" stroke="black" stroke-width="0.5" />
<rect x="195"  y="330" width="15" height="110" transform="rotate(0 0 0)" fill="green" stroke="black" stroke-width="0.5" />
<rect x="210"  y="330" width="15" height="110" transform="rotate(0 0 0)" fill="green" stroke="black" stroke-width="0.5" />
<rect x="225"  y="330" width="15" height="110" transform="rotate(0 0 0)" fill="green" stroke="black" stroke-width="0.5" />
<rect x="240"  y="330" width="15" height="110" transform="rotate(0 0 0)" fill="green" stroke="black" stroke-width="0.5" />
<rect x="255"  y="330" width="15" height="110" transform="rotate(0 0 0)" fill="green" stroke="black" stroke-width="0.5" />
<rect x="270"  y="330" width="15" height="110" transform="rotate(0 0 0)" fill="green" stroke="black" stroke-width="0.5" />
<rect x="285"  y="330" width="15" height="110" transform="rotate(0 0 0)" fill="green" stroke="black" stroke-width="0.5" />
<rect x="300"  y="330" width="15" height="110" transform="rotate(0 0 0)" fill="green" stroke="black" stroke-width="0.5" />
<rect x="315"  y="330" width="15" height="110" transform="rotate(0 0 0)" fill="green" stroke="black" stroke-width="0.5" />
<rect x="330"  y="330" width="15" height="110" transform="rotate(0 0 0)" fill="green" stroke="black" stroke-width="0.5" />
<rect x="345"  y="330" width="15" height="110" transform="rotate(0 0 0)" fill="green" stroke="black" stroke-width="0.5" />
<rect x="360"  y="330" width="15" height="110" transform="rotate(0 0 0)" fill="green" stroke="black" stroke-width="0.5" />
<rect x="375"  y="330" width="15" height="110" transform="rotate(0 0 0)" fill="green" stroke="black" stroke-width="0.5" />
<rect x="390"  y="330" width="15" height="110" transform="rotate(0 0 0)" fill="green" stroke="black" stroke-width="0.5" />
<rect x="405"  y="330" width="15" height="110" transform="rotate(0 0 0)" fill="green" stroke="black" stroke-width="0.5" />
<rect x="420"  y="330" width="15" height="110" transform="rotate(0 0 0)" fill="green" stroke="black" stroke-width="0.5" />
<rect x="435"  y="330" width="15" height="110" transform="rotate(0 0 0)" fill="green" stroke="black" stroke-width="0.5" />
<rect x="450"  y="330" width="15" height="110" transform="rotate(0 0 0)" fill="green" stroke="black" stroke-width="0.5" />
<rect x="465"  y="330" width="15" height="110" transform="rotate(0 0 0)" fill="green" stroke="black" stroke-width="0.5" />
<rect x="480"  y="330" width="15" height="110" transform="rotate(0 0 0)" fill="green" stroke="black" stroke-width="0.5" />
<rect x="0"  y="440" width="15" height="110" transform="rotate(0 0 0)" fill="green" stroke="black" stroke-width="0.5" />
<rect x="15"  y="440" width="15" height="110" transform="rotate(0 0 0)" fill="green" stroke="black" stroke-width="0.5" />
<rect x="30"  y="440" width="15" height="110" transform="rotate(0 0 0)" fill="green" stroke="black" stroke-width="0.5" />
<rect x="45"  y="440" width="15" height="110" transform="rotate(0 0 0)" fill="green" stroke="black" stroke-width="0.5" />
<rect x="60"  y="440" width="15" height="110" transform="rotate(0 0 0)" fill="green" stroke="black" stroke-width="0.5" />
<rect x="75"  y="440" width="15" height="110" transform="rotate(0 0 0)" fill="green" stroke="black" stroke-width="0.5" />
<rect x="90"  y="440" width="15" height="110" transform="rotate(0 0 0)" fill="green" stroke="black" stroke-width="0.5" />
<rect x="105"  y="440" width="15" height="110" transform="rotate(0 0 0)" fill="green" stroke="black" stroke-width="0.5" />
<rect x="120"  y="440" width="15" height="110" transform="rotate(0 0 0)" fill="green" stroke="black" stroke-width="0.5" />
<rect x="135"  y="440" width="15" height="110" transform="rotate(0 0 0)" fill="green" stroke="black" stroke-width="0.5" />
<rect x="150"  y="440" width="15" height="110" transform="rotate(0 0 0)" fill="green" stroke="black" stroke-width="0.5" />
<rect x="165"  y="440" width="15" height="110" transform="rotate(0 0 0)" fill="green" stroke="black" stroke-width="0.5" />
<rect x="180"  y="440" width="15" height="110" transform="rotate(0 0 0)" fill="green" stroke="black" stroke-width="0.5" />
<rect x="195"  y="440" width="15" height="110" transform="rotate(0 0 0)" fill="green" stroke="black" stroke-width="0.5" />
<rect x="210"  y="440" width="15" height="110" transform="rotate(0 0 0)" fill="green" stroke="black" stroke-width="0.5" />
<rect x="225"  y="440" width="15" height="110" transform="rotate(0 0 0)" fill="green" stroke="black" stroke-width="0.5" />
<rect x="240"  y="440" width="15" height="110" transform="rotate(0 0 0)" fill="green" stroke="black" stroke-width="0.5" />
<rect x="255"  y="440" width="15" height="110" transform="rotate(0 0 0)" fill="green" stroke="black" stroke-width="0.5" />
<rect x="270"  y="440" width="15" height="110" transform="rotate(0 0 0)" fill="green" stroke="black" stroke-width="0.5" />
<rect x="285"  y="440" width="15" height="110" transform="rotate(0 0 0)" fill="green" stroke="black" stroke-width="0.5" />
<rect x="300"  y="440" width="15" height="110" transform="rotate(0 0 0)" fill="green" stroke="black" stroke-width="0.5" />
<rect x="315"  y="440" width="15" height="110" transform="rotate(0 0 0)" fill="green" stroke="black" stroke-width="0.5" />
<rect x="330"  y="440" width="15" height="110" transform="rotate(0 0 0)" fill="green" stroke="black" stroke-width="0.5" />
<rect x="345"  y="440" width="15" height="110" transform="rotate(0 0 0)" fill="green" stroke="black" stroke-width="0.5" />
<rect x="360"  y="440" width="15" height="110" transform="rotate(0 0 0)" fill="green" stroke="black" stroke-width="0.5" />
<rect x="375"  y="440" width="15" height="110" transform="rotate(0 0 0)" fill="green" stroke="black" stroke-width="0.5" />
<rect x="390"  y="440" width="15" height="110" transform="rotate(0 0 0)" fill="green" stroke="black" stroke-width="0.5" />
<rect x="405"  y="440" width="15" height="110" transform="rotate(0 0 0)" fill="green" stroke="black" stroke-width="0.5" />
<rect x="420"  y="440" width="15" height="110" transform="rotate(0 0 0)" fill="green" stroke="black" stroke-width="0.5" />
<rect x="435"  y="440" width="15" height="110" transform="rotate(0 0 0)" fill="green" stroke="black" stroke-width="0.5" />
<rect x="450"  y="440" width="15" height="110" transform="rotate(0 0 0)" fill="green" stroke="black" stroke-width="0.5" />
<rect x="465"  y="440" width="15" height="110" transform="rotate(0 0 0)" fill="green" stroke="black" stroke-width="0.5" />
<rect x="480"  y="440" width="15" height="110" transform="rotate(0 0 0)" fill="green" stroke="black" stroke-width="0.5" />
<rect x="0"  y="550" width="110" height="15" transform="rotate(0 0 0)" fill="green" stroke="black" stroke-width="0.5" />
<rect x="110"  y="550" width="110" height="15" transform="rotate(0 0 0)" fill="green" stroke="black" stroke-width="0.5" />
<rect x="220"  y="550" width="110" height="15" transform="rotate(0 0 0)" fill="green" stroke="black" stroke-width="0.5" />
<rect x="330"  y="550" width="110" height="15" transform="rotate(0 0 0)" fill="green" stroke="black" stroke-width="0.5" />
<rect x="0"  y="565" width="110" height="15" transform="rotate(0 0 0)" fill="green" stroke="black" stroke-width="0.5" />
<rect x="110"  y="565" width="110" height="15" transform="rotate(0 0 0)" fill="green" stroke="black" stroke-width="0.5" />
<rect x="220"  y="565" width="110" height="15" transform="rotate(0 0 0)" fill="green" stroke="black" stroke-width="0.5" />
<rect x="330"  y="565" width="110" height="15" transform="rotate(0 0 0)" fill="green" stroke="black" stroke-width="0.5" />
<rect x="0"  y="580" width="110" height="15" transform="rotate(0 0 0)" fill="green" stroke="black" stroke-width="0.5" />
<rect x="110"  y="580" width="110" height="15" transform="rotate(0 0 0)" fill="green" stroke="black" stroke-width="0.5" />
<rect x="220"  y="580" width="110" height="15" transform="rotate(0 0 0)" fill="green" stroke="black" stroke-width="0.5" />
<rect x="330"  y="580" width="110" height="15" transform="rotate(0 0 0)" fill="green" stroke="black" stroke-width="0.5" />
</svg>
