<svg version="1.1" baseProfile="full" xmlns="http://www.w3.org/2000/svg">
<polygon points="260,10 10,443.013 510,443.013" transform="rotate(0 0 0)" fill="dimgrey" stroke="black" stroke-width="0.5" />
<rect x="35"  y="413.013" width="75" height="30" transform="rotate(0 0 0)" fill="cyan" stroke="black" stroke-width="0.5" />
<rect x="110"  y="413.013" width="75" height="30" transform="rotate(0 0 0)" fill="cyan" stroke="black" stroke-width="0.5" />
<rect x="185"  y="413.013" width="75" height="30" transform="rotate(0 0 0)" fill="cyan" stroke="black" stroke-width="0.5" />
<rect x="260"  y="413.013" width="75" height="30" transform="rotate(0 0 0)" fill="cyan" stroke="black" stroke-width="0.5" />
<rect x="335"  y="413.013" width="75" height="30" transform="rotate(0 0 0)" fill="cyan" stroke="black" stroke-width="0.5" />
<rect x="410"  y="413.013" width="75" height="30" transform="rotate(0 0 0)" fill="cyan" stroke="black" stroke-width="0.5" />
<rect x="72.5"  y="383.013" width="75" height="30" transform="rotate(0 0 0)" fill="cyan" stroke="black" stroke-width="0.5" />
<rect x="147.5"  y="383.013" width="75" height="30" transform="rotate(0 0 0)" fill="cyan" stroke="black" stroke-width="0.5" />
<rect x="222.5"  y="383.013" width="75" height="30" transform="rotate(0 0 0)" fill="cyan" stroke="black" stroke-width="0.5" />
<rect x="297.5"  y="383.013" width="75" height="30" transform="rotate(0 0 0)" fill="cyan" stroke="black" stroke-width="0.5" />
<rect x="372.5"  y="383.013" width="75" height="30" transform="rotate(0 0 0)" fill="cyan" stroke="black" stroke-width="0.5" />
<rect x="72.5"  y="353.013" width="75" height="30" transform="rotate(0 0 0)" fill="cyan" stroke="black" stroke-width="0.5" />
<rect x="147.5"  y="353.013" width="75" height="30" transform="rotate(0 0 0)" fill="cyan" stroke="black" stroke-width="0.5" />
<rect x="222.5"  y="353.013" width="75" height="30" transform="rotate(0 0 0)" fill="cyan" stroke="black" stroke-width="0.5" />
<rect x="297.5"  y="353.013" width="75" height="30" transform="rotate(0 0 0)" fill="cyan" stroke="black" stroke-width="0.5" />
<rect x="372.5"  y="353.013" width="75" height="30" transform="rotate(0 0 0)" fill="cyan" stroke="black" stroke-width="0.5" />
<rect x="110"  y="323.013" width="75" height="30" transform="rotate(0 0 0)" fill="cyan" stroke="black" stroke-width="0.5" />
<rect x="185"  y="323.013" width="75" height="30" transform="rotate(0 0 0)" fill="cyan" stroke="black" stroke-width="0.5" />
<rect x="260"  y="323.013" width="75" height="30" transform="rotate(0 0 0)" fill="cyan" stroke="black" stroke-width="0.5" />
<rect x="335"  y="323.013" width="75" height="30" transform="rotate(0 0 0)" fill="cyan" stroke="black" stroke-width="0.5" />
<rect x="110"  y="293.013" width="75" height="30" transform="rotate(0 0 0)" fill="cyan" stroke="black" stroke-width="0.5" />
<rect x="185"  y="293.013" width="75" height="30" transform="rotate(0 0 0)" fill="cyan" stroke="black" stroke-width="0.5" />
<rect x="260"  y="293.013" width="75" height="30" transform="rotate(0 0 0)" fill="cyan" stroke="black" stroke-width="0.5" />
<rect x="335"  y="293.013" width="75" height="30" transform="rotate(0 0 0)" fill="cyan" stroke="black" stroke-width="0.5" />
<rect x="147.5"  y="263.013" width="75" height="30" transform="rotate(0 0 0)" fill="cyan" stroke="black" stroke-width="0.5" />
<rect x="222.5"  y="263.013" width="75" height="30" transform="rotate(0 0 0)" fill="cyan" stroke="black" stroke-width="0.5" />
<rect x="297.5"  y="263.013" width="75" height="30" transform="rotate(0 0 0)" fill="cyan" stroke="black" stroke-width="0.5" />
<rect x="147.5"  y="233.013" width="75" height="30" transform="rotate(0 0 0)" fill="cyan" stroke="black" stroke-width="0.5" />
<rect x="222.5"  y="233.013" width="75" height="30" transform="rotate(0 0 0)" fill="cyan" stroke="black" stroke-width="0.5" />
<rect x="297.5"  y="233.013" width="75" height="30" transform="rotate(0 0 0)" fill="cyan" stroke="black" stroke-width="0.5" />
<rect x="185"  y="203.013" width="75" height="30" transform="rotate(0 0 0)" fill="cyan" stroke="black" stroke-width="0.5" />
<rect x="260"  y="203.013" width="75" height="30" transform="rotate(0 0 0)" fill="cyan" stroke="black" stroke-width="0.5" />
<rect x="185"  y="173.013" width="75" height="30" transform="rotate(0 0 0)" fill="cyan" stroke="black" stroke-width="0.5" />
<rect x="260"  y="173.013" width="75" height="30" transform="rotate(0 0 0)" fill="cyan" stroke="black" stroke-width="0.5" />
<rect x="185"  y="143.013" width="75" height="30" transform="rotate(0 0 0)" fill="cyan" stroke="black" stroke-width="0.5" />
<rect x="260"  y="143.013" width="75" height="30" transform="rotate(0 0 0)" fill="cyan" stroke="black" stroke-width="0.5" />
<rect x="222.5"  y="113.013" width="75" height="30" transform="rotate(0 0 0)" fill="cyan" stroke="black" stroke-width="0.5" />
<rect x="222.5"  y="83.0127" width="75" height="30" transform="rotate(0 0 0)" fill="cyan" stroke="black" stroke-width="0.5" />
</svg>
