<svg version="1.1" baseProfile="full" xmlns="http://www.w3.org/2000/svg">
<polygon points="350,0 0,606.218 700,606.218" transform="rotate(0 0 0)" fill="brown" stroke="black" stroke-width="0.5" />
<circle cx="350" cy="80" r="40" transform="rotate(0 0 0)" fill="yellow" stroke="black" stroke-width="0.5" />
<circle cx="310" cy="149.282" r="40" transform="rotate(0 0 0)" fill="yellow" stroke="black" stroke-width="0.5" />
<circle cx="390" cy="149.282" r="40" transform="rotate(0 0 0)" fill="yellow" stroke="black" stroke-width="0.5" />
<circle cx="350" cy="218.564" r="40" transform="rotate(0 0 0)" fill="yellow" stroke="black" stroke-width="0.5" />
<circle cx="270" cy="218.564" r="40" transform="rotate(0 0 0)" fill="yellow" stroke="black" stroke-width="0.5" />
<circle cx="430" cy="218.564" r="40" transform="rotate(0 0 0)" fill="yellow" stroke="black" stroke-width="0.5" />
<circle cx="310" cy="287.846" r="40" transform="rotate(0 0 0)" fill="yellow" stroke="black" stroke-width="0.5" />
<circle cx="390" cy="287.846" r="40" transform="rotate(0 0 0)" fill="yellow" stroke="black" stroke-width="0.5" />
<circle cx="230" cy="287.846" r="40" transform="rotate(0 0 0)" fill="yellow" stroke="black" stroke-width="0.5" />
<circle cx="470" cy="287.846" r="40" transform="rotate(0 0 0)" fill="yellow" stroke="black" stroke-width="0.5" />
<circle cx="350" cy="357.128" r="40" transform="rotate(0 0 0)" fill="yellow" stroke="black" stroke-width="0.5" />
<circle cx="270" cy="357.128" r="40" transform="rotate(0 0 0)" fill="yellow" stroke="black" stroke-width="0.5" />
<circle cx="190" cy="357.128" r="40" transform="rotate(0 0 0)" fill="yellow" stroke="black" stroke-width="0.5" />
<circle cx="430" cy="357.128" r="40" transform="rotate(0 0 0)" fill="yellow" stroke="black" stroke-width="0.5" />
<circle cx="510" cy="357.128" r="40" transform="rotate(0 0 0)" fill="yellow" stroke="black" stroke-width="0.5" />
<circle cx="310" cy="426.41" r="40" transform="rotate(0 0 0)" fill="yellow" stroke="black" stroke-width="0.5" />
<circle cx="390" cy="426.41" r="40" transform="rotate(0 0 0)" fill="yellow" stroke="black" stroke-width="0.5" />
<circle cx="230" cy="426.41" r="40" transform="rotate(0 0 0)" fill="yellow" stroke="black" stroke-width="0.5" />
<circle cx="470" cy="426.41" r="40" transform="rotate(0 0 0)" fill="yellow" stroke="black" stroke-width="0.5" />
<circle cx="150" cy="426.41" r="40" transform="rotate(0 0 0)" fill="yellow" stroke="black" stroke-width="0.5" />
<circle cx="550" cy="426.41" r="40" transform="rotate(0 0 0)" fill="yellow" stroke="black" stroke-width="0.5" />
<circle cx="350" cy="495.692" r="40" transform="rotate(0 0 0)" fill="yellow" stroke="black" stroke-width="0.5" />
<circle cx="270" cy="495.692" r="40" transform="rotate(0 0 0)" fill="yellow" stroke="black" stroke-width="0.5" />
<circle cx="190" cy="495.692" r="40" transform="rotate(0 0 0)" fill="yellow" stroke="black" stroke-width="0.5" />
<circle cx="110" cy="495.692" r="40" transform="rotate(0 0 0)" fill="yellow" stroke="black" stroke-width="0.5" />
<circle cx="430" cy="495.692" r="40" transform="rotate(0 0 0)" fill="yellow" stroke="black" stroke-width="0.5" />
<circle cx="510" cy="495.692" r="40" transform="rotate(0 0 0)" fill="yellow" stroke="black" stroke-width="0.5" />
<circle cx="590" cy="495.692" r="40" transform="rotate(0 0 0)" fill="yellow" stroke="black" stroke-width="0.5" />
<circle cx="310" cy="564.974" r="40" transform="rotate(0 0 0)" fill="yellow" stroke="black" stroke-width="0.5" />
<circle cx="390" cy="564.974" r="40" transform="rotate(0 0 0)" fill="yellow" stroke="black" stroke-width="0.5" />
<circle cx="230" cy="564.974" r="40" transform="rotate(0 0 0)" fill="yellow" stroke="black" stroke-width="0.5" />
<circle cx="470" cy="564.974" r="40" transform="rotate(0 0 0)" fill="yellow" stroke="black" stroke-width="0.5" />
<circle cx="150" cy="564.974" r="40" transform="rotate(0 0 0)" fill="yellow" stroke="black" stroke-width="0.5" />
<circle cx="550" cy="564.974" r="40" transform="rotate(0 0 0)" fill="yellow" stroke="black" stroke-width="0.5" />
<circle cx="70" cy="564.974" r="40" transform="rotate(0 0 0)" fill="yellow" stroke="black" stroke-width="0.5" />
<circle cx="630" cy="564.974" r="40" transform="rotate(0 0 0)" fill="yellow" stroke="black" stroke-width="0.5" />
</svg>
