<svg version="1.1" baseProfile="full" xmlns="http://www.w3.org/2000/svg">
<rect x="0"  y="0" width="750" height="500" transform="rotate(0 0 0)" fill="red" stroke="black" stroke-width="0.5" />
<polygon points="29.5,0 0,51.0955 59,51.0955" transform="rotate(0 0 0)" fill="cyan" stroke="black" stroke-width="0.5" />
<polygon points="88.5,0 59,51.0955 118,51.0955" transform="rotate(0 0 0)" fill="cyan" stroke="black" stroke-width="0.5" />
<polygon points="147.5,0 118,51.0955 177,51.0955" transform="rotate(0 0 0)" fill="cyan" stroke="black" stroke-width="0.5" />
<polygon points="206.5,0 177,51.0955 236,51.0955" transform="rotate(0 0 0)" fill="cyan" stroke="black" stroke-width="0.5" />
<polygon points="265.5,0 236,51.0955 295,51.0955" transform="rotate(0 0 0)" fill="cyan" stroke="black" stroke-width="0.5" />
<polygon points="324.5,0 295,51.0955 354,51.0955" transform="rotate(0 0 0)" fill="cyan" stroke="black" stroke-width="0.5" />
<polygon points="383.5,0 354,51.0955 413,51.0955" transform="rotate(0 0 0)" fill="cyan" stroke="black" stroke-width="0.5" />
<polygon points="442.5,0 413,51.0955 472,51.0955" transform="rotate(0 0 0)" fill="cyan" stroke="black" stroke-width="0.5" />
<polygon points="501.5,0 472,51.0955 531,51.0955" transform="rotate(0 0 0)" fill="cyan" stroke="black" stroke-width="0.5" />
<polygon points="560.5,0 531,51.0955 590,51.0955" transform="rotate(0 0 0)" fill="cyan" stroke="black" stroke-width="0.5" />
<polygon points="619.5,0 590,51.0955 649,51.0955" transform="rotate(0 0 0)" fill="cyan" stroke="black" stroke-width="0.5" />
<polygon points="678.5,0 649,51.0955 708,51.0955" transform="rotate(0 0 0)" fill="cyan" stroke="black" stroke-width="0.5" />
<polygon points="29.5,51.0955 0,102.191 59,102.191" transform="rotate(0 0 0)" fill="cyan" stroke="black" stroke-width="0.5" />
<polygon points="88.5,51.0955 59,102.191 118,102.191" transform="rotate(0 0 0)" fill="cyan" stroke="black" stroke-width="0.5" />
<polygon points="147.5,51.0955 118,102.191 177,102.191" transform="rotate(0 0 0)" fill="cyan" stroke="black" stroke-width="0.5" />
<polygon points="206.5,51.0955 177,102.191 236,102.191" transform="rotate(0 0 0)" fill="cyan" stroke="black" stroke-width="0.5" />
<polygon points="265.5,51.0955 236,102.191 295,102.191" transform="rotate(0 0 0)" fill="cyan" stroke="black" stroke-width="0.5" />
<polygon points="324.5,51.0955 295,102.191 354,102.191" transform="rotate(0 0 0)" fill="cyan" stroke="black" stroke-width="0.5" />
<polygon points="383.5,51.0955 354,102.191 413,102.191" transform="rotate(0 0 0)" fill="cyan" stroke="black" stroke-width="0.5" />
<polygon points="442.5,51.0955 413,102.191 472,102.191" transform="rotate(0 0 0)" fill="cyan" stroke="black" stroke-width="0.5" />
<polygon points="501.5,51.0955 472,102.191 531,102.191" transform="rotate(0 0 0)" fill="cyan" stroke="black" stroke-width="0.5" />
<polygon points="560.5,51.0955 531,102.191 590,102.191" transform="rotate(0 0 0)" fill="cyan" stroke="black" stroke-width="0.5" />
<polygon points="619.5,51.0955 590,102.191 649,102.191" transform="rotate(0 0 0)" fill="cyan" stroke="black" stroke-width="0.5" />
<polygon points="678.5,51.0955 649,102.191 708,102.191" transform="rotate(0 0 0)" fill="cyan" stroke="black" stroke-width="0.5" />
<polygon points="29.5,102.191 0,153.286 59,153.286" transform="rotate(0 0 0)" fill="cyan" stroke="black" stroke-width="0.5" />
<polygon points="88.5,102.191 59,153.286 118,153.286" transform="rotate(0 0 0)" fill="cyan" stroke="black" stroke-width="0.5" />
<polygon points="147.5,102.191 118,153.286 177,153.286" transform="rotate(0 0 0)" fill="cyan" stroke="black" stroke-width="0.5" />
<polygon points="206.5,102.191 177,153.286 236,153.286" transform="rotate(0 0 0)" fill="cyan" stroke="black" stroke-width="0.5" />
<polygon points="265.5,102.191 236,153.286 295,153.286" transform="rotate(0 0 0)" fill="cyan" stroke="black" stroke-width="0.5" />
<polygon points="324.5,102.191 295,153.286 354,153.286" transform="rotate(0 0 0)" fill="cyan" stroke="black" stroke-width="0.5" />
<polygon points="383.5,102.191 354,153.286 413,153.286" transform="rotate(0 0 0)" fill="cyan" stroke="black" stroke-width="0.5" />
<polygon points="442.5,102.191 413,153.286 472,153.286" transform="rotate(0 0 0)" fill="cyan" stroke="black" stroke-width="0.5" />
<polygon points="501.5,102.191 472,153.286 531,153.286" transform="rotate(0 0 0)" fill="cyan" stroke="black" stroke-width="0.5" />
<polygon points="560.5,102.191 531,153.286 590,153.286" transform="rotate(0 0 0)" fill="cyan" stroke="black" stroke-width="0.5" />
<polygon points="619.5,102.191 590,153.286 649,153.286" transform="rotate(0 0 0)" fill="cyan" stroke="black" stroke-width="0.5" />
<polygon points="678.5,102.191 649,153.286 708,153.286" transform="rotate(0 0 0)" fill="cyan" stroke="black" stroke-width="0.5" />
<polygon points="29.5,153.286 0,204.382 59,204.382" transform="rotate(0 0 0)" fill="cyan" stroke="black" stroke-width="0.5" />
<polygon points="88.5,153.286 59,204.382 118,204.382" transform="rotate(0 0 0)" fill="cyan" stroke="black" stroke-width="0.5" />
<polygon points="147.5,153.286 118,204.382 177,204.382" transform="rotate(0 0 0)" fill="cyan" stroke="black" stroke-width="0.5" />
<polygon points="206.5,153.286 177,204.382 236,204.382" transform="rotate(0 0 0)" fill="cyan" stroke="black" stroke-width="0.5" />
<polygon points="265.5,153.286 236,204.382 295,204.382" transform="rotate(0 0 0)" fill="cyan" stroke="black" stroke-width="0.5" />
<polygon points="324.5,153.286 295,204.382 354,204.382" transform="rotate(0 0 0)" fill="cyan" stroke="black" stroke-width="0.5" />
<polygon points="383.5,153.286 354,204.382 413,204.382" transform="rotate(0 0 0)" fill="cyan" stroke="black" stroke-width="0.5" />
<polygon points="442.5,153.286 413,204.382 472,204.382" transform="rotate(0 0 0)" fill="cyan" stroke="black" stroke-width="0.5" />
<polygon points="501.5,153.286 472,204.382 531,204.382" transform="rotate(0 0 0)" fill="cyan" stroke="black" stroke-width="0.5" />
<polygon points="560.5,153.286 531,204.382 590,204.382" transform="rotate(0 0 0)" fill="cyan" stroke="black" stroke-width="0.5" />
<polygon points="619.5,153.286 590,204.382 649,204.382" transform="rotate(0 0 0)" fill="cyan" stroke="black" stroke-width="0.5" />
<polygon points="678.5,153.286 649,204.382 708,204.382" transform="rotate(0 0 0)" fill="cyan" stroke="black" stroke-width="0.5" />
<polygon points="29.5,204.382 0,255.477 59,255.477" transform="rotate(0 0 0)" fill="cyan" stroke="black" stroke-width="0.5" />
<polygon points="88.5,204.382 59,255.477 118,255.477" transform="rotate(0 0 0)" fill="cyan" stroke="black" stroke-width="0.5" />
<polygon points="147.5,204.382 118,255.477 177,255.477" transform="rotate(0 0 0)" fill="cyan" stroke="black" stroke-width="0.5" />
<polygon points="206.5,204.382 177,255.477 236,255.477" transform="rotate(0 0 0)" fill="cyan" stroke="black" stroke-width="0.5" />
<polygon points="265.5,204.382 236,255.477 295,255.477" transform="rotate(0 0 0)" fill="cyan" stroke="black" stroke-width="0.5" />
<polygon points="324.5,204.382 295,255.477 354,255.477" transform="rotate(0 0 0)" fill="cyan" stroke="black" stroke-width="0.5" />
<polygon points="383.5,204.382 354,255.477 413,255.477" transform="rotate(0 0 0)" fill="cyan" stroke="black" stroke-width="0.5" />
<polygon points="442.5,204.382 413,255.477 472,255.477" transform="rotate(0 0 0)" fill="cyan" stroke="black" stroke-width="0.5" />
<polygon points="501.5,204.382 472,255.477 531,255.477" transform="rotate(0 0 0)" fill="cyan" stroke="black" stroke-width="0.5" />
<polygon points="560.5,204.382 531,255.477 590,255.477" transform="rotate(0 0 0)" fill="cyan" stroke="black" stroke-width="0.5" />
<polygon points="619.5,204.382 590,255.477 649,255.477" transform="rotate(0 0 0)" fill="cyan" stroke="black" stroke-width="0.5" />
<polygon points="678.5,204.382 649,255.477 708,255.477" transform="rotate(0 0 0)" fill="cyan" stroke="black" stroke-width="0.5" />
<polygon points="29.5,255.477 0,306.573 59,306.573" transform="rotate(0 0 0)" fill="cyan" stroke="black" stroke-width="0.5" />
<polygon points="88.5,255.477 59,306.573 118,306.573" transform="rotate(0 0 0)" fill="cyan" stroke="black" stroke-width="0.5" />
<polygon points="147.5,255.477 118,306.573 177,306.573" transform="rotate(0 0 0)" fill="cyan" stroke="black" stroke-width="0.5" />
<polygon points="206.5,255.477 177,306.573 236,306.573" transform="rotate(0 0 0)" fill="cyan" stroke="black" stroke-width="0.5" />
<polygon points="265.5,255.477 236,306.573 295,306.573" transform="rotate(0 0 0)" fill="cyan" stroke="black" stroke-width="0.5" />
<polygon points="324.5,255.477 295,306.573 354,306.573" transform="rotate(0 0 0)" fill="cyan" stroke="black" stroke-width="0.5" />
<polygon points="383.5,255.477 354,306.573 413,306.573" transform="rotate(0 0 0)" fill="cyan" stroke="black" stroke-width="0.5" />
<polygon points="442.5,255.477 413,306.573 472,306.573" transform="rotate(0 0 0)" fill="cyan" stroke="black" stroke-width="0.5" />
<polygon points="501.5,255.477 472,306.573 531,306.573" transform="rotate(0 0 0)" fill="cyan" stroke="black" stroke-width="0.5" />
<polygon points="560.5,255.477 531,306.573 590,306.573" transform="rotate(0 0 0)" fill="cyan" stroke="black" stroke-width="0.5" />
<polygon points="619.5,255.477 590,306.573 649,306.573" transform="rotate(0 0 0)" fill="cyan" stroke="black" stroke-width="0.5" />
<polygon points="678.5,255.477 649,306.573 708,306.573" transform="rotate(0 0 0)" fill="cyan" stroke="black" stroke-width="0.5" />
<polygon points="29.5,306.573 0,357.668 59,357.668" transform="rotate(0 0 0)" fill="cyan" stroke="black" stroke-width="0.5" />
<polygon points="88.5,306.573 59,357.668 118,357.668" transform="rotate(0 0 0)" fill="cyan" stroke="black" stroke-width="0.5" />
<polygon points="147.5,306.573 118,357.668 177,357.668" transform="rotate(0 0 0)" fill="cyan" stroke="black" stroke-width="0.5" />
<polygon points="206.5,306.573 177,357.668 236,357.668" transform="rotate(0 0 0)" fill="cyan" stroke="black" stroke-width="0.5" />
<polygon points="265.5,306.573 236,357.668 295,357.668" transform="rotate(0 0 0)" fill="cyan" stroke="black" stroke-width="0.5" />
<polygon points="324.5,306.573 295,357.668 354,357.668" transform="rotate(0 0 0)" fill="cyan" stroke="black" stroke-width="0.5" />
<polygon points="383.5,306.573 354,357.668 413,357.668" transform="rotate(0 0 0)" fill="cyan" stroke="black" stroke-width="0.5" />
<polygon points="442.5,306.573 413,357.668 472,357.668" transform="rotate(0 0 0)" fill="cyan" stroke="black" stroke-width="0.5" />
<polygon points="501.5,306.573 472,357.668 531,357.668" transform="rotate(0 0 0)" fill="cyan" stroke="black" stroke-width="0.5" />
<polygon points="560.5,306.573 531,357.668 590,357.668" transform="rotate(0 0 0)" fill="cyan" stroke="black" stroke-width="0.5" />
<polygon points="619.5,306.573 590,357.668 649,357.668" transform="rotate(0 0 0)" fill="cyan" stroke="black" stroke-width="0.5" />
<polygon points="678.5,306.573 649,357.668 708,357.668" transform="rotate(0 0 0)" fill="cyan" stroke="black" stroke-width="0.5" />
<polygon points="29.5,357.668 0,408.764 59,408.764" transform="rotate(0 0 0)" fill="cyan" stroke="black" stroke-width="0.5" />
<polygon points="88.5,357.668 59,408.764 118,408.764" transform="rotate(0 0 0)" fill="cyan" stroke="black" stroke-width="0.5" />
<polygon points="147.5,357.668 118,408.764 177,408.764" transform="rotate(0 0 0)" fill="cyan" stroke="black" stroke-width="0.5" />
<polygon points="206.5,357.668 177,408.764 236,408.764" transform="rotate(0 0 0)" fill="cyan" stroke="black" stroke-width="0.5" />
<polygon points="265.5,357.668 236,408.764 295,408.764" transform="rotate(0 0 0)" fill="cyan" stroke="black" stroke-width="0.5" />
<polygon points="324.5,357.668 295,408.764 354,408.764" transform="rotate(0 0 0)" fill="cyan" stroke="black" stroke-width="0.5" />
<polygon points="383.5,357.668 354,408.764 413,408.764" transform="rotate(0 0 0)" fill="cyan" stroke="black" stroke-width="0.5" />
<polygon points="442.5,357.668 413,408.764 472,408.764" transform="rotate(0 0 0)" fill="cyan" stroke="black" stroke-width="0.5" />
<polygon points="501.5,357.668 472,408.764 531,408.764" transform="rotate(0 0 0)" fill="cyan" stroke="black" stroke-width="0.5" />
<polygon points="560.5,357.668 531,408.764 590,408.764" transform="rotate(0 0 0)" fill="cyan" stroke="black" stroke-width="0.5" />
<polygon points="619.5,357.668 590,408.764 649,408.764" transform="rotate(0 0 0)" fill="cyan" stroke="black" stroke-width="0.5" />
<polygon points="678.5,357.668 649,408.764 708,408.764" transform="rotate(0 0 0)" fill="cyan" stroke="black" stroke-width="0.5" />
<polygon points="29.5,408.764 0,459.859 59,459.859" transform="rotate(0 0 0)" fill="cyan" stroke="black" stroke-width="0.5" />
<polygon points="88.5,408.764 59,459.859 118,459.859" transform="rotate(0 0 0)" fill="cyan" stroke="black" stroke-width="0.5" />
<polygon points="147.5,408.764 118,459.859 177,459.859" transform="rotate(0 0 0)" fill="cyan" stroke="black" stroke-width="0.5" />
<polygon points="206.5,408.764 177,459.859 236,459.859" transform="rotate(0 0 0)" fill="cyan" stroke="black" stroke-width="0.5" />
<polygon points="265.5,408.764 236,459.859 295,459.859" transform="rotate(0 0 0)" fill="cyan" stroke="black" stroke-width="0.5" />
<polygon points="324.5,408.764 295,459.859 354,459.859" transform="rotate(0 0 0)" fill="cyan" stroke="black" stroke-width="0.5" />
<polygon points="383.5,408.764 354,459.859 413,459.859" transform="rotate(0 0 0)" fill="cyan" stroke="black" stroke-width="0.5" />
<polygon points="442.5,408.764 413,459.859 472,459.859" transform="rotate(0 0 0)" fill="cyan" stroke="black" stroke-width="0.5" />
<polygon points="501.5,408.764 472,459.859 531,459.859" transform="rotate(0 0 0)" fill="cyan" stroke="black" stroke-width="0.5" />
<polygon points="560.5,408.764 531,459.859 590,459.859" transform="rotate(0 0 0)" fill="cyan" stroke="black" stroke-width="0.5" />
<polygon points="619.5,408.764 590,459.859 649,459.859" transform="rotate(0 0 0)" fill="cyan" stroke="black" stroke-width="0.5" />
<polygon points="678.5,408.764 649,459.859 708,459.859" transform="rotate(0 0 0)" fill="cyan" stroke="black" stroke-width="0.5" />
<polygon points="29.5,0 59,51.0955 88.5,0" transform="rotate(0 0 0)" fill="cyan" stroke="black" stroke-width="0.5" />
<polygon points="88.5,0 118,51.0955 147.5,0" transform="rotate(0 0 0)" fill="cyan" stroke="black" stroke-width="0.5" />
<polygon points="147.5,0 177,51.0955 206.5,0" transform="rotate(0 0 0)" fill="cyan" stroke="black" stroke-width="0.5" />
<polygon points="206.5,0 236,51.0955 265.5,0" transform="rotate(0 0 0)" fill="cyan" stroke="black" stroke-width="0.5" />
<polygon points="265.5,0 295,51.0955 324.5,0" transform="rotate(0 0 0)" fill="cyan" stroke="black" stroke-width="0.5" />
<polygon points="324.5,0 354,51.0955 383.5,0" transform="rotate(0 0 0)" fill="cyan" stroke="black" stroke-width="0.5" />
<polygon points="383.5,0 413,51.0955 442.5,0" transform="rotate(0 0 0)" fill="cyan" stroke="black" stroke-width="0.5" />
<polygon points="442.5,0 472,51.0955 501.5,0" transform="rotate(0 0 0)" fill="cyan" stroke="black" stroke-width="0.5" />
<polygon points="501.5,0 531,51.0955 560.5,0" transform="rotate(0 0 0)" fill="cyan" stroke="black" stroke-width="0.5" />
<polygon points="560.5,0 590,51.0955 619.5,0" transform="rotate(0 0 0)" fill="cyan" stroke="black" stroke-width="0.5" />
<polygon points="619.5,0 649,51.0955 678.5,0" transform="rotate(0 0 0)" fill="cyan" stroke="black" stroke-width="0.5" />
<polygon points="678.5,0 708,51.0955 737.5,0" transform="rotate(0 0 0)" fill="cyan" stroke="black" stroke-width="0.5" />
<polygon points="29.5,51.0955 59,102.191 88.5,51.0955" transform="rotate(0 0 0)" fill="cyan" stroke="black" stroke-width="0.5" />
<polygon points="88.5,51.0955 118,102.191 147.5,51.0955" transform="rotate(0 0 0)" fill="cyan" stroke="black" stroke-width="0.5" />
<polygon points="147.5,51.0955 177,102.191 206.5,51.0955" transform="rotate(0 0 0)" fill="cyan" stroke="black" stroke-width="0.5" />
<polygon points="206.5,51.0955 236,102.191 265.5,51.0955" transform="rotate(0 0 0)" fill="cyan" stroke="black" stroke-width="0.5" />
<polygon points="265.5,51.0955 295,102.191 324.5,51.0955" transform="rotate(0 0 0)" fill="cyan" stroke="black" stroke-width="0.5" />
<polygon points="324.5,51.0955 354,102.191 383.5,51.0955" transform="rotate(0 0 0)" fill="cyan" stroke="black" stroke-width="0.5" />
<polygon points="383.5,51.0955 413,102.191 442.5,51.0955" transform="rotate(0 0 0)" fill="cyan" stroke="black" stroke-width="0.5" />
<polygon points="442.5,51.0955 472,102.191 501.5,51.0955" transform="rotate(0 0 0)" fill="cyan" stroke="black" stroke-width="0.5" />
<polygon points="501.5,51.0955 531,102.191 560.5,51.0955" transform="rotate(0 0 0)" fill="cyan" stroke="black" stroke-width="0.5" />
<polygon points="560.5,51.0955 590,102.191 619.5,51.0955" transform="rotate(0 0 0)" fill="cyan" stroke="black" stroke-width="0.5" />
<polygon points="619.5,51.0955 649,102.191 678.5,51.0955" transform="rotate(0 0 0)" fill="cyan" stroke="black" stroke-width="0.5" />
<polygon points="678.5,51.0955 708,102.191 737.5,51.0955" transform="rotate(0 0 0)" fill="cyan" stroke="black" stroke-width="0.5" />
<polygon points="29.5,102.191 59,153.286 88.5,102.191" transform="rotate(0 0 0)" fill="cyan" stroke="black" stroke-width="0.5" />
<polygon points="88.5,102.191 118,153.286 147.5,102.191" transform="rotate(0 0 0)" fill="cyan" stroke="black" stroke-width="0.5" />
<polygon points="147.5,102.191 177,153.286 206.5,102.191" transform="rotate(0 0 0)" fill="cyan" stroke="black" stroke-width="0.5" />
<polygon points="206.5,102.191 236,153.286 265.5,102.191" transform="rotate(0 0 0)" fill="cyan" stroke="black" stroke-width="0.5" />
<polygon points="265.5,102.191 295,153.286 324.5,102.191" transform="rotate(0 0 0)" fill="cyan" stroke="black" stroke-width="0.5" />
<polygon points="324.5,102.191 354,153.286 383.5,102.191" transform="rotate(0 0 0)" fill="cyan" stroke="black" stroke-width="0.5" />
<polygon points="383.5,102.191 413,153.286 442.5,102.191" transform="rotate(0 0 0)" fill="cyan" stroke="black" stroke-width="0.5" />
<polygon points="442.5,102.191 472,153.286 501.5,102.191" transform="rotate(0 0 0)" fill="cyan" stroke="black" stroke-width="0.5" />
<polygon points="501.5,102.191 531,153.286 560.5,102.191" transform="rotate(0 0 0)" fill="cyan" stroke="black" stroke-width="0.5" />
<polygon points="560.5,102.191 590,153.286 619.5,102.191" transform="rotate(0 0 0)" fill="cyan" stroke="black" stroke-width="0.5" />
<polygon points="619.5,102.191 649,153.286 678.5,102.191" transform="rotate(0 0 0)" fill="cyan" stroke="black" stroke-width="0.5" />
<polygon points="678.5,102.191 708,153.286 737.5,102.191" transform="rotate(0 0 0)" fill="cyan" stroke="black" stroke-width="0.5" />
<polygon points="29.5,153.286 59,204.382 88.5,153.286" transform="rotate(0 0 0)" fill="cyan" stroke="black" stroke-width="0.5" />
<polygon points="88.5,153.286 118,204.382 147.5,153.286" transform="rotate(0 0 0)" fill="cyan" stroke="black" stroke-width="0.5" />
<polygon points="147.5,153.286 177,204.382 206.5,153.286" transform="rotate(0 0 0)" fill="cyan" stroke="black" stroke-width="0.5" />
<polygon points="206.5,153.286 236,204.382 265.5,153.286" transform="rotate(0 0 0)" fill="cyan" stroke="black" stroke-width="0.5" />
<polygon points="265.5,153.286 295,204.382 324.5,153.286" transform="rotate(0 0 0)" fill="cyan" stroke="black" stroke-width="0.5" />
<polygon points="324.5,153.286 354,204.382 383.5,153.286" transform="rotate(0 0 0)" fill="cyan" stroke="black" stroke-width="0.5" />
<polygon points="383.5,153.286 413,204.382 442.5,153.286" transform="rotate(0 0 0)" fill="cyan" stroke="black" stroke-width="0.5" />
<polygon points="442.5,153.286 472,204.382 501.5,153.286" transform="rotate(0 0 0)" fill="cyan" stroke="black" stroke-width="0.5" />
<polygon points="501.5,153.286 531,204.382 560.5,153.286" transform="rotate(0 0 0)" fill="cyan" stroke="black" stroke-width="0.5" />
<polygon points="560.5,153.286 590,204.382 619.5,153.286" transform="rotate(0 0 0)" fill="cyan" stroke="black" stroke-width="0.5" />
<polygon points="619.5,153.286 649,204.382 678.5,153.286" transform="rotate(0 0 0)" fill="cyan" stroke="black" stroke-width="0.5" />
<polygon points="678.5,153.286 708,204.382 737.5,153.286" transform="rotate(0 0 0)" fill="cyan" stroke="black" stroke-width="0.5" />
<polygon points="29.5,204.382 59,255.477 88.5,204.382" transform="rotate(0 0 0)" fill="cyan" stroke="black" stroke-width="0.5" />
<polygon points="88.5,204.382 118,255.477 147.5,204.382" transform="rotate(0 0 0)" fill="cyan" stroke="black" stroke-width="0.5" />
<polygon points="147.5,204.382 177,255.477 206.5,204.382" transform="rotate(0 0 0)" fill="cyan" stroke="black" stroke-width="0.5" />
<polygon points="206.5,204.382 236,255.477 265.5,204.382" transform="rotate(0 0 0)" fill="cyan" stroke="black" stroke-width="0.5" />
<polygon points="265.5,204.382 295,255.477 324.5,204.382" transform="rotate(0 0 0)" fill="cyan" stroke="black" stroke-width="0.5" />
<polygon points="324.5,204.382 354,255.477 383.5,204.382" transform="rotate(0 0 0)" fill="cyan" stroke="black" stroke-width="0.5" />
<polygon points="383.5,204.382 413,255.477 442.5,204.382" transform="rotate(0 0 0)" fill="cyan" stroke="black" stroke-width="0.5" />
<polygon points="442.5,204.382 472,255.477 501.5,204.382" transform="rotate(0 0 0)" fill="cyan" stroke="black" stroke-width="0.5" />
<polygon points="501.5,204.382 531,255.477 560.5,204.382" transform="rotate(0 0 0)" fill="cyan" stroke="black" stroke-width="0.5" />
<polygon points="560.5,204.382 590,255.477 619.5,204.382" transform="rotate(0 0 0)" fill="cyan" stroke="black" stroke-width="0.5" />
<polygon points="619.5,204.382 649,255.477 678.5,204.382" transform="rotate(0 0 0)" fill="cyan" stroke="black" stroke-width="0.5" />
<polygon points="678.5,204.382 708,255.477 737.5,204.382" transform="rotate(0 0 0)" fill="cyan" stroke="black" stroke-width="0.5" />
<polygon points="29.5,255.477 59,306.573 88.5,255.477" transform="rotate(0 0 0)" fill="cyan" stroke="black" stroke-width="0.5" />
<polygon points="88.5,255.477 118,306.573 147.5,255.477" transform="rotate(0 0 0)" fill="cyan" stroke="black" stroke-width="0.5" />
<polygon points="147.5,255.477 177,306.573 206.5,255.477" transform="rotate(0 0 0)" fill="cyan" stroke="black" stroke-width="0.5" />
<polygon points="206.5,255.477 236,306.573 265.5,255.477" transform="rotate(0 0 0)" fill="cyan" stroke="black" stroke-width="0.5" />
<polygon points="265.5,255.477 295,306.573 324.5,255.477" transform="rotate(0 0 0)" fill="cyan" stroke="black" stroke-width="0.5" />
<polygon points="324.5,255.477 354,306.573 383.5,255.477" transform="rotate(0 0 0)" fill="cyan" stroke="black" stroke-width="0.5" />
<polygon points="383.5,255.477 413,306.573 442.5,255.477" transform="rotate(0 0 0)" fill="cyan" stroke="black" stroke-width="0.5" />
<polygon points="442.5,255.477 472,306.573 501.5,255.477" transform="rotate(0 0 0)" fill="cyan" stroke="black" stroke-width="0.5" />
<polygon points="501.5,255.477 531,306.573 560.5,255.477" transform="rotate(0 0 0)" fill="cyan" stroke="black" stroke-width="0.5" />
<polygon points="560.5,255.477 590,306.573 619.5,255.477" transform="rotate(0 0 0)" fill="cyan" stroke="black" stroke-width="0.5" />
<polygon points="619.5,255.477 649,306.573 678.5,255.477" transform="rotate(0 0 0)" fill="cyan" stroke="black" stroke-width="0.5" />
<polygon points="678.5,255.477 708,306.573 737.5,255.477" transform="rotate(0 0 0)" fill="cyan" stroke="black" stroke-width="0.5" />
<polygon points="29.5,306.573 59,357.668 88.5,306.573" transform="rotate(0 0 0)" fill="cyan" stroke="black" stroke-width="0.5" />
<polygon points="88.5,306.573 118,357.668 147.5,306.573" transform="rotate(0 0 0)" fill="cyan" stroke="black" stroke-width="0.5" />
<polygon points="147.5,306.573 177,357.668 206.5,306.573" transform="rotate(0 0 0)" fill="cyan" stroke="black" stroke-width="0.5" />
<polygon points="206.5,306.573 236,357.668 265.5,306.573" transform="rotate(0 0 0)" fill="cyan" stroke="black" stroke-width="0.5" />
<polygon points="265.5,306.573 295,357.668 324.5,306.573" transform="rotate(0 0 0)" fill="cyan" stroke="black" stroke-width="0.5" />
<polygon points="324.5,306.573 354,357.668 383.5,306.573" transform="rotate(0 0 0)" fill="cyan" stroke="black" stroke-width="0.5" />
<polygon points="383.5,306.573 413,357.668 442.5,306.573" transform="rotate(0 0 0)" fill="cyan" stroke="black" stroke-width="0.5" />
<polygon points="442.5,306.573 472,357.668 501.5,306.573" transform="rotate(0 0 0)" fill="cyan" stroke="black" stroke-width="0.5" />
<polygon points="501.5,306.573 531,357.668 560.5,306.573" transform="rotate(0 0 0)" fill="cyan" stroke="black" stroke-width="0.5" />
<polygon points="560.5,306.573 590,357.668 619.5,306.573" transform="rotate(0 0 0)" fill="cyan" stroke="black" stroke-width="0.5" />
<polygon points="619.5,306.573 649,357.668 678.5,306.573" transform="rotate(0 0 0)" fill="cyan" stroke="black" stroke-width="0.5" />
<polygon points="678.5,306.573 708,357.668 737.5,306.573" transform="rotate(0 0 0)" fill="cyan" stroke="black" stroke-width="0.5" />
<polygon points="29.5,357.668 59,408.764 88.5,357.668" transform="rotate(0 0 0)" fill="cyan" stroke="black" stroke-width="0.5" />
<polygon points="88.5,357.668 118,408.764 147.5,357.668" transform="rotate(0 0 0)" fill="cyan" stroke="black" stroke-width="0.5" />
<polygon points="147.5,357.668 177,408.764 206.5,357.668" transform="rotate(0 0 0)" fill="cyan" stroke="black" stroke-width="0.5" />
<polygon points="206.5,357.668 236,408.764 265.5,357.668" transform="rotate(0 0 0)" fill="cyan" stroke="black" stroke-width="0.5" />
<polygon points="265.5,357.668 295,408.764 324.5,357.668" transform="rotate(0 0 0)" fill="cyan" stroke="black" stroke-width="0.5" />
<polygon points="324.5,357.668 354,408.764 383.5,357.668" transform="rotate(0 0 0)" fill="cyan" stroke="black" stroke-width="0.5" />
<polygon points="383.5,357.668 413,408.764 442.5,357.668" transform="rotate(0 0 0)" fill="cyan" stroke="black" stroke-width="0.5" />
<polygon points="442.5,357.668 472,408.764 501.5,357.668" transform="rotate(0 0 0)" fill="cyan" stroke="black" stroke-width="0.5" />
<polygon points="501.5,357.668 531,408.764 560.5,357.668" transform="rotate(0 0 0)" fill="cyan" stroke="black" stroke-width="0.5" />
<polygon points="560.5,357.668 590,408.764 619.5,357.668" transform="rotate(0 0 0)" fill="cyan" stroke="black" stroke-width="0.5" />
<polygon points="619.5,357.668 649,408.764 678.5,357.668" transform="rotate(0 0 0)" fill="cyan" stroke="black" stroke-width="0.5" />
<polygon points="678.5,357.668 708,408.764 737.5,357.668" transform="rotate(0 0 0)" fill="cyan" stroke="black" stroke-width="0.5" />
<polygon points="29.5,408.764 59,459.859 88.5,408.764" transform="rotate(0 0 0)" fill="cyan" stroke="black" stroke-width="0.5" />
<polygon points="88.5,408.764 118,459.859 147.5,408.764" transform="rotate(0 0 0)" fill="cyan" stroke="black" stroke-width="0.5" />
<polygon points="147.5,408.764 177,459.859 206.5,408.764" transform="rotate(0 0 0)" fill="cyan" stroke="black" stroke-width="0.5" />
<polygon points="206.5,408.764 236,459.859 265.5,408.764" transform="rotate(0 0 0)" fill="cyan" stroke="black" stroke-width="0.5" />
<polygon points="265.5,408.764 295,459.859 324.5,408.764" transform="rotate(0 0 0)" fill="cyan" stroke="black" stroke-width="0.5" />
<polygon points="324.5,408.764 354,459.859 383.5,408.764" transform="rotate(0 0 0)" fill="cyan" stroke="black" stroke-width="0.5" />
<polygon points="383.5,408.764 413,459.859 442.5,408.764" transform="rotate(0 0 0)" fill="cyan" stroke="black" stroke-width="0.5" />
<polygon points="442.5,408.764 472,459.859 501.5,408.764" transform="rotate(0 0 0)" fill="cyan" stroke="black" stroke-width="0.5" />
<polygon points="501.5,408.764 531,459.859 560.5,408.764" transform="rotate(0 0 0)" fill="cyan" stroke="black" stroke-width="0.5" />
<polygon points="560.5,408.764 590,459.859 619.5,408.764" transform="rotate(0 0 0)" fill="cyan" stroke="black" stroke-width="0.5" />
<polygon points="619.5,408.764 649,459.859 678.5,408.764" transform="rotate(0 0 0)" fill="cyan" stroke="black" stroke-width="0.5" />
<polygon points="678.5,408.764 708,459.859 737.5,408.764" transform="rotate(0 0 0)" fill="cyan" stroke="black" stroke-width="0.5" />
</svg>
