<svg version="1.1" baseProfile="full" xmlns="http://www.w3.org/2000/svg">
<rect x="0"  y="0" width="500" height="750" transform="rotate(0 0 0)" fill="pink" stroke="black" stroke-width="0.5" />
<circle cx="50" cy="50" r="50" transform="rotate(0 0 0)" fill="green" stroke="black" stroke-width="0.5" />
<circle cx="150" cy="50" r="50" transform="rotate(0 0 0)" fill="green" stroke="black" stroke-width="0.5" />
<circle cx="250" cy="50" r="50" transform="rotate(0 0 0)" fill="green" stroke="black" stroke-width="0.5" />
<circle cx="350" cy="50" r="50" transform="rotate(0 0 0)" fill="green" stroke="black" stroke-width="0.5" />
<circle cx="450" cy="50" r="50" transform="rotate(0 0 0)" fill="green" stroke="black" stroke-width="0.5" />
<circle cx="100" cy="136.603" r="50" transform="rotate(0 0 0)" fill="green" stroke="black" stroke-width="0.5" />
<circle cx="200" cy="136.603" r="50" transform="rotate(0 0 0)" fill="green" stroke="black" stroke-width="0.5" />
<circle cx="300" cy="136.603" r="50" transform="rotate(0 0 0)" fill="green" stroke="black" stroke-width="0.5" />
<circle cx="400" cy="136.603" r="50" transform="rotate(0 0 0)" fill="green" stroke="black" stroke-width="0.5" />
<circle cx="50" cy="223.205" r="50" transform="rotate(0 0 0)" fill="green" stroke="black" stroke-width="0.5" />
<circle cx="150" cy="223.205" r="50" transform="rotate(0 0 0)" fill="green" stroke="black" stroke-width="0.5" />
<circle cx="250" cy="223.205" r="50" transform="rotate(0 0 0)" fill="green" stroke="black" stroke-width="0.5" />
<circle cx="350" cy="223.205" r="50" transform="rotate(0 0 0)" fill="green" stroke="black" stroke-width="0.5" />
<circle cx="450" cy="223.205" r="50" transform="rotate(0 0 0)" fill="green" stroke="black" stroke-width="0.5" />
<circle cx="100" cy="309.808" r="50" transform="rotate(0 0 0)" fill="green" stroke="black" stroke-width="0.5" />
<circle cx="200" cy="309.808" r="50" transform="rotate(0 0 0)" fill="green" stroke="black" stroke-width="0.5" />
<circle cx="300" cy="309.808" r="50" transform="rotate(0 0 0)" fill="green" stroke="black" stroke-width="0.5" />
<circle cx="400" cy="309.808" r="50" transform="rotate(0 0 0)" fill="green" stroke="black" stroke-width="0.5" />
<circle cx="50" cy="396.41" r="50" transform="rotate(0 0 0)" fill="green" stroke="black" stroke-width="0.5" />
<circle cx="150" cy="396.41" r="50" transform="rotate(0 0 0)" fill="green" stroke="black" stroke-width="0.5" />
<circle cx="250" cy="396.41" r="50" transform="rotate(0 0 0)" fill="green" stroke="black" stroke-width="0.5" />
<circle cx="350" cy="396.41" r="50" transform="rotate(0 0 0)" fill="green" stroke="black" stroke-width="0.5" />
<circle cx="450" cy="396.41" r="50" transform="rotate(0 0 0)" fill="green" stroke="black" stroke-width="0.5" />
<circle cx="100" cy="483.013" r="50" transform="rotate(0 0 0)" fill="green" stroke="black" stroke-width="0.5" />
<circle cx="200" cy="483.013" r="50" transform="rotate(0 0 0)" fill="green" stroke="black" stroke-width="0.5" />
<circle cx="300" cy="483.013" r="50" transform="rotate(0 0 0)" fill="green" stroke="black" stroke-width="0.5" />
<circle cx="400" cy="483.013" r="50" transform="rotate(0 0 0)" fill="green" stroke="black" stroke-width="0.5" />
<circle cx="50" cy="569.615" r="50" transform="rotate(0 0 0)" fill="green" stroke="black" stroke-width="0.5" />
<circle cx="150" cy="569.615" r="50" transform="rotate(0 0 0)" fill="green" stroke="black" stroke-width="0.5" />
<circle cx="250" cy="569.615" r="50" transform="rotate(0 0 0)" fill="green" stroke="black" stroke-width="0.5" />
<circle cx="350" cy="569.615" r="50" transform="rotate(0 0 0)" fill="green" stroke="black" stroke-width="0.5" />
<circle cx="450" cy="569.615" r="50" transform="rotate(0 0 0)" fill="green" stroke="black" stroke-width="0.5" />
<circle cx="100" cy="656.218" r="50" transform="rotate(0 0 0)" fill="green" stroke="black" stroke-width="0.5" />
<circle cx="200" cy="656.218" r="50" transform="rotate(0 0 0)" fill="green" stroke="black" stroke-width="0.5" />
<circle cx="300" cy="656.218" r="50" transform="rotate(0 0 0)" fill="green" stroke="black" stroke-width="0.5" />
<circle cx="400" cy="656.218" r="50" transform="rotate(0 0 0)" fill="green" stroke="black" stroke-width="0.5" />
</svg>
