<svg version="1.1" baseProfile="full" xmlns="http://www.w3.org/2000/svg">
<polygon points="255,5 5,438.013 505,438.013" transform="rotate(0 0 0)" fill="purple" stroke="black" stroke-width="0.5" />
<polygon points="255,5 220,65.6218 290,65.6218" transform="rotate(0 0 0)" fill="magenta" stroke="black" stroke-width="0.5" />
<polygon points="255,126.244 220,65.6218 290,65.6218" transform="rotate(0 0 0)" fill="magenta" stroke="black" stroke-width="0.5" />
<polygon points="220,65.6218 185,126.244 255,126.244" transform="rotate(0 0 0)" fill="magenta" stroke="black" stroke-width="0.5" />
<polygon points="220,186.865 185,126.244 255,126.244" transform="rotate(0 0 0)" fill="magenta" stroke="black" stroke-width="0.5" />
<polygon points="290,65.6218 255,126.244 325,126.244" transform="rotate(0 0 0)" fill="magenta" stroke="black" stroke-width="0.5" />
<polygon points="290,186.865 255,126.244 325,126.244" transform="rotate(0 0 0)" fill="magenta" stroke="black" stroke-width="0.5" />
<polygon points="185,126.244 150,186.865 220,186.865" transform="rotate(0 0 0)" fill="magenta" stroke="black" stroke-width="0.5" />
<polygon points="185,247.487 150,186.865 220,186.865" transform="rotate(0 0 0)" fill="magenta" stroke="black" stroke-width="0.5" />
<polygon points="255,126.244 220,186.865 290,186.865" transform="rotate(0 0 0)" fill="magenta" stroke="black" stroke-width="0.5" />
<polygon points="255,247.487 220,186.865 290,186.865" transform="rotate(0 0 0)" fill="magenta" stroke="black" stroke-width="0.5" />
<polygon points="325,126.244 290,186.865 360,186.865" transform="rotate(0 0 0)" fill="magenta" stroke="black" stroke-width="0.5" />
<polygon points="325,247.487 290,186.865 360,186.865" transform="rotate(0 0 0)" fill="magenta" stroke="black" stroke-width="0.5" />
<polygon points="150,186.865 115,247.487 185,247.487" transform="rotate(0 0 0)" fill="magenta" stroke="black" stroke-width="0.5" />
<polygon points="150,308.109 115,247.487 185,247.487" transform="rotate(0 0 0)" fill="magenta" stroke="black" stroke-width="0.5" />
<polygon points="220,186.865 185,247.487 255,247.487" transform="rotate(0 0 0)" fill="magenta" stroke="black" stroke-width="0.5" />
<polygon points="220,308.109 185,247.487 255,247.487" transform="rotate(0 0 0)" fill="magenta" stroke="black" stroke-width="0.5" />
<polygon points="290,186.865 255,247.487 325,247.487" transform="rotate(0 0 0)" fill="magenta" stroke="black" stroke-width="0.5" />
<polygon points="290,308.109 255,247.487 325,247.487" transform="rotate(0 0 0)" fill="magenta" stroke="black" stroke-width="0.5" />
<polygon points="360,186.865 325,247.487 395,247.487" transform="rotate(0 0 0)" fill="magenta" stroke="black" stroke-width="0.5" />
<polygon points="360,308.109 325,247.487 395,247.487" transform="rotate(0 0 0)" fill="magenta" stroke="black" stroke-width="0.5" />
<polygon points="115,247.487 80,308.109 150,308.109" transform="rotate(0 0 0)" fill="magenta" stroke="black" stroke-width="0.5" />
<polygon points="115,368.731 80,308.109 150,308.109" transform="rotate(0 0 0)" fill="magenta" stroke="black" stroke-width="0.5" />
<polygon points="185,247.487 150,308.109 220,308.109" transform="rotate(0 0 0)" fill="magenta" stroke="black" stroke-width="0.5" />
<polygon points="185,368.731 150,308.109 220,308.109" transform="rotate(0 0 0)" fill="magenta" stroke="black" stroke-width="0.5" />
<polygon points="255,247.487 220,308.109 290,308.109" transform="rotate(0 0 0)" fill="magenta" stroke="black" stroke-width="0.5" />
<polygon points="255,368.731 220,308.109 290,308.109" transform="rotate(0 0 0)" fill="magenta" stroke="black" stroke-width="0.5" />
<polygon points="325,247.487 290,308.109 360,308.109" transform="rotate(0 0 0)" fill="magenta" stroke="black" stroke-width="0.5" />
<polygon points="325,368.731 290,308.109 360,308.109" transform="rotate(0 0 0)" fill="magenta" stroke="black" stroke-width="0.5" />
<polygon points="395,247.487 360,308.109 430,308.109" transform="rotate(0 0 0)" fill="magenta" stroke="black" stroke-width="0.5" />
<polygon points="395,368.731 360,308.109 430,308.109" transform="rotate(0 0 0)" fill="magenta" stroke="black" stroke-width="0.5" />
<polygon points="80,308.109 45,368.731 115,368.731" transform="rotate(0 0 0)" fill="magenta" stroke="black" stroke-width="0.5" />
<polygon points="80,429.352 45,368.731 115,368.731" transform="rotate(0 0 0)" fill="magenta" stroke="black" stroke-width="0.5" />
<polygon points="150,308.109 115,368.731 185,368.731" transform="rotate(0 0 0)" fill="magenta" stroke="black" stroke-width="0.5" />
<polygon points="150,429.352 115,368.731 185,368.731" transform="rotate(0 0 0)" fill="magenta" stroke="black" stroke-width="0.5" />
<polygon points="220,308.109 185,368.731 255,368.731" transform="rotate(0 0 0)" fill="magenta" stroke="black" stroke-width="0.5" />
<polygon points="220,429.352 185,368.731 255,368.731" transform="rotate(0 0 0)" fill="magenta" stroke="black" stroke-width="0.5" />
<polygon points="290,308.109 255,368.731 325,368.731" transform="rotate(0 0 0)" fill="magenta" stroke="black" stroke-width="0.5" />
<polygon points="290,429.352 255,368.731 325,368.731" transform="rotate(0 0 0)" fill="magenta" stroke="black" stroke-width="0.5" />
<polygon points="360,308.109 325,368.731 395,368.731" transform="rotate(0 0 0)" fill="magenta" stroke="black" stroke-width="0.5" />
<polygon points="360,429.352 325,368.731 395,368.731" transform="rotate(0 0 0)" fill="magenta" stroke="black" stroke-width="0.5" />
<polygon points="430,308.109 395,368.731 465,368.731" transform="rotate(0 0 0)" fill="magenta" stroke="black" stroke-width="0.5" />
<polygon points="430,429.352 395,368.731 465,368.731" transform="rotate(0 0 0)" fill="magenta" stroke="black" stroke-width="0.5" />
<polygon points="45,368.731 10,429.352 80,429.352" transform="rotate(0 0 0)" fill="magenta" stroke="black" stroke-width="0.5" />
<polygon points="115,368.731 80,429.352 150,429.352" transform="rotate(0 0 0)" fill="magenta" stroke="black" stroke-width="0.5" />
<polygon points="185,368.731 150,429.352 220,429.352" transform="rotate(0 0 0)" fill="magenta" stroke="black" stroke-width="0.5" />
<polygon points="255,368.731 220,429.352 290,429.352" transform="rotate(0 0 0)" fill="magenta" stroke="black" stroke-width="0.5" />
<polygon points="325,368.731 290,429.352 360,429.352" transform="rotate(0 0 0)" fill="magenta" stroke="black" stroke-width="0.5" />
<polygon points="395,368.731 360,429.352 430,429.352" transform="rotate(0 0 0)" fill="magenta" stroke="black" stroke-width="0.5" />
<polygon points="465,368.731 430,429.352 500,429.352" transform="rotate(0 0 0)" fill="magenta" stroke="black" stroke-width="0.5" />
</svg>
