<svg version="1.1" baseProfile="full" xmlns="http://www.w3.org/2000/svg">
<circle cx="505" cy="505" r="500" transform="rotate(0 0 0)" fill="purple" stroke="black" stroke-width="0.5" />
<polygon points="505,505 475.5,556.095 534.5,556.095" transform="rotate(0 505 505)" fill="cyan" stroke="black" stroke-width="0.5" />
<polygon points="505,607.191 475.5,556.095 534.5,556.095" transform="rotate(0 505 505)" fill="cyan" stroke="black" stroke-width="0.5" />
<polygon points="475.5,556.095 446,607.191 505,607.191" transform="rotate(0 505 505)" fill="cyan" stroke="black" stroke-width="0.5" />
<polygon points="475.5,658.286 446,607.191 505,607.191" transform="rotate(0 505 505)" fill="cyan" stroke="black" stroke-width="0.5" />
<polygon points="534.5,556.095 505,607.191 564,607.191" transform="rotate(0 505 505)" fill="cyan" stroke="black" stroke-width="0.5" />
<polygon points="534.5,658.286 505,607.191 564,607.191" transform="rotate(0 505 505)" fill="cyan" stroke="black" stroke-width="0.5" />
<polygon points="446,607.191 416.5,658.286 475.5,658.286" transform="rotate(0 505 505)" fill="cyan" stroke="black" stroke-width="0.5" />
<polygon points="446,709.382 416.5,658.286 475.5,658.286" transform="rotate(0 505 505)" fill="cyan" stroke="black" stroke-width="0.5" />
<polygon points="505,607.191 475.5,658.286 534.5,658.286" transform="rotate(0 505 505)" fill="cyan" stroke="black" stroke-width="0.5" />
<polygon points="505,709.382 475.5,658.286 534.5,658.286" transform="rotate(0 505 505)" fill="cyan" stroke="black" stroke-width="0.5" />
<polygon points="564,607.191 534.5,658.286 593.5,658.286" transform="rotate(0 505 505)" fill="cyan" stroke="black" stroke-width="0.5" />
<polygon points="564,709.382 534.5,658.286 593.5,658.286" transform="rotate(0 505 505)" fill="cyan" stroke="black" stroke-width="0.5" />
<polygon points="416.5,658.286 387,709.382 446,709.382" transform="rotate(0 505 505)" fill="cyan" stroke="black" stroke-width="0.5" />
<polygon points="416.5,760.477 387,709.382 446,709.382" transform="rotate(0 505 505)" fill="cyan" stroke="black" stroke-width="0.5" />
<polygon points="475.5,658.286 446,709.382 505,709.382" transform="rotate(0 505 505)" fill="cyan" stroke="black" stroke-width="0.5" />
<polygon points="475.5,760.477 446,709.382 505,709.382" transform="rotate(0 505 505)" fill="cyan" stroke="black" stroke-width="0.5" />
<polygon points="534.5,658.286 505,709.382 564,709.382" transform="rotate(0 505 505)" fill="cyan" stroke="black" stroke-width="0.5" />
<polygon points="534.5,760.477 505,709.382 564,709.382" transform="rotate(0 505 505)" fill="cyan" stroke="black" stroke-width="0.5" />
<polygon points="593.5,658.286 564,709.382 623,709.382" transform="rotate(0 505 505)" fill="cyan" stroke="black" stroke-width="0.5" />
<polygon points="593.5,760.477 564,709.382 623,709.382" transform="rotate(0 505 505)" fill="cyan" stroke="black" stroke-width="0.5" />
<polygon points="387,709.382 357.5,760.477 416.5,760.477" transform="rotate(0 505 505)" fill="cyan" stroke="black" stroke-width="0.5" />
<polygon points="387,811.573 357.5,760.477 416.5,760.477" transform="rotate(0 505 505)" fill="cyan" stroke="black" stroke-width="0.5" />
<polygon points="446,709.382 416.5,760.477 475.5,760.477" transform="rotate(0 505 505)" fill="cyan" stroke="black" stroke-width="0.5" />
<polygon points="446,811.573 416.5,760.477 475.5,760.477" transform="rotate(0 505 505)" fill="cyan" stroke="black" stroke-width="0.5" />
<polygon points="505,709.382 475.5,760.477 534.5,760.477" transform="rotate(0 505 505)" fill="cyan" stroke="black" stroke-width="0.5" />
<polygon points="505,811.573 475.5,760.477 534.5,760.477" transform="rotate(0 505 505)" fill="cyan" stroke="black" stroke-width="0.5" />
<polygon points="564,709.382 534.5,760.477 593.5,760.477" transform="rotate(0 505 505)" fill="cyan" stroke="black" stroke-width="0.5" />
<polygon points="564,811.573 534.5,760.477 593.5,760.477" transform="rotate(0 505 505)" fill="cyan" stroke="black" stroke-width="0.5" />
<polygon points="623,709.382 593.5,760.477 652.5,760.477" transform="rotate(0 505 505)" fill="cyan" stroke="black" stroke-width="0.5" />
<polygon points="623,811.573 593.5,760.477 652.5,760.477" transform="rotate(0 505 505)" fill="cyan" stroke="black" stroke-width="0.5" />
<polygon points="357.5,760.477 328,811.573 387,811.573" transform="rotate(0 505 505)" fill="cyan" stroke="black" stroke-width="0.5" />
<polygon points="357.5,862.668 328,811.573 387,811.573" transform="rotate(0 505 505)" fill="cyan" stroke="black" stroke-width="0.5" />
<polygon points="416.5,760.477 387,811.573 446,811.573" transform="rotate(0 505 505)" fill="cyan" stroke="black" stroke-width="0.5" />
<polygon points="416.5,862.668 387,811.573 446,811.573" transform="rotate(0 505 505)" fill="cyan" stroke="black" stroke-width="0.5" />
<polygon points="475.5,760.477 446,811.573 505,811.573" transform="rotate(0 505 505)" fill="cyan" stroke="black" stroke-width="0.5" />
<polygon points="475.5,862.668 446,811.573 505,811.573" transform="rotate(0 505 505)" fill="cyan" stroke="black" stroke-width="0.5" />
<polygon points="534.5,760.477 505,811.573 564,811.573" transform="rotate(0 505 505)" fill="cyan" stroke="black" stroke-width="0.5" />
<polygon points="534.5,862.668 505,811.573 564,811.573" transform="rotate(0 505 505)" fill="cyan" stroke="black" stroke-width="0.5" />
<polygon points="593.5,760.477 564,811.573 623,811.573" transform="rotate(0 505 505)" fill="cyan" stroke="black" stroke-width="0.5" />
<polygon points="593.5,862.668 564,811.573 623,811.573" transform="rotate(0 505 505)" fill="cyan" stroke="black" stroke-width="0.5" />
<polygon points="652.5,760.477 623,811.573 682,811.573" transform="rotate(0 505 505)" fill="cyan" stroke="black" stroke-width="0.5" />
<polygon points="652.5,862.668 623,811.573 682,811.573" transform="rotate(0 505 505)" fill="cyan" stroke="black" stroke-width="0.5" />
<polygon points="328,811.573 298.5,862.668 357.5,862.668" transform="rotate(0 505 505)" fill="cyan" stroke="black" stroke-width="0.5" />
<polygon points="328,913.764 298.5,862.668 357.5,862.668" transform="rotate(0 505 505)" fill="cyan" stroke="black" stroke-width="0.5" />
<polygon points="387,811.573 357.5,862.668 416.5,862.668" transform="rotate(0 505 505)" fill="cyan" stroke="black" stroke-width="0.5" />
<polygon points="387,913.764 357.5,862.668 416.5,862.668" transform="rotate(0 505 505)" fill="cyan" stroke="black" stroke-width="0.5" />
<polygon points="446,811.573 416.5,862.668 475.5,862.668" transform="rotate(0 505 505)" fill="cyan" stroke="black" stroke-width="0.5" />
<polygon points="446,913.764 416.5,862.668 475.5,862.668" transform="rotate(0 505 505)" fill="cyan" stroke="black" stroke-width="0.5" />
<polygon points="505,811.573 475.5,862.668 534.5,862.668" transform="rotate(0 505 505)" fill="cyan" stroke="black" stroke-width="0.5" />
<polygon points="505,913.764 475.5,862.668 534.5,862.668" transform="rotate(0 505 505)" fill="cyan" stroke="black" stroke-width="0.5" />
<polygon points="564,811.573 534.5,862.668 593.5,862.668" transform="rotate(0 505 505)" fill="cyan" stroke="black" stroke-width="0.5" />
<polygon points="564,913.764 534.5,862.668 593.5,862.668" transform="rotate(0 505 505)" fill="cyan" stroke="black" stroke-width="0.5" />
<polygon points="623,811.573 593.5,862.668 652.5,862.668" transform="rotate(0 505 505)" fill="cyan" stroke="black" stroke-width="0.5" />
<polygon points="623,913.764 593.5,862.668 652.5,862.668" transform="rotate(0 505 505)" fill="cyan" stroke="black" stroke-width="0.5" />
<polygon points="682,811.573 652.5,862.668 711.5,862.668" transform="rotate(0 505 505)" fill="cyan" stroke="black" stroke-width="0.5" />
<polygon points="682,913.764 652.5,862.668 711.5,862.668" transform="rotate(0 505 505)" fill="cyan" stroke="black" stroke-width="0.5" />
<polygon points="298.5,862.668 269,913.764 328,913.764" transform="rotate(0 505 505)" fill="cyan" stroke="black" stroke-width="0.5" />
<polygon points="357.5,862.668 328,913.764 387,913.764" transform="rotate(0 505 505)" fill="cyan" stroke="black" stroke-width="0.5" />
<polygon points="416.5,862.668 387,913.764 446,913.764" transform="rotate(0 505 505)" fill="cyan" stroke="black" stroke-width="0.5" />
<polygon points="475.5,862.668 446,913.764 505,913.764" transform="rotate(0 505 505)" fill="cyan" stroke="black" stroke-width="0.5" />
<polygon points="534.5,862.668 505,913.764 564,913.764" transform="rotate(0 505 505)" fill="cyan" stroke="black" stroke-width="0.5" />
<polygon points="593.5,862.668 564,913.764 623,913.764" transform="rotate(0 505 505)" fill="cyan" stroke="black" stroke-width="0.5" />
<polygon points="652.5,862.668 623,913.764 682,913.764" transform="rotate(0 505 505)" fill="cyan" stroke="black" stroke-width="0.5" />
<polygon points="711.5,862.668 682,913.764 741,913.764" transform="rotate(0 505 505)" fill="cyan" stroke="black" stroke-width="0.5" />
<polygon points="607.5,913.764 578,964.859 637,964.859" transform="rotate(0 505 505)" fill="cyan" stroke="black" stroke-width="0.5" />
<polygon points="548.5,913.764 519,964.859 578,964.859" transform="rotate(0 505 505)" fill="cyan" stroke="black" stroke-width="0.5" />
<polygon points="489.5,913.764 460,964.859 519,964.859" transform="rotate(0 505 505)" fill="cyan" stroke="black" stroke-width="0.5" />
<polygon points="430.5,913.764 401,964.859 460,964.859" transform="rotate(0 505 505)" fill="cyan" stroke="black" stroke-width="0.5" />
<polygon points="371.5,913.764 342,964.859 401,964.859" transform="rotate(0 505 505)" fill="cyan" stroke="black" stroke-width="0.5" />
<polygon points="666.5,913.764 637,964.859 607.5,913.764" transform="rotate(0 505 505)" fill="cyan" stroke="black" stroke-width="0.5" />
<polygon points="607.5,913.764 578,964.859 548.5,913.764" transform="rotate(0 505 505)" fill="cyan" stroke="black" stroke-width="0.5" />
<polygon points="548.5,913.764 519,964.859 489.5,913.764" transform="rotate(0 505 505)" fill="cyan" stroke="black" stroke-width="0.5" />
<polygon points="489.5,913.764 460,964.859 430.5,913.764" transform="rotate(0 505 505)" fill="cyan" stroke="black" stroke-width="0.5" />
<polygon points="430.5,913.764 401,964.859 371.5,913.764" transform="rotate(0 505 505)" fill="cyan" stroke="black" stroke-width="0.5" />
<polygon points="371.5,913.764 342,964.859 312.5,913.764" transform="rotate(0 505 505)" fill="cyan" stroke="black" stroke-width="0.5" />
<polygon points="505,505 475.5,556.095 534.5,556.095" transform="rotate(60 505 505)" fill="cyan" stroke="black" stroke-width="0.5" />
<polygon points="505,607.191 475.5,556.095 534.5,556.095" transform="rotate(60 505 505)" fill="cyan" stroke="black" stroke-width="0.5" />
<polygon points="475.5,556.095 446,607.191 505,607.191" transform="rotate(60 505 505)" fill="cyan" stroke="black" stroke-width="0.5" />
<polygon points="475.5,658.286 446,607.191 505,607.191" transform="rotate(60 505 505)" fill="cyan" stroke="black" stroke-width="0.5" />
<polygon points="534.5,556.095 505,607.191 564,607.191" transform="rotate(60 505 505)" fill="cyan" stroke="black" stroke-width="0.5" />
<polygon points="534.5,658.286 505,607.191 564,607.191" transform="rotate(60 505 505)" fill="cyan" stroke="black" stroke-width="0.5" />
<polygon points="446,607.191 416.5,658.286 475.5,658.286" transform="rotate(60 505 505)" fill="cyan" stroke="black" stroke-width="0.5" />
<polygon points="446,709.382 416.5,658.286 475.5,658.286" transform="rotate(60 505 505)" fill="cyan" stroke="black" stroke-width="0.5" />
<polygon points="505,607.191 475.5,658.286 534.5,658.286" transform="rotate(60 505 505)" fill="cyan" stroke="black" stroke-width="0.5" />
<polygon points="505,709.382 475.5,658.286 534.5,658.286" transform="rotate(60 505 505)" fill="cyan" stroke="black" stroke-width="0.5" />
<polygon points="564,607.191 534.5,658.286 593.5,658.286" transform="rotate(60 505 505)" fill="cyan" stroke="black" stroke-width="0.5" />
<polygon points="564,709.382 534.5,658.286 593.5,658.286" transform="rotate(60 505 505)" fill="cyan" stroke="black" stroke-width="0.5" />
<polygon points="416.5,658.286 387,709.382 446,709.382" transform="rotate(60 505 505)" fill="cyan" stroke="black" stroke-width="0.5" />
<polygon points="416.5,760.477 387,709.382 446,709.382" transform="rotate(60 505 505)" fill="cyan" stroke="black" stroke-width="0.5" />
<polygon points="475.5,658.286 446,709.382 505,709.382" transform="rotate(60 505 505)" fill="cyan" stroke="black" stroke-width="0.5" />
<polygon points="475.5,760.477 446,709.382 505,709.382" transform="rotate(60 505 505)" fill="cyan" stroke="black" stroke-width="0.5" />
<polygon points="534.5,658.286 505,709.382 564,709.382" transform="rotate(60 505 505)" fill="cyan" stroke="black" stroke-width="0.5" />
<polygon points="534.5,760.477 505,709.382 564,709.382" transform="rotate(60 505 505)" fill="cyan" stroke="black" stroke-width="0.5" />
<polygon points="593.5,658.286 564,709.382 623,709.382" transform="rotate(60 505 505)" fill="cyan" stroke="black" stroke-width="0.5" />
<polygon points="593.5,760.477 564,709.382 623,709.382" transform="rotate(60 505 505)" fill="cyan" stroke="black" stroke-width="0.5" />
<polygon points="387,709.382 357.5,760.477 416.5,760.477" transform="rotate(60 505 505)" fill="cyan" stroke="black" stroke-width="0.5" />
<polygon points="387,811.573 357.5,760.477 416.5,760.477" transform="rotate(60 505 505)" fill="cyan" stroke="black" stroke-width="0.5" />
<polygon points="446,709.382 416.5,760.477 475.5,760.477" transform="rotate(60 505 505)" fill="cyan" stroke="black" stroke-width="0.5" />
<polygon points="446,811.573 416.5,760.477 475.5,760.477" transform="rotate(60 505 505)" fill="cyan" stroke="black" stroke-width="0.5" />
<polygon points="505,709.382 475.5,760.477 534.5,760.477" transform="rotate(60 505 505)" fill="cyan" stroke="black" stroke-width="0.5" />
<polygon points="505,811.573 475.5,760.477 534.5,760.477" transform="rotate(60 505 505)" fill="cyan" stroke="black" stroke-width="0.5" />
<polygon points="564,709.382 534.5,760.477 593.5,760.477" transform="rotate(60 505 505)" fill="cyan" stroke="black" stroke-width="0.5" />
<polygon points="564,811.573 534.5,760.477 593.5,760.477" transform="rotate(60 505 505)" fill="cyan" stroke="black" stroke-width="0.5" />
<polygon points="623,709.382 593.5,760.477 652.5,760.477" transform="rotate(60 505 505)" fill="cyan" stroke="black" stroke-width="0.5" />
<polygon points="623,811.573 593.5,760.477 652.5,760.477" transform="rotate(60 505 505)" fill="cyan" stroke="black" stroke-width="0.5" />
<polygon points="357.5,760.477 328,811.573 387,811.573" transform="rotate(60 505 505)" fill="cyan" stroke="black" stroke-width="0.5" />
<polygon points="357.5,862.668 328,811.573 387,811.573" transform="rotate(60 505 505)" fill="cyan" stroke="black" stroke-width="0.5" />
<polygon points="416.5,760.477 387,811.573 446,811.573" transform="rotate(60 505 505)" fill="cyan" stroke="black" stroke-width="0.5" />
<polygon points="416.5,862.668 387,811.573 446,811.573" transform="rotate(60 505 505)" fill="cyan" stroke="black" stroke-width="0.5" />
<polygon points="475.5,760.477 446,811.573 505,811.573" transform="rotate(60 505 505)" fill="cyan" stroke="black" stroke-width="0.5" />
<polygon points="475.5,862.668 446,811.573 505,811.573" transform="rotate(60 505 505)" fill="cyan" stroke="black" stroke-width="0.5" />
<polygon points="534.5,760.477 505,811.573 564,811.573" transform="rotate(60 505 505)" fill="cyan" stroke="black" stroke-width="0.5" />
<polygon points="534.5,862.668 505,811.573 564,811.573" transform="rotate(60 505 505)" fill="cyan" stroke="black" stroke-width="0.5" />
<polygon points="593.5,760.477 564,811.573 623,811.573" transform="rotate(60 505 505)" fill="cyan" stroke="black" stroke-width="0.5" />
<polygon points="593.5,862.668 564,811.573 623,811.573" transform="rotate(60 505 505)" fill="cyan" stroke="black" stroke-width="0.5" />
<polygon points="652.5,760.477 623,811.573 682,811.573" transform="rotate(60 505 505)" fill="cyan" stroke="black" stroke-width="0.5" />
<polygon points="652.5,862.668 623,811.573 682,811.573" transform="rotate(60 505 505)" fill="cyan" stroke="black" stroke-width="0.5" />
<polygon points="328,811.573 298.5,862.668 357.5,862.668" transform="rotate(60 505 505)" fill="cyan" stroke="black" stroke-width="0.5" />
<polygon points="328,913.764 298.5,862.668 357.5,862.668" transform="rotate(60 505 505)" fill="cyan" stroke="black" stroke-width="0.5" />
<polygon points="387,811.573 357.5,862.668 416.5,862.668" transform="rotate(60 505 505)" fill="cyan" stroke="black" stroke-width="0.5" />
<polygon points="387,913.764 357.5,862.668 416.5,862.668" transform="rotate(60 505 505)" fill="cyan" stroke="black" stroke-width="0.5" />
<polygon points="446,811.573 416.5,862.668 475.5,862.668" transform="rotate(60 505 505)" fill="cyan" stroke="black" stroke-width="0.5" />
<polygon points="446,913.764 416.5,862.668 475.5,862.668" transform="rotate(60 505 505)" fill="cyan" stroke="black" stroke-width="0.5" />
<polygon points="505,811.573 475.5,862.668 534.5,862.668" transform="rotate(60 505 505)" fill="cyan" stroke="black" stroke-width="0.5" />
<polygon points="505,913.764 475.5,862.668 534.5,862.668" transform="rotate(60 505 505)" fill="cyan" stroke="black" stroke-width="0.5" />
<polygon points="564,811.573 534.5,862.668 593.5,862.668" transform="rotate(60 505 505)" fill="cyan" stroke="black" stroke-width="0.5" />
<polygon points="564,913.764 534.5,862.668 593.5,862.668" transform="rotate(60 505 505)" fill="cyan" stroke="black" stroke-width="0.5" />
<polygon points="623,811.573 593.5,862.668 652.5,862.668" transform="rotate(60 505 505)" fill="cyan" stroke="black" stroke-width="0.5" />
<polygon points="623,913.764 593.5,862.668 652.5,862.668" transform="rotate(60 505 505)" fill="cyan" stroke="black" stroke-width="0.5" />
<polygon points="682,811.573 652.5,862.668 711.5,862.668" transform="rotate(60 505 505)" fill="cyan" stroke="black" stroke-width="0.5" />
<polygon points="682,913.764 652.5,862.668 711.5,862.668" transform="rotate(60 505 505)" fill="cyan" stroke="black" stroke-width="0.5" />
<polygon points="298.5,862.668 269,913.764 328,913.764" transform="rotate(60 505 505)" fill="cyan" stroke="black" stroke-width="0.5" />
<polygon points="357.5,862.668 328,913.764 387,913.764" transform="rotate(60 505 505)" fill="cyan" stroke="black" stroke-width="0.5" />
<polygon points="416.5,862.668 387,913.764 446,913.764" transform="rotate(60 505 505)" fill="cyan" stroke="black" stroke-width="0.5" />
<polygon points="475.5,862.668 446,913.764 505,913.764" transform="rotate(60 505 505)" fill="cyan" stroke="black" stroke-width="0.5" />
<polygon points="534.5,862.668 505,913.764 564,913.764" transform="rotate(60 505 505)" fill="cyan" stroke="black" stroke-width="0.5" />
<polygon points="593.5,862.668 564,913.764 623,913.764" transform="rotate(60 505 505)" fill="cyan" stroke="black" stroke-width="0.5" />
<polygon points="652.5,862.668 623,913.764 682,913.764" transform="rotate(60 505 505)" fill="cyan" stroke="black" stroke-width="0.5" />
<polygon points="711.5,862.668 682,913.764 741,913.764" transform="rotate(60 505 505)" fill="cyan" stroke="black" stroke-width="0.5" />
<polygon points="607.5,913.764 578,964.859 637,964.859" transform="rotate(60 505 505)" fill="cyan" stroke="black" stroke-width="0.5" />
<polygon points="548.5,913.764 519,964.859 578,964.859" transform="rotate(60 505 505)" fill="cyan" stroke="black" stroke-width="0.5" />
<polygon points="489.5,913.764 460,964.859 519,964.859" transform="rotate(60 505 505)" fill="cyan" stroke="black" stroke-width="0.5" />
<polygon points="430.5,913.764 401,964.859 460,964.859" transform="rotate(60 505 505)" fill="cyan" stroke="black" stroke-width="0.5" />
<polygon points="371.5,913.764 342,964.859 401,964.859" transform="rotate(60 505 505)" fill="cyan" stroke="black" stroke-width="0.5" />
<polygon points="666.5,913.764 637,964.859 607.5,913.764" transform="rotate(60 505 505)" fill="cyan" stroke="black" stroke-width="0.5" />
<polygon points="607.5,913.764 578,964.859 548.5,913.764" transform="rotate(60 505 505)" fill="cyan" stroke="black" stroke-width="0.5" />
<polygon points="548.5,913.764 519,964.859 489.5,913.764" transform="rotate(60 505 505)" fill="cyan" stroke="black" stroke-width="0.5" />
<polygon points="489.5,913.764 460,964.859 430.5,913.764" transform="rotate(60 505 505)" fill="cyan" stroke="black" stroke-width="0.5" />
<polygon points="430.5,913.764 401,964.859 371.5,913.764" transform="rotate(60 505 505)" fill="cyan" stroke="black" stroke-width="0.5" />
<polygon points="371.5,913.764 342,964.859 312.5,913.764" transform="rotate(60 505 505)" fill="cyan" stroke="black" stroke-width="0.5" />
<polygon points="505,505 475.5,556.095 534.5,556.095" transform="rotate(120 505 505)" fill="cyan" stroke="black" stroke-width="0.5" />
<polygon points="505,607.191 475.5,556.095 534.5,556.095" transform="rotate(120 505 505)" fill="cyan" stroke="black" stroke-width="0.5" />
<polygon points="475.5,556.095 446,607.191 505,607.191" transform="rotate(120 505 505)" fill="cyan" stroke="black" stroke-width="0.5" />
<polygon points="475.5,658.286 446,607.191 505,607.191" transform="rotate(120 505 505)" fill="cyan" stroke="black" stroke-width="0.5" />
<polygon points="534.5,556.095 505,607.191 564,607.191" transform="rotate(120 505 505)" fill="cyan" stroke="black" stroke-width="0.5" />
<polygon points="534.5,658.286 505,607.191 564,607.191" transform="rotate(120 505 505)" fill="cyan" stroke="black" stroke-width="0.5" />
<polygon points="446,607.191 416.5,658.286 475.5,658.286" transform="rotate(120 505 505)" fill="cyan" stroke="black" stroke-width="0.5" />
<polygon points="446,709.382 416.5,658.286 475.5,658.286" transform="rotate(120 505 505)" fill="cyan" stroke="black" stroke-width="0.5" />
<polygon points="505,607.191 475.5,658.286 534.5,658.286" transform="rotate(120 505 505)" fill="cyan" stroke="black" stroke-width="0.5" />
<polygon points="505,709.382 475.5,658.286 534.5,658.286" transform="rotate(120 505 505)" fill="cyan" stroke="black" stroke-width="0.5" />
<polygon points="564,607.191 534.5,658.286 593.5,658.286" transform="rotate(120 505 505)" fill="cyan" stroke="black" stroke-width="0.5" />
<polygon points="564,709.382 534.5,658.286 593.5,658.286" transform="rotate(120 505 505)" fill="cyan" stroke="black" stroke-width="0.5" />
<polygon points="416.5,658.286 387,709.382 446,709.382" transform="rotate(120 505 505)" fill="cyan" stroke="black" stroke-width="0.5" />
<polygon points="416.5,760.477 387,709.382 446,709.382" transform="rotate(120 505 505)" fill="cyan" stroke="black" stroke-width="0.5" />
<polygon points="475.5,658.286 446,709.382 505,709.382" transform="rotate(120 505 505)" fill="cyan" stroke="black" stroke-width="0.5" />
<polygon points="475.5,760.477 446,709.382 505,709.382" transform="rotate(120 505 505)" fill="cyan" stroke="black" stroke-width="0.5" />
<polygon points="534.5,658.286 505,709.382 564,709.382" transform="rotate(120 505 505)" fill="cyan" stroke="black" stroke-width="0.5" />
<polygon points="534.5,760.477 505,709.382 564,709.382" transform="rotate(120 505 505)" fill="cyan" stroke="black" stroke-width="0.5" />
<polygon points="593.5,658.286 564,709.382 623,709.382" transform="rotate(120 505 505)" fill="cyan" stroke="black" stroke-width="0.5" />
<polygon points="593.5,760.477 564,709.382 623,709.382" transform="rotate(120 505 505)" fill="cyan" stroke="black" stroke-width="0.5" />
<polygon points="387,709.382 357.5,760.477 416.5,760.477" transform="rotate(120 505 505)" fill="cyan" stroke="black" stroke-width="0.5" />
<polygon points="387,811.573 357.5,760.477 416.5,760.477" transform="rotate(120 505 505)" fill="cyan" stroke="black" stroke-width="0.5" />
<polygon points="446,709.382 416.5,760.477 475.5,760.477" transform="rotate(120 505 505)" fill="cyan" stroke="black" stroke-width="0.5" />
<polygon points="446,811.573 416.5,760.477 475.5,760.477" transform="rotate(120 505 505)" fill="cyan" stroke="black" stroke-width="0.5" />
<polygon points="505,709.382 475.5,760.477 534.5,760.477" transform="rotate(120 505 505)" fill="cyan" stroke="black" stroke-width="0.5" />
<polygon points="505,811.573 475.5,760.477 534.5,760.477" transform="rotate(120 505 505)" fill="cyan" stroke="black" stroke-width="0.5" />
<polygon points="564,709.382 534.5,760.477 593.5,760.477" transform="rotate(120 505 505)" fill="cyan" stroke="black" stroke-width="0.5" />
<polygon points="564,811.573 534.5,760.477 593.5,760.477" transform="rotate(120 505 505)" fill="cyan" stroke="black" stroke-width="0.5" />
<polygon points="623,709.382 593.5,760.477 652.5,760.477" transform="rotate(120 505 505)" fill="cyan" stroke="black" stroke-width="0.5" />
<polygon points="623,811.573 593.5,760.477 652.5,760.477" transform="rotate(120 505 505)" fill="cyan" stroke="black" stroke-width="0.5" />
<polygon points="357.5,760.477 328,811.573 387,811.573" transform="rotate(120 505 505)" fill="cyan" stroke="black" stroke-width="0.5" />
<polygon points="357.5,862.668 328,811.573 387,811.573" transform="rotate(120 505 505)" fill="cyan" stroke="black" stroke-width="0.5" />
<polygon points="416.5,760.477 387,811.573 446,811.573" transform="rotate(120 505 505)" fill="cyan" stroke="black" stroke-width="0.5" />
<polygon points="416.5,862.668 387,811.573 446,811.573" transform="rotate(120 505 505)" fill="cyan" stroke="black" stroke-width="0.5" />
<polygon points="475.5,760.477 446,811.573 505,811.573" transform="rotate(120 505 505)" fill="cyan" stroke="black" stroke-width="0.5" />
<polygon points="475.5,862.668 446,811.573 505,811.573" transform="rotate(120 505 505)" fill="cyan" stroke="black" stroke-width="0.5" />
<polygon points="534.5,760.477 505,811.573 564,811.573" transform="rotate(120 505 505)" fill="cyan" stroke="black" stroke-width="0.5" />
<polygon points="534.5,862.668 505,811.573 564,811.573" transform="rotate(120 505 505)" fill="cyan" stroke="black" stroke-width="0.5" />
<polygon points="593.5,760.477 564,811.573 623,811.573" transform="rotate(120 505 505)" fill="cyan" stroke="black" stroke-width="0.5" />
<polygon points="593.5,862.668 564,811.573 623,811.573" transform="rotate(120 505 505)" fill="cyan" stroke="black" stroke-width="0.5" />
<polygon points="652.5,760.477 623,811.573 682,811.573" transform="rotate(120 505 505)" fill="cyan" stroke="black" stroke-width="0.5" />
<polygon points="652.5,862.668 623,811.573 682,811.573" transform="rotate(120 505 505)" fill="cyan" stroke="black" stroke-width="0.5" />
<polygon points="328,811.573 298.5,862.668 357.5,862.668" transform="rotate(120 505 505)" fill="cyan" stroke="black" stroke-width="0.5" />
<polygon points="328,913.764 298.5,862.668 357.5,862.668" transform="rotate(120 505 505)" fill="cyan" stroke="black" stroke-width="0.5" />
<polygon points="387,811.573 357.5,862.668 416.5,862.668" transform="rotate(120 505 505)" fill="cyan" stroke="black" stroke-width="0.5" />
<polygon points="387,913.764 357.5,862.668 416.5,862.668" transform="rotate(120 505 505)" fill="cyan" stroke="black" stroke-width="0.5" />
<polygon points="446,811.573 416.5,862.668 475.5,862.668" transform="rotate(120 505 505)" fill="cyan" stroke="black" stroke-width="0.5" />
<polygon points="446,913.764 416.5,862.668 475.5,862.668" transform="rotate(120 505 505)" fill="cyan" stroke="black" stroke-width="0.5" />
<polygon points="505,811.573 475.5,862.668 534.5,862.668" transform="rotate(120 505 505)" fill="cyan" stroke="black" stroke-width="0.5" />
<polygon points="505,913.764 475.5,862.668 534.5,862.668" transform="rotate(120 505 505)" fill="cyan" stroke="black" stroke-width="0.5" />
<polygon points="564,811.573 534.5,862.668 593.5,862.668" transform="rotate(120 505 505)" fill="cyan" stroke="black" stroke-width="0.5" />
<polygon points="564,913.764 534.5,862.668 593.5,862.668" transform="rotate(120 505 505)" fill="cyan" stroke="black" stroke-width="0.5" />
<polygon points="623,811.573 593.5,862.668 652.5,862.668" transform="rotate(120 505 505)" fill="cyan" stroke="black" stroke-width="0.5" />
<polygon points="623,913.764 593.5,862.668 652.5,862.668" transform="rotate(120 505 505)" fill="cyan" stroke="black" stroke-width="0.5" />
<polygon points="682,811.573 652.5,862.668 711.5,862.668" transform="rotate(120 505 505)" fill="cyan" stroke="black" stroke-width="0.5" />
<polygon points="682,913.764 652.5,862.668 711.5,862.668" transform="rotate(120 505 505)" fill="cyan" stroke="black" stroke-width="0.5" />
<polygon points="298.5,862.668 269,913.764 328,913.764" transform="rotate(120 505 505)" fill="cyan" stroke="black" stroke-width="0.5" />
<polygon points="357.5,862.668 328,913.764 387,913.764" transform="rotate(120 505 505)" fill="cyan" stroke="black" stroke-width="0.5" />
<polygon points="416.5,862.668 387,913.764 446,913.764" transform="rotate(120 505 505)" fill="cyan" stroke="black" stroke-width="0.5" />
<polygon points="475.5,862.668 446,913.764 505,913.764" transform="rotate(120 505 505)" fill="cyan" stroke="black" stroke-width="0.5" />
<polygon points="534.5,862.668 505,913.764 564,913.764" transform="rotate(120 505 505)" fill="cyan" stroke="black" stroke-width="0.5" />
<polygon points="593.5,862.668 564,913.764 623,913.764" transform="rotate(120 505 505)" fill="cyan" stroke="black" stroke-width="0.5" />
<polygon points="652.5,862.668 623,913.764 682,913.764" transform="rotate(120 505 505)" fill="cyan" stroke="black" stroke-width="0.5" />
<polygon points="711.5,862.668 682,913.764 741,913.764" transform="rotate(120 505 505)" fill="cyan" stroke="black" stroke-width="0.5" />
<polygon points="607.5,913.764 578,964.859 637,964.859" transform="rotate(120 505 505)" fill="cyan" stroke="black" stroke-width="0.5" />
<polygon points="548.5,913.764 519,964.859 578,964.859" transform="rotate(120 505 505)" fill="cyan" stroke="black" stroke-width="0.5" />
<polygon points="489.5,913.764 460,964.859 519,964.859" transform="rotate(120 505 505)" fill="cyan" stroke="black" stroke-width="0.5" />
<polygon points="430.5,913.764 401,964.859 460,964.859" transform="rotate(120 505 505)" fill="cyan" stroke="black" stroke-width="0.5" />
<polygon points="371.5,913.764 342,964.859 401,964.859" transform="rotate(120 505 505)" fill="cyan" stroke="black" stroke-width="0.5" />
<polygon points="666.5,913.764 637,964.859 607.5,913.764" transform="rotate(120 505 505)" fill="cyan" stroke="black" stroke-width="0.5" />
<polygon points="607.5,913.764 578,964.859 548.5,913.764" transform="rotate(120 505 505)" fill="cyan" stroke="black" stroke-width="0.5" />
<polygon points="548.5,913.764 519,964.859 489.5,913.764" transform="rotate(120 505 505)" fill="cyan" stroke="black" stroke-width="0.5" />
<polygon points="489.5,913.764 460,964.859 430.5,913.764" transform="rotate(120 505 505)" fill="cyan" stroke="black" stroke-width="0.5" />
<polygon points="430.5,913.764 401,964.859 371.5,913.764" transform="rotate(120 505 505)" fill="cyan" stroke="black" stroke-width="0.5" />
<polygon points="371.5,913.764 342,964.859 312.5,913.764" transform="rotate(120 505 505)" fill="cyan" stroke="black" stroke-width="0.5" />
<polygon points="505,505 475.5,556.095 534.5,556.095" transform="rotate(180 505 505)" fill="cyan" stroke="black" stroke-width="0.5" />
<polygon points="505,607.191 475.5,556.095 534.5,556.095" transform="rotate(180 505 505)" fill="cyan" stroke="black" stroke-width="0.5" />
<polygon points="475.5,556.095 446,607.191 505,607.191" transform="rotate(180 505 505)" fill="cyan" stroke="black" stroke-width="0.5" />
<polygon points="475.5,658.286 446,607.191 505,607.191" transform="rotate(180 505 505)" fill="cyan" stroke="black" stroke-width="0.5" />
<polygon points="534.5,556.095 505,607.191 564,607.191" transform="rotate(180 505 505)" fill="cyan" stroke="black" stroke-width="0.5" />
<polygon points="534.5,658.286 505,607.191 564,607.191" transform="rotate(180 505 505)" fill="cyan" stroke="black" stroke-width="0.5" />
<polygon points="446,607.191 416.5,658.286 475.5,658.286" transform="rotate(180 505 505)" fill="cyan" stroke="black" stroke-width="0.5" />
<polygon points="446,709.382 416.5,658.286 475.5,658.286" transform="rotate(180 505 505)" fill="cyan" stroke="black" stroke-width="0.5" />
<polygon points="505,607.191 475.5,658.286 534.5,658.286" transform="rotate(180 505 505)" fill="cyan" stroke="black" stroke-width="0.5" />
<polygon points="505,709.382 475.5,658.286 534.5,658.286" transform="rotate(180 505 505)" fill="cyan" stroke="black" stroke-width="0.5" />
<polygon points="564,607.191 534.5,658.286 593.5,658.286" transform="rotate(180 505 505)" fill="cyan" stroke="black" stroke-width="0.5" />
<polygon points="564,709.382 534.5,658.286 593.5,658.286" transform="rotate(180 505 505)" fill="cyan" stroke="black" stroke-width="0.5" />
<polygon points="416.5,658.286 387,709.382 446,709.382" transform="rotate(180 505 505)" fill="cyan" stroke="black" stroke-width="0.5" />
<polygon points="416.5,760.477 387,709.382 446,709.382" transform="rotate(180 505 505)" fill="cyan" stroke="black" stroke-width="0.5" />
<polygon points="475.5,658.286 446,709.382 505,709.382" transform="rotate(180 505 505)" fill="cyan" stroke="black" stroke-width="0.5" />
<polygon points="475.5,760.477 446,709.382 505,709.382" transform="rotate(180 505 505)" fill="cyan" stroke="black" stroke-width="0.5" />
<polygon points="534.5,658.286 505,709.382 564,709.382" transform="rotate(180 505 505)" fill="cyan" stroke="black" stroke-width="0.5" />
<polygon points="534.5,760.477 505,709.382 564,709.382" transform="rotate(180 505 505)" fill="cyan" stroke="black" stroke-width="0.5" />
<polygon points="593.5,658.286 564,709.382 623,709.382" transform="rotate(180 505 505)" fill="cyan" stroke="black" stroke-width="0.5" />
<polygon points="593.5,760.477 564,709.382 623,709.382" transform="rotate(180 505 505)" fill="cyan" stroke="black" stroke-width="0.5" />
<polygon points="387,709.382 357.5,760.477 416.5,760.477" transform="rotate(180 505 505)" fill="cyan" stroke="black" stroke-width="0.5" />
<polygon points="387,811.573 357.5,760.477 416.5,760.477" transform="rotate(180 505 505)" fill="cyan" stroke="black" stroke-width="0.5" />
<polygon points="446,709.382 416.5,760.477 475.5,760.477" transform="rotate(180 505 505)" fill="cyan" stroke="black" stroke-width="0.5" />
<polygon points="446,811.573 416.5,760.477 475.5,760.477" transform="rotate(180 505 505)" fill="cyan" stroke="black" stroke-width="0.5" />
<polygon points="505,709.382 475.5,760.477 534.5,760.477" transform="rotate(180 505 505)" fill="cyan" stroke="black" stroke-width="0.5" />
<polygon points="505,811.573 475.5,760.477 534.5,760.477" transform="rotate(180 505 505)" fill="cyan" stroke="black" stroke-width="0.5" />
<polygon points="564,709.382 534.5,760.477 593.5,760.477" transform="rotate(180 505 505)" fill="cyan" stroke="black" stroke-width="0.5" />
<polygon points="564,811.573 534.5,760.477 593.5,760.477" transform="rotate(180 505 505)" fill="cyan" stroke="black" stroke-width="0.5" />
<polygon points="623,709.382 593.5,760.477 652.5,760.477" transform="rotate(180 505 505)" fill="cyan" stroke="black" stroke-width="0.5" />
<polygon points="623,811.573 593.5,760.477 652.5,760.477" transform="rotate(180 505 505)" fill="cyan" stroke="black" stroke-width="0.5" />
<polygon points="357.5,760.477 328,811.573 387,811.573" transform="rotate(180 505 505)" fill="cyan" stroke="black" stroke-width="0.5" />
<polygon points="357.5,862.668 328,811.573 387,811.573" transform="rotate(180 505 505)" fill="cyan" stroke="black" stroke-width="0.5" />
<polygon points="416.5,760.477 387,811.573 446,811.573" transform="rotate(180 505 505)" fill="cyan" stroke="black" stroke-width="0.5" />
<polygon points="416.5,862.668 387,811.573 446,811.573" transform="rotate(180 505 505)" fill="cyan" stroke="black" stroke-width="0.5" />
<polygon points="475.5,760.477 446,811.573 505,811.573" transform="rotate(180 505 505)" fill="cyan" stroke="black" stroke-width="0.5" />
<polygon points="475.5,862.668 446,811.573 505,811.573" transform="rotate(180 505 505)" fill="cyan" stroke="black" stroke-width="0.5" />
<polygon points="534.5,760.477 505,811.573 564,811.573" transform="rotate(180 505 505)" fill="cyan" stroke="black" stroke-width="0.5" />
<polygon points="534.5,862.668 505,811.573 564,811.573" transform="rotate(180 505 505)" fill="cyan" stroke="black" stroke-width="0.5" />
<polygon points="593.5,760.477 564,811.573 623,811.573" transform="rotate(180 505 505)" fill="cyan" stroke="black" stroke-width="0.5" />
<polygon points="593.5,862.668 564,811.573 623,811.573" transform="rotate(180 505 505)" fill="cyan" stroke="black" stroke-width="0.5" />
<polygon points="652.5,760.477 623,811.573 682,811.573" transform="rotate(180 505 505)" fill="cyan" stroke="black" stroke-width="0.5" />
<polygon points="652.5,862.668 623,811.573 682,811.573" transform="rotate(180 505 505)" fill="cyan" stroke="black" stroke-width="0.5" />
<polygon points="328,811.573 298.5,862.668 357.5,862.668" transform="rotate(180 505 505)" fill="cyan" stroke="black" stroke-width="0.5" />
<polygon points="328,913.764 298.5,862.668 357.5,862.668" transform="rotate(180 505 505)" fill="cyan" stroke="black" stroke-width="0.5" />
<polygon points="387,811.573 357.5,862.668 416.5,862.668" transform="rotate(180 505 505)" fill="cyan" stroke="black" stroke-width="0.5" />
<polygon points="387,913.764 357.5,862.668 416.5,862.668" transform="rotate(180 505 505)" fill="cyan" stroke="black" stroke-width="0.5" />
<polygon points="446,811.573 416.5,862.668 475.5,862.668" transform="rotate(180 505 505)" fill="cyan" stroke="black" stroke-width="0.5" />
<polygon points="446,913.764 416.5,862.668 475.5,862.668" transform="rotate(180 505 505)" fill="cyan" stroke="black" stroke-width="0.5" />
<polygon points="505,811.573 475.5,862.668 534.5,862.668" transform="rotate(180 505 505)" fill="cyan" stroke="black" stroke-width="0.5" />
<polygon points="505,913.764 475.5,862.668 534.5,862.668" transform="rotate(180 505 505)" fill="cyan" stroke="black" stroke-width="0.5" />
<polygon points="564,811.573 534.5,862.668 593.5,862.668" transform="rotate(180 505 505)" fill="cyan" stroke="black" stroke-width="0.5" />
<polygon points="564,913.764 534.5,862.668 593.5,862.668" transform="rotate(180 505 505)" fill="cyan" stroke="black" stroke-width="0.5" />
<polygon points="623,811.573 593.5,862.668 652.5,862.668" transform="rotate(180 505 505)" fill="cyan" stroke="black" stroke-width="0.5" />
<polygon points="623,913.764 593.5,862.668 652.5,862.668" transform="rotate(180 505 505)" fill="cyan" stroke="black" stroke-width="0.5" />
<polygon points="682,811.573 652.5,862.668 711.5,862.668" transform="rotate(180 505 505)" fill="cyan" stroke="black" stroke-width="0.5" />
<polygon points="682,913.764 652.5,862.668 711.5,862.668" transform="rotate(180 505 505)" fill="cyan" stroke="black" stroke-width="0.5" />
<polygon points="298.5,862.668 269,913.764 328,913.764" transform="rotate(180 505 505)" fill="cyan" stroke="black" stroke-width="0.5" />
<polygon points="357.5,862.668 328,913.764 387,913.764" transform="rotate(180 505 505)" fill="cyan" stroke="black" stroke-width="0.5" />
<polygon points="416.5,862.668 387,913.764 446,913.764" transform="rotate(180 505 505)" fill="cyan" stroke="black" stroke-width="0.5" />
<polygon points="475.5,862.668 446,913.764 505,913.764" transform="rotate(180 505 505)" fill="cyan" stroke="black" stroke-width="0.5" />
<polygon points="534.5,862.668 505,913.764 564,913.764" transform="rotate(180 505 505)" fill="cyan" stroke="black" stroke-width="0.5" />
<polygon points="593.5,862.668 564,913.764 623,913.764" transform="rotate(180 505 505)" fill="cyan" stroke="black" stroke-width="0.5" />
<polygon points="652.5,862.668 623,913.764 682,913.764" transform="rotate(180 505 505)" fill="cyan" stroke="black" stroke-width="0.5" />
<polygon points="711.5,862.668 682,913.764 741,913.764" transform="rotate(180 505 505)" fill="cyan" stroke="black" stroke-width="0.5" />
<polygon points="607.5,913.764 578,964.859 637,964.859" transform="rotate(180 505 505)" fill="cyan" stroke="black" stroke-width="0.5" />
<polygon points="548.5,913.764 519,964.859 578,964.859" transform="rotate(180 505 505)" fill="cyan" stroke="black" stroke-width="0.5" />
<polygon points="489.5,913.764 460,964.859 519,964.859" transform="rotate(180 505 505)" fill="cyan" stroke="black" stroke-width="0.5" />
<polygon points="430.5,913.764 401,964.859 460,964.859" transform="rotate(180 505 505)" fill="cyan" stroke="black" stroke-width="0.5" />
<polygon points="371.5,913.764 342,964.859 401,964.859" transform="rotate(180 505 505)" fill="cyan" stroke="black" stroke-width="0.5" />
<polygon points="666.5,913.764 637,964.859 607.5,913.764" transform="rotate(180 505 505)" fill="cyan" stroke="black" stroke-width="0.5" />
<polygon points="607.5,913.764 578,964.859 548.5,913.764" transform="rotate(180 505 505)" fill="cyan" stroke="black" stroke-width="0.5" />
<polygon points="548.5,913.764 519,964.859 489.5,913.764" transform="rotate(180 505 505)" fill="cyan" stroke="black" stroke-width="0.5" />
<polygon points="489.5,913.764 460,964.859 430.5,913.764" transform="rotate(180 505 505)" fill="cyan" stroke="black" stroke-width="0.5" />
<polygon points="430.5,913.764 401,964.859 371.5,913.764" transform="rotate(180 505 505)" fill="cyan" stroke="black" stroke-width="0.5" />
<polygon points="371.5,913.764 342,964.859 312.5,913.764" transform="rotate(180 505 505)" fill="cyan" stroke="black" stroke-width="0.5" />
<polygon points="505,505 475.5,556.095 534.5,556.095" transform="rotate(240 505 505)" fill="cyan" stroke="black" stroke-width="0.5" />
<polygon points="505,607.191 475.5,556.095 534.5,556.095" transform="rotate(240 505 505)" fill="cyan" stroke="black" stroke-width="0.5" />
<polygon points="475.5,556.095 446,607.191 505,607.191" transform="rotate(240 505 505)" fill="cyan" stroke="black" stroke-width="0.5" />
<polygon points="475.5,658.286 446,607.191 505,607.191" transform="rotate(240 505 505)" fill="cyan" stroke="black" stroke-width="0.5" />
<polygon points="534.5,556.095 505,607.191 564,607.191" transform="rotate(240 505 505)" fill="cyan" stroke="black" stroke-width="0.5" />
<polygon points="534.5,658.286 505,607.191 564,607.191" transform="rotate(240 505 505)" fill="cyan" stroke="black" stroke-width="0.5" />
<polygon points="446,607.191 416.5,658.286 475.5,658.286" transform="rotate(240 505 505)" fill="cyan" stroke="black" stroke-width="0.5" />
<polygon points="446,709.382 416.5,658.286 475.5,658.286" transform="rotate(240 505 505)" fill="cyan" stroke="black" stroke-width="0.5" />
<polygon points="505,607.191 475.5,658.286 534.5,658.286" transform="rotate(240 505 505)" fill="cyan" stroke="black" stroke-width="0.5" />
<polygon points="505,709.382 475.5,658.286 534.5,658.286" transform="rotate(240 505 505)" fill="cyan" stroke="black" stroke-width="0.5" />
<polygon points="564,607.191 534.5,658.286 593.5,658.286" transform="rotate(240 505 505)" fill="cyan" stroke="black" stroke-width="0.5" />
<polygon points="564,709.382 534.5,658.286 593.5,658.286" transform="rotate(240 505 505)" fill="cyan" stroke="black" stroke-width="0.5" />
<polygon points="416.5,658.286 387,709.382 446,709.382" transform="rotate(240 505 505)" fill="cyan" stroke="black" stroke-width="0.5" />
<polygon points="416.5,760.477 387,709.382 446,709.382" transform="rotate(240 505 505)" fill="cyan" stroke="black" stroke-width="0.5" />
<polygon points="475.5,658.286 446,709.382 505,709.382" transform="rotate(240 505 505)" fill="cyan" stroke="black" stroke-width="0.5" />
<polygon points="475.5,760.477 446,709.382 505,709.382" transform="rotate(240 505 505)" fill="cyan" stroke="black" stroke-width="0.5" />
<polygon points="534.5,658.286 505,709.382 564,709.382" transform="rotate(240 505 505)" fill="cyan" stroke="black" stroke-width="0.5" />
<polygon points="534.5,760.477 505,709.382 564,709.382" transform="rotate(240 505 505)" fill="cyan" stroke="black" stroke-width="0.5" />
<polygon points="593.5,658.286 564,709.382 623,709.382" transform="rotate(240 505 505)" fill="cyan" stroke="black" stroke-width="0.5" />
<polygon points="593.5,760.477 564,709.382 623,709.382" transform="rotate(240 505 505)" fill="cyan" stroke="black" stroke-width="0.5" />
<polygon points="387,709.382 357.5,760.477 416.5,760.477" transform="rotate(240 505 505)" fill="cyan" stroke="black" stroke-width="0.5" />
<polygon points="387,811.573 357.5,760.477 416.5,760.477" transform="rotate(240 505 505)" fill="cyan" stroke="black" stroke-width="0.5" />
<polygon points="446,709.382 416.5,760.477 475.5,760.477" transform="rotate(240 505 505)" fill="cyan" stroke="black" stroke-width="0.5" />
<polygon points="446,811.573 416.5,760.477 475.5,760.477" transform="rotate(240 505 505)" fill="cyan" stroke="black" stroke-width="0.5" />
<polygon points="505,709.382 475.5,760.477 534.5,760.477" transform="rotate(240 505 505)" fill="cyan" stroke="black" stroke-width="0.5" />
<polygon points="505,811.573 475.5,760.477 534.5,760.477" transform="rotate(240 505 505)" fill="cyan" stroke="black" stroke-width="0.5" />
<polygon points="564,709.382 534.5,760.477 593.5,760.477" transform="rotate(240 505 505)" fill="cyan" stroke="black" stroke-width="0.5" />
<polygon points="564,811.573 534.5,760.477 593.5,760.477" transform="rotate(240 505 505)" fill="cyan" stroke="black" stroke-width="0.5" />
<polygon points="623,709.382 593.5,760.477 652.5,760.477" transform="rotate(240 505 505)" fill="cyan" stroke="black" stroke-width="0.5" />
<polygon points="623,811.573 593.5,760.477 652.5,760.477" transform="rotate(240 505 505)" fill="cyan" stroke="black" stroke-width="0.5" />
<polygon points="357.5,760.477 328,811.573 387,811.573" transform="rotate(240 505 505)" fill="cyan" stroke="black" stroke-width="0.5" />
<polygon points="357.5,862.668 328,811.573 387,811.573" transform="rotate(240 505 505)" fill="cyan" stroke="black" stroke-width="0.5" />
<polygon points="416.5,760.477 387,811.573 446,811.573" transform="rotate(240 505 505)" fill="cyan" stroke="black" stroke-width="0.5" />
<polygon points="416.5,862.668 387,811.573 446,811.573" transform="rotate(240 505 505)" fill="cyan" stroke="black" stroke-width="0.5" />
<polygon points="475.5,760.477 446,811.573 505,811.573" transform="rotate(240 505 505)" fill="cyan" stroke="black" stroke-width="0.5" />
<polygon points="475.5,862.668 446,811.573 505,811.573" transform="rotate(240 505 505)" fill="cyan" stroke="black" stroke-width="0.5" />
<polygon points="534.5,760.477 505,811.573 564,811.573" transform="rotate(240 505 505)" fill="cyan" stroke="black" stroke-width="0.5" />
<polygon points="534.5,862.668 505,811.573 564,811.573" transform="rotate(240 505 505)" fill="cyan" stroke="black" stroke-width="0.5" />
<polygon points="593.5,760.477 564,811.573 623,811.573" transform="rotate(240 505 505)" fill="cyan" stroke="black" stroke-width="0.5" />
<polygon points="593.5,862.668 564,811.573 623,811.573" transform="rotate(240 505 505)" fill="cyan" stroke="black" stroke-width="0.5" />
<polygon points="652.5,760.477 623,811.573 682,811.573" transform="rotate(240 505 505)" fill="cyan" stroke="black" stroke-width="0.5" />
<polygon points="652.5,862.668 623,811.573 682,811.573" transform="rotate(240 505 505)" fill="cyan" stroke="black" stroke-width="0.5" />
<polygon points="328,811.573 298.5,862.668 357.5,862.668" transform="rotate(240 505 505)" fill="cyan" stroke="black" stroke-width="0.5" />
<polygon points="328,913.764 298.5,862.668 357.5,862.668" transform="rotate(240 505 505)" fill="cyan" stroke="black" stroke-width="0.5" />
<polygon points="387,811.573 357.5,862.668 416.5,862.668" transform="rotate(240 505 505)" fill="cyan" stroke="black" stroke-width="0.5" />
<polygon points="387,913.764 357.5,862.668 416.5,862.668" transform="rotate(240 505 505)" fill="cyan" stroke="black" stroke-width="0.5" />
<polygon points="446,811.573 416.5,862.668 475.5,862.668" transform="rotate(240 505 505)" fill="cyan" stroke="black" stroke-width="0.5" />
<polygon points="446,913.764 416.5,862.668 475.5,862.668" transform="rotate(240 505 505)" fill="cyan" stroke="black" stroke-width="0.5" />
<polygon points="505,811.573 475.5,862.668 534.5,862.668" transform="rotate(240 505 505)" fill="cyan" stroke="black" stroke-width="0.5" />
<polygon points="505,913.764 475.5,862.668 534.5,862.668" transform="rotate(240 505 505)" fill="cyan" stroke="black" stroke-width="0.5" />
<polygon points="564,811.573 534.5,862.668 593.5,862.668" transform="rotate(240 505 505)" fill="cyan" stroke="black" stroke-width="0.5" />
<polygon points="564,913.764 534.5,862.668 593.5,862.668" transform="rotate(240 505 505)" fill="cyan" stroke="black" stroke-width="0.5" />
<polygon points="623,811.573 593.5,862.668 652.5,862.668" transform="rotate(240 505 505)" fill="cyan" stroke="black" stroke-width="0.5" />
<polygon points="623,913.764 593.5,862.668 652.5,862.668" transform="rotate(240 505 505)" fill="cyan" stroke="black" stroke-width="0.5" />
<polygon points="682,811.573 652.5,862.668 711.5,862.668" transform="rotate(240 505 505)" fill="cyan" stroke="black" stroke-width="0.5" />
<polygon points="682,913.764 652.5,862.668 711.5,862.668" transform="rotate(240 505 505)" fill="cyan" stroke="black" stroke-width="0.5" />
<polygon points="298.5,862.668 269,913.764 328,913.764" transform="rotate(240 505 505)" fill="cyan" stroke="black" stroke-width="0.5" />
<polygon points="357.5,862.668 328,913.764 387,913.764" transform="rotate(240 505 505)" fill="cyan" stroke="black" stroke-width="0.5" />
<polygon points="416.5,862.668 387,913.764 446,913.764" transform="rotate(240 505 505)" fill="cyan" stroke="black" stroke-width="0.5" />
<polygon points="475.5,862.668 446,913.764 505,913.764" transform="rotate(240 505 505)" fill="cyan" stroke="black" stroke-width="0.5" />
<polygon points="534.5,862.668 505,913.764 564,913.764" transform="rotate(240 505 505)" fill="cyan" stroke="black" stroke-width="0.5" />
<polygon points="593.5,862.668 564,913.764 623,913.764" transform="rotate(240 505 505)" fill="cyan" stroke="black" stroke-width="0.5" />
<polygon points="652.5,862.668 623,913.764 682,913.764" transform="rotate(240 505 505)" fill="cyan" stroke="black" stroke-width="0.5" />
<polygon points="711.5,862.668 682,913.764 741,913.764" transform="rotate(240 505 505)" fill="cyan" stroke="black" stroke-width="0.5" />
<polygon points="607.5,913.764 578,964.859 637,964.859" transform="rotate(240 505 505)" fill="cyan" stroke="black" stroke-width="0.5" />
<polygon points="548.5,913.764 519,964.859 578,964.859" transform="rotate(240 505 505)" fill="cyan" stroke="black" stroke-width="0.5" />
<polygon points="489.5,913.764 460,964.859 519,964.859" transform="rotate(240 505 505)" fill="cyan" stroke="black" stroke-width="0.5" />
<polygon points="430.5,913.764 401,964.859 460,964.859" transform="rotate(240 505 505)" fill="cyan" stroke="black" stroke-width="0.5" />
<polygon points="371.5,913.764 342,964.859 401,964.859" transform="rotate(240 505 505)" fill="cyan" stroke="black" stroke-width="0.5" />
<polygon points="666.5,913.764 637,964.859 607.5,913.764" transform="rotate(240 505 505)" fill="cyan" stroke="black" stroke-width="0.5" />
<polygon points="607.5,913.764 578,964.859 548.5,913.764" transform="rotate(240 505 505)" fill="cyan" stroke="black" stroke-width="0.5" />
<polygon points="548.5,913.764 519,964.859 489.5,913.764" transform="rotate(240 505 505)" fill="cyan" stroke="black" stroke-width="0.5" />
<polygon points="489.5,913.764 460,964.859 430.5,913.764" transform="rotate(240 505 505)" fill="cyan" stroke="black" stroke-width="0.5" />
<polygon points="430.5,913.764 401,964.859 371.5,913.764" transform="rotate(240 505 505)" fill="cyan" stroke="black" stroke-width="0.5" />
<polygon points="371.5,913.764 342,964.859 312.5,913.764" transform="rotate(240 505 505)" fill="cyan" stroke="black" stroke-width="0.5" />
<polygon points="505,505 475.5,556.095 534.5,556.095" transform="rotate(300 505 505)" fill="cyan" stroke="black" stroke-width="0.5" />
<polygon points="505,607.191 475.5,556.095 534.5,556.095" transform="rotate(300 505 505)" fill="cyan" stroke="black" stroke-width="0.5" />
<polygon points="475.5,556.095 446,607.191 505,607.191" transform="rotate(300 505 505)" fill="cyan" stroke="black" stroke-width="0.5" />
<polygon points="475.5,658.286 446,607.191 505,607.191" transform="rotate(300 505 505)" fill="cyan" stroke="black" stroke-width="0.5" />
<polygon points="534.5,556.095 505,607.191 564,607.191" transform="rotate(300 505 505)" fill="cyan" stroke="black" stroke-width="0.5" />
<polygon points="534.5,658.286 505,607.191 564,607.191" transform="rotate(300 505 505)" fill="cyan" stroke="black" stroke-width="0.5" />
<polygon points="446,607.191 416.5,658.286 475.5,658.286" transform="rotate(300 505 505)" fill="cyan" stroke="black" stroke-width="0.5" />
<polygon points="446,709.382 416.5,658.286 475.5,658.286" transform="rotate(300 505 505)" fill="cyan" stroke="black" stroke-width="0.5" />
<polygon points="505,607.191 475.5,658.286 534.5,658.286" transform="rotate(300 505 505)" fill="cyan" stroke="black" stroke-width="0.5" />
<polygon points="505,709.382 475.5,658.286 534.5,658.286" transform="rotate(300 505 505)" fill="cyan" stroke="black" stroke-width="0.5" />
<polygon points="564,607.191 534.5,658.286 593.5,658.286" transform="rotate(300 505 505)" fill="cyan" stroke="black" stroke-width="0.5" />
<polygon points="564,709.382 534.5,658.286 593.5,658.286" transform="rotate(300 505 505)" fill="cyan" stroke="black" stroke-width="0.5" />
<polygon points="416.5,658.286 387,709.382 446,709.382" transform="rotate(300 505 505)" fill="cyan" stroke="black" stroke-width="0.5" />
<polygon points="416.5,760.477 387,709.382 446,709.382" transform="rotate(300 505 505)" fill="cyan" stroke="black" stroke-width="0.5" />
<polygon points="475.5,658.286 446,709.382 505,709.382" transform="rotate(300 505 505)" fill="cyan" stroke="black" stroke-width="0.5" />
<polygon points="475.5,760.477 446,709.382 505,709.382" transform="rotate(300 505 505)" fill="cyan" stroke="black" stroke-width="0.5" />
<polygon points="534.5,658.286 505,709.382 564,709.382" transform="rotate(300 505 505)" fill="cyan" stroke="black" stroke-width="0.5" />
<polygon points="534.5,760.477 505,709.382 564,709.382" transform="rotate(300 505 505)" fill="cyan" stroke="black" stroke-width="0.5" />
<polygon points="593.5,658.286 564,709.382 623,709.382" transform="rotate(300 505 505)" fill="cyan" stroke="black" stroke-width="0.5" />
<polygon points="593.5,760.477 564,709.382 623,709.382" transform="rotate(300 505 505)" fill="cyan" stroke="black" stroke-width="0.5" />
<polygon points="387,709.382 357.5,760.477 416.5,760.477" transform="rotate(300 505 505)" fill="cyan" stroke="black" stroke-width="0.5" />
<polygon points="387,811.573 357.5,760.477 416.5,760.477" transform="rotate(300 505 505)" fill="cyan" stroke="black" stroke-width="0.5" />
<polygon points="446,709.382 416.5,760.477 475.5,760.477" transform="rotate(300 505 505)" fill="cyan" stroke="black" stroke-width="0.5" />
<polygon points="446,811.573 416.5,760.477 475.5,760.477" transform="rotate(300 505 505)" fill="cyan" stroke="black" stroke-width="0.5" />
<polygon points="505,709.382 475.5,760.477 534.5,760.477" transform="rotate(300 505 505)" fill="cyan" stroke="black" stroke-width="0.5" />
<polygon points="505,811.573 475.5,760.477 534.5,760.477" transform="rotate(300 505 505)" fill="cyan" stroke="black" stroke-width="0.5" />
<polygon points="564,709.382 534.5,760.477 593.5,760.477" transform="rotate(300 505 505)" fill="cyan" stroke="black" stroke-width="0.5" />
<polygon points="564,811.573 534.5,760.477 593.5,760.477" transform="rotate(300 505 505)" fill="cyan" stroke="black" stroke-width="0.5" />
<polygon points="623,709.382 593.5,760.477 652.5,760.477" transform="rotate(300 505 505)" fill="cyan" stroke="black" stroke-width="0.5" />
<polygon points="623,811.573 593.5,760.477 652.5,760.477" transform="rotate(300 505 505)" fill="cyan" stroke="black" stroke-width="0.5" />
<polygon points="357.5,760.477 328,811.573 387,811.573" transform="rotate(300 505 505)" fill="cyan" stroke="black" stroke-width="0.5" />
<polygon points="357.5,862.668 328,811.573 387,811.573" transform="rotate(300 505 505)" fill="cyan" stroke="black" stroke-width="0.5" />
<polygon points="416.5,760.477 387,811.573 446,811.573" transform="rotate(300 505 505)" fill="cyan" stroke="black" stroke-width="0.5" />
<polygon points="416.5,862.668 387,811.573 446,811.573" transform="rotate(300 505 505)" fill="cyan" stroke="black" stroke-width="0.5" />
<polygon points="475.5,760.477 446,811.573 505,811.573" transform="rotate(300 505 505)" fill="cyan" stroke="black" stroke-width="0.5" />
<polygon points="475.5,862.668 446,811.573 505,811.573" transform="rotate(300 505 505)" fill="cyan" stroke="black" stroke-width="0.5" />
<polygon points="534.5,760.477 505,811.573 564,811.573" transform="rotate(300 505 505)" fill="cyan" stroke="black" stroke-width="0.5" />
<polygon points="534.5,862.668 505,811.573 564,811.573" transform="rotate(300 505 505)" fill="cyan" stroke="black" stroke-width="0.5" />
<polygon points="593.5,760.477 564,811.573 623,811.573" transform="rotate(300 505 505)" fill="cyan" stroke="black" stroke-width="0.5" />
<polygon points="593.5,862.668 564,811.573 623,811.573" transform="rotate(300 505 505)" fill="cyan" stroke="black" stroke-width="0.5" />
<polygon points="652.5,760.477 623,811.573 682,811.573" transform="rotate(300 505 505)" fill="cyan" stroke="black" stroke-width="0.5" />
<polygon points="652.5,862.668 623,811.573 682,811.573" transform="rotate(300 505 505)" fill="cyan" stroke="black" stroke-width="0.5" />
<polygon points="328,811.573 298.5,862.668 357.5,862.668" transform="rotate(300 505 505)" fill="cyan" stroke="black" stroke-width="0.5" />
<polygon points="328,913.764 298.5,862.668 357.5,862.668" transform="rotate(300 505 505)" fill="cyan" stroke="black" stroke-width="0.5" />
<polygon points="387,811.573 357.5,862.668 416.5,862.668" transform="rotate(300 505 505)" fill="cyan" stroke="black" stroke-width="0.5" />
<polygon points="387,913.764 357.5,862.668 416.5,862.668" transform="rotate(300 505 505)" fill="cyan" stroke="black" stroke-width="0.5" />
<polygon points="446,811.573 416.5,862.668 475.5,862.668" transform="rotate(300 505 505)" fill="cyan" stroke="black" stroke-width="0.5" />
<polygon points="446,913.764 416.5,862.668 475.5,862.668" transform="rotate(300 505 505)" fill="cyan" stroke="black" stroke-width="0.5" />
<polygon points="505,811.573 475.5,862.668 534.5,862.668" transform="rotate(300 505 505)" fill="cyan" stroke="black" stroke-width="0.5" />
<polygon points="505,913.764 475.5,862.668 534.5,862.668" transform="rotate(300 505 505)" fill="cyan" stroke="black" stroke-width="0.5" />
<polygon points="564,811.573 534.5,862.668 593.5,862.668" transform="rotate(300 505 505)" fill="cyan" stroke="black" stroke-width="0.5" />
<polygon points="564,913.764 534.5,862.668 593.5,862.668" transform="rotate(300 505 505)" fill="cyan" stroke="black" stroke-width="0.5" />
<polygon points="623,811.573 593.5,862.668 652.5,862.668" transform="rotate(300 505 505)" fill="cyan" stroke="black" stroke-width="0.5" />
<polygon points="623,913.764 593.5,862.668 652.5,862.668" transform="rotate(300 505 505)" fill="cyan" stroke="black" stroke-width="0.5" />
<polygon points="682,811.573 652.5,862.668 711.5,862.668" transform="rotate(300 505 505)" fill="cyan" stroke="black" stroke-width="0.5" />
<polygon points="682,913.764 652.5,862.668 711.5,862.668" transform="rotate(300 505 505)" fill="cyan" stroke="black" stroke-width="0.5" />
<polygon points="298.5,862.668 269,913.764 328,913.764" transform="rotate(300 505 505)" fill="cyan" stroke="black" stroke-width="0.5" />
<polygon points="357.5,862.668 328,913.764 387,913.764" transform="rotate(300 505 505)" fill="cyan" stroke="black" stroke-width="0.5" />
<polygon points="416.5,862.668 387,913.764 446,913.764" transform="rotate(300 505 505)" fill="cyan" stroke="black" stroke-width="0.5" />
<polygon points="475.5,862.668 446,913.764 505,913.764" transform="rotate(300 505 505)" fill="cyan" stroke="black" stroke-width="0.5" />
<polygon points="534.5,862.668 505,913.764 564,913.764" transform="rotate(300 505 505)" fill="cyan" stroke="black" stroke-width="0.5" />
<polygon points="593.5,862.668 564,913.764 623,913.764" transform="rotate(300 505 505)" fill="cyan" stroke="black" stroke-width="0.5" />
<polygon points="652.5,862.668 623,913.764 682,913.764" transform="rotate(300 505 505)" fill="cyan" stroke="black" stroke-width="0.5" />
<polygon points="711.5,862.668 682,913.764 741,913.764" transform="rotate(300 505 505)" fill="cyan" stroke="black" stroke-width="0.5" />
<polygon points="607.5,913.764 578,964.859 637,964.859" transform="rotate(300 505 505)" fill="cyan" stroke="black" stroke-width="0.5" />
<polygon points="548.5,913.764 519,964.859 578,964.859" transform="rotate(300 505 505)" fill="cyan" stroke="black" stroke-width="0.5" />
<polygon points="489.5,913.764 460,964.859 519,964.859" transform="rotate(300 505 505)" fill="cyan" stroke="black" stroke-width="0.5" />
<polygon points="430.5,913.764 401,964.859 460,964.859" transform="rotate(300 505 505)" fill="cyan" stroke="black" stroke-width="0.5" />
<polygon points="371.5,913.764 342,964.859 401,964.859" transform="rotate(300 505 505)" fill="cyan" stroke="black" stroke-width="0.5" />
<polygon points="666.5,913.764 637,964.859 607.5,913.764" transform="rotate(300 505 505)" fill="cyan" stroke="black" stroke-width="0.5" />
<polygon points="607.5,913.764 578,964.859 548.5,913.764" transform="rotate(300 505 505)" fill="cyan" stroke="black" stroke-width="0.5" />
<polygon points="548.5,913.764 519,964.859 489.5,913.764" transform="rotate(300 505 505)" fill="cyan" stroke="black" stroke-width="0.5" />
<polygon points="489.5,913.764 460,964.859 430.5,913.764" transform="rotate(300 505 505)" fill="cyan" stroke="black" stroke-width="0.5" />
<polygon points="430.5,913.764 401,964.859 371.5,913.764" transform="rotate(300 505 505)" fill="cyan" stroke="black" stroke-width="0.5" />
<polygon points="371.5,913.764 342,964.859 312.5,913.764" transform="rotate(300 505 505)" fill="cyan" stroke="black" stroke-width="0.5" />
</svg>
