<svg version="1.1" baseProfile="full" xmlns="http://www.w3.org/2000/svg">
<circle cx="250" cy="250" r="250" transform="rotate(0 0 0)" fill="blue" stroke="black" stroke-width="0.5" />
<polygon points="250,250 215,310.622 285,310.622" transform="rotate(0 250 250)" fill="magenta" stroke="black" stroke-width="0.5" />
<polygon points="250,371.244 215,310.622 285,310.622" transform="rotate(0 250 250)" fill="magenta" stroke="black" stroke-width="0.5" />
<polygon points="215,310.622 180,371.244 250,371.244" transform="rotate(0 250 250)" fill="magenta" stroke="black" stroke-width="0.5" />
<polygon points="215,431.865 180,371.244 250,371.244" transform="rotate(0 250 250)" fill="magenta" stroke="black" stroke-width="0.5" />
<polygon points="285,310.622 250,371.244 320,371.244" transform="rotate(0 250 250)" fill="magenta" stroke="black" stroke-width="0.5" />
<polygon points="285,431.865 250,371.244 320,371.244" transform="rotate(0 250 250)" fill="magenta" stroke="black" stroke-width="0.5" />
<polygon points="180,371.244 145,431.865 215,431.865" transform="rotate(0 250 250)" fill="magenta" stroke="black" stroke-width="0.5" />
<polygon points="250,371.244 215,431.865 285,431.865" transform="rotate(0 250 250)" fill="magenta" stroke="black" stroke-width="0.5" />
<polygon points="320,371.244 285,431.865 355,431.865" transform="rotate(0 250 250)" fill="magenta" stroke="black" stroke-width="0.5" />
<polygon points="250,250 215,310.622 285,310.622" transform="rotate(60 250 250)" fill="magenta" stroke="black" stroke-width="0.5" />
<polygon points="250,371.244 215,310.622 285,310.622" transform="rotate(60 250 250)" fill="magenta" stroke="black" stroke-width="0.5" />
<polygon points="215,310.622 180,371.244 250,371.244" transform="rotate(60 250 250)" fill="magenta" stroke="black" stroke-width="0.5" />
<polygon points="215,431.865 180,371.244 250,371.244" transform="rotate(60 250 250)" fill="magenta" stroke="black" stroke-width="0.5" />
<polygon points="285,310.622 250,371.244 320,371.244" transform="rotate(60 250 250)" fill="magenta" stroke="black" stroke-width="0.5" />
<polygon points="285,431.865 250,371.244 320,371.244" transform="rotate(60 250 250)" fill="magenta" stroke="black" stroke-width="0.5" />
<polygon points="180,371.244 145,431.865 215,431.865" transform="rotate(60 250 250)" fill="magenta" stroke="black" stroke-width="0.5" />
<polygon points="250,371.244 215,431.865 285,431.865" transform="rotate(60 250 250)" fill="magenta" stroke="black" stroke-width="0.5" />
<polygon points="320,371.244 285,431.865 355,431.865" transform="rotate(60 250 250)" fill="magenta" stroke="black" stroke-width="0.5" />
<polygon points="250,250 215,310.622 285,310.622" transform="rotate(120 250 250)" fill="magenta" stroke="black" stroke-width="0.5" />
<polygon points="250,371.244 215,310.622 285,310.622" transform="rotate(120 250 250)" fill="magenta" stroke="black" stroke-width="0.5" />
<polygon points="215,310.622 180,371.244 250,371.244" transform="rotate(120 250 250)" fill="magenta" stroke="black" stroke-width="0.5" />
<polygon points="215,431.865 180,371.244 250,371.244" transform="rotate(120 250 250)" fill="magenta" stroke="black" stroke-width="0.5" />
<polygon points="285,310.622 250,371.244 320,371.244" transform="rotate(120 250 250)" fill="magenta" stroke="black" stroke-width="0.5" />
<polygon points="285,431.865 250,371.244 320,371.244" transform="rotate(120 250 250)" fill="magenta" stroke="black" stroke-width="0.5" />
<polygon points="180,371.244 145,431.865 215,431.865" transform="rotate(120 250 250)" fill="magenta" stroke="black" stroke-width="0.5" />
<polygon points="250,371.244 215,431.865 285,431.865" transform="rotate(120 250 250)" fill="magenta" stroke="black" stroke-width="0.5" />
<polygon points="320,371.244 285,431.865 355,431.865" transform="rotate(120 250 250)" fill="magenta" stroke="black" stroke-width="0.5" />
<polygon points="250,250 215,310.622 285,310.622" transform="rotate(180 250 250)" fill="magenta" stroke="black" stroke-width="0.5" />
<polygon points="250,371.244 215,310.622 285,310.622" transform="rotate(180 250 250)" fill="magenta" stroke="black" stroke-width="0.5" />
<polygon points="215,310.622 180,371.244 250,371.244" transform="rotate(180 250 250)" fill="magenta" stroke="black" stroke-width="0.5" />
<polygon points="215,431.865 180,371.244 250,371.244" transform="rotate(180 250 250)" fill="magenta" stroke="black" stroke-width="0.5" />
<polygon points="285,310.622 250,371.244 320,371.244" transform="rotate(180 250 250)" fill="magenta" stroke="black" stroke-width="0.5" />
<polygon points="285,431.865 250,371.244 320,371.244" transform="rotate(180 250 250)" fill="magenta" stroke="black" stroke-width="0.5" />
<polygon points="180,371.244 145,431.865 215,431.865" transform="rotate(180 250 250)" fill="magenta" stroke="black" stroke-width="0.5" />
<polygon points="250,371.244 215,431.865 285,431.865" transform="rotate(180 250 250)" fill="magenta" stroke="black" stroke-width="0.5" />
<polygon points="320,371.244 285,431.865 355,431.865" transform="rotate(180 250 250)" fill="magenta" stroke="black" stroke-width="0.5" />
<polygon points="250,250 215,310.622 285,310.622" transform="rotate(240 250 250)" fill="magenta" stroke="black" stroke-width="0.5" />
<polygon points="250,371.244 215,310.622 285,310.622" transform="rotate(240 250 250)" fill="magenta" stroke="black" stroke-width="0.5" />
<polygon points="215,310.622 180,371.244 250,371.244" transform="rotate(240 250 250)" fill="magenta" stroke="black" stroke-width="0.5" />
<polygon points="215,431.865 180,371.244 250,371.244" transform="rotate(240 250 250)" fill="magenta" stroke="black" stroke-width="0.5" />
<polygon points="285,310.622 250,371.244 320,371.244" transform="rotate(240 250 250)" fill="magenta" stroke="black" stroke-width="0.5" />
<polygon points="285,431.865 250,371.244 320,371.244" transform="rotate(240 250 250)" fill="magenta" stroke="black" stroke-width="0.5" />
<polygon points="180,371.244 145,431.865 215,431.865" transform="rotate(240 250 250)" fill="magenta" stroke="black" stroke-width="0.5" />
<polygon points="250,371.244 215,431.865 285,431.865" transform="rotate(240 250 250)" fill="magenta" stroke="black" stroke-width="0.5" />
<polygon points="320,371.244 285,431.865 355,431.865" transform="rotate(240 250 250)" fill="magenta" stroke="black" stroke-width="0.5" />
<polygon points="250,250 215,310.622 285,310.622" transform="rotate(300 250 250)" fill="magenta" stroke="black" stroke-width="0.5" />
<polygon points="250,371.244 215,310.622 285,310.622" transform="rotate(300 250 250)" fill="magenta" stroke="black" stroke-width="0.5" />
<polygon points="215,310.622 180,371.244 250,371.244" transform="rotate(300 250 250)" fill="magenta" stroke="black" stroke-width="0.5" />
<polygon points="215,431.865 180,371.244 250,371.244" transform="rotate(300 250 250)" fill="magenta" stroke="black" stroke-width="0.5" />
<polygon points="285,310.622 250,371.244 320,371.244" transform="rotate(300 250 250)" fill="magenta" stroke="black" stroke-width="0.5" />
<polygon points="285,431.865 250,371.244 320,371.244" transform="rotate(300 250 250)" fill="magenta" stroke="black" stroke-width="0.5" />
<polygon points="180,371.244 145,431.865 215,431.865" transform="rotate(300 250 250)" fill="magenta" stroke="black" stroke-width="0.5" />
<polygon points="250,371.244 215,431.865 285,431.865" transform="rotate(300 250 250)" fill="magenta" stroke="black" stroke-width="0.5" />
<polygon points="320,371.244 285,431.865 355,431.865" transform="rotate(300 250 250)" fill="magenta" stroke="black" stroke-width="0.5" />
</svg>
