<svg version="1.1" baseProfile="full" xmlns="http://www.w3.org/2000/svg">
<rect x="0"  y="0" width="800" height="350" transform="rotate(0 0 0)" fill="blue" stroke="black" stroke-width="0.5" />
<circle cx="40" cy="40" r="40" transform="rotate(0 0 0)" fill="yellow" stroke="black" stroke-width="0.5" />
<circle cx="120" cy="40" r="40" transform="rotate(0 0 0)" fill="yellow" stroke="black" stroke-width="0.5" />
<circle cx="200" cy="40" r="40" transform="rotate(0 0 0)" fill="yellow" stroke="black" stroke-width="0.5" />
<circle cx="280" cy="40" r="40" transform="rotate(0 0 0)" fill="yellow" stroke="black" stroke-width="0.5" />
<circle cx="360" cy="40" r="40" transform="rotate(0 0 0)" fill="yellow" stroke="black" stroke-width="0.5" />
<circle cx="440" cy="40" r="40" transform="rotate(0 0 0)" fill="yellow" stroke="black" stroke-width="0.5" />
<circle cx="520" cy="40" r="40" transform="rotate(0 0 0)" fill="yellow" stroke="black" stroke-width="0.5" />
<circle cx="600" cy="40" r="40" transform="rotate(0 0 0)" fill="yellow" stroke="black" stroke-width="0.5" />
<circle cx="680" cy="40" r="40" transform="rotate(0 0 0)" fill="yellow" stroke="black" stroke-width="0.5" />
<circle cx="760" cy="40" r="40" transform="rotate(0 0 0)" fill="yellow" stroke="black" stroke-width="0.5" />
<circle cx="40" cy="120" r="40" transform="rotate(0 0 0)" fill="yellow" stroke="black" stroke-width="0.5" />
<circle cx="120" cy="120" r="40" transform="rotate(0 0 0)" fill="yellow" stroke="black" stroke-width="0.5" />
<circle cx="200" cy="120" r="40" transform="rotate(0 0 0)" fill="yellow" stroke="black" stroke-width="0.5" />
<circle cx="280" cy="120" r="40" transform="rotate(0 0 0)" fill="yellow" stroke="black" stroke-width="0.5" />
<circle cx="360" cy="120" r="40" transform="rotate(0 0 0)" fill="yellow" stroke="black" stroke-width="0.5" />
<circle cx="440" cy="120" r="40" transform="rotate(0 0 0)" fill="yellow" stroke="black" stroke-width="0.5" />
<circle cx="520" cy="120" r="40" transform="rotate(0 0 0)" fill="yellow" stroke="black" stroke-width="0.5" />
<circle cx="600" cy="120" r="40" transform="rotate(0 0 0)" fill="yellow" stroke="black" stroke-width="0.5" />
<circle cx="680" cy="120" r="40" transform="rotate(0 0 0)" fill="yellow" stroke="black" stroke-width="0.5" />
<circle cx="760" cy="120" r="40" transform="rotate(0 0 0)" fill="yellow" stroke="black" stroke-width="0.5" />
<circle cx="40" cy="200" r="40" transform="rotate(0 0 0)" fill="yellow" stroke="black" stroke-width="0.5" />
<circle cx="120" cy="200" r="40" transform="rotate(0 0 0)" fill="yellow" stroke="black" stroke-width="0.5" />
<circle cx="200" cy="200" r="40" transform="rotate(0 0 0)" fill="yellow" stroke="black" stroke-width="0.5" />
<circle cx="280" cy="200" r="40" transform="rotate(0 0 0)" fill="yellow" stroke="black" stroke-width="0.5" />
<circle cx="360" cy="200" r="40" transform="rotate(0 0 0)" fill="yellow" stroke="black" stroke-width="0.5" />
<circle cx="440" cy="200" r="40" transform="rotate(0 0 0)" fill="yellow" stroke="black" stroke-width="0.5" />
<circle cx="520" cy="200" r="40" transform="rotate(0 0 0)" fill="yellow" stroke="black" stroke-width="0.5" />
<circle cx="600" cy="200" r="40" transform="rotate(0 0 0)" fill="yellow" stroke="black" stroke-width="0.5" />
<circle cx="680" cy="200" r="40" transform="rotate(0 0 0)" fill="yellow" stroke="black" stroke-width="0.5" />
<circle cx="760" cy="200" r="40" transform="rotate(0 0 0)" fill="yellow" stroke="black" stroke-width="0.5" />
<circle cx="40" cy="280" r="40" transform="rotate(0 0 0)" fill="yellow" stroke="black" stroke-width="0.5" />
<circle cx="120" cy="280" r="40" transform="rotate(0 0 0)" fill="yellow" stroke="black" stroke-width="0.5" />
<circle cx="200" cy="280" r="40" transform="rotate(0 0 0)" fill="yellow" stroke="black" stroke-width="0.5" />
<circle cx="280" cy="280" r="40" transform="rotate(0 0 0)" fill="yellow" stroke="black" stroke-width="0.5" />
<circle cx="360" cy="280" r="40" transform="rotate(0 0 0)" fill="yellow" stroke="black" stroke-width="0.5" />
<circle cx="440" cy="280" r="40" transform="rotate(0 0 0)" fill="yellow" stroke="black" stroke-width="0.5" />
<circle cx="520" cy="280" r="40" transform="rotate(0 0 0)" fill="yellow" stroke="black" stroke-width="0.5" />
<circle cx="600" cy="280" r="40" transform="rotate(0 0 0)" fill="yellow" stroke="black" stroke-width="0.5" />
<circle cx="680" cy="280" r="40" transform="rotate(0 0 0)" fill="yellow" stroke="black" stroke-width="0.5" />
<circle cx="760" cy="280" r="40" transform="rotate(0 0 0)" fill="yellow" stroke="black" stroke-width="0.5" />
</svg>
