<svg version="1.1" baseProfile="full" xmlns="http://www.w3.org/2000/svg">
<rect x="10"  y="10" width="500" height="500" transform="rotate(0 0 0)" fill="purple" stroke="black" stroke-width="0.5" />
<circle cx="60" cy="60" r="50" transform="rotate(0 0 0)" fill="green" stroke="black" stroke-width="0.5" />
<circle cx="160" cy="60" r="50" transform="rotate(0 0 0)" fill="green" stroke="black" stroke-width="0.5" />
<circle cx="260" cy="60" r="50" transform="rotate(0 0 0)" fill="green" stroke="black" stroke-width="0.5" />
<circle cx="360" cy="60" r="50" transform="rotate(0 0 0)" fill="green" stroke="black" stroke-width="0.5" />
<circle cx="460" cy="60" r="50" transform="rotate(0 0 0)" fill="green" stroke="black" stroke-width="0.5" />
<circle cx="60" cy="160" r="50" transform="rotate(0 0 0)" fill="green" stroke="black" stroke-width="0.5" />
<circle cx="160" cy="160" r="50" transform="rotate(0 0 0)" fill="green" stroke="black" stroke-width="0.5" />
<circle cx="260" cy="160" r="50" transform="rotate(0 0 0)" fill="green" stroke="black" stroke-width="0.5" />
<circle cx="360" cy="160" r="50" transform="rotate(0 0 0)" fill="green" stroke="black" stroke-width="0.5" />
<circle cx="460" cy="160" r="50" transform="rotate(0 0 0)" fill="green" stroke="black" stroke-width="0.5" />
<circle cx="60" cy="260" r="50" transform="rotate(0 0 0)" fill="green" stroke="black" stroke-width="0.5" />
<circle cx="160" cy="260" r="50" transform="rotate(0 0 0)" fill="green" stroke="black" stroke-width="0.5" />
<circle cx="260" cy="260" r="50" transform="rotate(0 0 0)" fill="green" stroke="black" stroke-width="0.5" />
<circle cx="360" cy="260" r="50" transform="rotate(0 0 0)" fill="green" stroke="black" stroke-width="0.5" />
<circle cx="460" cy="260" r="50" transform="rotate(0 0 0)" fill="green" stroke="black" stroke-width="0.5" />
<circle cx="60" cy="360" r="50" transform="rotate(0 0 0)" fill="green" stroke="black" stroke-width="0.5" />
<circle cx="160" cy="360" r="50" transform="rotate(0 0 0)" fill="green" stroke="black" stroke-width="0.5" />
<circle cx="260" cy="360" r="50" transform="rotate(0 0 0)" fill="green" stroke="black" stroke-width="0.5" />
<circle cx="360" cy="360" r="50" transform="rotate(0 0 0)" fill="green" stroke="black" stroke-width="0.5" />
<circle cx="460" cy="360" r="50" transform="rotate(0 0 0)" fill="green" stroke="black" stroke-width="0.5" />
<circle cx="60" cy="460" r="50" transform="rotate(0 0 0)" fill="green" stroke="black" stroke-width="0.5" />
<circle cx="160" cy="460" r="50" transform="rotate(0 0 0)" fill="green" stroke="black" stroke-width="0.5" />
<circle cx="260" cy="460" r="50" transform="rotate(0 0 0)" fill="green" stroke="black" stroke-width="0.5" />
<circle cx="360" cy="460" r="50" transform="rotate(0 0 0)" fill="green" stroke="black" stroke-width="0.5" />
<circle cx="460" cy="460" r="50" transform="rotate(0 0 0)" fill="green" stroke="black" stroke-width="0.5" />
</svg>
