<svg version="1.1" baseProfile="full" xmlns="http://www.w3.org/2000/svg">
<polygon points="260,10 10,443.013 510,443.013" transform="rotate(0 0 0)" fill="dimgrey" stroke="black" stroke-width="0.5" />
<polygon points="260,10 240,44.641 280,44.641" transform="rotate(0 0 0)" fill="green" stroke="black" stroke-width="0.5" />
<polygon points="260,79.282 240,44.641 280,44.641" transform="rotate(0 0 0)" fill="green" stroke="black" stroke-width="0.5" />
<polygon points="240,44.641 220,79.282 260,79.282" transform="rotate(0 0 0)" fill="green" stroke="black" stroke-width="0.5" />
<polygon points="240,113.923 220,79.282 260,79.282" transform="rotate(0 0 0)" fill="green" stroke="black" stroke-width="0.5" />
<polygon points="280,44.641 260,79.282 300,79.282" transform="rotate(0 0 0)" fill="green" stroke="black" stroke-width="0.5" />
<polygon points="280,113.923 260,79.282 300,79.282" transform="rotate(0 0 0)" fill="green" stroke="black" stroke-width="0.5" />
<polygon points="220,79.282 200,113.923 240,113.923" transform="rotate(0 0 0)" fill="green" stroke="black" stroke-width="0.5" />
<polygon points="220,148.564 200,113.923 240,113.923" transform="rotate(0 0 0)" fill="green" stroke="black" stroke-width="0.5" />
<polygon points="260,79.282 240,113.923 280,113.923" transform="rotate(0 0 0)" fill="green" stroke="black" stroke-width="0.5" />
<polygon points="260,148.564 240,113.923 280,113.923" transform="rotate(0 0 0)" fill="green" stroke="black" stroke-width="0.5" />
<polygon points="300,79.282 280,113.923 320,113.923" transform="rotate(0 0 0)" fill="green" stroke="black" stroke-width="0.5" />
<polygon points="300,148.564 280,113.923 320,113.923" transform="rotate(0 0 0)" fill="green" stroke="black" stroke-width="0.5" />
<polygon points="200,113.923 180,148.564 220,148.564" transform="rotate(0 0 0)" fill="green" stroke="black" stroke-width="0.5" />
<polygon points="200,183.205 180,148.564 220,148.564" transform="rotate(0 0 0)" fill="green" stroke="black" stroke-width="0.5" />
<polygon points="240,113.923 220,148.564 260,148.564" transform="rotate(0 0 0)" fill="green" stroke="black" stroke-width="0.5" />
<polygon points="240,183.205 220,148.564 260,148.564" transform="rotate(0 0 0)" fill="green" stroke="black" stroke-width="0.5" />
<polygon points="280,113.923 260,148.564 300,148.564" transform="rotate(0 0 0)" fill="green" stroke="black" stroke-width="0.5" />
<polygon points="280,183.205 260,148.564 300,148.564" transform="rotate(0 0 0)" fill="green" stroke="black" stroke-width="0.5" />
<polygon points="320,113.923 300,148.564 340,148.564" transform="rotate(0 0 0)" fill="green" stroke="black" stroke-width="0.5" />
<polygon points="320,183.205 300,148.564 340,148.564" transform="rotate(0 0 0)" fill="green" stroke="black" stroke-width="0.5" />
<polygon points="180,148.564 160,183.205 200,183.205" transform="rotate(0 0 0)" fill="green" stroke="black" stroke-width="0.5" />
<polygon points="180,217.846 160,183.205 200,183.205" transform="rotate(0 0 0)" fill="green" stroke="black" stroke-width="0.5" />
<polygon points="220,148.564 200,183.205 240,183.205" transform="rotate(0 0 0)" fill="green" stroke="black" stroke-width="0.5" />
<polygon points="220,217.846 200,183.205 240,183.205" transform="rotate(0 0 0)" fill="green" stroke="black" stroke-width="0.5" />
<polygon points="260,148.564 240,183.205 280,183.205" transform="rotate(0 0 0)" fill="green" stroke="black" stroke-width="0.5" />
<polygon points="260,217.846 240,183.205 280,183.205" transform="rotate(0 0 0)" fill="green" stroke="black" stroke-width="0.5" />
<polygon points="300,148.564 280,183.205 320,183.205" transform="rotate(0 0 0)" fill="green" stroke="black" stroke-width="0.5" />
<polygon points="300,217.846 280,183.205 320,183.205" transform="rotate(0 0 0)" fill="green" stroke="black" stroke-width="0.5" />
<polygon points="340,148.564 320,183.205 360,183.205" transform="rotate(0 0 0)" fill="green" stroke="black" stroke-width="0.5" />
<polygon points="340,217.846 320,183.205 360,183.205" transform="rotate(0 0 0)" fill="green" stroke="black" stroke-width="0.5" />
<polygon points="160,183.205 140,217.846 180,217.846" transform="rotate(0 0 0)" fill="green" stroke="black" stroke-width="0.5" />
<polygon points="160,252.487 140,217.846 180,217.846" transform="rotate(0 0 0)" fill="green" stroke="black" stroke-width="0.5" />
<polygon points="200,183.205 180,217.846 220,217.846" transform="rotate(0 0 0)" fill="green" stroke="black" stroke-width="0.5" />
<polygon points="200,252.487 180,217.846 220,217.846" transform="rotate(0 0 0)" fill="green" stroke="black" stroke-width="0.5" />
<polygon points="240,183.205 220,217.846 260,217.846" transform="rotate(0 0 0)" fill="green" stroke="black" stroke-width="0.5" />
<polygon points="240,252.487 220,217.846 260,217.846" transform="rotate(0 0 0)" fill="green" stroke="black" stroke-width="0.5" />
<polygon points="280,183.205 260,217.846 300,217.846" transform="rotate(0 0 0)" fill="green" stroke="black" stroke-width="0.5" />
<polygon points="280,252.487 260,217.846 300,217.846" transform="rotate(0 0 0)" fill="green" stroke="black" stroke-width="0.5" />
<polygon points="320,183.205 300,217.846 340,217.846" transform="rotate(0 0 0)" fill="green" stroke="black" stroke-width="0.5" />
<polygon points="320,252.487 300,217.846 340,217.846" transform="rotate(0 0 0)" fill="green" stroke="black" stroke-width="0.5" />
<polygon points="360,183.205 340,217.846 380,217.846" transform="rotate(0 0 0)" fill="green" stroke="black" stroke-width="0.5" />
<polygon points="360,252.487 340,217.846 380,217.846" transform="rotate(0 0 0)" fill="green" stroke="black" stroke-width="0.5" />
<polygon points="140,217.846 120,252.487 160,252.487" transform="rotate(0 0 0)" fill="green" stroke="black" stroke-width="0.5" />
<polygon points="140,287.128 120,252.487 160,252.487" transform="rotate(0 0 0)" fill="green" stroke="black" stroke-width="0.5" />
<polygon points="180,217.846 160,252.487 200,252.487" transform="rotate(0 0 0)" fill="green" stroke="black" stroke-width="0.5" />
<polygon points="180,287.128 160,252.487 200,252.487" transform="rotate(0 0 0)" fill="green" stroke="black" stroke-width="0.5" />
<polygon points="220,217.846 200,252.487 240,252.487" transform="rotate(0 0 0)" fill="green" stroke="black" stroke-width="0.5" />
<polygon points="220,287.128 200,252.487 240,252.487" transform="rotate(0 0 0)" fill="green" stroke="black" stroke-width="0.5" />
<polygon points="260,217.846 240,252.487 280,252.487" transform="rotate(0 0 0)" fill="green" stroke="black" stroke-width="0.5" />
<polygon points="260,287.128 240,252.487 280,252.487" transform="rotate(0 0 0)" fill="green" stroke="black" stroke-width="0.5" />
<polygon points="300,217.846 280,252.487 320,252.487" transform="rotate(0 0 0)" fill="green" stroke="black" stroke-width="0.5" />
<polygon points="300,287.128 280,252.487 320,252.487" transform="rotate(0 0 0)" fill="green" stroke="black" stroke-width="0.5" />
<polygon points="340,217.846 320,252.487 360,252.487" transform="rotate(0 0 0)" fill="green" stroke="black" stroke-width="0.5" />
<polygon points="340,287.128 320,252.487 360,252.487" transform="rotate(0 0 0)" fill="green" stroke="black" stroke-width="0.5" />
<polygon points="380,217.846 360,252.487 400,252.487" transform="rotate(0 0 0)" fill="green" stroke="black" stroke-width="0.5" />
<polygon points="380,287.128 360,252.487 400,252.487" transform="rotate(0 0 0)" fill="green" stroke="black" stroke-width="0.5" />
<polygon points="120,252.487 100,287.128 140,287.128" transform="rotate(0 0 0)" fill="green" stroke="black" stroke-width="0.5" />
<polygon points="120,321.769 100,287.128 140,287.128" transform="rotate(0 0 0)" fill="green" stroke="black" stroke-width="0.5" />
<polygon points="160,252.487 140,287.128 180,287.128" transform="rotate(0 0 0)" fill="green" stroke="black" stroke-width="0.5" />
<polygon points="160,321.769 140,287.128 180,287.128" transform="rotate(0 0 0)" fill="green" stroke="black" stroke-width="0.5" />
<polygon points="200,252.487 180,287.128 220,287.128" transform="rotate(0 0 0)" fill="green" stroke="black" stroke-width="0.5" />
<polygon points="200,321.769 180,287.128 220,287.128" transform="rotate(0 0 0)" fill="green" stroke="black" stroke-width="0.5" />
<polygon points="240,252.487 220,287.128 260,287.128" transform="rotate(0 0 0)" fill="green" stroke="black" stroke-width="0.5" />
<polygon points="240,321.769 220,287.128 260,287.128" transform="rotate(0 0 0)" fill="green" stroke="black" stroke-width="0.5" />
<polygon points="280,252.487 260,287.128 300,287.128" transform="rotate(0 0 0)" fill="green" stroke="black" stroke-width="0.5" />
<polygon points="280,321.769 260,287.128 300,287.128" transform="rotate(0 0 0)" fill="green" stroke="black" stroke-width="0.5" />
<polygon points="320,252.487 300,287.128 340,287.128" transform="rotate(0 0 0)" fill="green" stroke="black" stroke-width="0.5" />
<polygon points="320,321.769 300,287.128 340,287.128" transform="rotate(0 0 0)" fill="green" stroke="black" stroke-width="0.5" />
<polygon points="360,252.487 340,287.128 380,287.128" transform="rotate(0 0 0)" fill="green" stroke="black" stroke-width="0.5" />
<polygon points="360,321.769 340,287.128 380,287.128" transform="rotate(0 0 0)" fill="green" stroke="black" stroke-width="0.5" />
<polygon points="400,252.487 380,287.128 420,287.128" transform="rotate(0 0 0)" fill="green" stroke="black" stroke-width="0.5" />
<polygon points="400,321.769 380,287.128 420,287.128" transform="rotate(0 0 0)" fill="green" stroke="black" stroke-width="0.5" />
<polygon points="100,287.128 80,321.769 120,321.769" transform="rotate(0 0 0)" fill="green" stroke="black" stroke-width="0.5" />
<polygon points="100,356.41 80,321.769 120,321.769" transform="rotate(0 0 0)" fill="green" stroke="black" stroke-width="0.5" />
<polygon points="140,287.128 120,321.769 160,321.769" transform="rotate(0 0 0)" fill="green" stroke="black" stroke-width="0.5" />
<polygon points="140,356.41 120,321.769 160,321.769" transform="rotate(0 0 0)" fill="green" stroke="black" stroke-width="0.5" />
<polygon points="180,287.128 160,321.769 200,321.769" transform="rotate(0 0 0)" fill="green" stroke="black" stroke-width="0.5" />
<polygon points="180,356.41 160,321.769 200,321.769" transform="rotate(0 0 0)" fill="green" stroke="black" stroke-width="0.5" />
<polygon points="220,287.128 200,321.769 240,321.769" transform="rotate(0 0 0)" fill="green" stroke="black" stroke-width="0.5" />
<polygon points="220,356.41 200,321.769 240,321.769" transform="rotate(0 0 0)" fill="green" stroke="black" stroke-width="0.5" />
<polygon points="260,287.128 240,321.769 280,321.769" transform="rotate(0 0 0)" fill="green" stroke="black" stroke-width="0.5" />
<polygon points="260,356.41 240,321.769 280,321.769" transform="rotate(0 0 0)" fill="green" stroke="black" stroke-width="0.5" />
<polygon points="300,287.128 280,321.769 320,321.769" transform="rotate(0 0 0)" fill="green" stroke="black" stroke-width="0.5" />
<polygon points="300,356.41 280,321.769 320,321.769" transform="rotate(0 0 0)" fill="green" stroke="black" stroke-width="0.5" />
<polygon points="340,287.128 320,321.769 360,321.769" transform="rotate(0 0 0)" fill="green" stroke="black" stroke-width="0.5" />
<polygon points="340,356.41 320,321.769 360,321.769" transform="rotate(0 0 0)" fill="green" stroke="black" stroke-width="0.5" />
<polygon points="380,287.128 360,321.769 400,321.769" transform="rotate(0 0 0)" fill="green" stroke="black" stroke-width="0.5" />
<polygon points="380,356.41 360,321.769 400,321.769" transform="rotate(0 0 0)" fill="green" stroke="black" stroke-width="0.5" />
<polygon points="420,287.128 400,321.769 440,321.769" transform="rotate(0 0 0)" fill="green" stroke="black" stroke-width="0.5" />
<polygon points="420,356.41 400,321.769 440,321.769" transform="rotate(0 0 0)" fill="green" stroke="black" stroke-width="0.5" />
<polygon points="80,321.769 60,356.41 100,356.41" transform="rotate(0 0 0)" fill="green" stroke="black" stroke-width="0.5" />
<polygon points="80,391.051 60,356.41 100,356.41" transform="rotate(0 0 0)" fill="green" stroke="black" stroke-width="0.5" />
<polygon points="120,321.769 100,356.41 140,356.41" transform="rotate(0 0 0)" fill="green" stroke="black" stroke-width="0.5" />
<polygon points="120,391.051 100,356.41 140,356.41" transform="rotate(0 0 0)" fill="green" stroke="black" stroke-width="0.5" />
<polygon points="160,321.769 140,356.41 180,356.41" transform="rotate(0 0 0)" fill="green" stroke="black" stroke-width="0.5" />
<polygon points="160,391.051 140,356.41 180,356.41" transform="rotate(0 0 0)" fill="green" stroke="black" stroke-width="0.5" />
<polygon points="200,321.769 180,356.41 220,356.41" transform="rotate(0 0 0)" fill="green" stroke="black" stroke-width="0.5" />
<polygon points="200,391.051 180,356.41 220,356.41" transform="rotate(0 0 0)" fill="green" stroke="black" stroke-width="0.5" />
<polygon points="240,321.769 220,356.41 260,356.41" transform="rotate(0 0 0)" fill="green" stroke="black" stroke-width="0.5" />
<polygon points="240,391.051 220,356.41 260,356.41" transform="rotate(0 0 0)" fill="green" stroke="black" stroke-width="0.5" />
<polygon points="280,321.769 260,356.41 300,356.41" transform="rotate(0 0 0)" fill="green" stroke="black" stroke-width="0.5" />
<polygon points="280,391.051 260,356.41 300,356.41" transform="rotate(0 0 0)" fill="green" stroke="black" stroke-width="0.5" />
<polygon points="320,321.769 300,356.41 340,356.41" transform="rotate(0 0 0)" fill="green" stroke="black" stroke-width="0.5" />
<polygon points="320,391.051 300,356.41 340,356.41" transform="rotate(0 0 0)" fill="green" stroke="black" stroke-width="0.5" />
<polygon points="360,321.769 340,356.41 380,356.41" transform="rotate(0 0 0)" fill="green" stroke="black" stroke-width="0.5" />
<polygon points="360,391.051 340,356.41 380,356.41" transform="rotate(0 0 0)" fill="green" stroke="black" stroke-width="0.5" />
<polygon points="400,321.769 380,356.41 420,356.41" transform="rotate(0 0 0)" fill="green" stroke="black" stroke-width="0.5" />
<polygon points="400,391.051 380,356.41 420,356.41" transform="rotate(0 0 0)" fill="green" stroke="black" stroke-width="0.5" />
<polygon points="440,321.769 420,356.41 460,356.41" transform="rotate(0 0 0)" fill="green" stroke="black" stroke-width="0.5" />
<polygon points="440,391.051 420,356.41 460,356.41" transform="rotate(0 0 0)" fill="green" stroke="black" stroke-width="0.5" />
<polygon points="60,356.41 40,391.051 80,391.051" transform="rotate(0 0 0)" fill="green" stroke="black" stroke-width="0.5" />
<polygon points="60,425.692 40,391.051 80,391.051" transform="rotate(0 0 0)" fill="green" stroke="black" stroke-width="0.5" />
<polygon points="100,356.41 80,391.051 120,391.051" transform="rotate(0 0 0)" fill="green" stroke="black" stroke-width="0.5" />
<polygon points="100,425.692 80,391.051 120,391.051" transform="rotate(0 0 0)" fill="green" stroke="black" stroke-width="0.5" />
<polygon points="140,356.41 120,391.051 160,391.051" transform="rotate(0 0 0)" fill="green" stroke="black" stroke-width="0.5" />
<polygon points="140,425.692 120,391.051 160,391.051" transform="rotate(0 0 0)" fill="green" stroke="black" stroke-width="0.5" />
<polygon points="180,356.41 160,391.051 200,391.051" transform="rotate(0 0 0)" fill="green" stroke="black" stroke-width="0.5" />
<polygon points="180,425.692 160,391.051 200,391.051" transform="rotate(0 0 0)" fill="green" stroke="black" stroke-width="0.5" />
<polygon points="220,356.41 200,391.051 240,391.051" transform="rotate(0 0 0)" fill="green" stroke="black" stroke-width="0.5" />
<polygon points="220,425.692 200,391.051 240,391.051" transform="rotate(0 0 0)" fill="green" stroke="black" stroke-width="0.5" />
<polygon points="260,356.41 240,391.051 280,391.051" transform="rotate(0 0 0)" fill="green" stroke="black" stroke-width="0.5" />
<polygon points="260,425.692 240,391.051 280,391.051" transform="rotate(0 0 0)" fill="green" stroke="black" stroke-width="0.5" />
<polygon points="300,356.41 280,391.051 320,391.051" transform="rotate(0 0 0)" fill="green" stroke="black" stroke-width="0.5" />
<polygon points="300,425.692 280,391.051 320,391.051" transform="rotate(0 0 0)" fill="green" stroke="black" stroke-width="0.5" />
<polygon points="340,356.41 320,391.051 360,391.051" transform="rotate(0 0 0)" fill="green" stroke="black" stroke-width="0.5" />
<polygon points="340,425.692 320,391.051 360,391.051" transform="rotate(0 0 0)" fill="green" stroke="black" stroke-width="0.5" />
<polygon points="380,356.41 360,391.051 400,391.051" transform="rotate(0 0 0)" fill="green" stroke="black" stroke-width="0.5" />
<polygon points="380,425.692 360,391.051 400,391.051" transform="rotate(0 0 0)" fill="green" stroke="black" stroke-width="0.5" />
<polygon points="420,356.41 400,391.051 440,391.051" transform="rotate(0 0 0)" fill="green" stroke="black" stroke-width="0.5" />
<polygon points="420,425.692 400,391.051 440,391.051" transform="rotate(0 0 0)" fill="green" stroke="black" stroke-width="0.5" />
<polygon points="460,356.41 440,391.051 480,391.051" transform="rotate(0 0 0)" fill="green" stroke="black" stroke-width="0.5" />
<polygon points="460,425.692 440,391.051 480,391.051" transform="rotate(0 0 0)" fill="green" stroke="black" stroke-width="0.5" />
<polygon points="40,391.051 20,425.692 60,425.692" transform="rotate(0 0 0)" fill="green" stroke="black" stroke-width="0.5" />
<polygon points="80,391.051 60,425.692 100,425.692" transform="rotate(0 0 0)" fill="green" stroke="black" stroke-width="0.5" />
<polygon points="120,391.051 100,425.692 140,425.692" transform="rotate(0 0 0)" fill="green" stroke="black" stroke-width="0.5" />
<polygon points="160,391.051 140,425.692 180,425.692" transform="rotate(0 0 0)" fill="green" stroke="black" stroke-width="0.5" />
<polygon points="200,391.051 180,425.692 220,425.692" transform="rotate(0 0 0)" fill="green" stroke="black" stroke-width="0.5" />
<polygon points="240,391.051 220,425.692 260,425.692" transform="rotate(0 0 0)" fill="green" stroke="black" stroke-width="0.5" />
<polygon points="280,391.051 260,425.692 300,425.692" transform="rotate(0 0 0)" fill="green" stroke="black" stroke-width="0.5" />
<polygon points="320,391.051 300,425.692 340,425.692" transform="rotate(0 0 0)" fill="green" stroke="black" stroke-width="0.5" />
<polygon points="360,391.051 340,425.692 380,425.692" transform="rotate(0 0 0)" fill="green" stroke="black" stroke-width="0.5" />
<polygon points="400,391.051 380,425.692 420,425.692" transform="rotate(0 0 0)" fill="green" stroke="black" stroke-width="0.5" />
<polygon points="440,391.051 420,425.692 460,425.692" transform="rotate(0 0 0)" fill="green" stroke="black" stroke-width="0.5" />
<polygon points="480,391.051 460,425.692 500,425.692" transform="rotate(0 0 0)" fill="green" stroke="black" stroke-width="0.5" />
</svg>
