<svg version="1.1" baseProfile="full" xmlns="http://www.w3.org/2000/svg">
<polygon points="250,0 0,433.013 500,433.013" transform="rotate(0 0 0)" fill="pink" stroke="black" stroke-width="0.5" />
<rect x="30"  y="418.013" width="110" height="15" transform="rotate(0 0 0)" fill="green" stroke="black" stroke-width="0.5" />
<rect x="140"  y="418.013" width="110" height="15" transform="rotate(0 0 0)" fill="green" stroke="black" stroke-width="0.5" />
<rect x="250"  y="418.013" width="110" height="15" transform="rotate(0 0 0)" fill="green" stroke="black" stroke-width="0.5" />
<rect x="360"  y="418.013" width="110" height="15" transform="rotate(0 0 0)" fill="green" stroke="black" stroke-width="0.5" />
<rect x="30"  y="403.013" width="110" height="15" transform="rotate(0 0 0)" fill="green" stroke="black" stroke-width="0.5" />
<rect x="140"  y="403.013" width="110" height="15" transform="rotate(0 0 0)" fill="green" stroke="black" stroke-width="0.5" />
<rect x="250"  y="403.013" width="110" height="15" transform="rotate(0 0 0)" fill="green" stroke="black" stroke-width="0.5" />
<rect x="360"  y="403.013" width="110" height="15" transform="rotate(0 0 0)" fill="green" stroke="black" stroke-width="0.5" />
<rect x="30"  y="388.013" width="110" height="15" transform="rotate(0 0 0)" fill="green" stroke="black" stroke-width="0.5" />
<rect x="140"  y="388.013" width="110" height="15" transform="rotate(0 0 0)" fill="green" stroke="black" stroke-width="0.5" />
<rect x="250"  y="388.013" width="110" height="15" transform="rotate(0 0 0)" fill="green" stroke="black" stroke-width="0.5" />
<rect x="360"  y="388.013" width="110" height="15" transform="rotate(0 0 0)" fill="green" stroke="black" stroke-width="0.5" />
<rect x="85"  y="373.013" width="110" height="15" transform="rotate(0 0 0)" fill="green" stroke="black" stroke-width="0.5" />
<rect x="195"  y="373.013" width="110" height="15" transform="rotate(0 0 0)" fill="green" stroke="black" stroke-width="0.5" />
<rect x="305"  y="373.013" width="110" height="15" transform="rotate(0 0 0)" fill="green" stroke="black" stroke-width="0.5" />
<rect x="85"  y="358.013" width="110" height="15" transform="rotate(0 0 0)" fill="green" stroke="black" stroke-width="0.5" />
<rect x="195"  y="358.013" width="110" height="15" transform="rotate(0 0 0)" fill="green" stroke="black" stroke-width="0.5" />
<rect x="305"  y="358.013" width="110" height="15" transform="rotate(0 0 0)" fill="green" stroke="black" stroke-width="0.5" />
<rect x="85"  y="343.013" width="110" height="15" transform="rotate(0 0 0)" fill="green" stroke="black" stroke-width="0.5" />
<rect x="195"  y="343.013" width="110" height="15" transform="rotate(0 0 0)" fill="green" stroke="black" stroke-width="0.5" />
<rect x="305"  y="343.013" width="110" height="15" transform="rotate(0 0 0)" fill="green" stroke="black" stroke-width="0.5" />
<rect x="85"  y="328.013" width="110" height="15" transform="rotate(0 0 0)" fill="green" stroke="black" stroke-width="0.5" />
<rect x="195"  y="328.013" width="110" height="15" transform="rotate(0 0 0)" fill="green" stroke="black" stroke-width="0.5" />
<rect x="305"  y="328.013" width="110" height="15" transform="rotate(0 0 0)" fill="green" stroke="black" stroke-width="0.5" />
<rect x="85"  y="313.013" width="110" height="15" transform="rotate(0 0 0)" fill="green" stroke="black" stroke-width="0.5" />
<rect x="195"  y="313.013" width="110" height="15" transform="rotate(0 0 0)" fill="green" stroke="black" stroke-width="0.5" />
<rect x="305"  y="313.013" width="110" height="15" transform="rotate(0 0 0)" fill="green" stroke="black" stroke-width="0.5" />
<rect x="85"  y="298.013" width="110" height="15" transform="rotate(0 0 0)" fill="green" stroke="black" stroke-width="0.5" />
<rect x="195"  y="298.013" width="110" height="15" transform="rotate(0 0 0)" fill="green" stroke="black" stroke-width="0.5" />
<rect x="305"  y="298.013" width="110" height="15" transform="rotate(0 0 0)" fill="green" stroke="black" stroke-width="0.5" />
<rect x="140"  y="283.013" width="110" height="15" transform="rotate(0 0 0)" fill="green" stroke="black" stroke-width="0.5" />
<rect x="250"  y="283.013" width="110" height="15" transform="rotate(0 0 0)" fill="green" stroke="black" stroke-width="0.5" />
<rect x="140"  y="268.013" width="110" height="15" transform="rotate(0 0 0)" fill="green" stroke="black" stroke-width="0.5" />
<rect x="250"  y="268.013" width="110" height="15" transform="rotate(0 0 0)" fill="green" stroke="black" stroke-width="0.5" />
<rect x="140"  y="253.013" width="110" height="15" transform="rotate(0 0 0)" fill="green" stroke="black" stroke-width="0.5" />
<rect x="250"  y="253.013" width="110" height="15" transform="rotate(0 0 0)" fill="green" stroke="black" stroke-width="0.5" />
<rect x="140"  y="238.013" width="110" height="15" transform="rotate(0 0 0)" fill="green" stroke="black" stroke-width="0.5" />
<rect x="250"  y="238.013" width="110" height="15" transform="rotate(0 0 0)" fill="green" stroke="black" stroke-width="0.5" />
<rect x="140"  y="223.013" width="110" height="15" transform="rotate(0 0 0)" fill="green" stroke="black" stroke-width="0.5" />
<rect x="250"  y="223.013" width="110" height="15" transform="rotate(0 0 0)" fill="green" stroke="black" stroke-width="0.5" />
<rect x="140"  y="208.013" width="110" height="15" transform="rotate(0 0 0)" fill="green" stroke="black" stroke-width="0.5" />
<rect x="250"  y="208.013" width="110" height="15" transform="rotate(0 0 0)" fill="green" stroke="black" stroke-width="0.5" />
<rect x="140"  y="193.013" width="110" height="15" transform="rotate(0 0 0)" fill="green" stroke="black" stroke-width="0.5" />
<rect x="250"  y="193.013" width="110" height="15" transform="rotate(0 0 0)" fill="green" stroke="black" stroke-width="0.5" />
<rect x="195"  y="178.013" width="110" height="15" transform="rotate(0 0 0)" fill="green" stroke="black" stroke-width="0.5" />
<rect x="195"  y="163.013" width="110" height="15" transform="rotate(0 0 0)" fill="green" stroke="black" stroke-width="0.5" />
<rect x="195"  y="148.013" width="110" height="15" transform="rotate(0 0 0)" fill="green" stroke="black" stroke-width="0.5" />
<rect x="195"  y="133.013" width="110" height="15" transform="rotate(0 0 0)" fill="green" stroke="black" stroke-width="0.5" />
<rect x="195"  y="118.013" width="110" height="15" transform="rotate(0 0 0)" fill="green" stroke="black" stroke-width="0.5" />
<rect x="195"  y="103.013" width="110" height="15" transform="rotate(0 0 0)" fill="green" stroke="black" stroke-width="0.5" />
</svg>
