<svg version="1.1" baseProfile="full" xmlns="http://www.w3.org/2000/svg">
<circle cx="505" cy="505" r="500" transform="rotate(0 0 0)" fill="purple" stroke="black" stroke-width="0.5" />
<circle cx="505" cy="35" r="30" transform="rotate(0 505 505)" fill="cyan" stroke="black" stroke-width="0.5" />
<circle cx="505" cy="35" r="30" transform="rotate(7.34694 505 505)" fill="cyan" stroke="black" stroke-width="0.5" />
<circle cx="505" cy="35" r="30" transform="rotate(14.6939 505 505)" fill="cyan" stroke="black" stroke-width="0.5" />
<circle cx="505" cy="35" r="30" transform="rotate(22.0408 505 505)" fill="cyan" stroke="black" stroke-width="0.5" />
<circle cx="505" cy="35" r="30" transform="rotate(29.3878 505 505)" fill="cyan" stroke="black" stroke-width="0.5" />
<circle cx="505" cy="35" r="30" transform="rotate(36.7347 505 505)" fill="cyan" stroke="black" stroke-width="0.5" />
<circle cx="505" cy="35" r="30" transform="rotate(44.0816 505 505)" fill="cyan" stroke="black" stroke-width="0.5" />
<circle cx="505" cy="35" r="30" transform="rotate(51.4286 505 505)" fill="cyan" stroke="black" stroke-width="0.5" />
<circle cx="505" cy="35" r="30" transform="rotate(58.7755 505 505)" fill="cyan" stroke="black" stroke-width="0.5" />
<circle cx="505" cy="35" r="30" transform="rotate(66.1224 505 505)" fill="cyan" stroke="black" stroke-width="0.5" />
<circle cx="505" cy="35" r="30" transform="rotate(73.4694 505 505)" fill="cyan" stroke="black" stroke-width="0.5" />
<circle cx="505" cy="35" r="30" transform="rotate(80.8163 505 505)" fill="cyan" stroke="black" stroke-width="0.5" />
<circle cx="505" cy="35" r="30" transform="rotate(88.1633 505 505)" fill="cyan" stroke="black" stroke-width="0.5" />
<circle cx="505" cy="35" r="30" transform="rotate(95.5102 505 505)" fill="cyan" stroke="black" stroke-width="0.5" />
<circle cx="505" cy="35" r="30" transform="rotate(102.857 505 505)" fill="cyan" stroke="black" stroke-width="0.5" />
<circle cx="505" cy="35" r="30" transform="rotate(110.204 505 505)" fill="cyan" stroke="black" stroke-width="0.5" />
<circle cx="505" cy="35" r="30" transform="rotate(117.551 505 505)" fill="cyan" stroke="black" stroke-width="0.5" />
<circle cx="505" cy="35" r="30" transform="rotate(124.898 505 505)" fill="cyan" stroke="black" stroke-width="0.5" />
<circle cx="505" cy="35" r="30" transform="rotate(132.245 505 505)" fill="cyan" stroke="black" stroke-width="0.5" />
<circle cx="505" cy="35" r="30" transform="rotate(139.592 505 505)" fill="cyan" stroke="black" stroke-width="0.5" />
<circle cx="505" cy="35" r="30" transform="rotate(146.939 505 505)" fill="cyan" stroke="black" stroke-width="0.5" />
<circle cx="505" cy="35" r="30" transform="rotate(154.286 505 505)" fill="cyan" stroke="black" stroke-width="0.5" />
<circle cx="505" cy="35" r="30" transform="rotate(161.633 505 505)" fill="cyan" stroke="black" stroke-width="0.5" />
<circle cx="505" cy="35" r="30" transform="rotate(168.98 505 505)" fill="cyan" stroke="black" stroke-width="0.5" />
<circle cx="505" cy="35" r="30" transform="rotate(176.327 505 505)" fill="cyan" stroke="black" stroke-width="0.5" />
<circle cx="505" cy="35" r="30" transform="rotate(183.673 505 505)" fill="cyan" stroke="black" stroke-width="0.5" />
<circle cx="505" cy="35" r="30" transform="rotate(191.02 505 505)" fill="cyan" stroke="black" stroke-width="0.5" />
<circle cx="505" cy="35" r="30" transform="rotate(198.367 505 505)" fill="cyan" stroke="black" stroke-width="0.5" />
<circle cx="505" cy="35" r="30" transform="rotate(205.714 505 505)" fill="cyan" stroke="black" stroke-width="0.5" />
<circle cx="505" cy="35" r="30" transform="rotate(213.061 505 505)" fill="cyan" stroke="black" stroke-width="0.5" />
<circle cx="505" cy="35" r="30" transform="rotate(220.408 505 505)" fill="cyan" stroke="black" stroke-width="0.5" />
<circle cx="505" cy="35" r="30" transform="rotate(227.755 505 505)" fill="cyan" stroke="black" stroke-width="0.5" />
<circle cx="505" cy="35" r="30" transform="rotate(235.102 505 505)" fill="cyan" stroke="black" stroke-width="0.5" />
<circle cx="505" cy="35" r="30" transform="rotate(242.449 505 505)" fill="cyan" stroke="black" stroke-width="0.5" />
<circle cx="505" cy="35" r="30" transform="rotate(249.796 505 505)" fill="cyan" stroke="black" stroke-width="0.5" />
<circle cx="505" cy="35" r="30" transform="rotate(257.143 505 505)" fill="cyan" stroke="black" stroke-width="0.5" />
<circle cx="505" cy="35" r="30" transform="rotate(264.49 505 505)" fill="cyan" stroke="black" stroke-width="0.5" />
<circle cx="505" cy="35" r="30" transform="rotate(271.837 505 505)" fill="cyan" stroke="black" stroke-width="0.5" />
<circle cx="505" cy="35" r="30" transform="rotate(279.184 505 505)" fill="cyan" stroke="black" stroke-width="0.5" />
<circle cx="505" cy="35" r="30" transform="rotate(286.531 505 505)" fill="cyan" stroke="black" stroke-width="0.5" />
<circle cx="505" cy="35" r="30" transform="rotate(293.878 505 505)" fill="cyan" stroke="black" stroke-width="0.5" />
<circle cx="505" cy="35" r="30" transform="rotate(301.224 505 505)" fill="cyan" stroke="black" stroke-width="0.5" />
<circle cx="505" cy="35" r="30" transform="rotate(308.571 505 505)" fill="cyan" stroke="black" stroke-width="0.5" />
<circle cx="505" cy="35" r="30" transform="rotate(315.918 505 505)" fill="cyan" stroke="black" stroke-width="0.5" />
<circle cx="505" cy="35" r="30" transform="rotate(323.265 505 505)" fill="cyan" stroke="black" stroke-width="0.5" />
<circle cx="505" cy="35" r="30" transform="rotate(330.612 505 505)" fill="cyan" stroke="black" stroke-width="0.5" />
<circle cx="505" cy="35" r="30" transform="rotate(337.959 505 505)" fill="cyan" stroke="black" stroke-width="0.5" />
<circle cx="505" cy="35" r="30" transform="rotate(345.306 505 505)" fill="cyan" stroke="black" stroke-width="0.5" />
<circle cx="505" cy="35" r="30" transform="rotate(352.653 505 505)" fill="cyan" stroke="black" stroke-width="0.5" />
<circle cx="505" cy="95" r="30" transform="rotate(0 505 505)" fill="cyan" stroke="black" stroke-width="0.5" />
<circle cx="505" cy="95" r="30" transform="rotate(8.57143 505 505)" fill="cyan" stroke="black" stroke-width="0.5" />
<circle cx="505" cy="95" r="30" transform="rotate(17.1429 505 505)" fill="cyan" stroke="black" stroke-width="0.5" />
<circle cx="505" cy="95" r="30" transform="rotate(25.7143 505 505)" fill="cyan" stroke="black" stroke-width="0.5" />
<circle cx="505" cy="95" r="30" transform="rotate(34.2857 505 505)" fill="cyan" stroke="black" stroke-width="0.5" />
<circle cx="505" cy="95" r="30" transform="rotate(42.8571 505 505)" fill="cyan" stroke="black" stroke-width="0.5" />
<circle cx="505" cy="95" r="30" transform="rotate(51.4286 505 505)" fill="cyan" stroke="black" stroke-width="0.5" />
<circle cx="505" cy="95" r="30" transform="rotate(60 505 505)" fill="cyan" stroke="black" stroke-width="0.5" />
<circle cx="505" cy="95" r="30" transform="rotate(68.5714 505 505)" fill="cyan" stroke="black" stroke-width="0.5" />
<circle cx="505" cy="95" r="30" transform="rotate(77.1429 505 505)" fill="cyan" stroke="black" stroke-width="0.5" />
<circle cx="505" cy="95" r="30" transform="rotate(85.7143 505 505)" fill="cyan" stroke="black" stroke-width="0.5" />
<circle cx="505" cy="95" r="30" transform="rotate(94.2857 505 505)" fill="cyan" stroke="black" stroke-width="0.5" />
<circle cx="505" cy="95" r="30" transform="rotate(102.857 505 505)" fill="cyan" stroke="black" stroke-width="0.5" />
<circle cx="505" cy="95" r="30" transform="rotate(111.429 505 505)" fill="cyan" stroke="black" stroke-width="0.5" />
<circle cx="505" cy="95" r="30" transform="rotate(120 505 505)" fill="cyan" stroke="black" stroke-width="0.5" />
<circle cx="505" cy="95" r="30" transform="rotate(128.571 505 505)" fill="cyan" stroke="black" stroke-width="0.5" />
<circle cx="505" cy="95" r="30" transform="rotate(137.143 505 505)" fill="cyan" stroke="black" stroke-width="0.5" />
<circle cx="505" cy="95" r="30" transform="rotate(145.714 505 505)" fill="cyan" stroke="black" stroke-width="0.5" />
<circle cx="505" cy="95" r="30" transform="rotate(154.286 505 505)" fill="cyan" stroke="black" stroke-width="0.5" />
<circle cx="505" cy="95" r="30" transform="rotate(162.857 505 505)" fill="cyan" stroke="black" stroke-width="0.5" />
<circle cx="505" cy="95" r="30" transform="rotate(171.429 505 505)" fill="cyan" stroke="black" stroke-width="0.5" />
<circle cx="505" cy="95" r="30" transform="rotate(180 505 505)" fill="cyan" stroke="black" stroke-width="0.5" />
<circle cx="505" cy="95" r="30" transform="rotate(188.571 505 505)" fill="cyan" stroke="black" stroke-width="0.5" />
<circle cx="505" cy="95" r="30" transform="rotate(197.143 505 505)" fill="cyan" stroke="black" stroke-width="0.5" />
<circle cx="505" cy="95" r="30" transform="rotate(205.714 505 505)" fill="cyan" stroke="black" stroke-width="0.5" />
<circle cx="505" cy="95" r="30" transform="rotate(214.286 505 505)" fill="cyan" stroke="black" stroke-width="0.5" />
<circle cx="505" cy="95" r="30" transform="rotate(222.857 505 505)" fill="cyan" stroke="black" stroke-width="0.5" />
<circle cx="505" cy="95" r="30" transform="rotate(231.429 505 505)" fill="cyan" stroke="black" stroke-width="0.5" />
<circle cx="505" cy="95" r="30" transform="rotate(240 505 505)" fill="cyan" stroke="black" stroke-width="0.5" />
<circle cx="505" cy="95" r="30" transform="rotate(248.571 505 505)" fill="cyan" stroke="black" stroke-width="0.5" />
<circle cx="505" cy="95" r="30" transform="rotate(257.143 505 505)" fill="cyan" stroke="black" stroke-width="0.5" />
<circle cx="505" cy="95" r="30" transform="rotate(265.714 505 505)" fill="cyan" stroke="black" stroke-width="0.5" />
<circle cx="505" cy="95" r="30" transform="rotate(274.286 505 505)" fill="cyan" stroke="black" stroke-width="0.5" />
<circle cx="505" cy="95" r="30" transform="rotate(282.857 505 505)" fill="cyan" stroke="black" stroke-width="0.5" />
<circle cx="505" cy="95" r="30" transform="rotate(291.429 505 505)" fill="cyan" stroke="black" stroke-width="0.5" />
<circle cx="505" cy="95" r="30" transform="rotate(300 505 505)" fill="cyan" stroke="black" stroke-width="0.5" />
<circle cx="505" cy="95" r="30" transform="rotate(308.571 505 505)" fill="cyan" stroke="black" stroke-width="0.5" />
<circle cx="505" cy="95" r="30" transform="rotate(317.143 505 505)" fill="cyan" stroke="black" stroke-width="0.5" />
<circle cx="505" cy="95" r="30" transform="rotate(325.714 505 505)" fill="cyan" stroke="black" stroke-width="0.5" />
<circle cx="505" cy="95" r="30" transform="rotate(334.286 505 505)" fill="cyan" stroke="black" stroke-width="0.5" />
<circle cx="505" cy="95" r="30" transform="rotate(342.857 505 505)" fill="cyan" stroke="black" stroke-width="0.5" />
<circle cx="505" cy="95" r="30" transform="rotate(351.429 505 505)" fill="cyan" stroke="black" stroke-width="0.5" />
<circle cx="505" cy="155" r="30" transform="rotate(0 505 505)" fill="cyan" stroke="black" stroke-width="0.5" />
<circle cx="505" cy="155" r="30" transform="rotate(10 505 505)" fill="cyan" stroke="black" stroke-width="0.5" />
<circle cx="505" cy="155" r="30" transform="rotate(20 505 505)" fill="cyan" stroke="black" stroke-width="0.5" />
<circle cx="505" cy="155" r="30" transform="rotate(30 505 505)" fill="cyan" stroke="black" stroke-width="0.5" />
<circle cx="505" cy="155" r="30" transform="rotate(40 505 505)" fill="cyan" stroke="black" stroke-width="0.5" />
<circle cx="505" cy="155" r="30" transform="rotate(50 505 505)" fill="cyan" stroke="black" stroke-width="0.5" />
<circle cx="505" cy="155" r="30" transform="rotate(60 505 505)" fill="cyan" stroke="black" stroke-width="0.5" />
<circle cx="505" cy="155" r="30" transform="rotate(70 505 505)" fill="cyan" stroke="black" stroke-width="0.5" />
<circle cx="505" cy="155" r="30" transform="rotate(80 505 505)" fill="cyan" stroke="black" stroke-width="0.5" />
<circle cx="505" cy="155" r="30" transform="rotate(90 505 505)" fill="cyan" stroke="black" stroke-width="0.5" />
<circle cx="505" cy="155" r="30" transform="rotate(100 505 505)" fill="cyan" stroke="black" stroke-width="0.5" />
<circle cx="505" cy="155" r="30" transform="rotate(110 505 505)" fill="cyan" stroke="black" stroke-width="0.5" />
<circle cx="505" cy="155" r="30" transform="rotate(120 505 505)" fill="cyan" stroke="black" stroke-width="0.5" />
<circle cx="505" cy="155" r="30" transform="rotate(130 505 505)" fill="cyan" stroke="black" stroke-width="0.5" />
<circle cx="505" cy="155" r="30" transform="rotate(140 505 505)" fill="cyan" stroke="black" stroke-width="0.5" />
<circle cx="505" cy="155" r="30" transform="rotate(150 505 505)" fill="cyan" stroke="black" stroke-width="0.5" />
<circle cx="505" cy="155" r="30" transform="rotate(160 505 505)" fill="cyan" stroke="black" stroke-width="0.5" />
<circle cx="505" cy="155" r="30" transform="rotate(170 505 505)" fill="cyan" stroke="black" stroke-width="0.5" />
<circle cx="505" cy="155" r="30" transform="rotate(180 505 505)" fill="cyan" stroke="black" stroke-width="0.5" />
<circle cx="505" cy="155" r="30" transform="rotate(190 505 505)" fill="cyan" stroke="black" stroke-width="0.5" />
<circle cx="505" cy="155" r="30" transform="rotate(200 505 505)" fill="cyan" stroke="black" stroke-width="0.5" />
<circle cx="505" cy="155" r="30" transform="rotate(210 505 505)" fill="cyan" stroke="black" stroke-width="0.5" />
<circle cx="505" cy="155" r="30" transform="rotate(220 505 505)" fill="cyan" stroke="black" stroke-width="0.5" />
<circle cx="505" cy="155" r="30" transform="rotate(230 505 505)" fill="cyan" stroke="black" stroke-width="0.5" />
<circle cx="505" cy="155" r="30" transform="rotate(240 505 505)" fill="cyan" stroke="black" stroke-width="0.5" />
<circle cx="505" cy="155" r="30" transform="rotate(250 505 505)" fill="cyan" stroke="black" stroke-width="0.5" />
<circle cx="505" cy="155" r="30" transform="rotate(260 505 505)" fill="cyan" stroke="black" stroke-width="0.5" />
<circle cx="505" cy="155" r="30" transform="rotate(270 505 505)" fill="cyan" stroke="black" stroke-width="0.5" />
<circle cx="505" cy="155" r="30" transform="rotate(280 505 505)" fill="cyan" stroke="black" stroke-width="0.5" />
<circle cx="505" cy="155" r="30" transform="rotate(290 505 505)" fill="cyan" stroke="black" stroke-width="0.5" />
<circle cx="505" cy="155" r="30" transform="rotate(300 505 505)" fill="cyan" stroke="black" stroke-width="0.5" />
<circle cx="505" cy="155" r="30" transform="rotate(310 505 505)" fill="cyan" stroke="black" stroke-width="0.5" />
<circle cx="505" cy="155" r="30" transform="rotate(320 505 505)" fill="cyan" stroke="black" stroke-width="0.5" />
<circle cx="505" cy="155" r="30" transform="rotate(330 505 505)" fill="cyan" stroke="black" stroke-width="0.5" />
<circle cx="505" cy="155" r="30" transform="rotate(340 505 505)" fill="cyan" stroke="black" stroke-width="0.5" />
<circle cx="505" cy="155" r="30" transform="rotate(350 505 505)" fill="cyan" stroke="black" stroke-width="0.5" />
<circle cx="505" cy="215" r="30" transform="rotate(0 505 505)" fill="cyan" stroke="black" stroke-width="0.5" />
<circle cx="505" cy="215" r="30" transform="rotate(12 505 505)" fill="cyan" stroke="black" stroke-width="0.5" />
<circle cx="505" cy="215" r="30" transform="rotate(24 505 505)" fill="cyan" stroke="black" stroke-width="0.5" />
<circle cx="505" cy="215" r="30" transform="rotate(36 505 505)" fill="cyan" stroke="black" stroke-width="0.5" />
<circle cx="505" cy="215" r="30" transform="rotate(48 505 505)" fill="cyan" stroke="black" stroke-width="0.5" />
<circle cx="505" cy="215" r="30" transform="rotate(60 505 505)" fill="cyan" stroke="black" stroke-width="0.5" />
<circle cx="505" cy="215" r="30" transform="rotate(72 505 505)" fill="cyan" stroke="black" stroke-width="0.5" />
<circle cx="505" cy="215" r="30" transform="rotate(84 505 505)" fill="cyan" stroke="black" stroke-width="0.5" />
<circle cx="505" cy="215" r="30" transform="rotate(96 505 505)" fill="cyan" stroke="black" stroke-width="0.5" />
<circle cx="505" cy="215" r="30" transform="rotate(108 505 505)" fill="cyan" stroke="black" stroke-width="0.5" />
<circle cx="505" cy="215" r="30" transform="rotate(120 505 505)" fill="cyan" stroke="black" stroke-width="0.5" />
<circle cx="505" cy="215" r="30" transform="rotate(132 505 505)" fill="cyan" stroke="black" stroke-width="0.5" />
<circle cx="505" cy="215" r="30" transform="rotate(144 505 505)" fill="cyan" stroke="black" stroke-width="0.5" />
<circle cx="505" cy="215" r="30" transform="rotate(156 505 505)" fill="cyan" stroke="black" stroke-width="0.5" />
<circle cx="505" cy="215" r="30" transform="rotate(168 505 505)" fill="cyan" stroke="black" stroke-width="0.5" />
<circle cx="505" cy="215" r="30" transform="rotate(180 505 505)" fill="cyan" stroke="black" stroke-width="0.5" />
<circle cx="505" cy="215" r="30" transform="rotate(192 505 505)" fill="cyan" stroke="black" stroke-width="0.5" />
<circle cx="505" cy="215" r="30" transform="rotate(204 505 505)" fill="cyan" stroke="black" stroke-width="0.5" />
<circle cx="505" cy="215" r="30" transform="rotate(216 505 505)" fill="cyan" stroke="black" stroke-width="0.5" />
<circle cx="505" cy="215" r="30" transform="rotate(228 505 505)" fill="cyan" stroke="black" stroke-width="0.5" />
<circle cx="505" cy="215" r="30" transform="rotate(240 505 505)" fill="cyan" stroke="black" stroke-width="0.5" />
<circle cx="505" cy="215" r="30" transform="rotate(252 505 505)" fill="cyan" stroke="black" stroke-width="0.5" />
<circle cx="505" cy="215" r="30" transform="rotate(264 505 505)" fill="cyan" stroke="black" stroke-width="0.5" />
<circle cx="505" cy="215" r="30" transform="rotate(276 505 505)" fill="cyan" stroke="black" stroke-width="0.5" />
<circle cx="505" cy="215" r="30" transform="rotate(288 505 505)" fill="cyan" stroke="black" stroke-width="0.5" />
<circle cx="505" cy="215" r="30" transform="rotate(300 505 505)" fill="cyan" stroke="black" stroke-width="0.5" />
<circle cx="505" cy="215" r="30" transform="rotate(312 505 505)" fill="cyan" stroke="black" stroke-width="0.5" />
<circle cx="505" cy="215" r="30" transform="rotate(324 505 505)" fill="cyan" stroke="black" stroke-width="0.5" />
<circle cx="505" cy="215" r="30" transform="rotate(336 505 505)" fill="cyan" stroke="black" stroke-width="0.5" />
<circle cx="505" cy="215" r="30" transform="rotate(348 505 505)" fill="cyan" stroke="black" stroke-width="0.5" />
<circle cx="505" cy="275" r="30" transform="rotate(0 505 505)" fill="cyan" stroke="black" stroke-width="0.5" />
<circle cx="505" cy="275" r="30" transform="rotate(15 505 505)" fill="cyan" stroke="black" stroke-width="0.5" />
<circle cx="505" cy="275" r="30" transform="rotate(30 505 505)" fill="cyan" stroke="black" stroke-width="0.5" />
<circle cx="505" cy="275" r="30" transform="rotate(45 505 505)" fill="cyan" stroke="black" stroke-width="0.5" />
<circle cx="505" cy="275" r="30" transform="rotate(60 505 505)" fill="cyan" stroke="black" stroke-width="0.5" />
<circle cx="505" cy="275" r="30" transform="rotate(75 505 505)" fill="cyan" stroke="black" stroke-width="0.5" />
<circle cx="505" cy="275" r="30" transform="rotate(90 505 505)" fill="cyan" stroke="black" stroke-width="0.5" />
<circle cx="505" cy="275" r="30" transform="rotate(105 505 505)" fill="cyan" stroke="black" stroke-width="0.5" />
<circle cx="505" cy="275" r="30" transform="rotate(120 505 505)" fill="cyan" stroke="black" stroke-width="0.5" />
<circle cx="505" cy="275" r="30" transform="rotate(135 505 505)" fill="cyan" stroke="black" stroke-width="0.5" />
<circle cx="505" cy="275" r="30" transform="rotate(150 505 505)" fill="cyan" stroke="black" stroke-width="0.5" />
<circle cx="505" cy="275" r="30" transform="rotate(165 505 505)" fill="cyan" stroke="black" stroke-width="0.5" />
<circle cx="505" cy="275" r="30" transform="rotate(180 505 505)" fill="cyan" stroke="black" stroke-width="0.5" />
<circle cx="505" cy="275" r="30" transform="rotate(195 505 505)" fill="cyan" stroke="black" stroke-width="0.5" />
<circle cx="505" cy="275" r="30" transform="rotate(210 505 505)" fill="cyan" stroke="black" stroke-width="0.5" />
<circle cx="505" cy="275" r="30" transform="rotate(225 505 505)" fill="cyan" stroke="black" stroke-width="0.5" />
<circle cx="505" cy="275" r="30" transform="rotate(240 505 505)" fill="cyan" stroke="black" stroke-width="0.5" />
<circle cx="505" cy="275" r="30" transform="rotate(255 505 505)" fill="cyan" stroke="black" stroke-width="0.5" />
<circle cx="505" cy="275" r="30" transform="rotate(270 505 505)" fill="cyan" stroke="black" stroke-width="0.5" />
<circle cx="505" cy="275" r="30" transform="rotate(285 505 505)" fill="cyan" stroke="black" stroke-width="0.5" />
<circle cx="505" cy="275" r="30" transform="rotate(300 505 505)" fill="cyan" stroke="black" stroke-width="0.5" />
<circle cx="505" cy="275" r="30" transform="rotate(315 505 505)" fill="cyan" stroke="black" stroke-width="0.5" />
<circle cx="505" cy="275" r="30" transform="rotate(330 505 505)" fill="cyan" stroke="black" stroke-width="0.5" />
<circle cx="505" cy="275" r="30" transform="rotate(345 505 505)" fill="cyan" stroke="black" stroke-width="0.5" />
<circle cx="505" cy="335" r="30" transform="rotate(0 505 505)" fill="cyan" stroke="black" stroke-width="0.5" />
<circle cx="505" cy="335" r="30" transform="rotate(21.1765 505 505)" fill="cyan" stroke="black" stroke-width="0.5" />
<circle cx="505" cy="335" r="30" transform="rotate(42.3529 505 505)" fill="cyan" stroke="black" stroke-width="0.5" />
<circle cx="505" cy="335" r="30" transform="rotate(63.5294 505 505)" fill="cyan" stroke="black" stroke-width="0.5" />
<circle cx="505" cy="335" r="30" transform="rotate(84.7059 505 505)" fill="cyan" stroke="black" stroke-width="0.5" />
<circle cx="505" cy="335" r="30" transform="rotate(105.882 505 505)" fill="cyan" stroke="black" stroke-width="0.5" />
<circle cx="505" cy="335" r="30" transform="rotate(127.059 505 505)" fill="cyan" stroke="black" stroke-width="0.5" />
<circle cx="505" cy="335" r="30" transform="rotate(148.235 505 505)" fill="cyan" stroke="black" stroke-width="0.5" />
<circle cx="505" cy="335" r="30" transform="rotate(169.412 505 505)" fill="cyan" stroke="black" stroke-width="0.5" />
<circle cx="505" cy="335" r="30" transform="rotate(190.588 505 505)" fill="cyan" stroke="black" stroke-width="0.5" />
<circle cx="505" cy="335" r="30" transform="rotate(211.765 505 505)" fill="cyan" stroke="black" stroke-width="0.5" />
<circle cx="505" cy="335" r="30" transform="rotate(232.941 505 505)" fill="cyan" stroke="black" stroke-width="0.5" />
<circle cx="505" cy="335" r="30" transform="rotate(254.118 505 505)" fill="cyan" stroke="black" stroke-width="0.5" />
<circle cx="505" cy="335" r="30" transform="rotate(275.294 505 505)" fill="cyan" stroke="black" stroke-width="0.5" />
<circle cx="505" cy="335" r="30" transform="rotate(296.471 505 505)" fill="cyan" stroke="black" stroke-width="0.5" />
<circle cx="505" cy="335" r="30" transform="rotate(317.647 505 505)" fill="cyan" stroke="black" stroke-width="0.5" />
<circle cx="505" cy="335" r="30" transform="rotate(338.824 505 505)" fill="cyan" stroke="black" stroke-width="0.5" />
<circle cx="505" cy="395" r="30" transform="rotate(0 505 505)" fill="cyan" stroke="black" stroke-width="0.5" />
<circle cx="505" cy="395" r="30" transform="rotate(32.7273 505 505)" fill="cyan" stroke="black" stroke-width="0.5" />
<circle cx="505" cy="395" r="30" transform="rotate(65.4545 505 505)" fill="cyan" stroke="black" stroke-width="0.5" />
<circle cx="505" cy="395" r="30" transform="rotate(98.1818 505 505)" fill="cyan" stroke="black" stroke-width="0.5" />
<circle cx="505" cy="395" r="30" transform="rotate(130.909 505 505)" fill="cyan" stroke="black" stroke-width="0.5" />
<circle cx="505" cy="395" r="30" transform="rotate(163.636 505 505)" fill="cyan" stroke="black" stroke-width="0.5" />
<circle cx="505" cy="395" r="30" transform="rotate(196.364 505 505)" fill="cyan" stroke="black" stroke-width="0.5" />
<circle cx="505" cy="395" r="30" transform="rotate(229.091 505 505)" fill="cyan" stroke="black" stroke-width="0.5" />
<circle cx="505" cy="395" r="30" transform="rotate(261.818 505 505)" fill="cyan" stroke="black" stroke-width="0.5" />
<circle cx="505" cy="395" r="30" transform="rotate(294.545 505 505)" fill="cyan" stroke="black" stroke-width="0.5" />
<circle cx="505" cy="395" r="30" transform="rotate(327.273 505 505)" fill="cyan" stroke="black" stroke-width="0.5" />
<circle cx="505" cy="455" r="30" transform="rotate(0 505 505)" fill="cyan" stroke="black" stroke-width="0.5" />
<circle cx="505" cy="455" r="30" transform="rotate(90 505 505)" fill="cyan" stroke="black" stroke-width="0.5" />
<circle cx="505" cy="455" r="30" transform="rotate(180 505 505)" fill="cyan" stroke="black" stroke-width="0.5" />
<circle cx="505" cy="455" r="30" transform="rotate(270 505 505)" fill="cyan" stroke="black" stroke-width="0.5" />
</svg>
