<svg version="1.1" baseProfile="full" xmlns="http://www.w3.org/2000/svg">
<rect x="0"  y="0" width="500" height="600" transform="rotate(0 0 0)" fill="brown" stroke="black" stroke-width="0.5" />
<rect x="0"  y="0" width="30" height="75" transform="rotate(0 0 0)" fill="cyan" stroke="black" stroke-width="0.5" />
<rect x="30"  y="0" width="30" height="75" transform="rotate(0 0 0)" fill="cyan" stroke="black" stroke-width="0.5" />
<rect x="60"  y="0" width="30" height="75" transform="rotate(0 0 0)" fill="cyan" stroke="black" stroke-width="0.5" />
<rect x="90"  y="0" width="30" height="75" transform="rotate(0 0 0)" fill="cyan" stroke="black" stroke-width="0.5" />
<rect x="120"  y="0" width="30" height="75" transform="rotate(0 0 0)" fill="cyan" stroke="black" stroke-width="0.5" />
<rect x="150"  y="0" width="30" height="75" transform="rotate(0 0 0)" fill="cyan" stroke="black" stroke-width="0.5" />
<rect x="180"  y="0" width="30" height="75" transform="rotate(0 0 0)" fill="cyan" stroke="black" stroke-width="0.5" />
<rect x="210"  y="0" width="30" height="75" transform="rotate(0 0 0)" fill="cyan" stroke="black" stroke-width="0.5" />
<rect x="240"  y="0" width="30" height="75" transform="rotate(0 0 0)" fill="cyan" stroke="black" stroke-width="0.5" />
<rect x="270"  y="0" width="30" height="75" transform="rotate(0 0 0)" fill="cyan" stroke="black" stroke-width="0.5" />
<rect x="300"  y="0" width="30" height="75" transform="rotate(0 0 0)" fill="cyan" stroke="black" stroke-width="0.5" />
<rect x="330"  y="0" width="30" height="75" transform="rotate(0 0 0)" fill="cyan" stroke="black" stroke-width="0.5" />
<rect x="360"  y="0" width="30" height="75" transform="rotate(0 0 0)" fill="cyan" stroke="black" stroke-width="0.5" />
<rect x="390"  y="0" width="30" height="75" transform="rotate(0 0 0)" fill="cyan" stroke="black" stroke-width="0.5" />
<rect x="420"  y="0" width="30" height="75" transform="rotate(0 0 0)" fill="cyan" stroke="black" stroke-width="0.5" />
<rect x="450"  y="0" width="30" height="75" transform="rotate(0 0 0)" fill="cyan" stroke="black" stroke-width="0.5" />
<rect x="0"  y="75" width="30" height="75" transform="rotate(0 0 0)" fill="cyan" stroke="black" stroke-width="0.5" />
<rect x="30"  y="75" width="30" height="75" transform="rotate(0 0 0)" fill="cyan" stroke="black" stroke-width="0.5" />
<rect x="60"  y="75" width="30" height="75" transform="rotate(0 0 0)" fill="cyan" stroke="black" stroke-width="0.5" />
<rect x="90"  y="75" width="30" height="75" transform="rotate(0 0 0)" fill="cyan" stroke="black" stroke-width="0.5" />
<rect x="120"  y="75" width="30" height="75" transform="rotate(0 0 0)" fill="cyan" stroke="black" stroke-width="0.5" />
<rect x="150"  y="75" width="30" height="75" transform="rotate(0 0 0)" fill="cyan" stroke="black" stroke-width="0.5" />
<rect x="180"  y="75" width="30" height="75" transform="rotate(0 0 0)" fill="cyan" stroke="black" stroke-width="0.5" />
<rect x="210"  y="75" width="30" height="75" transform="rotate(0 0 0)" fill="cyan" stroke="black" stroke-width="0.5" />
<rect x="240"  y="75" width="30" height="75" transform="rotate(0 0 0)" fill="cyan" stroke="black" stroke-width="0.5" />
<rect x="270"  y="75" width="30" height="75" transform="rotate(0 0 0)" fill="cyan" stroke="black" stroke-width="0.5" />
<rect x="300"  y="75" width="30" height="75" transform="rotate(0 0 0)" fill="cyan" stroke="black" stroke-width="0.5" />
<rect x="330"  y="75" width="30" height="75" transform="rotate(0 0 0)" fill="cyan" stroke="black" stroke-width="0.5" />
<rect x="360"  y="75" width="30" height="75" transform="rotate(0 0 0)" fill="cyan" stroke="black" stroke-width="0.5" />
<rect x="390"  y="75" width="30" height="75" transform="rotate(0 0 0)" fill="cyan" stroke="black" stroke-width="0.5" />
<rect x="420"  y="75" width="30" height="75" transform="rotate(0 0 0)" fill="cyan" stroke="black" stroke-width="0.5" />
<rect x="450"  y="75" width="30" height="75" transform="rotate(0 0 0)" fill="cyan" stroke="black" stroke-width="0.5" />
<rect x="0"  y="150" width="30" height="75" transform="rotate(0 0 0)" fill="cyan" stroke="black" stroke-width="0.5" />
<rect x="30"  y="150" width="30" height="75" transform="rotate(0 0 0)" fill="cyan" stroke="black" stroke-width="0.5" />
<rect x="60"  y="150" width="30" height="75" transform="rotate(0 0 0)" fill="cyan" stroke="black" stroke-width="0.5" />
<rect x="90"  y="150" width="30" height="75" transform="rotate(0 0 0)" fill="cyan" stroke="black" stroke-width="0.5" />
<rect x="120"  y="150" width="30" height="75" transform="rotate(0 0 0)" fill="cyan" stroke="black" stroke-width="0.5" />
<rect x="150"  y="150" width="30" height="75" transform="rotate(0 0 0)" fill="cyan" stroke="black" stroke-width="0.5" />
<rect x="180"  y="150" width="30" height="75" transform="rotate(0 0 0)" fill="cyan" stroke="black" stroke-width="0.5" />
<rect x="210"  y="150" width="30" height="75" transform="rotate(0 0 0)" fill="cyan" stroke="black" stroke-width="0.5" />
<rect x="240"  y="150" width="30" height="75" transform="rotate(0 0 0)" fill="cyan" stroke="black" stroke-width="0.5" />
<rect x="270"  y="150" width="30" height="75" transform="rotate(0 0 0)" fill="cyan" stroke="black" stroke-width="0.5" />
<rect x="300"  y="150" width="30" height="75" transform="rotate(0 0 0)" fill="cyan" stroke="black" stroke-width="0.5" />
<rect x="330"  y="150" width="30" height="75" transform="rotate(0 0 0)" fill="cyan" stroke="black" stroke-width="0.5" />
<rect x="360"  y="150" width="30" height="75" transform="rotate(0 0 0)" fill="cyan" stroke="black" stroke-width="0.5" />
<rect x="390"  y="150" width="30" height="75" transform="rotate(0 0 0)" fill="cyan" stroke="black" stroke-width="0.5" />
<rect x="420"  y="150" width="30" height="75" transform="rotate(0 0 0)" fill="cyan" stroke="black" stroke-width="0.5" />
<rect x="450"  y="150" width="30" height="75" transform="rotate(0 0 0)" fill="cyan" stroke="black" stroke-width="0.5" />
<rect x="0"  y="225" width="30" height="75" transform="rotate(0 0 0)" fill="cyan" stroke="black" stroke-width="0.5" />
<rect x="30"  y="225" width="30" height="75" transform="rotate(0 0 0)" fill="cyan" stroke="black" stroke-width="0.5" />
<rect x="60"  y="225" width="30" height="75" transform="rotate(0 0 0)" fill="cyan" stroke="black" stroke-width="0.5" />
<rect x="90"  y="225" width="30" height="75" transform="rotate(0 0 0)" fill="cyan" stroke="black" stroke-width="0.5" />
<rect x="120"  y="225" width="30" height="75" transform="rotate(0 0 0)" fill="cyan" stroke="black" stroke-width="0.5" />
<rect x="150"  y="225" width="30" height="75" transform="rotate(0 0 0)" fill="cyan" stroke="black" stroke-width="0.5" />
<rect x="180"  y="225" width="30" height="75" transform="rotate(0 0 0)" fill="cyan" stroke="black" stroke-width="0.5" />
<rect x="210"  y="225" width="30" height="75" transform="rotate(0 0 0)" fill="cyan" stroke="black" stroke-width="0.5" />
<rect x="240"  y="225" width="30" height="75" transform="rotate(0 0 0)" fill="cyan" stroke="black" stroke-width="0.5" />
<rect x="270"  y="225" width="30" height="75" transform="rotate(0 0 0)" fill="cyan" stroke="black" stroke-width="0.5" />
<rect x="300"  y="225" width="30" height="75" transform="rotate(0 0 0)" fill="cyan" stroke="black" stroke-width="0.5" />
<rect x="330"  y="225" width="30" height="75" transform="rotate(0 0 0)" fill="cyan" stroke="black" stroke-width="0.5" />
<rect x="360"  y="225" width="30" height="75" transform="rotate(0 0 0)" fill="cyan" stroke="black" stroke-width="0.5" />
<rect x="390"  y="225" width="30" height="75" transform="rotate(0 0 0)" fill="cyan" stroke="black" stroke-width="0.5" />
<rect x="420"  y="225" width="30" height="75" transform="rotate(0 0 0)" fill="cyan" stroke="black" stroke-width="0.5" />
<rect x="450"  y="225" width="30" height="75" transform="rotate(0 0 0)" fill="cyan" stroke="black" stroke-width="0.5" />
<rect x="0"  y="300" width="30" height="75" transform="rotate(0 0 0)" fill="cyan" stroke="black" stroke-width="0.5" />
<rect x="30"  y="300" width="30" height="75" transform="rotate(0 0 0)" fill="cyan" stroke="black" stroke-width="0.5" />
<rect x="60"  y="300" width="30" height="75" transform="rotate(0 0 0)" fill="cyan" stroke="black" stroke-width="0.5" />
<rect x="90"  y="300" width="30" height="75" transform="rotate(0 0 0)" fill="cyan" stroke="black" stroke-width="0.5" />
<rect x="120"  y="300" width="30" height="75" transform="rotate(0 0 0)" fill="cyan" stroke="black" stroke-width="0.5" />
<rect x="150"  y="300" width="30" height="75" transform="rotate(0 0 0)" fill="cyan" stroke="black" stroke-width="0.5" />
<rect x="180"  y="300" width="30" height="75" transform="rotate(0 0 0)" fill="cyan" stroke="black" stroke-width="0.5" />
<rect x="210"  y="300" width="30" height="75" transform="rotate(0 0 0)" fill="cyan" stroke="black" stroke-width="0.5" />
<rect x="240"  y="300" width="30" height="75" transform="rotate(0 0 0)" fill="cyan" stroke="black" stroke-width="0.5" />
<rect x="270"  y="300" width="30" height="75" transform="rotate(0 0 0)" fill="cyan" stroke="black" stroke-width="0.5" />
<rect x="300"  y="300" width="30" height="75" transform="rotate(0 0 0)" fill="cyan" stroke="black" stroke-width="0.5" />
<rect x="330"  y="300" width="30" height="75" transform="rotate(0 0 0)" fill="cyan" stroke="black" stroke-width="0.5" />
<rect x="360"  y="300" width="30" height="75" transform="rotate(0 0 0)" fill="cyan" stroke="black" stroke-width="0.5" />
<rect x="390"  y="300" width="30" height="75" transform="rotate(0 0 0)" fill="cyan" stroke="black" stroke-width="0.5" />
<rect x="420"  y="300" width="30" height="75" transform="rotate(0 0 0)" fill="cyan" stroke="black" stroke-width="0.5" />
<rect x="450"  y="300" width="30" height="75" transform="rotate(0 0 0)" fill="cyan" stroke="black" stroke-width="0.5" />
<rect x="0"  y="375" width="30" height="75" transform="rotate(0 0 0)" fill="cyan" stroke="black" stroke-width="0.5" />
<rect x="30"  y="375" width="30" height="75" transform="rotate(0 0 0)" fill="cyan" stroke="black" stroke-width="0.5" />
<rect x="60"  y="375" width="30" height="75" transform="rotate(0 0 0)" fill="cyan" stroke="black" stroke-width="0.5" />
<rect x="90"  y="375" width="30" height="75" transform="rotate(0 0 0)" fill="cyan" stroke="black" stroke-width="0.5" />
<rect x="120"  y="375" width="30" height="75" transform="rotate(0 0 0)" fill="cyan" stroke="black" stroke-width="0.5" />
<rect x="150"  y="375" width="30" height="75" transform="rotate(0 0 0)" fill="cyan" stroke="black" stroke-width="0.5" />
<rect x="180"  y="375" width="30" height="75" transform="rotate(0 0 0)" fill="cyan" stroke="black" stroke-width="0.5" />
<rect x="210"  y="375" width="30" height="75" transform="rotate(0 0 0)" fill="cyan" stroke="black" stroke-width="0.5" />
<rect x="240"  y="375" width="30" height="75" transform="rotate(0 0 0)" fill="cyan" stroke="black" stroke-width="0.5" />
<rect x="270"  y="375" width="30" height="75" transform="rotate(0 0 0)" fill="cyan" stroke="black" stroke-width="0.5" />
<rect x="300"  y="375" width="30" height="75" transform="rotate(0 0 0)" fill="cyan" stroke="black" stroke-width="0.5" />
<rect x="330"  y="375" width="30" height="75" transform="rotate(0 0 0)" fill="cyan" stroke="black" stroke-width="0.5" />
<rect x="360"  y="375" width="30" height="75" transform="rotate(0 0 0)" fill="cyan" stroke="black" stroke-width="0.5" />
<rect x="390"  y="375" width="30" height="75" transform="rotate(0 0 0)" fill="cyan" stroke="black" stroke-width="0.5" />
<rect x="420"  y="375" width="30" height="75" transform="rotate(0 0 0)" fill="cyan" stroke="black" stroke-width="0.5" />
<rect x="450"  y="375" width="30" height="75" transform="rotate(0 0 0)" fill="cyan" stroke="black" stroke-width="0.5" />
<rect x="0"  y="450" width="30" height="75" transform="rotate(0 0 0)" fill="cyan" stroke="black" stroke-width="0.5" />
<rect x="30"  y="450" width="30" height="75" transform="rotate(0 0 0)" fill="cyan" stroke="black" stroke-width="0.5" />
<rect x="60"  y="450" width="30" height="75" transform="rotate(0 0 0)" fill="cyan" stroke="black" stroke-width="0.5" />
<rect x="90"  y="450" width="30" height="75" transform="rotate(0 0 0)" fill="cyan" stroke="black" stroke-width="0.5" />
<rect x="120"  y="450" width="30" height="75" transform="rotate(0 0 0)" fill="cyan" stroke="black" stroke-width="0.5" />
<rect x="150"  y="450" width="30" height="75" transform="rotate(0 0 0)" fill="cyan" stroke="black" stroke-width="0.5" />
<rect x="180"  y="450" width="30" height="75" transform="rotate(0 0 0)" fill="cyan" stroke="black" stroke-width="0.5" />
<rect x="210"  y="450" width="30" height="75" transform="rotate(0 0 0)" fill="cyan" stroke="black" stroke-width="0.5" />
<rect x="240"  y="450" width="30" height="75" transform="rotate(0 0 0)" fill="cyan" stroke="black" stroke-width="0.5" />
<rect x="270"  y="450" width="30" height="75" transform="rotate(0 0 0)" fill="cyan" stroke="black" stroke-width="0.5" />
<rect x="300"  y="450" width="30" height="75" transform="rotate(0 0 0)" fill="cyan" stroke="black" stroke-width="0.5" />
<rect x="330"  y="450" width="30" height="75" transform="rotate(0 0 0)" fill="cyan" stroke="black" stroke-width="0.5" />
<rect x="360"  y="450" width="30" height="75" transform="rotate(0 0 0)" fill="cyan" stroke="black" stroke-width="0.5" />
<rect x="390"  y="450" width="30" height="75" transform="rotate(0 0 0)" fill="cyan" stroke="black" stroke-width="0.5" />
<rect x="420"  y="450" width="30" height="75" transform="rotate(0 0 0)" fill="cyan" stroke="black" stroke-width="0.5" />
<rect x="450"  y="450" width="30" height="75" transform="rotate(0 0 0)" fill="cyan" stroke="black" stroke-width="0.5" />
<rect x="0"  y="525" width="30" height="75" transform="rotate(0 0 0)" fill="cyan" stroke="black" stroke-width="0.5" />
<rect x="30"  y="525" width="30" height="75" transform="rotate(0 0 0)" fill="cyan" stroke="black" stroke-width="0.5" />
<rect x="60"  y="525" width="30" height="75" transform="rotate(0 0 0)" fill="cyan" stroke="black" stroke-width="0.5" />
<rect x="90"  y="525" width="30" height="75" transform="rotate(0 0 0)" fill="cyan" stroke="black" stroke-width="0.5" />
<rect x="120"  y="525" width="30" height="75" transform="rotate(0 0 0)" fill="cyan" stroke="black" stroke-width="0.5" />
<rect x="150"  y="525" width="30" height="75" transform="rotate(0 0 0)" fill="cyan" stroke="black" stroke-width="0.5" />
<rect x="180"  y="525" width="30" height="75" transform="rotate(0 0 0)" fill="cyan" stroke="black" stroke-width="0.5" />
<rect x="210"  y="525" width="30" height="75" transform="rotate(0 0 0)" fill="cyan" stroke="black" stroke-width="0.5" />
<rect x="240"  y="525" width="30" height="75" transform="rotate(0 0 0)" fill="cyan" stroke="black" stroke-width="0.5" />
<rect x="270"  y="525" width="30" height="75" transform="rotate(0 0 0)" fill="cyan" stroke="black" stroke-width="0.5" />
<rect x="300"  y="525" width="30" height="75" transform="rotate(0 0 0)" fill="cyan" stroke="black" stroke-width="0.5" />
<rect x="330"  y="525" width="30" height="75" transform="rotate(0 0 0)" fill="cyan" stroke="black" stroke-width="0.5" />
<rect x="360"  y="525" width="30" height="75" transform="rotate(0 0 0)" fill="cyan" stroke="black" stroke-width="0.5" />
<rect x="390"  y="525" width="30" height="75" transform="rotate(0 0 0)" fill="cyan" stroke="black" stroke-width="0.5" />
<rect x="420"  y="525" width="30" height="75" transform="rotate(0 0 0)" fill="cyan" stroke="black" stroke-width="0.5" />
<rect x="450"  y="525" width="30" height="75" transform="rotate(0 0 0)" fill="cyan" stroke="black" stroke-width="0.5" />
</svg>
