<svg version="1.1" baseProfile="full" xmlns="http://www.w3.org/2000/svg">
<circle cx="510" cy="510" r="500" transform="rotate(0 0 0)" fill="dimgrey" stroke="black" stroke-width="0.5" />
<rect x="156.447"  y="156.447" width="75" height="30" transform="rotate(0 146.447 146.447)" fill="cyan" stroke="black" stroke-width="0.5" />
<rect x="231.447"  y="156.447" width="75" height="30" transform="rotate(0 146.447 146.447)" fill="cyan" stroke="black" stroke-width="0.5" />
<rect x="306.447"  y="156.447" width="75" height="30" transform="rotate(0 146.447 146.447)" fill="cyan" stroke="black" stroke-width="0.5" />
<rect x="381.447"  y="156.447" width="75" height="30" transform="rotate(0 146.447 146.447)" fill="cyan" stroke="black" stroke-width="0.5" />
<rect x="456.447"  y="156.447" width="75" height="30" transform="rotate(0 146.447 146.447)" fill="cyan" stroke="black" stroke-width="0.5" />
<rect x="531.447"  y="156.447" width="75" height="30" transform="rotate(0 146.447 146.447)" fill="cyan" stroke="black" stroke-width="0.5" />
<rect x="606.447"  y="156.447" width="75" height="30" transform="rotate(0 146.447 146.447)" fill="cyan" stroke="black" stroke-width="0.5" />
<rect x="681.447"  y="156.447" width="75" height="30" transform="rotate(0 146.447 146.447)" fill="cyan" stroke="black" stroke-width="0.5" />
<rect x="756.447"  y="156.447" width="75" height="30" transform="rotate(0 146.447 146.447)" fill="cyan" stroke="black" stroke-width="0.5" />
<rect x="156.447"  y="186.447" width="75" height="30" transform="rotate(0 146.447 146.447)" fill="cyan" stroke="black" stroke-width="0.5" />
<rect x="231.447"  y="186.447" width="75" height="30" transform="rotate(0 146.447 146.447)" fill="cyan" stroke="black" stroke-width="0.5" />
<rect x="306.447"  y="186.447" width="75" height="30" transform="rotate(0 146.447 146.447)" fill="cyan" stroke="black" stroke-width="0.5" />
<rect x="381.447"  y="186.447" width="75" height="30" transform="rotate(0 146.447 146.447)" fill="cyan" stroke="black" stroke-width="0.5" />
<rect x="456.447"  y="186.447" width="75" height="30" transform="rotate(0 146.447 146.447)" fill="cyan" stroke="black" stroke-width="0.5" />
<rect x="531.447"  y="186.447" width="75" height="30" transform="rotate(0 146.447 146.447)" fill="cyan" stroke="black" stroke-width="0.5" />
<rect x="606.447"  y="186.447" width="75" height="30" transform="rotate(0 146.447 146.447)" fill="cyan" stroke="black" stroke-width="0.5" />
<rect x="681.447"  y="186.447" width="75" height="30" transform="rotate(0 146.447 146.447)" fill="cyan" stroke="black" stroke-width="0.5" />
<rect x="756.447"  y="186.447" width="75" height="30" transform="rotate(0 146.447 146.447)" fill="cyan" stroke="black" stroke-width="0.5" />
<rect x="156.447"  y="216.447" width="75" height="30" transform="rotate(0 146.447 146.447)" fill="cyan" stroke="black" stroke-width="0.5" />
<rect x="231.447"  y="216.447" width="75" height="30" transform="rotate(0 146.447 146.447)" fill="cyan" stroke="black" stroke-width="0.5" />
<rect x="306.447"  y="216.447" width="75" height="30" transform="rotate(0 146.447 146.447)" fill="cyan" stroke="black" stroke-width="0.5" />
<rect x="381.447"  y="216.447" width="75" height="30" transform="rotate(0 146.447 146.447)" fill="cyan" stroke="black" stroke-width="0.5" />
<rect x="456.447"  y="216.447" width="75" height="30" transform="rotate(0 146.447 146.447)" fill="cyan" stroke="black" stroke-width="0.5" />
<rect x="531.447"  y="216.447" width="75" height="30" transform="rotate(0 146.447 146.447)" fill="cyan" stroke="black" stroke-width="0.5" />
<rect x="606.447"  y="216.447" width="75" height="30" transform="rotate(0 146.447 146.447)" fill="cyan" stroke="black" stroke-width="0.5" />
<rect x="681.447"  y="216.447" width="75" height="30" transform="rotate(0 146.447 146.447)" fill="cyan" stroke="black" stroke-width="0.5" />
<rect x="756.447"  y="216.447" width="75" height="30" transform="rotate(0 146.447 146.447)" fill="cyan" stroke="black" stroke-width="0.5" />
<rect x="156.447"  y="246.447" width="75" height="30" transform="rotate(0 146.447 146.447)" fill="cyan" stroke="black" stroke-width="0.5" />
<rect x="231.447"  y="246.447" width="75" height="30" transform="rotate(0 146.447 146.447)" fill="cyan" stroke="black" stroke-width="0.5" />
<rect x="306.447"  y="246.447" width="75" height="30" transform="rotate(0 146.447 146.447)" fill="cyan" stroke="black" stroke-width="0.5" />
<rect x="381.447"  y="246.447" width="75" height="30" transform="rotate(0 146.447 146.447)" fill="cyan" stroke="black" stroke-width="0.5" />
<rect x="456.447"  y="246.447" width="75" height="30" transform="rotate(0 146.447 146.447)" fill="cyan" stroke="black" stroke-width="0.5" />
<rect x="531.447"  y="246.447" width="75" height="30" transform="rotate(0 146.447 146.447)" fill="cyan" stroke="black" stroke-width="0.5" />
<rect x="606.447"  y="246.447" width="75" height="30" transform="rotate(0 146.447 146.447)" fill="cyan" stroke="black" stroke-width="0.5" />
<rect x="681.447"  y="246.447" width="75" height="30" transform="rotate(0 146.447 146.447)" fill="cyan" stroke="black" stroke-width="0.5" />
<rect x="756.447"  y="246.447" width="75" height="30" transform="rotate(0 146.447 146.447)" fill="cyan" stroke="black" stroke-width="0.5" />
<rect x="156.447"  y="276.447" width="75" height="30" transform="rotate(0 146.447 146.447)" fill="cyan" stroke="black" stroke-width="0.5" />
<rect x="231.447"  y="276.447" width="75" height="30" transform="rotate(0 146.447 146.447)" fill="cyan" stroke="black" stroke-width="0.5" />
<rect x="306.447"  y="276.447" width="75" height="30" transform="rotate(0 146.447 146.447)" fill="cyan" stroke="black" stroke-width="0.5" />
<rect x="381.447"  y="276.447" width="75" height="30" transform="rotate(0 146.447 146.447)" fill="cyan" stroke="black" stroke-width="0.5" />
<rect x="456.447"  y="276.447" width="75" height="30" transform="rotate(0 146.447 146.447)" fill="cyan" stroke="black" stroke-width="0.5" />
<rect x="531.447"  y="276.447" width="75" height="30" transform="rotate(0 146.447 146.447)" fill="cyan" stroke="black" stroke-width="0.5" />
<rect x="606.447"  y="276.447" width="75" height="30" transform="rotate(0 146.447 146.447)" fill="cyan" stroke="black" stroke-width="0.5" />
<rect x="681.447"  y="276.447" width="75" height="30" transform="rotate(0 146.447 146.447)" fill="cyan" stroke="black" stroke-width="0.5" />
<rect x="756.447"  y="276.447" width="75" height="30" transform="rotate(0 146.447 146.447)" fill="cyan" stroke="black" stroke-width="0.5" />
<rect x="156.447"  y="306.447" width="75" height="30" transform="rotate(0 146.447 146.447)" fill="cyan" stroke="black" stroke-width="0.5" />
<rect x="231.447"  y="306.447" width="75" height="30" transform="rotate(0 146.447 146.447)" fill="cyan" stroke="black" stroke-width="0.5" />
<rect x="306.447"  y="306.447" width="75" height="30" transform="rotate(0 146.447 146.447)" fill="cyan" stroke="black" stroke-width="0.5" />
<rect x="381.447"  y="306.447" width="75" height="30" transform="rotate(0 146.447 146.447)" fill="cyan" stroke="black" stroke-width="0.5" />
<rect x="456.447"  y="306.447" width="75" height="30" transform="rotate(0 146.447 146.447)" fill="cyan" stroke="black" stroke-width="0.5" />
<rect x="531.447"  y="306.447" width="75" height="30" transform="rotate(0 146.447 146.447)" fill="cyan" stroke="black" stroke-width="0.5" />
<rect x="606.447"  y="306.447" width="75" height="30" transform="rotate(0 146.447 146.447)" fill="cyan" stroke="black" stroke-width="0.5" />
<rect x="681.447"  y="306.447" width="75" height="30" transform="rotate(0 146.447 146.447)" fill="cyan" stroke="black" stroke-width="0.5" />
<rect x="756.447"  y="306.447" width="75" height="30" transform="rotate(0 146.447 146.447)" fill="cyan" stroke="black" stroke-width="0.5" />
<rect x="156.447"  y="336.447" width="75" height="30" transform="rotate(0 146.447 146.447)" fill="cyan" stroke="black" stroke-width="0.5" />
<rect x="231.447"  y="336.447" width="75" height="30" transform="rotate(0 146.447 146.447)" fill="cyan" stroke="black" stroke-width="0.5" />
<rect x="306.447"  y="336.447" width="75" height="30" transform="rotate(0 146.447 146.447)" fill="cyan" stroke="black" stroke-width="0.5" />
<rect x="381.447"  y="336.447" width="75" height="30" transform="rotate(0 146.447 146.447)" fill="cyan" stroke="black" stroke-width="0.5" />
<rect x="456.447"  y="336.447" width="75" height="30" transform="rotate(0 146.447 146.447)" fill="cyan" stroke="black" stroke-width="0.5" />
<rect x="531.447"  y="336.447" width="75" height="30" transform="rotate(0 146.447 146.447)" fill="cyan" stroke="black" stroke-width="0.5" />
<rect x="606.447"  y="336.447" width="75" height="30" transform="rotate(0 146.447 146.447)" fill="cyan" stroke="black" stroke-width="0.5" />
<rect x="681.447"  y="336.447" width="75" height="30" transform="rotate(0 146.447 146.447)" fill="cyan" stroke="black" stroke-width="0.5" />
<rect x="756.447"  y="336.447" width="75" height="30" transform="rotate(0 146.447 146.447)" fill="cyan" stroke="black" stroke-width="0.5" />
<rect x="156.447"  y="366.447" width="75" height="30" transform="rotate(0 146.447 146.447)" fill="cyan" stroke="black" stroke-width="0.5" />
<rect x="231.447"  y="366.447" width="75" height="30" transform="rotate(0 146.447 146.447)" fill="cyan" stroke="black" stroke-width="0.5" />
<rect x="306.447"  y="366.447" width="75" height="30" transform="rotate(0 146.447 146.447)" fill="cyan" stroke="black" stroke-width="0.5" />
<rect x="381.447"  y="366.447" width="75" height="30" transform="rotate(0 146.447 146.447)" fill="cyan" stroke="black" stroke-width="0.5" />
<rect x="456.447"  y="366.447" width="75" height="30" transform="rotate(0 146.447 146.447)" fill="cyan" stroke="black" stroke-width="0.5" />
<rect x="531.447"  y="366.447" width="75" height="30" transform="rotate(0 146.447 146.447)" fill="cyan" stroke="black" stroke-width="0.5" />
<rect x="606.447"  y="366.447" width="75" height="30" transform="rotate(0 146.447 146.447)" fill="cyan" stroke="black" stroke-width="0.5" />
<rect x="681.447"  y="366.447" width="75" height="30" transform="rotate(0 146.447 146.447)" fill="cyan" stroke="black" stroke-width="0.5" />
<rect x="756.447"  y="366.447" width="75" height="30" transform="rotate(0 146.447 146.447)" fill="cyan" stroke="black" stroke-width="0.5" />
<rect x="156.447"  y="396.447" width="75" height="30" transform="rotate(0 146.447 146.447)" fill="cyan" stroke="black" stroke-width="0.5" />
<rect x="231.447"  y="396.447" width="75" height="30" transform="rotate(0 146.447 146.447)" fill="cyan" stroke="black" stroke-width="0.5" />
<rect x="306.447"  y="396.447" width="75" height="30" transform="rotate(0 146.447 146.447)" fill="cyan" stroke="black" stroke-width="0.5" />
<rect x="381.447"  y="396.447" width="75" height="30" transform="rotate(0 146.447 146.447)" fill="cyan" stroke="black" stroke-width="0.5" />
<rect x="456.447"  y="396.447" width="75" height="30" transform="rotate(0 146.447 146.447)" fill="cyan" stroke="black" stroke-width="0.5" />
<rect x="531.447"  y="396.447" width="75" height="30" transform="rotate(0 146.447 146.447)" fill="cyan" stroke="black" stroke-width="0.5" />
<rect x="606.447"  y="396.447" width="75" height="30" transform="rotate(0 146.447 146.447)" fill="cyan" stroke="black" stroke-width="0.5" />
<rect x="681.447"  y="396.447" width="75" height="30" transform="rotate(0 146.447 146.447)" fill="cyan" stroke="black" stroke-width="0.5" />
<rect x="756.447"  y="396.447" width="75" height="30" transform="rotate(0 146.447 146.447)" fill="cyan" stroke="black" stroke-width="0.5" />
<rect x="156.447"  y="426.447" width="75" height="30" transform="rotate(0 146.447 146.447)" fill="cyan" stroke="black" stroke-width="0.5" />
<rect x="231.447"  y="426.447" width="75" height="30" transform="rotate(0 146.447 146.447)" fill="cyan" stroke="black" stroke-width="0.5" />
<rect x="306.447"  y="426.447" width="75" height="30" transform="rotate(0 146.447 146.447)" fill="cyan" stroke="black" stroke-width="0.5" />
<rect x="381.447"  y="426.447" width="75" height="30" transform="rotate(0 146.447 146.447)" fill="cyan" stroke="black" stroke-width="0.5" />
<rect x="456.447"  y="426.447" width="75" height="30" transform="rotate(0 146.447 146.447)" fill="cyan" stroke="black" stroke-width="0.5" />
<rect x="531.447"  y="426.447" width="75" height="30" transform="rotate(0 146.447 146.447)" fill="cyan" stroke="black" stroke-width="0.5" />
<rect x="606.447"  y="426.447" width="75" height="30" transform="rotate(0 146.447 146.447)" fill="cyan" stroke="black" stroke-width="0.5" />
<rect x="681.447"  y="426.447" width="75" height="30" transform="rotate(0 146.447 146.447)" fill="cyan" stroke="black" stroke-width="0.5" />
<rect x="756.447"  y="426.447" width="75" height="30" transform="rotate(0 146.447 146.447)" fill="cyan" stroke="black" stroke-width="0.5" />
<rect x="156.447"  y="456.447" width="75" height="30" transform="rotate(0 146.447 146.447)" fill="cyan" stroke="black" stroke-width="0.5" />
<rect x="231.447"  y="456.447" width="75" height="30" transform="rotate(0 146.447 146.447)" fill="cyan" stroke="black" stroke-width="0.5" />
<rect x="306.447"  y="456.447" width="75" height="30" transform="rotate(0 146.447 146.447)" fill="cyan" stroke="black" stroke-width="0.5" />
<rect x="381.447"  y="456.447" width="75" height="30" transform="rotate(0 146.447 146.447)" fill="cyan" stroke="black" stroke-width="0.5" />
<rect x="456.447"  y="456.447" width="75" height="30" transform="rotate(0 146.447 146.447)" fill="cyan" stroke="black" stroke-width="0.5" />
<rect x="531.447"  y="456.447" width="75" height="30" transform="rotate(0 146.447 146.447)" fill="cyan" stroke="black" stroke-width="0.5" />
<rect x="606.447"  y="456.447" width="75" height="30" transform="rotate(0 146.447 146.447)" fill="cyan" stroke="black" stroke-width="0.5" />
<rect x="681.447"  y="456.447" width="75" height="30" transform="rotate(0 146.447 146.447)" fill="cyan" stroke="black" stroke-width="0.5" />
<rect x="756.447"  y="456.447" width="75" height="30" transform="rotate(0 146.447 146.447)" fill="cyan" stroke="black" stroke-width="0.5" />
<rect x="156.447"  y="486.447" width="75" height="30" transform="rotate(0 146.447 146.447)" fill="cyan" stroke="black" stroke-width="0.5" />
<rect x="231.447"  y="486.447" width="75" height="30" transform="rotate(0 146.447 146.447)" fill="cyan" stroke="black" stroke-width="0.5" />
<rect x="306.447"  y="486.447" width="75" height="30" transform="rotate(0 146.447 146.447)" fill="cyan" stroke="black" stroke-width="0.5" />
<rect x="381.447"  y="486.447" width="75" height="30" transform="rotate(0 146.447 146.447)" fill="cyan" stroke="black" stroke-width="0.5" />
<rect x="456.447"  y="486.447" width="75" height="30" transform="rotate(0 146.447 146.447)" fill="cyan" stroke="black" stroke-width="0.5" />
<rect x="531.447"  y="486.447" width="75" height="30" transform="rotate(0 146.447 146.447)" fill="cyan" stroke="black" stroke-width="0.5" />
<rect x="606.447"  y="486.447" width="75" height="30" transform="rotate(0 146.447 146.447)" fill="cyan" stroke="black" stroke-width="0.5" />
<rect x="681.447"  y="486.447" width="75" height="30" transform="rotate(0 146.447 146.447)" fill="cyan" stroke="black" stroke-width="0.5" />
<rect x="756.447"  y="486.447" width="75" height="30" transform="rotate(0 146.447 146.447)" fill="cyan" stroke="black" stroke-width="0.5" />
<rect x="156.447"  y="516.447" width="75" height="30" transform="rotate(0 146.447 146.447)" fill="cyan" stroke="black" stroke-width="0.5" />
<rect x="231.447"  y="516.447" width="75" height="30" transform="rotate(0 146.447 146.447)" fill="cyan" stroke="black" stroke-width="0.5" />
<rect x="306.447"  y="516.447" width="75" height="30" transform="rotate(0 146.447 146.447)" fill="cyan" stroke="black" stroke-width="0.5" />
<rect x="381.447"  y="516.447" width="75" height="30" transform="rotate(0 146.447 146.447)" fill="cyan" stroke="black" stroke-width="0.5" />
<rect x="456.447"  y="516.447" width="75" height="30" transform="rotate(0 146.447 146.447)" fill="cyan" stroke="black" stroke-width="0.5" />
<rect x="531.447"  y="516.447" width="75" height="30" transform="rotate(0 146.447 146.447)" fill="cyan" stroke="black" stroke-width="0.5" />
<rect x="606.447"  y="516.447" width="75" height="30" transform="rotate(0 146.447 146.447)" fill="cyan" stroke="black" stroke-width="0.5" />
<rect x="681.447"  y="516.447" width="75" height="30" transform="rotate(0 146.447 146.447)" fill="cyan" stroke="black" stroke-width="0.5" />
<rect x="756.447"  y="516.447" width="75" height="30" transform="rotate(0 146.447 146.447)" fill="cyan" stroke="black" stroke-width="0.5" />
<rect x="156.447"  y="546.447" width="75" height="30" transform="rotate(0 146.447 146.447)" fill="cyan" stroke="black" stroke-width="0.5" />
<rect x="231.447"  y="546.447" width="75" height="30" transform="rotate(0 146.447 146.447)" fill="cyan" stroke="black" stroke-width="0.5" />
<rect x="306.447"  y="546.447" width="75" height="30" transform="rotate(0 146.447 146.447)" fill="cyan" stroke="black" stroke-width="0.5" />
<rect x="381.447"  y="546.447" width="75" height="30" transform="rotate(0 146.447 146.447)" fill="cyan" stroke="black" stroke-width="0.5" />
<rect x="456.447"  y="546.447" width="75" height="30" transform="rotate(0 146.447 146.447)" fill="cyan" stroke="black" stroke-width="0.5" />
<rect x="531.447"  y="546.447" width="75" height="30" transform="rotate(0 146.447 146.447)" fill="cyan" stroke="black" stroke-width="0.5" />
<rect x="606.447"  y="546.447" width="75" height="30" transform="rotate(0 146.447 146.447)" fill="cyan" stroke="black" stroke-width="0.5" />
<rect x="681.447"  y="546.447" width="75" height="30" transform="rotate(0 146.447 146.447)" fill="cyan" stroke="black" stroke-width="0.5" />
<rect x="756.447"  y="546.447" width="75" height="30" transform="rotate(0 146.447 146.447)" fill="cyan" stroke="black" stroke-width="0.5" />
<rect x="156.447"  y="576.447" width="75" height="30" transform="rotate(0 146.447 146.447)" fill="cyan" stroke="black" stroke-width="0.5" />
<rect x="231.447"  y="576.447" width="75" height="30" transform="rotate(0 146.447 146.447)" fill="cyan" stroke="black" stroke-width="0.5" />
<rect x="306.447"  y="576.447" width="75" height="30" transform="rotate(0 146.447 146.447)" fill="cyan" stroke="black" stroke-width="0.5" />
<rect x="381.447"  y="576.447" width="75" height="30" transform="rotate(0 146.447 146.447)" fill="cyan" stroke="black" stroke-width="0.5" />
<rect x="456.447"  y="576.447" width="75" height="30" transform="rotate(0 146.447 146.447)" fill="cyan" stroke="black" stroke-width="0.5" />
<rect x="531.447"  y="576.447" width="75" height="30" transform="rotate(0 146.447 146.447)" fill="cyan" stroke="black" stroke-width="0.5" />
<rect x="606.447"  y="576.447" width="75" height="30" transform="rotate(0 146.447 146.447)" fill="cyan" stroke="black" stroke-width="0.5" />
<rect x="681.447"  y="576.447" width="75" height="30" transform="rotate(0 146.447 146.447)" fill="cyan" stroke="black" stroke-width="0.5" />
<rect x="756.447"  y="576.447" width="75" height="30" transform="rotate(0 146.447 146.447)" fill="cyan" stroke="black" stroke-width="0.5" />
<rect x="156.447"  y="606.447" width="75" height="30" transform="rotate(0 146.447 146.447)" fill="cyan" stroke="black" stroke-width="0.5" />
<rect x="231.447"  y="606.447" width="75" height="30" transform="rotate(0 146.447 146.447)" fill="cyan" stroke="black" stroke-width="0.5" />
<rect x="306.447"  y="606.447" width="75" height="30" transform="rotate(0 146.447 146.447)" fill="cyan" stroke="black" stroke-width="0.5" />
<rect x="381.447"  y="606.447" width="75" height="30" transform="rotate(0 146.447 146.447)" fill="cyan" stroke="black" stroke-width="0.5" />
<rect x="456.447"  y="606.447" width="75" height="30" transform="rotate(0 146.447 146.447)" fill="cyan" stroke="black" stroke-width="0.5" />
<rect x="531.447"  y="606.447" width="75" height="30" transform="rotate(0 146.447 146.447)" fill="cyan" stroke="black" stroke-width="0.5" />
<rect x="606.447"  y="606.447" width="75" height="30" transform="rotate(0 146.447 146.447)" fill="cyan" stroke="black" stroke-width="0.5" />
<rect x="681.447"  y="606.447" width="75" height="30" transform="rotate(0 146.447 146.447)" fill="cyan" stroke="black" stroke-width="0.5" />
<rect x="756.447"  y="606.447" width="75" height="30" transform="rotate(0 146.447 146.447)" fill="cyan" stroke="black" stroke-width="0.5" />
<rect x="156.447"  y="636.447" width="75" height="30" transform="rotate(0 146.447 146.447)" fill="cyan" stroke="black" stroke-width="0.5" />
<rect x="231.447"  y="636.447" width="75" height="30" transform="rotate(0 146.447 146.447)" fill="cyan" stroke="black" stroke-width="0.5" />
<rect x="306.447"  y="636.447" width="75" height="30" transform="rotate(0 146.447 146.447)" fill="cyan" stroke="black" stroke-width="0.5" />
<rect x="381.447"  y="636.447" width="75" height="30" transform="rotate(0 146.447 146.447)" fill="cyan" stroke="black" stroke-width="0.5" />
<rect x="456.447"  y="636.447" width="75" height="30" transform="rotate(0 146.447 146.447)" fill="cyan" stroke="black" stroke-width="0.5" />
<rect x="531.447"  y="636.447" width="75" height="30" transform="rotate(0 146.447 146.447)" fill="cyan" stroke="black" stroke-width="0.5" />
<rect x="606.447"  y="636.447" width="75" height="30" transform="rotate(0 146.447 146.447)" fill="cyan" stroke="black" stroke-width="0.5" />
<rect x="681.447"  y="636.447" width="75" height="30" transform="rotate(0 146.447 146.447)" fill="cyan" stroke="black" stroke-width="0.5" />
<rect x="756.447"  y="636.447" width="75" height="30" transform="rotate(0 146.447 146.447)" fill="cyan" stroke="black" stroke-width="0.5" />
<rect x="156.447"  y="666.447" width="75" height="30" transform="rotate(0 146.447 146.447)" fill="cyan" stroke="black" stroke-width="0.5" />
<rect x="231.447"  y="666.447" width="75" height="30" transform="rotate(0 146.447 146.447)" fill="cyan" stroke="black" stroke-width="0.5" />
<rect x="306.447"  y="666.447" width="75" height="30" transform="rotate(0 146.447 146.447)" fill="cyan" stroke="black" stroke-width="0.5" />
<rect x="381.447"  y="666.447" width="75" height="30" transform="rotate(0 146.447 146.447)" fill="cyan" stroke="black" stroke-width="0.5" />
<rect x="456.447"  y="666.447" width="75" height="30" transform="rotate(0 146.447 146.447)" fill="cyan" stroke="black" stroke-width="0.5" />
<rect x="531.447"  y="666.447" width="75" height="30" transform="rotate(0 146.447 146.447)" fill="cyan" stroke="black" stroke-width="0.5" />
<rect x="606.447"  y="666.447" width="75" height="30" transform="rotate(0 146.447 146.447)" fill="cyan" stroke="black" stroke-width="0.5" />
<rect x="681.447"  y="666.447" width="75" height="30" transform="rotate(0 146.447 146.447)" fill="cyan" stroke="black" stroke-width="0.5" />
<rect x="756.447"  y="666.447" width="75" height="30" transform="rotate(0 146.447 146.447)" fill="cyan" stroke="black" stroke-width="0.5" />
<rect x="156.447"  y="696.447" width="75" height="30" transform="rotate(0 146.447 146.447)" fill="cyan" stroke="black" stroke-width="0.5" />
<rect x="231.447"  y="696.447" width="75" height="30" transform="rotate(0 146.447 146.447)" fill="cyan" stroke="black" stroke-width="0.5" />
<rect x="306.447"  y="696.447" width="75" height="30" transform="rotate(0 146.447 146.447)" fill="cyan" stroke="black" stroke-width="0.5" />
<rect x="381.447"  y="696.447" width="75" height="30" transform="rotate(0 146.447 146.447)" fill="cyan" stroke="black" stroke-width="0.5" />
<rect x="456.447"  y="696.447" width="75" height="30" transform="rotate(0 146.447 146.447)" fill="cyan" stroke="black" stroke-width="0.5" />
<rect x="531.447"  y="696.447" width="75" height="30" transform="rotate(0 146.447 146.447)" fill="cyan" stroke="black" stroke-width="0.5" />
<rect x="606.447"  y="696.447" width="75" height="30" transform="rotate(0 146.447 146.447)" fill="cyan" stroke="black" stroke-width="0.5" />
<rect x="681.447"  y="696.447" width="75" height="30" transform="rotate(0 146.447 146.447)" fill="cyan" stroke="black" stroke-width="0.5" />
<rect x="756.447"  y="696.447" width="75" height="30" transform="rotate(0 146.447 146.447)" fill="cyan" stroke="black" stroke-width="0.5" />
<rect x="156.447"  y="726.447" width="75" height="30" transform="rotate(0 146.447 146.447)" fill="cyan" stroke="black" stroke-width="0.5" />
<rect x="231.447"  y="726.447" width="75" height="30" transform="rotate(0 146.447 146.447)" fill="cyan" stroke="black" stroke-width="0.5" />
<rect x="306.447"  y="726.447" width="75" height="30" transform="rotate(0 146.447 146.447)" fill="cyan" stroke="black" stroke-width="0.5" />
<rect x="381.447"  y="726.447" width="75" height="30" transform="rotate(0 146.447 146.447)" fill="cyan" stroke="black" stroke-width="0.5" />
<rect x="456.447"  y="726.447" width="75" height="30" transform="rotate(0 146.447 146.447)" fill="cyan" stroke="black" stroke-width="0.5" />
<rect x="531.447"  y="726.447" width="75" height="30" transform="rotate(0 146.447 146.447)" fill="cyan" stroke="black" stroke-width="0.5" />
<rect x="606.447"  y="726.447" width="75" height="30" transform="rotate(0 146.447 146.447)" fill="cyan" stroke="black" stroke-width="0.5" />
<rect x="681.447"  y="726.447" width="75" height="30" transform="rotate(0 146.447 146.447)" fill="cyan" stroke="black" stroke-width="0.5" />
<rect x="756.447"  y="726.447" width="75" height="30" transform="rotate(0 146.447 146.447)" fill="cyan" stroke="black" stroke-width="0.5" />
<rect x="156.447"  y="756.447" width="75" height="30" transform="rotate(0 146.447 146.447)" fill="cyan" stroke="black" stroke-width="0.5" />
<rect x="231.447"  y="756.447" width="75" height="30" transform="rotate(0 146.447 146.447)" fill="cyan" stroke="black" stroke-width="0.5" />
<rect x="306.447"  y="756.447" width="75" height="30" transform="rotate(0 146.447 146.447)" fill="cyan" stroke="black" stroke-width="0.5" />
<rect x="381.447"  y="756.447" width="75" height="30" transform="rotate(0 146.447 146.447)" fill="cyan" stroke="black" stroke-width="0.5" />
<rect x="456.447"  y="756.447" width="75" height="30" transform="rotate(0 146.447 146.447)" fill="cyan" stroke="black" stroke-width="0.5" />
<rect x="531.447"  y="756.447" width="75" height="30" transform="rotate(0 146.447 146.447)" fill="cyan" stroke="black" stroke-width="0.5" />
<rect x="606.447"  y="756.447" width="75" height="30" transform="rotate(0 146.447 146.447)" fill="cyan" stroke="black" stroke-width="0.5" />
<rect x="681.447"  y="756.447" width="75" height="30" transform="rotate(0 146.447 146.447)" fill="cyan" stroke="black" stroke-width="0.5" />
<rect x="756.447"  y="756.447" width="75" height="30" transform="rotate(0 146.447 146.447)" fill="cyan" stroke="black" stroke-width="0.5" />
<rect x="156.447"  y="786.447" width="75" height="30" transform="rotate(0 146.447 146.447)" fill="cyan" stroke="black" stroke-width="0.5" />
<rect x="231.447"  y="786.447" width="75" height="30" transform="rotate(0 146.447 146.447)" fill="cyan" stroke="black" stroke-width="0.5" />
<rect x="306.447"  y="786.447" width="75" height="30" transform="rotate(0 146.447 146.447)" fill="cyan" stroke="black" stroke-width="0.5" />
<rect x="381.447"  y="786.447" width="75" height="30" transform="rotate(0 146.447 146.447)" fill="cyan" stroke="black" stroke-width="0.5" />
<rect x="456.447"  y="786.447" width="75" height="30" transform="rotate(0 146.447 146.447)" fill="cyan" stroke="black" stroke-width="0.5" />
<rect x="531.447"  y="786.447" width="75" height="30" transform="rotate(0 146.447 146.447)" fill="cyan" stroke="black" stroke-width="0.5" />
<rect x="606.447"  y="786.447" width="75" height="30" transform="rotate(0 146.447 146.447)" fill="cyan" stroke="black" stroke-width="0.5" />
<rect x="681.447"  y="786.447" width="75" height="30" transform="rotate(0 146.447 146.447)" fill="cyan" stroke="black" stroke-width="0.5" />
<rect x="756.447"  y="786.447" width="75" height="30" transform="rotate(0 146.447 146.447)" fill="cyan" stroke="black" stroke-width="0.5" />
<rect x="156.447"  y="816.447" width="75" height="30" transform="rotate(0 146.447 146.447)" fill="cyan" stroke="black" stroke-width="0.5" />
<rect x="231.447"  y="816.447" width="75" height="30" transform="rotate(0 146.447 146.447)" fill="cyan" stroke="black" stroke-width="0.5" />
<rect x="306.447"  y="816.447" width="75" height="30" transform="rotate(0 146.447 146.447)" fill="cyan" stroke="black" stroke-width="0.5" />
<rect x="381.447"  y="816.447" width="75" height="30" transform="rotate(0 146.447 146.447)" fill="cyan" stroke="black" stroke-width="0.5" />
<rect x="456.447"  y="816.447" width="75" height="30" transform="rotate(0 146.447 146.447)" fill="cyan" stroke="black" stroke-width="0.5" />
<rect x="531.447"  y="816.447" width="75" height="30" transform="rotate(0 146.447 146.447)" fill="cyan" stroke="black" stroke-width="0.5" />
<rect x="606.447"  y="816.447" width="75" height="30" transform="rotate(0 146.447 146.447)" fill="cyan" stroke="black" stroke-width="0.5" />
<rect x="681.447"  y="816.447" width="75" height="30" transform="rotate(0 146.447 146.447)" fill="cyan" stroke="black" stroke-width="0.5" />
<rect x="756.447"  y="816.447" width="75" height="30" transform="rotate(0 146.447 146.447)" fill="cyan" stroke="black" stroke-width="0.5" />
<rect x="831.447"  y="156.447" width="30" height="75" transform="rotate(0 146.447 146.447)" fill="cyan" stroke="black" stroke-width="0.5" />
<rect x="831.447"  y="231.447" width="30" height="75" transform="rotate(0 146.447 146.447)" fill="cyan" stroke="black" stroke-width="0.5" />
<rect x="831.447"  y="306.447" width="30" height="75" transform="rotate(0 146.447 146.447)" fill="cyan" stroke="black" stroke-width="0.5" />
<rect x="831.447"  y="381.447" width="30" height="75" transform="rotate(0 146.447 146.447)" fill="cyan" stroke="black" stroke-width="0.5" />
<rect x="831.447"  y="456.447" width="30" height="75" transform="rotate(0 146.447 146.447)" fill="cyan" stroke="black" stroke-width="0.5" />
<rect x="831.447"  y="531.447" width="30" height="75" transform="rotate(0 146.447 146.447)" fill="cyan" stroke="black" stroke-width="0.5" />
<rect x="831.447"  y="606.447" width="30" height="75" transform="rotate(0 146.447 146.447)" fill="cyan" stroke="black" stroke-width="0.5" />
<rect x="831.447"  y="681.447" width="30" height="75" transform="rotate(0 146.447 146.447)" fill="cyan" stroke="black" stroke-width="0.5" />
<rect x="831.447"  y="756.447" width="30" height="75" transform="rotate(0 146.447 146.447)" fill="cyan" stroke="black" stroke-width="0.5" />
<rect x="510"  y="863.553" width="75" height="30" transform="rotate(0 510 510)" fill="cyan" stroke="black" stroke-width="0.5" />
<rect x="435"  y="863.553" width="75" height="30" transform="rotate(0 510 510)" fill="cyan" stroke="black" stroke-width="0.5" />
<rect x="585"  y="863.553" width="75" height="30" transform="rotate(0 510 510)" fill="cyan" stroke="black" stroke-width="0.5" />
<rect x="360"  y="863.553" width="75" height="30" transform="rotate(0 510 510)" fill="cyan" stroke="black" stroke-width="0.5" />
<rect x="660"  y="863.553" width="75" height="30" transform="rotate(0 510 510)" fill="cyan" stroke="black" stroke-width="0.5" />
<rect x="285"  y="863.553" width="75" height="30" transform="rotate(0 510 510)" fill="cyan" stroke="black" stroke-width="0.5" />
<rect x="735"  y="863.553" width="75" height="30" transform="rotate(0 510 510)" fill="cyan" stroke="black" stroke-width="0.5" />
<rect x="210"  y="863.553" width="75" height="30" transform="rotate(0 510 510)" fill="cyan" stroke="black" stroke-width="0.5" />
<rect x="510"  y="893.553" width="75" height="30" transform="rotate(0 510 510)" fill="cyan" stroke="black" stroke-width="0.5" />
<rect x="435"  y="893.553" width="75" height="30" transform="rotate(0 510 510)" fill="cyan" stroke="black" stroke-width="0.5" />
<rect x="585"  y="893.553" width="75" height="30" transform="rotate(0 510 510)" fill="cyan" stroke="black" stroke-width="0.5" />
<rect x="360"  y="893.553" width="75" height="30" transform="rotate(0 510 510)" fill="cyan" stroke="black" stroke-width="0.5" />
<rect x="660"  y="893.553" width="75" height="30" transform="rotate(0 510 510)" fill="cyan" stroke="black" stroke-width="0.5" />
<rect x="285"  y="893.553" width="75" height="30" transform="rotate(0 510 510)" fill="cyan" stroke="black" stroke-width="0.5" />
<rect x="510"  y="923.553" width="75" height="30" transform="rotate(0 510 510)" fill="cyan" stroke="black" stroke-width="0.5" />
<rect x="435"  y="923.553" width="75" height="30" transform="rotate(0 510 510)" fill="cyan" stroke="black" stroke-width="0.5" />
<rect x="585"  y="923.553" width="75" height="30" transform="rotate(0 510 510)" fill="cyan" stroke="black" stroke-width="0.5" />
<rect x="360"  y="923.553" width="75" height="30" transform="rotate(0 510 510)" fill="cyan" stroke="black" stroke-width="0.5" />
<rect x="660"  y="923.553" width="75" height="30" transform="rotate(0 510 510)" fill="cyan" stroke="black" stroke-width="0.5" />
<rect x="285"  y="923.553" width="75" height="30" transform="rotate(0 510 510)" fill="cyan" stroke="black" stroke-width="0.5" />
<rect x="510"  y="953.553" width="75" height="30" transform="rotate(0 510 510)" fill="cyan" stroke="black" stroke-width="0.5" />
<rect x="435"  y="953.553" width="75" height="30" transform="rotate(0 510 510)" fill="cyan" stroke="black" stroke-width="0.5" />
<rect x="585"  y="953.553" width="75" height="30" transform="rotate(0 510 510)" fill="cyan" stroke="black" stroke-width="0.5" />
<rect x="360"  y="953.553" width="75" height="30" transform="rotate(0 510 510)" fill="cyan" stroke="black" stroke-width="0.5" />
<rect x="510"  y="863.553" width="75" height="30" transform="rotate(90 510 510)" fill="cyan" stroke="black" stroke-width="0.5" />
<rect x="435"  y="863.553" width="75" height="30" transform="rotate(90 510 510)" fill="cyan" stroke="black" stroke-width="0.5" />
<rect x="585"  y="863.553" width="75" height="30" transform="rotate(90 510 510)" fill="cyan" stroke="black" stroke-width="0.5" />
<rect x="360"  y="863.553" width="75" height="30" transform="rotate(90 510 510)" fill="cyan" stroke="black" stroke-width="0.5" />
<rect x="660"  y="863.553" width="75" height="30" transform="rotate(90 510 510)" fill="cyan" stroke="black" stroke-width="0.5" />
<rect x="285"  y="863.553" width="75" height="30" transform="rotate(90 510 510)" fill="cyan" stroke="black" stroke-width="0.5" />
<rect x="735"  y="863.553" width="75" height="30" transform="rotate(90 510 510)" fill="cyan" stroke="black" stroke-width="0.5" />
<rect x="210"  y="863.553" width="75" height="30" transform="rotate(90 510 510)" fill="cyan" stroke="black" stroke-width="0.5" />
<rect x="510"  y="893.553" width="75" height="30" transform="rotate(90 510 510)" fill="cyan" stroke="black" stroke-width="0.5" />
<rect x="435"  y="893.553" width="75" height="30" transform="rotate(90 510 510)" fill="cyan" stroke="black" stroke-width="0.5" />
<rect x="585"  y="893.553" width="75" height="30" transform="rotate(90 510 510)" fill="cyan" stroke="black" stroke-width="0.5" />
<rect x="360"  y="893.553" width="75" height="30" transform="rotate(90 510 510)" fill="cyan" stroke="black" stroke-width="0.5" />
<rect x="660"  y="893.553" width="75" height="30" transform="rotate(90 510 510)" fill="cyan" stroke="black" stroke-width="0.5" />
<rect x="285"  y="893.553" width="75" height="30" transform="rotate(90 510 510)" fill="cyan" stroke="black" stroke-width="0.5" />
<rect x="510"  y="923.553" width="75" height="30" transform="rotate(90 510 510)" fill="cyan" stroke="black" stroke-width="0.5" />
<rect x="435"  y="923.553" width="75" height="30" transform="rotate(90 510 510)" fill="cyan" stroke="black" stroke-width="0.5" />
<rect x="585"  y="923.553" width="75" height="30" transform="rotate(90 510 510)" fill="cyan" stroke="black" stroke-width="0.5" />
<rect x="360"  y="923.553" width="75" height="30" transform="rotate(90 510 510)" fill="cyan" stroke="black" stroke-width="0.5" />
<rect x="660"  y="923.553" width="75" height="30" transform="rotate(90 510 510)" fill="cyan" stroke="black" stroke-width="0.5" />
<rect x="285"  y="923.553" width="75" height="30" transform="rotate(90 510 510)" fill="cyan" stroke="black" stroke-width="0.5" />
<rect x="510"  y="953.553" width="75" height="30" transform="rotate(90 510 510)" fill="cyan" stroke="black" stroke-width="0.5" />
<rect x="435"  y="953.553" width="75" height="30" transform="rotate(90 510 510)" fill="cyan" stroke="black" stroke-width="0.5" />
<rect x="585"  y="953.553" width="75" height="30" transform="rotate(90 510 510)" fill="cyan" stroke="black" stroke-width="0.5" />
<rect x="360"  y="953.553" width="75" height="30" transform="rotate(90 510 510)" fill="cyan" stroke="black" stroke-width="0.5" />
<rect x="510"  y="863.553" width="75" height="30" transform="rotate(180 510 510)" fill="cyan" stroke="black" stroke-width="0.5" />
<rect x="435"  y="863.553" width="75" height="30" transform="rotate(180 510 510)" fill="cyan" stroke="black" stroke-width="0.5" />
<rect x="585"  y="863.553" width="75" height="30" transform="rotate(180 510 510)" fill="cyan" stroke="black" stroke-width="0.5" />
<rect x="360"  y="863.553" width="75" height="30" transform="rotate(180 510 510)" fill="cyan" stroke="black" stroke-width="0.5" />
<rect x="660"  y="863.553" width="75" height="30" transform="rotate(180 510 510)" fill="cyan" stroke="black" stroke-width="0.5" />
<rect x="285"  y="863.553" width="75" height="30" transform="rotate(180 510 510)" fill="cyan" stroke="black" stroke-width="0.5" />
<rect x="735"  y="863.553" width="75" height="30" transform="rotate(180 510 510)" fill="cyan" stroke="black" stroke-width="0.5" />
<rect x="210"  y="863.553" width="75" height="30" transform="rotate(180 510 510)" fill="cyan" stroke="black" stroke-width="0.5" />
<rect x="510"  y="893.553" width="75" height="30" transform="rotate(180 510 510)" fill="cyan" stroke="black" stroke-width="0.5" />
<rect x="435"  y="893.553" width="75" height="30" transform="rotate(180 510 510)" fill="cyan" stroke="black" stroke-width="0.5" />
<rect x="585"  y="893.553" width="75" height="30" transform="rotate(180 510 510)" fill="cyan" stroke="black" stroke-width="0.5" />
<rect x="360"  y="893.553" width="75" height="30" transform="rotate(180 510 510)" fill="cyan" stroke="black" stroke-width="0.5" />
<rect x="660"  y="893.553" width="75" height="30" transform="rotate(180 510 510)" fill="cyan" stroke="black" stroke-width="0.5" />
<rect x="285"  y="893.553" width="75" height="30" transform="rotate(180 510 510)" fill="cyan" stroke="black" stroke-width="0.5" />
<rect x="510"  y="923.553" width="75" height="30" transform="rotate(180 510 510)" fill="cyan" stroke="black" stroke-width="0.5" />
<rect x="435"  y="923.553" width="75" height="30" transform="rotate(180 510 510)" fill="cyan" stroke="black" stroke-width="0.5" />
<rect x="585"  y="923.553" width="75" height="30" transform="rotate(180 510 510)" fill="cyan" stroke="black" stroke-width="0.5" />
<rect x="360"  y="923.553" width="75" height="30" transform="rotate(180 510 510)" fill="cyan" stroke="black" stroke-width="0.5" />
<rect x="660"  y="923.553" width="75" height="30" transform="rotate(180 510 510)" fill="cyan" stroke="black" stroke-width="0.5" />
<rect x="285"  y="923.553" width="75" height="30" transform="rotate(180 510 510)" fill="cyan" stroke="black" stroke-width="0.5" />
<rect x="510"  y="953.553" width="75" height="30" transform="rotate(180 510 510)" fill="cyan" stroke="black" stroke-width="0.5" />
<rect x="435"  y="953.553" width="75" height="30" transform="rotate(180 510 510)" fill="cyan" stroke="black" stroke-width="0.5" />
<rect x="585"  y="953.553" width="75" height="30" transform="rotate(180 510 510)" fill="cyan" stroke="black" stroke-width="0.5" />
<rect x="360"  y="953.553" width="75" height="30" transform="rotate(180 510 510)" fill="cyan" stroke="black" stroke-width="0.5" />
<rect x="510"  y="863.553" width="75" height="30" transform="rotate(270 510 510)" fill="cyan" stroke="black" stroke-width="0.5" />
<rect x="435"  y="863.553" width="75" height="30" transform="rotate(270 510 510)" fill="cyan" stroke="black" stroke-width="0.5" />
<rect x="585"  y="863.553" width="75" height="30" transform="rotate(270 510 510)" fill="cyan" stroke="black" stroke-width="0.5" />
<rect x="360"  y="863.553" width="75" height="30" transform="rotate(270 510 510)" fill="cyan" stroke="black" stroke-width="0.5" />
<rect x="660"  y="863.553" width="75" height="30" transform="rotate(270 510 510)" fill="cyan" stroke="black" stroke-width="0.5" />
<rect x="285"  y="863.553" width="75" height="30" transform="rotate(270 510 510)" fill="cyan" stroke="black" stroke-width="0.5" />
<rect x="735"  y="863.553" width="75" height="30" transform="rotate(270 510 510)" fill="cyan" stroke="black" stroke-width="0.5" />
<rect x="210"  y="863.553" width="75" height="30" transform="rotate(270 510 510)" fill="cyan" stroke="black" stroke-width="0.5" />
<rect x="510"  y="893.553" width="75" height="30" transform="rotate(270 510 510)" fill="cyan" stroke="black" stroke-width="0.5" />
<rect x="435"  y="893.553" width="75" height="30" transform="rotate(270 510 510)" fill="cyan" stroke="black" stroke-width="0.5" />
<rect x="585"  y="893.553" width="75" height="30" transform="rotate(270 510 510)" fill="cyan" stroke="black" stroke-width="0.5" />
<rect x="360"  y="893.553" width="75" height="30" transform="rotate(270 510 510)" fill="cyan" stroke="black" stroke-width="0.5" />
<rect x="660"  y="893.553" width="75" height="30" transform="rotate(270 510 510)" fill="cyan" stroke="black" stroke-width="0.5" />
<rect x="285"  y="893.553" width="75" height="30" transform="rotate(270 510 510)" fill="cyan" stroke="black" stroke-width="0.5" />
<rect x="510"  y="923.553" width="75" height="30" transform="rotate(270 510 510)" fill="cyan" stroke="black" stroke-width="0.5" />
<rect x="435"  y="923.553" width="75" height="30" transform="rotate(270 510 510)" fill="cyan" stroke="black" stroke-width="0.5" />
<rect x="585"  y="923.553" width="75" height="30" transform="rotate(270 510 510)" fill="cyan" stroke="black" stroke-width="0.5" />
<rect x="360"  y="923.553" width="75" height="30" transform="rotate(270 510 510)" fill="cyan" stroke="black" stroke-width="0.5" />
<rect x="660"  y="923.553" width="75" height="30" transform="rotate(270 510 510)" fill="cyan" stroke="black" stroke-width="0.5" />
<rect x="285"  y="923.553" width="75" height="30" transform="rotate(270 510 510)" fill="cyan" stroke="black" stroke-width="0.5" />
<rect x="510"  y="953.553" width="75" height="30" transform="rotate(270 510 510)" fill="cyan" stroke="black" stroke-width="0.5" />
<rect x="435"  y="953.553" width="75" height="30" transform="rotate(270 510 510)" fill="cyan" stroke="black" stroke-width="0.5" />
<rect x="585"  y="953.553" width="75" height="30" transform="rotate(270 510 510)" fill="cyan" stroke="black" stroke-width="0.5" />
<rect x="360"  y="953.553" width="75" height="30" transform="rotate(270 510 510)" fill="cyan" stroke="black" stroke-width="0.5" />
</svg>
