<svg version="1.1" baseProfile="full" xmlns="http://www.w3.org/2000/svg">
<circle cx="510" cy="510" r="500" transform="rotate(0 0 0)" fill="dimgrey" stroke="black" stroke-width="0.5" />
<circle cx="510" cy="35" r="25" transform="rotate(0 510 510)" fill="magenta" stroke="black" stroke-width="0.5" />
<circle cx="510" cy="35" r="25" transform="rotate(6.10169 510 510)" fill="magenta" stroke="black" stroke-width="0.5" />
<circle cx="510" cy="35" r="25" transform="rotate(12.2034 510 510)" fill="magenta" stroke="black" stroke-width="0.5" />
<circle cx="510" cy="35" r="25" transform="rotate(18.3051 510 510)" fill="magenta" stroke="black" stroke-width="0.5" />
<circle cx="510" cy="35" r="25" transform="rotate(24.4068 510 510)" fill="magenta" stroke="black" stroke-width="0.5" />
<circle cx="510" cy="35" r="25" transform="rotate(30.5085 510 510)" fill="magenta" stroke="black" stroke-width="0.5" />
<circle cx="510" cy="35" r="25" transform="rotate(36.6102 510 510)" fill="magenta" stroke="black" stroke-width="0.5" />
<circle cx="510" cy="35" r="25" transform="rotate(42.7119 510 510)" fill="magenta" stroke="black" stroke-width="0.5" />
<circle cx="510" cy="35" r="25" transform="rotate(48.8136 510 510)" fill="magenta" stroke="black" stroke-width="0.5" />
<circle cx="510" cy="35" r="25" transform="rotate(54.9153 510 510)" fill="magenta" stroke="black" stroke-width="0.5" />
<circle cx="510" cy="35" r="25" transform="rotate(61.0169 510 510)" fill="magenta" stroke="black" stroke-width="0.5" />
<circle cx="510" cy="35" r="25" transform="rotate(67.1186 510 510)" fill="magenta" stroke="black" stroke-width="0.5" />
<circle cx="510" cy="35" r="25" transform="rotate(73.2203 510 510)" fill="magenta" stroke="black" stroke-width="0.5" />
<circle cx="510" cy="35" r="25" transform="rotate(79.322 510 510)" fill="magenta" stroke="black" stroke-width="0.5" />
<circle cx="510" cy="35" r="25" transform="rotate(85.4237 510 510)" fill="magenta" stroke="black" stroke-width="0.5" />
<circle cx="510" cy="35" r="25" transform="rotate(91.5254 510 510)" fill="magenta" stroke="black" stroke-width="0.5" />
<circle cx="510" cy="35" r="25" transform="rotate(97.6271 510 510)" fill="magenta" stroke="black" stroke-width="0.5" />
<circle cx="510" cy="35" r="25" transform="rotate(103.729 510 510)" fill="magenta" stroke="black" stroke-width="0.5" />
<circle cx="510" cy="35" r="25" transform="rotate(109.831 510 510)" fill="magenta" stroke="black" stroke-width="0.5" />
<circle cx="510" cy="35" r="25" transform="rotate(115.932 510 510)" fill="magenta" stroke="black" stroke-width="0.5" />
<circle cx="510" cy="35" r="25" transform="rotate(122.034 510 510)" fill="magenta" stroke="black" stroke-width="0.5" />
<circle cx="510" cy="35" r="25" transform="rotate(128.136 510 510)" fill="magenta" stroke="black" stroke-width="0.5" />
<circle cx="510" cy="35" r="25" transform="rotate(134.237 510 510)" fill="magenta" stroke="black" stroke-width="0.5" />
<circle cx="510" cy="35" r="25" transform="rotate(140.339 510 510)" fill="magenta" stroke="black" stroke-width="0.5" />
<circle cx="510" cy="35" r="25" transform="rotate(146.441 510 510)" fill="magenta" stroke="black" stroke-width="0.5" />
<circle cx="510" cy="35" r="25" transform="rotate(152.542 510 510)" fill="magenta" stroke="black" stroke-width="0.5" />
<circle cx="510" cy="35" r="25" transform="rotate(158.644 510 510)" fill="magenta" stroke="black" stroke-width="0.5" />
<circle cx="510" cy="35" r="25" transform="rotate(164.746 510 510)" fill="magenta" stroke="black" stroke-width="0.5" />
<circle cx="510" cy="35" r="25" transform="rotate(170.847 510 510)" fill="magenta" stroke="black" stroke-width="0.5" />
<circle cx="510" cy="35" r="25" transform="rotate(176.949 510 510)" fill="magenta" stroke="black" stroke-width="0.5" />
<circle cx="510" cy="35" r="25" transform="rotate(183.051 510 510)" fill="magenta" stroke="black" stroke-width="0.5" />
<circle cx="510" cy="35" r="25" transform="rotate(189.153 510 510)" fill="magenta" stroke="black" stroke-width="0.5" />
<circle cx="510" cy="35" r="25" transform="rotate(195.254 510 510)" fill="magenta" stroke="black" stroke-width="0.5" />
<circle cx="510" cy="35" r="25" transform="rotate(201.356 510 510)" fill="magenta" stroke="black" stroke-width="0.5" />
<circle cx="510" cy="35" r="25" transform="rotate(207.458 510 510)" fill="magenta" stroke="black" stroke-width="0.5" />
<circle cx="510" cy="35" r="25" transform="rotate(213.559 510 510)" fill="magenta" stroke="black" stroke-width="0.5" />
<circle cx="510" cy="35" r="25" transform="rotate(219.661 510 510)" fill="magenta" stroke="black" stroke-width="0.5" />
<circle cx="510" cy="35" r="25" transform="rotate(225.763 510 510)" fill="magenta" stroke="black" stroke-width="0.5" />
<circle cx="510" cy="35" r="25" transform="rotate(231.864 510 510)" fill="magenta" stroke="black" stroke-width="0.5" />
<circle cx="510" cy="35" r="25" transform="rotate(237.966 510 510)" fill="magenta" stroke="black" stroke-width="0.5" />
<circle cx="510" cy="35" r="25" transform="rotate(244.068 510 510)" fill="magenta" stroke="black" stroke-width="0.5" />
<circle cx="510" cy="35" r="25" transform="rotate(250.169 510 510)" fill="magenta" stroke="black" stroke-width="0.5" />
<circle cx="510" cy="35" r="25" transform="rotate(256.271 510 510)" fill="magenta" stroke="black" stroke-width="0.5" />
<circle cx="510" cy="35" r="25" transform="rotate(262.373 510 510)" fill="magenta" stroke="black" stroke-width="0.5" />
<circle cx="510" cy="35" r="25" transform="rotate(268.475 510 510)" fill="magenta" stroke="black" stroke-width="0.5" />
<circle cx="510" cy="35" r="25" transform="rotate(274.576 510 510)" fill="magenta" stroke="black" stroke-width="0.5" />
<circle cx="510" cy="35" r="25" transform="rotate(280.678 510 510)" fill="magenta" stroke="black" stroke-width="0.5" />
<circle cx="510" cy="35" r="25" transform="rotate(286.78 510 510)" fill="magenta" stroke="black" stroke-width="0.5" />
<circle cx="510" cy="35" r="25" transform="rotate(292.881 510 510)" fill="magenta" stroke="black" stroke-width="0.5" />
<circle cx="510" cy="35" r="25" transform="rotate(298.983 510 510)" fill="magenta" stroke="black" stroke-width="0.5" />
<circle cx="510" cy="35" r="25" transform="rotate(305.085 510 510)" fill="magenta" stroke="black" stroke-width="0.5" />
<circle cx="510" cy="35" r="25" transform="rotate(311.186 510 510)" fill="magenta" stroke="black" stroke-width="0.5" />
<circle cx="510" cy="35" r="25" transform="rotate(317.288 510 510)" fill="magenta" stroke="black" stroke-width="0.5" />
<circle cx="510" cy="35" r="25" transform="rotate(323.39 510 510)" fill="magenta" stroke="black" stroke-width="0.5" />
<circle cx="510" cy="35" r="25" transform="rotate(329.492 510 510)" fill="magenta" stroke="black" stroke-width="0.5" />
<circle cx="510" cy="35" r="25" transform="rotate(335.593 510 510)" fill="magenta" stroke="black" stroke-width="0.5" />
<circle cx="510" cy="35" r="25" transform="rotate(341.695 510 510)" fill="magenta" stroke="black" stroke-width="0.5" />
<circle cx="510" cy="35" r="25" transform="rotate(347.797 510 510)" fill="magenta" stroke="black" stroke-width="0.5" />
<circle cx="510" cy="35" r="25" transform="rotate(353.898 510 510)" fill="magenta" stroke="black" stroke-width="0.5" />
<circle cx="510" cy="85" r="25" transform="rotate(0 510 510)" fill="magenta" stroke="black" stroke-width="0.5" />
<circle cx="510" cy="85" r="25" transform="rotate(6.79245 510 510)" fill="magenta" stroke="black" stroke-width="0.5" />
<circle cx="510" cy="85" r="25" transform="rotate(13.5849 510 510)" fill="magenta" stroke="black" stroke-width="0.5" />
<circle cx="510" cy="85" r="25" transform="rotate(20.3774 510 510)" fill="magenta" stroke="black" stroke-width="0.5" />
<circle cx="510" cy="85" r="25" transform="rotate(27.1698 510 510)" fill="magenta" stroke="black" stroke-width="0.5" />
<circle cx="510" cy="85" r="25" transform="rotate(33.9623 510 510)" fill="magenta" stroke="black" stroke-width="0.5" />
<circle cx="510" cy="85" r="25" transform="rotate(40.7547 510 510)" fill="magenta" stroke="black" stroke-width="0.5" />
<circle cx="510" cy="85" r="25" transform="rotate(47.5472 510 510)" fill="magenta" stroke="black" stroke-width="0.5" />
<circle cx="510" cy="85" r="25" transform="rotate(54.3396 510 510)" fill="magenta" stroke="black" stroke-width="0.5" />
<circle cx="510" cy="85" r="25" transform="rotate(61.1321 510 510)" fill="magenta" stroke="black" stroke-width="0.5" />
<circle cx="510" cy="85" r="25" transform="rotate(67.9245 510 510)" fill="magenta" stroke="black" stroke-width="0.5" />
<circle cx="510" cy="85" r="25" transform="rotate(74.717 510 510)" fill="magenta" stroke="black" stroke-width="0.5" />
<circle cx="510" cy="85" r="25" transform="rotate(81.5094 510 510)" fill="magenta" stroke="black" stroke-width="0.5" />
<circle cx="510" cy="85" r="25" transform="rotate(88.3019 510 510)" fill="magenta" stroke="black" stroke-width="0.5" />
<circle cx="510" cy="85" r="25" transform="rotate(95.0943 510 510)" fill="magenta" stroke="black" stroke-width="0.5" />
<circle cx="510" cy="85" r="25" transform="rotate(101.887 510 510)" fill="magenta" stroke="black" stroke-width="0.5" />
<circle cx="510" cy="85" r="25" transform="rotate(108.679 510 510)" fill="magenta" stroke="black" stroke-width="0.5" />
<circle cx="510" cy="85" r="25" transform="rotate(115.472 510 510)" fill="magenta" stroke="black" stroke-width="0.5" />
<circle cx="510" cy="85" r="25" transform="rotate(122.264 510 510)" fill="magenta" stroke="black" stroke-width="0.5" />
<circle cx="510" cy="85" r="25" transform="rotate(129.057 510 510)" fill="magenta" stroke="black" stroke-width="0.5" />
<circle cx="510" cy="85" r="25" transform="rotate(135.849 510 510)" fill="magenta" stroke="black" stroke-width="0.5" />
<circle cx="510" cy="85" r="25" transform="rotate(142.642 510 510)" fill="magenta" stroke="black" stroke-width="0.5" />
<circle cx="510" cy="85" r="25" transform="rotate(149.434 510 510)" fill="magenta" stroke="black" stroke-width="0.5" />
<circle cx="510" cy="85" r="25" transform="rotate(156.226 510 510)" fill="magenta" stroke="black" stroke-width="0.5" />
<circle cx="510" cy="85" r="25" transform="rotate(163.019 510 510)" fill="magenta" stroke="black" stroke-width="0.5" />
<circle cx="510" cy="85" r="25" transform="rotate(169.811 510 510)" fill="magenta" stroke="black" stroke-width="0.5" />
<circle cx="510" cy="85" r="25" transform="rotate(176.604 510 510)" fill="magenta" stroke="black" stroke-width="0.5" />
<circle cx="510" cy="85" r="25" transform="rotate(183.396 510 510)" fill="magenta" stroke="black" stroke-width="0.5" />
<circle cx="510" cy="85" r="25" transform="rotate(190.189 510 510)" fill="magenta" stroke="black" stroke-width="0.5" />
<circle cx="510" cy="85" r="25" transform="rotate(196.981 510 510)" fill="magenta" stroke="black" stroke-width="0.5" />
<circle cx="510" cy="85" r="25" transform="rotate(203.774 510 510)" fill="magenta" stroke="black" stroke-width="0.5" />
<circle cx="510" cy="85" r="25" transform="rotate(210.566 510 510)" fill="magenta" stroke="black" stroke-width="0.5" />
<circle cx="510" cy="85" r="25" transform="rotate(217.358 510 510)" fill="magenta" stroke="black" stroke-width="0.5" />
<circle cx="510" cy="85" r="25" transform="rotate(224.151 510 510)" fill="magenta" stroke="black" stroke-width="0.5" />
<circle cx="510" cy="85" r="25" transform="rotate(230.943 510 510)" fill="magenta" stroke="black" stroke-width="0.5" />
<circle cx="510" cy="85" r="25" transform="rotate(237.736 510 510)" fill="magenta" stroke="black" stroke-width="0.5" />
<circle cx="510" cy="85" r="25" transform="rotate(244.528 510 510)" fill="magenta" stroke="black" stroke-width="0.5" />
<circle cx="510" cy="85" r="25" transform="rotate(251.321 510 510)" fill="magenta" stroke="black" stroke-width="0.5" />
<circle cx="510" cy="85" r="25" transform="rotate(258.113 510 510)" fill="magenta" stroke="black" stroke-width="0.5" />
<circle cx="510" cy="85" r="25" transform="rotate(264.906 510 510)" fill="magenta" stroke="black" stroke-width="0.5" />
<circle cx="510" cy="85" r="25" transform="rotate(271.698 510 510)" fill="magenta" stroke="black" stroke-width="0.5" />
<circle cx="510" cy="85" r="25" transform="rotate(278.491 510 510)" fill="magenta" stroke="black" stroke-width="0.5" />
<circle cx="510" cy="85" r="25" transform="rotate(285.283 510 510)" fill="magenta" stroke="black" stroke-width="0.5" />
<circle cx="510" cy="85" r="25" transform="rotate(292.075 510 510)" fill="magenta" stroke="black" stroke-width="0.5" />
<circle cx="510" cy="85" r="25" transform="rotate(298.868 510 510)" fill="magenta" stroke="black" stroke-width="0.5" />
<circle cx="510" cy="85" r="25" transform="rotate(305.66 510 510)" fill="magenta" stroke="black" stroke-width="0.5" />
<circle cx="510" cy="85" r="25" transform="rotate(312.453 510 510)" fill="magenta" stroke="black" stroke-width="0.5" />
<circle cx="510" cy="85" r="25" transform="rotate(319.245 510 510)" fill="magenta" stroke="black" stroke-width="0.5" />
<circle cx="510" cy="85" r="25" transform="rotate(326.038 510 510)" fill="magenta" stroke="black" stroke-width="0.5" />
<circle cx="510" cy="85" r="25" transform="rotate(332.83 510 510)" fill="magenta" stroke="black" stroke-width="0.5" />
<circle cx="510" cy="85" r="25" transform="rotate(339.623 510 510)" fill="magenta" stroke="black" stroke-width="0.5" />
<circle cx="510" cy="85" r="25" transform="rotate(346.415 510 510)" fill="magenta" stroke="black" stroke-width="0.5" />
<circle cx="510" cy="85" r="25" transform="rotate(353.208 510 510)" fill="magenta" stroke="black" stroke-width="0.5" />
<circle cx="510" cy="135" r="25" transform="rotate(0 510 510)" fill="magenta" stroke="black" stroke-width="0.5" />
<circle cx="510" cy="135" r="25" transform="rotate(7.65957 510 510)" fill="magenta" stroke="black" stroke-width="0.5" />
<circle cx="510" cy="135" r="25" transform="rotate(15.3191 510 510)" fill="magenta" stroke="black" stroke-width="0.5" />
<circle cx="510" cy="135" r="25" transform="rotate(22.9787 510 510)" fill="magenta" stroke="black" stroke-width="0.5" />
<circle cx="510" cy="135" r="25" transform="rotate(30.6383 510 510)" fill="magenta" stroke="black" stroke-width="0.5" />
<circle cx="510" cy="135" r="25" transform="rotate(38.2979 510 510)" fill="magenta" stroke="black" stroke-width="0.5" />
<circle cx="510" cy="135" r="25" transform="rotate(45.9574 510 510)" fill="magenta" stroke="black" stroke-width="0.5" />
<circle cx="510" cy="135" r="25" transform="rotate(53.617 510 510)" fill="magenta" stroke="black" stroke-width="0.5" />
<circle cx="510" cy="135" r="25" transform="rotate(61.2766 510 510)" fill="magenta" stroke="black" stroke-width="0.5" />
<circle cx="510" cy="135" r="25" transform="rotate(68.9362 510 510)" fill="magenta" stroke="black" stroke-width="0.5" />
<circle cx="510" cy="135" r="25" transform="rotate(76.5957 510 510)" fill="magenta" stroke="black" stroke-width="0.5" />
<circle cx="510" cy="135" r="25" transform="rotate(84.2553 510 510)" fill="magenta" stroke="black" stroke-width="0.5" />
<circle cx="510" cy="135" r="25" transform="rotate(91.9149 510 510)" fill="magenta" stroke="black" stroke-width="0.5" />
<circle cx="510" cy="135" r="25" transform="rotate(99.5745 510 510)" fill="magenta" stroke="black" stroke-width="0.5" />
<circle cx="510" cy="135" r="25" transform="rotate(107.234 510 510)" fill="magenta" stroke="black" stroke-width="0.5" />
<circle cx="510" cy="135" r="25" transform="rotate(114.894 510 510)" fill="magenta" stroke="black" stroke-width="0.5" />
<circle cx="510" cy="135" r="25" transform="rotate(122.553 510 510)" fill="magenta" stroke="black" stroke-width="0.5" />
<circle cx="510" cy="135" r="25" transform="rotate(130.213 510 510)" fill="magenta" stroke="black" stroke-width="0.5" />
<circle cx="510" cy="135" r="25" transform="rotate(137.872 510 510)" fill="magenta" stroke="black" stroke-width="0.5" />
<circle cx="510" cy="135" r="25" transform="rotate(145.532 510 510)" fill="magenta" stroke="black" stroke-width="0.5" />
<circle cx="510" cy="135" r="25" transform="rotate(153.191 510 510)" fill="magenta" stroke="black" stroke-width="0.5" />
<circle cx="510" cy="135" r="25" transform="rotate(160.851 510 510)" fill="magenta" stroke="black" stroke-width="0.5" />
<circle cx="510" cy="135" r="25" transform="rotate(168.511 510 510)" fill="magenta" stroke="black" stroke-width="0.5" />
<circle cx="510" cy="135" r="25" transform="rotate(176.17 510 510)" fill="magenta" stroke="black" stroke-width="0.5" />
<circle cx="510" cy="135" r="25" transform="rotate(183.83 510 510)" fill="magenta" stroke="black" stroke-width="0.5" />
<circle cx="510" cy="135" r="25" transform="rotate(191.489 510 510)" fill="magenta" stroke="black" stroke-width="0.5" />
<circle cx="510" cy="135" r="25" transform="rotate(199.149 510 510)" fill="magenta" stroke="black" stroke-width="0.5" />
<circle cx="510" cy="135" r="25" transform="rotate(206.809 510 510)" fill="magenta" stroke="black" stroke-width="0.5" />
<circle cx="510" cy="135" r="25" transform="rotate(214.468 510 510)" fill="magenta" stroke="black" stroke-width="0.5" />
<circle cx="510" cy="135" r="25" transform="rotate(222.128 510 510)" fill="magenta" stroke="black" stroke-width="0.5" />
<circle cx="510" cy="135" r="25" transform="rotate(229.787 510 510)" fill="magenta" stroke="black" stroke-width="0.5" />
<circle cx="510" cy="135" r="25" transform="rotate(237.447 510 510)" fill="magenta" stroke="black" stroke-width="0.5" />
<circle cx="510" cy="135" r="25" transform="rotate(245.106 510 510)" fill="magenta" stroke="black" stroke-width="0.5" />
<circle cx="510" cy="135" r="25" transform="rotate(252.766 510 510)" fill="magenta" stroke="black" stroke-width="0.5" />
<circle cx="510" cy="135" r="25" transform="rotate(260.426 510 510)" fill="magenta" stroke="black" stroke-width="0.5" />
<circle cx="510" cy="135" r="25" transform="rotate(268.085 510 510)" fill="magenta" stroke="black" stroke-width="0.5" />
<circle cx="510" cy="135" r="25" transform="rotate(275.745 510 510)" fill="magenta" stroke="black" stroke-width="0.5" />
<circle cx="510" cy="135" r="25" transform="rotate(283.404 510 510)" fill="magenta" stroke="black" stroke-width="0.5" />
<circle cx="510" cy="135" r="25" transform="rotate(291.064 510 510)" fill="magenta" stroke="black" stroke-width="0.5" />
<circle cx="510" cy="135" r="25" transform="rotate(298.723 510 510)" fill="magenta" stroke="black" stroke-width="0.5" />
<circle cx="510" cy="135" r="25" transform="rotate(306.383 510 510)" fill="magenta" stroke="black" stroke-width="0.5" />
<circle cx="510" cy="135" r="25" transform="rotate(314.043 510 510)" fill="magenta" stroke="black" stroke-width="0.5" />
<circle cx="510" cy="135" r="25" transform="rotate(321.702 510 510)" fill="magenta" stroke="black" stroke-width="0.5" />
<circle cx="510" cy="135" r="25" transform="rotate(329.362 510 510)" fill="magenta" stroke="black" stroke-width="0.5" />
<circle cx="510" cy="135" r="25" transform="rotate(337.021 510 510)" fill="magenta" stroke="black" stroke-width="0.5" />
<circle cx="510" cy="135" r="25" transform="rotate(344.681 510 510)" fill="magenta" stroke="black" stroke-width="0.5" />
<circle cx="510" cy="135" r="25" transform="rotate(352.34 510 510)" fill="magenta" stroke="black" stroke-width="0.5" />
<circle cx="510" cy="185" r="25" transform="rotate(0 510 510)" fill="magenta" stroke="black" stroke-width="0.5" />
<circle cx="510" cy="185" r="25" transform="rotate(9 510 510)" fill="magenta" stroke="black" stroke-width="0.5" />
<circle cx="510" cy="185" r="25" transform="rotate(18 510 510)" fill="magenta" stroke="black" stroke-width="0.5" />
<circle cx="510" cy="185" r="25" transform="rotate(27 510 510)" fill="magenta" stroke="black" stroke-width="0.5" />
<circle cx="510" cy="185" r="25" transform="rotate(36 510 510)" fill="magenta" stroke="black" stroke-width="0.5" />
<circle cx="510" cy="185" r="25" transform="rotate(45 510 510)" fill="magenta" stroke="black" stroke-width="0.5" />
<circle cx="510" cy="185" r="25" transform="rotate(54 510 510)" fill="magenta" stroke="black" stroke-width="0.5" />
<circle cx="510" cy="185" r="25" transform="rotate(63 510 510)" fill="magenta" stroke="black" stroke-width="0.5" />
<circle cx="510" cy="185" r="25" transform="rotate(72 510 510)" fill="magenta" stroke="black" stroke-width="0.5" />
<circle cx="510" cy="185" r="25" transform="rotate(81 510 510)" fill="magenta" stroke="black" stroke-width="0.5" />
<circle cx="510" cy="185" r="25" transform="rotate(90 510 510)" fill="magenta" stroke="black" stroke-width="0.5" />
<circle cx="510" cy="185" r="25" transform="rotate(99 510 510)" fill="magenta" stroke="black" stroke-width="0.5" />
<circle cx="510" cy="185" r="25" transform="rotate(108 510 510)" fill="magenta" stroke="black" stroke-width="0.5" />
<circle cx="510" cy="185" r="25" transform="rotate(117 510 510)" fill="magenta" stroke="black" stroke-width="0.5" />
<circle cx="510" cy="185" r="25" transform="rotate(126 510 510)" fill="magenta" stroke="black" stroke-width="0.5" />
<circle cx="510" cy="185" r="25" transform="rotate(135 510 510)" fill="magenta" stroke="black" stroke-width="0.5" />
<circle cx="510" cy="185" r="25" transform="rotate(144 510 510)" fill="magenta" stroke="black" stroke-width="0.5" />
<circle cx="510" cy="185" r="25" transform="rotate(153 510 510)" fill="magenta" stroke="black" stroke-width="0.5" />
<circle cx="510" cy="185" r="25" transform="rotate(162 510 510)" fill="magenta" stroke="black" stroke-width="0.5" />
<circle cx="510" cy="185" r="25" transform="rotate(171 510 510)" fill="magenta" stroke="black" stroke-width="0.5" />
<circle cx="510" cy="185" r="25" transform="rotate(180 510 510)" fill="magenta" stroke="black" stroke-width="0.5" />
<circle cx="510" cy="185" r="25" transform="rotate(189 510 510)" fill="magenta" stroke="black" stroke-width="0.5" />
<circle cx="510" cy="185" r="25" transform="rotate(198 510 510)" fill="magenta" stroke="black" stroke-width="0.5" />
<circle cx="510" cy="185" r="25" transform="rotate(207 510 510)" fill="magenta" stroke="black" stroke-width="0.5" />
<circle cx="510" cy="185" r="25" transform="rotate(216 510 510)" fill="magenta" stroke="black" stroke-width="0.5" />
<circle cx="510" cy="185" r="25" transform="rotate(225 510 510)" fill="magenta" stroke="black" stroke-width="0.5" />
<circle cx="510" cy="185" r="25" transform="rotate(234 510 510)" fill="magenta" stroke="black" stroke-width="0.5" />
<circle cx="510" cy="185" r="25" transform="rotate(243 510 510)" fill="magenta" stroke="black" stroke-width="0.5" />
<circle cx="510" cy="185" r="25" transform="rotate(252 510 510)" fill="magenta" stroke="black" stroke-width="0.5" />
<circle cx="510" cy="185" r="25" transform="rotate(261 510 510)" fill="magenta" stroke="black" stroke-width="0.5" />
<circle cx="510" cy="185" r="25" transform="rotate(270 510 510)" fill="magenta" stroke="black" stroke-width="0.5" />
<circle cx="510" cy="185" r="25" transform="rotate(279 510 510)" fill="magenta" stroke="black" stroke-width="0.5" />
<circle cx="510" cy="185" r="25" transform="rotate(288 510 510)" fill="magenta" stroke="black" stroke-width="0.5" />
<circle cx="510" cy="185" r="25" transform="rotate(297 510 510)" fill="magenta" stroke="black" stroke-width="0.5" />
<circle cx="510" cy="185" r="25" transform="rotate(306 510 510)" fill="magenta" stroke="black" stroke-width="0.5" />
<circle cx="510" cy="185" r="25" transform="rotate(315 510 510)" fill="magenta" stroke="black" stroke-width="0.5" />
<circle cx="510" cy="185" r="25" transform="rotate(324 510 510)" fill="magenta" stroke="black" stroke-width="0.5" />
<circle cx="510" cy="185" r="25" transform="rotate(333 510 510)" fill="magenta" stroke="black" stroke-width="0.5" />
<circle cx="510" cy="185" r="25" transform="rotate(342 510 510)" fill="magenta" stroke="black" stroke-width="0.5" />
<circle cx="510" cy="185" r="25" transform="rotate(351 510 510)" fill="magenta" stroke="black" stroke-width="0.5" />
<circle cx="510" cy="235" r="25" transform="rotate(0 510 510)" fill="magenta" stroke="black" stroke-width="0.5" />
<circle cx="510" cy="235" r="25" transform="rotate(10.5882 510 510)" fill="magenta" stroke="black" stroke-width="0.5" />
<circle cx="510" cy="235" r="25" transform="rotate(21.1765 510 510)" fill="magenta" stroke="black" stroke-width="0.5" />
<circle cx="510" cy="235" r="25" transform="rotate(31.7647 510 510)" fill="magenta" stroke="black" stroke-width="0.5" />
<circle cx="510" cy="235" r="25" transform="rotate(42.3529 510 510)" fill="magenta" stroke="black" stroke-width="0.5" />
<circle cx="510" cy="235" r="25" transform="rotate(52.9412 510 510)" fill="magenta" stroke="black" stroke-width="0.5" />
<circle cx="510" cy="235" r="25" transform="rotate(63.5294 510 510)" fill="magenta" stroke="black" stroke-width="0.5" />
<circle cx="510" cy="235" r="25" transform="rotate(74.1176 510 510)" fill="magenta" stroke="black" stroke-width="0.5" />
<circle cx="510" cy="235" r="25" transform="rotate(84.7059 510 510)" fill="magenta" stroke="black" stroke-width="0.5" />
<circle cx="510" cy="235" r="25" transform="rotate(95.2941 510 510)" fill="magenta" stroke="black" stroke-width="0.5" />
<circle cx="510" cy="235" r="25" transform="rotate(105.882 510 510)" fill="magenta" stroke="black" stroke-width="0.5" />
<circle cx="510" cy="235" r="25" transform="rotate(116.471 510 510)" fill="magenta" stroke="black" stroke-width="0.5" />
<circle cx="510" cy="235" r="25" transform="rotate(127.059 510 510)" fill="magenta" stroke="black" stroke-width="0.5" />
<circle cx="510" cy="235" r="25" transform="rotate(137.647 510 510)" fill="magenta" stroke="black" stroke-width="0.5" />
<circle cx="510" cy="235" r="25" transform="rotate(148.235 510 510)" fill="magenta" stroke="black" stroke-width="0.5" />
<circle cx="510" cy="235" r="25" transform="rotate(158.824 510 510)" fill="magenta" stroke="black" stroke-width="0.5" />
<circle cx="510" cy="235" r="25" transform="rotate(169.412 510 510)" fill="magenta" stroke="black" stroke-width="0.5" />
<circle cx="510" cy="235" r="25" transform="rotate(180 510 510)" fill="magenta" stroke="black" stroke-width="0.5" />
<circle cx="510" cy="235" r="25" transform="rotate(190.588 510 510)" fill="magenta" stroke="black" stroke-width="0.5" />
<circle cx="510" cy="235" r="25" transform="rotate(201.176 510 510)" fill="magenta" stroke="black" stroke-width="0.5" />
<circle cx="510" cy="235" r="25" transform="rotate(211.765 510 510)" fill="magenta" stroke="black" stroke-width="0.5" />
<circle cx="510" cy="235" r="25" transform="rotate(222.353 510 510)" fill="magenta" stroke="black" stroke-width="0.5" />
<circle cx="510" cy="235" r="25" transform="rotate(232.941 510 510)" fill="magenta" stroke="black" stroke-width="0.5" />
<circle cx="510" cy="235" r="25" transform="rotate(243.529 510 510)" fill="magenta" stroke="black" stroke-width="0.5" />
<circle cx="510" cy="235" r="25" transform="rotate(254.118 510 510)" fill="magenta" stroke="black" stroke-width="0.5" />
<circle cx="510" cy="235" r="25" transform="rotate(264.706 510 510)" fill="magenta" stroke="black" stroke-width="0.5" />
<circle cx="510" cy="235" r="25" transform="rotate(275.294 510 510)" fill="magenta" stroke="black" stroke-width="0.5" />
<circle cx="510" cy="235" r="25" transform="rotate(285.882 510 510)" fill="magenta" stroke="black" stroke-width="0.5" />
<circle cx="510" cy="235" r="25" transform="rotate(296.471 510 510)" fill="magenta" stroke="black" stroke-width="0.5" />
<circle cx="510" cy="235" r="25" transform="rotate(307.059 510 510)" fill="magenta" stroke="black" stroke-width="0.5" />
<circle cx="510" cy="235" r="25" transform="rotate(317.647 510 510)" fill="magenta" stroke="black" stroke-width="0.5" />
<circle cx="510" cy="235" r="25" transform="rotate(328.235 510 510)" fill="magenta" stroke="black" stroke-width="0.5" />
<circle cx="510" cy="235" r="25" transform="rotate(338.824 510 510)" fill="magenta" stroke="black" stroke-width="0.5" />
<circle cx="510" cy="235" r="25" transform="rotate(349.412 510 510)" fill="magenta" stroke="black" stroke-width="0.5" />
<circle cx="510" cy="285" r="25" transform="rotate(0 510 510)" fill="magenta" stroke="black" stroke-width="0.5" />
<circle cx="510" cy="285" r="25" transform="rotate(12.8571 510 510)" fill="magenta" stroke="black" stroke-width="0.5" />
<circle cx="510" cy="285" r="25" transform="rotate(25.7143 510 510)" fill="magenta" stroke="black" stroke-width="0.5" />
<circle cx="510" cy="285" r="25" transform="rotate(38.5714 510 510)" fill="magenta" stroke="black" stroke-width="0.5" />
<circle cx="510" cy="285" r="25" transform="rotate(51.4286 510 510)" fill="magenta" stroke="black" stroke-width="0.5" />
<circle cx="510" cy="285" r="25" transform="rotate(64.2857 510 510)" fill="magenta" stroke="black" stroke-width="0.5" />
<circle cx="510" cy="285" r="25" transform="rotate(77.1429 510 510)" fill="magenta" stroke="black" stroke-width="0.5" />
<circle cx="510" cy="285" r="25" transform="rotate(90 510 510)" fill="magenta" stroke="black" stroke-width="0.5" />
<circle cx="510" cy="285" r="25" transform="rotate(102.857 510 510)" fill="magenta" stroke="black" stroke-width="0.5" />
<circle cx="510" cy="285" r="25" transform="rotate(115.714 510 510)" fill="magenta" stroke="black" stroke-width="0.5" />
<circle cx="510" cy="285" r="25" transform="rotate(128.571 510 510)" fill="magenta" stroke="black" stroke-width="0.5" />
<circle cx="510" cy="285" r="25" transform="rotate(141.429 510 510)" fill="magenta" stroke="black" stroke-width="0.5" />
<circle cx="510" cy="285" r="25" transform="rotate(154.286 510 510)" fill="magenta" stroke="black" stroke-width="0.5" />
<circle cx="510" cy="285" r="25" transform="rotate(167.143 510 510)" fill="magenta" stroke="black" stroke-width="0.5" />
<circle cx="510" cy="285" r="25" transform="rotate(180 510 510)" fill="magenta" stroke="black" stroke-width="0.5" />
<circle cx="510" cy="285" r="25" transform="rotate(192.857 510 510)" fill="magenta" stroke="black" stroke-width="0.5" />
<circle cx="510" cy="285" r="25" transform="rotate(205.714 510 510)" fill="magenta" stroke="black" stroke-width="0.5" />
<circle cx="510" cy="285" r="25" transform="rotate(218.571 510 510)" fill="magenta" stroke="black" stroke-width="0.5" />
<circle cx="510" cy="285" r="25" transform="rotate(231.429 510 510)" fill="magenta" stroke="black" stroke-width="0.5" />
<circle cx="510" cy="285" r="25" transform="rotate(244.286 510 510)" fill="magenta" stroke="black" stroke-width="0.5" />
<circle cx="510" cy="285" r="25" transform="rotate(257.143 510 510)" fill="magenta" stroke="black" stroke-width="0.5" />
<circle cx="510" cy="285" r="25" transform="rotate(270 510 510)" fill="magenta" stroke="black" stroke-width="0.5" />
<circle cx="510" cy="285" r="25" transform="rotate(282.857 510 510)" fill="magenta" stroke="black" stroke-width="0.5" />
<circle cx="510" cy="285" r="25" transform="rotate(295.714 510 510)" fill="magenta" stroke="black" stroke-width="0.5" />
<circle cx="510" cy="285" r="25" transform="rotate(308.571 510 510)" fill="magenta" stroke="black" stroke-width="0.5" />
<circle cx="510" cy="285" r="25" transform="rotate(321.429 510 510)" fill="magenta" stroke="black" stroke-width="0.5" />
<circle cx="510" cy="285" r="25" transform="rotate(334.286 510 510)" fill="magenta" stroke="black" stroke-width="0.5" />
<circle cx="510" cy="285" r="25" transform="rotate(347.143 510 510)" fill="magenta" stroke="black" stroke-width="0.5" />
<circle cx="510" cy="335" r="25" transform="rotate(0 510 510)" fill="magenta" stroke="black" stroke-width="0.5" />
<circle cx="510" cy="335" r="25" transform="rotate(17.1429 510 510)" fill="magenta" stroke="black" stroke-width="0.5" />
<circle cx="510" cy="335" r="25" transform="rotate(34.2857 510 510)" fill="magenta" stroke="black" stroke-width="0.5" />
<circle cx="510" cy="335" r="25" transform="rotate(51.4286 510 510)" fill="magenta" stroke="black" stroke-width="0.5" />
<circle cx="510" cy="335" r="25" transform="rotate(68.5714 510 510)" fill="magenta" stroke="black" stroke-width="0.5" />
<circle cx="510" cy="335" r="25" transform="rotate(85.7143 510 510)" fill="magenta" stroke="black" stroke-width="0.5" />
<circle cx="510" cy="335" r="25" transform="rotate(102.857 510 510)" fill="magenta" stroke="black" stroke-width="0.5" />
<circle cx="510" cy="335" r="25" transform="rotate(120 510 510)" fill="magenta" stroke="black" stroke-width="0.5" />
<circle cx="510" cy="335" r="25" transform="rotate(137.143 510 510)" fill="magenta" stroke="black" stroke-width="0.5" />
<circle cx="510" cy="335" r="25" transform="rotate(154.286 510 510)" fill="magenta" stroke="black" stroke-width="0.5" />
<circle cx="510" cy="335" r="25" transform="rotate(171.429 510 510)" fill="magenta" stroke="black" stroke-width="0.5" />
<circle cx="510" cy="335" r="25" transform="rotate(188.571 510 510)" fill="magenta" stroke="black" stroke-width="0.5" />
<circle cx="510" cy="335" r="25" transform="rotate(205.714 510 510)" fill="magenta" stroke="black" stroke-width="0.5" />
<circle cx="510" cy="335" r="25" transform="rotate(222.857 510 510)" fill="magenta" stroke="black" stroke-width="0.5" />
<circle cx="510" cy="335" r="25" transform="rotate(240 510 510)" fill="magenta" stroke="black" stroke-width="0.5" />
<circle cx="510" cy="335" r="25" transform="rotate(257.143 510 510)" fill="magenta" stroke="black" stroke-width="0.5" />
<circle cx="510" cy="335" r="25" transform="rotate(274.286 510 510)" fill="magenta" stroke="black" stroke-width="0.5" />
<circle cx="510" cy="335" r="25" transform="rotate(291.429 510 510)" fill="magenta" stroke="black" stroke-width="0.5" />
<circle cx="510" cy="335" r="25" transform="rotate(308.571 510 510)" fill="magenta" stroke="black" stroke-width="0.5" />
<circle cx="510" cy="335" r="25" transform="rotate(325.714 510 510)" fill="magenta" stroke="black" stroke-width="0.5" />
<circle cx="510" cy="335" r="25" transform="rotate(342.857 510 510)" fill="magenta" stroke="black" stroke-width="0.5" />
<circle cx="510" cy="385" r="25" transform="rotate(0 510 510)" fill="magenta" stroke="black" stroke-width="0.5" />
<circle cx="510" cy="385" r="25" transform="rotate(24 510 510)" fill="magenta" stroke="black" stroke-width="0.5" />
<circle cx="510" cy="385" r="25" transform="rotate(48 510 510)" fill="magenta" stroke="black" stroke-width="0.5" />
<circle cx="510" cy="385" r="25" transform="rotate(72 510 510)" fill="magenta" stroke="black" stroke-width="0.5" />
<circle cx="510" cy="385" r="25" transform="rotate(96 510 510)" fill="magenta" stroke="black" stroke-width="0.5" />
<circle cx="510" cy="385" r="25" transform="rotate(120 510 510)" fill="magenta" stroke="black" stroke-width="0.5" />
<circle cx="510" cy="385" r="25" transform="rotate(144 510 510)" fill="magenta" stroke="black" stroke-width="0.5" />
<circle cx="510" cy="385" r="25" transform="rotate(168 510 510)" fill="magenta" stroke="black" stroke-width="0.5" />
<circle cx="510" cy="385" r="25" transform="rotate(192 510 510)" fill="magenta" stroke="black" stroke-width="0.5" />
<circle cx="510" cy="385" r="25" transform="rotate(216 510 510)" fill="magenta" stroke="black" stroke-width="0.5" />
<circle cx="510" cy="385" r="25" transform="rotate(240 510 510)" fill="magenta" stroke="black" stroke-width="0.5" />
<circle cx="510" cy="385" r="25" transform="rotate(264 510 510)" fill="magenta" stroke="black" stroke-width="0.5" />
<circle cx="510" cy="385" r="25" transform="rotate(288 510 510)" fill="magenta" stroke="black" stroke-width="0.5" />
<circle cx="510" cy="385" r="25" transform="rotate(312 510 510)" fill="magenta" stroke="black" stroke-width="0.5" />
<circle cx="510" cy="385" r="25" transform="rotate(336 510 510)" fill="magenta" stroke="black" stroke-width="0.5" />
<circle cx="510" cy="435" r="25" transform="rotate(0 510 510)" fill="magenta" stroke="black" stroke-width="0.5" />
<circle cx="510" cy="435" r="25" transform="rotate(40 510 510)" fill="magenta" stroke="black" stroke-width="0.5" />
<circle cx="510" cy="435" r="25" transform="rotate(80 510 510)" fill="magenta" stroke="black" stroke-width="0.5" />
<circle cx="510" cy="435" r="25" transform="rotate(120 510 510)" fill="magenta" stroke="black" stroke-width="0.5" />
<circle cx="510" cy="435" r="25" transform="rotate(160 510 510)" fill="magenta" stroke="black" stroke-width="0.5" />
<circle cx="510" cy="435" r="25" transform="rotate(200 510 510)" fill="magenta" stroke="black" stroke-width="0.5" />
<circle cx="510" cy="435" r="25" transform="rotate(240 510 510)" fill="magenta" stroke="black" stroke-width="0.5" />
<circle cx="510" cy="435" r="25" transform="rotate(280 510 510)" fill="magenta" stroke="black" stroke-width="0.5" />
<circle cx="510" cy="435" r="25" transform="rotate(320 510 510)" fill="magenta" stroke="black" stroke-width="0.5" />
<circle cx="510" cy="485" r="25" transform="rotate(0 510 510)" fill="magenta" stroke="black" stroke-width="0.5" />
<circle cx="510" cy="485" r="25" transform="rotate(180 510 510)" fill="magenta" stroke="black" stroke-width="0.5" />
</svg>
