<svg version="1.1" baseProfile="full" xmlns="http://www.w3.org/2000/svg">
<polygon points="260,10 10,443.013 510,443.013" transform="rotate(0 0 0)" fill="dimgrey" stroke="black" stroke-width="0.5" />
<polygon points="260,10 225,70.6218 295,70.6218" transform="rotate(0 0 0)" fill="magenta" stroke="black" stroke-width="0.5" />
<polygon points="260,131.244 225,70.6218 295,70.6218" transform="rotate(0 0 0)" fill="magenta" stroke="black" stroke-width="0.5" />
<polygon points="225,70.6218 190,131.244 260,131.244" transform="rotate(0 0 0)" fill="magenta" stroke="black" stroke-width="0.5" />
<polygon points="225,191.865 190,131.244 260,131.244" transform="rotate(0 0 0)" fill="magenta" stroke="black" stroke-width="0.5" />
<polygon points="295,70.6218 260,131.244 330,131.244" transform="rotate(0 0 0)" fill="magenta" stroke="black" stroke-width="0.5" />
<polygon points="295,191.865 260,131.244 330,131.244" transform="rotate(0 0 0)" fill="magenta" stroke="black" stroke-width="0.5" />
<polygon points="190,131.244 155,191.865 225,191.865" transform="rotate(0 0 0)" fill="magenta" stroke="black" stroke-width="0.5" />
<polygon points="190,252.487 155,191.865 225,191.865" transform="rotate(0 0 0)" fill="magenta" stroke="black" stroke-width="0.5" />
<polygon points="260,131.244 225,191.865 295,191.865" transform="rotate(0 0 0)" fill="magenta" stroke="black" stroke-width="0.5" />
<polygon points="260,252.487 225,191.865 295,191.865" transform="rotate(0 0 0)" fill="magenta" stroke="black" stroke-width="0.5" />
<polygon points="330,131.244 295,191.865 365,191.865" transform="rotate(0 0 0)" fill="magenta" stroke="black" stroke-width="0.5" />
<polygon points="330,252.487 295,191.865 365,191.865" transform="rotate(0 0 0)" fill="magenta" stroke="black" stroke-width="0.5" />
<polygon points="155,191.865 120,252.487 190,252.487" transform="rotate(0 0 0)" fill="magenta" stroke="black" stroke-width="0.5" />
<polygon points="155,313.109 120,252.487 190,252.487" transform="rotate(0 0 0)" fill="magenta" stroke="black" stroke-width="0.5" />
<polygon points="225,191.865 190,252.487 260,252.487" transform="rotate(0 0 0)" fill="magenta" stroke="black" stroke-width="0.5" />
<polygon points="225,313.109 190,252.487 260,252.487" transform="rotate(0 0 0)" fill="magenta" stroke="black" stroke-width="0.5" />
<polygon points="295,191.865 260,252.487 330,252.487" transform="rotate(0 0 0)" fill="magenta" stroke="black" stroke-width="0.5" />
<polygon points="295,313.109 260,252.487 330,252.487" transform="rotate(0 0 0)" fill="magenta" stroke="black" stroke-width="0.5" />
<polygon points="365,191.865 330,252.487 400,252.487" transform="rotate(0 0 0)" fill="magenta" stroke="black" stroke-width="0.5" />
<polygon points="365,313.109 330,252.487 400,252.487" transform="rotate(0 0 0)" fill="magenta" stroke="black" stroke-width="0.5" />
<polygon points="120,252.487 85,313.109 155,313.109" transform="rotate(0 0 0)" fill="magenta" stroke="black" stroke-width="0.5" />
<polygon points="120,373.731 85,313.109 155,313.109" transform="rotate(0 0 0)" fill="magenta" stroke="black" stroke-width="0.5" />
<polygon points="190,252.487 155,313.109 225,313.109" transform="rotate(0 0 0)" fill="magenta" stroke="black" stroke-width="0.5" />
<polygon points="190,373.731 155,313.109 225,313.109" transform="rotate(0 0 0)" fill="magenta" stroke="black" stroke-width="0.5" />
<polygon points="260,252.487 225,313.109 295,313.109" transform="rotate(0 0 0)" fill="magenta" stroke="black" stroke-width="0.5" />
<polygon points="260,373.731 225,313.109 295,313.109" transform="rotate(0 0 0)" fill="magenta" stroke="black" stroke-width="0.5" />
<polygon points="330,252.487 295,313.109 365,313.109" transform="rotate(0 0 0)" fill="magenta" stroke="black" stroke-width="0.5" />
<polygon points="330,373.731 295,313.109 365,313.109" transform="rotate(0 0 0)" fill="magenta" stroke="black" stroke-width="0.5" />
<polygon points="400,252.487 365,313.109 435,313.109" transform="rotate(0 0 0)" fill="magenta" stroke="black" stroke-width="0.5" />
<polygon points="400,373.731 365,313.109 435,313.109" transform="rotate(0 0 0)" fill="magenta" stroke="black" stroke-width="0.5" />
<polygon points="85,313.109 50,373.731 120,373.731" transform="rotate(0 0 0)" fill="magenta" stroke="black" stroke-width="0.5" />
<polygon points="85,434.352 50,373.731 120,373.731" transform="rotate(0 0 0)" fill="magenta" stroke="black" stroke-width="0.5" />
<polygon points="155,313.109 120,373.731 190,373.731" transform="rotate(0 0 0)" fill="magenta" stroke="black" stroke-width="0.5" />
<polygon points="155,434.352 120,373.731 190,373.731" transform="rotate(0 0 0)" fill="magenta" stroke="black" stroke-width="0.5" />
<polygon points="225,313.109 190,373.731 260,373.731" transform="rotate(0 0 0)" fill="magenta" stroke="black" stroke-width="0.5" />
<polygon points="225,434.352 190,373.731 260,373.731" transform="rotate(0 0 0)" fill="magenta" stroke="black" stroke-width="0.5" />
<polygon points="295,313.109 260,373.731 330,373.731" transform="rotate(0 0 0)" fill="magenta" stroke="black" stroke-width="0.5" />
<polygon points="295,434.352 260,373.731 330,373.731" transform="rotate(0 0 0)" fill="magenta" stroke="black" stroke-width="0.5" />
<polygon points="365,313.109 330,373.731 400,373.731" transform="rotate(0 0 0)" fill="magenta" stroke="black" stroke-width="0.5" />
<polygon points="365,434.352 330,373.731 400,373.731" transform="rotate(0 0 0)" fill="magenta" stroke="black" stroke-width="0.5" />
<polygon points="435,313.109 400,373.731 470,373.731" transform="rotate(0 0 0)" fill="magenta" stroke="black" stroke-width="0.5" />
<polygon points="435,434.352 400,373.731 470,373.731" transform="rotate(0 0 0)" fill="magenta" stroke="black" stroke-width="0.5" />
<polygon points="50,373.731 15,434.352 85,434.352" transform="rotate(0 0 0)" fill="magenta" stroke="black" stroke-width="0.5" />
<polygon points="120,373.731 85,434.352 155,434.352" transform="rotate(0 0 0)" fill="magenta" stroke="black" stroke-width="0.5" />
<polygon points="190,373.731 155,434.352 225,434.352" transform="rotate(0 0 0)" fill="magenta" stroke="black" stroke-width="0.5" />
<polygon points="260,373.731 225,434.352 295,434.352" transform="rotate(0 0 0)" fill="magenta" stroke="black" stroke-width="0.5" />
<polygon points="330,373.731 295,434.352 365,434.352" transform="rotate(0 0 0)" fill="magenta" stroke="black" stroke-width="0.5" />
<polygon points="400,373.731 365,434.352 435,434.352" transform="rotate(0 0 0)" fill="magenta" stroke="black" stroke-width="0.5" />
<polygon points="470,373.731 435,434.352 505,434.352" transform="rotate(0 0 0)" fill="magenta" stroke="black" stroke-width="0.5" />
</svg>
