<svg version="1.1" baseProfile="full" xmlns="http://www.w3.org/2000/svg">
<rect x="10"  y="10" width="500" height="500" transform="rotate(0 0 0)" fill="purple" stroke="black" stroke-width="0.5" />
<circle cx="40" cy="40" r="30" transform="rotate(0 0 0)" fill="cyan" stroke="black" stroke-width="0.5" />
<circle cx="100" cy="40" r="30" transform="rotate(0 0 0)" fill="cyan" stroke="black" stroke-width="0.5" />
<circle cx="160" cy="40" r="30" transform="rotate(0 0 0)" fill="cyan" stroke="black" stroke-width="0.5" />
<circle cx="220" cy="40" r="30" transform="rotate(0 0 0)" fill="cyan" stroke="black" stroke-width="0.5" />
<circle cx="280" cy="40" r="30" transform="rotate(0 0 0)" fill="cyan" stroke="black" stroke-width="0.5" />
<circle cx="340" cy="40" r="30" transform="rotate(0 0 0)" fill="cyan" stroke="black" stroke-width="0.5" />
<circle cx="400" cy="40" r="30" transform="rotate(0 0 0)" fill="cyan" stroke="black" stroke-width="0.5" />
<circle cx="460" cy="40" r="30" transform="rotate(0 0 0)" fill="cyan" stroke="black" stroke-width="0.5" />
<circle cx="70" cy="91.9615" r="30" transform="rotate(0 0 0)" fill="cyan" stroke="black" stroke-width="0.5" />
<circle cx="130" cy="91.9615" r="30" transform="rotate(0 0 0)" fill="cyan" stroke="black" stroke-width="0.5" />
<circle cx="190" cy="91.9615" r="30" transform="rotate(0 0 0)" fill="cyan" stroke="black" stroke-width="0.5" />
<circle cx="250" cy="91.9615" r="30" transform="rotate(0 0 0)" fill="cyan" stroke="black" stroke-width="0.5" />
<circle cx="310" cy="91.9615" r="30" transform="rotate(0 0 0)" fill="cyan" stroke="black" stroke-width="0.5" />
<circle cx="370" cy="91.9615" r="30" transform="rotate(0 0 0)" fill="cyan" stroke="black" stroke-width="0.5" />
<circle cx="430" cy="91.9615" r="30" transform="rotate(0 0 0)" fill="cyan" stroke="black" stroke-width="0.5" />
<circle cx="40" cy="143.923" r="30" transform="rotate(0 0 0)" fill="cyan" stroke="black" stroke-width="0.5" />
<circle cx="100" cy="143.923" r="30" transform="rotate(0 0 0)" fill="cyan" stroke="black" stroke-width="0.5" />
<circle cx="160" cy="143.923" r="30" transform="rotate(0 0 0)" fill="cyan" stroke="black" stroke-width="0.5" />
<circle cx="220" cy="143.923" r="30" transform="rotate(0 0 0)" fill="cyan" stroke="black" stroke-width="0.5" />
<circle cx="280" cy="143.923" r="30" transform="rotate(0 0 0)" fill="cyan" stroke="black" stroke-width="0.5" />
<circle cx="340" cy="143.923" r="30" transform="rotate(0 0 0)" fill="cyan" stroke="black" stroke-width="0.5" />
<circle cx="400" cy="143.923" r="30" transform="rotate(0 0 0)" fill="cyan" stroke="black" stroke-width="0.5" />
<circle cx="460" cy="143.923" r="30" transform="rotate(0 0 0)" fill="cyan" stroke="black" stroke-width="0.5" />
<circle cx="70" cy="195.885" r="30" transform="rotate(0 0 0)" fill="cyan" stroke="black" stroke-width="0.5" />
<circle cx="130" cy="195.885" r="30" transform="rotate(0 0 0)" fill="cyan" stroke="black" stroke-width="0.5" />
<circle cx="190" cy="195.885" r="30" transform="rotate(0 0 0)" fill="cyan" stroke="black" stroke-width="0.5" />
<circle cx="250" cy="195.885" r="30" transform="rotate(0 0 0)" fill="cyan" stroke="black" stroke-width="0.5" />
<circle cx="310" cy="195.885" r="30" transform="rotate(0 0 0)" fill="cyan" stroke="black" stroke-width="0.5" />
<circle cx="370" cy="195.885" r="30" transform="rotate(0 0 0)" fill="cyan" stroke="black" stroke-width="0.5" />
<circle cx="430" cy="195.885" r="30" transform="rotate(0 0 0)" fill="cyan" stroke="black" stroke-width="0.5" />
<circle cx="40" cy="247.846" r="30" transform="rotate(0 0 0)" fill="cyan" stroke="black" stroke-width="0.5" />
<circle cx="100" cy="247.846" r="30" transform="rotate(0 0 0)" fill="cyan" stroke="black" stroke-width="0.5" />
<circle cx="160" cy="247.846" r="30" transform="rotate(0 0 0)" fill="cyan" stroke="black" stroke-width="0.5" />
<circle cx="220" cy="247.846" r="30" transform="rotate(0 0 0)" fill="cyan" stroke="black" stroke-width="0.5" />
<circle cx="280" cy="247.846" r="30" transform="rotate(0 0 0)" fill="cyan" stroke="black" stroke-width="0.5" />
<circle cx="340" cy="247.846" r="30" transform="rotate(0 0 0)" fill="cyan" stroke="black" stroke-width="0.5" />
<circle cx="400" cy="247.846" r="30" transform="rotate(0 0 0)" fill="cyan" stroke="black" stroke-width="0.5" />
<circle cx="460" cy="247.846" r="30" transform="rotate(0 0 0)" fill="cyan" stroke="black" stroke-width="0.5" />
<circle cx="70" cy="299.808" r="30" transform="rotate(0 0 0)" fill="cyan" stroke="black" stroke-width="0.5" />
<circle cx="130" cy="299.808" r="30" transform="rotate(0 0 0)" fill="cyan" stroke="black" stroke-width="0.5" />
<circle cx="190" cy="299.808" r="30" transform="rotate(0 0 0)" fill="cyan" stroke="black" stroke-width="0.5" />
<circle cx="250" cy="299.808" r="30" transform="rotate(0 0 0)" fill="cyan" stroke="black" stroke-width="0.5" />
<circle cx="310" cy="299.808" r="30" transform="rotate(0 0 0)" fill="cyan" stroke="black" stroke-width="0.5" />
<circle cx="370" cy="299.808" r="30" transform="rotate(0 0 0)" fill="cyan" stroke="black" stroke-width="0.5" />
<circle cx="430" cy="299.808" r="30" transform="rotate(0 0 0)" fill="cyan" stroke="black" stroke-width="0.5" />
<circle cx="40" cy="351.769" r="30" transform="rotate(0 0 0)" fill="cyan" stroke="black" stroke-width="0.5" />
<circle cx="100" cy="351.769" r="30" transform="rotate(0 0 0)" fill="cyan" stroke="black" stroke-width="0.5" />
<circle cx="160" cy="351.769" r="30" transform="rotate(0 0 0)" fill="cyan" stroke="black" stroke-width="0.5" />
<circle cx="220" cy="351.769" r="30" transform="rotate(0 0 0)" fill="cyan" stroke="black" stroke-width="0.5" />
<circle cx="280" cy="351.769" r="30" transform="rotate(0 0 0)" fill="cyan" stroke="black" stroke-width="0.5" />
<circle cx="340" cy="351.769" r="30" transform="rotate(0 0 0)" fill="cyan" stroke="black" stroke-width="0.5" />
<circle cx="400" cy="351.769" r="30" transform="rotate(0 0 0)" fill="cyan" stroke="black" stroke-width="0.5" />
<circle cx="460" cy="351.769" r="30" transform="rotate(0 0 0)" fill="cyan" stroke="black" stroke-width="0.5" />
<circle cx="70" cy="403.731" r="30" transform="rotate(0 0 0)" fill="cyan" stroke="black" stroke-width="0.5" />
<circle cx="130" cy="403.731" r="30" transform="rotate(0 0 0)" fill="cyan" stroke="black" stroke-width="0.5" />
<circle cx="190" cy="403.731" r="30" transform="rotate(0 0 0)" fill="cyan" stroke="black" stroke-width="0.5" />
<circle cx="250" cy="403.731" r="30" transform="rotate(0 0 0)" fill="cyan" stroke="black" stroke-width="0.5" />
<circle cx="310" cy="403.731" r="30" transform="rotate(0 0 0)" fill="cyan" stroke="black" stroke-width="0.5" />
<circle cx="370" cy="403.731" r="30" transform="rotate(0 0 0)" fill="cyan" stroke="black" stroke-width="0.5" />
<circle cx="430" cy="403.731" r="30" transform="rotate(0 0 0)" fill="cyan" stroke="black" stroke-width="0.5" />
<circle cx="40" cy="455.692" r="30" transform="rotate(0 0 0)" fill="cyan" stroke="black" stroke-width="0.5" />
<circle cx="100" cy="455.692" r="30" transform="rotate(0 0 0)" fill="cyan" stroke="black" stroke-width="0.5" />
<circle cx="160" cy="455.692" r="30" transform="rotate(0 0 0)" fill="cyan" stroke="black" stroke-width="0.5" />
<circle cx="220" cy="455.692" r="30" transform="rotate(0 0 0)" fill="cyan" stroke="black" stroke-width="0.5" />
<circle cx="280" cy="455.692" r="30" transform="rotate(0 0 0)" fill="cyan" stroke="black" stroke-width="0.5" />
<circle cx="340" cy="455.692" r="30" transform="rotate(0 0 0)" fill="cyan" stroke="black" stroke-width="0.5" />
<circle cx="400" cy="455.692" r="30" transform="rotate(0 0 0)" fill="cyan" stroke="black" stroke-width="0.5" />
<circle cx="460" cy="455.692" r="30" transform="rotate(0 0 0)" fill="cyan" stroke="black" stroke-width="0.5" />
</svg>
