<svg version="1.1" baseProfile="full" xmlns="http://www.w3.org/2000/svg">
<rect x="0"  y="0" width="800" height="350" transform="rotate(0 0 0)" fill="blue" stroke="black" stroke-width="0.5" />
<rect x="0"  y="0" width="100" height="50" transform="rotate(0 0 0)" fill="magenta" stroke="black" stroke-width="0.5" />
<rect x="100"  y="0" width="100" height="50" transform="rotate(0 0 0)" fill="magenta" stroke="black" stroke-width="0.5" />
<rect x="200"  y="0" width="100" height="50" transform="rotate(0 0 0)" fill="magenta" stroke="black" stroke-width="0.5" />
<rect x="300"  y="0" width="100" height="50" transform="rotate(0 0 0)" fill="magenta" stroke="black" stroke-width="0.5" />
<rect x="400"  y="0" width="100" height="50" transform="rotate(0 0 0)" fill="magenta" stroke="black" stroke-width="0.5" />
<rect x="500"  y="0" width="100" height="50" transform="rotate(0 0 0)" fill="magenta" stroke="black" stroke-width="0.5" />
<rect x="600"  y="0" width="100" height="50" transform="rotate(0 0 0)" fill="magenta" stroke="black" stroke-width="0.5" />
<rect x="700"  y="0" width="100" height="50" transform="rotate(0 0 0)" fill="magenta" stroke="black" stroke-width="0.5" />
<rect x="0"  y="50" width="100" height="50" transform="rotate(0 0 0)" fill="magenta" stroke="black" stroke-width="0.5" />
<rect x="100"  y="50" width="100" height="50" transform="rotate(0 0 0)" fill="magenta" stroke="black" stroke-width="0.5" />
<rect x="200"  y="50" width="100" height="50" transform="rotate(0 0 0)" fill="magenta" stroke="black" stroke-width="0.5" />
<rect x="300"  y="50" width="100" height="50" transform="rotate(0 0 0)" fill="magenta" stroke="black" stroke-width="0.5" />
<rect x="400"  y="50" width="100" height="50" transform="rotate(0 0 0)" fill="magenta" stroke="black" stroke-width="0.5" />
<rect x="500"  y="50" width="100" height="50" transform="rotate(0 0 0)" fill="magenta" stroke="black" stroke-width="0.5" />
<rect x="600"  y="50" width="100" height="50" transform="rotate(0 0 0)" fill="magenta" stroke="black" stroke-width="0.5" />
<rect x="700"  y="50" width="100" height="50" transform="rotate(0 0 0)" fill="magenta" stroke="black" stroke-width="0.5" />
<rect x="0"  y="100" width="100" height="50" transform="rotate(0 0 0)" fill="magenta" stroke="black" stroke-width="0.5" />
<rect x="100"  y="100" width="100" height="50" transform="rotate(0 0 0)" fill="magenta" stroke="black" stroke-width="0.5" />
<rect x="200"  y="100" width="100" height="50" transform="rotate(0 0 0)" fill="magenta" stroke="black" stroke-width="0.5" />
<rect x="300"  y="100" width="100" height="50" transform="rotate(0 0 0)" fill="magenta" stroke="black" stroke-width="0.5" />
<rect x="400"  y="100" width="100" height="50" transform="rotate(0 0 0)" fill="magenta" stroke="black" stroke-width="0.5" />
<rect x="500"  y="100" width="100" height="50" transform="rotate(0 0 0)" fill="magenta" stroke="black" stroke-width="0.5" />
<rect x="600"  y="100" width="100" height="50" transform="rotate(0 0 0)" fill="magenta" stroke="black" stroke-width="0.5" />
<rect x="700"  y="100" width="100" height="50" transform="rotate(0 0 0)" fill="magenta" stroke="black" stroke-width="0.5" />
<rect x="0"  y="150" width="100" height="50" transform="rotate(0 0 0)" fill="magenta" stroke="black" stroke-width="0.5" />
<rect x="100"  y="150" width="100" height="50" transform="rotate(0 0 0)" fill="magenta" stroke="black" stroke-width="0.5" />
<rect x="200"  y="150" width="100" height="50" transform="rotate(0 0 0)" fill="magenta" stroke="black" stroke-width="0.5" />
<rect x="300"  y="150" width="100" height="50" transform="rotate(0 0 0)" fill="magenta" stroke="black" stroke-width="0.5" />
<rect x="400"  y="150" width="100" height="50" transform="rotate(0 0 0)" fill="magenta" stroke="black" stroke-width="0.5" />
<rect x="500"  y="150" width="100" height="50" transform="rotate(0 0 0)" fill="magenta" stroke="black" stroke-width="0.5" />
<rect x="600"  y="150" width="100" height="50" transform="rotate(0 0 0)" fill="magenta" stroke="black" stroke-width="0.5" />
<rect x="700"  y="150" width="100" height="50" transform="rotate(0 0 0)" fill="magenta" stroke="black" stroke-width="0.5" />
<rect x="0"  y="200" width="100" height="50" transform="rotate(0 0 0)" fill="magenta" stroke="black" stroke-width="0.5" />
<rect x="100"  y="200" width="100" height="50" transform="rotate(0 0 0)" fill="magenta" stroke="black" stroke-width="0.5" />
<rect x="200"  y="200" width="100" height="50" transform="rotate(0 0 0)" fill="magenta" stroke="black" stroke-width="0.5" />
<rect x="300"  y="200" width="100" height="50" transform="rotate(0 0 0)" fill="magenta" stroke="black" stroke-width="0.5" />
<rect x="400"  y="200" width="100" height="50" transform="rotate(0 0 0)" fill="magenta" stroke="black" stroke-width="0.5" />
<rect x="500"  y="200" width="100" height="50" transform="rotate(0 0 0)" fill="magenta" stroke="black" stroke-width="0.5" />
<rect x="600"  y="200" width="100" height="50" transform="rotate(0 0 0)" fill="magenta" stroke="black" stroke-width="0.5" />
<rect x="700"  y="200" width="100" height="50" transform="rotate(0 0 0)" fill="magenta" stroke="black" stroke-width="0.5" />
<rect x="0"  y="250" width="100" height="50" transform="rotate(0 0 0)" fill="magenta" stroke="black" stroke-width="0.5" />
<rect x="100"  y="250" width="100" height="50" transform="rotate(0 0 0)" fill="magenta" stroke="black" stroke-width="0.5" />
<rect x="200"  y="250" width="100" height="50" transform="rotate(0 0 0)" fill="magenta" stroke="black" stroke-width="0.5" />
<rect x="300"  y="250" width="100" height="50" transform="rotate(0 0 0)" fill="magenta" stroke="black" stroke-width="0.5" />
<rect x="400"  y="250" width="100" height="50" transform="rotate(0 0 0)" fill="magenta" stroke="black" stroke-width="0.5" />
<rect x="500"  y="250" width="100" height="50" transform="rotate(0 0 0)" fill="magenta" stroke="black" stroke-width="0.5" />
<rect x="600"  y="250" width="100" height="50" transform="rotate(0 0 0)" fill="magenta" stroke="black" stroke-width="0.5" />
<rect x="700"  y="250" width="100" height="50" transform="rotate(0 0 0)" fill="magenta" stroke="black" stroke-width="0.5" />
<rect x="0"  y="300" width="100" height="50" transform="rotate(0 0 0)" fill="magenta" stroke="black" stroke-width="0.5" />
<rect x="100"  y="300" width="100" height="50" transform="rotate(0 0 0)" fill="magenta" stroke="black" stroke-width="0.5" />
<rect x="200"  y="300" width="100" height="50" transform="rotate(0 0 0)" fill="magenta" stroke="black" stroke-width="0.5" />
<rect x="300"  y="300" width="100" height="50" transform="rotate(0 0 0)" fill="magenta" stroke="black" stroke-width="0.5" />
<rect x="400"  y="300" width="100" height="50" transform="rotate(0 0 0)" fill="magenta" stroke="black" stroke-width="0.5" />
<rect x="500"  y="300" width="100" height="50" transform="rotate(0 0 0)" fill="magenta" stroke="black" stroke-width="0.5" />
<rect x="600"  y="300" width="100" height="50" transform="rotate(0 0 0)" fill="magenta" stroke="black" stroke-width="0.5" />
<rect x="700"  y="300" width="100" height="50" transform="rotate(0 0 0)" fill="magenta" stroke="black" stroke-width="0.5" />
</svg>
