<svg version="1.1" baseProfile="full" xmlns="http://www.w3.org/2000/svg">
<polygon points="260,10 10,443.013 510,443.013" transform="rotate(0 0 0)" fill="dimgrey" stroke="black" stroke-width="0.5" />
<rect x="40"  y="428.013" width="110" height="15" transform="rotate(0 0 0)" fill="green" stroke="black" stroke-width="0.5" />
<rect x="150"  y="428.013" width="110" height="15" transform="rotate(0 0 0)" fill="green" stroke="black" stroke-width="0.5" />
<rect x="260"  y="428.013" width="110" height="15" transform="rotate(0 0 0)" fill="green" stroke="black" stroke-width="0.5" />
<rect x="370"  y="428.013" width="110" height="15" transform="rotate(0 0 0)" fill="green" stroke="black" stroke-width="0.5" />
<rect x="40"  y="413.013" width="110" height="15" transform="rotate(0 0 0)" fill="green" stroke="black" stroke-width="0.5" />
<rect x="150"  y="413.013" width="110" height="15" transform="rotate(0 0 0)" fill="green" stroke="black" stroke-width="0.5" />
<rect x="260"  y="413.013" width="110" height="15" transform="rotate(0 0 0)" fill="green" stroke="black" stroke-width="0.5" />
<rect x="370"  y="413.013" width="110" height="15" transform="rotate(0 0 0)" fill="green" stroke="black" stroke-width="0.5" />
<rect x="40"  y="398.013" width="110" height="15" transform="rotate(0 0 0)" fill="green" stroke="black" stroke-width="0.5" />
<rect x="150"  y="398.013" width="110" height="15" transform="rotate(0 0 0)" fill="green" stroke="black" stroke-width="0.5" />
<rect x="260"  y="398.013" width="110" height="15" transform="rotate(0 0 0)" fill="green" stroke="black" stroke-width="0.5" />
<rect x="370"  y="398.013" width="110" height="15" transform="rotate(0 0 0)" fill="green" stroke="black" stroke-width="0.5" />
<rect x="95"  y="383.013" width="110" height="15" transform="rotate(0 0 0)" fill="green" stroke="black" stroke-width="0.5" />
<rect x="205"  y="383.013" width="110" height="15" transform="rotate(0 0 0)" fill="green" stroke="black" stroke-width="0.5" />
<rect x="315"  y="383.013" width="110" height="15" transform="rotate(0 0 0)" fill="green" stroke="black" stroke-width="0.5" />
<rect x="95"  y="368.013" width="110" height="15" transform="rotate(0 0 0)" fill="green" stroke="black" stroke-width="0.5" />
<rect x="205"  y="368.013" width="110" height="15" transform="rotate(0 0 0)" fill="green" stroke="black" stroke-width="0.5" />
<rect x="315"  y="368.013" width="110" height="15" transform="rotate(0 0 0)" fill="green" stroke="black" stroke-width="0.5" />
<rect x="95"  y="353.013" width="110" height="15" transform="rotate(0 0 0)" fill="green" stroke="black" stroke-width="0.5" />
<rect x="205"  y="353.013" width="110" height="15" transform="rotate(0 0 0)" fill="green" stroke="black" stroke-width="0.5" />
<rect x="315"  y="353.013" width="110" height="15" transform="rotate(0 0 0)" fill="green" stroke="black" stroke-width="0.5" />
<rect x="95"  y="338.013" width="110" height="15" transform="rotate(0 0 0)" fill="green" stroke="black" stroke-width="0.5" />
<rect x="205"  y="338.013" width="110" height="15" transform="rotate(0 0 0)" fill="green" stroke="black" stroke-width="0.5" />
<rect x="315"  y="338.013" width="110" height="15" transform="rotate(0 0 0)" fill="green" stroke="black" stroke-width="0.5" />
<rect x="95"  y="323.013" width="110" height="15" transform="rotate(0 0 0)" fill="green" stroke="black" stroke-width="0.5" />
<rect x="205"  y="323.013" width="110" height="15" transform="rotate(0 0 0)" fill="green" stroke="black" stroke-width="0.5" />
<rect x="315"  y="323.013" width="110" height="15" transform="rotate(0 0 0)" fill="green" stroke="black" stroke-width="0.5" />
<rect x="95"  y="308.013" width="110" height="15" transform="rotate(0 0 0)" fill="green" stroke="black" stroke-width="0.5" />
<rect x="205"  y="308.013" width="110" height="15" transform="rotate(0 0 0)" fill="green" stroke="black" stroke-width="0.5" />
<rect x="315"  y="308.013" width="110" height="15" transform="rotate(0 0 0)" fill="green" stroke="black" stroke-width="0.5" />
<rect x="150"  y="293.013" width="110" height="15" transform="rotate(0 0 0)" fill="green" stroke="black" stroke-width="0.5" />
<rect x="260"  y="293.013" width="110" height="15" transform="rotate(0 0 0)" fill="green" stroke="black" stroke-width="0.5" />
<rect x="150"  y="278.013" width="110" height="15" transform="rotate(0 0 0)" fill="green" stroke="black" stroke-width="0.5" />
<rect x="260"  y="278.013" width="110" height="15" transform="rotate(0 0 0)" fill="green" stroke="black" stroke-width="0.5" />
<rect x="150"  y="263.013" width="110" height="15" transform="rotate(0 0 0)" fill="green" stroke="black" stroke-width="0.5" />
<rect x="260"  y="263.013" width="110" height="15" transform="rotate(0 0 0)" fill="green" stroke="black" stroke-width="0.5" />
<rect x="150"  y="248.013" width="110" height="15" transform="rotate(0 0 0)" fill="green" stroke="black" stroke-width="0.5" />
<rect x="260"  y="248.013" width="110" height="15" transform="rotate(0 0 0)" fill="green" stroke="black" stroke-width="0.5" />
<rect x="150"  y="233.013" width="110" height="15" transform="rotate(0 0 0)" fill="green" stroke="black" stroke-width="0.5" />
<rect x="260"  y="233.013" width="110" height="15" transform="rotate(0 0 0)" fill="green" stroke="black" stroke-width="0.5" />
<rect x="150"  y="218.013" width="110" height="15" transform="rotate(0 0 0)" fill="green" stroke="black" stroke-width="0.5" />
<rect x="260"  y="218.013" width="110" height="15" transform="rotate(0 0 0)" fill="green" stroke="black" stroke-width="0.5" />
<rect x="150"  y="203.013" width="110" height="15" transform="rotate(0 0 0)" fill="green" stroke="black" stroke-width="0.5" />
<rect x="260"  y="203.013" width="110" height="15" transform="rotate(0 0 0)" fill="green" stroke="black" stroke-width="0.5" />
<rect x="205"  y="188.013" width="110" height="15" transform="rotate(0 0 0)" fill="green" stroke="black" stroke-width="0.5" />
<rect x="205"  y="173.013" width="110" height="15" transform="rotate(0 0 0)" fill="green" stroke="black" stroke-width="0.5" />
<rect x="205"  y="158.013" width="110" height="15" transform="rotate(0 0 0)" fill="green" stroke="black" stroke-width="0.5" />
<rect x="205"  y="143.013" width="110" height="15" transform="rotate(0 0 0)" fill="green" stroke="black" stroke-width="0.5" />
<rect x="205"  y="128.013" width="110" height="15" transform="rotate(0 0 0)" fill="green" stroke="black" stroke-width="0.5" />
<rect x="205"  y="113.013" width="110" height="15" transform="rotate(0 0 0)" fill="green" stroke="black" stroke-width="0.5" />
</svg>
