<svg version="1.1" baseProfile="full" xmlns="http://www.w3.org/2000/svg">
<polygon points="350,0 0,606.218 700,606.218" transform="rotate(0 0 0)" fill="brown" stroke="black" stroke-width="0.5" />
<rect x="20"  y="586.218" width="60" height="20" transform="rotate(0 0 0)" fill="yellow" stroke="black" stroke-width="0.5" />
<rect x="80"  y="586.218" width="60" height="20" transform="rotate(0 0 0)" fill="yellow" stroke="black" stroke-width="0.5" />
<rect x="140"  y="586.218" width="60" height="20" transform="rotate(0 0 0)" fill="yellow" stroke="black" stroke-width="0.5" />
<rect x="200"  y="586.218" width="60" height="20" transform="rotate(0 0 0)" fill="yellow" stroke="black" stroke-width="0.5" />
<rect x="260"  y="586.218" width="60" height="20" transform="rotate(0 0 0)" fill="yellow" stroke="black" stroke-width="0.5" />
<rect x="320"  y="586.218" width="60" height="20" transform="rotate(0 0 0)" fill="yellow" stroke="black" stroke-width="0.5" />
<rect x="380"  y="586.218" width="60" height="20" transform="rotate(0 0 0)" fill="yellow" stroke="black" stroke-width="0.5" />
<rect x="440"  y="586.218" width="60" height="20" transform="rotate(0 0 0)" fill="yellow" stroke="black" stroke-width="0.5" />
<rect x="500"  y="586.218" width="60" height="20" transform="rotate(0 0 0)" fill="yellow" stroke="black" stroke-width="0.5" />
<rect x="560"  y="586.218" width="60" height="20" transform="rotate(0 0 0)" fill="yellow" stroke="black" stroke-width="0.5" />
<rect x="620"  y="586.218" width="60" height="20" transform="rotate(0 0 0)" fill="yellow" stroke="black" stroke-width="0.5" />
<rect x="50"  y="566.218" width="60" height="20" transform="rotate(0 0 0)" fill="yellow" stroke="black" stroke-width="0.5" />
<rect x="110"  y="566.218" width="60" height="20" transform="rotate(0 0 0)" fill="yellow" stroke="black" stroke-width="0.5" />
<rect x="170"  y="566.218" width="60" height="20" transform="rotate(0 0 0)" fill="yellow" stroke="black" stroke-width="0.5" />
<rect x="230"  y="566.218" width="60" height="20" transform="rotate(0 0 0)" fill="yellow" stroke="black" stroke-width="0.5" />
<rect x="290"  y="566.218" width="60" height="20" transform="rotate(0 0 0)" fill="yellow" stroke="black" stroke-width="0.5" />
<rect x="350"  y="566.218" width="60" height="20" transform="rotate(0 0 0)" fill="yellow" stroke="black" stroke-width="0.5" />
<rect x="410"  y="566.218" width="60" height="20" transform="rotate(0 0 0)" fill="yellow" stroke="black" stroke-width="0.5" />
<rect x="470"  y="566.218" width="60" height="20" transform="rotate(0 0 0)" fill="yellow" stroke="black" stroke-width="0.5" />
<rect x="530"  y="566.218" width="60" height="20" transform="rotate(0 0 0)" fill="yellow" stroke="black" stroke-width="0.5" />
<rect x="590"  y="566.218" width="60" height="20" transform="rotate(0 0 0)" fill="yellow" stroke="black" stroke-width="0.5" />
<rect x="50"  y="546.218" width="60" height="20" transform="rotate(0 0 0)" fill="yellow" stroke="black" stroke-width="0.5" />
<rect x="110"  y="546.218" width="60" height="20" transform="rotate(0 0 0)" fill="yellow" stroke="black" stroke-width="0.5" />
<rect x="170"  y="546.218" width="60" height="20" transform="rotate(0 0 0)" fill="yellow" stroke="black" stroke-width="0.5" />
<rect x="230"  y="546.218" width="60" height="20" transform="rotate(0 0 0)" fill="yellow" stroke="black" stroke-width="0.5" />
<rect x="290"  y="546.218" width="60" height="20" transform="rotate(0 0 0)" fill="yellow" stroke="black" stroke-width="0.5" />
<rect x="350"  y="546.218" width="60" height="20" transform="rotate(0 0 0)" fill="yellow" stroke="black" stroke-width="0.5" />
<rect x="410"  y="546.218" width="60" height="20" transform="rotate(0 0 0)" fill="yellow" stroke="black" stroke-width="0.5" />
<rect x="470"  y="546.218" width="60" height="20" transform="rotate(0 0 0)" fill="yellow" stroke="black" stroke-width="0.5" />
<rect x="530"  y="546.218" width="60" height="20" transform="rotate(0 0 0)" fill="yellow" stroke="black" stroke-width="0.5" />
<rect x="590"  y="546.218" width="60" height="20" transform="rotate(0 0 0)" fill="yellow" stroke="black" stroke-width="0.5" />
<rect x="50"  y="526.218" width="60" height="20" transform="rotate(0 0 0)" fill="yellow" stroke="black" stroke-width="0.5" />
<rect x="110"  y="526.218" width="60" height="20" transform="rotate(0 0 0)" fill="yellow" stroke="black" stroke-width="0.5" />
<rect x="170"  y="526.218" width="60" height="20" transform="rotate(0 0 0)" fill="yellow" stroke="black" stroke-width="0.5" />
<rect x="230"  y="526.218" width="60" height="20" transform="rotate(0 0 0)" fill="yellow" stroke="black" stroke-width="0.5" />
<rect x="290"  y="526.218" width="60" height="20" transform="rotate(0 0 0)" fill="yellow" stroke="black" stroke-width="0.5" />
<rect x="350"  y="526.218" width="60" height="20" transform="rotate(0 0 0)" fill="yellow" stroke="black" stroke-width="0.5" />
<rect x="410"  y="526.218" width="60" height="20" transform="rotate(0 0 0)" fill="yellow" stroke="black" stroke-width="0.5" />
<rect x="470"  y="526.218" width="60" height="20" transform="rotate(0 0 0)" fill="yellow" stroke="black" stroke-width="0.5" />
<rect x="530"  y="526.218" width="60" height="20" transform="rotate(0 0 0)" fill="yellow" stroke="black" stroke-width="0.5" />
<rect x="590"  y="526.218" width="60" height="20" transform="rotate(0 0 0)" fill="yellow" stroke="black" stroke-width="0.5" />
<rect x="80"  y="506.218" width="60" height="20" transform="rotate(0 0 0)" fill="yellow" stroke="black" stroke-width="0.5" />
<rect x="140"  y="506.218" width="60" height="20" transform="rotate(0 0 0)" fill="yellow" stroke="black" stroke-width="0.5" />
<rect x="200"  y="506.218" width="60" height="20" transform="rotate(0 0 0)" fill="yellow" stroke="black" stroke-width="0.5" />
<rect x="260"  y="506.218" width="60" height="20" transform="rotate(0 0 0)" fill="yellow" stroke="black" stroke-width="0.5" />
<rect x="320"  y="506.218" width="60" height="20" transform="rotate(0 0 0)" fill="yellow" stroke="black" stroke-width="0.5" />
<rect x="380"  y="506.218" width="60" height="20" transform="rotate(0 0 0)" fill="yellow" stroke="black" stroke-width="0.5" />
<rect x="440"  y="506.218" width="60" height="20" transform="rotate(0 0 0)" fill="yellow" stroke="black" stroke-width="0.5" />
<rect x="500"  y="506.218" width="60" height="20" transform="rotate(0 0 0)" fill="yellow" stroke="black" stroke-width="0.5" />
<rect x="560"  y="506.218" width="60" height="20" transform="rotate(0 0 0)" fill="yellow" stroke="black" stroke-width="0.5" />
<rect x="80"  y="486.218" width="60" height="20" transform="rotate(0 0 0)" fill="yellow" stroke="black" stroke-width="0.5" />
<rect x="140"  y="486.218" width="60" height="20" transform="rotate(0 0 0)" fill="yellow" stroke="black" stroke-width="0.5" />
<rect x="200"  y="486.218" width="60" height="20" transform="rotate(0 0 0)" fill="yellow" stroke="black" stroke-width="0.5" />
<rect x="260"  y="486.218" width="60" height="20" transform="rotate(0 0 0)" fill="yellow" stroke="black" stroke-width="0.5" />
<rect x="320"  y="486.218" width="60" height="20" transform="rotate(0 0 0)" fill="yellow" stroke="black" stroke-width="0.5" />
<rect x="380"  y="486.218" width="60" height="20" transform="rotate(0 0 0)" fill="yellow" stroke="black" stroke-width="0.5" />
<rect x="440"  y="486.218" width="60" height="20" transform="rotate(0 0 0)" fill="yellow" stroke="black" stroke-width="0.5" />
<rect x="500"  y="486.218" width="60" height="20" transform="rotate(0 0 0)" fill="yellow" stroke="black" stroke-width="0.5" />
<rect x="560"  y="486.218" width="60" height="20" transform="rotate(0 0 0)" fill="yellow" stroke="black" stroke-width="0.5" />
<rect x="110"  y="466.218" width="60" height="20" transform="rotate(0 0 0)" fill="yellow" stroke="black" stroke-width="0.5" />
<rect x="170"  y="466.218" width="60" height="20" transform="rotate(0 0 0)" fill="yellow" stroke="black" stroke-width="0.5" />
<rect x="230"  y="466.218" width="60" height="20" transform="rotate(0 0 0)" fill="yellow" stroke="black" stroke-width="0.5" />
<rect x="290"  y="466.218" width="60" height="20" transform="rotate(0 0 0)" fill="yellow" stroke="black" stroke-width="0.5" />
<rect x="350"  y="466.218" width="60" height="20" transform="rotate(0 0 0)" fill="yellow" stroke="black" stroke-width="0.5" />
<rect x="410"  y="466.218" width="60" height="20" transform="rotate(0 0 0)" fill="yellow" stroke="black" stroke-width="0.5" />
<rect x="470"  y="466.218" width="60" height="20" transform="rotate(0 0 0)" fill="yellow" stroke="black" stroke-width="0.5" />
<rect x="530"  y="466.218" width="60" height="20" transform="rotate(0 0 0)" fill="yellow" stroke="black" stroke-width="0.5" />
<rect x="110"  y="446.218" width="60" height="20" transform="rotate(0 0 0)" fill="yellow" stroke="black" stroke-width="0.5" />
<rect x="170"  y="446.218" width="60" height="20" transform="rotate(0 0 0)" fill="yellow" stroke="black" stroke-width="0.5" />
<rect x="230"  y="446.218" width="60" height="20" transform="rotate(0 0 0)" fill="yellow" stroke="black" stroke-width="0.5" />
<rect x="290"  y="446.218" width="60" height="20" transform="rotate(0 0 0)" fill="yellow" stroke="black" stroke-width="0.5" />
<rect x="350"  y="446.218" width="60" height="20" transform="rotate(0 0 0)" fill="yellow" stroke="black" stroke-width="0.5" />
<rect x="410"  y="446.218" width="60" height="20" transform="rotate(0 0 0)" fill="yellow" stroke="black" stroke-width="0.5" />
<rect x="470"  y="446.218" width="60" height="20" transform="rotate(0 0 0)" fill="yellow" stroke="black" stroke-width="0.5" />
<rect x="530"  y="446.218" width="60" height="20" transform="rotate(0 0 0)" fill="yellow" stroke="black" stroke-width="0.5" />
<rect x="110"  y="426.218" width="60" height="20" transform="rotate(0 0 0)" fill="yellow" stroke="black" stroke-width="0.5" />
<rect x="170"  y="426.218" width="60" height="20" transform="rotate(0 0 0)" fill="yellow" stroke="black" stroke-width="0.5" />
<rect x="230"  y="426.218" width="60" height="20" transform="rotate(0 0 0)" fill="yellow" stroke="black" stroke-width="0.5" />
<rect x="290"  y="426.218" width="60" height="20" transform="rotate(0 0 0)" fill="yellow" stroke="black" stroke-width="0.5" />
<rect x="350"  y="426.218" width="60" height="20" transform="rotate(0 0 0)" fill="yellow" stroke="black" stroke-width="0.5" />
<rect x="410"  y="426.218" width="60" height="20" transform="rotate(0 0 0)" fill="yellow" stroke="black" stroke-width="0.5" />
<rect x="470"  y="426.218" width="60" height="20" transform="rotate(0 0 0)" fill="yellow" stroke="black" stroke-width="0.5" />
<rect x="530"  y="426.218" width="60" height="20" transform="rotate(0 0 0)" fill="yellow" stroke="black" stroke-width="0.5" />
<rect x="140"  y="406.218" width="60" height="20" transform="rotate(0 0 0)" fill="yellow" stroke="black" stroke-width="0.5" />
<rect x="200"  y="406.218" width="60" height="20" transform="rotate(0 0 0)" fill="yellow" stroke="black" stroke-width="0.5" />
<rect x="260"  y="406.218" width="60" height="20" transform="rotate(0 0 0)" fill="yellow" stroke="black" stroke-width="0.5" />
<rect x="320"  y="406.218" width="60" height="20" transform="rotate(0 0 0)" fill="yellow" stroke="black" stroke-width="0.5" />
<rect x="380"  y="406.218" width="60" height="20" transform="rotate(0 0 0)" fill="yellow" stroke="black" stroke-width="0.5" />
<rect x="440"  y="406.218" width="60" height="20" transform="rotate(0 0 0)" fill="yellow" stroke="black" stroke-width="0.5" />
<rect x="500"  y="406.218" width="60" height="20" transform="rotate(0 0 0)" fill="yellow" stroke="black" stroke-width="0.5" />
<rect x="140"  y="386.218" width="60" height="20" transform="rotate(0 0 0)" fill="yellow" stroke="black" stroke-width="0.5" />
<rect x="200"  y="386.218" width="60" height="20" transform="rotate(0 0 0)" fill="yellow" stroke="black" stroke-width="0.5" />
<rect x="260"  y="386.218" width="60" height="20" transform="rotate(0 0 0)" fill="yellow" stroke="black" stroke-width="0.5" />
<rect x="320"  y="386.218" width="60" height="20" transform="rotate(0 0 0)" fill="yellow" stroke="black" stroke-width="0.5" />
<rect x="380"  y="386.218" width="60" height="20" transform="rotate(0 0 0)" fill="yellow" stroke="black" stroke-width="0.5" />
<rect x="440"  y="386.218" width="60" height="20" transform="rotate(0 0 0)" fill="yellow" stroke="black" stroke-width="0.5" />
<rect x="500"  y="386.218" width="60" height="20" transform="rotate(0 0 0)" fill="yellow" stroke="black" stroke-width="0.5" />
<rect x="140"  y="366.218" width="60" height="20" transform="rotate(0 0 0)" fill="yellow" stroke="black" stroke-width="0.5" />
<rect x="200"  y="366.218" width="60" height="20" transform="rotate(0 0 0)" fill="yellow" stroke="black" stroke-width="0.5" />
<rect x="260"  y="366.218" width="60" height="20" transform="rotate(0 0 0)" fill="yellow" stroke="black" stroke-width="0.5" />
<rect x="320"  y="366.218" width="60" height="20" transform="rotate(0 0 0)" fill="yellow" stroke="black" stroke-width="0.5" />
<rect x="380"  y="366.218" width="60" height="20" transform="rotate(0 0 0)" fill="yellow" stroke="black" stroke-width="0.5" />
<rect x="440"  y="366.218" width="60" height="20" transform="rotate(0 0 0)" fill="yellow" stroke="black" stroke-width="0.5" />
<rect x="500"  y="366.218" width="60" height="20" transform="rotate(0 0 0)" fill="yellow" stroke="black" stroke-width="0.5" />
<rect x="170"  y="346.218" width="60" height="20" transform="rotate(0 0 0)" fill="yellow" stroke="black" stroke-width="0.5" />
<rect x="230"  y="346.218" width="60" height="20" transform="rotate(0 0 0)" fill="yellow" stroke="black" stroke-width="0.5" />
<rect x="290"  y="346.218" width="60" height="20" transform="rotate(0 0 0)" fill="yellow" stroke="black" stroke-width="0.5" />
<rect x="350"  y="346.218" width="60" height="20" transform="rotate(0 0 0)" fill="yellow" stroke="black" stroke-width="0.5" />
<rect x="410"  y="346.218" width="60" height="20" transform="rotate(0 0 0)" fill="yellow" stroke="black" stroke-width="0.5" />
<rect x="470"  y="346.218" width="60" height="20" transform="rotate(0 0 0)" fill="yellow" stroke="black" stroke-width="0.5" />
<rect x="170"  y="326.218" width="60" height="20" transform="rotate(0 0 0)" fill="yellow" stroke="black" stroke-width="0.5" />
<rect x="230"  y="326.218" width="60" height="20" transform="rotate(0 0 0)" fill="yellow" stroke="black" stroke-width="0.5" />
<rect x="290"  y="326.218" width="60" height="20" transform="rotate(0 0 0)" fill="yellow" stroke="black" stroke-width="0.5" />
<rect x="350"  y="326.218" width="60" height="20" transform="rotate(0 0 0)" fill="yellow" stroke="black" stroke-width="0.5" />
<rect x="410"  y="326.218" width="60" height="20" transform="rotate(0 0 0)" fill="yellow" stroke="black" stroke-width="0.5" />
<rect x="470"  y="326.218" width="60" height="20" transform="rotate(0 0 0)" fill="yellow" stroke="black" stroke-width="0.5" />
<rect x="200"  y="306.218" width="60" height="20" transform="rotate(0 0 0)" fill="yellow" stroke="black" stroke-width="0.5" />
<rect x="260"  y="306.218" width="60" height="20" transform="rotate(0 0 0)" fill="yellow" stroke="black" stroke-width="0.5" />
<rect x="320"  y="306.218" width="60" height="20" transform="rotate(0 0 0)" fill="yellow" stroke="black" stroke-width="0.5" />
<rect x="380"  y="306.218" width="60" height="20" transform="rotate(0 0 0)" fill="yellow" stroke="black" stroke-width="0.5" />
<rect x="440"  y="306.218" width="60" height="20" transform="rotate(0 0 0)" fill="yellow" stroke="black" stroke-width="0.5" />
<rect x="200"  y="286.218" width="60" height="20" transform="rotate(0 0 0)" fill="yellow" stroke="black" stroke-width="0.5" />
<rect x="260"  y="286.218" width="60" height="20" transform="rotate(0 0 0)" fill="yellow" stroke="black" stroke-width="0.5" />
<rect x="320"  y="286.218" width="60" height="20" transform="rotate(0 0 0)" fill="yellow" stroke="black" stroke-width="0.5" />
<rect x="380"  y="286.218" width="60" height="20" transform="rotate(0 0 0)" fill="yellow" stroke="black" stroke-width="0.5" />
<rect x="440"  y="286.218" width="60" height="20" transform="rotate(0 0 0)" fill="yellow" stroke="black" stroke-width="0.5" />
<rect x="200"  y="266.218" width="60" height="20" transform="rotate(0 0 0)" fill="yellow" stroke="black" stroke-width="0.5" />
<rect x="260"  y="266.218" width="60" height="20" transform="rotate(0 0 0)" fill="yellow" stroke="black" stroke-width="0.5" />
<rect x="320"  y="266.218" width="60" height="20" transform="rotate(0 0 0)" fill="yellow" stroke="black" stroke-width="0.5" />
<rect x="380"  y="266.218" width="60" height="20" transform="rotate(0 0 0)" fill="yellow" stroke="black" stroke-width="0.5" />
<rect x="440"  y="266.218" width="60" height="20" transform="rotate(0 0 0)" fill="yellow" stroke="black" stroke-width="0.5" />
<rect x="230"  y="246.218" width="60" height="20" transform="rotate(0 0 0)" fill="yellow" stroke="black" stroke-width="0.5" />
<rect x="290"  y="246.218" width="60" height="20" transform="rotate(0 0 0)" fill="yellow" stroke="black" stroke-width="0.5" />
<rect x="350"  y="246.218" width="60" height="20" transform="rotate(0 0 0)" fill="yellow" stroke="black" stroke-width="0.5" />
<rect x="410"  y="246.218" width="60" height="20" transform="rotate(0 0 0)" fill="yellow" stroke="black" stroke-width="0.5" />
<rect x="230"  y="226.218" width="60" height="20" transform="rotate(0 0 0)" fill="yellow" stroke="black" stroke-width="0.5" />
<rect x="290"  y="226.218" width="60" height="20" transform="rotate(0 0 0)" fill="yellow" stroke="black" stroke-width="0.5" />
<rect x="350"  y="226.218" width="60" height="20" transform="rotate(0 0 0)" fill="yellow" stroke="black" stroke-width="0.5" />
<rect x="410"  y="226.218" width="60" height="20" transform="rotate(0 0 0)" fill="yellow" stroke="black" stroke-width="0.5" />
<rect x="260"  y="206.218" width="60" height="20" transform="rotate(0 0 0)" fill="yellow" stroke="black" stroke-width="0.5" />
<rect x="320"  y="206.218" width="60" height="20" transform="rotate(0 0 0)" fill="yellow" stroke="black" stroke-width="0.5" />
<rect x="380"  y="206.218" width="60" height="20" transform="rotate(0 0 0)" fill="yellow" stroke="black" stroke-width="0.5" />
<rect x="260"  y="186.218" width="60" height="20" transform="rotate(0 0 0)" fill="yellow" stroke="black" stroke-width="0.5" />
<rect x="320"  y="186.218" width="60" height="20" transform="rotate(0 0 0)" fill="yellow" stroke="black" stroke-width="0.5" />
<rect x="380"  y="186.218" width="60" height="20" transform="rotate(0 0 0)" fill="yellow" stroke="black" stroke-width="0.5" />
<rect x="260"  y="166.218" width="60" height="20" transform="rotate(0 0 0)" fill="yellow" stroke="black" stroke-width="0.5" />
<rect x="320"  y="166.218" width="60" height="20" transform="rotate(0 0 0)" fill="yellow" stroke="black" stroke-width="0.5" />
<rect x="380"  y="166.218" width="60" height="20" transform="rotate(0 0 0)" fill="yellow" stroke="black" stroke-width="0.5" />
<rect x="290"  y="146.218" width="60" height="20" transform="rotate(0 0 0)" fill="yellow" stroke="black" stroke-width="0.5" />
<rect x="350"  y="146.218" width="60" height="20" transform="rotate(0 0 0)" fill="yellow" stroke="black" stroke-width="0.5" />
<rect x="290"  y="126.218" width="60" height="20" transform="rotate(0 0 0)" fill="yellow" stroke="black" stroke-width="0.5" />
<rect x="350"  y="126.218" width="60" height="20" transform="rotate(0 0 0)" fill="yellow" stroke="black" stroke-width="0.5" />
<rect x="290"  y="106.218" width="60" height="20" transform="rotate(0 0 0)" fill="yellow" stroke="black" stroke-width="0.5" />
<rect x="350"  y="106.218" width="60" height="20" transform="rotate(0 0 0)" fill="yellow" stroke="black" stroke-width="0.5" />
<rect x="320"  y="86.2178" width="60" height="20" transform="rotate(0 0 0)" fill="yellow" stroke="black" stroke-width="0.5" />
<rect x="320"  y="66.2178" width="60" height="20" transform="rotate(0 0 0)" fill="yellow" stroke="black" stroke-width="0.5" />
</svg>
