<svg version="1.1" baseProfile="full" xmlns="http://www.w3.org/2000/svg">
<circle cx="250" cy="250" r="250" transform="rotate(0 0 0)" fill="blue" stroke="black" stroke-width="0.5" />
<rect x="73.2233"  y="73.2233" width="60" height="20" transform="rotate(0 73.2233 73.2233)" fill="yellow" stroke="black" stroke-width="0.5" />
<rect x="133.223"  y="73.2233" width="60" height="20" transform="rotate(0 73.2233 73.2233)" fill="yellow" stroke="black" stroke-width="0.5" />
<rect x="193.223"  y="73.2233" width="60" height="20" transform="rotate(0 73.2233 73.2233)" fill="yellow" stroke="black" stroke-width="0.5" />
<rect x="253.223"  y="73.2233" width="60" height="20" transform="rotate(0 73.2233 73.2233)" fill="yellow" stroke="black" stroke-width="0.5" />
<rect x="313.223"  y="73.2233" width="60" height="20" transform="rotate(0 73.2233 73.2233)" fill="yellow" stroke="black" stroke-width="0.5" />
<rect x="73.2233"  y="93.2233" width="60" height="20" transform="rotate(0 73.2233 73.2233)" fill="yellow" stroke="black" stroke-width="0.5" />
<rect x="133.223"  y="93.2233" width="60" height="20" transform="rotate(0 73.2233 73.2233)" fill="yellow" stroke="black" stroke-width="0.5" />
<rect x="193.223"  y="93.2233" width="60" height="20" transform="rotate(0 73.2233 73.2233)" fill="yellow" stroke="black" stroke-width="0.5" />
<rect x="253.223"  y="93.2233" width="60" height="20" transform="rotate(0 73.2233 73.2233)" fill="yellow" stroke="black" stroke-width="0.5" />
<rect x="313.223"  y="93.2233" width="60" height="20" transform="rotate(0 73.2233 73.2233)" fill="yellow" stroke="black" stroke-width="0.5" />
<rect x="73.2233"  y="113.223" width="60" height="20" transform="rotate(0 73.2233 73.2233)" fill="yellow" stroke="black" stroke-width="0.5" />
<rect x="133.223"  y="113.223" width="60" height="20" transform="rotate(0 73.2233 73.2233)" fill="yellow" stroke="black" stroke-width="0.5" />
<rect x="193.223"  y="113.223" width="60" height="20" transform="rotate(0 73.2233 73.2233)" fill="yellow" stroke="black" stroke-width="0.5" />
<rect x="253.223"  y="113.223" width="60" height="20" transform="rotate(0 73.2233 73.2233)" fill="yellow" stroke="black" stroke-width="0.5" />
<rect x="313.223"  y="113.223" width="60" height="20" transform="rotate(0 73.2233 73.2233)" fill="yellow" stroke="black" stroke-width="0.5" />
<rect x="73.2233"  y="133.223" width="60" height="20" transform="rotate(0 73.2233 73.2233)" fill="yellow" stroke="black" stroke-width="0.5" />
<rect x="133.223"  y="133.223" width="60" height="20" transform="rotate(0 73.2233 73.2233)" fill="yellow" stroke="black" stroke-width="0.5" />
<rect x="193.223"  y="133.223" width="60" height="20" transform="rotate(0 73.2233 73.2233)" fill="yellow" stroke="black" stroke-width="0.5" />
<rect x="253.223"  y="133.223" width="60" height="20" transform="rotate(0 73.2233 73.2233)" fill="yellow" stroke="black" stroke-width="0.5" />
<rect x="313.223"  y="133.223" width="60" height="20" transform="rotate(0 73.2233 73.2233)" fill="yellow" stroke="black" stroke-width="0.5" />
<rect x="73.2233"  y="153.223" width="60" height="20" transform="rotate(0 73.2233 73.2233)" fill="yellow" stroke="black" stroke-width="0.5" />
<rect x="133.223"  y="153.223" width="60" height="20" transform="rotate(0 73.2233 73.2233)" fill="yellow" stroke="black" stroke-width="0.5" />
<rect x="193.223"  y="153.223" width="60" height="20" transform="rotate(0 73.2233 73.2233)" fill="yellow" stroke="black" stroke-width="0.5" />
<rect x="253.223"  y="153.223" width="60" height="20" transform="rotate(0 73.2233 73.2233)" fill="yellow" stroke="black" stroke-width="0.5" />
<rect x="313.223"  y="153.223" width="60" height="20" transform="rotate(0 73.2233 73.2233)" fill="yellow" stroke="black" stroke-width="0.5" />
<rect x="73.2233"  y="173.223" width="60" height="20" transform="rotate(0 73.2233 73.2233)" fill="yellow" stroke="black" stroke-width="0.5" />
<rect x="133.223"  y="173.223" width="60" height="20" transform="rotate(0 73.2233 73.2233)" fill="yellow" stroke="black" stroke-width="0.5" />
<rect x="193.223"  y="173.223" width="60" height="20" transform="rotate(0 73.2233 73.2233)" fill="yellow" stroke="black" stroke-width="0.5" />
<rect x="253.223"  y="173.223" width="60" height="20" transform="rotate(0 73.2233 73.2233)" fill="yellow" stroke="black" stroke-width="0.5" />
<rect x="313.223"  y="173.223" width="60" height="20" transform="rotate(0 73.2233 73.2233)" fill="yellow" stroke="black" stroke-width="0.5" />
<rect x="73.2233"  y="193.223" width="60" height="20" transform="rotate(0 73.2233 73.2233)" fill="yellow" stroke="black" stroke-width="0.5" />
<rect x="133.223"  y="193.223" width="60" height="20" transform="rotate(0 73.2233 73.2233)" fill="yellow" stroke="black" stroke-width="0.5" />
<rect x="193.223"  y="193.223" width="60" height="20" transform="rotate(0 73.2233 73.2233)" fill="yellow" stroke="black" stroke-width="0.5" />
<rect x="253.223"  y="193.223" width="60" height="20" transform="rotate(0 73.2233 73.2233)" fill="yellow" stroke="black" stroke-width="0.5" />
<rect x="313.223"  y="193.223" width="60" height="20" transform="rotate(0 73.2233 73.2233)" fill="yellow" stroke="black" stroke-width="0.5" />
<rect x="73.2233"  y="213.223" width="60" height="20" transform="rotate(0 73.2233 73.2233)" fill="yellow" stroke="black" stroke-width="0.5" />
<rect x="133.223"  y="213.223" width="60" height="20" transform="rotate(0 73.2233 73.2233)" fill="yellow" stroke="black" stroke-width="0.5" />
<rect x="193.223"  y="213.223" width="60" height="20" transform="rotate(0 73.2233 73.2233)" fill="yellow" stroke="black" stroke-width="0.5" />
<rect x="253.223"  y="213.223" width="60" height="20" transform="rotate(0 73.2233 73.2233)" fill="yellow" stroke="black" stroke-width="0.5" />
<rect x="313.223"  y="213.223" width="60" height="20" transform="rotate(0 73.2233 73.2233)" fill="yellow" stroke="black" stroke-width="0.5" />
<rect x="73.2233"  y="233.223" width="60" height="20" transform="rotate(0 73.2233 73.2233)" fill="yellow" stroke="black" stroke-width="0.5" />
<rect x="133.223"  y="233.223" width="60" height="20" transform="rotate(0 73.2233 73.2233)" fill="yellow" stroke="black" stroke-width="0.5" />
<rect x="193.223"  y="233.223" width="60" height="20" transform="rotate(0 73.2233 73.2233)" fill="yellow" stroke="black" stroke-width="0.5" />
<rect x="253.223"  y="233.223" width="60" height="20" transform="rotate(0 73.2233 73.2233)" fill="yellow" stroke="black" stroke-width="0.5" />
<rect x="313.223"  y="233.223" width="60" height="20" transform="rotate(0 73.2233 73.2233)" fill="yellow" stroke="black" stroke-width="0.5" />
<rect x="73.2233"  y="253.223" width="60" height="20" transform="rotate(0 73.2233 73.2233)" fill="yellow" stroke="black" stroke-width="0.5" />
<rect x="133.223"  y="253.223" width="60" height="20" transform="rotate(0 73.2233 73.2233)" fill="yellow" stroke="black" stroke-width="0.5" />
<rect x="193.223"  y="253.223" width="60" height="20" transform="rotate(0 73.2233 73.2233)" fill="yellow" stroke="black" stroke-width="0.5" />
<rect x="253.223"  y="253.223" width="60" height="20" transform="rotate(0 73.2233 73.2233)" fill="yellow" stroke="black" stroke-width="0.5" />
<rect x="313.223"  y="253.223" width="60" height="20" transform="rotate(0 73.2233 73.2233)" fill="yellow" stroke="black" stroke-width="0.5" />
<rect x="73.2233"  y="273.223" width="60" height="20" transform="rotate(0 73.2233 73.2233)" fill="yellow" stroke="black" stroke-width="0.5" />
<rect x="133.223"  y="273.223" width="60" height="20" transform="rotate(0 73.2233 73.2233)" fill="yellow" stroke="black" stroke-width="0.5" />
<rect x="193.223"  y="273.223" width="60" height="20" transform="rotate(0 73.2233 73.2233)" fill="yellow" stroke="black" stroke-width="0.5" />
<rect x="253.223"  y="273.223" width="60" height="20" transform="rotate(0 73.2233 73.2233)" fill="yellow" stroke="black" stroke-width="0.5" />
<rect x="313.223"  y="273.223" width="60" height="20" transform="rotate(0 73.2233 73.2233)" fill="yellow" stroke="black" stroke-width="0.5" />
<rect x="73.2233"  y="293.223" width="60" height="20" transform="rotate(0 73.2233 73.2233)" fill="yellow" stroke="black" stroke-width="0.5" />
<rect x="133.223"  y="293.223" width="60" height="20" transform="rotate(0 73.2233 73.2233)" fill="yellow" stroke="black" stroke-width="0.5" />
<rect x="193.223"  y="293.223" width="60" height="20" transform="rotate(0 73.2233 73.2233)" fill="yellow" stroke="black" stroke-width="0.5" />
<rect x="253.223"  y="293.223" width="60" height="20" transform="rotate(0 73.2233 73.2233)" fill="yellow" stroke="black" stroke-width="0.5" />
<rect x="313.223"  y="293.223" width="60" height="20" transform="rotate(0 73.2233 73.2233)" fill="yellow" stroke="black" stroke-width="0.5" />
<rect x="73.2233"  y="313.223" width="60" height="20" transform="rotate(0 73.2233 73.2233)" fill="yellow" stroke="black" stroke-width="0.5" />
<rect x="133.223"  y="313.223" width="60" height="20" transform="rotate(0 73.2233 73.2233)" fill="yellow" stroke="black" stroke-width="0.5" />
<rect x="193.223"  y="313.223" width="60" height="20" transform="rotate(0 73.2233 73.2233)" fill="yellow" stroke="black" stroke-width="0.5" />
<rect x="253.223"  y="313.223" width="60" height="20" transform="rotate(0 73.2233 73.2233)" fill="yellow" stroke="black" stroke-width="0.5" />
<rect x="313.223"  y="313.223" width="60" height="20" transform="rotate(0 73.2233 73.2233)" fill="yellow" stroke="black" stroke-width="0.5" />
<rect x="73.2233"  y="333.223" width="60" height="20" transform="rotate(0 73.2233 73.2233)" fill="yellow" stroke="black" stroke-width="0.5" />
<rect x="133.223"  y="333.223" width="60" height="20" transform="rotate(0 73.2233 73.2233)" fill="yellow" stroke="black" stroke-width="0.5" />
<rect x="193.223"  y="333.223" width="60" height="20" transform="rotate(0 73.2233 73.2233)" fill="yellow" stroke="black" stroke-width="0.5" />
<rect x="253.223"  y="333.223" width="60" height="20" transform="rotate(0 73.2233 73.2233)" fill="yellow" stroke="black" stroke-width="0.5" />
<rect x="313.223"  y="333.223" width="60" height="20" transform="rotate(0 73.2233 73.2233)" fill="yellow" stroke="black" stroke-width="0.5" />
<rect x="73.2233"  y="353.223" width="60" height="20" transform="rotate(0 73.2233 73.2233)" fill="yellow" stroke="black" stroke-width="0.5" />
<rect x="133.223"  y="353.223" width="60" height="20" transform="rotate(0 73.2233 73.2233)" fill="yellow" stroke="black" stroke-width="0.5" />
<rect x="193.223"  y="353.223" width="60" height="20" transform="rotate(0 73.2233 73.2233)" fill="yellow" stroke="black" stroke-width="0.5" />
<rect x="253.223"  y="353.223" width="60" height="20" transform="rotate(0 73.2233 73.2233)" fill="yellow" stroke="black" stroke-width="0.5" />
<rect x="313.223"  y="353.223" width="60" height="20" transform="rotate(0 73.2233 73.2233)" fill="yellow" stroke="black" stroke-width="0.5" />
<rect x="73.2233"  y="373.223" width="60" height="20" transform="rotate(0 73.2233 73.2233)" fill="yellow" stroke="black" stroke-width="0.5" />
<rect x="133.223"  y="373.223" width="60" height="20" transform="rotate(0 73.2233 73.2233)" fill="yellow" stroke="black" stroke-width="0.5" />
<rect x="193.223"  y="373.223" width="60" height="20" transform="rotate(0 73.2233 73.2233)" fill="yellow" stroke="black" stroke-width="0.5" />
<rect x="253.223"  y="373.223" width="60" height="20" transform="rotate(0 73.2233 73.2233)" fill="yellow" stroke="black" stroke-width="0.5" />
<rect x="313.223"  y="373.223" width="60" height="20" transform="rotate(0 73.2233 73.2233)" fill="yellow" stroke="black" stroke-width="0.5" />
<rect x="73.2233"  y="393.223" width="60" height="20" transform="rotate(0 73.2233 73.2233)" fill="yellow" stroke="black" stroke-width="0.5" />
<rect x="133.223"  y="393.223" width="60" height="20" transform="rotate(0 73.2233 73.2233)" fill="yellow" stroke="black" stroke-width="0.5" />
<rect x="193.223"  y="393.223" width="60" height="20" transform="rotate(0 73.2233 73.2233)" fill="yellow" stroke="black" stroke-width="0.5" />
<rect x="253.223"  y="393.223" width="60" height="20" transform="rotate(0 73.2233 73.2233)" fill="yellow" stroke="black" stroke-width="0.5" />
<rect x="313.223"  y="393.223" width="60" height="20" transform="rotate(0 73.2233 73.2233)" fill="yellow" stroke="black" stroke-width="0.5" />
<rect x="373.223"  y="73.2233" width="20" height="60" transform="rotate(0 73.2233 73.2233)" fill="yellow" stroke="black" stroke-width="0.5" />
<rect x="373.223"  y="133.223" width="20" height="60" transform="rotate(0 73.2233 73.2233)" fill="yellow" stroke="black" stroke-width="0.5" />
<rect x="373.223"  y="193.223" width="20" height="60" transform="rotate(0 73.2233 73.2233)" fill="yellow" stroke="black" stroke-width="0.5" />
<rect x="373.223"  y="253.223" width="20" height="60" transform="rotate(0 73.2233 73.2233)" fill="yellow" stroke="black" stroke-width="0.5" />
<rect x="373.223"  y="313.223" width="20" height="60" transform="rotate(0 73.2233 73.2233)" fill="yellow" stroke="black" stroke-width="0.5" />
<rect x="393.223"  y="73.2233" width="20" height="60" transform="rotate(0 73.2233 73.2233)" fill="yellow" stroke="black" stroke-width="0.5" />
<rect x="393.223"  y="133.223" width="20" height="60" transform="rotate(0 73.2233 73.2233)" fill="yellow" stroke="black" stroke-width="0.5" />
<rect x="393.223"  y="193.223" width="20" height="60" transform="rotate(0 73.2233 73.2233)" fill="yellow" stroke="black" stroke-width="0.5" />
<rect x="393.223"  y="253.223" width="20" height="60" transform="rotate(0 73.2233 73.2233)" fill="yellow" stroke="black" stroke-width="0.5" />
<rect x="393.223"  y="313.223" width="20" height="60" transform="rotate(0 73.2233 73.2233)" fill="yellow" stroke="black" stroke-width="0.5" />
<rect x="250"  y="426.777" width="60" height="20" transform="rotate(0 250 250)" fill="yellow" stroke="black" stroke-width="0.5" />
<rect x="190"  y="426.777" width="60" height="20" transform="rotate(0 250 250)" fill="yellow" stroke="black" stroke-width="0.5" />
<rect x="310"  y="426.777" width="60" height="20" transform="rotate(0 250 250)" fill="yellow" stroke="black" stroke-width="0.5" />
<rect x="130"  y="426.777" width="60" height="20" transform="rotate(0 250 250)" fill="yellow" stroke="black" stroke-width="0.5" />
<rect x="250"  y="446.777" width="60" height="20" transform="rotate(0 250 250)" fill="yellow" stroke="black" stroke-width="0.5" />
<rect x="190"  y="446.777" width="60" height="20" transform="rotate(0 250 250)" fill="yellow" stroke="black" stroke-width="0.5" />
<rect x="310"  y="446.777" width="60" height="20" transform="rotate(0 250 250)" fill="yellow" stroke="black" stroke-width="0.5" />
<rect x="130"  y="446.777" width="60" height="20" transform="rotate(0 250 250)" fill="yellow" stroke="black" stroke-width="0.5" />
<rect x="250"  y="466.777" width="60" height="20" transform="rotate(0 250 250)" fill="yellow" stroke="black" stroke-width="0.5" />
<rect x="190"  y="466.777" width="60" height="20" transform="rotate(0 250 250)" fill="yellow" stroke="black" stroke-width="0.5" />
<rect x="250"  y="426.777" width="60" height="20" transform="rotate(90 250 250)" fill="yellow" stroke="black" stroke-width="0.5" />
<rect x="190"  y="426.777" width="60" height="20" transform="rotate(90 250 250)" fill="yellow" stroke="black" stroke-width="0.5" />
<rect x="310"  y="426.777" width="60" height="20" transform="rotate(90 250 250)" fill="yellow" stroke="black" stroke-width="0.5" />
<rect x="130"  y="426.777" width="60" height="20" transform="rotate(90 250 250)" fill="yellow" stroke="black" stroke-width="0.5" />
<rect x="250"  y="446.777" width="60" height="20" transform="rotate(90 250 250)" fill="yellow" stroke="black" stroke-width="0.5" />
<rect x="190"  y="446.777" width="60" height="20" transform="rotate(90 250 250)" fill="yellow" stroke="black" stroke-width="0.5" />
<rect x="310"  y="446.777" width="60" height="20" transform="rotate(90 250 250)" fill="yellow" stroke="black" stroke-width="0.5" />
<rect x="130"  y="446.777" width="60" height="20" transform="rotate(90 250 250)" fill="yellow" stroke="black" stroke-width="0.5" />
<rect x="250"  y="466.777" width="60" height="20" transform="rotate(90 250 250)" fill="yellow" stroke="black" stroke-width="0.5" />
<rect x="190"  y="466.777" width="60" height="20" transform="rotate(90 250 250)" fill="yellow" stroke="black" stroke-width="0.5" />
<rect x="250"  y="426.777" width="60" height="20" transform="rotate(180 250 250)" fill="yellow" stroke="black" stroke-width="0.5" />
<rect x="190"  y="426.777" width="60" height="20" transform="rotate(180 250 250)" fill="yellow" stroke="black" stroke-width="0.5" />
<rect x="310"  y="426.777" width="60" height="20" transform="rotate(180 250 250)" fill="yellow" stroke="black" stroke-width="0.5" />
<rect x="130"  y="426.777" width="60" height="20" transform="rotate(180 250 250)" fill="yellow" stroke="black" stroke-width="0.5" />
<rect x="250"  y="446.777" width="60" height="20" transform="rotate(180 250 250)" fill="yellow" stroke="black" stroke-width="0.5" />
<rect x="190"  y="446.777" width="60" height="20" transform="rotate(180 250 250)" fill="yellow" stroke="black" stroke-width="0.5" />
<rect x="310"  y="446.777" width="60" height="20" transform="rotate(180 250 250)" fill="yellow" stroke="black" stroke-width="0.5" />
<rect x="130"  y="446.777" width="60" height="20" transform="rotate(180 250 250)" fill="yellow" stroke="black" stroke-width="0.5" />
<rect x="250"  y="466.777" width="60" height="20" transform="rotate(180 250 250)" fill="yellow" stroke="black" stroke-width="0.5" />
<rect x="190"  y="466.777" width="60" height="20" transform="rotate(180 250 250)" fill="yellow" stroke="black" stroke-width="0.5" />
<rect x="250"  y="426.777" width="60" height="20" transform="rotate(270 250 250)" fill="yellow" stroke="black" stroke-width="0.5" />
<rect x="190"  y="426.777" width="60" height="20" transform="rotate(270 250 250)" fill="yellow" stroke="black" stroke-width="0.5" />
<rect x="310"  y="426.777" width="60" height="20" transform="rotate(270 250 250)" fill="yellow" stroke="black" stroke-width="0.5" />
<rect x="130"  y="426.777" width="60" height="20" transform="rotate(270 250 250)" fill="yellow" stroke="black" stroke-width="0.5" />
<rect x="250"  y="446.777" width="60" height="20" transform="rotate(270 250 250)" fill="yellow" stroke="black" stroke-width="0.5" />
<rect x="190"  y="446.777" width="60" height="20" transform="rotate(270 250 250)" fill="yellow" stroke="black" stroke-width="0.5" />
<rect x="310"  y="446.777" width="60" height="20" transform="rotate(270 250 250)" fill="yellow" stroke="black" stroke-width="0.5" />
<rect x="130"  y="446.777" width="60" height="20" transform="rotate(270 250 250)" fill="yellow" stroke="black" stroke-width="0.5" />
<rect x="250"  y="466.777" width="60" height="20" transform="rotate(270 250 250)" fill="yellow" stroke="black" stroke-width="0.5" />
<rect x="190"  y="466.777" width="60" height="20" transform="rotate(270 250 250)" fill="yellow" stroke="black" stroke-width="0.5" />
</svg>
