<svg version="1.1" baseProfile="full" xmlns="http://www.w3.org/2000/svg">
<circle cx="400" cy="400" r="400" transform="rotate(0 0 0)" fill="red" stroke="black" stroke-width="0.5" />
<polygon points="400,400 365,460.622 435,460.622" transform="rotate(0 400 400)" fill="magenta" stroke="black" stroke-width="0.5" />
<polygon points="400,521.244 365,460.622 435,460.622" transform="rotate(0 400 400)" fill="magenta" stroke="black" stroke-width="0.5" />
<polygon points="365,460.622 330,521.244 400,521.244" transform="rotate(0 400 400)" fill="magenta" stroke="black" stroke-width="0.5" />
<polygon points="365,581.865 330,521.244 400,521.244" transform="rotate(0 400 400)" fill="magenta" stroke="black" stroke-width="0.5" />
<polygon points="435,460.622 400,521.244 470,521.244" transform="rotate(0 400 400)" fill="magenta" stroke="black" stroke-width="0.5" />
<polygon points="435,581.865 400,521.244 470,521.244" transform="rotate(0 400 400)" fill="magenta" stroke="black" stroke-width="0.5" />
<polygon points="330,521.244 295,581.865 365,581.865" transform="rotate(0 400 400)" fill="magenta" stroke="black" stroke-width="0.5" />
<polygon points="330,642.487 295,581.865 365,581.865" transform="rotate(0 400 400)" fill="magenta" stroke="black" stroke-width="0.5" />
<polygon points="400,521.244 365,581.865 435,581.865" transform="rotate(0 400 400)" fill="magenta" stroke="black" stroke-width="0.5" />
<polygon points="400,642.487 365,581.865 435,581.865" transform="rotate(0 400 400)" fill="magenta" stroke="black" stroke-width="0.5" />
<polygon points="470,521.244 435,581.865 505,581.865" transform="rotate(0 400 400)" fill="magenta" stroke="black" stroke-width="0.5" />
<polygon points="470,642.487 435,581.865 505,581.865" transform="rotate(0 400 400)" fill="magenta" stroke="black" stroke-width="0.5" />
<polygon points="295,581.865 260,642.487 330,642.487" transform="rotate(0 400 400)" fill="magenta" stroke="black" stroke-width="0.5" />
<polygon points="295,703.109 260,642.487 330,642.487" transform="rotate(0 400 400)" fill="magenta" stroke="black" stroke-width="0.5" />
<polygon points="365,581.865 330,642.487 400,642.487" transform="rotate(0 400 400)" fill="magenta" stroke="black" stroke-width="0.5" />
<polygon points="365,703.109 330,642.487 400,642.487" transform="rotate(0 400 400)" fill="magenta" stroke="black" stroke-width="0.5" />
<polygon points="435,581.865 400,642.487 470,642.487" transform="rotate(0 400 400)" fill="magenta" stroke="black" stroke-width="0.5" />
<polygon points="435,703.109 400,642.487 470,642.487" transform="rotate(0 400 400)" fill="magenta" stroke="black" stroke-width="0.5" />
<polygon points="505,581.865 470,642.487 540,642.487" transform="rotate(0 400 400)" fill="magenta" stroke="black" stroke-width="0.5" />
<polygon points="505,703.109 470,642.487 540,642.487" transform="rotate(0 400 400)" fill="magenta" stroke="black" stroke-width="0.5" />
<polygon points="260,642.487 225,703.109 295,703.109" transform="rotate(0 400 400)" fill="magenta" stroke="black" stroke-width="0.5" />
<polygon points="330,642.487 295,703.109 365,703.109" transform="rotate(0 400 400)" fill="magenta" stroke="black" stroke-width="0.5" />
<polygon points="400,642.487 365,703.109 435,703.109" transform="rotate(0 400 400)" fill="magenta" stroke="black" stroke-width="0.5" />
<polygon points="470,642.487 435,703.109 505,703.109" transform="rotate(0 400 400)" fill="magenta" stroke="black" stroke-width="0.5" />
<polygon points="540,642.487 505,703.109 575,703.109" transform="rotate(0 400 400)" fill="magenta" stroke="black" stroke-width="0.5" />
<polygon points="460,703.109 425,763.731 495,763.731" transform="rotate(0 400 400)" fill="magenta" stroke="black" stroke-width="0.5" />
<polygon points="390,703.109 355,763.731 425,763.731" transform="rotate(0 400 400)" fill="magenta" stroke="black" stroke-width="0.5" />
<polygon points="320,703.109 285,763.731 355,763.731" transform="rotate(0 400 400)" fill="magenta" stroke="black" stroke-width="0.5" />
<polygon points="530,703.109 495,763.731 460,703.109" transform="rotate(0 400 400)" fill="magenta" stroke="black" stroke-width="0.5" />
<polygon points="460,703.109 425,763.731 390,703.109" transform="rotate(0 400 400)" fill="magenta" stroke="black" stroke-width="0.5" />
<polygon points="390,703.109 355,763.731 320,703.109" transform="rotate(0 400 400)" fill="magenta" stroke="black" stroke-width="0.5" />
<polygon points="320,703.109 285,763.731 250,703.109" transform="rotate(0 400 400)" fill="magenta" stroke="black" stroke-width="0.5" />
<polygon points="400,400 365,460.622 435,460.622" transform="rotate(60 400 400)" fill="magenta" stroke="black" stroke-width="0.5" />
<polygon points="400,521.244 365,460.622 435,460.622" transform="rotate(60 400 400)" fill="magenta" stroke="black" stroke-width="0.5" />
<polygon points="365,460.622 330,521.244 400,521.244" transform="rotate(60 400 400)" fill="magenta" stroke="black" stroke-width="0.5" />
<polygon points="365,581.865 330,521.244 400,521.244" transform="rotate(60 400 400)" fill="magenta" stroke="black" stroke-width="0.5" />
<polygon points="435,460.622 400,521.244 470,521.244" transform="rotate(60 400 400)" fill="magenta" stroke="black" stroke-width="0.5" />
<polygon points="435,581.865 400,521.244 470,521.244" transform="rotate(60 400 400)" fill="magenta" stroke="black" stroke-width="0.5" />
<polygon points="330,521.244 295,581.865 365,581.865" transform="rotate(60 400 400)" fill="magenta" stroke="black" stroke-width="0.5" />
<polygon points="330,642.487 295,581.865 365,581.865" transform="rotate(60 400 400)" fill="magenta" stroke="black" stroke-width="0.5" />
<polygon points="400,521.244 365,581.865 435,581.865" transform="rotate(60 400 400)" fill="magenta" stroke="black" stroke-width="0.5" />
<polygon points="400,642.487 365,581.865 435,581.865" transform="rotate(60 400 400)" fill="magenta" stroke="black" stroke-width="0.5" />
<polygon points="470,521.244 435,581.865 505,581.865" transform="rotate(60 400 400)" fill="magenta" stroke="black" stroke-width="0.5" />
<polygon points="470,642.487 435,581.865 505,581.865" transform="rotate(60 400 400)" fill="magenta" stroke="black" stroke-width="0.5" />
<polygon points="295,581.865 260,642.487 330,642.487" transform="rotate(60 400 400)" fill="magenta" stroke="black" stroke-width="0.5" />
<polygon points="295,703.109 260,642.487 330,642.487" transform="rotate(60 400 400)" fill="magenta" stroke="black" stroke-width="0.5" />
<polygon points="365,581.865 330,642.487 400,642.487" transform="rotate(60 400 400)" fill="magenta" stroke="black" stroke-width="0.5" />
<polygon points="365,703.109 330,642.487 400,642.487" transform="rotate(60 400 400)" fill="magenta" stroke="black" stroke-width="0.5" />
<polygon points="435,581.865 400,642.487 470,642.487" transform="rotate(60 400 400)" fill="magenta" stroke="black" stroke-width="0.5" />
<polygon points="435,703.109 400,642.487 470,642.487" transform="rotate(60 400 400)" fill="magenta" stroke="black" stroke-width="0.5" />
<polygon points="505,581.865 470,642.487 540,642.487" transform="rotate(60 400 400)" fill="magenta" stroke="black" stroke-width="0.5" />
<polygon points="505,703.109 470,642.487 540,642.487" transform="rotate(60 400 400)" fill="magenta" stroke="black" stroke-width="0.5" />
<polygon points="260,642.487 225,703.109 295,703.109" transform="rotate(60 400 400)" fill="magenta" stroke="black" stroke-width="0.5" />
<polygon points="330,642.487 295,703.109 365,703.109" transform="rotate(60 400 400)" fill="magenta" stroke="black" stroke-width="0.5" />
<polygon points="400,642.487 365,703.109 435,703.109" transform="rotate(60 400 400)" fill="magenta" stroke="black" stroke-width="0.5" />
<polygon points="470,642.487 435,703.109 505,703.109" transform="rotate(60 400 400)" fill="magenta" stroke="black" stroke-width="0.5" />
<polygon points="540,642.487 505,703.109 575,703.109" transform="rotate(60 400 400)" fill="magenta" stroke="black" stroke-width="0.5" />
<polygon points="460,703.109 425,763.731 495,763.731" transform="rotate(60 400 400)" fill="magenta" stroke="black" stroke-width="0.5" />
<polygon points="390,703.109 355,763.731 425,763.731" transform="rotate(60 400 400)" fill="magenta" stroke="black" stroke-width="0.5" />
<polygon points="320,703.109 285,763.731 355,763.731" transform="rotate(60 400 400)" fill="magenta" stroke="black" stroke-width="0.5" />
<polygon points="530,703.109 495,763.731 460,703.109" transform="rotate(60 400 400)" fill="magenta" stroke="black" stroke-width="0.5" />
<polygon points="460,703.109 425,763.731 390,703.109" transform="rotate(60 400 400)" fill="magenta" stroke="black" stroke-width="0.5" />
<polygon points="390,703.109 355,763.731 320,703.109" transform="rotate(60 400 400)" fill="magenta" stroke="black" stroke-width="0.5" />
<polygon points="320,703.109 285,763.731 250,703.109" transform="rotate(60 400 400)" fill="magenta" stroke="black" stroke-width="0.5" />
<polygon points="400,400 365,460.622 435,460.622" transform="rotate(120 400 400)" fill="magenta" stroke="black" stroke-width="0.5" />
<polygon points="400,521.244 365,460.622 435,460.622" transform="rotate(120 400 400)" fill="magenta" stroke="black" stroke-width="0.5" />
<polygon points="365,460.622 330,521.244 400,521.244" transform="rotate(120 400 400)" fill="magenta" stroke="black" stroke-width="0.5" />
<polygon points="365,581.865 330,521.244 400,521.244" transform="rotate(120 400 400)" fill="magenta" stroke="black" stroke-width="0.5" />
<polygon points="435,460.622 400,521.244 470,521.244" transform="rotate(120 400 400)" fill="magenta" stroke="black" stroke-width="0.5" />
<polygon points="435,581.865 400,521.244 470,521.244" transform="rotate(120 400 400)" fill="magenta" stroke="black" stroke-width="0.5" />
<polygon points="330,521.244 295,581.865 365,581.865" transform="rotate(120 400 400)" fill="magenta" stroke="black" stroke-width="0.5" />
<polygon points="330,642.487 295,581.865 365,581.865" transform="rotate(120 400 400)" fill="magenta" stroke="black" stroke-width="0.5" />
<polygon points="400,521.244 365,581.865 435,581.865" transform="rotate(120 400 400)" fill="magenta" stroke="black" stroke-width="0.5" />
<polygon points="400,642.487 365,581.865 435,581.865" transform="rotate(120 400 400)" fill="magenta" stroke="black" stroke-width="0.5" />
<polygon points="470,521.244 435,581.865 505,581.865" transform="rotate(120 400 400)" fill="magenta" stroke="black" stroke-width="0.5" />
<polygon points="470,642.487 435,581.865 505,581.865" transform="rotate(120 400 400)" fill="magenta" stroke="black" stroke-width="0.5" />
<polygon points="295,581.865 260,642.487 330,642.487" transform="rotate(120 400 400)" fill="magenta" stroke="black" stroke-width="0.5" />
<polygon points="295,703.109 260,642.487 330,642.487" transform="rotate(120 400 400)" fill="magenta" stroke="black" stroke-width="0.5" />
<polygon points="365,581.865 330,642.487 400,642.487" transform="rotate(120 400 400)" fill="magenta" stroke="black" stroke-width="0.5" />
<polygon points="365,703.109 330,642.487 400,642.487" transform="rotate(120 400 400)" fill="magenta" stroke="black" stroke-width="0.5" />
<polygon points="435,581.865 400,642.487 470,642.487" transform="rotate(120 400 400)" fill="magenta" stroke="black" stroke-width="0.5" />
<polygon points="435,703.109 400,642.487 470,642.487" transform="rotate(120 400 400)" fill="magenta" stroke="black" stroke-width="0.5" />
<polygon points="505,581.865 470,642.487 540,642.487" transform="rotate(120 400 400)" fill="magenta" stroke="black" stroke-width="0.5" />
<polygon points="505,703.109 470,642.487 540,642.487" transform="rotate(120 400 400)" fill="magenta" stroke="black" stroke-width="0.5" />
<polygon points="260,642.487 225,703.109 295,703.109" transform="rotate(120 400 400)" fill="magenta" stroke="black" stroke-width="0.5" />
<polygon points="330,642.487 295,703.109 365,703.109" transform="rotate(120 400 400)" fill="magenta" stroke="black" stroke-width="0.5" />
<polygon points="400,642.487 365,703.109 435,703.109" transform="rotate(120 400 400)" fill="magenta" stroke="black" stroke-width="0.5" />
<polygon points="470,642.487 435,703.109 505,703.109" transform="rotate(120 400 400)" fill="magenta" stroke="black" stroke-width="0.5" />
<polygon points="540,642.487 505,703.109 575,703.109" transform="rotate(120 400 400)" fill="magenta" stroke="black" stroke-width="0.5" />
<polygon points="460,703.109 425,763.731 495,763.731" transform="rotate(120 400 400)" fill="magenta" stroke="black" stroke-width="0.5" />
<polygon points="390,703.109 355,763.731 425,763.731" transform="rotate(120 400 400)" fill="magenta" stroke="black" stroke-width="0.5" />
<polygon points="320,703.109 285,763.731 355,763.731" transform="rotate(120 400 400)" fill="magenta" stroke="black" stroke-width="0.5" />
<polygon points="530,703.109 495,763.731 460,703.109" transform="rotate(120 400 400)" fill="magenta" stroke="black" stroke-width="0.5" />
<polygon points="460,703.109 425,763.731 390,703.109" transform="rotate(120 400 400)" fill="magenta" stroke="black" stroke-width="0.5" />
<polygon points="390,703.109 355,763.731 320,703.109" transform="rotate(120 400 400)" fill="magenta" stroke="black" stroke-width="0.5" />
<polygon points="320,703.109 285,763.731 250,703.109" transform="rotate(120 400 400)" fill="magenta" stroke="black" stroke-width="0.5" />
<polygon points="400,400 365,460.622 435,460.622" transform="rotate(180 400 400)" fill="magenta" stroke="black" stroke-width="0.5" />
<polygon points="400,521.244 365,460.622 435,460.622" transform="rotate(180 400 400)" fill="magenta" stroke="black" stroke-width="0.5" />
<polygon points="365,460.622 330,521.244 400,521.244" transform="rotate(180 400 400)" fill="magenta" stroke="black" stroke-width="0.5" />
<polygon points="365,581.865 330,521.244 400,521.244" transform="rotate(180 400 400)" fill="magenta" stroke="black" stroke-width="0.5" />
<polygon points="435,460.622 400,521.244 470,521.244" transform="rotate(180 400 400)" fill="magenta" stroke="black" stroke-width="0.5" />
<polygon points="435,581.865 400,521.244 470,521.244" transform="rotate(180 400 400)" fill="magenta" stroke="black" stroke-width="0.5" />
<polygon points="330,521.244 295,581.865 365,581.865" transform="rotate(180 400 400)" fill="magenta" stroke="black" stroke-width="0.5" />
<polygon points="330,642.487 295,581.865 365,581.865" transform="rotate(180 400 400)" fill="magenta" stroke="black" stroke-width="0.5" />
<polygon points="400,521.244 365,581.865 435,581.865" transform="rotate(180 400 400)" fill="magenta" stroke="black" stroke-width="0.5" />
<polygon points="400,642.487 365,581.865 435,581.865" transform="rotate(180 400 400)" fill="magenta" stroke="black" stroke-width="0.5" />
<polygon points="470,521.244 435,581.865 505,581.865" transform="rotate(180 400 400)" fill="magenta" stroke="black" stroke-width="0.5" />
<polygon points="470,642.487 435,581.865 505,581.865" transform="rotate(180 400 400)" fill="magenta" stroke="black" stroke-width="0.5" />
<polygon points="295,581.865 260,642.487 330,642.487" transform="rotate(180 400 400)" fill="magenta" stroke="black" stroke-width="0.5" />
<polygon points="295,703.109 260,642.487 330,642.487" transform="rotate(180 400 400)" fill="magenta" stroke="black" stroke-width="0.5" />
<polygon points="365,581.865 330,642.487 400,642.487" transform="rotate(180 400 400)" fill="magenta" stroke="black" stroke-width="0.5" />
<polygon points="365,703.109 330,642.487 400,642.487" transform="rotate(180 400 400)" fill="magenta" stroke="black" stroke-width="0.5" />
<polygon points="435,581.865 400,642.487 470,642.487" transform="rotate(180 400 400)" fill="magenta" stroke="black" stroke-width="0.5" />
<polygon points="435,703.109 400,642.487 470,642.487" transform="rotate(180 400 400)" fill="magenta" stroke="black" stroke-width="0.5" />
<polygon points="505,581.865 470,642.487 540,642.487" transform="rotate(180 400 400)" fill="magenta" stroke="black" stroke-width="0.5" />
<polygon points="505,703.109 470,642.487 540,642.487" transform="rotate(180 400 400)" fill="magenta" stroke="black" stroke-width="0.5" />
<polygon points="260,642.487 225,703.109 295,703.109" transform="rotate(180 400 400)" fill="magenta" stroke="black" stroke-width="0.5" />
<polygon points="330,642.487 295,703.109 365,703.109" transform="rotate(180 400 400)" fill="magenta" stroke="black" stroke-width="0.5" />
<polygon points="400,642.487 365,703.109 435,703.109" transform="rotate(180 400 400)" fill="magenta" stroke="black" stroke-width="0.5" />
<polygon points="470,642.487 435,703.109 505,703.109" transform="rotate(180 400 400)" fill="magenta" stroke="black" stroke-width="0.5" />
<polygon points="540,642.487 505,703.109 575,703.109" transform="rotate(180 400 400)" fill="magenta" stroke="black" stroke-width="0.5" />
<polygon points="460,703.109 425,763.731 495,763.731" transform="rotate(180 400 400)" fill="magenta" stroke="black" stroke-width="0.5" />
<polygon points="390,703.109 355,763.731 425,763.731" transform="rotate(180 400 400)" fill="magenta" stroke="black" stroke-width="0.5" />
<polygon points="320,703.109 285,763.731 355,763.731" transform="rotate(180 400 400)" fill="magenta" stroke="black" stroke-width="0.5" />
<polygon points="530,703.109 495,763.731 460,703.109" transform="rotate(180 400 400)" fill="magenta" stroke="black" stroke-width="0.5" />
<polygon points="460,703.109 425,763.731 390,703.109" transform="rotate(180 400 400)" fill="magenta" stroke="black" stroke-width="0.5" />
<polygon points="390,703.109 355,763.731 320,703.109" transform="rotate(180 400 400)" fill="magenta" stroke="black" stroke-width="0.5" />
<polygon points="320,703.109 285,763.731 250,703.109" transform="rotate(180 400 400)" fill="magenta" stroke="black" stroke-width="0.5" />
<polygon points="400,400 365,460.622 435,460.622" transform="rotate(240 400 400)" fill="magenta" stroke="black" stroke-width="0.5" />
<polygon points="400,521.244 365,460.622 435,460.622" transform="rotate(240 400 400)" fill="magenta" stroke="black" stroke-width="0.5" />
<polygon points="365,460.622 330,521.244 400,521.244" transform="rotate(240 400 400)" fill="magenta" stroke="black" stroke-width="0.5" />
<polygon points="365,581.865 330,521.244 400,521.244" transform="rotate(240 400 400)" fill="magenta" stroke="black" stroke-width="0.5" />
<polygon points="435,460.622 400,521.244 470,521.244" transform="rotate(240 400 400)" fill="magenta" stroke="black" stroke-width="0.5" />
<polygon points="435,581.865 400,521.244 470,521.244" transform="rotate(240 400 400)" fill="magenta" stroke="black" stroke-width="0.5" />
<polygon points="330,521.244 295,581.865 365,581.865" transform="rotate(240 400 400)" fill="magenta" stroke="black" stroke-width="0.5" />
<polygon points="330,642.487 295,581.865 365,581.865" transform="rotate(240 400 400)" fill="magenta" stroke="black" stroke-width="0.5" />
<polygon points="400,521.244 365,581.865 435,581.865" transform="rotate(240 400 400)" fill="magenta" stroke="black" stroke-width="0.5" />
<polygon points="400,642.487 365,581.865 435,581.865" transform="rotate(240 400 400)" fill="magenta" stroke="black" stroke-width="0.5" />
<polygon points="470,521.244 435,581.865 505,581.865" transform="rotate(240 400 400)" fill="magenta" stroke="black" stroke-width="0.5" />
<polygon points="470,642.487 435,581.865 505,581.865" transform="rotate(240 400 400)" fill="magenta" stroke="black" stroke-width="0.5" />
<polygon points="295,581.865 260,642.487 330,642.487" transform="rotate(240 400 400)" fill="magenta" stroke="black" stroke-width="0.5" />
<polygon points="295,703.109 260,642.487 330,642.487" transform="rotate(240 400 400)" fill="magenta" stroke="black" stroke-width="0.5" />
<polygon points="365,581.865 330,642.487 400,642.487" transform="rotate(240 400 400)" fill="magenta" stroke="black" stroke-width="0.5" />
<polygon points="365,703.109 330,642.487 400,642.487" transform="rotate(240 400 400)" fill="magenta" stroke="black" stroke-width="0.5" />
<polygon points="435,581.865 400,642.487 470,642.487" transform="rotate(240 400 400)" fill="magenta" stroke="black" stroke-width="0.5" />
<polygon points="435,703.109 400,642.487 470,642.487" transform="rotate(240 400 400)" fill="magenta" stroke="black" stroke-width="0.5" />
<polygon points="505,581.865 470,642.487 540,642.487" transform="rotate(240 400 400)" fill="magenta" stroke="black" stroke-width="0.5" />
<polygon points="505,703.109 470,642.487 540,642.487" transform="rotate(240 400 400)" fill="magenta" stroke="black" stroke-width="0.5" />
<polygon points="260,642.487 225,703.109 295,703.109" transform="rotate(240 400 400)" fill="magenta" stroke="black" stroke-width="0.5" />
<polygon points="330,642.487 295,703.109 365,703.109" transform="rotate(240 400 400)" fill="magenta" stroke="black" stroke-width="0.5" />
<polygon points="400,642.487 365,703.109 435,703.109" transform="rotate(240 400 400)" fill="magenta" stroke="black" stroke-width="0.5" />
<polygon points="470,642.487 435,703.109 505,703.109" transform="rotate(240 400 400)" fill="magenta" stroke="black" stroke-width="0.5" />
<polygon points="540,642.487 505,703.109 575,703.109" transform="rotate(240 400 400)" fill="magenta" stroke="black" stroke-width="0.5" />
<polygon points="460,703.109 425,763.731 495,763.731" transform="rotate(240 400 400)" fill="magenta" stroke="black" stroke-width="0.5" />
<polygon points="390,703.109 355,763.731 425,763.731" transform="rotate(240 400 400)" fill="magenta" stroke="black" stroke-width="0.5" />
<polygon points="320,703.109 285,763.731 355,763.731" transform="rotate(240 400 400)" fill="magenta" stroke="black" stroke-width="0.5" />
<polygon points="530,703.109 495,763.731 460,703.109" transform="rotate(240 400 400)" fill="magenta" stroke="black" stroke-width="0.5" />
<polygon points="460,703.109 425,763.731 390,703.109" transform="rotate(240 400 400)" fill="magenta" stroke="black" stroke-width="0.5" />
<polygon points="390,703.109 355,763.731 320,703.109" transform="rotate(240 400 400)" fill="magenta" stroke="black" stroke-width="0.5" />
<polygon points="320,703.109 285,763.731 250,703.109" transform="rotate(240 400 400)" fill="magenta" stroke="black" stroke-width="0.5" />
<polygon points="400,400 365,460.622 435,460.622" transform="rotate(300 400 400)" fill="magenta" stroke="black" stroke-width="0.5" />
<polygon points="400,521.244 365,460.622 435,460.622" transform="rotate(300 400 400)" fill="magenta" stroke="black" stroke-width="0.5" />
<polygon points="365,460.622 330,521.244 400,521.244" transform="rotate(300 400 400)" fill="magenta" stroke="black" stroke-width="0.5" />
<polygon points="365,581.865 330,521.244 400,521.244" transform="rotate(300 400 400)" fill="magenta" stroke="black" stroke-width="0.5" />
<polygon points="435,460.622 400,521.244 470,521.244" transform="rotate(300 400 400)" fill="magenta" stroke="black" stroke-width="0.5" />
<polygon points="435,581.865 400,521.244 470,521.244" transform="rotate(300 400 400)" fill="magenta" stroke="black" stroke-width="0.5" />
<polygon points="330,521.244 295,581.865 365,581.865" transform="rotate(300 400 400)" fill="magenta" stroke="black" stroke-width="0.5" />
<polygon points="330,642.487 295,581.865 365,581.865" transform="rotate(300 400 400)" fill="magenta" stroke="black" stroke-width="0.5" />
<polygon points="400,521.244 365,581.865 435,581.865" transform="rotate(300 400 400)" fill="magenta" stroke="black" stroke-width="0.5" />
<polygon points="400,642.487 365,581.865 435,581.865" transform="rotate(300 400 400)" fill="magenta" stroke="black" stroke-width="0.5" />
<polygon points="470,521.244 435,581.865 505,581.865" transform="rotate(300 400 400)" fill="magenta" stroke="black" stroke-width="0.5" />
<polygon points="470,642.487 435,581.865 505,581.865" transform="rotate(300 400 400)" fill="magenta" stroke="black" stroke-width="0.5" />
<polygon points="295,581.865 260,642.487 330,642.487" transform="rotate(300 400 400)" fill="magenta" stroke="black" stroke-width="0.5" />
<polygon points="295,703.109 260,642.487 330,642.487" transform="rotate(300 400 400)" fill="magenta" stroke="black" stroke-width="0.5" />
<polygon points="365,581.865 330,642.487 400,642.487" transform="rotate(300 400 400)" fill="magenta" stroke="black" stroke-width="0.5" />
<polygon points="365,703.109 330,642.487 400,642.487" transform="rotate(300 400 400)" fill="magenta" stroke="black" stroke-width="0.5" />
<polygon points="435,581.865 400,642.487 470,642.487" transform="rotate(300 400 400)" fill="magenta" stroke="black" stroke-width="0.5" />
<polygon points="435,703.109 400,642.487 470,642.487" transform="rotate(300 400 400)" fill="magenta" stroke="black" stroke-width="0.5" />
<polygon points="505,581.865 470,642.487 540,642.487" transform="rotate(300 400 400)" fill="magenta" stroke="black" stroke-width="0.5" />
<polygon points="505,703.109 470,642.487 540,642.487" transform="rotate(300 400 400)" fill="magenta" stroke="black" stroke-width="0.5" />
<polygon points="260,642.487 225,703.109 295,703.109" transform="rotate(300 400 400)" fill="magenta" stroke="black" stroke-width="0.5" />
<polygon points="330,642.487 295,703.109 365,703.109" transform="rotate(300 400 400)" fill="magenta" stroke="black" stroke-width="0.5" />
<polygon points="400,642.487 365,703.109 435,703.109" transform="rotate(300 400 400)" fill="magenta" stroke="black" stroke-width="0.5" />
<polygon points="470,642.487 435,703.109 505,703.109" transform="rotate(300 400 400)" fill="magenta" stroke="black" stroke-width="0.5" />
<polygon points="540,642.487 505,703.109 575,703.109" transform="rotate(300 400 400)" fill="magenta" stroke="black" stroke-width="0.5" />
<polygon points="460,703.109 425,763.731 495,763.731" transform="rotate(300 400 400)" fill="magenta" stroke="black" stroke-width="0.5" />
<polygon points="390,703.109 355,763.731 425,763.731" transform="rotate(300 400 400)" fill="magenta" stroke="black" stroke-width="0.5" />
<polygon points="320,703.109 285,763.731 355,763.731" transform="rotate(300 400 400)" fill="magenta" stroke="black" stroke-width="0.5" />
<polygon points="530,703.109 495,763.731 460,703.109" transform="rotate(300 400 400)" fill="magenta" stroke="black" stroke-width="0.5" />
<polygon points="460,703.109 425,763.731 390,703.109" transform="rotate(300 400 400)" fill="magenta" stroke="black" stroke-width="0.5" />
<polygon points="390,703.109 355,763.731 320,703.109" transform="rotate(300 400 400)" fill="magenta" stroke="black" stroke-width="0.5" />
<polygon points="320,703.109 285,763.731 250,703.109" transform="rotate(300 400 400)" fill="magenta" stroke="black" stroke-width="0.5" />
</svg>
