<svg version="1.1" baseProfile="full" xmlns="http://www.w3.org/2000/svg">
<circle cx="510" cy="510" r="500" transform="rotate(0 0 0)" fill="dimgrey" stroke="black" stroke-width="0.5" />
<polygon points="510,510 480.5,561.095 539.5,561.095" transform="rotate(0 510 510)" fill="cyan" stroke="black" stroke-width="0.5" />
<polygon points="510,612.191 480.5,561.095 539.5,561.095" transform="rotate(0 510 510)" fill="cyan" stroke="black" stroke-width="0.5" />
<polygon points="480.5,561.095 451,612.191 510,612.191" transform="rotate(0 510 510)" fill="cyan" stroke="black" stroke-width="0.5" />
<polygon points="480.5,663.286 451,612.191 510,612.191" transform="rotate(0 510 510)" fill="cyan" stroke="black" stroke-width="0.5" />
<polygon points="539.5,561.095 510,612.191 569,612.191" transform="rotate(0 510 510)" fill="cyan" stroke="black" stroke-width="0.5" />
<polygon points="539.5,663.286 510,612.191 569,612.191" transform="rotate(0 510 510)" fill="cyan" stroke="black" stroke-width="0.5" />
<polygon points="451,612.191 421.5,663.286 480.5,663.286" transform="rotate(0 510 510)" fill="cyan" stroke="black" stroke-width="0.5" />
<polygon points="451,714.382 421.5,663.286 480.5,663.286" transform="rotate(0 510 510)" fill="cyan" stroke="black" stroke-width="0.5" />
<polygon points="510,612.191 480.5,663.286 539.5,663.286" transform="rotate(0 510 510)" fill="cyan" stroke="black" stroke-width="0.5" />
<polygon points="510,714.382 480.5,663.286 539.5,663.286" transform="rotate(0 510 510)" fill="cyan" stroke="black" stroke-width="0.5" />
<polygon points="569,612.191 539.5,663.286 598.5,663.286" transform="rotate(0 510 510)" fill="cyan" stroke="black" stroke-width="0.5" />
<polygon points="569,714.382 539.5,663.286 598.5,663.286" transform="rotate(0 510 510)" fill="cyan" stroke="black" stroke-width="0.5" />
<polygon points="421.5,663.286 392,714.382 451,714.382" transform="rotate(0 510 510)" fill="cyan" stroke="black" stroke-width="0.5" />
<polygon points="421.5,765.477 392,714.382 451,714.382" transform="rotate(0 510 510)" fill="cyan" stroke="black" stroke-width="0.5" />
<polygon points="480.5,663.286 451,714.382 510,714.382" transform="rotate(0 510 510)" fill="cyan" stroke="black" stroke-width="0.5" />
<polygon points="480.5,765.477 451,714.382 510,714.382" transform="rotate(0 510 510)" fill="cyan" stroke="black" stroke-width="0.5" />
<polygon points="539.5,663.286 510,714.382 569,714.382" transform="rotate(0 510 510)" fill="cyan" stroke="black" stroke-width="0.5" />
<polygon points="539.5,765.477 510,714.382 569,714.382" transform="rotate(0 510 510)" fill="cyan" stroke="black" stroke-width="0.5" />
<polygon points="598.5,663.286 569,714.382 628,714.382" transform="rotate(0 510 510)" fill="cyan" stroke="black" stroke-width="0.5" />
<polygon points="598.5,765.477 569,714.382 628,714.382" transform="rotate(0 510 510)" fill="cyan" stroke="black" stroke-width="0.5" />
<polygon points="392,714.382 362.5,765.477 421.5,765.477" transform="rotate(0 510 510)" fill="cyan" stroke="black" stroke-width="0.5" />
<polygon points="392,816.573 362.5,765.477 421.5,765.477" transform="rotate(0 510 510)" fill="cyan" stroke="black" stroke-width="0.5" />
<polygon points="451,714.382 421.5,765.477 480.5,765.477" transform="rotate(0 510 510)" fill="cyan" stroke="black" stroke-width="0.5" />
<polygon points="451,816.573 421.5,765.477 480.5,765.477" transform="rotate(0 510 510)" fill="cyan" stroke="black" stroke-width="0.5" />
<polygon points="510,714.382 480.5,765.477 539.5,765.477" transform="rotate(0 510 510)" fill="cyan" stroke="black" stroke-width="0.5" />
<polygon points="510,816.573 480.5,765.477 539.5,765.477" transform="rotate(0 510 510)" fill="cyan" stroke="black" stroke-width="0.5" />
<polygon points="569,714.382 539.5,765.477 598.5,765.477" transform="rotate(0 510 510)" fill="cyan" stroke="black" stroke-width="0.5" />
<polygon points="569,816.573 539.5,765.477 598.5,765.477" transform="rotate(0 510 510)" fill="cyan" stroke="black" stroke-width="0.5" />
<polygon points="628,714.382 598.5,765.477 657.5,765.477" transform="rotate(0 510 510)" fill="cyan" stroke="black" stroke-width="0.5" />
<polygon points="628,816.573 598.5,765.477 657.5,765.477" transform="rotate(0 510 510)" fill="cyan" stroke="black" stroke-width="0.5" />
<polygon points="362.5,765.477 333,816.573 392,816.573" transform="rotate(0 510 510)" fill="cyan" stroke="black" stroke-width="0.5" />
<polygon points="362.5,867.668 333,816.573 392,816.573" transform="rotate(0 510 510)" fill="cyan" stroke="black" stroke-width="0.5" />
<polygon points="421.5,765.477 392,816.573 451,816.573" transform="rotate(0 510 510)" fill="cyan" stroke="black" stroke-width="0.5" />
<polygon points="421.5,867.668 392,816.573 451,816.573" transform="rotate(0 510 510)" fill="cyan" stroke="black" stroke-width="0.5" />
<polygon points="480.5,765.477 451,816.573 510,816.573" transform="rotate(0 510 510)" fill="cyan" stroke="black" stroke-width="0.5" />
<polygon points="480.5,867.668 451,816.573 510,816.573" transform="rotate(0 510 510)" fill="cyan" stroke="black" stroke-width="0.5" />
<polygon points="539.5,765.477 510,816.573 569,816.573" transform="rotate(0 510 510)" fill="cyan" stroke="black" stroke-width="0.5" />
<polygon points="539.5,867.668 510,816.573 569,816.573" transform="rotate(0 510 510)" fill="cyan" stroke="black" stroke-width="0.5" />
<polygon points="598.5,765.477 569,816.573 628,816.573" transform="rotate(0 510 510)" fill="cyan" stroke="black" stroke-width="0.5" />
<polygon points="598.5,867.668 569,816.573 628,816.573" transform="rotate(0 510 510)" fill="cyan" stroke="black" stroke-width="0.5" />
<polygon points="657.5,765.477 628,816.573 687,816.573" transform="rotate(0 510 510)" fill="cyan" stroke="black" stroke-width="0.5" />
<polygon points="657.5,867.668 628,816.573 687,816.573" transform="rotate(0 510 510)" fill="cyan" stroke="black" stroke-width="0.5" />
<polygon points="333,816.573 303.5,867.668 362.5,867.668" transform="rotate(0 510 510)" fill="cyan" stroke="black" stroke-width="0.5" />
<polygon points="333,918.764 303.5,867.668 362.5,867.668" transform="rotate(0 510 510)" fill="cyan" stroke="black" stroke-width="0.5" />
<polygon points="392,816.573 362.5,867.668 421.5,867.668" transform="rotate(0 510 510)" fill="cyan" stroke="black" stroke-width="0.5" />
<polygon points="392,918.764 362.5,867.668 421.5,867.668" transform="rotate(0 510 510)" fill="cyan" stroke="black" stroke-width="0.5" />
<polygon points="451,816.573 421.5,867.668 480.5,867.668" transform="rotate(0 510 510)" fill="cyan" stroke="black" stroke-width="0.5" />
<polygon points="451,918.764 421.5,867.668 480.5,867.668" transform="rotate(0 510 510)" fill="cyan" stroke="black" stroke-width="0.5" />
<polygon points="510,816.573 480.5,867.668 539.5,867.668" transform="rotate(0 510 510)" fill="cyan" stroke="black" stroke-width="0.5" />
<polygon points="510,918.764 480.5,867.668 539.5,867.668" transform="rotate(0 510 510)" fill="cyan" stroke="black" stroke-width="0.5" />
<polygon points="569,816.573 539.5,867.668 598.5,867.668" transform="rotate(0 510 510)" fill="cyan" stroke="black" stroke-width="0.5" />
<polygon points="569,918.764 539.5,867.668 598.5,867.668" transform="rotate(0 510 510)" fill="cyan" stroke="black" stroke-width="0.5" />
<polygon points="628,816.573 598.5,867.668 657.5,867.668" transform="rotate(0 510 510)" fill="cyan" stroke="black" stroke-width="0.5" />
<polygon points="628,918.764 598.5,867.668 657.5,867.668" transform="rotate(0 510 510)" fill="cyan" stroke="black" stroke-width="0.5" />
<polygon points="687,816.573 657.5,867.668 716.5,867.668" transform="rotate(0 510 510)" fill="cyan" stroke="black" stroke-width="0.5" />
<polygon points="687,918.764 657.5,867.668 716.5,867.668" transform="rotate(0 510 510)" fill="cyan" stroke="black" stroke-width="0.5" />
<polygon points="303.5,867.668 274,918.764 333,918.764" transform="rotate(0 510 510)" fill="cyan" stroke="black" stroke-width="0.5" />
<polygon points="362.5,867.668 333,918.764 392,918.764" transform="rotate(0 510 510)" fill="cyan" stroke="black" stroke-width="0.5" />
<polygon points="421.5,867.668 392,918.764 451,918.764" transform="rotate(0 510 510)" fill="cyan" stroke="black" stroke-width="0.5" />
<polygon points="480.5,867.668 451,918.764 510,918.764" transform="rotate(0 510 510)" fill="cyan" stroke="black" stroke-width="0.5" />
<polygon points="539.5,867.668 510,918.764 569,918.764" transform="rotate(0 510 510)" fill="cyan" stroke="black" stroke-width="0.5" />
<polygon points="598.5,867.668 569,918.764 628,918.764" transform="rotate(0 510 510)" fill="cyan" stroke="black" stroke-width="0.5" />
<polygon points="657.5,867.668 628,918.764 687,918.764" transform="rotate(0 510 510)" fill="cyan" stroke="black" stroke-width="0.5" />
<polygon points="716.5,867.668 687,918.764 746,918.764" transform="rotate(0 510 510)" fill="cyan" stroke="black" stroke-width="0.5" />
<polygon points="612.5,918.764 583,969.859 642,969.859" transform="rotate(0 510 510)" fill="cyan" stroke="black" stroke-width="0.5" />
<polygon points="553.5,918.764 524,969.859 583,969.859" transform="rotate(0 510 510)" fill="cyan" stroke="black" stroke-width="0.5" />
<polygon points="494.5,918.764 465,969.859 524,969.859" transform="rotate(0 510 510)" fill="cyan" stroke="black" stroke-width="0.5" />
<polygon points="435.5,918.764 406,969.859 465,969.859" transform="rotate(0 510 510)" fill="cyan" stroke="black" stroke-width="0.5" />
<polygon points="376.5,918.764 347,969.859 406,969.859" transform="rotate(0 510 510)" fill="cyan" stroke="black" stroke-width="0.5" />
<polygon points="671.5,918.764 642,969.859 612.5,918.764" transform="rotate(0 510 510)" fill="cyan" stroke="black" stroke-width="0.5" />
<polygon points="612.5,918.764 583,969.859 553.5,918.764" transform="rotate(0 510 510)" fill="cyan" stroke="black" stroke-width="0.5" />
<polygon points="553.5,918.764 524,969.859 494.5,918.764" transform="rotate(0 510 510)" fill="cyan" stroke="black" stroke-width="0.5" />
<polygon points="494.5,918.764 465,969.859 435.5,918.764" transform="rotate(0 510 510)" fill="cyan" stroke="black" stroke-width="0.5" />
<polygon points="435.5,918.764 406,969.859 376.5,918.764" transform="rotate(0 510 510)" fill="cyan" stroke="black" stroke-width="0.5" />
<polygon points="376.5,918.764 347,969.859 317.5,918.764" transform="rotate(0 510 510)" fill="cyan" stroke="black" stroke-width="0.5" />
<polygon points="510,510 480.5,561.095 539.5,561.095" transform="rotate(60 510 510)" fill="cyan" stroke="black" stroke-width="0.5" />
<polygon points="510,612.191 480.5,561.095 539.5,561.095" transform="rotate(60 510 510)" fill="cyan" stroke="black" stroke-width="0.5" />
<polygon points="480.5,561.095 451,612.191 510,612.191" transform="rotate(60 510 510)" fill="cyan" stroke="black" stroke-width="0.5" />
<polygon points="480.5,663.286 451,612.191 510,612.191" transform="rotate(60 510 510)" fill="cyan" stroke="black" stroke-width="0.5" />
<polygon points="539.5,561.095 510,612.191 569,612.191" transform="rotate(60 510 510)" fill="cyan" stroke="black" stroke-width="0.5" />
<polygon points="539.5,663.286 510,612.191 569,612.191" transform="rotate(60 510 510)" fill="cyan" stroke="black" stroke-width="0.5" />
<polygon points="451,612.191 421.5,663.286 480.5,663.286" transform="rotate(60 510 510)" fill="cyan" stroke="black" stroke-width="0.5" />
<polygon points="451,714.382 421.5,663.286 480.5,663.286" transform="rotate(60 510 510)" fill="cyan" stroke="black" stroke-width="0.5" />
<polygon points="510,612.191 480.5,663.286 539.5,663.286" transform="rotate(60 510 510)" fill="cyan" stroke="black" stroke-width="0.5" />
<polygon points="510,714.382 480.5,663.286 539.5,663.286" transform="rotate(60 510 510)" fill="cyan" stroke="black" stroke-width="0.5" />
<polygon points="569,612.191 539.5,663.286 598.5,663.286" transform="rotate(60 510 510)" fill="cyan" stroke="black" stroke-width="0.5" />
<polygon points="569,714.382 539.5,663.286 598.5,663.286" transform="rotate(60 510 510)" fill="cyan" stroke="black" stroke-width="0.5" />
<polygon points="421.5,663.286 392,714.382 451,714.382" transform="rotate(60 510 510)" fill="cyan" stroke="black" stroke-width="0.5" />
<polygon points="421.5,765.477 392,714.382 451,714.382" transform="rotate(60 510 510)" fill="cyan" stroke="black" stroke-width="0.5" />
<polygon points="480.5,663.286 451,714.382 510,714.382" transform="rotate(60 510 510)" fill="cyan" stroke="black" stroke-width="0.5" />
<polygon points="480.5,765.477 451,714.382 510,714.382" transform="rotate(60 510 510)" fill="cyan" stroke="black" stroke-width="0.5" />
<polygon points="539.5,663.286 510,714.382 569,714.382" transform="rotate(60 510 510)" fill="cyan" stroke="black" stroke-width="0.5" />
<polygon points="539.5,765.477 510,714.382 569,714.382" transform="rotate(60 510 510)" fill="cyan" stroke="black" stroke-width="0.5" />
<polygon points="598.5,663.286 569,714.382 628,714.382" transform="rotate(60 510 510)" fill="cyan" stroke="black" stroke-width="0.5" />
<polygon points="598.5,765.477 569,714.382 628,714.382" transform="rotate(60 510 510)" fill="cyan" stroke="black" stroke-width="0.5" />
<polygon points="392,714.382 362.5,765.477 421.5,765.477" transform="rotate(60 510 510)" fill="cyan" stroke="black" stroke-width="0.5" />
<polygon points="392,816.573 362.5,765.477 421.5,765.477" transform="rotate(60 510 510)" fill="cyan" stroke="black" stroke-width="0.5" />
<polygon points="451,714.382 421.5,765.477 480.5,765.477" transform="rotate(60 510 510)" fill="cyan" stroke="black" stroke-width="0.5" />
<polygon points="451,816.573 421.5,765.477 480.5,765.477" transform="rotate(60 510 510)" fill="cyan" stroke="black" stroke-width="0.5" />
<polygon points="510,714.382 480.5,765.477 539.5,765.477" transform="rotate(60 510 510)" fill="cyan" stroke="black" stroke-width="0.5" />
<polygon points="510,816.573 480.5,765.477 539.5,765.477" transform="rotate(60 510 510)" fill="cyan" stroke="black" stroke-width="0.5" />
<polygon points="569,714.382 539.5,765.477 598.5,765.477" transform="rotate(60 510 510)" fill="cyan" stroke="black" stroke-width="0.5" />
<polygon points="569,816.573 539.5,765.477 598.5,765.477" transform="rotate(60 510 510)" fill="cyan" stroke="black" stroke-width="0.5" />
<polygon points="628,714.382 598.5,765.477 657.5,765.477" transform="rotate(60 510 510)" fill="cyan" stroke="black" stroke-width="0.5" />
<polygon points="628,816.573 598.5,765.477 657.5,765.477" transform="rotate(60 510 510)" fill="cyan" stroke="black" stroke-width="0.5" />
<polygon points="362.5,765.477 333,816.573 392,816.573" transform="rotate(60 510 510)" fill="cyan" stroke="black" stroke-width="0.5" />
<polygon points="362.5,867.668 333,816.573 392,816.573" transform="rotate(60 510 510)" fill="cyan" stroke="black" stroke-width="0.5" />
<polygon points="421.5,765.477 392,816.573 451,816.573" transform="rotate(60 510 510)" fill="cyan" stroke="black" stroke-width="0.5" />
<polygon points="421.5,867.668 392,816.573 451,816.573" transform="rotate(60 510 510)" fill="cyan" stroke="black" stroke-width="0.5" />
<polygon points="480.5,765.477 451,816.573 510,816.573" transform="rotate(60 510 510)" fill="cyan" stroke="black" stroke-width="0.5" />
<polygon points="480.5,867.668 451,816.573 510,816.573" transform="rotate(60 510 510)" fill="cyan" stroke="black" stroke-width="0.5" />
<polygon points="539.5,765.477 510,816.573 569,816.573" transform="rotate(60 510 510)" fill="cyan" stroke="black" stroke-width="0.5" />
<polygon points="539.5,867.668 510,816.573 569,816.573" transform="rotate(60 510 510)" fill="cyan" stroke="black" stroke-width="0.5" />
<polygon points="598.5,765.477 569,816.573 628,816.573" transform="rotate(60 510 510)" fill="cyan" stroke="black" stroke-width="0.5" />
<polygon points="598.5,867.668 569,816.573 628,816.573" transform="rotate(60 510 510)" fill="cyan" stroke="black" stroke-width="0.5" />
<polygon points="657.5,765.477 628,816.573 687,816.573" transform="rotate(60 510 510)" fill="cyan" stroke="black" stroke-width="0.5" />
<polygon points="657.5,867.668 628,816.573 687,816.573" transform="rotate(60 510 510)" fill="cyan" stroke="black" stroke-width="0.5" />
<polygon points="333,816.573 303.5,867.668 362.5,867.668" transform="rotate(60 510 510)" fill="cyan" stroke="black" stroke-width="0.5" />
<polygon points="333,918.764 303.5,867.668 362.5,867.668" transform="rotate(60 510 510)" fill="cyan" stroke="black" stroke-width="0.5" />
<polygon points="392,816.573 362.5,867.668 421.5,867.668" transform="rotate(60 510 510)" fill="cyan" stroke="black" stroke-width="0.5" />
<polygon points="392,918.764 362.5,867.668 421.5,867.668" transform="rotate(60 510 510)" fill="cyan" stroke="black" stroke-width="0.5" />
<polygon points="451,816.573 421.5,867.668 480.5,867.668" transform="rotate(60 510 510)" fill="cyan" stroke="black" stroke-width="0.5" />
<polygon points="451,918.764 421.5,867.668 480.5,867.668" transform="rotate(60 510 510)" fill="cyan" stroke="black" stroke-width="0.5" />
<polygon points="510,816.573 480.5,867.668 539.5,867.668" transform="rotate(60 510 510)" fill="cyan" stroke="black" stroke-width="0.5" />
<polygon points="510,918.764 480.5,867.668 539.5,867.668" transform="rotate(60 510 510)" fill="cyan" stroke="black" stroke-width="0.5" />
<polygon points="569,816.573 539.5,867.668 598.5,867.668" transform="rotate(60 510 510)" fill="cyan" stroke="black" stroke-width="0.5" />
<polygon points="569,918.764 539.5,867.668 598.5,867.668" transform="rotate(60 510 510)" fill="cyan" stroke="black" stroke-width="0.5" />
<polygon points="628,816.573 598.5,867.668 657.5,867.668" transform="rotate(60 510 510)" fill="cyan" stroke="black" stroke-width="0.5" />
<polygon points="628,918.764 598.5,867.668 657.5,867.668" transform="rotate(60 510 510)" fill="cyan" stroke="black" stroke-width="0.5" />
<polygon points="687,816.573 657.5,867.668 716.5,867.668" transform="rotate(60 510 510)" fill="cyan" stroke="black" stroke-width="0.5" />
<polygon points="687,918.764 657.5,867.668 716.5,867.668" transform="rotate(60 510 510)" fill="cyan" stroke="black" stroke-width="0.5" />
<polygon points="303.5,867.668 274,918.764 333,918.764" transform="rotate(60 510 510)" fill="cyan" stroke="black" stroke-width="0.5" />
<polygon points="362.5,867.668 333,918.764 392,918.764" transform="rotate(60 510 510)" fill="cyan" stroke="black" stroke-width="0.5" />
<polygon points="421.5,867.668 392,918.764 451,918.764" transform="rotate(60 510 510)" fill="cyan" stroke="black" stroke-width="0.5" />
<polygon points="480.5,867.668 451,918.764 510,918.764" transform="rotate(60 510 510)" fill="cyan" stroke="black" stroke-width="0.5" />
<polygon points="539.5,867.668 510,918.764 569,918.764" transform="rotate(60 510 510)" fill="cyan" stroke="black" stroke-width="0.5" />
<polygon points="598.5,867.668 569,918.764 628,918.764" transform="rotate(60 510 510)" fill="cyan" stroke="black" stroke-width="0.5" />
<polygon points="657.5,867.668 628,918.764 687,918.764" transform="rotate(60 510 510)" fill="cyan" stroke="black" stroke-width="0.5" />
<polygon points="716.5,867.668 687,918.764 746,918.764" transform="rotate(60 510 510)" fill="cyan" stroke="black" stroke-width="0.5" />
<polygon points="612.5,918.764 583,969.859 642,969.859" transform="rotate(60 510 510)" fill="cyan" stroke="black" stroke-width="0.5" />
<polygon points="553.5,918.764 524,969.859 583,969.859" transform="rotate(60 510 510)" fill="cyan" stroke="black" stroke-width="0.5" />
<polygon points="494.5,918.764 465,969.859 524,969.859" transform="rotate(60 510 510)" fill="cyan" stroke="black" stroke-width="0.5" />
<polygon points="435.5,918.764 406,969.859 465,969.859" transform="rotate(60 510 510)" fill="cyan" stroke="black" stroke-width="0.5" />
<polygon points="376.5,918.764 347,969.859 406,969.859" transform="rotate(60 510 510)" fill="cyan" stroke="black" stroke-width="0.5" />
<polygon points="671.5,918.764 642,969.859 612.5,918.764" transform="rotate(60 510 510)" fill="cyan" stroke="black" stroke-width="0.5" />
<polygon points="612.5,918.764 583,969.859 553.5,918.764" transform="rotate(60 510 510)" fill="cyan" stroke="black" stroke-width="0.5" />
<polygon points="553.5,918.764 524,969.859 494.5,918.764" transform="rotate(60 510 510)" fill="cyan" stroke="black" stroke-width="0.5" />
<polygon points="494.5,918.764 465,969.859 435.5,918.764" transform="rotate(60 510 510)" fill="cyan" stroke="black" stroke-width="0.5" />
<polygon points="435.5,918.764 406,969.859 376.5,918.764" transform="rotate(60 510 510)" fill="cyan" stroke="black" stroke-width="0.5" />
<polygon points="376.5,918.764 347,969.859 317.5,918.764" transform="rotate(60 510 510)" fill="cyan" stroke="black" stroke-width="0.5" />
<polygon points="510,510 480.5,561.095 539.5,561.095" transform="rotate(120 510 510)" fill="cyan" stroke="black" stroke-width="0.5" />
<polygon points="510,612.191 480.5,561.095 539.5,561.095" transform="rotate(120 510 510)" fill="cyan" stroke="black" stroke-width="0.5" />
<polygon points="480.5,561.095 451,612.191 510,612.191" transform="rotate(120 510 510)" fill="cyan" stroke="black" stroke-width="0.5" />
<polygon points="480.5,663.286 451,612.191 510,612.191" transform="rotate(120 510 510)" fill="cyan" stroke="black" stroke-width="0.5" />
<polygon points="539.5,561.095 510,612.191 569,612.191" transform="rotate(120 510 510)" fill="cyan" stroke="black" stroke-width="0.5" />
<polygon points="539.5,663.286 510,612.191 569,612.191" transform="rotate(120 510 510)" fill="cyan" stroke="black" stroke-width="0.5" />
<polygon points="451,612.191 421.5,663.286 480.5,663.286" transform="rotate(120 510 510)" fill="cyan" stroke="black" stroke-width="0.5" />
<polygon points="451,714.382 421.5,663.286 480.5,663.286" transform="rotate(120 510 510)" fill="cyan" stroke="black" stroke-width="0.5" />
<polygon points="510,612.191 480.5,663.286 539.5,663.286" transform="rotate(120 510 510)" fill="cyan" stroke="black" stroke-width="0.5" />
<polygon points="510,714.382 480.5,663.286 539.5,663.286" transform="rotate(120 510 510)" fill="cyan" stroke="black" stroke-width="0.5" />
<polygon points="569,612.191 539.5,663.286 598.5,663.286" transform="rotate(120 510 510)" fill="cyan" stroke="black" stroke-width="0.5" />
<polygon points="569,714.382 539.5,663.286 598.5,663.286" transform="rotate(120 510 510)" fill="cyan" stroke="black" stroke-width="0.5" />
<polygon points="421.5,663.286 392,714.382 451,714.382" transform="rotate(120 510 510)" fill="cyan" stroke="black" stroke-width="0.5" />
<polygon points="421.5,765.477 392,714.382 451,714.382" transform="rotate(120 510 510)" fill="cyan" stroke="black" stroke-width="0.5" />
<polygon points="480.5,663.286 451,714.382 510,714.382" transform="rotate(120 510 510)" fill="cyan" stroke="black" stroke-width="0.5" />
<polygon points="480.5,765.477 451,714.382 510,714.382" transform="rotate(120 510 510)" fill="cyan" stroke="black" stroke-width="0.5" />
<polygon points="539.5,663.286 510,714.382 569,714.382" transform="rotate(120 510 510)" fill="cyan" stroke="black" stroke-width="0.5" />
<polygon points="539.5,765.477 510,714.382 569,714.382" transform="rotate(120 510 510)" fill="cyan" stroke="black" stroke-width="0.5" />
<polygon points="598.5,663.286 569,714.382 628,714.382" transform="rotate(120 510 510)" fill="cyan" stroke="black" stroke-width="0.5" />
<polygon points="598.5,765.477 569,714.382 628,714.382" transform="rotate(120 510 510)" fill="cyan" stroke="black" stroke-width="0.5" />
<polygon points="392,714.382 362.5,765.477 421.5,765.477" transform="rotate(120 510 510)" fill="cyan" stroke="black" stroke-width="0.5" />
<polygon points="392,816.573 362.5,765.477 421.5,765.477" transform="rotate(120 510 510)" fill="cyan" stroke="black" stroke-width="0.5" />
<polygon points="451,714.382 421.5,765.477 480.5,765.477" transform="rotate(120 510 510)" fill="cyan" stroke="black" stroke-width="0.5" />
<polygon points="451,816.573 421.5,765.477 480.5,765.477" transform="rotate(120 510 510)" fill="cyan" stroke="black" stroke-width="0.5" />
<polygon points="510,714.382 480.5,765.477 539.5,765.477" transform="rotate(120 510 510)" fill="cyan" stroke="black" stroke-width="0.5" />
<polygon points="510,816.573 480.5,765.477 539.5,765.477" transform="rotate(120 510 510)" fill="cyan" stroke="black" stroke-width="0.5" />
<polygon points="569,714.382 539.5,765.477 598.5,765.477" transform="rotate(120 510 510)" fill="cyan" stroke="black" stroke-width="0.5" />
<polygon points="569,816.573 539.5,765.477 598.5,765.477" transform="rotate(120 510 510)" fill="cyan" stroke="black" stroke-width="0.5" />
<polygon points="628,714.382 598.5,765.477 657.5,765.477" transform="rotate(120 510 510)" fill="cyan" stroke="black" stroke-width="0.5" />
<polygon points="628,816.573 598.5,765.477 657.5,765.477" transform="rotate(120 510 510)" fill="cyan" stroke="black" stroke-width="0.5" />
<polygon points="362.5,765.477 333,816.573 392,816.573" transform="rotate(120 510 510)" fill="cyan" stroke="black" stroke-width="0.5" />
<polygon points="362.5,867.668 333,816.573 392,816.573" transform="rotate(120 510 510)" fill="cyan" stroke="black" stroke-width="0.5" />
<polygon points="421.5,765.477 392,816.573 451,816.573" transform="rotate(120 510 510)" fill="cyan" stroke="black" stroke-width="0.5" />
<polygon points="421.5,867.668 392,816.573 451,816.573" transform="rotate(120 510 510)" fill="cyan" stroke="black" stroke-width="0.5" />
<polygon points="480.5,765.477 451,816.573 510,816.573" transform="rotate(120 510 510)" fill="cyan" stroke="black" stroke-width="0.5" />
<polygon points="480.5,867.668 451,816.573 510,816.573" transform="rotate(120 510 510)" fill="cyan" stroke="black" stroke-width="0.5" />
<polygon points="539.5,765.477 510,816.573 569,816.573" transform="rotate(120 510 510)" fill="cyan" stroke="black" stroke-width="0.5" />
<polygon points="539.5,867.668 510,816.573 569,816.573" transform="rotate(120 510 510)" fill="cyan" stroke="black" stroke-width="0.5" />
<polygon points="598.5,765.477 569,816.573 628,816.573" transform="rotate(120 510 510)" fill="cyan" stroke="black" stroke-width="0.5" />
<polygon points="598.5,867.668 569,816.573 628,816.573" transform="rotate(120 510 510)" fill="cyan" stroke="black" stroke-width="0.5" />
<polygon points="657.5,765.477 628,816.573 687,816.573" transform="rotate(120 510 510)" fill="cyan" stroke="black" stroke-width="0.5" />
<polygon points="657.5,867.668 628,816.573 687,816.573" transform="rotate(120 510 510)" fill="cyan" stroke="black" stroke-width="0.5" />
<polygon points="333,816.573 303.5,867.668 362.5,867.668" transform="rotate(120 510 510)" fill="cyan" stroke="black" stroke-width="0.5" />
<polygon points="333,918.764 303.5,867.668 362.5,867.668" transform="rotate(120 510 510)" fill="cyan" stroke="black" stroke-width="0.5" />
<polygon points="392,816.573 362.5,867.668 421.5,867.668" transform="rotate(120 510 510)" fill="cyan" stroke="black" stroke-width="0.5" />
<polygon points="392,918.764 362.5,867.668 421.5,867.668" transform="rotate(120 510 510)" fill="cyan" stroke="black" stroke-width="0.5" />
<polygon points="451,816.573 421.5,867.668 480.5,867.668" transform="rotate(120 510 510)" fill="cyan" stroke="black" stroke-width="0.5" />
<polygon points="451,918.764 421.5,867.668 480.5,867.668" transform="rotate(120 510 510)" fill="cyan" stroke="black" stroke-width="0.5" />
<polygon points="510,816.573 480.5,867.668 539.5,867.668" transform="rotate(120 510 510)" fill="cyan" stroke="black" stroke-width="0.5" />
<polygon points="510,918.764 480.5,867.668 539.5,867.668" transform="rotate(120 510 510)" fill="cyan" stroke="black" stroke-width="0.5" />
<polygon points="569,816.573 539.5,867.668 598.5,867.668" transform="rotate(120 510 510)" fill="cyan" stroke="black" stroke-width="0.5" />
<polygon points="569,918.764 539.5,867.668 598.5,867.668" transform="rotate(120 510 510)" fill="cyan" stroke="black" stroke-width="0.5" />
<polygon points="628,816.573 598.5,867.668 657.5,867.668" transform="rotate(120 510 510)" fill="cyan" stroke="black" stroke-width="0.5" />
<polygon points="628,918.764 598.5,867.668 657.5,867.668" transform="rotate(120 510 510)" fill="cyan" stroke="black" stroke-width="0.5" />
<polygon points="687,816.573 657.5,867.668 716.5,867.668" transform="rotate(120 510 510)" fill="cyan" stroke="black" stroke-width="0.5" />
<polygon points="687,918.764 657.5,867.668 716.5,867.668" transform="rotate(120 510 510)" fill="cyan" stroke="black" stroke-width="0.5" />
<polygon points="303.5,867.668 274,918.764 333,918.764" transform="rotate(120 510 510)" fill="cyan" stroke="black" stroke-width="0.5" />
<polygon points="362.5,867.668 333,918.764 392,918.764" transform="rotate(120 510 510)" fill="cyan" stroke="black" stroke-width="0.5" />
<polygon points="421.5,867.668 392,918.764 451,918.764" transform="rotate(120 510 510)" fill="cyan" stroke="black" stroke-width="0.5" />
<polygon points="480.5,867.668 451,918.764 510,918.764" transform="rotate(120 510 510)" fill="cyan" stroke="black" stroke-width="0.5" />
<polygon points="539.5,867.668 510,918.764 569,918.764" transform="rotate(120 510 510)" fill="cyan" stroke="black" stroke-width="0.5" />
<polygon points="598.5,867.668 569,918.764 628,918.764" transform="rotate(120 510 510)" fill="cyan" stroke="black" stroke-width="0.5" />
<polygon points="657.5,867.668 628,918.764 687,918.764" transform="rotate(120 510 510)" fill="cyan" stroke="black" stroke-width="0.5" />
<polygon points="716.5,867.668 687,918.764 746,918.764" transform="rotate(120 510 510)" fill="cyan" stroke="black" stroke-width="0.5" />
<polygon points="612.5,918.764 583,969.859 642,969.859" transform="rotate(120 510 510)" fill="cyan" stroke="black" stroke-width="0.5" />
<polygon points="553.5,918.764 524,969.859 583,969.859" transform="rotate(120 510 510)" fill="cyan" stroke="black" stroke-width="0.5" />
<polygon points="494.5,918.764 465,969.859 524,969.859" transform="rotate(120 510 510)" fill="cyan" stroke="black" stroke-width="0.5" />
<polygon points="435.5,918.764 406,969.859 465,969.859" transform="rotate(120 510 510)" fill="cyan" stroke="black" stroke-width="0.5" />
<polygon points="376.5,918.764 347,969.859 406,969.859" transform="rotate(120 510 510)" fill="cyan" stroke="black" stroke-width="0.5" />
<polygon points="671.5,918.764 642,969.859 612.5,918.764" transform="rotate(120 510 510)" fill="cyan" stroke="black" stroke-width="0.5" />
<polygon points="612.5,918.764 583,969.859 553.5,918.764" transform="rotate(120 510 510)" fill="cyan" stroke="black" stroke-width="0.5" />
<polygon points="553.5,918.764 524,969.859 494.5,918.764" transform="rotate(120 510 510)" fill="cyan" stroke="black" stroke-width="0.5" />
<polygon points="494.5,918.764 465,969.859 435.5,918.764" transform="rotate(120 510 510)" fill="cyan" stroke="black" stroke-width="0.5" />
<polygon points="435.5,918.764 406,969.859 376.5,918.764" transform="rotate(120 510 510)" fill="cyan" stroke="black" stroke-width="0.5" />
<polygon points="376.5,918.764 347,969.859 317.5,918.764" transform="rotate(120 510 510)" fill="cyan" stroke="black" stroke-width="0.5" />
<polygon points="510,510 480.5,561.095 539.5,561.095" transform="rotate(180 510 510)" fill="cyan" stroke="black" stroke-width="0.5" />
<polygon points="510,612.191 480.5,561.095 539.5,561.095" transform="rotate(180 510 510)" fill="cyan" stroke="black" stroke-width="0.5" />
<polygon points="480.5,561.095 451,612.191 510,612.191" transform="rotate(180 510 510)" fill="cyan" stroke="black" stroke-width="0.5" />
<polygon points="480.5,663.286 451,612.191 510,612.191" transform="rotate(180 510 510)" fill="cyan" stroke="black" stroke-width="0.5" />
<polygon points="539.5,561.095 510,612.191 569,612.191" transform="rotate(180 510 510)" fill="cyan" stroke="black" stroke-width="0.5" />
<polygon points="539.5,663.286 510,612.191 569,612.191" transform="rotate(180 510 510)" fill="cyan" stroke="black" stroke-width="0.5" />
<polygon points="451,612.191 421.5,663.286 480.5,663.286" transform="rotate(180 510 510)" fill="cyan" stroke="black" stroke-width="0.5" />
<polygon points="451,714.382 421.5,663.286 480.5,663.286" transform="rotate(180 510 510)" fill="cyan" stroke="black" stroke-width="0.5" />
<polygon points="510,612.191 480.5,663.286 539.5,663.286" transform="rotate(180 510 510)" fill="cyan" stroke="black" stroke-width="0.5" />
<polygon points="510,714.382 480.5,663.286 539.5,663.286" transform="rotate(180 510 510)" fill="cyan" stroke="black" stroke-width="0.5" />
<polygon points="569,612.191 539.5,663.286 598.5,663.286" transform="rotate(180 510 510)" fill="cyan" stroke="black" stroke-width="0.5" />
<polygon points="569,714.382 539.5,663.286 598.5,663.286" transform="rotate(180 510 510)" fill="cyan" stroke="black" stroke-width="0.5" />
<polygon points="421.5,663.286 392,714.382 451,714.382" transform="rotate(180 510 510)" fill="cyan" stroke="black" stroke-width="0.5" />
<polygon points="421.5,765.477 392,714.382 451,714.382" transform="rotate(180 510 510)" fill="cyan" stroke="black" stroke-width="0.5" />
<polygon points="480.5,663.286 451,714.382 510,714.382" transform="rotate(180 510 510)" fill="cyan" stroke="black" stroke-width="0.5" />
<polygon points="480.5,765.477 451,714.382 510,714.382" transform="rotate(180 510 510)" fill="cyan" stroke="black" stroke-width="0.5" />
<polygon points="539.5,663.286 510,714.382 569,714.382" transform="rotate(180 510 510)" fill="cyan" stroke="black" stroke-width="0.5" />
<polygon points="539.5,765.477 510,714.382 569,714.382" transform="rotate(180 510 510)" fill="cyan" stroke="black" stroke-width="0.5" />
<polygon points="598.5,663.286 569,714.382 628,714.382" transform="rotate(180 510 510)" fill="cyan" stroke="black" stroke-width="0.5" />
<polygon points="598.5,765.477 569,714.382 628,714.382" transform="rotate(180 510 510)" fill="cyan" stroke="black" stroke-width="0.5" />
<polygon points="392,714.382 362.5,765.477 421.5,765.477" transform="rotate(180 510 510)" fill="cyan" stroke="black" stroke-width="0.5" />
<polygon points="392,816.573 362.5,765.477 421.5,765.477" transform="rotate(180 510 510)" fill="cyan" stroke="black" stroke-width="0.5" />
<polygon points="451,714.382 421.5,765.477 480.5,765.477" transform="rotate(180 510 510)" fill="cyan" stroke="black" stroke-width="0.5" />
<polygon points="451,816.573 421.5,765.477 480.5,765.477" transform="rotate(180 510 510)" fill="cyan" stroke="black" stroke-width="0.5" />
<polygon points="510,714.382 480.5,765.477 539.5,765.477" transform="rotate(180 510 510)" fill="cyan" stroke="black" stroke-width="0.5" />
<polygon points="510,816.573 480.5,765.477 539.5,765.477" transform="rotate(180 510 510)" fill="cyan" stroke="black" stroke-width="0.5" />
<polygon points="569,714.382 539.5,765.477 598.5,765.477" transform="rotate(180 510 510)" fill="cyan" stroke="black" stroke-width="0.5" />
<polygon points="569,816.573 539.5,765.477 598.5,765.477" transform="rotate(180 510 510)" fill="cyan" stroke="black" stroke-width="0.5" />
<polygon points="628,714.382 598.5,765.477 657.5,765.477" transform="rotate(180 510 510)" fill="cyan" stroke="black" stroke-width="0.5" />
<polygon points="628,816.573 598.5,765.477 657.5,765.477" transform="rotate(180 510 510)" fill="cyan" stroke="black" stroke-width="0.5" />
<polygon points="362.5,765.477 333,816.573 392,816.573" transform="rotate(180 510 510)" fill="cyan" stroke="black" stroke-width="0.5" />
<polygon points="362.5,867.668 333,816.573 392,816.573" transform="rotate(180 510 510)" fill="cyan" stroke="black" stroke-width="0.5" />
<polygon points="421.5,765.477 392,816.573 451,816.573" transform="rotate(180 510 510)" fill="cyan" stroke="black" stroke-width="0.5" />
<polygon points="421.5,867.668 392,816.573 451,816.573" transform="rotate(180 510 510)" fill="cyan" stroke="black" stroke-width="0.5" />
<polygon points="480.5,765.477 451,816.573 510,816.573" transform="rotate(180 510 510)" fill="cyan" stroke="black" stroke-width="0.5" />
<polygon points="480.5,867.668 451,816.573 510,816.573" transform="rotate(180 510 510)" fill="cyan" stroke="black" stroke-width="0.5" />
<polygon points="539.5,765.477 510,816.573 569,816.573" transform="rotate(180 510 510)" fill="cyan" stroke="black" stroke-width="0.5" />
<polygon points="539.5,867.668 510,816.573 569,816.573" transform="rotate(180 510 510)" fill="cyan" stroke="black" stroke-width="0.5" />
<polygon points="598.5,765.477 569,816.573 628,816.573" transform="rotate(180 510 510)" fill="cyan" stroke="black" stroke-width="0.5" />
<polygon points="598.5,867.668 569,816.573 628,816.573" transform="rotate(180 510 510)" fill="cyan" stroke="black" stroke-width="0.5" />
<polygon points="657.5,765.477 628,816.573 687,816.573" transform="rotate(180 510 510)" fill="cyan" stroke="black" stroke-width="0.5" />
<polygon points="657.5,867.668 628,816.573 687,816.573" transform="rotate(180 510 510)" fill="cyan" stroke="black" stroke-width="0.5" />
<polygon points="333,816.573 303.5,867.668 362.5,867.668" transform="rotate(180 510 510)" fill="cyan" stroke="black" stroke-width="0.5" />
<polygon points="333,918.764 303.5,867.668 362.5,867.668" transform="rotate(180 510 510)" fill="cyan" stroke="black" stroke-width="0.5" />
<polygon points="392,816.573 362.5,867.668 421.5,867.668" transform="rotate(180 510 510)" fill="cyan" stroke="black" stroke-width="0.5" />
<polygon points="392,918.764 362.5,867.668 421.5,867.668" transform="rotate(180 510 510)" fill="cyan" stroke="black" stroke-width="0.5" />
<polygon points="451,816.573 421.5,867.668 480.5,867.668" transform="rotate(180 510 510)" fill="cyan" stroke="black" stroke-width="0.5" />
<polygon points="451,918.764 421.5,867.668 480.5,867.668" transform="rotate(180 510 510)" fill="cyan" stroke="black" stroke-width="0.5" />
<polygon points="510,816.573 480.5,867.668 539.5,867.668" transform="rotate(180 510 510)" fill="cyan" stroke="black" stroke-width="0.5" />
<polygon points="510,918.764 480.5,867.668 539.5,867.668" transform="rotate(180 510 510)" fill="cyan" stroke="black" stroke-width="0.5" />
<polygon points="569,816.573 539.5,867.668 598.5,867.668" transform="rotate(180 510 510)" fill="cyan" stroke="black" stroke-width="0.5" />
<polygon points="569,918.764 539.5,867.668 598.5,867.668" transform="rotate(180 510 510)" fill="cyan" stroke="black" stroke-width="0.5" />
<polygon points="628,816.573 598.5,867.668 657.5,867.668" transform="rotate(180 510 510)" fill="cyan" stroke="black" stroke-width="0.5" />
<polygon points="628,918.764 598.5,867.668 657.5,867.668" transform="rotate(180 510 510)" fill="cyan" stroke="black" stroke-width="0.5" />
<polygon points="687,816.573 657.5,867.668 716.5,867.668" transform="rotate(180 510 510)" fill="cyan" stroke="black" stroke-width="0.5" />
<polygon points="687,918.764 657.5,867.668 716.5,867.668" transform="rotate(180 510 510)" fill="cyan" stroke="black" stroke-width="0.5" />
<polygon points="303.5,867.668 274,918.764 333,918.764" transform="rotate(180 510 510)" fill="cyan" stroke="black" stroke-width="0.5" />
<polygon points="362.5,867.668 333,918.764 392,918.764" transform="rotate(180 510 510)" fill="cyan" stroke="black" stroke-width="0.5" />
<polygon points="421.5,867.668 392,918.764 451,918.764" transform="rotate(180 510 510)" fill="cyan" stroke="black" stroke-width="0.5" />
<polygon points="480.5,867.668 451,918.764 510,918.764" transform="rotate(180 510 510)" fill="cyan" stroke="black" stroke-width="0.5" />
<polygon points="539.5,867.668 510,918.764 569,918.764" transform="rotate(180 510 510)" fill="cyan" stroke="black" stroke-width="0.5" />
<polygon points="598.5,867.668 569,918.764 628,918.764" transform="rotate(180 510 510)" fill="cyan" stroke="black" stroke-width="0.5" />
<polygon points="657.5,867.668 628,918.764 687,918.764" transform="rotate(180 510 510)" fill="cyan" stroke="black" stroke-width="0.5" />
<polygon points="716.5,867.668 687,918.764 746,918.764" transform="rotate(180 510 510)" fill="cyan" stroke="black" stroke-width="0.5" />
<polygon points="612.5,918.764 583,969.859 642,969.859" transform="rotate(180 510 510)" fill="cyan" stroke="black" stroke-width="0.5" />
<polygon points="553.5,918.764 524,969.859 583,969.859" transform="rotate(180 510 510)" fill="cyan" stroke="black" stroke-width="0.5" />
<polygon points="494.5,918.764 465,969.859 524,969.859" transform="rotate(180 510 510)" fill="cyan" stroke="black" stroke-width="0.5" />
<polygon points="435.5,918.764 406,969.859 465,969.859" transform="rotate(180 510 510)" fill="cyan" stroke="black" stroke-width="0.5" />
<polygon points="376.5,918.764 347,969.859 406,969.859" transform="rotate(180 510 510)" fill="cyan" stroke="black" stroke-width="0.5" />
<polygon points="671.5,918.764 642,969.859 612.5,918.764" transform="rotate(180 510 510)" fill="cyan" stroke="black" stroke-width="0.5" />
<polygon points="612.5,918.764 583,969.859 553.5,918.764" transform="rotate(180 510 510)" fill="cyan" stroke="black" stroke-width="0.5" />
<polygon points="553.5,918.764 524,969.859 494.5,918.764" transform="rotate(180 510 510)" fill="cyan" stroke="black" stroke-width="0.5" />
<polygon points="494.5,918.764 465,969.859 435.5,918.764" transform="rotate(180 510 510)" fill="cyan" stroke="black" stroke-width="0.5" />
<polygon points="435.5,918.764 406,969.859 376.5,918.764" transform="rotate(180 510 510)" fill="cyan" stroke="black" stroke-width="0.5" />
<polygon points="376.5,918.764 347,969.859 317.5,918.764" transform="rotate(180 510 510)" fill="cyan" stroke="black" stroke-width="0.5" />
<polygon points="510,510 480.5,561.095 539.5,561.095" transform="rotate(240 510 510)" fill="cyan" stroke="black" stroke-width="0.5" />
<polygon points="510,612.191 480.5,561.095 539.5,561.095" transform="rotate(240 510 510)" fill="cyan" stroke="black" stroke-width="0.5" />
<polygon points="480.5,561.095 451,612.191 510,612.191" transform="rotate(240 510 510)" fill="cyan" stroke="black" stroke-width="0.5" />
<polygon points="480.5,663.286 451,612.191 510,612.191" transform="rotate(240 510 510)" fill="cyan" stroke="black" stroke-width="0.5" />
<polygon points="539.5,561.095 510,612.191 569,612.191" transform="rotate(240 510 510)" fill="cyan" stroke="black" stroke-width="0.5" />
<polygon points="539.5,663.286 510,612.191 569,612.191" transform="rotate(240 510 510)" fill="cyan" stroke="black" stroke-width="0.5" />
<polygon points="451,612.191 421.5,663.286 480.5,663.286" transform="rotate(240 510 510)" fill="cyan" stroke="black" stroke-width="0.5" />
<polygon points="451,714.382 421.5,663.286 480.5,663.286" transform="rotate(240 510 510)" fill="cyan" stroke="black" stroke-width="0.5" />
<polygon points="510,612.191 480.5,663.286 539.5,663.286" transform="rotate(240 510 510)" fill="cyan" stroke="black" stroke-width="0.5" />
<polygon points="510,714.382 480.5,663.286 539.5,663.286" transform="rotate(240 510 510)" fill="cyan" stroke="black" stroke-width="0.5" />
<polygon points="569,612.191 539.5,663.286 598.5,663.286" transform="rotate(240 510 510)" fill="cyan" stroke="black" stroke-width="0.5" />
<polygon points="569,714.382 539.5,663.286 598.5,663.286" transform="rotate(240 510 510)" fill="cyan" stroke="black" stroke-width="0.5" />
<polygon points="421.5,663.286 392,714.382 451,714.382" transform="rotate(240 510 510)" fill="cyan" stroke="black" stroke-width="0.5" />
<polygon points="421.5,765.477 392,714.382 451,714.382" transform="rotate(240 510 510)" fill="cyan" stroke="black" stroke-width="0.5" />
<polygon points="480.5,663.286 451,714.382 510,714.382" transform="rotate(240 510 510)" fill="cyan" stroke="black" stroke-width="0.5" />
<polygon points="480.5,765.477 451,714.382 510,714.382" transform="rotate(240 510 510)" fill="cyan" stroke="black" stroke-width="0.5" />
<polygon points="539.5,663.286 510,714.382 569,714.382" transform="rotate(240 510 510)" fill="cyan" stroke="black" stroke-width="0.5" />
<polygon points="539.5,765.477 510,714.382 569,714.382" transform="rotate(240 510 510)" fill="cyan" stroke="black" stroke-width="0.5" />
<polygon points="598.5,663.286 569,714.382 628,714.382" transform="rotate(240 510 510)" fill="cyan" stroke="black" stroke-width="0.5" />
<polygon points="598.5,765.477 569,714.382 628,714.382" transform="rotate(240 510 510)" fill="cyan" stroke="black" stroke-width="0.5" />
<polygon points="392,714.382 362.5,765.477 421.5,765.477" transform="rotate(240 510 510)" fill="cyan" stroke="black" stroke-width="0.5" />
<polygon points="392,816.573 362.5,765.477 421.5,765.477" transform="rotate(240 510 510)" fill="cyan" stroke="black" stroke-width="0.5" />
<polygon points="451,714.382 421.5,765.477 480.5,765.477" transform="rotate(240 510 510)" fill="cyan" stroke="black" stroke-width="0.5" />
<polygon points="451,816.573 421.5,765.477 480.5,765.477" transform="rotate(240 510 510)" fill="cyan" stroke="black" stroke-width="0.5" />
<polygon points="510,714.382 480.5,765.477 539.5,765.477" transform="rotate(240 510 510)" fill="cyan" stroke="black" stroke-width="0.5" />
<polygon points="510,816.573 480.5,765.477 539.5,765.477" transform="rotate(240 510 510)" fill="cyan" stroke="black" stroke-width="0.5" />
<polygon points="569,714.382 539.5,765.477 598.5,765.477" transform="rotate(240 510 510)" fill="cyan" stroke="black" stroke-width="0.5" />
<polygon points="569,816.573 539.5,765.477 598.5,765.477" transform="rotate(240 510 510)" fill="cyan" stroke="black" stroke-width="0.5" />
<polygon points="628,714.382 598.5,765.477 657.5,765.477" transform="rotate(240 510 510)" fill="cyan" stroke="black" stroke-width="0.5" />
<polygon points="628,816.573 598.5,765.477 657.5,765.477" transform="rotate(240 510 510)" fill="cyan" stroke="black" stroke-width="0.5" />
<polygon points="362.5,765.477 333,816.573 392,816.573" transform="rotate(240 510 510)" fill="cyan" stroke="black" stroke-width="0.5" />
<polygon points="362.5,867.668 333,816.573 392,816.573" transform="rotate(240 510 510)" fill="cyan" stroke="black" stroke-width="0.5" />
<polygon points="421.5,765.477 392,816.573 451,816.573" transform="rotate(240 510 510)" fill="cyan" stroke="black" stroke-width="0.5" />
<polygon points="421.5,867.668 392,816.573 451,816.573" transform="rotate(240 510 510)" fill="cyan" stroke="black" stroke-width="0.5" />
<polygon points="480.5,765.477 451,816.573 510,816.573" transform="rotate(240 510 510)" fill="cyan" stroke="black" stroke-width="0.5" />
<polygon points="480.5,867.668 451,816.573 510,816.573" transform="rotate(240 510 510)" fill="cyan" stroke="black" stroke-width="0.5" />
<polygon points="539.5,765.477 510,816.573 569,816.573" transform="rotate(240 510 510)" fill="cyan" stroke="black" stroke-width="0.5" />
<polygon points="539.5,867.668 510,816.573 569,816.573" transform="rotate(240 510 510)" fill="cyan" stroke="black" stroke-width="0.5" />
<polygon points="598.5,765.477 569,816.573 628,816.573" transform="rotate(240 510 510)" fill="cyan" stroke="black" stroke-width="0.5" />
<polygon points="598.5,867.668 569,816.573 628,816.573" transform="rotate(240 510 510)" fill="cyan" stroke="black" stroke-width="0.5" />
<polygon points="657.5,765.477 628,816.573 687,816.573" transform="rotate(240 510 510)" fill="cyan" stroke="black" stroke-width="0.5" />
<polygon points="657.5,867.668 628,816.573 687,816.573" transform="rotate(240 510 510)" fill="cyan" stroke="black" stroke-width="0.5" />
<polygon points="333,816.573 303.5,867.668 362.5,867.668" transform="rotate(240 510 510)" fill="cyan" stroke="black" stroke-width="0.5" />
<polygon points="333,918.764 303.5,867.668 362.5,867.668" transform="rotate(240 510 510)" fill="cyan" stroke="black" stroke-width="0.5" />
<polygon points="392,816.573 362.5,867.668 421.5,867.668" transform="rotate(240 510 510)" fill="cyan" stroke="black" stroke-width="0.5" />
<polygon points="392,918.764 362.5,867.668 421.5,867.668" transform="rotate(240 510 510)" fill="cyan" stroke="black" stroke-width="0.5" />
<polygon points="451,816.573 421.5,867.668 480.5,867.668" transform="rotate(240 510 510)" fill="cyan" stroke="black" stroke-width="0.5" />
<polygon points="451,918.764 421.5,867.668 480.5,867.668" transform="rotate(240 510 510)" fill="cyan" stroke="black" stroke-width="0.5" />
<polygon points="510,816.573 480.5,867.668 539.5,867.668" transform="rotate(240 510 510)" fill="cyan" stroke="black" stroke-width="0.5" />
<polygon points="510,918.764 480.5,867.668 539.5,867.668" transform="rotate(240 510 510)" fill="cyan" stroke="black" stroke-width="0.5" />
<polygon points="569,816.573 539.5,867.668 598.5,867.668" transform="rotate(240 510 510)" fill="cyan" stroke="black" stroke-width="0.5" />
<polygon points="569,918.764 539.5,867.668 598.5,867.668" transform="rotate(240 510 510)" fill="cyan" stroke="black" stroke-width="0.5" />
<polygon points="628,816.573 598.5,867.668 657.5,867.668" transform="rotate(240 510 510)" fill="cyan" stroke="black" stroke-width="0.5" />
<polygon points="628,918.764 598.5,867.668 657.5,867.668" transform="rotate(240 510 510)" fill="cyan" stroke="black" stroke-width="0.5" />
<polygon points="687,816.573 657.5,867.668 716.5,867.668" transform="rotate(240 510 510)" fill="cyan" stroke="black" stroke-width="0.5" />
<polygon points="687,918.764 657.5,867.668 716.5,867.668" transform="rotate(240 510 510)" fill="cyan" stroke="black" stroke-width="0.5" />
<polygon points="303.5,867.668 274,918.764 333,918.764" transform="rotate(240 510 510)" fill="cyan" stroke="black" stroke-width="0.5" />
<polygon points="362.5,867.668 333,918.764 392,918.764" transform="rotate(240 510 510)" fill="cyan" stroke="black" stroke-width="0.5" />
<polygon points="421.5,867.668 392,918.764 451,918.764" transform="rotate(240 510 510)" fill="cyan" stroke="black" stroke-width="0.5" />
<polygon points="480.5,867.668 451,918.764 510,918.764" transform="rotate(240 510 510)" fill="cyan" stroke="black" stroke-width="0.5" />
<polygon points="539.5,867.668 510,918.764 569,918.764" transform="rotate(240 510 510)" fill="cyan" stroke="black" stroke-width="0.5" />
<polygon points="598.5,867.668 569,918.764 628,918.764" transform="rotate(240 510 510)" fill="cyan" stroke="black" stroke-width="0.5" />
<polygon points="657.5,867.668 628,918.764 687,918.764" transform="rotate(240 510 510)" fill="cyan" stroke="black" stroke-width="0.5" />
<polygon points="716.5,867.668 687,918.764 746,918.764" transform="rotate(240 510 510)" fill="cyan" stroke="black" stroke-width="0.5" />
<polygon points="612.5,918.764 583,969.859 642,969.859" transform="rotate(240 510 510)" fill="cyan" stroke="black" stroke-width="0.5" />
<polygon points="553.5,918.764 524,969.859 583,969.859" transform="rotate(240 510 510)" fill="cyan" stroke="black" stroke-width="0.5" />
<polygon points="494.5,918.764 465,969.859 524,969.859" transform="rotate(240 510 510)" fill="cyan" stroke="black" stroke-width="0.5" />
<polygon points="435.5,918.764 406,969.859 465,969.859" transform="rotate(240 510 510)" fill="cyan" stroke="black" stroke-width="0.5" />
<polygon points="376.5,918.764 347,969.859 406,969.859" transform="rotate(240 510 510)" fill="cyan" stroke="black" stroke-width="0.5" />
<polygon points="671.5,918.764 642,969.859 612.5,918.764" transform="rotate(240 510 510)" fill="cyan" stroke="black" stroke-width="0.5" />
<polygon points="612.5,918.764 583,969.859 553.5,918.764" transform="rotate(240 510 510)" fill="cyan" stroke="black" stroke-width="0.5" />
<polygon points="553.5,918.764 524,969.859 494.5,918.764" transform="rotate(240 510 510)" fill="cyan" stroke="black" stroke-width="0.5" />
<polygon points="494.5,918.764 465,969.859 435.5,918.764" transform="rotate(240 510 510)" fill="cyan" stroke="black" stroke-width="0.5" />
<polygon points="435.5,918.764 406,969.859 376.5,918.764" transform="rotate(240 510 510)" fill="cyan" stroke="black" stroke-width="0.5" />
<polygon points="376.5,918.764 347,969.859 317.5,918.764" transform="rotate(240 510 510)" fill="cyan" stroke="black" stroke-width="0.5" />
<polygon points="510,510 480.5,561.095 539.5,561.095" transform="rotate(300 510 510)" fill="cyan" stroke="black" stroke-width="0.5" />
<polygon points="510,612.191 480.5,561.095 539.5,561.095" transform="rotate(300 510 510)" fill="cyan" stroke="black" stroke-width="0.5" />
<polygon points="480.5,561.095 451,612.191 510,612.191" transform="rotate(300 510 510)" fill="cyan" stroke="black" stroke-width="0.5" />
<polygon points="480.5,663.286 451,612.191 510,612.191" transform="rotate(300 510 510)" fill="cyan" stroke="black" stroke-width="0.5" />
<polygon points="539.5,561.095 510,612.191 569,612.191" transform="rotate(300 510 510)" fill="cyan" stroke="black" stroke-width="0.5" />
<polygon points="539.5,663.286 510,612.191 569,612.191" transform="rotate(300 510 510)" fill="cyan" stroke="black" stroke-width="0.5" />
<polygon points="451,612.191 421.5,663.286 480.5,663.286" transform="rotate(300 510 510)" fill="cyan" stroke="black" stroke-width="0.5" />
<polygon points="451,714.382 421.5,663.286 480.5,663.286" transform="rotate(300 510 510)" fill="cyan" stroke="black" stroke-width="0.5" />
<polygon points="510,612.191 480.5,663.286 539.5,663.286" transform="rotate(300 510 510)" fill="cyan" stroke="black" stroke-width="0.5" />
<polygon points="510,714.382 480.5,663.286 539.5,663.286" transform="rotate(300 510 510)" fill="cyan" stroke="black" stroke-width="0.5" />
<polygon points="569,612.191 539.5,663.286 598.5,663.286" transform="rotate(300 510 510)" fill="cyan" stroke="black" stroke-width="0.5" />
<polygon points="569,714.382 539.5,663.286 598.5,663.286" transform="rotate(300 510 510)" fill="cyan" stroke="black" stroke-width="0.5" />
<polygon points="421.5,663.286 392,714.382 451,714.382" transform="rotate(300 510 510)" fill="cyan" stroke="black" stroke-width="0.5" />
<polygon points="421.5,765.477 392,714.382 451,714.382" transform="rotate(300 510 510)" fill="cyan" stroke="black" stroke-width="0.5" />
<polygon points="480.5,663.286 451,714.382 510,714.382" transform="rotate(300 510 510)" fill="cyan" stroke="black" stroke-width="0.5" />
<polygon points="480.5,765.477 451,714.382 510,714.382" transform="rotate(300 510 510)" fill="cyan" stroke="black" stroke-width="0.5" />
<polygon points="539.5,663.286 510,714.382 569,714.382" transform="rotate(300 510 510)" fill="cyan" stroke="black" stroke-width="0.5" />
<polygon points="539.5,765.477 510,714.382 569,714.382" transform="rotate(300 510 510)" fill="cyan" stroke="black" stroke-width="0.5" />
<polygon points="598.5,663.286 569,714.382 628,714.382" transform="rotate(300 510 510)" fill="cyan" stroke="black" stroke-width="0.5" />
<polygon points="598.5,765.477 569,714.382 628,714.382" transform="rotate(300 510 510)" fill="cyan" stroke="black" stroke-width="0.5" />
<polygon points="392,714.382 362.5,765.477 421.5,765.477" transform="rotate(300 510 510)" fill="cyan" stroke="black" stroke-width="0.5" />
<polygon points="392,816.573 362.5,765.477 421.5,765.477" transform="rotate(300 510 510)" fill="cyan" stroke="black" stroke-width="0.5" />
<polygon points="451,714.382 421.5,765.477 480.5,765.477" transform="rotate(300 510 510)" fill="cyan" stroke="black" stroke-width="0.5" />
<polygon points="451,816.573 421.5,765.477 480.5,765.477" transform="rotate(300 510 510)" fill="cyan" stroke="black" stroke-width="0.5" />
<polygon points="510,714.382 480.5,765.477 539.5,765.477" transform="rotate(300 510 510)" fill="cyan" stroke="black" stroke-width="0.5" />
<polygon points="510,816.573 480.5,765.477 539.5,765.477" transform="rotate(300 510 510)" fill="cyan" stroke="black" stroke-width="0.5" />
<polygon points="569,714.382 539.5,765.477 598.5,765.477" transform="rotate(300 510 510)" fill="cyan" stroke="black" stroke-width="0.5" />
<polygon points="569,816.573 539.5,765.477 598.5,765.477" transform="rotate(300 510 510)" fill="cyan" stroke="black" stroke-width="0.5" />
<polygon points="628,714.382 598.5,765.477 657.5,765.477" transform="rotate(300 510 510)" fill="cyan" stroke="black" stroke-width="0.5" />
<polygon points="628,816.573 598.5,765.477 657.5,765.477" transform="rotate(300 510 510)" fill="cyan" stroke="black" stroke-width="0.5" />
<polygon points="362.5,765.477 333,816.573 392,816.573" transform="rotate(300 510 510)" fill="cyan" stroke="black" stroke-width="0.5" />
<polygon points="362.5,867.668 333,816.573 392,816.573" transform="rotate(300 510 510)" fill="cyan" stroke="black" stroke-width="0.5" />
<polygon points="421.5,765.477 392,816.573 451,816.573" transform="rotate(300 510 510)" fill="cyan" stroke="black" stroke-width="0.5" />
<polygon points="421.5,867.668 392,816.573 451,816.573" transform="rotate(300 510 510)" fill="cyan" stroke="black" stroke-width="0.5" />
<polygon points="480.5,765.477 451,816.573 510,816.573" transform="rotate(300 510 510)" fill="cyan" stroke="black" stroke-width="0.5" />
<polygon points="480.5,867.668 451,816.573 510,816.573" transform="rotate(300 510 510)" fill="cyan" stroke="black" stroke-width="0.5" />
<polygon points="539.5,765.477 510,816.573 569,816.573" transform="rotate(300 510 510)" fill="cyan" stroke="black" stroke-width="0.5" />
<polygon points="539.5,867.668 510,816.573 569,816.573" transform="rotate(300 510 510)" fill="cyan" stroke="black" stroke-width="0.5" />
<polygon points="598.5,765.477 569,816.573 628,816.573" transform="rotate(300 510 510)" fill="cyan" stroke="black" stroke-width="0.5" />
<polygon points="598.5,867.668 569,816.573 628,816.573" transform="rotate(300 510 510)" fill="cyan" stroke="black" stroke-width="0.5" />
<polygon points="657.5,765.477 628,816.573 687,816.573" transform="rotate(300 510 510)" fill="cyan" stroke="black" stroke-width="0.5" />
<polygon points="657.5,867.668 628,816.573 687,816.573" transform="rotate(300 510 510)" fill="cyan" stroke="black" stroke-width="0.5" />
<polygon points="333,816.573 303.5,867.668 362.5,867.668" transform="rotate(300 510 510)" fill="cyan" stroke="black" stroke-width="0.5" />
<polygon points="333,918.764 303.5,867.668 362.5,867.668" transform="rotate(300 510 510)" fill="cyan" stroke="black" stroke-width="0.5" />
<polygon points="392,816.573 362.5,867.668 421.5,867.668" transform="rotate(300 510 510)" fill="cyan" stroke="black" stroke-width="0.5" />
<polygon points="392,918.764 362.5,867.668 421.5,867.668" transform="rotate(300 510 510)" fill="cyan" stroke="black" stroke-width="0.5" />
<polygon points="451,816.573 421.5,867.668 480.5,867.668" transform="rotate(300 510 510)" fill="cyan" stroke="black" stroke-width="0.5" />
<polygon points="451,918.764 421.5,867.668 480.5,867.668" transform="rotate(300 510 510)" fill="cyan" stroke="black" stroke-width="0.5" />
<polygon points="510,816.573 480.5,867.668 539.5,867.668" transform="rotate(300 510 510)" fill="cyan" stroke="black" stroke-width="0.5" />
<polygon points="510,918.764 480.5,867.668 539.5,867.668" transform="rotate(300 510 510)" fill="cyan" stroke="black" stroke-width="0.5" />
<polygon points="569,816.573 539.5,867.668 598.5,867.668" transform="rotate(300 510 510)" fill="cyan" stroke="black" stroke-width="0.5" />
<polygon points="569,918.764 539.5,867.668 598.5,867.668" transform="rotate(300 510 510)" fill="cyan" stroke="black" stroke-width="0.5" />
<polygon points="628,816.573 598.5,867.668 657.5,867.668" transform="rotate(300 510 510)" fill="cyan" stroke="black" stroke-width="0.5" />
<polygon points="628,918.764 598.5,867.668 657.5,867.668" transform="rotate(300 510 510)" fill="cyan" stroke="black" stroke-width="0.5" />
<polygon points="687,816.573 657.5,867.668 716.5,867.668" transform="rotate(300 510 510)" fill="cyan" stroke="black" stroke-width="0.5" />
<polygon points="687,918.764 657.5,867.668 716.5,867.668" transform="rotate(300 510 510)" fill="cyan" stroke="black" stroke-width="0.5" />
<polygon points="303.5,867.668 274,918.764 333,918.764" transform="rotate(300 510 510)" fill="cyan" stroke="black" stroke-width="0.5" />
<polygon points="362.5,867.668 333,918.764 392,918.764" transform="rotate(300 510 510)" fill="cyan" stroke="black" stroke-width="0.5" />
<polygon points="421.5,867.668 392,918.764 451,918.764" transform="rotate(300 510 510)" fill="cyan" stroke="black" stroke-width="0.5" />
<polygon points="480.5,867.668 451,918.764 510,918.764" transform="rotate(300 510 510)" fill="cyan" stroke="black" stroke-width="0.5" />
<polygon points="539.5,867.668 510,918.764 569,918.764" transform="rotate(300 510 510)" fill="cyan" stroke="black" stroke-width="0.5" />
<polygon points="598.5,867.668 569,918.764 628,918.764" transform="rotate(300 510 510)" fill="cyan" stroke="black" stroke-width="0.5" />
<polygon points="657.5,867.668 628,918.764 687,918.764" transform="rotate(300 510 510)" fill="cyan" stroke="black" stroke-width="0.5" />
<polygon points="716.5,867.668 687,918.764 746,918.764" transform="rotate(300 510 510)" fill="cyan" stroke="black" stroke-width="0.5" />
<polygon points="612.5,918.764 583,969.859 642,969.859" transform="rotate(300 510 510)" fill="cyan" stroke="black" stroke-width="0.5" />
<polygon points="553.5,918.764 524,969.859 583,969.859" transform="rotate(300 510 510)" fill="cyan" stroke="black" stroke-width="0.5" />
<polygon points="494.5,918.764 465,969.859 524,969.859" transform="rotate(300 510 510)" fill="cyan" stroke="black" stroke-width="0.5" />
<polygon points="435.5,918.764 406,969.859 465,969.859" transform="rotate(300 510 510)" fill="cyan" stroke="black" stroke-width="0.5" />
<polygon points="376.5,918.764 347,969.859 406,969.859" transform="rotate(300 510 510)" fill="cyan" stroke="black" stroke-width="0.5" />
<polygon points="671.5,918.764 642,969.859 612.5,918.764" transform="rotate(300 510 510)" fill="cyan" stroke="black" stroke-width="0.5" />
<polygon points="612.5,918.764 583,969.859 553.5,918.764" transform="rotate(300 510 510)" fill="cyan" stroke="black" stroke-width="0.5" />
<polygon points="553.5,918.764 524,969.859 494.5,918.764" transform="rotate(300 510 510)" fill="cyan" stroke="black" stroke-width="0.5" />
<polygon points="494.5,918.764 465,969.859 435.5,918.764" transform="rotate(300 510 510)" fill="cyan" stroke="black" stroke-width="0.5" />
<polygon points="435.5,918.764 406,969.859 376.5,918.764" transform="rotate(300 510 510)" fill="cyan" stroke="black" stroke-width="0.5" />
<polygon points="376.5,918.764 347,969.859 317.5,918.764" transform="rotate(300 510 510)" fill="cyan" stroke="black" stroke-width="0.5" />
</svg>
