<svg version="1.1" baseProfile="full" xmlns="http://www.w3.org/2000/svg">
<circle cx="500" cy="500" r="500" transform="rotate(0 0 0)" fill="pink" stroke="black" stroke-width="0.5" />
<circle cx="500" cy="50" r="50" transform="rotate(0 500 500)" fill="green" stroke="black" stroke-width="0.5" />
<circle cx="500" cy="50" r="50" transform="rotate(12.8571 500 500)" fill="green" stroke="black" stroke-width="0.5" />
<circle cx="500" cy="50" r="50" transform="rotate(25.7143 500 500)" fill="green" stroke="black" stroke-width="0.5" />
<circle cx="500" cy="50" r="50" transform="rotate(38.5714 500 500)" fill="green" stroke="black" stroke-width="0.5" />
<circle cx="500" cy="50" r="50" transform="rotate(51.4286 500 500)" fill="green" stroke="black" stroke-width="0.5" />
<circle cx="500" cy="50" r="50" transform="rotate(64.2857 500 500)" fill="green" stroke="black" stroke-width="0.5" />
<circle cx="500" cy="50" r="50" transform="rotate(77.1429 500 500)" fill="green" stroke="black" stroke-width="0.5" />
<circle cx="500" cy="50" r="50" transform="rotate(90 500 500)" fill="green" stroke="black" stroke-width="0.5" />
<circle cx="500" cy="50" r="50" transform="rotate(102.857 500 500)" fill="green" stroke="black" stroke-width="0.5" />
<circle cx="500" cy="50" r="50" transform="rotate(115.714 500 500)" fill="green" stroke="black" stroke-width="0.5" />
<circle cx="500" cy="50" r="50" transform="rotate(128.571 500 500)" fill="green" stroke="black" stroke-width="0.5" />
<circle cx="500" cy="50" r="50" transform="rotate(141.429 500 500)" fill="green" stroke="black" stroke-width="0.5" />
<circle cx="500" cy="50" r="50" transform="rotate(154.286 500 500)" fill="green" stroke="black" stroke-width="0.5" />
<circle cx="500" cy="50" r="50" transform="rotate(167.143 500 500)" fill="green" stroke="black" stroke-width="0.5" />
<circle cx="500" cy="50" r="50" transform="rotate(180 500 500)" fill="green" stroke="black" stroke-width="0.5" />
<circle cx="500" cy="50" r="50" transform="rotate(192.857 500 500)" fill="green" stroke="black" stroke-width="0.5" />
<circle cx="500" cy="50" r="50" transform="rotate(205.714 500 500)" fill="green" stroke="black" stroke-width="0.5" />
<circle cx="500" cy="50" r="50" transform="rotate(218.571 500 500)" fill="green" stroke="black" stroke-width="0.5" />
<circle cx="500" cy="50" r="50" transform="rotate(231.429 500 500)" fill="green" stroke="black" stroke-width="0.5" />
<circle cx="500" cy="50" r="50" transform="rotate(244.286 500 500)" fill="green" stroke="black" stroke-width="0.5" />
<circle cx="500" cy="50" r="50" transform="rotate(257.143 500 500)" fill="green" stroke="black" stroke-width="0.5" />
<circle cx="500" cy="50" r="50" transform="rotate(270 500 500)" fill="green" stroke="black" stroke-width="0.5" />
<circle cx="500" cy="50" r="50" transform="rotate(282.857 500 500)" fill="green" stroke="black" stroke-width="0.5" />
<circle cx="500" cy="50" r="50" transform="rotate(295.714 500 500)" fill="green" stroke="black" stroke-width="0.5" />
<circle cx="500" cy="50" r="50" transform="rotate(308.571 500 500)" fill="green" stroke="black" stroke-width="0.5" />
<circle cx="500" cy="50" r="50" transform="rotate(321.429 500 500)" fill="green" stroke="black" stroke-width="0.5" />
<circle cx="500" cy="50" r="50" transform="rotate(334.286 500 500)" fill="green" stroke="black" stroke-width="0.5" />
<circle cx="500" cy="50" r="50" transform="rotate(347.143 500 500)" fill="green" stroke="black" stroke-width="0.5" />
<circle cx="500" cy="150" r="50" transform="rotate(0 500 500)" fill="green" stroke="black" stroke-width="0.5" />
<circle cx="500" cy="150" r="50" transform="rotate(17.1429 500 500)" fill="green" stroke="black" stroke-width="0.5" />
<circle cx="500" cy="150" r="50" transform="rotate(34.2857 500 500)" fill="green" stroke="black" stroke-width="0.5" />
<circle cx="500" cy="150" r="50" transform="rotate(51.4286 500 500)" fill="green" stroke="black" stroke-width="0.5" />
<circle cx="500" cy="150" r="50" transform="rotate(68.5714 500 500)" fill="green" stroke="black" stroke-width="0.5" />
<circle cx="500" cy="150" r="50" transform="rotate(85.7143 500 500)" fill="green" stroke="black" stroke-width="0.5" />
<circle cx="500" cy="150" r="50" transform="rotate(102.857 500 500)" fill="green" stroke="black" stroke-width="0.5" />
<circle cx="500" cy="150" r="50" transform="rotate(120 500 500)" fill="green" stroke="black" stroke-width="0.5" />
<circle cx="500" cy="150" r="50" transform="rotate(137.143 500 500)" fill="green" stroke="black" stroke-width="0.5" />
<circle cx="500" cy="150" r="50" transform="rotate(154.286 500 500)" fill="green" stroke="black" stroke-width="0.5" />
<circle cx="500" cy="150" r="50" transform="rotate(171.429 500 500)" fill="green" stroke="black" stroke-width="0.5" />
<circle cx="500" cy="150" r="50" transform="rotate(188.571 500 500)" fill="green" stroke="black" stroke-width="0.5" />
<circle cx="500" cy="150" r="50" transform="rotate(205.714 500 500)" fill="green" stroke="black" stroke-width="0.5" />
<circle cx="500" cy="150" r="50" transform="rotate(222.857 500 500)" fill="green" stroke="black" stroke-width="0.5" />
<circle cx="500" cy="150" r="50" transform="rotate(240 500 500)" fill="green" stroke="black" stroke-width="0.5" />
<circle cx="500" cy="150" r="50" transform="rotate(257.143 500 500)" fill="green" stroke="black" stroke-width="0.5" />
<circle cx="500" cy="150" r="50" transform="rotate(274.286 500 500)" fill="green" stroke="black" stroke-width="0.5" />
<circle cx="500" cy="150" r="50" transform="rotate(291.429 500 500)" fill="green" stroke="black" stroke-width="0.5" />
<circle cx="500" cy="150" r="50" transform="rotate(308.571 500 500)" fill="green" stroke="black" stroke-width="0.5" />
<circle cx="500" cy="150" r="50" transform="rotate(325.714 500 500)" fill="green" stroke="black" stroke-width="0.5" />
<circle cx="500" cy="150" r="50" transform="rotate(342.857 500 500)" fill="green" stroke="black" stroke-width="0.5" />
<circle cx="500" cy="250" r="50" transform="rotate(0 500 500)" fill="green" stroke="black" stroke-width="0.5" />
<circle cx="500" cy="250" r="50" transform="rotate(24 500 500)" fill="green" stroke="black" stroke-width="0.5" />
<circle cx="500" cy="250" r="50" transform="rotate(48 500 500)" fill="green" stroke="black" stroke-width="0.5" />
<circle cx="500" cy="250" r="50" transform="rotate(72 500 500)" fill="green" stroke="black" stroke-width="0.5" />
<circle cx="500" cy="250" r="50" transform="rotate(96 500 500)" fill="green" stroke="black" stroke-width="0.5" />
<circle cx="500" cy="250" r="50" transform="rotate(120 500 500)" fill="green" stroke="black" stroke-width="0.5" />
<circle cx="500" cy="250" r="50" transform="rotate(144 500 500)" fill="green" stroke="black" stroke-width="0.5" />
<circle cx="500" cy="250" r="50" transform="rotate(168 500 500)" fill="green" stroke="black" stroke-width="0.5" />
<circle cx="500" cy="250" r="50" transform="rotate(192 500 500)" fill="green" stroke="black" stroke-width="0.5" />
<circle cx="500" cy="250" r="50" transform="rotate(216 500 500)" fill="green" stroke="black" stroke-width="0.5" />
<circle cx="500" cy="250" r="50" transform="rotate(240 500 500)" fill="green" stroke="black" stroke-width="0.5" />
<circle cx="500" cy="250" r="50" transform="rotate(264 500 500)" fill="green" stroke="black" stroke-width="0.5" />
<circle cx="500" cy="250" r="50" transform="rotate(288 500 500)" fill="green" stroke="black" stroke-width="0.5" />
<circle cx="500" cy="250" r="50" transform="rotate(312 500 500)" fill="green" stroke="black" stroke-width="0.5" />
<circle cx="500" cy="250" r="50" transform="rotate(336 500 500)" fill="green" stroke="black" stroke-width="0.5" />
<circle cx="500" cy="350" r="50" transform="rotate(0 500 500)" fill="green" stroke="black" stroke-width="0.5" />
<circle cx="500" cy="350" r="50" transform="rotate(40 500 500)" fill="green" stroke="black" stroke-width="0.5" />
<circle cx="500" cy="350" r="50" transform="rotate(80 500 500)" fill="green" stroke="black" stroke-width="0.5" />
<circle cx="500" cy="350" r="50" transform="rotate(120 500 500)" fill="green" stroke="black" stroke-width="0.5" />
<circle cx="500" cy="350" r="50" transform="rotate(160 500 500)" fill="green" stroke="black" stroke-width="0.5" />
<circle cx="500" cy="350" r="50" transform="rotate(200 500 500)" fill="green" stroke="black" stroke-width="0.5" />
<circle cx="500" cy="350" r="50" transform="rotate(240 500 500)" fill="green" stroke="black" stroke-width="0.5" />
<circle cx="500" cy="350" r="50" transform="rotate(280 500 500)" fill="green" stroke="black" stroke-width="0.5" />
<circle cx="500" cy="350" r="50" transform="rotate(320 500 500)" fill="green" stroke="black" stroke-width="0.5" />
<circle cx="500" cy="450" r="50" transform="rotate(0 500 500)" fill="green" stroke="black" stroke-width="0.5" />
<circle cx="500" cy="450" r="50" transform="rotate(180 500 500)" fill="green" stroke="black" stroke-width="0.5" />
</svg>
