<svg version="1.1" baseProfile="full" xmlns="http://www.w3.org/2000/svg">
<polygon points="250,0 0,433.013 500,433.013" transform="rotate(0 0 0)" fill="pink" stroke="black" stroke-width="0.5" />
<rect x="25"  y="403.013" width="75" height="30" transform="rotate(0 0 0)" fill="cyan" stroke="black" stroke-width="0.5" />
<rect x="100"  y="403.013" width="75" height="30" transform="rotate(0 0 0)" fill="cyan" stroke="black" stroke-width="0.5" />
<rect x="175"  y="403.013" width="75" height="30" transform="rotate(0 0 0)" fill="cyan" stroke="black" stroke-width="0.5" />
<rect x="250"  y="403.013" width="75" height="30" transform="rotate(0 0 0)" fill="cyan" stroke="black" stroke-width="0.5" />
<rect x="325"  y="403.013" width="75" height="30" transform="rotate(0 0 0)" fill="cyan" stroke="black" stroke-width="0.5" />
<rect x="400"  y="403.013" width="75" height="30" transform="rotate(0 0 0)" fill="cyan" stroke="black" stroke-width="0.5" />
<rect x="62.5"  y="373.013" width="75" height="30" transform="rotate(0 0 0)" fill="cyan" stroke="black" stroke-width="0.5" />
<rect x="137.5"  y="373.013" width="75" height="30" transform="rotate(0 0 0)" fill="cyan" stroke="black" stroke-width="0.5" />
<rect x="212.5"  y="373.013" width="75" height="30" transform="rotate(0 0 0)" fill="cyan" stroke="black" stroke-width="0.5" />
<rect x="287.5"  y="373.013" width="75" height="30" transform="rotate(0 0 0)" fill="cyan" stroke="black" stroke-width="0.5" />
<rect x="362.5"  y="373.013" width="75" height="30" transform="rotate(0 0 0)" fill="cyan" stroke="black" stroke-width="0.5" />
<rect x="62.5"  y="343.013" width="75" height="30" transform="rotate(0 0 0)" fill="cyan" stroke="black" stroke-width="0.5" />
<rect x="137.5"  y="343.013" width="75" height="30" transform="rotate(0 0 0)" fill="cyan" stroke="black" stroke-width="0.5" />
<rect x="212.5"  y="343.013" width="75" height="30" transform="rotate(0 0 0)" fill="cyan" stroke="black" stroke-width="0.5" />
<rect x="287.5"  y="343.013" width="75" height="30" transform="rotate(0 0 0)" fill="cyan" stroke="black" stroke-width="0.5" />
<rect x="362.5"  y="343.013" width="75" height="30" transform="rotate(0 0 0)" fill="cyan" stroke="black" stroke-width="0.5" />
<rect x="100"  y="313.013" width="75" height="30" transform="rotate(0 0 0)" fill="cyan" stroke="black" stroke-width="0.5" />
<rect x="175"  y="313.013" width="75" height="30" transform="rotate(0 0 0)" fill="cyan" stroke="black" stroke-width="0.5" />
<rect x="250"  y="313.013" width="75" height="30" transform="rotate(0 0 0)" fill="cyan" stroke="black" stroke-width="0.5" />
<rect x="325"  y="313.013" width="75" height="30" transform="rotate(0 0 0)" fill="cyan" stroke="black" stroke-width="0.5" />
<rect x="100"  y="283.013" width="75" height="30" transform="rotate(0 0 0)" fill="cyan" stroke="black" stroke-width="0.5" />
<rect x="175"  y="283.013" width="75" height="30" transform="rotate(0 0 0)" fill="cyan" stroke="black" stroke-width="0.5" />
<rect x="250"  y="283.013" width="75" height="30" transform="rotate(0 0 0)" fill="cyan" stroke="black" stroke-width="0.5" />
<rect x="325"  y="283.013" width="75" height="30" transform="rotate(0 0 0)" fill="cyan" stroke="black" stroke-width="0.5" />
<rect x="137.5"  y="253.013" width="75" height="30" transform="rotate(0 0 0)" fill="cyan" stroke="black" stroke-width="0.5" />
<rect x="212.5"  y="253.013" width="75" height="30" transform="rotate(0 0 0)" fill="cyan" stroke="black" stroke-width="0.5" />
<rect x="287.5"  y="253.013" width="75" height="30" transform="rotate(0 0 0)" fill="cyan" stroke="black" stroke-width="0.5" />
<rect x="137.5"  y="223.013" width="75" height="30" transform="rotate(0 0 0)" fill="cyan" stroke="black" stroke-width="0.5" />
<rect x="212.5"  y="223.013" width="75" height="30" transform="rotate(0 0 0)" fill="cyan" stroke="black" stroke-width="0.5" />
<rect x="287.5"  y="223.013" width="75" height="30" transform="rotate(0 0 0)" fill="cyan" stroke="black" stroke-width="0.5" />
<rect x="175"  y="193.013" width="75" height="30" transform="rotate(0 0 0)" fill="cyan" stroke="black" stroke-width="0.5" />
<rect x="250"  y="193.013" width="75" height="30" transform="rotate(0 0 0)" fill="cyan" stroke="black" stroke-width="0.5" />
<rect x="175"  y="163.013" width="75" height="30" transform="rotate(0 0 0)" fill="cyan" stroke="black" stroke-width="0.5" />
<rect x="250"  y="163.013" width="75" height="30" transform="rotate(0 0 0)" fill="cyan" stroke="black" stroke-width="0.5" />
<rect x="175"  y="133.013" width="75" height="30" transform="rotate(0 0 0)" fill="cyan" stroke="black" stroke-width="0.5" />
<rect x="250"  y="133.013" width="75" height="30" transform="rotate(0 0 0)" fill="cyan" stroke="black" stroke-width="0.5" />
<rect x="212.5"  y="103.013" width="75" height="30" transform="rotate(0 0 0)" fill="cyan" stroke="black" stroke-width="0.5" />
<rect x="212.5"  y="73.0127" width="75" height="30" transform="rotate(0 0 0)" fill="cyan" stroke="black" stroke-width="0.5" />
</svg>
