<svg version="1.1" baseProfile="full" xmlns="http://www.w3.org/2000/svg">
<rect x="5"  y="5" width="500" height="500" transform="rotate(0 0 0)" fill="dimgrey" stroke="black" stroke-width="0.5" />
<rect x="5"  y="5" width="110" height="15" transform="rotate(0 0 0)" fill="green" stroke="black" stroke-width="0.5" />
<rect x="115"  y="5" width="110" height="15" transform="rotate(0 0 0)" fill="green" stroke="black" stroke-width="0.5" />
<rect x="225"  y="5" width="110" height="15" transform="rotate(0 0 0)" fill="green" stroke="black" stroke-width="0.5" />
<rect x="335"  y="5" width="110" height="15" transform="rotate(0 0 0)" fill="green" stroke="black" stroke-width="0.5" />
<rect x="5"  y="20" width="110" height="15" transform="rotate(0 0 0)" fill="green" stroke="black" stroke-width="0.5" />
<rect x="115"  y="20" width="110" height="15" transform="rotate(0 0 0)" fill="green" stroke="black" stroke-width="0.5" />
<rect x="225"  y="20" width="110" height="15" transform="rotate(0 0 0)" fill="green" stroke="black" stroke-width="0.5" />
<rect x="335"  y="20" width="110" height="15" transform="rotate(0 0 0)" fill="green" stroke="black" stroke-width="0.5" />
<rect x="5"  y="35" width="110" height="15" transform="rotate(0 0 0)" fill="green" stroke="black" stroke-width="0.5" />
<rect x="115"  y="35" width="110" height="15" transform="rotate(0 0 0)" fill="green" stroke="black" stroke-width="0.5" />
<rect x="225"  y="35" width="110" height="15" transform="rotate(0 0 0)" fill="green" stroke="black" stroke-width="0.5" />
<rect x="335"  y="35" width="110" height="15" transform="rotate(0 0 0)" fill="green" stroke="black" stroke-width="0.5" />
<rect x="5"  y="50" width="110" height="15" transform="rotate(0 0 0)" fill="green" stroke="black" stroke-width="0.5" />
<rect x="115"  y="50" width="110" height="15" transform="rotate(0 0 0)" fill="green" stroke="black" stroke-width="0.5" />
<rect x="225"  y="50" width="110" height="15" transform="rotate(0 0 0)" fill="green" stroke="black" stroke-width="0.5" />
<rect x="335"  y="50" width="110" height="15" transform="rotate(0 0 0)" fill="green" stroke="black" stroke-width="0.5" />
<rect x="5"  y="65" width="110" height="15" transform="rotate(0 0 0)" fill="green" stroke="black" stroke-width="0.5" />
<rect x="115"  y="65" width="110" height="15" transform="rotate(0 0 0)" fill="green" stroke="black" stroke-width="0.5" />
<rect x="225"  y="65" width="110" height="15" transform="rotate(0 0 0)" fill="green" stroke="black" stroke-width="0.5" />
<rect x="335"  y="65" width="110" height="15" transform="rotate(0 0 0)" fill="green" stroke="black" stroke-width="0.5" />
<rect x="5"  y="80" width="110" height="15" transform="rotate(0 0 0)" fill="green" stroke="black" stroke-width="0.5" />
<rect x="115"  y="80" width="110" height="15" transform="rotate(0 0 0)" fill="green" stroke="black" stroke-width="0.5" />
<rect x="225"  y="80" width="110" height="15" transform="rotate(0 0 0)" fill="green" stroke="black" stroke-width="0.5" />
<rect x="335"  y="80" width="110" height="15" transform="rotate(0 0 0)" fill="green" stroke="black" stroke-width="0.5" />
<rect x="5"  y="95" width="110" height="15" transform="rotate(0 0 0)" fill="green" stroke="black" stroke-width="0.5" />
<rect x="115"  y="95" width="110" height="15" transform="rotate(0 0 0)" fill="green" stroke="black" stroke-width="0.5" />
<rect x="225"  y="95" width="110" height="15" transform="rotate(0 0 0)" fill="green" stroke="black" stroke-width="0.5" />
<rect x="335"  y="95" width="110" height="15" transform="rotate(0 0 0)" fill="green" stroke="black" stroke-width="0.5" />
<rect x="5"  y="110" width="110" height="15" transform="rotate(0 0 0)" fill="green" stroke="black" stroke-width="0.5" />
<rect x="115"  y="110" width="110" height="15" transform="rotate(0 0 0)" fill="green" stroke="black" stroke-width="0.5" />
<rect x="225"  y="110" width="110" height="15" transform="rotate(0 0 0)" fill="green" stroke="black" stroke-width="0.5" />
<rect x="335"  y="110" width="110" height="15" transform="rotate(0 0 0)" fill="green" stroke="black" stroke-width="0.5" />
<rect x="5"  y="125" width="110" height="15" transform="rotate(0 0 0)" fill="green" stroke="black" stroke-width="0.5" />
<rect x="115"  y="125" width="110" height="15" transform="rotate(0 0 0)" fill="green" stroke="black" stroke-width="0.5" />
<rect x="225"  y="125" width="110" height="15" transform="rotate(0 0 0)" fill="green" stroke="black" stroke-width="0.5" />
<rect x="335"  y="125" width="110" height="15" transform="rotate(0 0 0)" fill="green" stroke="black" stroke-width="0.5" />
<rect x="5"  y="140" width="110" height="15" transform="rotate(0 0 0)" fill="green" stroke="black" stroke-width="0.5" />
<rect x="115"  y="140" width="110" height="15" transform="rotate(0 0 0)" fill="green" stroke="black" stroke-width="0.5" />
<rect x="225"  y="140" width="110" height="15" transform="rotate(0 0 0)" fill="green" stroke="black" stroke-width="0.5" />
<rect x="335"  y="140" width="110" height="15" transform="rotate(0 0 0)" fill="green" stroke="black" stroke-width="0.5" />
<rect x="5"  y="155" width="110" height="15" transform="rotate(0 0 0)" fill="green" stroke="black" stroke-width="0.5" />
<rect x="115"  y="155" width="110" height="15" transform="rotate(0 0 0)" fill="green" stroke="black" stroke-width="0.5" />
<rect x="225"  y="155" width="110" height="15" transform="rotate(0 0 0)" fill="green" stroke="black" stroke-width="0.5" />
<rect x="335"  y="155" width="110" height="15" transform="rotate(0 0 0)" fill="green" stroke="black" stroke-width="0.5" />
<rect x="5"  y="170" width="110" height="15" transform="rotate(0 0 0)" fill="green" stroke="black" stroke-width="0.5" />
<rect x="115"  y="170" width="110" height="15" transform="rotate(0 0 0)" fill="green" stroke="black" stroke-width="0.5" />
<rect x="225"  y="170" width="110" height="15" transform="rotate(0 0 0)" fill="green" stroke="black" stroke-width="0.5" />
<rect x="335"  y="170" width="110" height="15" transform="rotate(0 0 0)" fill="green" stroke="black" stroke-width="0.5" />
<rect x="5"  y="185" width="110" height="15" transform="rotate(0 0 0)" fill="green" stroke="black" stroke-width="0.5" />
<rect x="115"  y="185" width="110" height="15" transform="rotate(0 0 0)" fill="green" stroke="black" stroke-width="0.5" />
<rect x="225"  y="185" width="110" height="15" transform="rotate(0 0 0)" fill="green" stroke="black" stroke-width="0.5" />
<rect x="335"  y="185" width="110" height="15" transform="rotate(0 0 0)" fill="green" stroke="black" stroke-width="0.5" />
<rect x="5"  y="200" width="110" height="15" transform="rotate(0 0 0)" fill="green" stroke="black" stroke-width="0.5" />
<rect x="115"  y="200" width="110" height="15" transform="rotate(0 0 0)" fill="green" stroke="black" stroke-width="0.5" />
<rect x="225"  y="200" width="110" height="15" transform="rotate(0 0 0)" fill="green" stroke="black" stroke-width="0.5" />
<rect x="335"  y="200" width="110" height="15" transform="rotate(0 0 0)" fill="green" stroke="black" stroke-width="0.5" />
<rect x="5"  y="215" width="110" height="15" transform="rotate(0 0 0)" fill="green" stroke="black" stroke-width="0.5" />
<rect x="115"  y="215" width="110" height="15" transform="rotate(0 0 0)" fill="green" stroke="black" stroke-width="0.5" />
<rect x="225"  y="215" width="110" height="15" transform="rotate(0 0 0)" fill="green" stroke="black" stroke-width="0.5" />
<rect x="335"  y="215" width="110" height="15" transform="rotate(0 0 0)" fill="green" stroke="black" stroke-width="0.5" />
<rect x="5"  y="230" width="110" height="15" transform="rotate(0 0 0)" fill="green" stroke="black" stroke-width="0.5" />
<rect x="115"  y="230" width="110" height="15" transform="rotate(0 0 0)" fill="green" stroke="black" stroke-width="0.5" />
<rect x="225"  y="230" width="110" height="15" transform="rotate(0 0 0)" fill="green" stroke="black" stroke-width="0.5" />
<rect x="335"  y="230" width="110" height="15" transform="rotate(0 0 0)" fill="green" stroke="black" stroke-width="0.5" />
<rect x="5"  y="245" width="110" height="15" transform="rotate(0 0 0)" fill="green" stroke="black" stroke-width="0.5" />
<rect x="115"  y="245" width="110" height="15" transform="rotate(0 0 0)" fill="green" stroke="black" stroke-width="0.5" />
<rect x="225"  y="245" width="110" height="15" transform="rotate(0 0 0)" fill="green" stroke="black" stroke-width="0.5" />
<rect x="335"  y="245" width="110" height="15" transform="rotate(0 0 0)" fill="green" stroke="black" stroke-width="0.5" />
<rect x="5"  y="260" width="110" height="15" transform="rotate(0 0 0)" fill="green" stroke="black" stroke-width="0.5" />
<rect x="115"  y="260" width="110" height="15" transform="rotate(0 0 0)" fill="green" stroke="black" stroke-width="0.5" />
<rect x="225"  y="260" width="110" height="15" transform="rotate(0 0 0)" fill="green" stroke="black" stroke-width="0.5" />
<rect x="335"  y="260" width="110" height="15" transform="rotate(0 0 0)" fill="green" stroke="black" stroke-width="0.5" />
<rect x="5"  y="275" width="110" height="15" transform="rotate(0 0 0)" fill="green" stroke="black" stroke-width="0.5" />
<rect x="115"  y="275" width="110" height="15" transform="rotate(0 0 0)" fill="green" stroke="black" stroke-width="0.5" />
<rect x="225"  y="275" width="110" height="15" transform="rotate(0 0 0)" fill="green" stroke="black" stroke-width="0.5" />
<rect x="335"  y="275" width="110" height="15" transform="rotate(0 0 0)" fill="green" stroke="black" stroke-width="0.5" />
<rect x="5"  y="290" width="110" height="15" transform="rotate(0 0 0)" fill="green" stroke="black" stroke-width="0.5" />
<rect x="115"  y="290" width="110" height="15" transform="rotate(0 0 0)" fill="green" stroke="black" stroke-width="0.5" />
<rect x="225"  y="290" width="110" height="15" transform="rotate(0 0 0)" fill="green" stroke="black" stroke-width="0.5" />
<rect x="335"  y="290" width="110" height="15" transform="rotate(0 0 0)" fill="green" stroke="black" stroke-width="0.5" />
<rect x="5"  y="305" width="110" height="15" transform="rotate(0 0 0)" fill="green" stroke="black" stroke-width="0.5" />
<rect x="115"  y="305" width="110" height="15" transform="rotate(0 0 0)" fill="green" stroke="black" stroke-width="0.5" />
<rect x="225"  y="305" width="110" height="15" transform="rotate(0 0 0)" fill="green" stroke="black" stroke-width="0.5" />
<rect x="335"  y="305" width="110" height="15" transform="rotate(0 0 0)" fill="green" stroke="black" stroke-width="0.5" />
<rect x="5"  y="320" width="110" height="15" transform="rotate(0 0 0)" fill="green" stroke="black" stroke-width="0.5" />
<rect x="115"  y="320" width="110" height="15" transform="rotate(0 0 0)" fill="green" stroke="black" stroke-width="0.5" />
<rect x="225"  y="320" width="110" height="15" transform="rotate(0 0 0)" fill="green" stroke="black" stroke-width="0.5" />
<rect x="335"  y="320" width="110" height="15" transform="rotate(0 0 0)" fill="green" stroke="black" stroke-width="0.5" />
<rect x="5"  y="335" width="110" height="15" transform="rotate(0 0 0)" fill="green" stroke="black" stroke-width="0.5" />
<rect x="115"  y="335" width="110" height="15" transform="rotate(0 0 0)" fill="green" stroke="black" stroke-width="0.5" />
<rect x="225"  y="335" width="110" height="15" transform="rotate(0 0 0)" fill="green" stroke="black" stroke-width="0.5" />
<rect x="335"  y="335" width="110" height="15" transform="rotate(0 0 0)" fill="green" stroke="black" stroke-width="0.5" />
<rect x="5"  y="350" width="110" height="15" transform="rotate(0 0 0)" fill="green" stroke="black" stroke-width="0.5" />
<rect x="115"  y="350" width="110" height="15" transform="rotate(0 0 0)" fill="green" stroke="black" stroke-width="0.5" />
<rect x="225"  y="350" width="110" height="15" transform="rotate(0 0 0)" fill="green" stroke="black" stroke-width="0.5" />
<rect x="335"  y="350" width="110" height="15" transform="rotate(0 0 0)" fill="green" stroke="black" stroke-width="0.5" />
<rect x="5"  y="365" width="110" height="15" transform="rotate(0 0 0)" fill="green" stroke="black" stroke-width="0.5" />
<rect x="115"  y="365" width="110" height="15" transform="rotate(0 0 0)" fill="green" stroke="black" stroke-width="0.5" />
<rect x="225"  y="365" width="110" height="15" transform="rotate(0 0 0)" fill="green" stroke="black" stroke-width="0.5" />
<rect x="335"  y="365" width="110" height="15" transform="rotate(0 0 0)" fill="green" stroke="black" stroke-width="0.5" />
<rect x="5"  y="380" width="110" height="15" transform="rotate(0 0 0)" fill="green" stroke="black" stroke-width="0.5" />
<rect x="115"  y="380" width="110" height="15" transform="rotate(0 0 0)" fill="green" stroke="black" stroke-width="0.5" />
<rect x="225"  y="380" width="110" height="15" transform="rotate(0 0 0)" fill="green" stroke="black" stroke-width="0.5" />
<rect x="335"  y="380" width="110" height="15" transform="rotate(0 0 0)" fill="green" stroke="black" stroke-width="0.5" />
<rect x="5"  y="395" width="110" height="15" transform="rotate(0 0 0)" fill="green" stroke="black" stroke-width="0.5" />
<rect x="115"  y="395" width="110" height="15" transform="rotate(0 0 0)" fill="green" stroke="black" stroke-width="0.5" />
<rect x="225"  y="395" width="110" height="15" transform="rotate(0 0 0)" fill="green" stroke="black" stroke-width="0.5" />
<rect x="335"  y="395" width="110" height="15" transform="rotate(0 0 0)" fill="green" stroke="black" stroke-width="0.5" />
<rect x="5"  y="410" width="110" height="15" transform="rotate(0 0 0)" fill="green" stroke="black" stroke-width="0.5" />
<rect x="115"  y="410" width="110" height="15" transform="rotate(0 0 0)" fill="green" stroke="black" stroke-width="0.5" />
<rect x="225"  y="410" width="110" height="15" transform="rotate(0 0 0)" fill="green" stroke="black" stroke-width="0.5" />
<rect x="335"  y="410" width="110" height="15" transform="rotate(0 0 0)" fill="green" stroke="black" stroke-width="0.5" />
<rect x="5"  y="425" width="110" height="15" transform="rotate(0 0 0)" fill="green" stroke="black" stroke-width="0.5" />
<rect x="115"  y="425" width="110" height="15" transform="rotate(0 0 0)" fill="green" stroke="black" stroke-width="0.5" />
<rect x="225"  y="425" width="110" height="15" transform="rotate(0 0 0)" fill="green" stroke="black" stroke-width="0.5" />
<rect x="335"  y="425" width="110" height="15" transform="rotate(0 0 0)" fill="green" stroke="black" stroke-width="0.5" />
<rect x="5"  y="440" width="110" height="15" transform="rotate(0 0 0)" fill="green" stroke="black" stroke-width="0.5" />
<rect x="115"  y="440" width="110" height="15" transform="rotate(0 0 0)" fill="green" stroke="black" stroke-width="0.5" />
<rect x="225"  y="440" width="110" height="15" transform="rotate(0 0 0)" fill="green" stroke="black" stroke-width="0.5" />
<rect x="335"  y="440" width="110" height="15" transform="rotate(0 0 0)" fill="green" stroke="black" stroke-width="0.5" />
<rect x="5"  y="455" width="110" height="15" transform="rotate(0 0 0)" fill="green" stroke="black" stroke-width="0.5" />
<rect x="115"  y="455" width="110" height="15" transform="rotate(0 0 0)" fill="green" stroke="black" stroke-width="0.5" />
<rect x="225"  y="455" width="110" height="15" transform="rotate(0 0 0)" fill="green" stroke="black" stroke-width="0.5" />
<rect x="335"  y="455" width="110" height="15" transform="rotate(0 0 0)" fill="green" stroke="black" stroke-width="0.5" />
<rect x="5"  y="470" width="110" height="15" transform="rotate(0 0 0)" fill="green" stroke="black" stroke-width="0.5" />
<rect x="115"  y="470" width="110" height="15" transform="rotate(0 0 0)" fill="green" stroke="black" stroke-width="0.5" />
<rect x="225"  y="470" width="110" height="15" transform="rotate(0 0 0)" fill="green" stroke="black" stroke-width="0.5" />
<rect x="335"  y="470" width="110" height="15" transform="rotate(0 0 0)" fill="green" stroke="black" stroke-width="0.5" />
<rect x="5"  y="485" width="110" height="15" transform="rotate(0 0 0)" fill="green" stroke="black" stroke-width="0.5" />
<rect x="115"  y="485" width="110" height="15" transform="rotate(0 0 0)" fill="green" stroke="black" stroke-width="0.5" />
<rect x="225"  y="485" width="110" height="15" transform="rotate(0 0 0)" fill="green" stroke="black" stroke-width="0.5" />
<rect x="335"  y="485" width="110" height="15" transform="rotate(0 0 0)" fill="green" stroke="black" stroke-width="0.5" />
<rect x="445"  y="5" width="15" height="110" transform="rotate(0 0 0)" fill="green" stroke="black" stroke-width="0.5" />
<rect x="445"  y="115" width="15" height="110" transform="rotate(0 0 0)" fill="green" stroke="black" stroke-width="0.5" />
<rect x="445"  y="225" width="15" height="110" transform="rotate(0 0 0)" fill="green" stroke="black" stroke-width="0.5" />
<rect x="445"  y="335" width="15" height="110" transform="rotate(0 0 0)" fill="green" stroke="black" stroke-width="0.5" />
<rect x="460"  y="5" width="15" height="110" transform="rotate(0 0 0)" fill="green" stroke="black" stroke-width="0.5" />
<rect x="460"  y="115" width="15" height="110" transform="rotate(0 0 0)" fill="green" stroke="black" stroke-width="0.5" />
<rect x="460"  y="225" width="15" height="110" transform="rotate(0 0 0)" fill="green" stroke="black" stroke-width="0.5" />
<rect x="460"  y="335" width="15" height="110" transform="rotate(0 0 0)" fill="green" stroke="black" stroke-width="0.5" />
<rect x="475"  y="5" width="15" height="110" transform="rotate(0 0 0)" fill="green" stroke="black" stroke-width="0.5" />
<rect x="475"  y="115" width="15" height="110" transform="rotate(0 0 0)" fill="green" stroke="black" stroke-width="0.5" />
<rect x="475"  y="225" width="15" height="110" transform="rotate(0 0 0)" fill="green" stroke="black" stroke-width="0.5" />
<rect x="475"  y="335" width="15" height="110" transform="rotate(0 0 0)" fill="green" stroke="black" stroke-width="0.5" />
</svg>
