<svg version="1.1" baseProfile="full" xmlns="http://www.w3.org/2000/svg">
<circle cx="505" cy="505" r="500" transform="rotate(0 0 0)" fill="purple" stroke="black" stroke-width="0.5" />
<rect x="151.447"  y="151.447" width="75" height="30" transform="rotate(0 146.447 146.447)" fill="cyan" stroke="black" stroke-width="0.5" />
<rect x="226.447"  y="151.447" width="75" height="30" transform="rotate(0 146.447 146.447)" fill="cyan" stroke="black" stroke-width="0.5" />
<rect x="301.447"  y="151.447" width="75" height="30" transform="rotate(0 146.447 146.447)" fill="cyan" stroke="black" stroke-width="0.5" />
<rect x="376.447"  y="151.447" width="75" height="30" transform="rotate(0 146.447 146.447)" fill="cyan" stroke="black" stroke-width="0.5" />
<rect x="451.447"  y="151.447" width="75" height="30" transform="rotate(0 146.447 146.447)" fill="cyan" stroke="black" stroke-width="0.5" />
<rect x="526.447"  y="151.447" width="75" height="30" transform="rotate(0 146.447 146.447)" fill="cyan" stroke="black" stroke-width="0.5" />
<rect x="601.447"  y="151.447" width="75" height="30" transform="rotate(0 146.447 146.447)" fill="cyan" stroke="black" stroke-width="0.5" />
<rect x="676.447"  y="151.447" width="75" height="30" transform="rotate(0 146.447 146.447)" fill="cyan" stroke="black" stroke-width="0.5" />
<rect x="751.447"  y="151.447" width="75" height="30" transform="rotate(0 146.447 146.447)" fill="cyan" stroke="black" stroke-width="0.5" />
<rect x="151.447"  y="181.447" width="75" height="30" transform="rotate(0 146.447 146.447)" fill="cyan" stroke="black" stroke-width="0.5" />
<rect x="226.447"  y="181.447" width="75" height="30" transform="rotate(0 146.447 146.447)" fill="cyan" stroke="black" stroke-width="0.5" />
<rect x="301.447"  y="181.447" width="75" height="30" transform="rotate(0 146.447 146.447)" fill="cyan" stroke="black" stroke-width="0.5" />
<rect x="376.447"  y="181.447" width="75" height="30" transform="rotate(0 146.447 146.447)" fill="cyan" stroke="black" stroke-width="0.5" />
<rect x="451.447"  y="181.447" width="75" height="30" transform="rotate(0 146.447 146.447)" fill="cyan" stroke="black" stroke-width="0.5" />
<rect x="526.447"  y="181.447" width="75" height="30" transform="rotate(0 146.447 146.447)" fill="cyan" stroke="black" stroke-width="0.5" />
<rect x="601.447"  y="181.447" width="75" height="30" transform="rotate(0 146.447 146.447)" fill="cyan" stroke="black" stroke-width="0.5" />
<rect x="676.447"  y="181.447" width="75" height="30" transform="rotate(0 146.447 146.447)" fill="cyan" stroke="black" stroke-width="0.5" />
<rect x="751.447"  y="181.447" width="75" height="30" transform="rotate(0 146.447 146.447)" fill="cyan" stroke="black" stroke-width="0.5" />
<rect x="151.447"  y="211.447" width="75" height="30" transform="rotate(0 146.447 146.447)" fill="cyan" stroke="black" stroke-width="0.5" />
<rect x="226.447"  y="211.447" width="75" height="30" transform="rotate(0 146.447 146.447)" fill="cyan" stroke="black" stroke-width="0.5" />
<rect x="301.447"  y="211.447" width="75" height="30" transform="rotate(0 146.447 146.447)" fill="cyan" stroke="black" stroke-width="0.5" />
<rect x="376.447"  y="211.447" width="75" height="30" transform="rotate(0 146.447 146.447)" fill="cyan" stroke="black" stroke-width="0.5" />
<rect x="451.447"  y="211.447" width="75" height="30" transform="rotate(0 146.447 146.447)" fill="cyan" stroke="black" stroke-width="0.5" />
<rect x="526.447"  y="211.447" width="75" height="30" transform="rotate(0 146.447 146.447)" fill="cyan" stroke="black" stroke-width="0.5" />
<rect x="601.447"  y="211.447" width="75" height="30" transform="rotate(0 146.447 146.447)" fill="cyan" stroke="black" stroke-width="0.5" />
<rect x="676.447"  y="211.447" width="75" height="30" transform="rotate(0 146.447 146.447)" fill="cyan" stroke="black" stroke-width="0.5" />
<rect x="751.447"  y="211.447" width="75" height="30" transform="rotate(0 146.447 146.447)" fill="cyan" stroke="black" stroke-width="0.5" />
<rect x="151.447"  y="241.447" width="75" height="30" transform="rotate(0 146.447 146.447)" fill="cyan" stroke="black" stroke-width="0.5" />
<rect x="226.447"  y="241.447" width="75" height="30" transform="rotate(0 146.447 146.447)" fill="cyan" stroke="black" stroke-width="0.5" />
<rect x="301.447"  y="241.447" width="75" height="30" transform="rotate(0 146.447 146.447)" fill="cyan" stroke="black" stroke-width="0.5" />
<rect x="376.447"  y="241.447" width="75" height="30" transform="rotate(0 146.447 146.447)" fill="cyan" stroke="black" stroke-width="0.5" />
<rect x="451.447"  y="241.447" width="75" height="30" transform="rotate(0 146.447 146.447)" fill="cyan" stroke="black" stroke-width="0.5" />
<rect x="526.447"  y="241.447" width="75" height="30" transform="rotate(0 146.447 146.447)" fill="cyan" stroke="black" stroke-width="0.5" />
<rect x="601.447"  y="241.447" width="75" height="30" transform="rotate(0 146.447 146.447)" fill="cyan" stroke="black" stroke-width="0.5" />
<rect x="676.447"  y="241.447" width="75" height="30" transform="rotate(0 146.447 146.447)" fill="cyan" stroke="black" stroke-width="0.5" />
<rect x="751.447"  y="241.447" width="75" height="30" transform="rotate(0 146.447 146.447)" fill="cyan" stroke="black" stroke-width="0.5" />
<rect x="151.447"  y="271.447" width="75" height="30" transform="rotate(0 146.447 146.447)" fill="cyan" stroke="black" stroke-width="0.5" />
<rect x="226.447"  y="271.447" width="75" height="30" transform="rotate(0 146.447 146.447)" fill="cyan" stroke="black" stroke-width="0.5" />
<rect x="301.447"  y="271.447" width="75" height="30" transform="rotate(0 146.447 146.447)" fill="cyan" stroke="black" stroke-width="0.5" />
<rect x="376.447"  y="271.447" width="75" height="30" transform="rotate(0 146.447 146.447)" fill="cyan" stroke="black" stroke-width="0.5" />
<rect x="451.447"  y="271.447" width="75" height="30" transform="rotate(0 146.447 146.447)" fill="cyan" stroke="black" stroke-width="0.5" />
<rect x="526.447"  y="271.447" width="75" height="30" transform="rotate(0 146.447 146.447)" fill="cyan" stroke="black" stroke-width="0.5" />
<rect x="601.447"  y="271.447" width="75" height="30" transform="rotate(0 146.447 146.447)" fill="cyan" stroke="black" stroke-width="0.5" />
<rect x="676.447"  y="271.447" width="75" height="30" transform="rotate(0 146.447 146.447)" fill="cyan" stroke="black" stroke-width="0.5" />
<rect x="751.447"  y="271.447" width="75" height="30" transform="rotate(0 146.447 146.447)" fill="cyan" stroke="black" stroke-width="0.5" />
<rect x="151.447"  y="301.447" width="75" height="30" transform="rotate(0 146.447 146.447)" fill="cyan" stroke="black" stroke-width="0.5" />
<rect x="226.447"  y="301.447" width="75" height="30" transform="rotate(0 146.447 146.447)" fill="cyan" stroke="black" stroke-width="0.5" />
<rect x="301.447"  y="301.447" width="75" height="30" transform="rotate(0 146.447 146.447)" fill="cyan" stroke="black" stroke-width="0.5" />
<rect x="376.447"  y="301.447" width="75" height="30" transform="rotate(0 146.447 146.447)" fill="cyan" stroke="black" stroke-width="0.5" />
<rect x="451.447"  y="301.447" width="75" height="30" transform="rotate(0 146.447 146.447)" fill="cyan" stroke="black" stroke-width="0.5" />
<rect x="526.447"  y="301.447" width="75" height="30" transform="rotate(0 146.447 146.447)" fill="cyan" stroke="black" stroke-width="0.5" />
<rect x="601.447"  y="301.447" width="75" height="30" transform="rotate(0 146.447 146.447)" fill="cyan" stroke="black" stroke-width="0.5" />
<rect x="676.447"  y="301.447" width="75" height="30" transform="rotate(0 146.447 146.447)" fill="cyan" stroke="black" stroke-width="0.5" />
<rect x="751.447"  y="301.447" width="75" height="30" transform="rotate(0 146.447 146.447)" fill="cyan" stroke="black" stroke-width="0.5" />
<rect x="151.447"  y="331.447" width="75" height="30" transform="rotate(0 146.447 146.447)" fill="cyan" stroke="black" stroke-width="0.5" />
<rect x="226.447"  y="331.447" width="75" height="30" transform="rotate(0 146.447 146.447)" fill="cyan" stroke="black" stroke-width="0.5" />
<rect x="301.447"  y="331.447" width="75" height="30" transform="rotate(0 146.447 146.447)" fill="cyan" stroke="black" stroke-width="0.5" />
<rect x="376.447"  y="331.447" width="75" height="30" transform="rotate(0 146.447 146.447)" fill="cyan" stroke="black" stroke-width="0.5" />
<rect x="451.447"  y="331.447" width="75" height="30" transform="rotate(0 146.447 146.447)" fill="cyan" stroke="black" stroke-width="0.5" />
<rect x="526.447"  y="331.447" width="75" height="30" transform="rotate(0 146.447 146.447)" fill="cyan" stroke="black" stroke-width="0.5" />
<rect x="601.447"  y="331.447" width="75" height="30" transform="rotate(0 146.447 146.447)" fill="cyan" stroke="black" stroke-width="0.5" />
<rect x="676.447"  y="331.447" width="75" height="30" transform="rotate(0 146.447 146.447)" fill="cyan" stroke="black" stroke-width="0.5" />
<rect x="751.447"  y="331.447" width="75" height="30" transform="rotate(0 146.447 146.447)" fill="cyan" stroke="black" stroke-width="0.5" />
<rect x="151.447"  y="361.447" width="75" height="30" transform="rotate(0 146.447 146.447)" fill="cyan" stroke="black" stroke-width="0.5" />
<rect x="226.447"  y="361.447" width="75" height="30" transform="rotate(0 146.447 146.447)" fill="cyan" stroke="black" stroke-width="0.5" />
<rect x="301.447"  y="361.447" width="75" height="30" transform="rotate(0 146.447 146.447)" fill="cyan" stroke="black" stroke-width="0.5" />
<rect x="376.447"  y="361.447" width="75" height="30" transform="rotate(0 146.447 146.447)" fill="cyan" stroke="black" stroke-width="0.5" />
<rect x="451.447"  y="361.447" width="75" height="30" transform="rotate(0 146.447 146.447)" fill="cyan" stroke="black" stroke-width="0.5" />
<rect x="526.447"  y="361.447" width="75" height="30" transform="rotate(0 146.447 146.447)" fill="cyan" stroke="black" stroke-width="0.5" />
<rect x="601.447"  y="361.447" width="75" height="30" transform="rotate(0 146.447 146.447)" fill="cyan" stroke="black" stroke-width="0.5" />
<rect x="676.447"  y="361.447" width="75" height="30" transform="rotate(0 146.447 146.447)" fill="cyan" stroke="black" stroke-width="0.5" />
<rect x="751.447"  y="361.447" width="75" height="30" transform="rotate(0 146.447 146.447)" fill="cyan" stroke="black" stroke-width="0.5" />
<rect x="151.447"  y="391.447" width="75" height="30" transform="rotate(0 146.447 146.447)" fill="cyan" stroke="black" stroke-width="0.5" />
<rect x="226.447"  y="391.447" width="75" height="30" transform="rotate(0 146.447 146.447)" fill="cyan" stroke="black" stroke-width="0.5" />
<rect x="301.447"  y="391.447" width="75" height="30" transform="rotate(0 146.447 146.447)" fill="cyan" stroke="black" stroke-width="0.5" />
<rect x="376.447"  y="391.447" width="75" height="30" transform="rotate(0 146.447 146.447)" fill="cyan" stroke="black" stroke-width="0.5" />
<rect x="451.447"  y="391.447" width="75" height="30" transform="rotate(0 146.447 146.447)" fill="cyan" stroke="black" stroke-width="0.5" />
<rect x="526.447"  y="391.447" width="75" height="30" transform="rotate(0 146.447 146.447)" fill="cyan" stroke="black" stroke-width="0.5" />
<rect x="601.447"  y="391.447" width="75" height="30" transform="rotate(0 146.447 146.447)" fill="cyan" stroke="black" stroke-width="0.5" />
<rect x="676.447"  y="391.447" width="75" height="30" transform="rotate(0 146.447 146.447)" fill="cyan" stroke="black" stroke-width="0.5" />
<rect x="751.447"  y="391.447" width="75" height="30" transform="rotate(0 146.447 146.447)" fill="cyan" stroke="black" stroke-width="0.5" />
<rect x="151.447"  y="421.447" width="75" height="30" transform="rotate(0 146.447 146.447)" fill="cyan" stroke="black" stroke-width="0.5" />
<rect x="226.447"  y="421.447" width="75" height="30" transform="rotate(0 146.447 146.447)" fill="cyan" stroke="black" stroke-width="0.5" />
<rect x="301.447"  y="421.447" width="75" height="30" transform="rotate(0 146.447 146.447)" fill="cyan" stroke="black" stroke-width="0.5" />
<rect x="376.447"  y="421.447" width="75" height="30" transform="rotate(0 146.447 146.447)" fill="cyan" stroke="black" stroke-width="0.5" />
<rect x="451.447"  y="421.447" width="75" height="30" transform="rotate(0 146.447 146.447)" fill="cyan" stroke="black" stroke-width="0.5" />
<rect x="526.447"  y="421.447" width="75" height="30" transform="rotate(0 146.447 146.447)" fill="cyan" stroke="black" stroke-width="0.5" />
<rect x="601.447"  y="421.447" width="75" height="30" transform="rotate(0 146.447 146.447)" fill="cyan" stroke="black" stroke-width="0.5" />
<rect x="676.447"  y="421.447" width="75" height="30" transform="rotate(0 146.447 146.447)" fill="cyan" stroke="black" stroke-width="0.5" />
<rect x="751.447"  y="421.447" width="75" height="30" transform="rotate(0 146.447 146.447)" fill="cyan" stroke="black" stroke-width="0.5" />
<rect x="151.447"  y="451.447" width="75" height="30" transform="rotate(0 146.447 146.447)" fill="cyan" stroke="black" stroke-width="0.5" />
<rect x="226.447"  y="451.447" width="75" height="30" transform="rotate(0 146.447 146.447)" fill="cyan" stroke="black" stroke-width="0.5" />
<rect x="301.447"  y="451.447" width="75" height="30" transform="rotate(0 146.447 146.447)" fill="cyan" stroke="black" stroke-width="0.5" />
<rect x="376.447"  y="451.447" width="75" height="30" transform="rotate(0 146.447 146.447)" fill="cyan" stroke="black" stroke-width="0.5" />
<rect x="451.447"  y="451.447" width="75" height="30" transform="rotate(0 146.447 146.447)" fill="cyan" stroke="black" stroke-width="0.5" />
<rect x="526.447"  y="451.447" width="75" height="30" transform="rotate(0 146.447 146.447)" fill="cyan" stroke="black" stroke-width="0.5" />
<rect x="601.447"  y="451.447" width="75" height="30" transform="rotate(0 146.447 146.447)" fill="cyan" stroke="black" stroke-width="0.5" />
<rect x="676.447"  y="451.447" width="75" height="30" transform="rotate(0 146.447 146.447)" fill="cyan" stroke="black" stroke-width="0.5" />
<rect x="751.447"  y="451.447" width="75" height="30" transform="rotate(0 146.447 146.447)" fill="cyan" stroke="black" stroke-width="0.5" />
<rect x="151.447"  y="481.447" width="75" height="30" transform="rotate(0 146.447 146.447)" fill="cyan" stroke="black" stroke-width="0.5" />
<rect x="226.447"  y="481.447" width="75" height="30" transform="rotate(0 146.447 146.447)" fill="cyan" stroke="black" stroke-width="0.5" />
<rect x="301.447"  y="481.447" width="75" height="30" transform="rotate(0 146.447 146.447)" fill="cyan" stroke="black" stroke-width="0.5" />
<rect x="376.447"  y="481.447" width="75" height="30" transform="rotate(0 146.447 146.447)" fill="cyan" stroke="black" stroke-width="0.5" />
<rect x="451.447"  y="481.447" width="75" height="30" transform="rotate(0 146.447 146.447)" fill="cyan" stroke="black" stroke-width="0.5" />
<rect x="526.447"  y="481.447" width="75" height="30" transform="rotate(0 146.447 146.447)" fill="cyan" stroke="black" stroke-width="0.5" />
<rect x="601.447"  y="481.447" width="75" height="30" transform="rotate(0 146.447 146.447)" fill="cyan" stroke="black" stroke-width="0.5" />
<rect x="676.447"  y="481.447" width="75" height="30" transform="rotate(0 146.447 146.447)" fill="cyan" stroke="black" stroke-width="0.5" />
<rect x="751.447"  y="481.447" width="75" height="30" transform="rotate(0 146.447 146.447)" fill="cyan" stroke="black" stroke-width="0.5" />
<rect x="151.447"  y="511.447" width="75" height="30" transform="rotate(0 146.447 146.447)" fill="cyan" stroke="black" stroke-width="0.5" />
<rect x="226.447"  y="511.447" width="75" height="30" transform="rotate(0 146.447 146.447)" fill="cyan" stroke="black" stroke-width="0.5" />
<rect x="301.447"  y="511.447" width="75" height="30" transform="rotate(0 146.447 146.447)" fill="cyan" stroke="black" stroke-width="0.5" />
<rect x="376.447"  y="511.447" width="75" height="30" transform="rotate(0 146.447 146.447)" fill="cyan" stroke="black" stroke-width="0.5" />
<rect x="451.447"  y="511.447" width="75" height="30" transform="rotate(0 146.447 146.447)" fill="cyan" stroke="black" stroke-width="0.5" />
<rect x="526.447"  y="511.447" width="75" height="30" transform="rotate(0 146.447 146.447)" fill="cyan" stroke="black" stroke-width="0.5" />
<rect x="601.447"  y="511.447" width="75" height="30" transform="rotate(0 146.447 146.447)" fill="cyan" stroke="black" stroke-width="0.5" />
<rect x="676.447"  y="511.447" width="75" height="30" transform="rotate(0 146.447 146.447)" fill="cyan" stroke="black" stroke-width="0.5" />
<rect x="751.447"  y="511.447" width="75" height="30" transform="rotate(0 146.447 146.447)" fill="cyan" stroke="black" stroke-width="0.5" />
<rect x="151.447"  y="541.447" width="75" height="30" transform="rotate(0 146.447 146.447)" fill="cyan" stroke="black" stroke-width="0.5" />
<rect x="226.447"  y="541.447" width="75" height="30" transform="rotate(0 146.447 146.447)" fill="cyan" stroke="black" stroke-width="0.5" />
<rect x="301.447"  y="541.447" width="75" height="30" transform="rotate(0 146.447 146.447)" fill="cyan" stroke="black" stroke-width="0.5" />
<rect x="376.447"  y="541.447" width="75" height="30" transform="rotate(0 146.447 146.447)" fill="cyan" stroke="black" stroke-width="0.5" />
<rect x="451.447"  y="541.447" width="75" height="30" transform="rotate(0 146.447 146.447)" fill="cyan" stroke="black" stroke-width="0.5" />
<rect x="526.447"  y="541.447" width="75" height="30" transform="rotate(0 146.447 146.447)" fill="cyan" stroke="black" stroke-width="0.5" />
<rect x="601.447"  y="541.447" width="75" height="30" transform="rotate(0 146.447 146.447)" fill="cyan" stroke="black" stroke-width="0.5" />
<rect x="676.447"  y="541.447" width="75" height="30" transform="rotate(0 146.447 146.447)" fill="cyan" stroke="black" stroke-width="0.5" />
<rect x="751.447"  y="541.447" width="75" height="30" transform="rotate(0 146.447 146.447)" fill="cyan" stroke="black" stroke-width="0.5" />
<rect x="151.447"  y="571.447" width="75" height="30" transform="rotate(0 146.447 146.447)" fill="cyan" stroke="black" stroke-width="0.5" />
<rect x="226.447"  y="571.447" width="75" height="30" transform="rotate(0 146.447 146.447)" fill="cyan" stroke="black" stroke-width="0.5" />
<rect x="301.447"  y="571.447" width="75" height="30" transform="rotate(0 146.447 146.447)" fill="cyan" stroke="black" stroke-width="0.5" />
<rect x="376.447"  y="571.447" width="75" height="30" transform="rotate(0 146.447 146.447)" fill="cyan" stroke="black" stroke-width="0.5" />
<rect x="451.447"  y="571.447" width="75" height="30" transform="rotate(0 146.447 146.447)" fill="cyan" stroke="black" stroke-width="0.5" />
<rect x="526.447"  y="571.447" width="75" height="30" transform="rotate(0 146.447 146.447)" fill="cyan" stroke="black" stroke-width="0.5" />
<rect x="601.447"  y="571.447" width="75" height="30" transform="rotate(0 146.447 146.447)" fill="cyan" stroke="black" stroke-width="0.5" />
<rect x="676.447"  y="571.447" width="75" height="30" transform="rotate(0 146.447 146.447)" fill="cyan" stroke="black" stroke-width="0.5" />
<rect x="751.447"  y="571.447" width="75" height="30" transform="rotate(0 146.447 146.447)" fill="cyan" stroke="black" stroke-width="0.5" />
<rect x="151.447"  y="601.447" width="75" height="30" transform="rotate(0 146.447 146.447)" fill="cyan" stroke="black" stroke-width="0.5" />
<rect x="226.447"  y="601.447" width="75" height="30" transform="rotate(0 146.447 146.447)" fill="cyan" stroke="black" stroke-width="0.5" />
<rect x="301.447"  y="601.447" width="75" height="30" transform="rotate(0 146.447 146.447)" fill="cyan" stroke="black" stroke-width="0.5" />
<rect x="376.447"  y="601.447" width="75" height="30" transform="rotate(0 146.447 146.447)" fill="cyan" stroke="black" stroke-width="0.5" />
<rect x="451.447"  y="601.447" width="75" height="30" transform="rotate(0 146.447 146.447)" fill="cyan" stroke="black" stroke-width="0.5" />
<rect x="526.447"  y="601.447" width="75" height="30" transform="rotate(0 146.447 146.447)" fill="cyan" stroke="black" stroke-width="0.5" />
<rect x="601.447"  y="601.447" width="75" height="30" transform="rotate(0 146.447 146.447)" fill="cyan" stroke="black" stroke-width="0.5" />
<rect x="676.447"  y="601.447" width="75" height="30" transform="rotate(0 146.447 146.447)" fill="cyan" stroke="black" stroke-width="0.5" />
<rect x="751.447"  y="601.447" width="75" height="30" transform="rotate(0 146.447 146.447)" fill="cyan" stroke="black" stroke-width="0.5" />
<rect x="151.447"  y="631.447" width="75" height="30" transform="rotate(0 146.447 146.447)" fill="cyan" stroke="black" stroke-width="0.5" />
<rect x="226.447"  y="631.447" width="75" height="30" transform="rotate(0 146.447 146.447)" fill="cyan" stroke="black" stroke-width="0.5" />
<rect x="301.447"  y="631.447" width="75" height="30" transform="rotate(0 146.447 146.447)" fill="cyan" stroke="black" stroke-width="0.5" />
<rect x="376.447"  y="631.447" width="75" height="30" transform="rotate(0 146.447 146.447)" fill="cyan" stroke="black" stroke-width="0.5" />
<rect x="451.447"  y="631.447" width="75" height="30" transform="rotate(0 146.447 146.447)" fill="cyan" stroke="black" stroke-width="0.5" />
<rect x="526.447"  y="631.447" width="75" height="30" transform="rotate(0 146.447 146.447)" fill="cyan" stroke="black" stroke-width="0.5" />
<rect x="601.447"  y="631.447" width="75" height="30" transform="rotate(0 146.447 146.447)" fill="cyan" stroke="black" stroke-width="0.5" />
<rect x="676.447"  y="631.447" width="75" height="30" transform="rotate(0 146.447 146.447)" fill="cyan" stroke="black" stroke-width="0.5" />
<rect x="751.447"  y="631.447" width="75" height="30" transform="rotate(0 146.447 146.447)" fill="cyan" stroke="black" stroke-width="0.5" />
<rect x="151.447"  y="661.447" width="75" height="30" transform="rotate(0 146.447 146.447)" fill="cyan" stroke="black" stroke-width="0.5" />
<rect x="226.447"  y="661.447" width="75" height="30" transform="rotate(0 146.447 146.447)" fill="cyan" stroke="black" stroke-width="0.5" />
<rect x="301.447"  y="661.447" width="75" height="30" transform="rotate(0 146.447 146.447)" fill="cyan" stroke="black" stroke-width="0.5" />
<rect x="376.447"  y="661.447" width="75" height="30" transform="rotate(0 146.447 146.447)" fill="cyan" stroke="black" stroke-width="0.5" />
<rect x="451.447"  y="661.447" width="75" height="30" transform="rotate(0 146.447 146.447)" fill="cyan" stroke="black" stroke-width="0.5" />
<rect x="526.447"  y="661.447" width="75" height="30" transform="rotate(0 146.447 146.447)" fill="cyan" stroke="black" stroke-width="0.5" />
<rect x="601.447"  y="661.447" width="75" height="30" transform="rotate(0 146.447 146.447)" fill="cyan" stroke="black" stroke-width="0.5" />
<rect x="676.447"  y="661.447" width="75" height="30" transform="rotate(0 146.447 146.447)" fill="cyan" stroke="black" stroke-width="0.5" />
<rect x="751.447"  y="661.447" width="75" height="30" transform="rotate(0 146.447 146.447)" fill="cyan" stroke="black" stroke-width="0.5" />
<rect x="151.447"  y="691.447" width="75" height="30" transform="rotate(0 146.447 146.447)" fill="cyan" stroke="black" stroke-width="0.5" />
<rect x="226.447"  y="691.447" width="75" height="30" transform="rotate(0 146.447 146.447)" fill="cyan" stroke="black" stroke-width="0.5" />
<rect x="301.447"  y="691.447" width="75" height="30" transform="rotate(0 146.447 146.447)" fill="cyan" stroke="black" stroke-width="0.5" />
<rect x="376.447"  y="691.447" width="75" height="30" transform="rotate(0 146.447 146.447)" fill="cyan" stroke="black" stroke-width="0.5" />
<rect x="451.447"  y="691.447" width="75" height="30" transform="rotate(0 146.447 146.447)" fill="cyan" stroke="black" stroke-width="0.5" />
<rect x="526.447"  y="691.447" width="75" height="30" transform="rotate(0 146.447 146.447)" fill="cyan" stroke="black" stroke-width="0.5" />
<rect x="601.447"  y="691.447" width="75" height="30" transform="rotate(0 146.447 146.447)" fill="cyan" stroke="black" stroke-width="0.5" />
<rect x="676.447"  y="691.447" width="75" height="30" transform="rotate(0 146.447 146.447)" fill="cyan" stroke="black" stroke-width="0.5" />
<rect x="751.447"  y="691.447" width="75" height="30" transform="rotate(0 146.447 146.447)" fill="cyan" stroke="black" stroke-width="0.5" />
<rect x="151.447"  y="721.447" width="75" height="30" transform="rotate(0 146.447 146.447)" fill="cyan" stroke="black" stroke-width="0.5" />
<rect x="226.447"  y="721.447" width="75" height="30" transform="rotate(0 146.447 146.447)" fill="cyan" stroke="black" stroke-width="0.5" />
<rect x="301.447"  y="721.447" width="75" height="30" transform="rotate(0 146.447 146.447)" fill="cyan" stroke="black" stroke-width="0.5" />
<rect x="376.447"  y="721.447" width="75" height="30" transform="rotate(0 146.447 146.447)" fill="cyan" stroke="black" stroke-width="0.5" />
<rect x="451.447"  y="721.447" width="75" height="30" transform="rotate(0 146.447 146.447)" fill="cyan" stroke="black" stroke-width="0.5" />
<rect x="526.447"  y="721.447" width="75" height="30" transform="rotate(0 146.447 146.447)" fill="cyan" stroke="black" stroke-width="0.5" />
<rect x="601.447"  y="721.447" width="75" height="30" transform="rotate(0 146.447 146.447)" fill="cyan" stroke="black" stroke-width="0.5" />
<rect x="676.447"  y="721.447" width="75" height="30" transform="rotate(0 146.447 146.447)" fill="cyan" stroke="black" stroke-width="0.5" />
<rect x="751.447"  y="721.447" width="75" height="30" transform="rotate(0 146.447 146.447)" fill="cyan" stroke="black" stroke-width="0.5" />
<rect x="151.447"  y="751.447" width="75" height="30" transform="rotate(0 146.447 146.447)" fill="cyan" stroke="black" stroke-width="0.5" />
<rect x="226.447"  y="751.447" width="75" height="30" transform="rotate(0 146.447 146.447)" fill="cyan" stroke="black" stroke-width="0.5" />
<rect x="301.447"  y="751.447" width="75" height="30" transform="rotate(0 146.447 146.447)" fill="cyan" stroke="black" stroke-width="0.5" />
<rect x="376.447"  y="751.447" width="75" height="30" transform="rotate(0 146.447 146.447)" fill="cyan" stroke="black" stroke-width="0.5" />
<rect x="451.447"  y="751.447" width="75" height="30" transform="rotate(0 146.447 146.447)" fill="cyan" stroke="black" stroke-width="0.5" />
<rect x="526.447"  y="751.447" width="75" height="30" transform="rotate(0 146.447 146.447)" fill="cyan" stroke="black" stroke-width="0.5" />
<rect x="601.447"  y="751.447" width="75" height="30" transform="rotate(0 146.447 146.447)" fill="cyan" stroke="black" stroke-width="0.5" />
<rect x="676.447"  y="751.447" width="75" height="30" transform="rotate(0 146.447 146.447)" fill="cyan" stroke="black" stroke-width="0.5" />
<rect x="751.447"  y="751.447" width="75" height="30" transform="rotate(0 146.447 146.447)" fill="cyan" stroke="black" stroke-width="0.5" />
<rect x="151.447"  y="781.447" width="75" height="30" transform="rotate(0 146.447 146.447)" fill="cyan" stroke="black" stroke-width="0.5" />
<rect x="226.447"  y="781.447" width="75" height="30" transform="rotate(0 146.447 146.447)" fill="cyan" stroke="black" stroke-width="0.5" />
<rect x="301.447"  y="781.447" width="75" height="30" transform="rotate(0 146.447 146.447)" fill="cyan" stroke="black" stroke-width="0.5" />
<rect x="376.447"  y="781.447" width="75" height="30" transform="rotate(0 146.447 146.447)" fill="cyan" stroke="black" stroke-width="0.5" />
<rect x="451.447"  y="781.447" width="75" height="30" transform="rotate(0 146.447 146.447)" fill="cyan" stroke="black" stroke-width="0.5" />
<rect x="526.447"  y="781.447" width="75" height="30" transform="rotate(0 146.447 146.447)" fill="cyan" stroke="black" stroke-width="0.5" />
<rect x="601.447"  y="781.447" width="75" height="30" transform="rotate(0 146.447 146.447)" fill="cyan" stroke="black" stroke-width="0.5" />
<rect x="676.447"  y="781.447" width="75" height="30" transform="rotate(0 146.447 146.447)" fill="cyan" stroke="black" stroke-width="0.5" />
<rect x="751.447"  y="781.447" width="75" height="30" transform="rotate(0 146.447 146.447)" fill="cyan" stroke="black" stroke-width="0.5" />
<rect x="151.447"  y="811.447" width="75" height="30" transform="rotate(0 146.447 146.447)" fill="cyan" stroke="black" stroke-width="0.5" />
<rect x="226.447"  y="811.447" width="75" height="30" transform="rotate(0 146.447 146.447)" fill="cyan" stroke="black" stroke-width="0.5" />
<rect x="301.447"  y="811.447" width="75" height="30" transform="rotate(0 146.447 146.447)" fill="cyan" stroke="black" stroke-width="0.5" />
<rect x="376.447"  y="811.447" width="75" height="30" transform="rotate(0 146.447 146.447)" fill="cyan" stroke="black" stroke-width="0.5" />
<rect x="451.447"  y="811.447" width="75" height="30" transform="rotate(0 146.447 146.447)" fill="cyan" stroke="black" stroke-width="0.5" />
<rect x="526.447"  y="811.447" width="75" height="30" transform="rotate(0 146.447 146.447)" fill="cyan" stroke="black" stroke-width="0.5" />
<rect x="601.447"  y="811.447" width="75" height="30" transform="rotate(0 146.447 146.447)" fill="cyan" stroke="black" stroke-width="0.5" />
<rect x="676.447"  y="811.447" width="75" height="30" transform="rotate(0 146.447 146.447)" fill="cyan" stroke="black" stroke-width="0.5" />
<rect x="751.447"  y="811.447" width="75" height="30" transform="rotate(0 146.447 146.447)" fill="cyan" stroke="black" stroke-width="0.5" />
<rect x="826.447"  y="151.447" width="30" height="75" transform="rotate(0 146.447 146.447)" fill="cyan" stroke="black" stroke-width="0.5" />
<rect x="826.447"  y="226.447" width="30" height="75" transform="rotate(0 146.447 146.447)" fill="cyan" stroke="black" stroke-width="0.5" />
<rect x="826.447"  y="301.447" width="30" height="75" transform="rotate(0 146.447 146.447)" fill="cyan" stroke="black" stroke-width="0.5" />
<rect x="826.447"  y="376.447" width="30" height="75" transform="rotate(0 146.447 146.447)" fill="cyan" stroke="black" stroke-width="0.5" />
<rect x="826.447"  y="451.447" width="30" height="75" transform="rotate(0 146.447 146.447)" fill="cyan" stroke="black" stroke-width="0.5" />
<rect x="826.447"  y="526.447" width="30" height="75" transform="rotate(0 146.447 146.447)" fill="cyan" stroke="black" stroke-width="0.5" />
<rect x="826.447"  y="601.447" width="30" height="75" transform="rotate(0 146.447 146.447)" fill="cyan" stroke="black" stroke-width="0.5" />
<rect x="826.447"  y="676.447" width="30" height="75" transform="rotate(0 146.447 146.447)" fill="cyan" stroke="black" stroke-width="0.5" />
<rect x="826.447"  y="751.447" width="30" height="75" transform="rotate(0 146.447 146.447)" fill="cyan" stroke="black" stroke-width="0.5" />
<rect x="505"  y="858.553" width="75" height="30" transform="rotate(0 505 505)" fill="cyan" stroke="black" stroke-width="0.5" />
<rect x="430"  y="858.553" width="75" height="30" transform="rotate(0 505 505)" fill="cyan" stroke="black" stroke-width="0.5" />
<rect x="580"  y="858.553" width="75" height="30" transform="rotate(0 505 505)" fill="cyan" stroke="black" stroke-width="0.5" />
<rect x="355"  y="858.553" width="75" height="30" transform="rotate(0 505 505)" fill="cyan" stroke="black" stroke-width="0.5" />
<rect x="655"  y="858.553" width="75" height="30" transform="rotate(0 505 505)" fill="cyan" stroke="black" stroke-width="0.5" />
<rect x="280"  y="858.553" width="75" height="30" transform="rotate(0 505 505)" fill="cyan" stroke="black" stroke-width="0.5" />
<rect x="730"  y="858.553" width="75" height="30" transform="rotate(0 505 505)" fill="cyan" stroke="black" stroke-width="0.5" />
<rect x="205"  y="858.553" width="75" height="30" transform="rotate(0 505 505)" fill="cyan" stroke="black" stroke-width="0.5" />
<rect x="505"  y="888.553" width="75" height="30" transform="rotate(0 505 505)" fill="cyan" stroke="black" stroke-width="0.5" />
<rect x="430"  y="888.553" width="75" height="30" transform="rotate(0 505 505)" fill="cyan" stroke="black" stroke-width="0.5" />
<rect x="580"  y="888.553" width="75" height="30" transform="rotate(0 505 505)" fill="cyan" stroke="black" stroke-width="0.5" />
<rect x="355"  y="888.553" width="75" height="30" transform="rotate(0 505 505)" fill="cyan" stroke="black" stroke-width="0.5" />
<rect x="655"  y="888.553" width="75" height="30" transform="rotate(0 505 505)" fill="cyan" stroke="black" stroke-width="0.5" />
<rect x="280"  y="888.553" width="75" height="30" transform="rotate(0 505 505)" fill="cyan" stroke="black" stroke-width="0.5" />
<rect x="505"  y="918.553" width="75" height="30" transform="rotate(0 505 505)" fill="cyan" stroke="black" stroke-width="0.5" />
<rect x="430"  y="918.553" width="75" height="30" transform="rotate(0 505 505)" fill="cyan" stroke="black" stroke-width="0.5" />
<rect x="580"  y="918.553" width="75" height="30" transform="rotate(0 505 505)" fill="cyan" stroke="black" stroke-width="0.5" />
<rect x="355"  y="918.553" width="75" height="30" transform="rotate(0 505 505)" fill="cyan" stroke="black" stroke-width="0.5" />
<rect x="655"  y="918.553" width="75" height="30" transform="rotate(0 505 505)" fill="cyan" stroke="black" stroke-width="0.5" />
<rect x="280"  y="918.553" width="75" height="30" transform="rotate(0 505 505)" fill="cyan" stroke="black" stroke-width="0.5" />
<rect x="505"  y="948.553" width="75" height="30" transform="rotate(0 505 505)" fill="cyan" stroke="black" stroke-width="0.5" />
<rect x="430"  y="948.553" width="75" height="30" transform="rotate(0 505 505)" fill="cyan" stroke="black" stroke-width="0.5" />
<rect x="580"  y="948.553" width="75" height="30" transform="rotate(0 505 505)" fill="cyan" stroke="black" stroke-width="0.5" />
<rect x="355"  y="948.553" width="75" height="30" transform="rotate(0 505 505)" fill="cyan" stroke="black" stroke-width="0.5" />
<rect x="505"  y="858.553" width="75" height="30" transform="rotate(90 505 505)" fill="cyan" stroke="black" stroke-width="0.5" />
<rect x="430"  y="858.553" width="75" height="30" transform="rotate(90 505 505)" fill="cyan" stroke="black" stroke-width="0.5" />
<rect x="580"  y="858.553" width="75" height="30" transform="rotate(90 505 505)" fill="cyan" stroke="black" stroke-width="0.5" />
<rect x="355"  y="858.553" width="75" height="30" transform="rotate(90 505 505)" fill="cyan" stroke="black" stroke-width="0.5" />
<rect x="655"  y="858.553" width="75" height="30" transform="rotate(90 505 505)" fill="cyan" stroke="black" stroke-width="0.5" />
<rect x="280"  y="858.553" width="75" height="30" transform="rotate(90 505 505)" fill="cyan" stroke="black" stroke-width="0.5" />
<rect x="730"  y="858.553" width="75" height="30" transform="rotate(90 505 505)" fill="cyan" stroke="black" stroke-width="0.5" />
<rect x="205"  y="858.553" width="75" height="30" transform="rotate(90 505 505)" fill="cyan" stroke="black" stroke-width="0.5" />
<rect x="505"  y="888.553" width="75" height="30" transform="rotate(90 505 505)" fill="cyan" stroke="black" stroke-width="0.5" />
<rect x="430"  y="888.553" width="75" height="30" transform="rotate(90 505 505)" fill="cyan" stroke="black" stroke-width="0.5" />
<rect x="580"  y="888.553" width="75" height="30" transform="rotate(90 505 505)" fill="cyan" stroke="black" stroke-width="0.5" />
<rect x="355"  y="888.553" width="75" height="30" transform="rotate(90 505 505)" fill="cyan" stroke="black" stroke-width="0.5" />
<rect x="655"  y="888.553" width="75" height="30" transform="rotate(90 505 505)" fill="cyan" stroke="black" stroke-width="0.5" />
<rect x="280"  y="888.553" width="75" height="30" transform="rotate(90 505 505)" fill="cyan" stroke="black" stroke-width="0.5" />
<rect x="505"  y="918.553" width="75" height="30" transform="rotate(90 505 505)" fill="cyan" stroke="black" stroke-width="0.5" />
<rect x="430"  y="918.553" width="75" height="30" transform="rotate(90 505 505)" fill="cyan" stroke="black" stroke-width="0.5" />
<rect x="580"  y="918.553" width="75" height="30" transform="rotate(90 505 505)" fill="cyan" stroke="black" stroke-width="0.5" />
<rect x="355"  y="918.553" width="75" height="30" transform="rotate(90 505 505)" fill="cyan" stroke="black" stroke-width="0.5" />
<rect x="655"  y="918.553" width="75" height="30" transform="rotate(90 505 505)" fill="cyan" stroke="black" stroke-width="0.5" />
<rect x="280"  y="918.553" width="75" height="30" transform="rotate(90 505 505)" fill="cyan" stroke="black" stroke-width="0.5" />
<rect x="505"  y="948.553" width="75" height="30" transform="rotate(90 505 505)" fill="cyan" stroke="black" stroke-width="0.5" />
<rect x="430"  y="948.553" width="75" height="30" transform="rotate(90 505 505)" fill="cyan" stroke="black" stroke-width="0.5" />
<rect x="580"  y="948.553" width="75" height="30" transform="rotate(90 505 505)" fill="cyan" stroke="black" stroke-width="0.5" />
<rect x="355"  y="948.553" width="75" height="30" transform="rotate(90 505 505)" fill="cyan" stroke="black" stroke-width="0.5" />
<rect x="505"  y="858.553" width="75" height="30" transform="rotate(180 505 505)" fill="cyan" stroke="black" stroke-width="0.5" />
<rect x="430"  y="858.553" width="75" height="30" transform="rotate(180 505 505)" fill="cyan" stroke="black" stroke-width="0.5" />
<rect x="580"  y="858.553" width="75" height="30" transform="rotate(180 505 505)" fill="cyan" stroke="black" stroke-width="0.5" />
<rect x="355"  y="858.553" width="75" height="30" transform="rotate(180 505 505)" fill="cyan" stroke="black" stroke-width="0.5" />
<rect x="655"  y="858.553" width="75" height="30" transform="rotate(180 505 505)" fill="cyan" stroke="black" stroke-width="0.5" />
<rect x="280"  y="858.553" width="75" height="30" transform="rotate(180 505 505)" fill="cyan" stroke="black" stroke-width="0.5" />
<rect x="730"  y="858.553" width="75" height="30" transform="rotate(180 505 505)" fill="cyan" stroke="black" stroke-width="0.5" />
<rect x="205"  y="858.553" width="75" height="30" transform="rotate(180 505 505)" fill="cyan" stroke="black" stroke-width="0.5" />
<rect x="505"  y="888.553" width="75" height="30" transform="rotate(180 505 505)" fill="cyan" stroke="black" stroke-width="0.5" />
<rect x="430"  y="888.553" width="75" height="30" transform="rotate(180 505 505)" fill="cyan" stroke="black" stroke-width="0.5" />
<rect x="580"  y="888.553" width="75" height="30" transform="rotate(180 505 505)" fill="cyan" stroke="black" stroke-width="0.5" />
<rect x="355"  y="888.553" width="75" height="30" transform="rotate(180 505 505)" fill="cyan" stroke="black" stroke-width="0.5" />
<rect x="655"  y="888.553" width="75" height="30" transform="rotate(180 505 505)" fill="cyan" stroke="black" stroke-width="0.5" />
<rect x="280"  y="888.553" width="75" height="30" transform="rotate(180 505 505)" fill="cyan" stroke="black" stroke-width="0.5" />
<rect x="505"  y="918.553" width="75" height="30" transform="rotate(180 505 505)" fill="cyan" stroke="black" stroke-width="0.5" />
<rect x="430"  y="918.553" width="75" height="30" transform="rotate(180 505 505)" fill="cyan" stroke="black" stroke-width="0.5" />
<rect x="580"  y="918.553" width="75" height="30" transform="rotate(180 505 505)" fill="cyan" stroke="black" stroke-width="0.5" />
<rect x="355"  y="918.553" width="75" height="30" transform="rotate(180 505 505)" fill="cyan" stroke="black" stroke-width="0.5" />
<rect x="655"  y="918.553" width="75" height="30" transform="rotate(180 505 505)" fill="cyan" stroke="black" stroke-width="0.5" />
<rect x="280"  y="918.553" width="75" height="30" transform="rotate(180 505 505)" fill="cyan" stroke="black" stroke-width="0.5" />
<rect x="505"  y="948.553" width="75" height="30" transform="rotate(180 505 505)" fill="cyan" stroke="black" stroke-width="0.5" />
<rect x="430"  y="948.553" width="75" height="30" transform="rotate(180 505 505)" fill="cyan" stroke="black" stroke-width="0.5" />
<rect x="580"  y="948.553" width="75" height="30" transform="rotate(180 505 505)" fill="cyan" stroke="black" stroke-width="0.5" />
<rect x="355"  y="948.553" width="75" height="30" transform="rotate(180 505 505)" fill="cyan" stroke="black" stroke-width="0.5" />
<rect x="505"  y="858.553" width="75" height="30" transform="rotate(270 505 505)" fill="cyan" stroke="black" stroke-width="0.5" />
<rect x="430"  y="858.553" width="75" height="30" transform="rotate(270 505 505)" fill="cyan" stroke="black" stroke-width="0.5" />
<rect x="580"  y="858.553" width="75" height="30" transform="rotate(270 505 505)" fill="cyan" stroke="black" stroke-width="0.5" />
<rect x="355"  y="858.553" width="75" height="30" transform="rotate(270 505 505)" fill="cyan" stroke="black" stroke-width="0.5" />
<rect x="655"  y="858.553" width="75" height="30" transform="rotate(270 505 505)" fill="cyan" stroke="black" stroke-width="0.5" />
<rect x="280"  y="858.553" width="75" height="30" transform="rotate(270 505 505)" fill="cyan" stroke="black" stroke-width="0.5" />
<rect x="730"  y="858.553" width="75" height="30" transform="rotate(270 505 505)" fill="cyan" stroke="black" stroke-width="0.5" />
<rect x="205"  y="858.553" width="75" height="30" transform="rotate(270 505 505)" fill="cyan" stroke="black" stroke-width="0.5" />
<rect x="505"  y="888.553" width="75" height="30" transform="rotate(270 505 505)" fill="cyan" stroke="black" stroke-width="0.5" />
<rect x="430"  y="888.553" width="75" height="30" transform="rotate(270 505 505)" fill="cyan" stroke="black" stroke-width="0.5" />
<rect x="580"  y="888.553" width="75" height="30" transform="rotate(270 505 505)" fill="cyan" stroke="black" stroke-width="0.5" />
<rect x="355"  y="888.553" width="75" height="30" transform="rotate(270 505 505)" fill="cyan" stroke="black" stroke-width="0.5" />
<rect x="655"  y="888.553" width="75" height="30" transform="rotate(270 505 505)" fill="cyan" stroke="black" stroke-width="0.5" />
<rect x="280"  y="888.553" width="75" height="30" transform="rotate(270 505 505)" fill="cyan" stroke="black" stroke-width="0.5" />
<rect x="505"  y="918.553" width="75" height="30" transform="rotate(270 505 505)" fill="cyan" stroke="black" stroke-width="0.5" />
<rect x="430"  y="918.553" width="75" height="30" transform="rotate(270 505 505)" fill="cyan" stroke="black" stroke-width="0.5" />
<rect x="580"  y="918.553" width="75" height="30" transform="rotate(270 505 505)" fill="cyan" stroke="black" stroke-width="0.5" />
<rect x="355"  y="918.553" width="75" height="30" transform="rotate(270 505 505)" fill="cyan" stroke="black" stroke-width="0.5" />
<rect x="655"  y="918.553" width="75" height="30" transform="rotate(270 505 505)" fill="cyan" stroke="black" stroke-width="0.5" />
<rect x="280"  y="918.553" width="75" height="30" transform="rotate(270 505 505)" fill="cyan" stroke="black" stroke-width="0.5" />
<rect x="505"  y="948.553" width="75" height="30" transform="rotate(270 505 505)" fill="cyan" stroke="black" stroke-width="0.5" />
<rect x="430"  y="948.553" width="75" height="30" transform="rotate(270 505 505)" fill="cyan" stroke="black" stroke-width="0.5" />
<rect x="580"  y="948.553" width="75" height="30" transform="rotate(270 505 505)" fill="cyan" stroke="black" stroke-width="0.5" />
<rect x="355"  y="948.553" width="75" height="30" transform="rotate(270 505 505)" fill="cyan" stroke="black" stroke-width="0.5" />
</svg>
