<svg version="1.1" baseProfile="full" xmlns="http://www.w3.org/2000/svg">
<circle cx="510" cy="510" r="500" transform="rotate(0 0 0)" fill="dimgrey" stroke="black" stroke-width="0.5" />
<rect x="156.447"  y="156.447" width="100" height="50" transform="rotate(0 146.447 146.447)" fill="magenta" stroke="black" stroke-width="0.5" />
<rect x="256.447"  y="156.447" width="100" height="50" transform="rotate(0 146.447 146.447)" fill="magenta" stroke="black" stroke-width="0.5" />
<rect x="356.447"  y="156.447" width="100" height="50" transform="rotate(0 146.447 146.447)" fill="magenta" stroke="black" stroke-width="0.5" />
<rect x="456.447"  y="156.447" width="100" height="50" transform="rotate(0 146.447 146.447)" fill="magenta" stroke="black" stroke-width="0.5" />
<rect x="556.447"  y="156.447" width="100" height="50" transform="rotate(0 146.447 146.447)" fill="magenta" stroke="black" stroke-width="0.5" />
<rect x="656.447"  y="156.447" width="100" height="50" transform="rotate(0 146.447 146.447)" fill="magenta" stroke="black" stroke-width="0.5" />
<rect x="756.447"  y="156.447" width="100" height="50" transform="rotate(0 146.447 146.447)" fill="magenta" stroke="black" stroke-width="0.5" />
<rect x="156.447"  y="206.447" width="100" height="50" transform="rotate(0 146.447 146.447)" fill="magenta" stroke="black" stroke-width="0.5" />
<rect x="256.447"  y="206.447" width="100" height="50" transform="rotate(0 146.447 146.447)" fill="magenta" stroke="black" stroke-width="0.5" />
<rect x="356.447"  y="206.447" width="100" height="50" transform="rotate(0 146.447 146.447)" fill="magenta" stroke="black" stroke-width="0.5" />
<rect x="456.447"  y="206.447" width="100" height="50" transform="rotate(0 146.447 146.447)" fill="magenta" stroke="black" stroke-width="0.5" />
<rect x="556.447"  y="206.447" width="100" height="50" transform="rotate(0 146.447 146.447)" fill="magenta" stroke="black" stroke-width="0.5" />
<rect x="656.447"  y="206.447" width="100" height="50" transform="rotate(0 146.447 146.447)" fill="magenta" stroke="black" stroke-width="0.5" />
<rect x="756.447"  y="206.447" width="100" height="50" transform="rotate(0 146.447 146.447)" fill="magenta" stroke="black" stroke-width="0.5" />
<rect x="156.447"  y="256.447" width="100" height="50" transform="rotate(0 146.447 146.447)" fill="magenta" stroke="black" stroke-width="0.5" />
<rect x="256.447"  y="256.447" width="100" height="50" transform="rotate(0 146.447 146.447)" fill="magenta" stroke="black" stroke-width="0.5" />
<rect x="356.447"  y="256.447" width="100" height="50" transform="rotate(0 146.447 146.447)" fill="magenta" stroke="black" stroke-width="0.5" />
<rect x="456.447"  y="256.447" width="100" height="50" transform="rotate(0 146.447 146.447)" fill="magenta" stroke="black" stroke-width="0.5" />
<rect x="556.447"  y="256.447" width="100" height="50" transform="rotate(0 146.447 146.447)" fill="magenta" stroke="black" stroke-width="0.5" />
<rect x="656.447"  y="256.447" width="100" height="50" transform="rotate(0 146.447 146.447)" fill="magenta" stroke="black" stroke-width="0.5" />
<rect x="756.447"  y="256.447" width="100" height="50" transform="rotate(0 146.447 146.447)" fill="magenta" stroke="black" stroke-width="0.5" />
<rect x="156.447"  y="306.447" width="100" height="50" transform="rotate(0 146.447 146.447)" fill="magenta" stroke="black" stroke-width="0.5" />
<rect x="256.447"  y="306.447" width="100" height="50" transform="rotate(0 146.447 146.447)" fill="magenta" stroke="black" stroke-width="0.5" />
<rect x="356.447"  y="306.447" width="100" height="50" transform="rotate(0 146.447 146.447)" fill="magenta" stroke="black" stroke-width="0.5" />
<rect x="456.447"  y="306.447" width="100" height="50" transform="rotate(0 146.447 146.447)" fill="magenta" stroke="black" stroke-width="0.5" />
<rect x="556.447"  y="306.447" width="100" height="50" transform="rotate(0 146.447 146.447)" fill="magenta" stroke="black" stroke-width="0.5" />
<rect x="656.447"  y="306.447" width="100" height="50" transform="rotate(0 146.447 146.447)" fill="magenta" stroke="black" stroke-width="0.5" />
<rect x="756.447"  y="306.447" width="100" height="50" transform="rotate(0 146.447 146.447)" fill="magenta" stroke="black" stroke-width="0.5" />
<rect x="156.447"  y="356.447" width="100" height="50" transform="rotate(0 146.447 146.447)" fill="magenta" stroke="black" stroke-width="0.5" />
<rect x="256.447"  y="356.447" width="100" height="50" transform="rotate(0 146.447 146.447)" fill="magenta" stroke="black" stroke-width="0.5" />
<rect x="356.447"  y="356.447" width="100" height="50" transform="rotate(0 146.447 146.447)" fill="magenta" stroke="black" stroke-width="0.5" />
<rect x="456.447"  y="356.447" width="100" height="50" transform="rotate(0 146.447 146.447)" fill="magenta" stroke="black" stroke-width="0.5" />
<rect x="556.447"  y="356.447" width="100" height="50" transform="rotate(0 146.447 146.447)" fill="magenta" stroke="black" stroke-width="0.5" />
<rect x="656.447"  y="356.447" width="100" height="50" transform="rotate(0 146.447 146.447)" fill="magenta" stroke="black" stroke-width="0.5" />
<rect x="756.447"  y="356.447" width="100" height="50" transform="rotate(0 146.447 146.447)" fill="magenta" stroke="black" stroke-width="0.5" />
<rect x="156.447"  y="406.447" width="100" height="50" transform="rotate(0 146.447 146.447)" fill="magenta" stroke="black" stroke-width="0.5" />
<rect x="256.447"  y="406.447" width="100" height="50" transform="rotate(0 146.447 146.447)" fill="magenta" stroke="black" stroke-width="0.5" />
<rect x="356.447"  y="406.447" width="100" height="50" transform="rotate(0 146.447 146.447)" fill="magenta" stroke="black" stroke-width="0.5" />
<rect x="456.447"  y="406.447" width="100" height="50" transform="rotate(0 146.447 146.447)" fill="magenta" stroke="black" stroke-width="0.5" />
<rect x="556.447"  y="406.447" width="100" height="50" transform="rotate(0 146.447 146.447)" fill="magenta" stroke="black" stroke-width="0.5" />
<rect x="656.447"  y="406.447" width="100" height="50" transform="rotate(0 146.447 146.447)" fill="magenta" stroke="black" stroke-width="0.5" />
<rect x="756.447"  y="406.447" width="100" height="50" transform="rotate(0 146.447 146.447)" fill="magenta" stroke="black" stroke-width="0.5" />
<rect x="156.447"  y="456.447" width="100" height="50" transform="rotate(0 146.447 146.447)" fill="magenta" stroke="black" stroke-width="0.5" />
<rect x="256.447"  y="456.447" width="100" height="50" transform="rotate(0 146.447 146.447)" fill="magenta" stroke="black" stroke-width="0.5" />
<rect x="356.447"  y="456.447" width="100" height="50" transform="rotate(0 146.447 146.447)" fill="magenta" stroke="black" stroke-width="0.5" />
<rect x="456.447"  y="456.447" width="100" height="50" transform="rotate(0 146.447 146.447)" fill="magenta" stroke="black" stroke-width="0.5" />
<rect x="556.447"  y="456.447" width="100" height="50" transform="rotate(0 146.447 146.447)" fill="magenta" stroke="black" stroke-width="0.5" />
<rect x="656.447"  y="456.447" width="100" height="50" transform="rotate(0 146.447 146.447)" fill="magenta" stroke="black" stroke-width="0.5" />
<rect x="756.447"  y="456.447" width="100" height="50" transform="rotate(0 146.447 146.447)" fill="magenta" stroke="black" stroke-width="0.5" />
<rect x="156.447"  y="506.447" width="100" height="50" transform="rotate(0 146.447 146.447)" fill="magenta" stroke="black" stroke-width="0.5" />
<rect x="256.447"  y="506.447" width="100" height="50" transform="rotate(0 146.447 146.447)" fill="magenta" stroke="black" stroke-width="0.5" />
<rect x="356.447"  y="506.447" width="100" height="50" transform="rotate(0 146.447 146.447)" fill="magenta" stroke="black" stroke-width="0.5" />
<rect x="456.447"  y="506.447" width="100" height="50" transform="rotate(0 146.447 146.447)" fill="magenta" stroke="black" stroke-width="0.5" />
<rect x="556.447"  y="506.447" width="100" height="50" transform="rotate(0 146.447 146.447)" fill="magenta" stroke="black" stroke-width="0.5" />
<rect x="656.447"  y="506.447" width="100" height="50" transform="rotate(0 146.447 146.447)" fill="magenta" stroke="black" stroke-width="0.5" />
<rect x="756.447"  y="506.447" width="100" height="50" transform="rotate(0 146.447 146.447)" fill="magenta" stroke="black" stroke-width="0.5" />
<rect x="156.447"  y="556.447" width="100" height="50" transform="rotate(0 146.447 146.447)" fill="magenta" stroke="black" stroke-width="0.5" />
<rect x="256.447"  y="556.447" width="100" height="50" transform="rotate(0 146.447 146.447)" fill="magenta" stroke="black" stroke-width="0.5" />
<rect x="356.447"  y="556.447" width="100" height="50" transform="rotate(0 146.447 146.447)" fill="magenta" stroke="black" stroke-width="0.5" />
<rect x="456.447"  y="556.447" width="100" height="50" transform="rotate(0 146.447 146.447)" fill="magenta" stroke="black" stroke-width="0.5" />
<rect x="556.447"  y="556.447" width="100" height="50" transform="rotate(0 146.447 146.447)" fill="magenta" stroke="black" stroke-width="0.5" />
<rect x="656.447"  y="556.447" width="100" height="50" transform="rotate(0 146.447 146.447)" fill="magenta" stroke="black" stroke-width="0.5" />
<rect x="756.447"  y="556.447" width="100" height="50" transform="rotate(0 146.447 146.447)" fill="magenta" stroke="black" stroke-width="0.5" />
<rect x="156.447"  y="606.447" width="100" height="50" transform="rotate(0 146.447 146.447)" fill="magenta" stroke="black" stroke-width="0.5" />
<rect x="256.447"  y="606.447" width="100" height="50" transform="rotate(0 146.447 146.447)" fill="magenta" stroke="black" stroke-width="0.5" />
<rect x="356.447"  y="606.447" width="100" height="50" transform="rotate(0 146.447 146.447)" fill="magenta" stroke="black" stroke-width="0.5" />
<rect x="456.447"  y="606.447" width="100" height="50" transform="rotate(0 146.447 146.447)" fill="magenta" stroke="black" stroke-width="0.5" />
<rect x="556.447"  y="606.447" width="100" height="50" transform="rotate(0 146.447 146.447)" fill="magenta" stroke="black" stroke-width="0.5" />
<rect x="656.447"  y="606.447" width="100" height="50" transform="rotate(0 146.447 146.447)" fill="magenta" stroke="black" stroke-width="0.5" />
<rect x="756.447"  y="606.447" width="100" height="50" transform="rotate(0 146.447 146.447)" fill="magenta" stroke="black" stroke-width="0.5" />
<rect x="156.447"  y="656.447" width="100" height="50" transform="rotate(0 146.447 146.447)" fill="magenta" stroke="black" stroke-width="0.5" />
<rect x="256.447"  y="656.447" width="100" height="50" transform="rotate(0 146.447 146.447)" fill="magenta" stroke="black" stroke-width="0.5" />
<rect x="356.447"  y="656.447" width="100" height="50" transform="rotate(0 146.447 146.447)" fill="magenta" stroke="black" stroke-width="0.5" />
<rect x="456.447"  y="656.447" width="100" height="50" transform="rotate(0 146.447 146.447)" fill="magenta" stroke="black" stroke-width="0.5" />
<rect x="556.447"  y="656.447" width="100" height="50" transform="rotate(0 146.447 146.447)" fill="magenta" stroke="black" stroke-width="0.5" />
<rect x="656.447"  y="656.447" width="100" height="50" transform="rotate(0 146.447 146.447)" fill="magenta" stroke="black" stroke-width="0.5" />
<rect x="756.447"  y="656.447" width="100" height="50" transform="rotate(0 146.447 146.447)" fill="magenta" stroke="black" stroke-width="0.5" />
<rect x="156.447"  y="706.447" width="100" height="50" transform="rotate(0 146.447 146.447)" fill="magenta" stroke="black" stroke-width="0.5" />
<rect x="256.447"  y="706.447" width="100" height="50" transform="rotate(0 146.447 146.447)" fill="magenta" stroke="black" stroke-width="0.5" />
<rect x="356.447"  y="706.447" width="100" height="50" transform="rotate(0 146.447 146.447)" fill="magenta" stroke="black" stroke-width="0.5" />
<rect x="456.447"  y="706.447" width="100" height="50" transform="rotate(0 146.447 146.447)" fill="magenta" stroke="black" stroke-width="0.5" />
<rect x="556.447"  y="706.447" width="100" height="50" transform="rotate(0 146.447 146.447)" fill="magenta" stroke="black" stroke-width="0.5" />
<rect x="656.447"  y="706.447" width="100" height="50" transform="rotate(0 146.447 146.447)" fill="magenta" stroke="black" stroke-width="0.5" />
<rect x="756.447"  y="706.447" width="100" height="50" transform="rotate(0 146.447 146.447)" fill="magenta" stroke="black" stroke-width="0.5" />
<rect x="156.447"  y="756.447" width="100" height="50" transform="rotate(0 146.447 146.447)" fill="magenta" stroke="black" stroke-width="0.5" />
<rect x="256.447"  y="756.447" width="100" height="50" transform="rotate(0 146.447 146.447)" fill="magenta" stroke="black" stroke-width="0.5" />
<rect x="356.447"  y="756.447" width="100" height="50" transform="rotate(0 146.447 146.447)" fill="magenta" stroke="black" stroke-width="0.5" />
<rect x="456.447"  y="756.447" width="100" height="50" transform="rotate(0 146.447 146.447)" fill="magenta" stroke="black" stroke-width="0.5" />
<rect x="556.447"  y="756.447" width="100" height="50" transform="rotate(0 146.447 146.447)" fill="magenta" stroke="black" stroke-width="0.5" />
<rect x="656.447"  y="756.447" width="100" height="50" transform="rotate(0 146.447 146.447)" fill="magenta" stroke="black" stroke-width="0.5" />
<rect x="756.447"  y="756.447" width="100" height="50" transform="rotate(0 146.447 146.447)" fill="magenta" stroke="black" stroke-width="0.5" />
<rect x="156.447"  y="806.447" width="100" height="50" transform="rotate(0 146.447 146.447)" fill="magenta" stroke="black" stroke-width="0.5" />
<rect x="256.447"  y="806.447" width="100" height="50" transform="rotate(0 146.447 146.447)" fill="magenta" stroke="black" stroke-width="0.5" />
<rect x="356.447"  y="806.447" width="100" height="50" transform="rotate(0 146.447 146.447)" fill="magenta" stroke="black" stroke-width="0.5" />
<rect x="456.447"  y="806.447" width="100" height="50" transform="rotate(0 146.447 146.447)" fill="magenta" stroke="black" stroke-width="0.5" />
<rect x="556.447"  y="806.447" width="100" height="50" transform="rotate(0 146.447 146.447)" fill="magenta" stroke="black" stroke-width="0.5" />
<rect x="656.447"  y="806.447" width="100" height="50" transform="rotate(0 146.447 146.447)" fill="magenta" stroke="black" stroke-width="0.5" />
<rect x="756.447"  y="806.447" width="100" height="50" transform="rotate(0 146.447 146.447)" fill="magenta" stroke="black" stroke-width="0.5" />
<rect x="510"  y="863.553" width="100" height="50" transform="rotate(0 510 510)" fill="magenta" stroke="black" stroke-width="0.5" />
<rect x="410"  y="863.553" width="100" height="50" transform="rotate(0 510 510)" fill="magenta" stroke="black" stroke-width="0.5" />
<rect x="610"  y="863.553" width="100" height="50" transform="rotate(0 510 510)" fill="magenta" stroke="black" stroke-width="0.5" />
<rect x="310"  y="863.553" width="100" height="50" transform="rotate(0 510 510)" fill="magenta" stroke="black" stroke-width="0.5" />
<rect x="510"  y="913.553" width="100" height="50" transform="rotate(0 510 510)" fill="magenta" stroke="black" stroke-width="0.5" />
<rect x="410"  y="913.553" width="100" height="50" transform="rotate(0 510 510)" fill="magenta" stroke="black" stroke-width="0.5" />
<rect x="610"  y="913.553" width="100" height="50" transform="rotate(0 510 510)" fill="magenta" stroke="black" stroke-width="0.5" />
<rect x="310"  y="913.553" width="100" height="50" transform="rotate(0 510 510)" fill="magenta" stroke="black" stroke-width="0.5" />
<rect x="510"  y="863.553" width="100" height="50" transform="rotate(90 510 510)" fill="magenta" stroke="black" stroke-width="0.5" />
<rect x="410"  y="863.553" width="100" height="50" transform="rotate(90 510 510)" fill="magenta" stroke="black" stroke-width="0.5" />
<rect x="610"  y="863.553" width="100" height="50" transform="rotate(90 510 510)" fill="magenta" stroke="black" stroke-width="0.5" />
<rect x="310"  y="863.553" width="100" height="50" transform="rotate(90 510 510)" fill="magenta" stroke="black" stroke-width="0.5" />
<rect x="510"  y="913.553" width="100" height="50" transform="rotate(90 510 510)" fill="magenta" stroke="black" stroke-width="0.5" />
<rect x="410"  y="913.553" width="100" height="50" transform="rotate(90 510 510)" fill="magenta" stroke="black" stroke-width="0.5" />
<rect x="610"  y="913.553" width="100" height="50" transform="rotate(90 510 510)" fill="magenta" stroke="black" stroke-width="0.5" />
<rect x="310"  y="913.553" width="100" height="50" transform="rotate(90 510 510)" fill="magenta" stroke="black" stroke-width="0.5" />
<rect x="510"  y="863.553" width="100" height="50" transform="rotate(180 510 510)" fill="magenta" stroke="black" stroke-width="0.5" />
<rect x="410"  y="863.553" width="100" height="50" transform="rotate(180 510 510)" fill="magenta" stroke="black" stroke-width="0.5" />
<rect x="610"  y="863.553" width="100" height="50" transform="rotate(180 510 510)" fill="magenta" stroke="black" stroke-width="0.5" />
<rect x="310"  y="863.553" width="100" height="50" transform="rotate(180 510 510)" fill="magenta" stroke="black" stroke-width="0.5" />
<rect x="510"  y="913.553" width="100" height="50" transform="rotate(180 510 510)" fill="magenta" stroke="black" stroke-width="0.5" />
<rect x="410"  y="913.553" width="100" height="50" transform="rotate(180 510 510)" fill="magenta" stroke="black" stroke-width="0.5" />
<rect x="610"  y="913.553" width="100" height="50" transform="rotate(180 510 510)" fill="magenta" stroke="black" stroke-width="0.5" />
<rect x="310"  y="913.553" width="100" height="50" transform="rotate(180 510 510)" fill="magenta" stroke="black" stroke-width="0.5" />
<rect x="510"  y="863.553" width="100" height="50" transform="rotate(270 510 510)" fill="magenta" stroke="black" stroke-width="0.5" />
<rect x="410"  y="863.553" width="100" height="50" transform="rotate(270 510 510)" fill="magenta" stroke="black" stroke-width="0.5" />
<rect x="610"  y="863.553" width="100" height="50" transform="rotate(270 510 510)" fill="magenta" stroke="black" stroke-width="0.5" />
<rect x="310"  y="863.553" width="100" height="50" transform="rotate(270 510 510)" fill="magenta" stroke="black" stroke-width="0.5" />
<rect x="510"  y="913.553" width="100" height="50" transform="rotate(270 510 510)" fill="magenta" stroke="black" stroke-width="0.5" />
<rect x="410"  y="913.553" width="100" height="50" transform="rotate(270 510 510)" fill="magenta" stroke="black" stroke-width="0.5" />
<rect x="610"  y="913.553" width="100" height="50" transform="rotate(270 510 510)" fill="magenta" stroke="black" stroke-width="0.5" />
<rect x="310"  y="913.553" width="100" height="50" transform="rotate(270 510 510)" fill="magenta" stroke="black" stroke-width="0.5" />
</svg>
