<svg version="1.1" baseProfile="full" xmlns="http://www.w3.org/2000/svg">
<circle cx="505" cy="505" r="500" transform="rotate(0 0 0)" fill="purple" stroke="black" stroke-width="0.5" />
<circle cx="505" cy="45" r="40" transform="rotate(0 505 505)" fill="yellow" stroke="black" stroke-width="0.5" />
<circle cx="505" cy="45" r="40" transform="rotate(10 505 505)" fill="yellow" stroke="black" stroke-width="0.5" />
<circle cx="505" cy="45" r="40" transform="rotate(20 505 505)" fill="yellow" stroke="black" stroke-width="0.5" />
<circle cx="505" cy="45" r="40" transform="rotate(30 505 505)" fill="yellow" stroke="black" stroke-width="0.5" />
<circle cx="505" cy="45" r="40" transform="rotate(40 505 505)" fill="yellow" stroke="black" stroke-width="0.5" />
<circle cx="505" cy="45" r="40" transform="rotate(50 505 505)" fill="yellow" stroke="black" stroke-width="0.5" />
<circle cx="505" cy="45" r="40" transform="rotate(60 505 505)" fill="yellow" stroke="black" stroke-width="0.5" />
<circle cx="505" cy="45" r="40" transform="rotate(70 505 505)" fill="yellow" stroke="black" stroke-width="0.5" />
<circle cx="505" cy="45" r="40" transform="rotate(80 505 505)" fill="yellow" stroke="black" stroke-width="0.5" />
<circle cx="505" cy="45" r="40" transform="rotate(90 505 505)" fill="yellow" stroke="black" stroke-width="0.5" />
<circle cx="505" cy="45" r="40" transform="rotate(100 505 505)" fill="yellow" stroke="black" stroke-width="0.5" />
<circle cx="505" cy="45" r="40" transform="rotate(110 505 505)" fill="yellow" stroke="black" stroke-width="0.5" />
<circle cx="505" cy="45" r="40" transform="rotate(120 505 505)" fill="yellow" stroke="black" stroke-width="0.5" />
<circle cx="505" cy="45" r="40" transform="rotate(130 505 505)" fill="yellow" stroke="black" stroke-width="0.5" />
<circle cx="505" cy="45" r="40" transform="rotate(140 505 505)" fill="yellow" stroke="black" stroke-width="0.5" />
<circle cx="505" cy="45" r="40" transform="rotate(150 505 505)" fill="yellow" stroke="black" stroke-width="0.5" />
<circle cx="505" cy="45" r="40" transform="rotate(160 505 505)" fill="yellow" stroke="black" stroke-width="0.5" />
<circle cx="505" cy="45" r="40" transform="rotate(170 505 505)" fill="yellow" stroke="black" stroke-width="0.5" />
<circle cx="505" cy="45" r="40" transform="rotate(180 505 505)" fill="yellow" stroke="black" stroke-width="0.5" />
<circle cx="505" cy="45" r="40" transform="rotate(190 505 505)" fill="yellow" stroke="black" stroke-width="0.5" />
<circle cx="505" cy="45" r="40" transform="rotate(200 505 505)" fill="yellow" stroke="black" stroke-width="0.5" />
<circle cx="505" cy="45" r="40" transform="rotate(210 505 505)" fill="yellow" stroke="black" stroke-width="0.5" />
<circle cx="505" cy="45" r="40" transform="rotate(220 505 505)" fill="yellow" stroke="black" stroke-width="0.5" />
<circle cx="505" cy="45" r="40" transform="rotate(230 505 505)" fill="yellow" stroke="black" stroke-width="0.5" />
<circle cx="505" cy="45" r="40" transform="rotate(240 505 505)" fill="yellow" stroke="black" stroke-width="0.5" />
<circle cx="505" cy="45" r="40" transform="rotate(250 505 505)" fill="yellow" stroke="black" stroke-width="0.5" />
<circle cx="505" cy="45" r="40" transform="rotate(260 505 505)" fill="yellow" stroke="black" stroke-width="0.5" />
<circle cx="505" cy="45" r="40" transform="rotate(270 505 505)" fill="yellow" stroke="black" stroke-width="0.5" />
<circle cx="505" cy="45" r="40" transform="rotate(280 505 505)" fill="yellow" stroke="black" stroke-width="0.5" />
<circle cx="505" cy="45" r="40" transform="rotate(290 505 505)" fill="yellow" stroke="black" stroke-width="0.5" />
<circle cx="505" cy="45" r="40" transform="rotate(300 505 505)" fill="yellow" stroke="black" stroke-width="0.5" />
<circle cx="505" cy="45" r="40" transform="rotate(310 505 505)" fill="yellow" stroke="black" stroke-width="0.5" />
<circle cx="505" cy="45" r="40" transform="rotate(320 505 505)" fill="yellow" stroke="black" stroke-width="0.5" />
<circle cx="505" cy="45" r="40" transform="rotate(330 505 505)" fill="yellow" stroke="black" stroke-width="0.5" />
<circle cx="505" cy="45" r="40" transform="rotate(340 505 505)" fill="yellow" stroke="black" stroke-width="0.5" />
<circle cx="505" cy="45" r="40" transform="rotate(350 505 505)" fill="yellow" stroke="black" stroke-width="0.5" />
<circle cx="505" cy="125" r="40" transform="rotate(0 505 505)" fill="yellow" stroke="black" stroke-width="0.5" />
<circle cx="505" cy="125" r="40" transform="rotate(12.4138 505 505)" fill="yellow" stroke="black" stroke-width="0.5" />
<circle cx="505" cy="125" r="40" transform="rotate(24.8276 505 505)" fill="yellow" stroke="black" stroke-width="0.5" />
<circle cx="505" cy="125" r="40" transform="rotate(37.2414 505 505)" fill="yellow" stroke="black" stroke-width="0.5" />
<circle cx="505" cy="125" r="40" transform="rotate(49.6552 505 505)" fill="yellow" stroke="black" stroke-width="0.5" />
<circle cx="505" cy="125" r="40" transform="rotate(62.069 505 505)" fill="yellow" stroke="black" stroke-width="0.5" />
<circle cx="505" cy="125" r="40" transform="rotate(74.4828 505 505)" fill="yellow" stroke="black" stroke-width="0.5" />
<circle cx="505" cy="125" r="40" transform="rotate(86.8966 505 505)" fill="yellow" stroke="black" stroke-width="0.5" />
<circle cx="505" cy="125" r="40" transform="rotate(99.3103 505 505)" fill="yellow" stroke="black" stroke-width="0.5" />
<circle cx="505" cy="125" r="40" transform="rotate(111.724 505 505)" fill="yellow" stroke="black" stroke-width="0.5" />
<circle cx="505" cy="125" r="40" transform="rotate(124.138 505 505)" fill="yellow" stroke="black" stroke-width="0.5" />
<circle cx="505" cy="125" r="40" transform="rotate(136.552 505 505)" fill="yellow" stroke="black" stroke-width="0.5" />
<circle cx="505" cy="125" r="40" transform="rotate(148.966 505 505)" fill="yellow" stroke="black" stroke-width="0.5" />
<circle cx="505" cy="125" r="40" transform="rotate(161.379 505 505)" fill="yellow" stroke="black" stroke-width="0.5" />
<circle cx="505" cy="125" r="40" transform="rotate(173.793 505 505)" fill="yellow" stroke="black" stroke-width="0.5" />
<circle cx="505" cy="125" r="40" transform="rotate(186.207 505 505)" fill="yellow" stroke="black" stroke-width="0.5" />
<circle cx="505" cy="125" r="40" transform="rotate(198.621 505 505)" fill="yellow" stroke="black" stroke-width="0.5" />
<circle cx="505" cy="125" r="40" transform="rotate(211.034 505 505)" fill="yellow" stroke="black" stroke-width="0.5" />
<circle cx="505" cy="125" r="40" transform="rotate(223.448 505 505)" fill="yellow" stroke="black" stroke-width="0.5" />
<circle cx="505" cy="125" r="40" transform="rotate(235.862 505 505)" fill="yellow" stroke="black" stroke-width="0.5" />
<circle cx="505" cy="125" r="40" transform="rotate(248.276 505 505)" fill="yellow" stroke="black" stroke-width="0.5" />
<circle cx="505" cy="125" r="40" transform="rotate(260.69 505 505)" fill="yellow" stroke="black" stroke-width="0.5" />
<circle cx="505" cy="125" r="40" transform="rotate(273.103 505 505)" fill="yellow" stroke="black" stroke-width="0.5" />
<circle cx="505" cy="125" r="40" transform="rotate(285.517 505 505)" fill="yellow" stroke="black" stroke-width="0.5" />
<circle cx="505" cy="125" r="40" transform="rotate(297.931 505 505)" fill="yellow" stroke="black" stroke-width="0.5" />
<circle cx="505" cy="125" r="40" transform="rotate(310.345 505 505)" fill="yellow" stroke="black" stroke-width="0.5" />
<circle cx="505" cy="125" r="40" transform="rotate(322.759 505 505)" fill="yellow" stroke="black" stroke-width="0.5" />
<circle cx="505" cy="125" r="40" transform="rotate(335.172 505 505)" fill="yellow" stroke="black" stroke-width="0.5" />
<circle cx="505" cy="125" r="40" transform="rotate(347.586 505 505)" fill="yellow" stroke="black" stroke-width="0.5" />
<circle cx="505" cy="205" r="40" transform="rotate(0 505 505)" fill="yellow" stroke="black" stroke-width="0.5" />
<circle cx="505" cy="205" r="40" transform="rotate(15.6522 505 505)" fill="yellow" stroke="black" stroke-width="0.5" />
<circle cx="505" cy="205" r="40" transform="rotate(31.3043 505 505)" fill="yellow" stroke="black" stroke-width="0.5" />
<circle cx="505" cy="205" r="40" transform="rotate(46.9565 505 505)" fill="yellow" stroke="black" stroke-width="0.5" />
<circle cx="505" cy="205" r="40" transform="rotate(62.6087 505 505)" fill="yellow" stroke="black" stroke-width="0.5" />
<circle cx="505" cy="205" r="40" transform="rotate(78.2609 505 505)" fill="yellow" stroke="black" stroke-width="0.5" />
<circle cx="505" cy="205" r="40" transform="rotate(93.913 505 505)" fill="yellow" stroke="black" stroke-width="0.5" />
<circle cx="505" cy="205" r="40" transform="rotate(109.565 505 505)" fill="yellow" stroke="black" stroke-width="0.5" />
<circle cx="505" cy="205" r="40" transform="rotate(125.217 505 505)" fill="yellow" stroke="black" stroke-width="0.5" />
<circle cx="505" cy="205" r="40" transform="rotate(140.87 505 505)" fill="yellow" stroke="black" stroke-width="0.5" />
<circle cx="505" cy="205" r="40" transform="rotate(156.522 505 505)" fill="yellow" stroke="black" stroke-width="0.5" />
<circle cx="505" cy="205" r="40" transform="rotate(172.174 505 505)" fill="yellow" stroke="black" stroke-width="0.5" />
<circle cx="505" cy="205" r="40" transform="rotate(187.826 505 505)" fill="yellow" stroke="black" stroke-width="0.5" />
<circle cx="505" cy="205" r="40" transform="rotate(203.478 505 505)" fill="yellow" stroke="black" stroke-width="0.5" />
<circle cx="505" cy="205" r="40" transform="rotate(219.13 505 505)" fill="yellow" stroke="black" stroke-width="0.5" />
<circle cx="505" cy="205" r="40" transform="rotate(234.783 505 505)" fill="yellow" stroke="black" stroke-width="0.5" />
<circle cx="505" cy="205" r="40" transform="rotate(250.435 505 505)" fill="yellow" stroke="black" stroke-width="0.5" />
<circle cx="505" cy="205" r="40" transform="rotate(266.087 505 505)" fill="yellow" stroke="black" stroke-width="0.5" />
<circle cx="505" cy="205" r="40" transform="rotate(281.739 505 505)" fill="yellow" stroke="black" stroke-width="0.5" />
<circle cx="505" cy="205" r="40" transform="rotate(297.391 505 505)" fill="yellow" stroke="black" stroke-width="0.5" />
<circle cx="505" cy="205" r="40" transform="rotate(313.043 505 505)" fill="yellow" stroke="black" stroke-width="0.5" />
<circle cx="505" cy="205" r="40" transform="rotate(328.696 505 505)" fill="yellow" stroke="black" stroke-width="0.5" />
<circle cx="505" cy="205" r="40" transform="rotate(344.348 505 505)" fill="yellow" stroke="black" stroke-width="0.5" />
<circle cx="505" cy="285" r="40" transform="rotate(0 505 505)" fill="yellow" stroke="black" stroke-width="0.5" />
<circle cx="505" cy="285" r="40" transform="rotate(21.1765 505 505)" fill="yellow" stroke="black" stroke-width="0.5" />
<circle cx="505" cy="285" r="40" transform="rotate(42.3529 505 505)" fill="yellow" stroke="black" stroke-width="0.5" />
<circle cx="505" cy="285" r="40" transform="rotate(63.5294 505 505)" fill="yellow" stroke="black" stroke-width="0.5" />
<circle cx="505" cy="285" r="40" transform="rotate(84.7059 505 505)" fill="yellow" stroke="black" stroke-width="0.5" />
<circle cx="505" cy="285" r="40" transform="rotate(105.882 505 505)" fill="yellow" stroke="black" stroke-width="0.5" />
<circle cx="505" cy="285" r="40" transform="rotate(127.059 505 505)" fill="yellow" stroke="black" stroke-width="0.5" />
<circle cx="505" cy="285" r="40" transform="rotate(148.235 505 505)" fill="yellow" stroke="black" stroke-width="0.5" />
<circle cx="505" cy="285" r="40" transform="rotate(169.412 505 505)" fill="yellow" stroke="black" stroke-width="0.5" />
<circle cx="505" cy="285" r="40" transform="rotate(190.588 505 505)" fill="yellow" stroke="black" stroke-width="0.5" />
<circle cx="505" cy="285" r="40" transform="rotate(211.765 505 505)" fill="yellow" stroke="black" stroke-width="0.5" />
<circle cx="505" cy="285" r="40" transform="rotate(232.941 505 505)" fill="yellow" stroke="black" stroke-width="0.5" />
<circle cx="505" cy="285" r="40" transform="rotate(254.118 505 505)" fill="yellow" stroke="black" stroke-width="0.5" />
<circle cx="505" cy="285" r="40" transform="rotate(275.294 505 505)" fill="yellow" stroke="black" stroke-width="0.5" />
<circle cx="505" cy="285" r="40" transform="rotate(296.471 505 505)" fill="yellow" stroke="black" stroke-width="0.5" />
<circle cx="505" cy="285" r="40" transform="rotate(317.647 505 505)" fill="yellow" stroke="black" stroke-width="0.5" />
<circle cx="505" cy="285" r="40" transform="rotate(338.824 505 505)" fill="yellow" stroke="black" stroke-width="0.5" />
<circle cx="505" cy="365" r="40" transform="rotate(0 505 505)" fill="yellow" stroke="black" stroke-width="0.5" />
<circle cx="505" cy="365" r="40" transform="rotate(36 505 505)" fill="yellow" stroke="black" stroke-width="0.5" />
<circle cx="505" cy="365" r="40" transform="rotate(72 505 505)" fill="yellow" stroke="black" stroke-width="0.5" />
<circle cx="505" cy="365" r="40" transform="rotate(108 505 505)" fill="yellow" stroke="black" stroke-width="0.5" />
<circle cx="505" cy="365" r="40" transform="rotate(144 505 505)" fill="yellow" stroke="black" stroke-width="0.5" />
<circle cx="505" cy="365" r="40" transform="rotate(180 505 505)" fill="yellow" stroke="black" stroke-width="0.5" />
<circle cx="505" cy="365" r="40" transform="rotate(216 505 505)" fill="yellow" stroke="black" stroke-width="0.5" />
<circle cx="505" cy="365" r="40" transform="rotate(252 505 505)" fill="yellow" stroke="black" stroke-width="0.5" />
<circle cx="505" cy="365" r="40" transform="rotate(288 505 505)" fill="yellow" stroke="black" stroke-width="0.5" />
<circle cx="505" cy="365" r="40" transform="rotate(324 505 505)" fill="yellow" stroke="black" stroke-width="0.5" />
<circle cx="505" cy="445" r="40" transform="rotate(0 505 505)" fill="yellow" stroke="black" stroke-width="0.5" />
<circle cx="505" cy="445" r="40" transform="rotate(90 505 505)" fill="yellow" stroke="black" stroke-width="0.5" />
<circle cx="505" cy="445" r="40" transform="rotate(180 505 505)" fill="yellow" stroke="black" stroke-width="0.5" />
<circle cx="505" cy="445" r="40" transform="rotate(270 505 505)" fill="yellow" stroke="black" stroke-width="0.5" />
</svg>
