<svg version="1.1" baseProfile="full" xmlns="http://www.w3.org/2000/svg">
<rect x="0"  y="0" width="500" height="750" transform="rotate(0 0 0)" fill="pink" stroke="black" stroke-width="0.5" />
<polygon points="35,0 0,60.6218 70,60.6218" transform="rotate(0 0 0)" fill="magenta" stroke="black" stroke-width="0.5" />
<polygon points="105,0 70,60.6218 140,60.6218" transform="rotate(0 0 0)" fill="magenta" stroke="black" stroke-width="0.5" />
<polygon points="175,0 140,60.6218 210,60.6218" transform="rotate(0 0 0)" fill="magenta" stroke="black" stroke-width="0.5" />
<polygon points="245,0 210,60.6218 280,60.6218" transform="rotate(0 0 0)" fill="magenta" stroke="black" stroke-width="0.5" />
<polygon points="315,0 280,60.6218 350,60.6218" transform="rotate(0 0 0)" fill="magenta" stroke="black" stroke-width="0.5" />
<polygon points="385,0 350,60.6218 420,60.6218" transform="rotate(0 0 0)" fill="magenta" stroke="black" stroke-width="0.5" />
<polygon points="455,0 420,60.6218 490,60.6218" transform="rotate(0 0 0)" fill="magenta" stroke="black" stroke-width="0.5" />
<polygon points="35,60.6218 0,121.244 70,121.244" transform="rotate(0 0 0)" fill="magenta" stroke="black" stroke-width="0.5" />
<polygon points="105,60.6218 70,121.244 140,121.244" transform="rotate(0 0 0)" fill="magenta" stroke="black" stroke-width="0.5" />
<polygon points="175,60.6218 140,121.244 210,121.244" transform="rotate(0 0 0)" fill="magenta" stroke="black" stroke-width="0.5" />
<polygon points="245,60.6218 210,121.244 280,121.244" transform="rotate(0 0 0)" fill="magenta" stroke="black" stroke-width="0.5" />
<polygon points="315,60.6218 280,121.244 350,121.244" transform="rotate(0 0 0)" fill="magenta" stroke="black" stroke-width="0.5" />
<polygon points="385,60.6218 350,121.244 420,121.244" transform="rotate(0 0 0)" fill="magenta" stroke="black" stroke-width="0.5" />
<polygon points="455,60.6218 420,121.244 490,121.244" transform="rotate(0 0 0)" fill="magenta" stroke="black" stroke-width="0.5" />
<polygon points="35,121.244 0,181.865 70,181.865" transform="rotate(0 0 0)" fill="magenta" stroke="black" stroke-width="0.5" />
<polygon points="105,121.244 70,181.865 140,181.865" transform="rotate(0 0 0)" fill="magenta" stroke="black" stroke-width="0.5" />
<polygon points="175,121.244 140,181.865 210,181.865" transform="rotate(0 0 0)" fill="magenta" stroke="black" stroke-width="0.5" />
<polygon points="245,121.244 210,181.865 280,181.865" transform="rotate(0 0 0)" fill="magenta" stroke="black" stroke-width="0.5" />
<polygon points="315,121.244 280,181.865 350,181.865" transform="rotate(0 0 0)" fill="magenta" stroke="black" stroke-width="0.5" />
<polygon points="385,121.244 350,181.865 420,181.865" transform="rotate(0 0 0)" fill="magenta" stroke="black" stroke-width="0.5" />
<polygon points="455,121.244 420,181.865 490,181.865" transform="rotate(0 0 0)" fill="magenta" stroke="black" stroke-width="0.5" />
<polygon points="35,181.865 0,242.487 70,242.487" transform="rotate(0 0 0)" fill="magenta" stroke="black" stroke-width="0.5" />
<polygon points="105,181.865 70,242.487 140,242.487" transform="rotate(0 0 0)" fill="magenta" stroke="black" stroke-width="0.5" />
<polygon points="175,181.865 140,242.487 210,242.487" transform="rotate(0 0 0)" fill="magenta" stroke="black" stroke-width="0.5" />
<polygon points="245,181.865 210,242.487 280,242.487" transform="rotate(0 0 0)" fill="magenta" stroke="black" stroke-width="0.5" />
<polygon points="315,181.865 280,242.487 350,242.487" transform="rotate(0 0 0)" fill="magenta" stroke="black" stroke-width="0.5" />
<polygon points="385,181.865 350,242.487 420,242.487" transform="rotate(0 0 0)" fill="magenta" stroke="black" stroke-width="0.5" />
<polygon points="455,181.865 420,242.487 490,242.487" transform="rotate(0 0 0)" fill="magenta" stroke="black" stroke-width="0.5" />
<polygon points="35,242.487 0,303.109 70,303.109" transform="rotate(0 0 0)" fill="magenta" stroke="black" stroke-width="0.5" />
<polygon points="105,242.487 70,303.109 140,303.109" transform="rotate(0 0 0)" fill="magenta" stroke="black" stroke-width="0.5" />
<polygon points="175,242.487 140,303.109 210,303.109" transform="rotate(0 0 0)" fill="magenta" stroke="black" stroke-width="0.5" />
<polygon points="245,242.487 210,303.109 280,303.109" transform="rotate(0 0 0)" fill="magenta" stroke="black" stroke-width="0.5" />
<polygon points="315,242.487 280,303.109 350,303.109" transform="rotate(0 0 0)" fill="magenta" stroke="black" stroke-width="0.5" />
<polygon points="385,242.487 350,303.109 420,303.109" transform="rotate(0 0 0)" fill="magenta" stroke="black" stroke-width="0.5" />
<polygon points="455,242.487 420,303.109 490,303.109" transform="rotate(0 0 0)" fill="magenta" stroke="black" stroke-width="0.5" />
<polygon points="35,303.109 0,363.731 70,363.731" transform="rotate(0 0 0)" fill="magenta" stroke="black" stroke-width="0.5" />
<polygon points="105,303.109 70,363.731 140,363.731" transform="rotate(0 0 0)" fill="magenta" stroke="black" stroke-width="0.5" />
<polygon points="175,303.109 140,363.731 210,363.731" transform="rotate(0 0 0)" fill="magenta" stroke="black" stroke-width="0.5" />
<polygon points="245,303.109 210,363.731 280,363.731" transform="rotate(0 0 0)" fill="magenta" stroke="black" stroke-width="0.5" />
<polygon points="315,303.109 280,363.731 350,363.731" transform="rotate(0 0 0)" fill="magenta" stroke="black" stroke-width="0.5" />
<polygon points="385,303.109 350,363.731 420,363.731" transform="rotate(0 0 0)" fill="magenta" stroke="black" stroke-width="0.5" />
<polygon points="455,303.109 420,363.731 490,363.731" transform="rotate(0 0 0)" fill="magenta" stroke="black" stroke-width="0.5" />
<polygon points="35,363.731 0,424.352 70,424.352" transform="rotate(0 0 0)" fill="magenta" stroke="black" stroke-width="0.5" />
<polygon points="105,363.731 70,424.352 140,424.352" transform="rotate(0 0 0)" fill="magenta" stroke="black" stroke-width="0.5" />
<polygon points="175,363.731 140,424.352 210,424.352" transform="rotate(0 0 0)" fill="magenta" stroke="black" stroke-width="0.5" />
<polygon points="245,363.731 210,424.352 280,424.352" transform="rotate(0 0 0)" fill="magenta" stroke="black" stroke-width="0.5" />
<polygon points="315,363.731 280,424.352 350,424.352" transform="rotate(0 0 0)" fill="magenta" stroke="black" stroke-width="0.5" />
<polygon points="385,363.731 350,424.352 420,424.352" transform="rotate(0 0 0)" fill="magenta" stroke="black" stroke-width="0.5" />
<polygon points="455,363.731 420,424.352 490,424.352" transform="rotate(0 0 0)" fill="magenta" stroke="black" stroke-width="0.5" />
<polygon points="35,424.352 0,484.974 70,484.974" transform="rotate(0 0 0)" fill="magenta" stroke="black" stroke-width="0.5" />
<polygon points="105,424.352 70,484.974 140,484.974" transform="rotate(0 0 0)" fill="magenta" stroke="black" stroke-width="0.5" />
<polygon points="175,424.352 140,484.974 210,484.974" transform="rotate(0 0 0)" fill="magenta" stroke="black" stroke-width="0.5" />
<polygon points="245,424.352 210,484.974 280,484.974" transform="rotate(0 0 0)" fill="magenta" stroke="black" stroke-width="0.5" />
<polygon points="315,424.352 280,484.974 350,484.974" transform="rotate(0 0 0)" fill="magenta" stroke="black" stroke-width="0.5" />
<polygon points="385,424.352 350,484.974 420,484.974" transform="rotate(0 0 0)" fill="magenta" stroke="black" stroke-width="0.5" />
<polygon points="455,424.352 420,484.974 490,484.974" transform="rotate(0 0 0)" fill="magenta" stroke="black" stroke-width="0.5" />
<polygon points="35,484.974 0,545.596 70,545.596" transform="rotate(0 0 0)" fill="magenta" stroke="black" stroke-width="0.5" />
<polygon points="105,484.974 70,545.596 140,545.596" transform="rotate(0 0 0)" fill="magenta" stroke="black" stroke-width="0.5" />
<polygon points="175,484.974 140,545.596 210,545.596" transform="rotate(0 0 0)" fill="magenta" stroke="black" stroke-width="0.5" />
<polygon points="245,484.974 210,545.596 280,545.596" transform="rotate(0 0 0)" fill="magenta" stroke="black" stroke-width="0.5" />
<polygon points="315,484.974 280,545.596 350,545.596" transform="rotate(0 0 0)" fill="magenta" stroke="black" stroke-width="0.5" />
<polygon points="385,484.974 350,545.596 420,545.596" transform="rotate(0 0 0)" fill="magenta" stroke="black" stroke-width="0.5" />
<polygon points="455,484.974 420,545.596 490,545.596" transform="rotate(0 0 0)" fill="magenta" stroke="black" stroke-width="0.5" />
<polygon points="35,545.596 0,606.218 70,606.218" transform="rotate(0 0 0)" fill="magenta" stroke="black" stroke-width="0.5" />
<polygon points="105,545.596 70,606.218 140,606.218" transform="rotate(0 0 0)" fill="magenta" stroke="black" stroke-width="0.5" />
<polygon points="175,545.596 140,606.218 210,606.218" transform="rotate(0 0 0)" fill="magenta" stroke="black" stroke-width="0.5" />
<polygon points="245,545.596 210,606.218 280,606.218" transform="rotate(0 0 0)" fill="magenta" stroke="black" stroke-width="0.5" />
<polygon points="315,545.596 280,606.218 350,606.218" transform="rotate(0 0 0)" fill="magenta" stroke="black" stroke-width="0.5" />
<polygon points="385,545.596 350,606.218 420,606.218" transform="rotate(0 0 0)" fill="magenta" stroke="black" stroke-width="0.5" />
<polygon points="455,545.596 420,606.218 490,606.218" transform="rotate(0 0 0)" fill="magenta" stroke="black" stroke-width="0.5" />
<polygon points="35,606.218 0,666.84 70,666.84" transform="rotate(0 0 0)" fill="magenta" stroke="black" stroke-width="0.5" />
<polygon points="105,606.218 70,666.84 140,666.84" transform="rotate(0 0 0)" fill="magenta" stroke="black" stroke-width="0.5" />
<polygon points="175,606.218 140,666.84 210,666.84" transform="rotate(0 0 0)" fill="magenta" stroke="black" stroke-width="0.5" />
<polygon points="245,606.218 210,666.84 280,666.84" transform="rotate(0 0 0)" fill="magenta" stroke="black" stroke-width="0.5" />
<polygon points="315,606.218 280,666.84 350,666.84" transform="rotate(0 0 0)" fill="magenta" stroke="black" stroke-width="0.5" />
<polygon points="385,606.218 350,666.84 420,666.84" transform="rotate(0 0 0)" fill="magenta" stroke="black" stroke-width="0.5" />
<polygon points="455,606.218 420,666.84 490,666.84" transform="rotate(0 0 0)" fill="magenta" stroke="black" stroke-width="0.5" />
<polygon points="35,666.84 0,727.461 70,727.461" transform="rotate(0 0 0)" fill="magenta" stroke="black" stroke-width="0.5" />
<polygon points="105,666.84 70,727.461 140,727.461" transform="rotate(0 0 0)" fill="magenta" stroke="black" stroke-width="0.5" />
<polygon points="175,666.84 140,727.461 210,727.461" transform="rotate(0 0 0)" fill="magenta" stroke="black" stroke-width="0.5" />
<polygon points="245,666.84 210,727.461 280,727.461" transform="rotate(0 0 0)" fill="magenta" stroke="black" stroke-width="0.5" />
<polygon points="315,666.84 280,727.461 350,727.461" transform="rotate(0 0 0)" fill="magenta" stroke="black" stroke-width="0.5" />
<polygon points="385,666.84 350,727.461 420,727.461" transform="rotate(0 0 0)" fill="magenta" stroke="black" stroke-width="0.5" />
<polygon points="455,666.84 420,727.461 490,727.461" transform="rotate(0 0 0)" fill="magenta" stroke="black" stroke-width="0.5" />
<polygon points="35,0 70,60.6218 105,0" transform="rotate(0 0 0)" fill="magenta" stroke="black" stroke-width="0.5" />
<polygon points="105,0 140,60.6218 175,0" transform="rotate(0 0 0)" fill="magenta" stroke="black" stroke-width="0.5" />
<polygon points="175,0 210,60.6218 245,0" transform="rotate(0 0 0)" fill="magenta" stroke="black" stroke-width="0.5" />
<polygon points="245,0 280,60.6218 315,0" transform="rotate(0 0 0)" fill="magenta" stroke="black" stroke-width="0.5" />
<polygon points="315,0 350,60.6218 385,0" transform="rotate(0 0 0)" fill="magenta" stroke="black" stroke-width="0.5" />
<polygon points="385,0 420,60.6218 455,0" transform="rotate(0 0 0)" fill="magenta" stroke="black" stroke-width="0.5" />
<polygon points="35,60.6218 70,121.244 105,60.6218" transform="rotate(0 0 0)" fill="magenta" stroke="black" stroke-width="0.5" />
<polygon points="105,60.6218 140,121.244 175,60.6218" transform="rotate(0 0 0)" fill="magenta" stroke="black" stroke-width="0.5" />
<polygon points="175,60.6218 210,121.244 245,60.6218" transform="rotate(0 0 0)" fill="magenta" stroke="black" stroke-width="0.5" />
<polygon points="245,60.6218 280,121.244 315,60.6218" transform="rotate(0 0 0)" fill="magenta" stroke="black" stroke-width="0.5" />
<polygon points="315,60.6218 350,121.244 385,60.6218" transform="rotate(0 0 0)" fill="magenta" stroke="black" stroke-width="0.5" />
<polygon points="385,60.6218 420,121.244 455,60.6218" transform="rotate(0 0 0)" fill="magenta" stroke="black" stroke-width="0.5" />
<polygon points="35,121.244 70,181.865 105,121.244" transform="rotate(0 0 0)" fill="magenta" stroke="black" stroke-width="0.5" />
<polygon points="105,121.244 140,181.865 175,121.244" transform="rotate(0 0 0)" fill="magenta" stroke="black" stroke-width="0.5" />
<polygon points="175,121.244 210,181.865 245,121.244" transform="rotate(0 0 0)" fill="magenta" stroke="black" stroke-width="0.5" />
<polygon points="245,121.244 280,181.865 315,121.244" transform="rotate(0 0 0)" fill="magenta" stroke="black" stroke-width="0.5" />
<polygon points="315,121.244 350,181.865 385,121.244" transform="rotate(0 0 0)" fill="magenta" stroke="black" stroke-width="0.5" />
<polygon points="385,121.244 420,181.865 455,121.244" transform="rotate(0 0 0)" fill="magenta" stroke="black" stroke-width="0.5" />
<polygon points="35,181.865 70,242.487 105,181.865" transform="rotate(0 0 0)" fill="magenta" stroke="black" stroke-width="0.5" />
<polygon points="105,181.865 140,242.487 175,181.865" transform="rotate(0 0 0)" fill="magenta" stroke="black" stroke-width="0.5" />
<polygon points="175,181.865 210,242.487 245,181.865" transform="rotate(0 0 0)" fill="magenta" stroke="black" stroke-width="0.5" />
<polygon points="245,181.865 280,242.487 315,181.865" transform="rotate(0 0 0)" fill="magenta" stroke="black" stroke-width="0.5" />
<polygon points="315,181.865 350,242.487 385,181.865" transform="rotate(0 0 0)" fill="magenta" stroke="black" stroke-width="0.5" />
<polygon points="385,181.865 420,242.487 455,181.865" transform="rotate(0 0 0)" fill="magenta" stroke="black" stroke-width="0.5" />
<polygon points="35,242.487 70,303.109 105,242.487" transform="rotate(0 0 0)" fill="magenta" stroke="black" stroke-width="0.5" />
<polygon points="105,242.487 140,303.109 175,242.487" transform="rotate(0 0 0)" fill="magenta" stroke="black" stroke-width="0.5" />
<polygon points="175,242.487 210,303.109 245,242.487" transform="rotate(0 0 0)" fill="magenta" stroke="black" stroke-width="0.5" />
<polygon points="245,242.487 280,303.109 315,242.487" transform="rotate(0 0 0)" fill="magenta" stroke="black" stroke-width="0.5" />
<polygon points="315,242.487 350,303.109 385,242.487" transform="rotate(0 0 0)" fill="magenta" stroke="black" stroke-width="0.5" />
<polygon points="385,242.487 420,303.109 455,242.487" transform="rotate(0 0 0)" fill="magenta" stroke="black" stroke-width="0.5" />
<polygon points="35,303.109 70,363.731 105,303.109" transform="rotate(0 0 0)" fill="magenta" stroke="black" stroke-width="0.5" />
<polygon points="105,303.109 140,363.731 175,303.109" transform="rotate(0 0 0)" fill="magenta" stroke="black" stroke-width="0.5" />
<polygon points="175,303.109 210,363.731 245,303.109" transform="rotate(0 0 0)" fill="magenta" stroke="black" stroke-width="0.5" />
<polygon points="245,303.109 280,363.731 315,303.109" transform="rotate(0 0 0)" fill="magenta" stroke="black" stroke-width="0.5" />
<polygon points="315,303.109 350,363.731 385,303.109" transform="rotate(0 0 0)" fill="magenta" stroke="black" stroke-width="0.5" />
<polygon points="385,303.109 420,363.731 455,303.109" transform="rotate(0 0 0)" fill="magenta" stroke="black" stroke-width="0.5" />
<polygon points="35,363.731 70,424.352 105,363.731" transform="rotate(0 0 0)" fill="magenta" stroke="black" stroke-width="0.5" />
<polygon points="105,363.731 140,424.352 175,363.731" transform="rotate(0 0 0)" fill="magenta" stroke="black" stroke-width="0.5" />
<polygon points="175,363.731 210,424.352 245,363.731" transform="rotate(0 0 0)" fill="magenta" stroke="black" stroke-width="0.5" />
<polygon points="245,363.731 280,424.352 315,363.731" transform="rotate(0 0 0)" fill="magenta" stroke="black" stroke-width="0.5" />
<polygon points="315,363.731 350,424.352 385,363.731" transform="rotate(0 0 0)" fill="magenta" stroke="black" stroke-width="0.5" />
<polygon points="385,363.731 420,424.352 455,363.731" transform="rotate(0 0 0)" fill="magenta" stroke="black" stroke-width="0.5" />
<polygon points="35,424.352 70,484.974 105,424.352" transform="rotate(0 0 0)" fill="magenta" stroke="black" stroke-width="0.5" />
<polygon points="105,424.352 140,484.974 175,424.352" transform="rotate(0 0 0)" fill="magenta" stroke="black" stroke-width="0.5" />
<polygon points="175,424.352 210,484.974 245,424.352" transform="rotate(0 0 0)" fill="magenta" stroke="black" stroke-width="0.5" />
<polygon points="245,424.352 280,484.974 315,424.352" transform="rotate(0 0 0)" fill="magenta" stroke="black" stroke-width="0.5" />
<polygon points="315,424.352 350,484.974 385,424.352" transform="rotate(0 0 0)" fill="magenta" stroke="black" stroke-width="0.5" />
<polygon points="385,424.352 420,484.974 455,424.352" transform="rotate(0 0 0)" fill="magenta" stroke="black" stroke-width="0.5" />
<polygon points="35,484.974 70,545.596 105,484.974" transform="rotate(0 0 0)" fill="magenta" stroke="black" stroke-width="0.5" />
<polygon points="105,484.974 140,545.596 175,484.974" transform="rotate(0 0 0)" fill="magenta" stroke="black" stroke-width="0.5" />
<polygon points="175,484.974 210,545.596 245,484.974" transform="rotate(0 0 0)" fill="magenta" stroke="black" stroke-width="0.5" />
<polygon points="245,484.974 280,545.596 315,484.974" transform="rotate(0 0 0)" fill="magenta" stroke="black" stroke-width="0.5" />
<polygon points="315,484.974 350,545.596 385,484.974" transform="rotate(0 0 0)" fill="magenta" stroke="black" stroke-width="0.5" />
<polygon points="385,484.974 420,545.596 455,484.974" transform="rotate(0 0 0)" fill="magenta" stroke="black" stroke-width="0.5" />
<polygon points="35,545.596 70,606.218 105,545.596" transform="rotate(0 0 0)" fill="magenta" stroke="black" stroke-width="0.5" />
<polygon points="105,545.596 140,606.218 175,545.596" transform="rotate(0 0 0)" fill="magenta" stroke="black" stroke-width="0.5" />
<polygon points="175,545.596 210,606.218 245,545.596" transform="rotate(0 0 0)" fill="magenta" stroke="black" stroke-width="0.5" />
<polygon points="245,545.596 280,606.218 315,545.596" transform="rotate(0 0 0)" fill="magenta" stroke="black" stroke-width="0.5" />
<polygon points="315,545.596 350,606.218 385,545.596" transform="rotate(0 0 0)" fill="magenta" stroke="black" stroke-width="0.5" />
<polygon points="385,545.596 420,606.218 455,545.596" transform="rotate(0 0 0)" fill="magenta" stroke="black" stroke-width="0.5" />
<polygon points="35,606.218 70,666.84 105,606.218" transform="rotate(0 0 0)" fill="magenta" stroke="black" stroke-width="0.5" />
<polygon points="105,606.218 140,666.84 175,606.218" transform="rotate(0 0 0)" fill="magenta" stroke="black" stroke-width="0.5" />
<polygon points="175,606.218 210,666.84 245,606.218" transform="rotate(0 0 0)" fill="magenta" stroke="black" stroke-width="0.5" />
<polygon points="245,606.218 280,666.84 315,606.218" transform="rotate(0 0 0)" fill="magenta" stroke="black" stroke-width="0.5" />
<polygon points="315,606.218 350,666.84 385,606.218" transform="rotate(0 0 0)" fill="magenta" stroke="black" stroke-width="0.5" />
<polygon points="385,606.218 420,666.84 455,606.218" transform="rotate(0 0 0)" fill="magenta" stroke="black" stroke-width="0.5" />
<polygon points="35,666.84 70,727.461 105,666.84" transform="rotate(0 0 0)" fill="magenta" stroke="black" stroke-width="0.5" />
<polygon points="105,666.84 140,727.461 175,666.84" transform="rotate(0 0 0)" fill="magenta" stroke="black" stroke-width="0.5" />
<polygon points="175,666.84 210,727.461 245,666.84" transform="rotate(0 0 0)" fill="magenta" stroke="black" stroke-width="0.5" />
<polygon points="245,666.84 280,727.461 315,666.84" transform="rotate(0 0 0)" fill="magenta" stroke="black" stroke-width="0.5" />
<polygon points="315,666.84 350,727.461 385,666.84" transform="rotate(0 0 0)" fill="magenta" stroke="black" stroke-width="0.5" />
<polygon points="385,666.84 420,727.461 455,666.84" transform="rotate(0 0 0)" fill="magenta" stroke="black" stroke-width="0.5" />
</svg>
