<svg version="1.1" baseProfile="full" xmlns="http://www.w3.org/2000/svg">
<circle cx="300" cy="300" r="300" transform="rotate(0 0 0)" fill="brown" stroke="black" stroke-width="0.5" />
<rect x="87.868"  y="87.868" width="110" height="15" transform="rotate(0 87.868 87.868)" fill="green" stroke="black" stroke-width="0.5" />
<rect x="197.868"  y="87.868" width="110" height="15" transform="rotate(0 87.868 87.868)" fill="green" stroke="black" stroke-width="0.5" />
<rect x="307.868"  y="87.868" width="110" height="15" transform="rotate(0 87.868 87.868)" fill="green" stroke="black" stroke-width="0.5" />
<rect x="87.868"  y="102.868" width="110" height="15" transform="rotate(0 87.868 87.868)" fill="green" stroke="black" stroke-width="0.5" />
<rect x="197.868"  y="102.868" width="110" height="15" transform="rotate(0 87.868 87.868)" fill="green" stroke="black" stroke-width="0.5" />
<rect x="307.868"  y="102.868" width="110" height="15" transform="rotate(0 87.868 87.868)" fill="green" stroke="black" stroke-width="0.5" />
<rect x="87.868"  y="117.868" width="110" height="15" transform="rotate(0 87.868 87.868)" fill="green" stroke="black" stroke-width="0.5" />
<rect x="197.868"  y="117.868" width="110" height="15" transform="rotate(0 87.868 87.868)" fill="green" stroke="black" stroke-width="0.5" />
<rect x="307.868"  y="117.868" width="110" height="15" transform="rotate(0 87.868 87.868)" fill="green" stroke="black" stroke-width="0.5" />
<rect x="87.868"  y="132.868" width="110" height="15" transform="rotate(0 87.868 87.868)" fill="green" stroke="black" stroke-width="0.5" />
<rect x="197.868"  y="132.868" width="110" height="15" transform="rotate(0 87.868 87.868)" fill="green" stroke="black" stroke-width="0.5" />
<rect x="307.868"  y="132.868" width="110" height="15" transform="rotate(0 87.868 87.868)" fill="green" stroke="black" stroke-width="0.5" />
<rect x="87.868"  y="147.868" width="110" height="15" transform="rotate(0 87.868 87.868)" fill="green" stroke="black" stroke-width="0.5" />
<rect x="197.868"  y="147.868" width="110" height="15" transform="rotate(0 87.868 87.868)" fill="green" stroke="black" stroke-width="0.5" />
<rect x="307.868"  y="147.868" width="110" height="15" transform="rotate(0 87.868 87.868)" fill="green" stroke="black" stroke-width="0.5" />
<rect x="87.868"  y="162.868" width="110" height="15" transform="rotate(0 87.868 87.868)" fill="green" stroke="black" stroke-width="0.5" />
<rect x="197.868"  y="162.868" width="110" height="15" transform="rotate(0 87.868 87.868)" fill="green" stroke="black" stroke-width="0.5" />
<rect x="307.868"  y="162.868" width="110" height="15" transform="rotate(0 87.868 87.868)" fill="green" stroke="black" stroke-width="0.5" />
<rect x="87.868"  y="177.868" width="110" height="15" transform="rotate(0 87.868 87.868)" fill="green" stroke="black" stroke-width="0.5" />
<rect x="197.868"  y="177.868" width="110" height="15" transform="rotate(0 87.868 87.868)" fill="green" stroke="black" stroke-width="0.5" />
<rect x="307.868"  y="177.868" width="110" height="15" transform="rotate(0 87.868 87.868)" fill="green" stroke="black" stroke-width="0.5" />
<rect x="87.868"  y="192.868" width="110" height="15" transform="rotate(0 87.868 87.868)" fill="green" stroke="black" stroke-width="0.5" />
<rect x="197.868"  y="192.868" width="110" height="15" transform="rotate(0 87.868 87.868)" fill="green" stroke="black" stroke-width="0.5" />
<rect x="307.868"  y="192.868" width="110" height="15" transform="rotate(0 87.868 87.868)" fill="green" stroke="black" stroke-width="0.5" />
<rect x="87.868"  y="207.868" width="110" height="15" transform="rotate(0 87.868 87.868)" fill="green" stroke="black" stroke-width="0.5" />
<rect x="197.868"  y="207.868" width="110" height="15" transform="rotate(0 87.868 87.868)" fill="green" stroke="black" stroke-width="0.5" />
<rect x="307.868"  y="207.868" width="110" height="15" transform="rotate(0 87.868 87.868)" fill="green" stroke="black" stroke-width="0.5" />
<rect x="87.868"  y="222.868" width="110" height="15" transform="rotate(0 87.868 87.868)" fill="green" stroke="black" stroke-width="0.5" />
<rect x="197.868"  y="222.868" width="110" height="15" transform="rotate(0 87.868 87.868)" fill="green" stroke="black" stroke-width="0.5" />
<rect x="307.868"  y="222.868" width="110" height="15" transform="rotate(0 87.868 87.868)" fill="green" stroke="black" stroke-width="0.5" />
<rect x="87.868"  y="237.868" width="110" height="15" transform="rotate(0 87.868 87.868)" fill="green" stroke="black" stroke-width="0.5" />
<rect x="197.868"  y="237.868" width="110" height="15" transform="rotate(0 87.868 87.868)" fill="green" stroke="black" stroke-width="0.5" />
<rect x="307.868"  y="237.868" width="110" height="15" transform="rotate(0 87.868 87.868)" fill="green" stroke="black" stroke-width="0.5" />
<rect x="87.868"  y="252.868" width="110" height="15" transform="rotate(0 87.868 87.868)" fill="green" stroke="black" stroke-width="0.5" />
<rect x="197.868"  y="252.868" width="110" height="15" transform="rotate(0 87.868 87.868)" fill="green" stroke="black" stroke-width="0.5" />
<rect x="307.868"  y="252.868" width="110" height="15" transform="rotate(0 87.868 87.868)" fill="green" stroke="black" stroke-width="0.5" />
<rect x="87.868"  y="267.868" width="110" height="15" transform="rotate(0 87.868 87.868)" fill="green" stroke="black" stroke-width="0.5" />
<rect x="197.868"  y="267.868" width="110" height="15" transform="rotate(0 87.868 87.868)" fill="green" stroke="black" stroke-width="0.5" />
<rect x="307.868"  y="267.868" width="110" height="15" transform="rotate(0 87.868 87.868)" fill="green" stroke="black" stroke-width="0.5" />
<rect x="87.868"  y="282.868" width="110" height="15" transform="rotate(0 87.868 87.868)" fill="green" stroke="black" stroke-width="0.5" />
<rect x="197.868"  y="282.868" width="110" height="15" transform="rotate(0 87.868 87.868)" fill="green" stroke="black" stroke-width="0.5" />
<rect x="307.868"  y="282.868" width="110" height="15" transform="rotate(0 87.868 87.868)" fill="green" stroke="black" stroke-width="0.5" />
<rect x="87.868"  y="297.868" width="110" height="15" transform="rotate(0 87.868 87.868)" fill="green" stroke="black" stroke-width="0.5" />
<rect x="197.868"  y="297.868" width="110" height="15" transform="rotate(0 87.868 87.868)" fill="green" stroke="black" stroke-width="0.5" />
<rect x="307.868"  y="297.868" width="110" height="15" transform="rotate(0 87.868 87.868)" fill="green" stroke="black" stroke-width="0.5" />
<rect x="87.868"  y="312.868" width="110" height="15" transform="rotate(0 87.868 87.868)" fill="green" stroke="black" stroke-width="0.5" />
<rect x="197.868"  y="312.868" width="110" height="15" transform="rotate(0 87.868 87.868)" fill="green" stroke="black" stroke-width="0.5" />
<rect x="307.868"  y="312.868" width="110" height="15" transform="rotate(0 87.868 87.868)" fill="green" stroke="black" stroke-width="0.5" />
<rect x="87.868"  y="327.868" width="110" height="15" transform="rotate(0 87.868 87.868)" fill="green" stroke="black" stroke-width="0.5" />
<rect x="197.868"  y="327.868" width="110" height="15" transform="rotate(0 87.868 87.868)" fill="green" stroke="black" stroke-width="0.5" />
<rect x="307.868"  y="327.868" width="110" height="15" transform="rotate(0 87.868 87.868)" fill="green" stroke="black" stroke-width="0.5" />
<rect x="87.868"  y="342.868" width="110" height="15" transform="rotate(0 87.868 87.868)" fill="green" stroke="black" stroke-width="0.5" />
<rect x="197.868"  y="342.868" width="110" height="15" transform="rotate(0 87.868 87.868)" fill="green" stroke="black" stroke-width="0.5" />
<rect x="307.868"  y="342.868" width="110" height="15" transform="rotate(0 87.868 87.868)" fill="green" stroke="black" stroke-width="0.5" />
<rect x="87.868"  y="357.868" width="110" height="15" transform="rotate(0 87.868 87.868)" fill="green" stroke="black" stroke-width="0.5" />
<rect x="197.868"  y="357.868" width="110" height="15" transform="rotate(0 87.868 87.868)" fill="green" stroke="black" stroke-width="0.5" />
<rect x="307.868"  y="357.868" width="110" height="15" transform="rotate(0 87.868 87.868)" fill="green" stroke="black" stroke-width="0.5" />
<rect x="87.868"  y="372.868" width="110" height="15" transform="rotate(0 87.868 87.868)" fill="green" stroke="black" stroke-width="0.5" />
<rect x="197.868"  y="372.868" width="110" height="15" transform="rotate(0 87.868 87.868)" fill="green" stroke="black" stroke-width="0.5" />
<rect x="307.868"  y="372.868" width="110" height="15" transform="rotate(0 87.868 87.868)" fill="green" stroke="black" stroke-width="0.5" />
<rect x="87.868"  y="387.868" width="110" height="15" transform="rotate(0 87.868 87.868)" fill="green" stroke="black" stroke-width="0.5" />
<rect x="197.868"  y="387.868" width="110" height="15" transform="rotate(0 87.868 87.868)" fill="green" stroke="black" stroke-width="0.5" />
<rect x="307.868"  y="387.868" width="110" height="15" transform="rotate(0 87.868 87.868)" fill="green" stroke="black" stroke-width="0.5" />
<rect x="87.868"  y="402.868" width="110" height="15" transform="rotate(0 87.868 87.868)" fill="green" stroke="black" stroke-width="0.5" />
<rect x="197.868"  y="402.868" width="110" height="15" transform="rotate(0 87.868 87.868)" fill="green" stroke="black" stroke-width="0.5" />
<rect x="307.868"  y="402.868" width="110" height="15" transform="rotate(0 87.868 87.868)" fill="green" stroke="black" stroke-width="0.5" />
<rect x="87.868"  y="417.868" width="110" height="15" transform="rotate(0 87.868 87.868)" fill="green" stroke="black" stroke-width="0.5" />
<rect x="197.868"  y="417.868" width="110" height="15" transform="rotate(0 87.868 87.868)" fill="green" stroke="black" stroke-width="0.5" />
<rect x="307.868"  y="417.868" width="110" height="15" transform="rotate(0 87.868 87.868)" fill="green" stroke="black" stroke-width="0.5" />
<rect x="87.868"  y="432.868" width="110" height="15" transform="rotate(0 87.868 87.868)" fill="green" stroke="black" stroke-width="0.5" />
<rect x="197.868"  y="432.868" width="110" height="15" transform="rotate(0 87.868 87.868)" fill="green" stroke="black" stroke-width="0.5" />
<rect x="307.868"  y="432.868" width="110" height="15" transform="rotate(0 87.868 87.868)" fill="green" stroke="black" stroke-width="0.5" />
<rect x="87.868"  y="447.868" width="110" height="15" transform="rotate(0 87.868 87.868)" fill="green" stroke="black" stroke-width="0.5" />
<rect x="197.868"  y="447.868" width="110" height="15" transform="rotate(0 87.868 87.868)" fill="green" stroke="black" stroke-width="0.5" />
<rect x="307.868"  y="447.868" width="110" height="15" transform="rotate(0 87.868 87.868)" fill="green" stroke="black" stroke-width="0.5" />
<rect x="87.868"  y="462.868" width="110" height="15" transform="rotate(0 87.868 87.868)" fill="green" stroke="black" stroke-width="0.5" />
<rect x="197.868"  y="462.868" width="110" height="15" transform="rotate(0 87.868 87.868)" fill="green" stroke="black" stroke-width="0.5" />
<rect x="307.868"  y="462.868" width="110" height="15" transform="rotate(0 87.868 87.868)" fill="green" stroke="black" stroke-width="0.5" />
<rect x="87.868"  y="477.868" width="110" height="15" transform="rotate(0 87.868 87.868)" fill="green" stroke="black" stroke-width="0.5" />
<rect x="197.868"  y="477.868" width="110" height="15" transform="rotate(0 87.868 87.868)" fill="green" stroke="black" stroke-width="0.5" />
<rect x="307.868"  y="477.868" width="110" height="15" transform="rotate(0 87.868 87.868)" fill="green" stroke="black" stroke-width="0.5" />
<rect x="87.868"  y="492.868" width="110" height="15" transform="rotate(0 87.868 87.868)" fill="green" stroke="black" stroke-width="0.5" />
<rect x="197.868"  y="492.868" width="110" height="15" transform="rotate(0 87.868 87.868)" fill="green" stroke="black" stroke-width="0.5" />
<rect x="307.868"  y="492.868" width="110" height="15" transform="rotate(0 87.868 87.868)" fill="green" stroke="black" stroke-width="0.5" />
<rect x="417.868"  y="87.868" width="15" height="110" transform="rotate(0 87.868 87.868)" fill="green" stroke="black" stroke-width="0.5" />
<rect x="417.868"  y="197.868" width="15" height="110" transform="rotate(0 87.868 87.868)" fill="green" stroke="black" stroke-width="0.5" />
<rect x="417.868"  y="307.868" width="15" height="110" transform="rotate(0 87.868 87.868)" fill="green" stroke="black" stroke-width="0.5" />
<rect x="432.868"  y="87.868" width="15" height="110" transform="rotate(0 87.868 87.868)" fill="green" stroke="black" stroke-width="0.5" />
<rect x="432.868"  y="197.868" width="15" height="110" transform="rotate(0 87.868 87.868)" fill="green" stroke="black" stroke-width="0.5" />
<rect x="432.868"  y="307.868" width="15" height="110" transform="rotate(0 87.868 87.868)" fill="green" stroke="black" stroke-width="0.5" />
<rect x="447.868"  y="87.868" width="15" height="110" transform="rotate(0 87.868 87.868)" fill="green" stroke="black" stroke-width="0.5" />
<rect x="447.868"  y="197.868" width="15" height="110" transform="rotate(0 87.868 87.868)" fill="green" stroke="black" stroke-width="0.5" />
<rect x="447.868"  y="307.868" width="15" height="110" transform="rotate(0 87.868 87.868)" fill="green" stroke="black" stroke-width="0.5" />
<rect x="462.868"  y="87.868" width="15" height="110" transform="rotate(0 87.868 87.868)" fill="green" stroke="black" stroke-width="0.5" />
<rect x="462.868"  y="197.868" width="15" height="110" transform="rotate(0 87.868 87.868)" fill="green" stroke="black" stroke-width="0.5" />
<rect x="462.868"  y="307.868" width="15" height="110" transform="rotate(0 87.868 87.868)" fill="green" stroke="black" stroke-width="0.5" />
<rect x="477.868"  y="87.868" width="15" height="110" transform="rotate(0 87.868 87.868)" fill="green" stroke="black" stroke-width="0.5" />
<rect x="477.868"  y="197.868" width="15" height="110" transform="rotate(0 87.868 87.868)" fill="green" stroke="black" stroke-width="0.5" />
<rect x="477.868"  y="307.868" width="15" height="110" transform="rotate(0 87.868 87.868)" fill="green" stroke="black" stroke-width="0.5" />
<rect x="492.868"  y="87.868" width="15" height="110" transform="rotate(0 87.868 87.868)" fill="green" stroke="black" stroke-width="0.5" />
<rect x="492.868"  y="197.868" width="15" height="110" transform="rotate(0 87.868 87.868)" fill="green" stroke="black" stroke-width="0.5" />
<rect x="492.868"  y="307.868" width="15" height="110" transform="rotate(0 87.868 87.868)" fill="green" stroke="black" stroke-width="0.5" />
<rect x="300"  y="512.132" width="110" height="15" transform="rotate(0 300 300)" fill="green" stroke="black" stroke-width="0.5" />
<rect x="190"  y="512.132" width="110" height="15" transform="rotate(0 300 300)" fill="green" stroke="black" stroke-width="0.5" />
<rect x="300"  y="527.132" width="110" height="15" transform="rotate(0 300 300)" fill="green" stroke="black" stroke-width="0.5" />
<rect x="190"  y="527.132" width="110" height="15" transform="rotate(0 300 300)" fill="green" stroke="black" stroke-width="0.5" />
<rect x="300"  y="542.132" width="110" height="15" transform="rotate(0 300 300)" fill="green" stroke="black" stroke-width="0.5" />
<rect x="190"  y="542.132" width="110" height="15" transform="rotate(0 300 300)" fill="green" stroke="black" stroke-width="0.5" />
<rect x="300"  y="557.132" width="110" height="15" transform="rotate(0 300 300)" fill="green" stroke="black" stroke-width="0.5" />
<rect x="190"  y="557.132" width="110" height="15" transform="rotate(0 300 300)" fill="green" stroke="black" stroke-width="0.5" />
<rect x="300"  y="512.132" width="110" height="15" transform="rotate(90 300 300)" fill="green" stroke="black" stroke-width="0.5" />
<rect x="190"  y="512.132" width="110" height="15" transform="rotate(90 300 300)" fill="green" stroke="black" stroke-width="0.5" />
<rect x="300"  y="527.132" width="110" height="15" transform="rotate(90 300 300)" fill="green" stroke="black" stroke-width="0.5" />
<rect x="190"  y="527.132" width="110" height="15" transform="rotate(90 300 300)" fill="green" stroke="black" stroke-width="0.5" />
<rect x="300"  y="542.132" width="110" height="15" transform="rotate(90 300 300)" fill="green" stroke="black" stroke-width="0.5" />
<rect x="190"  y="542.132" width="110" height="15" transform="rotate(90 300 300)" fill="green" stroke="black" stroke-width="0.5" />
<rect x="300"  y="557.132" width="110" height="15" transform="rotate(90 300 300)" fill="green" stroke="black" stroke-width="0.5" />
<rect x="190"  y="557.132" width="110" height="15" transform="rotate(90 300 300)" fill="green" stroke="black" stroke-width="0.5" />
<rect x="300"  y="512.132" width="110" height="15" transform="rotate(180 300 300)" fill="green" stroke="black" stroke-width="0.5" />
<rect x="190"  y="512.132" width="110" height="15" transform="rotate(180 300 300)" fill="green" stroke="black" stroke-width="0.5" />
<rect x="300"  y="527.132" width="110" height="15" transform="rotate(180 300 300)" fill="green" stroke="black" stroke-width="0.5" />
<rect x="190"  y="527.132" width="110" height="15" transform="rotate(180 300 300)" fill="green" stroke="black" stroke-width="0.5" />
<rect x="300"  y="542.132" width="110" height="15" transform="rotate(180 300 300)" fill="green" stroke="black" stroke-width="0.5" />
<rect x="190"  y="542.132" width="110" height="15" transform="rotate(180 300 300)" fill="green" stroke="black" stroke-width="0.5" />
<rect x="300"  y="557.132" width="110" height="15" transform="rotate(180 300 300)" fill="green" stroke="black" stroke-width="0.5" />
<rect x="190"  y="557.132" width="110" height="15" transform="rotate(180 300 300)" fill="green" stroke="black" stroke-width="0.5" />
<rect x="300"  y="512.132" width="110" height="15" transform="rotate(270 300 300)" fill="green" stroke="black" stroke-width="0.5" />
<rect x="190"  y="512.132" width="110" height="15" transform="rotate(270 300 300)" fill="green" stroke="black" stroke-width="0.5" />
<rect x="300"  y="527.132" width="110" height="15" transform="rotate(270 300 300)" fill="green" stroke="black" stroke-width="0.5" />
<rect x="190"  y="527.132" width="110" height="15" transform="rotate(270 300 300)" fill="green" stroke="black" stroke-width="0.5" />
<rect x="300"  y="542.132" width="110" height="15" transform="rotate(270 300 300)" fill="green" stroke="black" stroke-width="0.5" />
<rect x="190"  y="542.132" width="110" height="15" transform="rotate(270 300 300)" fill="green" stroke="black" stroke-width="0.5" />
<rect x="300"  y="557.132" width="110" height="15" transform="rotate(270 300 300)" fill="green" stroke="black" stroke-width="0.5" />
<rect x="190"  y="557.132" width="110" height="15" transform="rotate(270 300 300)" fill="green" stroke="black" stroke-width="0.5" />
</svg>
