<svg version="1.1" baseProfile="full" xmlns="http://www.w3.org/2000/svg">
<circle cx="505" cy="505" r="500" transform="rotate(0 0 0)" fill="purple" stroke="black" stroke-width="0.5" />
<circle cx="505" cy="30" r="25" transform="rotate(0 505 505)" fill="magenta" stroke="black" stroke-width="0.5" />
<circle cx="505" cy="30" r="25" transform="rotate(6.10169 505 505)" fill="magenta" stroke="black" stroke-width="0.5" />
<circle cx="505" cy="30" r="25" transform="rotate(12.2034 505 505)" fill="magenta" stroke="black" stroke-width="0.5" />
<circle cx="505" cy="30" r="25" transform="rotate(18.3051 505 505)" fill="magenta" stroke="black" stroke-width="0.5" />
<circle cx="505" cy="30" r="25" transform="rotate(24.4068 505 505)" fill="magenta" stroke="black" stroke-width="0.5" />
<circle cx="505" cy="30" r="25" transform="rotate(30.5085 505 505)" fill="magenta" stroke="black" stroke-width="0.5" />
<circle cx="505" cy="30" r="25" transform="rotate(36.6102 505 505)" fill="magenta" stroke="black" stroke-width="0.5" />
<circle cx="505" cy="30" r="25" transform="rotate(42.7119 505 505)" fill="magenta" stroke="black" stroke-width="0.5" />
<circle cx="505" cy="30" r="25" transform="rotate(48.8136 505 505)" fill="magenta" stroke="black" stroke-width="0.5" />
<circle cx="505" cy="30" r="25" transform="rotate(54.9153 505 505)" fill="magenta" stroke="black" stroke-width="0.5" />
<circle cx="505" cy="30" r="25" transform="rotate(61.0169 505 505)" fill="magenta" stroke="black" stroke-width="0.5" />
<circle cx="505" cy="30" r="25" transform="rotate(67.1186 505 505)" fill="magenta" stroke="black" stroke-width="0.5" />
<circle cx="505" cy="30" r="25" transform="rotate(73.2203 505 505)" fill="magenta" stroke="black" stroke-width="0.5" />
<circle cx="505" cy="30" r="25" transform="rotate(79.322 505 505)" fill="magenta" stroke="black" stroke-width="0.5" />
<circle cx="505" cy="30" r="25" transform="rotate(85.4237 505 505)" fill="magenta" stroke="black" stroke-width="0.5" />
<circle cx="505" cy="30" r="25" transform="rotate(91.5254 505 505)" fill="magenta" stroke="black" stroke-width="0.5" />
<circle cx="505" cy="30" r="25" transform="rotate(97.6271 505 505)" fill="magenta" stroke="black" stroke-width="0.5" />
<circle cx="505" cy="30" r="25" transform="rotate(103.729 505 505)" fill="magenta" stroke="black" stroke-width="0.5" />
<circle cx="505" cy="30" r="25" transform="rotate(109.831 505 505)" fill="magenta" stroke="black" stroke-width="0.5" />
<circle cx="505" cy="30" r="25" transform="rotate(115.932 505 505)" fill="magenta" stroke="black" stroke-width="0.5" />
<circle cx="505" cy="30" r="25" transform="rotate(122.034 505 505)" fill="magenta" stroke="black" stroke-width="0.5" />
<circle cx="505" cy="30" r="25" transform="rotate(128.136 505 505)" fill="magenta" stroke="black" stroke-width="0.5" />
<circle cx="505" cy="30" r="25" transform="rotate(134.237 505 505)" fill="magenta" stroke="black" stroke-width="0.5" />
<circle cx="505" cy="30" r="25" transform="rotate(140.339 505 505)" fill="magenta" stroke="black" stroke-width="0.5" />
<circle cx="505" cy="30" r="25" transform="rotate(146.441 505 505)" fill="magenta" stroke="black" stroke-width="0.5" />
<circle cx="505" cy="30" r="25" transform="rotate(152.542 505 505)" fill="magenta" stroke="black" stroke-width="0.5" />
<circle cx="505" cy="30" r="25" transform="rotate(158.644 505 505)" fill="magenta" stroke="black" stroke-width="0.5" />
<circle cx="505" cy="30" r="25" transform="rotate(164.746 505 505)" fill="magenta" stroke="black" stroke-width="0.5" />
<circle cx="505" cy="30" r="25" transform="rotate(170.847 505 505)" fill="magenta" stroke="black" stroke-width="0.5" />
<circle cx="505" cy="30" r="25" transform="rotate(176.949 505 505)" fill="magenta" stroke="black" stroke-width="0.5" />
<circle cx="505" cy="30" r="25" transform="rotate(183.051 505 505)" fill="magenta" stroke="black" stroke-width="0.5" />
<circle cx="505" cy="30" r="25" transform="rotate(189.153 505 505)" fill="magenta" stroke="black" stroke-width="0.5" />
<circle cx="505" cy="30" r="25" transform="rotate(195.254 505 505)" fill="magenta" stroke="black" stroke-width="0.5" />
<circle cx="505" cy="30" r="25" transform="rotate(201.356 505 505)" fill="magenta" stroke="black" stroke-width="0.5" />
<circle cx="505" cy="30" r="25" transform="rotate(207.458 505 505)" fill="magenta" stroke="black" stroke-width="0.5" />
<circle cx="505" cy="30" r="25" transform="rotate(213.559 505 505)" fill="magenta" stroke="black" stroke-width="0.5" />
<circle cx="505" cy="30" r="25" transform="rotate(219.661 505 505)" fill="magenta" stroke="black" stroke-width="0.5" />
<circle cx="505" cy="30" r="25" transform="rotate(225.763 505 505)" fill="magenta" stroke="black" stroke-width="0.5" />
<circle cx="505" cy="30" r="25" transform="rotate(231.864 505 505)" fill="magenta" stroke="black" stroke-width="0.5" />
<circle cx="505" cy="30" r="25" transform="rotate(237.966 505 505)" fill="magenta" stroke="black" stroke-width="0.5" />
<circle cx="505" cy="30" r="25" transform="rotate(244.068 505 505)" fill="magenta" stroke="black" stroke-width="0.5" />
<circle cx="505" cy="30" r="25" transform="rotate(250.169 505 505)" fill="magenta" stroke="black" stroke-width="0.5" />
<circle cx="505" cy="30" r="25" transform="rotate(256.271 505 505)" fill="magenta" stroke="black" stroke-width="0.5" />
<circle cx="505" cy="30" r="25" transform="rotate(262.373 505 505)" fill="magenta" stroke="black" stroke-width="0.5" />
<circle cx="505" cy="30" r="25" transform="rotate(268.475 505 505)" fill="magenta" stroke="black" stroke-width="0.5" />
<circle cx="505" cy="30" r="25" transform="rotate(274.576 505 505)" fill="magenta" stroke="black" stroke-width="0.5" />
<circle cx="505" cy="30" r="25" transform="rotate(280.678 505 505)" fill="magenta" stroke="black" stroke-width="0.5" />
<circle cx="505" cy="30" r="25" transform="rotate(286.78 505 505)" fill="magenta" stroke="black" stroke-width="0.5" />
<circle cx="505" cy="30" r="25" transform="rotate(292.881 505 505)" fill="magenta" stroke="black" stroke-width="0.5" />
<circle cx="505" cy="30" r="25" transform="rotate(298.983 505 505)" fill="magenta" stroke="black" stroke-width="0.5" />
<circle cx="505" cy="30" r="25" transform="rotate(305.085 505 505)" fill="magenta" stroke="black" stroke-width="0.5" />
<circle cx="505" cy="30" r="25" transform="rotate(311.186 505 505)" fill="magenta" stroke="black" stroke-width="0.5" />
<circle cx="505" cy="30" r="25" transform="rotate(317.288 505 505)" fill="magenta" stroke="black" stroke-width="0.5" />
<circle cx="505" cy="30" r="25" transform="rotate(323.39 505 505)" fill="magenta" stroke="black" stroke-width="0.5" />
<circle cx="505" cy="30" r="25" transform="rotate(329.492 505 505)" fill="magenta" stroke="black" stroke-width="0.5" />
<circle cx="505" cy="30" r="25" transform="rotate(335.593 505 505)" fill="magenta" stroke="black" stroke-width="0.5" />
<circle cx="505" cy="30" r="25" transform="rotate(341.695 505 505)" fill="magenta" stroke="black" stroke-width="0.5" />
<circle cx="505" cy="30" r="25" transform="rotate(347.797 505 505)" fill="magenta" stroke="black" stroke-width="0.5" />
<circle cx="505" cy="30" r="25" transform="rotate(353.898 505 505)" fill="magenta" stroke="black" stroke-width="0.5" />
<circle cx="505" cy="80" r="25" transform="rotate(0 505 505)" fill="magenta" stroke="black" stroke-width="0.5" />
<circle cx="505" cy="80" r="25" transform="rotate(6.79245 505 505)" fill="magenta" stroke="black" stroke-width="0.5" />
<circle cx="505" cy="80" r="25" transform="rotate(13.5849 505 505)" fill="magenta" stroke="black" stroke-width="0.5" />
<circle cx="505" cy="80" r="25" transform="rotate(20.3774 505 505)" fill="magenta" stroke="black" stroke-width="0.5" />
<circle cx="505" cy="80" r="25" transform="rotate(27.1698 505 505)" fill="magenta" stroke="black" stroke-width="0.5" />
<circle cx="505" cy="80" r="25" transform="rotate(33.9623 505 505)" fill="magenta" stroke="black" stroke-width="0.5" />
<circle cx="505" cy="80" r="25" transform="rotate(40.7547 505 505)" fill="magenta" stroke="black" stroke-width="0.5" />
<circle cx="505" cy="80" r="25" transform="rotate(47.5472 505 505)" fill="magenta" stroke="black" stroke-width="0.5" />
<circle cx="505" cy="80" r="25" transform="rotate(54.3396 505 505)" fill="magenta" stroke="black" stroke-width="0.5" />
<circle cx="505" cy="80" r="25" transform="rotate(61.1321 505 505)" fill="magenta" stroke="black" stroke-width="0.5" />
<circle cx="505" cy="80" r="25" transform="rotate(67.9245 505 505)" fill="magenta" stroke="black" stroke-width="0.5" />
<circle cx="505" cy="80" r="25" transform="rotate(74.717 505 505)" fill="magenta" stroke="black" stroke-width="0.5" />
<circle cx="505" cy="80" r="25" transform="rotate(81.5094 505 505)" fill="magenta" stroke="black" stroke-width="0.5" />
<circle cx="505" cy="80" r="25" transform="rotate(88.3019 505 505)" fill="magenta" stroke="black" stroke-width="0.5" />
<circle cx="505" cy="80" r="25" transform="rotate(95.0943 505 505)" fill="magenta" stroke="black" stroke-width="0.5" />
<circle cx="505" cy="80" r="25" transform="rotate(101.887 505 505)" fill="magenta" stroke="black" stroke-width="0.5" />
<circle cx="505" cy="80" r="25" transform="rotate(108.679 505 505)" fill="magenta" stroke="black" stroke-width="0.5" />
<circle cx="505" cy="80" r="25" transform="rotate(115.472 505 505)" fill="magenta" stroke="black" stroke-width="0.5" />
<circle cx="505" cy="80" r="25" transform="rotate(122.264 505 505)" fill="magenta" stroke="black" stroke-width="0.5" />
<circle cx="505" cy="80" r="25" transform="rotate(129.057 505 505)" fill="magenta" stroke="black" stroke-width="0.5" />
<circle cx="505" cy="80" r="25" transform="rotate(135.849 505 505)" fill="magenta" stroke="black" stroke-width="0.5" />
<circle cx="505" cy="80" r="25" transform="rotate(142.642 505 505)" fill="magenta" stroke="black" stroke-width="0.5" />
<circle cx="505" cy="80" r="25" transform="rotate(149.434 505 505)" fill="magenta" stroke="black" stroke-width="0.5" />
<circle cx="505" cy="80" r="25" transform="rotate(156.226 505 505)" fill="magenta" stroke="black" stroke-width="0.5" />
<circle cx="505" cy="80" r="25" transform="rotate(163.019 505 505)" fill="magenta" stroke="black" stroke-width="0.5" />
<circle cx="505" cy="80" r="25" transform="rotate(169.811 505 505)" fill="magenta" stroke="black" stroke-width="0.5" />
<circle cx="505" cy="80" r="25" transform="rotate(176.604 505 505)" fill="magenta" stroke="black" stroke-width="0.5" />
<circle cx="505" cy="80" r="25" transform="rotate(183.396 505 505)" fill="magenta" stroke="black" stroke-width="0.5" />
<circle cx="505" cy="80" r="25" transform="rotate(190.189 505 505)" fill="magenta" stroke="black" stroke-width="0.5" />
<circle cx="505" cy="80" r="25" transform="rotate(196.981 505 505)" fill="magenta" stroke="black" stroke-width="0.5" />
<circle cx="505" cy="80" r="25" transform="rotate(203.774 505 505)" fill="magenta" stroke="black" stroke-width="0.5" />
<circle cx="505" cy="80" r="25" transform="rotate(210.566 505 505)" fill="magenta" stroke="black" stroke-width="0.5" />
<circle cx="505" cy="80" r="25" transform="rotate(217.358 505 505)" fill="magenta" stroke="black" stroke-width="0.5" />
<circle cx="505" cy="80" r="25" transform="rotate(224.151 505 505)" fill="magenta" stroke="black" stroke-width="0.5" />
<circle cx="505" cy="80" r="25" transform="rotate(230.943 505 505)" fill="magenta" stroke="black" stroke-width="0.5" />
<circle cx="505" cy="80" r="25" transform="rotate(237.736 505 505)" fill="magenta" stroke="black" stroke-width="0.5" />
<circle cx="505" cy="80" r="25" transform="rotate(244.528 505 505)" fill="magenta" stroke="black" stroke-width="0.5" />
<circle cx="505" cy="80" r="25" transform="rotate(251.321 505 505)" fill="magenta" stroke="black" stroke-width="0.5" />
<circle cx="505" cy="80" r="25" transform="rotate(258.113 505 505)" fill="magenta" stroke="black" stroke-width="0.5" />
<circle cx="505" cy="80" r="25" transform="rotate(264.906 505 505)" fill="magenta" stroke="black" stroke-width="0.5" />
<circle cx="505" cy="80" r="25" transform="rotate(271.698 505 505)" fill="magenta" stroke="black" stroke-width="0.5" />
<circle cx="505" cy="80" r="25" transform="rotate(278.491 505 505)" fill="magenta" stroke="black" stroke-width="0.5" />
<circle cx="505" cy="80" r="25" transform="rotate(285.283 505 505)" fill="magenta" stroke="black" stroke-width="0.5" />
<circle cx="505" cy="80" r="25" transform="rotate(292.075 505 505)" fill="magenta" stroke="black" stroke-width="0.5" />
<circle cx="505" cy="80" r="25" transform="rotate(298.868 505 505)" fill="magenta" stroke="black" stroke-width="0.5" />
<circle cx="505" cy="80" r="25" transform="rotate(305.66 505 505)" fill="magenta" stroke="black" stroke-width="0.5" />
<circle cx="505" cy="80" r="25" transform="rotate(312.453 505 505)" fill="magenta" stroke="black" stroke-width="0.5" />
<circle cx="505" cy="80" r="25" transform="rotate(319.245 505 505)" fill="magenta" stroke="black" stroke-width="0.5" />
<circle cx="505" cy="80" r="25" transform="rotate(326.038 505 505)" fill="magenta" stroke="black" stroke-width="0.5" />
<circle cx="505" cy="80" r="25" transform="rotate(332.83 505 505)" fill="magenta" stroke="black" stroke-width="0.5" />
<circle cx="505" cy="80" r="25" transform="rotate(339.623 505 505)" fill="magenta" stroke="black" stroke-width="0.5" />
<circle cx="505" cy="80" r="25" transform="rotate(346.415 505 505)" fill="magenta" stroke="black" stroke-width="0.5" />
<circle cx="505" cy="80" r="25" transform="rotate(353.208 505 505)" fill="magenta" stroke="black" stroke-width="0.5" />
<circle cx="505" cy="130" r="25" transform="rotate(0 505 505)" fill="magenta" stroke="black" stroke-width="0.5" />
<circle cx="505" cy="130" r="25" transform="rotate(7.65957 505 505)" fill="magenta" stroke="black" stroke-width="0.5" />
<circle cx="505" cy="130" r="25" transform="rotate(15.3191 505 505)" fill="magenta" stroke="black" stroke-width="0.5" />
<circle cx="505" cy="130" r="25" transform="rotate(22.9787 505 505)" fill="magenta" stroke="black" stroke-width="0.5" />
<circle cx="505" cy="130" r="25" transform="rotate(30.6383 505 505)" fill="magenta" stroke="black" stroke-width="0.5" />
<circle cx="505" cy="130" r="25" transform="rotate(38.2979 505 505)" fill="magenta" stroke="black" stroke-width="0.5" />
<circle cx="505" cy="130" r="25" transform="rotate(45.9574 505 505)" fill="magenta" stroke="black" stroke-width="0.5" />
<circle cx="505" cy="130" r="25" transform="rotate(53.617 505 505)" fill="magenta" stroke="black" stroke-width="0.5" />
<circle cx="505" cy="130" r="25" transform="rotate(61.2766 505 505)" fill="magenta" stroke="black" stroke-width="0.5" />
<circle cx="505" cy="130" r="25" transform="rotate(68.9362 505 505)" fill="magenta" stroke="black" stroke-width="0.5" />
<circle cx="505" cy="130" r="25" transform="rotate(76.5957 505 505)" fill="magenta" stroke="black" stroke-width="0.5" />
<circle cx="505" cy="130" r="25" transform="rotate(84.2553 505 505)" fill="magenta" stroke="black" stroke-width="0.5" />
<circle cx="505" cy="130" r="25" transform="rotate(91.9149 505 505)" fill="magenta" stroke="black" stroke-width="0.5" />
<circle cx="505" cy="130" r="25" transform="rotate(99.5745 505 505)" fill="magenta" stroke="black" stroke-width="0.5" />
<circle cx="505" cy="130" r="25" transform="rotate(107.234 505 505)" fill="magenta" stroke="black" stroke-width="0.5" />
<circle cx="505" cy="130" r="25" transform="rotate(114.894 505 505)" fill="magenta" stroke="black" stroke-width="0.5" />
<circle cx="505" cy="130" r="25" transform="rotate(122.553 505 505)" fill="magenta" stroke="black" stroke-width="0.5" />
<circle cx="505" cy="130" r="25" transform="rotate(130.213 505 505)" fill="magenta" stroke="black" stroke-width="0.5" />
<circle cx="505" cy="130" r="25" transform="rotate(137.872 505 505)" fill="magenta" stroke="black" stroke-width="0.5" />
<circle cx="505" cy="130" r="25" transform="rotate(145.532 505 505)" fill="magenta" stroke="black" stroke-width="0.5" />
<circle cx="505" cy="130" r="25" transform="rotate(153.191 505 505)" fill="magenta" stroke="black" stroke-width="0.5" />
<circle cx="505" cy="130" r="25" transform="rotate(160.851 505 505)" fill="magenta" stroke="black" stroke-width="0.5" />
<circle cx="505" cy="130" r="25" transform="rotate(168.511 505 505)" fill="magenta" stroke="black" stroke-width="0.5" />
<circle cx="505" cy="130" r="25" transform="rotate(176.17 505 505)" fill="magenta" stroke="black" stroke-width="0.5" />
<circle cx="505" cy="130" r="25" transform="rotate(183.83 505 505)" fill="magenta" stroke="black" stroke-width="0.5" />
<circle cx="505" cy="130" r="25" transform="rotate(191.489 505 505)" fill="magenta" stroke="black" stroke-width="0.5" />
<circle cx="505" cy="130" r="25" transform="rotate(199.149 505 505)" fill="magenta" stroke="black" stroke-width="0.5" />
<circle cx="505" cy="130" r="25" transform="rotate(206.809 505 505)" fill="magenta" stroke="black" stroke-width="0.5" />
<circle cx="505" cy="130" r="25" transform="rotate(214.468 505 505)" fill="magenta" stroke="black" stroke-width="0.5" />
<circle cx="505" cy="130" r="25" transform="rotate(222.128 505 505)" fill="magenta" stroke="black" stroke-width="0.5" />
<circle cx="505" cy="130" r="25" transform="rotate(229.787 505 505)" fill="magenta" stroke="black" stroke-width="0.5" />
<circle cx="505" cy="130" r="25" transform="rotate(237.447 505 505)" fill="magenta" stroke="black" stroke-width="0.5" />
<circle cx="505" cy="130" r="25" transform="rotate(245.106 505 505)" fill="magenta" stroke="black" stroke-width="0.5" />
<circle cx="505" cy="130" r="25" transform="rotate(252.766 505 505)" fill="magenta" stroke="black" stroke-width="0.5" />
<circle cx="505" cy="130" r="25" transform="rotate(260.426 505 505)" fill="magenta" stroke="black" stroke-width="0.5" />
<circle cx="505" cy="130" r="25" transform="rotate(268.085 505 505)" fill="magenta" stroke="black" stroke-width="0.5" />
<circle cx="505" cy="130" r="25" transform="rotate(275.745 505 505)" fill="magenta" stroke="black" stroke-width="0.5" />
<circle cx="505" cy="130" r="25" transform="rotate(283.404 505 505)" fill="magenta" stroke="black" stroke-width="0.5" />
<circle cx="505" cy="130" r="25" transform="rotate(291.064 505 505)" fill="magenta" stroke="black" stroke-width="0.5" />
<circle cx="505" cy="130" r="25" transform="rotate(298.723 505 505)" fill="magenta" stroke="black" stroke-width="0.5" />
<circle cx="505" cy="130" r="25" transform="rotate(306.383 505 505)" fill="magenta" stroke="black" stroke-width="0.5" />
<circle cx="505" cy="130" r="25" transform="rotate(314.043 505 505)" fill="magenta" stroke="black" stroke-width="0.5" />
<circle cx="505" cy="130" r="25" transform="rotate(321.702 505 505)" fill="magenta" stroke="black" stroke-width="0.5" />
<circle cx="505" cy="130" r="25" transform="rotate(329.362 505 505)" fill="magenta" stroke="black" stroke-width="0.5" />
<circle cx="505" cy="130" r="25" transform="rotate(337.021 505 505)" fill="magenta" stroke="black" stroke-width="0.5" />
<circle cx="505" cy="130" r="25" transform="rotate(344.681 505 505)" fill="magenta" stroke="black" stroke-width="0.5" />
<circle cx="505" cy="130" r="25" transform="rotate(352.34 505 505)" fill="magenta" stroke="black" stroke-width="0.5" />
<circle cx="505" cy="180" r="25" transform="rotate(0 505 505)" fill="magenta" stroke="black" stroke-width="0.5" />
<circle cx="505" cy="180" r="25" transform="rotate(9 505 505)" fill="magenta" stroke="black" stroke-width="0.5" />
<circle cx="505" cy="180" r="25" transform="rotate(18 505 505)" fill="magenta" stroke="black" stroke-width="0.5" />
<circle cx="505" cy="180" r="25" transform="rotate(27 505 505)" fill="magenta" stroke="black" stroke-width="0.5" />
<circle cx="505" cy="180" r="25" transform="rotate(36 505 505)" fill="magenta" stroke="black" stroke-width="0.5" />
<circle cx="505" cy="180" r="25" transform="rotate(45 505 505)" fill="magenta" stroke="black" stroke-width="0.5" />
<circle cx="505" cy="180" r="25" transform="rotate(54 505 505)" fill="magenta" stroke="black" stroke-width="0.5" />
<circle cx="505" cy="180" r="25" transform="rotate(63 505 505)" fill="magenta" stroke="black" stroke-width="0.5" />
<circle cx="505" cy="180" r="25" transform="rotate(72 505 505)" fill="magenta" stroke="black" stroke-width="0.5" />
<circle cx="505" cy="180" r="25" transform="rotate(81 505 505)" fill="magenta" stroke="black" stroke-width="0.5" />
<circle cx="505" cy="180" r="25" transform="rotate(90 505 505)" fill="magenta" stroke="black" stroke-width="0.5" />
<circle cx="505" cy="180" r="25" transform="rotate(99 505 505)" fill="magenta" stroke="black" stroke-width="0.5" />
<circle cx="505" cy="180" r="25" transform="rotate(108 505 505)" fill="magenta" stroke="black" stroke-width="0.5" />
<circle cx="505" cy="180" r="25" transform="rotate(117 505 505)" fill="magenta" stroke="black" stroke-width="0.5" />
<circle cx="505" cy="180" r="25" transform="rotate(126 505 505)" fill="magenta" stroke="black" stroke-width="0.5" />
<circle cx="505" cy="180" r="25" transform="rotate(135 505 505)" fill="magenta" stroke="black" stroke-width="0.5" />
<circle cx="505" cy="180" r="25" transform="rotate(144 505 505)" fill="magenta" stroke="black" stroke-width="0.5" />
<circle cx="505" cy="180" r="25" transform="rotate(153 505 505)" fill="magenta" stroke="black" stroke-width="0.5" />
<circle cx="505" cy="180" r="25" transform="rotate(162 505 505)" fill="magenta" stroke="black" stroke-width="0.5" />
<circle cx="505" cy="180" r="25" transform="rotate(171 505 505)" fill="magenta" stroke="black" stroke-width="0.5" />
<circle cx="505" cy="180" r="25" transform="rotate(180 505 505)" fill="magenta" stroke="black" stroke-width="0.5" />
<circle cx="505" cy="180" r="25" transform="rotate(189 505 505)" fill="magenta" stroke="black" stroke-width="0.5" />
<circle cx="505" cy="180" r="25" transform="rotate(198 505 505)" fill="magenta" stroke="black" stroke-width="0.5" />
<circle cx="505" cy="180" r="25" transform="rotate(207 505 505)" fill="magenta" stroke="black" stroke-width="0.5" />
<circle cx="505" cy="180" r="25" transform="rotate(216 505 505)" fill="magenta" stroke="black" stroke-width="0.5" />
<circle cx="505" cy="180" r="25" transform="rotate(225 505 505)" fill="magenta" stroke="black" stroke-width="0.5" />
<circle cx="505" cy="180" r="25" transform="rotate(234 505 505)" fill="magenta" stroke="black" stroke-width="0.5" />
<circle cx="505" cy="180" r="25" transform="rotate(243 505 505)" fill="magenta" stroke="black" stroke-width="0.5" />
<circle cx="505" cy="180" r="25" transform="rotate(252 505 505)" fill="magenta" stroke="black" stroke-width="0.5" />
<circle cx="505" cy="180" r="25" transform="rotate(261 505 505)" fill="magenta" stroke="black" stroke-width="0.5" />
<circle cx="505" cy="180" r="25" transform="rotate(270 505 505)" fill="magenta" stroke="black" stroke-width="0.5" />
<circle cx="505" cy="180" r="25" transform="rotate(279 505 505)" fill="magenta" stroke="black" stroke-width="0.5" />
<circle cx="505" cy="180" r="25" transform="rotate(288 505 505)" fill="magenta" stroke="black" stroke-width="0.5" />
<circle cx="505" cy="180" r="25" transform="rotate(297 505 505)" fill="magenta" stroke="black" stroke-width="0.5" />
<circle cx="505" cy="180" r="25" transform="rotate(306 505 505)" fill="magenta" stroke="black" stroke-width="0.5" />
<circle cx="505" cy="180" r="25" transform="rotate(315 505 505)" fill="magenta" stroke="black" stroke-width="0.5" />
<circle cx="505" cy="180" r="25" transform="rotate(324 505 505)" fill="magenta" stroke="black" stroke-width="0.5" />
<circle cx="505" cy="180" r="25" transform="rotate(333 505 505)" fill="magenta" stroke="black" stroke-width="0.5" />
<circle cx="505" cy="180" r="25" transform="rotate(342 505 505)" fill="magenta" stroke="black" stroke-width="0.5" />
<circle cx="505" cy="180" r="25" transform="rotate(351 505 505)" fill="magenta" stroke="black" stroke-width="0.5" />
<circle cx="505" cy="230" r="25" transform="rotate(0 505 505)" fill="magenta" stroke="black" stroke-width="0.5" />
<circle cx="505" cy="230" r="25" transform="rotate(10.5882 505 505)" fill="magenta" stroke="black" stroke-width="0.5" />
<circle cx="505" cy="230" r="25" transform="rotate(21.1765 505 505)" fill="magenta" stroke="black" stroke-width="0.5" />
<circle cx="505" cy="230" r="25" transform="rotate(31.7647 505 505)" fill="magenta" stroke="black" stroke-width="0.5" />
<circle cx="505" cy="230" r="25" transform="rotate(42.3529 505 505)" fill="magenta" stroke="black" stroke-width="0.5" />
<circle cx="505" cy="230" r="25" transform="rotate(52.9412 505 505)" fill="magenta" stroke="black" stroke-width="0.5" />
<circle cx="505" cy="230" r="25" transform="rotate(63.5294 505 505)" fill="magenta" stroke="black" stroke-width="0.5" />
<circle cx="505" cy="230" r="25" transform="rotate(74.1176 505 505)" fill="magenta" stroke="black" stroke-width="0.5" />
<circle cx="505" cy="230" r="25" transform="rotate(84.7059 505 505)" fill="magenta" stroke="black" stroke-width="0.5" />
<circle cx="505" cy="230" r="25" transform="rotate(95.2941 505 505)" fill="magenta" stroke="black" stroke-width="0.5" />
<circle cx="505" cy="230" r="25" transform="rotate(105.882 505 505)" fill="magenta" stroke="black" stroke-width="0.5" />
<circle cx="505" cy="230" r="25" transform="rotate(116.471 505 505)" fill="magenta" stroke="black" stroke-width="0.5" />
<circle cx="505" cy="230" r="25" transform="rotate(127.059 505 505)" fill="magenta" stroke="black" stroke-width="0.5" />
<circle cx="505" cy="230" r="25" transform="rotate(137.647 505 505)" fill="magenta" stroke="black" stroke-width="0.5" />
<circle cx="505" cy="230" r="25" transform="rotate(148.235 505 505)" fill="magenta" stroke="black" stroke-width="0.5" />
<circle cx="505" cy="230" r="25" transform="rotate(158.824 505 505)" fill="magenta" stroke="black" stroke-width="0.5" />
<circle cx="505" cy="230" r="25" transform="rotate(169.412 505 505)" fill="magenta" stroke="black" stroke-width="0.5" />
<circle cx="505" cy="230" r="25" transform="rotate(180 505 505)" fill="magenta" stroke="black" stroke-width="0.5" />
<circle cx="505" cy="230" r="25" transform="rotate(190.588 505 505)" fill="magenta" stroke="black" stroke-width="0.5" />
<circle cx="505" cy="230" r="25" transform="rotate(201.176 505 505)" fill="magenta" stroke="black" stroke-width="0.5" />
<circle cx="505" cy="230" r="25" transform="rotate(211.765 505 505)" fill="magenta" stroke="black" stroke-width="0.5" />
<circle cx="505" cy="230" r="25" transform="rotate(222.353 505 505)" fill="magenta" stroke="black" stroke-width="0.5" />
<circle cx="505" cy="230" r="25" transform="rotate(232.941 505 505)" fill="magenta" stroke="black" stroke-width="0.5" />
<circle cx="505" cy="230" r="25" transform="rotate(243.529 505 505)" fill="magenta" stroke="black" stroke-width="0.5" />
<circle cx="505" cy="230" r="25" transform="rotate(254.118 505 505)" fill="magenta" stroke="black" stroke-width="0.5" />
<circle cx="505" cy="230" r="25" transform="rotate(264.706 505 505)" fill="magenta" stroke="black" stroke-width="0.5" />
<circle cx="505" cy="230" r="25" transform="rotate(275.294 505 505)" fill="magenta" stroke="black" stroke-width="0.5" />
<circle cx="505" cy="230" r="25" transform="rotate(285.882 505 505)" fill="magenta" stroke="black" stroke-width="0.5" />
<circle cx="505" cy="230" r="25" transform="rotate(296.471 505 505)" fill="magenta" stroke="black" stroke-width="0.5" />
<circle cx="505" cy="230" r="25" transform="rotate(307.059 505 505)" fill="magenta" stroke="black" stroke-width="0.5" />
<circle cx="505" cy="230" r="25" transform="rotate(317.647 505 505)" fill="magenta" stroke="black" stroke-width="0.5" />
<circle cx="505" cy="230" r="25" transform="rotate(328.235 505 505)" fill="magenta" stroke="black" stroke-width="0.5" />
<circle cx="505" cy="230" r="25" transform="rotate(338.824 505 505)" fill="magenta" stroke="black" stroke-width="0.5" />
<circle cx="505" cy="230" r="25" transform="rotate(349.412 505 505)" fill="magenta" stroke="black" stroke-width="0.5" />
<circle cx="505" cy="280" r="25" transform="rotate(0 505 505)" fill="magenta" stroke="black" stroke-width="0.5" />
<circle cx="505" cy="280" r="25" transform="rotate(12.8571 505 505)" fill="magenta" stroke="black" stroke-width="0.5" />
<circle cx="505" cy="280" r="25" transform="rotate(25.7143 505 505)" fill="magenta" stroke="black" stroke-width="0.5" />
<circle cx="505" cy="280" r="25" transform="rotate(38.5714 505 505)" fill="magenta" stroke="black" stroke-width="0.5" />
<circle cx="505" cy="280" r="25" transform="rotate(51.4286 505 505)" fill="magenta" stroke="black" stroke-width="0.5" />
<circle cx="505" cy="280" r="25" transform="rotate(64.2857 505 505)" fill="magenta" stroke="black" stroke-width="0.5" />
<circle cx="505" cy="280" r="25" transform="rotate(77.1429 505 505)" fill="magenta" stroke="black" stroke-width="0.5" />
<circle cx="505" cy="280" r="25" transform="rotate(90 505 505)" fill="magenta" stroke="black" stroke-width="0.5" />
<circle cx="505" cy="280" r="25" transform="rotate(102.857 505 505)" fill="magenta" stroke="black" stroke-width="0.5" />
<circle cx="505" cy="280" r="25" transform="rotate(115.714 505 505)" fill="magenta" stroke="black" stroke-width="0.5" />
<circle cx="505" cy="280" r="25" transform="rotate(128.571 505 505)" fill="magenta" stroke="black" stroke-width="0.5" />
<circle cx="505" cy="280" r="25" transform="rotate(141.429 505 505)" fill="magenta" stroke="black" stroke-width="0.5" />
<circle cx="505" cy="280" r="25" transform="rotate(154.286 505 505)" fill="magenta" stroke="black" stroke-width="0.5" />
<circle cx="505" cy="280" r="25" transform="rotate(167.143 505 505)" fill="magenta" stroke="black" stroke-width="0.5" />
<circle cx="505" cy="280" r="25" transform="rotate(180 505 505)" fill="magenta" stroke="black" stroke-width="0.5" />
<circle cx="505" cy="280" r="25" transform="rotate(192.857 505 505)" fill="magenta" stroke="black" stroke-width="0.5" />
<circle cx="505" cy="280" r="25" transform="rotate(205.714 505 505)" fill="magenta" stroke="black" stroke-width="0.5" />
<circle cx="505" cy="280" r="25" transform="rotate(218.571 505 505)" fill="magenta" stroke="black" stroke-width="0.5" />
<circle cx="505" cy="280" r="25" transform="rotate(231.429 505 505)" fill="magenta" stroke="black" stroke-width="0.5" />
<circle cx="505" cy="280" r="25" transform="rotate(244.286 505 505)" fill="magenta" stroke="black" stroke-width="0.5" />
<circle cx="505" cy="280" r="25" transform="rotate(257.143 505 505)" fill="magenta" stroke="black" stroke-width="0.5" />
<circle cx="505" cy="280" r="25" transform="rotate(270 505 505)" fill="magenta" stroke="black" stroke-width="0.5" />
<circle cx="505" cy="280" r="25" transform="rotate(282.857 505 505)" fill="magenta" stroke="black" stroke-width="0.5" />
<circle cx="505" cy="280" r="25" transform="rotate(295.714 505 505)" fill="magenta" stroke="black" stroke-width="0.5" />
<circle cx="505" cy="280" r="25" transform="rotate(308.571 505 505)" fill="magenta" stroke="black" stroke-width="0.5" />
<circle cx="505" cy="280" r="25" transform="rotate(321.429 505 505)" fill="magenta" stroke="black" stroke-width="0.5" />
<circle cx="505" cy="280" r="25" transform="rotate(334.286 505 505)" fill="magenta" stroke="black" stroke-width="0.5" />
<circle cx="505" cy="280" r="25" transform="rotate(347.143 505 505)" fill="magenta" stroke="black" stroke-width="0.5" />
<circle cx="505" cy="330" r="25" transform="rotate(0 505 505)" fill="magenta" stroke="black" stroke-width="0.5" />
<circle cx="505" cy="330" r="25" transform="rotate(17.1429 505 505)" fill="magenta" stroke="black" stroke-width="0.5" />
<circle cx="505" cy="330" r="25" transform="rotate(34.2857 505 505)" fill="magenta" stroke="black" stroke-width="0.5" />
<circle cx="505" cy="330" r="25" transform="rotate(51.4286 505 505)" fill="magenta" stroke="black" stroke-width="0.5" />
<circle cx="505" cy="330" r="25" transform="rotate(68.5714 505 505)" fill="magenta" stroke="black" stroke-width="0.5" />
<circle cx="505" cy="330" r="25" transform="rotate(85.7143 505 505)" fill="magenta" stroke="black" stroke-width="0.5" />
<circle cx="505" cy="330" r="25" transform="rotate(102.857 505 505)" fill="magenta" stroke="black" stroke-width="0.5" />
<circle cx="505" cy="330" r="25" transform="rotate(120 505 505)" fill="magenta" stroke="black" stroke-width="0.5" />
<circle cx="505" cy="330" r="25" transform="rotate(137.143 505 505)" fill="magenta" stroke="black" stroke-width="0.5" />
<circle cx="505" cy="330" r="25" transform="rotate(154.286 505 505)" fill="magenta" stroke="black" stroke-width="0.5" />
<circle cx="505" cy="330" r="25" transform="rotate(171.429 505 505)" fill="magenta" stroke="black" stroke-width="0.5" />
<circle cx="505" cy="330" r="25" transform="rotate(188.571 505 505)" fill="magenta" stroke="black" stroke-width="0.5" />
<circle cx="505" cy="330" r="25" transform="rotate(205.714 505 505)" fill="magenta" stroke="black" stroke-width="0.5" />
<circle cx="505" cy="330" r="25" transform="rotate(222.857 505 505)" fill="magenta" stroke="black" stroke-width="0.5" />
<circle cx="505" cy="330" r="25" transform="rotate(240 505 505)" fill="magenta" stroke="black" stroke-width="0.5" />
<circle cx="505" cy="330" r="25" transform="rotate(257.143 505 505)" fill="magenta" stroke="black" stroke-width="0.5" />
<circle cx="505" cy="330" r="25" transform="rotate(274.286 505 505)" fill="magenta" stroke="black" stroke-width="0.5" />
<circle cx="505" cy="330" r="25" transform="rotate(291.429 505 505)" fill="magenta" stroke="black" stroke-width="0.5" />
<circle cx="505" cy="330" r="25" transform="rotate(308.571 505 505)" fill="magenta" stroke="black" stroke-width="0.5" />
<circle cx="505" cy="330" r="25" transform="rotate(325.714 505 505)" fill="magenta" stroke="black" stroke-width="0.5" />
<circle cx="505" cy="330" r="25" transform="rotate(342.857 505 505)" fill="magenta" stroke="black" stroke-width="0.5" />
<circle cx="505" cy="380" r="25" transform="rotate(0 505 505)" fill="magenta" stroke="black" stroke-width="0.5" />
<circle cx="505" cy="380" r="25" transform="rotate(24 505 505)" fill="magenta" stroke="black" stroke-width="0.5" />
<circle cx="505" cy="380" r="25" transform="rotate(48 505 505)" fill="magenta" stroke="black" stroke-width="0.5" />
<circle cx="505" cy="380" r="25" transform="rotate(72 505 505)" fill="magenta" stroke="black" stroke-width="0.5" />
<circle cx="505" cy="380" r="25" transform="rotate(96 505 505)" fill="magenta" stroke="black" stroke-width="0.5" />
<circle cx="505" cy="380" r="25" transform="rotate(120 505 505)" fill="magenta" stroke="black" stroke-width="0.5" />
<circle cx="505" cy="380" r="25" transform="rotate(144 505 505)" fill="magenta" stroke="black" stroke-width="0.5" />
<circle cx="505" cy="380" r="25" transform="rotate(168 505 505)" fill="magenta" stroke="black" stroke-width="0.5" />
<circle cx="505" cy="380" r="25" transform="rotate(192 505 505)" fill="magenta" stroke="black" stroke-width="0.5" />
<circle cx="505" cy="380" r="25" transform="rotate(216 505 505)" fill="magenta" stroke="black" stroke-width="0.5" />
<circle cx="505" cy="380" r="25" transform="rotate(240 505 505)" fill="magenta" stroke="black" stroke-width="0.5" />
<circle cx="505" cy="380" r="25" transform="rotate(264 505 505)" fill="magenta" stroke="black" stroke-width="0.5" />
<circle cx="505" cy="380" r="25" transform="rotate(288 505 505)" fill="magenta" stroke="black" stroke-width="0.5" />
<circle cx="505" cy="380" r="25" transform="rotate(312 505 505)" fill="magenta" stroke="black" stroke-width="0.5" />
<circle cx="505" cy="380" r="25" transform="rotate(336 505 505)" fill="magenta" stroke="black" stroke-width="0.5" />
<circle cx="505" cy="430" r="25" transform="rotate(0 505 505)" fill="magenta" stroke="black" stroke-width="0.5" />
<circle cx="505" cy="430" r="25" transform="rotate(40 505 505)" fill="magenta" stroke="black" stroke-width="0.5" />
<circle cx="505" cy="430" r="25" transform="rotate(80 505 505)" fill="magenta" stroke="black" stroke-width="0.5" />
<circle cx="505" cy="430" r="25" transform="rotate(120 505 505)" fill="magenta" stroke="black" stroke-width="0.5" />
<circle cx="505" cy="430" r="25" transform="rotate(160 505 505)" fill="magenta" stroke="black" stroke-width="0.5" />
<circle cx="505" cy="430" r="25" transform="rotate(200 505 505)" fill="magenta" stroke="black" stroke-width="0.5" />
<circle cx="505" cy="430" r="25" transform="rotate(240 505 505)" fill="magenta" stroke="black" stroke-width="0.5" />
<circle cx="505" cy="430" r="25" transform="rotate(280 505 505)" fill="magenta" stroke="black" stroke-width="0.5" />
<circle cx="505" cy="430" r="25" transform="rotate(320 505 505)" fill="magenta" stroke="black" stroke-width="0.5" />
<circle cx="505" cy="480" r="25" transform="rotate(0 505 505)" fill="magenta" stroke="black" stroke-width="0.5" />
<circle cx="505" cy="480" r="25" transform="rotate(180 505 505)" fill="magenta" stroke="black" stroke-width="0.5" />
</svg>
