<svg version="1.1" baseProfile="full" xmlns="http://www.w3.org/2000/svg">
<rect x="0"  y="0" width="800" height="350" transform="rotate(0 0 0)" fill="blue" stroke="black" stroke-width="0.5" />
<circle cx="25" cy="25" r="25" transform="rotate(0 0 0)" fill="magenta" stroke="black" stroke-width="0.5" />
<circle cx="75" cy="25" r="25" transform="rotate(0 0 0)" fill="magenta" stroke="black" stroke-width="0.5" />
<circle cx="125" cy="25" r="25" transform="rotate(0 0 0)" fill="magenta" stroke="black" stroke-width="0.5" />
<circle cx="175" cy="25" r="25" transform="rotate(0 0 0)" fill="magenta" stroke="black" stroke-width="0.5" />
<circle cx="225" cy="25" r="25" transform="rotate(0 0 0)" fill="magenta" stroke="black" stroke-width="0.5" />
<circle cx="275" cy="25" r="25" transform="rotate(0 0 0)" fill="magenta" stroke="black" stroke-width="0.5" />
<circle cx="325" cy="25" r="25" transform="rotate(0 0 0)" fill="magenta" stroke="black" stroke-width="0.5" />
<circle cx="375" cy="25" r="25" transform="rotate(0 0 0)" fill="magenta" stroke="black" stroke-width="0.5" />
<circle cx="425" cy="25" r="25" transform="rotate(0 0 0)" fill="magenta" stroke="black" stroke-width="0.5" />
<circle cx="475" cy="25" r="25" transform="rotate(0 0 0)" fill="magenta" stroke="black" stroke-width="0.5" />
<circle cx="525" cy="25" r="25" transform="rotate(0 0 0)" fill="magenta" stroke="black" stroke-width="0.5" />
<circle cx="575" cy="25" r="25" transform="rotate(0 0 0)" fill="magenta" stroke="black" stroke-width="0.5" />
<circle cx="625" cy="25" r="25" transform="rotate(0 0 0)" fill="magenta" stroke="black" stroke-width="0.5" />
<circle cx="675" cy="25" r="25" transform="rotate(0 0 0)" fill="magenta" stroke="black" stroke-width="0.5" />
<circle cx="725" cy="25" r="25" transform="rotate(0 0 0)" fill="magenta" stroke="black" stroke-width="0.5" />
<circle cx="775" cy="25" r="25" transform="rotate(0 0 0)" fill="magenta" stroke="black" stroke-width="0.5" />
<circle cx="25" cy="75" r="25" transform="rotate(0 0 0)" fill="magenta" stroke="black" stroke-width="0.5" />
<circle cx="75" cy="75" r="25" transform="rotate(0 0 0)" fill="magenta" stroke="black" stroke-width="0.5" />
<circle cx="125" cy="75" r="25" transform="rotate(0 0 0)" fill="magenta" stroke="black" stroke-width="0.5" />
<circle cx="175" cy="75" r="25" transform="rotate(0 0 0)" fill="magenta" stroke="black" stroke-width="0.5" />
<circle cx="225" cy="75" r="25" transform="rotate(0 0 0)" fill="magenta" stroke="black" stroke-width="0.5" />
<circle cx="275" cy="75" r="25" transform="rotate(0 0 0)" fill="magenta" stroke="black" stroke-width="0.5" />
<circle cx="325" cy="75" r="25" transform="rotate(0 0 0)" fill="magenta" stroke="black" stroke-width="0.5" />
<circle cx="375" cy="75" r="25" transform="rotate(0 0 0)" fill="magenta" stroke="black" stroke-width="0.5" />
<circle cx="425" cy="75" r="25" transform="rotate(0 0 0)" fill="magenta" stroke="black" stroke-width="0.5" />
<circle cx="475" cy="75" r="25" transform="rotate(0 0 0)" fill="magenta" stroke="black" stroke-width="0.5" />
<circle cx="525" cy="75" r="25" transform="rotate(0 0 0)" fill="magenta" stroke="black" stroke-width="0.5" />
<circle cx="575" cy="75" r="25" transform="rotate(0 0 0)" fill="magenta" stroke="black" stroke-width="0.5" />
<circle cx="625" cy="75" r="25" transform="rotate(0 0 0)" fill="magenta" stroke="black" stroke-width="0.5" />
<circle cx="675" cy="75" r="25" transform="rotate(0 0 0)" fill="magenta" stroke="black" stroke-width="0.5" />
<circle cx="725" cy="75" r="25" transform="rotate(0 0 0)" fill="magenta" stroke="black" stroke-width="0.5" />
<circle cx="775" cy="75" r="25" transform="rotate(0 0 0)" fill="magenta" stroke="black" stroke-width="0.5" />
<circle cx="25" cy="125" r="25" transform="rotate(0 0 0)" fill="magenta" stroke="black" stroke-width="0.5" />
<circle cx="75" cy="125" r="25" transform="rotate(0 0 0)" fill="magenta" stroke="black" stroke-width="0.5" />
<circle cx="125" cy="125" r="25" transform="rotate(0 0 0)" fill="magenta" stroke="black" stroke-width="0.5" />
<circle cx="175" cy="125" r="25" transform="rotate(0 0 0)" fill="magenta" stroke="black" stroke-width="0.5" />
<circle cx="225" cy="125" r="25" transform="rotate(0 0 0)" fill="magenta" stroke="black" stroke-width="0.5" />
<circle cx="275" cy="125" r="25" transform="rotate(0 0 0)" fill="magenta" stroke="black" stroke-width="0.5" />
<circle cx="325" cy="125" r="25" transform="rotate(0 0 0)" fill="magenta" stroke="black" stroke-width="0.5" />
<circle cx="375" cy="125" r="25" transform="rotate(0 0 0)" fill="magenta" stroke="black" stroke-width="0.5" />
<circle cx="425" cy="125" r="25" transform="rotate(0 0 0)" fill="magenta" stroke="black" stroke-width="0.5" />
<circle cx="475" cy="125" r="25" transform="rotate(0 0 0)" fill="magenta" stroke="black" stroke-width="0.5" />
<circle cx="525" cy="125" r="25" transform="rotate(0 0 0)" fill="magenta" stroke="black" stroke-width="0.5" />
<circle cx="575" cy="125" r="25" transform="rotate(0 0 0)" fill="magenta" stroke="black" stroke-width="0.5" />
<circle cx="625" cy="125" r="25" transform="rotate(0 0 0)" fill="magenta" stroke="black" stroke-width="0.5" />
<circle cx="675" cy="125" r="25" transform="rotate(0 0 0)" fill="magenta" stroke="black" stroke-width="0.5" />
<circle cx="725" cy="125" r="25" transform="rotate(0 0 0)" fill="magenta" stroke="black" stroke-width="0.5" />
<circle cx="775" cy="125" r="25" transform="rotate(0 0 0)" fill="magenta" stroke="black" stroke-width="0.5" />
<circle cx="25" cy="175" r="25" transform="rotate(0 0 0)" fill="magenta" stroke="black" stroke-width="0.5" />
<circle cx="75" cy="175" r="25" transform="rotate(0 0 0)" fill="magenta" stroke="black" stroke-width="0.5" />
<circle cx="125" cy="175" r="25" transform="rotate(0 0 0)" fill="magenta" stroke="black" stroke-width="0.5" />
<circle cx="175" cy="175" r="25" transform="rotate(0 0 0)" fill="magenta" stroke="black" stroke-width="0.5" />
<circle cx="225" cy="175" r="25" transform="rotate(0 0 0)" fill="magenta" stroke="black" stroke-width="0.5" />
<circle cx="275" cy="175" r="25" transform="rotate(0 0 0)" fill="magenta" stroke="black" stroke-width="0.5" />
<circle cx="325" cy="175" r="25" transform="rotate(0 0 0)" fill="magenta" stroke="black" stroke-width="0.5" />
<circle cx="375" cy="175" r="25" transform="rotate(0 0 0)" fill="magenta" stroke="black" stroke-width="0.5" />
<circle cx="425" cy="175" r="25" transform="rotate(0 0 0)" fill="magenta" stroke="black" stroke-width="0.5" />
<circle cx="475" cy="175" r="25" transform="rotate(0 0 0)" fill="magenta" stroke="black" stroke-width="0.5" />
<circle cx="525" cy="175" r="25" transform="rotate(0 0 0)" fill="magenta" stroke="black" stroke-width="0.5" />
<circle cx="575" cy="175" r="25" transform="rotate(0 0 0)" fill="magenta" stroke="black" stroke-width="0.5" />
<circle cx="625" cy="175" r="25" transform="rotate(0 0 0)" fill="magenta" stroke="black" stroke-width="0.5" />
<circle cx="675" cy="175" r="25" transform="rotate(0 0 0)" fill="magenta" stroke="black" stroke-width="0.5" />
<circle cx="725" cy="175" r="25" transform="rotate(0 0 0)" fill="magenta" stroke="black" stroke-width="0.5" />
<circle cx="775" cy="175" r="25" transform="rotate(0 0 0)" fill="magenta" stroke="black" stroke-width="0.5" />
<circle cx="25" cy="225" r="25" transform="rotate(0 0 0)" fill="magenta" stroke="black" stroke-width="0.5" />
<circle cx="75" cy="225" r="25" transform="rotate(0 0 0)" fill="magenta" stroke="black" stroke-width="0.5" />
<circle cx="125" cy="225" r="25" transform="rotate(0 0 0)" fill="magenta" stroke="black" stroke-width="0.5" />
<circle cx="175" cy="225" r="25" transform="rotate(0 0 0)" fill="magenta" stroke="black" stroke-width="0.5" />
<circle cx="225" cy="225" r="25" transform="rotate(0 0 0)" fill="magenta" stroke="black" stroke-width="0.5" />
<circle cx="275" cy="225" r="25" transform="rotate(0 0 0)" fill="magenta" stroke="black" stroke-width="0.5" />
<circle cx="325" cy="225" r="25" transform="rotate(0 0 0)" fill="magenta" stroke="black" stroke-width="0.5" />
<circle cx="375" cy="225" r="25" transform="rotate(0 0 0)" fill="magenta" stroke="black" stroke-width="0.5" />
<circle cx="425" cy="225" r="25" transform="rotate(0 0 0)" fill="magenta" stroke="black" stroke-width="0.5" />
<circle cx="475" cy="225" r="25" transform="rotate(0 0 0)" fill="magenta" stroke="black" stroke-width="0.5" />
<circle cx="525" cy="225" r="25" transform="rotate(0 0 0)" fill="magenta" stroke="black" stroke-width="0.5" />
<circle cx="575" cy="225" r="25" transform="rotate(0 0 0)" fill="magenta" stroke="black" stroke-width="0.5" />
<circle cx="625" cy="225" r="25" transform="rotate(0 0 0)" fill="magenta" stroke="black" stroke-width="0.5" />
<circle cx="675" cy="225" r="25" transform="rotate(0 0 0)" fill="magenta" stroke="black" stroke-width="0.5" />
<circle cx="725" cy="225" r="25" transform="rotate(0 0 0)" fill="magenta" stroke="black" stroke-width="0.5" />
<circle cx="775" cy="225" r="25" transform="rotate(0 0 0)" fill="magenta" stroke="black" stroke-width="0.5" />
<circle cx="25" cy="275" r="25" transform="rotate(0 0 0)" fill="magenta" stroke="black" stroke-width="0.5" />
<circle cx="75" cy="275" r="25" transform="rotate(0 0 0)" fill="magenta" stroke="black" stroke-width="0.5" />
<circle cx="125" cy="275" r="25" transform="rotate(0 0 0)" fill="magenta" stroke="black" stroke-width="0.5" />
<circle cx="175" cy="275" r="25" transform="rotate(0 0 0)" fill="magenta" stroke="black" stroke-width="0.5" />
<circle cx="225" cy="275" r="25" transform="rotate(0 0 0)" fill="magenta" stroke="black" stroke-width="0.5" />
<circle cx="275" cy="275" r="25" transform="rotate(0 0 0)" fill="magenta" stroke="black" stroke-width="0.5" />
<circle cx="325" cy="275" r="25" transform="rotate(0 0 0)" fill="magenta" stroke="black" stroke-width="0.5" />
<circle cx="375" cy="275" r="25" transform="rotate(0 0 0)" fill="magenta" stroke="black" stroke-width="0.5" />
<circle cx="425" cy="275" r="25" transform="rotate(0 0 0)" fill="magenta" stroke="black" stroke-width="0.5" />
<circle cx="475" cy="275" r="25" transform="rotate(0 0 0)" fill="magenta" stroke="black" stroke-width="0.5" />
<circle cx="525" cy="275" r="25" transform="rotate(0 0 0)" fill="magenta" stroke="black" stroke-width="0.5" />
<circle cx="575" cy="275" r="25" transform="rotate(0 0 0)" fill="magenta" stroke="black" stroke-width="0.5" />
<circle cx="625" cy="275" r="25" transform="rotate(0 0 0)" fill="magenta" stroke="black" stroke-width="0.5" />
<circle cx="675" cy="275" r="25" transform="rotate(0 0 0)" fill="magenta" stroke="black" stroke-width="0.5" />
<circle cx="725" cy="275" r="25" transform="rotate(0 0 0)" fill="magenta" stroke="black" stroke-width="0.5" />
<circle cx="775" cy="275" r="25" transform="rotate(0 0 0)" fill="magenta" stroke="black" stroke-width="0.5" />
<circle cx="25" cy="325" r="25" transform="rotate(0 0 0)" fill="magenta" stroke="black" stroke-width="0.5" />
<circle cx="75" cy="325" r="25" transform="rotate(0 0 0)" fill="magenta" stroke="black" stroke-width="0.5" />
<circle cx="125" cy="325" r="25" transform="rotate(0 0 0)" fill="magenta" stroke="black" stroke-width="0.5" />
<circle cx="175" cy="325" r="25" transform="rotate(0 0 0)" fill="magenta" stroke="black" stroke-width="0.5" />
<circle cx="225" cy="325" r="25" transform="rotate(0 0 0)" fill="magenta" stroke="black" stroke-width="0.5" />
<circle cx="275" cy="325" r="25" transform="rotate(0 0 0)" fill="magenta" stroke="black" stroke-width="0.5" />
<circle cx="325" cy="325" r="25" transform="rotate(0 0 0)" fill="magenta" stroke="black" stroke-width="0.5" />
<circle cx="375" cy="325" r="25" transform="rotate(0 0 0)" fill="magenta" stroke="black" stroke-width="0.5" />
<circle cx="425" cy="325" r="25" transform="rotate(0 0 0)" fill="magenta" stroke="black" stroke-width="0.5" />
<circle cx="475" cy="325" r="25" transform="rotate(0 0 0)" fill="magenta" stroke="black" stroke-width="0.5" />
<circle cx="525" cy="325" r="25" transform="rotate(0 0 0)" fill="magenta" stroke="black" stroke-width="0.5" />
<circle cx="575" cy="325" r="25" transform="rotate(0 0 0)" fill="magenta" stroke="black" stroke-width="0.5" />
<circle cx="625" cy="325" r="25" transform="rotate(0 0 0)" fill="magenta" stroke="black" stroke-width="0.5" />
<circle cx="675" cy="325" r="25" transform="rotate(0 0 0)" fill="magenta" stroke="black" stroke-width="0.5" />
<circle cx="725" cy="325" r="25" transform="rotate(0 0 0)" fill="magenta" stroke="black" stroke-width="0.5" />
<circle cx="775" cy="325" r="25" transform="rotate(0 0 0)" fill="magenta" stroke="black" stroke-width="0.5" />
</svg>
