<svg version="1.1" baseProfile="full" xmlns="http://www.w3.org/2000/svg">
<circle cx="300" cy="300" r="300" transform="rotate(0 0 0)" fill="brown" stroke="black" stroke-width="0.5" />
<circle cx="300" cy="25" r="25" transform="rotate(0 300 300)" fill="magenta" stroke="black" stroke-width="0.5" />
<circle cx="300" cy="25" r="25" transform="rotate(10.5882 300 300)" fill="magenta" stroke="black" stroke-width="0.5" />
<circle cx="300" cy="25" r="25" transform="rotate(21.1765 300 300)" fill="magenta" stroke="black" stroke-width="0.5" />
<circle cx="300" cy="25" r="25" transform="rotate(31.7647 300 300)" fill="magenta" stroke="black" stroke-width="0.5" />
<circle cx="300" cy="25" r="25" transform="rotate(42.3529 300 300)" fill="magenta" stroke="black" stroke-width="0.5" />
<circle cx="300" cy="25" r="25" transform="rotate(52.9412 300 300)" fill="magenta" stroke="black" stroke-width="0.5" />
<circle cx="300" cy="25" r="25" transform="rotate(63.5294 300 300)" fill="magenta" stroke="black" stroke-width="0.5" />
<circle cx="300" cy="25" r="25" transform="rotate(74.1176 300 300)" fill="magenta" stroke="black" stroke-width="0.5" />
<circle cx="300" cy="25" r="25" transform="rotate(84.7059 300 300)" fill="magenta" stroke="black" stroke-width="0.5" />
<circle cx="300" cy="25" r="25" transform="rotate(95.2941 300 300)" fill="magenta" stroke="black" stroke-width="0.5" />
<circle cx="300" cy="25" r="25" transform="rotate(105.882 300 300)" fill="magenta" stroke="black" stroke-width="0.5" />
<circle cx="300" cy="25" r="25" transform="rotate(116.471 300 300)" fill="magenta" stroke="black" stroke-width="0.5" />
<circle cx="300" cy="25" r="25" transform="rotate(127.059 300 300)" fill="magenta" stroke="black" stroke-width="0.5" />
<circle cx="300" cy="25" r="25" transform="rotate(137.647 300 300)" fill="magenta" stroke="black" stroke-width="0.5" />
<circle cx="300" cy="25" r="25" transform="rotate(148.235 300 300)" fill="magenta" stroke="black" stroke-width="0.5" />
<circle cx="300" cy="25" r="25" transform="rotate(158.824 300 300)" fill="magenta" stroke="black" stroke-width="0.5" />
<circle cx="300" cy="25" r="25" transform="rotate(169.412 300 300)" fill="magenta" stroke="black" stroke-width="0.5" />
<circle cx="300" cy="25" r="25" transform="rotate(180 300 300)" fill="magenta" stroke="black" stroke-width="0.5" />
<circle cx="300" cy="25" r="25" transform="rotate(190.588 300 300)" fill="magenta" stroke="black" stroke-width="0.5" />
<circle cx="300" cy="25" r="25" transform="rotate(201.176 300 300)" fill="magenta" stroke="black" stroke-width="0.5" />
<circle cx="300" cy="25" r="25" transform="rotate(211.765 300 300)" fill="magenta" stroke="black" stroke-width="0.5" />
<circle cx="300" cy="25" r="25" transform="rotate(222.353 300 300)" fill="magenta" stroke="black" stroke-width="0.5" />
<circle cx="300" cy="25" r="25" transform="rotate(232.941 300 300)" fill="magenta" stroke="black" stroke-width="0.5" />
<circle cx="300" cy="25" r="25" transform="rotate(243.529 300 300)" fill="magenta" stroke="black" stroke-width="0.5" />
<circle cx="300" cy="25" r="25" transform="rotate(254.118 300 300)" fill="magenta" stroke="black" stroke-width="0.5" />
<circle cx="300" cy="25" r="25" transform="rotate(264.706 300 300)" fill="magenta" stroke="black" stroke-width="0.5" />
<circle cx="300" cy="25" r="25" transform="rotate(275.294 300 300)" fill="magenta" stroke="black" stroke-width="0.5" />
<circle cx="300" cy="25" r="25" transform="rotate(285.882 300 300)" fill="magenta" stroke="black" stroke-width="0.5" />
<circle cx="300" cy="25" r="25" transform="rotate(296.471 300 300)" fill="magenta" stroke="black" stroke-width="0.5" />
<circle cx="300" cy="25" r="25" transform="rotate(307.059 300 300)" fill="magenta" stroke="black" stroke-width="0.5" />
<circle cx="300" cy="25" r="25" transform="rotate(317.647 300 300)" fill="magenta" stroke="black" stroke-width="0.5" />
<circle cx="300" cy="25" r="25" transform="rotate(328.235 300 300)" fill="magenta" stroke="black" stroke-width="0.5" />
<circle cx="300" cy="25" r="25" transform="rotate(338.824 300 300)" fill="magenta" stroke="black" stroke-width="0.5" />
<circle cx="300" cy="25" r="25" transform="rotate(349.412 300 300)" fill="magenta" stroke="black" stroke-width="0.5" />
<circle cx="300" cy="75" r="25" transform="rotate(0 300 300)" fill="magenta" stroke="black" stroke-width="0.5" />
<circle cx="300" cy="75" r="25" transform="rotate(12.8571 300 300)" fill="magenta" stroke="black" stroke-width="0.5" />
<circle cx="300" cy="75" r="25" transform="rotate(25.7143 300 300)" fill="magenta" stroke="black" stroke-width="0.5" />
<circle cx="300" cy="75" r="25" transform="rotate(38.5714 300 300)" fill="magenta" stroke="black" stroke-width="0.5" />
<circle cx="300" cy="75" r="25" transform="rotate(51.4286 300 300)" fill="magenta" stroke="black" stroke-width="0.5" />
<circle cx="300" cy="75" r="25" transform="rotate(64.2857 300 300)" fill="magenta" stroke="black" stroke-width="0.5" />
<circle cx="300" cy="75" r="25" transform="rotate(77.1429 300 300)" fill="magenta" stroke="black" stroke-width="0.5" />
<circle cx="300" cy="75" r="25" transform="rotate(90 300 300)" fill="magenta" stroke="black" stroke-width="0.5" />
<circle cx="300" cy="75" r="25" transform="rotate(102.857 300 300)" fill="magenta" stroke="black" stroke-width="0.5" />
<circle cx="300" cy="75" r="25" transform="rotate(115.714 300 300)" fill="magenta" stroke="black" stroke-width="0.5" />
<circle cx="300" cy="75" r="25" transform="rotate(128.571 300 300)" fill="magenta" stroke="black" stroke-width="0.5" />
<circle cx="300" cy="75" r="25" transform="rotate(141.429 300 300)" fill="magenta" stroke="black" stroke-width="0.5" />
<circle cx="300" cy="75" r="25" transform="rotate(154.286 300 300)" fill="magenta" stroke="black" stroke-width="0.5" />
<circle cx="300" cy="75" r="25" transform="rotate(167.143 300 300)" fill="magenta" stroke="black" stroke-width="0.5" />
<circle cx="300" cy="75" r="25" transform="rotate(180 300 300)" fill="magenta" stroke="black" stroke-width="0.5" />
<circle cx="300" cy="75" r="25" transform="rotate(192.857 300 300)" fill="magenta" stroke="black" stroke-width="0.5" />
<circle cx="300" cy="75" r="25" transform="rotate(205.714 300 300)" fill="magenta" stroke="black" stroke-width="0.5" />
<circle cx="300" cy="75" r="25" transform="rotate(218.571 300 300)" fill="magenta" stroke="black" stroke-width="0.5" />
<circle cx="300" cy="75" r="25" transform="rotate(231.429 300 300)" fill="magenta" stroke="black" stroke-width="0.5" />
<circle cx="300" cy="75" r="25" transform="rotate(244.286 300 300)" fill="magenta" stroke="black" stroke-width="0.5" />
<circle cx="300" cy="75" r="25" transform="rotate(257.143 300 300)" fill="magenta" stroke="black" stroke-width="0.5" />
<circle cx="300" cy="75" r="25" transform="rotate(270 300 300)" fill="magenta" stroke="black" stroke-width="0.5" />
<circle cx="300" cy="75" r="25" transform="rotate(282.857 300 300)" fill="magenta" stroke="black" stroke-width="0.5" />
<circle cx="300" cy="75" r="25" transform="rotate(295.714 300 300)" fill="magenta" stroke="black" stroke-width="0.5" />
<circle cx="300" cy="75" r="25" transform="rotate(308.571 300 300)" fill="magenta" stroke="black" stroke-width="0.5" />
<circle cx="300" cy="75" r="25" transform="rotate(321.429 300 300)" fill="magenta" stroke="black" stroke-width="0.5" />
<circle cx="300" cy="75" r="25" transform="rotate(334.286 300 300)" fill="magenta" stroke="black" stroke-width="0.5" />
<circle cx="300" cy="75" r="25" transform="rotate(347.143 300 300)" fill="magenta" stroke="black" stroke-width="0.5" />
<circle cx="300" cy="125" r="25" transform="rotate(0 300 300)" fill="magenta" stroke="black" stroke-width="0.5" />
<circle cx="300" cy="125" r="25" transform="rotate(17.1429 300 300)" fill="magenta" stroke="black" stroke-width="0.5" />
<circle cx="300" cy="125" r="25" transform="rotate(34.2857 300 300)" fill="magenta" stroke="black" stroke-width="0.5" />
<circle cx="300" cy="125" r="25" transform="rotate(51.4286 300 300)" fill="magenta" stroke="black" stroke-width="0.5" />
<circle cx="300" cy="125" r="25" transform="rotate(68.5714 300 300)" fill="magenta" stroke="black" stroke-width="0.5" />
<circle cx="300" cy="125" r="25" transform="rotate(85.7143 300 300)" fill="magenta" stroke="black" stroke-width="0.5" />
<circle cx="300" cy="125" r="25" transform="rotate(102.857 300 300)" fill="magenta" stroke="black" stroke-width="0.5" />
<circle cx="300" cy="125" r="25" transform="rotate(120 300 300)" fill="magenta" stroke="black" stroke-width="0.5" />
<circle cx="300" cy="125" r="25" transform="rotate(137.143 300 300)" fill="magenta" stroke="black" stroke-width="0.5" />
<circle cx="300" cy="125" r="25" transform="rotate(154.286 300 300)" fill="magenta" stroke="black" stroke-width="0.5" />
<circle cx="300" cy="125" r="25" transform="rotate(171.429 300 300)" fill="magenta" stroke="black" stroke-width="0.5" />
<circle cx="300" cy="125" r="25" transform="rotate(188.571 300 300)" fill="magenta" stroke="black" stroke-width="0.5" />
<circle cx="300" cy="125" r="25" transform="rotate(205.714 300 300)" fill="magenta" stroke="black" stroke-width="0.5" />
<circle cx="300" cy="125" r="25" transform="rotate(222.857 300 300)" fill="magenta" stroke="black" stroke-width="0.5" />
<circle cx="300" cy="125" r="25" transform="rotate(240 300 300)" fill="magenta" stroke="black" stroke-width="0.5" />
<circle cx="300" cy="125" r="25" transform="rotate(257.143 300 300)" fill="magenta" stroke="black" stroke-width="0.5" />
<circle cx="300" cy="125" r="25" transform="rotate(274.286 300 300)" fill="magenta" stroke="black" stroke-width="0.5" />
<circle cx="300" cy="125" r="25" transform="rotate(291.429 300 300)" fill="magenta" stroke="black" stroke-width="0.5" />
<circle cx="300" cy="125" r="25" transform="rotate(308.571 300 300)" fill="magenta" stroke="black" stroke-width="0.5" />
<circle cx="300" cy="125" r="25" transform="rotate(325.714 300 300)" fill="magenta" stroke="black" stroke-width="0.5" />
<circle cx="300" cy="125" r="25" transform="rotate(342.857 300 300)" fill="magenta" stroke="black" stroke-width="0.5" />
<circle cx="300" cy="175" r="25" transform="rotate(0 300 300)" fill="magenta" stroke="black" stroke-width="0.5" />
<circle cx="300" cy="175" r="25" transform="rotate(24 300 300)" fill="magenta" stroke="black" stroke-width="0.5" />
<circle cx="300" cy="175" r="25" transform="rotate(48 300 300)" fill="magenta" stroke="black" stroke-width="0.5" />
<circle cx="300" cy="175" r="25" transform="rotate(72 300 300)" fill="magenta" stroke="black" stroke-width="0.5" />
<circle cx="300" cy="175" r="25" transform="rotate(96 300 300)" fill="magenta" stroke="black" stroke-width="0.5" />
<circle cx="300" cy="175" r="25" transform="rotate(120 300 300)" fill="magenta" stroke="black" stroke-width="0.5" />
<circle cx="300" cy="175" r="25" transform="rotate(144 300 300)" fill="magenta" stroke="black" stroke-width="0.5" />
<circle cx="300" cy="175" r="25" transform="rotate(168 300 300)" fill="magenta" stroke="black" stroke-width="0.5" />
<circle cx="300" cy="175" r="25" transform="rotate(192 300 300)" fill="magenta" stroke="black" stroke-width="0.5" />
<circle cx="300" cy="175" r="25" transform="rotate(216 300 300)" fill="magenta" stroke="black" stroke-width="0.5" />
<circle cx="300" cy="175" r="25" transform="rotate(240 300 300)" fill="magenta" stroke="black" stroke-width="0.5" />
<circle cx="300" cy="175" r="25" transform="rotate(264 300 300)" fill="magenta" stroke="black" stroke-width="0.5" />
<circle cx="300" cy="175" r="25" transform="rotate(288 300 300)" fill="magenta" stroke="black" stroke-width="0.5" />
<circle cx="300" cy="175" r="25" transform="rotate(312 300 300)" fill="magenta" stroke="black" stroke-width="0.5" />
<circle cx="300" cy="175" r="25" transform="rotate(336 300 300)" fill="magenta" stroke="black" stroke-width="0.5" />
<circle cx="300" cy="225" r="25" transform="rotate(0 300 300)" fill="magenta" stroke="black" stroke-width="0.5" />
<circle cx="300" cy="225" r="25" transform="rotate(40 300 300)" fill="magenta" stroke="black" stroke-width="0.5" />
<circle cx="300" cy="225" r="25" transform="rotate(80 300 300)" fill="magenta" stroke="black" stroke-width="0.5" />
<circle cx="300" cy="225" r="25" transform="rotate(120 300 300)" fill="magenta" stroke="black" stroke-width="0.5" />
<circle cx="300" cy="225" r="25" transform="rotate(160 300 300)" fill="magenta" stroke="black" stroke-width="0.5" />
<circle cx="300" cy="225" r="25" transform="rotate(200 300 300)" fill="magenta" stroke="black" stroke-width="0.5" />
<circle cx="300" cy="225" r="25" transform="rotate(240 300 300)" fill="magenta" stroke="black" stroke-width="0.5" />
<circle cx="300" cy="225" r="25" transform="rotate(280 300 300)" fill="magenta" stroke="black" stroke-width="0.5" />
<circle cx="300" cy="225" r="25" transform="rotate(320 300 300)" fill="magenta" stroke="black" stroke-width="0.5" />
<circle cx="300" cy="275" r="25" transform="rotate(0 300 300)" fill="magenta" stroke="black" stroke-width="0.5" />
<circle cx="300" cy="275" r="25" transform="rotate(180 300 300)" fill="magenta" stroke="black" stroke-width="0.5" />
</svg>
