<svg version="1.1" baseProfile="full" xmlns="http://www.w3.org/2000/svg">
<polygon points="250,0 0,433.013 500,433.013" transform="rotate(0 0 0)" fill="pink" stroke="black" stroke-width="0.5" />
<polygon points="250,0 215,60.6218 285,60.6218" transform="rotate(0 0 0)" fill="magenta" stroke="black" stroke-width="0.5" />
<polygon points="250,121.244 215,60.6218 285,60.6218" transform="rotate(0 0 0)" fill="magenta" stroke="black" stroke-width="0.5" />
<polygon points="215,60.6218 180,121.244 250,121.244" transform="rotate(0 0 0)" fill="magenta" stroke="black" stroke-width="0.5" />
<polygon points="215,181.865 180,121.244 250,121.244" transform="rotate(0 0 0)" fill="magenta" stroke="black" stroke-width="0.5" />
<polygon points="285,60.6218 250,121.244 320,121.244" transform="rotate(0 0 0)" fill="magenta" stroke="black" stroke-width="0.5" />
<polygon points="285,181.865 250,121.244 320,121.244" transform="rotate(0 0 0)" fill="magenta" stroke="black" stroke-width="0.5" />
<polygon points="180,121.244 145,181.865 215,181.865" transform="rotate(0 0 0)" fill="magenta" stroke="black" stroke-width="0.5" />
<polygon points="180,242.487 145,181.865 215,181.865" transform="rotate(0 0 0)" fill="magenta" stroke="black" stroke-width="0.5" />
<polygon points="250,121.244 215,181.865 285,181.865" transform="rotate(0 0 0)" fill="magenta" stroke="black" stroke-width="0.5" />
<polygon points="250,242.487 215,181.865 285,181.865" transform="rotate(0 0 0)" fill="magenta" stroke="black" stroke-width="0.5" />
<polygon points="320,121.244 285,181.865 355,181.865" transform="rotate(0 0 0)" fill="magenta" stroke="black" stroke-width="0.5" />
<polygon points="320,242.487 285,181.865 355,181.865" transform="rotate(0 0 0)" fill="magenta" stroke="black" stroke-width="0.5" />
<polygon points="145,181.865 110,242.487 180,242.487" transform="rotate(0 0 0)" fill="magenta" stroke="black" stroke-width="0.5" />
<polygon points="145,303.109 110,242.487 180,242.487" transform="rotate(0 0 0)" fill="magenta" stroke="black" stroke-width="0.5" />
<polygon points="215,181.865 180,242.487 250,242.487" transform="rotate(0 0 0)" fill="magenta" stroke="black" stroke-width="0.5" />
<polygon points="215,303.109 180,242.487 250,242.487" transform="rotate(0 0 0)" fill="magenta" stroke="black" stroke-width="0.5" />
<polygon points="285,181.865 250,242.487 320,242.487" transform="rotate(0 0 0)" fill="magenta" stroke="black" stroke-width="0.5" />
<polygon points="285,303.109 250,242.487 320,242.487" transform="rotate(0 0 0)" fill="magenta" stroke="black" stroke-width="0.5" />
<polygon points="355,181.865 320,242.487 390,242.487" transform="rotate(0 0 0)" fill="magenta" stroke="black" stroke-width="0.5" />
<polygon points="355,303.109 320,242.487 390,242.487" transform="rotate(0 0 0)" fill="magenta" stroke="black" stroke-width="0.5" />
<polygon points="110,242.487 75,303.109 145,303.109" transform="rotate(0 0 0)" fill="magenta" stroke="black" stroke-width="0.5" />
<polygon points="110,363.731 75,303.109 145,303.109" transform="rotate(0 0 0)" fill="magenta" stroke="black" stroke-width="0.5" />
<polygon points="180,242.487 145,303.109 215,303.109" transform="rotate(0 0 0)" fill="magenta" stroke="black" stroke-width="0.5" />
<polygon points="180,363.731 145,303.109 215,303.109" transform="rotate(0 0 0)" fill="magenta" stroke="black" stroke-width="0.5" />
<polygon points="250,242.487 215,303.109 285,303.109" transform="rotate(0 0 0)" fill="magenta" stroke="black" stroke-width="0.5" />
<polygon points="250,363.731 215,303.109 285,303.109" transform="rotate(0 0 0)" fill="magenta" stroke="black" stroke-width="0.5" />
<polygon points="320,242.487 285,303.109 355,303.109" transform="rotate(0 0 0)" fill="magenta" stroke="black" stroke-width="0.5" />
<polygon points="320,363.731 285,303.109 355,303.109" transform="rotate(0 0 0)" fill="magenta" stroke="black" stroke-width="0.5" />
<polygon points="390,242.487 355,303.109 425,303.109" transform="rotate(0 0 0)" fill="magenta" stroke="black" stroke-width="0.5" />
<polygon points="390,363.731 355,303.109 425,303.109" transform="rotate(0 0 0)" fill="magenta" stroke="black" stroke-width="0.5" />
<polygon points="75,303.109 40,363.731 110,363.731" transform="rotate(0 0 0)" fill="magenta" stroke="black" stroke-width="0.5" />
<polygon points="75,424.352 40,363.731 110,363.731" transform="rotate(0 0 0)" fill="magenta" stroke="black" stroke-width="0.5" />
<polygon points="145,303.109 110,363.731 180,363.731" transform="rotate(0 0 0)" fill="magenta" stroke="black" stroke-width="0.5" />
<polygon points="145,424.352 110,363.731 180,363.731" transform="rotate(0 0 0)" fill="magenta" stroke="black" stroke-width="0.5" />
<polygon points="215,303.109 180,363.731 250,363.731" transform="rotate(0 0 0)" fill="magenta" stroke="black" stroke-width="0.5" />
<polygon points="215,424.352 180,363.731 250,363.731" transform="rotate(0 0 0)" fill="magenta" stroke="black" stroke-width="0.5" />
<polygon points="285,303.109 250,363.731 320,363.731" transform="rotate(0 0 0)" fill="magenta" stroke="black" stroke-width="0.5" />
<polygon points="285,424.352 250,363.731 320,363.731" transform="rotate(0 0 0)" fill="magenta" stroke="black" stroke-width="0.5" />
<polygon points="355,303.109 320,363.731 390,363.731" transform="rotate(0 0 0)" fill="magenta" stroke="black" stroke-width="0.5" />
<polygon points="355,424.352 320,363.731 390,363.731" transform="rotate(0 0 0)" fill="magenta" stroke="black" stroke-width="0.5" />
<polygon points="425,303.109 390,363.731 460,363.731" transform="rotate(0 0 0)" fill="magenta" stroke="black" stroke-width="0.5" />
<polygon points="425,424.352 390,363.731 460,363.731" transform="rotate(0 0 0)" fill="magenta" stroke="black" stroke-width="0.5" />
<polygon points="40,363.731 5,424.352 75,424.352" transform="rotate(0 0 0)" fill="magenta" stroke="black" stroke-width="0.5" />
<polygon points="110,363.731 75,424.352 145,424.352" transform="rotate(0 0 0)" fill="magenta" stroke="black" stroke-width="0.5" />
<polygon points="180,363.731 145,424.352 215,424.352" transform="rotate(0 0 0)" fill="magenta" stroke="black" stroke-width="0.5" />
<polygon points="250,363.731 215,424.352 285,424.352" transform="rotate(0 0 0)" fill="magenta" stroke="black" stroke-width="0.5" />
<polygon points="320,363.731 285,424.352 355,424.352" transform="rotate(0 0 0)" fill="magenta" stroke="black" stroke-width="0.5" />
<polygon points="390,363.731 355,424.352 425,424.352" transform="rotate(0 0 0)" fill="magenta" stroke="black" stroke-width="0.5" />
<polygon points="460,363.731 425,424.352 495,424.352" transform="rotate(0 0 0)" fill="magenta" stroke="black" stroke-width="0.5" />
</svg>
