<svg version="1.1" baseProfile="full" xmlns="http://www.w3.org/2000/svg">
<circle cx="510" cy="510" r="500" transform="rotate(0 0 0)" fill="dimgrey" stroke="black" stroke-width="0.5" />
<circle cx="510" cy="60" r="50" transform="rotate(0 510 510)" fill="green" stroke="black" stroke-width="0.5" />
<circle cx="510" cy="60" r="50" transform="rotate(12.8571 510 510)" fill="green" stroke="black" stroke-width="0.5" />
<circle cx="510" cy="60" r="50" transform="rotate(25.7143 510 510)" fill="green" stroke="black" stroke-width="0.5" />
<circle cx="510" cy="60" r="50" transform="rotate(38.5714 510 510)" fill="green" stroke="black" stroke-width="0.5" />
<circle cx="510" cy="60" r="50" transform="rotate(51.4286 510 510)" fill="green" stroke="black" stroke-width="0.5" />
<circle cx="510" cy="60" r="50" transform="rotate(64.2857 510 510)" fill="green" stroke="black" stroke-width="0.5" />
<circle cx="510" cy="60" r="50" transform="rotate(77.1429 510 510)" fill="green" stroke="black" stroke-width="0.5" />
<circle cx="510" cy="60" r="50" transform="rotate(90 510 510)" fill="green" stroke="black" stroke-width="0.5" />
<circle cx="510" cy="60" r="50" transform="rotate(102.857 510 510)" fill="green" stroke="black" stroke-width="0.5" />
<circle cx="510" cy="60" r="50" transform="rotate(115.714 510 510)" fill="green" stroke="black" stroke-width="0.5" />
<circle cx="510" cy="60" r="50" transform="rotate(128.571 510 510)" fill="green" stroke="black" stroke-width="0.5" />
<circle cx="510" cy="60" r="50" transform="rotate(141.429 510 510)" fill="green" stroke="black" stroke-width="0.5" />
<circle cx="510" cy="60" r="50" transform="rotate(154.286 510 510)" fill="green" stroke="black" stroke-width="0.5" />
<circle cx="510" cy="60" r="50" transform="rotate(167.143 510 510)" fill="green" stroke="black" stroke-width="0.5" />
<circle cx="510" cy="60" r="50" transform="rotate(180 510 510)" fill="green" stroke="black" stroke-width="0.5" />
<circle cx="510" cy="60" r="50" transform="rotate(192.857 510 510)" fill="green" stroke="black" stroke-width="0.5" />
<circle cx="510" cy="60" r="50" transform="rotate(205.714 510 510)" fill="green" stroke="black" stroke-width="0.5" />
<circle cx="510" cy="60" r="50" transform="rotate(218.571 510 510)" fill="green" stroke="black" stroke-width="0.5" />
<circle cx="510" cy="60" r="50" transform="rotate(231.429 510 510)" fill="green" stroke="black" stroke-width="0.5" />
<circle cx="510" cy="60" r="50" transform="rotate(244.286 510 510)" fill="green" stroke="black" stroke-width="0.5" />
<circle cx="510" cy="60" r="50" transform="rotate(257.143 510 510)" fill="green" stroke="black" stroke-width="0.5" />
<circle cx="510" cy="60" r="50" transform="rotate(270 510 510)" fill="green" stroke="black" stroke-width="0.5" />
<circle cx="510" cy="60" r="50" transform="rotate(282.857 510 510)" fill="green" stroke="black" stroke-width="0.5" />
<circle cx="510" cy="60" r="50" transform="rotate(295.714 510 510)" fill="green" stroke="black" stroke-width="0.5" />
<circle cx="510" cy="60" r="50" transform="rotate(308.571 510 510)" fill="green" stroke="black" stroke-width="0.5" />
<circle cx="510" cy="60" r="50" transform="rotate(321.429 510 510)" fill="green" stroke="black" stroke-width="0.5" />
<circle cx="510" cy="60" r="50" transform="rotate(334.286 510 510)" fill="green" stroke="black" stroke-width="0.5" />
<circle cx="510" cy="60" r="50" transform="rotate(347.143 510 510)" fill="green" stroke="black" stroke-width="0.5" />
<circle cx="510" cy="160" r="50" transform="rotate(0 510 510)" fill="green" stroke="black" stroke-width="0.5" />
<circle cx="510" cy="160" r="50" transform="rotate(17.1429 510 510)" fill="green" stroke="black" stroke-width="0.5" />
<circle cx="510" cy="160" r="50" transform="rotate(34.2857 510 510)" fill="green" stroke="black" stroke-width="0.5" />
<circle cx="510" cy="160" r="50" transform="rotate(51.4286 510 510)" fill="green" stroke="black" stroke-width="0.5" />
<circle cx="510" cy="160" r="50" transform="rotate(68.5714 510 510)" fill="green" stroke="black" stroke-width="0.5" />
<circle cx="510" cy="160" r="50" transform="rotate(85.7143 510 510)" fill="green" stroke="black" stroke-width="0.5" />
<circle cx="510" cy="160" r="50" transform="rotate(102.857 510 510)" fill="green" stroke="black" stroke-width="0.5" />
<circle cx="510" cy="160" r="50" transform="rotate(120 510 510)" fill="green" stroke="black" stroke-width="0.5" />
<circle cx="510" cy="160" r="50" transform="rotate(137.143 510 510)" fill="green" stroke="black" stroke-width="0.5" />
<circle cx="510" cy="160" r="50" transform="rotate(154.286 510 510)" fill="green" stroke="black" stroke-width="0.5" />
<circle cx="510" cy="160" r="50" transform="rotate(171.429 510 510)" fill="green" stroke="black" stroke-width="0.5" />
<circle cx="510" cy="160" r="50" transform="rotate(188.571 510 510)" fill="green" stroke="black" stroke-width="0.5" />
<circle cx="510" cy="160" r="50" transform="rotate(205.714 510 510)" fill="green" stroke="black" stroke-width="0.5" />
<circle cx="510" cy="160" r="50" transform="rotate(222.857 510 510)" fill="green" stroke="black" stroke-width="0.5" />
<circle cx="510" cy="160" r="50" transform="rotate(240 510 510)" fill="green" stroke="black" stroke-width="0.5" />
<circle cx="510" cy="160" r="50" transform="rotate(257.143 510 510)" fill="green" stroke="black" stroke-width="0.5" />
<circle cx="510" cy="160" r="50" transform="rotate(274.286 510 510)" fill="green" stroke="black" stroke-width="0.5" />
<circle cx="510" cy="160" r="50" transform="rotate(291.429 510 510)" fill="green" stroke="black" stroke-width="0.5" />
<circle cx="510" cy="160" r="50" transform="rotate(308.571 510 510)" fill="green" stroke="black" stroke-width="0.5" />
<circle cx="510" cy="160" r="50" transform="rotate(325.714 510 510)" fill="green" stroke="black" stroke-width="0.5" />
<circle cx="510" cy="160" r="50" transform="rotate(342.857 510 510)" fill="green" stroke="black" stroke-width="0.5" />
<circle cx="510" cy="260" r="50" transform="rotate(0 510 510)" fill="green" stroke="black" stroke-width="0.5" />
<circle cx="510" cy="260" r="50" transform="rotate(24 510 510)" fill="green" stroke="black" stroke-width="0.5" />
<circle cx="510" cy="260" r="50" transform="rotate(48 510 510)" fill="green" stroke="black" stroke-width="0.5" />
<circle cx="510" cy="260" r="50" transform="rotate(72 510 510)" fill="green" stroke="black" stroke-width="0.5" />
<circle cx="510" cy="260" r="50" transform="rotate(96 510 510)" fill="green" stroke="black" stroke-width="0.5" />
<circle cx="510" cy="260" r="50" transform="rotate(120 510 510)" fill="green" stroke="black" stroke-width="0.5" />
<circle cx="510" cy="260" r="50" transform="rotate(144 510 510)" fill="green" stroke="black" stroke-width="0.5" />
<circle cx="510" cy="260" r="50" transform="rotate(168 510 510)" fill="green" stroke="black" stroke-width="0.5" />
<circle cx="510" cy="260" r="50" transform="rotate(192 510 510)" fill="green" stroke="black" stroke-width="0.5" />
<circle cx="510" cy="260" r="50" transform="rotate(216 510 510)" fill="green" stroke="black" stroke-width="0.5" />
<circle cx="510" cy="260" r="50" transform="rotate(240 510 510)" fill="green" stroke="black" stroke-width="0.5" />
<circle cx="510" cy="260" r="50" transform="rotate(264 510 510)" fill="green" stroke="black" stroke-width="0.5" />
<circle cx="510" cy="260" r="50" transform="rotate(288 510 510)" fill="green" stroke="black" stroke-width="0.5" />
<circle cx="510" cy="260" r="50" transform="rotate(312 510 510)" fill="green" stroke="black" stroke-width="0.5" />
<circle cx="510" cy="260" r="50" transform="rotate(336 510 510)" fill="green" stroke="black" stroke-width="0.5" />
<circle cx="510" cy="360" r="50" transform="rotate(0 510 510)" fill="green" stroke="black" stroke-width="0.5" />
<circle cx="510" cy="360" r="50" transform="rotate(40 510 510)" fill="green" stroke="black" stroke-width="0.5" />
<circle cx="510" cy="360" r="50" transform="rotate(80 510 510)" fill="green" stroke="black" stroke-width="0.5" />
<circle cx="510" cy="360" r="50" transform="rotate(120 510 510)" fill="green" stroke="black" stroke-width="0.5" />
<circle cx="510" cy="360" r="50" transform="rotate(160 510 510)" fill="green" stroke="black" stroke-width="0.5" />
<circle cx="510" cy="360" r="50" transform="rotate(200 510 510)" fill="green" stroke="black" stroke-width="0.5" />
<circle cx="510" cy="360" r="50" transform="rotate(240 510 510)" fill="green" stroke="black" stroke-width="0.5" />
<circle cx="510" cy="360" r="50" transform="rotate(280 510 510)" fill="green" stroke="black" stroke-width="0.5" />
<circle cx="510" cy="360" r="50" transform="rotate(320 510 510)" fill="green" stroke="black" stroke-width="0.5" />
<circle cx="510" cy="460" r="50" transform="rotate(0 510 510)" fill="green" stroke="black" stroke-width="0.5" />
<circle cx="510" cy="460" r="50" transform="rotate(180 510 510)" fill="green" stroke="black" stroke-width="0.5" />
</svg>
