<svg version="1.1" baseProfile="full" xmlns="http://www.w3.org/2000/svg">
<rect x="5"  y="5" width="500" height="500" transform="rotate(0 0 0)" fill="dimgrey" stroke="black" stroke-width="0.5" />
<rect x="5"  y="5" width="60" height="20" transform="rotate(0 0 0)" fill="yellow" stroke="black" stroke-width="0.5" />
<rect x="65"  y="5" width="60" height="20" transform="rotate(0 0 0)" fill="yellow" stroke="black" stroke-width="0.5" />
<rect x="125"  y="5" width="60" height="20" transform="rotate(0 0 0)" fill="yellow" stroke="black" stroke-width="0.5" />
<rect x="185"  y="5" width="60" height="20" transform="rotate(0 0 0)" fill="yellow" stroke="black" stroke-width="0.5" />
<rect x="245"  y="5" width="60" height="20" transform="rotate(0 0 0)" fill="yellow" stroke="black" stroke-width="0.5" />
<rect x="305"  y="5" width="60" height="20" transform="rotate(0 0 0)" fill="yellow" stroke="black" stroke-width="0.5" />
<rect x="365"  y="5" width="60" height="20" transform="rotate(0 0 0)" fill="yellow" stroke="black" stroke-width="0.5" />
<rect x="425"  y="5" width="60" height="20" transform="rotate(0 0 0)" fill="yellow" stroke="black" stroke-width="0.5" />
<rect x="5"  y="25" width="60" height="20" transform="rotate(0 0 0)" fill="yellow" stroke="black" stroke-width="0.5" />
<rect x="65"  y="25" width="60" height="20" transform="rotate(0 0 0)" fill="yellow" stroke="black" stroke-width="0.5" />
<rect x="125"  y="25" width="60" height="20" transform="rotate(0 0 0)" fill="yellow" stroke="black" stroke-width="0.5" />
<rect x="185"  y="25" width="60" height="20" transform="rotate(0 0 0)" fill="yellow" stroke="black" stroke-width="0.5" />
<rect x="245"  y="25" width="60" height="20" transform="rotate(0 0 0)" fill="yellow" stroke="black" stroke-width="0.5" />
<rect x="305"  y="25" width="60" height="20" transform="rotate(0 0 0)" fill="yellow" stroke="black" stroke-width="0.5" />
<rect x="365"  y="25" width="60" height="20" transform="rotate(0 0 0)" fill="yellow" stroke="black" stroke-width="0.5" />
<rect x="425"  y="25" width="60" height="20" transform="rotate(0 0 0)" fill="yellow" stroke="black" stroke-width="0.5" />
<rect x="5"  y="45" width="60" height="20" transform="rotate(0 0 0)" fill="yellow" stroke="black" stroke-width="0.5" />
<rect x="65"  y="45" width="60" height="20" transform="rotate(0 0 0)" fill="yellow" stroke="black" stroke-width="0.5" />
<rect x="125"  y="45" width="60" height="20" transform="rotate(0 0 0)" fill="yellow" stroke="black" stroke-width="0.5" />
<rect x="185"  y="45" width="60" height="20" transform="rotate(0 0 0)" fill="yellow" stroke="black" stroke-width="0.5" />
<rect x="245"  y="45" width="60" height="20" transform="rotate(0 0 0)" fill="yellow" stroke="black" stroke-width="0.5" />
<rect x="305"  y="45" width="60" height="20" transform="rotate(0 0 0)" fill="yellow" stroke="black" stroke-width="0.5" />
<rect x="365"  y="45" width="60" height="20" transform="rotate(0 0 0)" fill="yellow" stroke="black" stroke-width="0.5" />
<rect x="425"  y="45" width="60" height="20" transform="rotate(0 0 0)" fill="yellow" stroke="black" stroke-width="0.5" />
<rect x="5"  y="65" width="60" height="20" transform="rotate(0 0 0)" fill="yellow" stroke="black" stroke-width="0.5" />
<rect x="65"  y="65" width="60" height="20" transform="rotate(0 0 0)" fill="yellow" stroke="black" stroke-width="0.5" />
<rect x="125"  y="65" width="60" height="20" transform="rotate(0 0 0)" fill="yellow" stroke="black" stroke-width="0.5" />
<rect x="185"  y="65" width="60" height="20" transform="rotate(0 0 0)" fill="yellow" stroke="black" stroke-width="0.5" />
<rect x="245"  y="65" width="60" height="20" transform="rotate(0 0 0)" fill="yellow" stroke="black" stroke-width="0.5" />
<rect x="305"  y="65" width="60" height="20" transform="rotate(0 0 0)" fill="yellow" stroke="black" stroke-width="0.5" />
<rect x="365"  y="65" width="60" height="20" transform="rotate(0 0 0)" fill="yellow" stroke="black" stroke-width="0.5" />
<rect x="425"  y="65" width="60" height="20" transform="rotate(0 0 0)" fill="yellow" stroke="black" stroke-width="0.5" />
<rect x="5"  y="85" width="60" height="20" transform="rotate(0 0 0)" fill="yellow" stroke="black" stroke-width="0.5" />
<rect x="65"  y="85" width="60" height="20" transform="rotate(0 0 0)" fill="yellow" stroke="black" stroke-width="0.5" />
<rect x="125"  y="85" width="60" height="20" transform="rotate(0 0 0)" fill="yellow" stroke="black" stroke-width="0.5" />
<rect x="185"  y="85" width="60" height="20" transform="rotate(0 0 0)" fill="yellow" stroke="black" stroke-width="0.5" />
<rect x="245"  y="85" width="60" height="20" transform="rotate(0 0 0)" fill="yellow" stroke="black" stroke-width="0.5" />
<rect x="305"  y="85" width="60" height="20" transform="rotate(0 0 0)" fill="yellow" stroke="black" stroke-width="0.5" />
<rect x="365"  y="85" width="60" height="20" transform="rotate(0 0 0)" fill="yellow" stroke="black" stroke-width="0.5" />
<rect x="425"  y="85" width="60" height="20" transform="rotate(0 0 0)" fill="yellow" stroke="black" stroke-width="0.5" />
<rect x="5"  y="105" width="60" height="20" transform="rotate(0 0 0)" fill="yellow" stroke="black" stroke-width="0.5" />
<rect x="65"  y="105" width="60" height="20" transform="rotate(0 0 0)" fill="yellow" stroke="black" stroke-width="0.5" />
<rect x="125"  y="105" width="60" height="20" transform="rotate(0 0 0)" fill="yellow" stroke="black" stroke-width="0.5" />
<rect x="185"  y="105" width="60" height="20" transform="rotate(0 0 0)" fill="yellow" stroke="black" stroke-width="0.5" />
<rect x="245"  y="105" width="60" height="20" transform="rotate(0 0 0)" fill="yellow" stroke="black" stroke-width="0.5" />
<rect x="305"  y="105" width="60" height="20" transform="rotate(0 0 0)" fill="yellow" stroke="black" stroke-width="0.5" />
<rect x="365"  y="105" width="60" height="20" transform="rotate(0 0 0)" fill="yellow" stroke="black" stroke-width="0.5" />
<rect x="425"  y="105" width="60" height="20" transform="rotate(0 0 0)" fill="yellow" stroke="black" stroke-width="0.5" />
<rect x="5"  y="125" width="60" height="20" transform="rotate(0 0 0)" fill="yellow" stroke="black" stroke-width="0.5" />
<rect x="65"  y="125" width="60" height="20" transform="rotate(0 0 0)" fill="yellow" stroke="black" stroke-width="0.5" />
<rect x="125"  y="125" width="60" height="20" transform="rotate(0 0 0)" fill="yellow" stroke="black" stroke-width="0.5" />
<rect x="185"  y="125" width="60" height="20" transform="rotate(0 0 0)" fill="yellow" stroke="black" stroke-width="0.5" />
<rect x="245"  y="125" width="60" height="20" transform="rotate(0 0 0)" fill="yellow" stroke="black" stroke-width="0.5" />
<rect x="305"  y="125" width="60" height="20" transform="rotate(0 0 0)" fill="yellow" stroke="black" stroke-width="0.5" />
<rect x="365"  y="125" width="60" height="20" transform="rotate(0 0 0)" fill="yellow" stroke="black" stroke-width="0.5" />
<rect x="425"  y="125" width="60" height="20" transform="rotate(0 0 0)" fill="yellow" stroke="black" stroke-width="0.5" />
<rect x="5"  y="145" width="60" height="20" transform="rotate(0 0 0)" fill="yellow" stroke="black" stroke-width="0.5" />
<rect x="65"  y="145" width="60" height="20" transform="rotate(0 0 0)" fill="yellow" stroke="black" stroke-width="0.5" />
<rect x="125"  y="145" width="60" height="20" transform="rotate(0 0 0)" fill="yellow" stroke="black" stroke-width="0.5" />
<rect x="185"  y="145" width="60" height="20" transform="rotate(0 0 0)" fill="yellow" stroke="black" stroke-width="0.5" />
<rect x="245"  y="145" width="60" height="20" transform="rotate(0 0 0)" fill="yellow" stroke="black" stroke-width="0.5" />
<rect x="305"  y="145" width="60" height="20" transform="rotate(0 0 0)" fill="yellow" stroke="black" stroke-width="0.5" />
<rect x="365"  y="145" width="60" height="20" transform="rotate(0 0 0)" fill="yellow" stroke="black" stroke-width="0.5" />
<rect x="425"  y="145" width="60" height="20" transform="rotate(0 0 0)" fill="yellow" stroke="black" stroke-width="0.5" />
<rect x="5"  y="165" width="60" height="20" transform="rotate(0 0 0)" fill="yellow" stroke="black" stroke-width="0.5" />
<rect x="65"  y="165" width="60" height="20" transform="rotate(0 0 0)" fill="yellow" stroke="black" stroke-width="0.5" />
<rect x="125"  y="165" width="60" height="20" transform="rotate(0 0 0)" fill="yellow" stroke="black" stroke-width="0.5" />
<rect x="185"  y="165" width="60" height="20" transform="rotate(0 0 0)" fill="yellow" stroke="black" stroke-width="0.5" />
<rect x="245"  y="165" width="60" height="20" transform="rotate(0 0 0)" fill="yellow" stroke="black" stroke-width="0.5" />
<rect x="305"  y="165" width="60" height="20" transform="rotate(0 0 0)" fill="yellow" stroke="black" stroke-width="0.5" />
<rect x="365"  y="165" width="60" height="20" transform="rotate(0 0 0)" fill="yellow" stroke="black" stroke-width="0.5" />
<rect x="425"  y="165" width="60" height="20" transform="rotate(0 0 0)" fill="yellow" stroke="black" stroke-width="0.5" />
<rect x="5"  y="185" width="60" height="20" transform="rotate(0 0 0)" fill="yellow" stroke="black" stroke-width="0.5" />
<rect x="65"  y="185" width="60" height="20" transform="rotate(0 0 0)" fill="yellow" stroke="black" stroke-width="0.5" />
<rect x="125"  y="185" width="60" height="20" transform="rotate(0 0 0)" fill="yellow" stroke="black" stroke-width="0.5" />
<rect x="185"  y="185" width="60" height="20" transform="rotate(0 0 0)" fill="yellow" stroke="black" stroke-width="0.5" />
<rect x="245"  y="185" width="60" height="20" transform="rotate(0 0 0)" fill="yellow" stroke="black" stroke-width="0.5" />
<rect x="305"  y="185" width="60" height="20" transform="rotate(0 0 0)" fill="yellow" stroke="black" stroke-width="0.5" />
<rect x="365"  y="185" width="60" height="20" transform="rotate(0 0 0)" fill="yellow" stroke="black" stroke-width="0.5" />
<rect x="425"  y="185" width="60" height="20" transform="rotate(0 0 0)" fill="yellow" stroke="black" stroke-width="0.5" />
<rect x="5"  y="205" width="60" height="20" transform="rotate(0 0 0)" fill="yellow" stroke="black" stroke-width="0.5" />
<rect x="65"  y="205" width="60" height="20" transform="rotate(0 0 0)" fill="yellow" stroke="black" stroke-width="0.5" />
<rect x="125"  y="205" width="60" height="20" transform="rotate(0 0 0)" fill="yellow" stroke="black" stroke-width="0.5" />
<rect x="185"  y="205" width="60" height="20" transform="rotate(0 0 0)" fill="yellow" stroke="black" stroke-width="0.5" />
<rect x="245"  y="205" width="60" height="20" transform="rotate(0 0 0)" fill="yellow" stroke="black" stroke-width="0.5" />
<rect x="305"  y="205" width="60" height="20" transform="rotate(0 0 0)" fill="yellow" stroke="black" stroke-width="0.5" />
<rect x="365"  y="205" width="60" height="20" transform="rotate(0 0 0)" fill="yellow" stroke="black" stroke-width="0.5" />
<rect x="425"  y="205" width="60" height="20" transform="rotate(0 0 0)" fill="yellow" stroke="black" stroke-width="0.5" />
<rect x="5"  y="225" width="60" height="20" transform="rotate(0 0 0)" fill="yellow" stroke="black" stroke-width="0.5" />
<rect x="65"  y="225" width="60" height="20" transform="rotate(0 0 0)" fill="yellow" stroke="black" stroke-width="0.5" />
<rect x="125"  y="225" width="60" height="20" transform="rotate(0 0 0)" fill="yellow" stroke="black" stroke-width="0.5" />
<rect x="185"  y="225" width="60" height="20" transform="rotate(0 0 0)" fill="yellow" stroke="black" stroke-width="0.5" />
<rect x="245"  y="225" width="60" height="20" transform="rotate(0 0 0)" fill="yellow" stroke="black" stroke-width="0.5" />
<rect x="305"  y="225" width="60" height="20" transform="rotate(0 0 0)" fill="yellow" stroke="black" stroke-width="0.5" />
<rect x="365"  y="225" width="60" height="20" transform="rotate(0 0 0)" fill="yellow" stroke="black" stroke-width="0.5" />
<rect x="425"  y="225" width="60" height="20" transform="rotate(0 0 0)" fill="yellow" stroke="black" stroke-width="0.5" />
<rect x="5"  y="245" width="60" height="20" transform="rotate(0 0 0)" fill="yellow" stroke="black" stroke-width="0.5" />
<rect x="65"  y="245" width="60" height="20" transform="rotate(0 0 0)" fill="yellow" stroke="black" stroke-width="0.5" />
<rect x="125"  y="245" width="60" height="20" transform="rotate(0 0 0)" fill="yellow" stroke="black" stroke-width="0.5" />
<rect x="185"  y="245" width="60" height="20" transform="rotate(0 0 0)" fill="yellow" stroke="black" stroke-width="0.5" />
<rect x="245"  y="245" width="60" height="20" transform="rotate(0 0 0)" fill="yellow" stroke="black" stroke-width="0.5" />
<rect x="305"  y="245" width="60" height="20" transform="rotate(0 0 0)" fill="yellow" stroke="black" stroke-width="0.5" />
<rect x="365"  y="245" width="60" height="20" transform="rotate(0 0 0)" fill="yellow" stroke="black" stroke-width="0.5" />
<rect x="425"  y="245" width="60" height="20" transform="rotate(0 0 0)" fill="yellow" stroke="black" stroke-width="0.5" />
<rect x="5"  y="265" width="60" height="20" transform="rotate(0 0 0)" fill="yellow" stroke="black" stroke-width="0.5" />
<rect x="65"  y="265" width="60" height="20" transform="rotate(0 0 0)" fill="yellow" stroke="black" stroke-width="0.5" />
<rect x="125"  y="265" width="60" height="20" transform="rotate(0 0 0)" fill="yellow" stroke="black" stroke-width="0.5" />
<rect x="185"  y="265" width="60" height="20" transform="rotate(0 0 0)" fill="yellow" stroke="black" stroke-width="0.5" />
<rect x="245"  y="265" width="60" height="20" transform="rotate(0 0 0)" fill="yellow" stroke="black" stroke-width="0.5" />
<rect x="305"  y="265" width="60" height="20" transform="rotate(0 0 0)" fill="yellow" stroke="black" stroke-width="0.5" />
<rect x="365"  y="265" width="60" height="20" transform="rotate(0 0 0)" fill="yellow" stroke="black" stroke-width="0.5" />
<rect x="425"  y="265" width="60" height="20" transform="rotate(0 0 0)" fill="yellow" stroke="black" stroke-width="0.5" />
<rect x="5"  y="285" width="60" height="20" transform="rotate(0 0 0)" fill="yellow" stroke="black" stroke-width="0.5" />
<rect x="65"  y="285" width="60" height="20" transform="rotate(0 0 0)" fill="yellow" stroke="black" stroke-width="0.5" />
<rect x="125"  y="285" width="60" height="20" transform="rotate(0 0 0)" fill="yellow" stroke="black" stroke-width="0.5" />
<rect x="185"  y="285" width="60" height="20" transform="rotate(0 0 0)" fill="yellow" stroke="black" stroke-width="0.5" />
<rect x="245"  y="285" width="60" height="20" transform="rotate(0 0 0)" fill="yellow" stroke="black" stroke-width="0.5" />
<rect x="305"  y="285" width="60" height="20" transform="rotate(0 0 0)" fill="yellow" stroke="black" stroke-width="0.5" />
<rect x="365"  y="285" width="60" height="20" transform="rotate(0 0 0)" fill="yellow" stroke="black" stroke-width="0.5" />
<rect x="425"  y="285" width="60" height="20" transform="rotate(0 0 0)" fill="yellow" stroke="black" stroke-width="0.5" />
<rect x="5"  y="305" width="60" height="20" transform="rotate(0 0 0)" fill="yellow" stroke="black" stroke-width="0.5" />
<rect x="65"  y="305" width="60" height="20" transform="rotate(0 0 0)" fill="yellow" stroke="black" stroke-width="0.5" />
<rect x="125"  y="305" width="60" height="20" transform="rotate(0 0 0)" fill="yellow" stroke="black" stroke-width="0.5" />
<rect x="185"  y="305" width="60" height="20" transform="rotate(0 0 0)" fill="yellow" stroke="black" stroke-width="0.5" />
<rect x="245"  y="305" width="60" height="20" transform="rotate(0 0 0)" fill="yellow" stroke="black" stroke-width="0.5" />
<rect x="305"  y="305" width="60" height="20" transform="rotate(0 0 0)" fill="yellow" stroke="black" stroke-width="0.5" />
<rect x="365"  y="305" width="60" height="20" transform="rotate(0 0 0)" fill="yellow" stroke="black" stroke-width="0.5" />
<rect x="425"  y="305" width="60" height="20" transform="rotate(0 0 0)" fill="yellow" stroke="black" stroke-width="0.5" />
<rect x="5"  y="325" width="60" height="20" transform="rotate(0 0 0)" fill="yellow" stroke="black" stroke-width="0.5" />
<rect x="65"  y="325" width="60" height="20" transform="rotate(0 0 0)" fill="yellow" stroke="black" stroke-width="0.5" />
<rect x="125"  y="325" width="60" height="20" transform="rotate(0 0 0)" fill="yellow" stroke="black" stroke-width="0.5" />
<rect x="185"  y="325" width="60" height="20" transform="rotate(0 0 0)" fill="yellow" stroke="black" stroke-width="0.5" />
<rect x="245"  y="325" width="60" height="20" transform="rotate(0 0 0)" fill="yellow" stroke="black" stroke-width="0.5" />
<rect x="305"  y="325" width="60" height="20" transform="rotate(0 0 0)" fill="yellow" stroke="black" stroke-width="0.5" />
<rect x="365"  y="325" width="60" height="20" transform="rotate(0 0 0)" fill="yellow" stroke="black" stroke-width="0.5" />
<rect x="425"  y="325" width="60" height="20" transform="rotate(0 0 0)" fill="yellow" stroke="black" stroke-width="0.5" />
<rect x="5"  y="345" width="60" height="20" transform="rotate(0 0 0)" fill="yellow" stroke="black" stroke-width="0.5" />
<rect x="65"  y="345" width="60" height="20" transform="rotate(0 0 0)" fill="yellow" stroke="black" stroke-width="0.5" />
<rect x="125"  y="345" width="60" height="20" transform="rotate(0 0 0)" fill="yellow" stroke="black" stroke-width="0.5" />
<rect x="185"  y="345" width="60" height="20" transform="rotate(0 0 0)" fill="yellow" stroke="black" stroke-width="0.5" />
<rect x="245"  y="345" width="60" height="20" transform="rotate(0 0 0)" fill="yellow" stroke="black" stroke-width="0.5" />
<rect x="305"  y="345" width="60" height="20" transform="rotate(0 0 0)" fill="yellow" stroke="black" stroke-width="0.5" />
<rect x="365"  y="345" width="60" height="20" transform="rotate(0 0 0)" fill="yellow" stroke="black" stroke-width="0.5" />
<rect x="425"  y="345" width="60" height="20" transform="rotate(0 0 0)" fill="yellow" stroke="black" stroke-width="0.5" />
<rect x="5"  y="365" width="60" height="20" transform="rotate(0 0 0)" fill="yellow" stroke="black" stroke-width="0.5" />
<rect x="65"  y="365" width="60" height="20" transform="rotate(0 0 0)" fill="yellow" stroke="black" stroke-width="0.5" />
<rect x="125"  y="365" width="60" height="20" transform="rotate(0 0 0)" fill="yellow" stroke="black" stroke-width="0.5" />
<rect x="185"  y="365" width="60" height="20" transform="rotate(0 0 0)" fill="yellow" stroke="black" stroke-width="0.5" />
<rect x="245"  y="365" width="60" height="20" transform="rotate(0 0 0)" fill="yellow" stroke="black" stroke-width="0.5" />
<rect x="305"  y="365" width="60" height="20" transform="rotate(0 0 0)" fill="yellow" stroke="black" stroke-width="0.5" />
<rect x="365"  y="365" width="60" height="20" transform="rotate(0 0 0)" fill="yellow" stroke="black" stroke-width="0.5" />
<rect x="425"  y="365" width="60" height="20" transform="rotate(0 0 0)" fill="yellow" stroke="black" stroke-width="0.5" />
<rect x="5"  y="385" width="60" height="20" transform="rotate(0 0 0)" fill="yellow" stroke="black" stroke-width="0.5" />
<rect x="65"  y="385" width="60" height="20" transform="rotate(0 0 0)" fill="yellow" stroke="black" stroke-width="0.5" />
<rect x="125"  y="385" width="60" height="20" transform="rotate(0 0 0)" fill="yellow" stroke="black" stroke-width="0.5" />
<rect x="185"  y="385" width="60" height="20" transform="rotate(0 0 0)" fill="yellow" stroke="black" stroke-width="0.5" />
<rect x="245"  y="385" width="60" height="20" transform="rotate(0 0 0)" fill="yellow" stroke="black" stroke-width="0.5" />
<rect x="305"  y="385" width="60" height="20" transform="rotate(0 0 0)" fill="yellow" stroke="black" stroke-width="0.5" />
<rect x="365"  y="385" width="60" height="20" transform="rotate(0 0 0)" fill="yellow" stroke="black" stroke-width="0.5" />
<rect x="425"  y="385" width="60" height="20" transform="rotate(0 0 0)" fill="yellow" stroke="black" stroke-width="0.5" />
<rect x="5"  y="405" width="60" height="20" transform="rotate(0 0 0)" fill="yellow" stroke="black" stroke-width="0.5" />
<rect x="65"  y="405" width="60" height="20" transform="rotate(0 0 0)" fill="yellow" stroke="black" stroke-width="0.5" />
<rect x="125"  y="405" width="60" height="20" transform="rotate(0 0 0)" fill="yellow" stroke="black" stroke-width="0.5" />
<rect x="185"  y="405" width="60" height="20" transform="rotate(0 0 0)" fill="yellow" stroke="black" stroke-width="0.5" />
<rect x="245"  y="405" width="60" height="20" transform="rotate(0 0 0)" fill="yellow" stroke="black" stroke-width="0.5" />
<rect x="305"  y="405" width="60" height="20" transform="rotate(0 0 0)" fill="yellow" stroke="black" stroke-width="0.5" />
<rect x="365"  y="405" width="60" height="20" transform="rotate(0 0 0)" fill="yellow" stroke="black" stroke-width="0.5" />
<rect x="425"  y="405" width="60" height="20" transform="rotate(0 0 0)" fill="yellow" stroke="black" stroke-width="0.5" />
<rect x="5"  y="425" width="60" height="20" transform="rotate(0 0 0)" fill="yellow" stroke="black" stroke-width="0.5" />
<rect x="65"  y="425" width="60" height="20" transform="rotate(0 0 0)" fill="yellow" stroke="black" stroke-width="0.5" />
<rect x="125"  y="425" width="60" height="20" transform="rotate(0 0 0)" fill="yellow" stroke="black" stroke-width="0.5" />
<rect x="185"  y="425" width="60" height="20" transform="rotate(0 0 0)" fill="yellow" stroke="black" stroke-width="0.5" />
<rect x="245"  y="425" width="60" height="20" transform="rotate(0 0 0)" fill="yellow" stroke="black" stroke-width="0.5" />
<rect x="305"  y="425" width="60" height="20" transform="rotate(0 0 0)" fill="yellow" stroke="black" stroke-width="0.5" />
<rect x="365"  y="425" width="60" height="20" transform="rotate(0 0 0)" fill="yellow" stroke="black" stroke-width="0.5" />
<rect x="425"  y="425" width="60" height="20" transform="rotate(0 0 0)" fill="yellow" stroke="black" stroke-width="0.5" />
<rect x="5"  y="445" width="60" height="20" transform="rotate(0 0 0)" fill="yellow" stroke="black" stroke-width="0.5" />
<rect x="65"  y="445" width="60" height="20" transform="rotate(0 0 0)" fill="yellow" stroke="black" stroke-width="0.5" />
<rect x="125"  y="445" width="60" height="20" transform="rotate(0 0 0)" fill="yellow" stroke="black" stroke-width="0.5" />
<rect x="185"  y="445" width="60" height="20" transform="rotate(0 0 0)" fill="yellow" stroke="black" stroke-width="0.5" />
<rect x="245"  y="445" width="60" height="20" transform="rotate(0 0 0)" fill="yellow" stroke="black" stroke-width="0.5" />
<rect x="305"  y="445" width="60" height="20" transform="rotate(0 0 0)" fill="yellow" stroke="black" stroke-width="0.5" />
<rect x="365"  y="445" width="60" height="20" transform="rotate(0 0 0)" fill="yellow" stroke="black" stroke-width="0.5" />
<rect x="425"  y="445" width="60" height="20" transform="rotate(0 0 0)" fill="yellow" stroke="black" stroke-width="0.5" />
<rect x="5"  y="465" width="60" height="20" transform="rotate(0 0 0)" fill="yellow" stroke="black" stroke-width="0.5" />
<rect x="65"  y="465" width="60" height="20" transform="rotate(0 0 0)" fill="yellow" stroke="black" stroke-width="0.5" />
<rect x="125"  y="465" width="60" height="20" transform="rotate(0 0 0)" fill="yellow" stroke="black" stroke-width="0.5" />
<rect x="185"  y="465" width="60" height="20" transform="rotate(0 0 0)" fill="yellow" stroke="black" stroke-width="0.5" />
<rect x="245"  y="465" width="60" height="20" transform="rotate(0 0 0)" fill="yellow" stroke="black" stroke-width="0.5" />
<rect x="305"  y="465" width="60" height="20" transform="rotate(0 0 0)" fill="yellow" stroke="black" stroke-width="0.5" />
<rect x="365"  y="465" width="60" height="20" transform="rotate(0 0 0)" fill="yellow" stroke="black" stroke-width="0.5" />
<rect x="425"  y="465" width="60" height="20" transform="rotate(0 0 0)" fill="yellow" stroke="black" stroke-width="0.5" />
<rect x="5"  y="485" width="60" height="20" transform="rotate(0 0 0)" fill="yellow" stroke="black" stroke-width="0.5" />
<rect x="65"  y="485" width="60" height="20" transform="rotate(0 0 0)" fill="yellow" stroke="black" stroke-width="0.5" />
<rect x="125"  y="485" width="60" height="20" transform="rotate(0 0 0)" fill="yellow" stroke="black" stroke-width="0.5" />
<rect x="185"  y="485" width="60" height="20" transform="rotate(0 0 0)" fill="yellow" stroke="black" stroke-width="0.5" />
<rect x="245"  y="485" width="60" height="20" transform="rotate(0 0 0)" fill="yellow" stroke="black" stroke-width="0.5" />
<rect x="305"  y="485" width="60" height="20" transform="rotate(0 0 0)" fill="yellow" stroke="black" stroke-width="0.5" />
<rect x="365"  y="485" width="60" height="20" transform="rotate(0 0 0)" fill="yellow" stroke="black" stroke-width="0.5" />
<rect x="425"  y="485" width="60" height="20" transform="rotate(0 0 0)" fill="yellow" stroke="black" stroke-width="0.5" />
</svg>
