<svg version="1.1" baseProfile="full" xmlns="http://www.w3.org/2000/svg">
<circle cx="400" cy="400" r="400" transform="rotate(0 0 0)" fill="red" stroke="black" stroke-width="0.5" />
<rect x="117.157"  y="117.157" width="110" height="15" transform="rotate(0 117.157 117.157)" fill="green" stroke="black" stroke-width="0.5" />
<rect x="227.157"  y="117.157" width="110" height="15" transform="rotate(0 117.157 117.157)" fill="green" stroke="black" stroke-width="0.5" />
<rect x="337.157"  y="117.157" width="110" height="15" transform="rotate(0 117.157 117.157)" fill="green" stroke="black" stroke-width="0.5" />
<rect x="447.157"  y="117.157" width="110" height="15" transform="rotate(0 117.157 117.157)" fill="green" stroke="black" stroke-width="0.5" />
<rect x="557.157"  y="117.157" width="110" height="15" transform="rotate(0 117.157 117.157)" fill="green" stroke="black" stroke-width="0.5" />
<rect x="117.157"  y="132.157" width="110" height="15" transform="rotate(0 117.157 117.157)" fill="green" stroke="black" stroke-width="0.5" />
<rect x="227.157"  y="132.157" width="110" height="15" transform="rotate(0 117.157 117.157)" fill="green" stroke="black" stroke-width="0.5" />
<rect x="337.157"  y="132.157" width="110" height="15" transform="rotate(0 117.157 117.157)" fill="green" stroke="black" stroke-width="0.5" />
<rect x="447.157"  y="132.157" width="110" height="15" transform="rotate(0 117.157 117.157)" fill="green" stroke="black" stroke-width="0.5" />
<rect x="557.157"  y="132.157" width="110" height="15" transform="rotate(0 117.157 117.157)" fill="green" stroke="black" stroke-width="0.5" />
<rect x="117.157"  y="147.157" width="110" height="15" transform="rotate(0 117.157 117.157)" fill="green" stroke="black" stroke-width="0.5" />
<rect x="227.157"  y="147.157" width="110" height="15" transform="rotate(0 117.157 117.157)" fill="green" stroke="black" stroke-width="0.5" />
<rect x="337.157"  y="147.157" width="110" height="15" transform="rotate(0 117.157 117.157)" fill="green" stroke="black" stroke-width="0.5" />
<rect x="447.157"  y="147.157" width="110" height="15" transform="rotate(0 117.157 117.157)" fill="green" stroke="black" stroke-width="0.5" />
<rect x="557.157"  y="147.157" width="110" height="15" transform="rotate(0 117.157 117.157)" fill="green" stroke="black" stroke-width="0.5" />
<rect x="117.157"  y="162.157" width="110" height="15" transform="rotate(0 117.157 117.157)" fill="green" stroke="black" stroke-width="0.5" />
<rect x="227.157"  y="162.157" width="110" height="15" transform="rotate(0 117.157 117.157)" fill="green" stroke="black" stroke-width="0.5" />
<rect x="337.157"  y="162.157" width="110" height="15" transform="rotate(0 117.157 117.157)" fill="green" stroke="black" stroke-width="0.5" />
<rect x="447.157"  y="162.157" width="110" height="15" transform="rotate(0 117.157 117.157)" fill="green" stroke="black" stroke-width="0.5" />
<rect x="557.157"  y="162.157" width="110" height="15" transform="rotate(0 117.157 117.157)" fill="green" stroke="black" stroke-width="0.5" />
<rect x="117.157"  y="177.157" width="110" height="15" transform="rotate(0 117.157 117.157)" fill="green" stroke="black" stroke-width="0.5" />
<rect x="227.157"  y="177.157" width="110" height="15" transform="rotate(0 117.157 117.157)" fill="green" stroke="black" stroke-width="0.5" />
<rect x="337.157"  y="177.157" width="110" height="15" transform="rotate(0 117.157 117.157)" fill="green" stroke="black" stroke-width="0.5" />
<rect x="447.157"  y="177.157" width="110" height="15" transform="rotate(0 117.157 117.157)" fill="green" stroke="black" stroke-width="0.5" />
<rect x="557.157"  y="177.157" width="110" height="15" transform="rotate(0 117.157 117.157)" fill="green" stroke="black" stroke-width="0.5" />
<rect x="117.157"  y="192.157" width="110" height="15" transform="rotate(0 117.157 117.157)" fill="green" stroke="black" stroke-width="0.5" />
<rect x="227.157"  y="192.157" width="110" height="15" transform="rotate(0 117.157 117.157)" fill="green" stroke="black" stroke-width="0.5" />
<rect x="337.157"  y="192.157" width="110" height="15" transform="rotate(0 117.157 117.157)" fill="green" stroke="black" stroke-width="0.5" />
<rect x="447.157"  y="192.157" width="110" height="15" transform="rotate(0 117.157 117.157)" fill="green" stroke="black" stroke-width="0.5" />
<rect x="557.157"  y="192.157" width="110" height="15" transform="rotate(0 117.157 117.157)" fill="green" stroke="black" stroke-width="0.5" />
<rect x="117.157"  y="207.157" width="110" height="15" transform="rotate(0 117.157 117.157)" fill="green" stroke="black" stroke-width="0.5" />
<rect x="227.157"  y="207.157" width="110" height="15" transform="rotate(0 117.157 117.157)" fill="green" stroke="black" stroke-width="0.5" />
<rect x="337.157"  y="207.157" width="110" height="15" transform="rotate(0 117.157 117.157)" fill="green" stroke="black" stroke-width="0.5" />
<rect x="447.157"  y="207.157" width="110" height="15" transform="rotate(0 117.157 117.157)" fill="green" stroke="black" stroke-width="0.5" />
<rect x="557.157"  y="207.157" width="110" height="15" transform="rotate(0 117.157 117.157)" fill="green" stroke="black" stroke-width="0.5" />
<rect x="117.157"  y="222.157" width="110" height="15" transform="rotate(0 117.157 117.157)" fill="green" stroke="black" stroke-width="0.5" />
<rect x="227.157"  y="222.157" width="110" height="15" transform="rotate(0 117.157 117.157)" fill="green" stroke="black" stroke-width="0.5" />
<rect x="337.157"  y="222.157" width="110" height="15" transform="rotate(0 117.157 117.157)" fill="green" stroke="black" stroke-width="0.5" />
<rect x="447.157"  y="222.157" width="110" height="15" transform="rotate(0 117.157 117.157)" fill="green" stroke="black" stroke-width="0.5" />
<rect x="557.157"  y="222.157" width="110" height="15" transform="rotate(0 117.157 117.157)" fill="green" stroke="black" stroke-width="0.5" />
<rect x="117.157"  y="237.157" width="110" height="15" transform="rotate(0 117.157 117.157)" fill="green" stroke="black" stroke-width="0.5" />
<rect x="227.157"  y="237.157" width="110" height="15" transform="rotate(0 117.157 117.157)" fill="green" stroke="black" stroke-width="0.5" />
<rect x="337.157"  y="237.157" width="110" height="15" transform="rotate(0 117.157 117.157)" fill="green" stroke="black" stroke-width="0.5" />
<rect x="447.157"  y="237.157" width="110" height="15" transform="rotate(0 117.157 117.157)" fill="green" stroke="black" stroke-width="0.5" />
<rect x="557.157"  y="237.157" width="110" height="15" transform="rotate(0 117.157 117.157)" fill="green" stroke="black" stroke-width="0.5" />
<rect x="117.157"  y="252.157" width="110" height="15" transform="rotate(0 117.157 117.157)" fill="green" stroke="black" stroke-width="0.5" />
<rect x="227.157"  y="252.157" width="110" height="15" transform="rotate(0 117.157 117.157)" fill="green" stroke="black" stroke-width="0.5" />
<rect x="337.157"  y="252.157" width="110" height="15" transform="rotate(0 117.157 117.157)" fill="green" stroke="black" stroke-width="0.5" />
<rect x="447.157"  y="252.157" width="110" height="15" transform="rotate(0 117.157 117.157)" fill="green" stroke="black" stroke-width="0.5" />
<rect x="557.157"  y="252.157" width="110" height="15" transform="rotate(0 117.157 117.157)" fill="green" stroke="black" stroke-width="0.5" />
<rect x="117.157"  y="267.157" width="110" height="15" transform="rotate(0 117.157 117.157)" fill="green" stroke="black" stroke-width="0.5" />
<rect x="227.157"  y="267.157" width="110" height="15" transform="rotate(0 117.157 117.157)" fill="green" stroke="black" stroke-width="0.5" />
<rect x="337.157"  y="267.157" width="110" height="15" transform="rotate(0 117.157 117.157)" fill="green" stroke="black" stroke-width="0.5" />
<rect x="447.157"  y="267.157" width="110" height="15" transform="rotate(0 117.157 117.157)" fill="green" stroke="black" stroke-width="0.5" />
<rect x="557.157"  y="267.157" width="110" height="15" transform="rotate(0 117.157 117.157)" fill="green" stroke="black" stroke-width="0.5" />
<rect x="117.157"  y="282.157" width="110" height="15" transform="rotate(0 117.157 117.157)" fill="green" stroke="black" stroke-width="0.5" />
<rect x="227.157"  y="282.157" width="110" height="15" transform="rotate(0 117.157 117.157)" fill="green" stroke="black" stroke-width="0.5" />
<rect x="337.157"  y="282.157" width="110" height="15" transform="rotate(0 117.157 117.157)" fill="green" stroke="black" stroke-width="0.5" />
<rect x="447.157"  y="282.157" width="110" height="15" transform="rotate(0 117.157 117.157)" fill="green" stroke="black" stroke-width="0.5" />
<rect x="557.157"  y="282.157" width="110" height="15" transform="rotate(0 117.157 117.157)" fill="green" stroke="black" stroke-width="0.5" />
<rect x="117.157"  y="297.157" width="110" height="15" transform="rotate(0 117.157 117.157)" fill="green" stroke="black" stroke-width="0.5" />
<rect x="227.157"  y="297.157" width="110" height="15" transform="rotate(0 117.157 117.157)" fill="green" stroke="black" stroke-width="0.5" />
<rect x="337.157"  y="297.157" width="110" height="15" transform="rotate(0 117.157 117.157)" fill="green" stroke="black" stroke-width="0.5" />
<rect x="447.157"  y="297.157" width="110" height="15" transform="rotate(0 117.157 117.157)" fill="green" stroke="black" stroke-width="0.5" />
<rect x="557.157"  y="297.157" width="110" height="15" transform="rotate(0 117.157 117.157)" fill="green" stroke="black" stroke-width="0.5" />
<rect x="117.157"  y="312.157" width="110" height="15" transform="rotate(0 117.157 117.157)" fill="green" stroke="black" stroke-width="0.5" />
<rect x="227.157"  y="312.157" width="110" height="15" transform="rotate(0 117.157 117.157)" fill="green" stroke="black" stroke-width="0.5" />
<rect x="337.157"  y="312.157" width="110" height="15" transform="rotate(0 117.157 117.157)" fill="green" stroke="black" stroke-width="0.5" />
<rect x="447.157"  y="312.157" width="110" height="15" transform="rotate(0 117.157 117.157)" fill="green" stroke="black" stroke-width="0.5" />
<rect x="557.157"  y="312.157" width="110" height="15" transform="rotate(0 117.157 117.157)" fill="green" stroke="black" stroke-width="0.5" />
<rect x="117.157"  y="327.157" width="110" height="15" transform="rotate(0 117.157 117.157)" fill="green" stroke="black" stroke-width="0.5" />
<rect x="227.157"  y="327.157" width="110" height="15" transform="rotate(0 117.157 117.157)" fill="green" stroke="black" stroke-width="0.5" />
<rect x="337.157"  y="327.157" width="110" height="15" transform="rotate(0 117.157 117.157)" fill="green" stroke="black" stroke-width="0.5" />
<rect x="447.157"  y="327.157" width="110" height="15" transform="rotate(0 117.157 117.157)" fill="green" stroke="black" stroke-width="0.5" />
<rect x="557.157"  y="327.157" width="110" height="15" transform="rotate(0 117.157 117.157)" fill="green" stroke="black" stroke-width="0.5" />
<rect x="117.157"  y="342.157" width="110" height="15" transform="rotate(0 117.157 117.157)" fill="green" stroke="black" stroke-width="0.5" />
<rect x="227.157"  y="342.157" width="110" height="15" transform="rotate(0 117.157 117.157)" fill="green" stroke="black" stroke-width="0.5" />
<rect x="337.157"  y="342.157" width="110" height="15" transform="rotate(0 117.157 117.157)" fill="green" stroke="black" stroke-width="0.5" />
<rect x="447.157"  y="342.157" width="110" height="15" transform="rotate(0 117.157 117.157)" fill="green" stroke="black" stroke-width="0.5" />
<rect x="557.157"  y="342.157" width="110" height="15" transform="rotate(0 117.157 117.157)" fill="green" stroke="black" stroke-width="0.5" />
<rect x="117.157"  y="357.157" width="110" height="15" transform="rotate(0 117.157 117.157)" fill="green" stroke="black" stroke-width="0.5" />
<rect x="227.157"  y="357.157" width="110" height="15" transform="rotate(0 117.157 117.157)" fill="green" stroke="black" stroke-width="0.5" />
<rect x="337.157"  y="357.157" width="110" height="15" transform="rotate(0 117.157 117.157)" fill="green" stroke="black" stroke-width="0.5" />
<rect x="447.157"  y="357.157" width="110" height="15" transform="rotate(0 117.157 117.157)" fill="green" stroke="black" stroke-width="0.5" />
<rect x="557.157"  y="357.157" width="110" height="15" transform="rotate(0 117.157 117.157)" fill="green" stroke="black" stroke-width="0.5" />
<rect x="117.157"  y="372.157" width="110" height="15" transform="rotate(0 117.157 117.157)" fill="green" stroke="black" stroke-width="0.5" />
<rect x="227.157"  y="372.157" width="110" height="15" transform="rotate(0 117.157 117.157)" fill="green" stroke="black" stroke-width="0.5" />
<rect x="337.157"  y="372.157" width="110" height="15" transform="rotate(0 117.157 117.157)" fill="green" stroke="black" stroke-width="0.5" />
<rect x="447.157"  y="372.157" width="110" height="15" transform="rotate(0 117.157 117.157)" fill="green" stroke="black" stroke-width="0.5" />
<rect x="557.157"  y="372.157" width="110" height="15" transform="rotate(0 117.157 117.157)" fill="green" stroke="black" stroke-width="0.5" />
<rect x="117.157"  y="387.157" width="110" height="15" transform="rotate(0 117.157 117.157)" fill="green" stroke="black" stroke-width="0.5" />
<rect x="227.157"  y="387.157" width="110" height="15" transform="rotate(0 117.157 117.157)" fill="green" stroke="black" stroke-width="0.5" />
<rect x="337.157"  y="387.157" width="110" height="15" transform="rotate(0 117.157 117.157)" fill="green" stroke="black" stroke-width="0.5" />
<rect x="447.157"  y="387.157" width="110" height="15" transform="rotate(0 117.157 117.157)" fill="green" stroke="black" stroke-width="0.5" />
<rect x="557.157"  y="387.157" width="110" height="15" transform="rotate(0 117.157 117.157)" fill="green" stroke="black" stroke-width="0.5" />
<rect x="117.157"  y="402.157" width="110" height="15" transform="rotate(0 117.157 117.157)" fill="green" stroke="black" stroke-width="0.5" />
<rect x="227.157"  y="402.157" width="110" height="15" transform="rotate(0 117.157 117.157)" fill="green" stroke="black" stroke-width="0.5" />
<rect x="337.157"  y="402.157" width="110" height="15" transform="rotate(0 117.157 117.157)" fill="green" stroke="black" stroke-width="0.5" />
<rect x="447.157"  y="402.157" width="110" height="15" transform="rotate(0 117.157 117.157)" fill="green" stroke="black" stroke-width="0.5" />
<rect x="557.157"  y="402.157" width="110" height="15" transform="rotate(0 117.157 117.157)" fill="green" stroke="black" stroke-width="0.5" />
<rect x="117.157"  y="417.157" width="110" height="15" transform="rotate(0 117.157 117.157)" fill="green" stroke="black" stroke-width="0.5" />
<rect x="227.157"  y="417.157" width="110" height="15" transform="rotate(0 117.157 117.157)" fill="green" stroke="black" stroke-width="0.5" />
<rect x="337.157"  y="417.157" width="110" height="15" transform="rotate(0 117.157 117.157)" fill="green" stroke="black" stroke-width="0.5" />
<rect x="447.157"  y="417.157" width="110" height="15" transform="rotate(0 117.157 117.157)" fill="green" stroke="black" stroke-width="0.5" />
<rect x="557.157"  y="417.157" width="110" height="15" transform="rotate(0 117.157 117.157)" fill="green" stroke="black" stroke-width="0.5" />
<rect x="117.157"  y="432.157" width="110" height="15" transform="rotate(0 117.157 117.157)" fill="green" stroke="black" stroke-width="0.5" />
<rect x="227.157"  y="432.157" width="110" height="15" transform="rotate(0 117.157 117.157)" fill="green" stroke="black" stroke-width="0.5" />
<rect x="337.157"  y="432.157" width="110" height="15" transform="rotate(0 117.157 117.157)" fill="green" stroke="black" stroke-width="0.5" />
<rect x="447.157"  y="432.157" width="110" height="15" transform="rotate(0 117.157 117.157)" fill="green" stroke="black" stroke-width="0.5" />
<rect x="557.157"  y="432.157" width="110" height="15" transform="rotate(0 117.157 117.157)" fill="green" stroke="black" stroke-width="0.5" />
<rect x="117.157"  y="447.157" width="110" height="15" transform="rotate(0 117.157 117.157)" fill="green" stroke="black" stroke-width="0.5" />
<rect x="227.157"  y="447.157" width="110" height="15" transform="rotate(0 117.157 117.157)" fill="green" stroke="black" stroke-width="0.5" />
<rect x="337.157"  y="447.157" width="110" height="15" transform="rotate(0 117.157 117.157)" fill="green" stroke="black" stroke-width="0.5" />
<rect x="447.157"  y="447.157" width="110" height="15" transform="rotate(0 117.157 117.157)" fill="green" stroke="black" stroke-width="0.5" />
<rect x="557.157"  y="447.157" width="110" height="15" transform="rotate(0 117.157 117.157)" fill="green" stroke="black" stroke-width="0.5" />
<rect x="117.157"  y="462.157" width="110" height="15" transform="rotate(0 117.157 117.157)" fill="green" stroke="black" stroke-width="0.5" />
<rect x="227.157"  y="462.157" width="110" height="15" transform="rotate(0 117.157 117.157)" fill="green" stroke="black" stroke-width="0.5" />
<rect x="337.157"  y="462.157" width="110" height="15" transform="rotate(0 117.157 117.157)" fill="green" stroke="black" stroke-width="0.5" />
<rect x="447.157"  y="462.157" width="110" height="15" transform="rotate(0 117.157 117.157)" fill="green" stroke="black" stroke-width="0.5" />
<rect x="557.157"  y="462.157" width="110" height="15" transform="rotate(0 117.157 117.157)" fill="green" stroke="black" stroke-width="0.5" />
<rect x="117.157"  y="477.157" width="110" height="15" transform="rotate(0 117.157 117.157)" fill="green" stroke="black" stroke-width="0.5" />
<rect x="227.157"  y="477.157" width="110" height="15" transform="rotate(0 117.157 117.157)" fill="green" stroke="black" stroke-width="0.5" />
<rect x="337.157"  y="477.157" width="110" height="15" transform="rotate(0 117.157 117.157)" fill="green" stroke="black" stroke-width="0.5" />
<rect x="447.157"  y="477.157" width="110" height="15" transform="rotate(0 117.157 117.157)" fill="green" stroke="black" stroke-width="0.5" />
<rect x="557.157"  y="477.157" width="110" height="15" transform="rotate(0 117.157 117.157)" fill="green" stroke="black" stroke-width="0.5" />
<rect x="117.157"  y="492.157" width="110" height="15" transform="rotate(0 117.157 117.157)" fill="green" stroke="black" stroke-width="0.5" />
<rect x="227.157"  y="492.157" width="110" height="15" transform="rotate(0 117.157 117.157)" fill="green" stroke="black" stroke-width="0.5" />
<rect x="337.157"  y="492.157" width="110" height="15" transform="rotate(0 117.157 117.157)" fill="green" stroke="black" stroke-width="0.5" />
<rect x="447.157"  y="492.157" width="110" height="15" transform="rotate(0 117.157 117.157)" fill="green" stroke="black" stroke-width="0.5" />
<rect x="557.157"  y="492.157" width="110" height="15" transform="rotate(0 117.157 117.157)" fill="green" stroke="black" stroke-width="0.5" />
<rect x="117.157"  y="507.157" width="110" height="15" transform="rotate(0 117.157 117.157)" fill="green" stroke="black" stroke-width="0.5" />
<rect x="227.157"  y="507.157" width="110" height="15" transform="rotate(0 117.157 117.157)" fill="green" stroke="black" stroke-width="0.5" />
<rect x="337.157"  y="507.157" width="110" height="15" transform="rotate(0 117.157 117.157)" fill="green" stroke="black" stroke-width="0.5" />
<rect x="447.157"  y="507.157" width="110" height="15" transform="rotate(0 117.157 117.157)" fill="green" stroke="black" stroke-width="0.5" />
<rect x="557.157"  y="507.157" width="110" height="15" transform="rotate(0 117.157 117.157)" fill="green" stroke="black" stroke-width="0.5" />
<rect x="117.157"  y="522.157" width="110" height="15" transform="rotate(0 117.157 117.157)" fill="green" stroke="black" stroke-width="0.5" />
<rect x="227.157"  y="522.157" width="110" height="15" transform="rotate(0 117.157 117.157)" fill="green" stroke="black" stroke-width="0.5" />
<rect x="337.157"  y="522.157" width="110" height="15" transform="rotate(0 117.157 117.157)" fill="green" stroke="black" stroke-width="0.5" />
<rect x="447.157"  y="522.157" width="110" height="15" transform="rotate(0 117.157 117.157)" fill="green" stroke="black" stroke-width="0.5" />
<rect x="557.157"  y="522.157" width="110" height="15" transform="rotate(0 117.157 117.157)" fill="green" stroke="black" stroke-width="0.5" />
<rect x="117.157"  y="537.157" width="110" height="15" transform="rotate(0 117.157 117.157)" fill="green" stroke="black" stroke-width="0.5" />
<rect x="227.157"  y="537.157" width="110" height="15" transform="rotate(0 117.157 117.157)" fill="green" stroke="black" stroke-width="0.5" />
<rect x="337.157"  y="537.157" width="110" height="15" transform="rotate(0 117.157 117.157)" fill="green" stroke="black" stroke-width="0.5" />
<rect x="447.157"  y="537.157" width="110" height="15" transform="rotate(0 117.157 117.157)" fill="green" stroke="black" stroke-width="0.5" />
<rect x="557.157"  y="537.157" width="110" height="15" transform="rotate(0 117.157 117.157)" fill="green" stroke="black" stroke-width="0.5" />
<rect x="117.157"  y="552.157" width="110" height="15" transform="rotate(0 117.157 117.157)" fill="green" stroke="black" stroke-width="0.5" />
<rect x="227.157"  y="552.157" width="110" height="15" transform="rotate(0 117.157 117.157)" fill="green" stroke="black" stroke-width="0.5" />
<rect x="337.157"  y="552.157" width="110" height="15" transform="rotate(0 117.157 117.157)" fill="green" stroke="black" stroke-width="0.5" />
<rect x="447.157"  y="552.157" width="110" height="15" transform="rotate(0 117.157 117.157)" fill="green" stroke="black" stroke-width="0.5" />
<rect x="557.157"  y="552.157" width="110" height="15" transform="rotate(0 117.157 117.157)" fill="green" stroke="black" stroke-width="0.5" />
<rect x="117.157"  y="567.157" width="110" height="15" transform="rotate(0 117.157 117.157)" fill="green" stroke="black" stroke-width="0.5" />
<rect x="227.157"  y="567.157" width="110" height="15" transform="rotate(0 117.157 117.157)" fill="green" stroke="black" stroke-width="0.5" />
<rect x="337.157"  y="567.157" width="110" height="15" transform="rotate(0 117.157 117.157)" fill="green" stroke="black" stroke-width="0.5" />
<rect x="447.157"  y="567.157" width="110" height="15" transform="rotate(0 117.157 117.157)" fill="green" stroke="black" stroke-width="0.5" />
<rect x="557.157"  y="567.157" width="110" height="15" transform="rotate(0 117.157 117.157)" fill="green" stroke="black" stroke-width="0.5" />
<rect x="117.157"  y="582.157" width="110" height="15" transform="rotate(0 117.157 117.157)" fill="green" stroke="black" stroke-width="0.5" />
<rect x="227.157"  y="582.157" width="110" height="15" transform="rotate(0 117.157 117.157)" fill="green" stroke="black" stroke-width="0.5" />
<rect x="337.157"  y="582.157" width="110" height="15" transform="rotate(0 117.157 117.157)" fill="green" stroke="black" stroke-width="0.5" />
<rect x="447.157"  y="582.157" width="110" height="15" transform="rotate(0 117.157 117.157)" fill="green" stroke="black" stroke-width="0.5" />
<rect x="557.157"  y="582.157" width="110" height="15" transform="rotate(0 117.157 117.157)" fill="green" stroke="black" stroke-width="0.5" />
<rect x="117.157"  y="597.157" width="110" height="15" transform="rotate(0 117.157 117.157)" fill="green" stroke="black" stroke-width="0.5" />
<rect x="227.157"  y="597.157" width="110" height="15" transform="rotate(0 117.157 117.157)" fill="green" stroke="black" stroke-width="0.5" />
<rect x="337.157"  y="597.157" width="110" height="15" transform="rotate(0 117.157 117.157)" fill="green" stroke="black" stroke-width="0.5" />
<rect x="447.157"  y="597.157" width="110" height="15" transform="rotate(0 117.157 117.157)" fill="green" stroke="black" stroke-width="0.5" />
<rect x="557.157"  y="597.157" width="110" height="15" transform="rotate(0 117.157 117.157)" fill="green" stroke="black" stroke-width="0.5" />
<rect x="117.157"  y="612.157" width="110" height="15" transform="rotate(0 117.157 117.157)" fill="green" stroke="black" stroke-width="0.5" />
<rect x="227.157"  y="612.157" width="110" height="15" transform="rotate(0 117.157 117.157)" fill="green" stroke="black" stroke-width="0.5" />
<rect x="337.157"  y="612.157" width="110" height="15" transform="rotate(0 117.157 117.157)" fill="green" stroke="black" stroke-width="0.5" />
<rect x="447.157"  y="612.157" width="110" height="15" transform="rotate(0 117.157 117.157)" fill="green" stroke="black" stroke-width="0.5" />
<rect x="557.157"  y="612.157" width="110" height="15" transform="rotate(0 117.157 117.157)" fill="green" stroke="black" stroke-width="0.5" />
<rect x="117.157"  y="627.157" width="110" height="15" transform="rotate(0 117.157 117.157)" fill="green" stroke="black" stroke-width="0.5" />
<rect x="227.157"  y="627.157" width="110" height="15" transform="rotate(0 117.157 117.157)" fill="green" stroke="black" stroke-width="0.5" />
<rect x="337.157"  y="627.157" width="110" height="15" transform="rotate(0 117.157 117.157)" fill="green" stroke="black" stroke-width="0.5" />
<rect x="447.157"  y="627.157" width="110" height="15" transform="rotate(0 117.157 117.157)" fill="green" stroke="black" stroke-width="0.5" />
<rect x="557.157"  y="627.157" width="110" height="15" transform="rotate(0 117.157 117.157)" fill="green" stroke="black" stroke-width="0.5" />
<rect x="117.157"  y="642.157" width="110" height="15" transform="rotate(0 117.157 117.157)" fill="green" stroke="black" stroke-width="0.5" />
<rect x="227.157"  y="642.157" width="110" height="15" transform="rotate(0 117.157 117.157)" fill="green" stroke="black" stroke-width="0.5" />
<rect x="337.157"  y="642.157" width="110" height="15" transform="rotate(0 117.157 117.157)" fill="green" stroke="black" stroke-width="0.5" />
<rect x="447.157"  y="642.157" width="110" height="15" transform="rotate(0 117.157 117.157)" fill="green" stroke="black" stroke-width="0.5" />
<rect x="557.157"  y="642.157" width="110" height="15" transform="rotate(0 117.157 117.157)" fill="green" stroke="black" stroke-width="0.5" />
<rect x="117.157"  y="657.157" width="110" height="15" transform="rotate(0 117.157 117.157)" fill="green" stroke="black" stroke-width="0.5" />
<rect x="227.157"  y="657.157" width="110" height="15" transform="rotate(0 117.157 117.157)" fill="green" stroke="black" stroke-width="0.5" />
<rect x="337.157"  y="657.157" width="110" height="15" transform="rotate(0 117.157 117.157)" fill="green" stroke="black" stroke-width="0.5" />
<rect x="447.157"  y="657.157" width="110" height="15" transform="rotate(0 117.157 117.157)" fill="green" stroke="black" stroke-width="0.5" />
<rect x="557.157"  y="657.157" width="110" height="15" transform="rotate(0 117.157 117.157)" fill="green" stroke="black" stroke-width="0.5" />
<rect x="667.157"  y="117.157" width="15" height="110" transform="rotate(0 117.157 117.157)" fill="green" stroke="black" stroke-width="0.5" />
<rect x="667.157"  y="227.157" width="15" height="110" transform="rotate(0 117.157 117.157)" fill="green" stroke="black" stroke-width="0.5" />
<rect x="667.157"  y="337.157" width="15" height="110" transform="rotate(0 117.157 117.157)" fill="green" stroke="black" stroke-width="0.5" />
<rect x="667.157"  y="447.157" width="15" height="110" transform="rotate(0 117.157 117.157)" fill="green" stroke="black" stroke-width="0.5" />
<rect x="667.157"  y="557.157" width="15" height="110" transform="rotate(0 117.157 117.157)" fill="green" stroke="black" stroke-width="0.5" />
<rect x="400"  y="682.843" width="110" height="15" transform="rotate(0 400 400)" fill="green" stroke="black" stroke-width="0.5" />
<rect x="290"  y="682.843" width="110" height="15" transform="rotate(0 400 400)" fill="green" stroke="black" stroke-width="0.5" />
<rect x="510"  y="682.843" width="110" height="15" transform="rotate(0 400 400)" fill="green" stroke="black" stroke-width="0.5" />
<rect x="180"  y="682.843" width="110" height="15" transform="rotate(0 400 400)" fill="green" stroke="black" stroke-width="0.5" />
<rect x="400"  y="697.843" width="110" height="15" transform="rotate(0 400 400)" fill="green" stroke="black" stroke-width="0.5" />
<rect x="290"  y="697.843" width="110" height="15" transform="rotate(0 400 400)" fill="green" stroke="black" stroke-width="0.5" />
<rect x="510"  y="697.843" width="110" height="15" transform="rotate(0 400 400)" fill="green" stroke="black" stroke-width="0.5" />
<rect x="180"  y="697.843" width="110" height="15" transform="rotate(0 400 400)" fill="green" stroke="black" stroke-width="0.5" />
<rect x="400"  y="712.843" width="110" height="15" transform="rotate(0 400 400)" fill="green" stroke="black" stroke-width="0.5" />
<rect x="290"  y="712.843" width="110" height="15" transform="rotate(0 400 400)" fill="green" stroke="black" stroke-width="0.5" />
<rect x="510"  y="712.843" width="110" height="15" transform="rotate(0 400 400)" fill="green" stroke="black" stroke-width="0.5" />
<rect x="180"  y="712.843" width="110" height="15" transform="rotate(0 400 400)" fill="green" stroke="black" stroke-width="0.5" />
<rect x="400"  y="727.843" width="110" height="15" transform="rotate(0 400 400)" fill="green" stroke="black" stroke-width="0.5" />
<rect x="290"  y="727.843" width="110" height="15" transform="rotate(0 400 400)" fill="green" stroke="black" stroke-width="0.5" />
<rect x="400"  y="742.843" width="110" height="15" transform="rotate(0 400 400)" fill="green" stroke="black" stroke-width="0.5" />
<rect x="290"  y="742.843" width="110" height="15" transform="rotate(0 400 400)" fill="green" stroke="black" stroke-width="0.5" />
<rect x="400"  y="757.843" width="110" height="15" transform="rotate(0 400 400)" fill="green" stroke="black" stroke-width="0.5" />
<rect x="290"  y="757.843" width="110" height="15" transform="rotate(0 400 400)" fill="green" stroke="black" stroke-width="0.5" />
<rect x="400"  y="682.843" width="110" height="15" transform="rotate(90 400 400)" fill="green" stroke="black" stroke-width="0.5" />
<rect x="290"  y="682.843" width="110" height="15" transform="rotate(90 400 400)" fill="green" stroke="black" stroke-width="0.5" />
<rect x="510"  y="682.843" width="110" height="15" transform="rotate(90 400 400)" fill="green" stroke="black" stroke-width="0.5" />
<rect x="180"  y="682.843" width="110" height="15" transform="rotate(90 400 400)" fill="green" stroke="black" stroke-width="0.5" />
<rect x="400"  y="697.843" width="110" height="15" transform="rotate(90 400 400)" fill="green" stroke="black" stroke-width="0.5" />
<rect x="290"  y="697.843" width="110" height="15" transform="rotate(90 400 400)" fill="green" stroke="black" stroke-width="0.5" />
<rect x="510"  y="697.843" width="110" height="15" transform="rotate(90 400 400)" fill="green" stroke="black" stroke-width="0.5" />
<rect x="180"  y="697.843" width="110" height="15" transform="rotate(90 400 400)" fill="green" stroke="black" stroke-width="0.5" />
<rect x="400"  y="712.843" width="110" height="15" transform="rotate(90 400 400)" fill="green" stroke="black" stroke-width="0.5" />
<rect x="290"  y="712.843" width="110" height="15" transform="rotate(90 400 400)" fill="green" stroke="black" stroke-width="0.5" />
<rect x="510"  y="712.843" width="110" height="15" transform="rotate(90 400 400)" fill="green" stroke="black" stroke-width="0.5" />
<rect x="180"  y="712.843" width="110" height="15" transform="rotate(90 400 400)" fill="green" stroke="black" stroke-width="0.5" />
<rect x="400"  y="727.843" width="110" height="15" transform="rotate(90 400 400)" fill="green" stroke="black" stroke-width="0.5" />
<rect x="290"  y="727.843" width="110" height="15" transform="rotate(90 400 400)" fill="green" stroke="black" stroke-width="0.5" />
<rect x="400"  y="742.843" width="110" height="15" transform="rotate(90 400 400)" fill="green" stroke="black" stroke-width="0.5" />
<rect x="290"  y="742.843" width="110" height="15" transform="rotate(90 400 400)" fill="green" stroke="black" stroke-width="0.5" />
<rect x="400"  y="757.843" width="110" height="15" transform="rotate(90 400 400)" fill="green" stroke="black" stroke-width="0.5" />
<rect x="290"  y="757.843" width="110" height="15" transform="rotate(90 400 400)" fill="green" stroke="black" stroke-width="0.5" />
<rect x="400"  y="682.843" width="110" height="15" transform="rotate(180 400 400)" fill="green" stroke="black" stroke-width="0.5" />
<rect x="290"  y="682.843" width="110" height="15" transform="rotate(180 400 400)" fill="green" stroke="black" stroke-width="0.5" />
<rect x="510"  y="682.843" width="110" height="15" transform="rotate(180 400 400)" fill="green" stroke="black" stroke-width="0.5" />
<rect x="180"  y="682.843" width="110" height="15" transform="rotate(180 400 400)" fill="green" stroke="black" stroke-width="0.5" />
<rect x="400"  y="697.843" width="110" height="15" transform="rotate(180 400 400)" fill="green" stroke="black" stroke-width="0.5" />
<rect x="290"  y="697.843" width="110" height="15" transform="rotate(180 400 400)" fill="green" stroke="black" stroke-width="0.5" />
<rect x="510"  y="697.843" width="110" height="15" transform="rotate(180 400 400)" fill="green" stroke="black" stroke-width="0.5" />
<rect x="180"  y="697.843" width="110" height="15" transform="rotate(180 400 400)" fill="green" stroke="black" stroke-width="0.5" />
<rect x="400"  y="712.843" width="110" height="15" transform="rotate(180 400 400)" fill="green" stroke="black" stroke-width="0.5" />
<rect x="290"  y="712.843" width="110" height="15" transform="rotate(180 400 400)" fill="green" stroke="black" stroke-width="0.5" />
<rect x="510"  y="712.843" width="110" height="15" transform="rotate(180 400 400)" fill="green" stroke="black" stroke-width="0.5" />
<rect x="180"  y="712.843" width="110" height="15" transform="rotate(180 400 400)" fill="green" stroke="black" stroke-width="0.5" />
<rect x="400"  y="727.843" width="110" height="15" transform="rotate(180 400 400)" fill="green" stroke="black" stroke-width="0.5" />
<rect x="290"  y="727.843" width="110" height="15" transform="rotate(180 400 400)" fill="green" stroke="black" stroke-width="0.5" />
<rect x="400"  y="742.843" width="110" height="15" transform="rotate(180 400 400)" fill="green" stroke="black" stroke-width="0.5" />
<rect x="290"  y="742.843" width="110" height="15" transform="rotate(180 400 400)" fill="green" stroke="black" stroke-width="0.5" />
<rect x="400"  y="757.843" width="110" height="15" transform="rotate(180 400 400)" fill="green" stroke="black" stroke-width="0.5" />
<rect x="290"  y="757.843" width="110" height="15" transform="rotate(180 400 400)" fill="green" stroke="black" stroke-width="0.5" />
<rect x="400"  y="682.843" width="110" height="15" transform="rotate(270 400 400)" fill="green" stroke="black" stroke-width="0.5" />
<rect x="290"  y="682.843" width="110" height="15" transform="rotate(270 400 400)" fill="green" stroke="black" stroke-width="0.5" />
<rect x="510"  y="682.843" width="110" height="15" transform="rotate(270 400 400)" fill="green" stroke="black" stroke-width="0.5" />
<rect x="180"  y="682.843" width="110" height="15" transform="rotate(270 400 400)" fill="green" stroke="black" stroke-width="0.5" />
<rect x="400"  y="697.843" width="110" height="15" transform="rotate(270 400 400)" fill="green" stroke="black" stroke-width="0.5" />
<rect x="290"  y="697.843" width="110" height="15" transform="rotate(270 400 400)" fill="green" stroke="black" stroke-width="0.5" />
<rect x="510"  y="697.843" width="110" height="15" transform="rotate(270 400 400)" fill="green" stroke="black" stroke-width="0.5" />
<rect x="180"  y="697.843" width="110" height="15" transform="rotate(270 400 400)" fill="green" stroke="black" stroke-width="0.5" />
<rect x="400"  y="712.843" width="110" height="15" transform="rotate(270 400 400)" fill="green" stroke="black" stroke-width="0.5" />
<rect x="290"  y="712.843" width="110" height="15" transform="rotate(270 400 400)" fill="green" stroke="black" stroke-width="0.5" />
<rect x="510"  y="712.843" width="110" height="15" transform="rotate(270 400 400)" fill="green" stroke="black" stroke-width="0.5" />
<rect x="180"  y="712.843" width="110" height="15" transform="rotate(270 400 400)" fill="green" stroke="black" stroke-width="0.5" />
<rect x="400"  y="727.843" width="110" height="15" transform="rotate(270 400 400)" fill="green" stroke="black" stroke-width="0.5" />
<rect x="290"  y="727.843" width="110" height="15" transform="rotate(270 400 400)" fill="green" stroke="black" stroke-width="0.5" />
<rect x="400"  y="742.843" width="110" height="15" transform="rotate(270 400 400)" fill="green" stroke="black" stroke-width="0.5" />
<rect x="290"  y="742.843" width="110" height="15" transform="rotate(270 400 400)" fill="green" stroke="black" stroke-width="0.5" />
<rect x="400"  y="757.843" width="110" height="15" transform="rotate(270 400 400)" fill="green" stroke="black" stroke-width="0.5" />
<rect x="290"  y="757.843" width="110" height="15" transform="rotate(270 400 400)" fill="green" stroke="black" stroke-width="0.5" />
</svg>
