<svg version="1.1" baseProfile="full" xmlns="http://www.w3.org/2000/svg">
<polygon points="250,0 0,433.013 500,433.013" transform="rotate(0 0 0)" fill="pink" stroke="black" stroke-width="0.5" />
<circle cx="250" cy="80" r="40" transform="rotate(0 0 0)" fill="yellow" stroke="black" stroke-width="0.5" />
<circle cx="210" cy="149.282" r="40" transform="rotate(0 0 0)" fill="yellow" stroke="black" stroke-width="0.5" />
<circle cx="290" cy="149.282" r="40" transform="rotate(0 0 0)" fill="yellow" stroke="black" stroke-width="0.5" />
<circle cx="250" cy="218.564" r="40" transform="rotate(0 0 0)" fill="yellow" stroke="black" stroke-width="0.5" />
<circle cx="170" cy="218.564" r="40" transform="rotate(0 0 0)" fill="yellow" stroke="black" stroke-width="0.5" />
<circle cx="330" cy="218.564" r="40" transform="rotate(0 0 0)" fill="yellow" stroke="black" stroke-width="0.5" />
<circle cx="210" cy="287.846" r="40" transform="rotate(0 0 0)" fill="yellow" stroke="black" stroke-width="0.5" />
<circle cx="290" cy="287.846" r="40" transform="rotate(0 0 0)" fill="yellow" stroke="black" stroke-width="0.5" />
<circle cx="130" cy="287.846" r="40" transform="rotate(0 0 0)" fill="yellow" stroke="black" stroke-width="0.5" />
<circle cx="370" cy="287.846" r="40" transform="rotate(0 0 0)" fill="yellow" stroke="black" stroke-width="0.5" />
<circle cx="250" cy="357.128" r="40" transform="rotate(0 0 0)" fill="yellow" stroke="black" stroke-width="0.5" />
<circle cx="170" cy="357.128" r="40" transform="rotate(0 0 0)" fill="yellow" stroke="black" stroke-width="0.5" />
<circle cx="90" cy="357.128" r="40" transform="rotate(0 0 0)" fill="yellow" stroke="black" stroke-width="0.5" />
<circle cx="330" cy="357.128" r="40" transform="rotate(0 0 0)" fill="yellow" stroke="black" stroke-width="0.5" />
<circle cx="410" cy="357.128" r="40" transform="rotate(0 0 0)" fill="yellow" stroke="black" stroke-width="0.5" />
</svg>
