<svg version="1.1" baseProfile="full" xmlns="http://www.w3.org/2000/svg">
<polygon points="260,10 10,443.013 510,443.013" transform="rotate(0 0 0)" fill="dimgrey" stroke="black" stroke-width="0.5" />
<polygon points="260,10 230.5,61.0955 289.5,61.0955" transform="rotate(0 0 0)" fill="cyan" stroke="black" stroke-width="0.5" />
<polygon points="260,112.191 230.5,61.0955 289.5,61.0955" transform="rotate(0 0 0)" fill="cyan" stroke="black" stroke-width="0.5" />
<polygon points="230.5,61.0955 201,112.191 260,112.191" transform="rotate(0 0 0)" fill="cyan" stroke="black" stroke-width="0.5" />
<polygon points="230.5,163.286 201,112.191 260,112.191" transform="rotate(0 0 0)" fill="cyan" stroke="black" stroke-width="0.5" />
<polygon points="289.5,61.0955 260,112.191 319,112.191" transform="rotate(0 0 0)" fill="cyan" stroke="black" stroke-width="0.5" />
<polygon points="289.5,163.286 260,112.191 319,112.191" transform="rotate(0 0 0)" fill="cyan" stroke="black" stroke-width="0.5" />
<polygon points="201,112.191 171.5,163.286 230.5,163.286" transform="rotate(0 0 0)" fill="cyan" stroke="black" stroke-width="0.5" />
<polygon points="201,214.382 171.5,163.286 230.5,163.286" transform="rotate(0 0 0)" fill="cyan" stroke="black" stroke-width="0.5" />
<polygon points="260,112.191 230.5,163.286 289.5,163.286" transform="rotate(0 0 0)" fill="cyan" stroke="black" stroke-width="0.5" />
<polygon points="260,214.382 230.5,163.286 289.5,163.286" transform="rotate(0 0 0)" fill="cyan" stroke="black" stroke-width="0.5" />
<polygon points="319,112.191 289.5,163.286 348.5,163.286" transform="rotate(0 0 0)" fill="cyan" stroke="black" stroke-width="0.5" />
<polygon points="319,214.382 289.5,163.286 348.5,163.286" transform="rotate(0 0 0)" fill="cyan" stroke="black" stroke-width="0.5" />
<polygon points="171.5,163.286 142,214.382 201,214.382" transform="rotate(0 0 0)" fill="cyan" stroke="black" stroke-width="0.5" />
<polygon points="171.5,265.477 142,214.382 201,214.382" transform="rotate(0 0 0)" fill="cyan" stroke="black" stroke-width="0.5" />
<polygon points="230.5,163.286 201,214.382 260,214.382" transform="rotate(0 0 0)" fill="cyan" stroke="black" stroke-width="0.5" />
<polygon points="230.5,265.477 201,214.382 260,214.382" transform="rotate(0 0 0)" fill="cyan" stroke="black" stroke-width="0.5" />
<polygon points="289.5,163.286 260,214.382 319,214.382" transform="rotate(0 0 0)" fill="cyan" stroke="black" stroke-width="0.5" />
<polygon points="289.5,265.477 260,214.382 319,214.382" transform="rotate(0 0 0)" fill="cyan" stroke="black" stroke-width="0.5" />
<polygon points="348.5,163.286 319,214.382 378,214.382" transform="rotate(0 0 0)" fill="cyan" stroke="black" stroke-width="0.5" />
<polygon points="348.5,265.477 319,214.382 378,214.382" transform="rotate(0 0 0)" fill="cyan" stroke="black" stroke-width="0.5" />
<polygon points="142,214.382 112.5,265.477 171.5,265.477" transform="rotate(0 0 0)" fill="cyan" stroke="black" stroke-width="0.5" />
<polygon points="142,316.573 112.5,265.477 171.5,265.477" transform="rotate(0 0 0)" fill="cyan" stroke="black" stroke-width="0.5" />
<polygon points="201,214.382 171.5,265.477 230.5,265.477" transform="rotate(0 0 0)" fill="cyan" stroke="black" stroke-width="0.5" />
<polygon points="201,316.573 171.5,265.477 230.5,265.477" transform="rotate(0 0 0)" fill="cyan" stroke="black" stroke-width="0.5" />
<polygon points="260,214.382 230.5,265.477 289.5,265.477" transform="rotate(0 0 0)" fill="cyan" stroke="black" stroke-width="0.5" />
<polygon points="260,316.573 230.5,265.477 289.5,265.477" transform="rotate(0 0 0)" fill="cyan" stroke="black" stroke-width="0.5" />
<polygon points="319,214.382 289.5,265.477 348.5,265.477" transform="rotate(0 0 0)" fill="cyan" stroke="black" stroke-width="0.5" />
<polygon points="319,316.573 289.5,265.477 348.5,265.477" transform="rotate(0 0 0)" fill="cyan" stroke="black" stroke-width="0.5" />
<polygon points="378,214.382 348.5,265.477 407.5,265.477" transform="rotate(0 0 0)" fill="cyan" stroke="black" stroke-width="0.5" />
<polygon points="378,316.573 348.5,265.477 407.5,265.477" transform="rotate(0 0 0)" fill="cyan" stroke="black" stroke-width="0.5" />
<polygon points="112.5,265.477 83,316.573 142,316.573" transform="rotate(0 0 0)" fill="cyan" stroke="black" stroke-width="0.5" />
<polygon points="112.5,367.668 83,316.573 142,316.573" transform="rotate(0 0 0)" fill="cyan" stroke="black" stroke-width="0.5" />
<polygon points="171.5,265.477 142,316.573 201,316.573" transform="rotate(0 0 0)" fill="cyan" stroke="black" stroke-width="0.5" />
<polygon points="171.5,367.668 142,316.573 201,316.573" transform="rotate(0 0 0)" fill="cyan" stroke="black" stroke-width="0.5" />
<polygon points="230.5,265.477 201,316.573 260,316.573" transform="rotate(0 0 0)" fill="cyan" stroke="black" stroke-width="0.5" />
<polygon points="230.5,367.668 201,316.573 260,316.573" transform="rotate(0 0 0)" fill="cyan" stroke="black" stroke-width="0.5" />
<polygon points="289.5,265.477 260,316.573 319,316.573" transform="rotate(0 0 0)" fill="cyan" stroke="black" stroke-width="0.5" />
<polygon points="289.5,367.668 260,316.573 319,316.573" transform="rotate(0 0 0)" fill="cyan" stroke="black" stroke-width="0.5" />
<polygon points="348.5,265.477 319,316.573 378,316.573" transform="rotate(0 0 0)" fill="cyan" stroke="black" stroke-width="0.5" />
<polygon points="348.5,367.668 319,316.573 378,316.573" transform="rotate(0 0 0)" fill="cyan" stroke="black" stroke-width="0.5" />
<polygon points="407.5,265.477 378,316.573 437,316.573" transform="rotate(0 0 0)" fill="cyan" stroke="black" stroke-width="0.5" />
<polygon points="407.5,367.668 378,316.573 437,316.573" transform="rotate(0 0 0)" fill="cyan" stroke="black" stroke-width="0.5" />
<polygon points="83,316.573 53.5,367.668 112.5,367.668" transform="rotate(0 0 0)" fill="cyan" stroke="black" stroke-width="0.5" />
<polygon points="83,418.764 53.5,367.668 112.5,367.668" transform="rotate(0 0 0)" fill="cyan" stroke="black" stroke-width="0.5" />
<polygon points="142,316.573 112.5,367.668 171.5,367.668" transform="rotate(0 0 0)" fill="cyan" stroke="black" stroke-width="0.5" />
<polygon points="142,418.764 112.5,367.668 171.5,367.668" transform="rotate(0 0 0)" fill="cyan" stroke="black" stroke-width="0.5" />
<polygon points="201,316.573 171.5,367.668 230.5,367.668" transform="rotate(0 0 0)" fill="cyan" stroke="black" stroke-width="0.5" />
<polygon points="201,418.764 171.5,367.668 230.5,367.668" transform="rotate(0 0 0)" fill="cyan" stroke="black" stroke-width="0.5" />
<polygon points="260,316.573 230.5,367.668 289.5,367.668" transform="rotate(0 0 0)" fill="cyan" stroke="black" stroke-width="0.5" />
<polygon points="260,418.764 230.5,367.668 289.5,367.668" transform="rotate(0 0 0)" fill="cyan" stroke="black" stroke-width="0.5" />
<polygon points="319,316.573 289.5,367.668 348.5,367.668" transform="rotate(0 0 0)" fill="cyan" stroke="black" stroke-width="0.5" />
<polygon points="319,418.764 289.5,367.668 348.5,367.668" transform="rotate(0 0 0)" fill="cyan" stroke="black" stroke-width="0.5" />
<polygon points="378,316.573 348.5,367.668 407.5,367.668" transform="rotate(0 0 0)" fill="cyan" stroke="black" stroke-width="0.5" />
<polygon points="378,418.764 348.5,367.668 407.5,367.668" transform="rotate(0 0 0)" fill="cyan" stroke="black" stroke-width="0.5" />
<polygon points="437,316.573 407.5,367.668 466.5,367.668" transform="rotate(0 0 0)" fill="cyan" stroke="black" stroke-width="0.5" />
<polygon points="437,418.764 407.5,367.668 466.5,367.668" transform="rotate(0 0 0)" fill="cyan" stroke="black" stroke-width="0.5" />
<polygon points="53.5,367.668 24,418.764 83,418.764" transform="rotate(0 0 0)" fill="cyan" stroke="black" stroke-width="0.5" />
<polygon points="112.5,367.668 83,418.764 142,418.764" transform="rotate(0 0 0)" fill="cyan" stroke="black" stroke-width="0.5" />
<polygon points="171.5,367.668 142,418.764 201,418.764" transform="rotate(0 0 0)" fill="cyan" stroke="black" stroke-width="0.5" />
<polygon points="230.5,367.668 201,418.764 260,418.764" transform="rotate(0 0 0)" fill="cyan" stroke="black" stroke-width="0.5" />
<polygon points="289.5,367.668 260,418.764 319,418.764" transform="rotate(0 0 0)" fill="cyan" stroke="black" stroke-width="0.5" />
<polygon points="348.5,367.668 319,418.764 378,418.764" transform="rotate(0 0 0)" fill="cyan" stroke="black" stroke-width="0.5" />
<polygon points="407.5,367.668 378,418.764 437,418.764" transform="rotate(0 0 0)" fill="cyan" stroke="black" stroke-width="0.5" />
<polygon points="466.5,367.668 437,418.764 496,418.764" transform="rotate(0 0 0)" fill="cyan" stroke="black" stroke-width="0.5" />
</svg>
