<svg version="1.1" baseProfile="full" xmlns="http://www.w3.org/2000/svg">
<rect x="0"  y="0" width="500" height="750" transform="rotate(0 0 0)" fill="pink" stroke="black" stroke-width="0.5" />
<polygon points="29.5,0 0,51.0955 59,51.0955" transform="rotate(0 0 0)" fill="cyan" stroke="black" stroke-width="0.5" />
<polygon points="88.5,0 59,51.0955 118,51.0955" transform="rotate(0 0 0)" fill="cyan" stroke="black" stroke-width="0.5" />
<polygon points="147.5,0 118,51.0955 177,51.0955" transform="rotate(0 0 0)" fill="cyan" stroke="black" stroke-width="0.5" />
<polygon points="206.5,0 177,51.0955 236,51.0955" transform="rotate(0 0 0)" fill="cyan" stroke="black" stroke-width="0.5" />
<polygon points="265.5,0 236,51.0955 295,51.0955" transform="rotate(0 0 0)" fill="cyan" stroke="black" stroke-width="0.5" />
<polygon points="324.5,0 295,51.0955 354,51.0955" transform="rotate(0 0 0)" fill="cyan" stroke="black" stroke-width="0.5" />
<polygon points="383.5,0 354,51.0955 413,51.0955" transform="rotate(0 0 0)" fill="cyan" stroke="black" stroke-width="0.5" />
<polygon points="442.5,0 413,51.0955 472,51.0955" transform="rotate(0 0 0)" fill="cyan" stroke="black" stroke-width="0.5" />
<polygon points="29.5,51.0955 0,102.191 59,102.191" transform="rotate(0 0 0)" fill="cyan" stroke="black" stroke-width="0.5" />
<polygon points="88.5,51.0955 59,102.191 118,102.191" transform="rotate(0 0 0)" fill="cyan" stroke="black" stroke-width="0.5" />
<polygon points="147.5,51.0955 118,102.191 177,102.191" transform="rotate(0 0 0)" fill="cyan" stroke="black" stroke-width="0.5" />
<polygon points="206.5,51.0955 177,102.191 236,102.191" transform="rotate(0 0 0)" fill="cyan" stroke="black" stroke-width="0.5" />
<polygon points="265.5,51.0955 236,102.191 295,102.191" transform="rotate(0 0 0)" fill="cyan" stroke="black" stroke-width="0.5" />
<polygon points="324.5,51.0955 295,102.191 354,102.191" transform="rotate(0 0 0)" fill="cyan" stroke="black" stroke-width="0.5" />
<polygon points="383.5,51.0955 354,102.191 413,102.191" transform="rotate(0 0 0)" fill="cyan" stroke="black" stroke-width="0.5" />
<polygon points="442.5,51.0955 413,102.191 472,102.191" transform="rotate(0 0 0)" fill="cyan" stroke="black" stroke-width="0.5" />
<polygon points="29.5,102.191 0,153.286 59,153.286" transform="rotate(0 0 0)" fill="cyan" stroke="black" stroke-width="0.5" />
<polygon points="88.5,102.191 59,153.286 118,153.286" transform="rotate(0 0 0)" fill="cyan" stroke="black" stroke-width="0.5" />
<polygon points="147.5,102.191 118,153.286 177,153.286" transform="rotate(0 0 0)" fill="cyan" stroke="black" stroke-width="0.5" />
<polygon points="206.5,102.191 177,153.286 236,153.286" transform="rotate(0 0 0)" fill="cyan" stroke="black" stroke-width="0.5" />
<polygon points="265.5,102.191 236,153.286 295,153.286" transform="rotate(0 0 0)" fill="cyan" stroke="black" stroke-width="0.5" />
<polygon points="324.5,102.191 295,153.286 354,153.286" transform="rotate(0 0 0)" fill="cyan" stroke="black" stroke-width="0.5" />
<polygon points="383.5,102.191 354,153.286 413,153.286" transform="rotate(0 0 0)" fill="cyan" stroke="black" stroke-width="0.5" />
<polygon points="442.5,102.191 413,153.286 472,153.286" transform="rotate(0 0 0)" fill="cyan" stroke="black" stroke-width="0.5" />
<polygon points="29.5,153.286 0,204.382 59,204.382" transform="rotate(0 0 0)" fill="cyan" stroke="black" stroke-width="0.5" />
<polygon points="88.5,153.286 59,204.382 118,204.382" transform="rotate(0 0 0)" fill="cyan" stroke="black" stroke-width="0.5" />
<polygon points="147.5,153.286 118,204.382 177,204.382" transform="rotate(0 0 0)" fill="cyan" stroke="black" stroke-width="0.5" />
<polygon points="206.5,153.286 177,204.382 236,204.382" transform="rotate(0 0 0)" fill="cyan" stroke="black" stroke-width="0.5" />
<polygon points="265.5,153.286 236,204.382 295,204.382" transform="rotate(0 0 0)" fill="cyan" stroke="black" stroke-width="0.5" />
<polygon points="324.5,153.286 295,204.382 354,204.382" transform="rotate(0 0 0)" fill="cyan" stroke="black" stroke-width="0.5" />
<polygon points="383.5,153.286 354,204.382 413,204.382" transform="rotate(0 0 0)" fill="cyan" stroke="black" stroke-width="0.5" />
<polygon points="442.5,153.286 413,204.382 472,204.382" transform="rotate(0 0 0)" fill="cyan" stroke="black" stroke-width="0.5" />
<polygon points="29.5,204.382 0,255.477 59,255.477" transform="rotate(0 0 0)" fill="cyan" stroke="black" stroke-width="0.5" />
<polygon points="88.5,204.382 59,255.477 118,255.477" transform="rotate(0 0 0)" fill="cyan" stroke="black" stroke-width="0.5" />
<polygon points="147.5,204.382 118,255.477 177,255.477" transform="rotate(0 0 0)" fill="cyan" stroke="black" stroke-width="0.5" />
<polygon points="206.5,204.382 177,255.477 236,255.477" transform="rotate(0 0 0)" fill="cyan" stroke="black" stroke-width="0.5" />
<polygon points="265.5,204.382 236,255.477 295,255.477" transform="rotate(0 0 0)" fill="cyan" stroke="black" stroke-width="0.5" />
<polygon points="324.5,204.382 295,255.477 354,255.477" transform="rotate(0 0 0)" fill="cyan" stroke="black" stroke-width="0.5" />
<polygon points="383.5,204.382 354,255.477 413,255.477" transform="rotate(0 0 0)" fill="cyan" stroke="black" stroke-width="0.5" />
<polygon points="442.5,204.382 413,255.477 472,255.477" transform="rotate(0 0 0)" fill="cyan" stroke="black" stroke-width="0.5" />
<polygon points="29.5,255.477 0,306.573 59,306.573" transform="rotate(0 0 0)" fill="cyan" stroke="black" stroke-width="0.5" />
<polygon points="88.5,255.477 59,306.573 118,306.573" transform="rotate(0 0 0)" fill="cyan" stroke="black" stroke-width="0.5" />
<polygon points="147.5,255.477 118,306.573 177,306.573" transform="rotate(0 0 0)" fill="cyan" stroke="black" stroke-width="0.5" />
<polygon points="206.5,255.477 177,306.573 236,306.573" transform="rotate(0 0 0)" fill="cyan" stroke="black" stroke-width="0.5" />
<polygon points="265.5,255.477 236,306.573 295,306.573" transform="rotate(0 0 0)" fill="cyan" stroke="black" stroke-width="0.5" />
<polygon points="324.5,255.477 295,306.573 354,306.573" transform="rotate(0 0 0)" fill="cyan" stroke="black" stroke-width="0.5" />
<polygon points="383.5,255.477 354,306.573 413,306.573" transform="rotate(0 0 0)" fill="cyan" stroke="black" stroke-width="0.5" />
<polygon points="442.5,255.477 413,306.573 472,306.573" transform="rotate(0 0 0)" fill="cyan" stroke="black" stroke-width="0.5" />
<polygon points="29.5,306.573 0,357.668 59,357.668" transform="rotate(0 0 0)" fill="cyan" stroke="black" stroke-width="0.5" />
<polygon points="88.5,306.573 59,357.668 118,357.668" transform="rotate(0 0 0)" fill="cyan" stroke="black" stroke-width="0.5" />
<polygon points="147.5,306.573 118,357.668 177,357.668" transform="rotate(0 0 0)" fill="cyan" stroke="black" stroke-width="0.5" />
<polygon points="206.5,306.573 177,357.668 236,357.668" transform="rotate(0 0 0)" fill="cyan" stroke="black" stroke-width="0.5" />
<polygon points="265.5,306.573 236,357.668 295,357.668" transform="rotate(0 0 0)" fill="cyan" stroke="black" stroke-width="0.5" />
<polygon points="324.5,306.573 295,357.668 354,357.668" transform="rotate(0 0 0)" fill="cyan" stroke="black" stroke-width="0.5" />
<polygon points="383.5,306.573 354,357.668 413,357.668" transform="rotate(0 0 0)" fill="cyan" stroke="black" stroke-width="0.5" />
<polygon points="442.5,306.573 413,357.668 472,357.668" transform="rotate(0 0 0)" fill="cyan" stroke="black" stroke-width="0.5" />
<polygon points="29.5,357.668 0,408.764 59,408.764" transform="rotate(0 0 0)" fill="cyan" stroke="black" stroke-width="0.5" />
<polygon points="88.5,357.668 59,408.764 118,408.764" transform="rotate(0 0 0)" fill="cyan" stroke="black" stroke-width="0.5" />
<polygon points="147.5,357.668 118,408.764 177,408.764" transform="rotate(0 0 0)" fill="cyan" stroke="black" stroke-width="0.5" />
<polygon points="206.5,357.668 177,408.764 236,408.764" transform="rotate(0 0 0)" fill="cyan" stroke="black" stroke-width="0.5" />
<polygon points="265.5,357.668 236,408.764 295,408.764" transform="rotate(0 0 0)" fill="cyan" stroke="black" stroke-width="0.5" />
<polygon points="324.5,357.668 295,408.764 354,408.764" transform="rotate(0 0 0)" fill="cyan" stroke="black" stroke-width="0.5" />
<polygon points="383.5,357.668 354,408.764 413,408.764" transform="rotate(0 0 0)" fill="cyan" stroke="black" stroke-width="0.5" />
<polygon points="442.5,357.668 413,408.764 472,408.764" transform="rotate(0 0 0)" fill="cyan" stroke="black" stroke-width="0.5" />
<polygon points="29.5,408.764 0,459.859 59,459.859" transform="rotate(0 0 0)" fill="cyan" stroke="black" stroke-width="0.5" />
<polygon points="88.5,408.764 59,459.859 118,459.859" transform="rotate(0 0 0)" fill="cyan" stroke="black" stroke-width="0.5" />
<polygon points="147.5,408.764 118,459.859 177,459.859" transform="rotate(0 0 0)" fill="cyan" stroke="black" stroke-width="0.5" />
<polygon points="206.5,408.764 177,459.859 236,459.859" transform="rotate(0 0 0)" fill="cyan" stroke="black" stroke-width="0.5" />
<polygon points="265.5,408.764 236,459.859 295,459.859" transform="rotate(0 0 0)" fill="cyan" stroke="black" stroke-width="0.5" />
<polygon points="324.5,408.764 295,459.859 354,459.859" transform="rotate(0 0 0)" fill="cyan" stroke="black" stroke-width="0.5" />
<polygon points="383.5,408.764 354,459.859 413,459.859" transform="rotate(0 0 0)" fill="cyan" stroke="black" stroke-width="0.5" />
<polygon points="442.5,408.764 413,459.859 472,459.859" transform="rotate(0 0 0)" fill="cyan" stroke="black" stroke-width="0.5" />
<polygon points="29.5,459.859 0,510.955 59,510.955" transform="rotate(0 0 0)" fill="cyan" stroke="black" stroke-width="0.5" />
<polygon points="88.5,459.859 59,510.955 118,510.955" transform="rotate(0 0 0)" fill="cyan" stroke="black" stroke-width="0.5" />
<polygon points="147.5,459.859 118,510.955 177,510.955" transform="rotate(0 0 0)" fill="cyan" stroke="black" stroke-width="0.5" />
<polygon points="206.5,459.859 177,510.955 236,510.955" transform="rotate(0 0 0)" fill="cyan" stroke="black" stroke-width="0.5" />
<polygon points="265.5,459.859 236,510.955 295,510.955" transform="rotate(0 0 0)" fill="cyan" stroke="black" stroke-width="0.5" />
<polygon points="324.5,459.859 295,510.955 354,510.955" transform="rotate(0 0 0)" fill="cyan" stroke="black" stroke-width="0.5" />
<polygon points="383.5,459.859 354,510.955 413,510.955" transform="rotate(0 0 0)" fill="cyan" stroke="black" stroke-width="0.5" />
<polygon points="442.5,459.859 413,510.955 472,510.955" transform="rotate(0 0 0)" fill="cyan" stroke="black" stroke-width="0.5" />
<polygon points="29.5,510.955 0,562.05 59,562.05" transform="rotate(0 0 0)" fill="cyan" stroke="black" stroke-width="0.5" />
<polygon points="88.5,510.955 59,562.05 118,562.05" transform="rotate(0 0 0)" fill="cyan" stroke="black" stroke-width="0.5" />
<polygon points="147.5,510.955 118,562.05 177,562.05" transform="rotate(0 0 0)" fill="cyan" stroke="black" stroke-width="0.5" />
<polygon points="206.5,510.955 177,562.05 236,562.05" transform="rotate(0 0 0)" fill="cyan" stroke="black" stroke-width="0.5" />
<polygon points="265.5,510.955 236,562.05 295,562.05" transform="rotate(0 0 0)" fill="cyan" stroke="black" stroke-width="0.5" />
<polygon points="324.5,510.955 295,562.05 354,562.05" transform="rotate(0 0 0)" fill="cyan" stroke="black" stroke-width="0.5" />
<polygon points="383.5,510.955 354,562.05 413,562.05" transform="rotate(0 0 0)" fill="cyan" stroke="black" stroke-width="0.5" />
<polygon points="442.5,510.955 413,562.05 472,562.05" transform="rotate(0 0 0)" fill="cyan" stroke="black" stroke-width="0.5" />
<polygon points="29.5,562.05 0,613.146 59,613.146" transform="rotate(0 0 0)" fill="cyan" stroke="black" stroke-width="0.5" />
<polygon points="88.5,562.05 59,613.146 118,613.146" transform="rotate(0 0 0)" fill="cyan" stroke="black" stroke-width="0.5" />
<polygon points="147.5,562.05 118,613.146 177,613.146" transform="rotate(0 0 0)" fill="cyan" stroke="black" stroke-width="0.5" />
<polygon points="206.5,562.05 177,613.146 236,613.146" transform="rotate(0 0 0)" fill="cyan" stroke="black" stroke-width="0.5" />
<polygon points="265.5,562.05 236,613.146 295,613.146" transform="rotate(0 0 0)" fill="cyan" stroke="black" stroke-width="0.5" />
<polygon points="324.5,562.05 295,613.146 354,613.146" transform="rotate(0 0 0)" fill="cyan" stroke="black" stroke-width="0.5" />
<polygon points="383.5,562.05 354,613.146 413,613.146" transform="rotate(0 0 0)" fill="cyan" stroke="black" stroke-width="0.5" />
<polygon points="442.5,562.05 413,613.146 472,613.146" transform="rotate(0 0 0)" fill="cyan" stroke="black" stroke-width="0.5" />
<polygon points="29.5,613.146 0,664.241 59,664.241" transform="rotate(0 0 0)" fill="cyan" stroke="black" stroke-width="0.5" />
<polygon points="88.5,613.146 59,664.241 118,664.241" transform="rotate(0 0 0)" fill="cyan" stroke="black" stroke-width="0.5" />
<polygon points="147.5,613.146 118,664.241 177,664.241" transform="rotate(0 0 0)" fill="cyan" stroke="black" stroke-width="0.5" />
<polygon points="206.5,613.146 177,664.241 236,664.241" transform="rotate(0 0 0)" fill="cyan" stroke="black" stroke-width="0.5" />
<polygon points="265.5,613.146 236,664.241 295,664.241" transform="rotate(0 0 0)" fill="cyan" stroke="black" stroke-width="0.5" />
<polygon points="324.5,613.146 295,664.241 354,664.241" transform="rotate(0 0 0)" fill="cyan" stroke="black" stroke-width="0.5" />
<polygon points="383.5,613.146 354,664.241 413,664.241" transform="rotate(0 0 0)" fill="cyan" stroke="black" stroke-width="0.5" />
<polygon points="442.5,613.146 413,664.241 472,664.241" transform="rotate(0 0 0)" fill="cyan" stroke="black" stroke-width="0.5" />
<polygon points="29.5,664.241 0,715.337 59,715.337" transform="rotate(0 0 0)" fill="cyan" stroke="black" stroke-width="0.5" />
<polygon points="88.5,664.241 59,715.337 118,715.337" transform="rotate(0 0 0)" fill="cyan" stroke="black" stroke-width="0.5" />
<polygon points="147.5,664.241 118,715.337 177,715.337" transform="rotate(0 0 0)" fill="cyan" stroke="black" stroke-width="0.5" />
<polygon points="206.5,664.241 177,715.337 236,715.337" transform="rotate(0 0 0)" fill="cyan" stroke="black" stroke-width="0.5" />
<polygon points="265.5,664.241 236,715.337 295,715.337" transform="rotate(0 0 0)" fill="cyan" stroke="black" stroke-width="0.5" />
<polygon points="324.5,664.241 295,715.337 354,715.337" transform="rotate(0 0 0)" fill="cyan" stroke="black" stroke-width="0.5" />
<polygon points="383.5,664.241 354,715.337 413,715.337" transform="rotate(0 0 0)" fill="cyan" stroke="black" stroke-width="0.5" />
<polygon points="442.5,664.241 413,715.337 472,715.337" transform="rotate(0 0 0)" fill="cyan" stroke="black" stroke-width="0.5" />
<polygon points="29.5,0 59,51.0955 88.5,0" transform="rotate(0 0 0)" fill="cyan" stroke="black" stroke-width="0.5" />
<polygon points="88.5,0 118,51.0955 147.5,0" transform="rotate(0 0 0)" fill="cyan" stroke="black" stroke-width="0.5" />
<polygon points="147.5,0 177,51.0955 206.5,0" transform="rotate(0 0 0)" fill="cyan" stroke="black" stroke-width="0.5" />
<polygon points="206.5,0 236,51.0955 265.5,0" transform="rotate(0 0 0)" fill="cyan" stroke="black" stroke-width="0.5" />
<polygon points="265.5,0 295,51.0955 324.5,0" transform="rotate(0 0 0)" fill="cyan" stroke="black" stroke-width="0.5" />
<polygon points="324.5,0 354,51.0955 383.5,0" transform="rotate(0 0 0)" fill="cyan" stroke="black" stroke-width="0.5" />
<polygon points="383.5,0 413,51.0955 442.5,0" transform="rotate(0 0 0)" fill="cyan" stroke="black" stroke-width="0.5" />
<polygon points="29.5,51.0955 59,102.191 88.5,51.0955" transform="rotate(0 0 0)" fill="cyan" stroke="black" stroke-width="0.5" />
<polygon points="88.5,51.0955 118,102.191 147.5,51.0955" transform="rotate(0 0 0)" fill="cyan" stroke="black" stroke-width="0.5" />
<polygon points="147.5,51.0955 177,102.191 206.5,51.0955" transform="rotate(0 0 0)" fill="cyan" stroke="black" stroke-width="0.5" />
<polygon points="206.5,51.0955 236,102.191 265.5,51.0955" transform="rotate(0 0 0)" fill="cyan" stroke="black" stroke-width="0.5" />
<polygon points="265.5,51.0955 295,102.191 324.5,51.0955" transform="rotate(0 0 0)" fill="cyan" stroke="black" stroke-width="0.5" />
<polygon points="324.5,51.0955 354,102.191 383.5,51.0955" transform="rotate(0 0 0)" fill="cyan" stroke="black" stroke-width="0.5" />
<polygon points="383.5,51.0955 413,102.191 442.5,51.0955" transform="rotate(0 0 0)" fill="cyan" stroke="black" stroke-width="0.5" />
<polygon points="29.5,102.191 59,153.286 88.5,102.191" transform="rotate(0 0 0)" fill="cyan" stroke="black" stroke-width="0.5" />
<polygon points="88.5,102.191 118,153.286 147.5,102.191" transform="rotate(0 0 0)" fill="cyan" stroke="black" stroke-width="0.5" />
<polygon points="147.5,102.191 177,153.286 206.5,102.191" transform="rotate(0 0 0)" fill="cyan" stroke="black" stroke-width="0.5" />
<polygon points="206.5,102.191 236,153.286 265.5,102.191" transform="rotate(0 0 0)" fill="cyan" stroke="black" stroke-width="0.5" />
<polygon points="265.5,102.191 295,153.286 324.5,102.191" transform="rotate(0 0 0)" fill="cyan" stroke="black" stroke-width="0.5" />
<polygon points="324.5,102.191 354,153.286 383.5,102.191" transform="rotate(0 0 0)" fill="cyan" stroke="black" stroke-width="0.5" />
<polygon points="383.5,102.191 413,153.286 442.5,102.191" transform="rotate(0 0 0)" fill="cyan" stroke="black" stroke-width="0.5" />
<polygon points="29.5,153.286 59,204.382 88.5,153.286" transform="rotate(0 0 0)" fill="cyan" stroke="black" stroke-width="0.5" />
<polygon points="88.5,153.286 118,204.382 147.5,153.286" transform="rotate(0 0 0)" fill="cyan" stroke="black" stroke-width="0.5" />
<polygon points="147.5,153.286 177,204.382 206.5,153.286" transform="rotate(0 0 0)" fill="cyan" stroke="black" stroke-width="0.5" />
<polygon points="206.5,153.286 236,204.382 265.5,153.286" transform="rotate(0 0 0)" fill="cyan" stroke="black" stroke-width="0.5" />
<polygon points="265.5,153.286 295,204.382 324.5,153.286" transform="rotate(0 0 0)" fill="cyan" stroke="black" stroke-width="0.5" />
<polygon points="324.5,153.286 354,204.382 383.5,153.286" transform="rotate(0 0 0)" fill="cyan" stroke="black" stroke-width="0.5" />
<polygon points="383.5,153.286 413,204.382 442.5,153.286" transform="rotate(0 0 0)" fill="cyan" stroke="black" stroke-width="0.5" />
<polygon points="29.5,204.382 59,255.477 88.5,204.382" transform="rotate(0 0 0)" fill="cyan" stroke="black" stroke-width="0.5" />
<polygon points="88.5,204.382 118,255.477 147.5,204.382" transform="rotate(0 0 0)" fill="cyan" stroke="black" stroke-width="0.5" />
<polygon points="147.5,204.382 177,255.477 206.5,204.382" transform="rotate(0 0 0)" fill="cyan" stroke="black" stroke-width="0.5" />
<polygon points="206.5,204.382 236,255.477 265.5,204.382" transform="rotate(0 0 0)" fill="cyan" stroke="black" stroke-width="0.5" />
<polygon points="265.5,204.382 295,255.477 324.5,204.382" transform="rotate(0 0 0)" fill="cyan" stroke="black" stroke-width="0.5" />
<polygon points="324.5,204.382 354,255.477 383.5,204.382" transform="rotate(0 0 0)" fill="cyan" stroke="black" stroke-width="0.5" />
<polygon points="383.5,204.382 413,255.477 442.5,204.382" transform="rotate(0 0 0)" fill="cyan" stroke="black" stroke-width="0.5" />
<polygon points="29.5,255.477 59,306.573 88.5,255.477" transform="rotate(0 0 0)" fill="cyan" stroke="black" stroke-width="0.5" />
<polygon points="88.5,255.477 118,306.573 147.5,255.477" transform="rotate(0 0 0)" fill="cyan" stroke="black" stroke-width="0.5" />
<polygon points="147.5,255.477 177,306.573 206.5,255.477" transform="rotate(0 0 0)" fill="cyan" stroke="black" stroke-width="0.5" />
<polygon points="206.5,255.477 236,306.573 265.5,255.477" transform="rotate(0 0 0)" fill="cyan" stroke="black" stroke-width="0.5" />
<polygon points="265.5,255.477 295,306.573 324.5,255.477" transform="rotate(0 0 0)" fill="cyan" stroke="black" stroke-width="0.5" />
<polygon points="324.5,255.477 354,306.573 383.5,255.477" transform="rotate(0 0 0)" fill="cyan" stroke="black" stroke-width="0.5" />
<polygon points="383.5,255.477 413,306.573 442.5,255.477" transform="rotate(0 0 0)" fill="cyan" stroke="black" stroke-width="0.5" />
<polygon points="29.5,306.573 59,357.668 88.5,306.573" transform="rotate(0 0 0)" fill="cyan" stroke="black" stroke-width="0.5" />
<polygon points="88.5,306.573 118,357.668 147.5,306.573" transform="rotate(0 0 0)" fill="cyan" stroke="black" stroke-width="0.5" />
<polygon points="147.5,306.573 177,357.668 206.5,306.573" transform="rotate(0 0 0)" fill="cyan" stroke="black" stroke-width="0.5" />
<polygon points="206.5,306.573 236,357.668 265.5,306.573" transform="rotate(0 0 0)" fill="cyan" stroke="black" stroke-width="0.5" />
<polygon points="265.5,306.573 295,357.668 324.5,306.573" transform="rotate(0 0 0)" fill="cyan" stroke="black" stroke-width="0.5" />
<polygon points="324.5,306.573 354,357.668 383.5,306.573" transform="rotate(0 0 0)" fill="cyan" stroke="black" stroke-width="0.5" />
<polygon points="383.5,306.573 413,357.668 442.5,306.573" transform="rotate(0 0 0)" fill="cyan" stroke="black" stroke-width="0.5" />
<polygon points="29.5,357.668 59,408.764 88.5,357.668" transform="rotate(0 0 0)" fill="cyan" stroke="black" stroke-width="0.5" />
<polygon points="88.5,357.668 118,408.764 147.5,357.668" transform="rotate(0 0 0)" fill="cyan" stroke="black" stroke-width="0.5" />
<polygon points="147.5,357.668 177,408.764 206.5,357.668" transform="rotate(0 0 0)" fill="cyan" stroke="black" stroke-width="0.5" />
<polygon points="206.5,357.668 236,408.764 265.5,357.668" transform="rotate(0 0 0)" fill="cyan" stroke="black" stroke-width="0.5" />
<polygon points="265.5,357.668 295,408.764 324.5,357.668" transform="rotate(0 0 0)" fill="cyan" stroke="black" stroke-width="0.5" />
<polygon points="324.5,357.668 354,408.764 383.5,357.668" transform="rotate(0 0 0)" fill="cyan" stroke="black" stroke-width="0.5" />
<polygon points="383.5,357.668 413,408.764 442.5,357.668" transform="rotate(0 0 0)" fill="cyan" stroke="black" stroke-width="0.5" />
<polygon points="29.5,408.764 59,459.859 88.5,408.764" transform="rotate(0 0 0)" fill="cyan" stroke="black" stroke-width="0.5" />
<polygon points="88.5,408.764 118,459.859 147.5,408.764" transform="rotate(0 0 0)" fill="cyan" stroke="black" stroke-width="0.5" />
<polygon points="147.5,408.764 177,459.859 206.5,408.764" transform="rotate(0 0 0)" fill="cyan" stroke="black" stroke-width="0.5" />
<polygon points="206.5,408.764 236,459.859 265.5,408.764" transform="rotate(0 0 0)" fill="cyan" stroke="black" stroke-width="0.5" />
<polygon points="265.5,408.764 295,459.859 324.5,408.764" transform="rotate(0 0 0)" fill="cyan" stroke="black" stroke-width="0.5" />
<polygon points="324.5,408.764 354,459.859 383.5,408.764" transform="rotate(0 0 0)" fill="cyan" stroke="black" stroke-width="0.5" />
<polygon points="383.5,408.764 413,459.859 442.5,408.764" transform="rotate(0 0 0)" fill="cyan" stroke="black" stroke-width="0.5" />
<polygon points="29.5,459.859 59,510.955 88.5,459.859" transform="rotate(0 0 0)" fill="cyan" stroke="black" stroke-width="0.5" />
<polygon points="88.5,459.859 118,510.955 147.5,459.859" transform="rotate(0 0 0)" fill="cyan" stroke="black" stroke-width="0.5" />
<polygon points="147.5,459.859 177,510.955 206.5,459.859" transform="rotate(0 0 0)" fill="cyan" stroke="black" stroke-width="0.5" />
<polygon points="206.5,459.859 236,510.955 265.5,459.859" transform="rotate(0 0 0)" fill="cyan" stroke="black" stroke-width="0.5" />
<polygon points="265.5,459.859 295,510.955 324.5,459.859" transform="rotate(0 0 0)" fill="cyan" stroke="black" stroke-width="0.5" />
<polygon points="324.5,459.859 354,510.955 383.5,459.859" transform="rotate(0 0 0)" fill="cyan" stroke="black" stroke-width="0.5" />
<polygon points="383.5,459.859 413,510.955 442.5,459.859" transform="rotate(0 0 0)" fill="cyan" stroke="black" stroke-width="0.5" />
<polygon points="29.5,510.955 59,562.05 88.5,510.955" transform="rotate(0 0 0)" fill="cyan" stroke="black" stroke-width="0.5" />
<polygon points="88.5,510.955 118,562.05 147.5,510.955" transform="rotate(0 0 0)" fill="cyan" stroke="black" stroke-width="0.5" />
<polygon points="147.5,510.955 177,562.05 206.5,510.955" transform="rotate(0 0 0)" fill="cyan" stroke="black" stroke-width="0.5" />
<polygon points="206.5,510.955 236,562.05 265.5,510.955" transform="rotate(0 0 0)" fill="cyan" stroke="black" stroke-width="0.5" />
<polygon points="265.5,510.955 295,562.05 324.5,510.955" transform="rotate(0 0 0)" fill="cyan" stroke="black" stroke-width="0.5" />
<polygon points="324.5,510.955 354,562.05 383.5,510.955" transform="rotate(0 0 0)" fill="cyan" stroke="black" stroke-width="0.5" />
<polygon points="383.5,510.955 413,562.05 442.5,510.955" transform="rotate(0 0 0)" fill="cyan" stroke="black" stroke-width="0.5" />
<polygon points="29.5,562.05 59,613.146 88.5,562.05" transform="rotate(0 0 0)" fill="cyan" stroke="black" stroke-width="0.5" />
<polygon points="88.5,562.05 118,613.146 147.5,562.05" transform="rotate(0 0 0)" fill="cyan" stroke="black" stroke-width="0.5" />
<polygon points="147.5,562.05 177,613.146 206.5,562.05" transform="rotate(0 0 0)" fill="cyan" stroke="black" stroke-width="0.5" />
<polygon points="206.5,562.05 236,613.146 265.5,562.05" transform="rotate(0 0 0)" fill="cyan" stroke="black" stroke-width="0.5" />
<polygon points="265.5,562.05 295,613.146 324.5,562.05" transform="rotate(0 0 0)" fill="cyan" stroke="black" stroke-width="0.5" />
<polygon points="324.5,562.05 354,613.146 383.5,562.05" transform="rotate(0 0 0)" fill="cyan" stroke="black" stroke-width="0.5" />
<polygon points="383.5,562.05 413,613.146 442.5,562.05" transform="rotate(0 0 0)" fill="cyan" stroke="black" stroke-width="0.5" />
<polygon points="29.5,613.146 59,664.241 88.5,613.146" transform="rotate(0 0 0)" fill="cyan" stroke="black" stroke-width="0.5" />
<polygon points="88.5,613.146 118,664.241 147.5,613.146" transform="rotate(0 0 0)" fill="cyan" stroke="black" stroke-width="0.5" />
<polygon points="147.5,613.146 177,664.241 206.5,613.146" transform="rotate(0 0 0)" fill="cyan" stroke="black" stroke-width="0.5" />
<polygon points="206.5,613.146 236,664.241 265.5,613.146" transform="rotate(0 0 0)" fill="cyan" stroke="black" stroke-width="0.5" />
<polygon points="265.5,613.146 295,664.241 324.5,613.146" transform="rotate(0 0 0)" fill="cyan" stroke="black" stroke-width="0.5" />
<polygon points="324.5,613.146 354,664.241 383.5,613.146" transform="rotate(0 0 0)" fill="cyan" stroke="black" stroke-width="0.5" />
<polygon points="383.5,613.146 413,664.241 442.5,613.146" transform="rotate(0 0 0)" fill="cyan" stroke="black" stroke-width="0.5" />
<polygon points="29.5,664.241 59,715.337 88.5,664.241" transform="rotate(0 0 0)" fill="cyan" stroke="black" stroke-width="0.5" />
<polygon points="88.5,664.241 118,715.337 147.5,664.241" transform="rotate(0 0 0)" fill="cyan" stroke="black" stroke-width="0.5" />
<polygon points="147.5,664.241 177,715.337 206.5,664.241" transform="rotate(0 0 0)" fill="cyan" stroke="black" stroke-width="0.5" />
<polygon points="206.5,664.241 236,715.337 265.5,664.241" transform="rotate(0 0 0)" fill="cyan" stroke="black" stroke-width="0.5" />
<polygon points="265.5,664.241 295,715.337 324.5,664.241" transform="rotate(0 0 0)" fill="cyan" stroke="black" stroke-width="0.5" />
<polygon points="324.5,664.241 354,715.337 383.5,664.241" transform="rotate(0 0 0)" fill="cyan" stroke="black" stroke-width="0.5" />
<polygon points="383.5,664.241 413,715.337 442.5,664.241" transform="rotate(0 0 0)" fill="cyan" stroke="black" stroke-width="0.5" />
</svg>
