<svg version="1.1" baseProfile="full" xmlns="http://www.w3.org/2000/svg">
<polygon points="200,0 0,346.41 400,346.41" transform="rotate(0 0 0)" fill="red" stroke="black" stroke-width="0.5" />
<rect x="50"  y="296.41" width="100" height="50" transform="rotate(0 0 0)" fill="magenta" stroke="black" stroke-width="0.5" />
<rect x="150"  y="296.41" width="100" height="50" transform="rotate(0 0 0)" fill="magenta" stroke="black" stroke-width="0.5" />
<rect x="250"  y="296.41" width="100" height="50" transform="rotate(0 0 0)" fill="magenta" stroke="black" stroke-width="0.5" />
<rect x="100"  y="246.41" width="100" height="50" transform="rotate(0 0 0)" fill="magenta" stroke="black" stroke-width="0.5" />
<rect x="200"  y="246.41" width="100" height="50" transform="rotate(0 0 0)" fill="magenta" stroke="black" stroke-width="0.5" />
<rect x="100"  y="196.41" width="100" height="50" transform="rotate(0 0 0)" fill="magenta" stroke="black" stroke-width="0.5" />
<rect x="200"  y="196.41" width="100" height="50" transform="rotate(0 0 0)" fill="magenta" stroke="black" stroke-width="0.5" />
<rect x="150"  y="146.41" width="100" height="50" transform="rotate(0 0 0)" fill="magenta" stroke="black" stroke-width="0.5" />
<rect x="150"  y="96.4102" width="100" height="50" transform="rotate(0 0 0)" fill="magenta" stroke="black" stroke-width="0.5" />
</svg>
