<svg version="1.1" baseProfile="full" xmlns="http://www.w3.org/2000/svg">
<circle cx="500" cy="500" r="500" transform="rotate(0 0 0)" fill="pink" stroke="black" stroke-width="0.5" />
<rect x="146.447"  y="146.447" width="75" height="30" transform="rotate(0 146.447 146.447)" fill="cyan" stroke="black" stroke-width="0.5" />
<rect x="221.447"  y="146.447" width="75" height="30" transform="rotate(0 146.447 146.447)" fill="cyan" stroke="black" stroke-width="0.5" />
<rect x="296.447"  y="146.447" width="75" height="30" transform="rotate(0 146.447 146.447)" fill="cyan" stroke="black" stroke-width="0.5" />
<rect x="371.447"  y="146.447" width="75" height="30" transform="rotate(0 146.447 146.447)" fill="cyan" stroke="black" stroke-width="0.5" />
<rect x="446.447"  y="146.447" width="75" height="30" transform="rotate(0 146.447 146.447)" fill="cyan" stroke="black" stroke-width="0.5" />
<rect x="521.447"  y="146.447" width="75" height="30" transform="rotate(0 146.447 146.447)" fill="cyan" stroke="black" stroke-width="0.5" />
<rect x="596.447"  y="146.447" width="75" height="30" transform="rotate(0 146.447 146.447)" fill="cyan" stroke="black" stroke-width="0.5" />
<rect x="671.447"  y="146.447" width="75" height="30" transform="rotate(0 146.447 146.447)" fill="cyan" stroke="black" stroke-width="0.5" />
<rect x="746.447"  y="146.447" width="75" height="30" transform="rotate(0 146.447 146.447)" fill="cyan" stroke="black" stroke-width="0.5" />
<rect x="146.447"  y="176.447" width="75" height="30" transform="rotate(0 146.447 146.447)" fill="cyan" stroke="black" stroke-width="0.5" />
<rect x="221.447"  y="176.447" width="75" height="30" transform="rotate(0 146.447 146.447)" fill="cyan" stroke="black" stroke-width="0.5" />
<rect x="296.447"  y="176.447" width="75" height="30" transform="rotate(0 146.447 146.447)" fill="cyan" stroke="black" stroke-width="0.5" />
<rect x="371.447"  y="176.447" width="75" height="30" transform="rotate(0 146.447 146.447)" fill="cyan" stroke="black" stroke-width="0.5" />
<rect x="446.447"  y="176.447" width="75" height="30" transform="rotate(0 146.447 146.447)" fill="cyan" stroke="black" stroke-width="0.5" />
<rect x="521.447"  y="176.447" width="75" height="30" transform="rotate(0 146.447 146.447)" fill="cyan" stroke="black" stroke-width="0.5" />
<rect x="596.447"  y="176.447" width="75" height="30" transform="rotate(0 146.447 146.447)" fill="cyan" stroke="black" stroke-width="0.5" />
<rect x="671.447"  y="176.447" width="75" height="30" transform="rotate(0 146.447 146.447)" fill="cyan" stroke="black" stroke-width="0.5" />
<rect x="746.447"  y="176.447" width="75" height="30" transform="rotate(0 146.447 146.447)" fill="cyan" stroke="black" stroke-width="0.5" />
<rect x="146.447"  y="206.447" width="75" height="30" transform="rotate(0 146.447 146.447)" fill="cyan" stroke="black" stroke-width="0.5" />
<rect x="221.447"  y="206.447" width="75" height="30" transform="rotate(0 146.447 146.447)" fill="cyan" stroke="black" stroke-width="0.5" />
<rect x="296.447"  y="206.447" width="75" height="30" transform="rotate(0 146.447 146.447)" fill="cyan" stroke="black" stroke-width="0.5" />
<rect x="371.447"  y="206.447" width="75" height="30" transform="rotate(0 146.447 146.447)" fill="cyan" stroke="black" stroke-width="0.5" />
<rect x="446.447"  y="206.447" width="75" height="30" transform="rotate(0 146.447 146.447)" fill="cyan" stroke="black" stroke-width="0.5" />
<rect x="521.447"  y="206.447" width="75" height="30" transform="rotate(0 146.447 146.447)" fill="cyan" stroke="black" stroke-width="0.5" />
<rect x="596.447"  y="206.447" width="75" height="30" transform="rotate(0 146.447 146.447)" fill="cyan" stroke="black" stroke-width="0.5" />
<rect x="671.447"  y="206.447" width="75" height="30" transform="rotate(0 146.447 146.447)" fill="cyan" stroke="black" stroke-width="0.5" />
<rect x="746.447"  y="206.447" width="75" height="30" transform="rotate(0 146.447 146.447)" fill="cyan" stroke="black" stroke-width="0.5" />
<rect x="146.447"  y="236.447" width="75" height="30" transform="rotate(0 146.447 146.447)" fill="cyan" stroke="black" stroke-width="0.5" />
<rect x="221.447"  y="236.447" width="75" height="30" transform="rotate(0 146.447 146.447)" fill="cyan" stroke="black" stroke-width="0.5" />
<rect x="296.447"  y="236.447" width="75" height="30" transform="rotate(0 146.447 146.447)" fill="cyan" stroke="black" stroke-width="0.5" />
<rect x="371.447"  y="236.447" width="75" height="30" transform="rotate(0 146.447 146.447)" fill="cyan" stroke="black" stroke-width="0.5" />
<rect x="446.447"  y="236.447" width="75" height="30" transform="rotate(0 146.447 146.447)" fill="cyan" stroke="black" stroke-width="0.5" />
<rect x="521.447"  y="236.447" width="75" height="30" transform="rotate(0 146.447 146.447)" fill="cyan" stroke="black" stroke-width="0.5" />
<rect x="596.447"  y="236.447" width="75" height="30" transform="rotate(0 146.447 146.447)" fill="cyan" stroke="black" stroke-width="0.5" />
<rect x="671.447"  y="236.447" width="75" height="30" transform="rotate(0 146.447 146.447)" fill="cyan" stroke="black" stroke-width="0.5" />
<rect x="746.447"  y="236.447" width="75" height="30" transform="rotate(0 146.447 146.447)" fill="cyan" stroke="black" stroke-width="0.5" />
<rect x="146.447"  y="266.447" width="75" height="30" transform="rotate(0 146.447 146.447)" fill="cyan" stroke="black" stroke-width="0.5" />
<rect x="221.447"  y="266.447" width="75" height="30" transform="rotate(0 146.447 146.447)" fill="cyan" stroke="black" stroke-width="0.5" />
<rect x="296.447"  y="266.447" width="75" height="30" transform="rotate(0 146.447 146.447)" fill="cyan" stroke="black" stroke-width="0.5" />
<rect x="371.447"  y="266.447" width="75" height="30" transform="rotate(0 146.447 146.447)" fill="cyan" stroke="black" stroke-width="0.5" />
<rect x="446.447"  y="266.447" width="75" height="30" transform="rotate(0 146.447 146.447)" fill="cyan" stroke="black" stroke-width="0.5" />
<rect x="521.447"  y="266.447" width="75" height="30" transform="rotate(0 146.447 146.447)" fill="cyan" stroke="black" stroke-width="0.5" />
<rect x="596.447"  y="266.447" width="75" height="30" transform="rotate(0 146.447 146.447)" fill="cyan" stroke="black" stroke-width="0.5" />
<rect x="671.447"  y="266.447" width="75" height="30" transform="rotate(0 146.447 146.447)" fill="cyan" stroke="black" stroke-width="0.5" />
<rect x="746.447"  y="266.447" width="75" height="30" transform="rotate(0 146.447 146.447)" fill="cyan" stroke="black" stroke-width="0.5" />
<rect x="146.447"  y="296.447" width="75" height="30" transform="rotate(0 146.447 146.447)" fill="cyan" stroke="black" stroke-width="0.5" />
<rect x="221.447"  y="296.447" width="75" height="30" transform="rotate(0 146.447 146.447)" fill="cyan" stroke="black" stroke-width="0.5" />
<rect x="296.447"  y="296.447" width="75" height="30" transform="rotate(0 146.447 146.447)" fill="cyan" stroke="black" stroke-width="0.5" />
<rect x="371.447"  y="296.447" width="75" height="30" transform="rotate(0 146.447 146.447)" fill="cyan" stroke="black" stroke-width="0.5" />
<rect x="446.447"  y="296.447" width="75" height="30" transform="rotate(0 146.447 146.447)" fill="cyan" stroke="black" stroke-width="0.5" />
<rect x="521.447"  y="296.447" width="75" height="30" transform="rotate(0 146.447 146.447)" fill="cyan" stroke="black" stroke-width="0.5" />
<rect x="596.447"  y="296.447" width="75" height="30" transform="rotate(0 146.447 146.447)" fill="cyan" stroke="black" stroke-width="0.5" />
<rect x="671.447"  y="296.447" width="75" height="30" transform="rotate(0 146.447 146.447)" fill="cyan" stroke="black" stroke-width="0.5" />
<rect x="746.447"  y="296.447" width="75" height="30" transform="rotate(0 146.447 146.447)" fill="cyan" stroke="black" stroke-width="0.5" />
<rect x="146.447"  y="326.447" width="75" height="30" transform="rotate(0 146.447 146.447)" fill="cyan" stroke="black" stroke-width="0.5" />
<rect x="221.447"  y="326.447" width="75" height="30" transform="rotate(0 146.447 146.447)" fill="cyan" stroke="black" stroke-width="0.5" />
<rect x="296.447"  y="326.447" width="75" height="30" transform="rotate(0 146.447 146.447)" fill="cyan" stroke="black" stroke-width="0.5" />
<rect x="371.447"  y="326.447" width="75" height="30" transform="rotate(0 146.447 146.447)" fill="cyan" stroke="black" stroke-width="0.5" />
<rect x="446.447"  y="326.447" width="75" height="30" transform="rotate(0 146.447 146.447)" fill="cyan" stroke="black" stroke-width="0.5" />
<rect x="521.447"  y="326.447" width="75" height="30" transform="rotate(0 146.447 146.447)" fill="cyan" stroke="black" stroke-width="0.5" />
<rect x="596.447"  y="326.447" width="75" height="30" transform="rotate(0 146.447 146.447)" fill="cyan" stroke="black" stroke-width="0.5" />
<rect x="671.447"  y="326.447" width="75" height="30" transform="rotate(0 146.447 146.447)" fill="cyan" stroke="black" stroke-width="0.5" />
<rect x="746.447"  y="326.447" width="75" height="30" transform="rotate(0 146.447 146.447)" fill="cyan" stroke="black" stroke-width="0.5" />
<rect x="146.447"  y="356.447" width="75" height="30" transform="rotate(0 146.447 146.447)" fill="cyan" stroke="black" stroke-width="0.5" />
<rect x="221.447"  y="356.447" width="75" height="30" transform="rotate(0 146.447 146.447)" fill="cyan" stroke="black" stroke-width="0.5" />
<rect x="296.447"  y="356.447" width="75" height="30" transform="rotate(0 146.447 146.447)" fill="cyan" stroke="black" stroke-width="0.5" />
<rect x="371.447"  y="356.447" width="75" height="30" transform="rotate(0 146.447 146.447)" fill="cyan" stroke="black" stroke-width="0.5" />
<rect x="446.447"  y="356.447" width="75" height="30" transform="rotate(0 146.447 146.447)" fill="cyan" stroke="black" stroke-width="0.5" />
<rect x="521.447"  y="356.447" width="75" height="30" transform="rotate(0 146.447 146.447)" fill="cyan" stroke="black" stroke-width="0.5" />
<rect x="596.447"  y="356.447" width="75" height="30" transform="rotate(0 146.447 146.447)" fill="cyan" stroke="black" stroke-width="0.5" />
<rect x="671.447"  y="356.447" width="75" height="30" transform="rotate(0 146.447 146.447)" fill="cyan" stroke="black" stroke-width="0.5" />
<rect x="746.447"  y="356.447" width="75" height="30" transform="rotate(0 146.447 146.447)" fill="cyan" stroke="black" stroke-width="0.5" />
<rect x="146.447"  y="386.447" width="75" height="30" transform="rotate(0 146.447 146.447)" fill="cyan" stroke="black" stroke-width="0.5" />
<rect x="221.447"  y="386.447" width="75" height="30" transform="rotate(0 146.447 146.447)" fill="cyan" stroke="black" stroke-width="0.5" />
<rect x="296.447"  y="386.447" width="75" height="30" transform="rotate(0 146.447 146.447)" fill="cyan" stroke="black" stroke-width="0.5" />
<rect x="371.447"  y="386.447" width="75" height="30" transform="rotate(0 146.447 146.447)" fill="cyan" stroke="black" stroke-width="0.5" />
<rect x="446.447"  y="386.447" width="75" height="30" transform="rotate(0 146.447 146.447)" fill="cyan" stroke="black" stroke-width="0.5" />
<rect x="521.447"  y="386.447" width="75" height="30" transform="rotate(0 146.447 146.447)" fill="cyan" stroke="black" stroke-width="0.5" />
<rect x="596.447"  y="386.447" width="75" height="30" transform="rotate(0 146.447 146.447)" fill="cyan" stroke="black" stroke-width="0.5" />
<rect x="671.447"  y="386.447" width="75" height="30" transform="rotate(0 146.447 146.447)" fill="cyan" stroke="black" stroke-width="0.5" />
<rect x="746.447"  y="386.447" width="75" height="30" transform="rotate(0 146.447 146.447)" fill="cyan" stroke="black" stroke-width="0.5" />
<rect x="146.447"  y="416.447" width="75" height="30" transform="rotate(0 146.447 146.447)" fill="cyan" stroke="black" stroke-width="0.5" />
<rect x="221.447"  y="416.447" width="75" height="30" transform="rotate(0 146.447 146.447)" fill="cyan" stroke="black" stroke-width="0.5" />
<rect x="296.447"  y="416.447" width="75" height="30" transform="rotate(0 146.447 146.447)" fill="cyan" stroke="black" stroke-width="0.5" />
<rect x="371.447"  y="416.447" width="75" height="30" transform="rotate(0 146.447 146.447)" fill="cyan" stroke="black" stroke-width="0.5" />
<rect x="446.447"  y="416.447" width="75" height="30" transform="rotate(0 146.447 146.447)" fill="cyan" stroke="black" stroke-width="0.5" />
<rect x="521.447"  y="416.447" width="75" height="30" transform="rotate(0 146.447 146.447)" fill="cyan" stroke="black" stroke-width="0.5" />
<rect x="596.447"  y="416.447" width="75" height="30" transform="rotate(0 146.447 146.447)" fill="cyan" stroke="black" stroke-width="0.5" />
<rect x="671.447"  y="416.447" width="75" height="30" transform="rotate(0 146.447 146.447)" fill="cyan" stroke="black" stroke-width="0.5" />
<rect x="746.447"  y="416.447" width="75" height="30" transform="rotate(0 146.447 146.447)" fill="cyan" stroke="black" stroke-width="0.5" />
<rect x="146.447"  y="446.447" width="75" height="30" transform="rotate(0 146.447 146.447)" fill="cyan" stroke="black" stroke-width="0.5" />
<rect x="221.447"  y="446.447" width="75" height="30" transform="rotate(0 146.447 146.447)" fill="cyan" stroke="black" stroke-width="0.5" />
<rect x="296.447"  y="446.447" width="75" height="30" transform="rotate(0 146.447 146.447)" fill="cyan" stroke="black" stroke-width="0.5" />
<rect x="371.447"  y="446.447" width="75" height="30" transform="rotate(0 146.447 146.447)" fill="cyan" stroke="black" stroke-width="0.5" />
<rect x="446.447"  y="446.447" width="75" height="30" transform="rotate(0 146.447 146.447)" fill="cyan" stroke="black" stroke-width="0.5" />
<rect x="521.447"  y="446.447" width="75" height="30" transform="rotate(0 146.447 146.447)" fill="cyan" stroke="black" stroke-width="0.5" />
<rect x="596.447"  y="446.447" width="75" height="30" transform="rotate(0 146.447 146.447)" fill="cyan" stroke="black" stroke-width="0.5" />
<rect x="671.447"  y="446.447" width="75" height="30" transform="rotate(0 146.447 146.447)" fill="cyan" stroke="black" stroke-width="0.5" />
<rect x="746.447"  y="446.447" width="75" height="30" transform="rotate(0 146.447 146.447)" fill="cyan" stroke="black" stroke-width="0.5" />
<rect x="146.447"  y="476.447" width="75" height="30" transform="rotate(0 146.447 146.447)" fill="cyan" stroke="black" stroke-width="0.5" />
<rect x="221.447"  y="476.447" width="75" height="30" transform="rotate(0 146.447 146.447)" fill="cyan" stroke="black" stroke-width="0.5" />
<rect x="296.447"  y="476.447" width="75" height="30" transform="rotate(0 146.447 146.447)" fill="cyan" stroke="black" stroke-width="0.5" />
<rect x="371.447"  y="476.447" width="75" height="30" transform="rotate(0 146.447 146.447)" fill="cyan" stroke="black" stroke-width="0.5" />
<rect x="446.447"  y="476.447" width="75" height="30" transform="rotate(0 146.447 146.447)" fill="cyan" stroke="black" stroke-width="0.5" />
<rect x="521.447"  y="476.447" width="75" height="30" transform="rotate(0 146.447 146.447)" fill="cyan" stroke="black" stroke-width="0.5" />
<rect x="596.447"  y="476.447" width="75" height="30" transform="rotate(0 146.447 146.447)" fill="cyan" stroke="black" stroke-width="0.5" />
<rect x="671.447"  y="476.447" width="75" height="30" transform="rotate(0 146.447 146.447)" fill="cyan" stroke="black" stroke-width="0.5" />
<rect x="746.447"  y="476.447" width="75" height="30" transform="rotate(0 146.447 146.447)" fill="cyan" stroke="black" stroke-width="0.5" />
<rect x="146.447"  y="506.447" width="75" height="30" transform="rotate(0 146.447 146.447)" fill="cyan" stroke="black" stroke-width="0.5" />
<rect x="221.447"  y="506.447" width="75" height="30" transform="rotate(0 146.447 146.447)" fill="cyan" stroke="black" stroke-width="0.5" />
<rect x="296.447"  y="506.447" width="75" height="30" transform="rotate(0 146.447 146.447)" fill="cyan" stroke="black" stroke-width="0.5" />
<rect x="371.447"  y="506.447" width="75" height="30" transform="rotate(0 146.447 146.447)" fill="cyan" stroke="black" stroke-width="0.5" />
<rect x="446.447"  y="506.447" width="75" height="30" transform="rotate(0 146.447 146.447)" fill="cyan" stroke="black" stroke-width="0.5" />
<rect x="521.447"  y="506.447" width="75" height="30" transform="rotate(0 146.447 146.447)" fill="cyan" stroke="black" stroke-width="0.5" />
<rect x="596.447"  y="506.447" width="75" height="30" transform="rotate(0 146.447 146.447)" fill="cyan" stroke="black" stroke-width="0.5" />
<rect x="671.447"  y="506.447" width="75" height="30" transform="rotate(0 146.447 146.447)" fill="cyan" stroke="black" stroke-width="0.5" />
<rect x="746.447"  y="506.447" width="75" height="30" transform="rotate(0 146.447 146.447)" fill="cyan" stroke="black" stroke-width="0.5" />
<rect x="146.447"  y="536.447" width="75" height="30" transform="rotate(0 146.447 146.447)" fill="cyan" stroke="black" stroke-width="0.5" />
<rect x="221.447"  y="536.447" width="75" height="30" transform="rotate(0 146.447 146.447)" fill="cyan" stroke="black" stroke-width="0.5" />
<rect x="296.447"  y="536.447" width="75" height="30" transform="rotate(0 146.447 146.447)" fill="cyan" stroke="black" stroke-width="0.5" />
<rect x="371.447"  y="536.447" width="75" height="30" transform="rotate(0 146.447 146.447)" fill="cyan" stroke="black" stroke-width="0.5" />
<rect x="446.447"  y="536.447" width="75" height="30" transform="rotate(0 146.447 146.447)" fill="cyan" stroke="black" stroke-width="0.5" />
<rect x="521.447"  y="536.447" width="75" height="30" transform="rotate(0 146.447 146.447)" fill="cyan" stroke="black" stroke-width="0.5" />
<rect x="596.447"  y="536.447" width="75" height="30" transform="rotate(0 146.447 146.447)" fill="cyan" stroke="black" stroke-width="0.5" />
<rect x="671.447"  y="536.447" width="75" height="30" transform="rotate(0 146.447 146.447)" fill="cyan" stroke="black" stroke-width="0.5" />
<rect x="746.447"  y="536.447" width="75" height="30" transform="rotate(0 146.447 146.447)" fill="cyan" stroke="black" stroke-width="0.5" />
<rect x="146.447"  y="566.447" width="75" height="30" transform="rotate(0 146.447 146.447)" fill="cyan" stroke="black" stroke-width="0.5" />
<rect x="221.447"  y="566.447" width="75" height="30" transform="rotate(0 146.447 146.447)" fill="cyan" stroke="black" stroke-width="0.5" />
<rect x="296.447"  y="566.447" width="75" height="30" transform="rotate(0 146.447 146.447)" fill="cyan" stroke="black" stroke-width="0.5" />
<rect x="371.447"  y="566.447" width="75" height="30" transform="rotate(0 146.447 146.447)" fill="cyan" stroke="black" stroke-width="0.5" />
<rect x="446.447"  y="566.447" width="75" height="30" transform="rotate(0 146.447 146.447)" fill="cyan" stroke="black" stroke-width="0.5" />
<rect x="521.447"  y="566.447" width="75" height="30" transform="rotate(0 146.447 146.447)" fill="cyan" stroke="black" stroke-width="0.5" />
<rect x="596.447"  y="566.447" width="75" height="30" transform="rotate(0 146.447 146.447)" fill="cyan" stroke="black" stroke-width="0.5" />
<rect x="671.447"  y="566.447" width="75" height="30" transform="rotate(0 146.447 146.447)" fill="cyan" stroke="black" stroke-width="0.5" />
<rect x="746.447"  y="566.447" width="75" height="30" transform="rotate(0 146.447 146.447)" fill="cyan" stroke="black" stroke-width="0.5" />
<rect x="146.447"  y="596.447" width="75" height="30" transform="rotate(0 146.447 146.447)" fill="cyan" stroke="black" stroke-width="0.5" />
<rect x="221.447"  y="596.447" width="75" height="30" transform="rotate(0 146.447 146.447)" fill="cyan" stroke="black" stroke-width="0.5" />
<rect x="296.447"  y="596.447" width="75" height="30" transform="rotate(0 146.447 146.447)" fill="cyan" stroke="black" stroke-width="0.5" />
<rect x="371.447"  y="596.447" width="75" height="30" transform="rotate(0 146.447 146.447)" fill="cyan" stroke="black" stroke-width="0.5" />
<rect x="446.447"  y="596.447" width="75" height="30" transform="rotate(0 146.447 146.447)" fill="cyan" stroke="black" stroke-width="0.5" />
<rect x="521.447"  y="596.447" width="75" height="30" transform="rotate(0 146.447 146.447)" fill="cyan" stroke="black" stroke-width="0.5" />
<rect x="596.447"  y="596.447" width="75" height="30" transform="rotate(0 146.447 146.447)" fill="cyan" stroke="black" stroke-width="0.5" />
<rect x="671.447"  y="596.447" width="75" height="30" transform="rotate(0 146.447 146.447)" fill="cyan" stroke="black" stroke-width="0.5" />
<rect x="746.447"  y="596.447" width="75" height="30" transform="rotate(0 146.447 146.447)" fill="cyan" stroke="black" stroke-width="0.5" />
<rect x="146.447"  y="626.447" width="75" height="30" transform="rotate(0 146.447 146.447)" fill="cyan" stroke="black" stroke-width="0.5" />
<rect x="221.447"  y="626.447" width="75" height="30" transform="rotate(0 146.447 146.447)" fill="cyan" stroke="black" stroke-width="0.5" />
<rect x="296.447"  y="626.447" width="75" height="30" transform="rotate(0 146.447 146.447)" fill="cyan" stroke="black" stroke-width="0.5" />
<rect x="371.447"  y="626.447" width="75" height="30" transform="rotate(0 146.447 146.447)" fill="cyan" stroke="black" stroke-width="0.5" />
<rect x="446.447"  y="626.447" width="75" height="30" transform="rotate(0 146.447 146.447)" fill="cyan" stroke="black" stroke-width="0.5" />
<rect x="521.447"  y="626.447" width="75" height="30" transform="rotate(0 146.447 146.447)" fill="cyan" stroke="black" stroke-width="0.5" />
<rect x="596.447"  y="626.447" width="75" height="30" transform="rotate(0 146.447 146.447)" fill="cyan" stroke="black" stroke-width="0.5" />
<rect x="671.447"  y="626.447" width="75" height="30" transform="rotate(0 146.447 146.447)" fill="cyan" stroke="black" stroke-width="0.5" />
<rect x="746.447"  y="626.447" width="75" height="30" transform="rotate(0 146.447 146.447)" fill="cyan" stroke="black" stroke-width="0.5" />
<rect x="146.447"  y="656.447" width="75" height="30" transform="rotate(0 146.447 146.447)" fill="cyan" stroke="black" stroke-width="0.5" />
<rect x="221.447"  y="656.447" width="75" height="30" transform="rotate(0 146.447 146.447)" fill="cyan" stroke="black" stroke-width="0.5" />
<rect x="296.447"  y="656.447" width="75" height="30" transform="rotate(0 146.447 146.447)" fill="cyan" stroke="black" stroke-width="0.5" />
<rect x="371.447"  y="656.447" width="75" height="30" transform="rotate(0 146.447 146.447)" fill="cyan" stroke="black" stroke-width="0.5" />
<rect x="446.447"  y="656.447" width="75" height="30" transform="rotate(0 146.447 146.447)" fill="cyan" stroke="black" stroke-width="0.5" />
<rect x="521.447"  y="656.447" width="75" height="30" transform="rotate(0 146.447 146.447)" fill="cyan" stroke="black" stroke-width="0.5" />
<rect x="596.447"  y="656.447" width="75" height="30" transform="rotate(0 146.447 146.447)" fill="cyan" stroke="black" stroke-width="0.5" />
<rect x="671.447"  y="656.447" width="75" height="30" transform="rotate(0 146.447 146.447)" fill="cyan" stroke="black" stroke-width="0.5" />
<rect x="746.447"  y="656.447" width="75" height="30" transform="rotate(0 146.447 146.447)" fill="cyan" stroke="black" stroke-width="0.5" />
<rect x="146.447"  y="686.447" width="75" height="30" transform="rotate(0 146.447 146.447)" fill="cyan" stroke="black" stroke-width="0.5" />
<rect x="221.447"  y="686.447" width="75" height="30" transform="rotate(0 146.447 146.447)" fill="cyan" stroke="black" stroke-width="0.5" />
<rect x="296.447"  y="686.447" width="75" height="30" transform="rotate(0 146.447 146.447)" fill="cyan" stroke="black" stroke-width="0.5" />
<rect x="371.447"  y="686.447" width="75" height="30" transform="rotate(0 146.447 146.447)" fill="cyan" stroke="black" stroke-width="0.5" />
<rect x="446.447"  y="686.447" width="75" height="30" transform="rotate(0 146.447 146.447)" fill="cyan" stroke="black" stroke-width="0.5" />
<rect x="521.447"  y="686.447" width="75" height="30" transform="rotate(0 146.447 146.447)" fill="cyan" stroke="black" stroke-width="0.5" />
<rect x="596.447"  y="686.447" width="75" height="30" transform="rotate(0 146.447 146.447)" fill="cyan" stroke="black" stroke-width="0.5" />
<rect x="671.447"  y="686.447" width="75" height="30" transform="rotate(0 146.447 146.447)" fill="cyan" stroke="black" stroke-width="0.5" />
<rect x="746.447"  y="686.447" width="75" height="30" transform="rotate(0 146.447 146.447)" fill="cyan" stroke="black" stroke-width="0.5" />
<rect x="146.447"  y="716.447" width="75" height="30" transform="rotate(0 146.447 146.447)" fill="cyan" stroke="black" stroke-width="0.5" />
<rect x="221.447"  y="716.447" width="75" height="30" transform="rotate(0 146.447 146.447)" fill="cyan" stroke="black" stroke-width="0.5" />
<rect x="296.447"  y="716.447" width="75" height="30" transform="rotate(0 146.447 146.447)" fill="cyan" stroke="black" stroke-width="0.5" />
<rect x="371.447"  y="716.447" width="75" height="30" transform="rotate(0 146.447 146.447)" fill="cyan" stroke="black" stroke-width="0.5" />
<rect x="446.447"  y="716.447" width="75" height="30" transform="rotate(0 146.447 146.447)" fill="cyan" stroke="black" stroke-width="0.5" />
<rect x="521.447"  y="716.447" width="75" height="30" transform="rotate(0 146.447 146.447)" fill="cyan" stroke="black" stroke-width="0.5" />
<rect x="596.447"  y="716.447" width="75" height="30" transform="rotate(0 146.447 146.447)" fill="cyan" stroke="black" stroke-width="0.5" />
<rect x="671.447"  y="716.447" width="75" height="30" transform="rotate(0 146.447 146.447)" fill="cyan" stroke="black" stroke-width="0.5" />
<rect x="746.447"  y="716.447" width="75" height="30" transform="rotate(0 146.447 146.447)" fill="cyan" stroke="black" stroke-width="0.5" />
<rect x="146.447"  y="746.447" width="75" height="30" transform="rotate(0 146.447 146.447)" fill="cyan" stroke="black" stroke-width="0.5" />
<rect x="221.447"  y="746.447" width="75" height="30" transform="rotate(0 146.447 146.447)" fill="cyan" stroke="black" stroke-width="0.5" />
<rect x="296.447"  y="746.447" width="75" height="30" transform="rotate(0 146.447 146.447)" fill="cyan" stroke="black" stroke-width="0.5" />
<rect x="371.447"  y="746.447" width="75" height="30" transform="rotate(0 146.447 146.447)" fill="cyan" stroke="black" stroke-width="0.5" />
<rect x="446.447"  y="746.447" width="75" height="30" transform="rotate(0 146.447 146.447)" fill="cyan" stroke="black" stroke-width="0.5" />
<rect x="521.447"  y="746.447" width="75" height="30" transform="rotate(0 146.447 146.447)" fill="cyan" stroke="black" stroke-width="0.5" />
<rect x="596.447"  y="746.447" width="75" height="30" transform="rotate(0 146.447 146.447)" fill="cyan" stroke="black" stroke-width="0.5" />
<rect x="671.447"  y="746.447" width="75" height="30" transform="rotate(0 146.447 146.447)" fill="cyan" stroke="black" stroke-width="0.5" />
<rect x="746.447"  y="746.447" width="75" height="30" transform="rotate(0 146.447 146.447)" fill="cyan" stroke="black" stroke-width="0.5" />
<rect x="146.447"  y="776.447" width="75" height="30" transform="rotate(0 146.447 146.447)" fill="cyan" stroke="black" stroke-width="0.5" />
<rect x="221.447"  y="776.447" width="75" height="30" transform="rotate(0 146.447 146.447)" fill="cyan" stroke="black" stroke-width="0.5" />
<rect x="296.447"  y="776.447" width="75" height="30" transform="rotate(0 146.447 146.447)" fill="cyan" stroke="black" stroke-width="0.5" />
<rect x="371.447"  y="776.447" width="75" height="30" transform="rotate(0 146.447 146.447)" fill="cyan" stroke="black" stroke-width="0.5" />
<rect x="446.447"  y="776.447" width="75" height="30" transform="rotate(0 146.447 146.447)" fill="cyan" stroke="black" stroke-width="0.5" />
<rect x="521.447"  y="776.447" width="75" height="30" transform="rotate(0 146.447 146.447)" fill="cyan" stroke="black" stroke-width="0.5" />
<rect x="596.447"  y="776.447" width="75" height="30" transform="rotate(0 146.447 146.447)" fill="cyan" stroke="black" stroke-width="0.5" />
<rect x="671.447"  y="776.447" width="75" height="30" transform="rotate(0 146.447 146.447)" fill="cyan" stroke="black" stroke-width="0.5" />
<rect x="746.447"  y="776.447" width="75" height="30" transform="rotate(0 146.447 146.447)" fill="cyan" stroke="black" stroke-width="0.5" />
<rect x="146.447"  y="806.447" width="75" height="30" transform="rotate(0 146.447 146.447)" fill="cyan" stroke="black" stroke-width="0.5" />
<rect x="221.447"  y="806.447" width="75" height="30" transform="rotate(0 146.447 146.447)" fill="cyan" stroke="black" stroke-width="0.5" />
<rect x="296.447"  y="806.447" width="75" height="30" transform="rotate(0 146.447 146.447)" fill="cyan" stroke="black" stroke-width="0.5" />
<rect x="371.447"  y="806.447" width="75" height="30" transform="rotate(0 146.447 146.447)" fill="cyan" stroke="black" stroke-width="0.5" />
<rect x="446.447"  y="806.447" width="75" height="30" transform="rotate(0 146.447 146.447)" fill="cyan" stroke="black" stroke-width="0.5" />
<rect x="521.447"  y="806.447" width="75" height="30" transform="rotate(0 146.447 146.447)" fill="cyan" stroke="black" stroke-width="0.5" />
<rect x="596.447"  y="806.447" width="75" height="30" transform="rotate(0 146.447 146.447)" fill="cyan" stroke="black" stroke-width="0.5" />
<rect x="671.447"  y="806.447" width="75" height="30" transform="rotate(0 146.447 146.447)" fill="cyan" stroke="black" stroke-width="0.5" />
<rect x="746.447"  y="806.447" width="75" height="30" transform="rotate(0 146.447 146.447)" fill="cyan" stroke="black" stroke-width="0.5" />
<rect x="821.447"  y="146.447" width="30" height="75" transform="rotate(0 146.447 146.447)" fill="cyan" stroke="black" stroke-width="0.5" />
<rect x="821.447"  y="221.447" width="30" height="75" transform="rotate(0 146.447 146.447)" fill="cyan" stroke="black" stroke-width="0.5" />
<rect x="821.447"  y="296.447" width="30" height="75" transform="rotate(0 146.447 146.447)" fill="cyan" stroke="black" stroke-width="0.5" />
<rect x="821.447"  y="371.447" width="30" height="75" transform="rotate(0 146.447 146.447)" fill="cyan" stroke="black" stroke-width="0.5" />
<rect x="821.447"  y="446.447" width="30" height="75" transform="rotate(0 146.447 146.447)" fill="cyan" stroke="black" stroke-width="0.5" />
<rect x="821.447"  y="521.447" width="30" height="75" transform="rotate(0 146.447 146.447)" fill="cyan" stroke="black" stroke-width="0.5" />
<rect x="821.447"  y="596.447" width="30" height="75" transform="rotate(0 146.447 146.447)" fill="cyan" stroke="black" stroke-width="0.5" />
<rect x="821.447"  y="671.447" width="30" height="75" transform="rotate(0 146.447 146.447)" fill="cyan" stroke="black" stroke-width="0.5" />
<rect x="821.447"  y="746.447" width="30" height="75" transform="rotate(0 146.447 146.447)" fill="cyan" stroke="black" stroke-width="0.5" />
<rect x="500"  y="853.553" width="75" height="30" transform="rotate(0 500 500)" fill="cyan" stroke="black" stroke-width="0.5" />
<rect x="425"  y="853.553" width="75" height="30" transform="rotate(0 500 500)" fill="cyan" stroke="black" stroke-width="0.5" />
<rect x="575"  y="853.553" width="75" height="30" transform="rotate(0 500 500)" fill="cyan" stroke="black" stroke-width="0.5" />
<rect x="350"  y="853.553" width="75" height="30" transform="rotate(0 500 500)" fill="cyan" stroke="black" stroke-width="0.5" />
<rect x="650"  y="853.553" width="75" height="30" transform="rotate(0 500 500)" fill="cyan" stroke="black" stroke-width="0.5" />
<rect x="275"  y="853.553" width="75" height="30" transform="rotate(0 500 500)" fill="cyan" stroke="black" stroke-width="0.5" />
<rect x="725"  y="853.553" width="75" height="30" transform="rotate(0 500 500)" fill="cyan" stroke="black" stroke-width="0.5" />
<rect x="200"  y="853.553" width="75" height="30" transform="rotate(0 500 500)" fill="cyan" stroke="black" stroke-width="0.5" />
<rect x="500"  y="883.553" width="75" height="30" transform="rotate(0 500 500)" fill="cyan" stroke="black" stroke-width="0.5" />
<rect x="425"  y="883.553" width="75" height="30" transform="rotate(0 500 500)" fill="cyan" stroke="black" stroke-width="0.5" />
<rect x="575"  y="883.553" width="75" height="30" transform="rotate(0 500 500)" fill="cyan" stroke="black" stroke-width="0.5" />
<rect x="350"  y="883.553" width="75" height="30" transform="rotate(0 500 500)" fill="cyan" stroke="black" stroke-width="0.5" />
<rect x="650"  y="883.553" width="75" height="30" transform="rotate(0 500 500)" fill="cyan" stroke="black" stroke-width="0.5" />
<rect x="275"  y="883.553" width="75" height="30" transform="rotate(0 500 500)" fill="cyan" stroke="black" stroke-width="0.5" />
<rect x="500"  y="913.553" width="75" height="30" transform="rotate(0 500 500)" fill="cyan" stroke="black" stroke-width="0.5" />
<rect x="425"  y="913.553" width="75" height="30" transform="rotate(0 500 500)" fill="cyan" stroke="black" stroke-width="0.5" />
<rect x="575"  y="913.553" width="75" height="30" transform="rotate(0 500 500)" fill="cyan" stroke="black" stroke-width="0.5" />
<rect x="350"  y="913.553" width="75" height="30" transform="rotate(0 500 500)" fill="cyan" stroke="black" stroke-width="0.5" />
<rect x="650"  y="913.553" width="75" height="30" transform="rotate(0 500 500)" fill="cyan" stroke="black" stroke-width="0.5" />
<rect x="275"  y="913.553" width="75" height="30" transform="rotate(0 500 500)" fill="cyan" stroke="black" stroke-width="0.5" />
<rect x="500"  y="943.553" width="75" height="30" transform="rotate(0 500 500)" fill="cyan" stroke="black" stroke-width="0.5" />
<rect x="425"  y="943.553" width="75" height="30" transform="rotate(0 500 500)" fill="cyan" stroke="black" stroke-width="0.5" />
<rect x="575"  y="943.553" width="75" height="30" transform="rotate(0 500 500)" fill="cyan" stroke="black" stroke-width="0.5" />
<rect x="350"  y="943.553" width="75" height="30" transform="rotate(0 500 500)" fill="cyan" stroke="black" stroke-width="0.5" />
<rect x="500"  y="853.553" width="75" height="30" transform="rotate(90 500 500)" fill="cyan" stroke="black" stroke-width="0.5" />
<rect x="425"  y="853.553" width="75" height="30" transform="rotate(90 500 500)" fill="cyan" stroke="black" stroke-width="0.5" />
<rect x="575"  y="853.553" width="75" height="30" transform="rotate(90 500 500)" fill="cyan" stroke="black" stroke-width="0.5" />
<rect x="350"  y="853.553" width="75" height="30" transform="rotate(90 500 500)" fill="cyan" stroke="black" stroke-width="0.5" />
<rect x="650"  y="853.553" width="75" height="30" transform="rotate(90 500 500)" fill="cyan" stroke="black" stroke-width="0.5" />
<rect x="275"  y="853.553" width="75" height="30" transform="rotate(90 500 500)" fill="cyan" stroke="black" stroke-width="0.5" />
<rect x="725"  y="853.553" width="75" height="30" transform="rotate(90 500 500)" fill="cyan" stroke="black" stroke-width="0.5" />
<rect x="200"  y="853.553" width="75" height="30" transform="rotate(90 500 500)" fill="cyan" stroke="black" stroke-width="0.5" />
<rect x="500"  y="883.553" width="75" height="30" transform="rotate(90 500 500)" fill="cyan" stroke="black" stroke-width="0.5" />
<rect x="425"  y="883.553" width="75" height="30" transform="rotate(90 500 500)" fill="cyan" stroke="black" stroke-width="0.5" />
<rect x="575"  y="883.553" width="75" height="30" transform="rotate(90 500 500)" fill="cyan" stroke="black" stroke-width="0.5" />
<rect x="350"  y="883.553" width="75" height="30" transform="rotate(90 500 500)" fill="cyan" stroke="black" stroke-width="0.5" />
<rect x="650"  y="883.553" width="75" height="30" transform="rotate(90 500 500)" fill="cyan" stroke="black" stroke-width="0.5" />
<rect x="275"  y="883.553" width="75" height="30" transform="rotate(90 500 500)" fill="cyan" stroke="black" stroke-width="0.5" />
<rect x="500"  y="913.553" width="75" height="30" transform="rotate(90 500 500)" fill="cyan" stroke="black" stroke-width="0.5" />
<rect x="425"  y="913.553" width="75" height="30" transform="rotate(90 500 500)" fill="cyan" stroke="black" stroke-width="0.5" />
<rect x="575"  y="913.553" width="75" height="30" transform="rotate(90 500 500)" fill="cyan" stroke="black" stroke-width="0.5" />
<rect x="350"  y="913.553" width="75" height="30" transform="rotate(90 500 500)" fill="cyan" stroke="black" stroke-width="0.5" />
<rect x="650"  y="913.553" width="75" height="30" transform="rotate(90 500 500)" fill="cyan" stroke="black" stroke-width="0.5" />
<rect x="275"  y="913.553" width="75" height="30" transform="rotate(90 500 500)" fill="cyan" stroke="black" stroke-width="0.5" />
<rect x="500"  y="943.553" width="75" height="30" transform="rotate(90 500 500)" fill="cyan" stroke="black" stroke-width="0.5" />
<rect x="425"  y="943.553" width="75" height="30" transform="rotate(90 500 500)" fill="cyan" stroke="black" stroke-width="0.5" />
<rect x="575"  y="943.553" width="75" height="30" transform="rotate(90 500 500)" fill="cyan" stroke="black" stroke-width="0.5" />
<rect x="350"  y="943.553" width="75" height="30" transform="rotate(90 500 500)" fill="cyan" stroke="black" stroke-width="0.5" />
<rect x="500"  y="853.553" width="75" height="30" transform="rotate(180 500 500)" fill="cyan" stroke="black" stroke-width="0.5" />
<rect x="425"  y="853.553" width="75" height="30" transform="rotate(180 500 500)" fill="cyan" stroke="black" stroke-width="0.5" />
<rect x="575"  y="853.553" width="75" height="30" transform="rotate(180 500 500)" fill="cyan" stroke="black" stroke-width="0.5" />
<rect x="350"  y="853.553" width="75" height="30" transform="rotate(180 500 500)" fill="cyan" stroke="black" stroke-width="0.5" />
<rect x="650"  y="853.553" width="75" height="30" transform="rotate(180 500 500)" fill="cyan" stroke="black" stroke-width="0.5" />
<rect x="275"  y="853.553" width="75" height="30" transform="rotate(180 500 500)" fill="cyan" stroke="black" stroke-width="0.5" />
<rect x="725"  y="853.553" width="75" height="30" transform="rotate(180 500 500)" fill="cyan" stroke="black" stroke-width="0.5" />
<rect x="200"  y="853.553" width="75" height="30" transform="rotate(180 500 500)" fill="cyan" stroke="black" stroke-width="0.5" />
<rect x="500"  y="883.553" width="75" height="30" transform="rotate(180 500 500)" fill="cyan" stroke="black" stroke-width="0.5" />
<rect x="425"  y="883.553" width="75" height="30" transform="rotate(180 500 500)" fill="cyan" stroke="black" stroke-width="0.5" />
<rect x="575"  y="883.553" width="75" height="30" transform="rotate(180 500 500)" fill="cyan" stroke="black" stroke-width="0.5" />
<rect x="350"  y="883.553" width="75" height="30" transform="rotate(180 500 500)" fill="cyan" stroke="black" stroke-width="0.5" />
<rect x="650"  y="883.553" width="75" height="30" transform="rotate(180 500 500)" fill="cyan" stroke="black" stroke-width="0.5" />
<rect x="275"  y="883.553" width="75" height="30" transform="rotate(180 500 500)" fill="cyan" stroke="black" stroke-width="0.5" />
<rect x="500"  y="913.553" width="75" height="30" transform="rotate(180 500 500)" fill="cyan" stroke="black" stroke-width="0.5" />
<rect x="425"  y="913.553" width="75" height="30" transform="rotate(180 500 500)" fill="cyan" stroke="black" stroke-width="0.5" />
<rect x="575"  y="913.553" width="75" height="30" transform="rotate(180 500 500)" fill="cyan" stroke="black" stroke-width="0.5" />
<rect x="350"  y="913.553" width="75" height="30" transform="rotate(180 500 500)" fill="cyan" stroke="black" stroke-width="0.5" />
<rect x="650"  y="913.553" width="75" height="30" transform="rotate(180 500 500)" fill="cyan" stroke="black" stroke-width="0.5" />
<rect x="275"  y="913.553" width="75" height="30" transform="rotate(180 500 500)" fill="cyan" stroke="black" stroke-width="0.5" />
<rect x="500"  y="943.553" width="75" height="30" transform="rotate(180 500 500)" fill="cyan" stroke="black" stroke-width="0.5" />
<rect x="425"  y="943.553" width="75" height="30" transform="rotate(180 500 500)" fill="cyan" stroke="black" stroke-width="0.5" />
<rect x="575"  y="943.553" width="75" height="30" transform="rotate(180 500 500)" fill="cyan" stroke="black" stroke-width="0.5" />
<rect x="350"  y="943.553" width="75" height="30" transform="rotate(180 500 500)" fill="cyan" stroke="black" stroke-width="0.5" />
<rect x="500"  y="853.553" width="75" height="30" transform="rotate(270 500 500)" fill="cyan" stroke="black" stroke-width="0.5" />
<rect x="425"  y="853.553" width="75" height="30" transform="rotate(270 500 500)" fill="cyan" stroke="black" stroke-width="0.5" />
<rect x="575"  y="853.553" width="75" height="30" transform="rotate(270 500 500)" fill="cyan" stroke="black" stroke-width="0.5" />
<rect x="350"  y="853.553" width="75" height="30" transform="rotate(270 500 500)" fill="cyan" stroke="black" stroke-width="0.5" />
<rect x="650"  y="853.553" width="75" height="30" transform="rotate(270 500 500)" fill="cyan" stroke="black" stroke-width="0.5" />
<rect x="275"  y="853.553" width="75" height="30" transform="rotate(270 500 500)" fill="cyan" stroke="black" stroke-width="0.5" />
<rect x="725"  y="853.553" width="75" height="30" transform="rotate(270 500 500)" fill="cyan" stroke="black" stroke-width="0.5" />
<rect x="200"  y="853.553" width="75" height="30" transform="rotate(270 500 500)" fill="cyan" stroke="black" stroke-width="0.5" />
<rect x="500"  y="883.553" width="75" height="30" transform="rotate(270 500 500)" fill="cyan" stroke="black" stroke-width="0.5" />
<rect x="425"  y="883.553" width="75" height="30" transform="rotate(270 500 500)" fill="cyan" stroke="black" stroke-width="0.5" />
<rect x="575"  y="883.553" width="75" height="30" transform="rotate(270 500 500)" fill="cyan" stroke="black" stroke-width="0.5" />
<rect x="350"  y="883.553" width="75" height="30" transform="rotate(270 500 500)" fill="cyan" stroke="black" stroke-width="0.5" />
<rect x="650"  y="883.553" width="75" height="30" transform="rotate(270 500 500)" fill="cyan" stroke="black" stroke-width="0.5" />
<rect x="275"  y="883.553" width="75" height="30" transform="rotate(270 500 500)" fill="cyan" stroke="black" stroke-width="0.5" />
<rect x="500"  y="913.553" width="75" height="30" transform="rotate(270 500 500)" fill="cyan" stroke="black" stroke-width="0.5" />
<rect x="425"  y="913.553" width="75" height="30" transform="rotate(270 500 500)" fill="cyan" stroke="black" stroke-width="0.5" />
<rect x="575"  y="913.553" width="75" height="30" transform="rotate(270 500 500)" fill="cyan" stroke="black" stroke-width="0.5" />
<rect x="350"  y="913.553" width="75" height="30" transform="rotate(270 500 500)" fill="cyan" stroke="black" stroke-width="0.5" />
<rect x="650"  y="913.553" width="75" height="30" transform="rotate(270 500 500)" fill="cyan" stroke="black" stroke-width="0.5" />
<rect x="275"  y="913.553" width="75" height="30" transform="rotate(270 500 500)" fill="cyan" stroke="black" stroke-width="0.5" />
<rect x="500"  y="943.553" width="75" height="30" transform="rotate(270 500 500)" fill="cyan" stroke="black" stroke-width="0.5" />
<rect x="425"  y="943.553" width="75" height="30" transform="rotate(270 500 500)" fill="cyan" stroke="black" stroke-width="0.5" />
<rect x="575"  y="943.553" width="75" height="30" transform="rotate(270 500 500)" fill="cyan" stroke="black" stroke-width="0.5" />
<rect x="350"  y="943.553" width="75" height="30" transform="rotate(270 500 500)" fill="cyan" stroke="black" stroke-width="0.5" />
</svg>
