<svg version="1.1" baseProfile="full" xmlns="http://www.w3.org/2000/svg">
<circle cx="300" cy="300" r="300" transform="rotate(0 0 0)" fill="brown" stroke="black" stroke-width="0.5" />
<rect x="87.868"  y="87.868" width="100" height="50" transform="rotate(0 87.868 87.868)" fill="magenta" stroke="black" stroke-width="0.5" />
<rect x="187.868"  y="87.868" width="100" height="50" transform="rotate(0 87.868 87.868)" fill="magenta" stroke="black" stroke-width="0.5" />
<rect x="287.868"  y="87.868" width="100" height="50" transform="rotate(0 87.868 87.868)" fill="magenta" stroke="black" stroke-width="0.5" />
<rect x="387.868"  y="87.868" width="100" height="50" transform="rotate(0 87.868 87.868)" fill="magenta" stroke="black" stroke-width="0.5" />
<rect x="87.868"  y="137.868" width="100" height="50" transform="rotate(0 87.868 87.868)" fill="magenta" stroke="black" stroke-width="0.5" />
<rect x="187.868"  y="137.868" width="100" height="50" transform="rotate(0 87.868 87.868)" fill="magenta" stroke="black" stroke-width="0.5" />
<rect x="287.868"  y="137.868" width="100" height="50" transform="rotate(0 87.868 87.868)" fill="magenta" stroke="black" stroke-width="0.5" />
<rect x="387.868"  y="137.868" width="100" height="50" transform="rotate(0 87.868 87.868)" fill="magenta" stroke="black" stroke-width="0.5" />
<rect x="87.868"  y="187.868" width="100" height="50" transform="rotate(0 87.868 87.868)" fill="magenta" stroke="black" stroke-width="0.5" />
<rect x="187.868"  y="187.868" width="100" height="50" transform="rotate(0 87.868 87.868)" fill="magenta" stroke="black" stroke-width="0.5" />
<rect x="287.868"  y="187.868" width="100" height="50" transform="rotate(0 87.868 87.868)" fill="magenta" stroke="black" stroke-width="0.5" />
<rect x="387.868"  y="187.868" width="100" height="50" transform="rotate(0 87.868 87.868)" fill="magenta" stroke="black" stroke-width="0.5" />
<rect x="87.868"  y="237.868" width="100" height="50" transform="rotate(0 87.868 87.868)" fill="magenta" stroke="black" stroke-width="0.5" />
<rect x="187.868"  y="237.868" width="100" height="50" transform="rotate(0 87.868 87.868)" fill="magenta" stroke="black" stroke-width="0.5" />
<rect x="287.868"  y="237.868" width="100" height="50" transform="rotate(0 87.868 87.868)" fill="magenta" stroke="black" stroke-width="0.5" />
<rect x="387.868"  y="237.868" width="100" height="50" transform="rotate(0 87.868 87.868)" fill="magenta" stroke="black" stroke-width="0.5" />
<rect x="87.868"  y="287.868" width="100" height="50" transform="rotate(0 87.868 87.868)" fill="magenta" stroke="black" stroke-width="0.5" />
<rect x="187.868"  y="287.868" width="100" height="50" transform="rotate(0 87.868 87.868)" fill="magenta" stroke="black" stroke-width="0.5" />
<rect x="287.868"  y="287.868" width="100" height="50" transform="rotate(0 87.868 87.868)" fill="magenta" stroke="black" stroke-width="0.5" />
<rect x="387.868"  y="287.868" width="100" height="50" transform="rotate(0 87.868 87.868)" fill="magenta" stroke="black" stroke-width="0.5" />
<rect x="87.868"  y="337.868" width="100" height="50" transform="rotate(0 87.868 87.868)" fill="magenta" stroke="black" stroke-width="0.5" />
<rect x="187.868"  y="337.868" width="100" height="50" transform="rotate(0 87.868 87.868)" fill="magenta" stroke="black" stroke-width="0.5" />
<rect x="287.868"  y="337.868" width="100" height="50" transform="rotate(0 87.868 87.868)" fill="magenta" stroke="black" stroke-width="0.5" />
<rect x="387.868"  y="337.868" width="100" height="50" transform="rotate(0 87.868 87.868)" fill="magenta" stroke="black" stroke-width="0.5" />
<rect x="87.868"  y="387.868" width="100" height="50" transform="rotate(0 87.868 87.868)" fill="magenta" stroke="black" stroke-width="0.5" />
<rect x="187.868"  y="387.868" width="100" height="50" transform="rotate(0 87.868 87.868)" fill="magenta" stroke="black" stroke-width="0.5" />
<rect x="287.868"  y="387.868" width="100" height="50" transform="rotate(0 87.868 87.868)" fill="magenta" stroke="black" stroke-width="0.5" />
<rect x="387.868"  y="387.868" width="100" height="50" transform="rotate(0 87.868 87.868)" fill="magenta" stroke="black" stroke-width="0.5" />
<rect x="87.868"  y="437.868" width="100" height="50" transform="rotate(0 87.868 87.868)" fill="magenta" stroke="black" stroke-width="0.5" />
<rect x="187.868"  y="437.868" width="100" height="50" transform="rotate(0 87.868 87.868)" fill="magenta" stroke="black" stroke-width="0.5" />
<rect x="287.868"  y="437.868" width="100" height="50" transform="rotate(0 87.868 87.868)" fill="magenta" stroke="black" stroke-width="0.5" />
<rect x="387.868"  y="437.868" width="100" height="50" transform="rotate(0 87.868 87.868)" fill="magenta" stroke="black" stroke-width="0.5" />
<rect x="300"  y="512.132" width="100" height="50" transform="rotate(0 300 300)" fill="magenta" stroke="black" stroke-width="0.5" />
<rect x="200"  y="512.132" width="100" height="50" transform="rotate(0 300 300)" fill="magenta" stroke="black" stroke-width="0.5" />
<rect x="300"  y="512.132" width="100" height="50" transform="rotate(90 300 300)" fill="magenta" stroke="black" stroke-width="0.5" />
<rect x="200"  y="512.132" width="100" height="50" transform="rotate(90 300 300)" fill="magenta" stroke="black" stroke-width="0.5" />
<rect x="300"  y="512.132" width="100" height="50" transform="rotate(180 300 300)" fill="magenta" stroke="black" stroke-width="0.5" />
<rect x="200"  y="512.132" width="100" height="50" transform="rotate(180 300 300)" fill="magenta" stroke="black" stroke-width="0.5" />
<rect x="300"  y="512.132" width="100" height="50" transform="rotate(270 300 300)" fill="magenta" stroke="black" stroke-width="0.5" />
<rect x="200"  y="512.132" width="100" height="50" transform="rotate(270 300 300)" fill="magenta" stroke="black" stroke-width="0.5" />
</svg>
