<svg version="1.1" baseProfile="full" xmlns="http://www.w3.org/2000/svg">
<circle cx="400" cy="400" r="400" transform="rotate(0 0 0)" fill="red" stroke="black" stroke-width="0.5" />
<circle cx="400" cy="50" r="50" transform="rotate(0 400 400)" fill="green" stroke="black" stroke-width="0.5" />
<circle cx="400" cy="50" r="50" transform="rotate(17.1429 400 400)" fill="green" stroke="black" stroke-width="0.5" />
<circle cx="400" cy="50" r="50" transform="rotate(34.2857 400 400)" fill="green" stroke="black" stroke-width="0.5" />
<circle cx="400" cy="50" r="50" transform="rotate(51.4286 400 400)" fill="green" stroke="black" stroke-width="0.5" />
<circle cx="400" cy="50" r="50" transform="rotate(68.5714 400 400)" fill="green" stroke="black" stroke-width="0.5" />
<circle cx="400" cy="50" r="50" transform="rotate(85.7143 400 400)" fill="green" stroke="black" stroke-width="0.5" />
<circle cx="400" cy="50" r="50" transform="rotate(102.857 400 400)" fill="green" stroke="black" stroke-width="0.5" />
<circle cx="400" cy="50" r="50" transform="rotate(120 400 400)" fill="green" stroke="black" stroke-width="0.5" />
<circle cx="400" cy="50" r="50" transform="rotate(137.143 400 400)" fill="green" stroke="black" stroke-width="0.5" />
<circle cx="400" cy="50" r="50" transform="rotate(154.286 400 400)" fill="green" stroke="black" stroke-width="0.5" />
<circle cx="400" cy="50" r="50" transform="rotate(171.429 400 400)" fill="green" stroke="black" stroke-width="0.5" />
<circle cx="400" cy="50" r="50" transform="rotate(188.571 400 400)" fill="green" stroke="black" stroke-width="0.5" />
<circle cx="400" cy="50" r="50" transform="rotate(205.714 400 400)" fill="green" stroke="black" stroke-width="0.5" />
<circle cx="400" cy="50" r="50" transform="rotate(222.857 400 400)" fill="green" stroke="black" stroke-width="0.5" />
<circle cx="400" cy="50" r="50" transform="rotate(240 400 400)" fill="green" stroke="black" stroke-width="0.5" />
<circle cx="400" cy="50" r="50" transform="rotate(257.143 400 400)" fill="green" stroke="black" stroke-width="0.5" />
<circle cx="400" cy="50" r="50" transform="rotate(274.286 400 400)" fill="green" stroke="black" stroke-width="0.5" />
<circle cx="400" cy="50" r="50" transform="rotate(291.429 400 400)" fill="green" stroke="black" stroke-width="0.5" />
<circle cx="400" cy="50" r="50" transform="rotate(308.571 400 400)" fill="green" stroke="black" stroke-width="0.5" />
<circle cx="400" cy="50" r="50" transform="rotate(325.714 400 400)" fill="green" stroke="black" stroke-width="0.5" />
<circle cx="400" cy="50" r="50" transform="rotate(342.857 400 400)" fill="green" stroke="black" stroke-width="0.5" />
<circle cx="400" cy="150" r="50" transform="rotate(0 400 400)" fill="green" stroke="black" stroke-width="0.5" />
<circle cx="400" cy="150" r="50" transform="rotate(24 400 400)" fill="green" stroke="black" stroke-width="0.5" />
<circle cx="400" cy="150" r="50" transform="rotate(48 400 400)" fill="green" stroke="black" stroke-width="0.5" />
<circle cx="400" cy="150" r="50" transform="rotate(72 400 400)" fill="green" stroke="black" stroke-width="0.5" />
<circle cx="400" cy="150" r="50" transform="rotate(96 400 400)" fill="green" stroke="black" stroke-width="0.5" />
<circle cx="400" cy="150" r="50" transform="rotate(120 400 400)" fill="green" stroke="black" stroke-width="0.5" />
<circle cx="400" cy="150" r="50" transform="rotate(144 400 400)" fill="green" stroke="black" stroke-width="0.5" />
<circle cx="400" cy="150" r="50" transform="rotate(168 400 400)" fill="green" stroke="black" stroke-width="0.5" />
<circle cx="400" cy="150" r="50" transform="rotate(192 400 400)" fill="green" stroke="black" stroke-width="0.5" />
<circle cx="400" cy="150" r="50" transform="rotate(216 400 400)" fill="green" stroke="black" stroke-width="0.5" />
<circle cx="400" cy="150" r="50" transform="rotate(240 400 400)" fill="green" stroke="black" stroke-width="0.5" />
<circle cx="400" cy="150" r="50" transform="rotate(264 400 400)" fill="green" stroke="black" stroke-width="0.5" />
<circle cx="400" cy="150" r="50" transform="rotate(288 400 400)" fill="green" stroke="black" stroke-width="0.5" />
<circle cx="400" cy="150" r="50" transform="rotate(312 400 400)" fill="green" stroke="black" stroke-width="0.5" />
<circle cx="400" cy="150" r="50" transform="rotate(336 400 400)" fill="green" stroke="black" stroke-width="0.5" />
<circle cx="400" cy="250" r="50" transform="rotate(0 400 400)" fill="green" stroke="black" stroke-width="0.5" />
<circle cx="400" cy="250" r="50" transform="rotate(40 400 400)" fill="green" stroke="black" stroke-width="0.5" />
<circle cx="400" cy="250" r="50" transform="rotate(80 400 400)" fill="green" stroke="black" stroke-width="0.5" />
<circle cx="400" cy="250" r="50" transform="rotate(120 400 400)" fill="green" stroke="black" stroke-width="0.5" />
<circle cx="400" cy="250" r="50" transform="rotate(160 400 400)" fill="green" stroke="black" stroke-width="0.5" />
<circle cx="400" cy="250" r="50" transform="rotate(200 400 400)" fill="green" stroke="black" stroke-width="0.5" />
<circle cx="400" cy="250" r="50" transform="rotate(240 400 400)" fill="green" stroke="black" stroke-width="0.5" />
<circle cx="400" cy="250" r="50" transform="rotate(280 400 400)" fill="green" stroke="black" stroke-width="0.5" />
<circle cx="400" cy="250" r="50" transform="rotate(320 400 400)" fill="green" stroke="black" stroke-width="0.5" />
<circle cx="400" cy="350" r="50" transform="rotate(0 400 400)" fill="green" stroke="black" stroke-width="0.5" />
<circle cx="400" cy="350" r="50" transform="rotate(180 400 400)" fill="green" stroke="black" stroke-width="0.5" />
</svg>
