<svg version="1.1" baseProfile="full" xmlns="http://www.w3.org/2000/svg">
<rect x="0"  y="0" width="750" height="500" transform="rotate(0 0 0)" fill="red" stroke="black" stroke-width="0.5" />
<rect x="0"  y="0" width="50" height="100" transform="rotate(0 0 0)" fill="magenta" stroke="black" stroke-width="0.5" />
<rect x="50"  y="0" width="50" height="100" transform="rotate(0 0 0)" fill="magenta" stroke="black" stroke-width="0.5" />
<rect x="100"  y="0" width="50" height="100" transform="rotate(0 0 0)" fill="magenta" stroke="black" stroke-width="0.5" />
<rect x="150"  y="0" width="50" height="100" transform="rotate(0 0 0)" fill="magenta" stroke="black" stroke-width="0.5" />
<rect x="200"  y="0" width="50" height="100" transform="rotate(0 0 0)" fill="magenta" stroke="black" stroke-width="0.5" />
<rect x="250"  y="0" width="50" height="100" transform="rotate(0 0 0)" fill="magenta" stroke="black" stroke-width="0.5" />
<rect x="300"  y="0" width="50" height="100" transform="rotate(0 0 0)" fill="magenta" stroke="black" stroke-width="0.5" />
<rect x="350"  y="0" width="50" height="100" transform="rotate(0 0 0)" fill="magenta" stroke="black" stroke-width="0.5" />
<rect x="400"  y="0" width="50" height="100" transform="rotate(0 0 0)" fill="magenta" stroke="black" stroke-width="0.5" />
<rect x="450"  y="0" width="50" height="100" transform="rotate(0 0 0)" fill="magenta" stroke="black" stroke-width="0.5" />
<rect x="500"  y="0" width="50" height="100" transform="rotate(0 0 0)" fill="magenta" stroke="black" stroke-width="0.5" />
<rect x="550"  y="0" width="50" height="100" transform="rotate(0 0 0)" fill="magenta" stroke="black" stroke-width="0.5" />
<rect x="600"  y="0" width="50" height="100" transform="rotate(0 0 0)" fill="magenta" stroke="black" stroke-width="0.5" />
<rect x="650"  y="0" width="50" height="100" transform="rotate(0 0 0)" fill="magenta" stroke="black" stroke-width="0.5" />
<rect x="700"  y="0" width="50" height="100" transform="rotate(0 0 0)" fill="magenta" stroke="black" stroke-width="0.5" />
<rect x="0"  y="100" width="50" height="100" transform="rotate(0 0 0)" fill="magenta" stroke="black" stroke-width="0.5" />
<rect x="50"  y="100" width="50" height="100" transform="rotate(0 0 0)" fill="magenta" stroke="black" stroke-width="0.5" />
<rect x="100"  y="100" width="50" height="100" transform="rotate(0 0 0)" fill="magenta" stroke="black" stroke-width="0.5" />
<rect x="150"  y="100" width="50" height="100" transform="rotate(0 0 0)" fill="magenta" stroke="black" stroke-width="0.5" />
<rect x="200"  y="100" width="50" height="100" transform="rotate(0 0 0)" fill="magenta" stroke="black" stroke-width="0.5" />
<rect x="250"  y="100" width="50" height="100" transform="rotate(0 0 0)" fill="magenta" stroke="black" stroke-width="0.5" />
<rect x="300"  y="100" width="50" height="100" transform="rotate(0 0 0)" fill="magenta" stroke="black" stroke-width="0.5" />
<rect x="350"  y="100" width="50" height="100" transform="rotate(0 0 0)" fill="magenta" stroke="black" stroke-width="0.5" />
<rect x="400"  y="100" width="50" height="100" transform="rotate(0 0 0)" fill="magenta" stroke="black" stroke-width="0.5" />
<rect x="450"  y="100" width="50" height="100" transform="rotate(0 0 0)" fill="magenta" stroke="black" stroke-width="0.5" />
<rect x="500"  y="100" width="50" height="100" transform="rotate(0 0 0)" fill="magenta" stroke="black" stroke-width="0.5" />
<rect x="550"  y="100" width="50" height="100" transform="rotate(0 0 0)" fill="magenta" stroke="black" stroke-width="0.5" />
<rect x="600"  y="100" width="50" height="100" transform="rotate(0 0 0)" fill="magenta" stroke="black" stroke-width="0.5" />
<rect x="650"  y="100" width="50" height="100" transform="rotate(0 0 0)" fill="magenta" stroke="black" stroke-width="0.5" />
<rect x="700"  y="100" width="50" height="100" transform="rotate(0 0 0)" fill="magenta" stroke="black" stroke-width="0.5" />
<rect x="0"  y="200" width="50" height="100" transform="rotate(0 0 0)" fill="magenta" stroke="black" stroke-width="0.5" />
<rect x="50"  y="200" width="50" height="100" transform="rotate(0 0 0)" fill="magenta" stroke="black" stroke-width="0.5" />
<rect x="100"  y="200" width="50" height="100" transform="rotate(0 0 0)" fill="magenta" stroke="black" stroke-width="0.5" />
<rect x="150"  y="200" width="50" height="100" transform="rotate(0 0 0)" fill="magenta" stroke="black" stroke-width="0.5" />
<rect x="200"  y="200" width="50" height="100" transform="rotate(0 0 0)" fill="magenta" stroke="black" stroke-width="0.5" />
<rect x="250"  y="200" width="50" height="100" transform="rotate(0 0 0)" fill="magenta" stroke="black" stroke-width="0.5" />
<rect x="300"  y="200" width="50" height="100" transform="rotate(0 0 0)" fill="magenta" stroke="black" stroke-width="0.5" />
<rect x="350"  y="200" width="50" height="100" transform="rotate(0 0 0)" fill="magenta" stroke="black" stroke-width="0.5" />
<rect x="400"  y="200" width="50" height="100" transform="rotate(0 0 0)" fill="magenta" stroke="black" stroke-width="0.5" />
<rect x="450"  y="200" width="50" height="100" transform="rotate(0 0 0)" fill="magenta" stroke="black" stroke-width="0.5" />
<rect x="500"  y="200" width="50" height="100" transform="rotate(0 0 0)" fill="magenta" stroke="black" stroke-width="0.5" />
<rect x="550"  y="200" width="50" height="100" transform="rotate(0 0 0)" fill="magenta" stroke="black" stroke-width="0.5" />
<rect x="600"  y="200" width="50" height="100" transform="rotate(0 0 0)" fill="magenta" stroke="black" stroke-width="0.5" />
<rect x="650"  y="200" width="50" height="100" transform="rotate(0 0 0)" fill="magenta" stroke="black" stroke-width="0.5" />
<rect x="700"  y="200" width="50" height="100" transform="rotate(0 0 0)" fill="magenta" stroke="black" stroke-width="0.5" />
<rect x="0"  y="300" width="50" height="100" transform="rotate(0 0 0)" fill="magenta" stroke="black" stroke-width="0.5" />
<rect x="50"  y="300" width="50" height="100" transform="rotate(0 0 0)" fill="magenta" stroke="black" stroke-width="0.5" />
<rect x="100"  y="300" width="50" height="100" transform="rotate(0 0 0)" fill="magenta" stroke="black" stroke-width="0.5" />
<rect x="150"  y="300" width="50" height="100" transform="rotate(0 0 0)" fill="magenta" stroke="black" stroke-width="0.5" />
<rect x="200"  y="300" width="50" height="100" transform="rotate(0 0 0)" fill="magenta" stroke="black" stroke-width="0.5" />
<rect x="250"  y="300" width="50" height="100" transform="rotate(0 0 0)" fill="magenta" stroke="black" stroke-width="0.5" />
<rect x="300"  y="300" width="50" height="100" transform="rotate(0 0 0)" fill="magenta" stroke="black" stroke-width="0.5" />
<rect x="350"  y="300" width="50" height="100" transform="rotate(0 0 0)" fill="magenta" stroke="black" stroke-width="0.5" />
<rect x="400"  y="300" width="50" height="100" transform="rotate(0 0 0)" fill="magenta" stroke="black" stroke-width="0.5" />
<rect x="450"  y="300" width="50" height="100" transform="rotate(0 0 0)" fill="magenta" stroke="black" stroke-width="0.5" />
<rect x="500"  y="300" width="50" height="100" transform="rotate(0 0 0)" fill="magenta" stroke="black" stroke-width="0.5" />
<rect x="550"  y="300" width="50" height="100" transform="rotate(0 0 0)" fill="magenta" stroke="black" stroke-width="0.5" />
<rect x="600"  y="300" width="50" height="100" transform="rotate(0 0 0)" fill="magenta" stroke="black" stroke-width="0.5" />
<rect x="650"  y="300" width="50" height="100" transform="rotate(0 0 0)" fill="magenta" stroke="black" stroke-width="0.5" />
<rect x="700"  y="300" width="50" height="100" transform="rotate(0 0 0)" fill="magenta" stroke="black" stroke-width="0.5" />
<rect x="0"  y="400" width="50" height="100" transform="rotate(0 0 0)" fill="magenta" stroke="black" stroke-width="0.5" />
<rect x="50"  y="400" width="50" height="100" transform="rotate(0 0 0)" fill="magenta" stroke="black" stroke-width="0.5" />
<rect x="100"  y="400" width="50" height="100" transform="rotate(0 0 0)" fill="magenta" stroke="black" stroke-width="0.5" />
<rect x="150"  y="400" width="50" height="100" transform="rotate(0 0 0)" fill="magenta" stroke="black" stroke-width="0.5" />
<rect x="200"  y="400" width="50" height="100" transform="rotate(0 0 0)" fill="magenta" stroke="black" stroke-width="0.5" />
<rect x="250"  y="400" width="50" height="100" transform="rotate(0 0 0)" fill="magenta" stroke="black" stroke-width="0.5" />
<rect x="300"  y="400" width="50" height="100" transform="rotate(0 0 0)" fill="magenta" stroke="black" stroke-width="0.5" />
<rect x="350"  y="400" width="50" height="100" transform="rotate(0 0 0)" fill="magenta" stroke="black" stroke-width="0.5" />
<rect x="400"  y="400" width="50" height="100" transform="rotate(0 0 0)" fill="magenta" stroke="black" stroke-width="0.5" />
<rect x="450"  y="400" width="50" height="100" transform="rotate(0 0 0)" fill="magenta" stroke="black" stroke-width="0.5" />
<rect x="500"  y="400" width="50" height="100" transform="rotate(0 0 0)" fill="magenta" stroke="black" stroke-width="0.5" />
<rect x="550"  y="400" width="50" height="100" transform="rotate(0 0 0)" fill="magenta" stroke="black" stroke-width="0.5" />
<rect x="600"  y="400" width="50" height="100" transform="rotate(0 0 0)" fill="magenta" stroke="black" stroke-width="0.5" />
<rect x="650"  y="400" width="50" height="100" transform="rotate(0 0 0)" fill="magenta" stroke="black" stroke-width="0.5" />
<rect x="700"  y="400" width="50" height="100" transform="rotate(0 0 0)" fill="magenta" stroke="black" stroke-width="0.5" />
</svg>
