<svg version="1.1" baseProfile="full" xmlns="http://www.w3.org/2000/svg">
<polygon points="300,0 0,519.615 600,519.615" transform="rotate(0 0 0)" fill="blue" stroke="black" stroke-width="0.5" />
<rect x="25"  y="504.615" width="110" height="15" transform="rotate(0 0 0)" fill="green" stroke="black" stroke-width="0.5" />
<rect x="135"  y="504.615" width="110" height="15" transform="rotate(0 0 0)" fill="green" stroke="black" stroke-width="0.5" />
<rect x="245"  y="504.615" width="110" height="15" transform="rotate(0 0 0)" fill="green" stroke="black" stroke-width="0.5" />
<rect x="355"  y="504.615" width="110" height="15" transform="rotate(0 0 0)" fill="green" stroke="black" stroke-width="0.5" />
<rect x="465"  y="504.615" width="110" height="15" transform="rotate(0 0 0)" fill="green" stroke="black" stroke-width="0.5" />
<rect x="25"  y="489.615" width="110" height="15" transform="rotate(0 0 0)" fill="green" stroke="black" stroke-width="0.5" />
<rect x="135"  y="489.615" width="110" height="15" transform="rotate(0 0 0)" fill="green" stroke="black" stroke-width="0.5" />
<rect x="245"  y="489.615" width="110" height="15" transform="rotate(0 0 0)" fill="green" stroke="black" stroke-width="0.5" />
<rect x="355"  y="489.615" width="110" height="15" transform="rotate(0 0 0)" fill="green" stroke="black" stroke-width="0.5" />
<rect x="465"  y="489.615" width="110" height="15" transform="rotate(0 0 0)" fill="green" stroke="black" stroke-width="0.5" />
<rect x="80"  y="474.615" width="110" height="15" transform="rotate(0 0 0)" fill="green" stroke="black" stroke-width="0.5" />
<rect x="190"  y="474.615" width="110" height="15" transform="rotate(0 0 0)" fill="green" stroke="black" stroke-width="0.5" />
<rect x="300"  y="474.615" width="110" height="15" transform="rotate(0 0 0)" fill="green" stroke="black" stroke-width="0.5" />
<rect x="410"  y="474.615" width="110" height="15" transform="rotate(0 0 0)" fill="green" stroke="black" stroke-width="0.5" />
<rect x="80"  y="459.615" width="110" height="15" transform="rotate(0 0 0)" fill="green" stroke="black" stroke-width="0.5" />
<rect x="190"  y="459.615" width="110" height="15" transform="rotate(0 0 0)" fill="green" stroke="black" stroke-width="0.5" />
<rect x="300"  y="459.615" width="110" height="15" transform="rotate(0 0 0)" fill="green" stroke="black" stroke-width="0.5" />
<rect x="410"  y="459.615" width="110" height="15" transform="rotate(0 0 0)" fill="green" stroke="black" stroke-width="0.5" />
<rect x="80"  y="444.615" width="110" height="15" transform="rotate(0 0 0)" fill="green" stroke="black" stroke-width="0.5" />
<rect x="190"  y="444.615" width="110" height="15" transform="rotate(0 0 0)" fill="green" stroke="black" stroke-width="0.5" />
<rect x="300"  y="444.615" width="110" height="15" transform="rotate(0 0 0)" fill="green" stroke="black" stroke-width="0.5" />
<rect x="410"  y="444.615" width="110" height="15" transform="rotate(0 0 0)" fill="green" stroke="black" stroke-width="0.5" />
<rect x="80"  y="429.615" width="110" height="15" transform="rotate(0 0 0)" fill="green" stroke="black" stroke-width="0.5" />
<rect x="190"  y="429.615" width="110" height="15" transform="rotate(0 0 0)" fill="green" stroke="black" stroke-width="0.5" />
<rect x="300"  y="429.615" width="110" height="15" transform="rotate(0 0 0)" fill="green" stroke="black" stroke-width="0.5" />
<rect x="410"  y="429.615" width="110" height="15" transform="rotate(0 0 0)" fill="green" stroke="black" stroke-width="0.5" />
<rect x="80"  y="414.615" width="110" height="15" transform="rotate(0 0 0)" fill="green" stroke="black" stroke-width="0.5" />
<rect x="190"  y="414.615" width="110" height="15" transform="rotate(0 0 0)" fill="green" stroke="black" stroke-width="0.5" />
<rect x="300"  y="414.615" width="110" height="15" transform="rotate(0 0 0)" fill="green" stroke="black" stroke-width="0.5" />
<rect x="410"  y="414.615" width="110" height="15" transform="rotate(0 0 0)" fill="green" stroke="black" stroke-width="0.5" />
<rect x="80"  y="399.615" width="110" height="15" transform="rotate(0 0 0)" fill="green" stroke="black" stroke-width="0.5" />
<rect x="190"  y="399.615" width="110" height="15" transform="rotate(0 0 0)" fill="green" stroke="black" stroke-width="0.5" />
<rect x="300"  y="399.615" width="110" height="15" transform="rotate(0 0 0)" fill="green" stroke="black" stroke-width="0.5" />
<rect x="410"  y="399.615" width="110" height="15" transform="rotate(0 0 0)" fill="green" stroke="black" stroke-width="0.5" />
<rect x="80"  y="384.615" width="110" height="15" transform="rotate(0 0 0)" fill="green" stroke="black" stroke-width="0.5" />
<rect x="190"  y="384.615" width="110" height="15" transform="rotate(0 0 0)" fill="green" stroke="black" stroke-width="0.5" />
<rect x="300"  y="384.615" width="110" height="15" transform="rotate(0 0 0)" fill="green" stroke="black" stroke-width="0.5" />
<rect x="410"  y="384.615" width="110" height="15" transform="rotate(0 0 0)" fill="green" stroke="black" stroke-width="0.5" />
<rect x="135"  y="369.615" width="110" height="15" transform="rotate(0 0 0)" fill="green" stroke="black" stroke-width="0.5" />
<rect x="245"  y="369.615" width="110" height="15" transform="rotate(0 0 0)" fill="green" stroke="black" stroke-width="0.5" />
<rect x="355"  y="369.615" width="110" height="15" transform="rotate(0 0 0)" fill="green" stroke="black" stroke-width="0.5" />
<rect x="135"  y="354.615" width="110" height="15" transform="rotate(0 0 0)" fill="green" stroke="black" stroke-width="0.5" />
<rect x="245"  y="354.615" width="110" height="15" transform="rotate(0 0 0)" fill="green" stroke="black" stroke-width="0.5" />
<rect x="355"  y="354.615" width="110" height="15" transform="rotate(0 0 0)" fill="green" stroke="black" stroke-width="0.5" />
<rect x="135"  y="339.615" width="110" height="15" transform="rotate(0 0 0)" fill="green" stroke="black" stroke-width="0.5" />
<rect x="245"  y="339.615" width="110" height="15" transform="rotate(0 0 0)" fill="green" stroke="black" stroke-width="0.5" />
<rect x="355"  y="339.615" width="110" height="15" transform="rotate(0 0 0)" fill="green" stroke="black" stroke-width="0.5" />
<rect x="135"  y="324.615" width="110" height="15" transform="rotate(0 0 0)" fill="green" stroke="black" stroke-width="0.5" />
<rect x="245"  y="324.615" width="110" height="15" transform="rotate(0 0 0)" fill="green" stroke="black" stroke-width="0.5" />
<rect x="355"  y="324.615" width="110" height="15" transform="rotate(0 0 0)" fill="green" stroke="black" stroke-width="0.5" />
<rect x="135"  y="309.615" width="110" height="15" transform="rotate(0 0 0)" fill="green" stroke="black" stroke-width="0.5" />
<rect x="245"  y="309.615" width="110" height="15" transform="rotate(0 0 0)" fill="green" stroke="black" stroke-width="0.5" />
<rect x="355"  y="309.615" width="110" height="15" transform="rotate(0 0 0)" fill="green" stroke="black" stroke-width="0.5" />
<rect x="135"  y="294.615" width="110" height="15" transform="rotate(0 0 0)" fill="green" stroke="black" stroke-width="0.5" />
<rect x="245"  y="294.615" width="110" height="15" transform="rotate(0 0 0)" fill="green" stroke="black" stroke-width="0.5" />
<rect x="355"  y="294.615" width="110" height="15" transform="rotate(0 0 0)" fill="green" stroke="black" stroke-width="0.5" />
<rect x="190"  y="279.615" width="110" height="15" transform="rotate(0 0 0)" fill="green" stroke="black" stroke-width="0.5" />
<rect x="300"  y="279.615" width="110" height="15" transform="rotate(0 0 0)" fill="green" stroke="black" stroke-width="0.5" />
<rect x="190"  y="264.615" width="110" height="15" transform="rotate(0 0 0)" fill="green" stroke="black" stroke-width="0.5" />
<rect x="300"  y="264.615" width="110" height="15" transform="rotate(0 0 0)" fill="green" stroke="black" stroke-width="0.5" />
<rect x="190"  y="249.615" width="110" height="15" transform="rotate(0 0 0)" fill="green" stroke="black" stroke-width="0.5" />
<rect x="300"  y="249.615" width="110" height="15" transform="rotate(0 0 0)" fill="green" stroke="black" stroke-width="0.5" />
<rect x="190"  y="234.615" width="110" height="15" transform="rotate(0 0 0)" fill="green" stroke="black" stroke-width="0.5" />
<rect x="300"  y="234.615" width="110" height="15" transform="rotate(0 0 0)" fill="green" stroke="black" stroke-width="0.5" />
<rect x="190"  y="219.615" width="110" height="15" transform="rotate(0 0 0)" fill="green" stroke="black" stroke-width="0.5" />
<rect x="300"  y="219.615" width="110" height="15" transform="rotate(0 0 0)" fill="green" stroke="black" stroke-width="0.5" />
<rect x="190"  y="204.615" width="110" height="15" transform="rotate(0 0 0)" fill="green" stroke="black" stroke-width="0.5" />
<rect x="300"  y="204.615" width="110" height="15" transform="rotate(0 0 0)" fill="green" stroke="black" stroke-width="0.5" />
<rect x="245"  y="189.615" width="110" height="15" transform="rotate(0 0 0)" fill="green" stroke="black" stroke-width="0.5" />
<rect x="245"  y="174.615" width="110" height="15" transform="rotate(0 0 0)" fill="green" stroke="black" stroke-width="0.5" />
<rect x="245"  y="159.615" width="110" height="15" transform="rotate(0 0 0)" fill="green" stroke="black" stroke-width="0.5" />
<rect x="245"  y="144.615" width="110" height="15" transform="rotate(0 0 0)" fill="green" stroke="black" stroke-width="0.5" />
<rect x="245"  y="129.615" width="110" height="15" transform="rotate(0 0 0)" fill="green" stroke="black" stroke-width="0.5" />
<rect x="245"  y="114.615" width="110" height="15" transform="rotate(0 0 0)" fill="green" stroke="black" stroke-width="0.5" />
<rect x="245"  y="99.6152" width="110" height="15" transform="rotate(0 0 0)" fill="green" stroke="black" stroke-width="0.5" />
</svg>
