<svg version="1.1" baseProfile="full" xmlns="http://www.w3.org/2000/svg">
<rect x="10"  y="10" width="500" height="500" transform="rotate(0 0 0)" fill="purple" stroke="black" stroke-width="0.5" />
<polygon points="39.5,10 10,61.0955 69,61.0955" transform="rotate(0 0 0)" fill="cyan" stroke="black" stroke-width="0.5" />
<polygon points="98.5,10 69,61.0955 128,61.0955" transform="rotate(0 0 0)" fill="cyan" stroke="black" stroke-width="0.5" />
<polygon points="157.5,10 128,61.0955 187,61.0955" transform="rotate(0 0 0)" fill="cyan" stroke="black" stroke-width="0.5" />
<polygon points="216.5,10 187,61.0955 246,61.0955" transform="rotate(0 0 0)" fill="cyan" stroke="black" stroke-width="0.5" />
<polygon points="275.5,10 246,61.0955 305,61.0955" transform="rotate(0 0 0)" fill="cyan" stroke="black" stroke-width="0.5" />
<polygon points="334.5,10 305,61.0955 364,61.0955" transform="rotate(0 0 0)" fill="cyan" stroke="black" stroke-width="0.5" />
<polygon points="393.5,10 364,61.0955 423,61.0955" transform="rotate(0 0 0)" fill="cyan" stroke="black" stroke-width="0.5" />
<polygon points="452.5,10 423,61.0955 482,61.0955" transform="rotate(0 0 0)" fill="cyan" stroke="black" stroke-width="0.5" />
<polygon points="39.5,61.0955 10,112.191 69,112.191" transform="rotate(0 0 0)" fill="cyan" stroke="black" stroke-width="0.5" />
<polygon points="98.5,61.0955 69,112.191 128,112.191" transform="rotate(0 0 0)" fill="cyan" stroke="black" stroke-width="0.5" />
<polygon points="157.5,61.0955 128,112.191 187,112.191" transform="rotate(0 0 0)" fill="cyan" stroke="black" stroke-width="0.5" />
<polygon points="216.5,61.0955 187,112.191 246,112.191" transform="rotate(0 0 0)" fill="cyan" stroke="black" stroke-width="0.5" />
<polygon points="275.5,61.0955 246,112.191 305,112.191" transform="rotate(0 0 0)" fill="cyan" stroke="black" stroke-width="0.5" />
<polygon points="334.5,61.0955 305,112.191 364,112.191" transform="rotate(0 0 0)" fill="cyan" stroke="black" stroke-width="0.5" />
<polygon points="393.5,61.0955 364,112.191 423,112.191" transform="rotate(0 0 0)" fill="cyan" stroke="black" stroke-width="0.5" />
<polygon points="452.5,61.0955 423,112.191 482,112.191" transform="rotate(0 0 0)" fill="cyan" stroke="black" stroke-width="0.5" />
<polygon points="39.5,112.191 10,163.286 69,163.286" transform="rotate(0 0 0)" fill="cyan" stroke="black" stroke-width="0.5" />
<polygon points="98.5,112.191 69,163.286 128,163.286" transform="rotate(0 0 0)" fill="cyan" stroke="black" stroke-width="0.5" />
<polygon points="157.5,112.191 128,163.286 187,163.286" transform="rotate(0 0 0)" fill="cyan" stroke="black" stroke-width="0.5" />
<polygon points="216.5,112.191 187,163.286 246,163.286" transform="rotate(0 0 0)" fill="cyan" stroke="black" stroke-width="0.5" />
<polygon points="275.5,112.191 246,163.286 305,163.286" transform="rotate(0 0 0)" fill="cyan" stroke="black" stroke-width="0.5" />
<polygon points="334.5,112.191 305,163.286 364,163.286" transform="rotate(0 0 0)" fill="cyan" stroke="black" stroke-width="0.5" />
<polygon points="393.5,112.191 364,163.286 423,163.286" transform="rotate(0 0 0)" fill="cyan" stroke="black" stroke-width="0.5" />
<polygon points="452.5,112.191 423,163.286 482,163.286" transform="rotate(0 0 0)" fill="cyan" stroke="black" stroke-width="0.5" />
<polygon points="39.5,163.286 10,214.382 69,214.382" transform="rotate(0 0 0)" fill="cyan" stroke="black" stroke-width="0.5" />
<polygon points="98.5,163.286 69,214.382 128,214.382" transform="rotate(0 0 0)" fill="cyan" stroke="black" stroke-width="0.5" />
<polygon points="157.5,163.286 128,214.382 187,214.382" transform="rotate(0 0 0)" fill="cyan" stroke="black" stroke-width="0.5" />
<polygon points="216.5,163.286 187,214.382 246,214.382" transform="rotate(0 0 0)" fill="cyan" stroke="black" stroke-width="0.5" />
<polygon points="275.5,163.286 246,214.382 305,214.382" transform="rotate(0 0 0)" fill="cyan" stroke="black" stroke-width="0.5" />
<polygon points="334.5,163.286 305,214.382 364,214.382" transform="rotate(0 0 0)" fill="cyan" stroke="black" stroke-width="0.5" />
<polygon points="393.5,163.286 364,214.382 423,214.382" transform="rotate(0 0 0)" fill="cyan" stroke="black" stroke-width="0.5" />
<polygon points="452.5,163.286 423,214.382 482,214.382" transform="rotate(0 0 0)" fill="cyan" stroke="black" stroke-width="0.5" />
<polygon points="39.5,214.382 10,265.477 69,265.477" transform="rotate(0 0 0)" fill="cyan" stroke="black" stroke-width="0.5" />
<polygon points="98.5,214.382 69,265.477 128,265.477" transform="rotate(0 0 0)" fill="cyan" stroke="black" stroke-width="0.5" />
<polygon points="157.5,214.382 128,265.477 187,265.477" transform="rotate(0 0 0)" fill="cyan" stroke="black" stroke-width="0.5" />
<polygon points="216.5,214.382 187,265.477 246,265.477" transform="rotate(0 0 0)" fill="cyan" stroke="black" stroke-width="0.5" />
<polygon points="275.5,214.382 246,265.477 305,265.477" transform="rotate(0 0 0)" fill="cyan" stroke="black" stroke-width="0.5" />
<polygon points="334.5,214.382 305,265.477 364,265.477" transform="rotate(0 0 0)" fill="cyan" stroke="black" stroke-width="0.5" />
<polygon points="393.5,214.382 364,265.477 423,265.477" transform="rotate(0 0 0)" fill="cyan" stroke="black" stroke-width="0.5" />
<polygon points="452.5,214.382 423,265.477 482,265.477" transform="rotate(0 0 0)" fill="cyan" stroke="black" stroke-width="0.5" />
<polygon points="39.5,265.477 10,316.573 69,316.573" transform="rotate(0 0 0)" fill="cyan" stroke="black" stroke-width="0.5" />
<polygon points="98.5,265.477 69,316.573 128,316.573" transform="rotate(0 0 0)" fill="cyan" stroke="black" stroke-width="0.5" />
<polygon points="157.5,265.477 128,316.573 187,316.573" transform="rotate(0 0 0)" fill="cyan" stroke="black" stroke-width="0.5" />
<polygon points="216.5,265.477 187,316.573 246,316.573" transform="rotate(0 0 0)" fill="cyan" stroke="black" stroke-width="0.5" />
<polygon points="275.5,265.477 246,316.573 305,316.573" transform="rotate(0 0 0)" fill="cyan" stroke="black" stroke-width="0.5" />
<polygon points="334.5,265.477 305,316.573 364,316.573" transform="rotate(0 0 0)" fill="cyan" stroke="black" stroke-width="0.5" />
<polygon points="393.5,265.477 364,316.573 423,316.573" transform="rotate(0 0 0)" fill="cyan" stroke="black" stroke-width="0.5" />
<polygon points="452.5,265.477 423,316.573 482,316.573" transform="rotate(0 0 0)" fill="cyan" stroke="black" stroke-width="0.5" />
<polygon points="39.5,316.573 10,367.668 69,367.668" transform="rotate(0 0 0)" fill="cyan" stroke="black" stroke-width="0.5" />
<polygon points="98.5,316.573 69,367.668 128,367.668" transform="rotate(0 0 0)" fill="cyan" stroke="black" stroke-width="0.5" />
<polygon points="157.5,316.573 128,367.668 187,367.668" transform="rotate(0 0 0)" fill="cyan" stroke="black" stroke-width="0.5" />
<polygon points="216.5,316.573 187,367.668 246,367.668" transform="rotate(0 0 0)" fill="cyan" stroke="black" stroke-width="0.5" />
<polygon points="275.5,316.573 246,367.668 305,367.668" transform="rotate(0 0 0)" fill="cyan" stroke="black" stroke-width="0.5" />
<polygon points="334.5,316.573 305,367.668 364,367.668" transform="rotate(0 0 0)" fill="cyan" stroke="black" stroke-width="0.5" />
<polygon points="393.5,316.573 364,367.668 423,367.668" transform="rotate(0 0 0)" fill="cyan" stroke="black" stroke-width="0.5" />
<polygon points="452.5,316.573 423,367.668 482,367.668" transform="rotate(0 0 0)" fill="cyan" stroke="black" stroke-width="0.5" />
<polygon points="39.5,367.668 10,418.764 69,418.764" transform="rotate(0 0 0)" fill="cyan" stroke="black" stroke-width="0.5" />
<polygon points="98.5,367.668 69,418.764 128,418.764" transform="rotate(0 0 0)" fill="cyan" stroke="black" stroke-width="0.5" />
<polygon points="157.5,367.668 128,418.764 187,418.764" transform="rotate(0 0 0)" fill="cyan" stroke="black" stroke-width="0.5" />
<polygon points="216.5,367.668 187,418.764 246,418.764" transform="rotate(0 0 0)" fill="cyan" stroke="black" stroke-width="0.5" />
<polygon points="275.5,367.668 246,418.764 305,418.764" transform="rotate(0 0 0)" fill="cyan" stroke="black" stroke-width="0.5" />
<polygon points="334.5,367.668 305,418.764 364,418.764" transform="rotate(0 0 0)" fill="cyan" stroke="black" stroke-width="0.5" />
<polygon points="393.5,367.668 364,418.764 423,418.764" transform="rotate(0 0 0)" fill="cyan" stroke="black" stroke-width="0.5" />
<polygon points="452.5,367.668 423,418.764 482,418.764" transform="rotate(0 0 0)" fill="cyan" stroke="black" stroke-width="0.5" />
<polygon points="39.5,418.764 10,469.859 69,469.859" transform="rotate(0 0 0)" fill="cyan" stroke="black" stroke-width="0.5" />
<polygon points="98.5,418.764 69,469.859 128,469.859" transform="rotate(0 0 0)" fill="cyan" stroke="black" stroke-width="0.5" />
<polygon points="157.5,418.764 128,469.859 187,469.859" transform="rotate(0 0 0)" fill="cyan" stroke="black" stroke-width="0.5" />
<polygon points="216.5,418.764 187,469.859 246,469.859" transform="rotate(0 0 0)" fill="cyan" stroke="black" stroke-width="0.5" />
<polygon points="275.5,418.764 246,469.859 305,469.859" transform="rotate(0 0 0)" fill="cyan" stroke="black" stroke-width="0.5" />
<polygon points="334.5,418.764 305,469.859 364,469.859" transform="rotate(0 0 0)" fill="cyan" stroke="black" stroke-width="0.5" />
<polygon points="393.5,418.764 364,469.859 423,469.859" transform="rotate(0 0 0)" fill="cyan" stroke="black" stroke-width="0.5" />
<polygon points="452.5,418.764 423,469.859 482,469.859" transform="rotate(0 0 0)" fill="cyan" stroke="black" stroke-width="0.5" />
<polygon points="39.5,10 69,61.0955 98.5,10" transform="rotate(0 0 0)" fill="cyan" stroke="black" stroke-width="0.5" />
<polygon points="98.5,10 128,61.0955 157.5,10" transform="rotate(0 0 0)" fill="cyan" stroke="black" stroke-width="0.5" />
<polygon points="157.5,10 187,61.0955 216.5,10" transform="rotate(0 0 0)" fill="cyan" stroke="black" stroke-width="0.5" />
<polygon points="216.5,10 246,61.0955 275.5,10" transform="rotate(0 0 0)" fill="cyan" stroke="black" stroke-width="0.5" />
<polygon points="275.5,10 305,61.0955 334.5,10" transform="rotate(0 0 0)" fill="cyan" stroke="black" stroke-width="0.5" />
<polygon points="334.5,10 364,61.0955 393.5,10" transform="rotate(0 0 0)" fill="cyan" stroke="black" stroke-width="0.5" />
<polygon points="393.5,10 423,61.0955 452.5,10" transform="rotate(0 0 0)" fill="cyan" stroke="black" stroke-width="0.5" />
<polygon points="39.5,61.0955 69,112.191 98.5,61.0955" transform="rotate(0 0 0)" fill="cyan" stroke="black" stroke-width="0.5" />
<polygon points="98.5,61.0955 128,112.191 157.5,61.0955" transform="rotate(0 0 0)" fill="cyan" stroke="black" stroke-width="0.5" />
<polygon points="157.5,61.0955 187,112.191 216.5,61.0955" transform="rotate(0 0 0)" fill="cyan" stroke="black" stroke-width="0.5" />
<polygon points="216.5,61.0955 246,112.191 275.5,61.0955" transform="rotate(0 0 0)" fill="cyan" stroke="black" stroke-width="0.5" />
<polygon points="275.5,61.0955 305,112.191 334.5,61.0955" transform="rotate(0 0 0)" fill="cyan" stroke="black" stroke-width="0.5" />
<polygon points="334.5,61.0955 364,112.191 393.5,61.0955" transform="rotate(0 0 0)" fill="cyan" stroke="black" stroke-width="0.5" />
<polygon points="393.5,61.0955 423,112.191 452.5,61.0955" transform="rotate(0 0 0)" fill="cyan" stroke="black" stroke-width="0.5" />
<polygon points="39.5,112.191 69,163.286 98.5,112.191" transform="rotate(0 0 0)" fill="cyan" stroke="black" stroke-width="0.5" />
<polygon points="98.5,112.191 128,163.286 157.5,112.191" transform="rotate(0 0 0)" fill="cyan" stroke="black" stroke-width="0.5" />
<polygon points="157.5,112.191 187,163.286 216.5,112.191" transform="rotate(0 0 0)" fill="cyan" stroke="black" stroke-width="0.5" />
<polygon points="216.5,112.191 246,163.286 275.5,112.191" transform="rotate(0 0 0)" fill="cyan" stroke="black" stroke-width="0.5" />
<polygon points="275.5,112.191 305,163.286 334.5,112.191" transform="rotate(0 0 0)" fill="cyan" stroke="black" stroke-width="0.5" />
<polygon points="334.5,112.191 364,163.286 393.5,112.191" transform="rotate(0 0 0)" fill="cyan" stroke="black" stroke-width="0.5" />
<polygon points="393.5,112.191 423,163.286 452.5,112.191" transform="rotate(0 0 0)" fill="cyan" stroke="black" stroke-width="0.5" />
<polygon points="39.5,163.286 69,214.382 98.5,163.286" transform="rotate(0 0 0)" fill="cyan" stroke="black" stroke-width="0.5" />
<polygon points="98.5,163.286 128,214.382 157.5,163.286" transform="rotate(0 0 0)" fill="cyan" stroke="black" stroke-width="0.5" />
<polygon points="157.5,163.286 187,214.382 216.5,163.286" transform="rotate(0 0 0)" fill="cyan" stroke="black" stroke-width="0.5" />
<polygon points="216.5,163.286 246,214.382 275.5,163.286" transform="rotate(0 0 0)" fill="cyan" stroke="black" stroke-width="0.5" />
<polygon points="275.5,163.286 305,214.382 334.5,163.286" transform="rotate(0 0 0)" fill="cyan" stroke="black" stroke-width="0.5" />
<polygon points="334.5,163.286 364,214.382 393.5,163.286" transform="rotate(0 0 0)" fill="cyan" stroke="black" stroke-width="0.5" />
<polygon points="393.5,163.286 423,214.382 452.5,163.286" transform="rotate(0 0 0)" fill="cyan" stroke="black" stroke-width="0.5" />
<polygon points="39.5,214.382 69,265.477 98.5,214.382" transform="rotate(0 0 0)" fill="cyan" stroke="black" stroke-width="0.5" />
<polygon points="98.5,214.382 128,265.477 157.5,214.382" transform="rotate(0 0 0)" fill="cyan" stroke="black" stroke-width="0.5" />
<polygon points="157.5,214.382 187,265.477 216.5,214.382" transform="rotate(0 0 0)" fill="cyan" stroke="black" stroke-width="0.5" />
<polygon points="216.5,214.382 246,265.477 275.5,214.382" transform="rotate(0 0 0)" fill="cyan" stroke="black" stroke-width="0.5" />
<polygon points="275.5,214.382 305,265.477 334.5,214.382" transform="rotate(0 0 0)" fill="cyan" stroke="black" stroke-width="0.5" />
<polygon points="334.5,214.382 364,265.477 393.5,214.382" transform="rotate(0 0 0)" fill="cyan" stroke="black" stroke-width="0.5" />
<polygon points="393.5,214.382 423,265.477 452.5,214.382" transform="rotate(0 0 0)" fill="cyan" stroke="black" stroke-width="0.5" />
<polygon points="39.5,265.477 69,316.573 98.5,265.477" transform="rotate(0 0 0)" fill="cyan" stroke="black" stroke-width="0.5" />
<polygon points="98.5,265.477 128,316.573 157.5,265.477" transform="rotate(0 0 0)" fill="cyan" stroke="black" stroke-width="0.5" />
<polygon points="157.5,265.477 187,316.573 216.5,265.477" transform="rotate(0 0 0)" fill="cyan" stroke="black" stroke-width="0.5" />
<polygon points="216.5,265.477 246,316.573 275.5,265.477" transform="rotate(0 0 0)" fill="cyan" stroke="black" stroke-width="0.5" />
<polygon points="275.5,265.477 305,316.573 334.5,265.477" transform="rotate(0 0 0)" fill="cyan" stroke="black" stroke-width="0.5" />
<polygon points="334.5,265.477 364,316.573 393.5,265.477" transform="rotate(0 0 0)" fill="cyan" stroke="black" stroke-width="0.5" />
<polygon points="393.5,265.477 423,316.573 452.5,265.477" transform="rotate(0 0 0)" fill="cyan" stroke="black" stroke-width="0.5" />
<polygon points="39.5,316.573 69,367.668 98.5,316.573" transform="rotate(0 0 0)" fill="cyan" stroke="black" stroke-width="0.5" />
<polygon points="98.5,316.573 128,367.668 157.5,316.573" transform="rotate(0 0 0)" fill="cyan" stroke="black" stroke-width="0.5" />
<polygon points="157.5,316.573 187,367.668 216.5,316.573" transform="rotate(0 0 0)" fill="cyan" stroke="black" stroke-width="0.5" />
<polygon points="216.5,316.573 246,367.668 275.5,316.573" transform="rotate(0 0 0)" fill="cyan" stroke="black" stroke-width="0.5" />
<polygon points="275.5,316.573 305,367.668 334.5,316.573" transform="rotate(0 0 0)" fill="cyan" stroke="black" stroke-width="0.5" />
<polygon points="334.5,316.573 364,367.668 393.5,316.573" transform="rotate(0 0 0)" fill="cyan" stroke="black" stroke-width="0.5" />
<polygon points="393.5,316.573 423,367.668 452.5,316.573" transform="rotate(0 0 0)" fill="cyan" stroke="black" stroke-width="0.5" />
<polygon points="39.5,367.668 69,418.764 98.5,367.668" transform="rotate(0 0 0)" fill="cyan" stroke="black" stroke-width="0.5" />
<polygon points="98.5,367.668 128,418.764 157.5,367.668" transform="rotate(0 0 0)" fill="cyan" stroke="black" stroke-width="0.5" />
<polygon points="157.5,367.668 187,418.764 216.5,367.668" transform="rotate(0 0 0)" fill="cyan" stroke="black" stroke-width="0.5" />
<polygon points="216.5,367.668 246,418.764 275.5,367.668" transform="rotate(0 0 0)" fill="cyan" stroke="black" stroke-width="0.5" />
<polygon points="275.5,367.668 305,418.764 334.5,367.668" transform="rotate(0 0 0)" fill="cyan" stroke="black" stroke-width="0.5" />
<polygon points="334.5,367.668 364,418.764 393.5,367.668" transform="rotate(0 0 0)" fill="cyan" stroke="black" stroke-width="0.5" />
<polygon points="393.5,367.668 423,418.764 452.5,367.668" transform="rotate(0 0 0)" fill="cyan" stroke="black" stroke-width="0.5" />
<polygon points="39.5,418.764 69,469.859 98.5,418.764" transform="rotate(0 0 0)" fill="cyan" stroke="black" stroke-width="0.5" />
<polygon points="98.5,418.764 128,469.859 157.5,418.764" transform="rotate(0 0 0)" fill="cyan" stroke="black" stroke-width="0.5" />
<polygon points="157.5,418.764 187,469.859 216.5,418.764" transform="rotate(0 0 0)" fill="cyan" stroke="black" stroke-width="0.5" />
<polygon points="216.5,418.764 246,469.859 275.5,418.764" transform="rotate(0 0 0)" fill="cyan" stroke="black" stroke-width="0.5" />
<polygon points="275.5,418.764 305,469.859 334.5,418.764" transform="rotate(0 0 0)" fill="cyan" stroke="black" stroke-width="0.5" />
<polygon points="334.5,418.764 364,469.859 393.5,418.764" transform="rotate(0 0 0)" fill="cyan" stroke="black" stroke-width="0.5" />
<polygon points="393.5,418.764 423,469.859 452.5,418.764" transform="rotate(0 0 0)" fill="cyan" stroke="black" stroke-width="0.5" />
</svg>
