<svg version="1.1" baseProfile="full" xmlns="http://www.w3.org/2000/svg">
<circle cx="250" cy="250" r="250" transform="rotate(0 0 0)" fill="blue" stroke="black" stroke-width="0.5" />
<circle cx="250" cy="25" r="25" transform="rotate(0 250 250)" fill="magenta" stroke="black" stroke-width="0.5" />
<circle cx="250" cy="25" r="25" transform="rotate(12.8571 250 250)" fill="magenta" stroke="black" stroke-width="0.5" />
<circle cx="250" cy="25" r="25" transform="rotate(25.7143 250 250)" fill="magenta" stroke="black" stroke-width="0.5" />
<circle cx="250" cy="25" r="25" transform="rotate(38.5714 250 250)" fill="magenta" stroke="black" stroke-width="0.5" />
<circle cx="250" cy="25" r="25" transform="rotate(51.4286 250 250)" fill="magenta" stroke="black" stroke-width="0.5" />
<circle cx="250" cy="25" r="25" transform="rotate(64.2857 250 250)" fill="magenta" stroke="black" stroke-width="0.5" />
<circle cx="250" cy="25" r="25" transform="rotate(77.1429 250 250)" fill="magenta" stroke="black" stroke-width="0.5" />
<circle cx="250" cy="25" r="25" transform="rotate(90 250 250)" fill="magenta" stroke="black" stroke-width="0.5" />
<circle cx="250" cy="25" r="25" transform="rotate(102.857 250 250)" fill="magenta" stroke="black" stroke-width="0.5" />
<circle cx="250" cy="25" r="25" transform="rotate(115.714 250 250)" fill="magenta" stroke="black" stroke-width="0.5" />
<circle cx="250" cy="25" r="25" transform="rotate(128.571 250 250)" fill="magenta" stroke="black" stroke-width="0.5" />
<circle cx="250" cy="25" r="25" transform="rotate(141.429 250 250)" fill="magenta" stroke="black" stroke-width="0.5" />
<circle cx="250" cy="25" r="25" transform="rotate(154.286 250 250)" fill="magenta" stroke="black" stroke-width="0.5" />
<circle cx="250" cy="25" r="25" transform="rotate(167.143 250 250)" fill="magenta" stroke="black" stroke-width="0.5" />
<circle cx="250" cy="25" r="25" transform="rotate(180 250 250)" fill="magenta" stroke="black" stroke-width="0.5" />
<circle cx="250" cy="25" r="25" transform="rotate(192.857 250 250)" fill="magenta" stroke="black" stroke-width="0.5" />
<circle cx="250" cy="25" r="25" transform="rotate(205.714 250 250)" fill="magenta" stroke="black" stroke-width="0.5" />
<circle cx="250" cy="25" r="25" transform="rotate(218.571 250 250)" fill="magenta" stroke="black" stroke-width="0.5" />
<circle cx="250" cy="25" r="25" transform="rotate(231.429 250 250)" fill="magenta" stroke="black" stroke-width="0.5" />
<circle cx="250" cy="25" r="25" transform="rotate(244.286 250 250)" fill="magenta" stroke="black" stroke-width="0.5" />
<circle cx="250" cy="25" r="25" transform="rotate(257.143 250 250)" fill="magenta" stroke="black" stroke-width="0.5" />
<circle cx="250" cy="25" r="25" transform="rotate(270 250 250)" fill="magenta" stroke="black" stroke-width="0.5" />
<circle cx="250" cy="25" r="25" transform="rotate(282.857 250 250)" fill="magenta" stroke="black" stroke-width="0.5" />
<circle cx="250" cy="25" r="25" transform="rotate(295.714 250 250)" fill="magenta" stroke="black" stroke-width="0.5" />
<circle cx="250" cy="25" r="25" transform="rotate(308.571 250 250)" fill="magenta" stroke="black" stroke-width="0.5" />
<circle cx="250" cy="25" r="25" transform="rotate(321.429 250 250)" fill="magenta" stroke="black" stroke-width="0.5" />
<circle cx="250" cy="25" r="25" transform="rotate(334.286 250 250)" fill="magenta" stroke="black" stroke-width="0.5" />
<circle cx="250" cy="25" r="25" transform="rotate(347.143 250 250)" fill="magenta" stroke="black" stroke-width="0.5" />
<circle cx="250" cy="75" r="25" transform="rotate(0 250 250)" fill="magenta" stroke="black" stroke-width="0.5" />
<circle cx="250" cy="75" r="25" transform="rotate(17.1429 250 250)" fill="magenta" stroke="black" stroke-width="0.5" />
<circle cx="250" cy="75" r="25" transform="rotate(34.2857 250 250)" fill="magenta" stroke="black" stroke-width="0.5" />
<circle cx="250" cy="75" r="25" transform="rotate(51.4286 250 250)" fill="magenta" stroke="black" stroke-width="0.5" />
<circle cx="250" cy="75" r="25" transform="rotate(68.5714 250 250)" fill="magenta" stroke="black" stroke-width="0.5" />
<circle cx="250" cy="75" r="25" transform="rotate(85.7143 250 250)" fill="magenta" stroke="black" stroke-width="0.5" />
<circle cx="250" cy="75" r="25" transform="rotate(102.857 250 250)" fill="magenta" stroke="black" stroke-width="0.5" />
<circle cx="250" cy="75" r="25" transform="rotate(120 250 250)" fill="magenta" stroke="black" stroke-width="0.5" />
<circle cx="250" cy="75" r="25" transform="rotate(137.143 250 250)" fill="magenta" stroke="black" stroke-width="0.5" />
<circle cx="250" cy="75" r="25" transform="rotate(154.286 250 250)" fill="magenta" stroke="black" stroke-width="0.5" />
<circle cx="250" cy="75" r="25" transform="rotate(171.429 250 250)" fill="magenta" stroke="black" stroke-width="0.5" />
<circle cx="250" cy="75" r="25" transform="rotate(188.571 250 250)" fill="magenta" stroke="black" stroke-width="0.5" />
<circle cx="250" cy="75" r="25" transform="rotate(205.714 250 250)" fill="magenta" stroke="black" stroke-width="0.5" />
<circle cx="250" cy="75" r="25" transform="rotate(222.857 250 250)" fill="magenta" stroke="black" stroke-width="0.5" />
<circle cx="250" cy="75" r="25" transform="rotate(240 250 250)" fill="magenta" stroke="black" stroke-width="0.5" />
<circle cx="250" cy="75" r="25" transform="rotate(257.143 250 250)" fill="magenta" stroke="black" stroke-width="0.5" />
<circle cx="250" cy="75" r="25" transform="rotate(274.286 250 250)" fill="magenta" stroke="black" stroke-width="0.5" />
<circle cx="250" cy="75" r="25" transform="rotate(291.429 250 250)" fill="magenta" stroke="black" stroke-width="0.5" />
<circle cx="250" cy="75" r="25" transform="rotate(308.571 250 250)" fill="magenta" stroke="black" stroke-width="0.5" />
<circle cx="250" cy="75" r="25" transform="rotate(325.714 250 250)" fill="magenta" stroke="black" stroke-width="0.5" />
<circle cx="250" cy="75" r="25" transform="rotate(342.857 250 250)" fill="magenta" stroke="black" stroke-width="0.5" />
<circle cx="250" cy="125" r="25" transform="rotate(0 250 250)" fill="magenta" stroke="black" stroke-width="0.5" />
<circle cx="250" cy="125" r="25" transform="rotate(24 250 250)" fill="magenta" stroke="black" stroke-width="0.5" />
<circle cx="250" cy="125" r="25" transform="rotate(48 250 250)" fill="magenta" stroke="black" stroke-width="0.5" />
<circle cx="250" cy="125" r="25" transform="rotate(72 250 250)" fill="magenta" stroke="black" stroke-width="0.5" />
<circle cx="250" cy="125" r="25" transform="rotate(96 250 250)" fill="magenta" stroke="black" stroke-width="0.5" />
<circle cx="250" cy="125" r="25" transform="rotate(120 250 250)" fill="magenta" stroke="black" stroke-width="0.5" />
<circle cx="250" cy="125" r="25" transform="rotate(144 250 250)" fill="magenta" stroke="black" stroke-width="0.5" />
<circle cx="250" cy="125" r="25" transform="rotate(168 250 250)" fill="magenta" stroke="black" stroke-width="0.5" />
<circle cx="250" cy="125" r="25" transform="rotate(192 250 250)" fill="magenta" stroke="black" stroke-width="0.5" />
<circle cx="250" cy="125" r="25" transform="rotate(216 250 250)" fill="magenta" stroke="black" stroke-width="0.5" />
<circle cx="250" cy="125" r="25" transform="rotate(240 250 250)" fill="magenta" stroke="black" stroke-width="0.5" />
<circle cx="250" cy="125" r="25" transform="rotate(264 250 250)" fill="magenta" stroke="black" stroke-width="0.5" />
<circle cx="250" cy="125" r="25" transform="rotate(288 250 250)" fill="magenta" stroke="black" stroke-width="0.5" />
<circle cx="250" cy="125" r="25" transform="rotate(312 250 250)" fill="magenta" stroke="black" stroke-width="0.5" />
<circle cx="250" cy="125" r="25" transform="rotate(336 250 250)" fill="magenta" stroke="black" stroke-width="0.5" />
<circle cx="250" cy="175" r="25" transform="rotate(0 250 250)" fill="magenta" stroke="black" stroke-width="0.5" />
<circle cx="250" cy="175" r="25" transform="rotate(40 250 250)" fill="magenta" stroke="black" stroke-width="0.5" />
<circle cx="250" cy="175" r="25" transform="rotate(80 250 250)" fill="magenta" stroke="black" stroke-width="0.5" />
<circle cx="250" cy="175" r="25" transform="rotate(120 250 250)" fill="magenta" stroke="black" stroke-width="0.5" />
<circle cx="250" cy="175" r="25" transform="rotate(160 250 250)" fill="magenta" stroke="black" stroke-width="0.5" />
<circle cx="250" cy="175" r="25" transform="rotate(200 250 250)" fill="magenta" stroke="black" stroke-width="0.5" />
<circle cx="250" cy="175" r="25" transform="rotate(240 250 250)" fill="magenta" stroke="black" stroke-width="0.5" />
<circle cx="250" cy="175" r="25" transform="rotate(280 250 250)" fill="magenta" stroke="black" stroke-width="0.5" />
<circle cx="250" cy="175" r="25" transform="rotate(320 250 250)" fill="magenta" stroke="black" stroke-width="0.5" />
<circle cx="250" cy="225" r="25" transform="rotate(0 250 250)" fill="magenta" stroke="black" stroke-width="0.5" />
<circle cx="250" cy="225" r="25" transform="rotate(180 250 250)" fill="magenta" stroke="black" stroke-width="0.5" />
</svg>
