<svg version="1.1" baseProfile="full" xmlns="http://www.w3.org/2000/svg">
<circle cx="250" cy="250" r="250" transform="rotate(0 0 0)" fill="blue" stroke="black" stroke-width="0.5" />
<circle cx="250" cy="50" r="50" transform="rotate(0 250 250)" fill="green" stroke="black" stroke-width="0.5" />
<circle cx="250" cy="50" r="50" transform="rotate(30 250 250)" fill="green" stroke="black" stroke-width="0.5" />
<circle cx="250" cy="50" r="50" transform="rotate(60 250 250)" fill="green" stroke="black" stroke-width="0.5" />
<circle cx="250" cy="50" r="50" transform="rotate(90 250 250)" fill="green" stroke="black" stroke-width="0.5" />
<circle cx="250" cy="50" r="50" transform="rotate(120 250 250)" fill="green" stroke="black" stroke-width="0.5" />
<circle cx="250" cy="50" r="50" transform="rotate(150 250 250)" fill="green" stroke="black" stroke-width="0.5" />
<circle cx="250" cy="50" r="50" transform="rotate(180 250 250)" fill="green" stroke="black" stroke-width="0.5" />
<circle cx="250" cy="50" r="50" transform="rotate(210 250 250)" fill="green" stroke="black" stroke-width="0.5" />
<circle cx="250" cy="50" r="50" transform="rotate(240 250 250)" fill="green" stroke="black" stroke-width="0.5" />
<circle cx="250" cy="50" r="50" transform="rotate(270 250 250)" fill="green" stroke="black" stroke-width="0.5" />
<circle cx="250" cy="50" r="50" transform="rotate(300 250 250)" fill="green" stroke="black" stroke-width="0.5" />
<circle cx="250" cy="50" r="50" transform="rotate(330 250 250)" fill="green" stroke="black" stroke-width="0.5" />
<circle cx="250" cy="150" r="50" transform="rotate(0 250 250)" fill="green" stroke="black" stroke-width="0.5" />
<circle cx="250" cy="150" r="50" transform="rotate(72 250 250)" fill="green" stroke="black" stroke-width="0.5" />
<circle cx="250" cy="150" r="50" transform="rotate(144 250 250)" fill="green" stroke="black" stroke-width="0.5" />
<circle cx="250" cy="150" r="50" transform="rotate(216 250 250)" fill="green" stroke="black" stroke-width="0.5" />
<circle cx="250" cy="150" r="50" transform="rotate(288 250 250)" fill="green" stroke="black" stroke-width="0.5" />
<circle cx="250" cy="250" r="50" transform="rotate(0 0 0)" fill="green" stroke="black" stroke-width="0.5" />
</svg>
