<svg version="1.1" baseProfile="full" xmlns="http://www.w3.org/2000/svg">
<circle cx="300" cy="300" r="300" transform="rotate(0 0 0)" fill="brown" stroke="black" stroke-width="0.5" />
<polygon points="300,300 265,360.622 335,360.622" transform="rotate(0 300 300)" fill="magenta" stroke="black" stroke-width="0.5" />
<polygon points="300,421.244 265,360.622 335,360.622" transform="rotate(0 300 300)" fill="magenta" stroke="black" stroke-width="0.5" />
<polygon points="265,360.622 230,421.244 300,421.244" transform="rotate(0 300 300)" fill="magenta" stroke="black" stroke-width="0.5" />
<polygon points="265,481.865 230,421.244 300,421.244" transform="rotate(0 300 300)" fill="magenta" stroke="black" stroke-width="0.5" />
<polygon points="335,360.622 300,421.244 370,421.244" transform="rotate(0 300 300)" fill="magenta" stroke="black" stroke-width="0.5" />
<polygon points="335,481.865 300,421.244 370,421.244" transform="rotate(0 300 300)" fill="magenta" stroke="black" stroke-width="0.5" />
<polygon points="230,421.244 195,481.865 265,481.865" transform="rotate(0 300 300)" fill="magenta" stroke="black" stroke-width="0.5" />
<polygon points="230,542.487 195,481.865 265,481.865" transform="rotate(0 300 300)" fill="magenta" stroke="black" stroke-width="0.5" />
<polygon points="300,421.244 265,481.865 335,481.865" transform="rotate(0 300 300)" fill="magenta" stroke="black" stroke-width="0.5" />
<polygon points="300,542.487 265,481.865 335,481.865" transform="rotate(0 300 300)" fill="magenta" stroke="black" stroke-width="0.5" />
<polygon points="370,421.244 335,481.865 405,481.865" transform="rotate(0 300 300)" fill="magenta" stroke="black" stroke-width="0.5" />
<polygon points="370,542.487 335,481.865 405,481.865" transform="rotate(0 300 300)" fill="magenta" stroke="black" stroke-width="0.5" />
<polygon points="195,481.865 160,542.487 230,542.487" transform="rotate(0 300 300)" fill="magenta" stroke="black" stroke-width="0.5" />
<polygon points="265,481.865 230,542.487 300,542.487" transform="rotate(0 300 300)" fill="magenta" stroke="black" stroke-width="0.5" />
<polygon points="335,481.865 300,542.487 370,542.487" transform="rotate(0 300 300)" fill="magenta" stroke="black" stroke-width="0.5" />
<polygon points="405,481.865 370,542.487 440,542.487" transform="rotate(0 300 300)" fill="magenta" stroke="black" stroke-width="0.5" />
<polygon points="300,300 265,360.622 335,360.622" transform="rotate(60 300 300)" fill="magenta" stroke="black" stroke-width="0.5" />
<polygon points="300,421.244 265,360.622 335,360.622" transform="rotate(60 300 300)" fill="magenta" stroke="black" stroke-width="0.5" />
<polygon points="265,360.622 230,421.244 300,421.244" transform="rotate(60 300 300)" fill="magenta" stroke="black" stroke-width="0.5" />
<polygon points="265,481.865 230,421.244 300,421.244" transform="rotate(60 300 300)" fill="magenta" stroke="black" stroke-width="0.5" />
<polygon points="335,360.622 300,421.244 370,421.244" transform="rotate(60 300 300)" fill="magenta" stroke="black" stroke-width="0.5" />
<polygon points="335,481.865 300,421.244 370,421.244" transform="rotate(60 300 300)" fill="magenta" stroke="black" stroke-width="0.5" />
<polygon points="230,421.244 195,481.865 265,481.865" transform="rotate(60 300 300)" fill="magenta" stroke="black" stroke-width="0.5" />
<polygon points="230,542.487 195,481.865 265,481.865" transform="rotate(60 300 300)" fill="magenta" stroke="black" stroke-width="0.5" />
<polygon points="300,421.244 265,481.865 335,481.865" transform="rotate(60 300 300)" fill="magenta" stroke="black" stroke-width="0.5" />
<polygon points="300,542.487 265,481.865 335,481.865" transform="rotate(60 300 300)" fill="magenta" stroke="black" stroke-width="0.5" />
<polygon points="370,421.244 335,481.865 405,481.865" transform="rotate(60 300 300)" fill="magenta" stroke="black" stroke-width="0.5" />
<polygon points="370,542.487 335,481.865 405,481.865" transform="rotate(60 300 300)" fill="magenta" stroke="black" stroke-width="0.5" />
<polygon points="195,481.865 160,542.487 230,542.487" transform="rotate(60 300 300)" fill="magenta" stroke="black" stroke-width="0.5" />
<polygon points="265,481.865 230,542.487 300,542.487" transform="rotate(60 300 300)" fill="magenta" stroke="black" stroke-width="0.5" />
<polygon points="335,481.865 300,542.487 370,542.487" transform="rotate(60 300 300)" fill="magenta" stroke="black" stroke-width="0.5" />
<polygon points="405,481.865 370,542.487 440,542.487" transform="rotate(60 300 300)" fill="magenta" stroke="black" stroke-width="0.5" />
<polygon points="300,300 265,360.622 335,360.622" transform="rotate(120 300 300)" fill="magenta" stroke="black" stroke-width="0.5" />
<polygon points="300,421.244 265,360.622 335,360.622" transform="rotate(120 300 300)" fill="magenta" stroke="black" stroke-width="0.5" />
<polygon points="265,360.622 230,421.244 300,421.244" transform="rotate(120 300 300)" fill="magenta" stroke="black" stroke-width="0.5" />
<polygon points="265,481.865 230,421.244 300,421.244" transform="rotate(120 300 300)" fill="magenta" stroke="black" stroke-width="0.5" />
<polygon points="335,360.622 300,421.244 370,421.244" transform="rotate(120 300 300)" fill="magenta" stroke="black" stroke-width="0.5" />
<polygon points="335,481.865 300,421.244 370,421.244" transform="rotate(120 300 300)" fill="magenta" stroke="black" stroke-width="0.5" />
<polygon points="230,421.244 195,481.865 265,481.865" transform="rotate(120 300 300)" fill="magenta" stroke="black" stroke-width="0.5" />
<polygon points="230,542.487 195,481.865 265,481.865" transform="rotate(120 300 300)" fill="magenta" stroke="black" stroke-width="0.5" />
<polygon points="300,421.244 265,481.865 335,481.865" transform="rotate(120 300 300)" fill="magenta" stroke="black" stroke-width="0.5" />
<polygon points="300,542.487 265,481.865 335,481.865" transform="rotate(120 300 300)" fill="magenta" stroke="black" stroke-width="0.5" />
<polygon points="370,421.244 335,481.865 405,481.865" transform="rotate(120 300 300)" fill="magenta" stroke="black" stroke-width="0.5" />
<polygon points="370,542.487 335,481.865 405,481.865" transform="rotate(120 300 300)" fill="magenta" stroke="black" stroke-width="0.5" />
<polygon points="195,481.865 160,542.487 230,542.487" transform="rotate(120 300 300)" fill="magenta" stroke="black" stroke-width="0.5" />
<polygon points="265,481.865 230,542.487 300,542.487" transform="rotate(120 300 300)" fill="magenta" stroke="black" stroke-width="0.5" />
<polygon points="335,481.865 300,542.487 370,542.487" transform="rotate(120 300 300)" fill="magenta" stroke="black" stroke-width="0.5" />
<polygon points="405,481.865 370,542.487 440,542.487" transform="rotate(120 300 300)" fill="magenta" stroke="black" stroke-width="0.5" />
<polygon points="300,300 265,360.622 335,360.622" transform="rotate(180 300 300)" fill="magenta" stroke="black" stroke-width="0.5" />
<polygon points="300,421.244 265,360.622 335,360.622" transform="rotate(180 300 300)" fill="magenta" stroke="black" stroke-width="0.5" />
<polygon points="265,360.622 230,421.244 300,421.244" transform="rotate(180 300 300)" fill="magenta" stroke="black" stroke-width="0.5" />
<polygon points="265,481.865 230,421.244 300,421.244" transform="rotate(180 300 300)" fill="magenta" stroke="black" stroke-width="0.5" />
<polygon points="335,360.622 300,421.244 370,421.244" transform="rotate(180 300 300)" fill="magenta" stroke="black" stroke-width="0.5" />
<polygon points="335,481.865 300,421.244 370,421.244" transform="rotate(180 300 300)" fill="magenta" stroke="black" stroke-width="0.5" />
<polygon points="230,421.244 195,481.865 265,481.865" transform="rotate(180 300 300)" fill="magenta" stroke="black" stroke-width="0.5" />
<polygon points="230,542.487 195,481.865 265,481.865" transform="rotate(180 300 300)" fill="magenta" stroke="black" stroke-width="0.5" />
<polygon points="300,421.244 265,481.865 335,481.865" transform="rotate(180 300 300)" fill="magenta" stroke="black" stroke-width="0.5" />
<polygon points="300,542.487 265,481.865 335,481.865" transform="rotate(180 300 300)" fill="magenta" stroke="black" stroke-width="0.5" />
<polygon points="370,421.244 335,481.865 405,481.865" transform="rotate(180 300 300)" fill="magenta" stroke="black" stroke-width="0.5" />
<polygon points="370,542.487 335,481.865 405,481.865" transform="rotate(180 300 300)" fill="magenta" stroke="black" stroke-width="0.5" />
<polygon points="195,481.865 160,542.487 230,542.487" transform="rotate(180 300 300)" fill="magenta" stroke="black" stroke-width="0.5" />
<polygon points="265,481.865 230,542.487 300,542.487" transform="rotate(180 300 300)" fill="magenta" stroke="black" stroke-width="0.5" />
<polygon points="335,481.865 300,542.487 370,542.487" transform="rotate(180 300 300)" fill="magenta" stroke="black" stroke-width="0.5" />
<polygon points="405,481.865 370,542.487 440,542.487" transform="rotate(180 300 300)" fill="magenta" stroke="black" stroke-width="0.5" />
<polygon points="300,300 265,360.622 335,360.622" transform="rotate(240 300 300)" fill="magenta" stroke="black" stroke-width="0.5" />
<polygon points="300,421.244 265,360.622 335,360.622" transform="rotate(240 300 300)" fill="magenta" stroke="black" stroke-width="0.5" />
<polygon points="265,360.622 230,421.244 300,421.244" transform="rotate(240 300 300)" fill="magenta" stroke="black" stroke-width="0.5" />
<polygon points="265,481.865 230,421.244 300,421.244" transform="rotate(240 300 300)" fill="magenta" stroke="black" stroke-width="0.5" />
<polygon points="335,360.622 300,421.244 370,421.244" transform="rotate(240 300 300)" fill="magenta" stroke="black" stroke-width="0.5" />
<polygon points="335,481.865 300,421.244 370,421.244" transform="rotate(240 300 300)" fill="magenta" stroke="black" stroke-width="0.5" />
<polygon points="230,421.244 195,481.865 265,481.865" transform="rotate(240 300 300)" fill="magenta" stroke="black" stroke-width="0.5" />
<polygon points="230,542.487 195,481.865 265,481.865" transform="rotate(240 300 300)" fill="magenta" stroke="black" stroke-width="0.5" />
<polygon points="300,421.244 265,481.865 335,481.865" transform="rotate(240 300 300)" fill="magenta" stroke="black" stroke-width="0.5" />
<polygon points="300,542.487 265,481.865 335,481.865" transform="rotate(240 300 300)" fill="magenta" stroke="black" stroke-width="0.5" />
<polygon points="370,421.244 335,481.865 405,481.865" transform="rotate(240 300 300)" fill="magenta" stroke="black" stroke-width="0.5" />
<polygon points="370,542.487 335,481.865 405,481.865" transform="rotate(240 300 300)" fill="magenta" stroke="black" stroke-width="0.5" />
<polygon points="195,481.865 160,542.487 230,542.487" transform="rotate(240 300 300)" fill="magenta" stroke="black" stroke-width="0.5" />
<polygon points="265,481.865 230,542.487 300,542.487" transform="rotate(240 300 300)" fill="magenta" stroke="black" stroke-width="0.5" />
<polygon points="335,481.865 300,542.487 370,542.487" transform="rotate(240 300 300)" fill="magenta" stroke="black" stroke-width="0.5" />
<polygon points="405,481.865 370,542.487 440,542.487" transform="rotate(240 300 300)" fill="magenta" stroke="black" stroke-width="0.5" />
<polygon points="300,300 265,360.622 335,360.622" transform="rotate(300 300 300)" fill="magenta" stroke="black" stroke-width="0.5" />
<polygon points="300,421.244 265,360.622 335,360.622" transform="rotate(300 300 300)" fill="magenta" stroke="black" stroke-width="0.5" />
<polygon points="265,360.622 230,421.244 300,421.244" transform="rotate(300 300 300)" fill="magenta" stroke="black" stroke-width="0.5" />
<polygon points="265,481.865 230,421.244 300,421.244" transform="rotate(300 300 300)" fill="magenta" stroke="black" stroke-width="0.5" />
<polygon points="335,360.622 300,421.244 370,421.244" transform="rotate(300 300 300)" fill="magenta" stroke="black" stroke-width="0.5" />
<polygon points="335,481.865 300,421.244 370,421.244" transform="rotate(300 300 300)" fill="magenta" stroke="black" stroke-width="0.5" />
<polygon points="230,421.244 195,481.865 265,481.865" transform="rotate(300 300 300)" fill="magenta" stroke="black" stroke-width="0.5" />
<polygon points="230,542.487 195,481.865 265,481.865" transform="rotate(300 300 300)" fill="magenta" stroke="black" stroke-width="0.5" />
<polygon points="300,421.244 265,481.865 335,481.865" transform="rotate(300 300 300)" fill="magenta" stroke="black" stroke-width="0.5" />
<polygon points="300,542.487 265,481.865 335,481.865" transform="rotate(300 300 300)" fill="magenta" stroke="black" stroke-width="0.5" />
<polygon points="370,421.244 335,481.865 405,481.865" transform="rotate(300 300 300)" fill="magenta" stroke="black" stroke-width="0.5" />
<polygon points="370,542.487 335,481.865 405,481.865" transform="rotate(300 300 300)" fill="magenta" stroke="black" stroke-width="0.5" />
<polygon points="195,481.865 160,542.487 230,542.487" transform="rotate(300 300 300)" fill="magenta" stroke="black" stroke-width="0.5" />
<polygon points="265,481.865 230,542.487 300,542.487" transform="rotate(300 300 300)" fill="magenta" stroke="black" stroke-width="0.5" />
<polygon points="335,481.865 300,542.487 370,542.487" transform="rotate(300 300 300)" fill="magenta" stroke="black" stroke-width="0.5" />
<polygon points="405,481.865 370,542.487 440,542.487" transform="rotate(300 300 300)" fill="magenta" stroke="black" stroke-width="0.5" />
</svg>
