<svg version="1.1" baseProfile="full" xmlns="http://www.w3.org/2000/svg">
<polygon points="200,0 0,346.41 400,346.41" transform="rotate(0 0 0)" fill="red" stroke="black" stroke-width="0.5" />
<polygon points="200,0 180,34.641 220,34.641" transform="rotate(0 0 0)" fill="green" stroke="black" stroke-width="0.5" />
<polygon points="200,69.282 180,34.641 220,34.641" transform="rotate(0 0 0)" fill="green" stroke="black" stroke-width="0.5" />
<polygon points="180,34.641 160,69.282 200,69.282" transform="rotate(0 0 0)" fill="green" stroke="black" stroke-width="0.5" />
<polygon points="180,103.923 160,69.282 200,69.282" transform="rotate(0 0 0)" fill="green" stroke="black" stroke-width="0.5" />
<polygon points="220,34.641 200,69.282 240,69.282" transform="rotate(0 0 0)" fill="green" stroke="black" stroke-width="0.5" />
<polygon points="220,103.923 200,69.282 240,69.282" transform="rotate(0 0 0)" fill="green" stroke="black" stroke-width="0.5" />
<polygon points="160,69.282 140,103.923 180,103.923" transform="rotate(0 0 0)" fill="green" stroke="black" stroke-width="0.5" />
<polygon points="160,138.564 140,103.923 180,103.923" transform="rotate(0 0 0)" fill="green" stroke="black" stroke-width="0.5" />
<polygon points="200,69.282 180,103.923 220,103.923" transform="rotate(0 0 0)" fill="green" stroke="black" stroke-width="0.5" />
<polygon points="200,138.564 180,103.923 220,103.923" transform="rotate(0 0 0)" fill="green" stroke="black" stroke-width="0.5" />
<polygon points="240,69.282 220,103.923 260,103.923" transform="rotate(0 0 0)" fill="green" stroke="black" stroke-width="0.5" />
<polygon points="240,138.564 220,103.923 260,103.923" transform="rotate(0 0 0)" fill="green" stroke="black" stroke-width="0.5" />
<polygon points="140,103.923 120,138.564 160,138.564" transform="rotate(0 0 0)" fill="green" stroke="black" stroke-width="0.5" />
<polygon points="140,173.205 120,138.564 160,138.564" transform="rotate(0 0 0)" fill="green" stroke="black" stroke-width="0.5" />
<polygon points="180,103.923 160,138.564 200,138.564" transform="rotate(0 0 0)" fill="green" stroke="black" stroke-width="0.5" />
<polygon points="180,173.205 160,138.564 200,138.564" transform="rotate(0 0 0)" fill="green" stroke="black" stroke-width="0.5" />
<polygon points="220,103.923 200,138.564 240,138.564" transform="rotate(0 0 0)" fill="green" stroke="black" stroke-width="0.5" />
<polygon points="220,173.205 200,138.564 240,138.564" transform="rotate(0 0 0)" fill="green" stroke="black" stroke-width="0.5" />
<polygon points="260,103.923 240,138.564 280,138.564" transform="rotate(0 0 0)" fill="green" stroke="black" stroke-width="0.5" />
<polygon points="260,173.205 240,138.564 280,138.564" transform="rotate(0 0 0)" fill="green" stroke="black" stroke-width="0.5" />
<polygon points="120,138.564 100,173.205 140,173.205" transform="rotate(0 0 0)" fill="green" stroke="black" stroke-width="0.5" />
<polygon points="120,207.846 100,173.205 140,173.205" transform="rotate(0 0 0)" fill="green" stroke="black" stroke-width="0.5" />
<polygon points="160,138.564 140,173.205 180,173.205" transform="rotate(0 0 0)" fill="green" stroke="black" stroke-width="0.5" />
<polygon points="160,207.846 140,173.205 180,173.205" transform="rotate(0 0 0)" fill="green" stroke="black" stroke-width="0.5" />
<polygon points="200,138.564 180,173.205 220,173.205" transform="rotate(0 0 0)" fill="green" stroke="black" stroke-width="0.5" />
<polygon points="200,207.846 180,173.205 220,173.205" transform="rotate(0 0 0)" fill="green" stroke="black" stroke-width="0.5" />
<polygon points="240,138.564 220,173.205 260,173.205" transform="rotate(0 0 0)" fill="green" stroke="black" stroke-width="0.5" />
<polygon points="240,207.846 220,173.205 260,173.205" transform="rotate(0 0 0)" fill="green" stroke="black" stroke-width="0.5" />
<polygon points="280,138.564 260,173.205 300,173.205" transform="rotate(0 0 0)" fill="green" stroke="black" stroke-width="0.5" />
<polygon points="280,207.846 260,173.205 300,173.205" transform="rotate(0 0 0)" fill="green" stroke="black" stroke-width="0.5" />
<polygon points="100,173.205 80,207.846 120,207.846" transform="rotate(0 0 0)" fill="green" stroke="black" stroke-width="0.5" />
<polygon points="100,242.487 80,207.846 120,207.846" transform="rotate(0 0 0)" fill="green" stroke="black" stroke-width="0.5" />
<polygon points="140,173.205 120,207.846 160,207.846" transform="rotate(0 0 0)" fill="green" stroke="black" stroke-width="0.5" />
<polygon points="140,242.487 120,207.846 160,207.846" transform="rotate(0 0 0)" fill="green" stroke="black" stroke-width="0.5" />
<polygon points="180,173.205 160,207.846 200,207.846" transform="rotate(0 0 0)" fill="green" stroke="black" stroke-width="0.5" />
<polygon points="180,242.487 160,207.846 200,207.846" transform="rotate(0 0 0)" fill="green" stroke="black" stroke-width="0.5" />
<polygon points="220,173.205 200,207.846 240,207.846" transform="rotate(0 0 0)" fill="green" stroke="black" stroke-width="0.5" />
<polygon points="220,242.487 200,207.846 240,207.846" transform="rotate(0 0 0)" fill="green" stroke="black" stroke-width="0.5" />
<polygon points="260,173.205 240,207.846 280,207.846" transform="rotate(0 0 0)" fill="green" stroke="black" stroke-width="0.5" />
<polygon points="260,242.487 240,207.846 280,207.846" transform="rotate(0 0 0)" fill="green" stroke="black" stroke-width="0.5" />
<polygon points="300,173.205 280,207.846 320,207.846" transform="rotate(0 0 0)" fill="green" stroke="black" stroke-width="0.5" />
<polygon points="300,242.487 280,207.846 320,207.846" transform="rotate(0 0 0)" fill="green" stroke="black" stroke-width="0.5" />
<polygon points="80,207.846 60,242.487 100,242.487" transform="rotate(0 0 0)" fill="green" stroke="black" stroke-width="0.5" />
<polygon points="80,277.128 60,242.487 100,242.487" transform="rotate(0 0 0)" fill="green" stroke="black" stroke-width="0.5" />
<polygon points="120,207.846 100,242.487 140,242.487" transform="rotate(0 0 0)" fill="green" stroke="black" stroke-width="0.5" />
<polygon points="120,277.128 100,242.487 140,242.487" transform="rotate(0 0 0)" fill="green" stroke="black" stroke-width="0.5" />
<polygon points="160,207.846 140,242.487 180,242.487" transform="rotate(0 0 0)" fill="green" stroke="black" stroke-width="0.5" />
<polygon points="160,277.128 140,242.487 180,242.487" transform="rotate(0 0 0)" fill="green" stroke="black" stroke-width="0.5" />
<polygon points="200,207.846 180,242.487 220,242.487" transform="rotate(0 0 0)" fill="green" stroke="black" stroke-width="0.5" />
<polygon points="200,277.128 180,242.487 220,242.487" transform="rotate(0 0 0)" fill="green" stroke="black" stroke-width="0.5" />
<polygon points="240,207.846 220,242.487 260,242.487" transform="rotate(0 0 0)" fill="green" stroke="black" stroke-width="0.5" />
<polygon points="240,277.128 220,242.487 260,242.487" transform="rotate(0 0 0)" fill="green" stroke="black" stroke-width="0.5" />
<polygon points="280,207.846 260,242.487 300,242.487" transform="rotate(0 0 0)" fill="green" stroke="black" stroke-width="0.5" />
<polygon points="280,277.128 260,242.487 300,242.487" transform="rotate(0 0 0)" fill="green" stroke="black" stroke-width="0.5" />
<polygon points="320,207.846 300,242.487 340,242.487" transform="rotate(0 0 0)" fill="green" stroke="black" stroke-width="0.5" />
<polygon points="320,277.128 300,242.487 340,242.487" transform="rotate(0 0 0)" fill="green" stroke="black" stroke-width="0.5" />
<polygon points="60,242.487 40,277.128 80,277.128" transform="rotate(0 0 0)" fill="green" stroke="black" stroke-width="0.5" />
<polygon points="60,311.769 40,277.128 80,277.128" transform="rotate(0 0 0)" fill="green" stroke="black" stroke-width="0.5" />
<polygon points="100,242.487 80,277.128 120,277.128" transform="rotate(0 0 0)" fill="green" stroke="black" stroke-width="0.5" />
<polygon points="100,311.769 80,277.128 120,277.128" transform="rotate(0 0 0)" fill="green" stroke="black" stroke-width="0.5" />
<polygon points="140,242.487 120,277.128 160,277.128" transform="rotate(0 0 0)" fill="green" stroke="black" stroke-width="0.5" />
<polygon points="140,311.769 120,277.128 160,277.128" transform="rotate(0 0 0)" fill="green" stroke="black" stroke-width="0.5" />
<polygon points="180,242.487 160,277.128 200,277.128" transform="rotate(0 0 0)" fill="green" stroke="black" stroke-width="0.5" />
<polygon points="180,311.769 160,277.128 200,277.128" transform="rotate(0 0 0)" fill="green" stroke="black" stroke-width="0.5" />
<polygon points="220,242.487 200,277.128 240,277.128" transform="rotate(0 0 0)" fill="green" stroke="black" stroke-width="0.5" />
<polygon points="220,311.769 200,277.128 240,277.128" transform="rotate(0 0 0)" fill="green" stroke="black" stroke-width="0.5" />
<polygon points="260,242.487 240,277.128 280,277.128" transform="rotate(0 0 0)" fill="green" stroke="black" stroke-width="0.5" />
<polygon points="260,311.769 240,277.128 280,277.128" transform="rotate(0 0 0)" fill="green" stroke="black" stroke-width="0.5" />
<polygon points="300,242.487 280,277.128 320,277.128" transform="rotate(0 0 0)" fill="green" stroke="black" stroke-width="0.5" />
<polygon points="300,311.769 280,277.128 320,277.128" transform="rotate(0 0 0)" fill="green" stroke="black" stroke-width="0.5" />
<polygon points="340,242.487 320,277.128 360,277.128" transform="rotate(0 0 0)" fill="green" stroke="black" stroke-width="0.5" />
<polygon points="340,311.769 320,277.128 360,277.128" transform="rotate(0 0 0)" fill="green" stroke="black" stroke-width="0.5" />
<polygon points="40,277.128 20,311.769 60,311.769" transform="rotate(0 0 0)" fill="green" stroke="black" stroke-width="0.5" />
<polygon points="40,346.41 20,311.769 60,311.769" transform="rotate(0 0 0)" fill="green" stroke="black" stroke-width="0.5" />
<polygon points="80,277.128 60,311.769 100,311.769" transform="rotate(0 0 0)" fill="green" stroke="black" stroke-width="0.5" />
<polygon points="80,346.41 60,311.769 100,311.769" transform="rotate(0 0 0)" fill="green" stroke="black" stroke-width="0.5" />
<polygon points="120,277.128 100,311.769 140,311.769" transform="rotate(0 0 0)" fill="green" stroke="black" stroke-width="0.5" />
<polygon points="120,346.41 100,311.769 140,311.769" transform="rotate(0 0 0)" fill="green" stroke="black" stroke-width="0.5" />
<polygon points="160,277.128 140,311.769 180,311.769" transform="rotate(0 0 0)" fill="green" stroke="black" stroke-width="0.5" />
<polygon points="160,346.41 140,311.769 180,311.769" transform="rotate(0 0 0)" fill="green" stroke="black" stroke-width="0.5" />
<polygon points="200,277.128 180,311.769 220,311.769" transform="rotate(0 0 0)" fill="green" stroke="black" stroke-width="0.5" />
<polygon points="200,346.41 180,311.769 220,311.769" transform="rotate(0 0 0)" fill="green" stroke="black" stroke-width="0.5" />
<polygon points="240,277.128 220,311.769 260,311.769" transform="rotate(0 0 0)" fill="green" stroke="black" stroke-width="0.5" />
<polygon points="240,346.41 220,311.769 260,311.769" transform="rotate(0 0 0)" fill="green" stroke="black" stroke-width="0.5" />
<polygon points="280,277.128 260,311.769 300,311.769" transform="rotate(0 0 0)" fill="green" stroke="black" stroke-width="0.5" />
<polygon points="280,346.41 260,311.769 300,311.769" transform="rotate(0 0 0)" fill="green" stroke="black" stroke-width="0.5" />
<polygon points="320,277.128 300,311.769 340,311.769" transform="rotate(0 0 0)" fill="green" stroke="black" stroke-width="0.5" />
<polygon points="320,346.41 300,311.769 340,311.769" transform="rotate(0 0 0)" fill="green" stroke="black" stroke-width="0.5" />
<polygon points="360,277.128 340,311.769 380,311.769" transform="rotate(0 0 0)" fill="green" stroke="black" stroke-width="0.5" />
<polygon points="360,346.41 340,311.769 380,311.769" transform="rotate(0 0 0)" fill="green" stroke="black" stroke-width="0.5" />
<polygon points="20,311.769 0,346.41 40,346.41" transform="rotate(0 0 0)" fill="green" stroke="black" stroke-width="0.5" />
<polygon points="60,311.769 40,346.41 80,346.41" transform="rotate(0 0 0)" fill="green" stroke="black" stroke-width="0.5" />
<polygon points="100,311.769 80,346.41 120,346.41" transform="rotate(0 0 0)" fill="green" stroke="black" stroke-width="0.5" />
<polygon points="140,311.769 120,346.41 160,346.41" transform="rotate(0 0 0)" fill="green" stroke="black" stroke-width="0.5" />
<polygon points="180,311.769 160,346.41 200,346.41" transform="rotate(0 0 0)" fill="green" stroke="black" stroke-width="0.5" />
<polygon points="220,311.769 200,346.41 240,346.41" transform="rotate(0 0 0)" fill="green" stroke="black" stroke-width="0.5" />
<polygon points="260,311.769 240,346.41 280,346.41" transform="rotate(0 0 0)" fill="green" stroke="black" stroke-width="0.5" />
<polygon points="300,311.769 280,346.41 320,346.41" transform="rotate(0 0 0)" fill="green" stroke="black" stroke-width="0.5" />
<polygon points="340,311.769 320,346.41 360,346.41" transform="rotate(0 0 0)" fill="green" stroke="black" stroke-width="0.5" />
<polygon points="380,311.769 360,346.41 400,346.41" transform="rotate(0 0 0)" fill="green" stroke="black" stroke-width="0.5" />
</svg>
