<svg version="1.1" baseProfile="full" xmlns="http://www.w3.org/2000/svg">
<polygon points="300,0 0,519.615 600,519.615" transform="rotate(0 0 0)" fill="blue" stroke="black" stroke-width="0.5" />
<circle cx="300" cy="60" r="30" transform="rotate(0 0 0)" fill="cyan" stroke="black" stroke-width="0.5" />
<circle cx="270" cy="111.962" r="30" transform="rotate(0 0 0)" fill="cyan" stroke="black" stroke-width="0.5" />
<circle cx="330" cy="111.962" r="30" transform="rotate(0 0 0)" fill="cyan" stroke="black" stroke-width="0.5" />
<circle cx="300" cy="163.923" r="30" transform="rotate(0 0 0)" fill="cyan" stroke="black" stroke-width="0.5" />
<circle cx="240" cy="163.923" r="30" transform="rotate(0 0 0)" fill="cyan" stroke="black" stroke-width="0.5" />
<circle cx="360" cy="163.923" r="30" transform="rotate(0 0 0)" fill="cyan" stroke="black" stroke-width="0.5" />
<circle cx="270" cy="215.885" r="30" transform="rotate(0 0 0)" fill="cyan" stroke="black" stroke-width="0.5" />
<circle cx="330" cy="215.885" r="30" transform="rotate(0 0 0)" fill="cyan" stroke="black" stroke-width="0.5" />
<circle cx="210" cy="215.885" r="30" transform="rotate(0 0 0)" fill="cyan" stroke="black" stroke-width="0.5" />
<circle cx="390" cy="215.885" r="30" transform="rotate(0 0 0)" fill="cyan" stroke="black" stroke-width="0.5" />
<circle cx="300" cy="267.846" r="30" transform="rotate(0 0 0)" fill="cyan" stroke="black" stroke-width="0.5" />
<circle cx="240" cy="267.846" r="30" transform="rotate(0 0 0)" fill="cyan" stroke="black" stroke-width="0.5" />
<circle cx="180" cy="267.846" r="30" transform="rotate(0 0 0)" fill="cyan" stroke="black" stroke-width="0.5" />
<circle cx="360" cy="267.846" r="30" transform="rotate(0 0 0)" fill="cyan" stroke="black" stroke-width="0.5" />
<circle cx="420" cy="267.846" r="30" transform="rotate(0 0 0)" fill="cyan" stroke="black" stroke-width="0.5" />
<circle cx="270" cy="319.808" r="30" transform="rotate(0 0 0)" fill="cyan" stroke="black" stroke-width="0.5" />
<circle cx="330" cy="319.808" r="30" transform="rotate(0 0 0)" fill="cyan" stroke="black" stroke-width="0.5" />
<circle cx="210" cy="319.808" r="30" transform="rotate(0 0 0)" fill="cyan" stroke="black" stroke-width="0.5" />
<circle cx="390" cy="319.808" r="30" transform="rotate(0 0 0)" fill="cyan" stroke="black" stroke-width="0.5" />
<circle cx="150" cy="319.808" r="30" transform="rotate(0 0 0)" fill="cyan" stroke="black" stroke-width="0.5" />
<circle cx="450" cy="319.808" r="30" transform="rotate(0 0 0)" fill="cyan" stroke="black" stroke-width="0.5" />
<circle cx="300" cy="371.769" r="30" transform="rotate(0 0 0)" fill="cyan" stroke="black" stroke-width="0.5" />
<circle cx="240" cy="371.769" r="30" transform="rotate(0 0 0)" fill="cyan" stroke="black" stroke-width="0.5" />
<circle cx="180" cy="371.769" r="30" transform="rotate(0 0 0)" fill="cyan" stroke="black" stroke-width="0.5" />
<circle cx="120" cy="371.769" r="30" transform="rotate(0 0 0)" fill="cyan" stroke="black" stroke-width="0.5" />
<circle cx="360" cy="371.769" r="30" transform="rotate(0 0 0)" fill="cyan" stroke="black" stroke-width="0.5" />
<circle cx="420" cy="371.769" r="30" transform="rotate(0 0 0)" fill="cyan" stroke="black" stroke-width="0.5" />
<circle cx="480" cy="371.769" r="30" transform="rotate(0 0 0)" fill="cyan" stroke="black" stroke-width="0.5" />
<circle cx="270" cy="423.731" r="30" transform="rotate(0 0 0)" fill="cyan" stroke="black" stroke-width="0.5" />
<circle cx="330" cy="423.731" r="30" transform="rotate(0 0 0)" fill="cyan" stroke="black" stroke-width="0.5" />
<circle cx="210" cy="423.731" r="30" transform="rotate(0 0 0)" fill="cyan" stroke="black" stroke-width="0.5" />
<circle cx="390" cy="423.731" r="30" transform="rotate(0 0 0)" fill="cyan" stroke="black" stroke-width="0.5" />
<circle cx="150" cy="423.731" r="30" transform="rotate(0 0 0)" fill="cyan" stroke="black" stroke-width="0.5" />
<circle cx="450" cy="423.731" r="30" transform="rotate(0 0 0)" fill="cyan" stroke="black" stroke-width="0.5" />
<circle cx="90" cy="423.731" r="30" transform="rotate(0 0 0)" fill="cyan" stroke="black" stroke-width="0.5" />
<circle cx="510" cy="423.731" r="30" transform="rotate(0 0 0)" fill="cyan" stroke="black" stroke-width="0.5" />
<circle cx="300" cy="475.692" r="30" transform="rotate(0 0 0)" fill="cyan" stroke="black" stroke-width="0.5" />
<circle cx="240" cy="475.692" r="30" transform="rotate(0 0 0)" fill="cyan" stroke="black" stroke-width="0.5" />
<circle cx="180" cy="475.692" r="30" transform="rotate(0 0 0)" fill="cyan" stroke="black" stroke-width="0.5" />
<circle cx="120" cy="475.692" r="30" transform="rotate(0 0 0)" fill="cyan" stroke="black" stroke-width="0.5" />
<circle cx="60" cy="475.692" r="30" transform="rotate(0 0 0)" fill="cyan" stroke="black" stroke-width="0.5" />
<circle cx="360" cy="475.692" r="30" transform="rotate(0 0 0)" fill="cyan" stroke="black" stroke-width="0.5" />
<circle cx="420" cy="475.692" r="30" transform="rotate(0 0 0)" fill="cyan" stroke="black" stroke-width="0.5" />
<circle cx="480" cy="475.692" r="30" transform="rotate(0 0 0)" fill="cyan" stroke="black" stroke-width="0.5" />
<circle cx="540" cy="475.692" r="30" transform="rotate(0 0 0)" fill="cyan" stroke="black" stroke-width="0.5" />
</svg>
