<svg version="1.1" baseProfile="full" xmlns="http://www.w3.org/2000/svg">
<circle cx="500" cy="500" r="500" transform="rotate(0 0 0)" fill="pink" stroke="black" stroke-width="0.5" />
<polygon points="500,500 465,560.622 535,560.622" transform="rotate(0 500 500)" fill="magenta" stroke="black" stroke-width="0.5" />
<polygon points="500,621.244 465,560.622 535,560.622" transform="rotate(0 500 500)" fill="magenta" stroke="black" stroke-width="0.5" />
<polygon points="465,560.622 430,621.244 500,621.244" transform="rotate(0 500 500)" fill="magenta" stroke="black" stroke-width="0.5" />
<polygon points="465,681.865 430,621.244 500,621.244" transform="rotate(0 500 500)" fill="magenta" stroke="black" stroke-width="0.5" />
<polygon points="535,560.622 500,621.244 570,621.244" transform="rotate(0 500 500)" fill="magenta" stroke="black" stroke-width="0.5" />
<polygon points="535,681.865 500,621.244 570,621.244" transform="rotate(0 500 500)" fill="magenta" stroke="black" stroke-width="0.5" />
<polygon points="430,621.244 395,681.865 465,681.865" transform="rotate(0 500 500)" fill="magenta" stroke="black" stroke-width="0.5" />
<polygon points="430,742.487 395,681.865 465,681.865" transform="rotate(0 500 500)" fill="magenta" stroke="black" stroke-width="0.5" />
<polygon points="500,621.244 465,681.865 535,681.865" transform="rotate(0 500 500)" fill="magenta" stroke="black" stroke-width="0.5" />
<polygon points="500,742.487 465,681.865 535,681.865" transform="rotate(0 500 500)" fill="magenta" stroke="black" stroke-width="0.5" />
<polygon points="570,621.244 535,681.865 605,681.865" transform="rotate(0 500 500)" fill="magenta" stroke="black" stroke-width="0.5" />
<polygon points="570,742.487 535,681.865 605,681.865" transform="rotate(0 500 500)" fill="magenta" stroke="black" stroke-width="0.5" />
<polygon points="395,681.865 360,742.487 430,742.487" transform="rotate(0 500 500)" fill="magenta" stroke="black" stroke-width="0.5" />
<polygon points="395,803.109 360,742.487 430,742.487" transform="rotate(0 500 500)" fill="magenta" stroke="black" stroke-width="0.5" />
<polygon points="465,681.865 430,742.487 500,742.487" transform="rotate(0 500 500)" fill="magenta" stroke="black" stroke-width="0.5" />
<polygon points="465,803.109 430,742.487 500,742.487" transform="rotate(0 500 500)" fill="magenta" stroke="black" stroke-width="0.5" />
<polygon points="535,681.865 500,742.487 570,742.487" transform="rotate(0 500 500)" fill="magenta" stroke="black" stroke-width="0.5" />
<polygon points="535,803.109 500,742.487 570,742.487" transform="rotate(0 500 500)" fill="magenta" stroke="black" stroke-width="0.5" />
<polygon points="605,681.865 570,742.487 640,742.487" transform="rotate(0 500 500)" fill="magenta" stroke="black" stroke-width="0.5" />
<polygon points="605,803.109 570,742.487 640,742.487" transform="rotate(0 500 500)" fill="magenta" stroke="black" stroke-width="0.5" />
<polygon points="360,742.487 325,803.109 395,803.109" transform="rotate(0 500 500)" fill="magenta" stroke="black" stroke-width="0.5" />
<polygon points="360,863.731 325,803.109 395,803.109" transform="rotate(0 500 500)" fill="magenta" stroke="black" stroke-width="0.5" />
<polygon points="430,742.487 395,803.109 465,803.109" transform="rotate(0 500 500)" fill="magenta" stroke="black" stroke-width="0.5" />
<polygon points="430,863.731 395,803.109 465,803.109" transform="rotate(0 500 500)" fill="magenta" stroke="black" stroke-width="0.5" />
<polygon points="500,742.487 465,803.109 535,803.109" transform="rotate(0 500 500)" fill="magenta" stroke="black" stroke-width="0.5" />
<polygon points="500,863.731 465,803.109 535,803.109" transform="rotate(0 500 500)" fill="magenta" stroke="black" stroke-width="0.5" />
<polygon points="570,742.487 535,803.109 605,803.109" transform="rotate(0 500 500)" fill="magenta" stroke="black" stroke-width="0.5" />
<polygon points="570,863.731 535,803.109 605,803.109" transform="rotate(0 500 500)" fill="magenta" stroke="black" stroke-width="0.5" />
<polygon points="640,742.487 605,803.109 675,803.109" transform="rotate(0 500 500)" fill="magenta" stroke="black" stroke-width="0.5" />
<polygon points="640,863.731 605,803.109 675,803.109" transform="rotate(0 500 500)" fill="magenta" stroke="black" stroke-width="0.5" />
<polygon points="325,803.109 290,863.731 360,863.731" transform="rotate(0 500 500)" fill="magenta" stroke="black" stroke-width="0.5" />
<polygon points="325,924.352 290,863.731 360,863.731" transform="rotate(0 500 500)" fill="magenta" stroke="black" stroke-width="0.5" />
<polygon points="395,803.109 360,863.731 430,863.731" transform="rotate(0 500 500)" fill="magenta" stroke="black" stroke-width="0.5" />
<polygon points="395,924.352 360,863.731 430,863.731" transform="rotate(0 500 500)" fill="magenta" stroke="black" stroke-width="0.5" />
<polygon points="465,803.109 430,863.731 500,863.731" transform="rotate(0 500 500)" fill="magenta" stroke="black" stroke-width="0.5" />
<polygon points="465,924.352 430,863.731 500,863.731" transform="rotate(0 500 500)" fill="magenta" stroke="black" stroke-width="0.5" />
<polygon points="535,803.109 500,863.731 570,863.731" transform="rotate(0 500 500)" fill="magenta" stroke="black" stroke-width="0.5" />
<polygon points="535,924.352 500,863.731 570,863.731" transform="rotate(0 500 500)" fill="magenta" stroke="black" stroke-width="0.5" />
<polygon points="605,803.109 570,863.731 640,863.731" transform="rotate(0 500 500)" fill="magenta" stroke="black" stroke-width="0.5" />
<polygon points="605,924.352 570,863.731 640,863.731" transform="rotate(0 500 500)" fill="magenta" stroke="black" stroke-width="0.5" />
<polygon points="675,803.109 640,863.731 710,863.731" transform="rotate(0 500 500)" fill="magenta" stroke="black" stroke-width="0.5" />
<polygon points="675,924.352 640,863.731 710,863.731" transform="rotate(0 500 500)" fill="magenta" stroke="black" stroke-width="0.5" />
<polygon points="290,863.731 255,924.352 325,924.352" transform="rotate(0 500 500)" fill="magenta" stroke="black" stroke-width="0.5" />
<polygon points="360,863.731 325,924.352 395,924.352" transform="rotate(0 500 500)" fill="magenta" stroke="black" stroke-width="0.5" />
<polygon points="430,863.731 395,924.352 465,924.352" transform="rotate(0 500 500)" fill="magenta" stroke="black" stroke-width="0.5" />
<polygon points="500,863.731 465,924.352 535,924.352" transform="rotate(0 500 500)" fill="magenta" stroke="black" stroke-width="0.5" />
<polygon points="570,863.731 535,924.352 605,924.352" transform="rotate(0 500 500)" fill="magenta" stroke="black" stroke-width="0.5" />
<polygon points="640,863.731 605,924.352 675,924.352" transform="rotate(0 500 500)" fill="magenta" stroke="black" stroke-width="0.5" />
<polygon points="710,863.731 675,924.352 745,924.352" transform="rotate(0 500 500)" fill="magenta" stroke="black" stroke-width="0.5" />
<polygon points="470,924.352 435,984.974 505,984.974" transform="rotate(0 500 500)" fill="magenta" stroke="black" stroke-width="0.5" />
<polygon points="540,924.352 505,984.974 470,924.352" transform="rotate(0 500 500)" fill="magenta" stroke="black" stroke-width="0.5" />
<polygon points="470,924.352 435,984.974 400,924.352" transform="rotate(0 500 500)" fill="magenta" stroke="black" stroke-width="0.5" />
<polygon points="500,500 465,560.622 535,560.622" transform="rotate(60 500 500)" fill="magenta" stroke="black" stroke-width="0.5" />
<polygon points="500,621.244 465,560.622 535,560.622" transform="rotate(60 500 500)" fill="magenta" stroke="black" stroke-width="0.5" />
<polygon points="465,560.622 430,621.244 500,621.244" transform="rotate(60 500 500)" fill="magenta" stroke="black" stroke-width="0.5" />
<polygon points="465,681.865 430,621.244 500,621.244" transform="rotate(60 500 500)" fill="magenta" stroke="black" stroke-width="0.5" />
<polygon points="535,560.622 500,621.244 570,621.244" transform="rotate(60 500 500)" fill="magenta" stroke="black" stroke-width="0.5" />
<polygon points="535,681.865 500,621.244 570,621.244" transform="rotate(60 500 500)" fill="magenta" stroke="black" stroke-width="0.5" />
<polygon points="430,621.244 395,681.865 465,681.865" transform="rotate(60 500 500)" fill="magenta" stroke="black" stroke-width="0.5" />
<polygon points="430,742.487 395,681.865 465,681.865" transform="rotate(60 500 500)" fill="magenta" stroke="black" stroke-width="0.5" />
<polygon points="500,621.244 465,681.865 535,681.865" transform="rotate(60 500 500)" fill="magenta" stroke="black" stroke-width="0.5" />
<polygon points="500,742.487 465,681.865 535,681.865" transform="rotate(60 500 500)" fill="magenta" stroke="black" stroke-width="0.5" />
<polygon points="570,621.244 535,681.865 605,681.865" transform="rotate(60 500 500)" fill="magenta" stroke="black" stroke-width="0.5" />
<polygon points="570,742.487 535,681.865 605,681.865" transform="rotate(60 500 500)" fill="magenta" stroke="black" stroke-width="0.5" />
<polygon points="395,681.865 360,742.487 430,742.487" transform="rotate(60 500 500)" fill="magenta" stroke="black" stroke-width="0.5" />
<polygon points="395,803.109 360,742.487 430,742.487" transform="rotate(60 500 500)" fill="magenta" stroke="black" stroke-width="0.5" />
<polygon points="465,681.865 430,742.487 500,742.487" transform="rotate(60 500 500)" fill="magenta" stroke="black" stroke-width="0.5" />
<polygon points="465,803.109 430,742.487 500,742.487" transform="rotate(60 500 500)" fill="magenta" stroke="black" stroke-width="0.5" />
<polygon points="535,681.865 500,742.487 570,742.487" transform="rotate(60 500 500)" fill="magenta" stroke="black" stroke-width="0.5" />
<polygon points="535,803.109 500,742.487 570,742.487" transform="rotate(60 500 500)" fill="magenta" stroke="black" stroke-width="0.5" />
<polygon points="605,681.865 570,742.487 640,742.487" transform="rotate(60 500 500)" fill="magenta" stroke="black" stroke-width="0.5" />
<polygon points="605,803.109 570,742.487 640,742.487" transform="rotate(60 500 500)" fill="magenta" stroke="black" stroke-width="0.5" />
<polygon points="360,742.487 325,803.109 395,803.109" transform="rotate(60 500 500)" fill="magenta" stroke="black" stroke-width="0.5" />
<polygon points="360,863.731 325,803.109 395,803.109" transform="rotate(60 500 500)" fill="magenta" stroke="black" stroke-width="0.5" />
<polygon points="430,742.487 395,803.109 465,803.109" transform="rotate(60 500 500)" fill="magenta" stroke="black" stroke-width="0.5" />
<polygon points="430,863.731 395,803.109 465,803.109" transform="rotate(60 500 500)" fill="magenta" stroke="black" stroke-width="0.5" />
<polygon points="500,742.487 465,803.109 535,803.109" transform="rotate(60 500 500)" fill="magenta" stroke="black" stroke-width="0.5" />
<polygon points="500,863.731 465,803.109 535,803.109" transform="rotate(60 500 500)" fill="magenta" stroke="black" stroke-width="0.5" />
<polygon points="570,742.487 535,803.109 605,803.109" transform="rotate(60 500 500)" fill="magenta" stroke="black" stroke-width="0.5" />
<polygon points="570,863.731 535,803.109 605,803.109" transform="rotate(60 500 500)" fill="magenta" stroke="black" stroke-width="0.5" />
<polygon points="640,742.487 605,803.109 675,803.109" transform="rotate(60 500 500)" fill="magenta" stroke="black" stroke-width="0.5" />
<polygon points="640,863.731 605,803.109 675,803.109" transform="rotate(60 500 500)" fill="magenta" stroke="black" stroke-width="0.5" />
<polygon points="325,803.109 290,863.731 360,863.731" transform="rotate(60 500 500)" fill="magenta" stroke="black" stroke-width="0.5" />
<polygon points="325,924.352 290,863.731 360,863.731" transform="rotate(60 500 500)" fill="magenta" stroke="black" stroke-width="0.5" />
<polygon points="395,803.109 360,863.731 430,863.731" transform="rotate(60 500 500)" fill="magenta" stroke="black" stroke-width="0.5" />
<polygon points="395,924.352 360,863.731 430,863.731" transform="rotate(60 500 500)" fill="magenta" stroke="black" stroke-width="0.5" />
<polygon points="465,803.109 430,863.731 500,863.731" transform="rotate(60 500 500)" fill="magenta" stroke="black" stroke-width="0.5" />
<polygon points="465,924.352 430,863.731 500,863.731" transform="rotate(60 500 500)" fill="magenta" stroke="black" stroke-width="0.5" />
<polygon points="535,803.109 500,863.731 570,863.731" transform="rotate(60 500 500)" fill="magenta" stroke="black" stroke-width="0.5" />
<polygon points="535,924.352 500,863.731 570,863.731" transform="rotate(60 500 500)" fill="magenta" stroke="black" stroke-width="0.5" />
<polygon points="605,803.109 570,863.731 640,863.731" transform="rotate(60 500 500)" fill="magenta" stroke="black" stroke-width="0.5" />
<polygon points="605,924.352 570,863.731 640,863.731" transform="rotate(60 500 500)" fill="magenta" stroke="black" stroke-width="0.5" />
<polygon points="675,803.109 640,863.731 710,863.731" transform="rotate(60 500 500)" fill="magenta" stroke="black" stroke-width="0.5" />
<polygon points="675,924.352 640,863.731 710,863.731" transform="rotate(60 500 500)" fill="magenta" stroke="black" stroke-width="0.5" />
<polygon points="290,863.731 255,924.352 325,924.352" transform="rotate(60 500 500)" fill="magenta" stroke="black" stroke-width="0.5" />
<polygon points="360,863.731 325,924.352 395,924.352" transform="rotate(60 500 500)" fill="magenta" stroke="black" stroke-width="0.5" />
<polygon points="430,863.731 395,924.352 465,924.352" transform="rotate(60 500 500)" fill="magenta" stroke="black" stroke-width="0.5" />
<polygon points="500,863.731 465,924.352 535,924.352" transform="rotate(60 500 500)" fill="magenta" stroke="black" stroke-width="0.5" />
<polygon points="570,863.731 535,924.352 605,924.352" transform="rotate(60 500 500)" fill="magenta" stroke="black" stroke-width="0.5" />
<polygon points="640,863.731 605,924.352 675,924.352" transform="rotate(60 500 500)" fill="magenta" stroke="black" stroke-width="0.5" />
<polygon points="710,863.731 675,924.352 745,924.352" transform="rotate(60 500 500)" fill="magenta" stroke="black" stroke-width="0.5" />
<polygon points="470,924.352 435,984.974 505,984.974" transform="rotate(60 500 500)" fill="magenta" stroke="black" stroke-width="0.5" />
<polygon points="540,924.352 505,984.974 470,924.352" transform="rotate(60 500 500)" fill="magenta" stroke="black" stroke-width="0.5" />
<polygon points="470,924.352 435,984.974 400,924.352" transform="rotate(60 500 500)" fill="magenta" stroke="black" stroke-width="0.5" />
<polygon points="500,500 465,560.622 535,560.622" transform="rotate(120 500 500)" fill="magenta" stroke="black" stroke-width="0.5" />
<polygon points="500,621.244 465,560.622 535,560.622" transform="rotate(120 500 500)" fill="magenta" stroke="black" stroke-width="0.5" />
<polygon points="465,560.622 430,621.244 500,621.244" transform="rotate(120 500 500)" fill="magenta" stroke="black" stroke-width="0.5" />
<polygon points="465,681.865 430,621.244 500,621.244" transform="rotate(120 500 500)" fill="magenta" stroke="black" stroke-width="0.5" />
<polygon points="535,560.622 500,621.244 570,621.244" transform="rotate(120 500 500)" fill="magenta" stroke="black" stroke-width="0.5" />
<polygon points="535,681.865 500,621.244 570,621.244" transform="rotate(120 500 500)" fill="magenta" stroke="black" stroke-width="0.5" />
<polygon points="430,621.244 395,681.865 465,681.865" transform="rotate(120 500 500)" fill="magenta" stroke="black" stroke-width="0.5" />
<polygon points="430,742.487 395,681.865 465,681.865" transform="rotate(120 500 500)" fill="magenta" stroke="black" stroke-width="0.5" />
<polygon points="500,621.244 465,681.865 535,681.865" transform="rotate(120 500 500)" fill="magenta" stroke="black" stroke-width="0.5" />
<polygon points="500,742.487 465,681.865 535,681.865" transform="rotate(120 500 500)" fill="magenta" stroke="black" stroke-width="0.5" />
<polygon points="570,621.244 535,681.865 605,681.865" transform="rotate(120 500 500)" fill="magenta" stroke="black" stroke-width="0.5" />
<polygon points="570,742.487 535,681.865 605,681.865" transform="rotate(120 500 500)" fill="magenta" stroke="black" stroke-width="0.5" />
<polygon points="395,681.865 360,742.487 430,742.487" transform="rotate(120 500 500)" fill="magenta" stroke="black" stroke-width="0.5" />
<polygon points="395,803.109 360,742.487 430,742.487" transform="rotate(120 500 500)" fill="magenta" stroke="black" stroke-width="0.5" />
<polygon points="465,681.865 430,742.487 500,742.487" transform="rotate(120 500 500)" fill="magenta" stroke="black" stroke-width="0.5" />
<polygon points="465,803.109 430,742.487 500,742.487" transform="rotate(120 500 500)" fill="magenta" stroke="black" stroke-width="0.5" />
<polygon points="535,681.865 500,742.487 570,742.487" transform="rotate(120 500 500)" fill="magenta" stroke="black" stroke-width="0.5" />
<polygon points="535,803.109 500,742.487 570,742.487" transform="rotate(120 500 500)" fill="magenta" stroke="black" stroke-width="0.5" />
<polygon points="605,681.865 570,742.487 640,742.487" transform="rotate(120 500 500)" fill="magenta" stroke="black" stroke-width="0.5" />
<polygon points="605,803.109 570,742.487 640,742.487" transform="rotate(120 500 500)" fill="magenta" stroke="black" stroke-width="0.5" />
<polygon points="360,742.487 325,803.109 395,803.109" transform="rotate(120 500 500)" fill="magenta" stroke="black" stroke-width="0.5" />
<polygon points="360,863.731 325,803.109 395,803.109" transform="rotate(120 500 500)" fill="magenta" stroke="black" stroke-width="0.5" />
<polygon points="430,742.487 395,803.109 465,803.109" transform="rotate(120 500 500)" fill="magenta" stroke="black" stroke-width="0.5" />
<polygon points="430,863.731 395,803.109 465,803.109" transform="rotate(120 500 500)" fill="magenta" stroke="black" stroke-width="0.5" />
<polygon points="500,742.487 465,803.109 535,803.109" transform="rotate(120 500 500)" fill="magenta" stroke="black" stroke-width="0.5" />
<polygon points="500,863.731 465,803.109 535,803.109" transform="rotate(120 500 500)" fill="magenta" stroke="black" stroke-width="0.5" />
<polygon points="570,742.487 535,803.109 605,803.109" transform="rotate(120 500 500)" fill="magenta" stroke="black" stroke-width="0.5" />
<polygon points="570,863.731 535,803.109 605,803.109" transform="rotate(120 500 500)" fill="magenta" stroke="black" stroke-width="0.5" />
<polygon points="640,742.487 605,803.109 675,803.109" transform="rotate(120 500 500)" fill="magenta" stroke="black" stroke-width="0.5" />
<polygon points="640,863.731 605,803.109 675,803.109" transform="rotate(120 500 500)" fill="magenta" stroke="black" stroke-width="0.5" />
<polygon points="325,803.109 290,863.731 360,863.731" transform="rotate(120 500 500)" fill="magenta" stroke="black" stroke-width="0.5" />
<polygon points="325,924.352 290,863.731 360,863.731" transform="rotate(120 500 500)" fill="magenta" stroke="black" stroke-width="0.5" />
<polygon points="395,803.109 360,863.731 430,863.731" transform="rotate(120 500 500)" fill="magenta" stroke="black" stroke-width="0.5" />
<polygon points="395,924.352 360,863.731 430,863.731" transform="rotate(120 500 500)" fill="magenta" stroke="black" stroke-width="0.5" />
<polygon points="465,803.109 430,863.731 500,863.731" transform="rotate(120 500 500)" fill="magenta" stroke="black" stroke-width="0.5" />
<polygon points="465,924.352 430,863.731 500,863.731" transform="rotate(120 500 500)" fill="magenta" stroke="black" stroke-width="0.5" />
<polygon points="535,803.109 500,863.731 570,863.731" transform="rotate(120 500 500)" fill="magenta" stroke="black" stroke-width="0.5" />
<polygon points="535,924.352 500,863.731 570,863.731" transform="rotate(120 500 500)" fill="magenta" stroke="black" stroke-width="0.5" />
<polygon points="605,803.109 570,863.731 640,863.731" transform="rotate(120 500 500)" fill="magenta" stroke="black" stroke-width="0.5" />
<polygon points="605,924.352 570,863.731 640,863.731" transform="rotate(120 500 500)" fill="magenta" stroke="black" stroke-width="0.5" />
<polygon points="675,803.109 640,863.731 710,863.731" transform="rotate(120 500 500)" fill="magenta" stroke="black" stroke-width="0.5" />
<polygon points="675,924.352 640,863.731 710,863.731" transform="rotate(120 500 500)" fill="magenta" stroke="black" stroke-width="0.5" />
<polygon points="290,863.731 255,924.352 325,924.352" transform="rotate(120 500 500)" fill="magenta" stroke="black" stroke-width="0.5" />
<polygon points="360,863.731 325,924.352 395,924.352" transform="rotate(120 500 500)" fill="magenta" stroke="black" stroke-width="0.5" />
<polygon points="430,863.731 395,924.352 465,924.352" transform="rotate(120 500 500)" fill="magenta" stroke="black" stroke-width="0.5" />
<polygon points="500,863.731 465,924.352 535,924.352" transform="rotate(120 500 500)" fill="magenta" stroke="black" stroke-width="0.5" />
<polygon points="570,863.731 535,924.352 605,924.352" transform="rotate(120 500 500)" fill="magenta" stroke="black" stroke-width="0.5" />
<polygon points="640,863.731 605,924.352 675,924.352" transform="rotate(120 500 500)" fill="magenta" stroke="black" stroke-width="0.5" />
<polygon points="710,863.731 675,924.352 745,924.352" transform="rotate(120 500 500)" fill="magenta" stroke="black" stroke-width="0.5" />
<polygon points="470,924.352 435,984.974 505,984.974" transform="rotate(120 500 500)" fill="magenta" stroke="black" stroke-width="0.5" />
<polygon points="540,924.352 505,984.974 470,924.352" transform="rotate(120 500 500)" fill="magenta" stroke="black" stroke-width="0.5" />
<polygon points="470,924.352 435,984.974 400,924.352" transform="rotate(120 500 500)" fill="magenta" stroke="black" stroke-width="0.5" />
<polygon points="500,500 465,560.622 535,560.622" transform="rotate(180 500 500)" fill="magenta" stroke="black" stroke-width="0.5" />
<polygon points="500,621.244 465,560.622 535,560.622" transform="rotate(180 500 500)" fill="magenta" stroke="black" stroke-width="0.5" />
<polygon points="465,560.622 430,621.244 500,621.244" transform="rotate(180 500 500)" fill="magenta" stroke="black" stroke-width="0.5" />
<polygon points="465,681.865 430,621.244 500,621.244" transform="rotate(180 500 500)" fill="magenta" stroke="black" stroke-width="0.5" />
<polygon points="535,560.622 500,621.244 570,621.244" transform="rotate(180 500 500)" fill="magenta" stroke="black" stroke-width="0.5" />
<polygon points="535,681.865 500,621.244 570,621.244" transform="rotate(180 500 500)" fill="magenta" stroke="black" stroke-width="0.5" />
<polygon points="430,621.244 395,681.865 465,681.865" transform="rotate(180 500 500)" fill="magenta" stroke="black" stroke-width="0.5" />
<polygon points="430,742.487 395,681.865 465,681.865" transform="rotate(180 500 500)" fill="magenta" stroke="black" stroke-width="0.5" />
<polygon points="500,621.244 465,681.865 535,681.865" transform="rotate(180 500 500)" fill="magenta" stroke="black" stroke-width="0.5" />
<polygon points="500,742.487 465,681.865 535,681.865" transform="rotate(180 500 500)" fill="magenta" stroke="black" stroke-width="0.5" />
<polygon points="570,621.244 535,681.865 605,681.865" transform="rotate(180 500 500)" fill="magenta" stroke="black" stroke-width="0.5" />
<polygon points="570,742.487 535,681.865 605,681.865" transform="rotate(180 500 500)" fill="magenta" stroke="black" stroke-width="0.5" />
<polygon points="395,681.865 360,742.487 430,742.487" transform="rotate(180 500 500)" fill="magenta" stroke="black" stroke-width="0.5" />
<polygon points="395,803.109 360,742.487 430,742.487" transform="rotate(180 500 500)" fill="magenta" stroke="black" stroke-width="0.5" />
<polygon points="465,681.865 430,742.487 500,742.487" transform="rotate(180 500 500)" fill="magenta" stroke="black" stroke-width="0.5" />
<polygon points="465,803.109 430,742.487 500,742.487" transform="rotate(180 500 500)" fill="magenta" stroke="black" stroke-width="0.5" />
<polygon points="535,681.865 500,742.487 570,742.487" transform="rotate(180 500 500)" fill="magenta" stroke="black" stroke-width="0.5" />
<polygon points="535,803.109 500,742.487 570,742.487" transform="rotate(180 500 500)" fill="magenta" stroke="black" stroke-width="0.5" />
<polygon points="605,681.865 570,742.487 640,742.487" transform="rotate(180 500 500)" fill="magenta" stroke="black" stroke-width="0.5" />
<polygon points="605,803.109 570,742.487 640,742.487" transform="rotate(180 500 500)" fill="magenta" stroke="black" stroke-width="0.5" />
<polygon points="360,742.487 325,803.109 395,803.109" transform="rotate(180 500 500)" fill="magenta" stroke="black" stroke-width="0.5" />
<polygon points="360,863.731 325,803.109 395,803.109" transform="rotate(180 500 500)" fill="magenta" stroke="black" stroke-width="0.5" />
<polygon points="430,742.487 395,803.109 465,803.109" transform="rotate(180 500 500)" fill="magenta" stroke="black" stroke-width="0.5" />
<polygon points="430,863.731 395,803.109 465,803.109" transform="rotate(180 500 500)" fill="magenta" stroke="black" stroke-width="0.5" />
<polygon points="500,742.487 465,803.109 535,803.109" transform="rotate(180 500 500)" fill="magenta" stroke="black" stroke-width="0.5" />
<polygon points="500,863.731 465,803.109 535,803.109" transform="rotate(180 500 500)" fill="magenta" stroke="black" stroke-width="0.5" />
<polygon points="570,742.487 535,803.109 605,803.109" transform="rotate(180 500 500)" fill="magenta" stroke="black" stroke-width="0.5" />
<polygon points="570,863.731 535,803.109 605,803.109" transform="rotate(180 500 500)" fill="magenta" stroke="black" stroke-width="0.5" />
<polygon points="640,742.487 605,803.109 675,803.109" transform="rotate(180 500 500)" fill="magenta" stroke="black" stroke-width="0.5" />
<polygon points="640,863.731 605,803.109 675,803.109" transform="rotate(180 500 500)" fill="magenta" stroke="black" stroke-width="0.5" />
<polygon points="325,803.109 290,863.731 360,863.731" transform="rotate(180 500 500)" fill="magenta" stroke="black" stroke-width="0.5" />
<polygon points="325,924.352 290,863.731 360,863.731" transform="rotate(180 500 500)" fill="magenta" stroke="black" stroke-width="0.5" />
<polygon points="395,803.109 360,863.731 430,863.731" transform="rotate(180 500 500)" fill="magenta" stroke="black" stroke-width="0.5" />
<polygon points="395,924.352 360,863.731 430,863.731" transform="rotate(180 500 500)" fill="magenta" stroke="black" stroke-width="0.5" />
<polygon points="465,803.109 430,863.731 500,863.731" transform="rotate(180 500 500)" fill="magenta" stroke="black" stroke-width="0.5" />
<polygon points="465,924.352 430,863.731 500,863.731" transform="rotate(180 500 500)" fill="magenta" stroke="black" stroke-width="0.5" />
<polygon points="535,803.109 500,863.731 570,863.731" transform="rotate(180 500 500)" fill="magenta" stroke="black" stroke-width="0.5" />
<polygon points="535,924.352 500,863.731 570,863.731" transform="rotate(180 500 500)" fill="magenta" stroke="black" stroke-width="0.5" />
<polygon points="605,803.109 570,863.731 640,863.731" transform="rotate(180 500 500)" fill="magenta" stroke="black" stroke-width="0.5" />
<polygon points="605,924.352 570,863.731 640,863.731" transform="rotate(180 500 500)" fill="magenta" stroke="black" stroke-width="0.5" />
<polygon points="675,803.109 640,863.731 710,863.731" transform="rotate(180 500 500)" fill="magenta" stroke="black" stroke-width="0.5" />
<polygon points="675,924.352 640,863.731 710,863.731" transform="rotate(180 500 500)" fill="magenta" stroke="black" stroke-width="0.5" />
<polygon points="290,863.731 255,924.352 325,924.352" transform="rotate(180 500 500)" fill="magenta" stroke="black" stroke-width="0.5" />
<polygon points="360,863.731 325,924.352 395,924.352" transform="rotate(180 500 500)" fill="magenta" stroke="black" stroke-width="0.5" />
<polygon points="430,863.731 395,924.352 465,924.352" transform="rotate(180 500 500)" fill="magenta" stroke="black" stroke-width="0.5" />
<polygon points="500,863.731 465,924.352 535,924.352" transform="rotate(180 500 500)" fill="magenta" stroke="black" stroke-width="0.5" />
<polygon points="570,863.731 535,924.352 605,924.352" transform="rotate(180 500 500)" fill="magenta" stroke="black" stroke-width="0.5" />
<polygon points="640,863.731 605,924.352 675,924.352" transform="rotate(180 500 500)" fill="magenta" stroke="black" stroke-width="0.5" />
<polygon points="710,863.731 675,924.352 745,924.352" transform="rotate(180 500 500)" fill="magenta" stroke="black" stroke-width="0.5" />
<polygon points="470,924.352 435,984.974 505,984.974" transform="rotate(180 500 500)" fill="magenta" stroke="black" stroke-width="0.5" />
<polygon points="540,924.352 505,984.974 470,924.352" transform="rotate(180 500 500)" fill="magenta" stroke="black" stroke-width="0.5" />
<polygon points="470,924.352 435,984.974 400,924.352" transform="rotate(180 500 500)" fill="magenta" stroke="black" stroke-width="0.5" />
<polygon points="500,500 465,560.622 535,560.622" transform="rotate(240 500 500)" fill="magenta" stroke="black" stroke-width="0.5" />
<polygon points="500,621.244 465,560.622 535,560.622" transform="rotate(240 500 500)" fill="magenta" stroke="black" stroke-width="0.5" />
<polygon points="465,560.622 430,621.244 500,621.244" transform="rotate(240 500 500)" fill="magenta" stroke="black" stroke-width="0.5" />
<polygon points="465,681.865 430,621.244 500,621.244" transform="rotate(240 500 500)" fill="magenta" stroke="black" stroke-width="0.5" />
<polygon points="535,560.622 500,621.244 570,621.244" transform="rotate(240 500 500)" fill="magenta" stroke="black" stroke-width="0.5" />
<polygon points="535,681.865 500,621.244 570,621.244" transform="rotate(240 500 500)" fill="magenta" stroke="black" stroke-width="0.5" />
<polygon points="430,621.244 395,681.865 465,681.865" transform="rotate(240 500 500)" fill="magenta" stroke="black" stroke-width="0.5" />
<polygon points="430,742.487 395,681.865 465,681.865" transform="rotate(240 500 500)" fill="magenta" stroke="black" stroke-width="0.5" />
<polygon points="500,621.244 465,681.865 535,681.865" transform="rotate(240 500 500)" fill="magenta" stroke="black" stroke-width="0.5" />
<polygon points="500,742.487 465,681.865 535,681.865" transform="rotate(240 500 500)" fill="magenta" stroke="black" stroke-width="0.5" />
<polygon points="570,621.244 535,681.865 605,681.865" transform="rotate(240 500 500)" fill="magenta" stroke="black" stroke-width="0.5" />
<polygon points="570,742.487 535,681.865 605,681.865" transform="rotate(240 500 500)" fill="magenta" stroke="black" stroke-width="0.5" />
<polygon points="395,681.865 360,742.487 430,742.487" transform="rotate(240 500 500)" fill="magenta" stroke="black" stroke-width="0.5" />
<polygon points="395,803.109 360,742.487 430,742.487" transform="rotate(240 500 500)" fill="magenta" stroke="black" stroke-width="0.5" />
<polygon points="465,681.865 430,742.487 500,742.487" transform="rotate(240 500 500)" fill="magenta" stroke="black" stroke-width="0.5" />
<polygon points="465,803.109 430,742.487 500,742.487" transform="rotate(240 500 500)" fill="magenta" stroke="black" stroke-width="0.5" />
<polygon points="535,681.865 500,742.487 570,742.487" transform="rotate(240 500 500)" fill="magenta" stroke="black" stroke-width="0.5" />
<polygon points="535,803.109 500,742.487 570,742.487" transform="rotate(240 500 500)" fill="magenta" stroke="black" stroke-width="0.5" />
<polygon points="605,681.865 570,742.487 640,742.487" transform="rotate(240 500 500)" fill="magenta" stroke="black" stroke-width="0.5" />
<polygon points="605,803.109 570,742.487 640,742.487" transform="rotate(240 500 500)" fill="magenta" stroke="black" stroke-width="0.5" />
<polygon points="360,742.487 325,803.109 395,803.109" transform="rotate(240 500 500)" fill="magenta" stroke="black" stroke-width="0.5" />
<polygon points="360,863.731 325,803.109 395,803.109" transform="rotate(240 500 500)" fill="magenta" stroke="black" stroke-width="0.5" />
<polygon points="430,742.487 395,803.109 465,803.109" transform="rotate(240 500 500)" fill="magenta" stroke="black" stroke-width="0.5" />
<polygon points="430,863.731 395,803.109 465,803.109" transform="rotate(240 500 500)" fill="magenta" stroke="black" stroke-width="0.5" />
<polygon points="500,742.487 465,803.109 535,803.109" transform="rotate(240 500 500)" fill="magenta" stroke="black" stroke-width="0.5" />
<polygon points="500,863.731 465,803.109 535,803.109" transform="rotate(240 500 500)" fill="magenta" stroke="black" stroke-width="0.5" />
<polygon points="570,742.487 535,803.109 605,803.109" transform="rotate(240 500 500)" fill="magenta" stroke="black" stroke-width="0.5" />
<polygon points="570,863.731 535,803.109 605,803.109" transform="rotate(240 500 500)" fill="magenta" stroke="black" stroke-width="0.5" />
<polygon points="640,742.487 605,803.109 675,803.109" transform="rotate(240 500 500)" fill="magenta" stroke="black" stroke-width="0.5" />
<polygon points="640,863.731 605,803.109 675,803.109" transform="rotate(240 500 500)" fill="magenta" stroke="black" stroke-width="0.5" />
<polygon points="325,803.109 290,863.731 360,863.731" transform="rotate(240 500 500)" fill="magenta" stroke="black" stroke-width="0.5" />
<polygon points="325,924.352 290,863.731 360,863.731" transform="rotate(240 500 500)" fill="magenta" stroke="black" stroke-width="0.5" />
<polygon points="395,803.109 360,863.731 430,863.731" transform="rotate(240 500 500)" fill="magenta" stroke="black" stroke-width="0.5" />
<polygon points="395,924.352 360,863.731 430,863.731" transform="rotate(240 500 500)" fill="magenta" stroke="black" stroke-width="0.5" />
<polygon points="465,803.109 430,863.731 500,863.731" transform="rotate(240 500 500)" fill="magenta" stroke="black" stroke-width="0.5" />
<polygon points="465,924.352 430,863.731 500,863.731" transform="rotate(240 500 500)" fill="magenta" stroke="black" stroke-width="0.5" />
<polygon points="535,803.109 500,863.731 570,863.731" transform="rotate(240 500 500)" fill="magenta" stroke="black" stroke-width="0.5" />
<polygon points="535,924.352 500,863.731 570,863.731" transform="rotate(240 500 500)" fill="magenta" stroke="black" stroke-width="0.5" />
<polygon points="605,803.109 570,863.731 640,863.731" transform="rotate(240 500 500)" fill="magenta" stroke="black" stroke-width="0.5" />
<polygon points="605,924.352 570,863.731 640,863.731" transform="rotate(240 500 500)" fill="magenta" stroke="black" stroke-width="0.5" />
<polygon points="675,803.109 640,863.731 710,863.731" transform="rotate(240 500 500)" fill="magenta" stroke="black" stroke-width="0.5" />
<polygon points="675,924.352 640,863.731 710,863.731" transform="rotate(240 500 500)" fill="magenta" stroke="black" stroke-width="0.5" />
<polygon points="290,863.731 255,924.352 325,924.352" transform="rotate(240 500 500)" fill="magenta" stroke="black" stroke-width="0.5" />
<polygon points="360,863.731 325,924.352 395,924.352" transform="rotate(240 500 500)" fill="magenta" stroke="black" stroke-width="0.5" />
<polygon points="430,863.731 395,924.352 465,924.352" transform="rotate(240 500 500)" fill="magenta" stroke="black" stroke-width="0.5" />
<polygon points="500,863.731 465,924.352 535,924.352" transform="rotate(240 500 500)" fill="magenta" stroke="black" stroke-width="0.5" />
<polygon points="570,863.731 535,924.352 605,924.352" transform="rotate(240 500 500)" fill="magenta" stroke="black" stroke-width="0.5" />
<polygon points="640,863.731 605,924.352 675,924.352" transform="rotate(240 500 500)" fill="magenta" stroke="black" stroke-width="0.5" />
<polygon points="710,863.731 675,924.352 745,924.352" transform="rotate(240 500 500)" fill="magenta" stroke="black" stroke-width="0.5" />
<polygon points="470,924.352 435,984.974 505,984.974" transform="rotate(240 500 500)" fill="magenta" stroke="black" stroke-width="0.5" />
<polygon points="540,924.352 505,984.974 470,924.352" transform="rotate(240 500 500)" fill="magenta" stroke="black" stroke-width="0.5" />
<polygon points="470,924.352 435,984.974 400,924.352" transform="rotate(240 500 500)" fill="magenta" stroke="black" stroke-width="0.5" />
<polygon points="500,500 465,560.622 535,560.622" transform="rotate(300 500 500)" fill="magenta" stroke="black" stroke-width="0.5" />
<polygon points="500,621.244 465,560.622 535,560.622" transform="rotate(300 500 500)" fill="magenta" stroke="black" stroke-width="0.5" />
<polygon points="465,560.622 430,621.244 500,621.244" transform="rotate(300 500 500)" fill="magenta" stroke="black" stroke-width="0.5" />
<polygon points="465,681.865 430,621.244 500,621.244" transform="rotate(300 500 500)" fill="magenta" stroke="black" stroke-width="0.5" />
<polygon points="535,560.622 500,621.244 570,621.244" transform="rotate(300 500 500)" fill="magenta" stroke="black" stroke-width="0.5" />
<polygon points="535,681.865 500,621.244 570,621.244" transform="rotate(300 500 500)" fill="magenta" stroke="black" stroke-width="0.5" />
<polygon points="430,621.244 395,681.865 465,681.865" transform="rotate(300 500 500)" fill="magenta" stroke="black" stroke-width="0.5" />
<polygon points="430,742.487 395,681.865 465,681.865" transform="rotate(300 500 500)" fill="magenta" stroke="black" stroke-width="0.5" />
<polygon points="500,621.244 465,681.865 535,681.865" transform="rotate(300 500 500)" fill="magenta" stroke="black" stroke-width="0.5" />
<polygon points="500,742.487 465,681.865 535,681.865" transform="rotate(300 500 500)" fill="magenta" stroke="black" stroke-width="0.5" />
<polygon points="570,621.244 535,681.865 605,681.865" transform="rotate(300 500 500)" fill="magenta" stroke="black" stroke-width="0.5" />
<polygon points="570,742.487 535,681.865 605,681.865" transform="rotate(300 500 500)" fill="magenta" stroke="black" stroke-width="0.5" />
<polygon points="395,681.865 360,742.487 430,742.487" transform="rotate(300 500 500)" fill="magenta" stroke="black" stroke-width="0.5" />
<polygon points="395,803.109 360,742.487 430,742.487" transform="rotate(300 500 500)" fill="magenta" stroke="black" stroke-width="0.5" />
<polygon points="465,681.865 430,742.487 500,742.487" transform="rotate(300 500 500)" fill="magenta" stroke="black" stroke-width="0.5" />
<polygon points="465,803.109 430,742.487 500,742.487" transform="rotate(300 500 500)" fill="magenta" stroke="black" stroke-width="0.5" />
<polygon points="535,681.865 500,742.487 570,742.487" transform="rotate(300 500 500)" fill="magenta" stroke="black" stroke-width="0.5" />
<polygon points="535,803.109 500,742.487 570,742.487" transform="rotate(300 500 500)" fill="magenta" stroke="black" stroke-width="0.5" />
<polygon points="605,681.865 570,742.487 640,742.487" transform="rotate(300 500 500)" fill="magenta" stroke="black" stroke-width="0.5" />
<polygon points="605,803.109 570,742.487 640,742.487" transform="rotate(300 500 500)" fill="magenta" stroke="black" stroke-width="0.5" />
<polygon points="360,742.487 325,803.109 395,803.109" transform="rotate(300 500 500)" fill="magenta" stroke="black" stroke-width="0.5" />
<polygon points="360,863.731 325,803.109 395,803.109" transform="rotate(300 500 500)" fill="magenta" stroke="black" stroke-width="0.5" />
<polygon points="430,742.487 395,803.109 465,803.109" transform="rotate(300 500 500)" fill="magenta" stroke="black" stroke-width="0.5" />
<polygon points="430,863.731 395,803.109 465,803.109" transform="rotate(300 500 500)" fill="magenta" stroke="black" stroke-width="0.5" />
<polygon points="500,742.487 465,803.109 535,803.109" transform="rotate(300 500 500)" fill="magenta" stroke="black" stroke-width="0.5" />
<polygon points="500,863.731 465,803.109 535,803.109" transform="rotate(300 500 500)" fill="magenta" stroke="black" stroke-width="0.5" />
<polygon points="570,742.487 535,803.109 605,803.109" transform="rotate(300 500 500)" fill="magenta" stroke="black" stroke-width="0.5" />
<polygon points="570,863.731 535,803.109 605,803.109" transform="rotate(300 500 500)" fill="magenta" stroke="black" stroke-width="0.5" />
<polygon points="640,742.487 605,803.109 675,803.109" transform="rotate(300 500 500)" fill="magenta" stroke="black" stroke-width="0.5" />
<polygon points="640,863.731 605,803.109 675,803.109" transform="rotate(300 500 500)" fill="magenta" stroke="black" stroke-width="0.5" />
<polygon points="325,803.109 290,863.731 360,863.731" transform="rotate(300 500 500)" fill="magenta" stroke="black" stroke-width="0.5" />
<polygon points="325,924.352 290,863.731 360,863.731" transform="rotate(300 500 500)" fill="magenta" stroke="black" stroke-width="0.5" />
<polygon points="395,803.109 360,863.731 430,863.731" transform="rotate(300 500 500)" fill="magenta" stroke="black" stroke-width="0.5" />
<polygon points="395,924.352 360,863.731 430,863.731" transform="rotate(300 500 500)" fill="magenta" stroke="black" stroke-width="0.5" />
<polygon points="465,803.109 430,863.731 500,863.731" transform="rotate(300 500 500)" fill="magenta" stroke="black" stroke-width="0.5" />
<polygon points="465,924.352 430,863.731 500,863.731" transform="rotate(300 500 500)" fill="magenta" stroke="black" stroke-width="0.5" />
<polygon points="535,803.109 500,863.731 570,863.731" transform="rotate(300 500 500)" fill="magenta" stroke="black" stroke-width="0.5" />
<polygon points="535,924.352 500,863.731 570,863.731" transform="rotate(300 500 500)" fill="magenta" stroke="black" stroke-width="0.5" />
<polygon points="605,803.109 570,863.731 640,863.731" transform="rotate(300 500 500)" fill="magenta" stroke="black" stroke-width="0.5" />
<polygon points="605,924.352 570,863.731 640,863.731" transform="rotate(300 500 500)" fill="magenta" stroke="black" stroke-width="0.5" />
<polygon points="675,803.109 640,863.731 710,863.731" transform="rotate(300 500 500)" fill="magenta" stroke="black" stroke-width="0.5" />
<polygon points="675,924.352 640,863.731 710,863.731" transform="rotate(300 500 500)" fill="magenta" stroke="black" stroke-width="0.5" />
<polygon points="290,863.731 255,924.352 325,924.352" transform="rotate(300 500 500)" fill="magenta" stroke="black" stroke-width="0.5" />
<polygon points="360,863.731 325,924.352 395,924.352" transform="rotate(300 500 500)" fill="magenta" stroke="black" stroke-width="0.5" />
<polygon points="430,863.731 395,924.352 465,924.352" transform="rotate(300 500 500)" fill="magenta" stroke="black" stroke-width="0.5" />
<polygon points="500,863.731 465,924.352 535,924.352" transform="rotate(300 500 500)" fill="magenta" stroke="black" stroke-width="0.5" />
<polygon points="570,863.731 535,924.352 605,924.352" transform="rotate(300 500 500)" fill="magenta" stroke="black" stroke-width="0.5" />
<polygon points="640,863.731 605,924.352 675,924.352" transform="rotate(300 500 500)" fill="magenta" stroke="black" stroke-width="0.5" />
<polygon points="710,863.731 675,924.352 745,924.352" transform="rotate(300 500 500)" fill="magenta" stroke="black" stroke-width="0.5" />
<polygon points="470,924.352 435,984.974 505,984.974" transform="rotate(300 500 500)" fill="magenta" stroke="black" stroke-width="0.5" />
<polygon points="540,924.352 505,984.974 470,924.352" transform="rotate(300 500 500)" fill="magenta" stroke="black" stroke-width="0.5" />
<polygon points="470,924.352 435,984.974 400,924.352" transform="rotate(300 500 500)" fill="magenta" stroke="black" stroke-width="0.5" />
</svg>
