<svg version="1.1" baseProfile="full" xmlns="http://www.w3.org/2000/svg">
<circle cx="505" cy="505" r="500" transform="rotate(0 0 0)" fill="purple" stroke="black" stroke-width="0.5" />
<rect x="151.447"  y="151.447" width="100" height="50" transform="rotate(0 146.447 146.447)" fill="magenta" stroke="black" stroke-width="0.5" />
<rect x="251.447"  y="151.447" width="100" height="50" transform="rotate(0 146.447 146.447)" fill="magenta" stroke="black" stroke-width="0.5" />
<rect x="351.447"  y="151.447" width="100" height="50" transform="rotate(0 146.447 146.447)" fill="magenta" stroke="black" stroke-width="0.5" />
<rect x="451.447"  y="151.447" width="100" height="50" transform="rotate(0 146.447 146.447)" fill="magenta" stroke="black" stroke-width="0.5" />
<rect x="551.447"  y="151.447" width="100" height="50" transform="rotate(0 146.447 146.447)" fill="magenta" stroke="black" stroke-width="0.5" />
<rect x="651.447"  y="151.447" width="100" height="50" transform="rotate(0 146.447 146.447)" fill="magenta" stroke="black" stroke-width="0.5" />
<rect x="751.447"  y="151.447" width="100" height="50" transform="rotate(0 146.447 146.447)" fill="magenta" stroke="black" stroke-width="0.5" />
<rect x="151.447"  y="201.447" width="100" height="50" transform="rotate(0 146.447 146.447)" fill="magenta" stroke="black" stroke-width="0.5" />
<rect x="251.447"  y="201.447" width="100" height="50" transform="rotate(0 146.447 146.447)" fill="magenta" stroke="black" stroke-width="0.5" />
<rect x="351.447"  y="201.447" width="100" height="50" transform="rotate(0 146.447 146.447)" fill="magenta" stroke="black" stroke-width="0.5" />
<rect x="451.447"  y="201.447" width="100" height="50" transform="rotate(0 146.447 146.447)" fill="magenta" stroke="black" stroke-width="0.5" />
<rect x="551.447"  y="201.447" width="100" height="50" transform="rotate(0 146.447 146.447)" fill="magenta" stroke="black" stroke-width="0.5" />
<rect x="651.447"  y="201.447" width="100" height="50" transform="rotate(0 146.447 146.447)" fill="magenta" stroke="black" stroke-width="0.5" />
<rect x="751.447"  y="201.447" width="100" height="50" transform="rotate(0 146.447 146.447)" fill="magenta" stroke="black" stroke-width="0.5" />
<rect x="151.447"  y="251.447" width="100" height="50" transform="rotate(0 146.447 146.447)" fill="magenta" stroke="black" stroke-width="0.5" />
<rect x="251.447"  y="251.447" width="100" height="50" transform="rotate(0 146.447 146.447)" fill="magenta" stroke="black" stroke-width="0.5" />
<rect x="351.447"  y="251.447" width="100" height="50" transform="rotate(0 146.447 146.447)" fill="magenta" stroke="black" stroke-width="0.5" />
<rect x="451.447"  y="251.447" width="100" height="50" transform="rotate(0 146.447 146.447)" fill="magenta" stroke="black" stroke-width="0.5" />
<rect x="551.447"  y="251.447" width="100" height="50" transform="rotate(0 146.447 146.447)" fill="magenta" stroke="black" stroke-width="0.5" />
<rect x="651.447"  y="251.447" width="100" height="50" transform="rotate(0 146.447 146.447)" fill="magenta" stroke="black" stroke-width="0.5" />
<rect x="751.447"  y="251.447" width="100" height="50" transform="rotate(0 146.447 146.447)" fill="magenta" stroke="black" stroke-width="0.5" />
<rect x="151.447"  y="301.447" width="100" height="50" transform="rotate(0 146.447 146.447)" fill="magenta" stroke="black" stroke-width="0.5" />
<rect x="251.447"  y="301.447" width="100" height="50" transform="rotate(0 146.447 146.447)" fill="magenta" stroke="black" stroke-width="0.5" />
<rect x="351.447"  y="301.447" width="100" height="50" transform="rotate(0 146.447 146.447)" fill="magenta" stroke="black" stroke-width="0.5" />
<rect x="451.447"  y="301.447" width="100" height="50" transform="rotate(0 146.447 146.447)" fill="magenta" stroke="black" stroke-width="0.5" />
<rect x="551.447"  y="301.447" width="100" height="50" transform="rotate(0 146.447 146.447)" fill="magenta" stroke="black" stroke-width="0.5" />
<rect x="651.447"  y="301.447" width="100" height="50" transform="rotate(0 146.447 146.447)" fill="magenta" stroke="black" stroke-width="0.5" />
<rect x="751.447"  y="301.447" width="100" height="50" transform="rotate(0 146.447 146.447)" fill="magenta" stroke="black" stroke-width="0.5" />
<rect x="151.447"  y="351.447" width="100" height="50" transform="rotate(0 146.447 146.447)" fill="magenta" stroke="black" stroke-width="0.5" />
<rect x="251.447"  y="351.447" width="100" height="50" transform="rotate(0 146.447 146.447)" fill="magenta" stroke="black" stroke-width="0.5" />
<rect x="351.447"  y="351.447" width="100" height="50" transform="rotate(0 146.447 146.447)" fill="magenta" stroke="black" stroke-width="0.5" />
<rect x="451.447"  y="351.447" width="100" height="50" transform="rotate(0 146.447 146.447)" fill="magenta" stroke="black" stroke-width="0.5" />
<rect x="551.447"  y="351.447" width="100" height="50" transform="rotate(0 146.447 146.447)" fill="magenta" stroke="black" stroke-width="0.5" />
<rect x="651.447"  y="351.447" width="100" height="50" transform="rotate(0 146.447 146.447)" fill="magenta" stroke="black" stroke-width="0.5" />
<rect x="751.447"  y="351.447" width="100" height="50" transform="rotate(0 146.447 146.447)" fill="magenta" stroke="black" stroke-width="0.5" />
<rect x="151.447"  y="401.447" width="100" height="50" transform="rotate(0 146.447 146.447)" fill="magenta" stroke="black" stroke-width="0.5" />
<rect x="251.447"  y="401.447" width="100" height="50" transform="rotate(0 146.447 146.447)" fill="magenta" stroke="black" stroke-width="0.5" />
<rect x="351.447"  y="401.447" width="100" height="50" transform="rotate(0 146.447 146.447)" fill="magenta" stroke="black" stroke-width="0.5" />
<rect x="451.447"  y="401.447" width="100" height="50" transform="rotate(0 146.447 146.447)" fill="magenta" stroke="black" stroke-width="0.5" />
<rect x="551.447"  y="401.447" width="100" height="50" transform="rotate(0 146.447 146.447)" fill="magenta" stroke="black" stroke-width="0.5" />
<rect x="651.447"  y="401.447" width="100" height="50" transform="rotate(0 146.447 146.447)" fill="magenta" stroke="black" stroke-width="0.5" />
<rect x="751.447"  y="401.447" width="100" height="50" transform="rotate(0 146.447 146.447)" fill="magenta" stroke="black" stroke-width="0.5" />
<rect x="151.447"  y="451.447" width="100" height="50" transform="rotate(0 146.447 146.447)" fill="magenta" stroke="black" stroke-width="0.5" />
<rect x="251.447"  y="451.447" width="100" height="50" transform="rotate(0 146.447 146.447)" fill="magenta" stroke="black" stroke-width="0.5" />
<rect x="351.447"  y="451.447" width="100" height="50" transform="rotate(0 146.447 146.447)" fill="magenta" stroke="black" stroke-width="0.5" />
<rect x="451.447"  y="451.447" width="100" height="50" transform="rotate(0 146.447 146.447)" fill="magenta" stroke="black" stroke-width="0.5" />
<rect x="551.447"  y="451.447" width="100" height="50" transform="rotate(0 146.447 146.447)" fill="magenta" stroke="black" stroke-width="0.5" />
<rect x="651.447"  y="451.447" width="100" height="50" transform="rotate(0 146.447 146.447)" fill="magenta" stroke="black" stroke-width="0.5" />
<rect x="751.447"  y="451.447" width="100" height="50" transform="rotate(0 146.447 146.447)" fill="magenta" stroke="black" stroke-width="0.5" />
<rect x="151.447"  y="501.447" width="100" height="50" transform="rotate(0 146.447 146.447)" fill="magenta" stroke="black" stroke-width="0.5" />
<rect x="251.447"  y="501.447" width="100" height="50" transform="rotate(0 146.447 146.447)" fill="magenta" stroke="black" stroke-width="0.5" />
<rect x="351.447"  y="501.447" width="100" height="50" transform="rotate(0 146.447 146.447)" fill="magenta" stroke="black" stroke-width="0.5" />
<rect x="451.447"  y="501.447" width="100" height="50" transform="rotate(0 146.447 146.447)" fill="magenta" stroke="black" stroke-width="0.5" />
<rect x="551.447"  y="501.447" width="100" height="50" transform="rotate(0 146.447 146.447)" fill="magenta" stroke="black" stroke-width="0.5" />
<rect x="651.447"  y="501.447" width="100" height="50" transform="rotate(0 146.447 146.447)" fill="magenta" stroke="black" stroke-width="0.5" />
<rect x="751.447"  y="501.447" width="100" height="50" transform="rotate(0 146.447 146.447)" fill="magenta" stroke="black" stroke-width="0.5" />
<rect x="151.447"  y="551.447" width="100" height="50" transform="rotate(0 146.447 146.447)" fill="magenta" stroke="black" stroke-width="0.5" />
<rect x="251.447"  y="551.447" width="100" height="50" transform="rotate(0 146.447 146.447)" fill="magenta" stroke="black" stroke-width="0.5" />
<rect x="351.447"  y="551.447" width="100" height="50" transform="rotate(0 146.447 146.447)" fill="magenta" stroke="black" stroke-width="0.5" />
<rect x="451.447"  y="551.447" width="100" height="50" transform="rotate(0 146.447 146.447)" fill="magenta" stroke="black" stroke-width="0.5" />
<rect x="551.447"  y="551.447" width="100" height="50" transform="rotate(0 146.447 146.447)" fill="magenta" stroke="black" stroke-width="0.5" />
<rect x="651.447"  y="551.447" width="100" height="50" transform="rotate(0 146.447 146.447)" fill="magenta" stroke="black" stroke-width="0.5" />
<rect x="751.447"  y="551.447" width="100" height="50" transform="rotate(0 146.447 146.447)" fill="magenta" stroke="black" stroke-width="0.5" />
<rect x="151.447"  y="601.447" width="100" height="50" transform="rotate(0 146.447 146.447)" fill="magenta" stroke="black" stroke-width="0.5" />
<rect x="251.447"  y="601.447" width="100" height="50" transform="rotate(0 146.447 146.447)" fill="magenta" stroke="black" stroke-width="0.5" />
<rect x="351.447"  y="601.447" width="100" height="50" transform="rotate(0 146.447 146.447)" fill="magenta" stroke="black" stroke-width="0.5" />
<rect x="451.447"  y="601.447" width="100" height="50" transform="rotate(0 146.447 146.447)" fill="magenta" stroke="black" stroke-width="0.5" />
<rect x="551.447"  y="601.447" width="100" height="50" transform="rotate(0 146.447 146.447)" fill="magenta" stroke="black" stroke-width="0.5" />
<rect x="651.447"  y="601.447" width="100" height="50" transform="rotate(0 146.447 146.447)" fill="magenta" stroke="black" stroke-width="0.5" />
<rect x="751.447"  y="601.447" width="100" height="50" transform="rotate(0 146.447 146.447)" fill="magenta" stroke="black" stroke-width="0.5" />
<rect x="151.447"  y="651.447" width="100" height="50" transform="rotate(0 146.447 146.447)" fill="magenta" stroke="black" stroke-width="0.5" />
<rect x="251.447"  y="651.447" width="100" height="50" transform="rotate(0 146.447 146.447)" fill="magenta" stroke="black" stroke-width="0.5" />
<rect x="351.447"  y="651.447" width="100" height="50" transform="rotate(0 146.447 146.447)" fill="magenta" stroke="black" stroke-width="0.5" />
<rect x="451.447"  y="651.447" width="100" height="50" transform="rotate(0 146.447 146.447)" fill="magenta" stroke="black" stroke-width="0.5" />
<rect x="551.447"  y="651.447" width="100" height="50" transform="rotate(0 146.447 146.447)" fill="magenta" stroke="black" stroke-width="0.5" />
<rect x="651.447"  y="651.447" width="100" height="50" transform="rotate(0 146.447 146.447)" fill="magenta" stroke="black" stroke-width="0.5" />
<rect x="751.447"  y="651.447" width="100" height="50" transform="rotate(0 146.447 146.447)" fill="magenta" stroke="black" stroke-width="0.5" />
<rect x="151.447"  y="701.447" width="100" height="50" transform="rotate(0 146.447 146.447)" fill="magenta" stroke="black" stroke-width="0.5" />
<rect x="251.447"  y="701.447" width="100" height="50" transform="rotate(0 146.447 146.447)" fill="magenta" stroke="black" stroke-width="0.5" />
<rect x="351.447"  y="701.447" width="100" height="50" transform="rotate(0 146.447 146.447)" fill="magenta" stroke="black" stroke-width="0.5" />
<rect x="451.447"  y="701.447" width="100" height="50" transform="rotate(0 146.447 146.447)" fill="magenta" stroke="black" stroke-width="0.5" />
<rect x="551.447"  y="701.447" width="100" height="50" transform="rotate(0 146.447 146.447)" fill="magenta" stroke="black" stroke-width="0.5" />
<rect x="651.447"  y="701.447" width="100" height="50" transform="rotate(0 146.447 146.447)" fill="magenta" stroke="black" stroke-width="0.5" />
<rect x="751.447"  y="701.447" width="100" height="50" transform="rotate(0 146.447 146.447)" fill="magenta" stroke="black" stroke-width="0.5" />
<rect x="151.447"  y="751.447" width="100" height="50" transform="rotate(0 146.447 146.447)" fill="magenta" stroke="black" stroke-width="0.5" />
<rect x="251.447"  y="751.447" width="100" height="50" transform="rotate(0 146.447 146.447)" fill="magenta" stroke="black" stroke-width="0.5" />
<rect x="351.447"  y="751.447" width="100" height="50" transform="rotate(0 146.447 146.447)" fill="magenta" stroke="black" stroke-width="0.5" />
<rect x="451.447"  y="751.447" width="100" height="50" transform="rotate(0 146.447 146.447)" fill="magenta" stroke="black" stroke-width="0.5" />
<rect x="551.447"  y="751.447" width="100" height="50" transform="rotate(0 146.447 146.447)" fill="magenta" stroke="black" stroke-width="0.5" />
<rect x="651.447"  y="751.447" width="100" height="50" transform="rotate(0 146.447 146.447)" fill="magenta" stroke="black" stroke-width="0.5" />
<rect x="751.447"  y="751.447" width="100" height="50" transform="rotate(0 146.447 146.447)" fill="magenta" stroke="black" stroke-width="0.5" />
<rect x="151.447"  y="801.447" width="100" height="50" transform="rotate(0 146.447 146.447)" fill="magenta" stroke="black" stroke-width="0.5" />
<rect x="251.447"  y="801.447" width="100" height="50" transform="rotate(0 146.447 146.447)" fill="magenta" stroke="black" stroke-width="0.5" />
<rect x="351.447"  y="801.447" width="100" height="50" transform="rotate(0 146.447 146.447)" fill="magenta" stroke="black" stroke-width="0.5" />
<rect x="451.447"  y="801.447" width="100" height="50" transform="rotate(0 146.447 146.447)" fill="magenta" stroke="black" stroke-width="0.5" />
<rect x="551.447"  y="801.447" width="100" height="50" transform="rotate(0 146.447 146.447)" fill="magenta" stroke="black" stroke-width="0.5" />
<rect x="651.447"  y="801.447" width="100" height="50" transform="rotate(0 146.447 146.447)" fill="magenta" stroke="black" stroke-width="0.5" />
<rect x="751.447"  y="801.447" width="100" height="50" transform="rotate(0 146.447 146.447)" fill="magenta" stroke="black" stroke-width="0.5" />
<rect x="505"  y="858.553" width="100" height="50" transform="rotate(0 505 505)" fill="magenta" stroke="black" stroke-width="0.5" />
<rect x="405"  y="858.553" width="100" height="50" transform="rotate(0 505 505)" fill="magenta" stroke="black" stroke-width="0.5" />
<rect x="605"  y="858.553" width="100" height="50" transform="rotate(0 505 505)" fill="magenta" stroke="black" stroke-width="0.5" />
<rect x="305"  y="858.553" width="100" height="50" transform="rotate(0 505 505)" fill="magenta" stroke="black" stroke-width="0.5" />
<rect x="505"  y="908.553" width="100" height="50" transform="rotate(0 505 505)" fill="magenta" stroke="black" stroke-width="0.5" />
<rect x="405"  y="908.553" width="100" height="50" transform="rotate(0 505 505)" fill="magenta" stroke="black" stroke-width="0.5" />
<rect x="605"  y="908.553" width="100" height="50" transform="rotate(0 505 505)" fill="magenta" stroke="black" stroke-width="0.5" />
<rect x="305"  y="908.553" width="100" height="50" transform="rotate(0 505 505)" fill="magenta" stroke="black" stroke-width="0.5" />
<rect x="505"  y="858.553" width="100" height="50" transform="rotate(90 505 505)" fill="magenta" stroke="black" stroke-width="0.5" />
<rect x="405"  y="858.553" width="100" height="50" transform="rotate(90 505 505)" fill="magenta" stroke="black" stroke-width="0.5" />
<rect x="605"  y="858.553" width="100" height="50" transform="rotate(90 505 505)" fill="magenta" stroke="black" stroke-width="0.5" />
<rect x="305"  y="858.553" width="100" height="50" transform="rotate(90 505 505)" fill="magenta" stroke="black" stroke-width="0.5" />
<rect x="505"  y="908.553" width="100" height="50" transform="rotate(90 505 505)" fill="magenta" stroke="black" stroke-width="0.5" />
<rect x="405"  y="908.553" width="100" height="50" transform="rotate(90 505 505)" fill="magenta" stroke="black" stroke-width="0.5" />
<rect x="605"  y="908.553" width="100" height="50" transform="rotate(90 505 505)" fill="magenta" stroke="black" stroke-width="0.5" />
<rect x="305"  y="908.553" width="100" height="50" transform="rotate(90 505 505)" fill="magenta" stroke="black" stroke-width="0.5" />
<rect x="505"  y="858.553" width="100" height="50" transform="rotate(180 505 505)" fill="magenta" stroke="black" stroke-width="0.5" />
<rect x="405"  y="858.553" width="100" height="50" transform="rotate(180 505 505)" fill="magenta" stroke="black" stroke-width="0.5" />
<rect x="605"  y="858.553" width="100" height="50" transform="rotate(180 505 505)" fill="magenta" stroke="black" stroke-width="0.5" />
<rect x="305"  y="858.553" width="100" height="50" transform="rotate(180 505 505)" fill="magenta" stroke="black" stroke-width="0.5" />
<rect x="505"  y="908.553" width="100" height="50" transform="rotate(180 505 505)" fill="magenta" stroke="black" stroke-width="0.5" />
<rect x="405"  y="908.553" width="100" height="50" transform="rotate(180 505 505)" fill="magenta" stroke="black" stroke-width="0.5" />
<rect x="605"  y="908.553" width="100" height="50" transform="rotate(180 505 505)" fill="magenta" stroke="black" stroke-width="0.5" />
<rect x="305"  y="908.553" width="100" height="50" transform="rotate(180 505 505)" fill="magenta" stroke="black" stroke-width="0.5" />
<rect x="505"  y="858.553" width="100" height="50" transform="rotate(270 505 505)" fill="magenta" stroke="black" stroke-width="0.5" />
<rect x="405"  y="858.553" width="100" height="50" transform="rotate(270 505 505)" fill="magenta" stroke="black" stroke-width="0.5" />
<rect x="605"  y="858.553" width="100" height="50" transform="rotate(270 505 505)" fill="magenta" stroke="black" stroke-width="0.5" />
<rect x="305"  y="858.553" width="100" height="50" transform="rotate(270 505 505)" fill="magenta" stroke="black" stroke-width="0.5" />
<rect x="505"  y="908.553" width="100" height="50" transform="rotate(270 505 505)" fill="magenta" stroke="black" stroke-width="0.5" />
<rect x="405"  y="908.553" width="100" height="50" transform="rotate(270 505 505)" fill="magenta" stroke="black" stroke-width="0.5" />
<rect x="605"  y="908.553" width="100" height="50" transform="rotate(270 505 505)" fill="magenta" stroke="black" stroke-width="0.5" />
<rect x="305"  y="908.553" width="100" height="50" transform="rotate(270 505 505)" fill="magenta" stroke="black" stroke-width="0.5" />
</svg>
