<svg version="1.1" baseProfile="full" xmlns="http://www.w3.org/2000/svg">
<circle cx="510" cy="510" r="500" transform="rotate(0 0 0)" fill="dimgrey" stroke="black" stroke-width="0.5" />
<polygon points="510,510 475,570.622 545,570.622" transform="rotate(0 510 510)" fill="magenta" stroke="black" stroke-width="0.5" />
<polygon points="510,631.244 475,570.622 545,570.622" transform="rotate(0 510 510)" fill="magenta" stroke="black" stroke-width="0.5" />
<polygon points="475,570.622 440,631.244 510,631.244" transform="rotate(0 510 510)" fill="magenta" stroke="black" stroke-width="0.5" />
<polygon points="475,691.865 440,631.244 510,631.244" transform="rotate(0 510 510)" fill="magenta" stroke="black" stroke-width="0.5" />
<polygon points="545,570.622 510,631.244 580,631.244" transform="rotate(0 510 510)" fill="magenta" stroke="black" stroke-width="0.5" />
<polygon points="545,691.865 510,631.244 580,631.244" transform="rotate(0 510 510)" fill="magenta" stroke="black" stroke-width="0.5" />
<polygon points="440,631.244 405,691.865 475,691.865" transform="rotate(0 510 510)" fill="magenta" stroke="black" stroke-width="0.5" />
<polygon points="440,752.487 405,691.865 475,691.865" transform="rotate(0 510 510)" fill="magenta" stroke="black" stroke-width="0.5" />
<polygon points="510,631.244 475,691.865 545,691.865" transform="rotate(0 510 510)" fill="magenta" stroke="black" stroke-width="0.5" />
<polygon points="510,752.487 475,691.865 545,691.865" transform="rotate(0 510 510)" fill="magenta" stroke="black" stroke-width="0.5" />
<polygon points="580,631.244 545,691.865 615,691.865" transform="rotate(0 510 510)" fill="magenta" stroke="black" stroke-width="0.5" />
<polygon points="580,752.487 545,691.865 615,691.865" transform="rotate(0 510 510)" fill="magenta" stroke="black" stroke-width="0.5" />
<polygon points="405,691.865 370,752.487 440,752.487" transform="rotate(0 510 510)" fill="magenta" stroke="black" stroke-width="0.5" />
<polygon points="405,813.109 370,752.487 440,752.487" transform="rotate(0 510 510)" fill="magenta" stroke="black" stroke-width="0.5" />
<polygon points="475,691.865 440,752.487 510,752.487" transform="rotate(0 510 510)" fill="magenta" stroke="black" stroke-width="0.5" />
<polygon points="475,813.109 440,752.487 510,752.487" transform="rotate(0 510 510)" fill="magenta" stroke="black" stroke-width="0.5" />
<polygon points="545,691.865 510,752.487 580,752.487" transform="rotate(0 510 510)" fill="magenta" stroke="black" stroke-width="0.5" />
<polygon points="545,813.109 510,752.487 580,752.487" transform="rotate(0 510 510)" fill="magenta" stroke="black" stroke-width="0.5" />
<polygon points="615,691.865 580,752.487 650,752.487" transform="rotate(0 510 510)" fill="magenta" stroke="black" stroke-width="0.5" />
<polygon points="615,813.109 580,752.487 650,752.487" transform="rotate(0 510 510)" fill="magenta" stroke="black" stroke-width="0.5" />
<polygon points="370,752.487 335,813.109 405,813.109" transform="rotate(0 510 510)" fill="magenta" stroke="black" stroke-width="0.5" />
<polygon points="370,873.731 335,813.109 405,813.109" transform="rotate(0 510 510)" fill="magenta" stroke="black" stroke-width="0.5" />
<polygon points="440,752.487 405,813.109 475,813.109" transform="rotate(0 510 510)" fill="magenta" stroke="black" stroke-width="0.5" />
<polygon points="440,873.731 405,813.109 475,813.109" transform="rotate(0 510 510)" fill="magenta" stroke="black" stroke-width="0.5" />
<polygon points="510,752.487 475,813.109 545,813.109" transform="rotate(0 510 510)" fill="magenta" stroke="black" stroke-width="0.5" />
<polygon points="510,873.731 475,813.109 545,813.109" transform="rotate(0 510 510)" fill="magenta" stroke="black" stroke-width="0.5" />
<polygon points="580,752.487 545,813.109 615,813.109" transform="rotate(0 510 510)" fill="magenta" stroke="black" stroke-width="0.5" />
<polygon points="580,873.731 545,813.109 615,813.109" transform="rotate(0 510 510)" fill="magenta" stroke="black" stroke-width="0.5" />
<polygon points="650,752.487 615,813.109 685,813.109" transform="rotate(0 510 510)" fill="magenta" stroke="black" stroke-width="0.5" />
<polygon points="650,873.731 615,813.109 685,813.109" transform="rotate(0 510 510)" fill="magenta" stroke="black" stroke-width="0.5" />
<polygon points="335,813.109 300,873.731 370,873.731" transform="rotate(0 510 510)" fill="magenta" stroke="black" stroke-width="0.5" />
<polygon points="335,934.352 300,873.731 370,873.731" transform="rotate(0 510 510)" fill="magenta" stroke="black" stroke-width="0.5" />
<polygon points="405,813.109 370,873.731 440,873.731" transform="rotate(0 510 510)" fill="magenta" stroke="black" stroke-width="0.5" />
<polygon points="405,934.352 370,873.731 440,873.731" transform="rotate(0 510 510)" fill="magenta" stroke="black" stroke-width="0.5" />
<polygon points="475,813.109 440,873.731 510,873.731" transform="rotate(0 510 510)" fill="magenta" stroke="black" stroke-width="0.5" />
<polygon points="475,934.352 440,873.731 510,873.731" transform="rotate(0 510 510)" fill="magenta" stroke="black" stroke-width="0.5" />
<polygon points="545,813.109 510,873.731 580,873.731" transform="rotate(0 510 510)" fill="magenta" stroke="black" stroke-width="0.5" />
<polygon points="545,934.352 510,873.731 580,873.731" transform="rotate(0 510 510)" fill="magenta" stroke="black" stroke-width="0.5" />
<polygon points="615,813.109 580,873.731 650,873.731" transform="rotate(0 510 510)" fill="magenta" stroke="black" stroke-width="0.5" />
<polygon points="615,934.352 580,873.731 650,873.731" transform="rotate(0 510 510)" fill="magenta" stroke="black" stroke-width="0.5" />
<polygon points="685,813.109 650,873.731 720,873.731" transform="rotate(0 510 510)" fill="magenta" stroke="black" stroke-width="0.5" />
<polygon points="685,934.352 650,873.731 720,873.731" transform="rotate(0 510 510)" fill="magenta" stroke="black" stroke-width="0.5" />
<polygon points="300,873.731 265,934.352 335,934.352" transform="rotate(0 510 510)" fill="magenta" stroke="black" stroke-width="0.5" />
<polygon points="370,873.731 335,934.352 405,934.352" transform="rotate(0 510 510)" fill="magenta" stroke="black" stroke-width="0.5" />
<polygon points="440,873.731 405,934.352 475,934.352" transform="rotate(0 510 510)" fill="magenta" stroke="black" stroke-width="0.5" />
<polygon points="510,873.731 475,934.352 545,934.352" transform="rotate(0 510 510)" fill="magenta" stroke="black" stroke-width="0.5" />
<polygon points="580,873.731 545,934.352 615,934.352" transform="rotate(0 510 510)" fill="magenta" stroke="black" stroke-width="0.5" />
<polygon points="650,873.731 615,934.352 685,934.352" transform="rotate(0 510 510)" fill="magenta" stroke="black" stroke-width="0.5" />
<polygon points="720,873.731 685,934.352 755,934.352" transform="rotate(0 510 510)" fill="magenta" stroke="black" stroke-width="0.5" />
<polygon points="480,934.352 445,994.974 515,994.974" transform="rotate(0 510 510)" fill="magenta" stroke="black" stroke-width="0.5" />
<polygon points="550,934.352 515,994.974 480,934.352" transform="rotate(0 510 510)" fill="magenta" stroke="black" stroke-width="0.5" />
<polygon points="480,934.352 445,994.974 410,934.352" transform="rotate(0 510 510)" fill="magenta" stroke="black" stroke-width="0.5" />
<polygon points="510,510 475,570.622 545,570.622" transform="rotate(60 510 510)" fill="magenta" stroke="black" stroke-width="0.5" />
<polygon points="510,631.244 475,570.622 545,570.622" transform="rotate(60 510 510)" fill="magenta" stroke="black" stroke-width="0.5" />
<polygon points="475,570.622 440,631.244 510,631.244" transform="rotate(60 510 510)" fill="magenta" stroke="black" stroke-width="0.5" />
<polygon points="475,691.865 440,631.244 510,631.244" transform="rotate(60 510 510)" fill="magenta" stroke="black" stroke-width="0.5" />
<polygon points="545,570.622 510,631.244 580,631.244" transform="rotate(60 510 510)" fill="magenta" stroke="black" stroke-width="0.5" />
<polygon points="545,691.865 510,631.244 580,631.244" transform="rotate(60 510 510)" fill="magenta" stroke="black" stroke-width="0.5" />
<polygon points="440,631.244 405,691.865 475,691.865" transform="rotate(60 510 510)" fill="magenta" stroke="black" stroke-width="0.5" />
<polygon points="440,752.487 405,691.865 475,691.865" transform="rotate(60 510 510)" fill="magenta" stroke="black" stroke-width="0.5" />
<polygon points="510,631.244 475,691.865 545,691.865" transform="rotate(60 510 510)" fill="magenta" stroke="black" stroke-width="0.5" />
<polygon points="510,752.487 475,691.865 545,691.865" transform="rotate(60 510 510)" fill="magenta" stroke="black" stroke-width="0.5" />
<polygon points="580,631.244 545,691.865 615,691.865" transform="rotate(60 510 510)" fill="magenta" stroke="black" stroke-width="0.5" />
<polygon points="580,752.487 545,691.865 615,691.865" transform="rotate(60 510 510)" fill="magenta" stroke="black" stroke-width="0.5" />
<polygon points="405,691.865 370,752.487 440,752.487" transform="rotate(60 510 510)" fill="magenta" stroke="black" stroke-width="0.5" />
<polygon points="405,813.109 370,752.487 440,752.487" transform="rotate(60 510 510)" fill="magenta" stroke="black" stroke-width="0.5" />
<polygon points="475,691.865 440,752.487 510,752.487" transform="rotate(60 510 510)" fill="magenta" stroke="black" stroke-width="0.5" />
<polygon points="475,813.109 440,752.487 510,752.487" transform="rotate(60 510 510)" fill="magenta" stroke="black" stroke-width="0.5" />
<polygon points="545,691.865 510,752.487 580,752.487" transform="rotate(60 510 510)" fill="magenta" stroke="black" stroke-width="0.5" />
<polygon points="545,813.109 510,752.487 580,752.487" transform="rotate(60 510 510)" fill="magenta" stroke="black" stroke-width="0.5" />
<polygon points="615,691.865 580,752.487 650,752.487" transform="rotate(60 510 510)" fill="magenta" stroke="black" stroke-width="0.5" />
<polygon points="615,813.109 580,752.487 650,752.487" transform="rotate(60 510 510)" fill="magenta" stroke="black" stroke-width="0.5" />
<polygon points="370,752.487 335,813.109 405,813.109" transform="rotate(60 510 510)" fill="magenta" stroke="black" stroke-width="0.5" />
<polygon points="370,873.731 335,813.109 405,813.109" transform="rotate(60 510 510)" fill="magenta" stroke="black" stroke-width="0.5" />
<polygon points="440,752.487 405,813.109 475,813.109" transform="rotate(60 510 510)" fill="magenta" stroke="black" stroke-width="0.5" />
<polygon points="440,873.731 405,813.109 475,813.109" transform="rotate(60 510 510)" fill="magenta" stroke="black" stroke-width="0.5" />
<polygon points="510,752.487 475,813.109 545,813.109" transform="rotate(60 510 510)" fill="magenta" stroke="black" stroke-width="0.5" />
<polygon points="510,873.731 475,813.109 545,813.109" transform="rotate(60 510 510)" fill="magenta" stroke="black" stroke-width="0.5" />
<polygon points="580,752.487 545,813.109 615,813.109" transform="rotate(60 510 510)" fill="magenta" stroke="black" stroke-width="0.5" />
<polygon points="580,873.731 545,813.109 615,813.109" transform="rotate(60 510 510)" fill="magenta" stroke="black" stroke-width="0.5" />
<polygon points="650,752.487 615,813.109 685,813.109" transform="rotate(60 510 510)" fill="magenta" stroke="black" stroke-width="0.5" />
<polygon points="650,873.731 615,813.109 685,813.109" transform="rotate(60 510 510)" fill="magenta" stroke="black" stroke-width="0.5" />
<polygon points="335,813.109 300,873.731 370,873.731" transform="rotate(60 510 510)" fill="magenta" stroke="black" stroke-width="0.5" />
<polygon points="335,934.352 300,873.731 370,873.731" transform="rotate(60 510 510)" fill="magenta" stroke="black" stroke-width="0.5" />
<polygon points="405,813.109 370,873.731 440,873.731" transform="rotate(60 510 510)" fill="magenta" stroke="black" stroke-width="0.5" />
<polygon points="405,934.352 370,873.731 440,873.731" transform="rotate(60 510 510)" fill="magenta" stroke="black" stroke-width="0.5" />
<polygon points="475,813.109 440,873.731 510,873.731" transform="rotate(60 510 510)" fill="magenta" stroke="black" stroke-width="0.5" />
<polygon points="475,934.352 440,873.731 510,873.731" transform="rotate(60 510 510)" fill="magenta" stroke="black" stroke-width="0.5" />
<polygon points="545,813.109 510,873.731 580,873.731" transform="rotate(60 510 510)" fill="magenta" stroke="black" stroke-width="0.5" />
<polygon points="545,934.352 510,873.731 580,873.731" transform="rotate(60 510 510)" fill="magenta" stroke="black" stroke-width="0.5" />
<polygon points="615,813.109 580,873.731 650,873.731" transform="rotate(60 510 510)" fill="magenta" stroke="black" stroke-width="0.5" />
<polygon points="615,934.352 580,873.731 650,873.731" transform="rotate(60 510 510)" fill="magenta" stroke="black" stroke-width="0.5" />
<polygon points="685,813.109 650,873.731 720,873.731" transform="rotate(60 510 510)" fill="magenta" stroke="black" stroke-width="0.5" />
<polygon points="685,934.352 650,873.731 720,873.731" transform="rotate(60 510 510)" fill="magenta" stroke="black" stroke-width="0.5" />
<polygon points="300,873.731 265,934.352 335,934.352" transform="rotate(60 510 510)" fill="magenta" stroke="black" stroke-width="0.5" />
<polygon points="370,873.731 335,934.352 405,934.352" transform="rotate(60 510 510)" fill="magenta" stroke="black" stroke-width="0.5" />
<polygon points="440,873.731 405,934.352 475,934.352" transform="rotate(60 510 510)" fill="magenta" stroke="black" stroke-width="0.5" />
<polygon points="510,873.731 475,934.352 545,934.352" transform="rotate(60 510 510)" fill="magenta" stroke="black" stroke-width="0.5" />
<polygon points="580,873.731 545,934.352 615,934.352" transform="rotate(60 510 510)" fill="magenta" stroke="black" stroke-width="0.5" />
<polygon points="650,873.731 615,934.352 685,934.352" transform="rotate(60 510 510)" fill="magenta" stroke="black" stroke-width="0.5" />
<polygon points="720,873.731 685,934.352 755,934.352" transform="rotate(60 510 510)" fill="magenta" stroke="black" stroke-width="0.5" />
<polygon points="480,934.352 445,994.974 515,994.974" transform="rotate(60 510 510)" fill="magenta" stroke="black" stroke-width="0.5" />
<polygon points="550,934.352 515,994.974 480,934.352" transform="rotate(60 510 510)" fill="magenta" stroke="black" stroke-width="0.5" />
<polygon points="480,934.352 445,994.974 410,934.352" transform="rotate(60 510 510)" fill="magenta" stroke="black" stroke-width="0.5" />
<polygon points="510,510 475,570.622 545,570.622" transform="rotate(120 510 510)" fill="magenta" stroke="black" stroke-width="0.5" />
<polygon points="510,631.244 475,570.622 545,570.622" transform="rotate(120 510 510)" fill="magenta" stroke="black" stroke-width="0.5" />
<polygon points="475,570.622 440,631.244 510,631.244" transform="rotate(120 510 510)" fill="magenta" stroke="black" stroke-width="0.5" />
<polygon points="475,691.865 440,631.244 510,631.244" transform="rotate(120 510 510)" fill="magenta" stroke="black" stroke-width="0.5" />
<polygon points="545,570.622 510,631.244 580,631.244" transform="rotate(120 510 510)" fill="magenta" stroke="black" stroke-width="0.5" />
<polygon points="545,691.865 510,631.244 580,631.244" transform="rotate(120 510 510)" fill="magenta" stroke="black" stroke-width="0.5" />
<polygon points="440,631.244 405,691.865 475,691.865" transform="rotate(120 510 510)" fill="magenta" stroke="black" stroke-width="0.5" />
<polygon points="440,752.487 405,691.865 475,691.865" transform="rotate(120 510 510)" fill="magenta" stroke="black" stroke-width="0.5" />
<polygon points="510,631.244 475,691.865 545,691.865" transform="rotate(120 510 510)" fill="magenta" stroke="black" stroke-width="0.5" />
<polygon points="510,752.487 475,691.865 545,691.865" transform="rotate(120 510 510)" fill="magenta" stroke="black" stroke-width="0.5" />
<polygon points="580,631.244 545,691.865 615,691.865" transform="rotate(120 510 510)" fill="magenta" stroke="black" stroke-width="0.5" />
<polygon points="580,752.487 545,691.865 615,691.865" transform="rotate(120 510 510)" fill="magenta" stroke="black" stroke-width="0.5" />
<polygon points="405,691.865 370,752.487 440,752.487" transform="rotate(120 510 510)" fill="magenta" stroke="black" stroke-width="0.5" />
<polygon points="405,813.109 370,752.487 440,752.487" transform="rotate(120 510 510)" fill="magenta" stroke="black" stroke-width="0.5" />
<polygon points="475,691.865 440,752.487 510,752.487" transform="rotate(120 510 510)" fill="magenta" stroke="black" stroke-width="0.5" />
<polygon points="475,813.109 440,752.487 510,752.487" transform="rotate(120 510 510)" fill="magenta" stroke="black" stroke-width="0.5" />
<polygon points="545,691.865 510,752.487 580,752.487" transform="rotate(120 510 510)" fill="magenta" stroke="black" stroke-width="0.5" />
<polygon points="545,813.109 510,752.487 580,752.487" transform="rotate(120 510 510)" fill="magenta" stroke="black" stroke-width="0.5" />
<polygon points="615,691.865 580,752.487 650,752.487" transform="rotate(120 510 510)" fill="magenta" stroke="black" stroke-width="0.5" />
<polygon points="615,813.109 580,752.487 650,752.487" transform="rotate(120 510 510)" fill="magenta" stroke="black" stroke-width="0.5" />
<polygon points="370,752.487 335,813.109 405,813.109" transform="rotate(120 510 510)" fill="magenta" stroke="black" stroke-width="0.5" />
<polygon points="370,873.731 335,813.109 405,813.109" transform="rotate(120 510 510)" fill="magenta" stroke="black" stroke-width="0.5" />
<polygon points="440,752.487 405,813.109 475,813.109" transform="rotate(120 510 510)" fill="magenta" stroke="black" stroke-width="0.5" />
<polygon points="440,873.731 405,813.109 475,813.109" transform="rotate(120 510 510)" fill="magenta" stroke="black" stroke-width="0.5" />
<polygon points="510,752.487 475,813.109 545,813.109" transform="rotate(120 510 510)" fill="magenta" stroke="black" stroke-width="0.5" />
<polygon points="510,873.731 475,813.109 545,813.109" transform="rotate(120 510 510)" fill="magenta" stroke="black" stroke-width="0.5" />
<polygon points="580,752.487 545,813.109 615,813.109" transform="rotate(120 510 510)" fill="magenta" stroke="black" stroke-width="0.5" />
<polygon points="580,873.731 545,813.109 615,813.109" transform="rotate(120 510 510)" fill="magenta" stroke="black" stroke-width="0.5" />
<polygon points="650,752.487 615,813.109 685,813.109" transform="rotate(120 510 510)" fill="magenta" stroke="black" stroke-width="0.5" />
<polygon points="650,873.731 615,813.109 685,813.109" transform="rotate(120 510 510)" fill="magenta" stroke="black" stroke-width="0.5" />
<polygon points="335,813.109 300,873.731 370,873.731" transform="rotate(120 510 510)" fill="magenta" stroke="black" stroke-width="0.5" />
<polygon points="335,934.352 300,873.731 370,873.731" transform="rotate(120 510 510)" fill="magenta" stroke="black" stroke-width="0.5" />
<polygon points="405,813.109 370,873.731 440,873.731" transform="rotate(120 510 510)" fill="magenta" stroke="black" stroke-width="0.5" />
<polygon points="405,934.352 370,873.731 440,873.731" transform="rotate(120 510 510)" fill="magenta" stroke="black" stroke-width="0.5" />
<polygon points="475,813.109 440,873.731 510,873.731" transform="rotate(120 510 510)" fill="magenta" stroke="black" stroke-width="0.5" />
<polygon points="475,934.352 440,873.731 510,873.731" transform="rotate(120 510 510)" fill="magenta" stroke="black" stroke-width="0.5" />
<polygon points="545,813.109 510,873.731 580,873.731" transform="rotate(120 510 510)" fill="magenta" stroke="black" stroke-width="0.5" />
<polygon points="545,934.352 510,873.731 580,873.731" transform="rotate(120 510 510)" fill="magenta" stroke="black" stroke-width="0.5" />
<polygon points="615,813.109 580,873.731 650,873.731" transform="rotate(120 510 510)" fill="magenta" stroke="black" stroke-width="0.5" />
<polygon points="615,934.352 580,873.731 650,873.731" transform="rotate(120 510 510)" fill="magenta" stroke="black" stroke-width="0.5" />
<polygon points="685,813.109 650,873.731 720,873.731" transform="rotate(120 510 510)" fill="magenta" stroke="black" stroke-width="0.5" />
<polygon points="685,934.352 650,873.731 720,873.731" transform="rotate(120 510 510)" fill="magenta" stroke="black" stroke-width="0.5" />
<polygon points="300,873.731 265,934.352 335,934.352" transform="rotate(120 510 510)" fill="magenta" stroke="black" stroke-width="0.5" />
<polygon points="370,873.731 335,934.352 405,934.352" transform="rotate(120 510 510)" fill="magenta" stroke="black" stroke-width="0.5" />
<polygon points="440,873.731 405,934.352 475,934.352" transform="rotate(120 510 510)" fill="magenta" stroke="black" stroke-width="0.5" />
<polygon points="510,873.731 475,934.352 545,934.352" transform="rotate(120 510 510)" fill="magenta" stroke="black" stroke-width="0.5" />
<polygon points="580,873.731 545,934.352 615,934.352" transform="rotate(120 510 510)" fill="magenta" stroke="black" stroke-width="0.5" />
<polygon points="650,873.731 615,934.352 685,934.352" transform="rotate(120 510 510)" fill="magenta" stroke="black" stroke-width="0.5" />
<polygon points="720,873.731 685,934.352 755,934.352" transform="rotate(120 510 510)" fill="magenta" stroke="black" stroke-width="0.5" />
<polygon points="480,934.352 445,994.974 515,994.974" transform="rotate(120 510 510)" fill="magenta" stroke="black" stroke-width="0.5" />
<polygon points="550,934.352 515,994.974 480,934.352" transform="rotate(120 510 510)" fill="magenta" stroke="black" stroke-width="0.5" />
<polygon points="480,934.352 445,994.974 410,934.352" transform="rotate(120 510 510)" fill="magenta" stroke="black" stroke-width="0.5" />
<polygon points="510,510 475,570.622 545,570.622" transform="rotate(180 510 510)" fill="magenta" stroke="black" stroke-width="0.5" />
<polygon points="510,631.244 475,570.622 545,570.622" transform="rotate(180 510 510)" fill="magenta" stroke="black" stroke-width="0.5" />
<polygon points="475,570.622 440,631.244 510,631.244" transform="rotate(180 510 510)" fill="magenta" stroke="black" stroke-width="0.5" />
<polygon points="475,691.865 440,631.244 510,631.244" transform="rotate(180 510 510)" fill="magenta" stroke="black" stroke-width="0.5" />
<polygon points="545,570.622 510,631.244 580,631.244" transform="rotate(180 510 510)" fill="magenta" stroke="black" stroke-width="0.5" />
<polygon points="545,691.865 510,631.244 580,631.244" transform="rotate(180 510 510)" fill="magenta" stroke="black" stroke-width="0.5" />
<polygon points="440,631.244 405,691.865 475,691.865" transform="rotate(180 510 510)" fill="magenta" stroke="black" stroke-width="0.5" />
<polygon points="440,752.487 405,691.865 475,691.865" transform="rotate(180 510 510)" fill="magenta" stroke="black" stroke-width="0.5" />
<polygon points="510,631.244 475,691.865 545,691.865" transform="rotate(180 510 510)" fill="magenta" stroke="black" stroke-width="0.5" />
<polygon points="510,752.487 475,691.865 545,691.865" transform="rotate(180 510 510)" fill="magenta" stroke="black" stroke-width="0.5" />
<polygon points="580,631.244 545,691.865 615,691.865" transform="rotate(180 510 510)" fill="magenta" stroke="black" stroke-width="0.5" />
<polygon points="580,752.487 545,691.865 615,691.865" transform="rotate(180 510 510)" fill="magenta" stroke="black" stroke-width="0.5" />
<polygon points="405,691.865 370,752.487 440,752.487" transform="rotate(180 510 510)" fill="magenta" stroke="black" stroke-width="0.5" />
<polygon points="405,813.109 370,752.487 440,752.487" transform="rotate(180 510 510)" fill="magenta" stroke="black" stroke-width="0.5" />
<polygon points="475,691.865 440,752.487 510,752.487" transform="rotate(180 510 510)" fill="magenta" stroke="black" stroke-width="0.5" />
<polygon points="475,813.109 440,752.487 510,752.487" transform="rotate(180 510 510)" fill="magenta" stroke="black" stroke-width="0.5" />
<polygon points="545,691.865 510,752.487 580,752.487" transform="rotate(180 510 510)" fill="magenta" stroke="black" stroke-width="0.5" />
<polygon points="545,813.109 510,752.487 580,752.487" transform="rotate(180 510 510)" fill="magenta" stroke="black" stroke-width="0.5" />
<polygon points="615,691.865 580,752.487 650,752.487" transform="rotate(180 510 510)" fill="magenta" stroke="black" stroke-width="0.5" />
<polygon points="615,813.109 580,752.487 650,752.487" transform="rotate(180 510 510)" fill="magenta" stroke="black" stroke-width="0.5" />
<polygon points="370,752.487 335,813.109 405,813.109" transform="rotate(180 510 510)" fill="magenta" stroke="black" stroke-width="0.5" />
<polygon points="370,873.731 335,813.109 405,813.109" transform="rotate(180 510 510)" fill="magenta" stroke="black" stroke-width="0.5" />
<polygon points="440,752.487 405,813.109 475,813.109" transform="rotate(180 510 510)" fill="magenta" stroke="black" stroke-width="0.5" />
<polygon points="440,873.731 405,813.109 475,813.109" transform="rotate(180 510 510)" fill="magenta" stroke="black" stroke-width="0.5" />
<polygon points="510,752.487 475,813.109 545,813.109" transform="rotate(180 510 510)" fill="magenta" stroke="black" stroke-width="0.5" />
<polygon points="510,873.731 475,813.109 545,813.109" transform="rotate(180 510 510)" fill="magenta" stroke="black" stroke-width="0.5" />
<polygon points="580,752.487 545,813.109 615,813.109" transform="rotate(180 510 510)" fill="magenta" stroke="black" stroke-width="0.5" />
<polygon points="580,873.731 545,813.109 615,813.109" transform="rotate(180 510 510)" fill="magenta" stroke="black" stroke-width="0.5" />
<polygon points="650,752.487 615,813.109 685,813.109" transform="rotate(180 510 510)" fill="magenta" stroke="black" stroke-width="0.5" />
<polygon points="650,873.731 615,813.109 685,813.109" transform="rotate(180 510 510)" fill="magenta" stroke="black" stroke-width="0.5" />
<polygon points="335,813.109 300,873.731 370,873.731" transform="rotate(180 510 510)" fill="magenta" stroke="black" stroke-width="0.5" />
<polygon points="335,934.352 300,873.731 370,873.731" transform="rotate(180 510 510)" fill="magenta" stroke="black" stroke-width="0.5" />
<polygon points="405,813.109 370,873.731 440,873.731" transform="rotate(180 510 510)" fill="magenta" stroke="black" stroke-width="0.5" />
<polygon points="405,934.352 370,873.731 440,873.731" transform="rotate(180 510 510)" fill="magenta" stroke="black" stroke-width="0.5" />
<polygon points="475,813.109 440,873.731 510,873.731" transform="rotate(180 510 510)" fill="magenta" stroke="black" stroke-width="0.5" />
<polygon points="475,934.352 440,873.731 510,873.731" transform="rotate(180 510 510)" fill="magenta" stroke="black" stroke-width="0.5" />
<polygon points="545,813.109 510,873.731 580,873.731" transform="rotate(180 510 510)" fill="magenta" stroke="black" stroke-width="0.5" />
<polygon points="545,934.352 510,873.731 580,873.731" transform="rotate(180 510 510)" fill="magenta" stroke="black" stroke-width="0.5" />
<polygon points="615,813.109 580,873.731 650,873.731" transform="rotate(180 510 510)" fill="magenta" stroke="black" stroke-width="0.5" />
<polygon points="615,934.352 580,873.731 650,873.731" transform="rotate(180 510 510)" fill="magenta" stroke="black" stroke-width="0.5" />
<polygon points="685,813.109 650,873.731 720,873.731" transform="rotate(180 510 510)" fill="magenta" stroke="black" stroke-width="0.5" />
<polygon points="685,934.352 650,873.731 720,873.731" transform="rotate(180 510 510)" fill="magenta" stroke="black" stroke-width="0.5" />
<polygon points="300,873.731 265,934.352 335,934.352" transform="rotate(180 510 510)" fill="magenta" stroke="black" stroke-width="0.5" />
<polygon points="370,873.731 335,934.352 405,934.352" transform="rotate(180 510 510)" fill="magenta" stroke="black" stroke-width="0.5" />
<polygon points="440,873.731 405,934.352 475,934.352" transform="rotate(180 510 510)" fill="magenta" stroke="black" stroke-width="0.5" />
<polygon points="510,873.731 475,934.352 545,934.352" transform="rotate(180 510 510)" fill="magenta" stroke="black" stroke-width="0.5" />
<polygon points="580,873.731 545,934.352 615,934.352" transform="rotate(180 510 510)" fill="magenta" stroke="black" stroke-width="0.5" />
<polygon points="650,873.731 615,934.352 685,934.352" transform="rotate(180 510 510)" fill="magenta" stroke="black" stroke-width="0.5" />
<polygon points="720,873.731 685,934.352 755,934.352" transform="rotate(180 510 510)" fill="magenta" stroke="black" stroke-width="0.5" />
<polygon points="480,934.352 445,994.974 515,994.974" transform="rotate(180 510 510)" fill="magenta" stroke="black" stroke-width="0.5" />
<polygon points="550,934.352 515,994.974 480,934.352" transform="rotate(180 510 510)" fill="magenta" stroke="black" stroke-width="0.5" />
<polygon points="480,934.352 445,994.974 410,934.352" transform="rotate(180 510 510)" fill="magenta" stroke="black" stroke-width="0.5" />
<polygon points="510,510 475,570.622 545,570.622" transform="rotate(240 510 510)" fill="magenta" stroke="black" stroke-width="0.5" />
<polygon points="510,631.244 475,570.622 545,570.622" transform="rotate(240 510 510)" fill="magenta" stroke="black" stroke-width="0.5" />
<polygon points="475,570.622 440,631.244 510,631.244" transform="rotate(240 510 510)" fill="magenta" stroke="black" stroke-width="0.5" />
<polygon points="475,691.865 440,631.244 510,631.244" transform="rotate(240 510 510)" fill="magenta" stroke="black" stroke-width="0.5" />
<polygon points="545,570.622 510,631.244 580,631.244" transform="rotate(240 510 510)" fill="magenta" stroke="black" stroke-width="0.5" />
<polygon points="545,691.865 510,631.244 580,631.244" transform="rotate(240 510 510)" fill="magenta" stroke="black" stroke-width="0.5" />
<polygon points="440,631.244 405,691.865 475,691.865" transform="rotate(240 510 510)" fill="magenta" stroke="black" stroke-width="0.5" />
<polygon points="440,752.487 405,691.865 475,691.865" transform="rotate(240 510 510)" fill="magenta" stroke="black" stroke-width="0.5" />
<polygon points="510,631.244 475,691.865 545,691.865" transform="rotate(240 510 510)" fill="magenta" stroke="black" stroke-width="0.5" />
<polygon points="510,752.487 475,691.865 545,691.865" transform="rotate(240 510 510)" fill="magenta" stroke="black" stroke-width="0.5" />
<polygon points="580,631.244 545,691.865 615,691.865" transform="rotate(240 510 510)" fill="magenta" stroke="black" stroke-width="0.5" />
<polygon points="580,752.487 545,691.865 615,691.865" transform="rotate(240 510 510)" fill="magenta" stroke="black" stroke-width="0.5" />
<polygon points="405,691.865 370,752.487 440,752.487" transform="rotate(240 510 510)" fill="magenta" stroke="black" stroke-width="0.5" />
<polygon points="405,813.109 370,752.487 440,752.487" transform="rotate(240 510 510)" fill="magenta" stroke="black" stroke-width="0.5" />
<polygon points="475,691.865 440,752.487 510,752.487" transform="rotate(240 510 510)" fill="magenta" stroke="black" stroke-width="0.5" />
<polygon points="475,813.109 440,752.487 510,752.487" transform="rotate(240 510 510)" fill="magenta" stroke="black" stroke-width="0.5" />
<polygon points="545,691.865 510,752.487 580,752.487" transform="rotate(240 510 510)" fill="magenta" stroke="black" stroke-width="0.5" />
<polygon points="545,813.109 510,752.487 580,752.487" transform="rotate(240 510 510)" fill="magenta" stroke="black" stroke-width="0.5" />
<polygon points="615,691.865 580,752.487 650,752.487" transform="rotate(240 510 510)" fill="magenta" stroke="black" stroke-width="0.5" />
<polygon points="615,813.109 580,752.487 650,752.487" transform="rotate(240 510 510)" fill="magenta" stroke="black" stroke-width="0.5" />
<polygon points="370,752.487 335,813.109 405,813.109" transform="rotate(240 510 510)" fill="magenta" stroke="black" stroke-width="0.5" />
<polygon points="370,873.731 335,813.109 405,813.109" transform="rotate(240 510 510)" fill="magenta" stroke="black" stroke-width="0.5" />
<polygon points="440,752.487 405,813.109 475,813.109" transform="rotate(240 510 510)" fill="magenta" stroke="black" stroke-width="0.5" />
<polygon points="440,873.731 405,813.109 475,813.109" transform="rotate(240 510 510)" fill="magenta" stroke="black" stroke-width="0.5" />
<polygon points="510,752.487 475,813.109 545,813.109" transform="rotate(240 510 510)" fill="magenta" stroke="black" stroke-width="0.5" />
<polygon points="510,873.731 475,813.109 545,813.109" transform="rotate(240 510 510)" fill="magenta" stroke="black" stroke-width="0.5" />
<polygon points="580,752.487 545,813.109 615,813.109" transform="rotate(240 510 510)" fill="magenta" stroke="black" stroke-width="0.5" />
<polygon points="580,873.731 545,813.109 615,813.109" transform="rotate(240 510 510)" fill="magenta" stroke="black" stroke-width="0.5" />
<polygon points="650,752.487 615,813.109 685,813.109" transform="rotate(240 510 510)" fill="magenta" stroke="black" stroke-width="0.5" />
<polygon points="650,873.731 615,813.109 685,813.109" transform="rotate(240 510 510)" fill="magenta" stroke="black" stroke-width="0.5" />
<polygon points="335,813.109 300,873.731 370,873.731" transform="rotate(240 510 510)" fill="magenta" stroke="black" stroke-width="0.5" />
<polygon points="335,934.352 300,873.731 370,873.731" transform="rotate(240 510 510)" fill="magenta" stroke="black" stroke-width="0.5" />
<polygon points="405,813.109 370,873.731 440,873.731" transform="rotate(240 510 510)" fill="magenta" stroke="black" stroke-width="0.5" />
<polygon points="405,934.352 370,873.731 440,873.731" transform="rotate(240 510 510)" fill="magenta" stroke="black" stroke-width="0.5" />
<polygon points="475,813.109 440,873.731 510,873.731" transform="rotate(240 510 510)" fill="magenta" stroke="black" stroke-width="0.5" />
<polygon points="475,934.352 440,873.731 510,873.731" transform="rotate(240 510 510)" fill="magenta" stroke="black" stroke-width="0.5" />
<polygon points="545,813.109 510,873.731 580,873.731" transform="rotate(240 510 510)" fill="magenta" stroke="black" stroke-width="0.5" />
<polygon points="545,934.352 510,873.731 580,873.731" transform="rotate(240 510 510)" fill="magenta" stroke="black" stroke-width="0.5" />
<polygon points="615,813.109 580,873.731 650,873.731" transform="rotate(240 510 510)" fill="magenta" stroke="black" stroke-width="0.5" />
<polygon points="615,934.352 580,873.731 650,873.731" transform="rotate(240 510 510)" fill="magenta" stroke="black" stroke-width="0.5" />
<polygon points="685,813.109 650,873.731 720,873.731" transform="rotate(240 510 510)" fill="magenta" stroke="black" stroke-width="0.5" />
<polygon points="685,934.352 650,873.731 720,873.731" transform="rotate(240 510 510)" fill="magenta" stroke="black" stroke-width="0.5" />
<polygon points="300,873.731 265,934.352 335,934.352" transform="rotate(240 510 510)" fill="magenta" stroke="black" stroke-width="0.5" />
<polygon points="370,873.731 335,934.352 405,934.352" transform="rotate(240 510 510)" fill="magenta" stroke="black" stroke-width="0.5" />
<polygon points="440,873.731 405,934.352 475,934.352" transform="rotate(240 510 510)" fill="magenta" stroke="black" stroke-width="0.5" />
<polygon points="510,873.731 475,934.352 545,934.352" transform="rotate(240 510 510)" fill="magenta" stroke="black" stroke-width="0.5" />
<polygon points="580,873.731 545,934.352 615,934.352" transform="rotate(240 510 510)" fill="magenta" stroke="black" stroke-width="0.5" />
<polygon points="650,873.731 615,934.352 685,934.352" transform="rotate(240 510 510)" fill="magenta" stroke="black" stroke-width="0.5" />
<polygon points="720,873.731 685,934.352 755,934.352" transform="rotate(240 510 510)" fill="magenta" stroke="black" stroke-width="0.5" />
<polygon points="480,934.352 445,994.974 515,994.974" transform="rotate(240 510 510)" fill="magenta" stroke="black" stroke-width="0.5" />
<polygon points="550,934.352 515,994.974 480,934.352" transform="rotate(240 510 510)" fill="magenta" stroke="black" stroke-width="0.5" />
<polygon points="480,934.352 445,994.974 410,934.352" transform="rotate(240 510 510)" fill="magenta" stroke="black" stroke-width="0.5" />
<polygon points="510,510 475,570.622 545,570.622" transform="rotate(300 510 510)" fill="magenta" stroke="black" stroke-width="0.5" />
<polygon points="510,631.244 475,570.622 545,570.622" transform="rotate(300 510 510)" fill="magenta" stroke="black" stroke-width="0.5" />
<polygon points="475,570.622 440,631.244 510,631.244" transform="rotate(300 510 510)" fill="magenta" stroke="black" stroke-width="0.5" />
<polygon points="475,691.865 440,631.244 510,631.244" transform="rotate(300 510 510)" fill="magenta" stroke="black" stroke-width="0.5" />
<polygon points="545,570.622 510,631.244 580,631.244" transform="rotate(300 510 510)" fill="magenta" stroke="black" stroke-width="0.5" />
<polygon points="545,691.865 510,631.244 580,631.244" transform="rotate(300 510 510)" fill="magenta" stroke="black" stroke-width="0.5" />
<polygon points="440,631.244 405,691.865 475,691.865" transform="rotate(300 510 510)" fill="magenta" stroke="black" stroke-width="0.5" />
<polygon points="440,752.487 405,691.865 475,691.865" transform="rotate(300 510 510)" fill="magenta" stroke="black" stroke-width="0.5" />
<polygon points="510,631.244 475,691.865 545,691.865" transform="rotate(300 510 510)" fill="magenta" stroke="black" stroke-width="0.5" />
<polygon points="510,752.487 475,691.865 545,691.865" transform="rotate(300 510 510)" fill="magenta" stroke="black" stroke-width="0.5" />
<polygon points="580,631.244 545,691.865 615,691.865" transform="rotate(300 510 510)" fill="magenta" stroke="black" stroke-width="0.5" />
<polygon points="580,752.487 545,691.865 615,691.865" transform="rotate(300 510 510)" fill="magenta" stroke="black" stroke-width="0.5" />
<polygon points="405,691.865 370,752.487 440,752.487" transform="rotate(300 510 510)" fill="magenta" stroke="black" stroke-width="0.5" />
<polygon points="405,813.109 370,752.487 440,752.487" transform="rotate(300 510 510)" fill="magenta" stroke="black" stroke-width="0.5" />
<polygon points="475,691.865 440,752.487 510,752.487" transform="rotate(300 510 510)" fill="magenta" stroke="black" stroke-width="0.5" />
<polygon points="475,813.109 440,752.487 510,752.487" transform="rotate(300 510 510)" fill="magenta" stroke="black" stroke-width="0.5" />
<polygon points="545,691.865 510,752.487 580,752.487" transform="rotate(300 510 510)" fill="magenta" stroke="black" stroke-width="0.5" />
<polygon points="545,813.109 510,752.487 580,752.487" transform="rotate(300 510 510)" fill="magenta" stroke="black" stroke-width="0.5" />
<polygon points="615,691.865 580,752.487 650,752.487" transform="rotate(300 510 510)" fill="magenta" stroke="black" stroke-width="0.5" />
<polygon points="615,813.109 580,752.487 650,752.487" transform="rotate(300 510 510)" fill="magenta" stroke="black" stroke-width="0.5" />
<polygon points="370,752.487 335,813.109 405,813.109" transform="rotate(300 510 510)" fill="magenta" stroke="black" stroke-width="0.5" />
<polygon points="370,873.731 335,813.109 405,813.109" transform="rotate(300 510 510)" fill="magenta" stroke="black" stroke-width="0.5" />
<polygon points="440,752.487 405,813.109 475,813.109" transform="rotate(300 510 510)" fill="magenta" stroke="black" stroke-width="0.5" />
<polygon points="440,873.731 405,813.109 475,813.109" transform="rotate(300 510 510)" fill="magenta" stroke="black" stroke-width="0.5" />
<polygon points="510,752.487 475,813.109 545,813.109" transform="rotate(300 510 510)" fill="magenta" stroke="black" stroke-width="0.5" />
<polygon points="510,873.731 475,813.109 545,813.109" transform="rotate(300 510 510)" fill="magenta" stroke="black" stroke-width="0.5" />
<polygon points="580,752.487 545,813.109 615,813.109" transform="rotate(300 510 510)" fill="magenta" stroke="black" stroke-width="0.5" />
<polygon points="580,873.731 545,813.109 615,813.109" transform="rotate(300 510 510)" fill="magenta" stroke="black" stroke-width="0.5" />
<polygon points="650,752.487 615,813.109 685,813.109" transform="rotate(300 510 510)" fill="magenta" stroke="black" stroke-width="0.5" />
<polygon points="650,873.731 615,813.109 685,813.109" transform="rotate(300 510 510)" fill="magenta" stroke="black" stroke-width="0.5" />
<polygon points="335,813.109 300,873.731 370,873.731" transform="rotate(300 510 510)" fill="magenta" stroke="black" stroke-width="0.5" />
<polygon points="335,934.352 300,873.731 370,873.731" transform="rotate(300 510 510)" fill="magenta" stroke="black" stroke-width="0.5" />
<polygon points="405,813.109 370,873.731 440,873.731" transform="rotate(300 510 510)" fill="magenta" stroke="black" stroke-width="0.5" />
<polygon points="405,934.352 370,873.731 440,873.731" transform="rotate(300 510 510)" fill="magenta" stroke="black" stroke-width="0.5" />
<polygon points="475,813.109 440,873.731 510,873.731" transform="rotate(300 510 510)" fill="magenta" stroke="black" stroke-width="0.5" />
<polygon points="475,934.352 440,873.731 510,873.731" transform="rotate(300 510 510)" fill="magenta" stroke="black" stroke-width="0.5" />
<polygon points="545,813.109 510,873.731 580,873.731" transform="rotate(300 510 510)" fill="magenta" stroke="black" stroke-width="0.5" />
<polygon points="545,934.352 510,873.731 580,873.731" transform="rotate(300 510 510)" fill="magenta" stroke="black" stroke-width="0.5" />
<polygon points="615,813.109 580,873.731 650,873.731" transform="rotate(300 510 510)" fill="magenta" stroke="black" stroke-width="0.5" />
<polygon points="615,934.352 580,873.731 650,873.731" transform="rotate(300 510 510)" fill="magenta" stroke="black" stroke-width="0.5" />
<polygon points="685,813.109 650,873.731 720,873.731" transform="rotate(300 510 510)" fill="magenta" stroke="black" stroke-width="0.5" />
<polygon points="685,934.352 650,873.731 720,873.731" transform="rotate(300 510 510)" fill="magenta" stroke="black" stroke-width="0.5" />
<polygon points="300,873.731 265,934.352 335,934.352" transform="rotate(300 510 510)" fill="magenta" stroke="black" stroke-width="0.5" />
<polygon points="370,873.731 335,934.352 405,934.352" transform="rotate(300 510 510)" fill="magenta" stroke="black" stroke-width="0.5" />
<polygon points="440,873.731 405,934.352 475,934.352" transform="rotate(300 510 510)" fill="magenta" stroke="black" stroke-width="0.5" />
<polygon points="510,873.731 475,934.352 545,934.352" transform="rotate(300 510 510)" fill="magenta" stroke="black" stroke-width="0.5" />
<polygon points="580,873.731 545,934.352 615,934.352" transform="rotate(300 510 510)" fill="magenta" stroke="black" stroke-width="0.5" />
<polygon points="650,873.731 615,934.352 685,934.352" transform="rotate(300 510 510)" fill="magenta" stroke="black" stroke-width="0.5" />
<polygon points="720,873.731 685,934.352 755,934.352" transform="rotate(300 510 510)" fill="magenta" stroke="black" stroke-width="0.5" />
<polygon points="480,934.352 445,994.974 515,994.974" transform="rotate(300 510 510)" fill="magenta" stroke="black" stroke-width="0.5" />
<polygon points="550,934.352 515,994.974 480,934.352" transform="rotate(300 510 510)" fill="magenta" stroke="black" stroke-width="0.5" />
<polygon points="480,934.352 445,994.974 410,934.352" transform="rotate(300 510 510)" fill="magenta" stroke="black" stroke-width="0.5" />
</svg>
